<?xml version="1.0" encoding="UTF-8" ?>
<!DOCTYPE svg PUBLIC "-//W3C//DTD SVG 1.1//EN" "http://www.w3.org/Graphics/SVG/1.1/DTD/svg11.dtd">
<svg width="1211pt" height="826pt" viewBox="0 0 1211 826" version="1.1" xmlns="http://www.w3.org/2000/svg">
<path fill="#f5f3ef" d=" M 0.00 0.00 L 1211.00 0.00 L 1211.00 826.00 L 0.00 826.00 L 0.00 108.51 C 9.60 107.05 19.32 106.82 29.00 106.24 C 38.97 104.86 50.07 106.23 58.72 100.06 C 65.06 96.34 66.92 88.08 73.46 84.67 C 80.05 83.60 88.25 83.55 93.08 88.97 C 96.19 92.40 96.64 98.85 102.17 99.38 C 103.44 95.62 104.19 91.70 105.67 88.00 C 114.34 88.76 118.02 97.93 124.10 102.83 C 127.52 105.78 132.03 103.39 135.97 103.38 C 140.21 103.36 144.89 103.03 148.58 105.54 C 150.91 107.23 152.77 109.47 154.59 111.68 C 156.89 114.53 157.55 118.27 159.44 121.35 C 160.23 121.55 161.03 121.72 161.84 121.87 C 163.80 118.87 165.56 113.76 170.02 114.37 C 176.19 114.91 178.54 121.57 183.37 124.40 C 187.71 124.96 192.51 125.29 196.61 123.51 C 199.67 122.23 199.67 118.62 200.42 115.91 C 201.10 112.97 203.44 110.32 206.52 109.85 C 212.65 108.75 219.05 109.10 224.99 111.02 C 230.56 112.73 236.77 113.71 241.19 117.81 C 243.45 119.84 243.65 123.28 245.92 125.29 C 249.66 125.86 253.44 124.84 257.07 123.99 C 259.82 123.11 263.21 122.07 264.24 119.03 C 265.74 112.52 260.24 106.50 262.38 100.02 C 263.30 95.05 267.11 89.58 272.79 90.39 C 272.58 93.47 271.26 96.23 269.72 98.84 C 267.75 102.07 268.62 105.96 268.60 109.53 C 269.11 109.86 270.13 110.53 270.65 110.87 C 270.76 108.23 270.52 105.54 271.08 102.93 C 271.70 100.01 273.88 97.82 275.08 95.16 C 275.82 93.01 275.50 90.70 275.51 88.47 C 273.11 87.99 270.45 87.04 268.15 88.38 C 262.50 91.32 259.40 97.73 259.44 103.96 C 258.93 108.98 262.80 113.53 261.50 118.55 C 258.20 122.95 252.09 122.46 247.20 122.34 C 246.10 119.50 245.04 116.40 242.44 114.56 C 238.52 111.68 233.73 110.40 229.18 108.90 C 220.88 106.23 211.68 105.57 203.32 108.34 C 198.66 110.42 197.76 115.91 196.01 120.12 C 192.76 122.79 187.94 121.79 184.06 121.60 C 181.22 119.93 179.44 117.02 177.17 114.71 C 174.61 112.01 170.60 110.76 166.97 111.60 C 164.21 112.95 162.49 115.59 160.61 117.90 C 157.01 112.50 153.75 106.53 148.37 102.67 C 142.37 99.81 135.39 100.35 128.99 101.29 C 126.74 101.77 124.60 100.55 123.03 99.04 C 118.62 94.78 115.62 88.95 110.15 85.85 C 107.93 84.82 104.29 84.35 103.13 87.11 C 101.84 89.92 101.30 93.00 100.27 95.91 C 97.13 91.20 95.12 84.92 89.27 82.89 C 83.84 81.26 77.75 80.83 72.28 82.48 C 66.37 86.11 62.87 92.38 58.21 97.32 C 52.08 103.21 43.05 103.74 35.02 103.91 C 23.38 105.44 11.65 106.10 0.00 107.56 L 0.00 0.00 Z" />
<path fill="#140f0d" d=" M 281.06 20.09 C 283.89 14.20 286.56 6.38 293.78 4.84 C 298.43 5.28 305.38 4.23 307.19 9.91 C 307.54 16.40 307.39 23.29 304.26 29.17 C 301.18 35.04 297.80 40.83 295.46 47.05 C 295.08 52.34 295.22 57.69 295.62 62.98 C 296.00 70.24 303.22 73.71 307.54 78.56 C 310.65 81.18 308.91 85.51 309.26 88.99 C 309.60 94.93 310.43 101.22 313.72 106.32 C 315.36 103.03 316.85 99.17 320.19 97.25 C 322.16 95.94 324.40 97.04 326.37 97.69 C 327.66 105.40 325.08 113.64 328.50 120.98 C 329.07 122.60 330.55 123.57 331.86 124.56 C 335.10 119.52 335.51 113.43 337.99 108.08 C 339.26 104.84 341.79 102.36 343.78 99.57 C 345.70 97.03 347.27 93.94 350.40 92.68 C 355.28 90.65 361.02 88.19 366.17 90.78 C 372.72 96.37 372.69 106.45 369.63 113.90 C 368.47 117.61 365.26 120.03 363.05 123.06 C 362.20 126.10 362.91 129.35 362.23 132.43 C 360.40 137.68 357.91 142.86 353.69 146.63 C 348.11 151.51 341.45 154.97 335.86 159.84 C 330.87 164.18 325.03 167.67 320.93 172.95 C 319.58 177.66 319.97 182.97 317.22 187.28 C 314.13 192.15 311.43 197.28 307.89 201.86 C 303.57 207.03 301.03 213.46 296.40 218.40 C 289.88 225.86 291.29 236.48 292.54 245.52 C 296.54 246.06 302.56 245.00 304.24 249.86 C 304.81 257.37 303.65 264.97 304.90 272.45 C 305.71 276.52 310.51 277.62 314.03 278.06 C 326.99 278.67 339.98 278.19 352.95 278.62 C 358.11 279.13 364.10 280.07 367.49 284.46 C 370.73 288.13 370.27 293.41 370.31 297.97 C 370.72 306.47 368.56 315.25 371.73 323.45 C 375.71 323.43 381.13 324.07 383.35 319.90 C 385.21 314.85 383.63 309.34 383.65 304.11 C 383.56 299.22 376.55 297.39 377.81 292.15 C 378.98 285.33 385.32 281.25 389.13 275.91 C 389.23 270.61 389.85 265.16 388.24 260.01 C 387.01 256.12 387.63 251.91 386.16 248.09 C 384.86 244.52 383.47 240.86 383.70 236.99 C 384.28 225.69 387.25 214.17 394.00 204.93 C 395.42 203.04 397.71 202.17 400.04 202.37 C 409.31 202.71 419.70 201.47 427.56 207.49 C 431.60 210.97 435.78 215.37 436.03 221.02 C 436.47 226.48 435.77 232.00 436.51 237.44 C 438.12 241.19 441.21 246.39 446.10 244.99 C 452.61 244.63 452.15 235.77 457.86 234.00 C 467.21 230.80 478.28 232.84 485.54 239.64 C 489.28 243.90 489.77 249.76 490.91 255.08 C 491.99 259.63 491.49 264.37 492.52 268.92 C 493.69 274.05 493.43 279.36 494.44 284.51 C 495.91 285.34 497.41 286.10 498.93 286.84 C 507.65 293.86 520.08 295.69 526.95 305.03 C 528.91 309.84 527.79 315.53 525.60 320.13 C 523.77 323.43 524.57 327.21 523.95 330.77 C 523.34 333.79 524.49 337.95 528.07 338.34 C 532.49 340.07 538.54 338.77 541.29 343.48 C 542.05 348.85 542.12 354.68 540.10 359.80 C 536.68 365.18 529.33 363.62 523.94 363.81 C 516.83 363.29 508.43 365.76 502.59 360.43 C 497.87 356.93 497.79 350.12 499.43 345.02 C 500.74 340.77 505.80 338.16 505.09 333.27 C 504.65 331.51 505.17 328.76 503.06 328.05 C 495.98 326.78 489.02 329.32 481.96 329.48 C 473.95 329.75 466.62 333.35 459.04 335.55 C 450.65 338.37 443.07 344.57 439.89 352.99 C 438.28 357.57 436.06 362.20 436.58 367.20 C 442.88 360.63 448.23 352.88 456.15 348.07 C 460.50 346.00 465.41 347.35 470.02 347.18 C 473.21 347.44 477.29 346.37 479.41 349.48 C 479.17 357.75 477.21 366.01 478.57 374.31 C 482.94 374.74 487.39 374.46 491.67 375.59 C 492.10 379.48 490.01 382.92 488.01 386.06 C 486.91 388.00 484.79 388.95 482.82 389.77 C 477.41 391.77 472.14 395.16 466.12 394.46 C 463.48 394.60 461.37 392.96 459.47 391.36 C 459.45 390.07 459.42 388.78 459.40 387.50 C 455.20 388.19 451.29 390.06 447.76 392.39 C 443.57 395.59 438.13 399.20 437.97 405.04 C 437.74 409.01 437.67 413.00 437.16 416.95 C 434.65 418.76 432.62 421.33 429.74 422.56 C 423.12 424.30 415.21 424.70 410.53 430.39 C 408.70 433.25 407.06 436.53 407.23 440.02 C 407.36 446.56 407.15 453.11 407.28 459.65 C 407.22 463.25 407.73 467.29 405.35 470.33 C 402.38 474.43 399.66 478.72 396.41 482.60 C 392.54 485.79 388.10 488.86 382.95 489.31 C 380.78 489.61 378.08 489.56 376.71 491.63 C 375.38 495.61 375.93 499.90 375.77 504.03 C 375.45 513.40 375.38 522.79 374.28 532.11 C 373.74 533.44 372.75 535.04 371.04 534.62 C 363.97 532.54 356.99 528.37 353.78 521.47 C 351.37 514.52 354.43 506.65 351.13 499.90 C 344.99 497.88 338.32 499.99 331.98 499.81 C 325.35 499.60 318.61 498.84 312.03 500.07 C 302.78 502.57 292.71 505.68 286.99 513.98 C 283.66 519.32 279.43 524.34 277.75 530.51 C 276.59 537.13 277.49 543.91 278.41 550.50 C 278.03 551.38 277.60 552.24 277.12 553.08 C 274.08 543.21 273.31 531.85 278.80 522.67 C 283.11 516.16 286.63 508.61 293.57 504.43 C 302.42 499.25 312.70 496.17 323.03 496.79 C 330.02 496.81 336.95 495.48 343.96 495.77 C 347.05 496.00 351.10 495.03 353.32 497.78 C 357.47 504.93 353.25 513.75 356.74 521.13 C 359.42 526.96 365.65 529.88 371.48 531.61 C 374.62 520.02 373.20 507.87 372.98 496.04 C 371.82 491.54 375.41 486.49 380.14 486.57 C 384.80 486.60 389.19 484.70 393.01 482.21 C 397.15 478.52 400.68 474.08 403.03 469.05 C 404.55 465.01 404.28 460.59 404.35 456.35 C 404.55 448.01 402.98 439.24 406.52 431.38 C 408.85 425.93 414.54 422.85 420.07 421.55 C 424.26 420.45 429.29 420.72 432.29 417.06 C 437.41 412.38 432.39 404.48 436.17 399.18 C 438.69 395.50 442.07 392.48 445.71 389.94 C 450.23 386.86 455.39 384.23 461.02 384.48 C 462.77 381.58 464.05 378.33 466.56 375.97 C 467.27 381.08 462.85 385.15 462.46 390.21 C 469.43 394.14 477.06 389.92 483.16 386.33 C 486.50 384.78 487.69 381.01 488.71 377.77 C 485.47 377.36 482.20 377.42 478.95 377.39 C 477.30 377.58 475.74 376.23 475.61 374.61 C 474.79 366.60 475.03 358.55 476.38 350.62 C 471.33 349.46 466.12 349.80 460.99 349.83 C 455.93 349.71 452.31 353.79 448.90 356.95 C 447.38 358.57 445.88 360.21 444.43 361.90 C 441.63 364.95 439.50 368.52 437.02 371.83 C 433.23 370.55 434.41 365.99 434.81 362.93 C 436.92 357.12 438.91 351.22 441.75 345.71 C 443.77 341.55 447.83 339.08 451.35 336.33 C 454.13 334.08 457.70 333.35 461.10 332.56 C 467.48 331.02 473.32 327.63 479.90 326.88 C 485.23 326.08 490.60 325.57 495.97 324.98 C 499.39 324.67 502.99 324.29 506.22 325.77 C 507.85 329.36 507.95 333.34 508.43 337.19 C 506.18 341.84 500.70 345.14 501.60 350.96 C 500.60 356.48 506.20 360.00 510.82 361.14 C 515.85 361.85 520.97 361.54 526.04 361.66 C 529.78 361.62 534.23 361.89 537.05 358.94 C 539.62 354.70 538.65 349.37 538.41 344.68 C 534.32 340.41 526.94 343.52 522.99 339.01 C 520.00 336.18 520.96 331.60 520.90 327.91 C 521.98 320.73 526.47 313.87 524.41 306.40 C 521.15 301.91 516.00 299.43 511.27 296.80 C 506.75 294.57 502.31 292.18 497.74 290.08 C 497.08 289.79 495.76 289.21 495.10 288.93 C 491.87 287.13 490.56 283.55 490.81 280.00 C 491.13 274.26 489.39 268.71 489.28 263.00 C 489.05 256.51 487.83 249.94 484.99 244.07 C 479.69 236.08 468.98 234.26 460.16 236.10 C 454.90 237.36 455.24 244.50 450.63 246.65 C 446.67 248.78 440.95 248.45 438.01 244.74 C 436.34 242.87 434.62 240.96 433.52 238.68 C 432.36 231.53 434.21 224.09 432.36 217.01 C 428.74 209.17 419.98 204.94 411.62 204.91 C 406.73 204.95 401.53 203.96 396.85 205.75 C 391.41 211.05 388.32 218.57 386.90 225.94 C 386.83 233.78 385.73 242.08 389.37 249.35 C 391.39 258.39 392.79 267.71 392.17 277.02 C 389.02 282.32 382.15 285.36 381.19 291.89 C 379.93 296.43 385.93 297.93 386.34 302.08 C 386.91 307.04 386.49 312.05 386.52 317.03 C 386.72 322.08 381.78 326.12 376.98 326.29 C 374.20 326.40 369.96 327.53 368.97 323.92 C 368.05 317.68 368.98 311.28 368.01 305.01 C 367.31 298.11 369.64 289.50 363.51 284.41 C 354.06 279.78 343.17 280.94 332.94 280.80 C 324.92 280.54 316.78 282.06 308.88 280.03 C 304.90 278.97 301.42 275.34 301.56 271.05 C 301.85 264.23 301.95 257.38 301.32 250.58 C 298.95 247.79 294.56 249.56 291.44 248.44 C 289.59 247.32 289.42 244.93 289.39 243.00 C 289.33 238.29 289.22 233.58 289.45 228.89 C 290.30 222.15 294.82 216.93 298.79 211.76 C 303.00 203.83 309.88 197.60 313.27 189.21 C 314.94 186.06 316.43 182.74 316.70 179.13 C 317.43 175.73 316.92 171.40 320.06 169.08 C 325.61 164.89 331.82 161.64 337.27 157.29 C 341.86 153.65 346.87 150.43 350.76 146.00 C 353.69 141.96 357.20 138.21 358.77 133.36 C 360.63 129.35 358.71 124.61 360.64 120.68 C 362.51 118.57 365.21 117.17 366.50 114.56 C 368.76 110.48 368.90 105.70 369.04 101.15 C 368.67 96.68 364.77 92.09 359.97 92.67 C 355.12 93.14 350.41 95.56 347.34 99.37 C 344.54 102.81 340.99 105.81 339.42 110.08 C 337.15 114.84 337.09 120.26 335.10 125.11 C 334.35 127.68 330.64 128.04 329.01 126.10 C 324.67 122.08 324.48 115.62 324.09 110.12 C 323.58 106.61 324.17 103.01 323.35 99.56 C 317.93 99.63 317.15 106.05 315.27 109.90 C 314.59 109.82 313.23 109.67 312.54 109.59 C 309.98 105.15 308.62 100.19 306.88 95.41 C 305.72 90.77 307.32 85.75 305.74 81.21 C 302.63 77.00 298.08 74.07 294.95 69.86 C 293.24 66.86 293.15 63.32 292.88 59.97 C 292.75 54.30 292.25 48.22 295.05 43.05 C 298.77 36.35 304.00 29.93 304.40 21.96 C 304.53 18.00 305.13 13.97 304.36 10.05 C 302.26 7.17 298.18 7.58 295.03 7.52 C 289.00 8.27 285.50 14.00 282.71 18.79 C 281.10 22.72 279.87 26.79 278.74 30.88 C 277.88 38.92 276.03 46.92 276.53 55.05 C 276.72 63.06 276.27 71.07 276.55 79.08 C 276.84 84.58 280.61 89.11 281.20 94.56 C 282.32 105.19 282.81 116.27 279.43 126.56 C 277.30 127.42 274.54 127.99 273.32 125.48 C 270.67 120.93 269.24 115.42 269.50 110.16 C 271.67 111.65 271.41 114.51 272.14 116.76 C 272.73 119.76 274.21 122.50 276.25 124.77 C 278.84 121.07 279.23 116.37 279.57 112.00 C 279.68 104.84 280.14 97.41 277.56 90.58 C 275.60 86.36 274.23 81.77 274.41 77.08 C 274.77 68.37 273.77 59.61 275.03 50.94 C 275.91 40.49 277.28 29.94 281.06 20.09 Z" />
<path fill="#140f0d" d=" M 1040.38 66.52 C 1047.86 65.37 1055.47 65.70 1063.02 65.77 C 1067.47 66.70 1072.21 68.20 1075.10 71.98 C 1081.62 80.03 1086.97 89.36 1095.53 95.50 C 1099.54 97.27 1102.19 100.84 1105.51 103.55 C 1113.63 108.30 1122.92 110.40 1131.96 112.72 C 1135.96 113.69 1139.59 115.78 1143.07 117.95 C 1146.25 121.00 1145.45 126.14 1144.92 130.10 C 1143.88 136.11 1138.30 139.55 1133.32 142.12 C 1129.19 144.25 1124.46 143.23 1120.03 143.41 C 1111.26 143.60 1102.50 141.44 1094.70 137.47 C 1091.33 140.68 1090.08 145.33 1088.39 149.52 C 1087.59 152.98 1086.38 157.68 1089.82 160.13 C 1093.35 162.95 1095.43 167.15 1099.12 169.80 C 1102.54 172.53 1106.42 175.40 1111.04 175.13 C 1113.32 174.72 1116.39 173.86 1116.27 170.97 C 1117.37 167.27 1112.75 162.90 1116.14 159.94 C 1121.23 158.40 1126.67 159.01 1131.92 158.60 C 1135.13 157.74 1136.93 161.50 1140.04 161.39 C 1144.36 161.66 1149.91 162.92 1153.10 159.12 C 1155.40 156.65 1155.29 153.09 1155.46 149.95 C 1155.51 146.86 1156.89 144.01 1157.17 140.96 C 1154.47 131.55 1155.99 121.57 1153.86 112.05 C 1153.46 109.99 1152.85 107.82 1153.59 105.77 C 1156.37 103.15 1160.52 103.69 1164.04 103.64 C 1170.11 103.20 1173.97 109.55 1174.26 114.94 C 1175.26 121.46 1169.85 126.64 1169.86 133.01 C 1170.07 135.24 1171.06 137.28 1171.94 139.31 C 1177.06 141.23 1182.66 140.53 1188.02 140.72 C 1193.31 140.72 1199.42 141.45 1203.74 137.69 C 1204.74 135.97 1205.02 133.61 1207.43 133.24 C 1207.89 135.31 1207.76 137.62 1206.34 139.32 C 1202.96 142.20 1198.42 143.38 1194.05 143.22 C 1188.02 143.15 1181.98 143.30 1175.96 143.19 C 1173.66 142.86 1170.77 142.78 1169.45 140.54 C 1166.96 136.63 1165.75 131.33 1168.05 127.05 C 1169.91 123.30 1172.05 119.36 1171.61 115.02 C 1171.36 111.70 1169.69 108.00 1166.48 106.62 C 1163.10 105.92 1159.59 106.40 1156.29 107.24 C 1156.98 114.83 1157.64 122.43 1158.29 130.02 C 1157.82 135.07 1161.80 139.70 1159.71 144.73 C 1157.88 148.91 1158.36 153.59 1157.05 157.89 C 1155.65 162.04 1151.19 164.18 1147.03 164.14 C 1142.32 163.95 1136.68 165.50 1133.11 161.49 C 1128.08 160.95 1122.96 161.04 1118.03 162.21 C 1119.46 166.37 1120.45 171.20 1118.23 175.28 C 1115.35 178.17 1110.73 178.88 1106.87 177.92 C 1103.20 176.68 1100.17 174.15 1097.17 171.80 C 1094.13 169.48 1092.40 165.91 1089.41 163.55 C 1087.09 161.61 1084.11 159.42 1084.57 155.98 C 1084.27 150.58 1087.33 145.93 1089.18 141.08 C 1090.38 138.71 1091.29 135.81 1093.81 134.51 C 1096.53 134.25 1098.76 136.08 1101.15 137.09 C 1105.47 139.22 1110.15 140.82 1115.04 140.59 C 1122.18 140.31 1130.15 141.73 1136.37 137.29 C 1140.52 135.22 1142.49 130.44 1142.24 125.97 C 1142.06 123.63 1142.25 120.48 1139.63 119.43 C 1135.36 116.17 1129.98 115.22 1124.94 113.79 C 1117.75 111.83 1110.36 110.02 1103.98 106.01 C 1100.62 103.71 1097.99 100.49 1094.45 98.45 C 1088.27 94.44 1083.67 88.55 1079.47 82.61 C 1075.56 78.60 1073.56 72.41 1067.88 70.41 C 1062.02 67.27 1055.28 68.88 1048.97 68.48 C 1037.74 68.02 1027.64 73.67 1017.57 77.79 C 1010.04 82.72 1003.21 88.64 995.89 93.86 C 992.45 96.14 990.14 99.58 987.84 102.90 C 986.96 102.46 986.09 102.01 985.23 101.56 C 980.08 108.81 976.17 116.84 971.01 124.08 C 967.17 129.41 963.92 135.15 961.25 141.15 C 959.50 145.18 957.57 149.31 954.19 152.25 C 951.19 154.88 948.77 158.09 945.74 160.67 C 939.50 165.66 935.56 173.17 934.38 181.02 C 933.72 186.63 927.42 188.84 926.00 194.07 C 924.80 198.69 921.33 202.13 919.27 206.33 C 916.30 209.99 912.15 213.67 912.53 218.84 C 914.28 219.80 916.55 220.39 917.53 222.31 C 917.86 227.20 918.06 232.59 914.77 236.62 C 911.87 239.93 911.79 244.79 913.21 248.74 C 913.69 251.01 916.26 250.55 918.00 250.38 C 923.05 249.47 927.79 246.93 931.47 243.36 C 934.61 240.40 938.39 238.15 942.42 236.63 C 947.34 235.31 953.69 238.52 954.10 243.98 C 954.91 251.77 953.29 259.75 955.20 267.46 C 955.94 271.74 958.48 275.55 961.92 278.16 C 964.62 281.03 968.72 278.79 971.99 278.25 C 978.62 275.56 981.94 268.59 983.67 262.07 C 985.40 257.22 984.34 251.95 985.62 247.01 C 986.42 244.92 987.65 243.02 988.39 240.90 C 990.64 235.16 989.27 228.91 989.70 222.94 C 989.99 218.77 989.05 214.73 987.60 210.87 C 987.10 206.15 987.27 201.17 988.98 196.68 C 991.70 192.29 996.42 189.52 999.20 185.16 C 999.41 178.27 998.70 171.07 1001.44 164.55 C 1003.32 160.95 1005.32 157.32 1008.11 154.34 C 1014.08 149.96 1021.53 147.37 1028.99 148.38 C 1033.18 148.99 1038.83 148.28 1041.41 152.39 C 1042.35 157.22 1041.94 162.53 1040.03 167.11 C 1037.74 170.34 1035.03 173.33 1031.99 175.89 C 1026.32 180.20 1021.12 185.20 1017.10 191.10 C 1015.74 193.15 1014.14 195.33 1014.27 197.92 C 1014.28 202.98 1014.01 208.11 1014.79 213.13 C 1016.42 216.64 1018.27 220.15 1020.80 223.11 C 1023.27 226.08 1027.50 225.30 1030.92 225.36 C 1036.19 225.46 1040.65 221.96 1045.90 221.89 C 1050.23 221.83 1054.74 221.54 1058.93 222.85 C 1062.40 225.05 1061.12 229.55 1060.90 232.94 C 1060.80 236.07 1058.61 238.50 1057.03 241.01 C 1055.44 243.55 1052.46 244.51 1049.96 245.87 C 1046.04 247.72 1043.52 251.67 1039.56 253.40 C 1033.67 254.55 1027.27 254.77 1022.03 258.00 C 1016.89 262.42 1021.99 270.26 1018.36 275.47 C 1016.27 278.46 1012.90 281.08 1009.05 280.50 C 1006.15 280.65 1002.85 279.47 1000.30 281.28 C 993.12 285.74 985.88 291.32 977.03 291.31 C 968.99 291.02 960.98 292.34 952.96 291.72 C 949.83 291.31 946.03 290.37 944.82 287.06 C 944.08 282.24 945.77 277.01 943.47 272.48 C 942.24 270.23 940.84 267.86 938.64 266.45 C 937.06 266.29 935.50 266.50 933.95 266.61 C 933.61 267.11 932.94 268.10 932.61 268.60 C 932.94 272.56 933.27 276.86 936.18 279.88 C 940.92 284.80 938.54 293.35 933.03 296.57 C 929.87 296.97 926.52 296.36 923.53 297.69 C 920.60 299.06 920.17 302.80 917.54 304.49 C 911.93 308.20 907.42 313.21 902.45 317.67 C 900.71 319.21 899.00 320.79 897.60 322.65 C 892.47 329.32 889.68 337.48 884.10 343.83 C 881.18 347.19 877.45 350.29 872.75 350.29 C 867.55 350.98 862.04 349.93 857.15 352.26 C 854.19 353.63 850.36 355.22 849.85 358.89 C 849.35 361.83 850.16 364.78 851.24 367.50 C 857.66 368.69 864.97 367.49 870.55 371.55 C 874.47 374.40 873.88 379.93 872.81 384.06 C 871.31 388.70 869.57 394.03 865.04 396.52 C 860.66 397.09 856.23 396.37 852.14 394.76 C 848.61 393.27 844.73 393.70 841.00 393.63 C 836.17 393.62 831.06 393.27 826.63 395.57 C 822.20 397.95 816.15 399.43 814.86 405.05 C 811.47 411.93 813.29 419.66 813.22 426.98 C 813.06 432.30 815.93 437.08 818.59 441.48 C 819.98 443.11 821.53 446.20 824.15 444.91 C 829.50 443.46 836.11 440.25 841.17 443.95 C 841.49 447.37 841.07 450.83 841.50 454.25 C 845.88 451.17 846.61 445.59 849.51 441.49 C 853.14 437.44 858.72 442.56 862.90 439.87 C 866.42 437.61 870.76 435.60 872.38 431.44 C 873.19 426.25 871.62 420.69 873.78 415.72 C 877.06 410.51 881.44 406.10 885.62 401.59 C 887.89 399.21 891.18 397.80 892.76 394.77 C 894.10 392.78 894.74 390.02 897.08 388.90 C 898.92 388.06 901.67 388.19 902.75 390.20 C 904.25 392.64 905.89 395.00 907.98 396.99 C 910.84 394.89 913.95 392.90 915.71 389.70 C 917.04 387.28 919.59 386.05 921.77 384.55 C 925.62 385.16 929.61 385.33 933.28 386.73 C 935.81 388.39 937.36 391.10 939.46 393.23 C 944.87 397.15 946.73 404.00 951.73 408.29 C 955.18 411.36 959.45 413.49 963.94 414.54 C 966.41 415.07 968.29 417.43 968.51 419.92 C 969.06 425.73 968.19 431.63 969.39 437.40 C 973.50 435.09 975.50 430.63 978.64 427.31 C 978.69 423.70 979.05 420.03 978.37 416.46 C 977.08 413.88 974.25 412.69 971.85 411.41 C 968.58 409.97 965.81 407.68 962.73 405.95 C 958.76 403.74 954.77 401.57 951.02 399.03 C 947.48 396.57 946.00 392.28 944.87 388.32 C 944.83 387.38 944.73 385.52 944.69 384.59 C 944.86 380.52 944.00 375.55 947.29 372.47 C 949.96 371.14 953.07 372.14 955.91 372.31 C 957.30 372.49 958.68 372.73 960.08 373.05 C 963.30 373.84 966.07 375.80 969.21 376.88 C 974.04 378.38 975.99 383.47 979.15 386.95 C 983.11 391.37 985.60 396.90 989.86 401.08 C 995.65 407.05 997.66 415.27 1000.46 422.83 C 1003.22 429.90 1005.66 437.16 1009.24 443.88 C 1011.09 447.67 1015.88 445.99 1019.11 445.49 C 1022.58 445.05 1024.86 442.03 1026.51 439.23 C 1025.02 433.85 1021.43 429.31 1017.16 425.84 C 1015.30 424.25 1013.25 422.86 1011.71 420.95 C 1010.43 416.07 1012.73 409.37 1017.99 407.94 C 1023.07 407.61 1028.21 408.55 1033.04 410.15 C 1035.59 410.87 1038.16 413.16 1037.73 416.05 C 1037.35 422.33 1036.69 428.72 1037.73 434.97 C 1039.28 438.71 1040.74 442.65 1043.30 445.84 C 1046.27 449.13 1051.06 448.08 1055.00 448.22 C 1059.93 448.40 1064.41 446.08 1069.14 445.11 C 1075.60 443.03 1082.53 443.68 1089.10 444.82 C 1091.59 445.57 1094.43 446.75 1095.44 449.38 C 1096.77 453.14 1095.63 457.13 1095.81 461.01 C 1095.72 464.65 1096.03 468.35 1095.40 471.96 C 1092.82 478.81 1086.74 483.88 1084.76 490.98 C 1086.06 494.17 1088.50 496.70 1090.26 499.63 C 1093.53 504.99 1098.37 509.28 1100.99 515.05 C 1105.59 522.96 1108.99 531.83 1115.83 538.17 C 1120.16 542.25 1123.32 547.33 1127.05 551.93 C 1132.08 558.61 1134.09 566.90 1137.75 574.31 C 1139.44 577.94 1140.59 581.80 1141.01 585.80 C 1141.93 593.67 1145.66 601.23 1144.58 609.28 C 1143.88 609.59 1142.49 610.21 1141.79 610.52 C 1139.23 607.88 1138.08 604.12 1135.01 601.96 C 1131.20 599.15 1127.92 595.70 1124.01 593.04 C 1118.00 589.09 1113.24 583.22 1110.67 576.51 C 1108.26 570.63 1105.73 564.81 1102.87 559.15 C 1098.43 550.61 1099.07 540.57 1095.20 531.82 C 1092.44 524.13 1088.29 517.08 1083.35 510.59 C 1080.22 506.06 1076.27 501.63 1075.62 495.94 C 1075.51 490.96 1074.68 486.02 1074.82 481.04 C 1074.94 479.10 1074.36 477.26 1073.51 475.55 C 1066.48 472.54 1058.27 473.74 1052.05 478.05 C 1047.34 480.11 1043.92 484.35 1039.09 486.04 C 1030.88 486.66 1022.13 485.63 1015.25 480.73 C 1012.33 478.93 1010.27 476.15 1007.76 473.91 C 1002.96 471.89 997.63 473.14 992.66 473.69 C 993.47 477.09 994.13 480.65 993.36 484.12 C 992.22 486.92 988.75 487.67 986.03 487.46 C 981.58 487.53 976.66 485.40 975.07 480.95 C 973.86 478.78 973.95 475.69 972.02 474.09 C 966.46 473.02 960.72 474.02 955.11 473.51 C 948.91 472.27 943.71 467.84 941.15 462.10 C 935.13 461.46 928.78 464.99 923.12 461.69 C 918.92 459.59 919.23 453.85 915.26 451.47 C 911.72 452.35 908.78 454.95 905.09 455.19 C 901.73 455.42 898.37 455.37 895.03 455.20 C 890.42 454.94 886.77 451.08 882.03 451.68 C 876.55 452.15 869.83 450.20 865.50 454.54 C 861.98 457.60 861.56 463.26 857.16 465.41 C 851.46 465.74 846.23 463.22 840.96 461.50 C 835.24 460.83 830.13 464.48 826.11 468.12 C 821.77 475.47 818.86 483.63 813.78 490.52 C 812.06 494.26 812.12 498.73 810.00 502.26 L 808.45 503.02 C 808.65 500.25 809.25 497.54 809.75 494.81 C 808.15 496.87 806.31 499.08 806.71 501.89 C 806.44 504.18 807.46 507.80 804.48 508.61 C 798.24 509.95 792.62 513.63 788.34 518.30 C 782.26 524.39 778.92 532.43 775.17 540.01 C 771.68 545.42 770.16 551.80 769.11 558.08 C 768.54 565.09 766.37 571.87 766.20 578.93 C 766.13 583.95 766.24 588.97 766.16 594.00 C 765.98 600.83 767.72 607.58 770.25 613.89 C 773.86 620.29 776.80 627.07 780.78 633.27 C 784.15 638.11 786.75 643.68 791.57 647.33 C 796.44 650.94 800.80 655.48 806.58 657.67 C 810.58 659.21 813.87 662.23 818.07 663.35 C 823.54 664.55 828.80 666.78 834.47 666.99 C 840.59 667.29 846.77 667.53 852.89 666.97 C 858.49 666.70 862.99 663.03 868.06 661.11 C 872.70 658.55 877.67 656.51 882.85 655.35 C 887.53 655.11 892.29 654.88 896.96 655.44 C 899.66 657.29 902.46 659.61 903.15 663.00 C 904.42 667.91 907.80 672.66 912.92 673.96 C 918.19 675.36 922.97 671.31 928.28 672.24 C 931.34 679.19 928.97 686.84 928.35 694.03 C 928.04 705.02 937.03 712.82 944.30 719.78 C 947.65 724.21 951.07 728.78 952.86 734.11 C 954.13 737.60 954.48 741.33 955.06 744.99 C 956.20 751.93 954.93 759.02 956.13 765.97 C 956.60 769.53 958.10 772.83 958.83 776.34 C 957.80 776.46 956.77 776.58 955.76 776.71 C 953.47 767.66 952.06 758.35 952.48 748.99 C 953.51 735.96 945.76 723.76 935.92 715.87 C 927.96 708.83 923.74 697.46 926.12 686.99 C 926.93 683.11 926.55 679.13 926.32 675.22 C 921.24 675.94 916.06 678.79 910.95 676.65 C 906.01 674.17 902.06 669.74 900.39 664.45 C 899.67 661.73 897.84 658.96 894.96 658.33 C 890.94 658.16 886.89 658.07 882.89 658.53 C 873.25 661.27 864.68 666.91 854.94 669.35 C 844.30 670.80 833.18 670.68 822.97 667.03 C 818.68 665.85 814.31 664.75 810.51 662.36 C 806.96 660.10 802.64 659.26 799.39 656.52 C 793.26 651.43 786.44 646.86 782.16 639.95 C 776.38 632.92 772.93 624.47 768.68 616.52 C 766.64 611.98 766.08 606.99 764.76 602.23 C 763.30 596.93 763.51 591.38 763.59 585.94 C 764.20 575.43 764.44 564.80 767.43 554.63 C 769.30 549.61 769.12 543.87 772.45 539.42 C 777.88 530.94 781.85 521.33 789.11 514.17 C 793.36 510.76 797.68 506.72 803.31 505.93 C 803.72 503.03 803.29 499.97 804.24 497.18 C 805.92 494.27 808.23 491.78 810.42 489.25 C 814.09 485.69 811.38 479.65 814.85 475.91 C 818.59 471.28 822.81 466.90 827.91 463.75 C 831.72 461.02 835.93 457.55 840.96 458.47 C 846.13 459.80 851.30 463.81 856.80 461.91 C 860.73 457.46 862.95 450.54 869.41 448.97 C 874.23 448.46 879.11 448.85 883.96 448.69 C 888.08 448.46 891.35 451.59 895.35 452.07 C 898.58 452.41 901.88 452.44 905.12 452.03 C 908.93 451.55 911.89 447.78 915.98 448.85 C 921.01 450.10 920.86 456.65 925.02 459.00 C 930.80 461.91 937.60 456.51 943.21 459.78 C 946.00 464.14 949.18 468.74 954.49 470.21 C 959.23 471.05 964.11 471.33 968.92 470.84 C 970.89 470.81 973.45 470.21 974.75 472.18 C 976.86 475.75 976.94 480.79 980.81 483.18 C 983.65 484.54 987.77 485.54 990.34 483.18 C 991.67 479.39 989.74 475.57 989.40 471.80 C 994.37 469.77 999.84 470.84 1005.06 470.56 C 1010.40 470.18 1012.76 475.80 1016.71 478.30 C 1023.02 483.73 1032.13 484.63 1039.95 482.70 C 1045.71 479.38 1051.10 475.35 1057.13 472.49 C 1062.96 470.60 1070.15 469.41 1075.40 473.43 C 1079.15 476.10 1077.32 481.16 1078.04 485.03 C 1079.07 490.83 1077.21 497.12 1080.26 502.49 C 1084.32 509.69 1089.26 516.42 1092.93 523.86 C 1095.32 529.11 1097.26 534.55 1098.99 540.05 C 1100.79 545.36 1101.34 551.06 1103.67 556.20 C 1108.53 565.47 1110.44 576.34 1117.37 584.48 C 1120.81 588.79 1125.60 591.63 1129.84 595.06 C 1133.97 598.47 1139.06 600.76 1142.31 605.17 C 1142.49 600.70 1141.81 596.29 1141.12 591.90 C 1140.69 590.25 1140.40 588.57 1140.11 586.92 C 1138.30 579.55 1134.28 573.05 1132.07 565.83 C 1129.55 560.46 1128.05 554.52 1124.09 549.95 C 1120.11 543.98 1112.97 540.92 1109.62 534.47 C 1104.65 527.77 1101.32 520.11 1097.02 513.00 C 1092.99 505.85 1086.40 500.58 1082.28 493.48 C 1080.69 490.91 1082.48 488.08 1084.07 486.03 C 1087.16 481.79 1090.17 477.38 1092.17 472.50 C 1093.71 465.74 1093.17 458.73 1092.78 451.87 C 1092.99 449.34 1089.99 448.52 1088.09 447.89 C 1082.29 447.14 1076.24 445.98 1070.52 447.79 C 1065.95 448.71 1061.78 451.45 1056.99 451.17 C 1053.02 450.95 1048.93 451.63 1045.04 450.78 C 1038.97 448.51 1037.56 441.58 1034.83 436.45 C 1033.15 429.27 1034.85 421.78 1034.38 414.52 C 1030.83 410.63 1024.76 411.28 1019.95 411.16 C 1015.72 410.47 1014.08 415.85 1014.49 419.20 C 1019.55 424.92 1026.63 429.35 1029.19 436.93 C 1030.33 440.71 1027.55 443.72 1024.90 445.93 C 1021.83 449.14 1017.04 449.08 1012.93 449.31 C 1009.52 449.82 1007.22 446.77 1005.88 444.09 C 1001.00 433.86 997.34 423.13 993.42 412.53 C 990.87 405.66 984.77 401.12 981.19 394.89 C 978.66 391.13 975.71 387.67 973.11 383.96 C 970.29 379.73 965.06 378.69 960.89 376.31 C 959.22 376.34 957.21 377.06 956.06 375.37 C 953.53 375.26 951.01 375.24 948.49 375.29 C 947.24 382.33 946.27 391.49 952.43 396.58 C 958.15 399.89 964.03 402.97 969.52 406.69 C 973.70 409.14 979.41 410.38 981.41 415.36 C 982.09 419.87 982.86 424.77 981.26 429.16 C 977.43 433.18 975.15 439.65 968.95 440.44 C 968.40 440.10 967.30 439.42 966.75 439.08 C 965.54 434.14 965.47 429.04 965.64 424.00 C 965.51 422.37 965.91 420.53 964.98 419.10 C 964.06 417.23 961.69 417.47 960.04 416.81 C 953.83 414.40 947.90 410.43 944.56 404.51 C 942.50 401.04 940.07 397.80 936.98 395.20 C 935.13 393.34 933.60 391.11 931.39 389.67 C 928.35 388.41 924.99 388.25 921.75 388.19 C 919.79 388.93 918.61 390.69 917.69 392.47 C 916.25 395.36 913.23 396.87 910.91 398.94 C 909.41 400.31 906.78 400.28 905.41 398.76 C 903.04 396.41 901.40 393.44 898.99 391.12 C 895.65 393.91 894.75 398.66 891.13 401.18 C 885.46 405.08 880.52 410.11 876.90 415.97 C 874.51 421.08 876.54 426.94 875.31 432.28 C 873.22 437.33 868.41 440.46 863.85 443.08 C 860.08 444.75 855.95 442.67 852.03 443.31 C 849.77 446.47 849.36 450.71 846.38 453.43 C 844.41 455.18 842.80 458.28 839.75 457.77 C 837.92 454.03 839.12 449.59 838.36 445.57 C 833.64 444.42 828.96 445.73 824.79 447.93 C 822.39 449.50 819.72 447.68 818.51 445.54 C 814.73 439.60 810.19 433.41 810.41 426.01 C 810.69 419.38 809.33 412.40 811.89 406.07 C 813.05 402.35 814.43 397.98 818.35 396.33 C 823.09 394.15 827.52 390.70 832.97 390.70 C 838.31 390.70 843.66 390.46 848.99 390.75 C 854.05 392.05 858.98 394.16 864.34 393.68 C 868.65 389.40 870.88 383.03 870.62 377.04 C 868.85 372.13 862.82 371.39 858.33 371.07 C 854.68 370.52 849.14 371.84 847.81 367.20 C 847.03 362.79 845.98 357.09 849.66 353.66 C 854.16 349.86 860.00 347.32 865.98 347.61 C 870.34 347.44 875.18 347.62 878.83 344.82 C 883.34 342.00 885.51 336.96 888.58 332.83 C 892.09 328.10 893.77 322.19 897.93 317.93 C 898.91 316.93 899.47 315.64 900.03 314.38 C 900.40 314.44 901.14 314.56 901.51 314.62 L 901.35 313.83 C 903.58 313.75 904.99 311.89 906.51 310.52 C 909.18 307.78 912.04 305.22 915.01 302.80 C 917.49 300.91 918.20 297.45 920.94 295.83 C 924.15 293.56 928.31 294.15 932.00 293.44 C 935.10 290.70 936.97 285.56 934.05 282.01 C 930.85 277.75 928.79 272.38 929.79 267.01 C 931.13 263.10 936.17 262.66 939.58 263.63 C 942.63 265.38 944.39 268.66 946.37 271.47 C 948.55 276.48 946.82 282.24 948.37 287.45 C 957.38 290.34 966.81 287.60 976.02 288.29 C 980.39 288.88 984.26 286.49 988.24 285.15 C 992.02 282.54 996.15 280.51 1000.06 278.10 C 1004.52 275.58 1010.60 279.49 1014.41 275.34 C 1018.65 271.07 1015.47 264.29 1017.25 259.15 C 1018.82 256.26 1021.73 254.29 1024.88 253.47 C 1028.84 252.16 1032.87 251.00 1037.06 250.68 C 1040.67 250.69 1043.16 247.77 1045.65 245.55 C 1047.92 243.33 1050.91 242.15 1053.48 240.34 C 1057.40 236.67 1059.26 230.94 1057.71 225.72 C 1054.26 224.63 1050.61 224.73 1047.05 224.72 C 1041.40 224.46 1036.65 228.47 1031.02 228.34 C 1027.61 228.28 1023.74 229.32 1020.75 227.17 C 1016.85 224.64 1015.04 220.16 1012.71 216.35 C 1010.60 212.95 1011.41 208.79 1011.35 205.02 C 1011.59 201.58 1010.94 198.04 1011.84 194.68 C 1015.38 187.15 1021.38 181.14 1027.58 175.74 C 1032.16 172.76 1036.63 168.81 1038.09 163.33 C 1038.74 160.16 1039.06 156.84 1038.50 153.64 C 1032.93 150.66 1026.16 151.18 1020.05 151.52 C 1016.49 152.94 1012.94 154.60 1009.89 156.94 C 1007.83 159.26 1006.47 162.09 1004.95 164.77 C 1001.32 171.61 1002.72 179.61 1002.20 187.04 C 998.63 190.45 994.71 193.61 991.83 197.65 C 990.71 200.62 990.39 203.85 990.29 207.00 C 990.03 210.87 992.76 214.20 992.54 218.08 C 992.45 227.02 993.79 236.48 989.71 244.82 C 986.70 250.27 988.94 256.78 986.66 262.41 C 984.29 269.04 981.83 276.58 975.29 280.21 C 971.33 281.34 967.17 283.25 963.02 282.47 C 957.91 279.31 953.06 274.35 952.41 268.09 C 950.81 260.48 951.81 252.64 950.98 244.96 C 951.01 241.44 947.26 239.23 944.10 239.58 C 940.49 240.82 936.59 242.04 934.00 245.01 C 930.45 249.31 925.01 251.27 919.98 253.26 C 917.30 253.66 913.84 254.51 911.80 252.18 C 909.12 249.49 909.19 245.43 909.25 241.92 C 909.30 239.07 911.43 236.92 912.67 234.51 C 914.84 231.16 914.60 227.01 914.39 223.20 C 912.74 222.38 910.25 222.24 909.75 220.10 C 908.18 213.92 913.87 209.63 917.22 205.31 C 918.20 203.06 919.33 200.87 920.84 198.91 C 922.87 196.28 923.32 192.86 925.03 190.06 C 927.37 186.75 931.20 184.26 931.96 180.03 C 933.40 172.42 936.88 164.92 943.04 160.00 C 946.61 157.29 949.53 153.88 952.60 150.64 C 956.86 146.12 959.00 140.17 962.25 134.98 C 965.69 129.57 968.96 124.03 972.86 118.92 C 976.79 112.98 978.99 106.00 983.33 100.30 C 984.35 98.80 986.24 98.71 987.88 98.49 C 991.17 93.85 996.00 90.80 1000.68 87.76 C 1005.25 83.93 1010.21 80.59 1014.72 76.69 C 1018.30 73.48 1023.06 72.28 1027.45 70.61 C 1031.76 69.26 1035.97 67.56 1040.38 66.52 Z" />
<path fill="#140f0d" d=" M 72.28 82.48 C 77.75 80.83 83.84 81.26 89.27 82.89 C 95.12 84.92 97.13 91.20 100.27 95.91 C 101.30 93.00 101.84 89.92 103.13 87.11 C 104.29 84.35 107.93 84.82 110.15 85.85 C 115.62 88.95 118.62 94.78 123.03 99.04 C 124.60 100.55 126.74 101.77 128.99 101.29 C 135.39 100.35 142.37 99.81 148.37 102.67 C 153.75 106.53 157.01 112.50 160.61 117.90 C 162.49 115.59 164.21 112.95 166.97 111.60 C 170.60 110.76 174.61 112.01 177.17 114.71 C 179.44 117.02 181.22 119.93 184.06 121.60 C 187.94 121.79 192.76 122.79 196.01 120.12 C 197.76 115.91 198.66 110.42 203.32 108.34 C 211.68 105.57 220.88 106.23 229.18 108.90 C 233.73 110.40 238.52 111.68 242.44 114.56 C 245.04 116.40 246.10 119.50 247.20 122.34 C 252.09 122.46 258.20 122.95 261.50 118.55 C 262.80 113.53 258.93 108.98 259.44 103.96 C 259.40 97.73 262.50 91.32 268.15 88.38 C 270.45 87.04 273.11 87.99 275.51 88.47 C 275.50 90.70 275.82 93.01 275.08 95.16 C 273.88 97.82 271.70 100.01 271.08 102.93 C 270.52 105.54 270.76 108.23 270.65 110.87 C 270.13 110.53 269.11 109.86 268.60 109.53 C 268.62 105.96 267.75 102.07 269.72 98.84 C 271.26 96.23 272.58 93.47 272.79 90.39 C 267.11 89.58 263.30 95.05 262.38 100.02 C 260.24 106.50 265.74 112.52 264.24 119.03 C 263.21 122.07 259.82 123.11 257.07 123.99 C 253.44 124.84 249.66 125.86 245.92 125.29 C 243.65 123.28 243.45 119.84 241.19 117.81 C 236.77 113.71 230.56 112.73 224.99 111.02 C 219.05 109.10 212.65 108.75 206.52 109.85 C 203.44 110.32 201.10 112.97 200.42 115.91 C 199.67 118.62 199.67 122.23 196.61 123.51 C 192.51 125.29 187.71 124.96 183.37 124.40 C 178.54 121.57 176.19 114.91 170.02 114.37 C 165.56 113.76 163.80 118.87 161.84 121.87 C 161.03 121.72 160.23 121.55 159.44 121.35 C 157.55 118.27 156.89 114.53 154.59 111.68 C 152.77 109.47 150.91 107.23 148.58 105.54 C 144.89 103.03 140.21 103.36 135.97 103.38 C 132.03 103.39 127.52 105.78 124.10 102.83 C 118.02 97.93 114.34 88.76 105.67 88.00 C 104.19 91.70 103.44 95.62 102.17 99.38 C 96.64 98.85 96.19 92.40 93.08 88.97 C 88.25 83.55 80.05 83.60 73.46 84.67 C 66.92 88.08 65.06 96.34 58.72 100.06 C 50.07 106.23 38.97 104.86 29.00 106.24 C 19.32 106.82 9.60 107.05 0.00 108.51 L 0.00 107.56 C 11.65 106.10 23.38 105.44 35.02 103.91 C 43.05 103.74 52.08 103.21 58.21 97.32 C 62.87 92.38 66.37 86.11 72.28 82.48 Z" />
<path fill="#140f0d" d=" M 762.16 96.12 C 760.06 95.21 763.50 94.13 764.44 94.68 C 771.99 98.48 777.31 106.02 779.38 114.11 C 780.35 126.22 779.67 138.52 776.25 150.24 C 774.55 157.22 769.05 162.60 762.81 165.77 C 762.31 166.02 761.32 166.51 760.82 166.76 C 756.25 169.02 751.62 171.34 746.58 172.35 C 736.00 173.17 725.23 171.81 715.19 168.39 C 711.20 167.09 707.86 164.38 703.92 163.02 C 698.61 165.02 694.13 169.80 688.06 169.69 C 678.88 169.55 669.68 169.95 660.53 169.22 C 657.38 168.73 653.02 168.45 652.16 164.62 C 656.81 164.16 661.56 164.99 666.13 163.75 C 672.06 162.25 678.31 160.16 682.40 155.34 C 671.85 157.98 661.01 154.96 651.39 150.60 C 643.17 146.33 635.44 139.42 633.70 129.91 C 633.07 124.32 632.58 118.32 635.08 113.09 C 638.19 107.49 641.44 101.76 646.31 97.48 C 647.19 96.56 648.44 96.33 649.62 96.00 C 649.54 96.50 649.39 97.51 649.31 98.01 C 642.12 101.94 637.97 109.55 634.66 116.74 C 634.22 122.23 633.67 127.93 635.72 133.19 C 637.62 137.41 640.48 141.04 643.80 144.23 C 648.00 147.53 652.70 150.19 657.92 151.48 C 666.22 154.53 675.85 156.42 684.14 152.38 L 685.60 152.47 C 685.87 156.23 682.48 158.87 679.64 160.73 C 673.63 163.92 666.79 164.99 660.16 166.11 C 661.20 168.23 663.77 167.79 665.68 168.25 C 672.76 168.70 679.88 168.67 686.97 168.53 C 692.87 168.33 697.55 164.32 701.97 160.86 C 704.25 159.33 706.61 161.49 708.45 162.73 C 718.45 170.51 731.80 171.63 744.03 171.47 C 747.23 171.62 750.24 170.37 753.21 169.31 C 758.74 166.66 764.57 164.35 769.22 160.22 C 772.78 156.26 774.90 151.31 776.11 146.16 C 776.42 144.79 776.76 143.42 777.16 142.07 C 779.06 132.82 779.10 123.24 778.29 113.86 C 777.77 112.58 777.29 111.29 776.81 110.01 C 773.87 103.73 768.57 98.73 762.16 96.12 Z" />
<path fill="#140f0d" d=" M 660.82 101.48 C 661.36 101.42 662.42 101.30 662.96 101.23 C 662.41 106.94 660.27 112.34 658.30 117.68 C 662.50 118.81 666.91 118.92 671.22 118.44 C 671.29 112.70 672.03 107.01 672.56 101.31 C 673.13 101.29 674.27 101.25 674.83 101.23 C 674.39 106.71 672.58 111.97 672.17 117.46 C 674.12 117.33 674.80 118.57 674.78 120.31 C 673.99 120.35 672.41 120.43 671.62 120.47 C 671.52 125.81 671.87 131.25 670.43 136.47 C 669.85 136.46 668.69 136.46 668.10 136.45 C 668.85 131.06 670.56 125.82 670.70 120.35 C 666.32 120.41 661.93 120.62 657.56 120.27 C 655.33 126.66 654.31 133.38 652.14 139.77 C 651.33 139.40 650.10 139.41 650.08 138.23 C 654.76 131.36 655.03 122.71 658.10 115.15 C 659.47 110.70 660.57 106.15 660.82 101.48 Z" />
<path fill="#140f0d" d=" M 732.87 104.07 C 732.59 102.70 733.82 102.16 734.81 101.59 C 734.83 107.48 733.32 113.21 731.90 118.87 C 731.36 122.72 730.44 126.51 730.11 130.39 C 729.28 130.47 728.45 130.55 727.64 130.63 C 727.61 130.16 727.54 129.24 727.50 128.78 C 727.92 128.35 728.76 127.48 729.18 127.04 C 730.86 119.47 732.70 111.86 732.87 104.07 Z" />
<path fill="#494746" d=" M 743.14 105.95 C 742.83 103.77 746.65 103.81 745.48 106.13 C 743.94 114.61 743.79 123.49 740.54 131.57 C 740.09 131.45 739.20 131.20 738.75 131.08 C 742.49 123.25 742.40 114.40 743.14 105.95 Z" />
<path fill="#140f0d" d=" M 751.38 105.23 C 751.89 105.22 752.92 105.19 753.44 105.18 C 752.43 115.95 753.28 127.09 749.72 137.47 C 749.14 137.65 747.99 137.99 747.41 138.17 C 747.99 137.13 748.59 136.11 749.23 135.11 C 750.27 132.19 750.56 129.11 751.20 126.10 C 751.84 119.16 751.45 112.19 751.38 105.23 Z" />
<path fill="#140f0d" d=" M 708.25 116.38 C 711.80 116.82 716.18 115.36 719.05 118.08 C 722.01 122.79 718.49 128.79 713.92 130.90 C 712.91 131.27 711.92 131.64 710.93 132.03 C 708.59 132.55 706.23 132.99 703.89 133.49 C 703.69 135.63 703.49 137.79 702.89 139.87 C 702.53 143.16 702.09 146.44 701.48 149.70 C 700.91 149.67 699.76 149.60 699.19 149.57 C 702.29 140.12 704.05 130.22 704.40 120.28 C 704.99 120.27 706.15 120.24 706.73 120.22 C 706.25 123.90 705.56 127.54 705.10 131.21 C 709.59 131.51 714.83 130.45 717.30 126.28 C 718.63 124.01 718.80 120.09 716.17 118.75 C 713.60 118.49 711.03 118.60 708.47 118.55 C 708.41 118.01 708.30 116.92 708.25 116.38 Z" />
<path fill="#140f0d" d=" M 687.52 120.48 C 689.73 119.34 692.14 120.19 694.44 120.57 C 696.14 124.03 695.30 127.99 694.50 131.58 C 693.72 134.84 690.40 137.22 687.05 136.82 C 684.72 136.92 681.18 135.96 681.40 132.99 C 681.58 128.35 682.45 122.25 687.52 120.48 Z" />
<path fill="#f5f3ef" d=" M 683.38 133.50 C 683.31 128.66 684.98 123.43 689.90 121.58 C 691.08 122.00 692.28 122.42 693.48 122.84 C 693.68 126.43 693.62 130.37 691.35 133.37 C 689.23 135.62 685.77 134.84 683.38 133.50 Z" />
<path fill="#494746" d=" M 724.50 143.51 C 725.67 143.15 726.86 142.79 728.05 142.44 C 728.41 143.12 729.12 144.48 729.48 145.16 C 728.70 145.96 727.93 146.75 727.15 147.54 C 726.53 147.20 725.29 146.52 724.67 146.18 C 724.61 145.29 724.55 144.40 724.50 143.51 Z" />
<path fill="#494746" d=" M 735.42 144.47 C 736.76 144.48 738.11 144.51 739.47 144.56 C 739.46 145.84 739.45 147.13 739.44 148.42 C 738.10 148.46 736.76 148.49 735.44 148.51 C 735.40 147.16 735.40 145.81 735.42 144.47 Z" />
<path fill="#494746" d=" M 746.26 151.43 C 747.59 151.37 748.94 151.35 750.29 151.36 C 750.33 151.91 750.41 153.01 750.44 153.56 C 750.09 154.06 749.38 155.05 749.03 155.54 C 747.05 154.97 746.15 153.46 746.26 151.43 Z" />
<path fill="#140f0d" d=" M 615.82 168.62 C 618.76 163.76 624.34 160.64 630.03 160.72 C 633.77 160.52 637.09 162.78 639.69 165.25 C 642.16 167.43 641.53 171.07 641.28 173.99 C 639.07 179.23 634.78 183.57 629.50 185.76 C 626.21 187.03 624.32 190.09 623.31 193.32 C 623.95 193.40 625.23 193.57 625.87 193.65 C 627.04 194.75 628.20 196.30 630.06 195.87 C 637.81 192.78 645.48 189.20 652.11 184.09 C 653.46 183.30 654.40 180.79 656.27 181.89 C 657.62 185.08 654.50 187.15 652.16 188.51 C 646.62 191.72 641.09 195.05 635.08 197.30 C 637.97 198.79 640.79 200.45 643.24 202.62 C 647.92 202.44 651.52 199.37 655.09 196.71 C 659.02 196.09 661.69 192.93 664.36 190.29 C 665.09 189.01 666.60 189.50 667.79 189.38 C 667.51 193.08 663.96 195.18 661.42 197.39 C 656.76 200.43 652.13 203.65 646.95 205.73 C 651.51 209.92 653.46 216.00 655.72 221.58 C 660.57 234.42 654.75 249.87 643.27 257.09 C 650.72 259.86 654.69 267.69 656.81 274.87 C 659.89 269.91 664.71 266.42 669.53 263.32 C 670.78 262.43 672.34 262.43 673.81 262.28 C 673.74 262.89 673.59 264.12 673.51 264.73 C 669.50 267.25 665.38 269.72 662.06 273.15 C 660.13 275.46 658.72 278.15 657.13 280.70 C 656.28 280.66 655.44 280.61 654.61 280.57 C 653.48 273.82 651.07 266.93 645.94 262.17 C 643.21 259.63 639.32 260.69 635.98 260.49 C 632.26 260.28 628.64 261.56 624.93 261.12 C 618.64 260.44 612.31 260.87 606.02 260.33 C 601.83 266.57 595.23 271.39 587.72 272.59 C 583.89 272.93 580.04 272.73 576.21 272.74 C 576.10 277.74 576.37 283.13 573.47 287.48 C 572.91 287.42 571.79 287.31 571.23 287.25 C 571.28 285.74 571.57 284.27 572.05 282.84 C 573.61 278.58 571.72 273.84 573.53 269.64 C 580.37 269.29 587.76 270.77 593.99 267.12 C 597.40 264.97 601.03 262.41 602.74 258.63 C 594.58 253.88 586.00 247.66 583.64 237.96 C 582.94 230.38 584.40 222.82 586.30 215.52 C 589.07 208.23 594.89 202.67 600.64 197.65 C 606.28 194.42 613.01 191.60 619.58 193.38 C 620.55 191.73 621.10 189.89 621.78 188.12 C 619.09 187.02 615.93 185.34 615.56 182.12 C 614.89 177.69 613.62 172.82 615.82 168.62 Z" />
<path fill="#f5f3ef" d=" M 625.52 164.68 C 629.26 163.78 633.66 163.79 636.56 166.71 C 638.63 168.07 638.50 170.75 638.12 172.89 C 635.82 179.03 629.90 182.76 623.87 184.56 C 621.53 185.03 618.87 183.43 618.64 180.96 C 618.26 177.49 616.92 173.71 618.60 170.37 C 619.99 167.64 622.72 165.77 625.52 164.68 Z" />
<path fill="#f5f3ef" d=" M 620.17 257.47 C 620.33 237.36 619.27 217.13 622.31 197.17 C 629.12 199.23 636.17 201.50 641.54 206.39 C 646.11 209.25 649.63 213.71 650.98 218.97 C 652.93 226.60 653.98 235.02 650.84 242.49 C 649.33 247.44 646.04 251.97 641.38 254.34 C 634.69 257.18 627.29 257.07 620.17 257.47 Z" />
<path fill="#140f0d" d=" M 629.83 216.83 C 631.59 214.07 631.98 210.76 633.00 207.71 C 636.12 206.03 636.11 209.91 636.27 211.97 C 636.43 217.00 636.27 222.03 636.33 227.06 C 636.25 231.34 636.74 235.72 635.53 239.90 C 634.54 239.71 633.55 239.53 632.58 239.34 C 633.58 232.52 633.20 225.61 633.07 218.75 C 631.65 220.42 630.36 222.18 629.07 223.94 C 628.32 223.75 626.83 223.36 626.09 223.17 C 627.17 220.96 628.53 218.91 629.83 216.83 Z" />
<path fill="#f5f3ef" d=" M 596.49 231.02 C 596.73 222.92 598.63 213.28 606.79 209.51 C 608.49 209.94 610.22 210.30 611.88 210.92 C 614.52 212.72 613.73 216.20 613.88 218.92 C 613.97 225.42 613.01 232.49 608.61 237.57 C 606.25 240.63 601.51 240.05 598.49 238.40 C 595.86 236.86 596.59 233.54 596.49 231.02 Z" />
<path fill="#140f0d" d=" M 837.43 214.41 C 841.76 210.88 847.73 211.40 852.91 212.11 C 855.35 212.64 859.51 213.63 858.45 217.03 C 856.41 221.59 851.60 223.98 849.14 228.25 C 856.97 229.54 865.10 225.39 872.64 228.62 C 872.77 231.77 873.42 235.44 871.15 238.04 C 869.44 240.27 867.89 242.73 865.61 244.44 C 862.09 246.05 858.14 246.44 854.59 247.98 C 854.75 250.52 854.31 253.62 856.46 255.49 C 858.97 258.33 863.00 260.47 863.61 264.52 C 863.64 265.77 863.66 267.02 863.66 268.28 C 863.54 271.13 863.81 273.98 864.51 276.75 C 869.61 275.95 874.75 275.44 879.87 274.74 C 883.17 274.82 886.52 275.88 889.26 277.74 C 891.54 279.47 890.99 282.63 889.92 284.90 C 888.12 287.88 891.00 290.85 890.85 293.97 C 892.33 300.27 888.98 307.43 882.81 309.73 C 874.26 313.15 864.87 311.46 855.94 311.29 C 853.72 311.44 851.19 310.96 849.30 312.38 C 844.69 315.77 839.59 318.45 835.39 322.38 C 834.01 323.87 831.96 323.81 830.12 323.64 C 830.44 322.55 830.54 321.31 831.39 320.46 C 835.40 315.32 840.24 310.94 844.47 305.99 C 843.95 305.60 842.89 304.81 842.37 304.42 C 841.13 304.29 839.97 304.02 838.87 303.48 C 839.75 303.53 841.51 303.64 842.39 303.69 C 841.21 298.17 841.93 292.51 842.50 286.96 C 842.82 283.77 841.09 280.89 840.63 277.81 C 840.66 273.22 843.04 269.34 845.34 265.58 C 844.23 263.55 841.31 264.24 839.42 263.47 C 837.90 261.96 835.25 260.53 835.82 258.01 C 836.73 253.99 835.81 248.53 831.46 246.93 C 831.49 246.55 831.55 245.78 831.58 245.39 L 830.65 245.79 C 830.27 242.56 829.00 239.35 829.70 236.08 C 830.51 232.39 831.48 228.72 831.59 224.93 C 831.65 220.73 834.32 217.01 837.43 214.41 Z" />
<path fill="#140f0d" d=" M 605.37 214.27 C 606.66 212.72 608.85 213.50 610.59 213.42 C 611.23 221.39 611.18 230.46 605.35 236.69 C 603.37 236.55 601.41 236.25 599.55 235.58 C 599.56 228.31 599.46 219.51 605.37 214.27 Z" />
<path fill="#f5f3ef" d=" M 837.30 218.04 C 841.88 212.65 850.15 213.82 856.14 215.79 C 854.43 219.70 850.61 221.90 847.98 225.08 C 846.69 226.58 847.39 228.70 847.39 230.47 C 855.01 232.74 862.80 228.56 870.45 230.50 C 870.78 235.26 867.54 239.10 864.22 242.06 C 860.51 243.88 855.75 243.59 852.69 246.64 C 851.58 249.27 852.21 252.43 852.94 255.11 C 854.93 258.53 859.08 260.27 860.70 263.98 C 861.74 268.82 860.41 274.01 862.60 278.64 C 868.34 279.69 874.22 277.87 879.99 277.42 C 883.13 277.42 886.09 278.82 888.57 280.68 C 887.87 282.78 886.86 284.79 886.43 286.98 C 887.71 292.20 890.20 298.57 886.59 303.43 C 883.29 308.59 876.45 308.95 870.96 309.34 C 863.67 309.89 856.23 307.38 849.08 309.39 C 844.45 312.27 840.39 315.99 836.08 319.31 C 839.64 314.57 843.52 310.08 846.92 305.21 C 843.58 302.81 844.36 298.59 844.41 295.04 C 844.36 290.14 846.20 285.14 844.03 280.42 C 844.58 280.49 845.68 280.63 846.23 280.70 C 854.00 282.74 861.95 274.83 859.88 267.09 C 858.74 261.73 853.47 257.60 847.95 258.19 C 845.17 258.17 842.81 259.71 840.52 261.06 L 839.50 261.65 C 839.00 259.38 839.20 257.05 839.26 254.75 C 840.03 253.96 841.53 253.53 841.52 252.22 C 840.82 249.35 838.16 247.66 836.05 245.86 C 831.88 243.45 831.43 238.36 832.77 234.15 C 834.39 228.81 833.15 222.39 837.30 218.04 Z" />
<path fill="#536ef9" d=" M 702.63 217.59 C 705.30 216.57 708.27 216.80 711.08 216.91 C 712.87 216.67 714.56 219.39 712.49 220.33 C 709.21 220.76 705.88 220.75 702.61 221.23 C 702.14 220.11 700.78 218.23 702.63 217.59 Z" />
<path fill="#536ef9" d=" M 728.07 221.25 C 725.85 221.17 726.03 218.83 726.52 217.32 C 731.05 217.99 735.74 217.56 740.17 218.86 C 740.17 219.49 740.18 220.76 740.18 221.39 C 736.23 222.28 732.05 221.66 728.07 221.25 Z" />
<path fill="#536ef9" d=" M 681.64 218.79 C 684.74 218.66 687.85 218.28 690.96 218.48 C 692.50 219.42 691.97 222.08 689.95 221.93 C 687.21 222.45 684.41 222.19 681.66 222.19 C 681.65 221.34 681.65 219.64 681.64 218.79 Z" />
<path fill="#536ef9" d=" M 751.66 220.61 C 756.47 220.44 761.31 220.68 766.12 221.03 C 766.99 222.07 767.25 223.30 766.12 224.31 C 761.43 224.52 756.62 224.80 752.01 223.80 L 751.39 222.99 C 751.46 222.39 751.59 221.20 751.66 220.61 Z" />
<path fill="#536ef9" d=" M 668.00 221.79 C 670.00 221.18 672.16 221.52 671.40 224.17 C 668.32 226.13 664.51 226.32 660.98 226.60 C 659.61 225.51 659.48 224.05 661.00 223.11 C 663.29 222.50 665.65 222.16 668.00 221.79 Z" />
<path fill="#536ef9" d=" M 782.84 224.83 C 788.02 225.16 793.55 225.36 798.18 227.95 C 798.96 230.15 797.07 231.38 795.18 230.35 C 791.24 228.83 786.87 229.48 782.95 228.14 C 781.31 227.85 781.04 224.77 782.84 224.83 Z" />
<path fill="#140f0d" d=" M 1.93 232.18 C 11.56 233.46 17.28 242.03 24.02 248.03 C 29.84 253.87 36.86 258.51 41.88 265.13 C 47.05 270.99 49.78 278.42 52.19 285.72 C 56.37 295.42 59.49 305.70 65.40 314.55 C 68.74 318.81 73.28 322.37 78.57 323.83 C 84.87 326.47 91.31 328.99 96.96 332.91 C 101.09 336.31 103.55 341.62 103.48 346.97 C 103.51 358.70 102.18 370.67 105.20 382.16 C 105.82 390.09 105.88 398.10 108.06 405.83 C 108.77 413.28 114.94 418.11 119.35 423.45 C 121.42 430.71 121.71 438.38 121.51 445.89 C 121.47 453.34 119.87 460.79 121.03 468.24 C 124.82 471.45 130.35 470.95 134.47 473.54 C 139.96 477.39 144.33 482.93 146.39 489.35 C 147.89 497.20 150.53 505.01 155.32 511.51 C 160.24 518.68 160.63 527.98 166.02 534.89 C 169.56 539.42 174.75 542.21 178.50 546.55 C 182.52 549.93 185.78 554.04 189.20 557.99 C 191.16 546.35 186.47 535.06 180.81 525.16 C 176.79 517.87 172.50 510.72 168.95 503.19 C 166.10 497.25 160.43 492.20 160.43 485.21 C 162.11 485.30 163.57 486.05 164.21 487.66 C 168.03 494.82 171.33 502.31 176.04 508.97 C 179.90 513.76 185.28 516.97 189.73 521.17 C 193.91 525.15 198.44 529.19 204.10 530.84 C 206.90 531.90 210.75 533.00 211.13 536.53 C 211.48 540.71 211.40 544.92 211.91 549.09 C 212.62 556.93 216.58 564.25 222.17 569.69 C 224.70 572.30 228.35 573.10 231.55 574.56 C 238.42 578.15 246.48 576.84 253.84 578.51 C 257.19 579.47 261.30 579.29 263.68 582.27 C 268.21 586.69 273.01 592.63 280.01 592.25 C 286.86 592.19 294.31 591.73 300.28 595.73 C 303.97 598.96 307.23 602.76 311.41 605.40 C 315.09 606.39 319.81 605.05 322.56 608.36 C 325.72 612.52 328.25 617.23 332.08 620.86 C 336.70 625.52 342.56 628.78 348.70 631.03 C 348.70 627.29 347.52 623.08 349.78 619.77 C 353.39 613.78 358.49 607.88 357.53 600.37 C 350.34 598.02 342.40 598.23 335.17 600.30 C 333.08 600.64 329.86 601.55 328.86 598.99 C 327.52 594.44 327.20 589.59 327.63 584.88 C 328.91 581.64 331.40 579.06 332.90 575.92 C 335.45 571.38 335.59 565.95 334.99 560.91 C 332.22 558.96 328.58 559.42 325.40 559.61 C 320.66 561.91 316.47 565.24 312.68 568.87 C 305.98 574.43 296.70 574.11 288.56 573.25 C 281.21 570.00 279.59 561.27 277.39 554.39 C 277.90 553.60 278.42 552.82 278.94 552.05 C 279.75 556.62 281.70 560.89 283.81 564.99 C 285.19 567.37 286.99 570.12 289.87 570.71 C 296.95 570.87 304.81 571.34 310.78 566.79 C 315.06 562.92 319.66 559.20 324.87 556.66 C 328.96 556.56 334.05 555.61 337.16 558.95 C 338.79 561.68 338.14 565.00 338.26 568.03 C 338.75 574.92 332.72 579.63 330.56 585.66 C 330.16 589.64 330.02 593.84 331.53 597.64 C 338.93 596.36 346.47 595.30 353.99 596.00 C 356.24 596.39 358.95 596.72 360.31 598.81 C 360.44 602.17 360.82 605.70 359.90 608.98 C 357.81 612.79 355.05 616.20 352.89 619.98 C 350.47 623.59 351.92 628.14 351.70 632.19 C 354.14 633.06 356.55 634.06 359.08 634.67 C 364.20 633.13 367.42 627.67 372.88 626.89 C 378.43 626.66 383.89 628.01 389.08 629.88 C 392.12 631.05 394.73 633.35 395.86 636.47 C 392.69 638.01 391.17 634.47 388.89 633.05 C 383.45 630.69 377.31 629.34 371.43 630.58 C 368.61 631.97 366.23 634.09 363.80 636.06 C 370.58 638.87 378.00 637.08 385.04 637.95 C 388.04 639.52 390.43 642.04 393.36 643.75 C 396.35 645.43 395.81 649.62 394.44 652.21 C 391.64 657.14 389.00 662.17 385.88 666.91 C 382.32 671.78 378.80 676.79 376.78 682.53 C 373.51 691.62 369.11 700.29 366.47 709.62 C 364.76 714.58 365.60 719.91 365.33 725.05 C 364.81 736.00 369.12 746.46 374.38 755.83 C 376.26 759.30 376.88 764.23 381.07 765.76 C 385.48 767.48 388.99 770.80 393.30 772.74 C 398.83 776.37 405.01 778.85 410.48 782.58 C 414.20 785.05 419.12 786.47 421.19 790.79 C 423.99 796.86 424.43 803.95 428.50 809.46 C 431.91 813.43 436.46 816.15 440.39 819.55 C 440.53 820.14 440.82 821.32 440.96 821.92 C 439.58 821.76 438.04 821.94 436.97 820.91 C 433.31 817.96 429.65 814.95 426.53 811.43 C 421.86 805.02 422.55 795.98 417.01 790.11 C 413.29 787.46 409.19 785.39 405.49 782.71 C 398.17 778.77 390.83 774.88 383.82 770.43 C 381.07 768.71 377.21 768.47 375.53 765.36 C 373.47 761.84 372.88 757.63 370.64 754.19 C 365.55 746.07 361.97 736.70 362.18 727.00 C 362.39 721.38 361.59 715.56 363.49 710.14 C 366.07 702.10 368.40 693.85 372.69 686.51 C 375.73 680.84 377.39 674.47 381.29 669.27 C 385.72 663.28 389.90 656.97 392.45 649.93 C 393.49 646.69 390.04 644.74 387.96 643.03 C 384.44 639.81 379.36 641.02 375.04 640.80 C 370.66 641.06 366.44 639.85 362.32 638.56 C 359.48 637.45 356.80 639.48 353.98 639.48 C 351.65 638.82 350.57 636.43 349.42 634.53 C 343.59 631.97 337.52 629.60 332.67 625.34 C 327.16 621.12 324.14 614.63 319.38 609.72 C 316.16 608.56 312.28 609.93 309.27 607.93 C 305.48 604.77 301.87 601.40 298.27 598.04 C 291.11 593.08 281.88 596.90 274.07 594.57 C 269.00 591.60 264.78 587.42 260.43 583.55 C 255.01 580.96 248.85 581.21 243.05 580.18 C 239.45 579.38 235.52 580.01 232.21 578.11 C 228.85 576.33 224.91 575.60 222.03 573.01 C 218.00 569.51 215.28 564.85 212.35 560.47 C 209.87 555.37 208.77 549.69 208.71 544.05 C 208.39 541.48 208.75 538.69 207.65 536.31 C 205.27 533.65 201.50 533.17 198.56 531.38 C 190.93 526.87 185.56 519.56 178.13 514.75 C 180.66 521.81 185.04 527.95 188.39 534.61 C 191.99 543.03 191.76 552.51 191.26 561.49 C 190.36 561.55 189.47 561.57 188.57 561.55 C 183.98 558.04 181.45 552.56 176.78 549.11 C 171.59 544.05 165.14 539.93 161.97 533.15 C 157.83 526.49 156.80 518.35 152.00 512.05 C 147.47 505.90 145.44 498.37 143.83 491.01 C 142.29 483.82 137.05 477.37 129.96 475.08 C 126.16 473.95 122.39 472.71 118.76 471.12 C 117.94 469.18 117.43 467.14 117.71 465.03 C 118.13 459.67 118.42 454.30 118.56 448.93 L 117.81 449.79 C 119.09 446.70 118.19 443.27 118.40 440.03 C 118.33 434.39 119.31 428.04 115.88 423.14 C 112.03 419.28 107.86 415.33 106.43 409.86 C 103.97 400.38 104.86 390.40 102.52 380.90 C 101.84 377.93 100.20 375.16 100.37 372.04 C 100.73 362.67 100.61 353.27 100.14 343.90 C 99.94 340.83 97.75 338.42 95.90 336.15 C 91.88 332.98 87.59 329.87 82.50 328.71 C 78.34 327.05 73.63 326.12 70.49 322.66 C 61.51 315.08 57.15 303.85 52.69 293.32 C 50.55 289.05 48.87 284.58 47.39 280.04 C 43.41 271.44 37.37 263.96 30.57 257.41 C 23.82 250.83 16.91 244.38 9.73 238.27 C 7.26 236.08 3.11 235.63 1.93 232.18 Z" />
<path fill="#536ef9" d=" M 809.59 233.88 C 810.32 232.65 811.00 230.50 812.89 231.53 C 816.51 232.93 819.79 235.08 823.22 236.92 C 824.95 237.25 824.91 240.52 822.97 240.35 C 818.19 238.96 814.16 235.82 809.59 233.88 Z" />
<path fill="#536ef9" d=" M 576.27 245.37 C 578.72 243.81 580.08 248.01 577.51 248.66 C 574.97 249.88 570.14 252.40 568.60 248.91 C 569.85 246.09 573.77 246.52 576.27 245.37 Z" />
<path fill="#536ef9" d=" M 836.05 245.86 C 838.16 247.66 840.82 249.35 841.52 252.22 C 841.53 253.53 840.03 253.96 839.26 254.75 L 839.05 254.91 C 838.44 251.77 837.49 248.71 836.05 245.86 Z" />
<path fill="#140f0d" d=" M 804.90 249.70 C 807.81 248.51 810.78 247.39 813.88 246.80 C 817.20 246.13 820.37 247.66 823.48 248.59 C 824.99 254.29 828.71 260.03 827.16 266.08 C 823.67 268.29 819.70 269.62 816.16 271.76 C 819.40 279.79 818.69 288.55 819.51 296.99 C 819.95 300.10 817.36 302.59 814.71 303.68 C 808.56 306.88 801.48 306.78 795.01 308.96 C 791.65 310.27 787.47 309.45 786.02 305.86 C 784.53 302.25 780.17 298.50 782.59 294.42 C 783.78 292.02 785.50 289.80 785.92 287.09 C 786.63 283.40 785.73 279.49 787.12 275.92 C 788.78 270.54 791.52 265.60 793.33 260.28 C 795.35 255.10 800.36 252.34 804.90 249.70 Z" />
<path fill="#f5f3ef" d=" M 811.02 250.24 C 814.59 248.44 818.71 249.51 822.27 250.79 C 822.39 251.45 822.62 252.77 822.74 253.43 C 822.72 254.49 822.78 255.55 822.93 256.61 L 823.23 256.97 C 825.00 259.08 824.80 261.93 824.88 264.50 C 821.13 266.80 815.53 267.43 813.61 271.81 C 815.77 277.97 816.66 284.48 816.44 291.01 C 816.11 294.20 818.88 298.26 815.56 300.60 C 809.58 304.49 802.05 304.16 795.39 306.19 C 793.11 306.50 790.07 307.83 788.42 305.53 C 786.60 302.95 785.10 300.00 784.34 296.95 C 785.60 293.93 787.55 291.19 788.40 288.01 C 788.95 285.06 788.56 282.05 788.84 279.08 C 789.96 272.80 793.77 267.48 795.57 261.42 C 798.14 254.97 805.30 252.96 811.02 250.24 Z" />
<path fill="#536ef9" d=" M 561.17 250.16 C 562.74 248.65 564.82 251.53 563.23 252.91 C 559.70 255.87 555.15 257.42 550.81 258.75 C 548.85 259.56 547.50 257.29 548.55 255.72 C 552.87 254.12 557.34 252.83 561.17 250.16 Z" />
<path fill="#494746" d=" M 822.74 253.43 C 824.59 253.10 824.69 256.39 823.23 256.97 L 822.93 256.61 C 822.78 255.55 822.72 254.49 822.74 253.43 Z" />
<path fill="#db5416" d=" M 840.52 261.06 C 842.81 259.71 845.17 258.17 847.95 258.19 C 853.47 257.60 858.74 261.73 859.88 267.09 C 861.95 274.83 854.00 282.74 846.23 280.70 C 845.25 280.26 844.29 279.82 843.35 279.37 C 843.65 276.36 843.53 273.03 845.53 270.54 C 846.56 268.55 849.25 266.58 847.82 264.17 C 846.83 261.02 843.14 261.41 840.52 261.06 Z" />
<path fill="#536ef9" d=" M 539.39 259.44 C 540.66 258.67 542.12 259.43 542.31 260.89 C 542.16 262.42 540.39 262.69 539.32 263.35 C 536.34 264.49 533.23 266.05 529.96 265.61 C 527.64 266.22 527.73 261.78 529.99 262.20 C 533.24 261.70 536.30 260.53 539.39 259.44 Z" />
<path fill="#db5416" d=" M 839.42 263.47 C 841.31 264.24 844.23 263.55 845.34 265.58 C 843.04 269.34 840.66 273.22 840.63 277.81 C 839.02 275.87 837.49 273.67 837.36 271.07 C 836.87 268.33 838.60 265.95 839.42 263.47 Z" />
<path fill="#536ef9" d=" M 863.61 264.52 C 866.47 264.53 869.87 263.51 872.11 265.93 C 870.18 268.79 866.59 268.02 863.66 268.28 C 863.66 267.02 863.64 265.77 863.61 264.52 Z" />
<path fill="#536ef9" d=" M 875.85 264.13 C 878.18 264.53 880.53 264.80 882.90 265.02 C 883.78 265.72 884.66 266.43 885.56 267.15 C 883.96 270.72 879.78 268.12 876.93 268.07 C 874.68 267.96 874.62 265.48 875.85 264.13 Z" />
<path fill="#536ef9" d=" M 888.77 273.21 C 886.92 272.57 888.51 270.47 888.70 269.29 C 892.50 270.62 897.76 273.41 896.98 278.11 C 894.91 279.88 893.92 277.48 892.75 276.10 C 891.78 274.70 890.12 274.11 888.77 273.21 Z" />
<path fill="#536ef9" d=" M 504.94 277.96 C 509.34 276.01 513.67 273.88 517.31 270.66 C 518.12 271.42 518.93 272.19 519.74 272.97 C 515.70 276.30 511.35 280.96 505.64 280.26 C 505.46 279.69 505.11 278.54 504.94 277.96 Z" />
<path fill="#140f0d" d=" M 640.55 283.22 C 646.90 283.08 653.26 284.30 659.19 286.56 C 661.69 288.65 664.85 290.92 664.89 294.54 C 664.38 294.49 663.38 294.37 662.88 294.32 C 662.58 287.82 655.31 285.70 649.92 285.41 C 646.78 284.91 642.84 286.03 640.55 283.22 Z" />
<path fill="#140f0d" d=" M 553.45 284.99 C 557.75 286.51 561.78 288.83 565.41 291.58 C 569.87 296.03 572.49 302.16 573.32 308.35 C 572.92 309.24 572.27 309.68 571.34 309.68 C 571.16 307.44 571.34 305.20 571.33 302.97 C 569.42 299.00 567.61 294.72 563.98 291.99 C 560.80 289.75 557.08 288.45 553.46 287.13 C 553.46 286.60 553.46 285.53 553.45 284.99 Z" />
<path fill="#536ef9" d=" M 896.56 285.67 C 900.09 283.49 900.86 288.54 900.87 291.00 C 901.52 292.92 898.72 292.36 897.67 292.84 C 897.12 290.48 896.25 288.12 896.56 285.67 Z" />
<path fill="#536ef9" d=" M 493.45 288.43 C 493.86 288.56 494.69 288.80 495.10 288.93 C 495.76 289.21 497.08 289.79 497.74 290.08 C 495.32 291.79 493.09 293.76 490.63 295.42 C 489.28 296.91 486.52 294.51 488.06 293.07 C 489.64 291.29 491.65 289.98 493.45 288.43 Z" />
<path fill="#140f0d" d=" M 641.55 292.74 C 647.78 292.30 654.82 294.21 658.28 299.82 C 655.35 300.28 654.18 297.14 652.24 295.62 C 648.87 294.50 645.33 294.48 641.82 294.50 C 641.75 294.06 641.61 293.18 641.55 292.74 Z" />
<path fill="#140f0d" d=" M 549.14 294.77 C 550.03 294.25 551.00 293.08 552.15 293.84 C 556.77 295.57 559.31 300.18 560.90 304.57 C 560.44 304.52 559.53 304.43 559.07 304.38 C 557.88 301.98 556.90 299.23 554.58 297.68 C 552.82 296.60 550.94 295.76 549.14 294.77 Z" />
<path fill="#536ef9" d=" M 899.06 299.95 C 899.97 299.70 900.97 299.65 901.88 300.01 C 902.96 303.12 903.17 306.74 901.31 309.61 C 898.06 307.57 898.50 303.24 899.06 299.95 Z" />
<path fill="#140f0d" d=" M 640.50 302.68 C 643.96 302.42 647.44 302.25 650.91 302.54 C 653.06 302.74 655.40 303.70 655.96 306.02 C 653.94 305.48 652.11 304.46 650.17 303.72 C 646.85 303.50 643.60 304.48 640.31 304.75 C 640.36 304.23 640.46 303.20 640.50 302.68 Z" />
<path fill="#536ef9" d=" M 479.42 303.52 C 480.47 302.17 483.19 304.51 481.87 305.70 C 480.16 307.89 477.96 311.61 474.72 310.25 C 473.92 307.07 477.62 305.52 479.42 303.52 Z" />
<path fill="#140f0d" d=" M 547.56 304.07 C 552.46 304.34 554.83 309.55 554.25 313.93 C 553.60 313.81 552.30 313.58 551.64 313.47 C 553.21 310.12 550.79 306.94 547.65 305.90 C 547.63 305.45 547.58 304.53 547.56 304.07 Z" />
<path fill="#536ef9" d=" M 459.78 328.31 C 463.33 324.67 466.48 320.67 469.06 316.28 C 472.41 315.63 471.61 319.57 470.27 321.26 C 468.06 324.45 465.70 327.58 462.92 330.29 C 461.19 331.27 460.46 329.54 459.78 328.31 Z" />
<path fill="#536ef9" d=" M 897.60 322.65 C 899.00 320.79 900.71 319.21 902.45 317.67 C 901.95 319.68 901.27 321.65 900.33 323.50 C 899.65 323.29 898.28 322.86 897.60 322.65 Z" />
<path fill="#536ef9" d=" M 894.35 332.19 C 895.72 330.08 897.23 328.05 898.95 326.20 C 899.76 327.02 900.58 327.85 901.41 328.69 C 900.19 330.36 899.08 332.14 897.63 333.62 C 896.21 334.53 895.31 332.92 894.35 332.19 Z" />
<path fill="#536ef9" d=" M 891.56 336.58 C 892.51 335.45 894.86 336.19 894.82 337.84 C 894.11 339.33 893.16 340.68 892.30 342.07 C 893.59 341.77 897.21 340.32 896.91 343.08 C 897.01 345.32 893.75 345.75 892.04 346.21 C 891.43 345.34 890.87 344.45 890.34 343.54 C 887.16 341.51 889.70 338.52 891.56 336.58 Z" />
<path fill="#536ef9" d=" M 911.29 337.21 C 913.77 336.38 916.51 336.81 919.08 337.12 C 920.86 338.73 919.31 341.27 917.04 340.66 C 914.78 340.80 909.04 340.98 911.29 337.21 Z" />
<path fill="#536ef9" d=" M 922.00 336.86 C 925.16 336.33 928.89 337.82 931.26 339.99 C 932.32 343.27 928.68 342.53 926.86 341.76 C 924.65 341.17 920.80 339.93 922.00 336.86 Z" />
<path fill="#536ef9" d=" M 899.82 338.92 C 902.49 337.67 905.52 337.89 908.40 337.73 C 908.33 338.83 908.58 340.01 908.15 341.07 C 905.41 341.52 901.98 343.09 899.60 341.10 C 899.66 340.56 899.76 339.47 899.82 338.92 Z" />
<path fill="#536ef9" d=" M 454.06 338.32 C 454.89 338.98 457.50 339.10 456.71 340.76 C 455.63 344.18 454.15 347.52 452.12 350.48 C 450.46 351.13 449.47 350.63 449.13 349.00 C 450.55 345.34 452.58 341.95 454.06 338.32 Z" />
<path fill="#536ef9" d=" M 932.89 343.90 C 932.38 342.15 934.53 340.63 935.94 341.97 C 938.54 343.38 940.16 345.95 941.85 348.29 C 940.98 348.91 940.10 349.50 939.21 350.06 C 937.04 348.06 934.92 346.02 932.89 343.90 Z" />
<path fill="#db5416" d=" M 872.75 350.29 C 877.45 350.29 881.18 347.19 884.10 343.83 C 889.07 344.62 893.54 348.69 893.70 353.90 C 894.41 359.64 889.65 365.20 883.95 365.59 C 878.61 366.27 873.22 362.25 872.29 356.99 C 871.83 354.75 872.38 352.49 872.75 350.29 Z" />
<path fill="#db5416" d=" M 939.20 353.13 C 944.91 350.46 952.25 354.87 952.67 361.14 C 953.43 366.66 948.62 372.19 942.98 371.89 C 937.64 372.18 932.84 367.27 933.19 361.95 C 933.11 358.12 935.69 354.55 939.20 353.13 Z" />
<path fill="#536ef9" d=" M 444.43 361.90 C 445.88 360.21 447.38 358.57 448.90 356.95 C 449.03 360.46 448.20 364.22 445.97 366.99 C 445.00 368.61 441.91 368.01 442.31 365.85 C 442.88 364.46 443.57 363.12 444.43 361.90 Z" />
<path fill="#536ef9" d=" M 953.52 357.71 C 956.95 357.03 960.70 360.80 960.52 364.17 C 957.36 366.32 955.24 361.42 953.08 359.85 C 953.19 359.31 953.41 358.25 953.52 357.71 Z" />
<path fill="#536ef9" d=" M 956.10 368.53 C 957.11 368.55 958.15 368.56 959.18 368.70 C 959.56 370.12 959.78 371.59 960.08 373.05 C 958.68 372.73 957.30 372.49 955.91 372.31 C 955.96 371.36 956.05 369.48 956.10 368.53 Z" />
<path fill="#536ef9" d=" M 437.90 379.14 C 438.25 376.98 437.43 372.33 441.09 373.60 C 442.32 376.39 442.42 380.82 439.67 382.74 C 437.98 384.29 436.99 382.28 435.93 381.18 C 436.43 380.67 437.41 379.65 437.90 379.14 Z" />
<path fill="#db5416" d=" M 921.77 384.55 C 923.02 381.30 925.29 378.12 928.87 377.28 C 934.09 375.45 940.66 379.59 941.00 385.10 C 938.76 384.31 937.88 388.38 940.47 388.19 L 941.31 387.78 C 940.71 389.60 940.09 391.42 939.46 393.23 C 937.36 391.10 935.81 388.39 933.28 386.73 C 929.61 385.33 925.62 385.16 921.77 384.55 Z" />
<path fill="#536ef9" d=" M 950.07 386.39 C 945.87 384.19 951.35 381.14 953.06 379.17 C 953.60 379.65 954.69 380.62 955.24 381.10 C 954.51 383.55 952.43 385.51 950.07 386.39 Z" />
<path fill="#536ef9" d=" M 226.75 385.77 C 230.46 384.78 234.31 384.40 238.08 383.65 C 238.44 384.30 239.16 385.59 239.52 386.24 C 235.61 388.11 231.25 389.10 226.92 389.05 C 226.12 388.01 225.46 386.77 226.75 385.77 Z" />
<path fill="#536ef9" d=" M 242.17 383.96 C 244.68 382.33 248.13 383.51 250.96 383.72 C 252.95 383.70 255.10 387.34 252.02 387.57 C 248.67 387.20 245.01 387.60 241.93 386.08 C 241.99 385.55 242.11 384.49 242.17 383.96 Z" />
<path fill="#494746" d=" M 940.47 388.19 C 937.88 388.38 938.76 384.31 941.00 385.10 C 941.08 385.77 941.24 387.11 941.31 387.78 L 940.47 388.19 Z" />
<path fill="#536ef9" d=" M 941.00 385.10 C 942.21 384.88 943.44 384.71 944.69 384.59 C 944.73 385.52 944.83 387.38 944.87 388.32 C 944.02 388.39 942.31 388.55 941.45 388.63 L 941.31 387.78 C 941.24 387.11 941.08 385.77 941.00 385.10 Z" />
<path fill="#db5416" d=" M 420.31 405.64 C 417.51 396.81 424.66 386.69 433.89 386.25 C 438.22 385.65 442.19 387.69 445.71 389.94 C 442.07 392.48 438.69 395.50 436.17 399.18 C 432.39 404.48 437.41 412.38 432.29 417.06 C 426.76 415.49 421.65 411.44 420.31 405.64 Z" />
<path fill="#536ef9" d=" M 258.28 387.16 C 260.98 387.31 263.30 389.02 265.31 390.69 C 267.08 391.66 266.52 395.12 264.14 394.05 C 261.72 392.79 259.36 391.42 257.09 389.92 C 256.58 388.59 256.98 387.67 258.28 387.16 Z" />
<path fill="#db5416" d=" M 921.75 388.19 C 924.99 388.25 928.35 388.41 931.39 389.67 C 933.60 391.11 935.13 393.34 936.98 395.20 C 934.11 396.15 930.91 397.26 928.00 395.82 C 924.64 394.66 922.57 391.50 921.75 388.19 Z" />
<path fill="#f5f3ef" d=" M 941.31 387.78 L 941.45 388.63 C 942.31 388.55 944.02 388.39 944.87 388.32 C 946.00 392.28 947.48 396.57 951.02 399.03 C 954.77 401.57 958.76 403.74 962.73 405.95 C 965.81 407.68 968.58 409.97 971.85 411.41 C 974.25 412.69 977.08 413.88 978.37 416.46 C 979.05 420.03 978.69 423.70 978.64 427.31 C 975.50 430.63 973.50 435.09 969.39 437.40 C 968.19 431.63 969.06 425.73 968.51 419.92 C 968.29 417.43 966.41 415.07 963.94 414.54 C 959.45 413.49 955.18 411.36 951.73 408.29 C 946.73 404.00 944.87 397.15 939.46 393.23 C 940.09 391.42 940.71 389.60 941.31 387.78 Z" />
<path fill="#536ef9" d=" M 163.09 392.95 C 164.82 391.37 166.41 389.15 168.96 388.98 C 171.68 388.67 174.43 388.80 177.17 388.83 C 177.17 389.68 177.17 391.38 177.17 392.24 C 173.18 392.53 168.70 391.83 165.58 394.93 C 164.74 394.27 163.91 393.61 163.09 392.95 Z" />
<path fill="#536ef9" d=" M 218.16 389.02 C 220.02 387.99 222.20 388.53 221.72 391.06 C 219.42 392.66 216.85 394.55 213.92 394.42 C 211.28 391.41 216.00 390.05 218.16 389.02 Z" />
<path fill="#536ef9" d=" M 181.50 390.48 C 185.47 389.82 191.40 390.52 193.11 394.85 C 192.39 398.25 189.37 395.44 187.53 394.70 C 185.26 393.44 181.61 394.73 180.36 391.94 C 180.64 391.58 181.22 390.85 181.50 390.48 Z" />
<path fill="#db5416" d=" M 200.13 392.03 C 207.39 390.14 213.70 397.25 214.24 403.98 C 214.35 410.15 207.90 415.30 201.90 413.55 C 197.01 411.91 191.91 407.66 192.23 402.02 C 192.03 397.34 195.67 393.09 200.13 392.03 Z" />
<path fill="#db5416" d=" M 437.97 405.04 C 438.13 399.20 443.57 395.59 447.76 392.39 C 449.41 395.32 450.83 398.55 450.60 402.00 C 450.65 409.43 444.53 416.17 437.16 416.95 C 437.67 413.00 437.74 409.01 437.97 405.04 Z" />
<path fill="#536ef9" d=" M 159.05 394.06 C 161.00 393.02 162.30 395.09 161.62 396.82 C 157.93 398.53 153.57 399.44 151.14 403.04 C 150.15 405.34 146.36 405.00 147.54 402.02 C 149.92 397.82 154.48 395.20 159.05 394.06 Z" />
<path fill="#536ef9" d=" M 268.47 396.21 C 269.54 394.26 272.02 396.22 272.04 397.97 C 272.76 400.48 275.64 406.20 270.88 405.62 C 269.77 402.71 267.58 399.29 268.47 396.21 Z" />
<path fill="#536ef9" d=" M 135.52 413.28 C 137.36 410.99 138.97 408.48 141.09 406.42 C 142.40 406.23 143.69 406.38 144.94 406.87 C 146.24 408.95 143.87 410.13 142.30 410.71 C 141.16 412.10 140.23 413.71 138.75 414.78 C 137.45 415.93 136.41 413.95 135.52 413.28 Z" />
<path fill="#536ef9" d=" M 272.66 407.68 C 273.93 407.20 275.39 406.25 276.34 407.80 C 276.87 410.24 276.87 412.80 276.46 415.26 C 275.45 416.07 273.65 416.48 273.23 414.86 C 272.72 412.50 272.81 410.07 272.66 407.68 Z" />
<path fill="#536ef9" d=" M 447.71 413.85 C 453.19 412.78 454.10 420.15 454.11 424.05 C 454.73 426.44 452.38 427.40 450.50 426.53 C 450.36 424.31 450.50 422.05 449.97 419.88 C 449.36 417.76 446.68 416.29 447.71 413.85 Z" />
<path fill="#536ef9" d=" M 134.31 418.09 C 135.73 416.95 136.78 418.88 137.65 419.71 C 135.01 422.29 133.60 425.70 131.66 428.76 C 130.74 430.30 127.57 428.97 128.83 427.07 C 130.01 423.77 131.53 420.35 134.31 418.09 Z" />
<path fill="#db5416" d=" M 267.52 419.81 C 274.25 417.34 282.57 420.99 284.66 428.00 C 287.92 436.19 280.69 445.93 271.97 445.53 C 264.44 445.64 258.05 438.41 258.92 430.97 C 259.42 426.02 262.88 421.56 267.52 419.81 Z" />
<path fill="#536ef9" d=" M 449.06 431.92 L 450.09 431.14 C 450.66 431.26 451.79 431.50 452.36 431.62 C 452.72 436.14 452.05 441.29 448.59 444.56 C 447.31 445.20 446.33 444.02 445.37 443.41 C 448.17 440.17 448.60 435.98 449.06 431.92 Z" />
<path fill="#536ef9" d=" M 125.41 441.37 C 125.82 438.58 125.95 435.06 128.88 433.64 C 132.55 432.86 131.06 436.83 129.79 438.52 C 129.32 439.74 129.13 441.17 128.09 442.10 C 127.42 441.92 126.08 441.55 125.41 441.37 Z" />
<path fill="#db5416" d=" M 121.51 445.89 C 126.48 443.61 132.86 444.13 136.64 448.35 C 141.62 453.03 141.42 461.76 136.35 466.30 C 132.37 470.33 125.95 470.53 121.03 468.24 C 119.87 460.79 121.47 453.34 121.51 445.89 Z" />
<path fill="#536ef9" d=" M 265.47 446.93 C 264.74 444.80 269.34 444.71 268.86 446.95 C 269.30 449.96 269.27 453.03 269.12 456.08 C 269.47 458.14 267.04 458.23 265.70 458.57 C 265.37 454.70 265.20 450.80 265.47 446.93 Z" />
<path fill="#536ef9" d=" M 441.88 447.99 C 442.14 446.09 444.35 445.35 445.61 446.89 C 445.74 452.96 440.34 456.76 436.15 460.21 C 434.78 461.61 433.30 460.04 432.27 459.12 C 435.54 455.45 440.57 453.10 441.88 447.99 Z" />
<path fill="#536ef9" d=" M 358.91 449.53 C 362.85 448.14 367.25 448.63 371.37 448.70 C 371.47 449.27 371.65 450.39 371.75 450.96 L 371.12 452.02 C 366.92 452.53 362.55 451.74 358.52 453.37 C 358.07 452.12 356.95 450.12 358.91 449.53 Z" />
<path fill="#db5416" d=" M 117.81 449.79 L 118.56 448.93 C 118.42 454.30 118.13 459.67 117.71 465.03 C 114.55 460.74 113.78 453.77 117.81 449.79 Z" />
<path fill="#536ef9" d=" M 376.02 451.89 C 377.74 450.52 379.85 452.02 381.63 452.49 C 383.67 453.29 387.47 454.40 385.11 457.17 C 382.55 457.43 380.22 456.19 377.99 455.13 C 376.68 454.66 374.90 453.55 376.02 451.89 Z" />
<path fill="#536ef9" d=" M 339.38 461.16 C 341.99 456.83 346.41 454.30 351.35 453.64 C 351.61 454.76 353.37 457.31 351.15 457.47 C 347.26 458.09 344.08 460.32 341.81 463.47 C 340.99 462.70 340.18 461.93 339.38 461.16 Z" />
<path fill="#db5416" d=" M 383.26 460.33 C 387.48 453.12 397.69 451.69 404.35 456.35 C 404.28 460.59 404.55 465.01 403.03 469.05 C 400.68 474.08 397.15 478.52 393.01 482.21 L 392.01 482.16 C 382.66 480.25 377.89 468.18 383.26 460.33 Z" />
<path fill="#db5416" d=" M 407.28 459.65 C 411.32 465.29 410.70 473.83 405.50 478.55 C 403.11 481.01 399.74 482.15 396.41 482.60 C 399.66 478.72 402.38 474.43 405.35 470.33 C 407.73 467.29 407.22 463.25 407.28 459.65 Z" />
<path fill="#536ef9" d=" M 428.42 462.43 C 430.00 461.38 431.92 463.28 431.01 464.95 C 427.92 467.00 424.28 468.03 420.86 469.42 C 419.10 470.45 416.71 469.09 417.87 466.97 C 421.26 465.21 424.78 463.64 428.42 462.43 Z" />
<path fill="#536ef9" d=" M 337.54 463.66 C 338.93 462.55 341.44 464.43 340.12 466.05 C 338.98 467.92 337.63 471.14 334.89 470.23 C 333.44 467.74 336.01 465.39 337.54 463.66 Z" />
<path fill="#536ef9" d=" M 269.02 464.19 C 271.63 462.68 272.49 466.70 273.81 468.22 C 275.25 469.87 276.60 474.12 272.91 473.35 C 270.95 470.87 267.57 467.46 269.02 464.19 Z" />
<path fill="#db5416" d=" M 323.27 477.26 C 328.82 471.33 339.57 472.11 344.16 478.84 C 348.03 483.70 347.50 490.89 343.96 495.77 C 336.95 495.48 330.02 496.81 323.03 496.79 C 318.05 491.49 317.87 482.33 323.27 477.26 Z" />
<path fill="#494746" d=" M 818.41 475.05 C 819.87 476.03 817.72 479.41 816.22 479.53 C 815.74 477.88 816.93 475.83 818.41 475.05 Z" />
<path fill="#536ef9" d=" M 277.87 476.05 C 280.41 475.55 282.57 478.01 284.82 479.02 C 286.90 479.52 287.16 482.62 284.90 483.07 C 282.00 481.97 279.06 480.49 277.04 478.08 C 277.25 477.58 277.66 476.56 277.87 476.05 Z" />
<path fill="#536ef9" d=" M 288.74 482.79 C 292.17 483.34 295.56 484.14 299.08 484.05 C 301.31 483.54 301.28 487.93 299.05 487.66 C 295.42 488.08 289.31 488.41 288.18 483.98 L 288.74 482.79 Z" />
<path fill="#536ef9" d=" M 304.41 490.36 C 304.24 488.70 304.78 486.58 306.93 486.92 C 309.75 486.76 312.58 486.80 315.41 486.68 C 315.92 488.00 316.82 489.53 315.04 490.33 C 311.52 490.86 307.94 490.53 304.41 490.36 Z" />
<path fill="#140f0d" d=" M 408.43 621.75 C 416.50 618.26 424.97 615.14 433.86 614.89 C 440.38 614.73 447.60 613.88 453.22 617.96 C 459.16 621.17 462.37 627.44 467.83 631.25 C 474.07 636.39 481.53 641.04 489.93 640.74 C 498.27 641.44 506.64 641.41 515.01 641.35 C 520.37 641.07 525.13 643.90 529.84 646.05 C 533.63 647.72 537.21 650.00 539.96 653.13 C 542.06 656.31 542.60 660.25 544.67 663.44 C 548.17 666.28 552.14 668.55 555.43 671.65 C 559.18 677.32 561.41 684.11 561.62 690.93 C 561.88 693.52 562.31 696.79 564.95 698.09 C 572.18 702.33 580.82 701.82 588.89 702.30 C 599.29 702.79 609.67 701.22 620.07 701.95 C 621.92 702.19 623.92 702.34 625.50 703.46 C 632.56 708.22 639.71 713.80 643.13 721.87 C 644.27 725.44 644.00 729.28 644.80 732.93 C 647.24 735.82 651.58 736.02 654.07 738.93 C 657.64 742.21 657.71 747.42 657.51 751.92 C 657.42 757.85 653.56 762.67 650.57 767.47 C 647.77 771.88 646.09 776.85 643.58 781.42 C 637.92 792.40 635.72 804.75 634.44 816.93 C 633.99 820.05 631.11 821.87 628.31 822.70 C 627.41 819.92 629.99 818.52 631.37 816.57 C 635.08 805.38 634.58 792.88 640.50 782.41 C 642.60 778.67 643.72 774.51 645.44 770.61 C 647.47 765.83 651.92 762.58 653.74 757.68 C 655.26 754.62 654.69 751.12 654.51 747.85 C 654.37 745.88 654.05 743.83 652.88 742.20 C 650.34 738.14 644.36 738.28 641.95 734.09 C 640.94 730.26 642.12 726.05 640.46 722.33 C 637.24 714.37 629.83 709.30 622.88 704.83 C 613.06 702.30 602.90 704.79 592.93 704.33 C 584.45 704.11 575.48 705.97 567.44 702.44 C 565.04 701.39 562.33 700.55 560.64 698.46 C 557.56 693.13 559.54 686.62 557.28 681.05 C 556.28 678.44 555.21 675.74 553.24 673.71 C 550.03 671.08 546.68 668.63 543.19 666.39 C 540.65 664.86 540.62 661.57 539.67 659.07 C 538.93 655.76 536.11 653.61 533.53 651.71 C 527.53 647.52 520.57 643.81 513.03 644.31 C 503.64 644.50 494.20 644.59 484.92 643.02 C 478.31 641.54 472.32 638.09 467.34 633.56 C 461.50 629.46 457.62 623.04 451.20 619.71 C 445.98 616.72 439.78 617.09 433.99 617.26 C 425.57 617.28 417.37 620.13 410.01 624.03 C 403.91 630.09 399.98 638.44 399.48 647.07 C 399.67 648.99 398.09 649.94 396.64 650.82 C 395.88 646.88 397.80 643.18 398.66 639.43 C 401.00 633.15 402.44 625.70 408.43 621.75 Z" />
<path fill="#140f0d" d=" M 1170.62 659.47 C 1171.17 658.02 1172.75 658.58 1173.95 658.50 C 1172.49 661.18 1169.64 662.48 1167.57 664.58 C 1161.28 670.73 1153.55 675.07 1146.97 680.87 C 1138.78 687.22 1132.27 695.50 1127.85 704.86 C 1124.05 711.73 1120.36 718.68 1117.45 725.99 C 1114.45 736.88 1119.90 747.71 1118.57 758.69 C 1117.27 760.29 1115.55 758.81 1115.80 757.16 C 1116.51 746.73 1113.28 736.35 1114.80 725.96 C 1118.71 716.42 1125.31 708.23 1129.69 698.89 C 1133.86 691.65 1139.15 684.90 1145.83 679.82 C 1149.72 676.74 1153.48 673.48 1157.68 670.83 C 1162.53 667.74 1167.45 664.40 1170.62 659.47 Z" />
</svg>
