<?xml version="1.0" encoding="UTF-8" ?>
<!DOCTYPE svg PUBLIC "-//W3C//DTD SVG 1.1//EN" "http://www.w3.org/Graphics/SVG/1.1/DTD/svg11.dtd">
<svg width="1261pt" height="793pt" viewBox="0 0 1261 793" version="1.1" xmlns="http://www.w3.org/2000/svg">
<path fill="#f5f3ef" d=" M 0.00 0.00 L 1261.00 0.00 L 1261.00 793.00 L 0.00 793.00 L 0.00 0.00 Z" />
<path fill="#232322" d=" M 206.04 32.78 C 217.36 31.98 228.74 32.77 240.05 31.79 C 247.25 32.03 254.56 31.04 261.68 32.45 C 263.45 38.83 261.99 45.52 261.64 51.99 C 260.93 69.66 258.45 87.25 258.69 104.97 C 258.77 112.68 258.43 120.41 259.06 128.11 C 259.49 129.75 257.80 130.50 256.78 131.32 C 256.58 132.75 257.10 134.78 255.17 135.15 C 239.45 135.52 223.71 135.12 208.01 134.31 C 192.64 134.26 177.35 132.13 161.98 132.47 C 144.31 132.57 126.64 132.80 108.97 133.38 C 107.18 133.37 105.43 133.80 103.74 134.36 C 103.23 134.07 102.20 133.48 101.68 133.19 C 101.58 132.69 101.38 131.68 101.28 131.17 C 99.97 130.13 99.06 128.73 99.42 127.00 C 99.95 99.66 99.32 72.31 99.76 44.96 C 99.76 41.86 100.22 38.79 100.62 35.73 C 102.98 34.75 105.36 33.56 107.97 33.58 C 122.12 33.47 136.32 32.44 150.44 33.84 C 163.56 35.81 176.83 34.44 190.00 34.14 C 195.36 33.84 200.71 33.39 206.04 32.78 Z" />
<path fill="#f5f3ef" d=" M 210.45 36.67 C 226.24 36.47 242.04 36.39 257.83 36.42 C 257.41 56.28 255.59 76.06 254.56 95.89 C 254.43 107.47 254.11 119.07 254.71 130.64 C 237.48 130.49 220.21 131.28 203.02 129.83 C 192.32 130.06 181.70 128.77 171.03 128.42 C 148.65 128.33 126.27 128.49 103.88 128.71 C 103.64 99.46 103.28 70.18 104.75 40.96 C 104.65 39.75 105.50 38.27 106.87 38.48 C 116.25 38.02 125.63 37.35 135.03 37.44 C 147.46 36.99 159.75 40.07 172.18 38.99 C 184.95 38.42 197.72 37.93 210.45 36.67 Z" />
<path fill="#232322" d=" M 110.62 46.35 C 111.77 44.42 113.77 44.97 115.55 45.43 C 115.62 59.96 115.31 74.50 115.36 89.03 C 115.23 97.91 115.07 106.80 115.80 115.66 C 125.51 117.08 135.35 117.06 145.08 118.30 C 156.04 118.94 167.03 118.56 178.00 118.73 C 192.03 119.10 205.90 116.49 219.92 116.33 C 229.01 115.61 238.15 115.41 247.27 115.74 C 248.04 93.43 249.68 71.14 249.19 48.80 C 227.45 48.44 205.69 48.77 183.94 48.29 C 164.30 47.94 144.66 49.05 125.02 48.70 C 122.59 48.31 119.26 50.73 117.71 48.04 C 116.80 44.43 121.56 44.07 124.04 44.21 C 143.69 45.25 163.36 43.91 183.02 44.23 C 202.01 44.52 221.00 44.30 239.99 44.27 C 244.13 44.24 248.29 44.19 252.41 44.73 C 252.85 45.80 253.20 46.90 253.48 48.02 C 254.02 68.01 252.15 87.96 252.30 107.95 C 252.30 111.52 251.72 115.06 251.46 118.62 C 250.68 119.34 249.93 120.10 249.08 120.74 C 233.05 119.52 216.95 120.64 200.94 121.67 C 186.39 123.60 171.68 122.69 157.05 122.91 C 143.99 123.04 131.02 121.29 118.00 120.66 C 115.79 120.56 113.06 120.68 111.65 118.62 C 109.58 105.15 111.66 91.55 111.14 78.01 C 110.59 67.47 111.03 56.90 110.62 46.35 Z" />
<path fill="#df5c1f" d=" M 162.46 60.39 C 167.65 57.18 174.08 56.07 180.10 56.80 C 186.95 58.61 191.91 69.52 185.39 74.38 C 181.83 77.16 177.52 79.26 175.29 83.40 C 172.97 86.34 173.40 90.24 172.48 93.67 C 171.14 93.74 169.81 93.68 168.48 93.65 C 167.44 85.10 172.71 77.00 179.89 72.81 C 181.42 71.52 184.04 70.44 183.73 68.05 C 183.72 65.00 181.52 61.04 178.08 61.23 C 172.86 60.88 167.23 61.88 163.30 65.59 C 163.15 69.39 165.44 72.26 168.59 74.05 C 168.52 75.23 168.45 76.41 168.37 77.59 C 159.84 78.20 155.66 65.19 162.46 60.39 Z" />
<path fill="#df5c1f" d=" M 542.74 57.86 C 546.40 56.49 550.54 57.38 554.33 57.85 C 554.92 60.14 553.13 61.94 552.67 64.05 C 550.00 81.71 547.10 99.40 546.74 117.31 C 547.76 117.75 548.79 118.19 549.82 118.63 C 549.66 119.84 549.51 121.06 549.35 122.28 C 545.05 122.44 540.76 122.51 536.46 122.38 C 536.43 120.84 536.44 119.30 536.47 117.76 C 538.47 117.72 540.48 117.70 542.49 117.68 C 542.90 107.29 543.77 96.92 544.93 86.58 C 546.00 78.38 547.58 70.22 547.86 61.94 C 545.29 62.03 541.31 61.49 542.74 57.86 Z" />
<path fill="#df5c1f" d=" M 570.22 65.20 C 574.29 62.56 579.31 62.31 584.00 61.80 C 588.31 61.37 593.22 62.36 595.92 66.05 C 600.76 72.27 600.72 80.53 601.20 88.01 C 601.43 91.25 600.50 94.80 597.74 96.75 C 590.71 101.82 581.25 103.16 573.02 100.53 C 572.09 109.65 571.76 118.82 570.60 127.91 C 569.21 127.77 567.82 127.61 566.45 127.44 C 566.74 119.15 568.40 110.98 568.61 102.69 C 568.91 91.45 568.67 80.20 568.68 68.97 C 568.63 67.58 568.92 65.97 570.22 65.20 Z" />
<path fill="#f5f3ef" d=" M 573.46 68.55 C 578.56 66.68 584.14 65.79 589.54 66.62 C 594.16 68.75 595.54 74.31 596.21 78.91 C 596.48 83.29 597.45 87.89 596.25 92.18 C 590.30 97.53 580.66 99.47 573.41 95.69 C 573.09 86.65 573.44 77.59 573.46 68.55 Z" />
<path fill="#df5c1f" d=" M 619.52 74.54 C 624.10 69.38 631.82 68.10 638.27 69.69 C 645.49 74.02 649.22 84.02 646.30 91.98 C 642.13 94.62 637.67 96.77 633.07 98.53 C 626.65 101.05 621.81 106.17 617.20 111.10 C 613.09 115.59 612.02 121.80 611.32 127.62 C 611.22 129.66 609.31 130.03 607.67 129.43 C 606.80 127.05 607.24 124.48 607.68 122.06 C 608.83 116.83 610.72 111.53 614.55 107.63 C 618.06 104.10 621.36 100.28 625.57 97.55 C 630.79 93.98 637.23 92.77 642.40 89.11 C 643.74 83.68 641.41 77.33 636.90 74.03 C 631.55 72.28 624.35 74.10 621.73 79.51 C 620.61 82.82 623.04 85.80 623.38 89.00 C 622.60 90.33 621.44 90.80 619.92 90.42 C 616.19 86.06 615.73 79.01 619.52 74.54 Z" />
<path fill="#df5c1f" d=" M 375.99 84.71 C 395.99 84.45 415.99 84.54 435.99 84.50 C 445.61 84.54 455.25 84.63 464.84 85.44 C 481.65 85.51 498.42 87.04 515.06 89.34 C 516.23 89.46 517.25 90.06 518.29 90.57 C 510.45 90.92 502.77 88.85 494.97 88.45 C 487.69 87.49 480.35 87.46 473.03 87.22 C 462.05 86.25 450.98 86.82 440.00 85.85 C 432.66 85.25 425.34 86.81 418.01 86.02 C 410.00 84.98 401.97 87.05 393.97 85.84 C 381.33 86.49 368.65 86.39 355.99 86.73 C 341.32 86.41 326.68 87.81 312.00 87.68 C 305.31 87.50 298.63 88.00 292.01 88.89 C 290.07 89.05 288.00 89.68 286.19 88.65 C 286.05 87.60 286.27 86.01 287.53 85.80 C 294.67 84.90 301.80 86.57 308.95 86.33 C 314.62 86.21 320.32 86.64 325.95 85.81 C 342.62 85.11 359.34 85.96 375.99 84.71 Z" />
<path fill="#df5c1f" d=" M 168.54 100.50 C 170.16 99.49 171.86 99.50 173.46 100.56 C 173.37 101.38 173.29 102.20 173.21 103.02 C 172.66 103.37 171.55 104.07 171.00 104.42 C 170.44 104.07 169.32 103.38 168.76 103.04 C 168.69 102.19 168.61 101.34 168.54 100.50 Z" />
<path fill="#df5c1f" d=" M 643.51 114.94 C 647.75 113.60 651.87 116.33 656.02 117.00 C 676.71 123.10 697.61 128.45 718.52 133.76 C 730.46 137.01 742.61 139.58 754.30 143.66 C 765.13 147.75 776.53 150.01 787.53 153.57 C 806.09 158.91 823.25 167.93 841.32 174.60 C 852.69 178.43 863.72 183.18 875.10 186.98 C 883.52 189.82 891.57 193.65 899.53 197.59 C 908.72 202.08 916.99 208.17 925.83 213.27 C 937.63 219.92 948.90 227.50 961.18 233.31 C 964.09 229.29 966.18 224.77 967.73 220.07 C 968.15 218.15 970.02 217.32 971.51 216.33 C 971.58 215.20 971.69 214.06 971.83 212.94 C 972.91 212.28 974.25 212.31 975.48 212.05 C 976.78 216.09 977.76 220.29 979.94 223.98 C 983.04 229.47 985.77 235.24 989.81 240.13 C 993.05 244.17 994.33 249.43 997.85 253.28 C 999.75 255.60 1002.73 258.09 1001.57 261.47 C 999.91 262.58 997.83 262.43 995.95 262.58 C 987.30 262.75 978.65 262.62 970.01 263.15 C 963.99 262.88 957.98 262.49 951.96 262.57 C 949.56 262.87 946.59 261.48 946.23 258.92 C 946.36 254.82 949.38 251.69 951.43 248.39 C 954.33 243.71 958.08 239.49 959.98 234.26 C 952.25 230.47 944.61 226.47 937.43 221.71 C 929.20 216.94 920.92 212.24 912.94 207.05 C 902.78 200.31 891.68 195.15 880.44 190.51 C 866.44 185.73 852.77 180.03 838.77 175.27 C 826.53 170.60 814.71 164.92 802.49 160.22 C 788.46 154.89 773.86 151.37 759.51 147.06 C 746.49 142.02 732.82 139.06 719.36 135.50 C 699.25 130.33 679.06 125.44 659.19 119.41 C 653.99 117.85 648.59 116.92 643.51 114.94 Z" />
<path fill="#232322" d=" M 233.07 147.33 C 241.41 146.08 250.10 147.61 258.14 144.54 C 259.17 145.31 260.22 146.08 261.28 146.84 C 264.89 156.48 268.03 166.29 271.99 175.81 C 274.16 182.84 277.02 189.64 280.34 196.21 C 281.60 198.38 281.90 200.87 281.54 203.32 C 279.67 204.06 277.69 204.35 275.84 203.39 C 275.14 201.42 274.40 199.46 273.67 197.50 C 269.17 198.62 264.58 197.65 260.03 197.78 C 241.48 197.72 222.92 197.40 204.37 197.65 C 185.30 199.16 166.13 197.51 147.03 198.65 C 133.69 198.90 120.33 198.10 107.01 199.17 C 94.98 198.94 82.66 200.21 70.89 197.23 C 70.52 195.85 69.21 194.55 69.76 193.07 C 71.76 187.40 76.45 183.38 79.81 178.56 C 83.90 172.81 88.43 167.38 92.37 161.53 C 95.70 156.39 100.09 151.98 102.76 146.41 C 109.02 148.21 115.58 147.69 122.01 147.81 C 141.32 149.00 160.68 148.47 180.01 148.66 C 197.70 148.38 215.45 149.35 233.07 147.33 Z" />
<path fill="#df5c1f" d=" M 600.45 144.49 C 601.76 144.52 603.07 144.55 604.40 144.60 C 604.44 145.91 604.47 147.22 604.51 148.53 C 603.12 148.60 601.74 148.65 600.36 148.68 C 600.36 147.28 600.39 145.89 600.45 144.49 Z" />
<path fill="#f5f3ef" d=" M 233.96 151.55 C 241.44 151.02 249.02 152.26 256.42 150.78 C 261.23 164.10 265.95 177.45 270.71 190.78 C 244.50 191.84 218.23 190.48 192.05 192.31 C 181.36 192.38 170.67 192.52 159.98 192.70 C 136.39 194.44 112.69 194.97 89.02 194.61 C 84.15 194.64 79.26 194.44 74.48 193.42 C 76.69 188.56 80.59 184.83 83.63 180.51 C 87.78 174.74 92.51 169.40 96.47 163.49 C 99.07 159.55 102.47 156.22 105.00 152.23 C 127.32 152.59 149.64 152.78 171.96 152.65 C 192.63 152.41 213.34 153.35 233.96 151.55 Z" />
<path fill="#232322" d=" M 113.41 165.62 C 116.58 164.86 119.82 164.48 123.07 164.56 C 133.04 164.65 143.01 164.52 152.98 164.74 C 182.30 166.61 211.69 167.03 241.06 166.62 C 242.90 166.51 244.73 166.80 246.46 167.45 C 246.37 168.46 246.29 169.47 246.21 170.49 C 225.14 170.99 204.03 170.53 182.95 170.24 C 159.75 168.94 136.46 168.83 113.24 169.73 C 113.27 168.36 113.32 166.99 113.41 165.62 Z" />
<path fill="#232322" d=" M 207.87 179.50 C 217.84 177.58 227.97 176.85 238.08 176.06 C 240.68 175.85 239.48 178.72 239.62 180.31 C 234.08 180.81 228.53 181.27 222.97 181.56 C 216.61 181.90 210.42 183.84 204.03 183.78 C 189.67 183.73 175.31 184.01 160.98 183.08 C 152.68 182.21 144.33 182.53 136.01 182.54 C 131.15 182.48 126.39 184.11 121.52 183.58 C 121.61 182.67 121.79 180.83 121.88 179.92 C 124.69 178.43 127.97 178.46 131.07 178.27 C 144.06 178.01 157.09 178.15 170.03 179.47 C 182.63 179.74 195.27 180.04 207.87 179.50 Z" />
<path fill="#232322" d=" M 1170.52 184.76 C 1174.19 182.34 1179.09 183.11 1183.24 183.56 C 1183.51 183.88 1184.05 184.53 1184.32 184.86 C 1185.81 191.16 1184.38 197.68 1183.69 204.00 C 1182.64 216.64 1183.74 229.34 1182.87 241.99 C 1181.88 259.03 1182.97 276.12 1181.45 293.12 C 1179.47 295.42 1176.28 294.77 1174.59 292.57 C 1174.40 286.34 1175.87 280.23 1175.67 274.01 C 1175.68 267.33 1175.60 260.64 1175.82 253.96 C 1177.29 239.35 1177.01 224.65 1177.58 209.99 C 1177.74 202.70 1179.67 195.59 1179.84 188.30 C 1178.08 188.30 1176.38 188.31 1174.65 188.32 C 1174.78 196.27 1173.20 204.11 1173.30 212.06 C 1173.12 239.23 1173.53 266.41 1173.35 293.58 C 1171.80 293.60 1170.27 293.58 1168.74 293.52 C 1168.71 277.68 1168.90 261.84 1168.85 246.01 C 1168.94 231.03 1168.51 216.05 1169.57 201.10 C 1170.27 195.67 1170.06 190.18 1170.52 184.76 Z" />
<path fill="#232322" d=" M 1059.68 193.93 C 1060.38 189.50 1065.73 190.61 1068.91 190.97 C 1071.16 192.49 1070.65 195.68 1070.88 198.03 C 1070.80 223.68 1070.61 249.33 1071.25 274.97 C 1071.15 282.02 1071.90 289.11 1071.07 296.13 C 1069.48 297.67 1067.61 298.96 1065.46 299.56 L 1064.28 299.26 C 1064.17 295.11 1065.57 291.11 1065.45 286.96 C 1065.57 271.95 1065.81 256.93 1066.47 241.93 C 1066.47 226.42 1066.53 210.90 1066.29 195.39 C 1065.84 195.37 1064.94 195.32 1064.49 195.30 L 1063.92 195.27 C 1063.90 203.88 1061.87 212.36 1062.31 220.98 C 1062.30 244.34 1062.40 267.71 1062.38 291.07 C 1062.47 294.13 1061.54 297.07 1060.40 299.87 C 1059.46 299.23 1058.55 298.57 1057.67 297.89 L 1057.35 297.22 C 1058.57 285.51 1058.22 273.73 1058.34 261.97 C 1058.45 249.98 1058.38 237.99 1058.40 226.00 C 1058.48 219.65 1057.97 213.25 1059.08 206.95 C 1059.77 202.64 1059.38 198.26 1059.68 193.93 Z" />
<path fill="#898886" d=" M 1063.92 195.27 L 1064.49 195.30 C 1064.75 204.26 1062.47 213.03 1062.64 221.98 C 1062.66 239.65 1062.60 257.33 1062.85 275.00 C 1062.91 282.91 1063.25 290.86 1062.16 298.73 C 1062.85 298.90 1063.55 299.07 1064.28 299.26 L 1065.46 299.56 C 1067.61 298.96 1069.48 297.67 1071.07 296.13 C 1070.79 296.74 1070.23 297.96 1069.95 298.57 C 1074.05 298.23 1078.16 298.04 1082.29 297.94 C 1075.83 298.20 1069.54 300.04 1063.07 299.89 C 1058.69 299.89 1054.34 300.25 1049.99 300.67 C 1042.10 301.51 1034.03 300.03 1026.29 302.27 C 1028.93 300.77 1031.92 300.11 1034.95 300.19 C 1042.50 300.22 1050.05 299.80 1057.60 299.56 L 1057.67 297.89 C 1058.55 298.57 1059.46 299.23 1060.40 299.87 C 1061.54 297.07 1062.47 294.13 1062.38 291.07 C 1062.40 267.71 1062.30 244.34 1062.31 220.98 C 1061.87 212.36 1063.90 203.88 1063.92 195.27 Z" />
<path fill="#f5f3ef" d=" M 1064.49 195.30 C 1064.94 195.32 1065.84 195.37 1066.29 195.39 C 1066.53 210.90 1066.47 226.42 1066.47 241.93 C 1065.81 256.93 1065.57 271.95 1065.45 286.96 C 1065.57 291.11 1064.17 295.11 1064.28 299.26 C 1063.55 299.07 1062.85 298.90 1062.16 298.73 C 1063.25 290.86 1062.91 282.91 1062.85 275.00 C 1062.60 257.33 1062.66 239.65 1062.64 221.98 C 1062.47 213.03 1064.75 204.26 1064.49 195.30 Z" />
<path fill="#df5c1f" d=" M 638.42 244.45 C 640.00 243.22 641.48 245.16 642.81 245.82 C 640.08 249.72 636.99 253.35 634.24 257.24 C 626.82 268.17 616.64 276.95 609.88 288.37 C 618.36 288.21 626.99 289.40 635.34 287.51 C 638.22 289.35 637.81 292.96 638.13 295.93 C 638.22 301.80 638.36 307.66 638.34 313.53 C 636.80 313.52 635.27 313.52 633.74 313.51 C 633.71 306.48 633.58 299.44 633.51 292.41 C 624.49 292.89 615.40 293.06 606.40 292.44 C 603.97 292.46 603.52 289.51 604.95 288.00 C 609.55 281.62 614.03 275.13 619.20 269.18 C 623.65 264.22 627.80 258.98 631.48 253.41 C 633.72 250.37 635.62 247.02 638.42 244.45 Z" />
<path fill="#df5c1f" d=" M 661.16 252.23 C 664.16 248.07 668.78 244.75 674.04 244.45 C 678.37 244.09 683.42 243.99 686.70 247.35 C 691.46 252.22 692.45 259.53 692.17 266.05 C 691.50 273.28 685.15 277.77 681.09 283.17 C 676.74 289.13 671.55 294.39 666.28 299.52 C 668.67 299.91 671.30 300.05 673.19 301.80 C 676.17 304.30 680.22 305.75 684.11 305.00 C 687.01 303.91 688.88 301.24 691.12 299.24 C 691.61 299.73 692.59 300.71 693.08 301.20 C 694.06 303.65 691.00 305.14 689.67 306.75 C 686.41 310.21 681.29 309.75 677.02 309.10 C 673.80 308.56 671.15 306.43 668.03 305.63 C 663.99 305.83 660.62 308.26 657.81 310.95 C 656.01 313.02 652.50 310.55 653.70 308.07 C 660.89 297.99 670.75 290.17 678.00 280.14 C 681.00 275.97 685.35 272.69 687.34 267.86 C 688.20 262.10 687.80 255.60 684.05 250.86 C 681.84 248.34 678.10 248.44 675.04 248.68 C 667.97 248.99 661.74 255.89 662.63 263.01 C 662.65 266.68 664.80 269.95 664.67 273.64 C 662.32 273.79 659.87 273.31 659.31 270.66 C 657.78 264.68 657.14 257.42 661.16 252.23 Z" />
<path fill="#df5c1f" d=" M 568.04 289.50 C 571.40 289.22 574.79 289.14 578.14 289.62 C 570.96 291.61 563.35 291.03 556.02 292.15 C 544.64 293.76 533.10 294.23 521.87 296.79 C 511.51 299.06 500.89 299.92 490.56 302.36 C 473.62 306.24 456.81 310.63 439.95 314.83 C 423.23 318.36 407.33 324.72 391.11 329.96 C 380.47 333.86 369.11 335.63 358.88 340.67 C 360.83 348.50 364.74 355.99 364.48 364.24 C 363.03 365.25 361.90 367.13 360.03 367.27 C 341.06 367.12 322.03 370.46 303.11 368.15 C 298.52 365.73 304.44 361.58 306.09 358.96 C 310.62 356.78 313.61 352.59 316.86 348.93 C 323.41 340.20 332.05 333.39 339.25 325.23 C 341.82 322.49 344.31 319.66 346.97 317.00 C 347.72 316.16 348.98 316.39 349.98 316.11 C 351.35 319.08 353.83 321.60 354.29 324.94 C 355.00 329.78 356.46 334.45 357.95 339.10 C 362.72 337.69 367.17 335.39 372.00 334.14 C 392.39 328.92 411.79 320.49 432.16 315.15 C 454.79 309.85 477.17 303.36 500.02 298.99 C 509.92 297.60 519.74 295.67 529.58 293.83 C 542.37 292.14 555.20 290.78 568.04 289.50 Z" />
<path fill="#df5c1f" d=" M 735.80 289.52 C 744.33 290.76 752.99 290.42 761.55 291.36 C 773.23 291.50 784.78 293.49 796.40 294.42 C 813.77 295.21 830.90 298.20 848.09 300.60 C 871.01 304.34 893.98 307.78 916.87 311.75 C 934.69 315.69 952.47 320.09 969.61 326.44 C 976.32 328.31 982.80 330.88 989.11 333.81 C 991.06 334.42 992.56 336.06 991.91 338.24 C 989.84 339.06 988.10 337.54 986.47 336.52 C 983.44 334.43 980.48 332.17 977.06 330.77 C 951.55 321.11 925.02 314.03 898.00 310.12 C 879.93 307.03 861.79 304.39 843.70 301.45 C 831.49 299.81 819.33 297.68 807.05 296.58 C 800.63 296.56 794.28 295.51 787.87 295.27 L 787.13 294.75 C 777.06 294.11 767.05 292.66 756.95 292.57 C 749.79 292.47 742.69 291.30 735.53 291.26 C 735.60 290.82 735.73 289.95 735.80 289.52 Z" />
<path fill="#232322" d=" M 169.96 298.67 C 184.69 298.68 199.33 296.46 214.07 296.77 C 229.39 296.96 244.75 296.15 260.04 297.31 C 265.52 297.43 271.00 297.11 276.47 297.47 C 279.18 303.02 277.01 309.26 276.52 315.07 C 274.83 323.95 275.41 333.02 275.26 342.01 C 275.35 364.22 275.09 386.47 275.63 408.65 C 274.24 410.25 272.09 410.76 270.10 411.11 C 258.81 412.83 247.38 411.94 236.03 412.62 C 220.72 413.73 205.34 413.13 190.03 414.23 C 183.02 414.25 176.00 414.43 169.02 415.22 C 159.01 415.85 148.95 415.65 138.95 414.85 C 121.89 414.64 104.68 414.19 87.83 417.36 C 85.92 418.09 84.72 416.36 83.51 415.25 C 82.75 406.51 82.33 397.76 82.23 389.00 C 81.22 374.36 82.36 359.63 80.84 345.02 C 80.53 335.03 80.75 325.04 80.64 315.05 C 80.52 310.01 81.06 304.98 81.88 300.02 C 82.45 298.16 84.46 298.45 85.98 298.34 C 94.64 298.24 103.32 298.29 111.95 299.17 C 125.60 299.78 139.28 299.42 152.94 299.58 C 158.63 299.69 164.28 298.84 169.96 298.67 Z" />
<path fill="#232322" d=" M 1082.29 297.94 C 1097.19 297.52 1112.11 297.83 1127.03 297.63 C 1140.03 297.16 1152.94 299.51 1165.94 299.25 C 1175.33 299.43 1184.71 298.49 1194.09 299.15 C 1200.09 299.13 1206.05 299.90 1212.06 299.79 C 1214.89 299.81 1219.07 300.02 1219.54 303.61 C 1221.20 315.83 1218.23 327.94 1216.83 340.03 C 1216.16 345.38 1216.96 350.79 1216.34 356.14 C 1216.03 358.71 1213.05 359.58 1210.84 359.47 C 1197.47 359.27 1184.17 360.74 1170.92 362.28 C 1158.28 362.46 1145.62 362.64 1133.01 361.74 C 1116.99 361.84 1100.96 361.35 1084.96 362.23 C 1071.26 362.64 1057.66 364.72 1043.95 364.43 C 1038.91 364.31 1033.98 365.42 1029.12 366.56 C 1027.00 367.31 1025.01 366.34 1023.18 365.40 C 1022.92 356.91 1024.50 348.52 1024.74 340.05 C 1025.44 333.37 1025.43 326.64 1026.07 319.95 C 1026.34 315.37 1026.03 310.72 1027.15 306.22 C 1026.94 305.24 1026.51 303.26 1026.29 302.27 C 1034.03 300.03 1042.10 301.51 1049.99 300.67 C 1054.34 300.25 1058.69 299.89 1063.07 299.89 C 1069.54 300.04 1075.83 298.20 1082.29 297.94 Z" />
<path fill="#f5f3ef" d=" M 184.00 302.30 C 198.60 300.66 213.32 301.34 227.98 301.21 C 242.86 301.08 257.74 301.54 272.61 301.82 C 272.79 301.99 273.15 302.32 273.32 302.49 C 272.84 312.01 270.62 321.39 270.75 330.96 C 270.87 356.07 270.56 381.18 270.82 406.29 C 261.65 408.04 252.29 407.61 243.01 407.80 C 234.70 408.60 226.33 408.70 217.99 408.75 C 202.02 409.94 185.96 409.45 170.01 411.01 C 155.35 412.43 140.68 410.35 126.00 410.68 C 113.25 410.42 100.47 410.86 87.83 412.65 C 86.77 398.79 86.09 384.89 86.21 370.99 C 85.46 348.43 83.51 325.77 85.72 303.24 C 92.14 302.67 98.61 302.65 105.04 303.15 C 116.34 303.96 127.67 303.70 138.98 303.72 C 147.64 303.56 156.33 304.04 164.97 303.12 C 171.29 302.45 177.67 302.93 184.00 302.30 Z" />
<path fill="#df5c1f" d=" M 587.35 303.06 C 588.10 302.61 589.60 301.70 590.35 301.24 C 592.01 302.78 593.18 304.60 591.14 306.43 C 588.67 307.21 587.97 304.84 587.35 303.06 Z" />
<path fill="#f5f3ef" d=" M 1032.66 305.38 C 1048.83 305.49 1064.86 303.11 1080.99 302.23 C 1095.97 302.09 1110.96 302.00 1125.94 302.38 C 1138.69 302.48 1151.28 304.80 1164.01 305.28 C 1174.99 305.47 1186.00 305.24 1196.98 305.80 C 1202.27 306.32 1207.58 306.80 1212.91 306.69 C 1214.45 319.25 1210.11 331.53 1209.65 344.02 C 1209.61 347.56 1209.62 351.11 1209.56 354.67 C 1198.03 355.27 1186.48 355.89 1175.05 357.56 C 1160.73 358.78 1146.33 358.00 1131.99 357.59 C 1116.33 357.67 1100.68 357.32 1085.04 357.95 C 1073.02 358.45 1061.05 359.96 1049.01 359.79 C 1041.74 359.66 1034.42 360.33 1027.42 362.33 C 1028.94 345.58 1030.02 328.80 1030.95 312.01 C 1031.22 309.73 1032.02 307.57 1032.66 305.38 Z" />
<path fill="#232322" d=" M 91.67 311.03 C 91.29 308.44 93.77 306.54 96.14 307.84 C 97.20 310.74 96.02 313.93 96.25 316.96 C 96.37 327.67 95.79 338.42 96.82 349.10 C 98.46 360.38 97.05 371.83 98.55 383.13 C 99.39 388.65 99.45 394.24 99.38 399.82 C 111.89 400.24 124.42 400.27 136.95 400.13 C 150.58 398.75 164.27 398.47 177.93 397.34 C 194.91 395.83 211.98 396.10 229.01 395.85 C 240.13 396.39 251.21 397.85 262.37 397.26 C 263.53 386.54 263.81 375.74 263.23 364.97 C 261.27 347.90 264.10 330.54 260.62 313.60 C 252.07 313.45 243.49 313.79 234.99 312.67 C 214.31 311.92 193.62 312.21 172.94 312.20 C 147.80 313.16 122.65 313.29 97.50 313.17 C 97.42 311.71 97.38 310.26 97.37 308.80 C 123.92 308.67 150.50 309.34 177.02 307.76 C 199.33 307.86 221.69 307.24 243.96 308.85 C 249.35 309.06 254.75 308.62 260.13 309.04 C 261.98 309.25 264.65 309.56 265.04 311.82 C 268.38 328.04 265.46 344.69 267.22 361.05 C 268.15 370.70 267.32 380.42 268.24 390.07 C 268.38 394.40 269.42 399.05 267.24 403.07 C 255.30 406.20 242.93 402.76 230.85 402.32 C 219.22 402.12 207.58 402.26 195.96 401.92 C 180.29 402.37 164.65 403.45 148.98 403.46 C 137.72 404.98 126.35 404.52 115.02 404.60 C 109.02 404.53 103.02 404.85 97.03 404.41 C 96.23 403.60 95.43 402.79 94.63 402.00 C 94.74 395.36 94.91 388.70 94.08 382.10 C 92.92 372.76 94.04 363.32 93.03 353.97 C 91.24 339.74 91.49 325.34 91.67 311.03 Z" />
<path fill="#df5c1f" d=" M 156.18 328.16 C 161.65 323.62 169.12 322.32 176.04 322.79 C 181.20 323.04 184.36 328.38 184.77 333.04 C 184.93 336.55 185.70 340.97 182.53 343.44 C 177.87 347.50 172.71 351.21 169.29 356.45 C 166.92 360.04 167.21 364.52 166.70 368.60 C 165.27 368.58 163.84 368.54 162.42 368.49 C 162.45 363.44 162.82 358.06 165.76 353.77 C 169.66 348.09 175.32 344.00 180.28 339.35 C 180.97 335.95 180.82 332.07 178.86 329.08 C 177.41 326.70 174.29 327.31 171.95 327.25 C 166.20 327.30 159.85 329.33 156.65 334.43 C 155.58 338.12 155.86 342.46 158.49 345.47 C 160.67 347.17 158.53 350.56 156.05 349.34 C 152.02 346.72 151.29 341.48 151.53 337.05 C 151.57 333.55 153.46 330.29 156.18 328.16 Z" />
<path fill="#898886" d=" M 1120.36 327.63 C 1123.83 323.67 1129.67 325.34 1134.31 324.74 C 1135.25 326.52 1135.47 328.46 1134.39 330.23 C 1130.10 330.31 1125.84 330.64 1121.57 330.84 C 1121.27 330.04 1120.66 328.43 1120.36 327.63 Z" />
<path fill="#232322" d=" M 1155.32 325.54 C 1158.02 324.85 1160.80 324.71 1163.58 324.59 C 1164.69 325.52 1165.73 326.62 1165.60 328.23 C 1163.09 330.91 1158.83 329.21 1155.58 329.46 C 1155.46 328.15 1155.38 326.84 1155.32 325.54 Z" />
<path fill="#232322" d=" M 1083.50 326.77 C 1088.82 325.00 1094.54 325.48 1100.05 325.79 C 1100.80 327.29 1101.14 329.65 1099.02 330.13 C 1093.87 330.38 1088.72 330.39 1083.59 330.80 C 1083.51 329.45 1083.49 328.11 1083.50 326.77 Z" />
<path fill="#232322" d=" M 1122.99 326.31 C 1125.96 325.59 1129.08 325.62 1132.14 325.73 C 1133.97 325.16 1136.21 327.67 1134.32 329.15 C 1130.59 329.77 1126.80 330.28 1123.03 330.04 C 1120.92 330.02 1120.93 326.26 1122.99 326.31 Z" />
<path fill="#232322" d=" M 1181.51 326.60 C 1184.71 326.36 1188.14 325.28 1191.19 326.84 C 1191.55 328.13 1191.58 330.22 1189.91 330.52 C 1186.98 331.05 1183.90 331.56 1181.09 330.30 C 1181.21 329.06 1181.34 327.83 1181.51 326.60 Z" />
<path fill="#232322" d=" M 1050.73 328.61 C 1054.78 327.98 1058.94 327.19 1063.04 327.88 C 1063.90 329.28 1064.19 331.88 1061.96 332.04 C 1058.31 332.58 1054.59 332.64 1050.97 333.40 C 1050.60 332.80 1049.87 331.60 1049.50 331.00 C 1049.81 330.40 1050.43 329.21 1050.73 328.61 Z" />
<path fill="#df5c1f" d=" M 160.58 375.33 C 161.88 375.66 163.22 375.95 164.39 376.64 C 164.48 377.83 164.44 379.02 164.43 380.22 C 163.07 380.28 161.71 380.34 160.36 380.40 C 160.40 378.70 160.47 377.01 160.58 375.33 Z" />
<path fill="#485596" d=" M 1062.58 405.61 C 1070.97 397.13 1081.05 390.43 1088.97 381.51 C 1090.58 381.18 1093.06 381.98 1092.75 384.03 C 1092.58 391.53 1089.84 398.66 1088.38 405.97 C 1086.79 412.02 1086.35 418.78 1082.16 423.75 C 1077.50 423.12 1073.32 420.65 1068.65 420.03 C 1065.06 426.45 1060.49 432.21 1056.17 438.13 C 1050.44 446.90 1041.98 453.30 1034.60 460.58 C 1026.83 467.77 1019.86 475.80 1011.96 482.85 C 1007.20 486.37 1002.77 490.29 998.50 494.37 C 993.51 498.43 989.72 503.70 984.73 507.75 C 975.55 515.54 967.94 525.01 958.46 532.48 C 949.57 539.51 941.69 547.73 932.38 554.24 C 923.55 561.19 913.47 566.23 903.60 571.48 C 889.36 578.29 875.54 585.93 861.82 593.71 C 852.46 599.38 842.37 603.66 832.62 608.57 C 827.55 610.99 822.11 612.51 816.98 614.78 C 808.01 618.72 798.27 620.39 789.14 623.90 C 773.57 629.97 757.15 633.39 740.80 636.55 C 726.45 640.27 712.61 645.80 698.03 648.65 C 684.87 651.23 672.21 655.87 658.96 658.02 C 649.67 659.67 640.29 660.79 631.02 662.57 C 618.85 663.89 606.90 666.58 594.85 668.61 C 584.97 671.41 574.69 672.14 564.74 674.57 C 555.80 675.85 546.91 677.48 537.91 678.23 C 526.96 679.13 516.02 680.59 505.02 680.29 C 484.70 680.10 464.36 680.73 444.06 679.75 C 429.04 680.02 414.05 678.93 399.05 678.25 C 392.74 677.62 386.37 677.57 380.16 676.17 C 370.10 674.04 359.71 673.95 349.78 671.25 C 347.79 670.82 345.78 670.08 343.73 670.34 C 340.81 674.97 339.27 680.65 335.17 684.42 C 332.49 684.73 330.93 682.18 329.03 680.79 C 324.05 676.04 317.42 673.43 312.69 668.38 C 309.98 665.43 306.88 662.85 303.31 661.02 C 303.79 658.80 303.54 655.96 305.74 654.60 C 309.78 653.89 313.92 654.33 318.01 654.22 C 326.98 654.34 335.96 653.27 344.92 653.91 C 346.72 654.94 349.19 656.56 348.35 659.02 C 347.46 662.29 345.88 665.33 344.82 668.55 C 354.92 671.53 365.43 672.37 375.80 673.91 C 391.98 677.15 408.55 677.27 424.99 677.83 C 433.29 678.77 441.66 678.46 450.00 678.58 C 467.02 678.62 484.03 678.63 501.05 678.61 C 522.49 679.13 543.84 676.39 564.98 673.05 C 574.57 670.67 584.47 669.95 594.00 667.26 C 606.38 665.29 618.59 662.31 631.09 661.11 C 646.10 658.21 661.45 656.96 676.16 652.62 C 685.51 649.89 695.02 647.83 704.52 645.72 C 719.17 642.26 733.04 635.92 747.98 633.68 C 753.08 632.88 757.99 631.16 763.06 630.19 C 772.24 628.42 781.11 625.35 789.83 622.04 C 797.39 619.26 805.33 617.67 812.89 614.86 C 821.53 611.21 830.54 608.39 838.79 603.86 C 851.75 598.28 863.70 590.77 876.07 584.06 C 895.71 572.77 917.41 564.82 935.07 550.30 C 942.58 544.83 948.99 538.05 956.24 532.26 C 964.80 525.18 972.33 516.98 980.50 509.47 C 985.03 505.31 988.93 500.54 993.32 496.23 C 999.28 490.84 1005.58 485.84 1011.93 480.92 C 1021.21 472.23 1029.72 462.76 1038.86 453.92 C 1043.12 448.86 1047.85 444.23 1052.31 439.36 C 1057.22 432.91 1062.36 426.49 1065.73 419.06 C 1062.10 418.30 1058.65 416.97 1055.41 415.21 C 1055.42 413.93 1055.33 412.64 1055.59 411.38 C 1057.93 409.48 1060.52 407.85 1062.58 405.61 Z" />
<path fill="#232322" d=" M 263.94 432.20 C 267.15 432.28 271.46 429.82 273.74 433.25 C 277.14 437.96 280.39 442.84 282.97 448.05 C 287.15 458.59 291.89 468.96 294.70 479.98 C 293.96 480.39 292.46 481.22 291.72 481.64 C 288.65 478.06 288.29 473.18 286.54 468.97 C 282.00 457.79 278.31 445.67 270.22 436.58 C 244.14 436.86 218.02 435.81 191.98 437.50 C 180.57 438.28 169.37 440.70 158.05 442.22 C 148.71 442.63 139.34 441.80 130.00 442.50 C 117.55 443.46 105.09 442.09 92.63 442.19 C 90.43 447.06 88.69 452.13 87.08 457.23 C 84.25 465.99 79.65 474.11 77.43 483.07 C 76.44 486.87 74.53 490.32 72.63 493.73 C 90.06 494.67 107.52 494.97 124.96 494.33 C 142.68 492.66 160.46 491.99 178.23 491.37 C 191.08 490.03 204.02 490.58 216.92 490.20 C 233.95 489.64 250.99 490.01 268.02 489.72 C 275.76 489.51 283.45 488.33 290.91 486.28 C 293.21 485.82 296.29 484.93 297.89 487.26 C 299.22 488.81 297.95 490.80 297.55 492.46 C 287.07 494.03 276.71 496.88 266.03 496.62 C 240.02 496.45 214.01 496.45 188.00 496.71 C 176.07 497.68 164.10 497.58 152.14 497.79 C 141.76 498.42 131.36 498.56 120.97 499.05 C 103.56 498.66 86.13 499.08 68.72 498.20 C 68.21 496.68 66.57 495.11 67.62 493.49 C 69.33 489.95 71.70 486.69 72.77 482.86 C 75.43 472.93 80.50 463.85 83.38 453.98 C 84.61 449.28 87.29 444.86 86.95 439.86 C 87.19 439.33 87.67 438.26 87.91 437.73 C 101.27 436.45 114.62 439.53 128.00 438.34 C 138.75 436.92 149.61 438.34 160.39 437.59 C 172.23 435.80 184.02 433.57 196.00 432.92 C 218.62 431.84 241.29 432.48 263.94 432.20 Z" />
<path fill="#232322" d=" M 250.93 451.44 C 255.32 450.81 259.71 450.09 264.11 449.46 C 264.74 449.81 265.99 450.53 266.62 450.88 C 266.52 452.56 266.99 455.14 264.71 455.50 C 255.65 456.72 246.52 458.18 237.35 457.38 L 237.65 456.56 C 227.45 456.59 217.19 456.12 207.04 457.16 C 176.71 457.32 146.37 457.23 116.04 457.53 C 112.17 457.52 108.37 458.25 104.52 458.45 C 104.47 457.51 104.38 455.62 104.34 454.68 C 110.33 451.73 117.52 453.15 124.04 452.80 C 147.35 453.41 170.68 453.26 193.99 453.30 C 203.01 453.61 211.98 452.42 221.00 452.61 C 230.98 452.20 241.00 452.76 250.93 451.44 Z" />
<path fill="#232322" d=" M 246.46 464.82 C 253.27 464.07 260.15 464.16 266.98 464.23 C 270.12 464.19 270.51 468.96 267.99 470.27 C 265.33 470.60 262.64 470.34 259.97 470.35 C 247.60 469.98 235.26 471.19 222.96 472.39 C 213.68 472.91 204.29 471.67 195.08 473.32 C 185.82 474.89 176.39 475.05 167.11 476.42 C 157.80 477.77 148.38 477.07 139.01 477.24 C 129.59 477.14 120.15 477.54 110.75 477.13 C 108.11 477.06 107.62 472.90 110.11 472.38 C 127.71 472.70 145.33 472.76 162.93 472.59 C 171.95 471.40 181.05 470.86 190.09 469.75 C 201.11 467.46 212.43 468.31 223.59 467.42 C 231.17 466.24 238.84 465.67 246.46 464.82 Z" />
<path fill="#232322" d=" M 197.07 574.03 C 216.05 572.66 235.08 573.67 254.08 573.35 C 255.89 573.21 257.18 574.68 258.63 575.54 C 259.59 580.96 259.28 586.50 259.31 591.98 C 259.30 602.32 260.31 612.63 260.18 622.97 C 260.22 643.66 260.21 664.34 260.34 685.02 C 260.40 690.02 259.52 694.98 259.53 699.98 C 259.59 701.87 259.00 703.69 258.42 705.48 C 249.29 706.21 240.11 705.73 230.96 705.78 C 183.31 705.51 135.66 705.18 88.01 705.62 C 85.08 705.76 82.16 705.35 79.40 704.38 C 78.75 702.31 78.29 700.17 78.36 697.99 C 78.33 684.67 78.51 671.35 78.47 658.03 C 78.21 643.38 77.23 628.70 78.44 614.07 C 79.74 601.98 77.65 589.72 79.61 577.72 C 85.71 574.94 92.54 575.65 99.05 575.15 C 102.18 575.30 106.38 573.82 107.93 577.52 C 117.46 576.96 127.07 577.52 136.51 575.81 C 156.64 573.71 176.92 575.73 197.07 574.03 Z" />
<path fill="#f5f3ef" d=" M 181.99 578.71 C 197.61 578.30 213.26 578.32 228.88 578.74 C 236.76 579.60 244.68 579.41 252.59 579.57 C 252.37 595.43 253.84 611.23 253.57 627.08 C 253.51 646.05 253.57 665.01 253.41 683.98 C 253.37 689.77 253.96 695.54 254.37 701.31 C 229.58 701.47 204.79 701.83 180.01 701.44 C 149.32 701.36 118.64 701.42 87.96 701.26 C 86.45 701.04 84.62 701.61 83.33 700.66 C 82.63 699.22 82.91 697.55 82.79 696.02 C 82.76 682.70 82.67 669.38 82.63 656.06 C 82.09 642.98 82.00 629.88 82.35 616.80 C 83.80 605.25 83.91 593.59 84.54 581.98 C 91.74 580.54 98.81 583.08 106.01 582.29 C 115.36 581.17 124.83 582.03 134.14 580.46 C 149.97 577.96 166.08 580.17 181.99 578.71 Z" />
<path fill="#232322" d=" M 107.00 584.01 C 125.27 582.23 143.71 581.98 162.02 583.36 C 188.00 583.30 213.98 583.55 239.96 583.50 C 241.73 583.47 243.38 584.20 245.02 584.81 C 245.40 585.85 245.80 586.89 246.21 587.94 C 246.18 601.96 246.15 615.98 246.13 630.00 C 245.38 641.32 246.23 652.66 246.29 663.99 C 246.30 673.06 249.14 681.95 248.23 691.04 C 247.22 691.78 246.21 692.53 245.21 693.29 C 208.46 693.14 171.70 693.51 134.95 693.16 C 120.16 692.09 105.34 693.11 90.56 693.73 C 90.26 692.32 88.84 690.57 90.58 689.58 C 93.79 688.00 97.53 688.76 100.98 688.54 C 123.99 688.05 147.00 688.99 170.02 688.83 C 194.64 688.99 219.24 688.62 243.86 688.54 C 243.85 679.63 241.78 670.88 241.67 661.97 C 241.56 637.40 241.70 612.84 241.47 588.27 C 231.33 587.93 221.18 588.34 211.05 587.89 C 193.40 587.34 175.74 587.86 158.09 587.48 C 137.30 585.89 116.41 587.17 95.73 589.51 C 94.87 608.34 95.56 627.22 95.22 646.07 C 94.28 656.70 92.76 667.31 93.13 678.02 C 93.00 681.31 94.00 685.15 91.34 687.73 C 90.63 687.32 89.20 686.50 88.49 686.09 C 88.68 676.03 88.72 665.96 89.96 655.96 C 91.28 646.70 90.62 637.32 90.77 628.00 C 90.90 616.00 90.48 604.00 90.93 592.01 C 91.39 589.52 90.73 585.56 94.14 585.06 C 98.37 584.36 102.76 584.89 107.00 584.01 Z" />
<path fill="#485596" d=" M 153.34 607.33 C 156.12 604.90 158.37 600.75 162.61 601.26 C 162.69 603.04 162.96 605.08 161.18 606.18 C 153.73 612.48 147.93 620.34 141.92 627.94 C 138.39 632.50 135.96 637.78 132.42 642.33 C 139.20 642.50 146.01 643.02 152.79 642.46 C 153.82 637.73 152.75 632.73 154.40 628.09 C 155.42 628.21 157.45 628.46 158.47 628.58 C 158.29 632.92 157.79 637.23 157.33 641.55 C 159.57 641.38 161.98 641.04 163.84 642.62 C 163.44 643.26 162.63 644.54 162.23 645.18 C 160.53 645.56 158.81 645.90 157.16 646.47 C 155.95 652.40 156.63 658.53 156.35 664.54 C 155.02 664.41 153.45 665.03 152.31 664.14 C 151.83 658.48 152.30 652.79 152.47 647.13 C 145.60 647.09 138.69 647.53 131.88 646.50 C 130.11 646.29 128.49 645.39 127.25 644.15 C 127.14 641.00 129.68 638.73 131.23 636.25 C 137.66 625.95 145.08 616.23 153.34 607.33 Z" />
<path fill="#485596" d=" M 192.19 607.78 C 197.65 606.15 204.37 604.05 209.47 607.65 C 213.59 611.49 214.65 617.63 214.30 623.03 C 214.15 626.50 211.36 629.02 208.52 630.59 C 203.18 633.56 197.30 635.65 192.59 639.66 C 188.58 642.65 186.19 647.17 184.14 651.62 C 187.88 650.38 192.04 649.32 195.82 651.06 C 199.25 652.56 203.01 652.66 206.70 652.41 C 208.06 651.57 210.36 649.19 211.78 651.12 C 213.35 652.23 212.08 654.12 211.02 655.05 C 208.13 657.88 203.68 657.32 200.01 656.94 C 196.22 656.67 192.83 653.74 188.95 654.79 C 185.96 655.40 183.63 657.45 181.39 659.37 C 180.37 660.36 178.86 659.46 177.79 659.03 C 179.28 652.05 181.48 644.81 186.44 639.45 C 190.50 635.01 195.77 631.92 201.15 629.36 C 203.99 627.73 207.51 626.69 209.50 623.99 C 210.18 619.44 210.04 613.27 205.62 610.57 C 198.70 609.43 190.44 611.60 186.54 617.87 C 185.88 621.45 190.93 622.37 190.92 625.98 C 190.17 626.35 188.67 627.09 187.92 627.46 C 185.53 625.42 182.12 623.47 182.10 619.92 C 181.51 613.90 187.33 609.91 192.19 607.78 Z" />
<path fill="#485596" d=" M 112.23 654.16 C 117.15 651.53 123.58 656.51 122.40 661.93 C 121.85 667.67 113.88 669.92 110.05 665.92 C 106.38 662.65 107.72 655.99 112.23 654.16 Z" />
<path fill="#232322" d=" M 191.03 718.79 C 203.50 719.21 215.51 715.09 227.92 714.69 C 235.57 714.52 243.27 712.94 250.88 714.39 C 257.84 729.59 263.92 745.24 269.39 761.05 C 270.51 763.16 269.75 766.57 266.73 765.56 C 263.89 761.61 263.53 756.38 261.44 752.02 C 257.74 740.57 252.32 729.81 248.06 718.58 C 234.99 718.36 221.81 718.80 208.97 721.36 C 196.59 723.77 183.88 722.23 171.44 724.09 C 158.64 724.99 145.78 724.45 132.96 724.13 C 122.75 724.08 112.45 724.39 102.37 722.51 C 95.67 721.31 88.90 720.31 82.07 720.55 C 79.96 725.52 78.98 730.90 76.72 735.81 C 73.09 743.89 68.66 751.57 64.13 759.17 C 61.82 763.05 60.08 767.22 58.66 771.50 C 70.75 771.66 82.87 771.96 94.93 770.85 C 100.22 770.61 105.56 770.88 110.80 769.97 C 118.21 768.71 125.54 767.01 132.97 765.85 C 143.92 764.72 154.95 764.38 165.95 764.78 C 181.27 766.42 196.70 765.03 212.05 765.97 C 218.15 766.67 224.33 766.49 230.42 767.38 C 239.63 768.16 248.69 770.74 258.00 770.20 C 260.13 770.44 263.26 769.44 264.33 771.96 C 265.39 774.04 263.94 775.92 262.50 777.32 C 256.26 777.10 249.96 777.54 243.81 776.18 C 231.04 773.46 217.98 772.55 204.96 772.16 C 192.65 771.10 180.22 772.44 167.94 770.73 C 159.01 769.88 150.01 770.26 141.05 770.28 C 131.61 770.23 122.37 772.42 113.06 773.76 C 101.46 775.56 89.67 775.05 78.02 776.21 C 70.05 776.07 62.00 776.88 54.11 775.45 C 53.84 774.30 53.64 773.15 53.52 772.00 C 57.21 760.13 65.16 750.31 70.23 739.07 C 74.10 731.84 75.70 723.75 78.14 715.99 C 79.88 714.89 82.09 715.87 84.02 715.76 C 92.95 716.04 101.69 717.97 110.50 719.25 C 118.97 720.03 127.50 719.56 135.99 719.84 C 146.64 720.49 157.32 720.48 167.98 720.22 C 175.65 719.50 183.32 718.63 191.03 718.79 Z" />
<path fill="#232322" d=" M 89.37 735.56 C 88.22 733.70 88.03 730.69 90.94 730.71 C 100.59 730.35 110.33 730.36 119.93 731.65 C 132.86 733.79 146.01 732.10 159.01 733.29 C 182.22 735.48 205.68 736.20 228.90 733.70 C 235.58 733.40 242.26 732.45 248.95 732.74 C 250.93 734.05 251.22 736.94 249.18 738.36 C 244.49 739.03 239.72 738.58 235.00 738.76 C 213.02 740.02 190.98 739.44 169.01 738.25 C 153.71 736.13 138.21 738.27 122.89 736.42 C 111.80 734.73 100.54 735.12 89.37 735.56 Z" />
<path fill="#232322" d=" M 94.84 754.28 C 92.31 753.50 93.26 748.88 96.00 749.65 C 103.97 750.57 111.99 750.28 119.99 750.37 C 138.34 750.48 156.69 750.40 175.04 750.49 C 186.70 750.48 198.37 750.73 210.01 749.84 C 217.87 750.20 225.73 748.79 233.57 749.59 C 233.48 750.49 233.29 752.29 233.20 753.19 C 226.23 754.19 219.07 754.28 212.01 754.25 C 178.69 754.93 145.35 754.44 112.02 754.74 C 106.30 754.60 100.53 755.11 94.84 754.28 Z" />
</svg>
