<?xml version="1.0" encoding="UTF-8" ?>
<!DOCTYPE svg PUBLIC "-//W3C//DTD SVG 1.1//EN" "http://www.w3.org/Graphics/SVG/1.1/DTD/svg11.dtd">
<svg width="1155pt" height="866pt" viewBox="0 0 1155 866" version="1.1" xmlns="http://www.w3.org/2000/svg">
<path fill="#f5f3ef" d=" M 0.00 0.00 L 1155.00 0.00 L 1155.00 866.00 L 0.00 866.00 L 0.00 0.00 Z" />
<path fill="#dd4f0d" d=" M 806.18 87.97 C 807.30 81.07 813.07 75.30 819.93 74.01 C 827.34 72.41 835.34 76.58 838.65 83.32 C 841.76 89.53 840.78 97.80 835.64 102.65 C 834.82 103.30 833.08 105.23 834.95 105.74 C 839.76 106.50 843.01 110.54 845.76 114.20 C 850.39 120.82 850.89 129.19 850.65 137.00 C 850.40 141.85 852.01 147.49 848.31 151.40 C 846.81 151.10 845.31 150.80 843.83 150.52 C 843.36 150.91 842.43 151.70 841.96 152.09 C 838.34 151.23 834.60 151.39 830.92 151.39 C 822.93 151.56 814.99 150.51 807.01 150.54 C 803.42 150.80 799.66 147.64 799.66 143.97 C 799.71 133.95 799.25 123.51 803.29 114.09 C 804.85 109.91 807.62 106.35 810.60 103.07 C 807.28 98.87 804.94 93.40 806.18 87.97 Z" />
<path fill="#090909" d=" M 293.80 105.43 C 294.23 105.39 295.08 105.31 295.51 105.27 C 295.44 107.70 294.77 110.68 298.16 110.96 C 297.28 111.69 296.29 112.27 295.29 112.79 C 295.21 116.92 295.19 121.07 295.77 125.18 C 294.87 121.17 294.71 117.07 294.26 113.01 C 294.07 112.77 293.69 112.29 293.50 112.05 L 292.82 111.21 C 293.54 109.37 293.64 107.38 293.80 105.43 Z" />
<path fill="#090909" d=" M 345.67 106.74 C 346.13 106.76 347.05 106.79 347.51 106.81 C 347.13 108.49 346.69 110.15 346.32 111.83 C 347.69 111.72 349.06 111.61 350.44 111.51 C 350.44 112.00 350.44 112.99 350.43 113.48 C 348.90 113.61 347.37 113.72 345.85 113.82 C 345.52 117.81 345.13 121.82 345.46 125.83 C 344.86 125.80 343.66 125.76 343.06 125.74 C 343.41 124.47 343.78 123.21 344.22 121.97 C 344.39 119.32 344.50 116.67 344.62 114.02 C 343.99 113.83 342.72 113.46 342.09 113.28 C 342.30 112.01 343.53 111.77 344.57 111.41 C 344.91 109.85 345.28 108.29 345.67 106.74 Z" />
<path fill="#090909" d=" M 109.20 109.17 C 111.42 106.21 116.62 107.13 117.48 110.83 C 117.19 111.55 116.60 112.99 116.31 113.71 C 115.88 113.69 115.04 113.65 114.61 113.63 C 114.59 112.25 114.56 110.88 114.52 109.51 C 111.12 109.01 109.08 112.19 108.58 115.11 C 107.80 118.83 106.67 123.10 108.66 126.63 C 111.55 128.03 112.85 124.68 114.38 122.97 C 115.31 125.11 114.55 127.38 112.62 128.63 C 110.12 130.72 105.80 128.39 106.20 125.13 C 106.49 119.78 105.81 113.72 109.20 109.17 Z" />
<path fill="#090909" d=" M 317.56 119.79 C 318.20 115.41 316.42 109.92 319.71 106.37 C 319.83 109.24 319.56 112.13 318.88 114.92 C 318.52 118.64 318.33 122.45 319.52 126.07 C 317.59 127.89 315.12 129.76 312.33 128.49 C 308.81 126.87 308.85 122.21 310.62 119.27 C 312.95 119.15 315.27 119.36 317.56 119.79 Z" />
<path fill="#090909" d=" M 227.62 108.32 C 228.14 108.25 229.19 108.13 229.71 108.07 C 229.11 110.62 228.51 113.17 228.03 115.75 C 230.32 115.97 233.41 114.59 234.83 117.10 C 232.47 118.03 229.97 118.39 227.45 118.39 C 227.01 122.72 227.32 127.06 227.35 131.39 C 224.05 132.08 226.17 127.80 226.17 126.11 C 226.31 123.60 226.35 121.09 226.44 118.57 C 225.59 118.03 224.75 117.49 223.90 116.95 C 224.98 116.40 226.06 115.85 227.14 115.31 C 227.25 112.98 227.42 110.64 227.62 108.32 Z" />
<path fill="#666563" d=" M 293.50 112.05 C 293.69 112.29 294.07 112.77 294.26 113.01 C 294.71 117.07 294.87 121.17 295.77 125.18 C 296.37 126.77 295.73 127.59 293.84 127.65 C 293.89 122.44 293.86 117.24 293.50 112.05 Z" />
<path fill="#090909" d=" M 325.46 112.47 C 326.49 112.45 327.53 112.44 328.57 112.44 C 328.55 113.47 328.53 114.51 328.52 115.54 C 327.50 115.53 326.49 115.51 325.48 115.50 C 325.47 114.49 325.46 113.47 325.46 112.47 Z" />
<path fill="#090909" d=" M 237.27 115.00 C 238.02 114.55 239.51 113.65 240.26 113.20 C 240.94 114.33 242.41 116.98 240.09 117.31 C 238.53 117.86 238.07 115.92 237.27 115.00 Z" />
<path fill="#090909" d=" M 191.65 115.63 C 192.61 115.57 193.57 115.52 194.54 115.47 C 194.55 116.49 194.56 117.50 194.58 118.52 C 193.60 118.48 192.62 118.44 191.64 118.39 C 191.64 117.47 191.64 116.55 191.65 115.63 Z" />
<path fill="#090909" d=" M 332.95 119.05 C 333.60 116.50 336.41 116.20 338.60 116.21 C 338.51 116.62 338.34 117.46 338.26 117.87 C 337.25 118.32 334.06 119.16 335.90 120.68 C 336.82 121.73 337.74 122.78 338.64 123.85 C 337.85 127.22 334.91 129.18 331.68 129.77 C 331.51 129.28 331.19 128.30 331.02 127.81 C 332.65 127.50 334.38 127.25 335.62 126.00 C 337.18 122.92 331.44 122.08 332.95 119.05 Z" />
<path fill="#090909" d=" M 352.49 117.19 C 353.25 115.16 355.36 115.24 357.02 115.91 C 358.09 117.11 358.35 118.76 358.88 120.23 C 357.10 121.11 355.29 121.92 353.49 122.74 C 353.43 123.41 353.30 124.76 353.24 125.43 C 355.32 125.38 357.28 124.63 359.29 124.14 C 359.18 128.81 352.30 128.87 350.64 125.19 C 350.30 121.89 353.10 119.89 355.93 119.14 C 355.87 118.83 355.74 118.20 355.68 117.89 C 354.88 117.71 353.29 117.37 352.49 117.19 Z" />
<path fill="#090909" d=" M 377.53 117.45 C 378.96 115.83 381.37 116.46 383.27 116.32 C 382.34 118.14 380.19 118.41 378.67 119.52 C 377.48 120.98 377.38 122.91 377.08 124.69 C 378.62 124.73 380.17 124.78 381.72 124.84 C 381.17 128.41 377.59 127.38 375.25 126.35 C 375.20 123.27 375.38 119.87 377.53 117.45 Z" />
<path fill="#090909" d=" M 130.37 118.38 C 133.25 121.96 134.57 115.55 137.70 117.32 C 138.19 118.50 138.59 119.73 138.90 120.99 C 140.23 119.76 142.07 117.08 144.01 118.89 C 144.97 121.27 144.82 123.88 144.60 126.39 C 144.12 126.35 143.17 126.26 142.70 126.22 C 142.72 124.29 142.74 122.37 142.67 120.45 C 140.52 121.85 139.49 124.22 138.11 126.27 L 136.75 126.14 C 136.73 123.66 136.86 121.17 136.44 118.72 C 134.34 120.49 133.13 122.97 132.15 125.49 C 131.70 125.48 130.79 125.45 130.33 125.44 C 130.24 123.09 130.23 120.73 130.37 118.38 Z" />
<path fill="#090909" d=" M 149.38 121.63 C 151.39 119.89 152.88 116.62 156.03 117.16 C 157.10 118.65 157.30 120.53 157.77 122.25 C 158.52 121.22 159.28 120.18 160.03 119.15 C 160.58 119.25 161.67 119.46 162.21 119.57 C 162.70 122.42 163.45 125.25 163.45 128.16 L 161.59 128.62 C 161.04 126.25 160.88 123.81 160.56 121.41 C 159.32 123.25 158.07 125.09 156.82 126.93 C 153.85 125.54 156.53 121.54 155.37 119.07 C 151.63 120.21 151.52 124.25 151.46 127.47 C 150.95 127.47 149.92 127.46 149.41 127.46 C 149.38 125.51 149.38 123.57 149.38 121.63 Z" />
<path fill="#090909" d=" M 325.00 117.93 C 325.72 117.59 326.46 117.27 327.22 116.99 C 327.18 120.43 327.50 124.03 326.07 127.27 C 324.07 124.58 324.83 121.03 325.00 117.93 Z" />
<path fill="#090909" d=" M 365.73 116.71 C 366.75 117.48 367.36 118.53 367.42 119.84 C 368.21 118.95 368.81 117.74 370.10 117.47 C 372.65 119.57 371.62 123.41 371.70 126.31 C 369.60 124.76 370.18 121.79 369.33 119.60 C 367.23 121.46 366.98 125.65 363.74 125.87 C 364.35 122.81 364.83 119.71 365.73 116.71 Z" />
<path fill="#090909" d=" M 384.44 127.62 C 383.56 122.87 386.95 116.10 392.64 117.59 C 393.64 120.59 391.55 123.89 388.18 123.65 C 388.96 122.12 389.84 120.62 390.66 119.10 C 387.86 120.22 385.46 122.74 386.14 125.99 C 385.98 128.31 389.31 127.19 390.75 127.66 C 390.71 128.18 390.64 129.23 390.60 129.75 C 388.48 129.60 385.36 130.12 384.44 127.62 Z" />
<path fill="#090909" d=" M 120.00 122.05 C 120.98 120.64 121.77 119.08 123.00 117.86 C 124.56 116.76 126.20 118.10 127.67 118.63 C 127.44 121.75 127.24 125.47 124.59 127.58 C 123.06 129.19 121.01 127.60 119.30 127.28 C 119.16 125.50 119.11 123.67 120.00 122.05 Z" />
<path fill="#090909" d=" M 279.31 121.32 C 280.13 118.92 282.40 117.01 285.07 117.53 C 287.72 118.63 288.22 121.62 288.57 124.13 C 286.16 124.65 283.76 125.17 281.40 125.88 C 282.09 127.29 283.27 128.22 284.71 128.82 C 285.49 127.58 286.28 126.34 287.09 125.12 C 288.71 126.70 287.68 128.60 287.16 130.39 C 284.01 131.62 279.05 129.91 279.55 125.93 C 280.67 123.10 284.03 123.16 286.47 122.32 C 285.17 118.96 281.86 120.80 279.31 121.32 Z" />
<path fill="#090909" d=" M 180.28 120.68 C 181.72 119.96 183.13 119.21 184.51 118.39 C 187.44 120.30 186.46 124.10 186.68 127.04 C 183.31 127.28 185.08 123.22 184.51 121.18 C 184.12 121.34 183.33 121.65 182.93 121.81 C 182.32 123.78 181.75 125.77 181.25 127.78 C 180.74 127.74 179.70 127.67 179.19 127.64 C 179.47 125.31 179.84 122.98 180.28 120.68 Z" />
<path fill="#090909" d=" M 199.78 124.92 C 200.08 121.78 202.96 120.40 205.58 119.49 C 205.66 120.03 205.81 121.12 205.88 121.66 C 203.66 122.31 202.22 123.97 201.51 126.13 C 202.96 126.69 204.42 127.23 205.88 127.76 C 205.80 128.30 205.62 129.37 205.54 129.90 C 203.12 129.20 198.97 128.34 199.78 124.92 Z" />
<path fill="#090909" d=" M 211.99 121.13 C 213.37 119.30 216.06 118.55 218.05 119.79 C 219.13 121.01 219.61 122.59 219.56 124.21 C 217.37 126.26 214.04 125.75 211.33 126.58 C 211.36 127.12 211.43 128.22 211.47 128.77 C 213.93 129.04 215.84 127.45 217.83 126.29 C 218.26 130.76 213.12 132.40 209.84 130.27 C 209.38 129.08 208.94 127.88 208.49 126.69 C 210.75 124.38 214.05 124.12 217.01 123.35 C 216.88 122.93 216.62 122.09 216.49 121.67 C 214.98 121.53 213.48 121.35 211.99 121.13 Z" />
<path fill="#090909" d=" M 260.82 119.80 C 261.32 119.65 262.32 119.36 262.82 119.21 C 262.30 124.56 263.44 129.85 263.24 135.18 C 262.79 138.53 259.11 139.06 256.37 138.94 C 256.47 138.44 256.66 137.46 256.75 136.96 C 258.40 136.56 260.33 136.57 261.48 135.11 C 261.76 132.89 261.55 130.66 261.49 128.45 C 259.18 130.05 256.68 129.42 254.43 128.17 C 254.98 125.24 255.67 121.22 259.25 120.67 C 258.53 123.03 257.01 125.24 257.41 127.83 C 261.31 126.87 260.46 122.82 260.82 119.80 Z" />
<path fill="#f5f3ef" d=" M 121.10 125.97 C 121.29 123.29 123.01 120.54 125.64 119.69 C 125.24 122.44 124.78 126.25 121.10 125.97 Z" />
<path fill="#090909" d=" M 238.00 119.70 C 239.26 123.44 237.73 127.32 237.03 131.01 C 236.69 130.63 236.02 129.86 235.69 129.47 C 236.22 126.17 236.62 122.78 238.00 119.70 Z" />
<path fill="#090909" d=" M 167.61 125.10 C 168.40 123.06 169.22 121.04 170.22 119.09 C 171.41 121.14 170.35 123.41 170.22 125.55 C 173.39 124.69 171.57 119.48 175.35 120.14 C 174.52 122.57 174.44 125.70 172.13 127.31 C 171.06 127.49 169.97 127.46 168.90 127.50 C 168.58 126.90 167.93 125.70 167.61 125.10 Z" />
<path fill="#090909" d=" M 244.55 127.73 C 245.11 125.35 245.77 123.00 246.51 120.67 C 248.13 121.39 249.85 121.90 251.46 122.66 C 252.02 125.25 251.78 127.92 251.71 130.55 C 251.20 130.50 250.19 130.39 249.69 130.34 C 249.66 128.31 249.62 126.28 249.56 124.25 C 248.11 125.71 246.88 127.81 244.55 127.73 Z" />
<path fill="#f5f3ef" d=" M 311.48 121.35 C 313.03 121.34 314.70 121.11 316.12 121.93 C 316.49 123.31 317.03 124.94 316.35 126.29 C 315.17 126.93 313.67 127.05 312.51 126.33 C 310.70 125.33 311.62 123.00 311.48 121.35 Z" />
<path fill="#090909" d=" M 191.09 129.69 C 191.04 126.67 191.67 123.67 193.06 120.98 C 195.36 123.30 193.07 126.45 193.07 129.18 C 192.58 129.31 191.59 129.57 191.09 129.69 Z" />
<path fill="#090909" d=" M 781.08 128.05 C 785.77 125.21 791.45 124.78 796.60 126.59 C 796.58 127.11 796.55 128.15 796.54 128.67 C 793.37 128.10 790.18 126.90 786.93 127.52 C 784.48 128.00 782.17 128.99 779.82 129.77 C 776.81 131.09 773.81 132.43 770.80 133.74 C 761.05 137.77 750.95 143.52 746.76 153.77 C 744.10 159.22 741.94 164.90 740.82 170.88 C 739.76 178.61 738.41 187.63 744.05 194.02 C 747.87 197.60 751.66 201.93 757.06 202.94 C 764.87 205.30 773.07 204.61 781.11 204.65 C 786.96 204.01 792.30 201.21 797.97 199.78 C 802.64 198.71 807.13 196.57 812.02 196.75 C 820.35 196.84 828.67 196.09 837.01 196.29 C 843.84 196.35 850.34 201.26 852.08 207.91 C 854.34 215.48 857.61 222.94 857.65 230.97 C 857.73 236.64 857.85 242.33 857.75 248.01 C 857.75 251.60 855.25 254.52 852.60 256.65 C 847.77 260.13 842.22 262.39 836.81 264.79 C 830.19 267.20 823.57 269.65 816.85 271.80 C 805.28 276.45 792.82 278.08 781.03 282.05 C 774.71 284.81 767.79 287.79 764.05 293.94 C 759.86 300.56 760.29 308.77 760.78 316.26 C 761.98 318.58 763.96 320.39 765.98 322.01 C 773.98 328.04 784.05 330.72 791.49 337.58 C 796.43 341.41 795.56 348.46 795.09 353.96 C 793.11 360.36 787.21 364.51 781.57 367.54 C 774.41 370.50 766.70 371.97 758.96 371.94 C 751.73 373.40 744.87 368.46 741.87 362.15 C 738.82 355.76 735.99 349.17 734.71 342.18 C 733.29 335.50 732.43 327.74 726.55 323.32 C 718.41 316.27 706.97 317.59 696.99 317.46 C 694.32 316.92 692.28 319.23 689.76 319.20 C 688.73 316.55 691.71 314.84 693.94 314.68 C 700.27 314.55 706.64 314.50 712.94 315.34 C 721.76 315.67 730.83 320.90 733.73 329.58 C 737.82 341.79 738.48 355.81 747.11 366.03 C 751.41 371.37 758.93 370.47 765.01 370.17 C 774.59 369.13 785.24 366.29 790.81 357.71 C 793.39 354.38 792.61 349.97 792.51 346.07 C 792.46 343.57 791.75 340.93 789.79 339.26 C 783.00 332.66 773.33 330.61 765.94 324.91 C 762.59 322.51 758.21 319.65 758.28 315.03 C 758.44 307.95 758.55 300.45 762.09 294.10 C 764.37 290.09 768.05 287.14 772.07 284.99 C 779.92 281.19 788.29 278.75 796.77 276.79 C 802.27 275.41 807.86 274.30 813.16 272.21 C 814.16 271.86 815.17 271.52 816.20 271.20 L 816.84 270.86 C 818.61 270.35 820.38 269.78 822.16 269.25 C 827.42 267.02 833.00 265.61 838.21 263.22 C 838.71 262.99 839.72 262.54 840.22 262.32 C 846.53 258.65 855.02 255.14 856.33 247.04 C 856.89 238.67 856.82 230.15 855.13 221.90 C 854.37 218.49 853.48 215.12 852.24 211.86 C 849.92 205.90 845.73 200.16 839.11 198.79 C 828.76 197.69 818.40 199.17 808.07 199.62 C 804.33 200.43 800.63 201.42 796.92 202.36 C 790.96 203.94 785.26 207.11 778.94 206.79 C 770.50 206.62 761.83 207.01 753.74 204.26 C 750.37 202.87 747.71 200.30 744.97 198.00 C 741.67 195.23 739.03 191.40 738.78 186.99 C 738.39 176.08 739.90 164.87 745.25 155.19 C 747.26 150.04 749.83 144.71 754.42 141.39 C 760.28 137.63 766.61 134.68 772.94 131.81 C 775.67 130.61 778.40 129.38 781.08 128.05 Z" />
<path fill="#f5b233" d=" M 1000.51 200.51 C 1005.60 193.39 1017.47 193.24 1022.71 200.25 C 1027.39 205.65 1026.38 213.98 1021.97 219.22 C 1025.07 221.32 1028.54 223.11 1030.93 226.10 C 1033.02 228.92 1032.95 232.63 1033.13 235.98 C 1033.07 241.18 1033.13 246.46 1031.94 251.56 C 1031.32 254.18 1031.33 256.88 1031.44 259.56 C 1030.43 260.32 1029.52 261.45 1028.13 261.34 C 1022.39 261.65 1016.70 262.59 1010.95 262.42 C 1004.56 262.47 998.32 260.93 992.02 260.20 C 989.62 259.67 986.68 259.92 984.96 257.87 C 983.56 249.70 985.64 241.56 987.87 233.75 C 990.11 227.26 995.79 222.81 1001.20 218.99 C 997.14 213.74 996.12 205.88 1000.51 200.51 Z" />
<path fill="#090909" d=" M 966.06 248.02 C 968.48 245.62 969.55 242.16 972.28 240.03 C 972.41 241.32 973.06 242.85 972.01 243.96 C 967.93 249.90 961.47 253.44 955.96 257.85 C 949.60 262.45 944.88 268.85 938.81 273.77 C 937.11 275.07 935.47 276.45 933.84 277.83 C 931.48 279.96 928.68 281.46 925.83 282.81 C 920.57 285.55 914.76 286.94 908.94 287.83 C 906.89 288.30 904.64 288.48 903.00 289.92 C 897.37 294.27 892.91 299.95 887.29 304.32 C 881.26 309.16 874.49 313.58 870.52 320.42 C 867.00 327.09 866.20 334.72 864.04 341.87 C 861.66 349.99 861.74 358.97 857.23 366.37 C 853.34 371.76 847.32 375.01 842.84 379.85 C 836.91 386.19 829.66 391.16 821.77 394.74 C 818.94 396.34 816.05 397.85 813.13 399.27 C 810.72 400.19 808.31 401.13 805.87 401.95 C 802.93 402.56 800.00 403.33 796.99 403.48 C 788.68 403.94 780.32 405.16 772.00 404.20 C 764.20 402.37 756.81 398.58 751.01 393.01 C 744.19 387.81 739.76 380.32 733.55 374.50 C 727.57 369.60 725.64 361.75 721.15 355.72 C 718.42 352.16 716.52 347.80 712.67 345.25 C 710.25 343.61 707.86 341.86 705.18 340.66 C 701.44 339.48 697.57 338.77 693.76 337.83 C 692.98 336.16 693.43 335.32 695.12 335.33 C 700.93 336.05 706.92 337.44 711.61 341.18 C 717.82 344.22 720.94 350.63 724.55 356.14 C 727.86 361.59 729.82 368.00 734.66 372.38 C 740.62 378.14 744.94 385.39 751.47 390.60 C 757.12 396.17 764.28 400.05 771.89 402.18 C 775.89 402.92 780.00 402.45 784.05 402.63 C 790.72 402.54 797.58 403.31 804.08 401.37 C 807.92 400.38 811.62 398.92 815.26 397.34 C 821.72 393.49 828.96 390.77 834.54 385.58 C 838.39 382.13 841.76 378.19 845.55 374.67 C 849.20 371.63 852.96 368.58 855.73 364.67 C 860.21 357.13 859.74 348.07 862.32 339.92 C 863.52 334.37 865.17 328.95 866.83 323.53 C 869.38 315.66 876.38 310.55 882.52 305.53 C 889.04 301.00 894.29 295.02 899.73 289.31 C 895.50 289.52 891.27 289.58 887.08 290.09 C 882.51 290.87 877.66 288.66 874.99 284.95 C 872.03 279.10 871.86 272.42 871.53 266.02 C 870.98 260.73 874.07 255.24 878.81 252.84 C 881.59 251.13 884.55 249.29 887.97 249.46 C 892.81 249.58 898.27 248.42 902.50 251.47 C 905.51 253.60 908.84 255.87 910.26 259.44 C 912.33 265.08 912.88 271.14 913.10 277.10 C 913.05 281.67 910.34 285.89 906.08 287.64 C 915.49 286.20 924.88 283.43 932.59 277.65 C 934.86 275.89 937.00 273.97 939.34 272.30 C 944.84 267.47 949.46 261.69 955.29 257.22 C 958.87 254.14 962.69 251.33 966.06 248.02 Z" />
<path fill="#f5f3ef" d=" M 885.47 252.72 C 889.77 252.27 894.19 252.11 898.49 252.78 C 903.46 254.53 907.78 258.78 908.80 264.08 C 909.86 268.95 910.64 274.02 909.97 279.00 C 909.28 283.84 903.66 284.98 900.82 288.28 C 895.88 288.68 890.92 288.69 885.98 288.45 C 881.60 288.28 877.17 285.42 875.91 281.10 C 873.64 275.31 874.29 268.99 874.44 262.92 C 875.34 257.49 880.79 254.54 885.47 252.72 Z" />
<path fill="#dd4f0d" d=" M 335.42 281.34 C 341.23 276.24 350.21 275.24 356.96 279.05 C 364.36 282.87 368.63 291.91 366.68 300.03 C 365.63 305.60 361.74 310.16 357.03 313.10 C 360.92 313.95 364.67 315.67 367.50 318.53 C 371.26 322.03 373.00 326.97 375.31 331.41 C 378.78 338.13 378.99 345.83 380.95 353.01 C 381.80 356.43 382.75 361.07 379.23 363.36 C 374.81 365.79 369.57 364.25 364.89 363.62 C 358.67 362.37 352.30 362.49 345.99 362.45 C 338.01 362.55 329.99 362.12 322.05 363.17 C 318.34 363.34 313.24 363.72 311.20 359.87 C 309.20 354.67 309.31 348.75 310.62 343.39 C 313.40 334.69 318.32 325.88 326.73 321.56 C 331.30 318.21 336.65 316.27 341.91 314.30 C 335.54 312.17 330.38 306.71 329.01 300.09 C 327.41 293.28 330.06 285.79 335.42 281.34 Z" />
<path fill="#090909" d=" M 684.05 298.20 C 685.81 297.78 687.61 297.57 689.42 297.44 C 691.44 303.14 688.86 309.18 688.67 315.01 C 688.24 328.17 688.88 341.34 689.47 354.49 C 696.07 354.82 701.57 358.69 707.05 361.93 C 712.97 365.86 718.78 370.13 723.34 375.64 C 729.57 382.81 731.78 392.63 738.44 399.48 C 743.39 404.21 749.10 408.16 753.53 413.42 C 757.01 417.34 759.65 421.93 763.20 425.80 C 766.08 428.93 769.76 431.19 772.64 434.33 C 779.40 440.95 783.29 449.72 788.70 457.35 C 791.29 460.74 794.88 463.16 797.84 466.21 C 805.64 475.40 809.64 488.12 820.47 494.50 C 828.68 498.90 837.72 501.56 846.86 503.20 C 856.33 503.23 865.87 503.94 875.27 502.56 C 886.51 501.53 896.88 494.20 901.53 483.94 C 902.52 476.15 901.87 467.56 897.20 460.98 C 892.79 455.35 887.61 450.36 882.00 445.94 C 878.09 441.93 872.16 438.98 871.01 433.04 C 870.44 426.24 873.57 419.80 877.50 414.44 C 880.42 410.50 883.40 406.29 887.74 403.80 C 892.79 401.63 898.49 402.70 903.83 402.46 C 903.75 403.02 903.57 404.15 903.49 404.71 C 898.52 405.04 893.34 403.84 888.55 405.49 C 881.03 409.30 876.27 417.08 873.92 424.95 C 873.18 428.89 872.20 433.63 875.02 437.01 C 878.39 441.29 882.76 444.64 886.99 448.02 C 891.98 452.03 896.51 456.68 900.05 462.03 C 903.86 469.10 904.75 477.60 903.21 485.41 C 900.24 491.14 894.80 494.99 889.80 498.83 C 879.12 504.53 866.75 504.38 854.98 504.44 C 841.21 505.14 827.47 501.14 815.56 494.34 C 808.28 489.02 804.69 480.38 799.97 472.98 C 796.70 467.12 790.59 463.71 786.62 458.43 C 781.69 451.05 778.00 442.70 771.50 436.48 C 768.74 433.23 764.83 431.24 762.12 427.96 C 757.01 421.99 752.95 415.16 747.30 409.67 C 742.98 405.63 737.54 402.65 734.35 397.52 C 730.47 391.93 727.58 385.74 723.75 380.12 C 716.95 370.82 706.88 364.78 696.89 359.43 C 694.57 358.36 692.05 357.89 689.57 357.42 C 689.96 363.27 688.87 369.09 689.40 374.93 C 689.67 376.21 688.97 377.43 687.91 378.12 C 684.70 378.59 681.44 378.39 678.22 378.70 C 678.65 385.81 679.62 392.89 679.64 400.03 C 679.52 408.02 681.60 415.98 680.50 423.95 C 679.80 427.08 675.93 426.37 673.55 426.59 C 671.68 415.20 674.25 403.59 672.80 392.14 C 672.44 387.79 672.27 383.42 671.65 379.10 C 655.87 379.31 640.08 379.25 624.30 379.46 C 620.20 379.85 615.47 380.86 611.87 378.27 C 611.52 376.39 611.03 374.54 610.62 372.69 C 619.40 372.96 628.26 373.14 637.01 372.22 C 645.68 370.41 654.56 371.78 663.31 370.86 C 663.72 365.30 663.81 359.72 664.27 354.17 C 664.43 353.59 664.53 353.01 664.55 352.41 C 664.50 348.75 664.44 345.10 664.44 341.44 C 664.44 341.27 664.44 340.93 664.43 340.76 C 664.36 337.62 664.37 334.48 664.39 331.35 C 664.39 330.83 664.39 329.79 664.39 329.27 C 664.38 327.59 664.38 325.91 664.50 324.24 C 664.82 323.99 665.48 323.49 665.81 323.24 C 665.66 330.83 665.83 338.42 665.65 346.01 C 665.34 354.39 667.45 362.83 665.46 371.13 C 672.52 370.47 679.43 372.86 686.47 372.06 C 687.13 367.24 687.46 362.40 687.43 357.54 C 686.92 357.13 685.89 356.30 685.38 355.88 C 686.04 354.98 686.70 354.08 687.38 353.19 C 687.16 341.43 687.06 329.65 687.48 317.90 C 688.11 311.76 688.97 305.59 688.37 299.41 C 680.70 298.91 673.00 299.18 665.35 299.75 C 665.48 306.92 665.66 314.08 665.82 321.25 C 665.47 321.27 664.77 321.32 664.42 321.34 C 664.47 316.39 664.20 311.45 664.06 306.51 C 663.99 305.53 663.89 304.56 663.76 303.60 C 663.49 301.88 663.09 300.20 662.68 298.52 C 667.01 297.16 671.61 297.83 676.07 297.87 C 678.70 298.34 681.38 298.32 684.05 298.20 Z" />
<path fill="#f5f3ef" d=" M 665.35 299.75 C 673.00 299.18 680.70 298.91 688.37 299.41 C 688.97 305.59 688.11 311.76 687.48 317.90 C 687.06 329.65 687.16 341.43 687.38 353.19 C 686.70 354.08 686.04 354.98 685.38 355.88 C 685.89 356.30 686.92 357.13 687.43 357.54 C 687.46 362.40 687.13 367.24 686.47 372.06 C 679.43 372.86 672.52 370.47 665.46 371.13 C 667.45 362.83 665.34 354.39 665.65 346.01 C 665.83 338.42 665.66 330.83 665.81 323.24 C 665.81 322.97 665.82 322.42 665.83 322.15 L 665.82 321.25 C 665.66 314.08 665.48 306.92 665.35 299.75 Z" />
<path fill="#666563" d=" M 647.97 308.94 C 652.05 304.62 658.04 303.40 663.76 303.60 C 663.89 304.56 663.99 305.53 664.06 306.51 C 659.35 306.56 653.87 305.58 650.11 309.15 C 646.93 311.51 645.64 315.90 647.58 319.47 C 647.85 319.64 648.38 319.97 648.65 320.14 C 653.67 322.07 659.16 321.63 664.42 321.34 C 664.77 321.32 665.47 321.27 665.82 321.25 L 665.83 322.15 C 665.82 322.42 665.81 322.97 665.81 323.24 C 665.48 323.49 664.82 323.99 664.50 324.24 C 658.47 324.25 652.20 324.67 646.55 322.18 C 646.42 321.97 646.17 321.55 646.04 321.34 C 642.85 317.55 644.19 311.79 647.97 308.94 Z" />
<path fill="#f5f3ef" d=" M 650.11 309.15 C 653.87 305.58 659.35 306.56 664.06 306.51 C 664.20 311.45 664.47 316.39 664.42 321.34 C 659.16 321.63 653.67 322.07 648.65 320.14 C 652.30 315.82 657.60 313.78 662.74 311.85 C 662.74 311.68 662.73 311.33 662.73 311.15 C 661.32 310.44 659.64 310.58 658.33 311.41 C 654.28 313.42 650.93 316.51 647.58 319.47 C 645.64 315.90 646.93 311.51 650.11 309.15 Z" />
<path fill="#f5b233" d=" M 658.33 311.41 C 659.64 310.58 661.32 310.44 662.73 311.15 C 662.73 311.33 662.74 311.68 662.74 311.85 C 657.60 313.78 652.30 315.82 648.65 320.14 C 648.38 319.97 647.85 319.64 647.58 319.47 C 650.93 316.51 654.28 313.42 658.33 311.41 Z" />
<path fill="#090909" d=" M 613.14 315.12 C 616.83 313.83 623.09 313.88 623.98 318.74 C 624.28 324.83 622.75 331.15 619.17 336.15 C 616.93 338.92 612.92 337.70 609.92 337.38 C 608.18 338.24 606.44 339.12 604.71 340.01 C 606.63 341.36 608.60 342.64 610.56 343.95 C 610.49 344.46 610.35 345.50 610.28 346.01 C 618.24 350.45 622.54 359.61 630.97 363.52 C 636.06 364.46 641.29 364.34 646.42 363.78 C 648.76 363.56 651.10 363.25 653.43 362.87 C 655.99 362.98 660.36 360.54 661.06 364.39 C 651.10 365.44 641.08 367.16 631.05 366.13 C 622.39 362.61 617.43 354.15 610.57 348.28 C 608.21 348.14 607.01 351.07 605.80 352.73 C 602.29 360.84 598.46 369.09 597.73 378.01 C 597.09 382.63 597.42 387.30 597.48 391.94 C 601.94 391.35 606.43 390.94 610.89 390.23 C 610.85 391.31 610.29 392.15 609.38 392.70 C 611.23 392.89 613.36 391.91 615.02 393.03 C 616.77 395.70 616.21 398.97 616.32 401.98 C 616.58 409.43 614.77 416.74 614.36 424.16 C 616.73 424.37 619.12 424.55 621.50 424.69 C 621.54 425.23 621.61 426.30 621.64 426.84 C 618.57 426.66 615.12 427.29 612.42 425.48 C 611.79 415.37 616.21 404.95 613.24 394.95 C 609.46 394.58 605.64 394.59 601.87 394.95 C 603.39 395.19 604.92 395.29 606.47 395.36 C 606.78 396.05 607.40 397.41 607.71 398.09 C 606.67 407.05 606.84 416.08 606.25 425.07 C 605.14 425.52 604.03 425.97 602.93 426.42 C 602.34 426.12 601.15 425.52 600.56 425.22 C 600.49 421.68 600.71 418.15 600.84 414.62 C 595.32 414.83 589.79 414.81 584.27 414.76 C 584.11 418.76 584.71 422.88 583.35 426.74 C 581.67 426.49 579.09 426.93 578.41 424.93 C 577.54 420.27 579.11 415.63 579.36 410.98 C 579.54 406.23 579.41 401.41 578.11 396.81 C 576.75 393.74 576.63 390.32 576.57 387.02 C 576.90 370.24 576.01 353.45 576.59 336.68 C 576.60 333.58 581.11 333.81 581.58 336.53 C 583.49 347.79 580.53 359.32 582.69 370.58 L 583.80 370.04 C 582.23 377.51 582.35 385.15 582.75 392.72 C 586.91 392.64 591.05 393.09 595.20 393.43 C 595.66 393.19 596.57 392.72 597.02 392.48 C 594.44 391.26 595.22 388.28 595.14 386.04 C 595.59 377.07 596.99 367.97 600.76 359.75 C 602.37 354.52 604.30 349.09 608.95 345.76 C 604.88 343.26 601.03 340.44 597.06 337.79 C 594.42 340.42 592.45 343.57 590.76 346.86 C 588.22 353.59 586.09 360.47 584.02 367.35 L 582.98 368.79 C 584.24 362.21 586.78 355.95 588.77 349.56 C 590.13 345.14 592.40 341.09 594.84 337.18 C 594.31 335.89 593.76 334.61 593.17 333.35 C 595.20 334.04 597.21 334.81 599.25 335.50 C 599.33 335.90 599.48 336.71 599.55 337.12 C 602.33 338.54 605.15 337.42 607.75 336.18 C 607.04 335.17 606.33 334.17 605.62 333.17 C 606.17 326.79 606.83 318.56 613.14 315.12 Z" />
<path fill="#f5f3ef" d=" M 612.23 318.26 C 614.49 315.33 618.46 317.03 621.45 317.66 C 622.12 323.96 621.17 331.12 616.30 335.64 C 613.34 335.40 609.22 335.55 607.76 332.39 C 607.55 327.45 608.82 321.97 612.23 318.26 Z" />
<path fill="#f5b233" d=" M 642.49 331.11 C 642.95 327.62 643.99 324.24 646.04 321.34 C 646.17 321.55 646.42 321.97 646.55 322.18 C 645.52 325.35 644.82 328.62 644.82 331.96 C 644.24 331.75 643.07 331.32 642.49 331.11 Z" />
<path fill="#f5f3ef" d=" M 644.82 331.96 C 644.82 328.62 645.52 325.35 646.55 322.18 C 652.20 324.67 658.47 324.25 664.50 324.24 C 664.38 325.91 664.38 327.59 664.39 329.27 C 658.93 329.18 653.51 330.49 648.83 333.33 C 647.48 332.89 646.14 332.44 644.82 331.96 Z" />
<path fill="#f5b233" d=" M 648.83 333.33 C 653.51 330.49 658.93 329.18 664.39 329.27 C 664.39 329.79 664.39 330.83 664.39 331.35 C 660.01 331.80 655.64 332.57 651.53 334.23 C 650.62 333.92 649.72 333.62 648.83 333.33 Z" />
<path fill="#090909" d=" M 623.85 336.83 C 628.76 335.28 633.46 333.16 638.09 330.91 C 639.48 329.94 641.08 330.55 642.49 331.11 C 643.07 331.32 644.24 331.75 644.82 331.96 C 646.14 332.44 647.48 332.89 648.83 333.33 C 649.72 333.62 650.62 333.92 651.53 334.23 C 655.66 335.68 659.72 337.41 663.27 340.00 C 662.50 340.14 660.94 340.44 660.16 340.58 C 659.51 340.17 658.86 339.77 658.21 339.37 C 657.78 339.24 656.90 338.99 656.46 338.86 C 652.39 337.18 648.28 335.59 644.14 334.11 C 642.77 333.61 641.40 333.13 640.04 332.65 C 632.61 336.25 624.62 338.49 617.11 341.88 C 614.97 342.63 611.51 343.87 610.44 341.02 C 615.21 340.68 619.35 338.18 623.85 336.83 Z" />
<path fill="#f5f3ef" d=" M 651.53 334.23 C 655.64 332.57 660.01 331.80 664.39 331.35 C 664.37 334.48 664.36 337.62 664.43 340.76 C 664.14 340.57 663.56 340.19 663.27 340.00 C 659.72 337.41 655.66 335.68 651.53 334.23 Z" />
<path fill="#f5b233" d=" M 644.14 334.11 C 648.28 335.59 652.39 337.18 656.46 338.86 C 656.42 339.40 656.34 340.49 656.30 341.04 C 655.89 340.99 655.09 340.91 654.69 340.86 C 654.31 340.27 653.57 339.09 653.19 338.50 C 651.51 338.04 649.84 337.48 648.11 337.29 C 642.98 340.25 643.17 347.05 645.62 351.74 C 646.23 351.13 647.44 349.91 648.05 349.30 C 648.55 351.03 649.12 352.74 649.78 354.43 C 648.94 354.47 647.27 354.56 646.43 354.61 C 646.37 356.29 646.17 357.99 646.43 359.67 C 647.72 362.23 651.03 362.15 653.43 362.87 C 651.10 363.25 648.76 363.56 646.42 363.78 C 643.58 360.83 643.53 356.89 644.61 353.15 C 642.70 350.84 641.35 348.00 641.51 344.94 C 641.33 341.32 643.86 338.49 645.94 335.84 C 645.49 335.41 644.59 334.54 644.14 334.11 Z" />
<path fill="#b6b6b1" d=" M 578.21 346.03 C 578.18 342.89 577.94 339.59 579.28 336.65 C 580.17 340.35 579.96 344.17 580.00 347.95 C 579.97 361.31 580.19 374.69 579.86 388.05 C 579.83 390.49 580.20 392.91 580.29 395.35 C 578.37 389.80 578.58 383.81 578.59 378.02 C 578.98 367.35 578.50 356.69 578.21 346.03 Z" />
<path fill="#f5f3ef" d=" M 648.11 337.29 C 649.84 337.48 651.51 338.04 653.19 338.50 C 653.57 339.09 654.31 340.27 654.69 340.86 C 651.10 342.26 647.38 344.91 648.05 349.30 C 647.44 349.91 646.23 351.13 645.62 351.74 C 643.17 347.05 642.98 340.25 648.11 337.29 Z" />
<path fill="#b6b6b1" d=" M 656.46 338.86 C 656.90 338.99 657.78 339.24 658.21 339.37 C 658.38 340.77 657.74 341.33 656.30 341.04 C 656.34 340.49 656.42 339.40 656.46 338.86 Z" />
<path fill="#666563" d=" M 658.21 339.37 C 658.86 339.77 659.51 340.17 660.16 340.58 C 660.94 340.44 662.50 340.14 663.27 340.00 C 663.56 340.19 664.14 340.57 664.43 340.76 C 664.44 340.93 664.44 341.27 664.44 341.44 C 662.13 341.98 659.80 342.35 657.49 342.83 C 654.93 343.41 651.95 344.12 650.58 346.60 C 650.38 348.04 650.48 349.50 650.57 350.95 L 650.68 352.41 C 651.39 353.11 652.14 353.79 652.92 354.43 C 655.72 357.35 660.02 357.25 663.73 357.77 L 663.68 359.81 C 658.55 360.12 652.67 359.18 649.78 354.43 C 649.12 352.74 648.55 351.03 648.05 349.30 C 647.38 344.91 651.10 342.26 654.69 340.86 C 655.09 340.91 655.89 340.99 656.30 341.04 C 657.74 341.33 658.38 340.77 658.21 339.37 Z" />
<path fill="#f5f3ef" d=" M 657.49 342.83 C 659.80 342.35 662.13 341.98 664.44 341.44 C 664.44 345.10 664.50 348.75 664.55 352.41 C 659.92 352.37 655.30 352.48 650.68 352.41 L 650.57 350.95 C 651.99 347.58 655.15 345.50 657.49 342.83 Z" />
<path fill="#f5b233" d=" M 650.58 346.60 C 651.95 344.12 654.93 343.41 657.49 342.83 C 655.15 345.50 651.99 347.58 650.57 350.95 C 650.48 349.50 650.38 348.04 650.58 346.60 Z" />
<path fill="#f5b233" d=" M 650.68 352.41 C 655.30 352.48 659.92 352.37 664.55 352.41 C 664.53 353.01 664.43 353.59 664.27 354.17 C 660.54 354.90 656.68 354.75 652.92 354.43 C 652.14 353.79 651.39 353.11 650.68 352.41 Z" />
<path fill="#0f37fe" d=" M 919.96 372.05 C 917.76 363.28 924.12 353.62 933.02 352.15 C 942.57 349.91 952.84 358.08 952.72 367.90 C 953.25 374.99 948.38 381.38 942.09 384.18 C 948.61 383.82 954.39 388.14 956.99 393.93 C 958.69 398.18 960.90 402.32 961.66 406.89 C 962.87 413.88 965.10 420.88 964.07 428.05 C 963.95 429.60 962.43 430.46 961.00 430.30 C 948.00 430.33 935.03 429.47 922.03 429.40 C 916.92 429.33 911.72 429.87 906.74 428.41 C 906.51 427.85 906.03 426.73 905.80 426.16 C 908.17 418.86 908.76 410.99 912.47 404.14 C 914.45 398.43 917.99 393.45 922.22 389.18 C 924.59 387.09 927.54 385.83 930.18 384.11 C 925.20 381.82 921.10 377.50 919.96 372.05 Z" />
<path fill="#090909" d=" M 303.00 359.83 C 304.80 359.24 306.81 358.03 308.67 359.13 C 311.40 360.08 312.57 363.39 311.50 365.99 C 309.18 371.77 303.57 375.10 299.80 379.82 C 292.44 388.72 284.81 397.42 276.52 405.46 C 266.04 415.40 257.73 427.30 247.84 437.77 C 241.05 444.60 237.18 453.65 230.97 460.94 C 227.91 464.01 224.33 466.58 221.87 470.23 C 239.86 470.17 258.17 467.56 275.88 472.00 C 277.33 468.47 278.69 464.89 280.50 461.52 C 287.12 450.47 292.51 438.67 300.07 428.19 C 306.80 418.55 311.24 407.55 317.98 397.91 C 323.26 390.00 326.04 380.82 330.61 372.52 C 332.64 369.45 332.27 364.59 336.08 362.98 C 339.63 361.24 344.27 365.05 343.18 368.87 C 342.02 373.61 339.43 377.80 337.23 382.09 C 334.57 386.93 332.75 392.18 330.00 396.97 C 327.12 402.37 323.28 407.19 320.36 412.57 C 316.03 420.63 311.60 428.67 306.25 436.10 C 300.58 444.41 296.05 453.41 291.21 462.21 C 288.56 466.31 286.62 470.81 284.88 475.36 C 294.68 478.80 304.75 481.49 315.04 483.00 C 328.63 486.88 342.85 487.41 356.85 488.83 C 369.26 490.84 381.78 492.24 394.19 494.26 C 400.21 495.97 406.28 497.46 412.48 498.38 C 409.41 490.61 406.03 482.96 402.81 475.25 C 399.17 464.35 394.54 453.82 390.70 442.99 C 387.69 434.21 382.28 426.58 377.55 418.68 C 371.98 410.63 368.76 401.32 364.36 392.64 C 361.67 387.20 359.72 381.40 356.55 376.21 C 355.52 374.67 355.23 372.65 356.28 371.04 C 357.80 367.55 363.45 367.23 365.34 370.55 C 369.06 376.31 370.82 383.04 373.82 389.17 C 377.60 396.78 380.16 405.01 384.87 412.15 C 388.13 417.23 391.02 422.55 394.19 427.69 C 397.95 434.06 400.03 441.22 402.69 448.08 C 404.71 453.78 407.32 459.25 409.27 464.98 C 413.11 476.74 419.05 487.68 422.90 499.44 C 428.25 500.29 433.51 501.71 438.93 502.12 C 446.71 502.81 454.14 505.70 461.97 505.98 C 473.13 506.48 484.06 508.98 495.00 510.93 C 497.93 512.43 498.64 516.92 496.14 519.13 C 494.00 521.40 490.60 520.41 487.90 520.08 C 479.46 517.96 470.84 516.47 462.16 515.75 C 456.03 515.54 450.03 514.15 444.05 512.87 C 438.68 511.80 433.19 511.58 427.84 510.46 C 431.85 523.94 437.62 536.78 442.06 550.11 C 448.92 547.18 456.01 544.84 462.84 541.84 C 469.49 538.88 476.73 537.44 483.19 534.01 C 486.46 532.17 489.20 529.53 492.41 527.60 C 495.83 525.85 500.31 529.24 499.51 533.01 C 498.87 536.34 495.52 538.00 492.95 539.73 C 487.02 544.19 479.84 546.43 472.85 548.64 C 466.81 550.63 461.10 553.50 455.06 555.47 C 451.62 556.57 448.33 558.04 445.04 559.50 C 446.35 566.70 450.28 572.95 453.84 579.20 C 456.46 583.60 455.39 589.24 458.42 593.47 C 460.62 596.59 461.16 600.41 462.31 603.97 C 463.66 607.57 459.25 611.55 455.82 609.94 C 452.75 609.13 452.25 605.62 451.37 603.06 C 450.71 599.79 448.55 597.17 447.48 594.06 C 446.05 590.40 446.33 586.22 444.32 582.77 C 441.21 577.04 438.26 571.19 436.30 564.96 C 431.91 566.97 427.72 569.34 423.50 571.68 C 414.49 576.71 404.78 580.32 395.14 583.91 C 388.02 586.46 380.54 588.20 373.82 591.76 C 382.65 598.00 392.20 603.06 401.59 608.38 C 408.71 613.49 414.86 619.86 422.06 624.87 C 427.68 629.17 434.41 632.74 437.76 639.27 C 440.32 643.23 443.83 646.64 445.65 651.06 C 446.87 654.88 442.62 658.69 438.95 657.19 C 435.85 655.54 434.83 651.83 432.57 649.35 C 429.81 646.30 428.29 642.29 425.08 639.65 C 419.55 634.46 412.85 630.76 407.31 625.59 C 402.56 621.83 398.33 617.32 392.90 614.53 C 383.18 609.18 373.69 603.40 364.78 596.80 C 351.46 602.20 338.63 608.86 324.84 613.02 C 315.20 616.16 306.05 620.58 296.96 625.02 C 285.77 630.04 275.26 636.66 263.42 640.12 C 254.57 642.66 245.88 645.70 237.01 648.14 C 230.57 650.01 224.24 654.00 217.30 652.57 C 213.59 651.76 212.31 646.57 214.95 643.96 C 217.30 641.33 221.20 643.17 224.11 641.78 C 243.03 634.90 263.46 632.04 281.24 622.18 C 296.18 615.16 310.92 607.45 326.80 602.70 C 336.86 599.12 346.50 594.48 356.31 590.30 C 349.00 585.01 341.38 580.17 334.10 574.85 C 327.08 568.42 319.49 562.62 311.47 557.49 C 294.53 545.60 280.28 530.26 263.09 518.70 C 258.20 526.10 255.83 534.79 251.36 542.43 C 247.03 549.90 242.96 557.59 240.62 565.95 C 237.22 573.96 236.94 582.83 233.99 590.98 C 232.71 594.54 231.44 598.11 229.67 601.47 C 222.92 613.82 219.63 627.95 211.29 639.45 C 207.94 643.40 200.48 638.81 203.06 634.07 C 210.47 622.93 213.93 609.85 220.26 598.16 C 224.18 590.79 226.17 582.61 227.82 574.49 C 228.76 569.42 230.98 564.74 232.44 559.83 C 234.91 551.79 239.10 544.45 243.25 537.18 C 246.94 530.67 249.07 523.41 252.93 517.00 C 253.75 515.41 254.85 513.85 254.92 512.01 C 251.09 508.52 246.83 505.53 242.85 502.22 C 237.36 498.09 231.17 495.05 225.15 491.80 C 221.93 489.98 218.06 489.19 215.35 486.57 C 213.46 484.71 214.42 481.89 214.81 479.64 C 211.94 478.85 208.00 477.74 208.12 474.02 C 208.48 469.46 212.44 466.30 214.84 462.68 C 217.44 458.63 221.93 456.48 224.89 452.78 C 229.05 447.25 232.39 441.16 236.58 435.66 C 239.75 432.16 242.98 428.72 246.32 425.40 C 253.22 417.28 259.87 408.94 267.21 401.22 C 275.77 392.76 283.88 383.84 291.21 374.30 C 294.89 369.24 300.55 365.74 303.00 359.83 Z" />
<path fill="#090909" d=" M 382.92 371.95 C 380.11 368.80 382.78 363.10 387.01 363.24 C 390.55 362.87 392.15 366.58 394.32 368.66 C 399.09 373.60 402.80 379.43 407.48 384.45 C 411.44 388.89 414.47 394.13 419.02 398.05 C 425.52 403.63 430.25 410.82 435.56 417.46 C 439.78 421.91 444.93 425.34 449.56 429.35 C 455.45 433.91 459.37 440.38 463.73 446.30 C 466.71 451.55 471.84 454.98 475.47 459.70 C 481.20 466.91 486.22 474.68 492.40 481.52 C 497.44 487.57 500.82 495.00 506.96 500.08 C 509.20 502.27 512.45 504.54 511.72 508.15 C 511.09 509.29 510.39 510.39 509.68 511.49 C 505.54 513.98 502.39 509.84 499.72 507.31 C 493.00 501.78 489.54 493.58 484.11 486.96 C 478.62 480.39 473.71 473.38 468.50 466.60 C 465.23 462.23 460.70 459.01 457.56 454.54 C 454.24 449.57 450.71 444.74 446.95 440.10 C 441.37 434.68 434.76 430.41 429.17 425.00 C 423.58 418.52 419.09 411.02 412.51 405.44 C 408.89 402.35 406.00 398.55 403.14 394.78 C 400.31 390.99 396.72 387.85 393.97 383.99 C 390.76 379.56 386.84 375.74 382.92 371.95 Z" />
<path fill="#f5f3ef" d=" M 643.07 373.35 C 651.38 372.97 659.71 373.41 668.03 373.33 C 671.24 373.44 674.54 373.32 677.67 374.18 C 678.68 374.66 679.69 375.16 680.69 375.68 C 678.38 376.04 676.09 376.41 673.77 376.61 C 662.52 376.98 651.25 376.24 640.02 377.24 C 632.27 376.93 624.56 378.06 616.83 377.75 C 615.24 377.91 614.24 376.80 613.55 375.54 C 623.42 375.23 633.27 374.52 643.07 373.35 Z" />
<path fill="#b6b6b1" d=" M 677.67 374.18 C 681.01 374.21 684.36 374.27 687.71 374.29 C 687.41 374.67 686.82 375.45 686.52 375.84 C 682.33 376.54 678.01 376.48 673.77 376.61 C 676.09 376.41 678.38 376.04 680.69 375.68 C 679.69 375.16 678.68 374.66 677.67 374.18 Z" />
<path fill="#f5f3ef" d=" M 673.70 379.40 C 674.16 379.22 675.08 378.84 675.54 378.65 C 676.79 387.02 677.20 395.48 677.62 403.94 C 677.79 410.38 679.49 416.83 678.24 423.27 C 677.37 423.80 676.45 424.24 675.55 424.70 C 675.32 421.49 675.52 418.27 675.22 415.08 C 673.65 403.24 675.01 391.24 673.70 379.40 Z" />
<path fill="#090909" d=" M 627.44 379.65 C 630.01 378.38 629.52 381.62 629.99 382.94 C 630.28 389.29 629.81 395.65 630.26 402.01 C 629.70 410.04 631.73 418.12 630.32 426.09 C 629.14 426.56 627.97 427.03 626.80 427.50 C 625.70 426.54 623.98 425.79 624.24 424.04 C 624.03 416.36 624.61 408.69 624.47 401.01 C 624.76 394.48 625.09 387.92 624.11 381.43 C 624.33 381.30 624.77 381.02 624.99 380.89 C 626.72 381.47 626.01 383.68 626.16 385.06 C 625.58 390.01 625.47 395.02 626.17 399.97 C 626.22 408.19 626.51 416.41 626.56 424.64 C 627.01 424.61 627.93 424.56 628.39 424.53 C 629.44 418.05 628.54 411.52 627.92 405.05 C 627.67 396.59 627.92 388.11 627.44 379.65 Z" />
<path fill="#090909" d=" M 613.02 391.80 C 612.36 391.15 611.70 390.51 611.06 389.88 C 613.71 389.68 616.39 389.25 619.06 389.41 C 621.10 389.94 621.92 391.98 622.08 393.89 C 622.56 401.78 620.56 409.54 620.18 417.40 C 620.81 417.78 622.07 418.53 622.70 418.91 C 622.64 419.39 622.51 420.36 622.45 420.84 C 620.56 420.60 618.45 420.17 617.63 418.21 C 618.35 413.13 618.82 408.01 619.89 402.99 C 620.68 399.33 620.44 395.41 619.17 391.88 C 617.12 391.61 615.06 391.72 613.02 391.80 Z" />
<path fill="#f5f3ef" d=" M 583.42 397.31 C 583.73 396.91 584.36 396.12 584.67 395.72 C 591.53 395.33 598.31 396.42 605.02 397.71 C 605.20 397.88 605.57 398.22 605.75 398.39 C 600.84 398.97 595.89 398.77 590.97 399.13 C 587.22 399.19 583.31 399.12 579.80 397.70 C 580.70 397.60 582.51 397.41 583.42 397.31 Z" />
<path fill="#f5f3ef" d=" M 581.34 401.04 L 582.33 401.07 C 581.97 408.41 582.99 415.80 582.03 423.10 C 581.66 423.42 580.90 424.05 580.52 424.37 C 580.19 419.57 581.29 414.81 580.85 410.03 C 580.61 407.01 581.06 404.02 581.34 401.04 Z" />
<path fill="#f5f3ef" d=" M 584.72 401.31 C 590.79 401.33 596.86 401.39 602.93 401.38 C 602.64 403.70 602.24 406.00 601.72 408.28 C 595.93 408.32 590.17 409.09 584.38 408.81 C 584.50 406.31 584.61 403.81 584.72 401.31 Z" />
<path fill="#090909" d=" M 697.25 403.15 C 698.15 400.31 701.72 400.84 703.33 402.75 C 708.68 406.24 710.50 412.73 714.85 417.15 C 715.87 418.35 717.49 419.85 716.62 421.60 C 714.82 423.43 712.39 424.49 710.27 425.89 C 713.70 435.00 717.50 443.97 720.87 453.11 C 723.30 458.71 726.19 464.10 728.25 469.86 C 732.24 480.98 738.13 491.28 742.79 502.11 C 745.98 509.71 749.46 517.21 751.90 525.10 C 753.55 530.56 755.76 535.82 757.83 541.14 C 760.75 547.66 765.74 553.55 766.12 560.96 C 773.87 557.89 781.58 554.20 790.00 553.50 C 799.31 553.04 808.64 553.37 817.97 553.40 C 823.24 553.76 828.88 553.79 833.55 556.62 C 838.90 558.98 844.88 559.41 850.29 561.62 C 858.47 565.05 867.46 566.84 874.77 572.11 C 879.62 575.27 884.32 578.64 889.12 581.90 C 898.92 589.02 905.67 599.21 913.20 608.50 C 920.82 618.83 926.28 630.71 930.07 642.96 C 931.79 650.38 933.95 657.73 935.14 665.27 C 934.89 666.30 934.65 667.35 934.42 668.40 C 934.54 662.36 932.34 656.64 931.19 650.80 C 930.84 649.26 930.51 647.73 930.22 646.20 L 929.94 646.40 C 928.71 640.40 926.65 634.60 924.07 629.07 C 920.59 622.01 917.30 614.76 912.27 608.63 C 908.33 604.24 905.15 599.21 901.01 595.00 C 894.95 588.97 888.94 582.75 881.50 578.41 C 874.85 574.78 868.90 569.85 861.69 567.28 C 853.19 564.04 844.47 560.83 835.32 560.22 C 832.20 559.97 828.97 560.66 826.03 559.31 C 827.48 558.39 828.96 557.51 830.47 556.66 C 823.56 554.23 816.20 554.20 808.97 554.10 C 797.07 553.59 784.74 553.71 773.68 558.71 C 762.70 563.82 751.91 569.38 741.63 575.79 C 731.31 582.85 721.84 591.03 712.68 599.50 C 703.37 608.40 696.16 619.12 688.79 629.60 C 680.74 641.58 676.69 655.78 674.71 669.95 C 674.19 676.00 672.54 681.93 672.48 688.03 C 672.21 696.01 672.08 703.99 672.19 711.97 C 672.42 721.87 677.09 730.86 681.81 739.32 C 688.15 750.28 694.76 761.25 703.55 770.47 C 706.99 774.00 710.97 776.92 714.65 780.20 C 717.10 782.06 719.36 784.15 721.67 786.19 C 728.71 792.23 735.89 798.14 743.67 803.22 C 755.68 810.57 768.56 816.78 782.37 819.83 C 797.50 824.15 813.30 825.38 828.97 825.24 C 835.72 825.10 842.10 822.77 848.59 821.20 C 863.88 816.55 878.39 808.95 890.54 798.52 C 896.01 792.63 902.63 787.93 907.84 781.78 C 912.76 775.29 916.83 768.23 921.28 761.43 C 923.75 756.68 926.25 751.90 927.77 746.76 C 928.01 745.80 928.24 744.84 928.45 743.89 C 928.72 742.53 928.98 741.17 929.24 739.82 C 929.28 740.17 929.35 740.85 929.39 741.20 C 929.52 742.76 929.58 744.36 929.59 745.96 C 927.55 748.83 926.74 752.31 925.23 755.44 C 921.75 762.92 916.90 769.64 912.49 776.58 C 908.88 782.45 904.02 787.44 898.65 791.72 C 897.10 793.15 895.59 794.63 894.15 796.17 C 879.36 810.42 860.11 819.57 840.23 824.22 C 834.36 826.13 828.10 825.92 822.02 825.87 C 815.75 825.41 809.41 826.00 803.21 824.81 C 791.13 823.05 779.11 820.45 767.65 816.20 C 751.27 809.98 736.40 800.26 723.37 788.61 C 716.83 782.80 709.85 777.50 703.47 771.52 C 694.46 762.20 687.62 751.08 681.26 739.86 C 675.75 730.50 670.87 720.07 671.32 708.95 C 671.46 701.62 671.21 694.28 671.64 686.96 C 674.02 667.26 676.38 646.48 687.86 629.65 C 693.44 621.73 698.69 613.51 705.26 606.35 C 712.60 597.69 721.45 590.44 730.22 583.27 C 740.33 575.00 751.72 568.41 763.51 562.87 C 763.33 559.90 763.19 556.84 761.89 554.11 C 759.12 548.26 757.26 542.04 754.84 536.05 C 754.26 534.66 753.68 533.28 753.12 531.89 C 752.14 529.33 751.25 526.73 750.12 524.24 C 747.03 517.66 745.45 510.49 742.43 503.88 C 739.32 497.88 735.66 492.16 732.99 485.93 C 730.97 481.43 729.82 476.59 727.76 472.11 C 725.04 465.64 721.14 459.74 718.79 453.12 C 715.56 444.32 711.42 435.90 707.68 427.32 C 704.57 428.90 701.27 430.40 697.71 429.45 C 697.49 420.69 698.33 411.88 697.25 403.15 Z" />
<path fill="#f5f3ef" d=" M 604.92 403.43 C 605.82 410.39 604.43 417.38 603.54 424.26 C 600.61 417.61 603.29 410.11 604.92 403.43 Z" />
<path fill="#f5f3ef" d=" M 584.92 411.16 C 590.37 410.59 595.89 410.41 601.37 410.56 L 601.46 412.55 C 595.49 412.77 589.51 413.09 583.56 412.59 C 583.90 412.23 584.58 411.51 584.92 411.16 Z" />
<path fill="#40a2e7" d=" M 164.19 443.08 C 165.83 435.30 174.14 429.85 181.94 431.47 C 189.51 432.77 195.34 440.33 194.50 448.01 C 194.20 452.54 191.44 456.37 188.14 459.28 C 195.06 463.45 198.76 470.95 201.77 478.14 C 203.92 483.31 204.10 489.27 202.37 494.58 C 200.61 499.05 195.33 500.57 190.97 500.74 C 184.62 500.61 178.27 500.26 171.94 499.70 C 166.92 499.28 161.75 500.48 156.83 499.11 C 151.09 497.20 148.67 490.63 148.83 485.05 C 149.49 478.99 150.72 472.55 154.87 467.83 C 158.61 463.74 163.01 460.23 168.00 457.79 C 165.06 453.56 162.60 448.31 164.19 443.08 Z" />
<path fill="#f5b233" d=" M 518.32 487.93 C 515.71 478.85 523.51 468.70 532.99 469.08 C 541.56 468.47 549.23 476.42 548.63 484.92 C 548.67 489.65 545.76 493.55 542.68 496.83 C 548.92 497.27 554.13 501.84 556.71 507.33 C 559.91 514.05 561.19 521.57 561.35 528.97 C 561.53 534.01 557.21 538.95 552.05 538.87 C 542.01 538.99 532.05 536.42 521.99 537.56 C 516.58 537.77 510.49 539.25 505.50 536.62 C 504.88 533.13 504.94 529.56 504.78 526.03 C 504.46 520.73 507.03 515.88 509.68 511.49 C 510.39 510.39 511.09 509.29 511.72 508.15 C 516.38 503.91 522.44 501.79 527.78 498.89 C 523.41 496.55 519.37 493.01 518.32 487.93 Z" />
<path fill="#f5f3ef" d=" M 225.86 480.57 C 240.92 479.79 256.27 477.69 271.18 480.99 C 267.53 488.50 262.72 495.38 259.23 502.98 C 253.81 498.67 248.76 493.86 242.85 490.19 C 237.29 486.81 231.65 483.54 225.86 480.57 Z" />
<path fill="#f5f3ef" d=" M 266.99 509.43 C 270.43 500.49 275.98 492.60 280.56 484.25 C 291.18 487.86 302.00 490.94 313.12 492.61 C 330.28 497.61 348.39 496.88 365.86 500.13 C 374.76 501.08 383.61 502.49 392.46 503.83 C 400.24 506.19 408.21 507.95 416.33 508.58 C 419.92 515.18 421.62 522.53 424.20 529.53 C 427.66 538.05 430.54 546.78 433.69 555.41 C 429.80 557.66 425.72 559.56 421.86 561.85 C 408.13 569.96 392.89 574.93 377.86 579.97 C 373.68 581.19 369.87 583.29 366.11 585.43 C 358.24 579.78 350.10 574.52 342.13 569.01 C 337.97 566.13 334.58 562.30 330.40 559.44 C 321.31 552.17 310.94 546.61 302.38 538.65 C 290.77 528.68 279.31 518.53 266.99 509.43 Z" />
<path fill="#090909" d=" M 175.40 504.54 C 178.02 503.56 181.26 504.76 182.30 507.43 C 184.38 512.75 183.16 518.57 183.84 524.11 C 184.73 532.38 184.38 540.71 184.67 549.01 C 185.70 557.62 186.15 566.28 186.53 574.93 C 187.94 584.11 188.38 593.43 188.15 602.72 C 187.57 607.58 179.92 608.32 178.42 603.72 C 177.12 596.86 178.43 589.79 177.51 582.87 C 175.97 574.34 176.39 565.65 175.39 557.06 C 174.07 547.75 175.10 538.32 174.06 528.98 C 173.32 522.68 173.81 516.27 172.37 510.06 C 171.78 507.76 173.26 505.36 175.40 504.54 Z" />
<path fill="#090909" d=" M 526.10 545.03 C 529.44 544.43 532.45 547.55 531.76 550.88 C 527.14 561.21 523.36 571.90 518.46 582.11 C 515.97 588.02 514.12 594.17 512.33 600.33 C 509.84 606.28 507.79 612.41 505.65 618.50 C 504.08 623.02 504.30 628.30 501.15 632.16 C 498.16 635.72 491.62 632.50 492.54 628.00 C 493.13 625.95 493.96 623.97 494.41 621.88 C 496.50 611.08 501.88 601.32 504.90 590.81 C 508.88 577.43 515.64 565.13 519.84 551.83 C 520.91 548.95 522.42 544.94 526.10 545.03 Z" />
<path fill="#f5f3ef" d=" M 773.68 558.71 C 784.74 553.71 797.07 553.59 808.97 554.10 C 816.20 554.20 823.56 554.23 830.47 556.66 C 828.96 557.51 827.48 558.39 826.03 559.31 C 828.97 560.66 832.20 559.97 835.32 560.22 C 844.47 560.83 853.19 564.04 861.69 567.28 C 868.90 569.85 874.85 574.78 881.50 578.41 C 888.94 582.75 894.95 588.97 901.01 595.00 C 905.15 599.21 908.33 604.24 912.27 608.63 C 917.30 614.76 920.59 622.01 924.07 629.07 C 926.65 634.60 928.71 640.40 929.94 646.40 C 922.99 652.45 914.37 656.87 905.02 657.24 C 889.71 657.79 873.30 657.34 859.76 649.29 C 852.83 645.71 844.59 645.04 837.09 647.06 C 838.03 638.73 838.72 630.37 839.69 622.04 C 840.08 619.10 839.80 616.11 838.65 613.37 C 831.40 613.28 824.14 614.21 816.91 613.30 C 814.83 613.25 812.61 612.59 810.63 613.45 C 809.88 618.61 810.74 623.84 810.27 629.03 C 809.76 634.59 809.96 640.18 809.87 645.76 C 803.84 645.67 797.81 645.59 791.79 645.76 C 791.35 646.79 790.93 647.82 790.51 648.87 C 785.58 650.80 780.59 654.30 775.06 653.02 C 771.54 651.32 768.54 648.01 768.10 644.01 C 767.45 641.12 767.29 637.15 763.95 636.01 C 760.52 635.10 756.45 635.32 753.61 637.64 C 747.32 643.72 742.97 651.81 741.95 660.55 C 741.26 667.79 740.30 675.64 743.84 682.33 C 747.44 689.05 752.95 694.51 758.98 699.07 C 762.38 701.81 766.57 703.80 771.03 703.64 C 774.33 704.05 777.07 701.15 777.67 698.11 C 778.71 693.53 777.62 688.87 777.27 684.29 C 780.38 684.27 783.50 684.38 786.62 684.63 C 786.87 686.21 787.14 687.82 787.42 689.42 C 792.96 689.60 798.51 689.39 804.06 689.41 C 802.00 699.35 801.63 709.51 801.04 719.61 C 800.74 725.04 800.48 730.48 800.81 735.91 C 791.32 735.78 781.84 735.43 772.36 735.10 C 762.95 734.02 753.48 734.38 744.04 733.84 C 736.86 733.88 729.66 733.88 722.63 732.23 C 721.80 734.13 720.66 736.02 720.68 738.17 C 721.64 740.71 724.76 740.33 726.96 740.36 C 736.33 739.87 745.69 740.73 755.05 741.13 C 759.69 741.24 764.37 741.09 768.99 741.77 C 776.38 742.92 783.91 741.93 791.33 742.86 C 799.85 743.98 808.46 743.20 817.01 743.81 C 821.11 744.12 825.26 745.24 829.36 744.43 C 831.16 741.65 832.26 738.34 832.15 735.00 C 832.12 729.33 832.72 723.69 833.23 718.06 C 833.82 707.78 833.58 697.47 833.82 687.18 C 840.51 682.72 849.05 682.45 856.63 684.51 C 862.75 686.10 869.28 686.87 874.81 690.13 C 883.58 696.18 893.52 701.28 899.54 710.45 C 904.45 717.22 902.77 726.52 907.67 733.31 C 910.71 737.25 914.32 741.00 918.92 743.10 C 921.82 744.43 924.80 745.55 927.77 746.76 C 926.25 751.90 923.75 756.68 921.28 761.43 C 916.83 768.23 912.76 775.29 907.84 781.78 C 902.63 787.93 896.01 792.63 890.54 798.52 C 878.39 808.95 863.88 816.55 848.59 821.20 C 842.10 822.77 835.72 825.10 828.97 825.24 C 813.30 825.38 797.50 824.15 782.37 819.83 C 768.56 816.78 755.68 810.57 743.67 803.22 C 735.89 798.14 728.71 792.23 721.67 786.19 C 719.36 784.15 717.10 782.06 714.65 780.20 C 710.97 776.92 706.99 774.00 703.55 770.47 C 694.76 761.25 688.15 750.28 681.81 739.32 C 677.09 730.86 672.42 721.87 672.19 711.97 C 672.08 703.99 672.21 696.01 672.48 688.03 C 672.54 681.93 674.19 676.00 674.71 669.95 C 676.69 655.78 680.74 641.58 688.79 629.60 C 696.16 619.12 703.37 608.40 712.68 599.50 C 721.84 591.03 731.31 582.85 741.63 575.79 C 751.91 569.38 762.70 563.82 773.68 558.71 Z" />
<path fill="#24bc33" d=" M 173.50 627.00 C 172.81 619.96 178.94 613.32 185.96 613.29 C 192.66 612.82 198.89 618.49 199.41 625.11 C 199.94 630.39 196.78 635.54 192.13 637.94 C 197.45 639.37 200.70 644.01 204.87 647.22 C 208.55 650.20 210.90 654.55 212.32 659.01 C 213.04 663.64 212.48 669.34 208.40 672.30 C 202.52 674.27 196.18 673.43 190.10 674.10 C 182.40 674.92 174.64 674.86 166.91 674.74 C 164.43 674.72 161.41 674.34 160.15 671.86 C 157.47 667.38 158.88 661.96 160.30 657.30 C 161.76 652.29 166.18 649.15 169.57 645.50 C 172.61 642.20 176.48 639.83 180.54 638.00 C 176.78 635.53 173.51 631.73 173.50 627.00 Z" />
<path fill="#090909" d=" M 810.63 613.45 C 812.61 612.59 814.83 613.25 816.91 613.30 C 824.14 614.21 831.40 613.28 838.65 613.37 C 839.80 616.11 840.08 619.10 839.69 622.04 C 838.72 630.37 838.03 638.73 837.09 647.06 C 836.94 648.20 836.80 649.34 836.67 650.49 C 835.93 661.45 834.99 672.40 834.27 683.36 C 834.13 684.64 833.93 685.89 833.82 687.18 C 833.58 697.47 833.82 707.78 833.23 718.06 C 832.72 723.69 832.12 729.33 832.15 735.00 C 832.26 738.34 831.16 741.65 829.36 744.43 C 825.26 745.24 821.11 744.12 817.01 743.81 C 808.46 743.20 799.85 743.98 791.33 742.86 C 783.91 741.93 776.38 742.92 768.99 741.77 C 764.37 741.09 759.69 741.24 755.05 741.13 C 745.69 740.73 736.33 739.87 726.96 740.36 C 724.76 740.33 721.64 740.71 720.68 738.17 C 720.66 736.02 721.80 734.13 722.63 732.23 C 729.66 733.88 736.86 733.88 744.04 733.84 C 753.48 734.38 762.95 734.02 772.36 735.10 C 781.84 735.43 791.32 735.78 800.81 735.91 C 800.48 730.48 800.74 725.04 801.04 719.61 C 801.77 725.00 802.39 730.44 801.81 735.87 C 802.10 735.34 802.70 734.28 802.99 733.74 L 803.48 735.11 C 811.97 734.77 820.04 737.72 828.44 738.30 C 828.96 736.56 829.56 734.82 829.64 733.00 C 830.13 724.63 832.10 716.38 831.79 707.97 C 831.40 695.58 834.00 683.33 833.77 670.95 C 834.33 662.33 834.20 653.67 835.46 645.10 C 836.17 635.32 838.15 625.58 837.43 615.74 C 829.22 616.29 820.99 614.91 812.82 615.57 C 812.46 619.95 812.66 624.36 812.37 628.75 C 812.09 630.65 811.71 632.53 811.36 634.42 C 811.11 633.28 810.63 631.00 810.38 629.86 C 810.24 635.16 810.47 640.46 810.34 645.77 L 809.87 645.76 C 809.96 640.18 809.76 634.59 810.27 629.03 C 810.74 623.84 809.88 618.61 810.63 613.45 Z" />
<path fill="#0f37fe" d=" M 464.22 615.17 C 471.13 612.23 479.81 614.58 484.29 620.61 C 487.95 625.10 488.70 631.50 486.94 636.92 C 485.11 642.27 480.43 646.19 475.19 648.01 C 481.89 649.09 488.38 653.46 491.21 659.77 C 494.81 667.74 496.08 676.74 494.24 685.33 C 491.96 689.64 486.52 688.78 482.52 688.24 C 477.06 687.20 471.54 688.40 466.04 688.23 C 460.00 688.33 453.98 687.85 447.94 687.70 C 445.82 687.72 444.06 686.42 442.28 685.48 C 441.72 678.24 444.00 671.07 446.68 664.43 C 450.70 657.40 456.38 650.60 464.06 647.50 C 459.89 645.00 455.88 641.71 454.38 636.89 C 451.12 628.54 455.88 618.30 464.22 615.17 Z" />
<path fill="#f5f3ef" d=" M 812.82 615.57 C 820.99 614.91 829.22 616.29 837.43 615.74 C 838.15 625.58 836.17 635.32 835.46 645.10 C 834.20 653.67 834.33 662.33 833.77 670.95 C 834.00 683.33 831.40 695.58 831.79 707.97 C 832.10 716.38 830.13 724.63 829.64 733.00 C 829.56 734.82 828.96 736.56 828.44 738.30 C 820.04 737.72 811.97 734.77 803.48 735.11 L 802.99 733.74 C 802.39 725.51 803.23 717.29 803.49 709.07 C 803.80 701.46 804.59 693.87 806.15 686.41 C 807.24 673.59 808.99 660.84 811.26 648.18 C 812.47 641.76 812.12 635.23 812.37 628.75 C 812.66 624.36 812.46 619.95 812.82 615.57 Z" />
<path fill="#666563" d=" M 811.36 634.42 C 811.71 632.53 812.09 630.65 812.37 628.75 C 812.12 635.23 812.47 641.76 811.26 648.18 C 808.99 660.84 807.24 673.59 806.15 686.41 C 804.59 693.87 803.80 701.46 803.49 709.07 C 803.23 717.29 802.39 725.51 802.99 733.74 C 802.70 734.28 802.10 735.34 801.81 735.87 C 802.39 730.44 801.77 725.00 801.04 719.61 C 801.63 709.51 802.00 699.35 804.06 689.41 C 804.47 687.06 804.81 684.70 805.00 682.32 C 805.64 673.44 807.02 664.65 808.45 655.87 C 809.11 652.50 809.79 649.15 810.34 645.77 C 810.47 640.46 810.24 635.16 810.38 629.86 C 810.63 631.00 811.11 633.28 811.36 634.42 Z" />
<path fill="#24bc33" d=" M 753.61 637.64 C 756.45 635.32 760.52 635.10 763.95 636.01 C 767.29 637.15 767.45 641.12 768.10 644.01 C 768.54 648.01 771.54 651.32 775.06 653.02 C 780.59 654.30 785.58 650.80 790.51 648.87 C 790.93 647.82 791.35 646.79 791.79 645.76 C 797.81 645.59 803.84 645.67 809.87 645.76 L 810.34 645.77 C 809.79 649.15 809.11 652.50 808.45 655.87 C 808.06 654.46 806.78 653.72 805.51 653.29 C 800.95 652.93 796.40 653.68 791.87 654.00 C 791.31 653.41 790.76 652.84 790.23 652.28 C 786.04 654.23 781.77 656.64 776.99 656.37 C 772.66 656.54 769.55 652.99 767.07 649.93 C 764.66 646.93 765.44 642.69 763.65 639.45 C 761.62 638.04 758.54 638.46 756.36 639.41 C 745.70 648.26 742.80 663.34 744.76 676.49 C 747.70 686.25 755.79 693.50 764.02 699.00 C 767.00 700.44 772.41 702.29 774.34 698.54 C 775.87 693.43 773.77 688.10 774.57 682.93 C 776.68 680.55 780.17 681.27 782.98 681.28 C 790.29 682.18 797.68 681.43 805.00 682.32 C 804.81 684.70 804.47 687.06 804.06 689.41 C 798.51 689.39 792.96 689.60 787.42 689.42 C 787.14 687.82 786.87 686.21 786.62 684.63 C 783.50 684.38 780.38 684.27 777.27 684.29 C 777.62 688.87 778.71 693.53 777.67 698.11 C 777.07 701.15 774.33 704.05 771.03 703.64 C 766.57 703.80 762.38 701.81 758.98 699.07 C 752.95 694.51 747.44 689.05 743.84 682.33 C 740.30 675.64 741.26 667.79 741.95 660.55 C 742.97 651.81 747.32 643.72 753.61 637.64 Z" />
<path fill="#f5f3ef" d=" M 756.36 639.41 C 758.54 638.46 761.62 638.04 763.65 639.45 C 765.44 642.69 764.66 646.93 767.07 649.93 C 769.55 652.99 772.66 656.54 776.99 656.37 C 781.77 656.64 786.04 654.23 790.23 652.28 C 790.76 652.84 791.31 653.41 791.87 654.00 C 796.40 653.68 800.95 652.93 805.51 653.29 C 806.78 653.72 808.06 654.46 808.45 655.87 C 807.02 664.65 805.64 673.44 805.00 682.32 C 797.68 681.43 790.29 682.18 782.98 681.28 C 780.17 681.27 776.68 680.55 774.57 682.93 C 773.77 688.10 775.87 693.43 774.34 698.54 C 772.41 702.29 767.00 700.44 764.02 699.00 C 755.79 693.50 747.70 686.25 744.76 676.49 C 742.80 663.34 745.70 648.26 756.36 639.41 Z" />
<path fill="#f5b233" d=" M 837.09 647.06 C 844.59 645.04 852.83 645.71 859.76 649.29 C 873.30 657.34 889.71 657.79 905.02 657.24 C 914.37 656.87 922.99 652.45 929.94 646.40 L 930.22 646.20 C 930.51 647.73 930.84 649.26 931.19 650.80 C 923.15 656.95 913.17 660.86 902.94 660.41 C 888.01 660.46 872.10 659.95 858.88 652.17 C 852.13 648.43 843.94 648.47 836.67 650.49 C 836.80 649.34 836.94 648.20 837.09 647.06 Z" />
<path fill="#f5f3ef" d=" M 836.67 650.49 C 843.94 648.47 852.13 648.43 858.88 652.17 C 872.10 659.95 888.01 660.46 902.94 660.41 C 913.17 660.86 923.15 656.95 931.19 650.80 C 932.34 656.64 934.54 662.36 934.42 668.40 C 934.11 682.23 934.65 696.09 933.52 709.90 C 932.52 719.93 931.05 729.91 929.24 739.82 C 928.98 741.17 928.72 742.53 928.45 743.89 C 923.83 741.91 918.73 740.55 914.97 737.06 C 912.48 734.77 910.08 732.26 908.66 729.15 C 905.98 723.55 906.61 716.94 903.52 711.49 C 899.43 703.90 892.59 698.14 885.36 693.66 C 879.81 690.15 874.66 685.64 868.06 684.27 C 857.17 681.59 844.84 677.44 834.27 683.36 C 834.99 672.40 835.93 661.45 836.67 650.49 Z" />
<path fill="#090909" d=" M 223.08 665.17 C 224.44 664.15 226.21 664.86 227.72 665.04 C 232.75 665.98 237.92 665.87 243.02 665.72 C 261.65 664.28 280.34 665.31 299.01 665.15 C 307.66 665.09 316.30 665.58 324.95 665.70 C 337.60 666.90 350.24 668.64 362.97 668.41 C 367.98 668.49 373.03 668.08 378.01 668.82 C 383.66 669.54 389.31 670.59 395.03 670.41 C 401.13 670.18 406.99 672.34 413.06 672.54 C 419.40 672.78 425.75 672.54 432.09 672.63 C 434.79 672.55 437.22 675.25 436.82 677.96 C 436.93 680.54 434.57 682.91 431.97 682.72 C 425.00 682.79 418.02 682.81 411.06 682.54 C 405.29 682.39 399.75 680.26 393.96 680.43 C 385.56 680.66 377.41 677.89 369.01 678.16 C 354.99 678.33 340.98 677.27 327.09 675.46 C 316.36 675.28 305.67 674.36 294.93 674.64 C 278.29 674.81 261.61 674.25 245.01 675.66 C 238.04 676.43 230.86 676.51 224.01 674.90 C 219.51 673.90 219.00 667.06 223.08 665.17 Z" />
<path fill="#666563" d=" M 934.42 668.40 C 934.65 667.35 934.89 666.30 935.14 665.27 C 936.12 670.10 935.79 675.06 935.83 679.96 C 935.71 689.01 935.91 698.07 935.35 707.10 C 934.98 713.42 933.79 719.65 933.06 725.93 C 932.31 731.48 931.58 737.08 929.86 742.44 L 929.39 741.20 C 929.35 740.85 929.28 740.17 929.24 739.82 C 931.05 729.91 932.52 719.93 933.52 709.90 C 934.65 696.09 934.11 682.23 934.42 668.40 Z" />
<path fill="#0f37fe" d=" M 834.27 683.36 C 844.84 677.44 857.17 681.59 868.06 684.27 C 874.66 685.64 879.81 690.15 885.36 693.66 C 892.59 698.14 899.43 703.90 903.52 711.49 C 906.61 716.94 905.98 723.55 908.66 729.15 C 910.08 732.26 912.48 734.77 914.97 737.06 C 918.73 740.55 923.83 741.91 928.45 743.89 C 928.24 744.84 928.01 745.80 927.77 746.76 C 924.80 745.55 921.82 744.43 918.92 743.10 C 914.32 741.00 910.71 737.25 907.67 733.31 C 902.77 726.52 904.45 717.22 899.54 710.45 C 893.52 701.28 883.58 696.18 874.81 690.13 C 869.28 686.87 862.75 686.10 856.63 684.51 C 849.05 682.45 840.51 682.72 833.82 687.18 C 833.93 685.89 834.13 684.64 834.27 683.36 Z" />
<path fill="#f5f3ef" d=" M 723.13 738.00 C 723.58 737.10 723.19 734.53 724.98 735.24 C 733.90 736.93 742.99 735.95 752.01 736.17 C 761.70 736.10 771.37 736.80 781.07 736.70 C 789.05 737.71 797.14 737.25 805.10 738.43 C 812.66 739.38 820.30 739.74 827.73 741.59 C 827.73 741.80 827.71 742.24 827.71 742.46 C 825.15 742.28 822.62 741.95 820.08 741.68 C 811.17 740.74 802.18 742.09 793.29 741.05 C 783.58 739.24 773.65 741.38 763.93 739.78 C 755.62 739.11 747.28 738.65 738.94 738.69 C 733.66 738.70 728.36 738.83 723.13 738.00 Z" />
</svg>
