<?xml version="1.0" encoding="UTF-8" ?>
<!DOCTYPE svg PUBLIC "-//W3C//DTD SVG 1.1//EN" "http://www.w3.org/Graphics/SVG/1.1/DTD/svg11.dtd">
<svg width="1256pt" height="796pt" viewBox="0 0 1256 796" version="1.1" xmlns="http://www.w3.org/2000/svg">
<path fill="#f4f3ef" d=" M 0.00 0.00 L 1256.00 0.00 L 1256.00 796.00 L 0.00 796.00 L 0.00 0.00 Z" />
<path fill="#131312" d=" M 437.32 16.56 C 439.12 15.95 440.99 15.53 442.90 15.47 C 452.43 16.84 462.26 19.89 469.40 26.63 C 472.86 30.68 475.79 35.18 478.39 39.82 C 481.62 45.52 480.21 52.38 479.19 58.49 C 478.06 62.82 477.56 67.82 473.98 70.94 C 470.16 74.57 466.57 78.61 461.83 81.07 C 454.00 85.26 444.60 86.96 435.93 84.64 C 430.12 83.43 424.19 81.38 419.90 77.12 C 415.72 72.74 411.57 68.03 409.74 62.15 C 409.38 56.75 409.30 51.18 410.98 45.98 C 412.64 40.73 414.10 35.08 418.05 31.01 C 423.80 25.40 429.64 19.43 437.32 16.56 Z" />
<path fill="#f4f3ef" d=" M 439.89 18.76 C 449.94 19.01 460.63 21.82 467.89 29.19 C 471.35 33.82 474.87 38.62 476.82 44.10 C 477.70 49.01 477.31 54.14 476.06 58.96 C 475.16 62.48 474.55 66.32 471.93 69.05 C 464.87 76.47 455.76 83.43 444.94 82.88 C 436.00 82.30 426.22 79.96 420.09 72.92 C 416.94 69.37 413.49 65.68 412.64 60.82 C 411.43 51.18 414.45 41.49 419.07 33.12 C 424.36 26.41 431.77 21.37 439.89 18.76 Z" />
<path fill="#131312" d=" M 527.65 33.69 C 528.94 33.61 530.23 33.60 531.53 33.66 C 531.35 36.22 530.73 38.72 530.24 41.23 C 537.19 41.21 544.06 42.54 551.01 42.38 C 565.98 42.50 581.03 42.20 595.89 44.12 C 598.88 44.40 601.93 44.34 604.85 45.16 C 608.51 45.50 612.25 45.24 615.85 46.13 C 619.18 46.35 622.55 46.34 625.82 47.12 C 627.50 47.41 629.21 47.65 630.89 48.02 C 635.66 49.00 640.25 50.62 644.90 52.05 C 646.92 52.63 648.91 53.34 650.86 54.18 C 653.54 55.11 656.26 55.97 658.87 57.14 C 661.28 58.06 663.72 58.92 666.18 59.76 C 667.14 60.10 668.12 60.43 669.11 60.76 C 670.34 61.25 671.58 61.71 672.83 62.20 C 673.83 62.50 674.84 62.80 675.85 63.10 C 676.88 63.40 677.93 63.70 678.97 63.99 C 679.94 64.36 680.92 64.71 681.92 65.06 C 684.25 65.66 686.55 66.35 688.85 67.10 C 693.91 68.56 698.98 70.06 703.84 72.13 C 705.52 72.78 707.19 73.44 708.87 74.11 C 711.95 75.30 715.05 76.43 718.11 77.71 C 721.05 79.14 724.04 80.47 727.08 81.70 C 728.32 82.17 729.59 82.63 730.85 83.10 C 732.88 83.69 734.88 84.39 736.85 85.19 C 742.65 87.20 748.53 89.04 754.09 91.68 C 756.66 92.88 759.27 93.99 761.87 95.14 C 764.22 96.09 766.54 97.11 768.83 98.21 C 770.59 99.01 772.35 99.83 774.10 100.68 C 780.73 103.77 786.72 107.92 792.51 112.36 C 794.83 114.42 798.93 115.39 799.11 119.03 C 797.80 118.73 796.34 118.70 795.32 117.73 C 789.34 113.01 783.95 107.44 777.21 103.78 C 772.91 101.36 768.41 99.31 763.90 97.31 C 761.31 96.17 758.66 95.17 756.12 93.93 C 753.81 92.91 751.50 91.88 749.23 90.78 C 747.77 90.29 746.32 89.75 744.87 89.27 C 743.85 88.91 742.84 88.57 741.82 88.26 C 740.58 87.80 739.34 87.39 738.11 86.95 C 737.12 86.57 736.14 86.19 735.17 85.80 C 731.03 84.44 726.88 83.07 722.91 81.26 C 720.35 80.09 717.78 78.94 715.20 77.84 C 713.52 77.20 711.85 76.52 710.19 75.87 C 708.48 75.25 706.80 74.61 705.15 73.89 C 703.72 73.34 702.31 72.79 700.88 72.28 C 699.62 71.81 698.39 71.32 697.15 70.84 C 693.79 69.96 690.48 68.87 687.16 67.87 C 682.80 66.64 678.51 65.15 674.17 63.87 C 673.14 63.54 672.14 63.19 671.14 62.83 C 669.67 62.36 668.26 61.73 666.80 61.26 C 665.57 60.82 664.35 60.39 663.12 59.97 C 662.10 59.63 661.09 59.27 660.10 58.90 C 658.73 58.34 657.36 57.78 655.98 57.29 C 654.69 56.83 653.42 56.34 652.14 55.87 C 651.14 55.55 650.15 55.21 649.17 54.87 C 645.26 53.27 641.11 52.37 637.18 50.83 C 634.49 50.17 631.79 49.54 629.12 48.86 C 627.10 48.63 625.09 48.36 623.14 47.81 C 620.14 47.54 617.11 47.53 614.17 46.85 C 610.17 46.39 606.07 46.85 602.15 45.84 C 593.73 44.91 585.27 44.56 576.83 44.08 L 576.01 43.51 C 574.64 44.77 572.60 44.08 570.95 44.27 C 557.07 44.35 543.19 44.16 529.31 44.27 C 528.79 48.88 529.90 53.49 529.28 58.09 C 528.70 58.43 527.53 59.13 526.95 59.48 C 522.99 57.33 519.47 54.46 515.41 52.47 C 511.74 50.27 507.47 48.82 504.59 45.51 C 502.99 44.76 500.40 44.40 501.63 42.04 C 507.70 39.26 514.39 38.15 520.77 36.19 C 522.55 35.82 524.35 35.49 526.16 35.17 C 526.63 36.77 527.54 37.90 529.32 37.42 C 528.76 36.17 528.20 34.93 527.65 33.69 Z" />
<path fill="#3d3d3b" d=" M 520.77 36.19 C 523.05 35.34 525.38 34.60 527.65 33.69 C 528.20 34.93 528.76 36.17 529.32 37.42 C 527.54 37.90 526.63 36.77 526.16 35.17 C 524.35 35.49 522.55 35.82 520.77 36.19 Z" />
<path fill="#131312" d=" M 368.08 50.04 C 374.26 48.35 380.71 48.32 387.03 47.61 C 389.18 46.69 389.66 50.51 387.67 50.55 C 381.77 51.27 375.82 50.19 369.90 50.79 C 367.27 51.64 364.58 52.32 361.87 52.88 C 360.85 53.21 359.83 53.53 358.81 53.83 C 356.84 54.56 354.84 55.23 352.84 55.88 C 351.61 56.35 350.39 56.84 349.18 57.32 C 345.70 58.43 342.29 59.75 338.82 60.87 C 336.85 61.57 334.88 62.29 332.89 62.93 C 331.89 63.27 330.89 63.60 329.89 63.93 C 327.22 64.91 324.54 65.83 321.87 66.79 C 320.85 67.16 319.84 67.53 318.83 67.89 C 314.59 69.72 310.28 71.37 306.08 73.28 C 296.56 77.53 287.32 82.37 277.96 86.96 C 276.61 87.62 275.27 88.28 273.92 88.93 C 272.60 89.61 271.28 90.29 269.95 90.95 C 269.43 91.19 268.40 91.67 267.89 91.90 C 263.55 94.23 259.25 96.62 254.86 98.83 C 246.82 103.26 239.25 108.49 232.05 114.16 C 224.37 120.28 215.72 125.01 207.99 131.06 C 193.63 141.14 180.02 152.26 166.86 163.85 C 163.47 167.14 160.07 170.41 156.78 173.79 C 147.36 184.35 137.24 194.25 128.08 205.03 C 118.20 216.46 111.02 229.84 102.09 241.98 C 97.70 247.59 94.98 254.24 91.65 260.48 C 85.73 270.41 78.96 279.95 74.99 290.90 C 77.36 292.40 80.23 293.69 81.48 296.37 C 82.55 299.71 79.53 302.29 77.42 304.39 C 72.70 308.63 68.70 313.70 63.99 317.87 C 62.12 317.09 59.42 316.70 58.73 314.49 C 58.53 311.31 59.77 308.28 60.08 305.16 C 60.63 299.25 60.22 293.31 59.46 287.45 C 59.80 287.04 60.48 286.21 60.82 285.80 C 62.77 285.81 64.09 283.94 66.03 284.14 C 66.22 284.74 66.60 285.95 66.79 286.55 C 68.64 287.43 70.51 288.26 72.42 288.97 C 77.36 278.20 84.56 268.70 90.24 258.34 C 96.51 246.60 105.05 236.32 112.12 225.09 C 120.86 210.62 132.17 197.95 143.95 185.91 C 149.43 180.40 154.25 174.28 159.91 168.96 C 168.93 159.53 179.35 151.65 189.41 143.42 C 195.81 138.05 202.77 133.43 209.46 128.46 C 216.71 122.94 224.75 118.55 231.83 112.80 C 241.45 105.04 252.06 98.62 263.13 93.15 C 266.98 90.87 271.06 89.04 275.06 87.05 C 277.03 86.01 279.02 85.01 281.06 84.10 C 282.36 83.36 283.75 82.78 285.06 82.04 C 286.41 81.37 287.75 80.70 289.11 80.05 C 290.50 79.36 291.91 78.71 293.37 78.17 L 293.62 77.63 C 295.07 77.05 296.51 76.42 297.91 75.71 C 303.61 73.10 309.27 70.37 315.14 68.15 C 316.80 67.46 318.46 66.78 320.13 66.11 C 321.13 65.77 322.14 65.44 323.15 65.12 C 324.38 64.63 325.60 64.16 326.84 63.67 C 330.32 62.56 333.72 61.26 337.21 60.15 C 338.17 59.80 339.14 59.44 340.11 59.10 C 341.11 58.74 342.11 58.39 343.12 58.06 C 344.12 57.73 345.12 57.40 346.13 57.09 C 347.37 56.62 348.60 56.16 349.85 55.71 C 351.28 55.22 352.71 54.71 354.15 54.20 C 355.15 53.82 356.16 53.45 357.18 53.08 C 360.77 51.94 364.42 50.95 368.08 50.04 Z" />
<path fill="#131312" d=" M 390.57 107.01 C 390.74 105.44 390.00 103.36 391.72 102.42 C 396.34 104.04 401.25 103.51 406.05 103.68 C 428.99 105.24 452.02 104.35 474.99 104.52 C 482.82 104.83 490.55 103.44 498.25 102.25 C 498.82 103.78 499.64 105.35 499.14 107.03 C 498.12 113.70 497.41 120.40 496.61 127.09 C 495.86 136.32 496.43 145.59 496.08 154.83 C 502.04 154.14 507.97 155.42 513.94 155.23 C 522.29 155.07 530.66 155.65 538.98 154.75 C 546.99 154.37 555.06 154.41 562.97 152.94 C 564.73 152.62 566.52 152.56 568.32 152.48 C 570.46 157.31 570.15 162.78 570.67 167.94 C 570.72 174.41 571.37 180.85 571.29 187.32 C 571.54 191.32 570.45 195.76 572.66 199.37 C 574.07 201.83 575.58 204.25 577.05 206.69 C 584.14 217.21 590.13 228.42 596.35 239.47 C 597.51 241.24 596.62 244.49 594.04 243.19 C 585.62 232.27 580.82 219.05 572.19 208.24 C 570.33 205.33 567.74 202.58 567.31 199.01 C 566.80 195.18 566.66 191.31 566.39 187.46 C 565.87 177.77 566.29 167.96 564.34 158.42 C 554.18 158.07 544.03 158.52 533.91 159.36 C 521.20 159.46 508.46 160.17 495.78 159.23 C 496.01 167.27 495.45 175.30 495.56 183.33 C 493.86 184.38 492.04 185.45 489.96 185.22 C 478.98 185.21 468.00 185.24 457.02 185.12 C 444.01 184.31 431.02 185.76 417.99 185.64 C 407.86 185.44 397.67 187.36 387.59 185.51 C 385.42 181.33 386.72 176.46 386.39 171.95 C 385.87 158.21 389.16 144.71 389.31 130.99 C 389.30 122.97 390.79 115.03 390.57 107.01 Z" />
<path fill="#f4f3ef" d=" M 394.37 107.44 C 403.25 107.59 412.13 107.48 420.99 108.13 C 440.67 108.18 460.35 108.20 480.03 108.21 C 485.02 107.93 489.97 107.14 494.98 107.06 C 494.37 115.09 493.13 123.07 492.68 131.11 C 492.38 147.82 492.68 164.54 491.56 181.22 C 471.77 181.64 451.96 181.12 432.17 181.72 C 425.47 182.34 418.73 182.20 412.01 182.25 C 404.82 182.54 397.63 182.69 390.45 182.22 C 390.05 176.84 390.26 171.43 390.20 166.03 C 390.01 155.65 392.41 145.45 392.62 135.08 C 392.62 125.83 393.97 116.66 394.37 107.44 Z" />
<path fill="#131312" d=" M 403.37 113.56 C 403.46 112.17 402.74 110.19 404.66 109.81 C 418.12 109.42 431.44 111.76 444.65 114.10 C 456.07 115.18 467.57 114.38 479.03 114.57 C 482.65 114.81 487.57 113.41 489.37 117.60 C 488.96 133.71 489.32 149.83 489.17 165.95 C 489.00 169.58 488.87 173.35 487.30 176.70 C 479.51 176.51 471.69 176.86 463.94 175.95 C 445.92 174.83 427.90 176.25 409.90 176.85 C 406.28 177.12 402.69 177.79 399.07 177.91 C 396.83 178.31 395.51 175.88 395.64 173.97 C 395.47 167.98 395.66 161.98 395.62 155.99 C 396.57 141.32 399.05 126.60 397.71 111.89 C 398.30 111.52 399.48 110.80 400.07 110.44 C 401.40 111.25 401.99 112.43 401.85 113.98 C 402.20 127.04 400.78 140.06 399.45 153.03 C 399.31 160.13 399.24 167.25 399.54 174.34 C 409.55 172.23 419.87 173.08 430.02 172.36 C 437.33 172.33 444.63 171.63 451.96 171.84 C 462.84 172.34 473.72 172.89 484.62 172.72 C 485.00 170.48 485.35 168.23 485.35 165.96 C 485.37 150.17 485.43 134.37 485.32 118.58 C 470.30 117.75 455.13 119.50 440.22 117.09 C 428.08 114.72 415.74 113.45 403.37 113.56 Z" />
<path fill="#20bb30" d=" M 850.49 119.83 C 859.52 117.82 869.16 118.81 877.60 122.60 C 890.11 128.01 899.70 139.66 902.61 152.98 C 905.71 166.24 902.15 180.89 893.15 191.13 C 885.04 200.80 872.53 206.53 859.92 206.48 C 848.51 206.58 837.25 201.85 829.07 193.93 C 820.74 185.57 815.63 173.83 816.15 161.95 C 815.84 142.14 831.21 123.79 850.49 119.83 Z" />
<path fill="#d65418" d=" M 571.29 187.32 C 575.30 188.62 579.09 191.59 579.96 195.91 C 581.19 199.80 578.97 203.48 577.05 206.69 C 575.58 204.25 574.07 201.83 572.66 199.37 C 570.45 195.76 571.54 191.32 571.29 187.32 Z" />
<path fill="#d65418" d=" M 559.77 192.92 C 561.16 190.28 563.85 188.79 566.39 187.46 C 566.66 191.31 566.80 195.18 567.31 199.01 C 567.74 202.58 570.33 205.33 572.19 208.24 L 572.81 209.14 C 569.41 209.47 565.67 209.38 562.88 207.17 C 558.42 204.10 556.99 197.57 559.77 192.92 Z" />
<path fill="#131312" d=" M 916.23 193.31 C 918.48 193.24 920.95 192.82 923.01 194.01 C 928.79 197.47 933.84 202.07 939.91 205.08 C 941.36 206.05 943.95 206.81 943.35 209.11 C 941.84 211.90 938.62 212.96 936.18 214.73 C 942.29 222.13 947.03 230.56 953.23 237.91 C 958.73 244.28 961.26 252.46 965.71 259.51 C 970.69 267.18 973.79 275.92 975.88 284.78 C 975.87 285.41 975.84 286.68 975.83 287.31 C 975.25 286.49 974.71 285.66 974.18 284.82 C 971.93 278.27 969.83 271.58 966.62 265.41 C 961.97 258.48 958.78 250.72 954.46 243.60 C 947.97 234.19 940.38 225.56 933.84 216.21 C 930.26 217.22 928.66 222.14 924.81 221.78 C 923.64 217.43 921.27 213.55 919.85 209.30 C 918.87 203.91 916.65 198.80 916.23 193.31 Z" />
<path fill="#131312" d=" M 470.05 197.60 C 477.67 196.59 485.37 196.54 492.99 195.52 C 495.30 194.77 497.20 196.68 498.16 198.57 C 501.39 205.14 504.46 211.78 507.56 218.40 C 509.70 223.45 510.92 228.84 512.36 234.11 C 512.12 234.67 511.65 235.80 511.41 236.36 C 505.19 238.91 498.47 236.23 492.00 236.65 C 481.65 236.17 471.38 237.55 461.05 237.53 C 452.35 237.84 443.64 237.93 434.94 237.77 C 413.66 236.39 392.32 237.76 371.02 237.35 C 370.26 236.58 369.50 235.81 368.74 235.06 C 368.55 232.52 368.57 229.91 369.75 227.59 C 373.82 218.64 379.56 210.58 384.11 201.88 C 383.60 201.70 382.57 201.34 382.06 201.15 C 381.68 198.72 383.43 196.51 385.95 196.55 C 396.68 195.92 407.27 198.68 417.99 198.54 C 435.35 198.61 452.71 198.45 470.05 197.60 Z" />
<path fill="#3d3d3b" d=" M 921.21 196.31 C 921.70 196.82 921.70 196.82 921.21 196.31 Z" />
<path fill="#f4f3ef" d=" M 388.79 200.29 C 399.21 200.38 409.52 202.43 419.95 202.27 C 432.38 202.18 444.80 202.48 457.23 202.69 C 469.25 203.15 481.19 201.38 493.20 201.19 C 497.81 211.34 503.63 221.15 505.64 232.26 C 496.45 233.11 487.21 232.46 478.02 233.25 C 464.01 233.85 450.00 234.80 435.97 234.46 C 414.81 232.68 393.54 234.20 372.34 233.59 C 372.76 227.77 376.50 223.05 379.03 218.02 C 382.15 212.04 386.43 206.62 388.79 200.29 Z" />
<path fill="#131312" d=" M 393.69 206.67 C 396.42 206.16 399.16 205.69 401.95 205.75 C 415.30 205.78 428.65 205.86 441.99 205.86 C 458.06 206.50 474.15 207.04 490.24 206.77 C 492.46 207.38 491.77 209.90 491.60 211.58 C 483.92 212.14 476.22 211.05 468.56 210.55 C 460.01 210.47 451.53 209.09 442.97 209.33 C 426.45 209.06 409.92 209.84 393.41 209.45 C 393.49 208.52 393.59 207.59 393.69 206.67 Z" />
<path fill="#3d3d3b" d=" M 937.48 206.15 C 938.86 205.86 939.35 206.41 938.94 207.79 C 937.54 208.08 937.05 207.53 937.48 206.15 Z" />
<path fill="#131312" d=" M 394.42 222.45 C 394.29 221.08 394.08 218.55 396.12 218.68 C 412.40 219.37 428.70 218.92 444.99 219.37 C 455.94 220.51 466.96 220.73 477.96 220.65 C 481.45 220.69 484.94 219.95 488.43 220.53 C 488.63 222.23 488.35 224.01 486.29 224.07 C 474.02 225.23 461.71 224.07 449.44 223.52 C 431.14 221.90 412.74 223.45 394.42 222.45 Z" />
<path fill="#d65418" d=" M 557.01 240.20 C 560.28 233.26 570.99 232.33 575.38 238.65 C 579.68 244.00 577.30 252.15 571.46 255.28 C 571.28 251.24 571.74 246.46 568.57 243.39 C 566.79 242.59 564.98 243.95 563.30 244.43 C 563.60 248.26 563.76 252.10 563.75 255.94 C 557.36 254.06 553.52 246.15 557.01 240.20 Z" />
<path fill="#131312" d=" M 814.59 237.64 C 819.08 237.30 823.48 238.74 827.99 238.59 C 852.65 238.74 877.32 238.82 901.98 238.54 C 907.33 238.39 912.66 238.92 917.99 239.42 C 920.63 243.06 920.40 247.74 920.58 252.02 C 920.65 257.34 921.39 262.63 921.19 267.96 C 921.02 276.61 921.67 285.30 920.70 293.92 C 920.46 298.43 919.38 302.83 919.21 307.35 C 918.30 307.38 916.48 307.44 915.58 307.48 C 915.33 301.26 917.53 295.25 917.46 289.02 C 917.40 278.93 917.81 268.82 917.17 258.76 C 915.79 253.53 917.44 247.97 915.55 242.85 C 904.38 242.00 893.17 242.17 881.98 242.36 C 866.64 242.41 851.31 242.42 835.97 242.47 C 828.88 242.43 821.73 242.66 814.76 241.20 C 814.68 240.01 814.62 238.83 814.59 237.64 Z" />
<path fill="#131312" d=" M 563.30 244.43 C 564.98 243.95 566.79 242.59 568.57 243.39 C 571.74 246.46 571.28 251.24 571.46 255.28 C 571.56 277.23 571.37 299.19 571.52 321.14 C 575.73 321.84 579.92 322.64 584.19 322.94 C 592.96 325.55 601.33 329.27 609.96 332.29 C 611.12 332.77 612.30 333.31 613.48 333.80 C 615.17 334.76 617.14 334.23 618.95 334.02 C 625.17 333.04 630.73 329.96 636.49 327.61 C 648.42 322.14 661.58 320.37 673.85 315.89 C 680.10 313.34 686.50 311.16 692.98 309.25 C 694.47 308.79 695.98 308.33 697.49 307.90 C 704.54 306.36 710.99 303.09 717.70 300.57 C 718.92 300.12 720.15 299.66 721.39 299.21 C 721.60 298.75 722.01 297.84 722.22 297.39 C 723.40 298.05 724.36 299.76 725.97 298.18 C 731.13 296.43 736.46 295.22 741.58 293.35 C 742.57 292.95 743.60 292.53 744.61 292.13 C 751.31 289.74 757.90 286.93 764.81 285.20 C 766.41 284.87 768.09 284.80 769.69 284.33 C 776.21 282.22 783.04 281.16 789.46 278.66 C 798.45 275.29 807.26 271.37 816.54 268.80 C 816.56 261.71 816.42 254.62 816.46 247.54 C 817.75 247.28 819.08 247.31 820.41 247.48 C 820.63 263.63 819.46 279.87 821.75 295.93 C 822.55 301.05 822.20 306.23 822.37 311.39 C 831.25 311.46 840.19 312.04 849.05 311.08 C 872.45 309.17 896.03 311.66 919.39 309.08 C 919.48 310.19 919.58 311.31 919.68 312.43 C 910.59 314.47 901.23 313.59 892.00 313.76 C 880.34 313.90 868.66 313.36 857.03 314.28 C 850.33 314.23 843.72 315.66 837.02 315.37 C 831.26 315.12 825.37 316.05 819.73 314.56 C 817.36 310.80 818.79 306.18 818.40 302.01 C 817.90 293.08 816.24 284.21 816.56 275.23 C 806.57 277.67 797.32 282.29 787.47 285.15 C 780.62 287.63 773.30 288.48 766.45 290.96 C 766.02 291.05 765.16 291.25 764.73 291.35 C 764.60 291.38 764.35 291.45 764.22 291.49 C 758.88 293.35 753.65 295.55 748.22 297.12 C 746.83 297.48 745.45 297.87 744.09 298.28 C 736.86 300.37 729.74 302.84 722.50 304.92 C 720.22 305.68 717.94 306.45 715.66 307.18 C 710.96 308.64 706.32 310.29 701.64 311.80 C 699.74 312.37 697.82 312.90 695.92 313.44 C 681.26 318.29 666.91 324.05 652.18 328.69 C 642.10 332.30 632.46 337.10 622.09 339.91 C 624.21 342.65 626.60 345.43 627.28 348.94 C 627.84 353.80 627.61 359.30 624.16 363.12 C 623.40 364.28 621.38 365.77 622.70 367.23 C 633.40 377.59 646.72 384.59 658.96 392.91 C 662.13 395.26 665.80 396.80 668.91 399.24 C 673.87 403.00 679.54 405.71 684.44 409.58 C 689.67 413.71 695.76 416.70 700.62 421.34 C 704.90 425.52 710.06 428.61 714.91 432.07 C 722.29 437.30 730.74 440.79 738.07 446.11 C 742.81 449.25 746.90 453.29 751.84 456.15 C 757.15 459.09 762.10 462.62 767.48 465.45 C 777.99 473.29 788.17 481.63 799.06 488.98 C 805.42 492.05 810.21 497.46 816.62 500.46 C 826.82 506.97 838.11 511.80 847.50 519.52 C 854.91 526.57 864.55 530.34 873.22 535.48 C 873.55 535.26 874.20 534.83 874.52 534.61 C 874.79 535.17 875.07 535.75 875.38 536.32 C 879.81 540.44 885.37 543.03 889.91 547.02 C 893.17 549.24 895.95 552.30 899.79 553.55 C 906.23 557.50 912.84 561.22 919.55 564.74 C 929.92 571.64 940.31 578.52 951.00 584.96 C 964.48 591.76 976.21 601.43 989.51 608.56 C 993.82 610.73 996.92 614.65 1001.33 616.65 C 1008.59 620.17 1014.23 626.19 1021.49 629.73 C 1024.66 631.68 1028.34 632.60 1031.46 634.60 C 1037.74 640.39 1045.78 643.67 1053.17 647.77 C 1056.83 649.23 1059.67 652.26 1063.53 653.25 C 1063.48 640.45 1063.63 627.65 1063.12 614.86 C 1063.09 613.15 1063.30 611.44 1063.56 609.77 C 1081.37 609.33 1099.20 610.00 1117.01 609.53 C 1126.68 609.24 1136.36 609.38 1146.03 609.28 C 1157.22 608.09 1168.50 608.13 1179.73 608.39 C 1181.70 608.26 1182.81 610.12 1182.60 611.92 C 1182.88 623.94 1181.96 635.96 1182.21 647.99 C 1182.16 653.67 1182.30 659.36 1182.12 665.04 C 1181.12 672.67 1181.81 680.38 1181.70 688.05 C 1182.18 691.15 1178.64 692.69 1176.08 692.86 C 1167.10 693.82 1158.06 694.40 1149.02 694.29 C 1128.00 694.34 1106.98 694.28 1085.95 694.35 C 1080.21 694.48 1074.75 692.27 1069.04 692.24 C 1067.47 692.29 1065.97 691.93 1064.53 691.41 C 1064.06 689.31 1063.44 687.22 1063.56 685.06 C 1063.65 676.83 1063.76 668.61 1063.59 660.38 C 1062.12 660.60 1060.52 661.09 1059.19 660.19 C 1054.58 657.71 1050.05 655.08 1045.47 652.56 C 1040.04 648.93 1033.61 646.82 1028.89 642.17 C 1025.04 638.57 1020.27 636.25 1015.90 633.39 C 1009.59 629.73 1004.46 624.33 997.84 621.19 C 994.07 619.49 991.39 616.24 987.93 614.09 C 982.83 610.85 977.55 607.90 972.60 604.44 C 969.20 602.13 966.11 599.34 962.39 597.56 C 955.44 594.09 949.33 589.25 942.54 585.52 C 937.82 582.72 932.59 580.91 928.02 577.84 C 917.76 571.28 906.73 566.08 896.42 559.61 C 889.87 555.12 884.07 549.61 877.25 545.53 C 874.59 543.62 872.19 541.28 869.04 540.20 C 866.77 541.96 864.42 543.62 862.11 545.32 C 861.08 546.07 860.03 546.81 859.01 547.57 C 848.28 554.82 837.03 561.23 825.90 567.86 C 820.20 570.82 814.75 574.22 809.10 577.29 C 807.32 578.11 805.56 578.97 803.80 579.80 C 801.83 580.82 799.83 581.78 797.84 582.73 C 794.52 584.41 791.24 586.18 787.91 587.83 C 779.07 592.56 770.99 598.62 761.85 602.80 C 760.51 603.49 759.18 604.18 757.86 604.87 C 756.52 605.53 755.19 606.18 753.86 606.84 C 751.54 607.90 749.23 608.96 746.86 609.88 C 744.57 610.98 742.25 612.03 739.86 612.87 C 737.92 613.65 735.98 614.41 734.07 615.25 C 732.32 616.11 730.60 617.01 728.85 617.85 C 723.25 620.96 717.53 623.84 711.90 626.90 C 707.96 629.04 704.05 631.28 699.88 632.96 C 688.76 637.85 677.29 642.01 665.37 644.41 C 657.96 646.94 649.96 647.19 642.23 646.48 C 642.33 645.33 642.30 643.94 643.75 643.69 C 650.85 643.44 658.05 644.56 665.05 642.81 C 671.01 642.21 676.41 639.46 682.25 638.29 C 687.25 636.81 691.96 634.52 696.87 632.78 C 699.72 631.79 702.45 630.52 705.14 629.16 C 706.44 628.48 707.73 627.76 709.06 627.11 C 712.31 625.24 715.66 623.56 718.93 621.74 C 720.63 620.84 722.36 619.98 724.12 619.15 C 727.95 616.82 732.01 614.89 736.09 613.04 C 740.42 611.39 744.70 609.60 748.93 607.71 C 756.19 604.62 763.05 600.71 770.09 597.17 C 774.48 594.56 778.62 591.56 783.11 589.12 C 783.59 588.87 784.57 588.38 785.05 588.13 C 788.90 585.80 793.01 583.96 796.92 581.75 C 805.27 578.10 813.22 573.66 821.10 569.13 C 833.55 562.04 845.90 554.76 857.88 546.90 C 858.92 546.16 859.94 545.41 860.98 544.65 C 862.60 543.35 864.29 542.12 866.10 541.06 C 866.50 540.59 867.30 539.65 867.70 539.19 C 860.13 535.33 852.33 531.65 845.82 526.11 C 841.25 522.19 836.37 518.57 830.97 515.89 C 822.86 511.02 814.53 506.51 806.57 501.39 C 803.25 498.64 799.76 496.14 795.93 494.16 C 786.33 487.77 777.38 480.48 768.16 473.60 C 765.00 470.61 761.13 468.66 757.38 466.58 C 753.30 463.59 748.65 461.52 744.59 458.50 C 741.28 456.16 738.37 453.29 734.99 451.05 C 727.14 445.34 718.11 441.52 710.32 435.73 C 705.93 432.42 701.20 429.53 697.36 425.55 C 692.62 420.84 686.59 417.80 681.54 413.48 C 676.55 409.32 670.69 406.38 665.74 402.18 C 657.48 396.32 648.92 390.90 640.18 385.78 C 635.80 382.86 630.97 380.61 626.99 377.11 C 623.83 374.36 620.38 372.00 617.00 369.54 C 614.17 371.12 611.16 372.35 608.09 373.37 C 606.77 373.81 605.45 374.23 604.15 374.67 C 596.57 377.34 588.78 379.32 581.07 381.57 C 565.96 385.38 550.45 387.19 535.08 389.68 C 510.43 393.60 485.38 392.54 460.57 391.20 C 459.02 398.40 456.61 405.38 454.85 412.52 C 451.91 425.54 449.04 438.58 445.48 451.45 C 444.04 456.09 440.95 459.92 438.01 463.69 C 436.37 463.21 434.74 462.72 433.12 462.25 C 433.62 457.23 437.18 453.22 438.37 448.37 C 440.14 443.32 441.99 438.26 442.61 432.91 C 444.32 421.63 449.16 411.18 451.21 399.99 C 451.78 396.68 453.07 393.57 454.37 390.50 C 444.76 388.54 434.77 387.91 425.60 384.22 C 419.45 381.93 415.49 376.45 410.83 372.14 C 408.01 369.68 407.27 365.85 405.01 363.00 C 404.46 364.21 403.93 365.43 403.40 366.65 C 385.99 366.66 368.57 366.58 351.16 366.69 C 347.86 366.58 344.35 367.20 341.23 365.95 C 339.82 365.53 339.86 363.54 340.44 362.50 C 343.48 360.44 347.42 361.00 350.88 360.55 C 369.25 359.57 387.68 360.80 406.04 359.59 C 406.19 355.68 406.75 351.48 409.45 348.44 C 415.38 341.51 424.17 338.19 432.17 334.31 C 440.28 331.31 448.48 328.52 456.73 325.89 C 483.19 318.79 510.81 318.47 538.03 318.76 C 546.90 318.70 555.86 318.60 564.60 320.36 C 564.91 314.54 563.53 308.81 563.74 303.00 C 563.83 287.31 563.72 271.63 563.75 255.94 C 563.76 252.10 563.60 248.26 563.30 244.43 Z" />
<path fill="#131312" d=" M 856.96 248.21 C 870.32 248.47 883.64 247.36 897.00 247.26 C 903.06 247.26 909.51 245.06 915.28 247.73 C 916.94 255.72 916.67 263.92 915.98 272.01 C 915.82 280.34 915.41 288.67 915.63 297.01 C 915.48 299.17 916.11 301.83 914.12 303.34 C 911.79 304.18 909.28 304.36 906.85 304.08 C 894.26 302.78 881.53 302.85 868.97 304.38 C 857.35 305.03 845.69 304.24 834.08 304.80 C 831.62 304.92 828.35 307.06 826.60 304.43 C 825.25 302.14 826.05 299.47 826.17 297.00 C 826.52 282.11 826.44 267.21 825.39 252.35 C 823.24 251.29 822.99 248.14 825.74 247.84 C 836.13 248.49 846.56 248.09 856.96 248.21 Z" />
<path fill="#f4f3ef" d=" M 829.33 251.87 C 856.46 251.65 883.59 252.00 910.71 251.58 C 912.19 260.37 910.06 269.19 910.38 278.02 C 909.82 284.76 909.58 291.50 909.67 298.27 C 904.76 298.39 899.87 298.77 895.00 299.22 C 888.95 299.50 882.86 299.05 876.85 299.88 C 866.92 301.28 856.88 300.63 846.90 300.89 C 841.16 301.03 835.33 300.18 829.72 301.69 C 830.37 285.09 829.66 268.47 829.33 251.87 Z" />
<path fill="#20bb30" d=" M 779.74 269.82 C 788.51 265.62 797.77 262.15 807.36 260.45 C 807.44 261.71 807.55 262.98 807.62 264.25 C 798.42 266.49 789.06 268.90 780.80 273.67 C 780.98 275.81 780.16 277.54 778.24 278.53 C 775.37 278.45 772.46 278.43 769.69 277.61 C 769.24 276.35 768.79 275.10 768.34 273.86 C 770.35 270.75 772.83 267.93 775.71 265.60 C 776.62 265.45 777.53 265.35 778.47 265.31 C 778.89 266.81 779.31 268.31 779.74 269.82 Z" />
<path fill="#20bb30" d=" M 748.48 274.70 C 753.96 272.13 761.12 273.37 765.57 277.49 C 767.58 279.13 767.94 281.84 769.29 283.93 L 769.69 284.33 C 768.09 284.80 766.41 284.87 764.81 285.20 C 765.05 279.87 759.44 277.24 754.86 277.19 C 752.36 280.29 748.44 281.78 746.05 284.96 C 744.49 286.99 744.89 289.74 744.61 292.13 C 743.60 292.53 742.57 292.95 741.58 293.35 L 741.07 292.84 C 739.52 286.06 743.26 278.90 748.48 274.70 Z" />
<path fill="#f4f3ef" d=" M 754.86 277.19 C 759.44 277.24 765.05 279.87 764.81 285.20 C 757.90 286.93 751.31 289.74 744.61 292.13 C 744.89 289.74 744.49 286.99 746.05 284.96 C 748.44 281.78 752.36 280.29 754.86 277.19 Z" />
<path fill="#3d3d3b" d=" M 974.18 284.82 C 974.71 285.66 975.25 286.49 975.83 287.31 C 975.84 286.68 975.87 285.41 975.88 284.78 C 978.01 288.86 977.37 293.61 978.19 298.02 C 978.92 310.67 978.60 323.36 978.24 336.03 C 978.36 347.71 977.58 359.46 974.82 370.85 C 973.87 378.57 973.69 386.40 971.86 394.00 C 969.73 402.61 969.88 411.89 965.73 419.92 C 962.31 428.66 958.61 437.41 953.21 445.15 C 949.13 451.04 945.30 457.13 940.73 462.66 C 930.04 476.04 921.93 491.56 909.26 503.29 C 901.77 511.10 894.29 518.93 886.50 526.45 C 883.00 529.97 878.73 532.65 875.38 536.32 C 875.07 535.75 874.79 535.17 874.52 534.61 C 886.89 525.04 897.38 513.40 908.14 502.14 C 921.54 489.83 929.78 473.27 941.34 459.40 C 949.68 447.96 958.21 436.32 962.79 422.77 C 966.43 413.92 967.02 404.29 969.56 395.14 C 971.91 386.40 971.86 377.27 973.68 368.45 C 977.69 351.93 976.41 334.81 976.29 317.98 C 976.59 306.90 976.60 295.70 974.18 284.82 Z" />
<path fill="#20bb30" d=" M 699.57 291.47 C 706.94 286.26 718.10 289.11 722.41 296.98 L 722.22 297.39 C 722.01 297.84 721.60 298.75 721.39 299.21 C 720.15 299.66 718.92 300.12 717.70 300.57 C 717.41 294.45 710.63 292.38 705.50 293.23 C 703.67 295.22 701.19 296.47 699.38 298.46 C 697.72 301.29 697.84 304.74 697.49 307.90 C 695.98 308.33 694.47 308.79 692.98 309.25 C 692.07 305.73 691.91 301.99 692.63 298.43 C 694.44 295.69 697.20 293.71 699.57 291.47 Z" />
<path fill="#f4f3ef" d=" M 748.22 297.12 C 753.65 295.55 758.88 293.35 764.22 291.49 C 764.35 291.45 764.60 291.38 764.73 291.35 C 762.98 293.08 761.51 295.13 759.42 296.47 C 755.94 298.26 751.92 297.03 748.22 297.12 Z" />
<path fill="#20bb30" d=" M 764.73 291.35 C 765.16 291.25 766.02 291.05 766.45 290.96 L 767.77 290.83 C 766.94 294.04 766.32 298.06 762.95 299.67 C 757.01 302.34 749.52 302.03 744.09 298.28 C 745.45 297.87 746.83 297.48 748.22 297.12 C 751.92 297.03 755.94 298.26 759.42 296.47 C 761.51 295.13 762.98 293.08 764.73 291.35 Z" />
<path fill="#f4f3ef" d=" M 705.50 293.23 C 710.63 292.38 717.41 294.45 717.70 300.57 C 710.99 303.09 704.54 306.36 697.49 307.90 C 697.84 304.74 697.72 301.29 699.38 298.46 C 701.19 296.47 703.67 295.22 705.50 293.23 Z" />
<path fill="#20bb30" d=" M 671.06 301.98 C 674.17 301.09 677.12 299.48 680.42 299.42 C 680.30 300.74 681.20 302.95 679.30 303.36 C 664.93 308.25 650.01 311.72 636.23 318.21 C 628.54 323.23 620.03 327.23 613.48 333.80 C 612.30 333.31 611.12 332.77 609.96 332.29 C 615.76 325.36 624.13 321.46 631.56 316.62 C 636.65 313.01 642.82 311.66 648.49 309.28 C 655.86 306.39 663.60 304.63 671.06 301.98 Z" />
<path fill="#20bb30" d=" M 715.66 307.18 C 717.94 306.45 720.22 305.68 722.50 304.92 C 722.31 310.99 717.61 316.18 712.00 318.02 C 706.34 319.21 699.64 318.39 695.92 313.44 C 697.82 312.90 699.74 312.37 701.64 311.80 C 704.58 312.82 707.75 314.07 710.89 313.17 C 712.91 311.56 714.22 309.28 715.66 307.18 Z" />
<path fill="#f4f3ef" d=" M 701.64 311.80 C 706.32 310.29 710.96 308.64 715.66 307.18 C 714.22 309.28 712.91 311.56 710.89 313.17 C 707.75 314.07 704.58 312.82 701.64 311.80 Z" />
<path fill="#131312" d=" M 121.78 312.64 C 124.26 311.92 126.47 313.72 128.96 313.53 C 142.08 313.59 154.91 317.16 168.06 316.73 C 181.39 316.62 194.76 317.19 208.06 315.93 C 219.68 315.28 231.36 315.26 242.88 313.45 C 244.02 313.32 245.16 313.29 246.32 313.38 C 248.79 318.98 246.18 325.07 246.42 330.91 C 245.42 341.73 245.31 352.60 245.15 363.46 C 257.60 363.37 270.05 363.01 282.51 363.23 C 285.71 363.18 289.08 363.39 292.06 361.98 C 295.75 360.46 298.27 357.23 301.09 354.55 C 306.38 349.70 312.03 345.19 316.73 339.73 C 318.94 337.08 321.98 335.23 324.00 332.41 C 326.60 331.56 327.71 333.83 327.65 336.13 C 323.36 340.32 319.63 345.05 315.10 348.99 C 311.52 352.13 307.92 355.28 305.00 359.06 C 302.10 362.41 299.49 366.19 295.88 368.80 C 291.91 369.63 287.81 369.30 283.78 369.49 C 270.74 369.59 257.70 369.30 244.66 369.77 C 244.70 381.64 243.88 393.53 242.25 405.26 C 237.05 407.08 231.41 406.10 226.08 407.35 C 209.89 410.34 193.37 409.82 176.99 409.86 C 164.00 410.00 151.01 409.59 138.04 408.97 C 133.29 408.60 128.47 409.31 123.78 408.21 C 122.70 404.21 122.84 400.06 122.78 395.95 C 121.83 383.65 122.41 371.29 122.23 358.96 C 121.45 343.54 121.96 328.08 121.78 312.64 Z" />
<path fill="#f4f3ef" d=" M 125.53 317.42 C 137.78 317.18 149.83 319.57 161.99 320.41 C 176.34 320.37 190.71 320.89 205.02 319.78 C 217.30 319.72 229.58 319.70 241.84 319.10 C 239.80 341.36 239.73 363.72 238.48 386.02 C 238.33 390.97 236.84 395.76 236.79 400.72 C 231.36 401.80 226.09 403.53 220.64 404.45 C 209.54 406.04 198.30 406.49 187.09 406.44 C 175.42 406.39 163.73 406.79 152.08 406.01 C 143.69 404.82 135.12 406.01 126.78 404.67 C 127.04 397.74 126.17 390.86 125.77 383.96 C 125.58 361.78 125.42 339.60 125.53 317.42 Z" />
<path fill="#131312" d=" M 868.07 322.40 C 879.32 321.01 890.69 321.80 901.99 321.54 C 907.29 321.70 912.57 320.72 917.87 321.13 C 919.89 321.30 919.95 323.63 920.39 325.11 C 921.66 331.43 926.52 336.09 929.71 341.48 C 932.76 346.58 937.08 351.36 937.86 357.46 C 936.56 357.79 935.28 358.11 934.00 358.42 C 933.81 358.91 933.43 359.89 933.24 360.38 C 930.81 360.42 928.37 360.43 925.98 360.85 C 917.08 362.54 907.98 361.58 898.99 361.65 C 878.99 361.73 858.99 361.37 838.99 361.83 C 826.94 363.13 814.83 363.96 802.71 363.23 C 801.52 362.57 801.13 361.14 800.42 360.09 C 802.39 357.54 804.28 354.92 806.27 352.38 C 809.58 348.23 811.26 343.12 813.57 338.41 C 815.67 334.23 816.02 328.96 819.75 325.75 C 829.60 327.97 839.16 323.55 848.97 323.53 C 855.35 323.36 861.69 322.58 868.07 322.40 Z" />
<path fill="#131312" d=" M 130.74 322.62 C 142.49 322.91 154.25 322.78 166.00 322.85 C 176.31 322.67 186.65 322.03 196.95 322.80 C 202.85 323.91 208.90 323.19 214.79 324.31 C 221.61 325.39 228.49 323.94 235.30 324.59 C 235.52 336.37 234.67 348.19 234.83 360.00 C 234.86 366.34 234.45 372.68 233.80 378.99 C 233.93 384.78 232.32 390.41 232.27 396.20 C 225.42 398.49 218.01 398.05 210.89 398.78 C 203.31 399.87 195.63 399.15 188.02 399.56 C 178.67 400.00 169.35 399.07 160.01 399.09 C 150.93 399.24 141.90 397.71 132.79 398.20 C 130.70 393.78 131.63 388.75 131.35 384.03 C 131.57 365.32 130.97 346.64 130.44 327.95 C 130.20 326.15 129.32 324.18 130.74 322.62 Z" />
<path fill="#f4f3ef" d=" M 447.61 332.39 C 480.97 320.18 517.10 322.37 552.00 322.57 C 561.09 323.42 570.24 324.38 579.12 326.58 C 579.85 327.71 580.38 329.58 582.07 329.43 C 590.40 330.23 597.75 334.61 605.58 337.09 C 598.65 346.21 595.83 359.10 600.59 369.80 C 584.59 375.17 568.15 379.33 551.39 381.47 C 539.65 383.45 527.87 385.18 516.03 386.35 C 506.02 386.94 496.00 386.79 485.98 386.89 C 472.32 386.71 458.57 386.67 445.10 384.15 C 436.27 382.70 426.16 382.31 419.47 375.54 C 416.43 372.25 412.54 369.54 410.63 365.38 C 409.64 360.82 409.07 355.62 411.68 351.47 C 415.59 345.89 421.97 342.99 427.86 340.01 C 434.10 336.65 440.95 334.73 447.61 332.39 Z" />
<path fill="#f4f3ef" d=" M 865.96 326.23 C 882.62 324.02 899.51 326.41 916.18 324.47 C 916.74 327.97 918.39 331.13 919.98 334.25 C 902.03 335.88 883.98 334.92 865.99 335.18 C 851.48 335.12 836.97 335.80 822.46 335.47 C 822.53 336.85 821.88 338.73 823.66 339.29 C 833.41 339.72 843.21 339.41 852.95 338.69 C 872.28 338.31 891.62 338.54 910.95 338.53 C 914.77 338.42 918.66 338.49 922.34 337.30 C 926.48 343.61 931.03 349.71 934.19 356.60 C 928.02 356.03 922.11 358.27 915.98 358.33 C 889.33 358.28 862.66 358.03 836.01 358.52 C 826.00 359.73 815.91 359.82 805.84 359.51 C 808.25 355.67 811.41 352.31 813.28 348.15 C 815.84 342.22 819.13 336.58 820.77 330.29 C 830.69 331.23 840.14 327.22 850.01 327.22 C 855.32 326.87 860.63 326.37 865.96 326.23 Z" />
<path fill="#f4f3ef" d=" M 166.00 326.64 C 177.94 326.37 189.97 325.53 201.85 327.09 C 211.79 327.38 221.67 329.32 231.63 328.17 C 230.86 340.42 231.69 352.70 231.23 364.96 C 230.49 374.46 229.93 384.00 228.47 393.43 C 212.35 395.47 196.11 395.93 179.88 396.09 C 170.98 395.42 162.06 395.41 153.14 395.30 C 147.30 394.59 141.43 394.29 135.55 394.34 C 134.98 386.90 135.31 379.44 135.16 371.99 C 134.06 356.90 135.25 341.79 135.48 326.69 C 145.65 326.67 155.83 326.62 166.00 326.64 Z" />
<path fill="#131312" d=" M 44.23 335.33 C 51.61 335.32 58.92 336.67 66.16 337.93 C 72.81 340.28 80.31 341.34 85.71 346.26 C 88.93 349.15 91.73 352.67 93.28 356.74 C 94.34 360.41 94.67 364.24 95.12 368.02 C 94.95 372.00 94.32 375.97 94.42 379.98 C 94.30 383.96 95.01 388.29 92.80 391.87 C 89.75 397.01 85.18 401.02 80.68 404.86 C 75.66 408.98 69.82 413.02 63.02 412.80 C 53.50 412.58 43.75 412.39 34.57 409.61 C 29.46 408.27 25.72 404.32 22.44 400.43 C 17.08 393.87 16.37 385.06 15.18 377.02 C 15.71 369.05 13.78 360.32 18.04 353.08 C 21.21 347.42 26.43 343.39 31.29 339.27 C 34.03 336.90 37.44 335.24 41.15 335.49 C 43.17 334.73 42.60 337.11 42.45 338.14 C 38.97 338.62 35.35 339.13 32.37 341.13 C 25.89 345.39 18.93 350.83 17.75 359.03 C 17.42 367.72 16.87 376.58 19.21 385.06 C 20.20 393.36 24.80 401.46 32.19 405.62 C 41.13 409.84 51.26 410.31 60.98 410.33 C 67.70 410.44 74.11 407.47 78.97 402.95 C 82.70 399.36 87.03 396.23 89.82 391.79 C 92.45 387.37 91.44 382.05 91.77 377.17 C 92.51 370.67 92.14 363.99 90.72 357.63 C 87.63 350.82 81.28 345.07 73.83 343.55 C 69.20 342.33 64.75 340.37 59.94 339.96 C 54.76 339.42 49.64 338.31 44.41 338.40 C 44.35 337.37 44.29 336.35 44.23 335.33 Z" />
<path fill="#20bb30" d=" M 605.58 337.09 C 606.85 337.53 608.12 337.97 609.40 338.43 C 602.41 346.58 599.89 358.58 604.03 368.61 C 602.88 369.00 601.73 369.39 600.59 369.80 C 595.83 359.10 598.65 346.21 605.58 337.09 Z" />
<path fill="#f4f3ef" d=" M 609.40 338.43 C 613.98 341.43 619.51 344.34 621.36 349.88 C 621.57 353.13 621.85 356.82 619.64 359.51 C 615.94 364.59 609.77 366.76 604.03 368.61 C 599.89 358.58 602.41 346.58 609.40 338.43 Z" />
<path fill="#131312" d=" M 907.08 341.86 C 909.06 341.22 910.47 344.36 908.53 345.39 C 903.11 346.79 897.44 346.08 891.92 346.66 C 883.29 347.58 874.72 349.44 866.01 349.30 C 857.28 349.27 848.77 351.67 840.05 351.64 C 835.97 351.60 831.87 351.87 827.82 351.40 C 825.79 351.40 825.32 349.23 825.57 347.62 C 831.70 347.27 837.85 348.10 843.99 347.66 C 851.70 347.27 859.30 345.61 867.04 345.62 C 875.43 345.80 883.65 343.81 891.99 343.13 C 897.00 342.60 902.08 342.71 907.08 341.86 Z" />
<path fill="#d65418" d=" M 289.06 354.01 C 292.84 351.87 297.39 352.61 301.09 354.55 C 298.27 357.23 295.75 360.46 292.06 361.98 C 289.08 363.39 285.71 363.18 282.51 363.23 C 283.58 359.55 285.37 355.70 289.06 354.01 Z" />
<path fill="#d65418" d=" M 330.09 360.14 C 332.24 353.81 340.70 351.11 346.19 354.80 C 348.41 356.08 349.76 358.33 350.88 360.55 C 347.42 361.00 343.48 360.44 340.44 362.50 C 339.86 363.54 339.82 365.53 341.23 365.95 C 344.35 367.20 347.86 366.58 351.16 366.69 C 349.62 371.45 345.13 375.40 339.91 374.87 C 332.68 375.07 327.26 366.74 330.09 360.14 Z" />
<path fill="#d65418" d=" M 295.88 368.80 C 299.49 366.19 302.10 362.41 305.00 359.06 C 306.14 362.95 306.47 367.53 303.89 370.94 C 300.81 375.60 294.21 377.17 289.27 374.69 C 286.94 373.58 285.38 371.43 283.78 369.49 C 287.81 369.30 291.91 369.63 295.88 368.80 Z" />
<path fill="#20bb30" d=" M 604.15 374.67 C 605.45 374.23 606.77 373.81 608.09 373.37 C 612.06 378.87 616.01 384.89 622.40 387.83 C 624.54 385.41 626.52 382.26 630.16 382.24 C 634.68 387.21 640.87 391.26 642.56 398.15 C 641.04 400.32 638.28 399.60 636.05 399.76 C 631.34 399.70 626.37 399.94 621.96 398.07 C 619.05 396.81 620.52 393.43 620.82 391.10 C 613.16 388.14 609.06 380.71 604.15 374.67 Z" />
<path fill="#20bb30" d=" M 655.65 408.01 C 654.80 406.00 656.88 404.68 658.61 405.46 C 660.81 407.91 662.88 410.57 665.78 412.26 C 677.25 419.37 688.72 426.47 700.03 433.83 C 717.54 446.60 735.93 458.32 752.03 472.90 C 753.00 472.06 753.58 470.45 755.13 470.59 C 760.36 472.70 763.98 477.25 767.88 481.13 C 769.94 483.35 772.87 486.03 771.34 489.37 C 766.22 489.79 761.02 490.74 755.92 489.70 C 753.20 489.14 750.46 488.63 747.70 488.45 C 747.44 487.85 746.93 486.66 746.68 486.06 C 747.98 482.92 749.77 480.02 751.65 477.20 C 734.24 461.65 714.82 448.64 695.74 435.27 C 685.40 428.52 674.82 422.17 664.25 415.79 C 660.90 413.81 657.76 411.32 655.65 408.01 Z" />
<path fill="#131312" d=" M 163.95 413.83 C 175.96 413.59 187.97 413.82 199.98 413.46 C 207.50 413.17 214.96 414.28 222.46 414.44 C 226.85 414.63 231.29 414.59 235.56 415.78 C 235.63 417.06 235.59 418.34 235.45 419.62 C 226.41 417.83 217.13 418.03 207.97 417.31 C 195.00 417.14 182.02 417.42 169.05 417.35 C 157.68 417.22 146.42 420.51 135.03 419.01 C 131.88 418.47 128.68 418.47 125.50 418.18 C 123.79 417.57 124.45 415.68 124.60 414.35 C 130.14 413.86 135.54 415.56 141.06 415.56 C 148.73 415.69 156.33 414.49 163.95 413.83 Z" />
<path fill="#131312" d=" M 118.17 419.00 C 118.83 417.56 120.59 418.36 121.77 418.23 C 121.69 419.52 121.98 420.99 121.06 422.07 C 117.05 428.00 112.35 433.43 108.27 439.32 C 105.56 443.29 101.16 446.09 99.28 450.59 C 100.68 451.43 102.30 451.85 103.89 452.21 C 122.18 454.55 140.62 452.60 158.98 452.69 C 171.01 452.55 183.04 452.60 195.07 452.42 C 213.97 450.90 232.81 448.44 251.80 448.13 C 247.44 439.00 244.88 428.81 238.18 420.97 C 238.30 420.31 238.53 418.99 238.64 418.33 C 243.68 418.87 244.91 424.88 247.44 428.44 C 250.26 435.28 253.54 441.98 258.15 447.83 C 259.64 449.38 258.43 451.51 258.18 453.31 C 247.22 455.09 236.02 454.00 225.01 455.35 C 213.02 456.39 201.05 457.95 188.99 457.75 C 162.98 457.58 136.96 457.46 110.96 456.67 C 105.67 456.59 100.29 455.80 95.57 453.26 C 93.94 447.62 99.71 443.76 102.91 440.01 C 108.16 433.13 113.47 426.27 118.17 419.00 Z" />
<path fill="#131312" d=" M 179.78 424.83 C 191.85 423.96 204.02 423.16 216.09 424.48 C 219.58 424.99 223.31 424.16 226.61 425.69 C 226.33 426.40 225.77 427.83 225.49 428.55 C 219.97 429.06 214.55 427.47 209.05 427.49 C 197.40 427.39 185.67 427.12 174.14 429.06 C 163.46 430.18 152.66 429.77 142.00 428.64 C 137.84 428.29 133.75 429.23 129.61 429.37 C 129.51 428.12 129.46 426.86 129.39 425.62 C 138.20 423.40 147.14 425.81 156.03 425.87 C 163.95 425.95 171.93 426.17 179.78 424.83 Z" />
<path fill="#131312" d=" M 45.78 439.97 C 45.56 437.28 44.41 434.48 45.75 431.90 C 48.93 433.77 48.31 437.89 48.45 441.02 C 48.07 453.32 48.52 465.63 48.43 477.92 C 49.61 483.96 51.14 489.96 53.13 495.79 C 54.25 499.84 55.16 503.96 56.90 507.80 C 59.33 513.21 60.38 519.23 63.78 524.19 C 66.73 528.49 70.22 532.41 73.87 536.14 C 80.56 542.23 88.57 546.66 95.31 552.70 C 101.19 557.53 106.84 562.65 113.23 566.80 C 123.76 575.05 134.11 583.62 145.74 590.31 C 153.33 594.57 160.14 600.09 167.82 604.22 C 168.91 604.68 170.01 605.13 171.10 605.62 C 173.67 606.86 176.27 608.03 178.89 609.16 C 180.26 609.73 181.61 610.37 182.93 611.06 C 184.54 611.78 186.16 612.49 187.79 613.20 C 189.48 613.82 191.16 614.46 192.84 615.11 C 195.54 616.05 198.22 617.03 200.87 618.11 C 203.22 619.03 205.55 620.03 207.85 621.08 C 209.52 621.74 211.20 622.42 212.88 623.08 C 214.54 623.76 216.20 624.43 217.86 625.11 C 219.54 625.74 221.21 626.40 222.87 627.10 C 226.22 628.37 229.55 629.68 232.81 631.18 C 234.82 631.84 236.83 632.48 238.85 633.09 C 240.18 633.42 241.52 633.75 242.84 634.13 C 244.18 634.43 245.52 634.72 246.85 635.07 C 248.18 635.40 249.52 635.74 250.86 636.09 C 252.19 636.41 253.53 636.73 254.85 637.12 C 260.20 638.14 265.55 639.11 270.92 640.01 C 273.62 640.49 276.28 641.20 278.89 642.09 C 281.27 642.56 283.59 643.26 285.88 644.06 C 287.18 644.40 288.50 644.74 289.80 645.10 C 290.83 645.41 291.85 645.74 292.86 646.09 C 296.53 647.07 300.23 647.95 303.85 649.13 C 305.19 649.41 306.54 649.72 307.88 650.07 C 310.58 650.57 313.24 651.25 315.84 652.16 C 319.17 652.79 322.52 653.40 325.84 654.17 C 344.49 657.74 363.82 655.94 382.26 660.87 C 384.54 661.63 386.84 662.35 389.24 662.67 C 381.42 662.36 373.73 660.69 365.91 660.44 C 359.14 660.25 352.71 657.56 345.93 657.58 C 340.61 657.58 335.27 657.10 330.09 655.87 C 328.07 655.61 326.02 655.56 324.08 654.91 C 322.41 654.62 320.73 654.38 319.08 654.01 C 314.76 653.04 310.49 651.86 306.17 650.86 C 302.46 649.99 298.79 648.98 295.15 647.89 C 292.77 647.35 290.44 646.65 288.12 645.91 C 283.46 644.58 278.79 643.28 274.15 641.88 C 272.47 641.57 270.79 641.24 269.13 640.86 C 267.12 640.62 265.11 640.37 263.13 639.90 C 261.45 639.61 259.76 639.34 258.09 638.99 C 255.11 638.31 252.13 637.66 249.18 636.90 C 247.84 636.56 246.50 636.23 245.16 635.87 C 243.83 635.55 242.49 635.23 241.17 634.88 C 238.79 634.33 236.46 633.61 234.14 632.87 C 232.44 632.25 230.77 631.59 229.12 630.90 C 227.46 630.21 225.80 629.56 224.13 628.92 C 222.48 628.24 220.83 627.56 219.17 626.90 C 217.49 626.23 215.80 625.56 214.13 624.87 C 212.46 624.24 210.80 623.57 209.16 622.89 C 206.77 622.01 204.44 620.99 202.15 619.88 C 200.48 619.24 198.81 618.61 197.18 617.88 C 196.16 617.53 195.15 617.19 194.14 616.85 C 192.45 616.25 190.78 615.61 189.13 614.94 C 187.70 614.42 186.27 613.89 184.86 613.36 C 181.07 611.28 177.04 609.73 173.12 607.94 C 163.25 604.11 154.99 597.40 146.10 591.84 C 134.14 585.29 123.63 576.49 112.95 568.11 C 106.26 563.56 99.85 558.61 93.93 553.10 C 86.77 546.82 78.17 542.32 71.46 535.52 C 67.11 530.55 62.42 525.65 59.70 519.53 C 57.05 513.95 54.86 508.16 52.44 502.48 C 49.91 494.76 48.35 486.76 46.81 478.80 C 45.84 465.88 47.56 452.85 45.78 439.97 Z" />
<path fill="#131312" d=" M 135.50 440.66 C 146.08 440.71 156.37 437.59 166.96 437.76 C 183.76 437.79 200.57 437.70 217.37 437.68 C 217.51 438.92 217.53 440.17 217.44 441.42 C 202.64 441.45 187.84 441.23 173.04 441.40 C 167.73 441.51 162.39 441.26 157.14 442.10 C 150.02 443.00 142.97 444.99 135.73 444.31 C 135.67 443.40 135.55 441.57 135.50 440.66 Z" />
<path fill="#d65418" d=" M 423.49 457.40 C 425.44 451.29 432.03 447.27 438.37 448.37 C 437.18 453.22 433.62 457.23 433.12 462.25 C 434.74 462.72 436.37 463.21 438.01 463.69 C 440.95 459.92 444.04 456.09 445.48 451.45 C 449.12 455.16 450.82 460.57 449.36 465.65 C 447.35 472.48 439.38 477.03 432.53 474.67 C 425.44 472.76 420.77 464.35 423.49 457.40 Z" />
<path fill="#131312" d=" M 594.98 454.55 C 602.68 454.56 610.38 454.07 618.09 454.21 C 619.56 454.04 620.41 455.44 621.42 456.26 C 621.54 462.35 624.54 467.91 624.70 473.99 C 625.51 483.35 626.30 492.73 628.18 501.96 C 629.19 511.32 630.85 520.58 632.12 529.91 C 632.85 534.69 634.38 539.55 633.26 544.41 C 631.70 546.12 629.08 546.21 626.92 546.28 C 616.95 546.31 606.97 546.16 597.00 546.20 C 586.66 546.12 576.38 547.51 566.04 547.26 C 543.84 547.02 521.68 548.46 499.48 548.57 C 498.83 547.85 498.18 547.14 497.54 546.43 C 497.46 541.97 496.72 537.57 496.25 533.14 C 484.18 533.37 472.10 534.01 460.03 533.35 C 445.15 531.30 430.11 530.28 415.08 530.25 C 414.41 529.48 413.75 528.73 413.08 527.98 C 412.98 524.39 414.16 520.99 415.78 517.85 C 417.48 513.96 419.52 510.16 420.55 506.02 C 420.11 500.69 417.94 495.66 417.37 490.34 C 416.30 485.73 414.53 481.32 413.05 476.84 C 411.53 472.31 408.02 468.56 407.56 463.68 C 407.90 463.31 408.59 462.57 408.94 462.20 C 409.51 462.26 410.64 462.39 411.21 462.46 C 415.23 472.14 419.82 481.74 421.84 492.08 C 422.23 495.75 423.53 499.16 425.52 502.24 C 425.69 507.91 423.15 513.32 421.59 518.69 C 420.93 520.47 420.41 522.29 420.15 524.17 C 427.77 524.45 435.41 523.91 443.01 524.57 C 448.68 525.04 454.37 524.71 460.06 524.79 C 471.86 526.07 483.75 525.03 495.59 525.26 C 495.72 513.50 495.07 501.68 496.42 489.98 C 496.52 481.00 496.35 472.01 496.21 463.04 C 496.91 461.56 497.64 459.95 498.94 458.91 C 507.06 456.57 515.64 458.04 523.94 456.96 C 529.97 456.20 536.08 456.72 542.12 456.09 C 559.66 453.94 577.35 454.84 594.98 454.55 Z" />
<path fill="#f4f3ef" d=" M 512.20 461.02 C 525.46 460.34 538.74 459.96 551.95 458.62 C 573.69 457.53 595.47 458.87 617.21 457.88 C 618.61 460.04 618.27 463.26 619.27 465.78 C 622.02 473.60 621.28 482.02 622.68 490.08 C 624.93 504.39 626.59 518.77 628.84 533.08 C 629.46 536.15 629.80 539.27 629.72 542.41 C 616.14 542.49 602.57 542.35 589.00 542.74 C 574.41 544.34 559.70 543.49 545.05 543.83 C 530.51 545.04 515.91 544.04 501.35 544.75 C 498.35 525.65 498.69 506.20 500.22 486.99 C 500.19 478.80 500.39 470.62 500.18 462.44 C 504.11 461.45 508.17 461.31 512.20 461.02 Z" />
<path fill="#131312" d=" M 570.03 465.62 C 583.72 465.37 597.41 465.21 611.09 464.47 C 611.65 464.89 612.77 465.73 613.33 466.15 C 615.23 479.27 618.35 492.24 618.57 505.56 C 619.05 515.13 623.00 525.52 618.35 534.60 C 606.92 535.07 595.34 534.17 584.09 536.64 C 575.83 538.22 567.38 537.37 559.03 537.59 C 549.66 537.81 540.38 536.16 531.02 536.53 C 523.63 536.26 516.37 538.21 508.98 537.71 C 507.32 537.85 505.89 536.99 504.49 536.27 C 504.63 518.84 503.96 501.36 505.21 483.96 C 505.29 478.95 505.16 473.93 504.77 468.93 C 504.44 467.60 505.83 466.34 507.12 466.53 C 518.75 466.77 530.43 467.09 542.05 466.40 C 551.33 465.17 560.70 465.83 570.03 465.62 Z" />
<path fill="#f4f3ef" d=" M 545.36 469.52 C 558.90 468.86 572.47 469.69 586.01 468.88 C 594.02 468.67 602.03 468.88 610.04 468.48 C 611.08 479.38 614.38 489.97 614.63 500.98 C 614.59 510.89 617.80 520.61 616.24 530.54 C 606.10 531.88 595.73 530.31 585.70 532.59 C 576.28 534.73 566.56 534.21 556.99 534.03 C 543.36 533.19 529.66 532.42 516.04 533.72 C 513.47 533.88 510.89 533.78 508.33 533.72 C 508.29 520.17 508.15 506.61 508.38 493.06 C 509.11 485.56 508.58 478.02 509.21 470.51 C 521.26 470.29 533.37 471.04 545.36 469.52 Z" />
<path fill="#d65418" d=" M 407.78 499.06 C 409.28 494.70 413.28 491.99 417.37 490.34 C 417.94 495.66 420.11 500.69 420.55 506.02 C 419.52 510.16 417.48 513.96 415.78 517.85 C 408.71 514.96 404.58 506.19 407.78 499.06 Z" />
<path fill="#d65418" d=" M 421.84 492.08 C 421.76 491.55 421.61 490.50 421.53 489.98 C 428.18 490.45 434.08 495.59 435.10 502.22 C 436.58 510.30 429.75 518.41 421.59 518.69 C 423.15 513.32 425.69 507.91 425.52 502.24 C 423.53 499.16 422.23 495.75 421.84 492.08 Z" />
<path fill="#20bb30" d=" M 789.63 508.95 C 789.50 507.06 789.47 504.86 792.08 505.55 C 808.21 515.50 824.81 524.66 841.64 533.39 C 848.29 536.79 854.55 540.86 860.98 544.65 C 859.94 545.41 858.92 546.16 857.88 546.90 C 843.97 537.76 828.83 530.75 814.25 522.81 C 805.96 518.33 797.94 513.36 789.63 508.95 Z" />
<path fill="#20bb30" d=" M 859.01 547.57 C 860.03 546.81 861.08 546.07 862.11 545.32 C 871.34 551.42 881.49 555.98 890.62 562.23 C 896.45 565.75 902.15 569.47 907.83 573.21 C 912.22 576.78 917.41 579.14 921.98 582.46 C 924.32 582.47 926.67 581.39 928.99 581.87 C 932.79 585.82 936.93 590.31 937.32 596.07 C 937.43 598.44 934.74 599.16 932.87 598.67 C 927.86 597.79 922.89 596.13 918.56 593.44 C 917.26 590.75 919.66 588.18 919.66 585.45 C 903.48 575.29 887.94 564.09 871.22 554.81 C 867.13 552.42 863.06 550.02 859.01 547.57 Z" />
<path fill="#131312" d=" M 608.80 553.71 C 616.48 551.92 624.41 552.45 632.22 552.30 C 635.06 554.82 635.89 558.60 637.13 562.02 C 639.07 567.74 642.36 572.96 643.49 578.96 C 644.23 583.00 646.30 586.57 648.49 589.98 C 648.51 590.59 648.55 591.79 648.57 592.39 C 647.80 592.41 646.27 592.46 645.50 592.48 C 644.80 593.64 644.75 595.75 642.97 595.69 C 636.97 595.78 631.01 596.53 625.01 596.29 C 613.00 596.06 600.96 596.70 588.98 595.66 C 571.96 595.06 554.94 595.63 537.99 597.14 C 528.98 597.82 519.90 596.93 510.96 598.50 C 500.43 600.13 489.63 600.55 479.03 599.39 C 476.38 598.89 477.49 595.97 478.48 594.39 C 480.37 591.30 480.50 587.45 482.69 584.53 C 487.66 577.22 493.28 569.88 494.73 560.92 C 495.97 559.91 497.09 558.36 498.92 558.66 C 504.70 558.55 510.49 558.67 516.27 558.41 C 531.87 558.05 547.49 558.77 563.07 557.82 C 571.99 557.63 581.00 558.12 589.82 556.51 C 596.10 555.30 602.55 555.13 608.80 553.71 Z" />
<path fill="#f4f3ef" d=" M 609.06 559.14 C 615.78 557.70 622.70 558.31 629.51 558.23 C 632.39 567.06 636.69 575.29 640.26 583.85 C 641.21 585.95 642.55 587.84 643.89 589.73 C 629.30 591.02 614.64 590.34 600.01 590.61 C 583.36 590.23 566.65 590.00 550.05 591.51 C 541.37 592.25 532.70 593.31 523.98 593.45 C 514.56 593.55 505.39 596.40 495.96 596.30 C 491.37 596.23 486.77 596.24 482.19 596.07 C 483.93 592.64 484.10 588.55 486.52 585.47 C 491.54 578.44 496.51 571.14 498.68 562.65 C 512.44 562.29 526.20 562.14 539.95 561.84 C 548.94 562.29 557.95 562.25 566.95 562.39 C 574.94 562.47 582.98 562.76 590.90 561.44 C 596.92 560.37 603.07 560.39 609.06 559.14 Z" />
<path fill="#131312" d=" M 523.97 572.26 C 540.77 569.20 557.95 569.05 574.99 569.16 C 585.66 569.34 596.31 568.51 606.98 568.70 C 612.92 568.89 618.99 568.04 624.82 569.48 C 624.95 569.87 625.23 570.65 625.37 571.04 C 624.98 571.62 624.60 572.22 624.23 572.83 C 606.83 571.76 589.40 572.64 571.99 572.46 C 558.46 572.20 544.96 573.17 531.54 574.81 C 525.28 576.15 518.88 576.90 512.48 576.56 C 512.53 575.30 512.59 574.06 512.69 572.81 C 516.44 572.51 520.21 572.61 523.97 572.26 Z" />
<path fill="#131312" d=" M 562.99 580.24 C 581.10 578.65 599.30 578.78 617.46 578.58 C 617.46 579.81 617.47 581.06 617.43 582.30 C 604.61 582.60 591.78 582.23 578.96 582.56 C 556.14 584.25 533.23 584.91 510.35 584.49 C 510.20 583.15 510.29 581.82 510.52 580.52 C 528.00 580.97 545.51 580.78 562.99 580.24 Z" />
<path fill="#20bb30" d=" M 946.60 605.09 C 946.05 603.30 947.18 601.89 949.05 602.27 C 954.29 604.12 958.38 608.05 962.89 611.15 C 970.92 616.51 979.10 621.65 987.56 626.33 C 994.35 630.04 1000.15 635.27 1006.93 638.99 C 1015.53 643.33 1023.14 649.45 1032.19 652.92 C 1034.39 652.13 1036.82 649.94 1039.07 651.94 C 1043.55 655.48 1048.52 658.79 1051.38 663.89 C 1050.97 665.08 1050.57 666.27 1050.20 667.48 C 1046.35 668.44 1042.53 666.80 1038.67 666.78 C 1037.13 668.73 1034.90 669.23 1032.60 668.38 C 1032.06 664.86 1032.44 661.31 1032.69 657.78 C 1028.02 654.78 1022.71 652.97 1018.16 649.79 C 1014.35 647.25 1010.40 644.94 1006.37 642.79 C 999.29 639.06 993.32 633.62 986.34 629.74 C 976.19 624.02 966.06 618.19 956.66 611.30 C 953.59 608.76 949.87 607.27 946.60 605.09 Z" />
<path fill="#f4f3ef" d=" M 1147.07 612.80 C 1157.62 611.94 1168.20 612.22 1178.78 612.18 C 1178.74 621.79 1178.88 631.43 1177.88 641.00 C 1177.34 650.67 1177.80 660.40 1176.56 670.02 C 1176.24 675.76 1176.39 681.51 1176.26 687.26 C 1166.88 688.31 1157.44 688.71 1148.00 688.69 C 1130.35 688.69 1112.70 688.69 1095.05 688.69 C 1089.31 688.63 1083.47 689.02 1077.88 687.50 C 1074.51 686.57 1071.03 686.15 1067.55 686.15 C 1067.41 677.09 1067.32 668.02 1067.29 658.97 C 1067.68 658.55 1068.47 657.73 1068.87 657.32 C 1068.60 655.78 1067.31 654.64 1067.22 653.10 C 1067.07 639.97 1067.55 626.83 1067.11 613.70 C 1080.74 613.28 1094.39 613.45 1108.03 613.39 C 1121.05 613.29 1134.05 612.68 1147.07 612.80 Z" />
<path fill="#131312" d=" M 1075.22 621.28 C 1076.07 620.58 1076.75 619.31 1078.05 619.45 C 1097.38 619.54 1116.72 619.65 1136.05 619.38 C 1146.03 618.45 1156.07 618.28 1166.08 618.72 C 1167.78 620.40 1169.74 622.37 1169.18 625.02 C 1168.43 633.66 1168.84 642.37 1170.11 650.95 C 1170.60 656.29 1170.20 661.68 1170.34 667.05 C 1170.20 671.16 1170.80 675.44 1169.36 679.39 C 1168.35 680.74 1166.53 680.52 1165.06 680.70 C 1155.73 680.95 1146.40 681.57 1137.07 680.87 C 1126.38 681.74 1115.67 680.75 1104.98 680.86 C 1095.60 681.71 1086.17 682.00 1076.77 681.38 C 1076.04 680.60 1075.31 679.82 1074.60 679.06 C 1076.80 666.81 1074.27 654.36 1074.52 642.02 C 1074.93 635.14 1072.90 628.49 1072.35 621.70 C 1073.06 621.59 1074.50 621.38 1075.22 621.28 Z" />
<path fill="#131312" d=" M 556.81 625.93 C 561.27 625.87 566.12 624.47 570.27 626.76 C 574.94 628.93 579.14 631.97 583.88 634.00 C 590.01 636.13 593.20 642.43 595.45 648.08 C 596.23 654.08 595.68 660.27 594.07 666.12 C 592.87 670.50 592.53 675.63 588.80 678.76 C 584.08 683.96 578.29 688.87 571.04 689.68 C 563.59 689.86 555.77 689.49 549.01 686.01 C 543.51 682.43 537.82 678.24 535.43 671.86 C 532.31 665.34 532.46 657.99 532.95 650.95 C 534.10 645.33 535.43 639.11 540.01 635.21 C 545.03 631.26 550.24 626.79 556.81 625.93 Z" />
<path fill="#f4f3ef" d=" M 1077.07 625.47 C 1096.72 625.16 1116.38 625.54 1136.03 625.23 C 1144.94 624.36 1153.90 624.36 1162.84 624.59 C 1162.85 631.75 1162.99 638.93 1163.54 646.07 C 1165.27 655.59 1164.22 665.30 1164.46 674.92 C 1152.33 675.94 1140.13 675.36 1127.98 675.88 C 1118.07 676.65 1108.09 675.75 1098.21 676.95 C 1091.74 677.88 1085.18 677.74 1078.68 677.58 C 1079.96 673.17 1079.15 668.51 1079.25 664.00 C 1078.18 651.16 1078.86 638.24 1077.07 625.47 Z" />
<path fill="#f4f3ef" d=" M 552.19 629.15 C 555.31 627.85 558.72 628.61 561.99 628.66 C 564.28 628.85 566.76 628.24 568.90 629.37 C 574.27 631.82 579.16 635.21 584.52 637.70 C 589.46 641.04 593.37 646.85 592.88 653.02 C 593.24 660.16 590.83 667.05 588.87 673.80 C 584.88 679.58 579.40 685.36 572.09 686.43 C 563.92 686.94 555.01 686.75 547.98 682.02 C 539.99 676.96 534.43 667.54 535.22 657.95 C 535.30 649.89 536.37 640.52 542.97 635.02 C 545.69 632.58 548.67 630.29 552.19 629.15 Z" />
<path fill="#131312" d=" M 471.53 664.73 C 473.11 659.69 472.81 654.08 475.72 649.50 C 478.33 650.61 481.40 650.24 483.82 651.87 C 486.28 653.14 488.36 654.97 490.45 656.77 C 492.13 658.33 493.84 659.87 495.40 661.56 C 496.10 661.61 497.49 661.72 498.19 661.78 C 498.36 662.32 498.71 663.40 498.88 663.95 C 500.82 664.60 501.81 666.25 501.72 668.26 C 496.98 670.85 491.53 671.48 486.53 673.40 C 482.15 674.76 478.03 676.79 473.87 678.67 C 472.19 679.38 469.72 680.37 468.56 678.35 C 467.99 675.75 469.20 673.24 469.84 670.79 C 470.72 672.43 472.15 673.51 474.03 673.69 C 473.04 672.77 472.02 671.86 471.02 670.98 C 471.00 669.29 471.00 667.61 471.00 665.94 C 461.59 665.21 452.16 665.19 442.75 664.64 C 452.35 664.55 461.91 664.82 471.53 664.73 Z" />
<path fill="#3d3d3b" d=" M 382.26 660.87 C 387.53 660.72 392.74 661.79 398.01 661.76 C 407.04 661.66 415.94 663.62 424.97 663.43 C 430.93 663.28 436.82 664.27 442.75 664.64 C 452.16 665.19 461.59 665.21 471.00 665.94 C 471.00 667.61 471.00 669.29 471.02 670.98 C 472.02 671.86 473.04 672.77 474.03 673.69 C 472.15 673.51 470.72 672.43 469.84 670.79 C 469.90 669.40 469.93 668.03 469.92 666.66 C 459.93 667.16 449.91 666.55 439.91 666.30 C 427.98 664.70 415.89 665.07 403.93 663.70 C 399.03 663.44 394.11 663.29 389.24 662.67 C 386.84 662.35 384.54 661.63 382.26 660.87 Z" />
<path fill="#3d3d3b" d=" M 488.99 662.17 C 490.58 661.58 491.17 662.11 490.77 663.75 C 489.16 664.33 488.56 663.81 488.99 662.17 Z" />
<path fill="#131312" d=" M 1077.15 702.17 C 1088.78 700.96 1100.41 702.27 1112.01 703.18 C 1127.31 703.48 1142.63 703.22 1157.94 703.33 C 1167.87 703.33 1177.78 704.29 1187.72 704.34 C 1187.62 705.42 1187.54 706.50 1187.45 707.60 C 1186.00 707.65 1184.55 707.71 1183.12 707.79 C 1183.39 708.04 1183.91 708.54 1184.18 708.79 C 1185.26 714.42 1188.50 719.27 1190.19 724.69 C 1191.73 729.02 1192.74 733.70 1195.74 737.33 C 1198.13 740.69 1202.46 743.53 1201.49 748.24 C 1196.79 749.83 1191.82 749.02 1186.99 749.22 C 1181.94 749.22 1176.98 750.32 1171.95 750.38 C 1159.97 750.75 1147.95 750.75 1135.99 749.83 C 1126.99 749.62 1117.97 749.96 1108.99 749.26 C 1098.07 748.13 1087.07 748.74 1076.13 747.94 C 1070.09 747.73 1064.05 748.46 1058.01 748.00 C 1053.08 747.55 1047.98 748.05 1043.24 746.35 C 1043.22 744.90 1042.91 743.25 1043.99 742.09 C 1047.07 738.31 1050.50 734.61 1052.19 729.94 C 1054.73 722.15 1059.68 715.41 1062.00 707.53 C 1060.63 707.28 1059.40 706.86 1058.18 706.27 C 1058.29 705.59 1058.50 704.23 1058.60 703.54 C 1064.72 702.38 1070.98 702.83 1077.15 702.17 Z" />
<path fill="#f4f3ef" d=" M 1066.48 706.70 C 1079.30 705.77 1092.24 704.52 1105.06 706.21 C 1121.35 706.91 1137.66 706.50 1153.96 706.67 C 1162.42 706.45 1170.83 707.59 1179.29 707.61 C 1180.92 711.43 1182.16 715.41 1184.00 719.16 C 1186.83 724.72 1187.82 731.01 1190.68 736.57 C 1192.46 739.68 1195.06 742.24 1197.03 745.25 C 1185.94 744.77 1175.02 747.06 1163.94 746.84 C 1148.63 747.05 1133.33 746.20 1118.01 746.31 C 1099.37 745.04 1080.69 744.46 1062.00 744.34 C 1057.22 744.42 1052.45 744.04 1047.72 743.48 C 1050.68 740.15 1053.34 736.49 1055.20 732.43 C 1058.12 723.49 1063.98 715.82 1066.48 706.70 Z" />
<path fill="#3d3d3b" d=" M 830.30 707.34 C 831.35 707.40 832.42 707.47 833.50 707.56 C 833.46 708.50 833.43 709.45 833.40 710.41 C 832.40 710.49 831.41 710.57 830.43 710.66 C 830.37 709.55 830.33 708.44 830.30 707.34 Z" />
<path fill="#131312" d=" M 1074.60 718.44 C 1074.43 717.07 1074.01 714.66 1076.04 714.54 C 1082.94 713.08 1090.06 713.95 1097.06 713.72 C 1108.43 714.32 1119.65 716.66 1131.05 716.92 C 1144.61 718.42 1158.41 716.17 1171.87 718.52 C 1171.57 719.65 1172.04 722.19 1170.05 721.66 C 1158.75 720.17 1147.35 720.80 1136.00 720.50 C 1124.59 720.36 1113.29 718.76 1101.97 717.63 C 1092.83 717.19 1083.68 717.53 1074.60 718.44 Z" />
<path fill="#131312" d=" M 1142.03 730.26 C 1151.10 729.82 1160.21 729.42 1169.16 727.73 C 1171.13 727.97 1170.56 729.89 1170.54 731.30 C 1160.08 732.85 1149.50 733.34 1138.95 733.54 C 1117.65 735.87 1096.17 733.87 1074.82 735.46 C 1072.25 735.75 1072.50 732.92 1073.61 731.45 C 1089.71 730.88 1105.82 731.48 1121.92 731.31 C 1128.65 731.50 1135.30 730.19 1142.03 730.26 Z" />
</svg>
