<?xml version="1.0" encoding="UTF-8" ?>
<!DOCTYPE svg PUBLIC "-//W3C//DTD SVG 1.1//EN" "http://www.w3.org/Graphics/SVG/1.1/DTD/svg11.dtd">
<svg width="1155pt" height="866pt" viewBox="0 0 1155 866" version="1.1" xmlns="http://www.w3.org/2000/svg">
<path fill="#f5f4f0" d=" M 0.00 0.00 L 1155.00 0.00 L 1155.00 866.00 L 0.00 866.00 L 0.00 0.00 Z" />
<path fill="#171717" d=" M 454.97 112.90 C 457.22 111.59 459.08 109.18 461.92 109.28 C 464.25 109.15 466.62 109.09 468.94 109.49 C 476.51 112.52 483.30 117.63 487.58 124.67 C 486.72 125.97 485.86 127.28 485.05 128.61 C 484.31 124.87 482.54 121.38 479.95 118.58 C 478.75 117.37 477.15 116.68 475.71 115.82 C 471.49 112.29 465.53 112.14 460.44 113.49 C 457.44 115.14 456.30 118.58 455.69 121.73 C 455.57 122.24 455.31 123.24 455.19 123.75 C 454.67 123.60 453.64 123.30 453.12 123.15 C 452.74 127.11 451.86 131.03 451.86 135.02 C 452.44 137.73 453.78 140.20 454.89 142.73 C 456.69 142.75 458.52 142.81 460.34 142.76 C 458.53 142.96 456.74 143.17 454.96 143.38 C 456.73 149.99 459.35 156.61 464.21 161.59 C 463.73 162.02 462.78 162.88 462.30 163.32 C 461.12 162.09 460.07 160.76 459.02 159.44 C 454.38 161.24 449.34 160.68 444.49 160.80 C 445.68 162.18 446.66 163.84 448.22 164.85 C 450.48 165.42 452.87 165.18 455.19 165.29 C 452.61 165.30 450.55 166.72 450.40 169.43 L 449.99 169.44 C 449.10 168.50 448.41 167.36 447.33 166.65 C 442.55 165.87 437.68 165.58 432.84 165.58 C 434.84 167.68 437.25 169.70 440.28 169.90 C 440.11 170.36 439.77 171.27 439.60 171.73 C 429.41 175.25 417.70 175.96 407.74 171.27 C 404.53 167.54 399.77 165.64 396.68 161.81 C 391.63 164.93 386.40 167.88 380.53 169.12 C 380.18 168.68 379.49 167.79 379.14 167.35 L 378.89 167.02 C 384.99 166.01 390.32 162.83 395.47 159.59 C 393.98 153.92 395.45 147.94 397.30 142.53 C 398.63 139.38 400.18 136.11 403.06 134.08 C 408.34 130.28 413.38 125.90 419.62 123.74 C 425.32 121.79 430.99 119.45 437.04 118.83 C 443.36 118.19 449.48 116.08 454.97 112.90 Z" />
<path fill="#000000" d=" M 579.11 114.22 C 582.63 113.02 584.82 109.37 588.86 109.36 C 589.24 110.61 589.65 111.86 590.10 113.10 C 590.57 114.75 591.81 115.99 592.84 117.31 C 592.24 117.28 591.04 117.22 590.44 117.19 C 590.45 119.68 590.41 122.17 590.32 124.65 C 584.56 123.56 578.68 122.22 573.71 118.95 C 573.15 117.34 575.08 116.76 576.08 116.05 C 576.98 115.27 577.95 114.57 579.11 114.22 Z" />
<path fill="#f5f4f0" d=" M 460.44 113.49 C 465.53 112.14 471.49 112.29 475.71 115.82 C 479.74 121.67 483.06 128.08 484.38 135.13 C 484.56 136.53 484.72 137.94 484.84 139.35 C 480.32 139.75 475.77 139.18 471.26 139.64 C 465.91 140.60 460.52 141.24 455.13 141.87 C 455.07 135.15 454.97 128.42 455.69 121.73 C 456.30 118.58 457.44 115.14 460.44 113.49 Z" />
<path fill="#242424" d=" M 590.10 113.10 C 590.32 113.31 590.77 113.73 590.99 113.94 C 592.20 115.41 594.38 114.55 596.03 114.81 C 605.35 114.56 614.63 115.70 623.95 115.63 C 631.55 115.46 639.01 117.07 646.56 117.65 C 654.18 118.58 661.64 120.53 669.24 121.63 C 680.78 123.66 692.59 124.14 703.97 127.09 C 719.63 130.66 735.62 132.83 750.95 137.75 C 755.94 139.22 761.09 140.12 766.03 141.79 C 780.94 146.82 795.88 151.85 811.11 155.86 C 818.68 157.88 825.91 161.06 833.64 162.54 C 839.74 163.73 845.58 165.86 851.49 167.75 C 861.27 170.54 871.16 173.67 879.78 179.23 C 882.04 180.52 883.51 182.90 883.21 185.57 C 880.10 183.41 877.96 180.10 874.63 178.22 C 865.42 171.82 854.15 170.04 843.81 166.29 C 840.92 165.33 837.95 164.66 835.03 163.86 C 823.45 161.47 812.52 156.77 800.98 154.20 C 787.61 150.14 774.40 145.63 761.10 141.38 C 751.33 139.28 741.96 135.57 732.08 133.97 C 721.65 131.66 711.13 129.86 700.75 127.35 C 689.60 124.91 678.15 124.42 666.95 122.26 C 656.80 120.39 646.66 118.43 636.37 117.49 C 621.92 115.45 607.35 117.61 592.84 117.31 C 591.81 115.99 590.57 114.75 590.10 113.10 Z" />
<path fill="#dd4e0c" d=" M 527.96 118.03 C 530.69 112.99 537.03 112.97 541.97 113.85 C 545.03 114.37 547.80 116.77 548.32 119.91 C 548.77 122.97 547.78 125.95 547.14 128.91 C 550.19 132.05 551.62 136.29 554.15 139.81 C 555.93 142.48 556.52 147.00 554.05 149.35 C 551.16 149.57 548.25 149.17 545.44 148.52 C 545.45 147.29 545.47 146.07 545.50 144.85 C 542.77 144.93 543.38 143.14 544.20 141.37 C 543.43 141.37 541.89 141.38 541.12 141.38 C 541.07 140.08 541.86 139.02 542.44 137.93 C 541.52 136.44 540.70 134.89 539.60 133.53 C 536.41 132.35 532.50 132.65 529.93 130.10 C 526.47 127.18 526.53 121.93 527.96 118.03 Z" />
<path fill="#61615f" d=" M 475.71 115.82 C 477.15 116.68 478.75 117.37 479.95 118.58 C 481.70 122.43 483.34 126.34 484.70 130.35 C 484.79 129.91 484.97 129.05 485.05 128.61 C 485.86 127.28 486.72 125.97 487.58 124.67 C 489.62 129.09 490.93 133.81 491.24 138.67 C 490.39 138.69 488.69 138.74 487.84 138.76 C 487.82 135.35 487.81 131.95 487.60 128.55 C 487.25 130.22 486.93 131.90 486.73 133.60 C 486.15 133.98 484.97 134.75 484.38 135.13 C 483.06 128.08 479.74 121.67 475.71 115.82 Z" />
<path fill="#f5f4f0" d=" M 447.20 120.53 C 449.07 118.93 450.86 117.07 453.51 116.88 C 452.60 117.52 451.69 118.15 450.77 118.76 C 450.77 119.96 450.77 121.15 450.77 122.35 C 448.82 122.48 446.62 123.23 445.02 121.71 C 443.03 123.49 440.22 123.46 437.76 124.01 C 438.48 122.93 439.19 121.85 439.90 120.77 C 441.63 120.35 443.35 119.91 445.07 119.47 C 445.65 119.91 446.30 121.36 447.20 120.53 Z" />
<path fill="#fef6f3" d=" M 533.70 118.33 C 534.99 118.44 536.28 118.55 537.58 118.66 C 537.61 120.25 537.61 121.85 537.55 123.44 C 536.30 123.42 535.06 123.39 533.82 123.36 C 533.52 122.78 532.93 121.62 532.64 121.04 C 532.90 120.37 533.44 119.01 533.70 118.33 Z" />
<path fill="#f5f4f0" d=" M 479.95 118.58 C 482.54 121.38 484.31 124.87 485.05 128.61 C 484.97 129.05 484.79 129.91 484.70 130.35 C 483.34 126.34 481.70 122.43 479.95 118.58 Z" />
<path fill="#f5f4f0" d=" M 429.54 121.54 C 432.11 121.31 434.68 120.99 437.26 120.76 C 436.41 121.98 435.88 123.51 434.72 124.47 C 433.35 124.83 431.95 125.03 430.57 125.29 C 430.23 124.04 429.88 122.79 429.54 121.54 Z" />
<path fill="#6a6a68" d=" M 455.19 123.75 C 455.31 123.24 455.57 122.24 455.69 121.73 C 454.97 128.42 455.07 135.15 455.13 141.87 C 460.52 141.24 465.91 140.60 471.26 139.64 C 474.39 139.79 477.51 140.11 480.62 140.48 C 473.92 141.72 467.09 141.93 460.34 142.76 C 458.52 142.81 456.69 142.75 454.89 142.73 C 453.78 140.20 452.44 137.73 451.86 135.02 C 451.86 131.03 452.74 127.11 453.12 123.15 C 453.64 123.30 454.67 123.60 455.19 123.75 Z" />
<path fill="#f5f4f0" d=" M 403.11 136.09 C 409.44 129.16 418.01 124.72 427.02 122.39 C 427.48 122.92 427.95 123.45 428.41 123.99 C 422.22 128.92 414.76 131.99 408.88 137.37 C 406.97 137.07 405.49 137.99 404.90 139.81 C 403.50 143.73 398.90 144.92 397.29 148.76 C 398.72 144.34 399.99 139.68 403.11 136.09 Z" />
<path fill="#f5f4f0" d=" M 444.93 125.39 C 446.80 124.58 448.89 124.78 450.87 124.51 C 450.76 130.55 450.87 136.61 451.82 142.60 C 448.35 143.14 444.84 143.42 441.34 143.69 C 441.48 139.99 441.42 136.22 442.61 132.66 C 444.66 132.14 449.26 134.21 448.66 130.60 C 446.77 130.63 444.89 130.69 443.01 130.77 C 443.56 128.95 444.07 127.10 444.93 125.39 Z" />
<path fill="#f5f4f0" d=" M 435.69 126.72 C 438.30 126.20 440.91 125.64 443.54 125.14 C 442.86 127.22 442.19 129.29 441.48 131.35 C 438.68 132.31 435.88 133.29 433.07 134.20 C 433.76 131.65 434.66 129.16 435.69 126.72 Z" />
<path fill="#f5f4f0" d=" M 426.51 128.38 C 428.92 127.67 431.40 127.31 433.91 127.11 C 433.13 129.79 432.26 132.45 431.28 135.07 C 430.21 135.40 429.14 135.74 428.08 136.10 C 426.06 137.04 424.04 138.01 422.01 138.93 C 422.56 135.06 424.56 131.68 426.51 128.38 Z" />
<path fill="#f4f3ef" d=" M 486.73 133.60 C 486.93 131.90 487.25 130.22 487.60 128.55 C 487.81 131.95 487.82 135.35 487.84 138.76 C 487.51 138.76 486.85 138.78 486.51 138.78 C 486.56 137.05 486.60 135.32 486.73 133.60 Z" />
<path fill="#f5f4f0" d=" M 411.99 145.23 C 412.44 138.18 417.09 131.54 424.06 129.64 C 422.02 133.30 421.74 137.69 419.42 141.18 C 416.78 142.22 414.40 143.77 411.99 145.23 Z" />
<path fill="#f5f4f0" d=" M 432.69 135.67 C 435.36 134.69 438.08 133.83 440.83 133.04 C 440.68 136.75 440.41 140.45 440.26 144.17 C 437.08 145.10 433.81 145.68 430.55 146.22 C 431.02 143.44 431.47 140.66 431.77 137.86 C 432.00 137.32 432.46 136.22 432.69 135.67 Z" />
<path fill="#060606" d=" M 484.38 135.13 C 484.97 134.75 486.15 133.98 486.73 133.60 C 486.60 135.32 486.56 137.05 486.51 138.78 C 486.85 138.78 487.51 138.76 487.84 138.76 C 488.69 138.74 490.39 138.69 491.24 138.67 C 495.86 138.56 500.51 138.50 505.12 138.90 C 505.43 139.34 506.06 140.24 506.38 140.69 C 501.31 140.70 496.25 140.30 491.19 140.26 C 490.09 140.23 489.00 140.22 487.91 140.21 L 487.08 140.20 L 486.26 140.19 C 486.31 143.66 486.36 147.13 486.31 150.60 C 485.76 154.80 484.78 158.94 484.40 163.17 C 484.97 161.31 485.48 159.44 485.88 157.53 C 487.19 156.65 488.53 155.77 489.80 154.82 C 489.29 158.10 488.29 161.41 486.08 163.97 C 485.18 165.28 483.68 166.26 483.23 167.83 C 485.68 172.25 489.59 175.70 491.62 180.39 C 496.69 188.59 498.65 198.21 503.28 206.63 C 504.50 209.36 506.46 211.97 506.56 215.05 C 505.05 217.89 502.13 219.66 499.86 221.85 C 497.84 220.29 497.25 217.76 496.36 215.52 C 494.86 211.44 492.84 207.57 491.51 203.43 C 492.03 202.39 492.57 201.36 493.12 200.34 C 493.57 200.78 494.48 201.66 494.93 202.10 C 496.70 196.41 493.05 190.70 489.90 186.20 C 490.46 189.24 491.07 192.29 491.16 195.38 C 489.69 193.08 488.29 190.72 486.81 188.43 C 486.76 188.98 486.67 190.09 486.62 190.64 L 485.73 190.42 C 485.20 188.77 484.61 187.13 484.17 185.46 L 483.74 185.46 C 481.47 180.41 480.13 174.82 476.73 170.38 C 473.04 169.01 470.31 172.26 467.09 173.29 C 457.82 174.71 448.87 170.58 439.60 171.73 C 439.77 171.27 440.11 170.36 440.28 169.90 C 443.51 169.60 446.75 169.51 449.99 169.44 L 450.40 169.43 C 450.55 166.72 452.61 165.30 455.19 165.29 C 458.03 165.23 460.87 164.97 463.70 164.72 C 463.35 164.37 462.65 163.67 462.30 163.32 C 462.78 162.88 463.73 162.02 464.21 161.59 C 467.76 165.86 473.58 167.30 478.92 166.51 C 480.01 166.39 480.71 165.42 481.11 164.48 C 483.75 156.68 485.02 148.47 484.76 140.23 C 483.38 140.31 482.00 140.40 480.62 140.48 C 477.51 140.11 474.39 139.79 471.26 139.64 C 475.77 139.18 480.32 139.75 484.84 139.35 C 484.72 137.94 484.56 136.53 484.38 135.13 Z" />
<path fill="#f5f4f0" d=" M 426.83 137.73 C 428.17 137.21 429.51 136.68 430.85 136.14 C 430.56 139.86 430.08 143.55 429.38 147.21 C 426.47 148.03 423.53 148.75 420.60 149.48 C 420.89 146.59 421.06 143.67 421.71 140.83 C 422.98 139.22 425.09 138.68 426.83 137.73 Z" />
<path fill="#f5f4f0" d=" M 403.41 149.71 C 403.57 143.53 408.96 139.98 413.03 136.20 C 412.05 139.52 411.21 142.87 410.50 146.26 C 408.45 147.80 406.45 149.44 404.85 151.45 C 404.36 150.87 403.88 150.29 403.41 149.71 Z" />
<path fill="#585856" d=" M 486.26 140.19 L 487.08 140.20 C 487.17 143.46 487.30 146.73 487.52 149.99 C 487.72 146.73 487.84 143.47 487.91 140.21 C 489.00 140.22 490.09 140.23 491.19 140.26 C 490.76 145.11 490.89 150.05 489.80 154.82 C 488.53 155.77 487.19 156.65 485.88 157.53 C 486.27 155.24 486.33 152.92 486.31 150.60 C 486.36 147.13 486.31 143.66 486.26 140.19 Z" />
<path fill="#f4f3ef" d=" M 487.08 140.20 L 487.91 140.21 C 487.84 143.47 487.72 146.73 487.52 149.99 C 487.30 146.73 487.17 143.46 487.08 140.20 Z" />
<path fill="#f5f4f0" d=" M 460.34 142.76 C 467.09 141.93 473.92 141.72 480.62 140.48 C 482.00 140.40 483.38 140.31 484.76 140.23 C 485.02 148.47 483.75 156.68 481.11 164.48 C 480.71 165.42 480.01 166.39 478.92 166.51 C 473.58 167.30 467.76 165.86 464.21 161.59 C 459.35 156.61 456.73 149.99 454.96 143.38 C 456.74 143.17 458.53 142.96 460.34 142.76 Z" />
<path fill="#f5f4f0" d=" M 411.51 147.62 C 414.13 145.22 417.00 142.90 420.49 141.93 C 420.15 145.01 420.43 148.48 418.24 150.99 C 418.79 151.40 419.88 152.22 420.43 152.63 C 419.67 152.68 418.13 152.79 417.37 152.84 C 417.51 152.17 417.79 150.81 417.92 150.13 C 415.78 150.73 413.65 151.34 411.52 151.94 C 411.52 150.86 411.51 148.70 411.51 147.62 Z" />
<path fill="#f5f4f0" d=" M 441.41 144.75 C 444.95 144.35 448.47 143.72 452.05 143.57 C 453.32 148.49 455.02 153.36 457.84 157.64 C 453.27 160.09 447.90 159.77 442.90 159.49 C 441.38 154.72 440.94 149.73 441.41 144.75 Z" />
<path fill="#f5f4f0" d=" M 430.53 147.82 C 433.76 146.84 437.02 145.93 440.33 145.27 C 440.16 150.18 440.18 155.19 442.19 159.79 C 438.23 159.74 434.36 158.95 430.51 158.14 C 430.12 154.71 430.21 151.25 430.53 147.82 Z" />
<path fill="#f5f4f0" d=" M 398.89 152.19 C 399.73 149.95 400.64 147.68 402.58 146.13 C 402.51 149.19 402.38 152.24 402.31 155.30 C 400.09 155.20 398.32 155.88 397.99 158.37 C 396.87 156.77 397.17 154.76 397.04 152.94 C 397.51 152.75 398.43 152.38 398.89 152.19 Z" />
<path fill="#f5f4f0" d=" M 420.61 151.65 C 422.89 149.42 426.53 149.42 429.40 148.29 C 429.37 151.45 429.34 154.61 429.33 157.78 C 426.27 156.36 420.18 156.20 420.61 151.65 Z" />
<path fill="#f4f3ef" d=" M 402.95 153.35 C 406.36 153.39 408.33 150.64 410.54 148.50 C 410.47 149.41 410.35 151.21 410.29 152.11 C 408.30 153.05 406.19 153.70 404.18 154.53 L 402.95 153.35 Z" />
<path fill="#f4f3ef" d=" M 486.31 150.60 C 486.33 152.92 486.27 155.24 485.88 157.53 C 485.48 159.44 484.97 161.31 484.40 163.17 C 484.78 158.94 485.76 154.80 486.31 150.60 Z" />
<path fill="#f5f4f0" d=" M 411.75 153.16 C 414.46 153.26 416.94 154.44 419.53 155.12 C 419.68 157.32 419.74 159.53 419.79 161.74 C 416.95 161.04 414.14 160.23 411.35 159.36 C 411.39 157.29 411.28 155.19 411.75 153.16 Z" />
<path fill="#f4f3ef" d=" M 404.92 156.72 C 406.67 155.71 408.51 154.87 410.35 154.03 C 410.36 155.30 410.38 157.84 410.39 159.10 C 408.62 158.32 406.15 158.38 404.92 156.72 Z" />
<path fill="#f5f4f0" d=" M 420.60 155.97 C 423.55 156.79 426.45 157.82 429.39 158.72 C 429.98 160.43 430.54 162.14 431.10 163.86 C 428.01 163.60 424.88 163.32 421.99 162.12 C 419.71 160.98 421.09 157.93 420.60 155.97 Z" />
<path fill="#f5f4f0" d=" M 398.24 160.43 C 399.59 159.62 400.94 158.82 402.31 158.04 C 403.18 160.46 403.95 162.92 404.58 165.42 C 402.23 164.07 400.10 162.39 398.24 160.43 Z" />
<path fill="#f5f4f0" d=" M 444.49 160.80 C 449.34 160.68 454.38 161.24 459.02 159.44 C 460.07 160.76 461.12 162.09 462.30 163.32 C 462.65 163.67 463.35 164.37 463.70 164.72 C 460.87 164.97 458.03 165.23 455.19 165.29 C 452.87 165.18 450.48 165.42 448.22 164.85 C 446.66 163.84 445.68 162.18 444.49 160.80 Z" />
<path fill="#f5f4f0" d=" M 403.92 159.15 C 406.07 159.65 408.21 160.25 410.36 160.81 C 410.55 161.31 410.94 162.31 411.14 162.80 C 411.88 166.15 413.44 169.25 415.57 171.94 C 412.63 170.90 409.26 170.20 407.12 167.72 C 405.21 165.27 404.69 162.08 403.92 159.15 Z" />
<path fill="#f5f4f0" d=" M 433.16 164.23 C 431.10 163.48 431.54 160.88 431.04 159.18 C 434.34 159.93 437.66 160.62 441.05 160.76 C 443.83 160.52 444.82 163.53 446.09 165.36 C 441.76 165.33 437.43 164.94 433.16 164.23 Z" />
<path fill="#f5f4f0" d=" M 411.62 161.02 C 414.44 161.43 417.24 162.04 420.01 162.77 C 421.24 165.97 423.18 170.78 427.49 169.77 C 427.40 169.34 427.22 168.48 427.12 168.05 C 424.58 167.45 422.66 165.75 421.74 163.29 C 422.77 163.53 424.82 164.03 425.84 164.27 C 427.55 164.48 429.26 164.60 430.96 164.92 C 433.02 166.42 433.74 169.06 435.05 171.15 C 429.30 172.63 423.35 172.83 417.46 172.24 C 417.73 171.55 418.01 170.87 418.29 170.20 C 414.14 169.08 412.18 164.97 411.62 161.02 Z" />
<path fill="#000000" d=" M 363.67 173.56 C 367.19 171.06 368.49 166.64 371.90 164.04 C 373.37 165.39 374.86 166.78 375.67 168.66 C 376.80 168.16 377.81 167.18 379.14 167.35 C 379.49 167.79 380.18 168.68 380.53 169.12 C 378.72 169.88 376.94 170.70 375.19 171.58 C 375.46 173.81 375.76 176.05 376.19 178.26 C 375.50 179.45 374.82 180.65 374.17 181.87 C 369.61 181.70 365.04 181.70 360.48 181.48 C 360.25 181.16 359.78 180.51 359.55 180.18 C 360.32 177.65 361.35 175.05 363.67 173.56 Z" />
<path fill="#f4f3ef" d=" M 432.84 165.58 C 437.68 165.58 442.55 165.87 447.33 166.65 C 448.41 167.36 449.10 168.50 449.99 169.44 C 446.75 169.51 443.51 169.60 440.28 169.90 C 437.25 169.70 434.84 167.68 432.84 165.58 Z" />
<path fill="#f5f4f0" d=" M 451.19 167.96 C 451.88 167.40 452.58 166.85 453.28 166.29 C 458.56 166.65 463.90 166.85 469.10 167.95 C 469.28 168.32 469.65 169.05 469.83 169.41 C 465.29 172.29 459.75 170.77 454.76 170.56 C 454.35 168.79 453.16 167.92 451.19 167.96 Z" />
<path fill="#040404" d=" M 300.89 169.69 C 302.34 169.60 303.74 169.25 305.07 168.63 C 308.21 168.55 312.02 169.46 313.24 172.74 C 314.55 177.88 313.91 183.68 310.18 187.68 C 311.21 188.69 312.24 189.70 313.26 190.74 C 314.23 189.69 315.20 188.65 316.19 187.61 C 321.22 188.39 324.92 184.39 328.41 181.44 C 331.93 178.45 334.97 174.91 336.91 170.69 C 337.38 170.65 338.31 170.58 338.77 170.54 C 338.75 173.75 336.28 176.03 334.16 178.12 C 329.65 182.08 325.87 186.98 320.39 189.70 C 323.04 194.01 325.73 198.32 327.86 202.91 C 333.92 202.73 338.80 198.86 344.11 196.46 C 347.21 195.09 349.61 192.36 353.04 191.73 C 352.89 194.61 349.99 195.67 347.90 196.98 C 344.17 199.21 339.94 200.32 335.89 201.80 C 333.39 202.71 330.84 203.58 328.16 203.80 C 331.68 212.40 332.92 221.58 334.42 230.67 C 333.80 230.54 332.57 230.29 331.95 230.16 C 330.52 221.49 329.61 212.64 326.45 204.38 C 322.02 203.61 317.52 203.76 313.05 203.60 C 315.81 208.21 318.29 213.17 319.16 218.52 C 319.68 224.25 320.48 229.96 320.35 235.73 C 319.82 235.79 318.75 235.91 318.22 235.97 C 318.17 227.83 317.99 219.43 315.33 211.67 C 313.89 207.19 310.22 204.22 307.04 201.02 C 307.21 199.72 307.39 198.43 307.56 197.14 C 309.13 195.68 310.58 194.10 311.90 192.41 C 310.23 190.95 308.59 189.46 306.97 187.97 C 304.99 187.18 302.79 186.41 301.67 184.45 C 298.46 180.14 299.98 174.51 300.89 169.69 Z" />
<path fill="#f5f4f0" d=" M 302.27 171.23 C 305.16 171.59 310.11 169.90 310.97 173.89 C 311.70 177.60 312.08 182.41 308.96 185.20 C 306.25 186.27 303.77 183.76 302.62 181.55 C 301.74 178.20 302.29 174.65 302.27 171.23 Z" />
<path fill="#020202" d=" M 925.25 175.29 C 929.08 174.36 934.29 174.61 936.46 178.45 C 937.41 182.05 935.75 185.60 934.26 188.79 C 938.67 190.40 943.48 188.91 948.03 189.96 C 952.31 190.15 956.15 192.00 959.93 193.85 C 963.74 192.58 966.18 189.06 968.97 186.36 C 969.59 186.91 970.23 187.47 970.87 188.03 C 968.05 190.70 964.95 193.04 961.73 195.20 C 963.64 197.55 965.90 199.69 967.25 202.45 C 967.98 204.73 967.62 207.19 967.65 209.54 C 969.84 211.02 972.18 213.06 975.05 212.28 C 978.58 210.66 979.94 206.84 980.83 203.35 C 984.07 203.41 988.74 205.13 988.86 208.88 C 986.64 208.22 984.76 206.86 982.79 205.72 C 981.63 209.32 979.38 212.62 975.99 214.43 C 972.81 215.46 969.59 214.00 967.03 212.20 C 964.92 216.19 963.04 220.96 958.46 222.67 C 954.43 225.18 949.60 225.04 945.06 224.69 C 940.59 228.82 938.12 235.34 940.29 241.27 C 940.03 241.77 939.50 242.78 939.24 243.29 C 935.48 243.64 931.86 244.66 928.27 245.77 C 928.55 241.44 934.29 242.06 937.45 241.27 C 937.38 237.65 936.85 233.78 938.46 230.39 C 939.40 228.18 940.80 226.22 942.04 224.18 C 935.59 222.79 930.75 217.59 928.60 211.53 C 927.62 207.25 928.20 202.73 929.92 198.72 C 923.59 197.48 918.31 193.30 911.98 192.08 C 909.02 191.27 905.84 191.31 903.00 190.17 L 902.22 188.42 C 905.90 188.13 909.45 189.25 913.00 190.07 C 919.36 191.42 924.90 195.10 931.13 196.86 C 932.41 194.75 934.09 192.95 935.89 191.28 C 931.99 190.89 927.82 193.18 924.24 190.78 C 919.34 188.22 921.54 181.94 921.58 177.57 C 922.11 177.50 923.17 177.37 923.70 177.30 C 923.49 180.55 923.07 183.84 923.68 187.07 C 925.26 189.67 928.52 189.53 931.19 189.54 C 932.77 186.50 934.68 183.30 934.46 179.74 C 932.80 176.58 928.56 177.50 925.65 177.27 C 925.55 176.77 925.35 175.78 925.25 175.29 Z" />
<path fill="#0fb720" d=" M 1012.02 177.20 C 1013.26 177.64 1014.39 178.32 1015.47 179.12 C 1018.52 187.60 1016.99 196.74 1017.70 205.53 C 1022.43 208.25 1024.15 213.92 1023.87 219.10 C 1023.81 221.75 1021.13 223.19 1019.01 224.13 C 1015.25 224.80 1011.22 224.59 1007.64 223.23 C 1001.02 219.45 1002.96 208.54 1009.48 205.68 C 1009.50 201.44 1009.43 197.21 1009.19 192.98 C 1009.26 191.30 1007.85 190.12 1007.00 188.85 C 1007.39 184.46 1009.46 180.69 1012.02 177.20 Z" />
<path fill="#222221" d=" M 489.90 186.20 C 493.05 190.70 496.70 196.41 494.93 202.10 C 494.48 201.66 493.57 200.78 493.12 200.34 C 492.57 201.36 492.03 202.39 491.51 203.43 C 489.80 199.23 487.53 195.04 486.62 190.64 C 486.67 190.09 486.76 188.98 486.81 188.43 C 488.29 190.72 489.69 193.08 491.16 195.38 C 491.07 192.29 490.46 189.24 489.90 186.20 Z" />
<path fill="#f5f4f0" d=" M 309.18 197.81 C 312.19 195.07 314.72 191.83 317.96 189.34 C 320.79 193.94 324.28 198.25 325.91 203.48 C 320.31 202.48 314.34 202.83 309.11 200.32 C 309.11 199.48 309.14 198.64 309.18 197.81 Z" />
<path fill="#f5f4f0" d=" M 937.84 192.36 C 944.56 190.83 951.76 192.38 957.93 195.28 C 954.71 197.03 951.08 197.69 947.68 198.96 C 951.59 201.78 955.85 198.38 959.36 196.54 C 962.16 199.03 965.51 201.95 965.45 206.04 C 965.97 210.52 963.39 214.44 961.07 218.01 C 955.68 223.92 946.77 223.52 939.85 220.98 C 934.17 218.48 929.74 212.38 930.50 206.02 C 930.74 200.59 934.21 196.10 937.84 192.36 Z" />
<path fill="#343433" d=" M 188.06 198.53 C 202.99 199.17 217.91 198.43 232.84 198.65 C 243.16 199.81 253.57 199.59 263.94 199.53 C 270.26 199.53 276.83 197.85 282.94 200.21 C 284.95 201.37 284.42 204.11 284.49 206.05 C 284.14 213.54 284.37 221.07 283.22 228.50 C 281.82 238.93 282.16 249.52 282.83 260.00 C 283.27 261.78 281.42 262.64 279.99 262.83 C 275.56 263.40 271.07 263.16 266.61 263.23 C 269.81 262.61 272.98 261.86 276.19 261.23 C 277.56 260.98 278.94 260.69 280.32 260.40 C 280.34 253.91 280.02 247.40 280.73 240.93 C 282.05 228.13 284.08 215.14 281.78 202.32 C 267.98 199.89 253.93 201.13 240.01 200.38 C 231.36 199.46 222.64 199.64 213.95 199.90 C 206.07 200.56 198.13 200.01 190.26 200.94 C 188.93 214.61 190.35 228.38 189.17 242.06 C 188.62 247.40 188.19 252.78 188.45 258.15 C 188.10 257.03 187.74 255.93 187.38 254.83 C 187.16 256.89 186.94 258.96 186.83 261.04 C 186.33 252.31 188.07 243.66 188.41 234.96 C 188.52 222.82 188.74 210.66 188.06 198.53 Z" />
<path fill="#f5f4f0" d=" M 190.26 200.94 C 198.13 200.01 206.07 200.56 213.95 199.90 C 222.64 199.64 231.36 199.46 240.01 200.38 C 253.93 201.13 267.98 199.89 281.78 202.32 C 284.08 215.14 282.05 228.13 280.73 240.93 C 280.02 247.40 280.34 253.91 280.32 260.40 C 278.94 260.69 277.56 260.98 276.19 261.23 C 255.83 262.94 235.37 262.68 214.96 262.53 C 206.37 261.72 197.74 261.34 189.15 260.44 C 188.98 259.87 188.63 258.72 188.45 258.15 C 188.19 252.78 188.62 247.40 189.17 242.06 C 190.35 228.38 188.93 214.61 190.26 200.94 Z" />
<path fill="#61605f" d=" M 471.15 218.06 C 474.17 215.42 475.56 211.17 479.30 209.36 C 479.22 210.25 479.06 212.02 478.98 212.91 C 476.11 217.05 471.75 219.80 468.39 223.49 C 463.00 228.97 459.27 235.72 454.94 242.00 C 449.51 250.71 443.35 259.14 439.91 268.91 C 436.42 279.45 432.89 289.98 430.15 300.74 C 433.11 300.50 436.07 300.04 439.05 299.96 C 441.15 300.11 443.24 300.38 445.35 300.53 C 440.22 301.70 434.78 301.32 429.75 302.67 C 426.04 311.65 424.72 321.33 422.76 330.78 C 420.09 342.99 418.05 355.32 415.49 367.56 C 409.04 405.36 410.66 443.83 410.42 482.01 C 410.81 499.83 414.16 517.39 417.32 534.88 C 420.85 550.32 424.83 565.66 429.04 580.93 C 431.07 590.57 434.80 599.70 437.65 609.10 C 440.57 619.13 444.74 628.72 448.53 638.44 C 450.22 642.68 451.41 647.13 453.42 651.25 C 452.83 651.52 452.25 651.79 451.67 652.06 C 446.47 635.45 438.69 619.77 434.12 602.95 C 430.35 592.85 427.86 582.37 425.14 571.96 C 417.07 543.55 410.81 514.49 408.87 484.96 C 408.75 468.67 408.87 452.38 408.85 436.08 C 408.80 413.97 410.44 391.88 413.46 369.99 C 416.93 353.04 419.98 336.01 423.57 319.09 C 424.51 313.39 426.41 307.94 427.97 302.41 C 412.67 303.98 397.39 305.85 382.12 307.72 C 366.81 309.90 351.25 309.82 335.97 312.21 C 318.54 315.91 301.68 321.92 284.20 325.40 C 273.56 328.66 262.54 330.85 252.34 335.42 C 241.75 340.67 230.61 344.68 219.97 349.83 C 215.95 351.64 212.78 354.95 208.55 356.33 C 208.68 352.44 213.06 351.49 215.78 349.78 C 228.53 344.16 241.50 339.03 254.09 333.04 C 268.01 327.77 282.57 324.40 297.00 320.87 C 307.38 318.15 317.68 315.15 328.06 312.43 C 344.07 308.29 360.75 308.82 377.06 306.83 C 394.23 304.62 411.42 302.69 428.62 300.81 C 431.29 290.07 434.82 279.58 438.28 269.08 C 441.35 259.69 447.15 251.57 452.36 243.28 C 458.13 234.53 463.53 225.38 471.15 218.06 Z" />
<path fill="#f4f3ef" d=" M 503.49 211.06 C 503.75 212.25 504.06 213.43 504.38 214.62 C 503.48 215.50 502.57 216.38 501.66 217.25 C 501.56 216.57 501.36 215.20 501.26 214.52 C 503.65 214.68 503.79 212.97 503.49 211.06 Z" />
<path fill="#4d4d4c" d=" M 498.13 212.00 C 499.50 211.16 500.78 213.54 499.84 214.56 C 498.47 215.37 497.17 213.01 498.13 212.00 Z" />
<path fill="#f5f4f0" d=" M 1011.17 215.09 C 1013.50 213.33 1017.45 215.00 1017.51 218.05 C 1018.25 221.49 1013.78 223.98 1011.11 221.95 C 1008.76 220.47 1008.77 216.52 1011.17 215.09 Z" />
<path fill="#40403e" d=" M 206.49 218.31 C 206.90 218.24 207.72 218.09 208.13 218.02 C 208.45 220.84 207.90 223.65 207.65 226.44 C 208.72 227.20 209.75 228.02 210.73 228.90 C 209.93 229.12 208.33 229.56 207.53 229.77 C 207.10 232.68 208.01 236.03 206.18 238.54 L 204.79 238.16 C 205.42 235.31 205.93 232.43 205.94 229.50 C 203.82 229.49 201.70 229.48 199.58 229.46 C 198.91 226.22 198.58 222.93 198.41 219.64 L 198.40 219.36 C 198.84 219.48 199.74 219.70 200.19 219.81 C 200.15 222.23 200.10 224.65 200.05 227.08 C 201.99 227.09 203.93 227.12 205.87 227.16 C 205.94 224.21 205.53 221.16 206.49 218.31 Z" />
<path fill="#0d0d0d" d=" M 245.83 218.77 C 246.35 218.71 247.38 218.58 247.89 218.52 C 247.19 223.99 243.87 228.83 244.03 234.47 C 245.51 234.49 246.99 234.50 248.48 234.51 C 248.51 235.07 248.58 236.19 248.61 236.75 C 246.56 236.64 244.19 237.09 242.48 235.68 C 241.66 234.11 242.48 232.43 242.89 230.88 C 244.22 226.93 244.89 222.82 245.83 218.77 Z" />
<path fill="#767573" d=" M 198.41 219.64 C 198.58 222.93 198.91 226.22 199.58 229.46 C 200.18 232.07 200.21 234.78 199.79 237.43 L 199.80 237.65 C 199.85 237.60 199.95 237.50 200.00 237.45 L 199.90 239.61 C 199.44 239.22 198.52 238.45 198.06 238.06 C 198.30 231.93 197.58 225.75 198.41 219.64 Z" />
<path fill="#131313" d=" M 221.87 220.78 C 223.02 220.29 225.93 218.19 225.53 221.17 C 223.66 223.85 220.04 223.20 217.22 223.32 C 217.32 225.38 215.93 227.96 217.80 229.54 C 219.35 229.46 220.88 229.22 222.39 228.83 C 222.43 229.70 222.48 230.58 222.52 231.47 C 220.58 231.69 218.63 231.80 216.69 231.81 C 216.69 233.51 216.70 235.21 216.69 236.91 C 218.51 236.87 220.33 236.82 222.15 236.77 C 222.26 237.20 222.46 238.05 222.57 238.48 C 219.91 239.09 217.09 239.63 214.51 238.43 C 216.15 232.82 215.41 226.97 215.23 221.23 C 217.43 221.16 219.82 221.84 221.87 220.78 Z" />
<path fill="#080808" d=" M 232.45 220.36 C 233.02 220.32 234.16 220.22 234.73 220.18 C 232.57 224.72 230.12 229.38 230.35 234.57 C 232.95 234.80 235.74 233.67 238.19 234.95 C 235.62 236.70 231.85 237.61 229.15 235.65 C 227.72 235.16 228.55 233.52 228.70 232.47 C 230.09 228.48 230.65 224.20 232.45 220.36 Z" />
<path fill="#070707" d=" M 260.36 221.61 C 264.17 220.98 268.46 222.06 271.11 224.97 C 275.13 231.77 266.84 242.35 259.42 238.28 C 256.03 236.20 256.03 231.55 257.29 228.24 C 259.69 229.59 257.20 234.36 260.06 236.03 C 265.63 239.50 272.32 231.58 269.54 226.36 C 267.26 223.40 263.13 223.06 259.70 223.57 C 259.65 224.55 259.56 226.51 259.51 227.49 C 258.00 227.30 256.49 227.06 255.01 226.76 C 256.33 224.70 257.78 222.20 260.36 221.61 Z" />
<path fill="#070707" d=" M 318.93 237.61 C 323.56 235.25 329.06 234.77 333.34 231.50 C 337.61 235.15 336.40 241.05 336.53 246.00 C 336.28 253.43 337.32 261.00 335.21 268.26 C 337.49 269.79 341.61 269.39 342.57 272.29 C 338.97 272.86 334.75 271.32 332.52 268.39 C 336.33 260.78 335.57 252.17 335.36 243.94 C 335.19 240.53 334.35 237.18 333.11 234.00 C 328.51 235.47 323.93 239.85 318.93 237.61 Z" />
<path fill="#30302f" d=" M 199.80 237.65 L 199.79 237.43 L 200.00 237.45 C 199.95 237.50 199.85 237.60 199.80 237.65 Z" />
<path fill="#0b0b0b" d=" M 318.28 238.78 C 319.28 238.79 320.29 238.80 321.30 238.82 C 324.21 244.42 324.16 250.97 323.54 257.08 C 321.79 262.57 320.38 268.27 317.31 273.21 C 319.76 275.98 323.82 276.96 325.60 280.34 C 321.61 280.76 318.66 277.34 315.90 274.95 C 313.71 272.58 316.86 270.01 317.73 267.76 C 320.62 261.12 323.56 253.80 321.88 246.44 C 321.38 243.60 319.75 241.18 318.28 238.78 Z" />
<path fill="#1d1d1c" d=" M 187.38 254.83 C 187.74 255.93 188.10 257.03 188.45 258.15 C 188.63 258.72 188.98 259.87 189.15 260.44 C 191.60 261.21 194.07 261.91 196.52 262.66 C 193.44 262.57 188.27 265.04 186.83 261.04 C 186.94 258.96 187.16 256.89 187.38 254.83 Z" />
<path fill="#585856" d=" M 189.15 260.44 C 197.74 261.34 206.37 261.72 214.96 262.53 C 235.37 262.68 255.83 262.94 276.19 261.23 C 272.98 261.86 269.81 262.61 266.61 263.23 C 252.77 264.25 238.85 263.86 224.97 264.01 C 219.28 264.31 213.58 263.90 207.91 263.33 C 204.13 262.91 200.27 263.42 196.52 262.66 C 194.07 261.91 191.60 261.21 189.15 260.44 Z" />
<path fill="#080808" d=" M 657.60 287.30 C 662.47 282.49 668.87 277.54 676.10 278.51 C 676.43 278.94 677.10 279.79 677.44 280.22 C 681.24 280.68 684.99 281.89 688.43 283.59 C 696.47 288.79 700.77 298.13 709.16 302.92 C 716.18 307.00 725.09 307.09 731.27 312.74 C 734.51 316.34 736.84 320.68 738.41 325.26 C 747.99 326.84 757.63 328.26 766.93 331.15 C 770.40 332.17 773.91 333.16 777.13 334.87 C 786.43 339.93 796.01 344.58 806.07 347.95 C 801.67 348.00 797.83 345.76 793.90 344.15 C 787.48 341.31 781.27 338.05 775.05 334.80 C 763.28 330.19 750.76 328.06 738.33 326.09 C 738.14 331.57 739.64 337.79 736.26 342.60 C 736.98 342.96 738.43 343.69 739.15 344.05 C 736.05 346.41 731.78 346.21 728.73 348.72 C 722.72 353.08 715.02 352.95 707.95 352.68 C 699.69 352.94 691.91 349.22 685.48 344.33 C 680.24 341.79 674.82 339.59 669.88 336.46 C 665.73 332.47 659.32 332.15 655.43 327.75 C 653.36 328.43 651.20 328.64 649.06 328.76 C 648.36 329.48 647.67 330.19 646.96 330.89 C 646.52 331.30 645.63 332.12 645.18 332.53 C 644.94 331.84 644.45 330.47 644.21 329.78 C 643.00 331.55 641.83 333.34 640.70 335.16 C 641.77 335.40 642.85 335.65 643.93 335.91 C 638.76 343.08 633.86 350.46 628.15 357.21 C 626.53 359.19 624.95 361.22 623.88 363.55 C 623.45 363.06 623.02 362.57 622.61 362.08 C 620.47 364.26 618.63 366.72 617.14 369.38 C 618.94 367.92 620.13 365.90 621.37 363.98 C 621.63 365.03 621.84 366.10 621.95 367.19 C 620.64 368.62 619.43 370.13 618.17 371.60 C 616.07 370.87 612.77 370.64 612.24 368.01 C 611.65 365.48 614.07 364.02 615.54 362.43 C 618.14 360.08 620.04 357.12 622.35 354.51 L 621.88 353.15 C 622.54 354.15 623.14 355.20 623.72 356.27 C 621.34 358.57 619.26 361.21 617.81 364.20 C 620.93 361.13 623.30 357.41 625.99 353.98 C 625.45 353.26 624.92 352.55 624.40 351.84 C 626.41 349.65 628.08 347.18 629.67 344.67 C 633.59 338.84 638.02 333.30 641.26 327.06 C 640.13 323.60 640.50 319.91 641.48 316.47 L 642.42 315.76 C 641.49 318.64 640.97 322.00 642.97 324.56 C 643.34 321.38 643.27 318.17 643.43 314.98 L 643.45 314.95 C 643.69 314.41 644.19 313.34 644.44 312.80 C 645.40 315.90 645.35 319.17 645.69 322.37 C 647.36 323.73 649.07 325.50 651.41 325.43 C 654.19 325.73 657.23 325.49 659.36 323.44 C 664.31 319.61 667.37 313.99 669.30 308.13 C 670.30 305.65 671.38 303.18 672.03 300.58 C 672.53 301.82 673.04 303.07 673.56 304.32 C 672.66 306.25 671.97 308.27 671.45 310.33 C 673.51 308.25 674.86 305.63 675.60 302.81 L 676.79 302.22 C 675.79 304.58 674.93 306.98 674.02 309.38 C 676.64 309.87 679.25 310.42 681.90 310.76 C 682.69 308.35 683.50 305.94 684.28 303.53 C 681.99 303.01 679.69 302.53 677.45 301.89 C 680.03 300.72 682.91 300.80 685.70 300.70 C 685.95 301.17 686.44 302.11 686.69 302.58 C 688.49 305.31 690.61 307.82 693.03 310.02 C 693.15 308.23 693.28 306.44 693.42 304.66 C 691.79 303.18 690.15 301.73 688.63 300.15 C 688.34 299.78 687.75 299.05 687.46 298.69 C 686.91 299.09 685.82 299.90 685.27 300.30 C 685.37 299.41 685.56 297.63 685.66 296.74 C 684.46 295.30 683.17 293.93 681.72 292.76 C 680.06 291.63 678.22 290.81 676.36 290.09 C 676.25 289.60 676.03 288.63 675.92 288.15 C 675.77 287.59 675.48 286.47 675.34 285.91 C 674.82 285.59 673.78 284.94 673.27 284.61 C 671.20 284.31 669.17 284.42 667.16 284.97 C 667.88 284.41 668.60 283.85 669.32 283.30 C 670.16 283.31 671.85 283.33 672.69 283.34 C 672.53 282.85 672.21 281.86 672.05 281.37 C 666.59 281.33 663.76 286.41 660.73 290.11 C 659.52 290.87 658.30 291.59 657.08 292.32 C 657.24 290.65 657.42 288.97 657.60 287.30 Z" />
<path fill="#f5f4f0" d=" M 674.46 279.63 C 675.25 280.58 676.00 281.55 676.75 282.55 C 680.72 282.61 684.44 284.50 688.01 286.09 C 694.94 291.79 700.22 299.47 708.04 304.11 C 713.64 307.66 720.34 308.78 726.12 311.97 C 732.20 314.60 734.95 321.41 736.14 327.50 C 736.55 331.34 736.66 335.27 735.99 339.09 C 735.20 336.35 734.08 333.70 733.53 330.90 C 733.45 327.61 735.02 324.47 734.23 321.15 C 732.46 321.14 731.43 321.99 731.13 323.71 C 728.93 323.40 726.58 322.49 725.55 320.38 C 725.48 318.09 725.79 315.81 725.76 313.52 C 725.17 313.54 723.98 313.59 723.39 313.62 C 723.77 315.45 724.14 317.26 724.43 319.12 C 721.15 316.89 718.26 314.15 715.12 311.74 C 713.23 310.63 714.16 307.13 711.33 307.18 C 711.31 308.05 711.28 309.79 711.26 310.67 C 711.01 310.47 710.51 310.08 710.26 309.88 C 708.02 309.29 705.72 308.79 703.68 307.70 C 702.72 305.73 703.31 301.42 699.99 302.49 L 697.94 303.97 C 699.21 304.81 700.48 305.63 701.74 306.51 C 699.09 306.85 697.42 304.52 695.60 303.06 C 695.56 300.29 695.85 297.48 695.17 294.78 C 694.60 294.73 693.44 294.63 692.86 294.58 C 693.15 296.81 693.40 299.06 693.46 301.32 C 691.13 298.99 686.81 296.90 687.82 292.99 C 688.01 290.86 688.32 288.74 688.30 286.61 C 687.71 286.63 686.52 286.67 685.92 286.69 C 685.73 288.82 685.75 290.96 685.73 293.11 C 683.85 291.65 681.82 290.41 679.98 288.92 C 679.03 286.97 678.25 284.94 677.32 282.99 C 676.85 283.27 675.90 283.82 675.43 284.10 C 675.09 282.61 674.75 281.12 674.46 279.63 Z" />
<path fill="#f5f4f0" d=" M 660.73 290.11 C 663.76 286.41 666.59 281.33 672.05 281.37 C 672.21 281.86 672.53 282.85 672.69 283.34 C 671.85 283.33 670.16 283.31 669.32 283.30 C 668.60 283.85 667.88 284.41 667.16 284.97 C 669.17 284.42 671.20 284.31 673.27 284.61 C 673.32 289.95 673.11 295.33 672.03 300.58 C 671.38 303.18 670.30 305.65 669.30 308.13 C 663.65 307.38 658.02 306.54 652.39 305.70 C 654.49 302.09 656.49 298.42 658.29 294.65 C 659.07 293.12 659.88 291.61 660.73 290.11 Z" />
<path fill="#424241" d=" M 673.27 284.61 C 673.78 284.94 674.82 285.59 675.34 285.91 C 675.48 286.47 675.77 287.59 675.92 288.15 C 676.03 288.63 676.25 289.60 676.36 290.09 C 678.22 290.81 680.06 291.63 681.72 292.76 C 681.30 292.77 680.48 292.81 680.06 292.82 C 679.77 293.45 679.17 294.72 678.87 295.35 C 678.33 294.09 677.79 292.83 677.26 291.58 C 677.02 293.09 676.78 294.59 676.56 296.10 C 676.17 294.99 675.79 293.89 675.42 292.79 C 675.13 294.18 674.87 295.59 674.61 296.99 C 673.41 293.14 671.51 298.54 674.01 299.50 L 675.09 300.73 C 674.62 301.94 674.06 303.12 673.56 304.32 C 673.04 303.07 672.53 301.82 672.03 300.58 C 673.11 295.33 673.32 289.95 673.27 284.61 Z" />
<path fill="#a1a09d" d=" M 675.34 285.91 C 675.48 286.47 675.77 287.59 675.92 288.15 C 675.77 287.59 675.48 286.47 675.34 285.91 Z" />
<path fill="#51514f" d=" M 649.48 296.18 C 652.03 293.09 654.64 290.02 657.60 287.30 C 657.42 288.97 657.24 290.65 657.08 292.32 C 658.30 291.59 659.52 290.87 660.73 290.11 C 659.88 291.61 659.07 293.12 658.29 294.65 C 655.79 296.75 653.79 299.39 651.16 301.34 C 652.37 299.07 653.48 296.74 654.56 294.41 C 653.49 295.61 652.45 296.83 651.41 298.05 C 650.76 297.43 650.11 296.80 649.48 296.18 Z" />
<path fill="#7e7d7b" d=" M 676.56 296.10 C 676.78 294.59 677.02 293.09 677.26 291.58 C 677.79 292.83 678.33 294.09 678.87 295.35 C 678.53 296.96 678.20 298.58 677.85 300.20 C 680.17 300.30 682.50 300.46 684.83 300.66 L 685.27 300.30 C 685.82 299.90 686.91 299.09 687.46 298.69 C 687.75 299.05 688.34 299.78 688.63 300.15 C 688.34 299.86 687.76 299.29 687.47 299.00 C 687.27 299.90 686.89 301.69 686.69 302.58 C 686.44 302.11 685.95 301.17 685.70 300.70 C 682.91 300.80 680.03 300.72 677.45 301.89 C 677.28 301.97 676.95 302.14 676.79 302.22 L 675.60 302.81 C 675.45 302.10 675.28 301.40 675.09 300.73 L 674.01 299.50 C 674.16 298.87 674.46 297.62 674.61 296.99 C 674.87 295.59 675.13 294.18 675.42 292.79 C 675.79 293.89 676.17 294.99 676.56 296.10 Z" />
<path fill="#f5f4f0" d=" M 680.06 292.82 C 680.48 292.81 681.30 292.77 681.72 292.76 C 683.17 293.93 684.46 295.30 685.66 296.74 C 685.56 297.63 685.37 299.41 685.27 300.30 L 684.83 300.66 C 682.50 300.46 680.17 300.30 677.85 300.20 C 678.20 298.58 678.53 296.96 678.87 295.35 C 679.17 294.72 679.77 293.45 680.06 292.82 Z" />
<path fill="#8f8e8c" d=" M 651.41 298.05 C 652.45 296.83 653.49 295.61 654.56 294.41 C 653.48 296.74 652.37 299.07 651.16 301.34 C 650.44 302.55 649.68 303.74 648.94 304.94 C 647.95 305.27 646.97 305.60 646.00 305.93 C 645.79 305.35 645.37 304.17 645.16 303.59 C 646.22 300.91 647.76 298.48 649.48 296.18 C 650.11 296.80 650.76 297.43 651.41 298.05 Z" />
<path fill="#6a6a68" d=" M 651.16 301.34 C 653.79 299.39 655.79 296.75 658.29 294.65 C 656.49 298.42 654.49 302.09 652.39 305.70 C 658.02 306.54 663.65 307.38 669.30 308.13 C 667.37 313.99 664.31 319.61 659.36 323.44 C 657.23 325.49 654.19 325.73 651.41 325.43 C 658.10 321.63 663.90 316.24 668.00 309.70 C 662.61 308.83 657.25 307.68 651.80 307.35 C 650.08 309.47 648.84 311.93 647.53 314.31 C 648.08 312.06 648.55 309.79 649.02 307.53 C 650.22 307.11 651.44 306.69 652.66 306.27 C 651.41 305.82 650.17 305.38 648.94 304.94 C 649.68 303.74 650.44 302.55 651.16 301.34 Z" />
<path fill="#1f1f1e" d=" M 674.01 299.50 C 671.51 298.54 673.41 293.14 674.61 296.99 C 674.46 297.62 674.16 298.87 674.01 299.50 Z" />
<path fill="#5b5a59" d=" M 493.96 296.83 C 514.32 296.50 534.67 295.54 555.04 295.81 C 569.10 295.42 583.04 297.45 596.97 299.01 C 610.12 301.06 623.39 302.43 636.47 304.91 C 635.49 305.08 634.51 305.26 633.54 305.45 C 632.02 305.72 630.49 305.40 629.00 305.17 C 619.03 303.25 608.89 302.43 598.88 300.75 C 588.27 299.47 577.65 298.00 566.97 297.47 C 542.32 296.84 517.67 297.83 493.03 298.33 C 477.16 299.52 461.22 299.55 445.35 300.53 C 443.24 300.38 441.15 300.11 439.05 299.96 C 457.26 297.60 475.69 298.45 493.96 296.83 Z" />
<path fill="#f4f3ef" d=" M 675.09 300.73 C 675.28 301.40 675.45 302.10 675.60 302.81 C 674.86 305.63 673.51 308.25 671.45 310.33 C 671.97 308.27 672.66 306.25 673.56 304.32 C 674.06 303.12 674.62 301.94 675.09 300.73 Z" />
<path fill="#f5f4f0" d=" M 687.47 299.00 C 687.76 299.29 688.34 299.86 688.63 300.15 C 690.15 301.73 691.79 303.18 693.42 304.66 C 693.28 306.44 693.15 308.23 693.03 310.02 C 690.61 307.82 688.49 305.31 686.69 302.58 C 686.89 301.69 687.27 299.90 687.47 299.00 Z" />
<path fill="#f5f4f0" d=" M 676.79 302.22 C 676.95 302.14 677.28 301.97 677.45 301.89 C 679.69 302.53 681.99 303.01 684.28 303.53 C 683.50 305.94 682.69 308.35 681.90 310.76 C 679.25 310.42 676.64 309.87 674.02 309.38 C 674.93 306.98 675.79 304.58 676.79 302.22 Z" />
<path fill="#292928" d=" M 636.47 304.91 C 639.33 304.59 643.96 307.26 645.16 303.59 C 645.37 304.17 645.79 305.35 646.00 305.93 C 646.97 305.60 647.95 305.27 648.94 304.94 C 650.17 305.38 651.41 305.82 652.66 306.27 C 651.44 306.69 650.22 307.11 649.02 307.53 C 648.55 309.79 648.08 312.06 647.53 314.31 C 646.67 316.94 646.10 319.64 645.69 322.37 C 645.35 319.17 645.40 315.90 644.44 312.80 C 645.08 310.67 645.59 308.51 645.92 306.31 C 644.06 308.80 643.18 311.85 643.45 314.95 L 643.43 314.98 C 643.18 315.18 642.68 315.57 642.42 315.76 L 641.48 316.47 C 641.69 313.05 643.04 309.85 643.93 306.57 C 640.44 306.40 636.98 305.96 633.54 305.45 C 634.51 305.26 635.49 305.08 636.47 304.91 Z" />
<path fill="#f4f3ef" d=" M 685.70 304.94 C 687.74 307.92 689.99 310.79 692.97 312.91 C 691.68 312.76 689.11 312.44 687.83 312.28 L 687.21 311.68 C 685.87 311.56 684.53 311.45 683.21 311.34 C 684.04 309.21 684.88 307.08 685.70 304.94 Z" />
<path fill="#f5f4f0" d=" M 695.54 306.26 C 697.45 307.57 699.44 308.78 701.49 309.89 C 701.44 311.84 701.39 313.80 701.31 315.75 C 698.86 314.34 696.64 312.57 694.64 310.58 C 694.95 309.14 695.25 307.70 695.54 306.26 Z" />
<path fill="#f4f3ef" d=" M 643.45 314.95 C 643.18 311.85 644.06 308.80 645.92 306.31 C 645.59 308.51 645.08 310.67 644.44 312.80 C 644.19 313.34 643.69 314.41 643.45 314.95 Z" />
<path fill="#f5f4f0" d=" M 647.53 314.31 C 648.84 311.93 650.08 309.47 651.80 307.35 C 657.25 307.68 662.61 308.83 668.00 309.70 C 663.90 316.24 658.10 321.63 651.41 325.43 C 649.07 325.50 647.36 323.73 645.69 322.37 C 646.10 319.64 646.67 316.94 647.53 314.31 Z" />
<path fill="#f5f4f0" d=" M 670.09 312.07 C 670.33 311.53 670.80 310.45 671.03 309.91 C 671.35 310.38 672.01 311.32 672.33 311.78 C 672.81 311.41 673.77 310.67 674.25 310.30 C 675.94 311.93 677.60 313.60 679.36 315.16 C 678.35 317.43 677.39 319.90 675.11 321.20 C 673.67 318.39 672.10 315.65 670.17 313.16 C 669.91 313.82 669.40 315.14 669.14 315.80 C 670.79 318.08 673.50 320.12 673.83 323.02 C 672.77 323.99 671.85 325.61 670.27 325.64 C 668.32 324.19 667.01 322.03 665.27 320.35 C 667.05 318.86 669.03 317.18 668.86 314.62 C 669.26 313.77 669.67 312.92 670.09 312.07 Z" />
<path fill="#f5f4f0" d=" M 703.67 310.46 C 706.37 311.26 709.06 312.05 711.80 312.76 C 711.80 314.68 711.79 316.61 711.74 318.54 C 709.07 317.53 706.34 316.65 703.55 316.06 C 703.57 314.19 703.61 312.32 703.67 310.46 Z" />
<path fill="#b5b4b1" d=" M 679.22 311.84 C 682.26 310.35 679.30 315.25 679.22 311.84 Z" />
<path fill="#f5f4f0" d=" M 681.81 312.56 C 685.43 311.64 688.99 313.56 692.58 313.85 C 692.08 316.18 691.49 318.48 691.00 320.81 C 687.13 320.30 684.05 317.63 681.31 315.06 C 681.43 314.43 681.68 313.18 681.81 312.56 Z" />
<path fill="#f5f4f0" d=" M 694.64 314.31 C 696.70 315.57 698.76 316.85 700.84 318.09 C 700.48 320.72 700.00 323.32 699.38 325.90 C 696.88 324.59 694.39 323.27 691.85 322.06 C 692.78 319.48 693.71 316.89 694.64 314.31 Z" />
<path fill="#f3f2ee" d=" M 713.75 313.99 C 717.11 315.89 719.91 318.61 722.47 321.48 C 719.44 320.79 716.27 320.31 713.52 318.81 C 713.49 317.20 713.64 315.59 713.75 313.99 Z" />
<path fill="#f4f3ef" d=" M 642.42 315.76 C 642.68 315.57 643.18 315.18 643.43 314.98 C 643.27 318.17 643.34 321.38 642.97 324.56 C 640.97 322.00 641.49 318.64 642.42 315.76 Z" />
<path fill="#f5f4f0" d=" M 680.07 316.05 C 683.18 318.25 686.37 320.38 689.85 321.98 C 688.17 324.67 686.02 327.01 683.95 329.40 C 681.41 327.33 678.42 325.69 676.49 322.97 C 676.65 320.38 679.25 318.53 680.07 316.05 Z" />
<path fill="#f5f4f0" d=" M 701.20 327.14 C 701.75 324.50 702.41 321.89 702.95 319.26 C 705.85 319.84 708.75 320.46 711.68 320.95 C 711.29 324.34 710.55 327.69 709.36 330.90 C 706.58 329.78 703.89 328.45 701.20 327.14 Z" />
<path fill="#f5f4f0" d=" M 713.59 321.35 C 716.84 323.24 720.27 324.97 722.81 327.84 C 722.65 329.56 722.48 331.29 722.31 333.02 C 722.01 333.63 721.39 334.86 721.09 335.48 C 717.50 334.01 713.87 332.67 710.29 331.21 C 711.43 327.93 712.47 324.63 713.59 321.35 Z" />
<path fill="#f5f4f0" d=" M 658.25 327.37 C 659.10 324.91 662.27 323.92 663.99 321.98 C 665.35 323.44 666.76 324.85 668.26 326.19 C 668.05 326.74 667.64 327.85 667.43 328.41 C 664.37 328.69 660.82 329.62 658.25 327.37 Z" />
<path fill="#f4f3ef" d=" M 719.43 322.14 C 721.10 322.44 723.40 322.04 724.11 324.08 C 726.80 324.68 727.66 327.64 729.31 329.51 C 730.52 330.82 730.89 332.52 730.94 334.25 C 729.14 330.77 725.58 328.60 724.10 324.96 C 722.41 324.25 720.87 323.25 719.43 322.14 Z" />
<path fill="#f5f4f0" d=" M 685.60 329.95 C 685.93 327.14 689.02 325.07 691.01 323.07 C 693.84 323.65 696.48 325.11 698.79 326.82 C 699.03 329.42 696.97 331.55 696.03 333.84 C 692.40 332.99 688.98 331.47 685.60 329.95 Z" />
<path fill="#f5f4f0" d=" M 671.16 326.96 C 672.42 325.70 673.69 324.46 674.98 323.22 C 676.62 324.81 678.30 326.39 680.13 327.77 C 681.14 328.49 682.15 329.22 683.16 329.97 C 681.46 330.71 680.03 332.68 678.05 332.42 C 675.69 330.67 673.48 328.74 671.16 326.96 Z" />
<path fill="#f4f3ef" d=" M 728.23 324.10 C 729.10 324.22 730.83 324.45 731.70 324.57 C 731.62 325.83 731.54 327.10 731.47 328.38 C 730.36 326.97 729.30 325.53 728.23 324.10 Z" />
<path fill="#51504f" d=" M 643.30 327.28 C 643.79 327.79 643.79 327.79 643.30 327.28 Z" />
<path fill="#5e5d5c" d=" M 646.32 328.30 C 646.80 328.85 646.80 328.85 646.32 328.30 Z" />
<path fill="#f5f4f0" d=" M 664.98 330.82 C 666.60 329.89 668.26 329.03 669.92 328.15 C 672.27 330.06 674.71 331.86 676.93 333.95 C 674.99 334.25 673.11 335.03 671.14 334.82 C 668.95 333.71 666.94 332.28 664.98 330.82 Z" />
<path fill="#f5f4f0" d=" M 701.01 328.08 C 703.67 329.24 706.28 330.54 708.87 331.86 C 707.77 333.80 706.86 335.94 705.18 337.45 C 703.71 337.09 702.29 336.63 700.86 336.20 C 699.53 335.76 698.19 335.37 696.84 335.01 C 698.13 332.64 699.66 330.42 701.01 328.08 Z" />
<path fill="#30302f" d=" M 640.70 335.16 C 641.83 333.34 643.00 331.55 644.21 329.78 C 644.45 330.47 644.94 331.84 645.18 332.53 C 645.63 332.12 646.52 331.30 646.96 330.89 C 646.14 332.63 645.19 334.31 644.23 335.98 L 643.93 335.91 C 642.85 335.65 641.77 335.40 640.70 335.16 Z" />
<path fill="#f5f4f0" d=" M 679.80 333.44 C 681.24 332.43 682.65 331.40 684.05 330.33 C 687.27 331.91 691.21 332.50 693.92 334.80 C 693.26 336.91 690.83 337.81 689.01 338.73 C 685.44 338.09 682.26 336.04 679.80 333.44 Z" />
<path fill="#f5f4f0" d=" M 724.01 329.80 C 727.89 332.25 730.61 337.56 727.54 341.71 C 725.10 341.19 722.67 340.67 720.22 340.26 C 720.30 339.70 720.46 338.58 720.54 338.02 C 722.28 338.42 723.99 338.89 725.73 339.37 C 726.22 336.98 724.12 336.49 722.40 335.81 C 722.75 333.76 723.48 331.80 724.01 329.80 Z" />
<path fill="#f5f4f0" d=" M 706.75 338.08 C 707.61 336.05 708.62 334.09 709.73 332.20 C 713.13 333.75 716.51 335.32 719.86 337.00 C 719.72 337.69 719.44 339.07 719.30 339.76 C 715.04 339.86 710.93 338.69 706.75 338.08 Z" />
<path fill="#f5f4f0" d=" M 673.48 337.08 C 675.00 336.22 676.55 335.36 678.08 334.48 C 680.55 336.43 683.16 338.23 686.06 339.53 C 684.38 339.92 682.72 340.39 681.04 340.66 C 678.28 340.09 675.97 338.28 673.48 337.08 Z" />
<path fill="#f5f4f0" d=" M 695.19 335.34 C 696.81 335.78 698.43 336.30 700.05 336.81 C 701.44 337.25 702.86 337.66 704.29 338.04 C 702.97 339.81 701.37 341.68 699.01 341.93 C 696.16 341.62 693.51 340.45 690.88 339.38 C 692.46 338.19 694.00 336.92 695.19 335.34 Z" />
<path fill="#f4f3ef" d=" M 727.01 345.57 C 728.60 342.18 731.40 339.50 732.41 335.82 C 732.99 337.87 733.50 339.95 734.04 342.03 C 732.24 344.14 729.62 344.98 727.01 345.57 Z" />
<path fill="#f4f3ef" d=" M 626.95 356.03 C 630.56 349.90 634.41 343.86 638.51 338.05 C 635.76 344.70 631.14 350.26 626.95 356.03 Z" />
<path fill="#f5f4f0" d=" M 700.95 342.51 C 702.66 341.45 703.97 339.58 705.99 339.08 C 709.81 339.36 713.35 341.02 717.06 341.89 C 716.11 342.94 715.11 343.93 714.05 344.86 C 709.60 344.88 705.10 344.12 700.95 342.51 Z" />
<path fill="#f5f4f0" d=" M 684.51 342.65 C 688.43 339.54 693.08 342.52 697.07 343.87 C 694.81 344.88 692.50 346.03 689.96 345.85 C 687.97 345.09 686.32 343.71 684.51 342.65 Z" />
<path fill="#f5f4f0" d=" M 715.65 345.58 C 716.64 344.38 717.05 341.98 719.05 342.24 C 721.07 342.44 723.03 343.03 725.00 343.53 C 724.87 344.05 724.61 345.09 724.48 345.61 C 721.53 345.77 718.59 345.75 715.65 345.58 Z" />
<path fill="#f5f4f0" d=" M 693.08 348.07 C 695.03 346.85 696.89 345.46 698.95 344.39 C 703.16 345.38 707.37 346.35 711.63 347.09 C 709.99 348.87 705.52 348.57 706.53 351.89 C 701.79 351.67 697.35 350.00 693.08 348.07 Z" />
<path fill="#f4f3ef" d=" M 707.72 351.60 C 710.03 350.52 711.90 348.78 713.97 347.31 C 718.32 347.31 722.66 347.76 727.02 347.68 C 721.04 350.58 714.34 351.83 707.72 351.60 Z" />
<path fill="#000000" d=" M 804.40 348.30 C 808.56 348.04 812.33 350.08 816.31 350.91 C 822.81 353.07 829.79 353.88 835.88 357.16 C 838.20 358.49 840.56 359.78 842.82 361.22 C 844.49 362.21 846.19 363.18 847.88 364.16 C 848.41 364.40 849.46 364.89 849.99 365.13 C 855.40 368.44 860.92 371.57 866.91 373.73 C 868.66 371.27 870.31 368.72 872.21 366.36 C 873.00 365.00 874.65 365.37 875.97 365.27 C 877.64 367.92 879.53 370.50 880.28 373.62 C 881.19 377.04 884.08 379.52 884.90 382.98 C 884.95 385.43 882.25 386.95 880.04 386.75 C 874.19 386.94 868.34 386.52 862.50 386.32 C 861.44 382.42 864.10 379.21 865.60 375.88 C 864.35 373.64 861.10 373.44 859.09 371.98 C 854.55 369.07 849.88 366.40 845.15 363.82 C 839.03 360.18 833.05 355.88 825.97 354.40 C 821.91 353.41 817.94 352.12 813.91 351.08 C 810.74 350.13 807.50 349.43 804.40 348.30 Z" />
<path fill="#030303" d=" M 294.49 351.69 C 298.35 350.52 303.45 351.74 304.96 355.89 C 306.21 360.16 305.29 365.31 301.79 368.33 C 302.39 369.60 303.01 370.86 303.63 372.13 C 306.11 371.15 308.01 369.22 310.06 367.59 C 314.13 373.74 315.58 381.04 316.83 388.18 C 317.98 392.70 317.29 397.41 318.11 401.98 C 318.41 408.37 319.03 414.91 317.34 421.18 C 315.30 421.85 313.20 422.28 311.13 422.83 C 311.66 430.20 317.39 435.33 320.10 441.83 C 320.67 442.99 320.53 444.31 320.61 445.57 C 316.99 445.97 313.49 444.51 310.47 442.65 C 310.39 441.96 310.23 440.58 310.15 439.88 C 312.75 441.23 315.24 442.77 318.01 443.77 C 316.26 436.28 309.32 430.94 309.23 422.90 C 308.88 420.67 311.75 420.61 313.04 419.73 C 310.79 418.13 308.13 417.44 305.44 417.05 C 305.51 417.76 305.65 419.17 305.72 419.88 C 299.81 422.33 294.92 426.49 290.29 430.82 C 293.03 434.70 295.83 438.56 299.48 441.66 C 300.81 442.49 300.67 444.02 300.63 445.39 C 296.36 446.18 291.83 445.49 288.14 443.15 C 288.53 442.73 289.31 441.90 289.69 441.49 C 292.23 442.89 295.03 443.63 297.92 443.82 C 294.82 440.33 292.20 436.45 289.11 432.95 C 287.84 431.78 287.67 429.38 289.38 428.54 C 294.65 425.02 299.42 420.80 305.00 417.74 C 304.26 417.22 302.79 416.18 302.05 415.66 C 302.95 415.51 304.74 415.20 305.63 415.05 C 305.90 410.37 305.83 405.69 305.81 401.01 C 306.19 394.20 302.73 387.74 298.63 382.54 C 296.79 389.68 295.95 397.01 295.40 404.35 C 290.81 407.19 285.23 404.46 280.20 405.29 C 280.21 404.86 280.23 403.99 280.24 403.56 C 284.51 403.80 288.80 403.90 293.07 403.43 C 295.49 395.69 295.56 387.56 296.58 379.58 C 296.93 379.51 297.64 379.37 298.00 379.31 C 302.19 382.44 304.26 387.44 306.35 392.06 C 308.83 399.52 307.15 407.55 307.81 415.25 C 310.45 416.19 313.05 417.25 315.64 418.36 C 316.88 405.59 318.19 392.13 313.69 379.82 C 312.48 376.53 310.89 373.39 309.22 370.32 C 305.74 373.53 301.60 376.01 297.20 377.74 C 297.36 375.19 300.10 374.57 301.79 373.30 C 300.69 371.71 300.38 369.03 297.97 369.00 C 294.41 368.47 290.58 365.96 290.71 361.98 C 291.13 358.41 291.16 353.92 294.49 351.69 Z" />
<path fill="#f5f4f0" d=" M 293.33 363.69 C 292.97 360.16 293.25 356.24 295.69 353.44 C 298.15 353.62 301.15 353.89 302.53 356.29 C 303.87 359.86 302.72 363.95 300.23 366.73 C 297.72 366.62 294.62 366.12 293.33 363.69 Z" />
<path fill="#010101" d=" M 1046.63 356.66 C 1048.80 354.69 1051.81 355.91 1054.31 356.44 C 1057.18 359.78 1057.02 364.36 1056.27 368.44 C 1055.60 370.81 1053.51 372.28 1052.07 374.14 C 1052.07 375.50 1052.23 376.87 1052.33 378.25 C 1058.24 378.04 1065.16 378.70 1068.88 383.96 C 1072.79 388.05 1071.45 394.20 1070.00 399.06 C 1069.00 402.48 1066.04 404.72 1064.53 407.85 C 1063.46 409.91 1061.45 411.32 1060.47 413.44 C 1059.15 416.05 1059.64 419.06 1059.07 421.85 C 1057.30 422.35 1056.18 421.05 1055.06 419.97 C 1053.56 419.64 1052.60 418.77 1052.18 417.37 C 1053.77 417.42 1055.38 417.53 1056.99 417.70 C 1057.31 414.52 1058.80 411.66 1060.75 409.17 C 1056.59 409.62 1052.40 409.00 1048.25 409.40 C 1043.31 412.43 1042.64 418.75 1043.36 424.03 C 1040.47 423.59 1038.48 421.22 1036.07 419.81 C 1037.38 418.34 1038.97 418.92 1040.51 419.63 C 1040.83 415.43 1042.36 411.25 1045.74 408.56 C 1042.94 407.47 1039.66 406.56 1038.10 403.75 C 1036.39 401.07 1036.76 397.79 1036.62 394.77 C 1033.95 396.23 1031.53 400.00 1028.46 399.40 C 1028.49 399.00 1028.55 398.20 1028.58 397.79 C 1031.22 395.32 1034.80 393.95 1037.08 391.08 C 1038.63 388.17 1040.07 385.18 1041.97 382.46 C 1036.18 381.01 1030.09 381.15 1024.36 382.78 C 1024.02 382.52 1023.33 381.99 1022.99 381.73 C 1024.46 380.69 1026.03 379.59 1027.90 379.46 C 1033.19 378.92 1038.66 379.10 1043.76 380.78 C 1045.47 379.11 1047.55 377.96 1049.87 377.35 C 1049.77 376.43 1049.69 375.51 1049.63 374.60 C 1047.11 373.60 1043.74 372.96 1042.79 370.03 C 1042.07 365.31 1043.48 360.26 1046.63 356.66 Z" />
<path fill="#f5f4f0" d=" M 1044.86 368.54 C 1044.37 364.32 1046.16 359.70 1049.86 357.42 C 1051.62 358.12 1053.30 359.08 1054.48 360.62 C 1054.34 364.35 1054.83 368.88 1051.42 371.40 C 1049.02 372.53 1045.57 371.19 1044.86 368.54 Z" />
<path fill="#3e3635" d=" M 155.96 363.97 C 160.85 362.36 166.01 363.54 171.03 363.47 C 179.72 363.72 188.49 363.00 197.10 364.57 C 213.26 367.09 229.71 366.63 245.94 364.94 C 248.16 364.52 251.84 365.12 251.53 368.12 C 250.41 376.02 248.37 383.84 248.16 391.87 C 248.81 392.00 250.11 392.27 250.76 392.40 C 249.80 392.62 248.83 392.72 247.84 392.70 C 247.59 396.29 247.39 399.88 247.02 403.46 C 246.01 412.94 244.16 422.40 244.95 431.98 C 245.13 434.47 245.54 438.67 241.92 438.65 C 235.28 438.68 228.64 437.70 221.98 437.79 C 210.56 438.05 199.93 433.31 188.87 431.27 C 177.60 429.55 165.99 428.94 154.76 431.30 C 153.16 426.71 154.09 421.79 153.73 417.04 C 153.07 405.03 153.41 393.01 153.21 380.99 C 153.56 376.30 153.92 371.62 153.87 366.91 C 153.66 365.55 154.75 364.36 155.96 363.97 Z" />
<path fill="#f5f4f0" d=" M 156.71 366.29 C 161.85 366.15 166.83 364.54 171.99 364.76 C 179.96 364.89 188.01 364.13 195.90 365.57 C 208.14 367.65 220.59 367.65 232.96 367.27 C 238.26 366.35 243.59 367.23 248.89 367.65 C 249.08 378.18 246.52 388.53 245.99 399.03 C 245.33 411.34 243.02 423.51 242.42 435.83 C 235.32 436.79 228.13 436.50 220.99 436.59 C 209.96 436.58 199.70 432.09 189.01 430.11 C 178.19 428.20 167.18 428.77 156.25 428.56 C 154.67 416.10 154.33 403.51 154.43 390.95 C 153.96 382.63 156.57 374.58 156.71 366.29 Z" />
<path fill="#121212" d=" M 900.16 365.18 C 905.46 365.38 910.77 365.41 916.07 365.69 C 924.64 366.95 933.33 366.16 941.96 366.38 C 948.65 366.63 955.29 365.45 961.99 365.75 C 969.34 366.00 976.71 365.71 984.07 365.88 C 985.99 365.89 987.78 367.18 987.71 369.24 C 988.03 375.70 987.50 382.19 987.53 388.66 C 987.38 392.87 987.43 397.08 987.44 401.29 C 987.50 407.87 987.19 414.44 987.30 421.02 C 987.34 422.49 986.63 423.85 986.23 425.24 C 979.86 426.18 973.43 425.40 967.03 425.49 C 948.70 425.48 930.37 425.36 912.05 425.57 C 907.36 425.53 902.92 423.80 898.34 423.05 C 897.58 418.31 898.70 413.64 899.39 408.97 C 900.27 394.43 903.51 379.63 900.16 365.18 Z" />
<path fill="#f5f4f0" d=" M 903.32 367.25 C 909.54 366.70 915.84 366.31 922.04 367.28 C 935.03 367.62 948.05 366.94 961.01 368.10 C 968.56 368.57 976.15 368.14 983.71 368.49 C 984.79 368.45 985.36 368.96 985.41 370.03 C 986.74 378.32 986.34 386.76 985.56 395.09 C 985.24 404.36 985.06 413.63 984.67 422.89 C 975.25 424.91 965.58 424.37 956.02 424.47 C 942.68 424.43 929.35 424.53 916.02 424.42 C 910.33 424.52 904.91 422.61 899.57 420.88 C 902.05 410.43 900.72 399.57 902.25 388.99 C 902.60 381.74 902.95 374.50 903.32 367.25 Z" />
<path fill="#000000" d=" M 667.87 372.99 C 671.95 374.11 674.78 377.45 677.74 380.26 C 678.00 380.51 678.53 380.99 678.79 381.23 C 683.18 384.92 687.00 389.22 691.41 392.89 L 691.57 393.17 C 698.84 399.14 705.48 405.95 711.17 413.45 C 712.31 415.06 713.52 416.63 714.68 418.23 C 722.59 428.10 729.15 438.94 734.83 450.23 C 736.82 453.68 738.53 457.28 740.15 460.92 C 743.89 469.64 746.67 478.74 749.14 487.88 C 750.47 494.84 750.82 501.92 751.54 508.95 C 751.33 515.71 752.53 522.39 752.40 529.16 C 752.55 547.09 752.49 565.02 752.51 582.96 C 752.92 590.84 750.95 598.54 749.11 606.14 C 747.87 610.17 746.65 614.21 745.19 618.18 C 741.12 627.93 734.85 636.49 729.75 645.69 C 725.47 653.35 720.52 660.90 713.22 666.02 C 714.69 667.93 716.33 669.77 717.30 672.01 C 717.31 673.63 716.13 675.00 714.69 675.59 C 709.88 677.99 705.19 680.77 699.98 682.24 C 698.34 682.93 696.77 682.02 695.29 681.44 C 696.59 675.95 700.45 671.60 702.41 666.37 C 703.77 663.57 704.32 660.21 706.83 658.14 C 708.56 660.11 710.18 662.19 711.99 664.10 C 719.44 660.49 724.50 653.58 728.37 646.48 C 734.46 635.35 742.42 625.10 746.21 612.84 C 749.21 603.17 752.07 593.20 751.61 582.96 C 751.23 552.65 752.82 522.18 749.01 492.04 C 747.63 483.48 744.64 475.31 741.80 467.16 C 738.35 457.51 733.02 448.73 728.28 439.71 C 724.09 432.19 719.09 425.14 713.72 418.43 L 713.43 417.72 C 712.35 416.40 711.30 415.06 710.31 413.69 C 702.28 402.40 690.98 394.21 681.28 384.50 L 680.85 384.38 C 677.01 380.93 673.45 376.98 668.48 375.16 C 668.33 374.62 668.02 373.53 667.87 372.99 Z" />
<path fill="#13b824" d=" M 997.90 388.69 C 1000.07 384.81 1002.63 380.60 1007.09 379.08 C 1012.42 377.72 1018.65 377.95 1022.99 381.73 C 1023.33 381.99 1024.02 382.52 1024.36 382.78 C 1026.70 387.44 1029.07 392.41 1028.58 397.79 C 1028.55 398.20 1028.49 399.00 1028.46 399.40 C 1028.13 403.18 1025.15 406.07 1022.42 408.41 C 1017.60 411.37 1011.59 411.63 1006.10 411.26 C 1001.63 410.13 999.72 405.29 998.07 401.47 C 994.52 401.63 990.97 401.64 987.44 401.29 C 987.43 397.08 987.38 392.87 987.53 388.66 C 990.98 388.73 994.45 388.99 997.90 388.69 Z" />
<path fill="#101010" d=" M 975.45 379.77 C 977.76 380.45 977.01 382.88 977.18 384.69 C 977.76 384.67 978.91 384.61 979.49 384.58 C 979.49 384.99 979.48 385.83 979.48 386.24 C 978.53 386.69 977.60 387.14 976.68 387.59 C 976.65 390.89 976.26 394.29 977.37 397.48 C 978.26 399.33 976.71 400.95 975.97 402.53 C 974.59 402.72 973.23 402.94 971.88 403.20 C 970.79 402.88 969.71 402.56 968.65 402.24 C 968.59 401.72 968.47 400.69 968.41 400.17 C 970.69 400.20 974.23 402.12 975.29 399.06 C 975.49 395.81 970.02 395.47 970.23 392.03 C 970.46 388.91 973.70 387.54 975.33 385.28 C 975.40 383.44 975.37 381.60 975.45 379.77 Z" />
<path fill="#f5f4f0" d=" M 1047.57 380.65 C 1052.78 380.53 1058.68 379.90 1063.60 382.38 C 1066.21 384.10 1068.66 386.66 1069.19 389.86 C 1069.25 395.66 1067.35 401.93 1062.47 405.47 C 1058.17 408.50 1052.65 407.06 1047.84 406.48 C 1044.75 405.78 1040.97 404.78 1039.56 401.63 C 1038.03 393.86 1040.82 385.13 1047.57 380.65 Z" />
<path fill="#040404" d=" M 285.14 392.68 C 289.18 388.70 291.71 383.19 296.45 380.02 C 295.84 382.95 293.22 384.60 291.55 386.88 C 289.60 389.18 288.43 392.01 286.59 394.39 C 284.04 395.37 281.18 394.54 278.52 394.61 C 278.18 393.77 277.83 392.94 277.47 392.13 C 280.03 392.26 282.58 392.50 285.14 392.68 Z" />
<path fill="#f5f4f0" d=" M 1024.36 382.78 C 1030.09 381.15 1036.18 381.01 1041.97 382.46 C 1040.07 385.18 1038.63 388.17 1037.08 391.08 C 1034.80 393.95 1031.22 395.32 1028.58 397.79 C 1029.07 392.41 1026.70 387.44 1024.36 382.78 Z" />
<path fill="#080808" d=" M 231.44 388.96 C 231.90 387.17 230.90 383.68 233.40 383.41 C 233.82 386.40 233.01 389.49 234.54 392.28 C 233.96 392.38 232.79 392.56 232.21 392.65 C 231.91 394.61 230.92 396.87 232.39 398.60 C 233.87 400.47 233.95 402.84 233.55 405.11 C 232.55 405.49 231.55 405.88 230.55 406.28 C 230.48 407.04 230.34 408.57 230.26 409.33 C 229.69 409.45 228.55 409.69 227.98 409.80 C 228.18 408.43 228.39 407.07 228.61 405.72 C 227.43 404.57 226.22 403.43 225.36 402.01 C 225.86 401.38 226.37 400.77 226.90 400.18 C 227.34 400.84 228.24 402.17 228.69 402.84 C 229.91 403.29 231.17 403.59 232.43 403.97 C 231.67 402.41 230.87 400.87 229.79 399.52 C 224.18 398.24 226.20 389.10 231.44 388.96 Z" />
<path fill="#030303" d=" M 917.57 385.67 C 918.27 385.57 919.67 385.35 920.36 385.24 C 922.34 388.23 919.84 391.40 918.50 394.08 C 918.63 395.46 918.79 396.84 918.99 398.23 C 920.96 396.28 921.84 393.32 924.41 392.02 C 924.52 395.34 922.39 397.89 920.16 400.05 C 921.45 401.90 922.81 403.72 923.98 405.66 C 921.01 406.33 920.20 403.14 918.96 401.23 C 916.23 402.76 913.24 405.18 909.92 404.18 C 908.92 402.90 908.81 400.98 909.72 399.65 C 911.75 397.58 914.45 396.29 916.37 394.09 C 916.87 391.30 916.67 388.40 917.57 385.67 Z" />
<path fill="#dd4e0c" d=" M 256.40 391.44 C 258.60 386.62 264.33 385.77 269.05 386.16 C 272.86 385.91 276.00 388.85 277.47 392.13 C 277.83 392.94 278.18 393.77 278.52 394.61 C 280.78 399.67 279.29 406.36 274.42 409.32 C 270.09 411.67 264.38 412.73 260.04 409.83 C 257.44 408.75 256.64 405.90 255.65 403.54 C 252.77 403.54 249.89 403.53 247.02 403.46 C 247.39 399.88 247.59 396.29 247.84 392.70 C 248.83 392.72 249.80 392.62 250.76 392.40 L 251.10 392.30 C 252.82 391.77 254.62 391.62 256.40 391.44 Z" />
<path fill="#212121" d=" M 929.78 391.59 C 929.78 389.29 929.18 386.70 931.13 384.93 C 932.45 387.04 931.95 389.52 931.72 391.84 C 933.35 391.83 935.01 391.84 936.68 391.86 C 937.12 389.69 936.43 386.73 938.82 385.53 C 938.80 387.74 938.61 389.94 938.47 392.15 C 940.12 391.70 941.78 391.24 943.44 390.76 C 943.57 391.38 943.85 392.61 943.98 393.23 C 942.21 393.29 940.46 393.32 938.71 393.36 C 938.34 393.77 937.58 394.59 937.21 395.00 C 937.04 394.62 936.69 393.86 936.52 393.48 C 934.84 393.40 933.18 393.45 931.53 393.53 C 931.40 394.87 931.29 396.22 931.20 397.58 C 933.16 397.54 935.13 397.33 937.02 396.72 L 937.98 396.60 C 938.76 398.98 936.71 401.27 936.16 403.56 C 935.57 403.72 934.39 404.03 933.80 404.19 C 934.38 402.50 935.14 400.88 935.94 399.28 C 934.73 399.25 932.32 399.21 931.12 399.18 C 931.15 400.71 931.19 402.25 931.25 403.79 C 930.74 403.81 929.72 403.84 929.21 403.86 C 929.36 402.33 929.52 400.79 929.70 399.26 C 928.96 399.24 927.48 399.19 926.74 399.17 C 926.58 398.73 926.27 397.85 926.12 397.42 C 927.31 397.24 928.51 397.06 929.72 396.89 C 929.72 396.17 929.72 394.75 929.72 394.03 C 929.15 393.78 928.02 393.29 927.45 393.04 C 928.03 392.68 929.20 391.95 929.78 391.59 Z" />
<path fill="#010101" d=" M 174.35 388.51 C 175.47 388.39 176.60 388.33 177.73 388.35 C 177.84 391.17 175.16 392.62 173.97 394.87 C 173.32 396.56 173.25 398.40 172.93 400.18 C 174.51 398.82 175.95 397.08 178.21 396.97 C 177.59 398.93 176.21 400.46 175.08 402.13 C 175.16 403.25 175.87 404.18 176.33 405.19 C 175.87 405.67 175.41 406.17 174.95 406.68 C 174.30 405.81 173.65 404.95 173.01 404.09 C 170.66 405.01 168.37 406.41 165.77 406.44 C 163.66 405.68 162.76 402.93 163.96 401.09 C 165.79 398.51 168.70 397.09 170.99 395.00 C 172.95 393.35 172.78 390.43 174.35 388.51 Z" />
<path fill="#1f1f1f" d=" M 185.69 389.35 C 186.23 389.30 187.30 389.20 187.84 389.15 C 187.74 391.25 187.60 393.35 187.47 395.45 C 188.40 395.45 190.25 395.44 191.18 395.44 C 191.50 393.07 191.34 390.29 193.53 388.76 C 193.46 390.59 193.26 392.42 192.88 394.22 C 193.11 394.96 193.57 396.44 193.80 397.18 C 193.35 397.37 192.44 397.74 191.99 397.93 C 192.71 398.45 194.15 399.48 194.87 400.00 C 193.71 400.58 192.55 401.15 191.38 401.71 C 191.18 403.45 190.92 405.22 190.34 406.89 C 189.76 406.33 189.19 405.78 188.62 405.23 C 189.08 403.91 189.53 402.59 189.95 401.27 C 189.19 401.41 187.66 401.70 186.90 401.85 C 186.10 403.46 186.56 405.94 184.29 406.47 C 184.32 404.40 185.72 401.61 182.79 400.94 C 183.81 400.23 184.86 399.55 185.93 398.92 C 185.57 397.04 183.69 396.42 182.34 395.40 C 183.19 395.31 184.88 395.12 185.72 395.02 C 185.71 393.12 185.69 391.24 185.69 389.35 Z" />
<path fill="#f4f3ef" d=" M 972.35 392.61 C 971.64 390.38 974.14 389.11 975.39 387.79 C 975.56 390.30 975.59 392.83 975.53 395.36 C 974.39 394.51 973.33 393.60 972.35 392.61 Z" />
<path fill="#030303" d=" M 950.51 395.01 C 951.09 393.15 950.35 389.41 953.35 390.21 C 952.56 393.03 951.88 396.03 952.88 398.91 C 951.96 399.34 951.06 399.82 950.19 400.30 C 948.94 399.79 947.71 399.29 946.48 398.79 C 946.11 399.42 945.73 400.03 945.34 400.64 C 945.29 399.56 945.26 398.49 945.25 397.42 C 946.13 397.35 947.88 397.21 948.76 397.13 C 948.06 395.77 947.41 394.40 947.02 392.93 C 948.20 393.57 949.36 394.28 950.51 395.01 Z" />
<path fill="#010101" d=" M 961.14 394.72 C 961.57 392.83 962.69 391.39 964.69 391.16 C 963.73 394.42 962.26 397.51 961.37 400.79 C 959.69 400.71 958.03 400.53 956.37 400.75 C 955.68 400.82 954.28 400.95 953.59 401.01 C 954.02 400.55 954.89 399.63 955.32 399.17 C 956.37 398.01 957.97 397.68 959.36 397.08 C 959.11 395.00 958.83 392.91 958.75 390.83 C 960.64 391.26 960.61 393.27 961.14 394.72 Z" />
<path fill="#f3fcf4" d=" M 1015.73 391.96 C 1016.85 391.51 1017.99 391.06 1019.13 390.60 C 1020.66 391.15 1022.43 391.48 1023.52 392.87 C 1023.54 394.84 1022.75 396.69 1022.25 398.56 C 1019.80 398.29 1016.87 398.07 1015.28 395.95 C 1015.05 394.59 1015.52 393.28 1015.73 391.96 Z" />
<path fill="#f4f3ef" d=" M 230.20 397.51 C 228.28 395.62 229.15 392.71 230.77 391.01 C 230.84 393.19 230.66 395.37 230.20 397.51 Z" />
<path fill="#000000" d=" M 214.60 391.98 C 216.45 392.79 216.50 394.89 217.07 396.53 C 217.67 396.25 218.89 395.68 219.49 395.39 C 220.01 398.39 217.95 400.92 217.96 403.89 C 216.56 403.46 215.17 403.03 213.78 402.58 C 214.43 399.08 214.30 395.51 214.60 391.98 Z" />
<path fill="#fdf6f2" d=" M 270.89 394.86 C 272.35 392.75 275.04 393.20 276.89 394.52 C 276.14 397.48 274.68 400.24 271.96 401.83 C 269.11 400.60 268.27 396.80 270.89 394.86 Z" />
<path fill="#000000" d=" M 201.57 393.92 C 202.61 394.81 203.62 395.72 204.61 396.68 C 205.32 396.70 206.76 396.75 207.48 396.77 C 207.56 397.63 207.64 398.48 207.72 399.35 C 206.92 399.31 205.31 399.24 204.50 399.20 C 204.78 400.31 205.34 402.52 205.62 403.63 C 203.74 402.58 199.19 402.60 200.53 399.37 C 199.96 399.03 198.82 398.36 198.25 398.03 C 198.84 397.79 200.01 397.31 200.59 397.07 C 200.84 396.28 201.33 394.71 201.57 393.92 Z" />
<path fill="#f4f3ef" d=" M 910.89 401.95 C 912.69 399.69 914.89 397.80 917.15 396.00 C 917.35 397.26 917.56 398.53 917.76 399.80 C 915.67 401.08 913.37 402.00 910.89 401.95 Z" />
<path fill="#f4f3ef" d=" M 187.11 397.20 C 188.50 397.30 189.90 397.42 191.30 397.57 C 190.49 399.14 188.80 399.42 187.25 399.77 C 187.21 399.13 187.14 397.84 187.11 397.20 Z" />
<path fill="#585856" d=" M 952.88 398.91 C 953.49 398.97 954.71 399.11 955.32 399.17 C 954.89 399.63 954.02 400.55 953.59 401.01 C 954.28 400.95 955.68 400.82 956.37 400.75 C 954.84 402.42 953.39 401.66 952.15 400.18 C 950.90 400.84 949.57 401.25 948.21 401.55 C 946.52 402.54 944.81 403.48 942.99 404.20 C 943.22 402.67 944.17 401.58 945.34 400.64 C 945.73 400.03 946.11 399.42 946.48 398.79 C 947.71 399.29 948.94 399.79 950.19 400.30 C 951.06 399.82 951.96 399.34 952.88 398.91 Z" />
<path fill="#f4f3ef" d=" M 165.73 404.13 C 165.93 400.96 168.83 399.44 171.12 397.83 C 171.16 398.95 171.26 401.20 171.31 402.32 C 169.50 403.08 167.65 403.72 165.73 404.13 Z" />
<path fill="#6c6b69" d=" M 229.79 399.52 C 230.87 400.87 231.67 402.41 232.43 403.97 C 231.17 403.59 229.91 403.29 228.69 402.84 C 229.05 401.73 229.41 400.62 229.79 399.52 Z" />
<path fill="#f6b229" d=" M 937.69 441.61 C 938.58 441.56 939.48 441.53 940.39 441.50 C 940.75 450.69 940.91 459.91 940.57 469.11 C 940.94 470.92 938.78 472.56 937.51 470.76 C 937.60 461.05 938.03 451.32 937.69 441.61 Z" />
<path fill="#171717" d=" M 1032.80 445.70 C 1036.92 445.95 1041.80 444.31 1045.44 446.68 C 1041.25 446.65 1037.06 446.36 1032.89 446.69 C 1026.86 448.23 1022.10 452.50 1018.69 457.55 C 1018.37 457.17 1017.74 456.40 1017.42 456.01 C 1021.07 450.91 1026.73 447.27 1032.80 445.70 Z" />
<path fill="#f6b228" d=" M 874.86 451.92 C 875.89 452.19 876.74 452.74 877.40 453.59 C 882.04 459.34 885.92 465.69 890.70 471.34 C 891.89 472.92 893.85 474.06 894.38 476.05 C 892.40 478.20 890.25 475.46 888.92 474.02 C 884.24 468.31 880.44 461.94 875.92 456.10 C 875.20 454.88 873.49 453.34 874.86 451.92 Z" />
<path fill="#f6b228" d=" M 991.30 454.46 C 991.94 454.46 993.22 454.46 993.86 454.46 C 990.88 461.77 986.50 468.44 981.55 474.55 C 980.79 475.81 979.23 475.64 978.02 475.90 C 978.69 471.90 982.11 469.33 984.20 466.08 C 987.00 462.48 988.75 458.22 991.30 454.46 Z" />
<path fill="#171717" d=" M 1021.74 464.17 C 1020.20 459.59 1025.21 456.36 1029.07 455.62 C 1033.12 455.20 1037.42 454.84 1041.34 456.24 C 1037.02 457.27 1032.36 455.40 1028.16 457.31 C 1024.89 458.31 1023.79 461.81 1021.74 464.17 Z" />
<path fill="#000000" d=" M 572.48 462.81 C 587.44 460.75 602.61 462.01 617.53 463.82 C 623.59 465.22 629.65 466.97 635.15 469.95 C 648.01 475.69 659.87 484.86 666.59 497.45 C 669.95 503.00 671.74 509.53 671.47 516.03 C 671.25 524.52 671.78 533.29 669.22 541.49 C 665.20 551.32 660.40 561.14 652.78 568.71 C 647.56 573.38 641.41 576.83 635.82 581.01 C 624.35 588.59 611.92 594.73 598.95 599.27 C 594.72 600.31 590.49 601.74 586.09 601.74 C 572.96 601.89 559.74 601.20 546.87 598.43 C 537.62 596.46 527.98 596.28 519.06 592.85 C 513.03 590.41 507.09 587.70 501.57 584.25 C 489.98 576.14 479.62 565.13 475.93 551.14 C 473.24 536.31 478.05 520.39 488.69 509.66 C 492.03 505.95 496.55 503.54 499.67 499.63 C 509.46 488.71 521.60 479.86 535.19 474.29 C 540.60 472.21 546.32 471.16 551.97 469.97 C 558.80 467.58 565.43 464.54 572.48 462.81 Z" />
<path fill="#131313" d=" M 1026.74 462.80 C 1031.10 461.86 1035.75 461.71 1039.90 463.60 C 1039.90 464.10 1039.89 465.10 1039.89 465.60 C 1035.92 462.31 1030.83 464.12 1026.32 464.84 C 1026.42 464.33 1026.64 463.31 1026.74 462.80 Z" />
<path fill="#070707" d=" M 1029.10 476.63 C 1030.49 474.21 1031.45 469.91 1035.02 470.21 C 1038.86 470.04 1043.79 472.48 1043.28 476.96 C 1043.70 481.73 1040.44 485.60 1036.74 488.11 C 1036.66 489.51 1036.58 490.90 1036.54 492.31 C 1027.10 493.91 1022.26 505.91 1026.93 513.94 C 1029.31 517.70 1033.80 518.82 1037.98 518.91 C 1037.95 519.16 1037.88 519.67 1037.85 519.92 C 1033.90 522.19 1029.09 517.47 1024.95 519.86 C 1020.95 522.44 1021.63 527.92 1019.32 531.64 C 1016.76 531.18 1014.20 530.75 1011.72 530.04 C 1011.70 529.47 1011.65 528.34 1011.62 527.78 C 1013.84 528.04 1016.04 528.52 1018.26 528.94 C 1019.28 526.30 1019.79 523.49 1020.86 520.88 C 1021.79 518.78 1024.20 518.13 1025.95 516.89 C 1025.14 514.59 1023.32 512.57 1023.55 510.01 C 1023.59 505.55 1024.06 500.99 1026.08 496.94 C 1020.90 493.51 1018.06 487.50 1016.35 481.72 C 1016.89 481.61 1017.96 481.38 1018.49 481.27 C 1018.78 487.05 1022.15 492.90 1027.80 494.89 C 1029.65 493.12 1031.92 491.94 1034.27 490.98 C 1034.32 490.26 1034.43 488.81 1034.48 488.09 C 1031.66 487.61 1027.78 487.20 1026.89 483.90 C 1026.42 480.40 1026.44 476.73 1027.51 473.34 C 1028.01 473.36 1029.01 473.41 1029.51 473.43 C 1029.18 476.92 1027.71 480.99 1029.66 484.22 C 1032.26 486.10 1036.64 486.73 1038.83 483.90 C 1040.77 482.04 1040.77 479.23 1041.39 476.81 C 1040.54 473.50 1037.10 472.24 1034.01 472.27 C 1032.62 473.93 1031.90 477.08 1029.10 476.63 Z" />
<path fill="#131313" d=" M 1051.70 478.43 C 1056.09 478.70 1054.72 483.24 1054.13 486.10 C 1053.50 489.62 1052.54 493.50 1048.98 495.15 C 1050.64 497.32 1052.39 499.51 1053.41 502.08 C 1054.68 507.33 1053.75 513.10 1050.48 517.47 C 1056.04 519.48 1056.56 525.88 1057.50 530.85 C 1060.27 530.02 1062.86 527.71 1065.89 528.29 C 1065.28 530.17 1062.90 530.46 1061.45 531.48 C 1059.64 532.36 1056.65 534.14 1055.19 531.86 C 1054.14 529.16 1055.03 525.99 1053.58 523.39 C 1052.75 521.39 1050.79 520.31 1049.02 519.29 C 1046.36 520.99 1042.62 522.17 1039.76 520.81 L 1039.68 520.08 C 1039.83 518.14 1042.70 519.44 1044.00 518.83 C 1048.30 518.39 1050.61 513.74 1051.52 509.98 C 1053.68 501.43 1045.98 492.77 1037.36 492.95 C 1037.39 492.36 1037.44 491.18 1037.47 490.60 C 1040.97 490.72 1044.25 492.11 1047.32 493.72 C 1052.36 490.60 1053.83 483.75 1051.70 478.43 Z" />
<path fill="#191918" d=" M 899.27 480.35 C 907.20 480.03 915.07 481.77 923.02 481.30 C 938.67 480.91 954.31 480.49 969.96 480.14 C 971.45 480.10 974.55 479.79 973.34 482.50 C 963.90 482.83 954.44 482.10 945.02 481.66 C 930.38 481.71 915.75 482.62 901.11 482.33 C 900.24 492.52 900.62 502.77 900.55 512.99 C 900.41 517.69 901.53 522.35 901.17 527.06 C 901.35 529.08 899.34 529.66 897.74 529.64 C 900.18 519.27 899.41 508.53 899.50 497.98 C 899.60 492.10 899.05 486.22 899.27 480.35 Z" />
<path fill="#121212" d=" M 974.60 479.62 C 974.98 480.10 975.72 481.06 976.09 481.54 C 976.32 487.07 976.31 492.63 976.84 498.15 C 977.82 509.27 978.66 520.45 978.83 531.63 C 972.24 530.90 965.60 531.56 959.02 530.89 C 948.67 530.01 938.36 531.60 928.01 531.34 C 917.97 531.12 908.22 533.81 898.26 534.42 C 898.64 531.59 901.90 531.83 903.99 531.76 C 911.02 532.03 917.96 530.61 924.97 530.45 C 930.03 530.20 935.13 530.71 940.15 529.83 C 947.76 529.23 955.44 529.98 963.06 529.21 C 967.53 528.68 972.04 528.80 976.54 528.71 C 976.78 522.51 977.95 516.27 976.91 510.08 C 976.29 505.76 976.61 501.36 975.83 497.06 C 975.29 491.26 974.13 485.46 974.60 479.62 Z" />
<path fill="#fefefe" d=" M 591.53 491.31 C 593.32 492.10 595.06 492.99 596.78 493.94 L 596.29 494.88 C 596.06 495.30 595.60 496.16 595.37 496.59 C 598.67 497.88 601.86 499.45 604.91 501.27 C 604.15 502.12 603.39 502.97 602.64 503.83 C 604.61 505.91 606.63 507.99 608.22 510.40 C 605.47 510.38 602.74 509.95 599.99 510.20 C 600.05 511.22 600.11 512.23 600.19 513.26 C 601.77 513.47 603.38 513.63 604.93 514.08 C 606.94 518.72 605.70 523.94 605.26 528.78 C 609.18 526.21 612.73 523.11 615.16 519.06 C 617.19 515.63 621.08 518.82 623.77 519.63 C 625.96 517.28 628.22 514.90 631.17 513.50 L 632.03 513.01 C 632.54 514.33 633.03 515.65 633.51 516.99 C 631.61 517.29 629.76 518.06 628.81 519.83 C 624.64 525.72 620.05 531.26 614.90 536.33 L 614.82 536.34 C 610.59 537.13 606.33 537.77 602.04 538.06 C 602.63 534.76 601.69 531.07 599.00 528.92 C 597.00 527.03 594.11 526.88 591.55 526.41 C 589.99 523.12 587.78 520.18 586.37 516.83 C 585.72 513.71 587.24 510.68 588.11 507.75 C 589.77 507.35 591.43 506.94 593.10 506.55 C 595.08 507.56 597.07 508.53 599.11 509.46 C 597.87 506.35 596.02 503.56 594.05 500.89 C 592.13 498.34 592.19 494.97 591.62 491.98 L 591.53 491.31 Z" />
<path fill="#f2f2f2" d=" M 584.10 511.30 C 585.54 504.45 589.89 498.73 591.62 491.98 C 592.19 494.97 592.13 498.34 594.05 500.89 C 596.02 503.56 597.87 506.35 599.11 509.46 C 597.07 508.53 595.08 507.56 593.10 506.55 C 591.43 506.94 589.77 507.35 588.11 507.75 C 587.24 510.68 585.72 513.71 586.37 516.83 C 587.78 520.18 589.99 523.12 591.55 526.41 L 591.76 526.80 C 588.54 527.23 586.38 529.61 584.34 531.88 C 581.12 525.53 582.37 517.92 584.10 511.30 Z" />
<path fill="#030303" d=" M 906.35 512.58 C 908.08 506.36 905.61 500.03 906.64 493.77 C 907.06 494.29 907.90 495.32 908.32 495.84 C 908.32 498.44 908.29 501.05 908.31 503.66 C 909.62 503.36 910.94 503.05 912.27 502.73 C 912.17 500.72 912.17 498.72 912.28 496.73 C 914.68 497.55 913.42 500.35 913.73 502.23 C 915.91 504.33 912.80 506.56 913.51 509.01 C 913.24 510.84 914.84 513.72 912.21 514.28 C 912.22 511.28 912.39 508.29 912.40 505.29 C 910.96 505.43 909.54 505.58 908.13 505.74 C 908.22 508.02 908.35 510.29 908.52 512.57 L 906.35 512.58 Z" />
<path fill="#f2f2f2" d=" M 596.29 494.88 L 596.57 494.34 C 598.86 495.89 601.32 497.18 603.85 498.31 C 608.55 500.32 612.12 504.27 616.98 505.98 C 622.04 507.75 627.16 509.80 631.17 513.50 C 628.22 514.90 625.96 517.28 623.77 519.63 C 621.08 518.82 617.19 515.63 615.16 519.06 C 612.73 523.11 609.18 526.21 605.26 528.78 C 605.70 523.94 606.94 518.72 604.93 514.08 C 603.38 513.63 601.77 513.47 600.19 513.26 C 600.11 512.23 600.05 511.22 599.99 510.20 C 602.74 509.95 605.47 510.38 608.22 510.40 C 606.63 507.99 604.61 505.91 602.64 503.83 C 603.39 502.97 604.15 502.12 604.91 501.27 C 601.86 499.45 598.67 497.88 595.37 496.59 C 595.60 496.16 596.06 495.30 596.29 494.88 Z" />
<path fill="#f6b229" d=" M 986.98 506.04 C 991.68 502.27 995.63 497.66 1000.35 493.91 C 1000.46 495.25 1001.25 496.88 999.85 497.84 C 995.38 502.20 991.37 507.24 986.03 510.58 C 985.52 510.49 984.52 510.32 984.02 510.24 C 983.85 508.20 985.63 507.18 986.98 506.04 Z" />
<path fill="#060606" d=" M 934.86 496.67 C 935.38 496.62 936.43 496.53 936.95 496.49 C 937.02 501.29 934.35 505.56 934.32 510.36 C 936.81 510.88 939.21 510.29 941.56 509.50 C 943.47 511.09 940.61 512.66 939.07 512.57 C 936.85 512.53 933.60 513.08 932.44 510.68 C 932.19 505.88 934.86 501.47 934.86 496.67 Z" />
<path fill="#f6b228" d=" M 859.41 498.11 C 859.50 495.58 862.14 496.99 863.40 497.53 C 871.71 501.10 879.86 505.61 888.87 507.11 C 888.86 507.81 888.83 509.21 888.82 509.92 C 883.10 510.00 878.12 506.87 872.95 504.89 C 868.40 502.70 863.50 501.10 859.41 498.11 Z" />
<path fill="#0b0b0b" d=" M 919.86 498.79 C 920.04 498.27 920.42 497.22 920.60 496.70 C 923.24 498.53 926.50 497.44 929.48 497.68 C 929.00 501.55 924.83 499.80 922.22 500.22 C 921.96 502.04 921.71 503.87 921.53 505.71 C 923.57 505.56 925.61 505.35 927.66 505.17 C 927.63 505.75 927.56 506.91 927.53 507.49 C 925.51 507.61 923.48 507.68 921.48 507.75 C 921.41 508.70 921.26 510.59 921.18 511.54 C 923.49 512.26 925.92 512.38 928.34 512.40 C 927.13 516.39 922.27 513.69 919.41 513.27 C 918.78 508.40 921.30 503.64 919.86 498.79 Z" />
<path fill="#0d0d0d" d=" M 945.24 497.35 C 945.54 497.62 946.12 498.16 946.41 498.44 C 946.75 501.76 945.87 505.08 945.65 508.39 C 947.95 508.86 950.30 508.91 952.64 508.66 C 952.68 509.31 952.76 510.61 952.80 511.26 C 949.49 511.61 945.76 511.52 943.50 508.71 C 944.52 504.99 944.27 501.05 945.24 497.35 Z" />
<path fill="#060606" d=" M 960.00 498.58 C 962.79 497.17 966.77 497.44 968.44 500.41 C 970.11 503.91 969.15 508.14 967.32 511.40 C 965.31 515.20 959.29 513.65 957.55 510.35 C 956.30 506.23 957.96 502.11 960.00 498.58 Z" />
<path fill="#f2f2f2" d=" M 521.49 507.51 C 524.83 505.07 527.31 501.32 531.35 499.95 C 531.99 500.91 532.66 501.88 533.33 502.84 C 534.83 506.99 535.67 511.34 537.24 515.48 C 538.98 519.79 538.45 524.50 538.55 529.04 C 538.64 531.65 538.06 534.22 536.88 536.56 L 536.54 534.96 C 536.53 532.23 537.33 529.38 536.22 526.77 C 534.87 523.29 533.26 519.87 532.78 516.14 C 532.29 512.70 531.59 509.26 529.87 506.21 C 527.60 506.80 525.32 507.37 523.05 507.95 C 523.26 508.36 523.70 509.18 523.92 509.59 C 525.23 510.87 527.46 511.79 527.20 513.99 C 527.34 520.61 527.25 527.53 524.71 533.76 L 524.42 534.42 C 523.42 531.43 523.34 528.29 523.71 525.19 C 523.22 524.43 522.73 523.67 522.24 522.92 C 522.69 521.67 523.14 520.44 523.60 519.21 C 523.36 518.67 522.87 517.59 522.63 517.05 C 520.23 517.07 517.78 516.83 515.45 517.47 C 513.04 518.15 511.63 520.33 510.06 522.09 C 507.92 524.82 504.21 525.37 501.72 527.67 C 500.12 529.40 499.76 531.85 499.18 534.05 L 498.99 534.86 C 498.40 532.85 497.68 530.90 497.07 528.91 C 501.27 526.28 504.33 522.31 508.11 519.18 C 512.68 515.41 516.65 510.96 521.49 507.51 Z" />
<path fill="#f5f4f0" d=" M 961.01 500.94 C 962.85 499.47 967.18 499.79 966.83 502.88 C 966.82 505.38 967.06 508.28 965.24 510.26 C 963.88 512.35 961.43 510.49 959.57 510.31 C 958.44 507.22 958.58 503.37 961.01 500.94 Z" />
<path fill="#fefefe" d=" M 523.05 507.95 C 525.32 507.37 527.60 506.80 529.87 506.21 C 531.59 509.26 532.29 512.70 532.78 516.14 C 533.26 519.87 534.87 523.29 536.22 526.77 C 537.33 529.38 536.53 532.23 536.54 534.96 C 532.73 533.61 528.71 533.05 524.71 533.76 C 527.25 527.53 527.34 520.61 527.20 513.99 C 527.46 511.79 525.23 510.87 523.92 509.59 C 523.70 509.18 523.26 508.36 523.05 507.95 Z" />
<path fill="#fefefe" d=" M 515.45 517.47 C 517.78 516.83 520.23 517.07 522.63 517.05 C 522.87 517.59 523.36 518.67 523.60 519.21 C 523.14 520.44 522.69 521.67 522.24 522.92 C 522.73 523.67 523.22 524.43 523.71 525.19 C 523.34 528.29 523.42 531.43 524.42 534.42 C 517.70 536.43 514.19 543.89 515.30 550.55 C 511.80 548.89 508.18 547.44 505.11 545.04 C 503.00 541.47 499.05 538.56 499.18 534.05 C 499.76 531.85 500.12 529.40 501.72 527.67 C 504.21 525.37 507.92 524.82 510.06 522.09 C 511.63 520.33 513.04 518.15 515.45 517.47 Z" />
<path fill="#131313" d=" M 1000.40 532.95 C 1000.95 530.04 999.97 524.84 1003.72 524.00 C 1002.24 529.84 999.89 536.33 1002.77 542.13 C 1003.66 544.33 1005.63 545.76 1007.93 546.23 C 1007.82 546.68 1007.60 547.58 1007.49 548.03 C 1002.06 545.14 999.39 538.94 1000.40 532.95 Z" />
<path fill="#131313" d=" M 1008.73 539.49 C 1005.34 535.15 1005.40 528.42 1008.22 523.83 C 1009.39 527.86 1006.64 531.97 1007.98 535.98 C 1008.67 538.17 1010.82 539.23 1012.58 540.44 C 1011.42 542.66 1009.74 540.66 1008.73 539.49 Z" />
<path fill="#272726" d=" M 1065.45 536.48 C 1068.28 534.07 1068.56 529.48 1071.96 527.79 C 1070.02 532.17 1067.86 536.79 1063.99 539.81 C 1062.15 541.33 1059.65 540.77 1057.50 540.58 C 1057.48 540.11 1057.45 539.17 1057.43 538.71 C 1060.27 538.92 1063.59 539.09 1065.45 536.48 Z" />
<path fill="#0e0e0e" d=" M 995.68 530.47 C 996.19 530.39 997.22 530.25 997.73 530.17 C 995.75 533.82 994.71 537.88 994.67 542.03 C 995.05 543.40 995.42 544.78 995.78 546.18 C 996.97 547.65 998.24 549.11 999.06 550.86 C 996.00 550.75 995.00 547.57 994.44 545.09 C 993.35 540.30 993.18 534.85 995.68 530.47 Z" />
<path fill="#242423" d=" M 1072.82 538.79 C 1074.17 536.99 1074.67 534.18 1077.27 533.76 C 1073.11 540.47 1068.41 549.90 1059.26 549.68 C 1059.24 549.20 1059.22 548.24 1059.20 547.76 C 1065.42 548.72 1069.87 543.52 1072.82 538.79 Z" />
<path fill="#f2f2f2" d=" M 602.04 538.06 C 606.33 537.77 610.59 537.13 614.82 536.34 C 611.58 540.71 606.06 541.82 600.93 541.16 C 601.28 540.12 601.65 539.08 602.04 538.06 Z" />
<path fill="#0d0d0d" d=" M 1078.84 545.01 C 1079.30 545.15 1080.22 545.42 1080.68 545.55 C 1076.96 549.21 1074.32 554.17 1069.33 556.34 C 1066.82 557.69 1062.56 558.64 1061.21 555.28 C 1063.94 555.11 1066.91 556.00 1069.48 554.68 C 1073.64 552.72 1076.66 548.97 1078.84 545.01 Z" />
<path fill="#000000" d=" M 547.00 615.88 C 549.80 613.59 553.75 613.30 557.02 614.71 C 560.13 618.45 561.37 623.31 560.36 628.10 C 557.63 632.57 554.64 637.18 555.30 642.69 C 554.61 642.75 553.23 642.87 552.53 642.93 C 552.48 639.39 552.44 635.57 554.49 632.52 C 556.35 629.66 558.41 626.53 557.69 622.92 C 557.49 619.96 555.52 615.63 551.87 616.80 C 549.43 617.00 547.94 619.04 546.48 620.74 C 545.98 624.05 548.22 626.62 548.89 629.68 C 547.72 629.45 546.08 629.96 545.38 628.68 C 542.45 624.94 543.00 618.68 547.00 615.88 Z" />
<path fill="#000000" d=" M 484.49 626.65 C 488.37 620.78 496.08 619.25 502.61 620.54 C 505.26 621.40 506.97 623.89 508.25 626.23 C 509.81 630.22 508.11 634.41 505.89 637.78 C 504.13 640.27 504.27 643.39 504.25 646.30 C 505.95 647.37 505.96 649.04 505.29 650.77 C 504.04 649.97 502.67 649.33 501.69 648.20 C 500.60 643.98 501.25 639.27 503.72 635.64 C 505.81 632.54 506.93 627.87 503.96 624.95 C 502.39 622.69 499.39 623.19 497.03 623.19 C 493.43 623.29 489.28 624.53 487.43 627.88 C 487.33 630.17 487.57 632.85 489.36 634.51 C 491.70 636.81 494.85 633.63 497.60 634.62 C 498.18 638.27 493.54 638.37 490.99 638.42 C 487.46 638.45 485.96 634.82 484.64 632.15 C 484.58 630.31 484.52 628.48 484.49 626.65 Z" />
<path fill="#000000" d=" M 590.56 631.93 C 590.48 626.96 594.98 622.41 599.92 622.26 C 602.97 622.17 606.58 621.63 608.98 623.98 C 611.27 625.68 612.27 628.40 613.34 630.94 C 613.30 633.09 613.53 635.36 612.62 637.39 C 611.21 641.40 607.48 644.05 606.18 648.12 C 604.95 651.03 604.68 654.20 604.29 657.31 C 602.15 658.56 601.16 655.59 601.66 654.05 C 602.34 649.34 604.00 644.65 607.10 640.98 C 608.90 638.70 610.76 636.06 610.44 633.00 C 610.54 628.97 607.34 624.67 603.08 624.78 C 600.83 624.80 598.34 624.95 596.48 626.35 C 592.34 629.18 592.91 635.21 594.64 639.26 C 595.58 641.82 598.32 641.81 600.60 641.82 C 600.67 642.78 600.73 643.74 600.80 644.71 C 598.65 644.54 596.15 645.10 594.38 643.56 C 591.00 640.78 590.32 636.06 590.56 631.93 Z" />
<path fill="#000000" d=" M 453.42 651.25 C 455.68 650.44 456.68 647.42 459.21 647.42 C 461.85 656.17 464.19 665.19 463.40 674.43 C 462.54 674.51 461.68 674.60 460.83 674.70 C 457.64 668.55 451.40 665.10 446.33 660.72 C 444.86 659.79 444.08 658.21 443.30 656.74 C 445.52 654.30 448.71 653.28 451.67 652.06 C 452.25 651.79 452.83 651.52 453.42 651.25 Z" />
<path fill="#070707" d=" M 552.69 648.39 C 553.62 648.64 554.56 648.93 555.50 649.23 C 555.44 649.77 555.32 650.86 555.26 651.40 C 554.34 651.43 553.43 651.47 552.53 651.52 C 552.57 650.47 552.62 649.42 552.69 648.39 Z" />
<path fill="#6a6a68" d=" M 567.86 650.31 C 568.37 650.48 569.38 650.82 569.89 650.99 C 572.07 665.57 573.75 680.24 574.13 694.99 C 574.38 696.44 573.47 697.54 572.33 698.27 C 572.45 682.20 571.67 665.98 567.86 650.31 Z" />
<path fill="#040404" d=" M 505.15 659.70 C 505.42 658.42 505.27 656.49 507.14 656.44 C 508.01 657.22 508.38 658.35 508.75 659.42 C 507.55 659.53 506.35 659.62 505.15 659.70 Z" />
<path fill="#6a6a68" d=" M 527.96 660.01 C 529.40 660.45 530.69 661.25 531.63 662.45 C 541.86 673.78 553.60 683.58 565.58 692.97 C 565.76 695.78 563.02 693.58 562.17 692.79 C 550.75 682.92 539.43 672.90 529.06 661.93 C 528.79 661.45 528.24 660.49 527.96 660.01 Z" />
<path fill="#6a6a68" d=" M 550.02 664.64 C 551.72 665.67 552.86 667.32 553.89 668.98 C 560.02 678.42 567.44 687.20 571.82 697.66 C 571.31 697.58 570.30 697.44 569.79 697.37 C 564.95 686.78 558.29 677.09 551.14 667.95 C 550.46 666.96 550.09 665.85 550.02 664.64 Z" />
<path fill="#040404" d=" M 605.20 665.48 C 605.83 665.46 607.10 665.41 607.73 665.39 C 607.70 666.37 607.66 667.37 607.64 668.37 C 607.08 668.38 605.98 668.39 605.43 668.40 C 605.34 667.42 605.27 666.44 605.20 665.48 Z" />
<path fill="#0e0e0e" d=" M 661.36 675.82 C 664.97 675.13 668.60 674.36 672.30 674.57 C 674.40 680.52 672.98 686.96 673.23 693.13 L 672.67 693.85 C 672.62 702.57 672.57 711.31 673.25 720.01 C 673.45 725.00 674.75 729.95 674.25 734.97 C 673.21 736.32 671.61 737.11 669.94 737.32 C 657.65 738.75 645.39 740.88 632.97 740.69 C 623.95 741.67 615.08 743.75 606.03 744.49 C 598.98 744.56 592.02 745.70 585.05 746.60 C 583.60 746.83 582.20 746.67 580.84 746.11 C 583.08 743.80 586.20 745.67 588.94 745.21 C 595.26 744.36 601.60 743.69 607.97 743.42 C 617.02 742.53 625.89 740.22 634.99 739.80 C 647.40 739.48 659.99 738.28 671.82 734.32 C 672.09 727.18 670.73 720.07 671.44 712.94 C 671.74 707.33 671.64 701.70 671.84 696.09 C 672.42 689.84 672.75 683.27 671.01 677.23 C 662.23 677.11 653.44 677.62 644.65 677.31 C 650.19 676.42 655.86 676.93 661.36 675.82 Z" />
<path fill="#0c0c0c" d=" M 628.96 677.69 C 639.76 677.12 650.52 675.46 661.36 675.82 C 655.86 676.93 650.19 676.42 644.65 677.31 C 633.11 678.03 621.64 679.85 610.06 679.66 C 599.97 680.49 589.84 680.32 579.74 680.87 C 578.67 694.57 579.75 708.28 579.82 722.00 C 579.72 729.07 580.58 736.15 580.13 743.23 C 580.15 745.06 578.31 744.80 577.04 745.06 C 578.71 741.25 579.47 737.12 579.32 732.97 C 579.01 714.92 578.31 696.88 577.38 678.85 C 586.92 679.54 596.50 679.47 606.07 679.22 C 613.68 678.48 621.39 678.93 628.96 677.69 Z" />
<path fill="#dd4e0c" d=" M 465.35 697.38 C 469.45 691.49 475.46 686.06 482.91 685.41 C 490.28 685.07 498.19 685.40 504.65 689.39 C 508.99 692.33 512.79 696.51 514.16 701.69 C 530.02 703.73 546.10 701.13 561.96 703.26 C 563.42 703.34 564.45 704.48 565.49 705.40 C 569.13 709.05 573.63 711.78 576.78 715.93 C 573.81 720.02 570.67 723.99 568.36 728.50 C 567.66 728.47 566.28 728.41 565.59 728.38 C 564.23 729.53 562.91 731.08 560.92 730.67 C 560.30 729.68 559.72 728.69 559.17 727.69 C 557.22 727.56 555.42 726.85 553.83 725.76 C 548.52 728.14 542.50 727.00 536.93 728.40 C 530.22 726.11 523.09 725.07 515.99 725.16 C 514.54 729.79 512.82 734.82 508.74 737.80 C 505.62 740.17 502.15 742.75 498.02 742.48 C 489.61 742.75 481.73 739.30 474.33 735.71 C 467.96 732.32 462.76 726.37 460.97 719.31 C 460.08 711.81 460.98 703.75 465.35 697.38 Z" />
<path fill="#0b0b0b" d=" M 656.68 689.63 C 657.23 689.51 658.31 689.25 658.86 689.12 C 658.75 690.68 658.63 692.25 658.53 693.83 C 660.43 695.01 662.43 696.42 661.71 698.99 C 660.52 698.13 659.34 697.27 658.18 696.41 C 656.34 701.49 662.70 705.76 659.51 710.56 C 657.68 712.48 654.88 713.33 653.88 716.07 C 653.61 715.03 653.43 713.94 653.36 712.89 C 652.44 712.09 649.87 710.32 651.83 709.26 C 652.68 709.58 654.38 710.23 655.23 710.55 C 655.55 709.37 655.89 708.21 656.26 707.06 C 656.32 706.27 656.44 704.70 656.51 703.92 C 654.97 702.49 653.62 700.89 652.46 699.16 C 653.09 696.74 654.16 694.41 656.64 693.45 C 656.65 692.17 656.66 690.90 656.68 689.63 Z" />
<path fill="#050505" d=" M 593.12 700.08 C 594.20 696.11 600.15 693.91 602.70 697.76 C 600.98 702.25 596.99 705.11 593.68 708.36 C 593.55 709.12 593.28 710.64 593.15 711.41 C 592.64 711.03 591.63 710.28 591.12 709.90 C 589.66 711.06 588.83 712.74 588.15 714.43 C 589.62 714.47 591.10 714.50 592.59 714.55 L 592.34 713.07 L 592.86 712.64 C 593.41 712.93 594.52 713.53 595.07 713.83 C 596.56 712.61 597.67 711.01 598.83 709.50 C 599.32 709.54 600.29 709.62 600.78 709.67 C 599.86 712.10 598.17 714.10 596.38 715.94 C 597.63 717.06 598.83 718.31 599.04 720.09 C 596.97 719.67 595.57 718.09 594.16 716.68 C 591.59 716.83 589.01 716.87 586.46 716.52 C 585.71 713.16 587.28 709.93 590.15 708.14 C 593.19 706.54 592.03 702.77 593.12 700.08 Z" />
<path fill="#949491" d=" M 656.34 696.40 C 657.91 696.80 657.85 699.90 656.26 700.29 C 654.45 699.91 654.73 696.85 656.34 696.40 Z" />
<path fill="#f4f3ef" d=" M 594.10 705.24 C 593.77 701.47 596.00 697.63 600.17 697.83 C 599.26 701.05 596.71 703.34 594.10 705.24 Z" />
<path fill="#201f1f" d=" M 615.16 703.62 C 615.68 701.38 614.52 697.91 617.53 697.02 C 617.55 699.04 617.40 701.08 617.21 703.10 C 619.25 703.29 620.39 704.63 618.37 706.20 C 617.85 706.03 616.81 705.68 616.29 705.50 C 616.27 706.30 616.26 707.10 616.26 707.92 C 616.76 708.08 617.77 708.39 618.27 708.55 C 619.81 710.90 616.02 710.66 614.82 711.60 C 614.69 713.22 614.56 714.86 614.42 716.50 C 613.92 716.48 612.93 716.44 612.43 716.41 C 612.95 714.65 613.45 712.87 613.96 711.11 C 612.23 711.09 610.52 711.10 608.82 711.12 C 608.57 712.92 608.37 714.86 606.79 716.08 C 606.18 714.37 606.49 712.62 606.82 710.91 C 606.16 710.12 605.51 709.34 604.88 708.56 C 606.35 707.98 607.94 707.49 608.75 706.00 C 607.55 705.15 606.34 704.33 605.41 703.20 C 606.26 703.08 607.97 702.84 608.82 702.71 C 609.35 700.96 609.99 699.20 611.34 697.89 C 611.69 699.73 611.42 701.60 611.13 703.44 C 612.47 703.49 613.81 703.55 615.16 703.62 Z" />
<path fill="#000000" d=" M 628.69 698.54 C 629.15 698.51 630.06 698.46 630.51 698.43 C 630.11 700.26 629.70 702.09 629.41 703.95 C 630.47 704.45 631.54 704.96 632.61 705.49 C 631.75 706.98 631.37 708.60 631.45 710.36 C 630.80 709.81 629.50 708.71 628.86 708.15 C 627.59 710.57 625.64 712.54 623.27 713.89 C 622.83 711.12 625.54 709.85 626.85 707.92 C 627.36 705.12 623.04 703.74 624.61 700.76 C 625.62 701.81 626.64 702.94 627.62 704.05 C 627.97 702.20 628.33 700.37 628.69 698.54 Z" />
<path fill="#050504" d=" M 645.11 701.49 C 645.96 700.30 646.85 699.14 647.79 698.03 C 647.84 699.97 647.00 701.69 646.14 703.39 C 645.24 704.63 646.59 705.89 646.81 707.17 C 646.28 707.32 645.22 707.61 644.69 707.75 C 644.89 710.21 642.47 710.14 641.26 708.70 C 639.57 710.03 637.77 711.38 635.53 711.53 C 636.10 708.86 638.93 708.29 640.75 706.74 C 640.94 705.18 638.72 704.77 638.09 703.65 C 639.05 703.63 640.95 703.57 641.91 703.54 C 641.64 701.67 641.40 699.79 641.30 697.93 C 642.94 698.62 643.71 699.95 643.61 701.91 C 643.98 701.81 644.73 701.60 645.11 701.49 Z" />
<path fill="#f5f4f0" d=" M 468.11 710.95 C 467.89 708.10 469.81 704.73 472.93 704.64 C 475.84 704.27 478.44 705.82 480.60 707.60 C 480.61 710.42 481.37 713.86 478.99 715.99 C 475.34 720.12 467.90 716.00 468.11 710.95 Z" />
<path fill="#f3f2ee" d=" M 610.15 705.41 C 611.75 705.16 613.38 705.04 615.03 705.06 C 614.86 705.92 614.54 707.66 614.38 708.52 C 612.63 708.67 610.89 708.74 609.15 708.74 C 609.40 707.91 609.90 706.24 610.15 705.41 Z" />
<path fill="#a7a7a4" d=" M 656.97 708.98 C 656.20 707.70 656.47 706.94 657.80 706.68 C 658.56 707.94 658.28 708.71 656.97 708.98 Z" />
<path fill="#6a6a68" d=" M 567.66 733.49 C 568.51 732.51 569.50 731.69 570.63 731.02 C 569.42 735.70 565.45 738.82 562.73 742.62 C 556.87 750.24 550.51 757.44 544.48 764.93 C 544.44 764.45 544.36 763.49 544.32 763.01 C 552.57 753.56 560.26 743.62 567.66 733.49 Z" />
<path fill="#6a6a68" d=" M 566.97 743.84 C 567.82 741.86 568.22 739.08 570.83 738.79 C 565.60 751.64 561.05 764.77 557.04 778.05 C 555.37 783.81 553.12 789.43 552.23 795.39 C 551.69 795.43 550.61 795.50 550.07 795.54 C 556.14 778.46 560.56 760.81 566.97 743.84 Z" />
<path fill="#6a6a68" d=" M 571.94 740.86 C 574.05 739.28 574.15 742.74 574.18 743.95 C 574.52 753.99 573.11 764.05 574.39 774.06 C 574.63 779.27 576.03 784.30 577.04 789.39 C 574.41 788.46 575.07 785.20 574.40 783.03 C 571.51 769.14 573.05 754.90 571.94 740.86 Z" />
</svg>
