<?xml version="1.0" encoding="UTF-8" ?>
<!DOCTYPE svg PUBLIC "-//W3C//DTD SVG 1.1//EN" "http://www.w3.org/Graphics/SVG/1.1/DTD/svg11.dtd">
<svg width="1305pt" height="766pt" viewBox="0 0 1305 766" version="1.1" xmlns="http://www.w3.org/2000/svg">
<path fill="#f5f4f0" d=" M 0.00 0.00 L 1305.00 0.00 L 1305.00 766.00 L 0.00 766.00 L 0.00 0.00 Z" />
<path fill="#4e4e4d" d=" M 1252.47 25.92 C 1253.15 24.84 1253.37 22.97 1254.97 22.81 C 1255.98 23.31 1256.88 24.00 1257.68 24.87 C 1256.74 25.97 1255.83 27.06 1254.90 28.15 C 1231.90 28.81 1208.94 30.44 1185.95 31.53 C 1184.08 31.92 1182.51 31.16 1181.13 30.01 C 1199.10 29.54 1217.01 27.88 1234.98 27.30 C 1240.80 26.75 1246.74 27.24 1252.47 25.92 Z" />
<path fill="#535351" d=" M 1091.99 33.49 C 1121.22 32.81 1150.54 33.35 1179.66 30.29 C 1180.35 30.90 1181.05 31.51 1181.76 32.12 C 1174.12 32.11 1166.58 33.59 1158.94 33.60 C 1141.98 34.68 1124.98 34.68 1107.99 34.90 C 1090.34 35.04 1072.70 35.83 1055.07 36.52 C 1035.60 38.02 1016.04 37.83 996.54 38.80 C 996.64 38.25 996.84 37.16 996.94 36.61 C 1001.28 37.31 1005.66 36.56 1010.03 36.60 C 1037.37 36.20 1064.64 33.95 1091.99 33.49 Z" />
<path fill="#0f0f0f" d=" M 939.48 38.68 C 943.71 38.25 947.86 39.58 952.10 39.36 C 956.69 39.12 961.34 39.65 965.89 38.84 C 972.27 38.50 978.67 38.31 985.07 38.17 C 988.06 37.48 991.15 37.48 994.22 37.47 C 994.35 37.79 994.62 38.43 994.75 38.75 C 991.54 38.88 988.31 38.52 985.14 39.08 C 978.50 40.05 971.70 39.05 965.11 40.21 C 959.74 40.53 954.36 40.33 949.01 40.81 C 945.83 41.17 942.62 41.62 939.42 41.39 C 939.00 40.48 939.02 39.57 939.48 38.68 Z" />
<path fill="#4f4e4d" d=" M 1258.92 39.09 C 1263.82 39.00 1265.88 44.41 1266.20 48.50 C 1267.08 63.00 1266.82 77.54 1266.01 92.04 C 1265.31 98.76 1265.81 105.69 1264.65 112.29 C 1264.33 112.64 1263.70 113.36 1263.38 113.72 C 1263.68 92.84 1266.47 71.94 1264.34 51.08 C 1263.85 47.97 1263.27 44.44 1260.53 42.48 C 1259.87 41.51 1257.16 40.34 1258.92 39.09 Z" />
<path fill="#191919" d=" M 951.35 44.45 C 952.32 44.49 953.30 44.53 954.29 44.58 C 955.64 48.47 955.34 52.63 955.62 56.67 C 955.29 57.05 954.62 57.80 954.29 58.18 C 954.11 53.45 952.91 48.89 951.35 44.45 Z" />
<path fill="#555554" d=" M 954.29 58.18 C 954.62 57.80 955.29 57.05 955.62 56.67 C 956.42 70.44 956.00 84.25 956.15 98.03 C 956.09 121.98 956.28 145.94 956.13 169.89 C 955.68 170.63 955.25 171.37 954.82 172.11 C 954.77 171.53 954.66 170.35 954.61 169.77 C 954.29 149.18 954.55 128.57 954.46 107.97 C 954.23 91.56 954.82 75.12 953.80 58.73 L 954.29 58.18 Z" />
<path fill="#0d0d0d" d=" M 1105.12 113.11 C 1111.32 111.78 1117.74 112.92 1123.98 111.75 C 1139.10 111.35 1154.38 111.49 1169.24 114.69 C 1169.72 115.51 1170.22 116.33 1170.73 117.15 C 1175.77 118.12 1181.23 118.42 1185.58 121.46 C 1188.69 123.62 1191.58 126.13 1194.20 128.87 C 1196.89 131.54 1195.47 135.62 1195.50 138.95 C 1195.57 153.45 1194.22 167.91 1194.73 182.42 C 1194.41 182.19 1193.78 181.72 1193.46 181.49 C 1193.69 168.33 1193.43 155.16 1192.77 142.02 C 1189.04 144.28 1185.25 146.99 1180.72 147.19 C 1185.34 144.67 1193.26 141.69 1192.89 134.96 C 1193.58 130.54 1189.12 128.23 1186.55 125.49 C 1181.38 120.46 1173.94 119.52 1167.07 119.14 C 1166.79 118.64 1166.22 117.64 1165.94 117.14 C 1153.13 112.66 1139.35 112.53 1125.93 112.74 C 1119.62 113.52 1113.24 113.36 1106.91 113.86 C 1102.34 114.77 1097.68 115.23 1093.13 116.21 C 1090.37 116.74 1087.65 117.39 1084.89 117.84 C 1083.85 118.17 1082.85 118.51 1081.84 118.82 C 1080.58 119.29 1079.33 119.76 1078.10 120.23 C 1071.06 123.27 1063.73 126.72 1058.73 132.72 C 1056.96 135.13 1054.89 139.18 1057.59 141.62 C 1061.47 145.52 1066.85 147.34 1071.95 149.11 C 1072.97 149.41 1074.00 149.71 1075.05 150.02 C 1079.98 151.18 1084.96 152.14 1089.94 153.05 C 1098.19 154.91 1106.77 154.66 1114.93 156.77 C 1112.16 156.64 1106.63 156.39 1103.86 156.27 C 1096.94 155.11 1089.91 154.50 1083.06 152.92 C 1081.36 152.64 1079.68 152.37 1078.03 151.98 C 1070.78 150.34 1063.48 148.56 1056.88 145.03 C 1056.12 159.02 1056.30 173.03 1056.34 187.03 C 1056.27 196.79 1058.37 206.37 1058.82 216.10 C 1060.51 227.30 1060.66 238.70 1060.82 250.03 C 1061.60 252.57 1061.57 255.24 1061.54 257.86 C 1061.29 258.24 1060.80 258.98 1060.55 259.35 C 1059.38 249.22 1059.50 239.02 1059.21 228.83 C 1057.70 218.96 1057.30 208.94 1055.93 199.04 C 1054.52 188.74 1055.85 178.30 1054.89 167.99 C 1054.81 165.66 1054.84 163.33 1054.89 161.00 C 1054.75 154.72 1054.23 148.44 1054.42 142.15 C 1051.83 137.87 1055.04 133.12 1058.12 130.12 C 1062.48 126.20 1068.05 124.00 1073.11 121.16 C 1079.37 118.01 1086.17 116.27 1093.04 115.06 C 1095.14 114.53 1097.29 114.38 1099.46 114.28 L 1099.56 113.68 C 1101.41 113.53 1103.25 113.34 1105.12 113.11 Z" />
<path fill="#4c4c4b" d=" M 1263.38 113.72 C 1263.70 113.36 1264.33 112.64 1264.65 112.29 C 1264.18 126.20 1262.27 140.03 1261.53 153.93 C 1261.09 175.02 1258.04 195.93 1257.50 217.01 C 1256.60 245.55 1251.91 273.77 1248.58 302.07 C 1245.53 335.16 1243.88 368.41 1244.20 401.64 C 1243.53 401.02 1242.88 400.39 1242.25 399.77 C 1242.79 386.85 1242.25 373.89 1243.13 360.99 C 1244.12 336.20 1245.44 311.39 1248.76 286.79 C 1252.22 262.32 1255.20 237.75 1256.06 213.04 C 1256.49 197.32 1258.37 181.70 1259.43 166.01 C 1259.70 153.30 1260.87 140.64 1261.91 127.98 C 1262.58 123.25 1262.28 118.34 1263.38 113.72 Z" />
<path fill="#dd4e0c" d=" M 745.02 140.78 C 751.75 139.99 757.95 136.69 764.72 136.18 C 764.66 137.23 764.62 138.27 764.57 139.32 C 760.86 140.34 757.18 141.43 753.52 142.60 C 753.66 153.13 754.42 163.64 755.18 174.13 C 754.32 175.24 752.72 174.52 751.55 174.72 C 751.16 164.47 750.02 154.25 749.59 144.00 C 745.42 144.51 741.24 144.96 737.05 145.11 C 735.56 144.51 735.13 143.41 735.76 141.81 C 738.75 140.88 741.95 141.33 745.02 140.78 Z" />
<path fill="#dd4e0c" d=" M 697.62 142.78 C 704.45 142.24 711.53 143.56 718.16 141.36 C 719.58 140.96 721.01 140.60 722.46 140.27 C 722.53 141.31 722.55 142.35 722.54 143.39 C 717.20 146.66 710.74 145.94 704.84 146.83 C 704.49 151.76 704.71 156.73 705.42 161.63 C 709.09 161.22 712.70 160.40 716.24 159.36 C 716.59 160.09 717.29 161.53 717.64 162.26 C 713.80 164.21 709.52 164.98 705.28 165.43 C 705.72 170.95 706.45 176.52 708.52 181.68 C 715.42 181.46 721.87 178.88 728.51 177.31 C 728.66 178.81 729.45 181.21 727.14 181.33 C 720.83 182.91 714.53 185.60 707.93 185.21 C 704.07 184.62 704.18 179.81 703.37 176.89 C 700.94 166.98 701.73 156.76 700.74 146.69 C 699.59 146.63 698.45 146.56 697.31 146.49 C 697.38 145.25 697.51 144.01 697.62 142.78 Z" />
<path fill="#525251" d=" M 82.54 146.46 C 82.64 144.50 86.18 143.26 85.75 146.10 C 85.03 149.74 83.90 153.32 83.89 157.08 C 82.70 181.38 84.27 205.75 82.61 230.03 C 82.37 243.03 79.96 255.88 79.64 268.88 C 78.74 313.12 79.56 357.39 79.11 401.64 C 78.77 400.92 78.09 399.49 77.74 398.77 C 77.37 396.88 77.58 394.93 77.55 393.03 C 77.61 352.70 77.43 312.37 77.80 272.04 C 77.96 258.97 80.27 246.06 80.73 233.01 C 82.35 209.03 81.43 184.98 81.87 160.97 C 82.09 156.14 81.36 151.20 82.54 146.46 Z" />
<path fill="#dd4e0c" d=" M 673.00 148.10 C 676.85 145.78 681.48 145.40 685.88 145.17 C 685.83 146.24 685.69 147.29 685.47 148.34 C 682.30 150.12 678.30 149.07 675.21 151.09 C 669.22 154.74 664.59 160.51 662.22 167.10 C 660.68 171.13 659.31 175.87 660.91 180.05 C 665.31 185.25 672.57 188.92 679.48 187.31 C 684.11 184.66 690.78 180.73 688.82 174.34 C 685.35 174.42 681.88 174.58 678.42 174.49 C 678.06 172.71 678.68 170.34 680.98 170.68 C 684.37 170.54 687.77 170.38 691.18 170.38 C 693.05 174.47 693.71 179.85 690.44 183.43 C 687.49 186.57 683.98 189.35 679.98 191.00 C 672.88 192.51 665.69 189.29 660.34 184.76 C 657.87 182.62 656.23 179.39 656.64 176.07 C 657.55 164.95 663.49 154.13 673.00 148.10 Z" />
<path fill="#222221" d=" M 89.10 146.63 C 93.27 145.89 97.48 146.79 101.65 147.13 C 102.02 147.55 102.76 148.40 103.13 148.82 C 99.49 149.29 95.80 149.35 92.14 149.17 C 90.59 149.22 89.75 147.82 89.10 146.63 Z" />
<path fill="#dd4e0c" d=" M 818.08 148.64 C 835.02 147.22 852.04 147.20 868.98 145.83 C 878.12 145.05 887.15 146.89 896.14 148.25 C 902.64 149.76 909.13 151.65 915.16 154.58 C 915.63 152.70 916.02 147.66 918.90 149.99 C 922.34 154.74 925.70 159.57 929.43 164.12 C 929.13 164.68 928.52 165.78 928.22 166.34 C 923.23 165.89 917.97 167.32 913.22 165.27 C 913.30 162.79 913.50 160.31 913.71 157.84 C 905.27 154.03 896.25 151.47 887.06 150.32 C 877.85 148.44 868.39 149.27 859.07 149.58 C 845.75 150.68 832.35 150.74 819.02 151.80 C 803.59 154.01 788.36 157.43 772.88 159.34 C 771.56 159.24 768.65 160.25 768.71 158.05 C 767.86 156.53 769.85 155.54 771.06 155.56 C 786.87 154.23 802.39 150.83 818.08 148.64 Z" />
<path fill="#555554" d=" M 101.65 147.13 C 142.77 147.40 183.90 147.19 225.03 147.28 C 233.63 147.38 242.16 148.61 250.75 148.89 C 250.05 149.49 249.35 150.09 248.65 150.68 C 240.43 150.01 232.23 148.99 223.97 149.15 C 183.82 149.23 143.66 148.97 103.52 149.26 L 103.13 148.82 C 102.76 148.40 102.02 147.55 101.65 147.13 Z" />
<path fill="#050505" d=" M 491.56 149.77 C 496.83 149.05 502.17 149.09 507.47 149.40 C 509.25 155.32 508.04 161.62 508.68 167.69 C 508.46 167.55 508.02 167.26 507.80 167.12 C 508.09 163.80 507.74 160.47 506.82 157.27 C 506.44 155.72 506.05 154.17 505.64 152.64 C 494.64 152.63 483.65 152.66 472.65 152.43 L 472.34 151.39 L 472.15 150.74 C 478.62 150.52 485.16 150.92 491.56 149.77 Z" />
<path fill="#4c4c4b" d=" M 249.97 150.98 C 251.75 149.91 253.81 149.27 255.91 149.48 C 287.61 150.53 319.33 149.90 351.03 150.16 C 370.33 150.98 389.66 150.63 408.98 150.71 C 429.81 150.75 450.65 150.68 471.48 150.73 L 472.34 151.39 L 472.65 152.43 C 436.78 152.37 400.91 152.56 365.03 152.24 C 326.70 150.88 288.31 152.49 249.97 150.98 Z" />
<path fill="#504f4e" d=" M 506.82 157.27 C 507.74 160.47 508.09 163.80 507.80 167.12 C 508.02 167.26 508.46 167.55 508.68 167.69 L 508.90 167.87 C 508.77 185.50 510.30 203.10 510.24 220.72 L 509.63 221.16 C 509.33 221.42 508.75 221.95 508.46 222.21 C 508.77 208.46 507.60 194.74 507.45 180.99 C 507.37 173.08 506.47 165.18 506.82 157.27 Z" />
<path fill="#dd4e0c" d=" M 628.03 171.12 C 628.86 168.91 629.31 166.45 630.88 164.61 C 635.50 164.21 639.40 167.24 643.61 168.64 C 645.68 169.65 649.25 170.06 648.56 173.19 C 644.87 175.21 640.50 175.11 636.59 176.47 C 632.77 177.41 629.36 179.89 625.30 179.76 C 625.35 177.99 625.47 176.23 625.62 174.47 C 616.28 176.01 606.98 177.84 597.99 180.82 C 576.87 185.99 556.92 195.59 539.58 208.69 C 534.29 211.88 530.31 216.82 524.85 219.74 C 524.03 218.65 523.49 217.44 523.39 216.09 C 528.35 213.35 532.18 209.03 537.03 206.11 C 554.71 193.19 574.74 183.46 595.97 178.04 C 606.41 174.75 617.11 172.13 628.03 171.12 Z" />
<path fill="#0f37fe" d=" M 956.13 169.89 C 958.31 168.84 960.80 169.22 963.13 169.48 C 974.01 171.29 985.32 174.70 993.05 183.03 C 998.46 189.32 1002.25 197.59 1001.78 206.02 C 1001.91 214.34 1001.57 222.81 998.96 230.78 C 995.91 239.07 992.36 247.58 985.76 253.71 C 981.82 257.14 978.22 261.14 973.38 263.32 C 970.14 264.80 966.93 266.39 963.52 267.41 C 960.55 267.99 957.49 267.71 954.49 267.81 C 954.50 267.34 954.52 266.40 954.52 265.93 C 954.13 266.25 953.35 266.90 952.95 267.22 C 951.57 267.16 950.20 267.10 948.85 267.03 C 943.56 265.40 938.32 263.30 933.66 260.31 C 929.47 256.89 925.25 253.27 922.46 248.58 C 918.99 242.97 916.44 236.87 913.69 230.91 C 910.85 223.90 911.99 216.26 912.85 208.99 C 914.04 202.99 915.44 196.98 917.57 191.24 C 900.75 192.25 883.91 193.84 867.03 193.12 C 862.26 192.48 857.50 193.48 852.73 193.36 L 852.35 192.43 L 852.08 191.76 C 864.00 190.12 876.02 190.43 888.01 190.47 C 898.01 189.89 908.16 189.94 917.97 187.61 C 919.96 187.38 920.75 185.27 922.01 183.98 C 926.59 177.97 933.48 174.35 940.33 171.53 C 944.83 169.60 949.81 169.72 954.61 169.77 C 954.66 170.35 954.77 171.53 954.82 172.11 C 955.25 171.37 955.68 170.63 956.13 169.89 Z" />
<path fill="#f5f4f0" d=" M 961.08 173.02 C 971.28 174.22 981.94 177.22 989.48 184.57 C 994.03 188.95 996.65 194.98 998.13 201.03 C 999.63 217.01 996.48 233.82 987.00 247.02 C 980.30 255.12 971.51 262.01 961.03 264.17 C 945.65 265.72 929.96 256.60 923.26 242.74 C 920.28 236.70 916.60 230.79 915.58 224.02 C 914.97 216.80 915.95 209.53 917.84 202.56 C 918.95 198.63 919.51 194.45 921.67 190.90 C 923.20 190.50 926.57 190.59 925.43 187.99 C 925.20 187.50 924.74 186.53 924.51 186.04 C 928.42 181.54 933.57 178.32 939.01 175.98 C 945.22 172.80 952.61 173.04 959.25 174.56 C 959.71 174.18 960.63 173.41 961.08 173.02 Z" />
<path fill="#2d2d2c" d=" M 1193.46 181.49 C 1193.78 181.72 1194.41 182.19 1194.73 182.42 C 1195.62 183.26 1195.00 184.86 1195.26 185.98 C 1195.25 193.31 1194.94 200.67 1195.93 207.95 C 1196.19 210.88 1196.98 213.98 1195.80 216.81 C 1194.09 216.35 1194.74 214.10 1194.41 212.80 C 1192.74 202.45 1193.15 191.92 1193.46 181.49 Z" />
<path fill="#536ffa" d=" M 823.07 195.94 C 832.51 194.60 841.78 191.98 851.37 191.87 L 852.35 192.43 L 852.73 193.36 C 839.30 193.83 826.31 197.60 813.00 199.14 C 803.63 199.97 794.42 202.18 785.00 202.58 C 776.58 202.94 768.46 205.43 760.07 206.07 C 746.72 208.38 733.32 210.33 719.99 212.77 C 702.69 215.32 685.51 218.86 668.02 219.84 C 647.66 222.98 627.16 225.37 606.96 229.48 C 593.94 231.90 580.56 232.22 567.71 235.61 C 562.75 236.83 557.56 237.55 552.47 236.82 C 552.97 236.58 553.96 236.09 554.46 235.85 C 551.94 235.34 549.41 234.91 546.94 234.26 C 554.39 234.89 562.07 235.59 569.38 233.53 C 581.99 230.42 595.07 230.22 607.78 227.66 C 625.03 224.07 642.56 222.17 659.93 219.33 C 668.53 217.82 677.30 217.68 685.94 216.47 C 714.02 212.39 741.90 207.05 769.99 203.07 C 779.61 200.86 789.55 200.94 799.27 199.33 C 807.16 197.87 815.21 197.56 823.07 195.94 Z" />
<path fill="#0f37fe" d=" M 940.54 193.64 C 943.21 192.64 946.10 193.40 948.60 194.54 C 950.73 200.80 948.41 207.24 945.93 213.01 C 945.29 213.62 944.67 214.24 944.05 214.85 C 948.47 219.40 951.55 225.52 950.79 232.01 C 951.55 236.53 946.99 239.38 943.03 239.54 C 939.99 239.61 936.17 240.68 933.78 238.22 C 930.67 235.01 931.02 230.10 930.79 225.96 C 930.68 220.84 934.14 216.81 936.81 212.80 C 936.46 209.86 935.04 207.05 935.54 204.02 C 935.98 200.20 937.14 195.88 940.54 193.64 Z" />
<path fill="#050404" d=" M 128.23 196.18 C 128.75 196.26 129.80 196.42 130.33 196.50 C 130.41 197.80 130.50 199.11 130.59 200.42 C 137.38 199.77 144.19 198.36 151.03 199.15 C 159.04 199.68 167.02 198.78 175.02 198.63 C 177.17 198.60 180.11 198.62 181.05 200.98 C 183.96 206.74 186.42 212.72 189.67 218.30 C 190.34 219.53 191.37 220.50 192.48 221.35 C 198.31 220.88 204.15 221.57 209.99 221.53 C 222.32 221.60 234.64 221.53 246.97 221.41 C 255.27 220.30 263.66 220.76 272.00 221.13 C 275.90 220.91 279.82 221.01 283.71 221.35 C 284.49 221.70 285.26 222.06 286.04 222.44 C 284.93 222.75 283.82 223.06 282.72 223.34 C 271.14 223.61 259.53 223.08 247.98 224.18 C 231.33 224.66 214.66 223.74 198.01 224.71 C 194.40 224.62 189.19 225.92 187.53 221.56 C 184.75 214.99 180.99 208.93 177.82 202.57 C 167.39 200.35 156.57 200.82 145.96 201.25 C 140.64 201.37 135.64 203.40 130.40 204.07 C 129.74 208.67 129.57 213.31 129.63 217.95 C 129.69 241.63 129.45 265.30 129.78 288.98 C 131.45 309.08 130.18 329.29 131.07 349.42 C 130.43 352.77 129.72 356.13 129.45 359.54 C 128.78 351.05 128.49 342.53 128.97 334.02 C 128.45 325.02 128.75 316.00 129.24 307.01 C 128.55 298.04 128.22 289.03 128.50 280.03 C 128.56 257.35 128.58 234.66 128.48 211.97 C 128.85 206.69 127.28 201.39 128.23 196.18 Z" />
<path fill="#f5f4f0" d=" M 941.14 198.13 C 941.86 196.57 944.48 195.95 945.47 197.40 C 946.52 202.64 944.17 207.56 941.93 212.12 C 937.93 208.61 938.71 202.32 941.14 198.13 Z" />
<path fill="#0f37fe" d=" M 963.87 206.86 C 965.09 203.22 968.62 201.37 971.08 198.68 C 974.48 199.01 978.61 199.18 980.70 202.36 C 985.49 208.54 984.29 216.86 982.96 223.99 C 981.07 229.79 978.86 236.10 974.04 240.12 C 967.54 242.59 959.20 237.15 959.60 229.97 C 959.66 222.10 961.38 214.29 963.87 206.86 Z" />
<path fill="#f5f4f0" d=" M 130.40 204.07 C 135.64 203.40 140.64 201.37 145.96 201.25 C 156.57 200.82 167.39 200.35 177.82 202.57 C 180.99 208.93 184.75 214.99 187.53 221.56 C 189.19 225.92 194.40 224.62 198.01 224.71 C 214.66 223.74 231.33 224.66 247.98 224.18 C 259.53 223.08 271.14 223.61 282.72 223.34 C 297.81 223.13 312.91 222.23 328.00 223.17 C 341.32 223.17 354.64 223.25 367.96 223.25 C 382.24 222.61 396.57 222.55 410.86 223.16 C 416.68 223.36 422.57 223.24 428.28 224.55 C 428.58 226.29 428.89 228.04 429.20 229.79 C 429.61 234.56 429.66 239.37 430.53 244.09 C 431.66 250.20 433.53 256.17 434.12 262.38 C 435.83 271.50 437.41 280.72 437.34 290.04 C 437.31 295.74 438.74 301.34 438.75 307.05 C 438.80 316.80 439.10 326.56 439.76 336.28 C 440.57 341.22 441.31 346.21 440.93 351.23 C 440.49 361.29 440.95 371.36 440.13 381.40 C 420.86 383.67 401.40 381.90 382.05 382.60 C 370.37 382.64 358.69 382.41 347.02 382.87 C 343.05 383.51 339.02 383.31 335.01 383.30 C 280.66 383.32 226.32 383.29 171.97 383.31 C 166.00 383.19 160.01 383.57 154.07 382.86 C 147.99 382.45 141.83 382.69 135.86 381.28 C 136.02 376.69 135.00 372.23 133.37 367.97 C 132.10 361.87 131.96 355.58 131.07 349.42 C 130.18 329.29 131.45 309.08 129.78 288.98 C 129.45 265.30 129.69 241.63 129.63 217.95 C 129.57 213.31 129.74 208.67 130.40 204.07 Z" />
<path fill="#f5f4f0" d=" M 967.05 208.86 C 968.01 205.59 971.30 204.13 973.90 202.38 C 977.19 203.06 979.26 205.90 980.04 209.01 C 981.72 218.31 979.04 228.05 973.51 235.62 C 972.78 236.32 972.01 236.98 971.22 237.58 C 968.15 236.67 964.30 235.45 963.47 231.90 C 962.74 224.07 964.66 216.25 967.05 208.86 Z" />
<path fill="#13b824" d=" M 1098.60 203.17 C 1100.25 203.25 1103.33 203.35 1102.43 205.93 C 1100.10 214.41 1096.07 222.34 1094.23 230.97 C 1093.87 233.88 1091.70 236.36 1088.59 235.85 C 1086.29 229.88 1085.92 223.42 1084.05 217.34 C 1081.54 223.20 1080.78 229.56 1079.27 235.70 C 1077.68 235.59 1076.14 235.16 1075.50 233.58 C 1071.09 225.50 1067.24 216.62 1067.20 207.27 C 1068.26 207.26 1069.33 207.27 1070.41 207.28 C 1071.59 214.81 1073.51 222.21 1077.03 229.01 C 1077.96 222.48 1080.79 216.48 1082.71 210.22 C 1083.81 210.31 1084.93 210.41 1086.06 210.51 C 1088.16 216.86 1089.29 223.45 1090.24 230.05 C 1092.24 220.86 1095.99 212.19 1098.60 203.17 Z" />
<path fill="#13b824" d=" M 1181.64 204.44 C 1183.61 204.01 1187.05 203.84 1186.39 206.90 C 1185.55 214.81 1182.54 222.29 1180.59 229.96 C 1179.66 232.70 1179.15 236.29 1176.10 237.50 C 1174.55 238.19 1173.47 236.64 1172.76 235.58 C 1169.98 230.45 1169.83 224.48 1168.24 218.97 C 1166.86 224.07 1165.78 229.25 1164.15 234.27 C 1163.71 236.21 1161.49 237.50 1159.66 236.52 C 1156.13 230.96 1155.01 224.30 1153.24 218.05 C 1152.30 214.91 1152.34 211.59 1152.36 208.34 C 1153.39 208.33 1154.44 208.37 1155.50 208.45 C 1156.83 211.01 1156.03 214.08 1156.78 216.82 C 1157.97 221.74 1158.85 226.82 1161.18 231.37 C 1163.16 224.83 1164.79 218.20 1166.88 211.69 C 1168.00 211.62 1169.14 211.55 1170.30 211.49 C 1172.36 217.95 1173.07 224.74 1175.14 231.20 C 1177.91 222.46 1180.82 213.62 1181.64 204.44 Z" />
<path fill="#13b824" d=" M 1142.89 208.86 C 1143.25 206.09 1148.44 207.25 1147.46 209.92 C 1145.57 218.40 1142.60 226.58 1140.15 234.90 C 1139.56 237.39 1138.01 239.45 1136.01 241.00 C 1134.63 239.80 1132.81 238.83 1132.34 236.93 C 1130.14 230.79 1129.53 224.25 1128.11 217.92 C 1126.67 223.73 1125.49 229.66 1123.26 235.24 C 1122.34 237.65 1118.51 237.36 1117.92 234.86 C 1114.57 227.24 1113.33 218.91 1110.86 211.00 C 1109.60 208.46 1114.41 207.48 1114.63 210.16 C 1116.54 217.46 1118.28 224.81 1120.17 232.12 C 1123.43 225.04 1124.25 217.16 1126.98 209.89 C 1127.51 209.74 1128.58 209.45 1129.11 209.30 C 1131.21 211.49 1131.16 214.71 1131.76 217.50 C 1132.83 223.12 1133.20 229.02 1135.72 234.24 C 1138.18 225.80 1140.81 217.40 1142.89 208.86 Z" />
<path fill="#f5f4f0" d=" M 936.12 220.18 C 937.14 218.42 938.38 216.79 939.65 215.20 C 943.90 219.79 948.14 225.38 947.32 232.04 C 947.72 235.89 942.66 235.88 940.04 236.24 C 937.58 236.95 935.31 235.45 934.92 232.97 C 934.35 228.75 933.68 223.96 936.12 220.18 Z" />
<path fill="#040404" d=" M 1195.78 225.03 C 1195.94 222.94 1194.76 219.48 1196.67 218.21 C 1196.79 218.39 1197.04 218.76 1197.16 218.94 C 1197.42 225.43 1199.36 231.67 1200.38 238.05 C 1201.91 245.25 1200.79 252.66 1201.73 259.93 C 1202.51 265.60 1202.51 271.34 1202.42 277.05 C 1202.69 279.40 1200.34 280.60 1199.38 282.44 C 1195.46 289.01 1191.66 295.89 1185.66 300.81 C 1180.56 304.95 1174.88 308.41 1168.93 311.15 C 1158.23 314.71 1147.20 317.52 1135.95 318.52 C 1119.69 318.12 1102.36 318.60 1087.78 310.19 C 1079.31 304.55 1069.82 299.64 1063.95 291.00 C 1061.95 285.85 1062.78 280.19 1062.15 274.80 C 1061.47 269.66 1061.58 264.44 1060.55 259.35 C 1060.80 258.98 1061.29 258.24 1061.54 257.86 C 1061.70 258.92 1061.91 259.97 1062.16 261.01 C 1063.27 266.65 1063.79 272.39 1064.99 278.01 C 1065.84 282.23 1065.13 286.83 1067.24 290.75 C 1071.62 296.91 1078.43 300.46 1084.58 304.55 C 1094.03 311.91 1105.98 315.57 1117.89 315.74 C 1131.83 317.30 1145.97 315.62 1159.40 311.70 C 1167.08 309.88 1173.88 305.67 1180.34 301.29 C 1187.43 296.34 1192.32 289.02 1196.36 281.52 C 1197.38 279.40 1197.84 277.00 1199.38 275.16 C 1199.46 268.42 1199.56 261.65 1198.78 254.94 C 1198.36 248.91 1199.13 242.83 1198.17 236.83 C 1197.50 232.87 1196.90 228.89 1195.78 225.03 Z" />
<path fill="#323231" d=" M 411.99 221.32 C 417.70 221.07 423.45 220.19 429.15 221.00 C 422.99 221.12 416.96 222.47 410.86 223.16 C 396.57 222.55 382.24 222.61 367.96 223.25 C 354.64 223.25 341.32 223.17 328.00 223.17 C 312.91 222.23 297.81 223.13 282.72 223.34 C 283.82 223.06 284.93 222.75 286.04 222.44 C 285.26 222.06 284.49 221.70 283.71 221.35 C 305.15 221.62 326.59 221.41 348.03 221.32 C 369.35 221.11 390.67 221.93 411.99 221.32 Z" />
<path fill="#030303" d=" M 410.86 223.16 C 416.96 222.47 422.99 221.12 429.15 221.00 C 431.11 221.80 432.20 223.85 432.35 225.90 C 433.14 235.59 433.39 245.40 436.14 254.81 C 437.00 263.19 438.96 271.49 439.36 279.90 C 438.14 288.79 441.60 297.67 439.55 306.49 C 438.61 298.02 437.47 289.57 437.78 281.03 C 436.61 271.27 434.85 261.57 433.02 251.91 C 430.96 244.67 431.04 237.07 429.20 229.79 C 428.89 228.04 428.58 226.29 428.28 224.55 C 422.57 223.24 416.68 223.36 410.86 223.16 Z" />
<path fill="#0f37fe" d=" M 484.53 232.61 C 491.23 227.06 499.33 221.48 508.46 222.21 C 508.49 223.06 508.55 224.77 508.58 225.62 C 498.69 225.58 490.28 231.89 483.41 238.37 C 475.18 245.84 470.20 256.78 470.54 267.95 C 469.86 277.84 475.68 286.34 480.86 294.20 C 483.47 298.54 487.97 301.11 492.00 303.94 C 497.73 307.94 504.79 309.93 511.77 309.51 C 511.74 310.82 511.70 312.12 511.68 313.44 C 504.38 313.05 496.81 311.63 490.75 307.29 C 486.31 304.16 481.22 301.48 478.31 296.69 C 475.01 291.23 470.96 286.12 468.94 279.99 C 466.89 275.25 467.12 270.00 467.28 264.96 C 467.29 252.14 474.89 240.53 484.53 232.61 Z" />
<path fill="#0d0d0d" d=" M 508.46 222.21 C 508.75 221.95 509.33 221.42 509.63 221.16 C 509.86 221.49 510.33 222.14 510.56 222.47 C 510.43 223.68 509.94 224.73 509.09 225.62 L 508.58 225.62 C 508.55 224.77 508.49 223.06 508.46 222.21 Z" />
<path fill="#0f37fe" d=" M 509.09 225.62 C 509.94 224.73 510.43 223.68 510.56 222.47 C 523.12 224.56 536.15 227.06 546.94 234.26 C 549.41 234.91 551.94 235.34 554.46 235.85 C 553.96 236.09 552.97 236.58 552.47 236.82 C 552.03 237.02 551.16 237.43 550.72 237.63 C 553.16 240.39 555.15 243.58 556.39 247.06 C 557.94 252.24 556.76 257.65 556.68 262.94 C 556.65 268.72 555.03 274.31 552.99 279.67 C 557.61 279.57 562.21 279.01 566.81 278.60 C 568.70 279.02 570.58 279.54 572.49 279.94 C 565.52 280.56 558.68 282.22 551.68 282.51 C 547.02 291.69 542.11 301.53 533.02 307.11 C 527.38 311.35 520.42 313.71 513.34 313.36 C 513.34 312.40 513.34 310.48 513.35 309.52 C 521.54 310.63 529.00 306.19 535.05 301.16 C 540.77 296.33 543.97 289.38 547.63 283.01 C 547.60 282.46 547.54 281.36 547.50 280.81 C 553.50 273.73 553.28 263.72 553.52 254.95 C 554.34 247.06 549.42 238.73 541.79 236.18 C 539.29 233.70 536.06 232.22 532.72 231.24 C 524.82 228.84 516.77 226.39 508.43 226.43 L 509.09 225.62 Z" />
<path fill="#f5f4f0" d=" M 483.41 238.37 C 490.28 231.89 498.69 225.58 508.58 225.62 L 509.09 225.62 L 508.43 226.43 C 516.77 226.39 524.82 228.84 532.72 231.24 C 536.06 232.22 539.29 233.70 541.79 236.18 C 549.42 238.73 554.34 247.06 553.52 254.95 C 553.28 263.72 553.50 273.73 547.50 280.81 C 547.54 281.36 547.60 282.46 547.63 283.01 C 543.97 289.38 540.77 296.33 535.05 301.16 C 529.00 306.19 521.54 310.63 513.35 309.52 C 512.95 309.52 512.16 309.51 511.77 309.51 C 504.79 309.93 497.73 307.94 492.00 303.94 C 487.97 301.11 483.47 298.54 480.86 294.20 C 475.68 286.34 469.86 277.84 470.54 267.95 C 470.20 256.78 475.18 245.84 483.41 238.37 Z" />
<path fill="#313130" d=" M 429.20 229.79 C 431.04 237.07 430.96 244.67 433.02 251.91 C 434.85 261.57 436.61 271.27 437.78 281.03 C 437.47 289.57 438.61 298.02 439.55 306.49 C 439.13 310.33 439.48 314.20 440.11 318.01 C 441.08 324.08 439.93 330.20 439.76 336.28 C 439.10 326.56 438.80 316.80 438.75 307.05 C 438.74 301.34 437.31 295.74 437.34 290.04 C 437.41 280.72 435.83 271.50 434.12 262.38 C 433.53 256.17 431.66 250.20 430.53 244.09 C 429.66 239.37 429.61 234.56 429.20 229.79 Z" />
<path fill="#0f37fe" d=" M 911.31 232.35 C 912.70 231.79 914.42 232.15 914.23 234.00 C 913.47 236.14 910.74 235.93 908.94 236.58 C 901.40 237.73 893.72 237.05 886.14 237.73 C 880.60 238.38 875.01 238.21 869.47 238.83 C 867.92 238.82 866.41 238.78 864.88 238.72 C 866.30 238.17 867.73 237.63 869.19 237.14 C 876.90 234.88 885.04 236.10 892.91 234.91 C 899.03 233.95 905.31 234.05 911.31 232.35 Z" />
<path fill="#546ffa" d=" M 859.50 238.81 C 862.68 238.01 865.92 237.44 869.19 237.14 C 867.73 237.63 866.30 238.17 864.88 238.72 C 866.41 238.78 867.92 238.82 869.47 238.83 C 867.58 239.64 865.54 239.97 863.52 240.19 C 857.66 240.81 851.90 242.22 846.00 242.43 C 834.75 242.84 823.52 243.83 812.40 245.56 C 800.93 246.74 789.37 246.79 777.93 248.32 C 758.59 250.53 739.19 252.48 720.02 255.92 C 709.07 257.64 697.95 257.98 687.04 259.92 C 676.67 261.86 666.21 263.19 655.78 264.73 C 640.94 267.81 625.76 269.25 611.05 273.03 C 598.22 275.44 585.59 279.21 572.49 279.94 C 570.58 279.54 568.70 279.02 566.81 278.60 C 572.51 277.96 578.27 277.81 583.96 276.95 C 592.45 275.88 600.58 273.07 609.04 271.80 C 624.49 267.91 640.36 266.15 655.97 263.08 C 666.32 261.48 676.72 260.23 687.02 258.28 C 697.99 256.29 709.18 256.03 720.18 254.23 C 728.36 252.66 736.66 251.82 744.89 250.46 C 765.61 248.23 786.27 245.19 807.12 244.45 C 815.80 243.71 824.37 241.98 833.09 241.52 C 841.91 240.96 850.87 241.01 859.50 238.81 Z" />
<path fill="#7f7e7c" d=" M 151.87 240.72 C 152.96 240.66 154.06 240.62 155.15 240.60 L 154.05 240.99 C 153.71 241.11 153.03 241.33 152.69 241.45 C 153.79 247.11 153.57 252.87 153.43 258.61 C 151.89 252.78 153.65 246.58 151.87 240.72 Z" />
<path fill="#050505" d=" M 374.32 241.50 C 384.95 240.86 395.59 240.42 406.25 240.57 C 408.25 244.58 407.90 249.26 406.19 253.31 C 394.17 254.25 382.02 252.68 370.02 254.12 C 365.00 254.38 359.98 254.32 354.96 254.17 C 354.23 254.17 352.76 254.15 352.03 254.15 C 342.19 254.66 332.30 254.90 322.56 256.39 L 322.44 255.66 C 321.72 255.66 320.27 255.64 319.55 255.63 L 319.45 256.43 C 317.96 256.32 316.48 256.27 315.01 256.10 C 311.49 255.50 307.92 255.25 304.37 254.90 C 314.28 254.38 324.21 255.07 334.11 254.16 C 337.40 253.50 340.77 253.51 344.10 253.11 C 353.35 252.06 362.77 253.28 372.00 251.71 C 382.49 250.08 393.11 250.67 403.68 250.22 C 403.75 248.33 403.79 246.44 403.80 244.55 C 399.30 243.28 394.59 243.92 389.98 243.76 C 384.34 243.83 378.73 243.15 373.09 243.16 C 373.40 242.74 374.01 241.92 374.32 241.50 Z" />
<path fill="#040403" d=" M 152.69 241.45 C 153.03 241.33 153.71 241.11 154.05 240.99 C 157.63 242.09 161.26 243.23 165.04 243.41 C 175.65 243.84 186.31 243.48 196.91 243.74 L 198.45 244.49 C 186.96 245.07 175.43 244.37 163.93 244.87 C 161.39 245.26 158.82 245.28 156.33 244.63 C 156.18 248.57 156.44 252.51 156.73 256.45 C 163.11 257.92 169.75 258.26 176.29 258.31 C 174.08 258.67 171.90 259.18 169.69 259.54 C 164.33 259.60 158.32 261.65 153.43 258.61 C 153.57 252.87 153.79 247.11 152.69 241.45 Z" />
<path fill="#4c4c4b" d=" M 231.01 241.76 C 278.77 241.19 326.55 241.56 374.32 241.50 C 374.01 241.92 373.40 242.74 373.09 243.16 C 335.72 243.22 298.34 243.16 260.96 243.19 C 249.40 243.24 237.83 243.02 226.28 243.68 C 226.68 246.71 227.23 249.83 226.37 252.84 C 225.74 252.78 224.49 252.65 223.86 252.59 C 227.47 252.01 226.15 247.92 226.17 245.37 C 225.70 245.12 224.75 244.62 224.28 244.37 C 224.00 244.23 223.45 243.95 223.17 243.81 C 214.97 244.46 206.60 245.02 198.45 244.49 L 196.91 243.74 C 208.23 242.63 219.66 242.77 231.01 241.76 Z" />
<path fill="#181818" d=" M 243.50 251.42 C 243.26 248.95 242.43 245.67 244.97 244.10 C 245.28 244.49 245.90 245.28 246.21 245.67 C 246.18 247.47 246.17 249.28 246.14 251.09 C 245.25 251.20 244.38 251.31 243.50 251.42 Z" />
<path fill="#0f37fe" d=" M 496.15 246.25 C 498.94 243.16 504.38 242.68 507.23 245.92 C 508.66 252.56 504.00 258.82 499.24 262.95 C 505.07 266.61 508.65 273.29 509.33 280.05 C 509.72 282.80 508.28 285.62 505.77 286.84 C 501.89 288.84 497.26 289.15 493.00 288.53 C 488.34 285.94 486.02 280.23 486.39 275.04 C 486.45 269.97 490.16 266.09 493.46 262.67 C 491.51 257.28 491.71 250.40 496.15 246.25 Z" />
<path fill="#151514" d=" M 224.28 244.37 C 224.75 244.62 225.70 245.12 226.17 245.37 C 226.15 247.92 227.47 252.01 223.86 252.59 C 223.65 249.85 223.61 247.06 224.28 244.37 Z" />
<path fill="#111111" d=" M 236.79 245.57 C 237.62 245.57 238.46 245.57 239.30 245.57 C 239.34 247.20 239.36 248.83 239.37 250.46 C 238.44 250.47 237.51 250.47 236.59 250.48 C 236.63 248.84 236.70 247.21 236.79 245.57 Z" />
<path fill="#0a0a0a" d=" M 165.55 246.35 C 166.43 246.46 167.31 246.58 168.19 246.71 C 168.19 248.89 168.18 251.07 168.16 253.25 C 167.22 253.37 166.28 253.49 165.34 253.61 C 165.32 251.18 165.39 248.77 165.55 246.35 Z" />
<path fill="#070707" d=" M 216.57 253.45 C 216.80 250.70 215.95 247.55 217.77 245.20 L 219.43 245.65 C 219.53 248.25 219.36 250.85 219.32 253.46 C 218.40 253.45 217.48 253.45 216.57 253.45 Z" />
<path fill="#040404" d=" M 250.88 246.46 C 253.67 246.39 252.62 249.58 252.65 251.38 C 252.19 251.39 251.25 251.41 250.79 251.42 C 250.52 251.07 249.99 250.39 249.72 250.05 C 250.11 248.85 250.50 247.65 250.88 246.46 Z" />
<path fill="#131312" d=" M 193.31 250.89 C 193.81 249.16 194.39 247.45 195.03 245.78 C 196.63 248.06 196.19 250.87 196.28 253.48 C 194.88 253.37 193.49 253.24 192.10 253.11 L 193.08 252.48 L 194.12 251.85 L 193.09 251.43 L 192.09 250.97 L 193.31 250.89 Z" />
<path fill="#060606" d=" M 202.69 253.48 C 202.78 250.87 201.44 247.53 204.14 245.80 C 205.30 248.30 205.56 251.05 205.72 253.76 C 204.71 253.67 203.70 253.58 202.69 253.48 Z" />
<path fill="#f5f4f0" d=" M 498.78 248.80 C 500.01 247.25 502.12 247.58 503.87 247.34 C 503.87 252.60 500.55 257.68 495.93 260.08 C 495.72 256.20 495.60 251.60 498.78 248.80 Z" />
<path fill="#0f37fe" d=" M 521.66 251.18 C 526.75 246.10 536.81 247.35 539.39 254.45 C 541.58 263.61 536.37 272.09 531.02 279.03 C 528.64 281.67 525.98 285.05 522.03 284.85 C 516.30 285.42 510.15 280.05 511.54 274.05 C 512.49 265.46 519.10 259.15 521.66 251.18 Z" />
<path fill="#313130" d=" M 186.33 250.29 C 187.48 248.93 189.36 249.86 190.83 249.85 L 189.95 251.00 C 190.74 251.10 192.31 251.32 193.09 251.43 L 194.12 251.85 L 193.08 252.48 C 190.67 253.69 188.46 255.56 185.62 254.38 C 185.86 253.05 185.01 251.17 186.33 250.29 Z" />
<path fill="#313130" d=" M 172.43 250.30 C 174.29 249.42 176.15 249.88 178.00 250.49 C 180.14 249.73 182.49 249.35 183.59 251.86 C 183.25 252.51 182.57 253.82 182.22 254.48 C 181.64 254.55 180.49 254.71 179.91 254.78 C 179.25 254.28 178.61 253.78 177.95 253.30 C 176.25 252.06 174.31 251.21 172.43 250.30 Z" />
<path fill="#313130" d=" M 228.71 250.60 C 230.32 250.38 231.95 250.34 233.58 250.45 C 233.54 252.00 233.45 253.55 233.30 255.10 C 232.40 255.21 231.50 255.33 230.61 255.45 C 230.10 255.13 229.09 254.47 228.58 254.15 C 228.62 252.96 228.66 251.78 228.71 250.60 Z" />
<path fill="#313130" d=" M 260.28 251.08 C 261.92 250.15 263.78 250.15 265.60 250.40 C 265.66 252.19 265.99 254.20 264.42 255.48 C 262.12 254.94 260.15 256.27 257.99 256.67 C 255.52 256.51 254.73 252.95 256.59 251.48 C 257.81 251.27 259.04 251.14 260.28 251.08 Z" />
<path fill="#0a0a09" d=" M 172.43 250.30 C 174.31 251.21 176.25 252.06 177.95 253.30 C 177.65 255.64 175.03 256.99 172.90 256.09 C 171.83 254.32 172.28 252.22 172.43 250.30 Z" />
<path fill="#313130" d=" M 208.85 252.57 C 209.95 252.54 211.06 252.53 212.17 252.52 C 212.48 253.14 213.10 254.36 213.41 254.98 C 212.89 256.06 212.38 257.14 211.86 258.23 C 224.57 258.28 237.28 258.28 249.98 258.24 C 253.64 258.30 257.26 257.71 260.89 257.30 C 260.84 257.78 260.74 258.75 260.69 259.23 C 237.13 260.06 213.54 259.44 189.96 259.64 C 183.20 259.53 176.44 259.83 169.69 259.54 C 171.90 259.18 174.08 258.67 176.29 258.31 C 187.29 258.12 198.31 258.34 209.31 258.26 C 208.73 257.16 208.16 256.08 207.59 254.99 C 208.01 254.18 208.43 253.37 208.85 252.57 Z" />
<path fill="#f5f4f0" d=" M 522.10 259.03 C 523.56 256.14 526.02 254.00 528.18 251.65 C 532.06 251.07 536.62 253.74 536.38 258.02 C 536.83 264.35 533.10 269.74 529.76 274.74 C 528.01 277.41 525.61 279.56 523.16 281.57 C 520.02 281.61 516.23 280.25 515.25 276.98 C 514.49 270.22 519.05 264.62 522.10 259.03 Z" />
<path fill="#4d4d4b" d=" M 262.48 256.98 C 276.42 256.00 290.43 255.77 304.37 254.90 C 307.92 255.25 311.49 255.50 315.01 256.10 C 298.41 257.36 281.71 257.24 265.10 258.50 C 263.91 258.66 262.77 258.53 261.65 258.12 C 261.86 257.83 262.27 257.26 262.48 256.98 Z" />
<path fill="#f5f4f0" d=" M 490.76 271.78 C 492.06 269.24 494.12 267.22 495.99 265.11 C 502.00 268.52 506.94 276.00 505.10 282.98 C 502.05 285.08 498.18 285.12 494.64 285.58 C 490.40 282.44 489.05 276.65 490.76 271.78 Z" />
<path fill="#13b824" d=" M 916.84 266.44 C 917.79 266.41 918.76 266.39 919.74 266.37 C 920.33 270.53 917.32 273.94 914.25 276.28 C 907.98 281.05 902.13 286.68 894.66 289.58 C 889.93 291.40 885.39 293.64 880.85 295.88 C 870.43 300.91 858.87 302.64 848.06 306.58 C 848.32 308.71 849.94 312.19 846.93 313.07 C 839.72 313.15 832.38 313.79 825.22 312.64 C 825.20 311.96 825.15 310.60 825.13 309.92 C 831.29 306.92 836.65 302.45 842.97 299.75 C 845.40 298.38 845.65 302.33 845.21 303.75 C 852.23 302.01 859.07 299.59 866.09 297.81 C 873.00 296.08 879.40 292.92 885.72 289.74 C 891.74 286.91 898.23 284.80 903.33 280.35 C 908.17 276.11 914.46 272.78 916.84 266.44 Z" />
<path fill="#4d4d4c" d=" M 952.95 267.22 C 953.35 266.90 954.13 266.25 954.52 265.93 C 954.52 266.40 954.50 267.34 954.49 267.81 C 953.89 288.57 952.13 309.27 950.87 330.00 C 949.53 348.32 947.39 366.60 947.40 384.99 C 946.97 425.66 947.17 466.34 947.14 507.02 C 946.95 538.72 947.94 570.57 943.84 602.09 C 943.00 614.59 943.03 627.17 943.07 639.68 C 942.46 640.94 941.81 642.18 941.22 643.46 C 941.37 626.28 940.97 609.02 943.28 591.95 C 944.90 578.68 944.76 565.31 945.39 551.99 C 945.54 516.33 945.39 480.68 945.47 445.02 C 945.73 410.31 944.57 375.50 948.36 340.92 C 949.99 316.64 952.03 292.38 952.81 268.05 C 951.44 267.89 950.05 267.73 948.85 267.03 C 950.20 267.10 951.57 267.16 952.95 267.22 Z" />
<path fill="#2b2b2a" d=" M 439.36 279.90 C 439.78 282.23 440.19 284.59 440.17 286.98 C 440.08 297.02 441.54 307.01 441.11 317.06 C 440.81 328.10 441.90 339.11 443.17 350.06 C 442.61 350.36 441.49 350.94 440.93 351.23 C 441.31 346.21 440.57 341.22 439.76 336.28 C 439.93 330.20 441.08 324.08 440.11 318.01 C 439.48 314.20 439.13 310.33 439.55 306.49 C 441.60 297.67 438.14 288.79 439.36 279.90 Z" />
<path fill="#13b824" d=" M 787.43 287.44 C 788.70 287.44 789.99 287.46 791.28 287.49 C 791.44 300.70 791.39 313.95 793.66 327.01 C 801.22 325.64 808.79 324.31 816.28 322.62 C 816.79 323.75 816.70 324.99 816.69 326.21 C 812.81 327.24 808.91 328.18 804.92 328.59 C 800.59 329.03 796.49 331.11 792.08 330.75 C 790.10 330.03 789.98 327.61 789.69 325.85 C 789.32 320.88 788.43 315.95 788.31 310.96 C 788.41 303.10 787.14 295.30 787.43 287.44 Z" />
<path fill="#13b824" d=" M 760.47 306.92 C 763.83 300.03 766.34 292.31 772.04 286.94 C 772.83 288.05 774.21 288.96 774.39 290.43 C 775.61 301.56 774.85 312.78 775.69 323.94 C 775.96 327.34 777.69 330.97 776.21 334.27 L 774.84 334.47 C 774.55 334.25 773.95 333.80 773.66 333.58 C 771.34 320.46 771.66 307.09 771.22 293.83 C 767.17 299.19 765.48 305.82 762.11 311.57 C 761.35 311.45 759.82 311.21 759.05 311.09 C 755.81 306.99 753.10 302.46 749.44 298.69 C 751.52 309.01 751.09 319.64 753.09 329.96 C 753.41 332.57 754.29 335.64 752.27 337.80 C 751.65 337.39 750.42 336.58 749.80 336.18 C 749.84 330.41 748.21 324.81 748.28 319.04 C 747.41 312.71 747.48 306.22 745.67 300.06 C 744.97 297.61 744.54 295.09 744.47 292.55 C 745.91 292.60 747.63 292.05 748.84 293.17 C 753.68 296.84 756.93 302.08 760.47 306.92 Z" />
<path fill="#13b824" d=" M 722.00 295.20 C 726.05 294.16 729.88 292.33 734.01 291.54 C 735.94 291.27 736.79 292.16 736.53 294.22 C 732.32 295.97 727.79 296.82 723.58 298.56 C 724.11 311.61 723.59 324.98 727.63 337.56 C 726.33 337.61 725.05 337.65 723.78 337.66 C 721.52 329.63 720.97 321.33 720.39 313.05 C 720.12 308.52 720.73 303.92 719.59 299.48 C 714.68 300.97 709.49 300.86 704.42 300.68 C 704.37 299.57 704.32 298.46 704.30 297.35 C 710.22 296.99 716.29 297.05 722.00 295.20 Z" />
<path fill="#dd4e0c" d=" M 288.45 296.54 C 289.45 295.34 290.84 295.07 292.34 295.25 C 293.33 299.57 294.41 303.88 295.82 308.09 C 299.15 304.96 301.94 301.32 305.09 298.01 C 305.67 298.23 306.82 298.68 307.39 298.90 C 308.07 300.51 306.33 301.51 305.53 302.61 C 302.64 305.55 300.03 308.73 297.42 311.91 C 299.39 316.01 301.68 320.02 305.03 323.15 C 310.12 315.84 315.18 308.50 320.23 301.16 C 320.90 299.74 322.68 300.38 323.89 300.15 C 323.56 303.69 320.77 306.18 318.98 309.05 C 315.65 313.78 312.55 318.66 309.35 323.47 C 308.05 325.38 305.98 327.85 303.43 326.41 C 299.68 323.43 297.25 319.19 294.98 315.07 C 292.24 318.69 289.77 322.50 287.30 326.31 C 286.24 327.72 285.16 329.63 283.17 329.68 C 281.55 329.74 280.83 328.08 280.01 326.99 C 274.86 318.38 272.60 308.49 269.19 299.15 C 269.19 296.25 272.95 297.45 273.42 299.53 C 276.50 308.00 277.92 317.35 283.07 324.91 C 285.37 323.74 286.22 320.79 287.87 318.86 C 289.39 316.20 292.25 314.14 292.87 311.10 C 291.55 306.21 289.87 301.41 288.45 296.54 Z" />
<path fill="#13b824" d=" M 689.40 295.57 C 690.79 295.05 692.47 293.81 693.30 295.81 C 694.12 302.30 693.50 308.91 693.83 315.45 C 695.10 315.36 696.37 315.29 697.66 315.24 C 697.62 316.25 697.58 317.27 697.55 318.29 C 696.47 318.86 695.39 319.43 694.32 320.00 C 694.76 326.97 695.97 333.86 697.80 340.59 C 696.66 340.69 695.53 340.79 694.40 340.88 C 692.38 334.74 691.88 328.25 690.97 321.88 C 685.75 322.96 680.84 325.31 675.45 325.55 C 676.30 333.27 677.65 340.95 677.74 348.73 C 676.65 348.68 675.57 348.63 674.50 348.58 C 673.61 338.67 672.69 328.76 670.95 318.95 C 670.25 311.94 669.40 304.85 668.74 297.89 C 672.06 296.24 673.14 300.46 673.27 302.93 C 673.43 309.17 674.11 315.37 674.76 321.57 C 680.22 321.72 685.26 319.44 690.41 317.97 C 690.32 310.49 690.33 303.00 689.40 295.57 Z" />
<path fill="#dd4e0c" d=" M 227.80 295.78 C 231.54 294.37 231.59 299.42 232.91 301.66 C 235.35 301.02 236.25 297.92 237.77 296.10 C 238.64 296.33 239.50 296.59 240.36 296.89 C 241.09 301.35 233.26 303.59 235.68 308.26 C 237.60 311.98 239.16 315.88 241.11 319.59 L 241.79 319.78 C 246.68 312.26 250.28 303.88 256.12 297.00 C 256.99 295.64 258.72 296.60 259.97 296.53 C 259.34 298.26 258.37 299.84 257.22 301.27 C 251.90 307.90 248.95 316.04 244.06 322.94 C 242.87 324.75 240.06 325.27 238.87 323.15 C 236.29 318.94 234.89 314.12 232.44 309.83 C 226.90 314.52 226.86 323.03 221.25 327.70 C 220.02 326.94 218.16 326.77 217.74 325.14 C 214.11 316.41 209.84 307.95 205.46 299.58 C 204.63 298.39 205.27 295.83 207.21 296.51 C 209.07 297.40 209.94 299.34 210.72 301.13 C 213.67 308.10 217.13 314.84 220.30 321.70 C 220.60 321.71 221.18 321.72 221.47 321.73 C 223.99 315.96 226.94 310.42 230.48 305.22 C 229.28 302.24 226.68 299.14 227.80 295.78 Z" />
<path fill="#dd4e0c" d=" M 334.67 297.81 C 334.72 295.80 337.03 296.52 338.31 296.34 C 339.99 305.38 340.68 314.96 345.31 323.11 C 349.41 320.35 352.21 315.93 354.95 311.93 C 353.37 307.05 350.66 302.60 349.16 297.68 C 349.89 297.44 351.34 296.96 352.07 296.72 C 355.18 300.06 355.41 305.05 357.88 308.82 C 360.61 307.23 361.74 304.07 364.05 302.08 C 365.42 302.01 366.24 302.65 366.51 304.00 C 365.01 307.24 362.22 309.61 359.84 312.19 C 361.27 315.86 362.96 319.45 365.03 322.80 C 366.39 323.27 366.89 321.35 367.70 320.62 C 372.51 313.24 377.02 305.66 381.64 298.16 C 383.03 298.21 385.06 297.93 384.57 300.09 C 380.10 306.86 376.17 313.97 371.89 320.87 C 370.35 323.36 368.66 325.92 366.06 327.43 C 364.92 327.17 363.80 326.87 362.70 326.53 C 361.02 322.92 359.18 319.38 357.43 315.80 C 353.29 318.80 351.52 324.19 346.96 326.72 C 343.04 327.12 340.93 323.04 339.79 319.94 C 337.33 312.77 335.94 305.27 334.67 297.81 Z" />
<path fill="#13b824" d=" M 547.27 308.97 C 548.68 308.11 549.99 307.10 551.19 305.96 C 557.01 307.93 562.08 311.75 568.25 312.86 C 568.38 314.05 568.51 315.26 568.64 316.47 C 583.35 323.08 599.28 326.14 615.01 329.28 C 619.96 330.19 624.92 331.34 630.00 331.29 C 637.71 331.27 645.54 331.48 653.09 329.62 C 655.17 329.11 657.28 328.74 659.42 328.50 C 659.51 329.77 659.59 331.04 659.67 332.32 C 654.13 333.04 648.72 334.76 643.08 334.60 C 635.04 334.48 626.88 335.31 618.97 333.54 C 601.32 329.96 583.31 326.94 566.78 319.49 C 565.05 321.56 563.23 323.55 561.31 325.44 C 560.86 325.46 559.98 325.50 559.54 325.52 C 555.40 321.93 552.16 317.49 548.65 313.34 C 547.47 312.16 547.25 310.55 547.27 308.97 Z" />
<path fill="#030303" d=" M 511.77 309.51 C 512.16 309.51 512.95 309.52 513.35 309.52 C 513.34 310.48 513.34 312.40 513.34 313.36 C 513.99 340.18 512.64 367.06 514.75 393.83 C 516.17 402.85 515.28 412.03 516.16 421.10 C 516.10 423.00 514.43 423.77 512.73 423.22 C 512.28 415.50 513.85 407.71 512.79 399.99 C 512.55 393.33 511.09 386.68 512.19 380.03 C 512.70 357.79 512.38 335.53 512.37 313.28 L 511.68 313.44 C 511.70 312.12 511.74 310.82 511.77 309.51 Z" />
<path fill="#030303" d=" M 1190.11 347.57 C 1190.57 346.35 1191.15 345.19 1191.85 344.09 C 1193.11 345.11 1194.35 346.19 1195.54 347.31 C 1195.47 347.87 1195.32 348.97 1195.25 349.52 C 1192.50 349.79 1189.75 349.70 1187.02 349.80 C 1186.84 349.34 1186.47 348.40 1186.29 347.93 C 1187.56 347.81 1188.81 347.70 1190.11 347.57 Z" />
<path fill="#0a0a0a" d=" M 979.53 350.44 C 979.57 349.46 979.63 348.49 979.70 347.52 C 985.72 348.57 991.86 348.41 997.89 349.19 C 1013.26 349.44 1028.62 349.24 1043.99 349.31 C 1054.66 349.60 1065.27 348.08 1075.96 348.61 L 1074.37 349.55 C 1067.60 349.91 1060.78 349.28 1054.04 350.26 C 1033.72 350.39 1013.41 350.26 993.09 350.34 C 988.56 350.32 984.03 351.07 979.53 350.44 Z" />
<path fill="#757472" d=" M 1080.01 348.10 C 1115.43 347.81 1150.86 347.89 1186.29 347.93 C 1186.47 348.40 1186.84 349.34 1187.02 349.80 C 1152.02 350.17 1117.01 349.78 1082.01 350.17 C 1079.44 350.22 1076.85 350.25 1074.37 349.55 L 1075.96 348.61 C 1077.16 347.87 1078.65 348.19 1080.01 348.10 Z" />
<path fill="#030303" d=" M 129.45 359.54 C 129.72 356.13 130.43 352.77 131.07 349.42 C 131.96 355.58 132.10 361.87 133.37 367.97 C 135.00 372.23 136.02 376.69 135.86 381.28 C 141.83 382.69 147.99 382.45 154.07 382.86 C 160.01 383.57 166.00 383.19 171.97 383.31 C 226.32 383.29 280.66 383.32 335.01 383.30 C 339.02 383.31 343.05 383.51 347.02 382.87 C 358.69 382.41 370.37 382.64 382.05 382.60 C 401.40 381.90 420.86 383.67 440.13 381.40 C 440.95 371.36 440.49 361.29 440.93 351.23 C 441.49 350.94 442.61 350.36 443.17 350.06 C 443.62 360.37 443.58 370.70 443.46 381.02 C 443.60 383.87 440.73 385.96 438.04 385.43 C 427.73 384.61 417.37 384.46 407.02 384.63 C 376.01 384.86 345.00 384.20 313.99 384.31 C 281.65 384.31 249.32 384.31 216.98 384.31 C 190.32 384.42 163.65 383.99 137.00 384.79 C 135.06 385.05 132.61 384.13 132.48 381.91 C 132.33 377.23 131.55 372.59 129.78 368.24 C 129.61 365.34 129.42 362.44 129.45 359.54 Z" />
<path fill="#070707" d=" M 1161.42 372.60 C 1168.80 373.08 1176.10 371.81 1183.44 371.49 C 1183.54 372.55 1183.64 373.60 1183.75 374.67 C 1178.81 374.95 1173.92 374.01 1169.00 374.15 C 1164.70 374.00 1160.37 374.49 1156.10 373.92 C 1152.64 373.19 1149.11 373.31 1145.61 373.28 C 1149.06 373.00 1152.54 372.76 1156.02 372.85 C 1157.83 373.18 1159.67 373.34 1161.53 373.49 L 1161.42 372.60 Z" />
<path fill="#4f4f4d" d=" M 1106.01 375.68 C 1119.24 375.42 1132.38 373.55 1145.61 373.28 C 1149.11 373.31 1152.64 373.19 1156.10 373.92 C 1141.41 375.14 1126.67 376.12 1111.95 377.13 C 1094.26 377.67 1076.71 380.48 1059.00 380.67 C 1047.12 380.76 1035.17 381.17 1023.34 380.46 C 1022.40 380.13 1021.47 379.80 1020.55 379.49 C 1035.04 378.67 1049.61 379.78 1064.12 378.87 C 1078.11 378.33 1092.02 376.50 1106.01 375.68 Z" />
<path fill="#090909" d=" M 988.12 377.05 C 988.56 376.68 989.44 375.93 989.87 375.55 C 994.25 378.90 999.84 378.34 1004.96 379.16 C 1010.14 379.53 1015.36 379.11 1020.55 379.49 C 1021.47 379.80 1022.40 380.13 1023.34 380.46 C 1012.69 380.31 1001.97 380.85 991.39 379.35 C 989.99 379.18 989.14 377.84 988.12 377.05 Z" />
<path fill="#030303" d=" M 76.74 421.86 C 77.61 414.19 77.20 406.46 77.74 398.77 C 78.09 399.49 78.77 400.92 79.11 401.64 C 79.87 409.55 79.17 417.59 80.40 425.47 C 83.80 427.11 87.42 428.26 91.13 428.93 C 90.86 429.32 90.33 430.10 90.06 430.48 C 86.17 430.57 82.19 429.84 78.62 428.29 C 76.28 427.02 76.45 424.10 76.74 421.86 Z" />
<path fill="#4d4d4b" d=" M 1241.52 401.89 C 1242.10 401.81 1243.28 401.66 1243.87 401.58 C 1241.71 444.39 1238.17 487.15 1237.21 530.01 C 1235.94 553.32 1236.46 576.67 1236.30 599.99 C 1236.37 618.90 1236.22 637.81 1236.38 656.72 C 1236.36 662.95 1237.44 669.16 1237.03 675.40 C 1235.76 668.92 1236.24 662.24 1234.80 655.78 C 1234.48 631.21 1234.73 606.61 1234.69 582.03 C 1234.82 565.68 1234.44 549.31 1235.43 532.97 C 1235.90 524.67 1235.34 516.32 1236.22 508.04 C 1237.63 478.67 1239.30 449.33 1241.23 419.99 C 1241.30 413.96 1242.46 407.88 1241.52 401.89 Z" />
<path fill="#4f4e4d" d=" M 1111.01 409.58 C 1137.29 409.15 1163.57 409.13 1189.85 409.22 C 1190.26 409.61 1191.06 410.38 1191.47 410.76 C 1138.30 410.21 1085.16 412.11 1032.00 412.76 C 1024.16 412.59 1016.31 413.07 1008.49 412.55 C 1011.46 412.12 1014.41 411.55 1017.41 411.20 C 1048.60 410.85 1079.81 410.43 1111.01 409.58 Z" />
<path fill="#030303" d=" M 1189.85 409.22 C 1192.90 409.36 1195.91 408.55 1198.96 408.73 C 1201.03 408.18 1201.36 413.24 1199.08 412.38 C 1196.61 412.17 1194.24 411.41 1191.81 411.09 L 1191.47 410.76 C 1191.06 410.38 1190.26 409.61 1189.85 409.22 Z" />
<path fill="#0b0b0b" d=" M 999.31 410.27 C 1005.36 410.27 1011.33 411.69 1017.41 411.20 C 1014.41 411.55 1011.46 412.12 1008.49 412.55 C 1005.49 412.84 1002.46 412.82 999.47 412.58 C 999.43 412.00 999.35 410.85 999.31 410.27 Z" />
<path fill="#060606" d=" M 500.08 427.48 C 506.16 425.65 512.58 426.75 518.77 425.70 C 521.18 425.63 520.88 429.42 518.62 429.51 C 512.11 430.06 505.39 428.72 499.06 430.80 C 495.79 431.81 492.34 431.49 488.99 431.89 C 476.63 432.54 464.47 436.11 451.99 435.28 C 426.65 436.24 401.28 434.94 375.94 435.74 C 369.83 436.86 363.61 436.83 357.43 436.64 L 357.36 438.06 L 356.89 437.42 L 356.04 436.31 C 361.69 435.30 367.48 435.80 373.19 435.29 C 377.05 434.28 381.08 434.61 385.03 434.44 C 404.33 434.26 423.64 434.44 442.91 433.54 C 454.58 433.02 466.53 433.62 477.83 430.11 C 485.16 428.67 492.87 429.74 500.08 427.48 Z" />
<path fill="#4f4e4d" d=" M 91.13 428.93 C 105.85 432.29 120.98 432.90 136.00 433.69 C 153.32 434.70 170.65 435.18 187.99 435.84 C 205.99 435.79 223.98 436.28 241.95 437.31 C 263.64 437.30 285.35 437.99 307.01 436.78 C 323.36 436.97 339.71 435.58 356.04 436.31 L 356.89 437.42 C 346.93 438.22 336.92 437.38 326.95 438.14 C 315.32 438.88 303.64 438.17 292.02 439.18 C 267.33 439.43 242.64 439.20 217.98 437.93 C 208.35 437.51 198.70 437.80 189.07 437.54 C 171.04 436.90 153.01 436.33 135.00 435.32 C 119.88 434.60 104.73 433.61 89.83 430.82 L 90.06 430.48 C 90.33 430.10 90.86 429.32 91.13 428.93 Z" />
<path fill="#030303" d=" M 1187.67 440.22 C 1189.28 438.67 1192.60 438.87 1193.65 441.00 C 1192.30 444.26 1188.30 442.03 1185.82 441.76 C 1186.28 441.38 1187.21 440.61 1187.67 440.22 Z" />
<path fill="#545352" d=" M 1108.94 441.76 C 1135.14 440.05 1161.42 440.34 1187.67 440.22 C 1187.21 440.61 1186.28 441.38 1185.82 441.76 C 1184.39 442.58 1182.51 441.98 1180.94 442.17 C 1153.60 442.03 1126.23 441.96 1098.95 444.12 C 1067.98 444.66 1037.02 445.73 1006.05 445.32 C 1002.49 444.95 998.31 446.43 995.29 444.05 C 995.42 443.51 995.66 442.43 995.78 441.88 C 1008.70 444.24 1021.90 443.50 1034.99 443.66 C 1050.66 443.59 1066.32 442.91 1081.99 442.75 C 1090.98 442.57 1099.97 442.45 1108.94 441.76 Z" />
<path fill="#50504f" d=" M 1004.60 484.44 C 1031.08 483.99 1057.53 482.16 1083.98 480.88 C 1110.64 480.63 1137.28 479.46 1163.94 479.70 C 1165.46 479.82 1167.24 479.46 1168.57 480.46 L 1169.81 481.30 C 1153.56 481.59 1137.29 481.31 1121.04 481.75 C 1099.40 482.69 1077.69 482.22 1056.10 484.16 C 1043.54 484.35 1031.01 485.68 1018.45 485.67 C 1013.83 485.27 1009.20 484.98 1004.60 484.44 Z" />
<path fill="#070707" d=" M 1168.57 480.46 C 1173.70 480.26 1178.83 480.69 1183.97 480.53 C 1185.22 480.33 1186.40 480.77 1187.54 481.29 C 1187.48 481.86 1187.34 483.01 1187.28 483.58 C 1184.36 484.26 1181.77 482.53 1179.08 481.75 C 1175.99 481.56 1172.87 481.75 1169.81 481.30 L 1168.57 480.46 Z" />
<path fill="#222120" d=" M 988.64 483.30 C 993.99 483.12 999.30 483.90 1004.60 484.44 C 1009.20 484.98 1013.83 485.27 1018.45 485.67 C 1010.63 485.92 1002.79 485.61 994.97 485.59 C 992.77 485.34 989.57 485.96 988.64 483.30 Z" />
<path fill="#050505" d=" M 461.18 486.30 C 467.21 486.33 473.23 485.33 479.27 485.97 L 478.25 486.38 C 464.92 488.65 451.22 485.92 437.85 488.24 C 437.15 488.12 435.74 487.88 435.03 487.76 C 430.29 487.42 425.61 488.64 420.87 488.26 C 407.59 487.60 394.28 487.68 380.98 487.70 C 366.69 489.38 352.33 486.56 338.03 488.04 C 334.01 488.41 329.96 488.28 325.94 488.14 C 322.40 487.39 318.67 487.42 315.14 488.20 C 309.12 488.28 303.10 487.02 297.07 487.95 C 291.39 488.92 285.72 487.40 280.02 487.70 C 275.71 487.93 271.31 487.18 267.07 488.16 C 265.32 488.22 263.58 488.22 261.84 488.18 C 257.34 487.44 252.65 487.38 248.15 488.14 C 241.41 488.81 234.73 487.34 227.99 487.70 C 219.01 488.04 209.98 487.10 201.04 488.18 C 186.33 488.69 171.68 487.34 156.97 487.68 C 144.64 488.15 132.31 487.43 119.97 487.76 C 113.59 488.56 107.14 488.29 100.73 488.78 C 98.83 493.31 98.28 498.22 96.89 502.91 C 96.56 504.22 96.25 505.55 95.89 506.86 C 95.31 509.22 94.62 511.54 93.87 513.85 C 92.90 517.67 91.52 521.37 90.27 525.12 C 89.93 526.13 89.59 527.15 89.27 528.18 C 88.79 529.40 88.31 530.64 87.83 531.87 C 86.56 535.78 84.70 539.46 83.28 543.31 L 82.41 543.59 C 82.47 544.03 82.59 544.91 82.65 545.35 L 81.45 545.55 C 81.46 545.90 81.49 546.62 81.50 546.98 C 80.07 549.51 78.89 552.16 77.75 554.83 C 77.18 556.52 76.52 558.20 75.83 559.86 C 75.32 561.27 74.79 562.67 74.30 564.10 C 73.78 565.33 73.28 566.59 72.76 567.84 C 72.02 570.27 71.12 572.65 70.18 575.02 C 69.72 576.28 69.28 577.58 68.84 578.87 C 68.42 582.36 67.15 585.66 65.89 588.93 C 65.40 590.47 64.88 592.01 64.29 593.53 C 64.08 592.94 63.65 591.75 63.43 591.16 C 64.80 586.46 66.81 581.87 68.07 577.09 C 68.66 575.62 69.25 574.15 69.77 572.66 L 70.24 572.43 C 71.74 566.84 74.18 561.56 76.10 556.11 C 76.98 553.73 77.99 551.39 79.14 549.12 C 80.92 545.03 83.03 541.08 84.74 536.95 C 85.99 534.01 86.96 530.97 88.21 528.03 C 88.33 527.47 88.58 526.36 88.71 525.80 C 89.20 524.57 89.67 523.35 90.16 522.14 C 90.45 521.12 90.75 520.11 91.07 519.11 C 91.40 518.09 91.73 517.08 92.08 516.08 C 92.73 513.74 93.41 511.41 94.14 509.10 C 94.78 506.43 95.42 503.75 96.12 501.10 C 96.44 499.43 96.77 497.77 97.19 496.13 C 97.59 492.73 96.80 486.01 101.92 486.29 C 115.93 487.12 129.98 486.28 143.99 487.18 C 155.66 487.00 167.37 486.16 179.03 487.24 C 188.03 487.16 197.06 487.79 206.02 486.75 C 215.05 486.71 224.09 486.85 233.11 486.78 C 242.55 488.18 251.99 486.39 261.45 486.67 L 261.58 487.42 C 263.69 487.33 265.85 487.39 267.91 486.82 C 278.97 486.04 290.01 488.22 301.03 486.72 C 306.01 486.15 311.02 488.15 315.93 486.81 C 318.95 486.69 321.97 486.69 324.99 486.83 C 331.54 487.94 338.24 487.07 344.83 486.74 C 355.26 486.37 365.61 487.74 376.04 487.28 C 393.95 485.40 412.01 488.47 429.89 486.82 C 440.32 486.52 450.74 486.35 461.18 486.30 Z" />
<path fill="#030303" d=" M 437.85 488.24 C 451.22 485.92 464.92 488.65 478.25 486.38 C 480.73 485.15 481.55 490.28 479.04 489.72 C 477.47 489.96 475.95 489.35 474.44 489.10 C 476.22 491.80 476.87 495.02 478.14 497.96 C 479.47 501.12 481.24 504.07 482.86 507.10 C 483.86 508.77 484.82 510.46 485.75 512.18 C 486.44 513.49 487.13 514.82 487.82 516.15 C 490.11 521.25 492.88 526.16 494.84 531.40 L 495.29 531.68 C 496.09 533.84 496.96 535.99 497.81 538.14 C 498.91 540.42 499.87 542.76 500.83 545.10 C 501.50 546.77 502.18 548.44 502.83 550.13 C 503.50 551.78 504.15 553.45 504.77 555.13 C 505.54 556.85 506.27 558.60 506.77 560.44 L 507.23 560.69 C 508.57 564.35 510.66 567.69 511.82 571.42 L 512.68 571.69 C 512.61 572.13 512.47 573.01 512.40 573.45 L 513.61 573.65 C 513.59 574.02 513.55 574.74 513.53 575.11 C 513.87 575.59 514.55 576.56 514.90 577.05 C 518.85 584.29 522.43 591.85 528.02 598.04 C 529.17 598.90 528.57 600.26 528.28 601.40 C 526.73 601.57 525.31 600.98 523.95 600.37 C 523.72 601.38 523.51 602.41 523.30 603.44 C 517.69 604.94 511.84 602.91 506.10 603.30 L 506.30 602.55 L 506.56 601.58 C 511.20 601.51 515.84 601.27 520.44 600.63 C 521.09 599.09 521.68 597.35 523.65 597.26 C 521.30 592.88 519.02 588.47 517.12 583.89 C 516.44 582.57 515.77 581.25 515.11 579.93 C 513.28 576.67 511.58 573.34 510.19 569.86 C 508.50 566.20 506.65 562.61 505.16 558.86 C 504.45 557.20 503.77 555.54 503.16 553.86 C 502.45 552.20 501.77 550.54 501.15 548.86 C 500.45 547.20 499.78 545.54 499.19 543.86 C 498.14 541.53 497.10 539.20 496.20 536.82 C 494.80 533.76 493.40 530.69 492.24 527.54 L 491.45 527.31 C 491.45 526.97 491.45 526.27 491.45 525.92 C 488.81 521.34 486.96 516.36 484.26 511.80 C 484.00 511.32 483.46 510.37 483.19 509.89 C 482.16 508.22 481.18 506.53 480.22 504.83 C 477.60 499.50 473.26 494.78 472.26 488.83 C 460.79 488.65 449.32 488.72 437.85 488.24 Z" />
<path fill="#50504f" d=" M 254.26 510.18 C 255.42 509.73 256.67 509.72 257.89 509.68 C 277.91 509.37 297.94 508.34 317.97 508.99 C 328.97 509.81 340.02 509.36 351.01 510.27 C 366.25 511.24 381.45 512.68 396.69 513.52 C 400.73 514.02 404.81 514.10 408.88 514.01 L 408.79 514.83 C 404.95 515.67 400.95 515.00 397.05 515.14 C 379.65 514.39 362.32 512.56 344.95 511.55 C 329.30 511.35 313.67 510.25 298.01 510.64 C 282.24 510.50 266.50 511.36 250.75 511.52 C 251.93 511.08 253.08 510.61 254.26 510.18 Z" />
<path fill="#4d4d4c" d=" M 190.01 513.61 C 211.46 513.08 232.82 510.71 254.26 510.18 C 253.08 510.61 251.93 511.08 250.75 511.52 C 246.29 512.58 241.64 512.13 237.10 512.58 C 223.41 513.64 209.70 514.34 195.99 515.13 C 171.34 515.77 146.66 514.84 122.03 515.84 C 119.23 515.58 115.33 517.99 113.35 515.10 C 115.42 512.35 119.16 513.96 122.05 513.66 C 144.71 513.73 167.36 513.78 190.01 513.61 Z" />
<path fill="#060606" d=" M 396.69 513.52 C 404.05 513.72 411.42 513.90 418.76 513.32 C 418.79 513.88 418.84 515.00 418.86 515.56 C 416.52 515.65 414.04 515.56 412.08 517.07 C 411.08 517.94 409.79 517.62 408.60 517.54 C 408.65 516.86 408.75 515.51 408.79 514.83 L 408.88 514.01 C 404.81 514.10 400.73 514.02 396.69 513.52 Z" />
<path fill="#1a1a1a" d=" M 1044.08 522.19 C 1053.00 521.15 1062.05 521.87 1071.03 521.58 C 1100.34 521.52 1129.66 521.49 1158.98 521.52 C 1165.46 521.48 1171.95 521.14 1178.41 520.54 C 1179.11 521.70 1179.40 522.94 1179.26 524.25 C 1177.20 525.20 1175.02 524.27 1172.97 523.95 C 1164.12 521.93 1155.01 522.82 1146.03 522.66 C 1116.65 522.69 1087.28 522.57 1057.91 522.82 C 1045.67 523.90 1033.29 522.87 1021.04 524.17 C 1013.40 524.93 1005.70 524.35 998.07 525.14 C 995.60 525.34 993.13 525.36 990.67 525.29 C 990.56 524.80 990.33 523.82 990.22 523.32 C 998.81 523.10 1007.42 523.86 1016.02 523.20 C 1025.34 522.27 1034.72 522.38 1044.08 522.19 Z" />
<path fill="#555554" d=" M 285.93 539.76 C 304.95 539.18 323.96 537.99 343.00 538.17 C 356.67 537.68 370.35 537.90 384.03 537.79 C 395.86 537.88 407.69 537.51 419.50 538.26 C 419.14 538.72 418.42 539.64 418.06 540.10 C 405.08 539.08 392.04 539.79 379.03 539.58 C 342.65 539.34 306.28 540.48 269.94 542.25 C 220.72 542.49 171.49 542.39 122.26 542.28 L 122.24 540.43 C 153.50 540.67 184.77 540.59 216.03 540.60 C 239.33 540.41 262.66 541.18 285.93 539.76 Z" />
<path fill="#070707" d=" M 419.50 538.26 L 419.88 537.76 C 422.05 538.26 424.26 538.49 426.48 538.70 C 426.52 539.65 426.56 540.61 426.59 541.57 C 423.67 541.77 420.69 541.48 418.06 540.10 C 418.42 539.64 419.14 538.72 419.50 538.26 Z" />
<path fill="#363635" d=" M 107.72 539.90 C 112.56 539.40 117.38 540.71 122.24 540.43 L 122.26 542.28 C 117.09 542.09 111.83 542.79 106.76 541.45 L 107.72 539.90 Z" />
<path fill="#71716f" d=" M 1045.01 553.81 C 1058.02 553.30 1071.00 552.45 1083.99 551.65 C 1100.00 551.53 1115.99 550.68 1132.00 550.85 C 1145.03 551.78 1158.13 550.85 1171.17 551.83 L 1171.60 552.24 C 1172.06 552.68 1172.99 553.57 1173.46 554.01 C 1170.39 553.99 1167.36 553.62 1164.33 553.34 C 1151.26 552.15 1138.13 552.59 1125.03 552.82 C 1101.66 552.86 1078.30 553.48 1054.99 555.09 C 1042.29 555.71 1029.62 556.97 1016.90 556.83 C 1016.48 556.50 1015.64 555.84 1015.22 555.51 C 1025.08 554.18 1035.13 555.17 1045.01 553.81 Z" />
<path fill="#090909" d=" M 1171.60 552.24 C 1177.21 553.07 1182.88 552.47 1188.51 552.77 C 1188.49 553.99 1188.45 555.22 1188.41 556.45 C 1183.48 555.79 1178.74 553.94 1173.69 554.24 L 1173.46 554.01 C 1172.99 553.57 1172.06 552.68 1171.60 552.24 Z" />
<path fill="#e5e4e0" d=" M 1054.99 555.09 C 1078.30 553.48 1101.66 552.86 1125.03 552.82 C 1138.13 552.59 1151.26 552.15 1164.33 553.34 C 1158.39 555.19 1152.13 555.02 1146.02 555.66 C 1140.00 556.38 1134.04 554.92 1128.03 554.90 C 1104.28 554.30 1080.65 556.80 1056.96 557.87 C 1049.98 557.81 1043.01 558.09 1036.06 558.69 C 1029.71 559.28 1023.40 558.19 1017.06 558.12 C 1015.10 558.13 1013.16 557.75 1011.32 557.16 C 1013.17 557.01 1015.01 556.86 1016.90 556.83 C 1029.62 556.97 1042.29 555.71 1054.99 555.09 Z" />
<path fill="#2b2b2a" d=" M 993.59 558.26 C 994.20 555.83 997.01 556.05 998.98 555.81 C 1004.39 555.80 1009.81 555.49 1015.22 555.51 C 1015.64 555.84 1016.48 556.50 1016.90 556.83 C 1015.01 556.86 1013.17 557.01 1011.32 557.16 C 1005.38 557.24 999.52 558.37 993.59 558.26 Z" />
<path fill="#040404" d=" M 419.22 570.15 C 420.29 570.26 421.36 570.40 422.43 570.54 C 422.53 572.92 422.13 575.25 421.23 577.46 C 418.09 577.49 414.67 577.95 411.74 576.63 L 410.12 575.71 C 413.15 575.21 416.18 574.70 419.25 574.43 C 419.22 572.99 419.21 571.57 419.22 570.15 Z" />
<path fill="#403f3e" d=" M 133.25 573.32 C 137.93 573.19 142.46 574.47 147.07 575.02 C 159.99 576.34 173.02 576.57 185.99 575.76 C 259.33 575.10 332.67 575.59 406.00 575.38 C 407.35 575.45 408.84 575.11 410.12 575.71 L 411.74 576.63 C 361.83 577.04 311.90 576.67 261.99 576.82 C 239.38 576.67 216.78 577.36 194.16 577.33 C 174.06 577.29 153.64 579.16 133.79 575.08 C 133.66 574.64 133.39 573.76 133.25 573.32 Z" />
<path fill="#060606" d=" M 998.04 586.57 C 1004.00 586.21 1009.97 586.77 1015.95 586.61 C 1020.89 586.79 1025.90 586.36 1030.81 587.24 C 1039.30 587.29 1047.73 588.28 1056.20 588.73 C 1059.39 589.65 1062.75 589.25 1066.03 589.40 C 1074.70 589.62 1083.37 589.70 1092.04 589.71 C 1106.64 590.90 1121.33 590.05 1135.98 590.34 C 1142.95 590.08 1149.99 590.85 1156.92 589.85 C 1161.56 589.42 1166.24 589.62 1170.89 589.17 C 1171.44 588.23 1172.02 587.31 1172.62 586.41 C 1173.37 586.80 1174.88 587.58 1175.63 587.98 C 1175.61 589.06 1175.59 590.14 1175.57 591.23 C 1171.75 592.07 1167.87 592.31 1164.00 591.79 C 1142.00 590.77 1119.95 591.68 1097.94 591.19 C 1092.03 590.14 1085.96 590.98 1079.99 590.66 C 1068.91 590.87 1057.88 590.08 1046.84 589.25 C 1040.81 588.09 1034.55 588.67 1028.43 588.40 L 1028.56 587.62 C 1022.67 587.78 1016.78 587.58 1010.90 587.82 C 1007.32 588.55 1003.63 588.36 1000.06 589.10 C 998.07 590.21 998.42 587.58 998.04 586.57 Z" />
<path fill="#030303" d=" M 58.74 600.32 C 60.49 597.36 61.77 594.16 63.43 591.16 C 63.65 591.75 64.08 592.94 64.29 593.53 C 63.97 596.03 62.83 598.50 62.03 600.95 C 61.31 602.61 60.38 605.14 58.11 604.81 C 55.79 604.73 55.14 602.26 55.13 600.36 C 56.03 600.35 57.84 600.33 58.74 600.32 Z" />
<path fill="#515150" d=" M 322.98 602.29 C 346.32 601.46 369.67 601.62 393.02 601.59 C 430.86 601.59 468.71 601.58 506.56 601.58 L 506.30 602.55 L 505.54 603.33 C 454.04 603.38 402.52 603.29 351.02 603.38 C 341.01 603.41 331.01 603.66 321.02 604.14 C 297.65 603.91 274.28 604.55 250.97 606.17 C 236.22 606.28 221.46 606.03 206.72 606.65 C 171.84 608.05 136.92 607.20 102.02 607.62 C 96.91 607.63 91.79 608.08 86.68 607.63 C 88.90 607.27 91.08 606.75 93.29 606.37 C 101.49 605.63 109.73 605.84 117.96 605.77 C 144.64 605.59 171.32 606.01 198.00 605.29 C 216.95 604.29 235.95 604.72 254.92 604.25 C 277.57 602.59 300.28 602.44 322.98 602.29 Z" />
<path fill="#070707" d=" M 63.19 606.46 C 63.87 606.32 65.23 606.05 65.92 605.91 C 75.01 606.73 84.17 606.73 93.29 606.37 C 91.08 606.75 88.90 607.27 86.68 607.63 C 83.44 607.86 80.18 607.68 76.93 607.82 C 72.51 608.48 68.03 608.60 63.57 608.54 C 63.47 608.02 63.28 606.98 63.19 606.46 Z" />
<path fill="#070707" d=" M 985.17 614.54 C 988.82 614.30 992.37 615.43 996.02 615.48 C 1001.71 615.64 1007.42 615.44 1013.11 615.76 C 1015.92 616.09 1018.71 616.61 1021.56 616.11 C 1020.06 617.78 1017.89 617.44 1015.89 617.27 C 1008.36 616.02 1000.55 616.88 992.92 616.86 C 990.16 617.12 985.23 618.66 985.17 614.54 Z" />
<path fill="#030303" d=" M 228.99 619.99 C 231.35 616.64 236.31 616.48 239.50 618.69 C 242.67 620.88 244.83 624.40 245.67 628.14 C 246.90 633.14 245.84 638.28 245.23 643.29 C 244.96 645.20 243.60 646.03 241.75 645.38 C 240.95 643.51 241.65 641.50 241.88 639.61 C 242.58 636.03 242.42 632.39 242.37 628.78 C 240.86 625.16 238.47 620.48 233.88 620.72 C 229.90 622.90 228.67 627.79 227.89 631.93 C 225.75 645.22 226.02 658.84 227.54 672.18 C 227.93 675.65 229.17 679.03 231.02 682.00 C 231.98 683.45 234.70 684.78 235.94 683.02 C 237.94 679.78 239.37 676.22 240.63 672.64 C 241.23 672.33 242.43 671.72 243.03 671.41 C 243.67 671.80 244.94 672.58 245.57 672.96 C 245.31 676.30 243.64 679.26 242.27 682.25 C 240.91 685.01 239.15 687.96 236.19 689.21 C 232.51 689.29 228.63 687.55 226.74 684.28 C 225.40 681.90 224.53 679.28 223.84 676.66 C 222.02 666.54 222.62 656.22 222.95 646.01 C 223.79 637.23 223.21 627.30 228.99 619.99 Z" />
<path fill="#030303" d=" M 344.79 618.03 C 345.50 616.64 346.64 616.22 348.20 616.76 C 349.26 620.88 348.55 625.21 348.73 629.43 C 352.37 629.27 355.97 627.80 359.64 628.53 C 359.47 630.16 358.71 631.82 356.86 631.89 C 354.17 632.61 351.37 632.78 348.66 633.38 C 348.69 648.93 348.51 664.48 348.72 680.02 C 348.42 681.16 349.27 684.22 347.01 683.43 C 344.78 684.18 345.48 681.14 345.24 679.98 C 345.41 664.81 345.27 649.64 345.30 634.47 C 344.58 634.44 343.14 634.39 342.43 634.36 C 341.44 631.84 343.31 630.43 345.16 629.17 C 345.55 625.44 344.91 621.74 344.79 618.03 Z" />
<path fill="#585756" d=" M 1022.10 618.39 C 1022.04 617.85 1021.93 616.77 1021.87 616.23 C 1067.59 618.81 1113.43 616.41 1159.17 618.25 C 1158.85 618.61 1158.20 619.32 1157.87 619.68 L 1157.39 620.21 C 1134.30 618.62 1111.13 619.50 1088.01 619.27 C 1070.01 619.25 1052.00 619.17 1034.01 618.62 C 1030.03 618.46 1026.06 617.99 1022.10 618.39 Z" />
<path fill="#030303" d=" M 1159.17 618.25 C 1162.64 618.33 1166.12 618.09 1169.58 618.53 C 1169.95 620.99 1168.80 623.23 1166.01 622.89 C 1164.67 619.56 1160.67 620.51 1157.87 619.68 C 1158.20 619.32 1158.85 618.61 1159.17 618.25 Z" />
<path fill="#030303" d=" M 258.42 621.52 C 260.11 619.13 262.61 621.94 262.32 624.02 C 262.55 644.03 261.99 664.05 262.73 684.05 C 263.35 686.72 259.71 687.30 258.60 685.23 C 258.34 683.81 258.39 682.36 258.38 680.95 C 258.95 661.15 258.81 641.31 258.42 621.52 Z" />
<path fill="#050505" d=" M 276.40 632.62 C 277.43 632.63 278.47 632.66 279.50 632.70 C 279.54 633.90 279.54 635.11 279.54 636.33 C 278.48 636.36 277.43 636.39 276.37 636.43 C 276.35 635.15 276.36 633.88 276.40 632.62 Z" />
<path fill="#212120" d=" M 941.22 643.46 C 941.81 642.18 942.46 640.94 943.07 639.68 C 943.21 645.21 943.67 650.79 943.11 656.31 C 941.95 659.98 941.37 663.80 940.79 667.60 C 940.39 661.72 940.83 655.84 940.71 649.97 C 940.82 647.80 940.46 645.53 941.22 643.46 Z" />
<path fill="#030303" d=" M 1154.93 645.34 C 1155.15 643.12 1157.09 643.16 1158.83 643.13 C 1159.03 645.06 1158.40 646.84 1157.26 648.38 C 1155.03 648.31 1152.81 648.24 1150.60 648.19 C 1150.60 647.60 1150.59 646.42 1150.59 645.83 C 1152.03 645.67 1153.46 645.50 1154.93 645.34 Z" />
<path fill="#4e4d4c" d=" M 1092.00 647.60 C 1111.53 647.30 1131.13 647.82 1150.59 645.83 C 1150.59 646.42 1150.60 647.60 1150.60 648.19 C 1138.06 648.13 1125.54 649.28 1113.00 649.11 C 1100.03 649.14 1087.07 649.33 1074.11 649.61 C 1049.39 651.31 1024.56 651.16 999.87 653.34 C 996.92 653.82 994.05 654.87 991.04 654.63 C 991.58 653.48 991.91 651.84 993.45 651.66 C 1000.03 650.26 1006.83 651.30 1013.51 650.72 C 1026.97 649.71 1040.46 649.45 1053.94 649.09 C 1066.62 648.44 1079.29 647.46 1092.00 647.60 Z" />
<path fill="#030303" d=" M 321.71 652.82 C 324.17 650.15 327.38 648.08 331.17 648.48 C 334.87 652.73 336.65 658.42 336.64 664.01 C 336.67 670.54 336.72 677.06 336.62 683.59 C 335.53 683.61 334.44 683.63 333.36 683.65 C 332.67 673.20 334.92 662.10 330.03 652.35 C 326.35 651.99 323.69 655.41 322.75 658.61 C 320.36 666.68 320.81 675.19 320.45 683.51 C 319.40 683.60 318.36 683.70 317.32 683.80 C 316.04 675.27 316.84 666.58 316.63 657.99 C 316.88 655.51 316.36 652.02 318.84 650.53 C 319.50 651.02 320.83 652.00 321.49 652.49 C 321.22 653.10 320.67 654.33 320.40 654.95 C 320.73 654.42 321.38 653.35 321.71 652.82 Z" />
<path fill="#030303" d=" M 296.35 651.33 C 299.53 648.91 303.62 650.03 307.16 650.82 C 308.92 654.66 308.19 658.97 308.20 663.06 C 308.21 665.17 307.19 667.05 305.61 668.40 C 302.23 668.26 298.86 668.33 295.49 668.36 C 295.80 672.73 294.49 677.49 296.70 681.52 C 301.10 682.80 304.77 679.88 307.03 676.38 C 307.98 676.33 308.93 676.30 309.89 676.29 C 310.24 680.87 305.35 683.16 302.17 685.41 C 299.63 685.51 297.09 685.30 294.69 684.44 C 293.02 682.30 291.72 679.78 291.80 676.99 C 291.48 673.58 292.71 669.76 290.55 666.77 C 291.13 665.95 291.71 665.14 292.31 664.35 C 292.69 659.88 292.46 654.38 296.35 651.33 Z" />
<path fill="#030303" d=" M 276.54 652.54 C 277.86 651.95 279.26 651.55 280.58 652.39 C 280.38 663.80 280.49 675.22 280.45 686.63 C 279.20 686.63 277.95 686.61 276.70 686.57 C 276.70 675.23 276.82 663.88 276.54 652.54 Z" />
<path fill="#f5f4f0" d=" M 297.86 654.83 C 299.50 652.83 302.27 653.72 304.49 653.60 C 304.64 657.24 304.54 660.88 304.35 664.53 C 301.58 664.55 298.81 664.55 296.05 664.56 C 296.40 661.30 295.92 657.64 297.86 654.83 Z" />
<path fill="#060606" d=" M 1233.31 681.52 C 1234.22 672.97 1234.55 664.38 1234.80 655.78 C 1236.24 662.24 1235.76 668.92 1237.03 675.40 C 1237.21 676.63 1237.36 677.87 1237.50 679.12 C 1237.13 679.65 1236.37 680.69 1235.99 681.22 C 1235.08 681.31 1234.19 681.41 1233.31 681.52 Z" />
<path fill="#030303" d=" M 940.79 667.60 C 941.37 663.80 941.95 659.98 943.11 656.31 C 943.56 661.52 943.18 666.76 943.67 671.97 C 943.96 673.40 943.07 674.60 942.31 675.71 C 940.08 675.73 937.74 675.58 937.35 672.89 C 938.36 672.52 939.39 672.16 940.43 671.81 C 940.52 670.40 940.59 668.99 940.79 667.60 Z" />
<path fill="#100f0f" d=" M 952.88 677.88 C 957.70 678.27 962.47 679.49 967.34 679.24 C 966.94 679.61 966.14 680.34 965.75 680.71 C 960.87 680.49 955.70 682.50 951.12 680.16 C 951.56 679.59 952.44 678.45 952.88 677.88 Z" />
<path fill="#4d4c4c" d=" M 967.34 679.24 C 1008.22 679.21 1049.10 679.28 1089.99 679.23 C 1099.08 678.98 1108.04 680.61 1117.00 681.91 C 1132.74 684.74 1148.82 683.49 1164.70 684.24 C 1166.24 684.68 1167.78 685.20 1169.35 685.64 C 1158.24 685.88 1147.10 685.52 1135.98 685.41 C 1120.86 685.42 1106.19 680.71 1091.06 680.93 C 1049.29 680.63 1007.51 681.05 965.75 680.71 C 966.14 680.34 966.94 679.61 967.34 679.24 Z" />
<path fill="#050505" d=" M 1164.70 684.24 C 1180.41 682.92 1196.19 684.27 1211.93 683.48 C 1219.08 683.67 1226.29 682.59 1233.40 683.69 C 1233.40 684.93 1233.38 686.17 1233.36 687.43 C 1223.31 685.97 1213.12 686.58 1203.01 685.93 C 1191.78 685.31 1180.56 686.75 1169.35 685.64 C 1167.78 685.20 1166.24 684.68 1164.70 684.24 Z" />
<path fill="#030303" d=" M 1002.67 691.56 C 1006.60 690.58 1011.47 691.53 1013.94 694.99 C 1015.67 698.05 1015.48 701.77 1015.15 705.16 C 1014.93 707.32 1012.85 706.59 1011.38 706.58 C 1011.27 703.00 1012.18 699.14 1010.20 695.90 C 1008.36 695.43 1006.53 694.93 1004.70 694.47 C 1002.16 698.31 1002.05 703.13 1002.50 707.56 C 1005.04 713.00 1009.85 716.95 1012.74 722.19 C 1016.37 727.71 1018.05 734.40 1017.46 740.98 C 1017.29 747.93 1009.49 753.61 1002.87 751.08 C 998.78 749.49 998.01 744.79 996.81 741.12 C 996.41 737.60 995.90 734.03 996.49 730.51 C 997.46 730.54 999.39 730.61 1000.35 730.64 C 1001.04 735.94 1000.58 741.81 1003.49 746.51 C 1006.88 749.53 1012.87 746.38 1013.59 742.19 C 1014.09 737.70 1013.82 733.09 1012.25 728.84 C 1009.97 724.28 1007.17 720.00 1003.79 716.19 C 1001.40 712.86 998.09 709.44 998.54 705.03 C 998.82 700.43 998.75 694.71 1002.67 691.56 Z" />
<path fill="#030303" d=" M 1026.83 724.90 C 1027.58 721.66 1029.90 719.03 1032.83 717.54 C 1036.42 717.58 1040.41 718.25 1042.73 721.32 C 1045.54 724.53 1046.69 730.79 1042.42 733.30 C 1038.12 733.09 1033.82 733.29 1029.53 733.22 C 1029.07 739.16 1031.27 747.46 1038.08 748.60 C 1040.12 746.65 1041.75 744.35 1043.26 741.98 C 1043.87 740.67 1045.58 741.49 1046.70 741.29 C 1046.47 745.41 1043.31 748.74 1040.27 751.22 C 1037.13 752.37 1033.06 751.91 1031.02 748.99 C 1024.98 742.52 1025.28 733.01 1026.83 724.90 Z" />
<path fill="#030303" d=" M 1054.42 720.39 C 1055.72 720.30 1057.04 720.25 1058.37 720.25 C 1058.53 722.13 1058.65 723.99 1058.81 725.89 C 1061.67 724.88 1064.24 723.17 1067.09 722.14 C 1068.70 721.64 1070.40 723.74 1068.83 724.98 C 1065.90 727.57 1061.66 728.11 1058.76 730.67 C 1058.44 736.93 1059.02 743.22 1058.51 749.47 C 1057.45 749.58 1056.41 749.66 1055.37 749.71 C 1054.85 739.94 1056.00 730.09 1054.42 720.39 Z" />
<path fill="#030303" d=" M 1089.87 720.32 C 1091.06 720.35 1092.28 720.42 1093.50 720.51 C 1091.29 729.54 1088.22 738.34 1085.35 747.18 C 1084.73 749.66 1083.12 751.64 1080.91 752.89 C 1079.81 751.73 1078.45 750.70 1078.10 749.07 C 1076.33 743.13 1075.83 736.92 1074.82 730.84 C 1074.61 728.42 1073.82 725.91 1074.64 723.54 C 1075.27 723.54 1076.54 723.54 1077.17 723.54 C 1078.94 726.80 1078.45 730.67 1078.81 734.25 L 1079.22 734.77 C 1079.52 738.93 1080.37 743.03 1081.17 747.13 C 1084.71 738.44 1087.64 729.44 1089.87 720.32 Z" />
<path fill="#f5f4f0" d=" M 1029.99 729.33 C 1030.00 726.37 1030.91 723.58 1032.86 721.34 C 1036.47 720.83 1039.79 722.48 1041.39 725.79 C 1041.38 726.69 1041.37 728.50 1041.37 729.40 C 1037.57 729.37 1033.78 729.34 1029.99 729.33 Z" />
<path fill="#030303" d=" M 1128.34 722.47 C 1129.60 722.43 1130.89 722.45 1132.18 722.53 C 1132.32 724.54 1132.47 726.56 1132.62 728.59 C 1135.60 727.11 1138.27 725.13 1141.07 723.36 C 1141.71 723.43 1142.99 723.57 1143.63 723.64 C 1142.75 728.88 1136.52 730.31 1132.52 732.73 C 1132.66 739.30 1132.86 745.89 1132.51 752.47 C 1131.47 752.51 1130.44 752.55 1129.42 752.60 C 1129.18 742.55 1128.89 732.51 1128.34 722.47 Z" />
<path fill="#030303" d=" M 1104.61 724.62 C 1108.85 723.74 1113.28 724.51 1117.36 725.84 C 1118.95 728.56 1118.13 731.54 1117.15 734.32 C 1112.74 735.88 1108.00 735.02 1103.43 735.31 C 1103.21 740.06 1103.07 745.10 1105.80 749.25 C 1107.84 749.59 1110.00 750.69 1112.09 749.98 C 1114.90 749.21 1116.11 745.21 1119.46 746.28 C 1119.50 746.87 1119.56 748.04 1119.59 748.62 C 1117.09 751.30 1114.10 754.36 1110.06 753.69 C 1105.76 754.12 1102.04 751.25 1100.70 747.28 C 1099.20 742.60 1099.96 737.69 1099.43 732.90 C 1100.79 729.94 1101.39 726.20 1104.61 724.62 Z" />
<path fill="#ebeae6" d=" M 1104.76 728.67 C 1107.87 726.90 1111.39 728.25 1114.65 728.74 C 1114.55 729.64 1114.46 730.55 1114.38 731.47 C 1110.93 731.50 1107.49 731.45 1104.06 731.45 C 1104.28 730.51 1104.51 729.59 1104.76 728.67 Z" />
</svg>
