<?xml version="1.0" encoding="UTF-8" ?>
<!DOCTYPE svg PUBLIC "-//W3C//DTD SVG 1.1//EN" "http://www.w3.org/Graphics/SVG/1.1/DTD/svg11.dtd">
<svg width="1155pt" height="866pt" viewBox="0 0 1155 866" version="1.1" xmlns="http://www.w3.org/2000/svg">
<path fill="#f5f4f0" d=" M 0.00 0.00 L 1155.00 0.00 L 1155.00 866.00 L 0.00 866.00 L 0.00 0.00 Z" />
<path fill="#545453" d=" M 1033.43 133.41 C 1034.46 131.62 1035.49 134.43 1036.46 134.80 C 1034.93 136.22 1033.21 137.63 1030.97 137.36 C 1017.96 137.56 1004.98 138.37 992.00 139.22 C 981.98 139.52 971.98 140.23 962.01 141.29 C 959.31 141.35 956.45 142.06 953.92 140.85 C 954.02 140.70 954.23 140.40 954.34 140.24 C 978.53 138.52 1002.74 136.89 1026.98 136.01 C 1029.43 136.05 1031.84 135.41 1033.43 133.41 Z" />
<path fill="#5c5c5a" d=" M 870.01 142.65 C 893.99 141.15 918.03 141.24 942.05 140.66 C 945.26 140.74 948.74 139.74 951.78 141.14 C 951.82 141.36 951.91 141.81 951.95 142.03 C 931.30 142.64 910.63 142.40 889.98 143.22 C 872.30 143.80 854.64 145.04 836.94 145.33 C 821.32 145.51 805.74 147.48 790.11 147.09 C 793.01 146.34 796.01 146.26 798.99 146.46 C 797.45 146.25 795.93 146.01 794.41 145.83 C 802.25 145.41 810.09 145.08 817.93 144.63 C 835.27 143.58 852.66 143.74 870.01 142.65 Z" />
<path fill="#222221" d=" M 778.86 147.21 C 780.16 144.79 782.88 145.60 785.07 145.66 C 788.17 145.94 791.29 145.69 794.41 145.83 C 795.93 146.01 797.45 146.25 798.99 146.46 C 796.01 146.26 793.01 146.34 790.11 147.09 C 786.40 147.61 782.53 148.28 778.86 147.21 Z" />
<path fill="#5d5c5b" d=" M 1036.30 145.70 C 1041.04 145.31 1043.23 150.09 1043.21 154.11 C 1044.40 178.44 1042.37 202.78 1040.32 227.00 C 1039.08 238.11 1039.33 249.32 1038.13 260.44 C 1036.59 274.61 1036.49 288.88 1035.38 303.08 C 1034.17 319.17 1031.86 335.14 1029.74 351.12 C 1027.77 368.68 1026.63 386.34 1026.02 404.01 C 1025.05 420.01 1025.73 436.06 1024.45 452.05 C 1023.82 466.66 1022.01 481.28 1022.33 495.90 C 1021.82 496.03 1020.80 496.29 1020.29 496.42 C 1021.19 482.32 1021.83 468.21 1022.81 454.11 C 1024.33 436.76 1023.60 419.32 1024.67 401.94 C 1024.89 389.97 1025.90 378.03 1026.70 366.09 C 1028.35 347.42 1031.58 328.92 1033.32 310.25 C 1034.90 294.51 1034.73 278.66 1036.44 262.93 C 1037.80 250.62 1037.70 238.21 1038.90 225.89 C 1040.57 207.63 1041.81 189.33 1042.20 171.00 C 1042.07 165.18 1042.26 159.28 1041.24 153.53 C 1040.76 150.29 1037.92 148.33 1036.30 145.70 Z" />
<path fill="#222221" d=" M 789.87 149.88 C 790.47 150.11 791.66 150.58 792.25 150.82 C 793.46 154.75 793.22 158.94 793.34 163.00 C 793.52 190.66 793.39 218.33 793.49 245.99 C 793.52 247.71 793.84 249.40 793.98 251.12 C 793.60 251.11 792.84 251.09 792.46 251.09 C 792.37 222.41 792.54 193.74 792.30 165.06 C 792.59 159.86 791.19 154.84 789.87 149.88 Z" />
<path fill="#0f0f0f" d=" M 906.94 206.46 C 917.49 204.35 928.30 204.36 939.02 204.39 C 947.68 204.30 956.42 204.68 964.87 206.74 C 965.81 207.83 966.95 208.67 968.21 209.40 C 966.55 209.46 964.89 209.55 963.25 209.57 C 956.19 205.69 947.87 205.45 940.01 205.37 C 921.71 205.17 902.48 205.54 885.73 213.80 C 880.91 216.89 874.24 220.31 874.28 226.90 C 876.12 230.17 879.86 231.65 883.14 233.10 C 892.27 236.59 902.08 237.66 911.67 239.17 C 920.95 240.18 930.30 239.72 939.62 239.55 C 940.09 239.70 941.04 239.99 941.51 240.13 C 935.90 240.86 930.24 240.62 924.61 240.61 C 915.86 241.09 907.23 239.39 898.63 238.04 C 890.50 236.49 882.19 235.00 874.77 231.15 C 874.13 249.87 873.37 268.76 876.33 287.33 C 876.13 287.87 875.73 288.95 875.54 289.48 C 874.87 280.33 873.05 271.27 873.34 262.06 C 873.56 250.73 873.19 239.39 872.34 228.12 C 872.18 227.55 871.86 226.41 871.70 225.84 C 873.51 218.40 881.15 215.49 887.18 212.21 C 893.34 209.03 900.16 207.61 906.94 206.46 Z" />
<path fill="#f5f4f0" d=" M 885.73 213.80 C 902.48 205.54 921.71 205.17 940.01 205.37 C 947.87 205.45 956.19 205.69 963.25 209.57 L 964.08 209.99 C 967.76 210.92 971.74 210.89 975.17 212.74 C 978.30 214.42 981.03 216.83 983.28 219.57 C 985.89 223.12 983.24 228.02 979.81 229.93 C 967.30 236.07 953.33 238.07 939.62 239.55 C 930.30 239.72 920.95 240.18 911.67 239.17 C 902.08 237.66 892.27 236.59 883.14 233.10 C 879.86 231.65 876.12 230.17 874.28 226.90 C 874.24 220.31 880.91 216.89 885.73 213.80 Z" />
<path fill="#0b0b0a" d=" M 968.21 209.40 C 974.97 208.88 980.67 213.35 985.06 217.98 C 986.14 219.04 986.72 220.45 986.52 221.98 C 985.76 240.20 985.18 258.46 986.03 276.68 C 986.59 287.22 988.50 297.60 990.49 307.94 C 990.63 318.33 992.25 328.69 991.58 339.10 C 988.95 341.78 987.40 345.25 985.32 348.33 C 982.48 353.03 978.41 356.89 973.79 359.81 C 963.89 366.76 951.61 368.81 939.90 370.58 C 930.28 370.67 920.54 370.54 911.09 368.54 C 902.78 366.75 895.83 361.69 888.91 357.06 C 885.77 354.61 882.65 352.00 880.41 348.69 C 878.91 344.95 879.45 340.80 878.93 336.88 C 878.74 331.37 877.99 325.91 877.50 320.43 C 877.76 320.83 878.27 321.63 878.53 322.03 C 879.79 329.39 881.08 336.75 881.91 344.18 C 882.19 345.95 882.52 347.84 883.76 349.24 C 888.05 354.57 894.43 357.42 899.84 361.40 C 911.60 369.37 926.47 369.07 940.08 368.57 C 950.75 367.21 961.78 365.08 970.85 358.95 C 979.77 353.73 985.95 344.71 989.24 335.07 C 989.95 327.06 988.43 319.07 988.77 311.05 C 988.94 305.62 987.39 300.37 986.56 295.06 C 985.75 286.71 984.10 278.41 984.50 269.99 C 984.77 256.29 984.64 242.60 984.24 228.91 C 970.97 235.64 956.25 238.87 941.51 240.13 C 941.04 239.99 940.09 239.70 939.62 239.55 C 953.33 238.07 967.30 236.07 979.81 229.93 C 983.24 228.02 985.89 223.12 983.28 219.57 C 981.03 216.83 978.30 214.42 975.17 212.74 C 971.74 210.89 967.76 210.92 964.08 209.99 L 963.25 209.57 C 964.89 209.55 966.55 209.46 968.21 209.40 Z" />
<path fill="#dd4e0c" d=" M 628.06 226.83 C 631.89 225.82 635.63 224.34 639.62 224.01 C 639.63 224.62 639.65 225.82 639.66 226.43 C 636.67 227.35 633.67 228.21 630.65 228.99 C 630.47 237.76 631.70 246.46 631.80 255.22 C 631.13 255.06 629.80 254.73 629.13 254.56 C 628.43 252.47 628.64 250.23 628.54 248.07 C 628.50 242.11 627.48 236.20 627.51 230.24 C 623.90 230.70 620.29 231.08 616.67 231.37 C 616.49 230.38 616.31 229.40 616.15 228.41 C 620.11 227.84 624.18 227.92 628.06 226.83 Z" />
<path fill="#dd4e0c" d=" M 585.35 229.48 C 592.14 229.34 599.03 229.60 605.54 227.29 C 605.56 228.27 605.58 229.25 605.61 230.24 C 601.05 231.80 596.25 232.36 591.45 232.36 C 591.47 236.31 591.28 240.29 591.82 244.21 C 594.97 244.39 598.02 243.11 601.19 243.09 C 601.25 243.62 601.38 244.66 601.45 245.18 C 598.34 246.60 594.95 247.11 591.62 247.67 C 592.23 251.97 592.95 256.25 593.97 260.48 C 599.81 260.68 605.18 258.02 610.89 257.26 C 610.78 257.90 610.58 259.16 610.48 259.80 C 606.16 261.53 601.57 262.65 596.98 263.37 C 595.08 263.45 592.35 263.93 591.54 261.68 C 588.41 252.28 588.61 242.25 588.31 232.46 C 587.62 232.46 586.25 232.47 585.56 232.47 C 585.48 231.47 585.41 230.47 585.35 229.48 Z" />
<path fill="#f5f4f0" d=" M 941.51 240.13 C 956.25 238.87 970.97 235.64 984.24 228.91 C 984.64 242.60 984.77 256.29 984.50 269.99 C 984.10 278.41 985.75 286.71 986.56 295.06 C 987.39 300.37 988.94 305.62 988.77 311.05 C 988.43 319.07 989.95 327.06 989.24 335.07 C 985.95 344.71 979.77 353.73 970.85 358.95 C 961.78 365.08 950.75 367.21 940.08 368.57 C 926.47 369.07 911.60 369.37 899.84 361.40 C 894.43 357.42 888.05 354.57 883.76 349.24 C 882.52 347.84 882.19 345.95 881.91 344.18 C 881.08 336.75 879.79 329.39 878.53 322.03 C 878.15 310.45 878.16 298.79 876.33 287.33 C 873.37 268.76 874.13 249.87 874.77 231.15 C 882.19 235.00 890.50 236.49 898.63 238.04 C 907.23 239.39 915.86 241.09 924.61 240.61 C 930.24 240.62 935.90 240.86 941.51 240.13 Z" />
<path fill="#080808" d=" M 90.40 237.02 C 90.59 234.70 89.75 230.37 93.41 231.22 C 91.33 236.91 91.31 243.00 91.30 248.98 C 91.38 262.64 90.48 276.27 90.67 289.94 C 90.77 300.32 89.95 310.67 88.61 320.95 C 87.39 350.63 87.78 380.33 87.73 410.02 C 87.91 420.66 87.02 431.35 88.22 441.95 C 88.44 446.78 88.46 451.62 88.69 456.45 C 97.39 460.87 107.32 461.39 116.79 462.61 C 111.16 463.10 105.51 462.28 99.96 461.39 C 95.91 460.69 91.65 460.85 87.84 459.15 C 85.37 458.15 85.81 455.12 86.08 453.01 C 88.08 408.32 86.29 363.55 87.78 318.85 L 88.40 318.15 C 88.27 312.73 89.52 307.42 89.52 302.01 C 90.14 280.35 90.55 258.69 90.40 237.02 Z" />
<path fill="#dd4e0c" d=" M 565.62 233.72 C 568.74 231.70 572.57 231.55 576.15 231.14 C 575.94 232.80 575.55 234.82 573.37 234.54 C 567.13 234.68 562.53 239.50 559.29 244.33 C 556.99 248.48 555.10 253.19 555.54 258.02 C 557.31 262.11 561.91 264.10 565.94 265.28 C 570.45 266.57 574.40 263.41 577.36 260.41 C 578.98 259.00 578.55 256.66 578.89 254.77 C 575.90 254.71 572.92 254.77 569.94 254.66 C 570.19 253.73 570.49 252.81 570.84 251.91 C 573.95 251.55 577.10 251.58 580.22 251.30 C 581.91 254.57 582.50 258.96 579.89 261.92 C 577.43 264.58 574.50 267.00 571.05 268.20 C 565.02 269.19 558.99 266.38 554.74 262.24 C 552.61 260.09 552.35 256.82 552.85 253.98 C 554.10 245.84 558.74 238.28 565.62 233.72 Z" />
<path fill="#0f0f0f" d=" M 96.34 232.17 C 99.58 232.41 103.03 232.02 106.11 233.17 L 107.71 234.07 C 104.07 234.53 100.40 234.48 96.74 234.30 C 96.64 233.76 96.44 232.70 96.34 232.17 Z" />
<path fill="#dd4e0c" d=" M 708.00 232.62 C 717.37 232.49 726.78 230.79 736.13 232.30 C 744.42 233.29 752.75 235.04 760.32 238.68 C 760.99 237.05 761.76 235.45 762.80 234.01 C 765.79 238.05 768.64 242.19 771.85 246.07 C 771.72 246.62 771.48 247.73 771.36 248.28 C 767.91 248.20 764.45 248.51 761.02 248.18 C 757.87 247.52 759.73 243.69 759.64 241.53 C 746.35 235.49 731.45 233.49 716.97 234.68 C 702.34 236.14 687.46 235.16 673.00 238.21 C 665.23 239.81 657.37 240.90 649.55 242.23 C 646.95 242.42 643.72 243.57 641.92 240.94 C 643.47 240.06 645.17 239.46 646.98 239.42 C 663.41 237.86 679.49 233.16 696.08 233.28 C 700.06 233.17 704.01 232.64 708.00 232.62 Z" />
<path fill="#5b5b59" d=" M 106.11 233.17 C 110.40 232.54 114.74 232.84 119.06 232.81 C 145.71 232.83 172.36 232.83 199.02 232.82 C 208.40 232.62 217.74 233.66 227.06 234.51 C 258.06 235.89 289.10 234.42 320.10 235.62 C 343.06 235.80 366.01 235.67 388.97 235.71 C 393.30 235.75 397.66 235.50 401.98 236.00 L 400.48 236.60 C 398.74 237.38 396.81 237.14 394.97 237.20 C 364.66 236.95 334.33 237.62 304.03 236.57 C 279.68 236.47 255.33 236.75 230.99 236.18 C 221.98 235.80 213.03 234.35 204.00 234.38 C 172.33 234.37 140.65 234.38 108.98 234.35 C 108.66 234.28 108.03 234.14 107.71 234.07 L 106.11 233.17 Z" />
<path fill="#020202" d=" M 419.14 235.07 C 423.55 234.31 428.06 234.38 432.53 234.53 C 434.03 239.53 433.23 244.84 433.47 249.98 C 433.16 254.86 434.33 259.96 433.02 264.70 C 432.34 267.68 432.92 270.75 432.53 273.76 C 431.82 269.22 433.05 264.63 432.71 260.06 C 432.33 252.49 433.07 244.79 431.32 237.35 C 421.03 237.22 410.74 237.42 400.48 236.60 L 401.98 236.00 C 407.66 235.32 413.46 236.04 419.14 235.07 Z" />
<path fill="#dd4e0c" d=" M 529.33 252.19 C 530.16 250.34 530.89 248.45 531.95 246.71 C 536.94 247.16 541.25 250.11 545.95 251.64 C 546.55 255.47 541.82 254.79 539.40 255.69 C 535.16 256.30 531.38 259.35 526.98 258.59 C 527.18 257.70 527.58 255.90 527.78 255.00 C 517.84 255.98 508.31 259.04 498.77 261.82 C 480.26 267.12 463.52 277.41 448.96 289.82 C 447.79 291.55 443.57 290.29 446.04 288.27 C 460.99 275.71 478.12 265.45 496.85 259.69 C 507.52 256.60 518.17 253.07 529.33 252.19 Z" />
<path fill="#0f37fe" d=" M 773.92 255.84 C 777.96 253.66 782.22 251.20 786.96 251.27 C 788.79 251.21 790.62 251.18 792.46 251.09 L 792.35 252.16 C 792.76 251.90 793.58 251.38 793.98 251.12 C 794.68 250.93 796.07 250.56 796.76 250.38 C 808.28 251.96 821.30 255.86 827.02 266.97 C 831.24 273.91 830.79 282.23 830.13 289.99 C 829.22 298.87 825.93 307.53 820.81 314.83 C 813.89 323.29 803.81 330.79 792.35 329.92 C 792.35 329.50 792.37 328.65 792.38 328.23 C 792.05 328.53 791.37 329.13 791.04 329.43 C 789.59 330.38 787.73 329.04 786.20 328.82 C 781.11 327.00 775.93 324.85 772.04 320.97 C 766.56 316.27 763.77 309.44 760.69 303.11 C 756.99 304.65 753.03 305.49 749.02 305.31 C 737.68 305.31 726.41 306.52 715.17 307.68 C 714.01 307.67 712.86 307.69 711.71 307.72 C 718.12 306.50 724.42 304.52 730.97 304.22 C 740.59 303.63 750.23 302.93 759.72 301.18 C 756.14 290.30 759.27 278.74 762.47 268.16 C 747.06 269.76 731.56 269.90 716.08 269.66 C 704.12 269.31 692.46 272.27 680.72 274.07 C 670.43 275.23 660.24 277.12 649.89 277.71 C 641.64 279.42 633.23 280.12 624.97 281.76 C 607.02 284.53 589.16 287.96 571.13 290.25 C 558.41 291.01 545.89 293.55 533.27 295.18 C 521.40 296.69 509.78 299.80 497.84 300.77 C 487.64 301.67 477.85 305.10 467.57 305.36 C 469.57 308.66 472.27 311.94 472.46 315.98 C 472.71 323.24 472.52 330.75 469.72 337.57 C 469.55 338.04 469.22 338.97 469.05 339.44 C 471.13 340.05 473.24 340.64 475.39 340.99 C 472.98 341.36 470.50 341.36 468.14 342.00 C 465.11 347.25 462.59 352.95 458.35 357.39 C 452.68 362.71 445.40 367.03 437.35 366.55 C 437.33 365.54 437.31 364.54 437.30 363.54 C 444.60 364.29 451.20 360.15 456.31 355.35 C 461.76 349.54 464.73 342.00 467.86 334.80 C 469.91 328.49 469.75 321.68 469.44 315.13 C 468.12 308.14 461.41 304.47 455.62 301.54 C 447.49 298.39 438.79 296.35 430.05 296.36 C 422.97 297.51 417.22 302.40 412.19 307.20 C 404.67 314.56 401.35 325.69 403.42 335.97 C 404.33 340.08 406.47 343.78 408.70 347.31 C 414.15 356.96 425.01 363.98 436.28 363.53 C 436.30 364.28 436.35 365.78 436.37 366.54 C 429.09 366.66 421.93 364.22 416.23 359.71 C 409.88 355.99 406.51 349.20 403.01 343.05 C 399.45 336.67 399.84 329.13 400.77 322.15 C 403.32 310.99 411.73 302.15 421.34 296.44 C 424.93 294.29 429.00 292.97 433.22 293.09 C 431.29 295.50 435.14 297.07 435.63 294.05 L 435.80 293.76 C 442.87 294.28 449.72 296.37 456.38 298.69 C 460.36 300.02 463.59 303.45 468.01 303.39 C 472.74 303.70 477.57 303.91 482.19 302.63 C 492.66 299.96 503.55 299.87 514.10 297.67 C 526.45 295.13 538.98 293.68 551.43 291.74 C 562.01 289.76 572.84 289.75 583.42 287.76 C 606.27 284.08 629.09 280.21 651.95 276.65 C 659.74 276.29 667.44 275.03 675.14 273.86 C 683.84 273.15 692.39 271.23 700.98 269.73 C 708.67 269.32 716.25 267.70 723.98 267.62 C 737.34 267.53 750.91 268.12 764.05 265.17 C 766.61 261.39 769.87 258.06 773.92 255.84 Z" />
<path fill="#293b93" d=" M 792.46 251.09 C 792.84 251.09 793.60 251.11 793.98 251.12 C 793.58 251.38 792.76 251.90 792.35 252.16 L 792.46 251.09 Z" />
<path fill="#f5f4f0" d=" M 782.81 254.82 C 786.43 253.71 790.28 254.32 794.01 254.38 C 796.37 254.62 798.68 253.42 801.04 254.07 C 808.64 255.53 816.52 258.23 821.70 264.29 C 825.83 269.16 828.10 275.61 827.56 282.01 C 827.95 293.11 824.80 304.34 818.31 313.38 C 813.47 319.25 807.25 324.20 799.87 326.39 C 789.08 328.69 777.56 323.86 770.71 315.41 C 768.16 312.04 766.34 308.20 764.48 304.44 C 762.59 300.58 760.74 296.49 760.78 292.11 C 760.70 283.94 762.97 276.00 765.46 268.30 C 766.60 267.99 767.75 267.68 768.91 267.38 C 768.72 266.19 768.54 265.01 768.36 263.83 C 772.27 259.59 777.45 256.80 782.81 254.82 Z" />
<path fill="#f5f4f0" d=" M 716.08 269.66 C 731.56 269.90 747.06 269.76 762.47 268.16 C 759.27 278.74 756.14 290.30 759.72 301.18 C 750.23 302.93 740.59 303.63 730.97 304.22 C 724.42 304.52 718.12 306.50 711.71 307.72 C 703.20 308.74 694.58 308.62 686.08 309.82 C 673.48 311.92 660.64 311.59 648.00 313.41 C 631.92 315.12 615.85 317.06 599.90 319.78 C 590.03 320.79 580.13 321.68 570.39 323.65 C 546.59 327.09 522.81 330.98 499.41 336.59 C 491.16 338.46 482.66 338.22 474.29 339.07 C 472.93 339.12 471.53 339.33 470.27 338.76 C 470.13 338.47 469.86 337.87 469.72 337.57 C 472.52 330.75 472.71 323.24 472.46 315.98 C 472.27 311.94 469.57 308.66 467.57 305.36 C 477.85 305.10 487.64 301.67 497.84 300.77 C 509.78 299.80 521.40 296.69 533.27 295.18 C 545.89 293.55 558.41 291.01 571.13 290.25 C 589.16 287.96 607.02 284.53 624.97 281.76 C 633.23 280.12 641.64 279.42 649.89 277.71 C 660.24 277.12 670.43 275.23 680.72 274.07 C 692.46 272.27 704.12 269.31 716.08 269.66 Z" />
<path fill="#0f37fe" d=" M 780.08 270.97 C 782.18 268.93 784.99 270.00 787.43 270.67 C 789.38 276.32 787.44 282.49 784.19 287.24 C 787.21 291.20 789.99 295.81 789.46 301.01 C 789.82 303.88 787.51 306.36 784.79 306.83 C 781.17 307.72 775.65 308.40 774.19 303.92 C 772.94 299.25 772.47 293.56 775.49 289.44 C 776.38 288.05 777.36 286.72 778.32 285.37 C 776.42 280.76 776.65 274.80 780.08 270.97 Z" />
<path fill="#030303" d=" M 127.29 272.25 C 127.76 272.32 128.70 272.46 129.17 272.53 C 129.24 273.33 129.38 274.91 129.45 275.70 C 139.89 273.71 150.51 275.11 161.05 274.46 C 163.71 274.48 166.51 273.98 169.08 274.88 C 172.65 280.49 174.40 287.12 178.56 292.40 C 193.35 292.65 208.16 292.85 222.96 292.55 C 231.30 291.78 239.66 292.49 248.02 292.33 C 276.69 293.30 305.38 292.04 334.05 292.84 C 337.30 293.25 340.56 293.08 343.81 292.70 C 352.22 293.00 360.63 292.07 369.03 292.29 C 371.90 292.41 372.11 295.84 372.36 298.03 C 372.69 305.06 373.17 312.12 375.08 318.93 C 376.28 326.90 377.48 334.89 378.23 342.92 C 378.41 348.94 378.50 354.97 379.08 360.97 C 379.59 366.01 378.40 371.02 378.84 376.07 C 379.59 380.32 379.35 384.66 379.96 388.93 C 381.44 399.25 381.24 409.69 381.18 420.09 C 381.26 422.01 380.21 424.64 377.92 424.46 C 370.62 424.57 363.35 423.52 356.05 423.75 C 341.72 423.93 327.39 423.69 313.06 423.74 C 309.67 423.61 306.23 423.86 302.87 423.33 C 302.44 423.15 301.58 422.79 301.15 422.61 C 326.86 421.58 352.62 423.13 378.31 421.47 C 378.72 416.68 378.79 411.87 378.76 407.07 C 378.71 401.34 379.79 395.63 379.19 389.91 C 376.31 377.49 378.62 364.62 376.54 352.10 C 376.43 338.21 373.76 324.54 370.86 311.02 C 370.08 306.02 369.97 300.93 369.02 295.95 C 368.79 295.71 368.33 295.22 368.10 294.97 C 355.53 292.90 342.70 293.88 330.01 293.59 C 305.68 294.13 281.35 293.24 257.03 293.78 C 247.68 294.58 238.29 293.99 228.93 294.43 C 216.96 295.20 204.97 294.54 192.99 294.79 C 187.98 294.95 182.95 295.72 177.93 295.20 C 175.32 294.44 174.73 291.51 173.58 289.42 C 171.76 285.17 169.22 281.31 167.10 277.22 C 159.49 275.81 151.70 276.25 144.00 276.22 C 138.82 276.13 133.86 277.80 128.84 278.80 C 128.25 292.54 128.77 306.29 128.69 320.03 C 128.68 327.52 128.44 335.02 128.61 342.52 L 127.66 341.27 C 127.62 338.46 127.65 335.64 127.64 332.83 C 128.37 321.96 128.36 311.05 127.63 300.19 C 127.79 290.87 127.48 281.56 127.29 272.25 Z" />
<path fill="#f5f4f0" d=" M 781.74 273.69 C 782.52 271.94 784.20 273.12 785.55 273.37 C 785.40 277.56 784.06 281.54 782.08 285.21 C 781.07 283.60 780.21 281.90 779.52 280.14 C 780.15 277.97 780.48 275.63 781.74 273.69 Z" />
<path fill="#838281" d=" M 433.08 269.44 C 435.98 276.97 434.57 285.34 435.15 293.29 C 434.67 293.24 433.70 293.14 433.22 293.09 C 433.22 285.20 432.60 277.32 433.08 269.44 Z" />
<path fill="#0f37fe" d=" M 805.30 274.82 C 809.96 273.09 814.67 277.05 815.59 281.63 C 817.43 289.77 814.85 298.49 810.31 305.33 C 806.80 311.23 797.20 306.93 796.52 300.99 C 796.04 294.53 797.64 288.14 799.46 282.00 C 800.29 278.88 802.79 276.65 805.30 274.82 Z" />
<path fill="#f5f4f0" d=" M 128.84 278.80 C 133.86 277.80 138.82 276.13 144.00 276.22 C 151.70 276.25 159.49 275.81 167.10 277.22 C 169.22 281.31 171.76 285.17 173.58 289.42 C 174.73 291.51 175.32 294.44 177.93 295.20 C 182.95 295.72 187.98 294.95 192.99 294.79 C 204.97 294.54 216.96 295.20 228.93 294.43 C 238.29 293.99 247.68 294.58 257.03 293.78 C 281.35 293.24 305.68 294.13 330.01 293.59 C 342.70 293.88 355.53 292.90 368.10 294.97 C 368.33 295.22 368.79 295.71 369.02 295.95 C 369.97 300.93 370.08 306.02 370.86 311.02 C 373.76 324.54 376.43 338.21 376.54 352.10 C 378.62 364.62 376.31 377.49 379.19 389.91 C 379.79 395.63 378.71 401.34 378.76 407.07 C 378.79 411.87 378.72 416.68 378.31 421.47 C 352.62 423.13 326.86 421.58 301.15 422.61 C 254.45 422.45 207.74 422.60 161.04 422.54 C 151.95 422.50 142.81 422.70 133.79 421.37 C 133.71 417.42 132.66 413.64 131.51 409.90 C 127.93 390.79 130.56 371.26 128.97 351.99 C 128.64 348.84 128.74 345.67 128.61 342.52 C 128.44 335.02 128.68 327.52 128.69 320.03 C 128.77 306.29 128.25 292.54 128.84 278.80 Z" />
<path fill="#f5f4f0" d=" M 802.46 282.35 C 803.28 279.77 805.96 278.63 807.96 277.12 C 810.23 278.01 812.21 279.71 812.73 282.19 C 814.46 289.69 812.06 297.59 807.81 303.82 C 805.67 307.18 800.44 304.08 799.52 301.05 C 798.98 294.70 800.44 288.33 802.46 282.35 Z" />
<path fill="#13b824" d=" M 907.91 278.29 C 909.15 278.32 910.40 278.38 911.67 278.47 C 910.52 283.87 908.24 288.92 906.46 294.13 C 905.02 297.94 905.28 303.07 900.88 304.90 C 898.26 300.17 898.06 294.66 896.79 289.52 C 894.30 293.90 894.13 299.04 892.65 303.76 C 892.11 303.71 891.03 303.60 890.49 303.55 C 886.16 296.97 883.77 289.28 882.57 281.54 C 883.53 281.36 884.50 281.20 885.49 281.03 C 886.76 286.89 887.61 293.05 890.97 298.17 C 892.15 293.11 893.58 288.07 895.85 283.38 C 896.38 283.48 897.43 283.66 897.96 283.76 C 900.04 288.53 900.48 293.79 901.70 298.82 C 903.26 291.82 906.33 285.28 907.91 278.29 Z" />
<path fill="#13b824" d=" M 975.05 280.10 C 975.48 278.52 976.56 278.04 978.27 278.65 C 979.44 281.74 978.22 285.04 977.49 288.09 C 976.15 292.73 974.96 297.42 973.40 301.99 C 972.80 303.93 971.35 306.30 968.97 305.45 C 965.78 301.22 965.75 295.68 964.26 290.79 C 963.01 295.07 962.43 299.57 960.62 303.67 C 959.91 305.31 957.15 305.35 956.61 303.49 C 953.69 296.86 951.76 289.67 951.28 282.43 C 952.30 282.34 953.34 282.25 954.38 282.17 C 954.61 288.65 956.19 295.05 958.79 300.98 C 960.14 295.39 961.19 289.57 963.81 284.41 C 964.37 284.52 965.49 284.75 966.05 284.86 C 967.74 289.89 968.08 295.28 969.92 300.28 C 972.11 293.69 974.00 286.97 975.05 280.10 Z" />
<path fill="#13b824" d=" M 943.95 281.52 C 945.21 281.49 946.47 281.48 947.76 281.51 C 946.59 289.27 943.67 296.62 941.44 304.12 C 940.95 306.19 939.13 309.08 936.77 307.26 C 933.45 302.39 933.61 296.11 932.12 290.58 C 929.97 295.66 930.21 301.97 926.00 305.99 C 923.02 303.28 922.26 299.21 921.17 295.53 C 920.04 291.10 918.56 286.74 918.14 282.17 C 919.21 282.48 920.87 282.19 921.18 283.67 C 922.99 289.41 923.72 295.47 925.93 301.11 C 927.98 295.50 928.84 289.53 930.96 283.96 C 931.31 282.84 933.54 282.58 933.64 284.10 C 935.75 290.24 935.58 296.98 938.01 303.07 C 940.18 295.95 942.54 288.84 943.95 281.52 Z" />
<path fill="#f5f4f0" d=" M 777.69 304.59 C 775.14 299.04 775.62 291.73 780.60 287.67 C 782.80 290.54 785.42 293.34 786.28 296.96 C 786.57 299.04 786.45 301.15 786.43 303.25 C 783.59 304.12 780.65 304.52 777.69 304.59 Z" />
<path fill="#61605e" d=" M 875.54 289.48 C 875.73 288.95 876.13 287.87 876.33 287.33 C 878.16 298.79 878.15 310.45 878.53 322.03 C 878.27 321.63 877.76 320.83 877.50 320.43 C 876.14 316.19 876.83 311.53 876.48 307.11 C 876.52 301.22 875.43 295.34 875.54 289.48 Z" />
<path fill="#152da8" d=" M 433.22 293.09 C 433.70 293.14 434.67 293.24 435.15 293.29 L 435.63 294.05 C 435.14 297.07 431.29 295.50 433.22 293.09 Z" />
<path fill="#f5f4f0" d=" M 412.19 307.20 C 417.22 302.40 422.97 297.51 430.05 296.36 C 438.79 296.35 447.49 298.39 455.62 301.54 C 461.41 304.47 468.12 308.14 469.44 315.13 C 469.75 321.68 469.91 328.49 467.86 334.80 C 464.73 342.00 461.76 349.54 456.31 355.35 C 451.20 360.15 444.60 364.29 437.30 363.54 L 436.28 363.53 C 425.01 363.98 414.15 356.96 408.70 347.31 C 406.47 343.78 404.33 340.08 403.42 335.97 C 401.35 325.69 404.67 314.56 412.19 307.20 Z" />
<path fill="#264afd" d=" M 686.08 309.82 C 694.58 308.62 703.20 308.74 711.71 307.72 C 712.86 307.69 714.01 307.67 715.17 307.68 C 711.55 308.77 707.78 309.30 704.01 309.41 C 693.90 309.50 683.92 311.13 673.90 312.24 C 662.50 312.71 651.15 313.81 639.85 315.31 C 622.45 316.55 605.40 320.53 588.02 321.90 C 576.96 323.15 566.05 325.47 554.99 326.77 C 541.49 329.34 527.80 330.97 514.44 334.24 C 507.54 335.37 500.86 337.57 493.92 338.43 C 487.72 339.15 481.57 340.22 475.39 340.99 C 473.24 340.64 471.13 340.05 469.05 339.44 C 469.22 338.97 469.55 338.04 469.72 337.57 C 469.86 337.87 470.13 338.47 470.27 338.76 C 471.53 339.33 472.93 339.12 474.29 339.07 C 482.66 338.22 491.16 338.46 499.41 336.59 C 522.81 330.98 546.59 327.09 570.39 323.65 C 580.13 321.68 590.03 320.79 599.90 319.78 C 615.85 317.06 631.92 315.12 648.00 313.41 C 660.64 311.59 673.48 311.92 686.08 309.82 Z" />
<path fill="#020202" d=" M 146.65 308.15 C 149.81 308.67 152.87 309.66 156.03 310.22 C 153.87 310.71 151.70 311.17 149.53 311.57 C 149.66 314.78 149.93 317.98 150.55 321.13 C 154.28 321.49 158.02 321.89 161.77 321.86 C 161.68 322.22 161.49 322.93 161.40 323.29 C 157.63 323.62 153.81 323.87 150.03 323.55 C 148.70 323.48 147.36 322.35 147.49 320.94 C 147.53 316.66 147.76 312.33 146.65 308.15 Z" />
<path fill="#020202" d=" M 324.74 308.94 C 331.76 307.93 338.90 308.51 345.96 307.99 C 347.69 307.81 349.43 307.97 351.17 308.16 C 351.55 309.13 351.95 310.09 352.38 311.05 C 352.19 313.56 352.57 316.84 350.21 318.47 C 338.79 318.38 327.37 318.48 315.96 318.75 C 308.62 318.19 301.38 319.53 294.06 319.56 C 281.54 321.01 268.84 320.77 256.27 320.47 L 254.75 320.07 C 262.84 320.19 270.89 319.17 278.98 319.50 C 286.37 319.83 293.68 318.55 301.06 318.24 C 308.63 317.22 316.32 318.12 323.87 316.92 C 332.15 315.71 340.53 316.04 348.85 315.61 C 349.20 314.23 349.49 312.83 349.72 311.43 C 344.91 310.15 339.91 310.77 335.01 310.57 C 331.02 310.55 327.09 309.87 323.13 309.48 L 324.74 308.94 Z" />
<path fill="#080807" d=" M 198.85 309.73 C 234.20 308.60 269.58 309.32 304.94 309.14 C 311.55 309.52 318.14 308.29 324.74 308.94 L 323.13 309.48 C 284.20 310.40 245.22 308.92 206.30 310.34 C 206.48 312.72 206.61 315.11 206.69 317.51 C 206.11 317.50 204.96 317.49 204.38 317.48 C 204.43 315.12 204.50 312.77 204.62 310.42 C 203.53 310.46 201.34 310.53 200.24 310.56 C 200.70 313.16 200.79 315.80 200.76 318.44 C 200.18 318.42 199.02 318.38 198.44 318.36 C 198.57 316.39 198.69 314.42 198.90 312.47 C 195.56 311.13 191.86 311.49 188.36 311.07 C 189.57 313.32 190.53 316.16 189.49 318.64 C 186.52 320.13 187.19 315.56 187.09 313.92 C 187.37 312.14 185.54 311.58 184.17 311.51 C 184.36 311.38 184.73 311.12 184.91 310.99 C 187.05 310.54 189.25 310.51 191.43 310.29 C 194.29 311.05 197.22 311.46 200.19 311.57 L 198.85 309.73 Z" />
<path fill="#7c7c7a" d=" M 156.03 310.22 C 165.38 309.28 174.89 311.05 184.24 309.59 C 184.41 309.94 184.75 310.64 184.91 310.99 C 184.73 311.12 184.36 311.38 184.17 311.51 C 175.89 312.75 167.51 311.36 159.20 312.23 L 157.79 312.40 C 155.25 312.12 152.70 311.92 150.17 311.66 C 150.33 314.81 150.49 317.97 150.55 321.13 C 149.93 317.98 149.66 314.78 149.53 311.57 C 151.70 311.17 153.87 310.71 156.03 310.22 Z" />
<path fill="#f5f4f0" d=" M 206.30 310.34 C 245.22 308.92 284.20 310.40 323.13 309.48 C 327.09 309.87 331.02 310.55 335.01 310.57 C 339.91 310.77 344.91 310.15 349.72 311.43 C 349.49 312.83 349.20 314.23 348.85 315.61 C 340.53 316.04 332.15 315.71 323.87 316.92 C 316.32 318.12 308.63 317.22 301.06 318.24 C 293.68 318.55 286.37 319.83 278.98 319.50 C 270.89 319.17 262.84 320.19 254.75 320.07 C 247.57 319.78 240.41 321.06 233.23 320.62 C 235.25 319.97 237.25 319.23 239.14 318.24 C 237.42 314.39 233.42 316.14 230.35 316.96 C 230.17 317.23 229.82 317.78 229.64 318.06 C 229.91 318.97 230.46 320.81 230.73 321.72 C 218.90 321.78 207.05 321.97 195.22 321.61 C 195.41 320.16 195.51 318.70 195.60 317.25 C 194.31 317.60 192.79 317.51 191.74 318.46 C 191.70 319.52 191.71 320.59 191.78 321.66 C 181.78 322.00 171.77 321.62 161.77 321.86 C 158.02 321.89 154.28 321.49 150.55 321.13 C 150.49 317.97 150.33 314.81 150.17 311.66 C 152.70 311.92 155.25 312.12 157.79 312.40 C 157.39 314.39 157.27 316.41 157.12 318.43 C 157.73 318.41 158.95 318.36 159.56 318.33 C 159.50 316.29 159.41 314.25 159.20 312.23 C 167.51 311.36 175.89 312.75 184.17 311.51 C 185.54 311.58 187.37 312.14 187.09 313.92 C 187.19 315.56 186.52 320.13 189.49 318.64 C 190.53 316.16 189.57 313.32 188.36 311.07 C 191.86 311.49 195.56 311.13 198.90 312.47 C 198.69 314.42 198.57 316.39 198.44 318.36 C 199.02 318.38 200.18 318.42 200.76 318.44 C 200.79 315.80 200.70 313.16 200.24 310.56 C 201.34 310.53 203.53 310.46 204.62 310.42 C 204.50 312.77 204.43 315.12 204.38 317.48 C 204.96 317.49 206.11 317.50 206.69 317.51 C 206.61 315.11 206.48 312.72 206.30 310.34 Z" />
<path fill="#1f1f1f" d=" M 219.65 316.31 C 219.99 314.60 219.29 310.12 222.19 311.62 C 222.38 313.23 222.34 314.85 222.36 316.48 C 221.45 316.42 220.55 316.36 219.65 316.31 Z" />
<path fill="#0f37fe" d=" M 423.94 312.11 C 426.36 309.78 429.73 310.68 432.53 311.68 C 433.47 317.30 430.15 322.39 426.13 325.96 C 431.26 329.76 435.04 336.27 433.64 342.79 C 432.32 345.55 428.86 346.37 426.08 346.67 C 423.87 346.79 421.13 347.36 419.44 345.54 C 416.03 342.51 414.81 337.40 416.09 333.09 C 416.94 330.21 419.40 328.28 420.93 325.80 C 420.23 321.13 419.75 315.37 423.94 312.11 Z" />
<path fill="#0c0c0b" d=" M 214.72 312.31 C 215.22 312.25 216.21 312.12 216.71 312.05 C 216.73 313.33 216.75 314.61 216.77 315.89 C 216.22 315.85 215.13 315.78 214.59 315.75 C 214.63 314.60 214.67 313.45 214.72 312.31 Z" />
<path fill="#060605" d=" M 157.12 318.43 C 157.27 316.41 157.39 314.39 157.79 312.40 L 159.20 312.23 C 159.41 314.25 159.50 316.29 159.56 318.33 C 158.95 318.36 157.73 318.41 157.12 318.43 Z" />
<path fill="#222221" d=" M 180.48 313.17 C 180.91 313.18 181.79 313.22 182.22 313.23 C 182.20 314.86 182.25 316.50 182.09 318.13 C 181.23 318.31 180.37 318.47 179.51 318.59 C 179.76 316.77 180.12 314.96 180.48 313.17 Z" />
<path fill="#030303" d=" M 225.28 316.49 C 225.45 314.84 225.62 313.07 227.62 312.80 C 227.66 314.04 227.68 315.29 227.69 316.54 C 227.09 316.53 225.88 316.51 225.28 316.49 Z" />
<path fill="#f5f4f0" d=" M 423.52 324.08 C 423.20 320.46 422.95 315.60 426.85 313.76 C 427.62 313.66 429.17 313.47 429.94 313.37 C 429.63 317.78 426.79 321.36 423.52 324.08 Z" />
<path fill="#0f37fe" d=" M 447.38 314.48 C 450.48 313.86 454.33 313.82 456.53 316.49 C 459.38 319.15 458.79 323.39 458.24 326.85 C 456.97 331.22 454.40 335.10 451.73 338.74 C 449.82 341.12 447.33 343.85 443.99 343.67 C 440.14 343.82 436.52 340.85 435.68 337.15 C 435.73 329.88 440.70 324.15 443.63 317.86 C 444.24 316.18 445.66 314.94 447.38 314.48 Z" />
<path fill="#151514" d=" M 163.63 320.45 C 161.67 319.23 162.81 316.91 163.65 315.37 C 166.22 315.71 168.82 315.59 171.40 315.77 C 171.60 317.29 171.20 318.64 170.21 319.83 C 169.45 319.33 168.69 318.84 167.93 318.36 C 166.76 319.49 165.52 321.29 163.63 320.45 Z" />
<path fill="#313130" d=" M 173.54 317.11 C 173.46 314.89 176.21 315.50 177.62 315.24 C 177.64 316.69 177.62 318.15 177.57 319.60 C 175.88 319.61 173.07 319.59 173.54 317.11 Z" />
<path fill="#313130" d=" M 209.51 315.74 C 210.50 315.34 211.50 316.30 212.49 316.50 C 212.41 317.48 212.33 318.47 212.25 319.46 C 210.93 319.55 209.61 319.62 208.29 319.67 C 208.60 318.35 207.74 316.19 209.51 315.74 Z" />
<path fill="#313130" d=" M 230.35 316.96 C 233.42 316.14 237.42 314.39 239.14 318.24 C 237.25 319.23 235.25 319.97 233.23 320.62 C 230.63 321.08 230.20 319.12 230.35 316.96 Z" />
<path fill="#313130" d=" M 191.74 318.46 C 192.79 317.51 194.31 317.60 195.60 317.25 C 195.51 318.70 195.41 320.16 195.22 321.61 C 194.36 321.63 192.64 321.65 191.78 321.66 C 191.71 320.59 191.70 319.52 191.74 318.46 Z" />
<path fill="#979794" d=" M 229.64 318.06 C 229.82 317.78 230.17 317.23 230.35 316.96 C 230.20 319.12 230.63 321.08 233.23 320.62 C 240.41 321.06 247.57 319.78 254.75 320.07 L 256.27 320.47 L 255.47 321.88 C 252.34 322.25 249.19 322.08 246.05 322.16 C 238.68 322.24 231.41 323.74 224.04 323.85 C 203.10 323.98 182.16 323.70 161.23 324.01 L 161.40 323.29 C 161.49 322.93 161.68 322.22 161.77 321.86 C 171.77 321.62 181.78 322.00 191.78 321.66 C 192.64 321.65 194.36 321.63 195.22 321.61 C 207.05 321.97 218.90 321.78 230.73 321.72 C 230.46 320.81 229.91 318.97 229.64 318.06 Z" />
<path fill="#f5f4f0" d=" M 440.56 329.61 C 442.87 325.10 445.39 320.63 449.00 317.02 C 451.57 317.01 454.87 317.39 455.62 320.38 C 456.89 327.51 452.08 333.73 447.76 338.83 C 445.33 342.20 440.00 340.79 438.63 337.17 C 438.48 334.51 439.42 331.95 440.56 329.61 Z" />
<path fill="#f5f4f0" d=" M 422.62 328.58 C 423.50 327.55 424.85 328.76 425.65 329.31 C 429.10 332.15 431.16 336.61 431.25 341.06 C 429.39 344.10 425.13 343.86 422.03 343.75 C 416.76 340.24 417.84 332.08 422.62 328.58 Z" />
<path fill="#5e5d5c" d=" M 791.04 329.43 C 791.37 329.13 792.05 328.53 792.38 328.23 C 792.37 328.65 792.35 329.50 792.35 329.92 C 791.87 348.29 790.25 366.61 789.11 384.94 C 785.94 413.17 786.57 441.60 786.38 469.96 C 786.38 497.30 786.37 524.65 786.39 551.99 C 786.20 566.44 786.31 581.00 783.98 595.30 L 783.60 594.06 C 783.49 592.57 783.42 591.10 783.40 589.63 C 784.62 575.48 784.93 561.26 784.86 547.05 C 784.88 520.69 784.85 494.33 784.88 467.97 C 784.93 441.28 784.62 414.52 787.35 387.94 C 788.68 368.44 790.21 348.94 791.04 329.43 Z" />
<path fill="#13b824" d=" M 762.15 328.92 C 764.11 328.17 764.88 328.85 764.46 330.96 C 763.41 333.85 761.02 335.91 758.67 337.74 C 754.06 341.30 749.63 345.30 744.12 347.41 C 737.34 350.02 731.11 353.96 724.09 355.93 C 718.24 357.55 712.43 359.28 706.60 360.94 C 707.05 362.77 707.37 364.65 706.51 366.42 C 700.58 366.30 694.66 366.47 688.74 366.34 C 688.55 365.76 688.19 364.60 688.01 364.01 C 693.52 361.24 698.24 356.71 704.37 355.31 C 704.37 356.23 704.37 358.07 704.37 358.98 C 714.23 355.57 724.74 353.94 734.02 349.00 C 739.44 346.04 745.61 344.47 750.47 340.51 C 754.70 337.02 759.64 334.00 762.15 328.92 Z" />
<path fill="#040404" d=" M 127.66 341.27 L 128.61 342.52 C 128.74 345.67 128.64 348.84 128.97 351.99 C 130.56 371.26 127.93 390.79 131.51 409.90 C 132.66 413.64 133.71 417.42 133.79 421.37 C 142.81 422.70 151.95 422.50 161.04 422.54 C 207.74 422.60 254.45 422.45 301.15 422.61 C 301.58 422.79 302.44 423.15 302.87 423.33 C 259.93 423.68 216.97 423.37 174.01 423.48 C 161.00 423.56 147.97 423.16 134.99 424.21 C 132.96 424.43 130.56 423.15 130.68 420.87 C 130.70 417.11 129.56 413.54 128.72 409.92 C 128.33 403.59 127.99 397.26 127.78 390.92 C 127.96 385.97 128.57 381.00 127.84 376.05 C 127.62 369.35 128.75 362.65 128.18 355.94 C 127.26 351.11 127.55 346.16 127.66 341.27 Z" />
<path fill="#14b825" d=" M 657.74 345.80 C 658.68 345.66 659.63 345.53 660.59 345.41 C 661.65 356.15 660.99 366.99 662.83 377.67 C 669.02 376.42 675.21 375.13 681.44 374.08 C 681.50 374.73 681.62 376.03 681.67 376.68 C 678.53 377.72 675.29 378.36 672.02 378.79 C 668.66 379.21 665.45 380.62 662.04 380.63 C 660.18 380.58 660.13 378.31 659.78 376.98 C 658.33 366.64 658.34 356.19 657.74 345.80 Z" />
<path fill="#13b824" d=" M 644.33 346.32 C 645.30 346.25 646.27 346.29 647.25 346.43 C 648.03 354.26 647.57 362.15 648.26 369.99 C 647.99 374.48 649.56 378.82 649.35 383.29 C 648.74 383.28 647.50 383.26 646.89 383.25 C 644.56 372.59 645.90 361.60 644.46 350.84 C 642.15 354.89 640.52 359.27 638.40 363.41 C 637.94 365.22 635.02 365.47 634.28 363.77 C 632.08 360.71 629.95 357.60 627.35 354.86 C 628.96 363.52 628.78 372.39 630.37 381.05 C 630.56 382.54 630.62 384.04 630.55 385.55 C 629.89 385.55 628.57 385.56 627.91 385.56 C 626.79 377.39 626.22 369.17 625.31 360.98 C 624.75 357.11 623.34 353.37 623.40 349.42 C 629.92 349.99 632.05 357.15 636.33 360.95 C 638.80 355.99 640.71 350.61 644.33 346.32 Z" />
<path fill="#13b824" d=" M 602.91 352.51 C 607.52 351.53 611.82 349.28 616.58 349.03 C 616.62 349.63 616.69 350.82 616.72 351.42 C 613.27 352.29 609.88 353.39 606.55 354.63 C 606.60 362.41 606.92 370.18 607.76 377.92 C 608.19 380.78 609.48 383.50 609.44 386.43 C 608.81 386.40 607.55 386.33 606.93 386.29 C 603.76 376.37 603.98 365.77 603.53 355.46 C 599.43 356.30 595.25 356.71 591.07 356.38 C 591.13 355.65 591.24 354.19 591.29 353.46 C 595.18 353.44 599.13 353.56 602.91 352.51 Z" />
<path fill="#dd4e0c" d=" M 207.19 352.20 C 210.17 351.73 210.56 354.82 211.68 356.81 C 214.33 356.71 214.89 350.96 217.69 353.28 C 217.73 356.32 214.66 358.12 213.10 360.44 C 214.75 364.42 216.67 368.28 218.60 372.14 C 223.12 365.47 225.81 357.26 232.18 352.05 C 232.96 353.30 233.04 354.82 231.91 355.89 C 227.59 361.24 224.91 367.63 221.28 373.42 C 220.46 374.65 218.52 376.57 217.10 375.09 C 214.11 371.77 213.87 366.80 210.62 363.63 C 207.87 368.15 205.98 373.12 203.28 377.67 C 202.47 377.60 200.84 377.44 200.02 377.37 C 197.02 368.97 191.92 361.47 189.01 353.07 C 190.55 353.27 192.47 353.34 193.01 355.15 C 195.94 361.48 198.94 367.78 201.91 374.09 C 204.34 369.37 206.53 364.51 209.64 360.18 C 208.47 357.64 207.41 355.01 207.19 352.20 Z" />
<path fill="#dd4e0c" d=" M 256.80 353.98 C 255.99 352.48 258.32 350.32 259.34 352.32 C 260.57 355.55 261.19 358.96 262.24 362.25 C 265.52 359.67 267.33 354.97 271.76 354.17 C 271.05 358.84 266.04 360.98 264.09 365.07 C 264.49 368.53 266.90 371.44 269.15 373.97 C 270.10 373.72 270.80 373.16 271.27 372.29 C 275.12 366.66 278.80 360.89 283.01 355.52 C 283.44 355.71 284.30 356.10 284.73 356.29 C 284.59 358.97 282.27 360.83 280.99 363.02 C 277.43 367.60 274.98 373.05 270.90 377.21 C 270.40 377.27 269.40 377.38 268.90 377.44 C 265.60 375.13 263.69 371.43 261.64 368.08 C 258.70 371.43 256.76 375.53 253.85 378.89 C 253.03 379.98 250.98 379.87 250.36 378.63 C 246.27 372.78 244.55 365.74 242.22 359.09 C 241.61 357.18 240.38 355.15 241.69 353.24 C 242.33 353.67 243.62 354.53 244.26 354.96 C 246.36 361.94 247.99 369.25 251.76 375.58 C 251.94 375.64 252.30 375.77 252.48 375.83 C 254.91 372.17 257.98 368.84 259.89 364.90 C 259.15 361.18 257.49 357.71 256.80 353.98 Z" />
<path fill="#13b824" d=" M 579.34 351.95 C 580.69 351.03 581.66 351.32 582.26 352.80 C 582.76 357.72 582.43 362.69 582.60 367.63 C 583.75 367.89 584.90 368.16 586.06 368.43 C 585.56 370.04 584.39 371.21 583.12 372.25 C 583.34 377.84 584.40 383.34 585.74 388.77 C 585.10 388.70 583.84 388.57 583.21 388.50 C 581.07 383.71 581.06 378.32 580.19 373.22 C 576.19 374.49 572.19 375.79 568.05 376.50 C 568.20 382.90 569.83 389.20 569.53 395.63 C 567.62 395.28 566.34 393.96 566.67 392.00 C 566.34 384.22 564.97 376.55 563.82 368.86 C 563.43 363.90 562.98 358.94 562.19 354.03 C 563.21 354.46 565.34 353.89 565.48 355.47 C 566.73 361.33 566.15 367.41 567.33 373.29 C 571.62 372.94 575.74 371.66 579.76 370.20 C 579.71 364.11 579.38 358.03 579.34 351.95 Z" />
<path fill="#dd4e0c" d=" M 293.81 352.79 C 294.40 352.76 295.59 352.70 296.19 352.67 C 298.11 359.95 298.27 367.84 302.12 374.52 C 305.17 371.91 308.11 368.75 309.83 365.14 C 308.67 361.65 306.60 358.53 305.65 354.97 C 304.54 353.35 307.45 352.88 308.17 353.69 C 309.84 356.73 310.69 360.16 312.54 363.12 C 314.66 361.38 315.67 356.84 318.92 357.71 C 319.29 361.34 315.21 362.92 314.05 365.99 C 314.94 369.14 316.62 372.02 318.60 374.62 C 323.24 368.13 326.85 360.96 331.50 354.49 C 332.03 354.45 333.10 354.38 333.63 354.34 C 333.83 356.57 332.11 358.24 331.08 360.04 C 327.45 365.46 324.82 371.58 320.54 376.54 C 319.50 378.05 317.65 377.56 316.14 377.43 C 314.83 374.35 313.32 371.37 311.78 368.41 C 308.72 371.29 306.77 375.30 303.13 377.54 C 298.55 376.81 297.57 371.54 296.45 367.85 C 295.38 362.89 293.53 357.90 293.81 352.79 Z" />
<path fill="#13b824" d=" M 464.29 363.91 C 465.36 362.57 466.67 361.46 467.94 360.32 C 472.18 362.80 476.73 364.60 481.32 366.32 C 481.51 367.03 481.88 368.45 482.06 369.16 C 495.68 375.15 510.46 377.62 524.97 380.45 C 532.24 380.99 539.63 381.03 546.89 380.24 C 550.03 380.01 554.32 377.03 555.93 381.19 C 547.27 384.19 538.01 383.70 529.00 383.60 C 524.56 383.49 520.25 382.31 515.91 381.52 C 503.80 379.14 491.68 376.42 480.27 371.60 C 478.62 373.44 476.88 375.20 475.04 376.84 C 470.98 372.99 466.97 368.85 464.29 363.91 Z" />
<path fill="#151514" d=" M 436.28 363.53 L 437.30 363.54 C 437.31 364.54 437.33 365.54 437.35 366.55 C 437.90 387.66 436.88 408.82 438.42 429.89 C 439.45 438.17 439.36 446.52 439.38 454.85 C 438.67 454.80 437.24 454.70 436.53 454.65 C 437.41 445.43 436.97 436.22 436.21 427.02 C 436.63 406.86 436.67 386.69 436.37 366.54 C 436.35 365.78 436.30 364.28 436.28 363.53 Z" />
<path fill="#010101" d=" M 981.32 394.29 C 981.98 393.35 982.60 392.39 983.20 391.40 C 985.12 392.12 986.02 393.70 986.08 395.71 C 937.74 395.55 889.37 395.88 841.03 395.85 C 831.58 396.46 822.11 396.21 812.67 396.51 C 812.62 395.94 812.52 394.80 812.47 394.23 C 817.34 394.40 822.13 395.54 827.03 395.37 C 872.34 395.17 917.66 395.08 962.98 395.19 C 965.60 395.16 968.20 394.76 970.83 394.66 C 974.32 394.67 977.85 394.89 981.32 394.29 Z" />
<path fill="#0c0c0b" d=" M 967.03 414.17 C 970.19 413.76 973.36 413.34 976.56 413.29 C 976.62 413.94 976.72 415.23 976.77 415.87 C 965.79 415.24 954.78 415.21 943.79 415.70 C 928.27 417.50 912.61 417.40 897.09 419.25 C 892.72 419.48 888.36 419.80 884.02 420.35 C 865.94 420.80 847.84 420.54 829.75 420.39 C 826.07 420.16 821.93 420.39 819.00 417.76 C 822.24 416.21 825.42 419.19 828.78 419.18 C 842.17 419.80 855.59 419.58 868.99 419.64 C 888.81 420.02 908.41 416.56 928.22 416.28 C 932.45 415.32 936.82 415.68 941.11 415.25 C 949.69 413.94 958.40 414.85 967.03 414.17 Z" />
<path fill="#020202" d=" M 905.09 444.52 C 931.71 443.82 958.35 444.58 984.96 443.50 C 986.82 443.39 988.70 443.42 990.58 443.60 C 990.26 444.57 989.94 445.53 989.62 446.50 C 979.38 443.15 968.52 445.10 957.97 444.71 C 942.71 445.02 927.41 444.29 912.17 445.32 C 901.09 445.54 890.00 445.40 878.93 445.80 C 862.16 446.74 845.35 446.15 828.57 446.50 C 828.54 445.96 828.47 444.87 828.43 444.32 C 840.21 446.02 852.14 445.32 864.00 445.40 C 877.71 445.56 891.37 444.23 905.09 444.52 Z" />
<path fill="#0b0b0b" d=" M 426.14 458.45 C 431.69 456.90 437.51 457.33 443.21 457.23 C 442.79 458.37 442.76 460.00 441.21 460.14 C 436.31 460.45 431.33 459.70 426.51 460.88 C 423.38 461.70 420.14 461.69 416.95 462.04 C 407.56 462.34 398.40 465.31 388.96 464.61 C 371.28 465.18 353.61 464.44 335.93 464.66 C 328.02 465.38 320.04 465.57 312.13 466.12 L 310.53 465.65 C 332.91 463.20 355.43 463.75 377.91 463.46 C 387.78 462.33 397.90 463.56 407.57 460.80 C 413.63 458.95 420.10 460.33 426.14 458.45 Z" />
<path fill="#555554" d=" M 117.84 463.12 C 118.80 461.76 121.40 462.87 122.93 462.64 C 141.27 463.95 159.65 464.43 178.01 465.17 C 191.68 465.10 205.34 465.51 218.99 466.19 C 236.66 466.27 254.34 466.66 271.99 465.83 C 284.83 466.15 297.75 464.48 310.53 465.65 L 312.13 466.12 C 303.14 467.38 294.01 466.21 284.98 467.06 C 267.31 467.43 249.64 467.97 231.96 467.69 C 216.29 467.81 200.66 466.45 184.99 466.59 C 162.75 466.34 140.54 465.03 118.33 464.04 C 118.21 463.81 117.96 463.35 117.84 463.12 Z" />
<path fill="#010101" d=" M 967.82 468.73 C 972.52 468.43 977.49 469.52 981.98 467.69 C 982.63 467.91 983.92 468.36 984.57 468.59 C 984.50 469.10 984.35 470.13 984.28 470.65 C 975.62 469.22 966.82 469.58 958.07 469.73 C 944.71 469.56 931.37 470.58 918.01 470.66 C 908.06 471.96 898.00 471.39 888.01 471.70 C 867.25 472.64 846.47 472.57 825.70 472.38 C 825.64 471.81 825.50 470.67 825.44 470.10 C 836.18 472.22 847.17 471.33 858.05 471.56 C 869.00 471.38 879.97 471.55 890.91 470.86 C 900.28 470.55 909.70 470.88 919.04 469.86 C 935.29 469.13 951.57 469.31 967.82 468.73 Z" />
<path fill="#000000" d=" M 1020.32 497.26 C 1020.47 497.40 1020.76 497.67 1020.90 497.81 C 1020.41 510.17 1020.49 522.58 1019.85 534.94 C 1018.99 546.62 1019.55 558.36 1018.82 570.05 C 1018.72 591.70 1018.81 613.36 1018.73 635.02 C 1018.39 643.99 1020.28 652.94 1019.46 661.90 C 1017.07 655.24 1019.78 648.22 1018.23 641.44 C 1018.12 606.88 1017.94 572.29 1018.75 537.73 C 1020.03 531.56 1019.02 525.19 1019.49 518.94 C 1019.98 511.72 1019.51 504.44 1020.32 497.26 Z" />
<path fill="#494948" d=" M 891.98 501.58 C 919.24 500.94 946.52 499.92 973.79 500.82 C 975.96 501.06 978.66 500.12 980.26 502.07 C 979.67 502.87 979.06 503.65 978.43 504.41 C 974.40 501.91 969.57 502.06 965.01 501.81 C 945.34 501.45 925.67 502.03 906.01 502.52 C 878.66 502.73 851.40 506.28 824.03 505.19 C 822.56 504.88 819.54 505.47 820.10 503.12 C 826.41 503.08 832.68 504.16 839.00 504.15 C 856.67 503.53 874.32 502.37 891.98 501.58 Z" />
<path fill="#010101" d=" M 104.81 505.75 C 106.92 505.46 109.06 505.73 111.18 505.76 L 111.85 506.24 C 200.14 506.38 288.44 506.01 376.72 506.42 L 375.12 507.04 C 370.75 507.55 366.32 507.10 361.94 506.89 C 286.65 506.86 211.36 506.90 136.07 506.88 C 125.85 507.59 115.59 506.89 105.37 507.64 C 104.19 510.32 103.59 513.20 102.93 516.04 C 99.45 530.58 94.68 544.86 87.90 558.21 C 84.08 567.56 80.45 577.00 77.79 586.75 C 75.63 591.74 75.64 598.15 71.09 601.77 C 70.19 600.48 68.25 599.60 68.50 597.77 C 69.62 597.49 70.75 597.27 71.90 597.11 C 74.13 592.18 76.51 587.28 78.00 582.06 C 82.05 570.97 85.90 559.75 91.28 549.20 C 94.28 542.25 96.79 535.09 98.85 527.81 L 99.23 527.10 C 100.20 523.10 101.22 519.11 102.27 515.13 C 102.90 512.06 101.89 507.81 104.81 505.75 Z" />
<path fill="#030303" d=" M 376.72 506.42 C 379.03 505.45 381.58 505.83 384.01 505.73 C 392.84 505.83 401.67 505.23 410.50 505.53 C 410.56 506.53 410.62 507.55 410.68 508.57 C 409.23 508.47 407.78 508.36 406.34 508.24 C 407.58 511.16 408.62 514.17 409.83 517.11 C 418.32 531.32 424.81 546.61 430.78 562.01 C 432.38 566.07 434.45 569.91 436.12 573.94 C 439.98 581.26 443.45 588.95 448.92 595.25 C 449.86 596.05 449.69 597.31 449.31 598.36 C 448.52 598.20 446.94 597.88 446.15 597.72 C 445.40 598.78 444.92 601.01 443.09 600.43 C 439.11 600.45 435.19 599.78 431.23 599.51 L 432.34 598.50 C 435.94 598.36 439.55 598.08 443.14 597.66 C 443.72 596.47 444.41 595.33 444.91 594.11 C 443.54 590.58 441.59 587.31 440.23 583.79 C 431.85 568.78 426.60 552.34 419.30 536.83 C 417.63 533.46 416.07 530.04 414.31 526.72 C 410.92 520.40 406.34 514.58 404.10 507.73 C 394.44 507.46 384.75 507.79 375.12 507.04 L 376.72 506.42 Z" />
<path fill="#141414" d=" M 214.96 525.62 C 222.99 525.61 230.94 524.32 238.97 524.48 C 267.02 524.27 295.15 523.62 323.08 526.42 C 335.81 527.58 348.65 528.12 361.44 527.39 C 361.43 527.86 361.41 528.78 361.40 529.25 C 359.95 529.34 358.51 529.45 357.08 529.57 C 355.99 530.30 354.89 531.01 353.79 531.71 C 353.64 530.94 353.34 529.39 353.19 528.61 C 337.00 529.02 320.91 526.95 304.79 525.89 C 279.17 524.91 253.49 525.11 227.85 525.70 C 222.16 526.56 216.39 526.43 210.66 526.80 C 204.15 527.91 197.51 527.26 190.98 528.20 C 166.01 529.47 140.94 527.84 116.00 529.84 C 116.13 529.35 116.38 528.37 116.51 527.87 C 120.35 527.35 124.22 528.02 128.06 528.22 C 157.04 528.01 186.09 528.32 214.96 525.62 Z" />
<path fill="#0a0a0a" d=" M 961.00 533.83 C 964.79 533.64 968.60 533.42 972.42 533.48 C 973.71 534.50 973.70 535.53 972.40 536.59 C 968.89 536.32 965.48 535.27 961.96 535.14 L 961.44 534.45 L 961.00 533.83 Z" />
<path fill="#5e5e5c" d=" M 827.12 535.18 C 835.76 535.90 844.38 534.67 853.01 534.49 C 887.33 533.24 921.68 534.00 956.01 533.72 C 957.79 533.96 959.95 533.12 961.44 534.45 L 961.96 535.14 C 927.63 535.43 893.28 535.00 858.96 535.75 C 846.14 536.16 833.33 537.47 820.51 537.01 C 821.53 534.05 824.76 535.16 827.12 535.18 Z" />
<path fill="#5b5b59" d=" M 232.94 549.35 C 249.62 549.15 266.27 548.10 282.94 547.55 C 308.89 547.19 334.85 546.96 360.80 547.33 C 361.00 547.80 361.39 548.72 361.59 549.18 C 354.75 548.31 347.84 548.64 340.97 548.60 C 316.30 548.59 291.63 548.52 266.99 549.66 C 247.66 550.64 228.30 551.00 208.95 550.79 C 177.62 550.85 146.29 550.74 114.96 550.78 C 113.06 550.73 110.84 550.77 109.79 548.83 C 115.87 548.42 121.94 549.30 128.03 549.22 C 163.00 549.48 197.97 549.32 232.94 549.35 Z" />
<path fill="#090909" d=" M 360.80 547.33 C 362.97 547.37 365.15 547.54 367.33 547.70 C 367.42 548.27 367.60 549.41 367.70 549.97 C 365.67 550.18 363.25 550.53 361.59 549.18 C 361.39 548.72 361.00 547.80 360.80 547.33 Z" />
<path fill="#80807e" d=" M 836.92 561.05 C 859.97 560.71 882.95 558.63 905.99 557.87 C 924.30 557.69 942.63 557.45 960.95 557.95 C 962.88 558.00 964.80 558.28 966.73 558.65 C 966.20 558.88 965.14 559.33 964.62 559.56 C 961.47 560.21 958.19 559.30 954.99 559.38 C 942.97 559.22 930.95 559.38 918.93 559.38 C 901.27 559.33 883.66 560.81 866.04 561.59 C 853.43 562.81 840.72 562.39 828.12 563.74 C 826.30 564.08 824.50 563.65 822.78 563.13 C 826.93 560.29 832.21 561.61 836.92 561.05 Z" />
<path fill="#010101" d=" M 966.73 558.65 C 970.47 559.25 974.35 559.76 978.09 558.85 C 978.77 559.04 980.13 559.42 980.81 559.61 C 980.74 560.18 980.60 561.33 980.52 561.90 C 976.63 561.52 972.86 560.37 968.96 560.09 C 967.51 559.86 966.06 559.68 964.62 559.56 C 965.14 559.33 966.20 558.88 966.73 558.65 Z" />
<path fill="#040404" d=" M 361.35 573.36 C 361.96 573.30 363.17 573.17 363.78 573.10 C 364.26 575.25 364.48 578.10 362.18 579.31 C 360.18 579.26 358.22 578.87 356.24 578.66 C 355.87 578.34 355.12 577.71 354.75 577.39 C 357.04 577.15 359.32 576.82 361.61 576.55 C 361.54 575.75 361.41 574.16 361.35 573.36 Z" />
<path fill="#222221" d=" M 131.19 575.86 C 135.07 575.62 138.86 576.63 142.69 576.99 C 142.73 577.21 142.81 577.64 142.85 577.86 C 139.11 579.01 134.43 578.16 131.19 575.86 Z" />
<path fill="#565655" d=" M 144.96 577.32 C 159.50 578.38 174.07 577.37 188.62 577.43 C 191.89 577.65 195.11 578.26 198.34 578.79 C 180.69 578.68 163.05 579.76 145.40 579.18 C 145.27 578.89 145.00 578.32 144.87 578.03 L 144.96 577.32 Z" />
<path fill="#80807e" d=" M 188.62 577.43 C 205.73 576.68 222.87 577.19 240.00 576.99 C 278.08 576.98 316.17 577.01 354.25 576.97 L 354.75 577.39 C 355.12 577.71 355.87 578.34 356.24 578.66 C 309.17 579.16 262.08 578.57 215.01 578.97 C 209.46 579.00 203.87 579.40 198.34 578.79 C 195.11 578.26 191.89 577.65 188.62 577.43 Z" />
<path fill="#070707" d=" M 827.35 586.31 C 836.56 586.34 845.78 586.43 854.99 586.71 C 859.96 587.50 865.00 587.46 870.03 587.71 C 878.34 588.85 886.76 588.61 895.14 588.79 C 912.05 589.60 929.00 588.94 945.93 589.36 C 952.73 589.67 959.45 588.46 966.25 588.52 C 966.62 587.94 967.36 586.79 967.73 586.22 C 968.65 586.74 969.55 587.26 970.50 587.79 C 970.52 588.27 970.56 589.22 970.58 589.70 C 968.14 590.63 965.52 590.81 962.95 590.66 C 934.31 589.24 905.62 590.35 876.97 589.27 C 870.42 588.25 863.75 588.75 857.21 587.73 C 847.28 587.42 837.26 586.87 827.42 588.54 C 827.40 587.98 827.37 586.87 827.35 586.31 Z" />
<path fill="#040404" d=" M 783.40 589.63 C 783.42 591.10 783.49 592.57 783.60 594.06 C 783.61 607.38 781.76 620.71 783.19 634.01 C 783.31 641.81 783.28 649.62 783.54 657.42 C 782.12 657.61 780.70 657.76 779.30 657.90 C 779.24 657.41 779.13 656.42 779.07 655.92 C 780.54 655.03 781.63 653.81 781.27 651.99 C 781.23 641.32 781.73 630.66 781.82 619.99 C 782.73 609.89 782.01 599.70 783.40 589.63 Z" />
<path fill="#565655" d=" M 239.98 599.86 C 294.28 597.93 348.63 598.53 402.96 598.41 C 412.75 598.53 422.55 598.21 432.34 598.50 L 431.23 599.51 C 428.95 600.20 426.41 599.72 424.03 599.84 C 384.03 599.81 344.03 599.77 304.04 599.87 C 286.05 600.69 268.04 600.12 250.06 600.85 C 242.03 601.41 233.98 601.52 225.96 602.12 C 212.97 602.23 199.98 602.07 187.00 602.67 C 159.65 603.65 132.29 602.97 104.93 603.31 C 98.35 603.40 91.76 604.01 85.17 603.72 C 84.83 603.37 84.15 602.66 83.80 602.30 C 100.20 602.19 116.60 601.52 133.01 601.73 C 153.65 601.69 174.32 601.97 194.94 600.92 C 209.95 600.42 224.99 601.11 239.98 599.86 Z" />
<path fill="#151514" d=" M 75.46 602.23 C 78.14 601.27 81.03 602.38 83.80 602.30 C 84.15 602.66 84.83 603.37 85.17 603.72 C 81.90 603.70 78.65 604.14 75.38 604.32 C 75.40 603.79 75.44 602.75 75.46 602.23 Z" />
<path fill="#151514" d=" M 818.92 610.94 C 817.16 611.18 817.23 609.77 817.31 608.53 C 825.78 610.35 834.47 608.98 843.00 610.24 C 854.40 610.78 865.83 611.13 877.22 611.57 L 878.80 612.17 C 871.54 612.89 864.32 611.48 857.07 611.69 C 851.66 611.63 846.23 611.63 840.88 610.82 C 833.56 610.41 826.23 610.72 818.92 610.94 Z" />
<path fill="#000000" d=" M 208.92 612.88 C 210.66 610.63 213.87 610.82 216.27 611.71 C 219.41 613.56 221.51 616.97 222.14 620.53 C 222.75 624.90 222.02 629.30 221.29 633.62 C 220.29 633.56 219.29 633.50 218.29 633.44 C 218.74 628.10 220.76 622.16 217.80 617.20 C 216.80 615.23 214.67 614.35 212.85 613.35 C 210.74 614.93 208.99 617.01 208.39 619.63 C 206.52 626.57 206.31 633.84 206.45 640.99 C 206.49 646.94 206.60 653.00 208.15 658.78 C 209.07 661.27 210.20 665.10 213.59 664.65 C 215.94 661.64 216.51 657.62 218.94 654.69 C 220.79 654.43 222.50 656.11 221.53 657.95 C 220.02 661.66 218.57 665.73 215.46 668.43 C 213.29 669.24 210.58 668.73 208.83 667.20 C 205.40 664.50 204.58 659.89 203.86 655.85 C 203.09 647.21 203.55 638.52 203.85 629.88 C 204.67 624.07 204.57 617.38 208.92 612.88 Z" />
<path fill="#000000" d=" M 301.77 610.56 C 302.43 610.60 303.74 610.69 304.40 610.73 C 305.19 613.99 304.70 617.40 304.80 620.73 C 307.37 620.61 309.89 620.04 312.44 619.64 C 312.76 620.26 313.42 621.48 313.75 622.09 C 310.86 622.98 307.90 623.62 304.87 623.81 C 304.64 636.23 304.73 648.65 304.80 661.07 C 304.63 662.35 305.19 665.45 302.70 664.39 C 302.50 663.83 302.11 662.70 301.91 662.14 C 302.24 649.73 302.50 637.27 301.77 624.87 C 301.09 624.70 299.73 624.37 299.05 624.20 C 299.44 622.68 300.50 621.67 301.82 620.94 C 301.88 617.47 301.78 614.01 301.77 610.56 Z" />
<path fill="#61605e" d=" M 877.22 611.57 C 880.77 610.94 884.39 611.14 887.98 611.13 C 904.32 611.21 920.67 611.14 937.01 611.17 C 939.85 611.26 942.75 611.13 945.52 611.90 L 947.12 612.44 C 942.46 613.24 937.74 612.58 933.06 612.66 C 916.02 612.68 898.99 612.64 881.96 612.61 C 880.88 612.57 879.80 612.55 878.80 612.17 L 877.22 611.57 Z" />
<path fill="#040404" d=" M 945.52 611.90 C 948.67 612.03 951.82 612.56 954.99 612.25 C 958.63 611.94 962.49 611.03 965.97 612.70 C 965.24 614.10 964.19 615.24 962.85 616.04 C 962.45 615.45 961.65 614.28 961.25 613.69 C 956.56 612.97 951.76 613.44 947.12 612.44 L 945.52 611.90 Z" />
<path fill="#040403" d=" M 232.21 613.92 C 233.32 614.33 235.75 613.99 235.29 615.97 C 235.53 632.79 235.17 649.64 235.62 666.47 C 234.55 666.47 233.49 666.47 232.44 666.47 C 231.92 660.99 232.45 655.49 232.48 650.01 C 232.52 637.98 232.48 625.95 232.21 613.92 Z" />
<path fill="#080808" d=" M 246.26 623.56 C 247.37 623.56 248.48 623.58 249.59 623.62 C 249.10 624.47 249.73 626.53 248.17 626.34 C 245.94 627.45 246.76 624.58 246.26 623.56 Z" />
<path fill="#020202" d=" M 950.98 634.07 C 953.12 633.92 954.48 632.10 956.42 631.43 C 956.62 632.67 956.58 633.94 956.55 635.21 C 955.93 635.44 954.70 635.89 954.09 636.12 C 945.61 634.54 937.07 636.53 928.58 636.21 L 930.17 635.62 C 937.10 635.10 944.08 634.95 950.98 634.07 Z" />
<path fill="#565655" d=" M 874.97 636.50 C 889.29 635.33 903.67 635.33 918.03 635.27 C 922.08 635.29 926.15 634.98 930.17 635.62 L 928.58 636.21 C 917.78 637.20 906.79 636.25 895.93 637.01 C 884.30 637.16 872.71 638.29 861.08 638.28 C 847.82 639.00 834.46 638.99 821.35 641.26 C 822.10 638.70 824.65 638.10 826.99 638.15 C 843.00 638.16 858.96 636.56 874.97 636.50 Z" />
<path fill="#000000" d=" M 282.58 640.60 C 284.44 637.62 287.62 635.71 291.20 636.36 C 296.62 643.86 295.08 653.45 295.31 662.12 C 296.01 664.13 293.95 664.60 292.55 664.79 C 291.65 656.35 294.13 647.12 289.70 639.39 C 287.43 638.68 285.76 640.90 284.65 642.54 C 281.73 649.41 282.71 657.00 282.16 664.25 C 281.54 664.37 280.30 664.62 279.68 664.74 C 278.78 656.55 279.09 648.22 279.42 640.00 C 279.10 637.17 283.79 637.71 282.58 640.60 Z" />
<path fill="#000000" d=" M 263.84 637.75 C 266.52 637.22 270.52 636.69 272.11 639.45 C 272.47 643.48 272.53 647.65 271.37 651.57 C 268.34 652.18 265.24 652.24 262.16 652.19 C 262.13 655.65 261.97 659.15 262.55 662.59 C 264.01 662.66 265.47 662.82 266.94 662.67 C 268.78 661.59 270.18 659.92 271.65 658.41 C 272.19 658.45 273.28 658.52 273.82 658.56 C 272.99 663.62 266.72 667.51 261.88 665.12 C 257.86 662.42 259.69 657.07 259.15 653.06 C 258.73 652.02 258.05 650.93 258.74 649.85 C 260.39 645.88 259.14 639.84 263.84 637.75 Z" />
<path fill="#000000" d=" M 246.71 639.65 C 247.39 639.33 248.76 638.69 249.45 638.37 C 250.28 647.84 249.67 657.42 249.72 666.93 C 248.74 666.79 247.76 666.65 246.79 666.51 C 246.85 657.56 246.87 648.60 246.71 639.65 Z" />
<path fill="#f5f4f0" d=" M 264.52 640.57 C 266.11 640.20 267.76 640.34 269.38 640.34 C 269.41 643.13 269.36 645.92 269.34 648.72 C 267.02 649.13 264.66 649.28 262.31 649.29 C 262.70 646.38 262.25 642.80 264.52 640.57 Z" />
<path fill="#222221" d=" M 1016.27 662.49 C 1017.93 655.57 1016.88 648.37 1018.23 641.44 C 1019.78 648.22 1017.07 655.24 1019.46 661.90 L 1019.58 662.42 C 1018.47 662.45 1017.36 662.48 1016.27 662.49 Z" />
<path fill="#040404" d=" M 790.14 662.37 C 790.29 661.49 790.48 660.63 790.71 659.79 C 795.48 660.21 800.20 661.29 805.01 661.33 C 835.31 661.07 865.61 661.27 895.91 661.21 C 903.60 661.60 911.48 660.71 919.00 662.73 C 889.70 661.25 860.35 662.07 831.03 661.87 C 817.39 661.60 803.77 662.46 790.14 662.37 Z" />
<path fill="#000000" d=" M 955.71 665.93 C 965.65 663.76 975.88 664.68 985.97 664.61 C 995.30 664.62 1004.65 664.21 1013.96 663.97 C 1016.23 663.80 1017.12 665.47 1016.66 667.52 C 996.44 665.17 976.00 667.12 955.71 665.93 Z" />
<path fill="#000000" d=" M 827.69 680.98 C 827.80 677.26 828.60 673.48 830.94 670.50 C 834.08 670.25 837.75 670.58 839.88 673.21 C 841.72 675.92 841.21 679.39 841.25 682.50 C 840.25 682.65 839.25 682.80 838.27 682.95 C 838.30 680.12 838.31 677.27 837.53 674.53 C 835.72 673.86 833.83 673.44 831.91 673.48 C 831.26 677.51 829.36 682.25 832.13 685.88 C 836.41 691.71 841.95 697.38 842.73 704.94 C 842.78 708.38 843.57 712.36 841.28 715.30 C 838.68 719.19 832.23 720.85 828.90 716.99 C 826.09 712.75 825.96 707.39 825.65 702.49 C 826.87 702.41 828.10 702.37 829.35 702.35 C 829.46 706.86 829.88 711.44 831.76 715.61 C 834.65 716.07 838.27 715.77 839.51 712.61 C 841.85 705.15 837.84 697.54 833.09 691.97 C 830.64 688.74 827.21 685.37 827.69 680.98 Z" />
<path fill="#000000" d=" M 853.66 692.65 C 857.93 690.17 863.90 693.21 864.98 697.92 C 865.68 700.04 865.53 703.16 863.16 704.16 C 859.65 704.40 856.13 704.25 852.62 704.29 C 852.40 709.12 854.12 716.29 859.94 716.59 C 862.10 714.74 862.85 710.16 866.24 710.64 C 866.83 714.51 862.89 717.20 860.33 719.53 C 853.64 719.89 850.23 712.70 849.74 707.04 C 849.77 702.11 849.50 696.14 853.66 692.65 Z" />
<path fill="#000000" d=" M 873.19 693.61 C 873.76 693.59 874.90 693.54 875.46 693.52 C 875.85 695.19 876.23 696.87 876.60 698.57 C 879.10 697.17 881.59 695.54 884.50 695.21 C 884.46 696.12 884.41 697.04 884.38 697.97 C 881.70 699.28 879.03 700.62 876.30 701.79 C 876.23 706.99 876.28 712.19 876.26 717.40 C 875.31 717.46 874.38 717.52 873.46 717.59 C 873.28 709.60 873.46 701.60 873.19 693.61 Z" />
<path fill="#f5f4f0" d=" M 855.70 694.48 C 857.66 694.87 859.94 695.06 861.28 696.77 C 862.05 698.13 862.17 699.73 862.45 701.25 C 859.30 701.25 856.15 701.22 853.01 701.22 C 853.04 698.67 853.96 696.35 855.70 694.48 Z" />
<path fill="#010101" d=" M 894.12 715.25 C 897.60 708.26 899.19 700.51 901.80 693.18 C 904.62 693.66 903.70 696.48 903.14 698.30 C 900.94 704.81 899.29 711.51 896.63 717.85 C 896.16 719.22 894.68 719.76 893.35 719.65 C 891.67 717.80 891.28 715.25 890.76 712.91 C 889.84 707.44 888.90 701.96 888.52 696.42 C 889.20 696.50 890.58 696.66 891.27 696.73 C 892.76 702.80 892.67 709.15 894.12 715.25 Z" />
<path fill="#010101" d=" M 932.31 695.80 C 935.82 694.00 935.56 698.47 935.77 700.63 C 938.10 699.29 940.37 697.85 942.40 696.09 C 943.49 696.33 945.61 697.75 943.86 698.79 C 941.46 701.02 938.48 702.46 935.60 703.93 C 935.72 709.20 935.80 714.48 935.64 719.75 C 934.66 719.68 933.70 719.61 932.75 719.55 C 932.86 711.62 932.58 703.71 932.31 695.80 Z" />
<path fill="#000000" d=" M 909.27 704.12 C 909.73 701.64 910.49 698.63 913.00 697.47 C 916.46 696.78 920.11 697.23 923.40 698.50 C 923.65 699.12 924.14 700.37 924.38 700.99 C 923.74 702.42 923.82 704.39 922.56 705.44 C 919.18 706.05 915.71 705.67 912.30 705.81 C 912.30 709.64 911.41 714.44 914.56 717.33 C 918.36 719.21 921.58 716.47 924.24 714.09 C 926.28 717.00 922.91 719.33 920.60 720.42 C 917.55 721.09 913.76 721.02 911.53 718.51 C 908.55 714.33 909.33 708.94 909.27 704.12 Z" />
<path fill="#f5f4f0" d=" M 912.34 702.65 C 912.86 701.80 913.38 700.96 913.92 700.13 C 916.22 700.14 918.53 700.29 920.84 700.53 C 920.85 701.09 920.87 702.22 920.88 702.78 C 918.03 702.79 915.18 702.76 912.34 702.65 Z" />
</svg>
