<?xml version="1.0" encoding="UTF-8" ?>
<!DOCTYPE svg PUBLIC "-//W3C//DTD SVG 1.1//EN" "http://www.w3.org/Graphics/SVG/1.1/DTD/svg11.dtd">
<svg width="1155pt" height="866pt" viewBox="0 0 1155 866" version="1.1" xmlns="http://www.w3.org/2000/svg">
<path fill="#f5f4f0" d=" M 0.00 0.00 L 1155.00 0.00 L 1155.00 866.00 L 0.00 866.00 L 0.00 199.69 C 12.68 198.54 25.32 197.07 38.00 195.94 C 46.84 195.43 55.69 195.01 64.46 193.80 C 70.42 193.38 76.69 192.42 81.58 188.72 C 87.28 185.22 89.01 177.61 95.08 174.57 C 100.02 173.85 105.44 173.78 110.03 176.03 C 114.59 178.32 115.72 183.66 118.58 187.45 C 119.76 187.83 121.01 187.63 122.22 187.66 C 122.94 184.09 123.37 180.31 125.72 177.36 C 132.86 179.55 136.62 186.42 141.79 191.22 C 144.05 193.53 147.44 192.78 150.28 192.39 C 154.02 191.71 157.86 191.89 161.59 192.56 C 164.98 193.24 167.31 196.03 169.52 198.47 C 172.63 201.71 173.51 206.28 175.80 210.04 C 179.18 207.83 180.17 201.65 185.04 202.32 C 190.69 202.82 192.83 209.05 197.33 211.55 C 202.12 211.83 208.41 213.06 211.94 208.91 C 213.15 205.43 213.04 200.79 216.77 198.82 C 223.62 196.21 231.22 197.53 238.01 199.70 C 242.90 201.15 248.29 202.26 251.96 206.10 C 253.40 207.98 254.05 210.32 254.96 212.48 C 260.74 212.69 267.31 212.03 271.88 208.20 C 275.05 202.25 269.37 196.10 270.75 189.94 C 271.45 185.02 274.98 179.17 280.73 180.11 C 280.81 185.19 275.72 188.78 276.62 193.96 C 277.25 199.22 277.89 204.55 279.67 209.57 C 280.38 211.38 281.20 213.39 283.04 214.32 C 284.53 214.61 285.89 213.69 287.29 213.34 C 289.61 203.45 289.93 193.13 288.38 183.10 C 287.59 178.21 284.19 174.04 284.20 168.98 C 284.02 160.29 284.49 151.60 283.95 142.93 C 285.11 132.37 285.73 121.35 290.79 111.77 C 293.25 107.64 296.74 103.07 301.95 102.75 C 304.75 102.80 308.17 102.75 310.18 105.04 C 310.99 108.99 310.44 113.07 310.17 117.05 C 309.51 124.21 304.78 129.93 301.47 136.03 C 298.90 140.57 299.47 145.92 299.48 150.93 C 299.52 154.46 299.72 158.24 301.71 161.29 C 304.53 165.14 308.73 167.73 311.51 171.61 C 313.07 176.47 311.26 181.79 313.16 186.58 C 314.57 190.26 315.49 194.21 317.69 197.53 C 318.29 197.65 319.49 197.90 320.09 198.03 C 322.34 194.46 322.74 188.38 328.18 188.35 C 328.81 196.23 327.41 205.03 331.94 212.00 C 333.32 214.38 335.96 214.58 338.33 213.68 C 340.22 208.88 340.64 203.65 342.51 198.84 C 344.03 194.66 347.41 191.63 350.19 188.29 C 353.29 184.50 358.15 182.04 363.09 182.20 C 366.81 182.11 369.32 185.63 370.33 188.84 C 370.74 193.36 370.15 198.09 368.23 202.24 C 366.87 205.06 363.72 206.42 362.22 209.11 C 361.17 213.04 362.39 217.42 360.42 221.17 C 355.66 231.93 345.74 238.87 336.49 245.51 C 332.36 248.34 327.84 250.67 324.06 253.98 C 321.74 256.72 322.24 260.63 321.44 263.94 C 319.43 273.65 312.78 281.31 307.31 289.26 C 304.58 294.72 299.46 298.65 297.50 304.51 C 295.59 309.10 296.42 314.17 296.24 319.00 C 296.42 321.75 295.79 325.02 297.95 327.19 C 301.10 327.78 304.41 327.36 307.46 328.59 C 307.69 335.06 307.90 341.53 307.57 347.99 C 307.20 353.68 313.01 357.04 318.03 357.26 C 327.66 357.71 337.32 357.17 346.97 357.36 C 353.39 357.10 360.17 357.86 365.84 361.02 C 372.19 367.87 367.84 377.86 370.19 386.03 C 370.20 390.06 369.31 394.25 370.70 398.17 C 371.84 400.59 374.96 399.63 377.09 399.68 C 381.75 399.74 386.83 396.07 386.58 391.07 C 386.58 386.12 387.06 381.10 386.25 376.19 C 385.28 373.71 383.04 372.03 381.30 370.11 C 381.02 362.45 388.91 359.07 392.03 353.14 C 392.14 345.08 391.24 337.04 389.63 329.15 C 388.64 325.78 386.93 322.58 386.88 318.99 C 386.74 312.05 386.15 304.77 389.32 298.33 C 391.37 294.08 393.25 288.67 397.92 286.73 C 405.05 286.32 412.62 285.75 419.38 288.52 C 423.78 290.29 427.58 293.71 429.48 298.08 C 431.12 304.49 429.51 311.19 430.46 317.69 C 431.33 320.17 433.28 322.11 435.02 324.03 C 438.82 328.16 446.69 327.41 449.39 322.40 C 451.01 320.12 451.83 316.81 454.71 315.80 C 462.78 314.02 472.45 315.24 477.87 322.10 C 483.15 330.80 481.94 341.29 483.61 350.93 C 484.39 355.26 482.63 361.33 487.05 364.08 C 494.79 368.37 503.12 371.62 510.48 376.58 C 512.41 378.03 514.57 379.55 515.48 381.90 C 516.51 388.31 513.48 394.26 512.00 400.33 C 510.18 401.47 507.91 402.34 507.31 404.65 C 508.26 404.74 510.15 404.91 511.10 405.00 C 511.24 406.19 511.42 407.38 511.66 408.56 C 512.98 410.13 514.11 412.01 515.94 413.07 C 520.05 414.54 524.89 413.78 528.47 416.67 C 528.20 421.10 529.44 426.04 527.01 430.04 C 523.61 433.43 518.34 432.37 514.01 432.58 C 508.40 432.29 502.06 433.42 497.28 429.73 C 492.51 426.81 492.88 419.70 495.98 415.70 C 498.24 412.98 502.32 411.92 503.39 408.28 C 502.52 408.30 500.77 408.35 499.89 408.37 C 499.62 405.05 500.24 400.20 496.56 398.56 C 489.03 397.75 481.49 399.41 474.02 400.18 C 468.89 400.55 464.32 403.09 459.47 404.53 C 455.52 405.88 451.12 406.18 447.63 408.67 C 444.94 410.56 442.25 412.53 440.01 414.96 C 437.40 418.35 436.00 422.46 434.47 426.40 C 432.99 430.51 430.69 434.60 431.39 439.13 C 431.25 440.32 432.02 441.16 432.94 441.77 C 434.36 441.38 435.10 440.00 435.97 438.93 C 439.38 433.83 443.40 429.08 448.09 425.11 C 450.09 423.54 452.22 421.62 454.94 421.66 C 460.13 421.61 465.42 421.14 470.54 422.34 C 469.09 429.66 468.90 437.17 469.74 444.58 C 469.88 446.19 471.39 447.25 472.96 447.22 C 475.99 447.35 479.04 447.32 482.07 447.60 C 480.97 450.43 480.03 453.76 477.17 455.32 C 471.31 458.80 464.07 462.88 457.31 459.20 C 458.21 454.55 461.36 450.59 461.53 445.80 C 459.18 447.91 457.99 450.84 456.31 453.42 C 451.18 454.26 446.11 455.67 441.91 458.88 C 437.83 456.24 432.81 454.36 427.98 456.02 C 420.34 458.09 415.54 467.21 418.51 474.63 C 420.13 479.59 424.68 482.74 429.48 484.22 C 425.88 487.91 420.42 487.41 415.86 488.93 C 411.26 490.36 406.82 493.46 405.10 498.12 C 402.14 505.25 403.55 513.15 403.36 520.64 C 398.02 517.46 390.45 517.13 385.87 521.83 C 380.84 526.23 380.09 534.49 384.26 539.71 C 386.16 542.48 389.32 543.85 392.32 545.10 C 388.84 547.23 385.00 548.83 380.87 548.92 C 377.54 548.84 374.20 551.51 374.24 554.96 C 374.20 564.60 374.91 574.23 374.27 583.86 C 374.79 583.54 375.83 582.90 376.36 582.57 C 376.07 575.39 376.79 568.21 376.68 561.03 C 376.59 558.19 377.07 555.40 377.65 552.64 C 381.82 551.34 386.46 551.46 390.26 549.10 C 392.26 547.96 394.12 546.58 395.91 545.14 C 401.90 544.66 407.40 540.10 408.30 534.05 C 409.08 530.26 407.78 526.50 405.83 523.30 C 405.62 518.22 406.19 513.15 405.90 508.08 C 405.38 502.55 407.63 496.37 412.60 493.47 C 417.09 490.86 422.41 490.58 427.28 489.06 C 429.67 487.85 431.45 485.72 433.70 484.27 C 439.20 483.19 444.29 479.45 445.83 473.89 C 447.44 469.53 445.85 464.96 443.80 461.07 C 447.02 458.96 450.59 457.47 454.30 456.48 C 454.47 458.80 455.08 461.49 457.61 462.30 C 463.93 464.93 470.32 461.11 476.10 458.83 C 481.71 457.16 484.42 450.96 484.79 445.55 C 480.74 444.73 476.60 444.58 472.49 444.40 C 471.64 440.05 471.96 435.62 472.31 431.24 C 476.53 428.94 480.28 425.92 483.93 422.82 C 483.42 422.46 482.39 421.74 481.88 421.38 C 478.62 422.91 475.93 425.41 472.93 427.36 C 473.48 424.73 473.07 422.08 472.34 419.54 C 465.72 419.44 458.90 417.96 452.40 419.57 C 444.50 423.87 439.27 431.43 433.33 437.92 C 433.32 425.57 440.79 413.05 452.70 408.78 C 460.99 406.17 469.12 402.43 477.98 402.42 C 484.03 401.54 490.10 400.70 496.24 401.26 C 497.64 405.22 497.92 410.13 494.23 412.96 C 491.94 413.93 489.64 414.85 487.36 415.84 C 487.79 416.77 488.23 417.70 488.67 418.63 C 489.38 418.33 490.78 417.75 491.49 417.45 C 491.26 421.30 490.37 425.73 492.75 429.12 C 495.22 432.20 498.91 434.70 503.00 434.62 C 508.67 434.73 514.33 434.55 520.00 434.67 C 523.34 434.75 527.19 434.22 529.43 431.47 C 531.54 427.32 531.39 422.43 531.25 417.89 C 531.37 415.30 529.32 413.24 526.93 412.65 C 523.47 411.88 519.97 411.26 516.53 410.42 C 514.90 408.28 514.35 405.67 514.48 403.02 C 514.82 402.85 515.49 402.51 515.83 402.34 C 517.24 401.22 521.15 401.00 519.55 398.34 C 517.83 398.40 516.15 398.67 514.49 399.15 C 516.32 393.05 520.17 386.69 517.70 380.20 C 514.94 375.67 509.98 373.15 505.44 370.75 C 499.83 368.12 494.37 365.19 489.10 361.95 C 485.34 359.66 487.11 354.61 486.19 351.03 C 484.65 343.37 484.83 335.49 482.84 327.91 C 482.12 323.07 479.55 318.16 474.95 316.03 C 468.61 312.00 460.51 311.44 453.44 313.62 C 449.55 314.91 448.39 319.18 446.19 322.17 C 443.50 324.59 438.58 325.18 436.28 321.92 C 431.31 316.86 433.09 309.33 432.75 302.97 C 433.17 297.00 428.80 292.11 424.42 288.69 C 417.95 283.93 409.59 284.58 402.01 284.36 C 399.18 284.35 395.62 283.91 393.76 286.57 C 387.54 295.04 384.69 305.58 384.23 315.97 C 383.67 322.29 387.68 327.77 387.62 334.04 C 389.09 340.19 389.80 346.45 389.17 352.77 C 385.66 357.42 380.50 361.15 378.75 366.91 C 376.81 372.52 384.48 374.63 384.21 379.96 C 384.47 385.03 385.26 390.34 383.27 395.17 C 380.02 396.41 375.85 398.52 372.66 396.31 C 369.48 385.89 373.23 374.70 370.83 364.15 C 369.03 358.25 362.60 355.95 357.02 355.43 C 348.04 354.81 339.03 355.54 330.06 354.90 C 323.53 354.40 315.96 356.28 310.76 351.15 C 309.91 344.45 310.22 337.70 310.22 330.97 C 310.33 328.89 309.54 326.65 307.62 325.62 C 304.95 324.55 301.99 324.78 299.17 324.56 C 298.01 319.77 298.18 314.81 298.26 309.93 C 298.39 305.32 300.91 301.17 303.82 297.76 C 307.29 293.76 309.41 288.83 312.67 284.68 C 316.38 279.95 319.34 274.71 322.41 269.56 C 324.82 265.60 324.11 260.71 325.73 256.53 C 329.42 251.90 334.60 248.84 339.02 244.97 C 343.86 240.73 349.52 237.59 354.56 233.62 C 359.02 230.17 362.01 225.15 363.74 219.84 C 364.69 216.80 364.06 213.55 364.76 210.48 C 366.40 208.15 368.67 206.29 370.06 203.77 C 372.72 198.86 373.23 193.00 372.19 187.58 C 371.02 183.88 368.59 179.29 364.10 179.40 C 359.21 179.34 354.03 181.05 350.25 184.17 C 346.55 189.20 341.85 193.81 340.18 200.02 C 339.01 204.07 337.85 208.14 335.92 211.91 C 331.98 209.81 331.26 205.04 330.84 201.03 C 330.65 196.31 331.12 191.57 330.55 186.87 C 329.32 186.41 328.10 185.95 326.89 185.49 C 322.58 186.97 320.52 191.19 318.72 195.02 C 314.49 187.79 314.67 179.18 314.58 171.09 C 311.49 166.39 306.10 163.62 303.07 158.84 C 300.94 152.81 301.69 146.21 301.77 139.93 C 304.26 131.54 310.62 124.69 312.32 116.04 C 312.46 111.22 314.22 105.39 310.41 101.52 C 305.15 100.64 298.49 98.72 294.61 103.67 C 286.82 113.72 284.55 126.76 283.27 139.10 C 281.73 148.69 282.53 158.41 282.31 168.07 C 282.18 171.98 283.34 175.77 284.82 179.34 C 286.93 184.26 287.15 189.72 287.24 195.01 C 287.08 200.82 286.97 206.92 284.12 212.16 C 279.60 207.37 278.66 200.25 278.75 193.93 C 278.50 188.64 284.39 185.38 283.40 179.99 C 283.14 177.12 279.15 177.18 277.05 177.88 C 271.29 180.43 268.16 186.88 268.28 192.98 C 267.96 197.52 271.38 201.58 270.40 206.14 C 267.25 210.32 261.54 209.86 256.90 209.79 C 255.66 206.47 254.02 202.94 250.63 201.34 C 240.13 196.24 227.83 193.20 216.33 196.60 C 211.66 198.47 210.50 204.00 209.17 208.31 C 204.87 209.15 199.16 211.17 195.77 207.32 C 192.80 204.05 190.00 199.73 185.06 199.60 C 180.82 198.87 178.30 202.90 176.09 205.77 C 172.81 200.61 169.76 194.87 164.57 191.38 C 159.11 188.88 152.80 189.21 147.00 190.16 C 144.48 190.87 142.18 189.18 140.51 187.48 C 137.13 183.89 134.47 179.57 130.47 176.60 C 128.58 175.09 125.91 174.72 123.65 175.51 C 121.40 178.20 121.21 181.93 120.10 185.14 C 116.91 180.98 115.27 175.05 109.86 173.17 C 104.94 171.55 99.40 170.97 94.38 172.50 C 86.42 176.57 83.65 186.71 75.21 190.13 C 68.61 193.06 61.28 192.18 54.30 193.03 C 36.18 194.51 18.11 196.60 0.00 198.19 L 0.00 0.00 Z" />
<path fill="#010101" d=" M 294.61 103.67 C 298.49 98.72 305.15 100.64 310.41 101.52 C 314.22 105.39 312.46 111.22 312.32 116.04 C 310.62 124.69 304.26 131.54 301.77 139.93 C 301.69 146.21 300.94 152.81 303.07 158.84 C 306.10 163.62 311.49 166.39 314.58 171.09 C 314.67 179.18 314.49 187.79 318.72 195.02 C 320.52 191.19 322.58 186.97 326.89 185.49 C 328.10 185.95 329.32 186.41 330.55 186.87 C 331.12 191.57 330.65 196.31 330.84 201.03 C 331.26 205.04 331.98 209.81 335.92 211.91 C 337.85 208.14 339.01 204.07 340.18 200.02 C 341.85 193.81 346.55 189.20 350.25 184.17 C 354.03 181.05 359.21 179.34 364.10 179.40 C 368.59 179.29 371.02 183.88 372.19 187.58 C 373.23 193.00 372.72 198.86 370.06 203.77 C 368.67 206.29 366.40 208.15 364.76 210.48 C 364.06 213.55 364.69 216.80 363.74 219.84 C 362.01 225.15 359.02 230.17 354.56 233.62 C 349.52 237.59 343.86 240.73 339.02 244.97 C 334.60 248.84 329.42 251.90 325.73 256.53 C 324.11 260.71 324.82 265.60 322.41 269.56 C 319.34 274.71 316.38 279.95 312.67 284.68 C 309.41 288.83 307.29 293.76 303.82 297.76 C 300.91 301.17 298.39 305.32 298.26 309.93 C 298.18 314.81 298.01 319.77 299.17 324.56 C 301.99 324.78 304.95 324.55 307.62 325.62 C 309.54 326.65 310.33 328.89 310.22 330.97 C 310.22 337.70 309.91 344.45 310.76 351.15 C 315.96 356.28 323.53 354.40 330.06 354.90 C 339.03 355.54 348.04 354.81 357.02 355.43 C 362.60 355.95 369.03 358.25 370.83 364.15 C 373.23 374.70 369.48 385.89 372.66 396.31 C 375.85 398.52 380.02 396.41 383.27 395.17 C 385.26 390.34 384.47 385.03 384.21 379.96 C 384.48 374.63 376.81 372.52 378.75 366.91 C 380.50 361.15 385.66 357.42 389.17 352.77 C 389.80 346.45 389.09 340.19 387.62 334.04 C 387.68 327.77 383.67 322.29 384.23 315.97 C 384.69 305.58 387.54 295.04 393.76 286.57 C 395.62 283.91 399.18 284.35 402.01 284.36 C 409.59 284.58 417.95 283.93 424.42 288.69 C 428.80 292.11 433.17 297.00 432.75 302.97 C 433.09 309.33 431.31 316.86 436.28 321.92 C 438.58 325.18 443.50 324.59 446.19 322.17 C 448.39 319.18 449.55 314.91 453.44 313.62 C 460.51 311.44 468.61 312.00 474.95 316.03 C 479.55 318.16 482.12 323.07 482.84 327.91 C 484.83 335.49 484.65 343.37 486.19 351.03 C 487.11 354.61 485.34 359.66 489.10 361.95 C 494.37 365.19 499.83 368.12 505.44 370.75 C 509.98 373.15 514.94 375.67 517.70 380.20 C 520.17 386.69 516.32 393.05 514.49 399.15 C 514.45 400.12 514.37 402.06 514.32 403.03 L 515.83 402.34 C 515.49 402.51 514.82 402.85 514.48 403.02 C 514.35 405.67 514.90 408.28 516.53 410.42 C 519.97 411.26 523.47 411.88 526.93 412.65 C 529.32 413.24 531.37 415.30 531.25 417.89 C 531.39 422.43 531.54 427.32 529.43 431.47 C 527.19 434.22 523.34 434.75 520.00 434.67 C 514.33 434.55 508.67 434.73 503.00 434.62 C 498.91 434.70 495.22 432.20 492.75 429.12 C 490.37 425.73 491.26 421.30 491.49 417.45 C 492.28 415.88 493.20 414.38 494.23 412.96 C 497.92 410.13 497.64 405.22 496.24 401.26 C 490.10 400.70 484.03 401.54 477.98 402.42 C 469.12 402.43 460.99 406.17 452.70 408.78 C 440.79 413.05 433.32 425.57 433.33 437.92 C 439.27 431.43 444.50 423.87 452.40 419.57 C 458.90 417.96 465.72 419.44 472.34 419.54 C 473.07 422.08 473.48 424.73 472.93 427.36 C 472.69 428.65 472.47 429.93 472.31 431.24 C 471.96 435.62 471.64 440.05 472.49 444.40 C 476.60 444.58 480.74 444.73 484.79 445.55 C 484.42 450.96 481.71 457.16 476.10 458.83 C 470.32 461.11 463.93 464.93 457.61 462.30 C 455.08 461.49 454.47 458.80 454.30 456.48 C 450.59 457.47 447.02 458.96 443.80 461.07 C 440.29 463.59 436.64 466.45 434.82 470.48 C 434.28 475.06 434.56 479.72 433.70 484.27 C 431.45 485.72 429.67 487.85 427.28 489.06 C 422.41 490.58 417.09 490.86 412.60 493.47 C 407.63 496.37 405.38 502.55 405.90 508.08 C 406.19 513.15 405.62 518.22 405.83 523.30 C 405.67 526.86 406.51 530.97 404.03 533.95 C 401.28 537.65 398.83 541.57 395.91 545.14 C 394.12 546.58 392.26 547.96 390.26 549.10 C 386.46 551.46 381.82 551.34 377.65 552.64 C 377.07 555.40 376.59 558.19 376.68 561.03 C 376.79 568.21 376.07 575.39 376.36 582.57 C 375.83 582.90 374.79 583.54 374.27 583.86 C 374.91 574.23 374.20 564.60 374.24 554.96 C 374.20 551.51 377.54 548.84 380.87 548.92 C 385.00 548.83 388.84 547.23 392.32 545.10 C 398.23 540.14 403.75 533.14 403.34 525.00 C 403.37 523.53 403.37 522.09 403.36 520.64 C 403.55 513.15 402.14 505.25 405.10 498.12 C 406.82 493.46 411.26 490.36 415.86 488.93 C 420.42 487.41 425.88 487.91 429.48 484.22 C 434.18 479.66 429.30 472.16 433.21 467.23 C 435.55 463.93 438.61 461.19 441.91 458.88 C 446.11 455.67 451.18 454.26 456.31 453.42 C 457.99 450.84 459.18 447.91 461.53 445.80 C 461.36 450.59 458.21 454.55 457.31 459.20 C 464.07 462.88 471.31 458.80 477.17 455.32 C 480.03 453.76 480.97 450.43 482.07 447.60 C 479.04 447.32 475.99 447.35 472.96 447.22 C 471.39 447.25 469.88 446.19 469.74 444.58 C 468.90 437.17 469.09 429.66 470.54 422.34 C 465.42 421.14 460.13 421.61 454.94 421.66 C 452.22 421.62 450.09 423.54 448.09 425.11 C 443.40 429.08 439.38 433.83 435.97 438.93 C 435.10 440.00 434.36 441.38 432.94 441.77 C 432.02 441.16 431.25 440.32 431.39 439.13 C 430.69 434.60 432.99 430.51 434.47 426.40 C 436.00 422.46 437.40 418.35 440.01 414.96 C 442.25 412.53 444.94 410.56 447.63 408.67 C 451.12 406.18 455.52 405.88 459.47 404.53 C 464.32 403.09 468.89 400.55 474.02 400.18 C 481.49 399.41 489.03 397.75 496.56 398.56 C 500.24 400.20 499.62 405.05 499.89 408.37 C 499.29 411.14 497.65 413.48 495.98 415.70 C 492.88 419.70 492.51 426.81 497.28 429.73 C 502.06 433.42 508.40 432.29 514.01 432.58 C 518.34 432.37 523.61 433.43 527.01 430.04 C 529.44 426.04 528.20 421.10 528.47 416.67 C 524.89 413.78 520.05 414.54 515.94 413.07 C 514.11 412.01 512.98 410.13 511.66 408.56 C 511.90 405.82 511.85 403.07 512.00 400.33 C 513.48 394.26 516.51 388.31 515.48 381.90 C 514.57 379.55 512.41 378.03 510.48 376.58 C 503.12 371.62 494.79 368.37 487.05 364.08 C 482.63 361.33 484.39 355.26 483.61 350.93 C 481.94 341.29 483.15 330.80 477.87 322.10 C 472.45 315.24 462.78 314.02 454.71 315.80 C 451.83 316.81 451.01 320.12 449.39 322.40 C 446.69 327.41 438.82 328.16 435.02 324.03 C 433.28 322.11 431.33 320.17 430.46 317.69 C 429.51 311.19 431.12 304.49 429.48 298.08 C 427.58 293.71 423.78 290.29 419.38 288.52 C 412.62 285.75 405.05 286.32 397.92 286.73 C 393.25 288.67 391.37 294.08 389.32 298.33 C 386.15 304.77 386.74 312.05 386.88 318.99 C 386.93 322.58 388.64 325.78 389.63 329.15 C 391.24 337.04 392.14 345.08 392.03 353.14 C 388.91 359.07 381.02 362.45 381.30 370.11 C 383.04 372.03 385.28 373.71 386.25 376.19 C 387.06 381.10 386.58 386.12 386.58 391.07 C 386.83 396.07 381.75 399.74 377.09 399.68 C 374.96 399.63 371.84 400.59 370.70 398.17 C 369.31 394.25 370.20 390.06 370.19 386.03 C 367.84 377.86 372.19 367.87 365.84 361.02 C 360.17 357.86 353.39 357.10 346.97 357.36 C 337.32 357.17 327.66 357.71 318.03 357.26 C 313.01 357.04 307.20 353.68 307.57 347.99 C 307.90 341.53 307.69 335.06 307.46 328.59 C 304.41 327.36 301.10 327.78 297.95 327.19 C 295.79 325.02 296.42 321.75 296.24 319.00 C 296.42 314.17 295.59 309.10 297.50 304.51 C 299.46 298.65 304.58 294.72 307.31 289.26 C 312.78 281.31 319.43 273.65 321.44 263.94 C 322.24 260.63 321.74 256.72 324.06 253.98 C 327.84 250.67 332.36 248.34 336.49 245.51 C 345.74 238.87 355.66 231.93 360.42 221.17 C 362.39 217.42 361.17 213.04 362.22 209.11 C 363.72 206.42 366.87 205.06 368.23 202.24 C 370.15 198.09 370.74 193.36 370.33 188.84 C 369.32 185.63 366.81 182.11 363.09 182.20 C 358.15 182.04 353.29 184.50 350.19 188.29 C 347.41 191.63 344.03 194.66 342.51 198.84 C 340.64 203.65 340.22 208.88 338.33 213.68 C 335.96 214.58 333.32 214.38 331.94 212.00 C 327.41 205.03 328.81 196.23 328.18 188.35 C 322.74 188.38 322.34 194.46 320.09 198.03 C 319.49 197.90 318.29 197.65 317.69 197.53 C 315.49 194.21 314.57 190.26 313.16 186.58 C 311.26 181.79 313.07 176.47 311.51 171.61 C 308.73 167.73 304.53 165.14 301.71 161.29 C 299.72 158.24 299.52 154.46 299.48 150.93 C 299.47 145.92 298.90 140.57 301.47 136.03 C 304.78 129.93 309.51 124.21 310.17 117.05 C 310.44 113.07 310.99 108.99 310.18 105.04 C 308.17 102.75 304.75 102.80 301.95 102.75 C 296.74 103.07 293.25 107.64 290.79 111.77 C 285.73 121.35 285.11 132.37 283.95 142.93 C 284.49 151.60 284.02 160.29 284.20 168.98 C 284.19 174.04 287.59 178.21 288.38 183.10 C 289.93 193.13 289.61 203.45 287.29 213.34 C 285.89 213.69 284.53 214.61 283.04 214.32 C 281.20 213.39 280.38 211.38 279.67 209.57 C 277.89 204.55 277.25 199.22 276.62 193.96 C 275.72 188.78 280.81 185.19 280.73 180.11 C 274.98 179.17 271.45 185.02 270.75 189.94 C 269.37 196.10 275.05 202.25 271.88 208.20 C 267.31 212.03 260.74 212.69 254.96 212.48 C 254.05 210.32 253.40 207.98 251.96 206.10 C 248.29 202.26 242.90 201.15 238.01 199.70 C 231.22 197.53 223.62 196.21 216.77 198.82 C 213.04 200.79 213.15 205.43 211.94 208.91 C 208.41 213.06 202.12 211.83 197.33 211.55 C 192.83 209.05 190.69 202.82 185.04 202.32 C 180.17 201.65 179.18 207.83 175.80 210.04 C 173.51 206.28 172.63 201.71 169.52 198.47 C 167.31 196.03 164.98 193.24 161.59 192.56 C 157.86 191.89 154.02 191.71 150.28 192.39 C 147.44 192.78 144.05 193.53 141.79 191.22 C 136.62 186.42 132.86 179.55 125.72 177.36 C 123.37 180.31 122.94 184.09 122.22 187.66 C 121.01 187.63 119.76 187.83 118.58 187.45 C 115.72 183.66 114.59 178.32 110.03 176.03 C 105.44 173.78 100.02 173.85 95.08 174.57 C 89.01 177.61 87.28 185.22 81.58 188.72 C 76.69 192.42 70.42 193.38 64.46 193.80 C 61.06 193.90 57.67 193.48 54.30 193.03 C 61.28 192.18 68.61 193.06 75.21 190.13 C 83.65 186.71 86.42 176.57 94.38 172.50 C 99.40 170.97 104.94 171.55 109.86 173.17 C 115.27 175.05 116.91 180.98 120.10 185.14 C 121.21 181.93 121.40 178.20 123.65 175.51 C 125.91 174.72 128.58 175.09 130.47 176.60 C 134.47 179.57 137.13 183.89 140.51 187.48 C 142.18 189.18 144.48 190.87 147.00 190.16 C 152.80 189.21 159.11 188.88 164.57 191.38 C 169.76 194.87 172.81 200.61 176.09 205.77 C 178.30 202.90 180.82 198.87 185.06 199.60 C 190.00 199.73 192.80 204.05 195.77 207.32 C 199.16 211.17 204.87 209.15 209.17 208.31 C 210.50 204.00 211.66 198.47 216.33 196.60 C 227.83 193.20 240.13 196.24 250.63 201.34 C 254.02 202.94 255.66 206.47 256.90 209.79 C 261.54 209.86 267.25 210.32 270.40 206.14 C 271.38 201.58 267.96 197.52 268.28 192.98 C 268.16 186.88 271.29 180.43 277.05 177.88 C 279.15 177.18 283.14 177.12 283.40 179.99 C 284.39 185.38 278.50 188.64 278.75 193.93 C 278.66 200.25 279.60 207.37 284.12 212.16 C 286.97 206.92 287.08 200.82 287.24 195.01 C 287.15 189.72 286.93 184.26 284.82 179.34 C 283.34 175.77 282.18 171.98 282.31 168.07 C 282.53 158.41 281.73 148.69 283.27 139.10 C 284.55 126.76 286.82 113.72 294.61 103.67 Z" />
<path fill="#010101" d=" M 994.97 157.99 C 1001.20 156.69 1007.65 157.41 1013.98 157.18 C 1019.92 156.79 1026.21 159.36 1029.57 164.40 C 1035.79 172.42 1041.26 181.74 1050.50 186.65 C 1052.71 188.31 1054.34 190.66 1056.62 192.27 C 1060.73 194.52 1065.03 196.48 1069.60 197.65 C 1077.49 200.33 1086.84 200.86 1092.95 207.09 C 1094.55 212.77 1094.17 220.26 1088.96 224.08 C 1085.50 226.72 1081.57 229.47 1077.04 229.38 C 1069.92 229.36 1062.61 229.63 1055.76 227.35 C 1052.36 226.58 1049.31 224.82 1045.93 224.02 C 1042.62 229.18 1040.16 234.96 1039.69 241.12 C 1040.85 245.23 1045.09 247.16 1047.29 250.63 C 1051.93 255.74 1059.42 261.74 1066.45 257.26 C 1066.58 254.80 1066.93 252.26 1066.05 249.90 C 1065.46 248.15 1064.60 245.58 1066.90 244.69 C 1071.83 243.42 1076.97 243.85 1082.02 243.51 C 1084.31 243.22 1085.72 245.72 1087.93 245.97 C 1091.26 246.49 1094.77 246.79 1098.09 246.02 C 1101.86 244.88 1103.32 240.59 1103.28 237.01 C 1103.11 233.54 1104.53 230.31 1104.81 226.91 C 1102.98 220.41 1103.54 213.60 1102.70 206.95 C 1102.82 202.49 1100.56 198.22 1101.58 193.77 C 1105.60 192.06 1110.13 192.06 1114.39 192.75 C 1118.57 194.67 1120.96 199.51 1120.72 204.03 C 1121.27 210.12 1115.58 214.94 1116.83 221.09 C 1117.32 223.30 1118.42 226.16 1121.04 226.43 C 1126.99 227.10 1133.01 226.70 1138.99 227.00 C 1143.21 226.91 1149.31 225.75 1149.63 220.52 C 1150.17 220.48 1151.26 220.40 1151.80 220.36 C 1151.73 222.12 1152.05 224.28 1150.55 225.57 C 1147.13 228.49 1142.38 229.46 1137.98 229.11 C 1135.31 229.20 1132.64 229.24 1129.99 229.04 C 1125.94 229.25 1121.77 229.55 1117.88 228.20 C 1115.08 226.07 1114.18 222.33 1113.81 219.02 C 1113.77 214.45 1117.37 211.03 1118.08 206.65 C 1119.02 202.26 1117.64 196.51 1112.98 194.86 C 1110.00 194.24 1106.99 194.99 1104.08 195.60 C 1104.53 203.47 1105.44 211.29 1105.92 219.15 C 1106.36 222.51 1108.40 225.60 1107.57 229.11 C 1106.72 232.41 1105.38 235.61 1105.43 239.09 C 1105.43 243.42 1102.50 247.55 1098.15 248.38 C 1094.42 248.72 1090.67 248.66 1086.94 248.58 C 1084.65 248.56 1083.27 246.25 1081.08 245.90 C 1076.81 245.38 1072.51 245.98 1068.32 246.76 C 1069.67 250.51 1070.35 254.90 1068.72 258.66 C 1066.00 262.09 1060.86 262.27 1056.95 261.19 C 1052.10 258.56 1047.50 255.21 1044.29 250.67 C 1042.37 248.01 1038.88 246.69 1037.59 243.59 C 1036.88 239.99 1037.41 236.14 1039.08 232.87 C 1040.97 229.07 1041.99 224.72 1044.92 221.53 C 1050.67 220.71 1055.22 225.98 1060.91 226.49 C 1067.28 226.85 1073.76 227.09 1080.10 226.20 C 1084.24 224.70 1089.02 222.52 1090.38 217.93 C 1091.16 214.68 1090.81 211.28 1090.29 208.01 C 1083.27 202.96 1074.51 202.03 1066.49 199.41 C 1060.07 197.66 1054.09 194.39 1049.44 189.59 C 1043.03 185.63 1037.54 180.30 1033.42 173.98 C 1030.25 170.57 1028.17 166.28 1024.76 163.11 C 1021.31 160.81 1017.15 159.27 1012.95 159.57 C 1006.30 159.88 999.44 158.79 993.02 161.04 C 987.97 162.44 983.18 164.52 978.43 166.69 C 973.08 168.38 969.06 172.47 964.56 175.61 C 958.42 180.74 950.84 184.53 946.91 191.84 C 946.41 191.42 945.42 190.59 944.92 190.17 C 939.66 196.94 936.10 204.85 931.04 211.77 C 929.09 214.37 927.45 217.18 925.81 219.98 C 922.86 225.03 921.27 230.85 917.66 235.50 C 913.57 239.45 909.80 243.71 905.52 247.45 C 901.17 251.92 898.16 257.71 897.31 263.92 C 896.89 267.64 894.01 270.17 891.54 272.68 C 889.00 275.22 889.12 279.20 886.86 281.92 C 885.37 283.79 884.28 285.93 883.09 287.99 C 880.34 291.18 876.77 294.62 876.72 299.10 C 878.17 300.39 880.05 301.12 881.43 302.50 C 881.81 305.28 881.60 308.11 881.38 310.90 C 880.55 314.25 878.28 316.99 876.58 319.93 C 876.54 322.75 876.66 325.59 877.64 328.28 C 878.19 328.53 879.29 329.04 879.84 329.29 C 885.05 328.76 890.10 326.59 893.93 322.99 C 897.29 319.76 901.39 317.21 905.87 315.85 C 909.75 315.64 914.69 317.79 915.35 322.09 C 916.38 327.64 915.12 333.31 915.72 338.91 C 915.91 345.72 918.56 352.88 924.89 356.25 C 928.64 355.79 932.93 355.58 935.80 352.77 C 940.60 349.15 942.36 343.06 943.80 337.50 C 945.06 333.08 943.51 328.13 945.85 323.99 C 947.83 320.33 949.09 316.25 948.79 312.04 C 948.42 305.46 949.82 298.54 946.83 292.37 C 946.15 288.16 946.58 283.74 947.86 279.68 C 950.04 275.00 955.36 272.48 957.62 267.96 C 957.64 260.00 957.25 251.23 962.31 244.52 C 965.00 238.74 971.10 236.00 976.91 234.41 C 981.59 233.21 986.39 234.30 991.11 234.62 C 993.70 234.82 996.73 236.10 997.36 238.88 C 997.77 242.89 997.24 247.04 995.95 250.85 C 993.48 254.69 990.28 258.09 986.61 260.80 C 981.31 265.04 976.50 269.99 972.94 275.80 C 970.97 278.82 971.72 282.57 971.62 285.97 C 971.84 289.54 971.18 293.48 973.24 296.66 C 975.27 299.79 976.63 304.02 980.43 305.42 C 985.47 306.08 990.78 305.90 995.44 303.65 C 1001.48 301.87 1008.23 302.03 1014.29 303.67 C 1017.55 311.14 1013.79 321.20 1006.05 324.15 C 1002.18 325.69 999.62 329.13 996.20 331.33 C 989.71 333.57 980.93 332.16 976.64 338.64 C 976.33 344.15 978.41 351.24 973.02 354.97 C 969.49 358.50 964.42 356.16 960.16 356.90 C 956.34 359.10 952.53 361.35 948.90 363.85 C 940.60 368.27 931.02 366.82 922.01 367.61 C 917.18 367.62 911.33 368.25 907.69 364.40 C 905.35 359.82 908.15 354.21 905.78 349.55 C 904.17 346.69 901.88 342.49 897.92 343.85 C 894.35 344.69 895.79 348.95 896.31 351.49 C 896.85 355.49 901.36 357.76 901.25 361.97 C 901.52 365.71 899.45 369.20 896.67 371.54 C 893.66 372.96 890.00 371.46 887.02 373.05 C 884.15 374.21 884.05 377.99 881.38 379.40 C 876.10 382.91 871.83 387.64 867.14 391.85 C 865.52 393.26 863.91 394.71 862.66 396.47 C 858.08 402.66 855.53 410.16 850.31 415.88 C 847.52 418.94 844.23 422.11 839.76 421.92 C 835.76 422.53 831.65 421.85 827.72 422.86 C 824.49 423.96 821.13 425.38 818.94 428.10 C 817.67 431.40 818.42 435.06 819.84 438.19 C 825.71 438.99 832.26 438.16 837.45 441.56 C 840.94 443.84 840.89 448.47 840.16 452.12 C 838.97 456.60 837.34 461.35 833.67 464.42 C 828.51 466.51 823.03 464.08 818.07 462.54 C 812.22 462.18 806.27 461.94 800.46 462.74 C 796.09 464.28 791.70 466.22 787.97 468.97 C 784.86 473.59 783.24 479.42 784.00 484.99 C 784.49 489.29 783.87 493.70 784.83 497.94 C 786.59 502.33 788.56 506.85 792.06 510.15 C 797.94 510.50 804.47 504.89 810.05 509.01 C 810.97 512.16 810.04 515.62 810.64 518.89 C 814.31 516.00 815.60 511.48 817.65 507.51 C 819.17 504.87 822.48 505.24 825.01 505.86 C 829.41 507.38 833.09 503.89 836.40 501.55 C 842.84 497.08 837.35 488.17 841.11 482.30 C 844.99 476.88 849.49 471.88 854.49 467.49 C 857.65 465.50 859.38 462.11 860.89 458.82 C 862.79 457.69 865.66 456.57 867.37 458.66 C 869.02 461.07 870.48 463.68 872.81 465.55 C 875.30 463.41 878.28 461.65 879.85 458.64 C 881.03 456.51 883.24 455.22 885.36 454.18 C 888.94 454.38 892.66 454.55 896.03 455.92 C 898.34 457.39 899.81 459.80 901.74 461.71 C 906.92 465.58 908.78 472.19 913.68 476.30 C 916.88 479.01 920.74 480.89 924.84 481.81 C 927.55 482.45 929.15 485.30 929.20 487.96 C 929.47 492.95 929.06 497.97 929.59 502.96 C 933.83 501.35 935.41 496.78 938.45 493.78 C 938.61 490.39 938.55 486.99 938.53 483.60 C 935.85 479.90 931.21 478.85 927.66 476.29 C 922.84 473.00 917.46 470.61 912.67 467.28 C 909.27 464.92 907.93 460.70 907.04 456.87 C 906.98 456.21 906.87 454.88 906.81 454.21 C 906.93 450.30 906.22 445.45 909.40 442.52 C 911.69 442.14 914.01 442.32 916.34 442.19 L 916.41 442.39 C 916.48 442.59 916.62 442.98 916.69 443.18 C 917.69 443.14 919.69 443.05 920.69 443.01 C 923.96 443.88 926.86 445.75 930.04 446.94 C 934.27 448.50 936.07 453.01 938.95 456.14 C 942.29 459.85 944.41 464.48 947.87 468.11 C 950.60 471.08 953.05 474.37 954.61 478.13 C 958.50 488.31 961.77 498.78 966.65 508.56 C 968.64 513.18 974.31 510.96 978.00 510.12 C 980.51 508.83 983.55 506.21 982.51 503.05 C 980.38 496.56 974.49 492.58 969.66 488.21 C 968.03 483.82 969.92 478.23 974.09 475.88 C 979.15 475.07 984.32 476.20 989.15 477.74 C 990.91 478.23 992.38 479.44 993.39 480.97 C 994.07 489.05 991.12 497.95 995.46 505.41 C 996.93 509.42 1000.02 513.83 1004.88 513.25 C 1012.58 514.31 1019.54 510.57 1026.94 509.39 C 1031.93 509.04 1037.04 509.04 1041.94 510.18 C 1045.04 510.93 1048.08 513.45 1047.74 516.95 C 1047.58 522.94 1047.93 528.96 1047.36 534.94 C 1045.04 541.10 1039.97 545.79 1037.50 551.91 C 1037.23 554.74 1039.75 556.70 1041.06 558.95 C 1043.54 563.06 1046.64 566.73 1049.57 570.52 C 1055.40 579.36 1058.78 589.94 1066.63 597.37 C 1070.51 600.90 1073.20 605.44 1076.51 609.47 C 1080.40 614.44 1082.45 620.51 1084.76 626.31 C 1086.94 631.00 1089.29 635.78 1089.68 641.02 C 1090.45 647.78 1093.33 654.23 1093.42 661.07 C 1093.67 663.19 1091.64 664.02 1089.89 663.92 C 1088.15 661.15 1086.76 658.00 1084.00 656.08 C 1080.51 653.58 1077.60 650.38 1074.03 648.00 C 1068.77 644.63 1064.61 639.60 1062.10 633.90 C 1061.14 631.53 1060.07 629.20 1059.18 626.82 C 1057.40 622.60 1055.21 618.59 1053.35 614.42 C 1050.63 608.43 1050.73 601.66 1048.67 595.47 C 1046.17 588.00 1043.07 580.61 1038.28 574.29 C 1035.32 569.78 1031.48 565.74 1029.57 560.64 C 1027.55 553.54 1029.44 545.86 1027.22 538.82 C 1022.76 536.71 1017.56 536.66 1012.85 537.88 C 1007.41 540.21 1002.35 543.39 997.67 547.00 C 995.23 549.03 991.90 548.50 988.98 548.42 C 981.10 548.39 973.13 545.16 967.85 539.24 C 964.11 534.08 956.81 536.67 951.47 536.76 C 952.13 540.37 953.74 544.91 951.10 548.07 C 947.85 550.66 943.01 549.87 939.46 548.33 C 935.18 546.31 934.59 541.26 932.83 537.42 C 927.05 535.74 920.88 537.58 915.04 536.33 C 909.65 534.77 905.75 530.49 903.18 525.69 C 898.08 525.86 892.92 527.83 887.86 526.28 C 883.49 524.61 883.02 519.45 880.12 516.34 C 877.31 516.46 874.98 518.03 872.51 519.15 C 868.36 519.98 864.08 519.72 859.89 519.51 C 856.04 519.21 853.01 515.89 849.02 516.36 C 844.86 516.42 840.66 516.10 836.56 516.77 C 831.66 518.38 830.18 523.65 827.52 527.46 C 825.46 530.18 821.86 528.83 819.08 528.42 C 814.90 527.85 811.23 524.56 806.86 525.56 C 802.71 526.47 798.98 529.01 796.05 532.00 C 793.23 537.50 790.35 542.99 787.58 548.50 C 784.26 552.13 783.33 556.97 782.25 561.60 C 782.11 562.83 781.16 563.60 780.24 564.30 C 780.21 561.82 780.52 559.36 780.75 556.90 C 777.75 559.52 778.14 563.56 778.22 567.17 C 777.92 567.67 777.33 568.67 777.03 569.17 C 764.89 571.41 756.60 582.00 751.71 592.64 C 749.68 597.85 745.97 602.32 744.86 607.88 C 742.85 613.97 742.87 620.45 741.42 626.66 C 739.87 633.67 740.59 640.85 740.39 647.96 C 740.10 654.50 741.77 660.97 744.06 667.04 C 747.98 674.06 751.19 681.51 755.83 688.12 C 758.19 691.98 760.65 695.91 764.32 698.69 C 768.91 702.14 773.09 706.40 778.59 708.40 C 782.21 709.82 785.16 712.69 789.04 713.53 C 793.38 714.35 797.47 716.30 801.92 716.64 C 808.60 717.22 815.37 717.60 822.05 716.74 C 826.73 716.38 830.52 713.29 834.80 711.70 C 841.05 708.43 847.81 705.25 855.05 705.71 C 858.20 705.83 861.93 704.96 864.35 707.59 C 868.97 710.64 868.01 717.36 872.41 720.67 C 875.69 724.12 880.98 724.12 885.15 722.44 C 887.37 721.94 890.59 720.48 892.11 722.99 C 893.89 729.25 892.10 735.77 891.61 742.10 C 891.25 750.63 897.45 757.35 903.16 762.89 C 907.42 766.42 910.34 771.21 913.07 775.95 C 918.23 786.63 915.87 798.73 917.64 810.06 C 918.09 813.14 919.97 815.97 919.47 819.18 C 918.80 818.99 917.47 818.61 916.81 818.42 C 916.23 813.57 914.69 808.88 914.47 803.99 C 913.66 797.29 914.93 790.46 913.40 783.83 C 912.11 778.07 908.44 773.31 905.27 768.48 C 903.08 765.76 900.22 763.72 897.65 761.41 C 891.80 755.60 888.37 747.29 889.02 739.02 C 889.88 734.18 890.11 729.25 889.58 724.36 C 885.14 725.27 880.69 727.40 876.09 726.07 C 870.92 723.89 866.96 719.26 865.37 713.89 C 864.87 711.49 862.98 709.99 861.11 708.65 C 857.10 708.77 853.05 708.35 849.09 708.97 C 840.73 711.36 833.25 715.99 824.96 718.57 C 819.43 720.01 813.66 719.50 808.01 719.58 C 801.08 719.68 794.57 717.09 788.00 715.29 C 783.80 714.05 780.29 711.28 776.21 709.77 C 772.50 708.48 769.77 705.58 766.75 703.24 C 756.80 695.91 750.16 685.02 745.07 673.96 C 742.10 669.52 740.95 664.26 739.81 659.13 C 736.76 648.60 738.64 637.56 738.91 626.81 C 739.78 621.35 740.38 615.79 742.24 610.55 C 743.33 607.14 743.26 603.35 745.15 600.21 C 748.31 594.71 751.53 589.25 754.79 583.81 C 759.28 575.86 766.57 569.25 775.36 566.49 C 775.41 564.00 775.22 561.47 775.78 559.03 C 777.81 555.48 780.84 552.68 783.20 549.38 C 784.05 545.90 783.48 541.86 785.89 538.93 C 790.89 532.49 797.43 527.35 804.57 523.49 C 811.50 520.26 817.51 527.70 824.60 526.46 C 828.40 522.05 830.66 515.31 836.94 513.83 C 841.28 513.48 845.64 513.74 849.99 513.63 C 853.94 513.25 857.05 516.41 860.89 516.68 C 864.62 517.01 868.39 516.89 872.10 516.35 C 874.63 514.65 877.87 512.72 880.97 514.11 C 884.98 515.81 884.79 521.48 888.68 523.34 C 894.02 525.48 899.76 521.71 905.22 523.59 C 907.49 526.68 909.21 530.41 912.81 532.24 C 919.40 535.82 927.14 533.89 934.29 534.43 C 936.19 537.51 936.57 541.31 938.76 544.23 C 941.31 547.38 945.78 547.11 949.36 546.37 C 950.37 542.81 949.24 539.34 948.62 535.87 C 950.12 533.31 953.52 534.48 955.96 534.15 C 960.00 534.33 964.98 532.64 968.20 535.94 C 972.40 540.08 976.99 544.54 983.04 545.61 C 988.44 546.42 994.76 546.97 999.20 543.10 C 1005.38 539.50 1011.32 534.27 1018.89 534.35 C 1023.08 533.88 1028.58 534.89 1030.51 539.12 C 1031.29 545.68 1031.44 552.33 1031.54 558.94 C 1032.47 564.31 1036.28 568.46 1038.86 573.09 C 1041.87 577.90 1044.80 582.80 1046.87 588.10 C 1050.18 595.97 1051.88 604.36 1054.42 612.46 C 1058.65 620.57 1060.58 629.76 1065.71 637.41 C 1072.04 646.81 1083.29 651.01 1090.84 659.11 C 1090.87 655.36 1090.69 651.63 1090.32 647.92 L 1089.82 647.21 C 1088.98 641.17 1087.02 635.29 1084.21 629.89 C 1080.86 622.10 1078.86 613.45 1073.30 606.84 C 1069.61 601.83 1063.40 599.13 1060.55 593.42 C 1054.75 585.63 1051.38 576.36 1045.56 568.59 C 1042.08 564.36 1038.27 560.36 1035.33 555.73 C 1034.39 554.33 1034.17 552.35 1035.09 550.91 C 1038.96 544.64 1044.73 538.80 1045.11 531.04 C 1045.29 526.02 1045.30 520.98 1045.05 515.97 C 1044.28 514.15 1042.21 513.37 1040.49 512.79 C 1035.03 512.12 1029.36 510.96 1023.99 512.73 C 1019.96 513.57 1016.26 516.01 1012.03 515.69 C 1008.02 515.47 1003.95 516.10 1000.00 515.41 C 994.48 512.90 993.20 506.50 990.64 501.61 C 989.65 495.43 990.48 489.13 990.57 482.91 C 990.78 480.85 988.57 480.05 986.99 479.59 C 983.01 478.19 978.76 478.68 974.64 478.56 C 972.67 480.76 970.45 484.47 972.69 487.18 C 977.43 491.58 982.71 495.84 985.35 501.94 C 987.10 507.05 982.22 510.91 978.34 513.12 C 973.91 513.87 967.66 516.01 964.88 511.01 C 961.11 504.33 958.81 496.94 955.81 489.90 C 953.70 483.55 951.83 476.82 947.21 471.77 C 941.11 465.09 937.06 456.75 930.57 450.43 C 926.72 448.69 922.88 445.36 918.43 446.57 L 918.51 445.37 C 915.81 445.25 913.12 445.20 910.44 445.20 C 909.65 447.88 909.31 450.67 910.02 453.42 C 910.02 453.76 910.01 454.43 910.01 454.77 C 909.33 458.99 911.30 463.64 915.07 465.80 C 920.25 468.47 925.26 471.46 930.15 474.62 C 934.10 476.82 939.50 478.17 941.11 482.93 C 941.67 486.87 941.86 490.99 941.14 494.91 C 939.49 497.56 937.21 499.75 935.48 502.35 C 933.89 504.95 930.70 505.95 927.80 505.42 C 925.64 499.49 926.83 493.10 926.31 486.97 C 925.43 483.90 921.85 484.52 919.60 483.31 C 917.10 481.92 914.48 480.68 912.23 478.90 C 906.87 474.68 904.91 467.62 899.40 463.52 C 897.80 461.88 896.49 459.94 894.62 458.61 C 891.65 457.42 888.41 457.19 885.25 457.17 C 882.50 458.50 881.87 461.76 879.73 463.68 C 877.64 465.51 875.40 467.17 873.07 468.68 C 869.22 467.32 867.50 463.48 865.04 460.58 C 864.53 460.65 863.51 460.80 863.00 460.87 C 860.96 463.88 859.63 467.55 856.49 469.65 C 851.80 472.81 847.82 476.98 844.59 481.60 C 840.98 486.37 843.34 492.66 842.25 498.09 C 840.27 503.08 835.54 506.10 831.03 508.54 C 828.04 509.35 824.96 508.42 821.95 508.40 C 820.85 508.22 820.08 508.64 819.67 509.66 C 818.44 512.10 817.90 514.96 816.00 517.02 C 814.34 518.82 812.56 520.51 810.89 522.29 C 810.26 522.06 809.00 521.58 808.38 521.35 C 808.27 517.74 808.30 514.11 807.61 510.55 C 804.58 510.15 801.38 509.93 798.56 511.32 C 796.06 512.18 793.00 514.84 790.64 512.31 C 787.53 508.36 784.92 503.96 782.85 499.37 C 780.93 492.78 781.91 485.80 781.80 479.03 C 782.80 474.53 783.83 469.57 787.09 466.11 C 791.53 463.69 795.89 460.77 800.92 459.74 C 805.27 459.37 809.66 459.64 814.04 459.52 C 820.17 459.09 825.66 463.50 831.90 462.19 C 835.29 459.82 836.28 455.61 837.46 451.90 C 837.97 449.26 838.54 445.67 835.85 444.00 C 830.60 440.08 823.69 442.15 817.81 440.25 C 815.80 435.79 814.50 429.86 817.79 425.68 C 822.32 421.33 828.72 419.00 835.00 419.45 C 840.40 419.70 846.08 417.92 849.36 413.39 C 853.12 407.99 856.91 402.58 859.79 396.65 C 861.20 393.53 864.09 391.49 865.72 388.52 C 870.61 387.17 873.22 382.20 877.28 379.43 C 880.72 377.37 881.86 373.17 885.13 370.97 C 888.18 369.35 891.75 369.46 895.12 369.22 C 897.58 366.47 899.72 362.12 897.18 358.73 C 894.26 354.76 892.06 349.91 892.86 344.87 C 893.52 341.61 897.34 340.87 900.14 340.78 C 904.22 341.45 906.10 345.50 908.31 348.50 C 910.36 352.70 909.02 357.61 909.81 362.10 C 910.12 363.66 911.74 363.95 913.06 364.27 C 920.33 365.62 927.66 363.82 934.98 364.29 C 944.17 365.07 951.32 358.32 959.08 354.56 C 962.81 352.45 967.40 355.84 970.87 353.00 C 975.18 350.19 973.43 344.35 974.16 340.01 C 973.66 336.53 976.57 333.85 979.52 332.65 C 983.86 330.95 988.38 329.64 993.04 329.24 C 996.81 329.20 999.07 325.85 1001.80 323.77 C 1004.67 321.26 1008.92 320.34 1010.64 316.62 C 1013.11 313.51 1012.52 309.41 1012.30 305.73 C 1008.55 305.28 1004.78 305.06 1001.02 305.20 C 996.44 305.19 992.55 308.28 987.99 308.36 C 984.54 308.31 980.66 309.39 977.63 307.26 C 974.16 304.97 972.52 300.99 970.44 297.56 C 967.75 293.14 969.23 287.87 969.16 283.04 C 969.25 280.52 968.77 277.74 970.22 275.50 C 973.92 269.03 979.07 263.45 984.94 258.89 C 988.58 256.67 991.63 253.46 993.41 249.57 C 994.64 246.10 994.62 242.36 994.48 238.73 C 989.98 236.57 984.82 236.67 979.94 236.61 C 976.27 236.38 973.19 238.66 970.08 240.24 C 966.44 241.90 964.95 245.89 963.01 249.09 C 959.57 255.39 960.93 262.76 960.28 269.60 C 957.21 274.08 951.09 276.69 949.95 282.43 C 949.32 286.09 948.73 290.01 950.26 293.53 C 952.00 297.49 951.18 301.86 951.48 306.04 C 951.69 312.08 951.38 318.32 948.73 323.87 C 946.13 328.51 948.07 334.04 946.27 338.92 C 944.17 345.23 942.01 352.28 936.25 356.24 C 933.03 357.78 929.44 358.37 925.98 359.17 C 923.35 359.15 921.36 357.12 919.53 355.48 C 917.54 353.28 915.32 351.01 914.61 348.04 C 912.73 341.20 913.61 334.05 912.88 327.07 C 912.52 324.92 913.09 322.29 911.43 320.60 C 910.06 319.68 908.48 319.15 906.98 318.53 C 903.96 319.92 900.40 320.53 897.95 322.92 C 893.42 328.06 886.76 331.38 879.98 332.10 C 875.34 332.20 873.60 326.86 873.68 323.03 C 873.13 319.29 875.92 316.44 877.47 313.34 C 879.19 310.43 878.65 306.91 878.74 303.69 C 877.38 303.16 876.04 302.63 874.70 302.11 C 872.32 295.93 877.61 291.09 881.42 287.03 C 881.99 284.14 884.16 282.04 885.58 279.58 C 887.08 276.97 887.39 273.71 889.55 271.49 C 891.84 269.01 894.61 266.57 895.11 263.03 C 896.35 256.64 899.19 250.38 904.04 245.93 C 909.16 241.78 913.98 237.10 917.64 231.59 C 922.59 222.44 927.86 213.40 934.25 205.16 C 936.79 199.84 939.33 194.48 942.57 189.54 C 943.49 187.94 945.44 187.71 947.12 187.62 C 950.04 183.25 954.57 180.49 958.90 177.69 C 963.83 173.68 968.99 169.94 973.90 165.89 C 980.44 162.16 987.93 160.55 994.97 157.99 Z" />
<path fill="#575755" d=" M 0.00 198.19 C 18.11 196.60 36.18 194.51 54.30 193.03 C 57.67 193.48 61.06 193.90 64.46 193.80 C 55.69 195.01 46.84 195.43 38.00 195.94 C 25.32 197.07 12.68 198.54 0.00 199.69 L 0.00 198.19 Z" />
<path fill="#070606" d=" M 801.32 306.94 C 800.99 300.00 806.84 292.95 814.00 293.00 C 817.78 293.10 821.87 292.81 825.30 294.70 C 827.20 295.69 826.70 298.27 825.48 299.62 C 823.31 302.85 819.44 304.73 817.98 308.45 C 825.21 309.49 832.63 305.71 839.59 308.63 C 839.74 311.10 840.20 313.76 839.18 316.11 C 837.56 318.53 835.81 320.91 833.80 323.02 C 830.68 325.09 826.63 324.74 823.41 326.61 C 822.03 328.06 823.15 330.20 823.37 331.90 C 825.30 335.79 830.77 337.54 831.25 342.29 C 831.27 342.96 831.29 344.29 831.31 344.96 C 831.32 347.86 831.05 350.90 832.33 353.62 C 836.84 352.59 841.47 352.39 846.03 351.71 C 849.70 351.67 853.86 352.75 856.30 355.69 C 857.57 358.17 855.75 360.71 855.09 363.09 C 856.92 368.57 858.29 375.47 854.27 380.33 C 851.70 383.92 847.14 385.22 842.99 385.81 C 835.39 387.14 827.74 385.12 820.12 385.80 C 818.50 385.91 817.30 387.14 816.03 388.00 C 813.43 389.99 810.41 391.38 807.92 393.52 C 805.65 395.27 803.54 397.84 800.37 397.54 C 800.43 396.92 800.53 395.68 800.58 395.06 C 803.69 391.04 807.32 387.46 810.77 383.73 C 811.58 382.60 812.87 382.13 814.18 381.83 C 812.12 385.54 808.77 388.32 806.76 392.07 C 810.78 389.43 814.16 385.80 818.43 383.59 C 827.91 382.33 837.69 385.43 847.01 382.48 C 850.50 381.68 853.05 378.68 854.21 375.41 C 855.04 371.16 853.62 367.00 852.52 362.95 C 852.76 361.08 853.87 359.47 854.59 357.77 C 851.68 353.49 845.70 354.02 841.25 354.86 C 837.78 354.98 834.18 356.27 830.79 355.36 C 828.21 351.44 829.12 346.46 828.64 342.03 C 827.40 337.46 821.17 336.04 820.75 331.07 C 820.56 329.39 820.30 327.65 820.73 325.99 C 823.48 322.49 828.45 323.11 832.04 321.08 C 835.04 318.33 837.98 314.87 837.68 310.51 C 831.16 308.64 824.49 311.90 817.92 310.89 C 816.39 310.78 816.22 309.00 815.44 308.06 C 816.91 303.19 822.69 301.47 824.09 296.62 C 818.33 294.81 810.36 293.82 806.32 299.40 C 802.88 303.06 804.11 308.38 802.78 312.82 C 802.03 316.01 800.77 319.87 803.42 322.56 C 807.42 326.84 809.17 333.01 808.27 338.77 C 809.05 338.74 809.84 338.74 810.63 338.76 C 812.69 339.14 815.35 339.23 816.39 341.42 C 817.80 343.93 815.27 346.09 814.17 348.13 C 812.35 350.58 812.37 353.76 812.80 356.64 C 815.44 362.81 812.52 369.49 813.38 375.92 C 812.88 378.06 816.38 379.13 815.20 381.21 C 813.38 382.77 812.56 380.03 811.67 379.02 C 810.49 373.44 811.42 367.66 811.64 362.02 C 811.68 359.53 810.33 357.29 810.04 354.85 C 809.80 350.20 812.18 346.19 814.80 342.58 C 812.52 341.82 810.16 341.42 807.78 341.38 C 807.01 340.40 806.25 339.42 805.56 338.40 C 805.06 335.59 806.21 332.65 805.08 329.92 C 804.32 326.42 801.01 324.37 799.80 321.11 C 798.65 316.29 801.11 311.70 801.32 306.94 Z" />
<path fill="#010101" d=" M 28.89 311.88 C 32.46 313.13 36.19 314.48 38.94 317.19 C 44.75 322.70 50.31 328.48 56.46 333.62 C 62.69 338.81 68.31 345.00 71.62 352.48 C 76.37 364.45 80.27 376.91 86.92 388.03 C 91.90 395.97 101.57 397.69 109.40 401.54 C 112.71 403.46 116.56 404.84 118.98 407.96 C 121.07 410.50 122.57 413.61 122.70 416.94 C 123.16 427.81 121.33 438.94 124.14 449.62 C 125.59 455.97 124.70 462.58 126.12 468.93 C 127.17 473.27 127.61 477.93 130.34 481.63 C 132.31 485.23 136.44 487.21 138.04 490.99 C 139.57 497.53 139.80 504.30 139.62 510.99 C 139.56 518.08 138.22 525.17 139.28 532.25 C 143.13 534.27 147.58 534.64 151.46 536.54 C 157.87 540.86 162.84 547.78 163.72 555.57 C 165.37 561.06 167.19 566.62 170.66 571.27 C 175.70 578.07 176.02 587.16 181.19 593.87 C 183.29 596.79 186.36 598.74 189.03 601.07 C 193.74 605.54 198.50 609.96 202.55 615.06 C 202.77 614.40 203.21 613.07 203.43 612.41 C 203.84 611.15 204.26 609.91 204.63 608.66 C 205.48 611.99 205.12 615.41 204.48 618.75 C 203.34 618.58 201.93 618.93 201.16 617.83 C 197.73 614.54 195.34 610.29 191.54 607.36 C 186.81 602.49 180.59 598.86 177.63 592.48 C 173.66 586.24 172.72 578.57 168.24 572.63 C 164.21 567.15 162.20 560.51 160.79 553.94 C 159.83 548.40 156.57 543.25 151.83 540.18 C 147.57 537.13 141.90 537.25 137.56 534.36 C 135.73 533.11 136.49 530.69 136.34 528.83 C 136.57 523.77 136.77 518.71 136.78 513.64 C 136.57 507.39 137.05 501.12 136.53 494.89 C 135.97 488.46 128.79 485.95 126.75 480.15 C 122.79 470.20 124.76 459.00 121.58 448.83 C 120.89 446.62 120.00 444.40 120.17 442.04 C 120.47 432.64 120.54 423.19 119.44 413.84 C 117.14 408.83 112.34 405.80 107.65 403.32 C 103.75 401.91 99.79 400.63 95.94 399.08 C 85.88 392.58 80.62 381.26 76.35 370.50 C 74.32 366.23 72.40 361.92 71.03 357.40 C 66.20 346.23 57.52 337.30 48.50 329.37 C 42.54 323.78 36.82 317.64 29.42 313.98 C 29.29 313.45 29.02 312.41 28.89 311.88 Z" />
<path fill="#163dfe" d=" M 745.58 323.72 C 748.48 323.68 751.39 323.66 754.30 323.70 C 754.39 324.64 754.49 325.59 754.59 326.54 C 751.51 326.71 748.43 326.74 745.36 326.59 C 745.42 325.63 745.50 324.67 745.58 323.72 Z" />
<path fill="#0f37fe" d=" M 730.57 324.63 C 734.55 323.82 738.77 323.15 742.68 324.70 C 742.33 325.37 741.63 326.70 741.29 327.37 C 737.77 326.53 734.18 326.83 730.67 327.43 C 730.63 326.49 730.59 325.56 730.57 324.63 Z" />
<path fill="#1038fe" d=" M 759.36 324.38 C 762.26 324.52 765.58 323.79 767.97 325.91 C 766.17 328.94 762.36 327.11 759.55 327.29 C 759.47 326.31 759.41 325.34 759.36 324.38 Z" />
<path fill="#0f37fe" d=" M 716.41 325.63 C 719.65 325.17 722.93 324.71 726.23 324.77 C 726.26 325.38 726.32 326.60 726.35 327.21 C 723.05 328.45 719.46 328.46 715.99 328.57 C 713.43 328.88 714.70 325.59 716.41 325.63 Z" />
<path fill="#163dfe" d=" M 772.87 325.85 C 775.57 325.01 778.42 326.20 781.05 326.81 C 779.46 327.51 777.88 328.22 776.28 328.88 C 774.97 328.75 773.67 328.60 772.39 328.40 C 772.51 327.54 772.67 326.69 772.87 325.85 Z" />
<path fill="#0f37fe" d=" M 703.35 327.66 C 705.98 326.53 708.84 326.21 711.68 326.06 C 711.69 326.70 711.70 327.98 711.71 328.62 C 708.56 329.19 705.52 330.62 702.31 330.60 C 700.35 329.72 701.94 327.91 703.35 327.66 Z" />
<path fill="#020202" d=" M 781.05 326.81 C 785.24 324.58 790.16 325.55 794.17 327.68 C 795.26 332.89 798.52 337.87 797.44 343.35 C 794.27 345.66 790.42 346.76 787.07 348.77 C 788.79 354.00 789.85 359.46 789.64 364.99 C 789.37 369.01 791.91 374.07 788.10 377.09 C 783.97 379.88 778.97 381.24 774.05 381.79 C 769.87 382.31 765.61 384.91 761.40 383.36 C 758.68 381.24 757.57 377.74 755.82 374.87 C 753.86 371.64 756.71 368.66 758.01 365.87 C 760.26 361.58 758.36 356.49 760.26 352.09 C 761.60 347.37 764.23 343.18 765.65 338.49 C 767.59 333.93 771.75 330.65 776.28 328.88 C 777.88 328.22 779.46 327.51 781.05 326.81 Z" />
<path fill="#f5f4f0" d=" M 783.12 328.49 C 786.18 327.01 789.48 328.26 792.47 329.26 C 794.14 333.27 794.85 337.70 795.43 342.01 C 791.70 344.06 786.88 345.00 784.50 348.82 C 788.03 356.45 787.00 364.99 787.86 373.11 C 787.98 374.45 787.00 375.50 785.99 376.19 C 780.49 379.19 774.04 379.06 768.17 380.87 C 766.17 381.22 763.99 382.20 762.04 381.28 C 759.84 378.96 758.62 375.91 757.45 372.99 C 757.57 370.45 759.67 368.47 760.44 366.08 C 762.42 361.96 760.54 357.18 762.23 353.00 C 763.69 348.31 766.30 344.09 767.78 339.41 C 770.25 332.98 777.45 331.10 783.12 328.49 Z" />
<path fill="#0f37fe" d=" M 684.10 330.44 C 687.59 330.75 691.38 328.15 694.58 329.92 C 693.29 333.16 688.90 332.96 685.98 333.40 C 683.95 333.96 684.25 331.64 684.10 330.44 Z" />
<path fill="#0f37fe" d=" M 793.47 336.04 C 791.06 334.10 785.24 333.50 786.52 329.20 C 788.49 329.86 790.35 330.81 792.13 331.90 C 793.57 332.75 793.24 334.63 793.47 336.04 Z" />
<path fill="#0f37fe" d=" M 665.33 335.65 C 669.98 334.98 674.26 332.91 678.88 332.19 C 678.78 332.79 678.58 333.98 678.48 334.58 C 674.63 337.00 670.03 337.75 665.67 338.67 C 665.54 337.66 665.42 336.65 665.33 335.65 Z" />
<path fill="#dd4e0c" d=" M 810.63 338.76 C 814.99 334.46 823.11 335.79 826.26 340.92 C 829.20 345.51 828.16 352.42 823.49 355.49 C 820.41 357.81 816.32 357.82 812.80 356.64 C 812.37 353.76 812.35 350.58 814.17 348.13 C 815.27 346.09 817.80 343.93 816.39 341.42 C 815.35 339.23 812.69 339.14 810.63 338.76 Z" />
<path fill="#0f37fe" d=" M 652.68 339.87 C 655.78 340.40 659.79 336.44 661.90 340.02 C 659.13 342.19 655.69 342.96 652.22 342.77 C 652.36 341.80 652.51 340.83 652.68 339.87 Z" />
<path fill="#1037fe" d=" M 799.38 337.45 C 801.81 337.30 803.74 338.86 805.72 340.01 C 805.68 339.61 805.60 338.80 805.56 338.40 C 806.25 339.42 807.01 340.40 807.78 341.38 C 807.62 342.03 807.29 343.34 807.12 344.00 C 804.26 342.31 799.36 341.56 799.38 337.45 Z" />
<path fill="#dd4e0c" d=" M 807.78 341.38 C 810.16 341.42 812.52 341.82 814.80 342.58 C 812.18 346.19 809.80 350.20 810.04 354.85 C 807.63 351.85 805.64 347.88 807.12 344.00 C 807.29 343.34 807.62 342.03 807.78 341.38 Z" />
<path fill="#0f37fe" d=" M 831.25 342.29 C 833.50 342.71 838.28 340.73 838.46 344.14 C 836.50 345.87 833.69 345.17 831.32 345.51 L 831.31 344.96 C 831.29 344.29 831.27 342.96 831.25 342.29 Z" />
<path fill="#1138fe" d=" M 842.18 342.18 C 844.73 342.46 847.45 342.19 849.87 343.18 C 851.44 343.71 850.49 345.47 850.51 346.61 C 847.91 345.83 845.24 345.45 842.56 345.23 C 842.42 344.21 842.29 343.19 842.18 342.18 Z" />
<path fill="#1038fe" d=" M 640.58 344.99 C 642.98 344.54 646.03 342.35 647.99 344.89 C 646.04 347.69 642.36 347.87 639.28 347.63 C 639.60 346.73 639.34 345.24 640.58 344.99 Z" />
<path fill="#1037fe" d=" M 629.26 348.62 C 631.64 348.10 634.03 347.56 636.45 347.18 C 636.48 347.77 636.52 348.96 636.55 349.55 C 634.26 350.90 631.75 351.95 629.05 351.42 C 629.10 350.72 629.21 349.32 629.26 348.62 Z" />
<path fill="#0f37fe" d=" M 854.23 347.10 C 858.08 347.37 861.84 350.19 862.52 354.10 C 860.95 356.92 859.57 353.91 858.39 352.52 C 857.53 351.09 855.80 350.78 854.42 350.11 C 854.34 349.10 854.27 348.10 854.23 347.10 Z" />
<path fill="#0f37fe" d=" M 623.79 351.78 C 625.09 350.97 626.59 351.22 627.97 351.69 C 627.15 352.96 626.10 354.11 624.67 354.69 C 620.74 356.61 616.71 358.37 612.56 359.75 C 612.43 358.68 612.27 357.63 612.08 356.58 C 616.16 355.42 619.98 353.59 623.79 351.78 Z" />
<path fill="#0f37fe" d=" M 599.45 361.63 C 601.54 361.25 604.38 359.02 605.53 361.99 C 602.71 364.66 598.45 364.99 594.92 366.33 C 594.57 365.97 593.85 365.26 593.50 364.90 C 594.42 362.53 597.45 362.60 599.45 361.63 Z" />
<path fill="#1239fe" d=" M 862.30 361.51 C 862.89 361.51 864.06 361.50 864.65 361.50 C 865.46 363.69 865.90 366.01 865.54 368.36 C 865.04 368.37 864.05 368.39 863.56 368.40 C 862.32 366.30 862.15 363.88 862.30 361.51 Z" />
<path fill="#1038fe" d=" M 578.22 370.75 C 580.66 369.86 582.99 367.79 585.72 368.35 C 586.37 371.24 583.04 371.99 581.09 372.96 C 579.37 374.47 578.15 372.19 578.22 370.75 Z" />
<path fill="#0f37fe" d=" M 559.07 377.57 C 563.09 376.45 566.78 374.42 570.75 373.21 C 571.24 373.34 572.22 373.59 572.71 373.72 C 572.31 374.33 571.52 375.56 571.13 376.17 C 567.34 377.73 563.55 379.29 559.67 380.61 C 559.46 379.59 559.25 378.58 559.07 377.57 Z" />
<path fill="#1038fe" d=" M 864.30 375.11 C 865.30 375.44 867.15 374.91 867.23 376.46 C 867.57 378.53 867.45 380.64 867.50 382.74 C 866.48 382.71 865.48 382.69 864.49 382.66 C 864.42 380.14 864.33 377.63 864.30 375.11 Z" />
<path fill="#0f37fe" d=" M 541.03 386.93 C 544.86 385.09 548.54 382.44 552.90 382.12 C 552.80 382.73 552.60 383.95 552.51 384.56 C 548.97 386.51 545.28 388.18 541.58 389.80 C 541.45 389.08 541.17 387.65 541.03 386.93 Z" />
<path fill="#1038fe" d=" M 524.31 394.50 C 528.25 393.14 531.75 390.55 535.96 390.04 C 535.87 390.68 535.70 391.98 535.62 392.62 C 531.97 394.38 528.44 396.89 524.26 396.96 C 524.27 396.35 524.30 395.11 524.31 394.50 Z" />
<path fill="#163dfe" d=" M 862.66 396.47 C 863.91 394.71 865.52 393.26 867.14 391.85 C 866.70 393.40 866.27 394.95 865.80 396.50 C 864.74 396.48 863.70 396.47 862.66 396.47 Z" />
<path fill="#1e43fc" d=" M 514.49 399.15 C 516.15 398.67 517.83 398.40 519.55 398.34 C 521.15 401.00 517.24 401.22 515.83 402.34 L 514.32 403.03 C 514.37 402.06 514.45 400.12 514.49 399.15 Z" />
<path fill="#0f37fe" d=" M 507.31 404.65 C 507.91 402.34 510.18 401.47 512.00 400.33 C 511.85 403.07 511.90 405.82 511.66 408.56 C 511.42 407.38 511.24 406.19 511.10 405.00 C 510.15 404.91 508.26 404.74 507.31 404.65 Z" />
<path fill="#1038fe" d=" M 860.23 405.16 C 861.70 403.13 862.65 399.84 865.77 400.24 C 866.20 402.94 862.90 408.80 860.23 405.16 Z" />
<path fill="#143bfe" d=" M 499.89 408.37 C 500.77 408.35 502.52 408.30 503.39 408.28 C 502.32 411.92 498.24 412.98 495.98 415.70 C 497.65 413.48 499.29 411.14 499.89 408.37 Z" />
<path fill="#0f37fe" d=" M 854.37 413.93 C 855.75 411.77 856.81 408.54 860.01 408.97 C 860.06 411.32 858.63 413.13 857.10 414.76 C 858.11 414.49 860.12 413.95 861.12 413.68 C 864.61 415.47 859.16 418.95 857.41 417.43 C 856.74 415.95 856.04 414.48 854.37 413.93 Z" />
<path fill="#133afe" d=" M 875.64 409.60 C 878.11 409.61 880.62 409.50 883.09 409.87 C 883.31 410.76 883.51 411.66 883.70 412.58 C 880.97 412.83 878.23 412.81 875.52 412.51 C 875.55 411.53 875.58 410.57 875.64 409.60 Z" />
<path fill="#1139fe" d=" M 886.26 409.37 C 888.32 409.22 890.21 410.48 892.22 410.86 C 893.09 411.60 893.97 412.34 894.85 413.09 C 893.54 415.63 890.98 413.91 889.04 413.41 C 887.33 413.02 884.15 411.33 886.26 409.37 Z" />
<path fill="#0f37fe" d=" M 865.04 413.86 C 864.66 409.57 869.96 410.82 872.67 410.53 C 872.69 411.50 872.73 412.48 872.77 413.46 C 870.19 413.65 867.61 413.81 865.04 413.86 Z" />
<path fill="#1038fe" d=" M 487.36 415.84 C 489.64 414.85 491.94 413.93 494.23 412.96 C 493.20 414.38 492.28 415.88 491.49 417.45 C 490.78 417.75 489.38 418.33 488.67 418.63 C 488.23 417.70 487.79 416.77 487.36 415.84 Z" />
<path fill="#1139fe" d=" M 896.06 414.03 C 899.69 413.89 902.14 417.03 903.60 419.98 C 903.18 420.40 902.34 421.26 901.92 421.68 C 899.86 419.24 896.02 417.62 896.06 414.03 Z" />
<path fill="#dd4e0c" d=" M 839.76 421.92 C 844.23 422.11 847.52 418.94 850.31 415.88 C 853.35 416.66 856.46 418.10 857.98 421.03 C 861.25 426.02 858.60 433.57 852.98 435.49 C 847.69 437.94 840.97 434.46 839.51 428.93 C 838.86 426.61 839.37 424.23 839.76 421.92 Z" />
<path fill="#1239fe" d=" M 472.93 427.36 C 475.93 425.41 478.62 422.91 481.88 421.38 C 482.39 421.74 483.42 422.46 483.93 422.82 C 480.28 425.92 476.53 428.94 472.31 431.24 C 472.47 429.93 472.69 428.65 472.93 427.36 Z" />
<path fill="#dd4e0c" d=" M 901.46 424.75 C 905.47 423.17 910.67 424.29 912.92 428.21 C 916.06 432.78 913.66 439.75 908.44 441.52 C 904.88 443.12 900.61 441.62 898.12 438.84 C 894.52 434.45 896.05 426.92 901.46 424.75 Z" />
<path fill="#0f37fe" d=" M 915.06 428.87 C 917.72 429.00 919.84 430.64 921.14 432.90 C 922.27 434.00 920.66 435.08 920.09 435.88 C 918.26 433.70 914.64 432.19 915.06 428.87 Z" />
<path fill="#1038fe" d=" M 454.22 440.77 C 457.11 439.40 459.61 437.40 462.13 435.47 C 462.80 435.48 464.15 435.51 464.82 435.52 C 463.90 439.31 459.85 440.80 456.96 442.85 C 455.46 444.49 454.15 442.11 454.22 440.77 Z" />
<path fill="#143bfe" d=" M 916.41 442.39 C 917.14 440.44 918.14 438.54 920.57 439.30 C 920.60 440.53 920.64 441.77 920.69 443.01 C 919.69 443.05 917.69 443.14 916.69 443.18 C 916.62 442.98 916.48 442.59 916.41 442.39 Z" />
<path fill="#1139fe" d=" M 442.01 452.26 C 444.26 450.15 446.42 445.93 450.09 447.62 C 448.16 450.76 445.37 453.20 442.86 455.86 C 441.77 455.06 440.57 453.34 442.01 452.26 Z" />
<path fill="#dd4e0c" d=" M 892.16 447.14 C 897.04 445.41 901.65 449.12 903.75 453.29 L 902.92 453.87 C 901.06 454.63 901.74 456.94 902.91 458.01 C 903.00 458.15 903.16 458.45 903.25 458.59 C 902.72 459.62 902.22 460.66 901.74 461.71 C 899.81 459.80 898.34 457.39 896.03 455.92 C 892.66 454.55 888.94 454.38 885.36 454.18 C 886.56 451.05 888.65 447.90 892.16 447.14 Z" />
<path fill="#0f37fe" d=" M 914.46 449.40 C 914.89 449.51 915.75 449.73 916.18 449.84 C 916.25 450.25 916.40 451.09 916.48 451.50 C 914.74 453.00 912.59 456.84 910.01 454.77 C 910.01 454.43 910.02 453.76 910.02 453.42 C 911.44 452.02 912.98 450.74 914.46 449.40 Z" />
<path fill="#0f37fe" d=" M 252.25 455.58 C 252.38 454.60 252.51 453.63 252.65 452.67 C 255.85 452.88 259.18 452.75 262.23 453.93 C 262.29 454.51 262.43 455.67 262.50 456.25 C 259.16 457.02 255.65 455.61 252.25 455.58 Z" />
<path fill="#1038fe" d=" M 237.36 455.29 C 241.23 454.57 245.07 453.47 249.04 453.46 C 248.91 454.16 248.65 455.56 248.53 456.26 C 244.89 456.95 241.25 457.89 237.52 457.73 C 237.48 457.12 237.40 455.90 237.36 455.29 Z" />
<path fill="#020202" d=" M 902.91 458.01 C 901.74 456.94 901.06 454.63 902.92 453.87 L 903.64 454.24 C 904.09 455.61 903.84 456.87 902.91 458.01 Z" />
<path fill="#143bfe" d=" M 903.64 454.24 C 904.44 454.23 906.02 454.22 906.81 454.21 C 906.87 454.88 906.98 456.21 907.04 456.87 C 905.77 457.46 904.54 458.09 903.25 458.59 C 903.16 458.45 903.00 458.15 902.91 458.01 C 903.84 456.87 904.09 455.61 903.64 454.24 Z" />
<path fill="#0f37fe" d=" M 266.52 456.30 C 269.67 456.71 272.59 458.39 274.62 460.83 L 274.44 462.28 C 271.45 463.31 269.24 459.63 266.35 459.13 C 266.39 458.18 266.45 457.24 266.52 456.30 Z" />
<path fill="#dd4e0c" d=" M 418.51 474.63 C 415.54 467.21 420.34 458.09 427.98 456.02 C 432.81 454.36 437.83 456.24 441.91 458.88 C 438.61 461.19 435.55 463.93 433.21 467.23 C 429.30 472.16 434.18 479.66 429.48 484.22 C 424.68 482.74 420.13 479.59 418.51 474.63 Z" />
<path fill="#0f37fe" d=" M 225.34 460.47 C 227.60 459.21 229.97 458.14 232.42 457.30 C 234.03 461.40 228.41 462.52 225.47 462.81 C 225.44 462.23 225.37 461.06 225.34 460.47 Z" />
<path fill="#dd4e0c" d=" M 885.25 457.17 C 888.41 457.19 891.65 457.42 894.62 458.61 C 896.49 459.94 897.80 461.88 899.40 463.52 C 896.06 465.55 891.25 465.38 888.42 462.54 C 886.79 461.14 886.10 459.05 885.25 457.17 Z" />
<path fill="#f5f4f0" d=" M 907.04 456.87 C 907.93 460.70 909.27 464.92 912.67 467.28 C 917.46 470.61 922.84 473.00 927.66 476.29 C 931.21 478.85 935.85 479.90 938.53 483.60 C 938.55 486.99 938.61 490.39 938.45 493.78 C 935.41 496.78 933.83 501.35 929.59 502.96 C 929.06 497.97 929.47 492.95 929.20 487.96 C 929.15 485.30 927.55 482.45 924.84 481.81 C 920.74 480.89 916.88 479.01 913.68 476.30 C 908.78 472.19 906.92 465.58 901.74 461.71 C 902.22 460.66 902.72 459.62 903.25 458.59 C 904.54 458.09 905.77 457.46 907.04 456.87 Z" />
<path fill="#0f37fe" d=" M 179.07 462.94 C 179.78 456.94 187.23 458.16 191.55 458.25 C 191.57 458.85 191.59 460.06 191.60 460.66 C 187.29 460.95 183.18 461.76 179.07 462.94 Z" />
<path fill="#0f37fe" d=" M 195.17 459.35 C 199.19 459.15 203.81 459.55 206.44 463.03 C 206.03 466.01 203.23 464.32 201.75 463.30 C 199.52 461.59 194.44 463.62 195.17 459.35 Z" />
<path fill="#dc4601" d=" M 206.36 473.91 C 203.90 468.77 207.44 462.08 212.95 460.95 C 221.45 458.60 229.26 470.01 224.41 477.19 C 222.87 479.85 219.71 480.58 217.00 481.42 C 212.67 480.45 208.31 478.08 206.36 473.91 Z" />
<path fill="#dd4e0c" d=" M 434.82 470.48 C 436.64 466.45 440.29 463.59 443.80 461.07 C 445.85 464.96 447.44 469.53 445.83 473.89 C 444.29 479.45 439.20 483.19 433.70 484.27 C 434.56 479.72 434.28 475.06 434.82 470.48 Z" />
<path fill="#0f37fe" d=" M 168.04 466.02 C 170.50 464.14 173.48 463.22 176.41 462.38 C 176.58 463.39 176.75 464.41 176.92 465.44 C 175.05 466.04 173.13 466.53 171.36 467.41 C 168.64 468.65 167.25 471.60 164.54 472.87 C 163.40 469.91 165.82 467.55 168.04 466.02 Z" />
<path fill="#0f37fe" d=" M 276.26 464.53 C 277.24 464.50 278.23 464.47 279.22 464.45 C 279.54 467.44 282.94 471.31 280.07 473.64 C 277.15 471.83 277.19 467.59 276.26 464.53 Z" />
<path fill="#1038fe" d=" M 153.83 481.84 C 152.91 479.01 156.37 476.66 157.95 474.55 C 158.79 474.52 160.49 474.46 161.34 474.43 C 161.40 475.39 161.45 476.37 161.50 477.35 C 160.89 477.44 159.66 477.62 159.05 477.72 C 157.65 479.44 156.64 482.61 153.83 481.84 Z" />
<path fill="#0f37fe" d=" M 281.12 475.17 C 281.80 475.16 283.15 475.13 283.83 475.12 C 284.04 477.10 284.33 479.09 284.21 481.10 C 284.66 482.97 282.40 482.65 281.33 482.92 C 281.22 480.33 281.16 477.75 281.12 475.17 Z" />
<path fill="#0f37fe" d=" M 443.39 481.27 C 448.30 480.34 449.46 486.40 449.45 490.01 C 450.11 491.75 448.17 494.94 446.64 492.45 C 446.38 490.63 446.42 488.79 446.17 486.98 C 445.51 484.93 443.53 483.52 443.39 481.27 Z" />
<path fill="#0f37fe" d=" M 150.98 485.99 C 151.95 484.39 153.85 485.39 154.59 486.65 C 151.42 488.88 151.02 493.37 148.11 495.58 L 146.92 495.18 C 146.45 491.89 148.88 488.48 150.98 485.99 Z" />
<path fill="#dd4e0c" d=" M 276.41 486.54 C 282.52 484.67 289.60 487.93 291.69 494.07 C 294.72 501.35 288.80 510.36 280.94 510.56 C 275.01 511.16 269.33 506.73 268.06 501.00 C 266.50 494.99 270.48 488.26 276.41 486.54 Z" />
<path fill="#0f37fe" d=" M 445.34 497.39 C 445.94 497.43 447.15 497.50 447.75 497.54 C 447.94 501.65 447.86 506.38 444.64 509.42 C 444.03 509.52 442.80 509.73 442.19 509.83 C 442.22 507.81 443.33 506.13 444.17 504.37 C 444.72 502.08 444.78 499.69 445.34 497.39 Z" />
<path fill="#0f37fe" d=" M 144.99 507.53 C 142.09 505.09 144.74 501.00 147.08 499.13 C 147.74 499.89 148.33 500.71 148.83 501.60 C 146.93 503.22 147.49 506.62 144.99 507.53 Z" />
<path fill="#dd4e0c" d=" M 139.62 510.99 C 144.07 509.14 149.67 509.15 153.27 512.74 C 158.52 517.04 158.51 525.93 153.23 530.21 C 149.52 533.91 143.94 533.59 139.28 532.25 C 138.22 525.17 139.56 518.08 139.62 510.99 Z" />
<path fill="#2b4efe" d=" M 273.74 511.37 C 274.39 511.09 275.70 510.52 276.36 510.24 C 277.48 514.37 278.00 519.09 276.16 523.08 C 275.60 522.65 274.47 521.79 273.90 521.36 C 273.66 518.03 273.87 514.70 273.74 511.37 Z" />
<path fill="#0f37fe" d=" M 438.91 511.56 C 439.82 511.51 440.74 511.47 441.67 511.44 C 441.65 515.14 439.67 518.58 436.79 520.82 C 434.78 522.39 433.04 524.70 430.29 524.84 C 429.76 521.55 433.28 520.19 435.17 518.19 C 437.37 516.62 438.11 513.98 438.91 511.56 Z" />
<path fill="#dd4e0c" d=" M 136.34 528.83 C 132.68 524.56 132.84 517.68 136.78 513.64 C 136.77 518.71 136.57 523.77 136.34 528.83 Z" />
<path fill="#0f37fe" d=" M 360.02 514.90 C 363.96 513.25 368.29 513.79 372.45 513.52 C 372.51 514.53 372.57 515.54 372.63 516.56 C 368.60 516.72 364.45 516.27 360.59 517.75 C 360.45 517.04 360.17 515.62 360.02 514.90 Z" />
<path fill="#0f37fe" d=" M 377.31 516.07 C 380.26 516.54 383.09 517.58 385.76 518.90 C 385.64 519.44 385.39 520.50 385.26 521.04 C 382.49 521.88 379.80 519.45 377.15 518.67 C 377.19 518.02 377.27 516.72 377.31 516.07 Z" />
<path fill="#dd4e0c" d=" M 385.87 521.83 C 390.45 517.13 398.02 517.46 403.36 520.64 C 403.37 522.09 403.37 523.53 403.34 525.00 C 403.75 533.14 398.23 540.14 392.32 545.10 C 389.32 543.85 386.16 542.48 384.26 539.71 C 380.09 534.49 380.84 526.23 385.87 521.83 Z" />
<path fill="#0f37fe" d=" M 344.87 522.89 C 347.04 520.07 350.66 518.59 354.18 518.81 C 354.37 519.42 354.73 520.63 354.92 521.23 C 351.04 521.87 347.58 523.65 345.15 526.77 C 342.20 527.01 343.56 523.82 344.87 522.89 Z" />
<path fill="#dd4e0c" d=" M 405.83 523.30 C 407.78 526.50 409.08 530.26 408.30 534.05 C 407.40 540.10 401.90 544.66 395.91 545.14 C 398.83 541.57 401.28 537.65 404.03 533.95 C 406.51 530.97 405.67 526.86 405.83 523.30 Z" />
<path fill="#0f37fe" d=" M 416.20 530.46 C 420.03 529.13 423.57 526.78 427.67 526.30 C 427.67 526.94 427.68 528.20 427.69 528.83 C 424.07 530.67 420.28 532.57 416.19 533.00 C 416.19 532.37 416.20 531.09 416.20 530.46 Z" />
<path fill="#0f37fe" d=" M 341.33 527.38 C 341.89 527.47 343.01 527.65 343.57 527.74 C 343.29 530.49 341.49 533.96 338.29 533.67 C 337.96 531.09 339.89 529.24 341.33 527.38 Z" />
<path fill="#0f37fe" d=" M 276.29 528.65 C 277.33 528.55 278.35 528.37 279.36 528.11 C 280.26 530.76 283.06 532.89 282.72 535.83 C 281.67 537.55 280.01 535.70 279.44 534.61 C 278.18 532.74 277.27 530.66 276.29 528.65 Z" />
<path fill="#dd4e0c" d=" M 328.48 539.50 C 333.85 534.66 343.22 535.71 347.26 541.75 C 350.85 546.34 350.35 553.05 346.89 557.57 C 340.56 557.24 334.30 558.39 327.98 558.47 C 322.40 553.78 322.84 543.99 328.48 539.50 Z" />
<path fill="#0f37fe" d=" M 285.04 538.97 C 288.05 539.54 290.70 541.20 293.21 542.90 L 293.50 544.10 C 293.14 544.45 292.44 545.15 292.08 545.49 C 289.32 543.96 284.61 542.97 285.04 538.97 Z" />
<path fill="#0f37fe" d=" M 295.26 545.21 C 298.87 546.46 302.62 547.01 306.44 546.62 C 307.76 550.41 303.39 549.87 301.02 549.80 C 298.30 549.91 294.72 548.51 295.26 545.21 Z" />
<path fill="#010100" d=" M 176.57 551.06 C 175.85 549.77 176.31 548.34 176.86 547.10 C 180.22 549.64 181.38 553.89 183.33 557.44 C 186.81 563.77 189.91 570.71 195.99 575.02 C 202.34 579.57 207.25 586.10 214.49 589.36 C 217.59 590.61 222.11 591.16 223.14 594.95 C 223.69 602.42 223.24 610.33 226.84 617.18 C 229.24 621.44 231.99 625.89 236.36 628.37 C 239.39 629.71 242.53 630.80 245.53 632.22 C 251.72 633.81 258.23 633.22 264.42 634.80 C 266.86 635.46 269.80 635.32 271.57 637.41 C 275.51 641.16 279.27 645.92 284.83 647.16 C 292.06 647.60 300.09 646.18 306.41 650.61 C 309.68 653.61 312.73 656.88 316.42 659.39 C 319.81 660.80 324.20 659.14 326.98 662.04 C 329.93 666.10 332.37 670.59 336.09 674.04 C 340.35 678.41 345.90 681.22 351.48 683.53 C 351.36 680.63 350.95 677.69 351.46 674.82 C 353.52 670.70 356.48 667.11 358.47 662.95 C 359.91 660.42 359.41 657.40 359.59 654.62 C 351.89 652.28 343.50 653.15 335.87 655.38 C 334.76 654.80 333.16 654.65 332.82 653.22 C 331.91 649.17 331.48 644.97 331.77 640.83 C 332.85 637.24 335.82 634.62 337.20 631.17 C 339.33 626.95 338.88 622.07 338.53 617.52 C 335.70 616.78 332.76 616.37 329.84 616.73 C 325.32 619.04 321.21 622.13 317.56 625.65 C 311.27 630.79 302.57 630.20 295.01 629.42 C 288.01 625.59 286.57 616.98 284.63 609.96 C 281.82 600.92 281.44 590.50 286.53 582.17 C 290.40 576.26 293.69 569.59 299.85 565.67 C 308.26 560.61 318.13 557.81 327.98 558.47 C 334.30 558.39 340.56 557.24 346.89 557.57 C 349.00 557.57 351.12 557.50 353.23 557.71 C 355.94 558.24 356.72 561.22 357.30 563.52 C 358.12 569.83 356.18 576.74 359.67 582.52 C 362.66 586.96 367.64 589.50 372.72 590.77 C 373.68 588.24 372.95 584.84 375.53 583.21 C 375.80 586.71 375.87 590.39 374.18 593.59 C 367.85 592.92 361.67 589.39 357.92 584.22 C 352.54 577.36 357.82 567.80 353.31 560.54 C 349.51 560.41 345.69 560.19 341.92 560.68 C 338.50 562.20 334.63 561.56 331.09 560.92 C 321.19 559.48 311.31 562.45 302.47 566.75 C 297.43 569.44 293.73 574.04 290.92 578.92 C 287.86 583.47 284.65 588.35 284.72 594.06 C 284.83 601.88 285.39 609.94 288.71 617.15 C 290.44 621.01 292.18 625.75 296.52 627.33 C 304.36 627.87 313.48 627.39 319.01 620.98 C 323.52 617.94 327.94 612.76 333.98 614.07 C 336.76 614.16 340.50 614.47 341.36 617.73 C 341.89 621.17 341.71 624.72 341.38 628.19 C 340.06 632.94 336.16 636.48 334.51 641.08 C 334.30 644.57 333.96 648.27 335.08 651.66 C 339.41 652.36 343.69 650.58 348.04 650.72 C 352.77 650.84 358.12 649.77 362.16 652.92 C 362.54 655.93 362.51 659.00 362.16 662.02 C 360.51 665.77 357.71 668.88 355.69 672.44 C 353.04 675.90 354.49 680.46 354.27 684.46 C 356.51 685.29 358.73 686.27 361.09 686.74 C 365.55 685.43 368.46 681.10 372.91 679.67 C 378.60 679.02 384.24 680.57 389.54 682.51 C 392.15 683.72 394.90 685.77 394.97 688.93 C 391.92 689.13 390.69 685.88 388.18 684.84 C 383.38 682.94 378.13 681.88 372.97 682.72 C 370.14 683.97 367.89 686.17 365.45 688.02 C 371.73 690.54 378.61 689.33 385.20 689.58 C 388.17 691.81 391.23 693.93 394.22 696.14 C 396.57 700.92 392.55 705.38 390.43 709.42 C 386.75 716.91 380.57 722.93 377.72 730.86 C 374.39 740.57 369.23 749.69 367.23 759.84 C 366.31 769.22 366.27 779.06 369.91 787.94 C 371.85 794.02 375.64 799.24 377.82 805.22 C 378.93 808.22 382.19 808.94 384.71 810.31 C 395.00 817.20 406.42 822.22 416.68 829.15 C 421.22 833.39 420.75 840.21 423.55 845.44 C 425.96 852.17 433.07 855.03 437.79 859.85 C 437.33 860.28 436.43 861.16 435.97 861.60 C 432.04 859.11 428.67 855.87 425.32 852.68 C 419.14 846.78 420.99 836.33 414.32 830.80 C 409.19 827.94 404.57 824.23 399.22 821.77 C 392.14 818.27 385.79 813.40 378.43 810.51 C 375.66 808.53 375.09 804.96 373.86 802.02 C 372.41 798.04 369.63 794.75 368.06 790.84 C 363.42 781.00 363.01 769.68 364.66 759.10 C 366.96 751.55 369.21 743.91 372.80 736.86 C 376.32 731.09 377.83 724.31 381.92 718.87 C 386.03 713.35 389.84 707.51 392.26 701.02 C 393.36 697.79 389.79 695.94 387.72 694.26 C 384.78 691.52 380.54 692.65 376.93 692.42 C 371.79 692.77 366.87 691.18 362.00 689.78 C 359.75 690.28 357.25 692.15 355.05 690.58 C 353.73 689.62 353.10 687.99 352.23 686.66 C 346.97 684.22 341.38 682.23 336.96 678.36 C 331.65 674.46 328.77 668.33 324.31 663.65 C 321.61 662.27 318.42 663.16 315.58 662.33 C 311.61 659.42 308.04 656.00 304.53 652.57 C 298.76 648.75 291.51 650.87 285.06 650.04 C 280.81 649.90 277.93 646.44 274.77 644.08 C 272.53 642.48 270.90 640.13 268.54 638.72 C 260.91 636.22 252.72 636.35 244.91 634.88 C 239.89 632.50 233.97 631.20 230.57 626.41 C 227.53 622.19 223.87 618.11 222.61 612.95 C 220.82 607.27 221.41 601.21 220.30 595.41 C 218.27 592.86 214.80 592.34 212.08 590.83 C 204.59 586.63 199.47 579.45 192.25 574.87 C 192.48 575.36 192.94 576.35 193.17 576.84 C 195.50 582.85 199.36 588.08 202.14 593.86 C 204.16 598.49 204.96 603.63 204.63 608.66 C 204.26 609.91 203.84 611.15 203.43 612.41 C 203.93 595.24 192.25 581.59 185.25 566.89 C 183.02 561.23 178.40 556.90 176.57 551.06 Z" />
<path fill="#0f37fe" d=" M 310.51 549.56 C 313.92 549.44 317.34 549.37 320.76 549.36 C 320.66 550.35 320.57 551.36 320.46 552.37 C 317.18 552.44 313.90 552.43 310.62 552.35 C 310.58 551.41 310.54 550.48 310.51 549.56 Z" />
<path fill="#010101" d=" M 409.01 673.90 C 416.04 671.16 423.29 668.34 430.96 668.45 C 436.24 668.50 441.92 667.52 446.81 670.04 C 449.37 671.45 451.83 673.10 453.98 675.10 C 460.54 682.78 468.77 690.15 478.97 692.16 C 485.63 692.68 492.32 692.78 498.99 693.01 C 504.03 693.54 509.40 692.26 514.14 694.58 C 518.85 696.78 523.90 698.59 527.83 702.12 C 531.32 704.83 531.84 709.58 533.67 713.36 C 536.23 715.06 538.63 716.99 541.15 718.77 C 545.60 721.34 546.96 726.69 548.65 731.18 C 550.33 735.64 548.54 741.32 551.94 745.07 C 558.59 749.83 567.21 749.38 575.00 749.63 C 585.78 750.17 596.64 748.46 607.37 749.85 C 614.82 753.92 621.94 759.67 625.63 767.54 C 627.06 770.49 626.26 773.91 627.09 777.02 C 627.38 780.08 631.05 780.29 633.13 781.73 C 638.46 784.21 639.84 790.66 639.28 796.02 C 638.77 803.16 633.32 808.35 630.41 814.55 C 627.23 821.84 622.98 828.73 621.17 836.56 C 619.29 842.92 618.53 849.53 617.73 856.09 C 617.50 858.74 615.19 860.45 613.03 861.61 C 612.57 861.24 611.65 860.50 611.19 860.13 C 612.74 858.46 614.92 857.05 615.43 854.68 C 617.27 847.17 618.31 839.50 620.14 832.00 C 621.77 826.41 625.28 821.60 626.92 816.01 C 628.68 809.16 635.83 805.11 636.68 797.92 C 636.57 794.42 636.93 790.64 635.30 787.44 C 633.06 783.16 627.17 783.28 624.64 779.30 C 623.94 775.49 624.85 771.42 623.17 767.80 C 620.32 761.41 614.53 757.13 608.96 753.25 C 605.86 750.80 601.66 751.42 598.00 750.89 C 587.70 751.68 577.36 751.54 567.04 751.75 C 561.00 752.14 554.94 750.33 549.89 747.08 C 545.58 742.03 548.30 734.58 545.44 728.88 C 543.57 722.18 536.73 719.36 531.66 715.49 C 529.52 712.09 529.92 707.29 526.43 704.70 C 520.36 699.85 513.10 695.35 505.03 695.69 C 495.65 695.77 486.17 696.11 476.95 694.13 C 469.00 692.10 462.71 686.59 456.87 681.14 C 452.64 676.38 447.51 671.86 441.04 670.70 C 429.94 669.25 418.43 671.34 408.61 676.75 C 405.03 680.04 402.70 684.43 400.72 688.82 C 398.92 692.42 399.34 696.57 398.35 700.40 C 397.65 700.47 396.26 700.61 395.56 700.68 C 396.74 694.79 398.68 689.07 400.77 683.45 C 402.31 679.51 404.79 675.34 409.01 673.90 Z" />
<path fill="#020202" d=" M 1110.23 717.28 C 1113.74 714.72 1116.33 711.23 1119.17 708.00 C 1119.31 708.96 1119.43 709.94 1119.53 710.94 C 1115.44 712.69 1112.98 716.60 1109.35 719.02 C 1098.59 727.06 1086.71 734.89 1080.23 747.04 C 1075.71 755.33 1070.93 763.53 1067.58 772.38 C 1065.61 782.54 1069.86 792.47 1068.80 802.64 C 1068.20 802.61 1067.01 802.53 1066.41 802.50 C 1067.03 792.93 1064.71 783.52 1064.91 773.96 C 1065.40 770.12 1067.64 766.86 1069.51 763.57 C 1073.28 757.52 1076.82 751.32 1080.15 745.01 C 1087.16 732.99 1098.72 724.64 1110.23 717.28 Z" />
</svg>
