<?xml version="1.0" encoding="UTF-8" ?>
<!DOCTYPE svg PUBLIC "-//W3C//DTD SVG 1.1//EN" "http://www.w3.org/Graphics/SVG/1.1/DTD/svg11.dtd">
<svg width="1155pt" height="866pt" viewBox="0 0 1155 866" version="1.1" xmlns="http://www.w3.org/2000/svg">
<path fill="#f5f4f0" d=" M 0.00 0.00 L 1155.00 0.00 L 1155.00 866.00 L 0.00 866.00 L 0.00 199.71 C 10.36 198.78 20.70 197.61 31.06 196.61 C 38.44 195.68 45.93 195.86 53.29 194.66 C 62.80 193.59 73.46 194.64 81.61 188.69 C 87.29 185.18 89.02 177.59 95.09 174.57 C 100.22 173.86 105.96 173.70 110.58 176.37 C 114.78 178.79 115.80 183.88 118.61 187.47 C 119.78 187.70 120.98 187.70 122.17 187.75 C 122.93 184.16 123.41 180.37 125.69 177.35 C 133.62 179.64 137.06 187.92 143.43 192.33 C 150.02 193.63 157.25 190.40 163.73 193.31 C 169.61 196.73 172.89 202.98 175.10 209.17 C 178.10 209.98 178.65 206.03 180.43 204.43 C 181.94 201.75 185.50 201.83 187.89 203.16 C 191.75 205.12 193.59 209.52 197.37 211.56 C 202.05 211.85 207.84 212.91 211.59 209.37 C 213.42 205.95 212.74 200.85 216.79 198.82 C 223.08 196.46 230.14 197.27 236.43 199.26 C 241.63 200.84 247.39 201.80 251.52 205.64 C 253.33 207.52 253.94 210.18 254.99 212.50 C 260.80 212.65 267.44 212.05 271.98 208.09 C 274.24 203.54 271.48 198.58 270.66 194.00 C 269.89 187.82 273.41 179.67 280.60 179.74 C 281.11 185.01 275.71 188.67 276.61 193.95 C 277.33 199.63 277.95 205.44 280.16 210.77 C 280.90 212.34 281.97 214.47 284.00 214.39 C 286.10 214.72 287.57 212.70 287.83 210.84 C 289.65 202.03 289.73 192.90 288.52 184.00 C 287.90 178.46 283.86 173.78 284.17 168.05 C 284.20 159.09 284.20 150.12 284.16 141.16 C 285.50 129.07 286.20 115.43 295.05 106.11 C 298.94 101.73 305.55 102.08 310.37 104.62 C 310.65 109.27 310.65 113.98 309.94 118.60 C 308.78 125.43 304.09 130.81 301.08 136.84 C 299.02 140.92 299.47 145.59 299.46 150.00 C 299.51 153.83 299.54 157.95 301.71 161.28 C 304.52 165.10 308.66 167.71 311.47 171.53 C 313.13 176.48 311.19 181.96 313.25 186.83 C 314.61 190.45 315.56 194.29 317.70 197.56 C 318.56 197.86 319.45 197.93 320.36 197.75 C 322.23 194.07 322.98 188.51 328.17 188.28 C 328.61 195.12 327.95 202.24 330.24 208.81 C 331.26 211.54 333.51 215.14 336.94 214.21 C 339.17 213.06 339.35 210.26 340.06 208.13 C 341.12 203.04 342.13 197.64 345.61 193.57 C 347.80 191.11 349.81 188.48 352.21 186.21 C 355.81 183.20 360.88 181.25 365.54 182.66 C 368.49 184.25 370.62 187.62 370.47 191.01 C 370.41 195.08 369.87 199.32 367.84 202.91 C 366.28 205.61 362.77 206.88 361.95 210.02 C 361.46 213.73 362.17 217.69 360.42 221.15 C 355.67 231.93 345.74 238.88 336.47 245.52 C 332.49 248.21 328.25 250.52 324.51 253.55 C 322.02 255.67 322.34 259.25 321.72 262.16 C 320.29 272.93 312.72 281.20 306.92 289.89 C 304.27 295.07 299.38 298.82 297.53 304.43 C 295.60 309.03 296.41 314.11 296.24 318.95 C 296.40 321.73 295.82 325.00 297.94 327.21 C 300.98 328.05 304.61 326.74 307.24 328.84 C 308.04 335.18 307.74 341.61 307.57 347.98 C 307.37 351.18 309.34 354.17 312.13 355.61 C 315.80 357.49 320.03 357.48 324.05 357.46 C 333.36 357.33 342.68 357.32 351.99 357.39 C 356.09 357.41 360.05 358.65 363.89 359.97 C 367.09 361.01 368.41 364.57 369.13 367.57 C 369.95 373.69 368.76 379.95 370.14 386.04 C 370.39 390.08 369.66 394.23 370.66 398.20 C 371.90 400.55 374.96 399.64 377.10 399.68 C 381.78 399.72 386.84 396.05 386.59 391.04 C 386.65 386.69 386.84 382.32 386.54 377.98 C 386.45 374.55 383.38 372.42 381.29 370.10 C 381.05 362.43 388.93 359.07 392.03 353.12 C 392.15 345.08 391.25 337.02 389.62 329.15 C 388.64 325.80 386.98 322.60 386.90 319.05 C 386.83 312.59 386.08 305.83 388.77 299.75 C 390.74 295.09 392.75 289.77 397.19 286.94 C 402.37 285.98 407.75 286.48 412.99 286.77 C 419.96 287.66 427.04 291.72 429.63 298.53 C 431.03 304.89 429.50 311.48 430.51 317.89 C 431.46 320.27 433.30 322.17 435.02 324.03 C 438.82 328.16 446.65 327.41 449.38 322.43 C 451.15 319.74 452.35 315.72 456.14 315.44 C 462.03 314.91 468.61 314.68 473.61 318.39 C 477.21 320.25 479.32 323.86 480.30 327.67 C 483.01 334.82 482.02 342.58 483.51 349.97 C 484.43 354.68 482.55 360.91 487.02 364.20 C 484.61 366.13 481.50 367.75 480.84 371.05 C 484.68 370.75 487.36 367.73 490.50 365.87 C 497.40 369.50 504.67 372.51 511.07 377.01 C 513.26 378.70 516.02 380.79 515.63 383.93 C 516.19 391.25 511.14 397.64 511.91 404.97 C 511.87 407.92 512.57 411.16 515.36 412.73 C 519.52 414.70 524.66 413.71 528.47 416.63 C 528.26 420.89 529.26 425.47 527.38 429.47 C 525.85 431.90 522.67 432.42 520.03 432.52 C 514.65 432.61 509.25 432.66 503.88 432.29 C 498.73 431.80 492.69 427.78 493.78 421.89 C 493.54 417.30 497.58 414.48 499.59 410.86 C 500.02 407.83 499.94 404.67 499.22 401.70 C 498.71 399.83 497.12 398.16 495.06 398.34 C 488.00 398.13 481.02 399.35 474.03 400.17 C 469.15 400.53 464.76 402.87 460.16 404.30 C 455.77 405.90 450.81 406.13 447.01 409.09 C 443.82 411.49 440.27 413.80 438.36 417.43 C 435.81 422.12 434.24 427.24 432.25 432.18 C 431.01 435.05 431.38 438.23 431.59 441.26 C 432.41 441.36 433.24 441.46 434.07 441.57 C 436.33 438.36 438.54 435.10 441.10 432.13 C 440.03 434.09 439.28 436.21 438.79 438.39 C 443.96 438.06 444.41 432.08 444.80 428.08 C 447.54 425.66 450.20 422.64 453.88 421.75 C 459.41 421.51 465.04 421.21 470.50 422.28 C 469.14 429.62 468.87 437.13 469.74 444.56 C 469.89 446.16 471.32 447.22 472.90 447.21 C 475.96 447.35 479.04 447.32 482.10 447.61 C 480.92 450.82 479.59 454.45 476.20 455.91 C 470.77 458.86 463.59 463.15 457.71 459.01 C 457.70 454.29 461.72 450.54 461.55 445.72 C 459.26 447.93 457.99 450.86 456.22 453.44 C 451.10 454.15 446.11 455.74 441.92 458.87 C 438.07 456.49 433.53 454.54 428.94 455.76 C 420.82 457.35 415.39 466.86 418.51 474.62 C 420.11 479.61 424.71 482.70 429.49 484.25 C 424.66 488.81 417.24 487.13 411.84 490.65 C 406.18 493.52 403.61 499.94 403.32 505.97 C 403.11 510.85 403.32 515.73 403.37 520.62 C 400.14 519.06 396.61 517.71 392.96 518.38 C 385.38 519.26 379.80 527.65 381.97 535.01 C 383.11 540.11 387.59 543.48 392.30 545.12 C 388.82 547.23 384.99 548.82 380.87 548.93 C 377.53 548.85 374.19 551.51 374.24 554.98 C 374.22 564.65 374.88 574.32 374.29 583.99 C 374.81 583.62 375.85 582.88 376.36 582.51 C 376.08 575.31 376.78 568.13 376.69 560.94 C 376.59 558.13 377.03 555.36 377.66 552.64 C 380.19 551.94 382.78 551.50 385.35 551.00 C 389.36 550.16 392.73 547.66 395.88 545.17 C 401.21 544.63 406.29 541.12 407.85 535.87 C 409.37 531.57 408.10 526.95 405.83 523.19 C 405.68 518.13 406.11 513.06 405.88 508.00 C 405.43 502.49 407.65 496.37 412.58 493.47 C 416.65 491.15 421.39 490.60 425.87 489.49 C 429.04 488.76 431.04 485.96 433.69 484.31 C 439.19 483.16 444.32 479.45 445.84 473.85 C 447.45 469.50 445.79 464.96 443.82 461.05 C 447.03 458.99 450.56 457.46 454.25 456.48 C 454.54 458.79 455.09 461.56 457.68 462.34 C 463.99 464.87 470.32 461.13 476.08 458.84 C 481.73 457.19 484.31 450.99 484.87 445.60 C 480.80 444.67 476.62 444.62 472.48 444.39 C 470.36 436.13 474.42 427.76 472.41 419.58 C 466.92 419.20 461.41 418.73 455.90 418.88 C 451.66 418.90 448.50 422.03 445.50 424.60 C 440.93 428.57 437.46 433.57 433.31 437.94 C 433.34 425.57 440.79 413.03 452.74 408.77 C 459.79 406.62 466.61 403.42 474.03 402.71 C 481.32 402.41 488.53 400.28 495.87 401.37 C 497.56 404.16 498.01 408.18 495.93 410.91 C 493.91 413.63 491.47 416.39 491.27 419.95 C 491.05 423.25 490.81 427.10 493.24 429.73 C 495.71 432.49 499.18 434.71 503.02 434.62 C 509.01 434.71 515.01 434.59 521.00 434.66 C 524.61 434.70 529.24 433.50 530.32 429.56 C 531.35 425.41 531.61 421.06 531.12 416.82 C 530.82 414.23 528.21 412.81 525.89 412.40 C 522.74 411.79 519.58 411.15 516.46 410.40 C 513.73 406.58 514.44 401.59 515.12 397.25 C 517.07 391.69 520.20 385.41 517.38 379.59 C 510.79 370.99 499.12 369.40 491.12 362.59 C 490.57 362.53 489.47 362.39 488.92 362.32 C 485.85 359.23 486.83 354.71 486.16 350.80 C 484.39 341.50 484.74 331.77 481.35 322.80 C 478.94 317.05 472.70 314.37 467.08 312.81 C 462.45 312.26 457.49 312.01 453.09 313.78 C 449.41 315.17 448.36 319.31 446.17 322.16 C 443.47 324.65 438.44 325.16 436.19 321.80 C 431.29 316.75 433.11 309.24 432.75 302.93 C 433.14 296.96 428.78 292.06 424.37 288.66 C 417.91 283.93 409.57 284.59 402.00 284.35 C 399.13 284.34 395.54 283.93 393.69 286.66 C 387.35 295.40 384.46 306.29 384.22 316.99 C 383.92 322.26 387.13 326.85 387.40 332.04 C 387.70 336.74 389.60 341.22 389.38 345.98 C 389.19 348.89 389.96 352.34 387.59 354.58 C 384.09 359.34 377.90 363.39 378.61 370.05 C 379.63 373.42 383.67 375.18 384.07 378.89 C 384.49 384.29 385.30 389.98 383.28 395.17 C 380.03 396.39 375.84 398.53 372.66 396.31 C 369.51 385.90 373.18 374.76 370.86 364.22 C 369.09 358.36 362.74 355.97 357.18 355.46 C 348.15 354.79 339.07 355.55 330.02 354.89 C 323.50 354.40 315.90 356.29 310.74 351.10 C 309.99 344.75 310.13 338.36 310.24 331.98 C 310.35 329.61 309.93 326.79 307.59 325.61 C 304.90 324.58 301.95 324.76 299.13 324.53 C 298.11 320.09 298.18 315.51 298.23 310.99 C 298.07 306.02 300.63 301.45 303.79 297.80 C 307.25 293.79 309.40 288.87 312.65 284.71 C 316.25 280.15 319.10 275.07 322.11 270.11 C 324.16 266.75 324.44 262.74 325.00 258.94 C 325.17 256.09 327.69 254.40 329.55 252.59 C 333.36 249.39 337.37 246.43 341.17 243.22 C 347.75 237.80 356.25 234.28 360.70 226.64 C 362.46 223.33 364.30 219.83 364.30 215.99 C 364.47 213.36 364.00 210.25 366.41 208.44 C 373.19 201.91 375.11 190.04 369.51 182.23 C 367.50 179.13 363.28 178.94 360.03 179.71 C 356.60 180.73 352.85 181.61 350.23 184.21 C 348.05 186.73 346.22 189.53 344.14 192.13 C 339.54 197.86 339.42 205.65 335.90 211.94 C 334.47 210.77 332.81 209.65 332.29 207.76 C 329.67 201.09 331.44 193.82 330.57 186.89 C 329.32 186.43 328.08 185.96 326.84 185.49 C 323.01 186.82 321.14 190.48 319.17 193.71 C 318.90 193.76 318.34 193.87 318.07 193.93 C 314.48 186.85 314.70 178.75 314.57 171.06 C 311.46 166.40 306.14 163.63 303.10 158.89 C 301.07 153.86 301.83 148.30 301.60 143.01 C 301.22 138.77 303.80 135.21 305.48 131.55 C 308.12 125.88 312.29 120.60 312.53 114.11 C 312.60 109.86 313.84 104.88 310.45 101.53 C 305.14 100.63 298.43 98.71 294.54 103.74 C 286.65 114.04 284.43 127.36 283.19 139.95 C 281.72 149.24 282.55 158.65 282.31 168.00 C 282.17 171.93 283.33 175.75 284.83 179.35 C 287.01 184.58 287.22 190.35 287.23 195.94 C 287.05 201.46 286.78 207.22 284.11 212.20 C 280.20 208.17 279.22 202.36 278.71 196.99 C 278.34 193.24 279.36 189.49 281.66 186.50 C 283.44 184.26 283.42 181.33 283.54 178.62 C 281.24 177.78 278.55 176.84 276.26 178.25 C 270.10 181.54 267.40 189.17 268.51 195.83 C 269.21 199.23 271.15 202.55 270.42 206.12 C 267.28 210.31 261.56 209.86 256.92 209.78 C 255.62 206.22 253.70 202.54 250.00 201.01 C 239.46 196.11 227.11 193.06 215.74 196.84 C 211.53 199.04 210.46 204.16 209.16 208.32 C 204.86 209.14 199.13 211.18 195.76 207.30 C 192.78 204.03 189.95 199.69 184.99 199.59 C 180.79 198.92 178.30 202.92 176.09 205.76 C 172.80 200.60 169.74 194.84 164.54 191.36 C 159.07 188.88 152.77 189.22 146.96 190.16 C 144.46 190.86 142.19 189.17 140.52 187.50 C 137.14 183.91 134.48 179.59 130.48 176.61 C 128.56 175.09 125.86 174.70 123.58 175.54 C 121.44 178.29 121.17 181.94 120.10 185.16 C 117.03 181.16 115.49 175.55 110.49 173.43 C 105.40 171.51 99.59 170.96 94.33 172.51 C 86.56 176.54 83.78 186.30 75.70 189.90 C 71.72 191.70 67.32 192.38 62.98 192.47 C 56.88 192.54 50.88 193.78 44.78 193.98 C 29.82 195.06 14.92 196.83 0.00 198.29 L 0.00 0.00 Z" />
<path fill="#010101" d=" M 294.54 103.74 C 298.43 98.71 305.14 100.63 310.45 101.53 C 313.84 104.88 312.60 109.86 312.53 114.11 C 312.29 120.60 308.12 125.88 305.48 131.55 C 303.80 135.21 301.22 138.77 301.60 143.01 C 301.83 148.30 301.07 153.86 303.10 158.89 C 306.14 163.63 311.46 166.40 314.57 171.06 C 314.70 178.75 314.48 186.85 318.07 193.93 C 318.34 193.87 318.90 193.76 319.17 193.71 C 321.14 190.48 323.01 186.82 326.84 185.49 C 328.08 185.96 329.32 186.43 330.57 186.89 C 331.44 193.82 329.67 201.09 332.29 207.76 C 332.81 209.65 334.47 210.77 335.90 211.94 C 339.42 205.65 339.54 197.86 344.14 192.13 C 346.22 189.53 348.05 186.73 350.23 184.21 C 352.85 181.61 356.60 180.73 360.03 179.71 C 363.28 178.94 367.50 179.13 369.51 182.23 C 375.11 190.04 373.19 201.91 366.41 208.44 C 364.00 210.25 364.47 213.36 364.30 215.99 C 364.30 219.83 362.46 223.33 360.70 226.64 C 356.25 234.28 347.75 237.80 341.17 243.22 C 337.37 246.43 333.36 249.39 329.55 252.59 C 327.69 254.40 325.17 256.09 325.00 258.94 C 324.44 262.74 324.16 266.75 322.11 270.11 C 319.10 275.07 316.25 280.15 312.65 284.71 C 309.40 288.87 307.25 293.79 303.79 297.80 C 300.63 301.45 298.07 306.02 298.23 310.99 C 298.18 315.51 298.11 320.09 299.13 324.53 C 301.95 324.76 304.90 324.58 307.59 325.61 C 309.93 326.79 310.35 329.61 310.24 331.98 C 310.13 338.36 309.99 344.75 310.74 351.10 C 315.90 356.29 323.50 354.40 330.02 354.89 C 339.07 355.55 348.15 354.79 357.18 355.46 C 362.74 355.97 369.09 358.36 370.86 364.22 C 373.18 374.76 369.51 385.90 372.66 396.31 C 375.84 398.53 380.03 396.39 383.28 395.17 C 385.30 389.98 384.49 384.29 384.07 378.89 C 383.67 375.18 379.63 373.42 378.61 370.05 C 377.90 363.39 384.09 359.34 387.59 354.58 C 389.96 352.34 389.19 348.89 389.38 345.98 C 389.60 341.22 387.70 336.74 387.40 332.04 C 387.13 326.85 383.92 322.26 384.22 316.99 C 384.46 306.29 387.35 295.40 393.69 286.66 C 395.54 283.93 399.13 284.34 402.00 284.35 C 409.57 284.59 417.91 283.93 424.37 288.66 C 428.78 292.06 433.14 296.96 432.75 302.93 C 433.11 309.24 431.29 316.75 436.19 321.80 C 438.44 325.16 443.47 324.65 446.17 322.16 C 448.36 319.31 449.41 315.17 453.09 313.78 C 457.49 312.01 462.45 312.26 467.08 312.81 C 472.70 314.37 478.94 317.05 481.35 322.80 C 484.74 331.77 484.39 341.50 486.16 350.80 C 486.83 354.71 485.85 359.23 488.92 362.32 C 489.47 362.39 490.57 362.53 491.12 362.59 C 499.12 369.40 510.79 370.99 517.38 379.59 C 520.20 385.41 517.07 391.69 515.12 397.25 C 514.44 401.59 513.73 406.58 516.46 410.40 C 519.58 411.15 522.74 411.79 525.89 412.40 C 528.21 412.81 530.82 414.23 531.12 416.82 C 531.61 421.06 531.35 425.41 530.32 429.56 C 529.24 433.50 524.61 434.70 521.00 434.66 C 515.01 434.59 509.01 434.71 503.02 434.62 C 499.18 434.71 495.71 432.49 493.24 429.73 C 490.81 427.10 491.05 423.25 491.27 419.95 C 491.47 416.39 493.91 413.63 495.93 410.91 C 498.01 408.18 497.56 404.16 495.87 401.37 C 488.53 400.28 481.32 402.41 474.03 402.71 C 466.61 403.42 459.79 406.62 452.74 408.77 C 440.79 413.03 433.34 425.57 433.31 437.94 C 437.46 433.57 440.93 428.57 445.50 424.60 C 448.50 422.03 451.66 418.90 455.90 418.88 C 461.41 418.73 466.92 419.20 472.41 419.58 C 474.42 427.76 470.36 436.13 472.48 444.39 C 476.62 444.62 480.80 444.67 484.87 445.60 C 484.31 450.99 481.73 457.19 476.08 458.84 C 470.32 461.13 463.99 464.87 457.68 462.34 C 455.09 461.56 454.54 458.79 454.25 456.48 C 450.56 457.46 447.03 458.99 443.82 461.05 C 440.33 463.59 436.62 466.42 434.85 470.48 C 434.28 475.06 434.53 479.73 433.69 484.31 C 431.04 485.96 429.04 488.76 425.87 489.49 C 421.39 490.60 416.65 491.15 412.58 493.47 C 407.65 496.37 405.43 502.49 405.88 508.00 C 406.11 513.06 405.68 518.13 405.83 523.19 C 405.68 526.79 406.50 530.92 404.02 533.95 C 401.29 537.68 398.81 541.60 395.88 545.17 C 392.73 547.66 389.36 550.16 385.35 551.00 C 382.78 551.50 380.19 551.94 377.66 552.64 C 377.03 555.36 376.59 558.13 376.69 560.94 C 376.78 568.13 376.08 575.31 376.36 582.51 C 375.85 582.88 374.81 583.62 374.29 583.99 C 374.88 574.32 374.22 564.65 374.24 554.98 C 374.19 551.51 377.53 548.85 380.87 548.93 C 384.99 548.82 388.82 547.23 392.30 545.12 C 397.94 540.35 403.35 533.77 403.31 526.00 C 403.38 524.20 403.38 522.41 403.37 520.62 C 403.32 515.73 403.11 510.85 403.32 505.97 C 403.61 499.94 406.18 493.52 411.84 490.65 C 417.24 487.13 424.66 488.81 429.49 484.25 C 433.52 480.18 430.42 473.99 432.13 469.13 C 434.32 464.86 438.09 461.64 441.92 458.87 C 446.11 455.74 451.10 454.15 456.22 453.44 C 457.99 450.86 459.26 447.93 461.55 445.72 C 461.72 450.54 457.70 454.29 457.71 459.01 C 463.59 463.15 470.77 458.86 476.20 455.91 C 479.59 454.45 480.92 450.82 482.10 447.61 C 479.04 447.32 475.96 447.35 472.90 447.21 C 471.32 447.22 469.89 446.16 469.74 444.56 C 468.87 437.13 469.14 429.62 470.50 422.28 C 465.04 421.21 459.41 421.51 453.88 421.75 C 450.20 422.64 447.54 425.66 444.80 428.08 C 443.52 429.38 442.28 430.73 441.10 432.13 C 438.54 435.10 436.33 438.36 434.07 441.57 C 433.24 441.46 432.41 441.36 431.59 441.26 C 431.38 438.23 431.01 435.05 432.25 432.18 C 434.24 427.24 435.81 422.12 438.36 417.43 C 440.27 413.80 443.82 411.49 447.01 409.09 C 450.81 406.13 455.77 405.90 460.16 404.30 C 464.76 402.87 469.15 400.53 474.03 400.17 C 481.02 399.35 488.00 398.13 495.06 398.34 C 497.12 398.16 498.71 399.83 499.22 401.70 C 499.94 404.67 500.02 407.83 499.59 410.86 C 497.58 414.48 493.54 417.30 493.78 421.89 C 492.69 427.78 498.73 431.80 503.88 432.29 C 509.25 432.66 514.65 432.61 520.03 432.52 C 522.67 432.42 525.85 431.90 527.38 429.47 C 529.26 425.47 528.26 420.89 528.47 416.63 C 524.66 413.71 519.52 414.70 515.36 412.73 C 512.57 411.16 511.87 407.92 511.91 404.97 C 511.14 397.64 516.19 391.25 515.63 383.93 C 516.02 380.79 513.26 378.70 511.07 377.01 C 504.67 372.51 497.40 369.50 490.50 365.87 C 489.34 365.31 488.17 364.78 487.02 364.20 C 482.55 360.91 484.43 354.68 483.51 349.97 C 482.02 342.58 483.01 334.82 480.30 327.67 C 479.32 323.86 477.21 320.25 473.61 318.39 C 468.61 314.68 462.03 314.91 456.14 315.44 C 452.35 315.72 451.15 319.74 449.38 322.43 C 446.65 327.41 438.82 328.16 435.02 324.03 C 433.30 322.17 431.46 320.27 430.51 317.89 C 429.50 311.48 431.03 304.89 429.63 298.53 C 427.04 291.72 419.96 287.66 412.99 286.77 C 407.75 286.48 402.37 285.98 397.19 286.94 C 392.75 289.77 390.74 295.09 388.77 299.75 C 386.08 305.83 386.83 312.59 386.90 319.05 C 386.98 322.60 388.64 325.80 389.62 329.15 C 391.25 337.02 392.15 345.08 392.03 353.12 C 388.93 359.07 381.05 362.43 381.29 370.10 C 383.38 372.42 386.45 374.55 386.54 377.98 C 386.84 382.32 386.65 386.69 386.59 391.04 C 386.84 396.05 381.78 399.72 377.10 399.68 C 374.96 399.64 371.90 400.55 370.66 398.20 C 369.66 394.23 370.39 390.08 370.14 386.04 C 368.76 379.95 369.95 373.69 369.13 367.57 C 368.41 364.57 367.09 361.01 363.89 359.97 C 360.05 358.65 356.09 357.41 351.99 357.39 C 342.68 357.32 333.36 357.33 324.05 357.46 C 320.03 357.48 315.80 357.49 312.13 355.61 C 309.34 354.17 307.37 351.18 307.57 347.98 C 307.74 341.61 308.04 335.18 307.24 328.84 C 304.61 326.74 300.98 328.05 297.94 327.21 C 295.82 325.00 296.40 321.73 296.24 318.95 C 296.41 314.11 295.60 309.03 297.53 304.43 C 299.38 298.82 304.27 295.07 306.92 289.89 C 312.72 281.20 320.29 272.93 321.72 262.16 C 322.34 259.25 322.02 255.67 324.51 253.55 C 328.25 250.52 332.49 248.21 336.47 245.52 C 345.74 238.88 355.67 231.93 360.42 221.15 C 362.17 217.69 361.46 213.73 361.95 210.02 C 362.77 206.88 366.28 205.61 367.84 202.91 C 369.87 199.32 370.41 195.08 370.47 191.01 C 370.62 187.62 368.49 184.25 365.54 182.66 C 360.88 181.25 355.81 183.20 352.21 186.21 C 349.81 188.48 347.80 191.11 345.61 193.57 C 342.13 197.64 341.12 203.04 340.06 208.13 C 339.35 210.26 339.17 213.06 336.94 214.21 C 333.51 215.14 331.26 211.54 330.24 208.81 C 327.95 202.24 328.61 195.12 328.17 188.28 C 322.98 188.51 322.23 194.07 320.36 197.75 C 319.45 197.93 318.56 197.86 317.70 197.56 C 315.56 194.29 314.61 190.45 313.25 186.83 C 311.19 181.96 313.13 176.48 311.47 171.53 C 308.66 167.71 304.52 165.10 301.71 161.28 C 299.54 157.95 299.51 153.83 299.46 150.00 C 299.47 145.59 299.02 140.92 301.08 136.84 C 304.09 130.81 308.78 125.43 309.94 118.60 C 310.65 113.98 310.65 109.27 310.37 104.62 C 305.55 102.08 298.94 101.73 295.05 106.11 C 286.20 115.43 285.50 129.07 284.16 141.16 C 284.20 150.12 284.20 159.09 284.17 168.05 C 283.86 173.78 287.90 178.46 288.52 184.00 C 289.73 192.90 289.65 202.03 287.83 210.84 C 287.57 212.70 286.10 214.72 284.00 214.39 C 281.97 214.47 280.90 212.34 280.16 210.77 C 277.95 205.44 277.33 199.63 276.61 193.95 C 275.71 188.67 281.11 185.01 280.60 179.74 C 273.41 179.67 269.89 187.82 270.66 194.00 C 271.48 198.58 274.24 203.54 271.98 208.09 C 267.44 212.05 260.80 212.65 254.99 212.50 C 253.94 210.18 253.33 207.52 251.52 205.64 C 247.39 201.80 241.63 200.84 236.43 199.26 C 230.14 197.27 223.08 196.46 216.79 198.82 C 212.74 200.85 213.42 205.95 211.59 209.37 C 207.84 212.91 202.05 211.85 197.37 211.56 C 193.59 209.52 191.75 205.12 187.89 203.16 C 185.50 201.83 181.94 201.75 180.43 204.43 C 178.65 206.03 178.10 209.98 175.10 209.17 C 172.89 202.98 169.61 196.73 163.73 193.31 C 157.25 190.40 150.02 193.63 143.43 192.33 C 137.06 187.92 133.62 179.64 125.69 177.35 C 123.41 180.37 122.93 184.16 122.17 187.75 C 120.98 187.70 119.78 187.70 118.61 187.47 C 115.80 183.88 114.78 178.79 110.58 176.37 C 105.96 173.70 100.22 173.86 95.09 174.57 C 89.02 177.59 87.29 185.18 81.61 188.69 C 73.46 194.64 62.80 193.59 53.29 194.66 C 50.45 194.46 47.62 194.11 44.78 193.98 C 50.88 193.78 56.88 192.54 62.98 192.47 C 67.32 192.38 71.72 191.70 75.70 189.90 C 83.78 186.30 86.56 176.54 94.33 172.51 C 99.59 170.96 105.40 171.51 110.49 173.43 C 115.49 175.55 117.03 181.16 120.10 185.16 C 121.17 181.94 121.44 178.29 123.58 175.54 C 125.86 174.70 128.56 175.09 130.48 176.61 C 134.48 179.59 137.14 183.91 140.52 187.50 C 142.19 189.17 144.46 190.86 146.96 190.16 C 152.77 189.22 159.07 188.88 164.54 191.36 C 169.74 194.84 172.80 200.60 176.09 205.76 C 178.30 202.92 180.79 198.92 184.99 199.59 C 189.95 199.69 192.78 204.03 195.76 207.30 C 199.13 211.18 204.86 209.14 209.16 208.32 C 210.46 204.16 211.53 199.04 215.74 196.84 C 227.11 193.06 239.46 196.11 250.00 201.01 C 253.70 202.54 255.62 206.22 256.92 209.78 C 261.56 209.86 267.28 210.31 270.42 206.12 C 271.15 202.55 269.21 199.23 268.51 195.83 C 267.40 189.17 270.10 181.54 276.26 178.25 C 278.55 176.84 281.24 177.78 283.54 178.62 C 283.42 181.33 283.44 184.26 281.66 186.50 C 279.36 189.49 278.34 193.24 278.71 196.99 C 279.22 202.36 280.20 208.17 284.11 212.20 C 286.78 207.22 287.05 201.46 287.23 195.94 C 287.22 190.35 287.01 184.58 284.83 179.35 C 283.33 175.75 282.17 171.93 282.31 168.00 C 282.55 158.65 281.72 149.24 283.19 139.95 C 284.43 127.36 286.65 114.04 294.54 103.74 Z" />
<path fill="#010101" d=" M 994.93 158.01 C 1001.15 156.67 1007.61 157.41 1013.94 157.18 C 1019.90 156.77 1026.23 159.37 1029.60 164.44 C 1035.79 172.43 1041.25 181.69 1050.43 186.61 C 1052.52 188.17 1054.11 190.31 1056.16 191.94 C 1064.89 197.45 1075.32 198.83 1084.95 202.01 C 1087.76 203.74 1091.68 204.58 1093.26 207.74 C 1094.06 212.72 1094.25 218.58 1090.62 222.56 C 1087.35 225.63 1083.46 228.33 1079.03 229.28 C 1072.96 229.46 1066.84 229.57 1060.84 228.60 C 1055.68 227.76 1050.89 225.59 1045.97 223.97 C 1042.65 229.76 1038.39 236.80 1040.70 243.58 C 1045.34 247.86 1048.83 253.37 1054.39 256.63 C 1057.81 259.34 1062.76 259.54 1066.46 257.27 C 1066.58 254.81 1066.91 252.27 1066.06 249.91 C 1065.50 248.17 1064.58 245.61 1066.87 244.71 C 1072.15 243.35 1077.65 243.83 1083.04 243.50 C 1087.08 246.57 1092.28 246.80 1097.17 246.28 C 1100.61 245.74 1102.78 242.39 1103.10 239.11 C 1103.35 236.03 1103.39 232.91 1104.34 229.94 C 1105.63 226.62 1103.55 223.42 1103.58 220.08 C 1103.35 214.41 1102.88 208.76 1102.36 203.12 C 1101.81 200.03 1100.84 196.93 1101.54 193.78 C 1105.58 192.08 1110.12 192.05 1114.38 192.75 C 1118.57 194.66 1120.96 199.50 1120.72 204.02 C 1121.27 210.09 1115.62 214.89 1116.82 221.02 C 1117.30 223.24 1118.37 226.09 1120.97 226.42 C 1126.63 227.12 1132.35 226.63 1138.03 227.09 C 1142.51 226.99 1149.17 226.13 1149.66 220.51 C 1150.21 220.48 1151.31 220.43 1151.86 220.40 C 1151.78 222.38 1151.95 224.85 1150.00 226.05 C 1144.85 229.98 1138.07 229.13 1132.01 229.18 C 1127.29 229.02 1122.42 229.79 1117.88 228.19 C 1113.65 224.52 1112.60 217.56 1115.66 212.81 C 1118.43 208.14 1119.77 201.55 1116.07 197.01 C 1113.18 193.32 1108.01 194.80 1104.12 195.57 C 1104.43 202.71 1105.29 209.81 1105.77 216.94 C 1105.63 221.72 1109.16 226.20 1107.08 230.99 C 1104.74 235.76 1106.63 241.91 1102.73 245.97 C 1098.71 249.75 1092.91 248.35 1087.95 248.63 C 1084.85 249.12 1083.07 245.67 1080.07 245.79 C 1076.13 245.48 1072.20 246.03 1068.34 246.75 C 1069.63 250.52 1070.38 254.92 1068.71 258.68 C 1065.97 262.09 1060.84 262.27 1056.94 261.18 C 1052.10 258.57 1047.53 255.22 1044.32 250.71 C 1042.39 248.04 1038.93 246.70 1037.60 243.61 C 1036.87 240.00 1037.42 236.14 1039.09 232.85 C 1040.83 229.28 1041.88 225.30 1044.38 222.15 C 1045.37 220.79 1047.45 221.20 1048.84 221.67 C 1051.28 222.77 1053.63 224.07 1056.14 225.03 C 1062.06 227.75 1068.75 226.49 1075.05 226.70 C 1080.03 227.00 1084.78 224.72 1088.42 221.47 C 1091.67 217.79 1090.93 212.50 1090.31 208.02 C 1082.81 202.66 1073.40 201.86 1064.90 198.92 C 1058.75 197.13 1053.37 193.58 1048.85 189.12 C 1038.69 183.37 1032.96 172.88 1025.82 164.12 C 1020.34 158.61 1012.13 159.56 1005.05 159.60 C 995.66 158.96 986.86 162.92 978.50 166.67 C 973.13 168.36 969.08 172.44 964.58 175.60 C 958.43 180.73 950.85 184.52 946.91 191.83 C 946.41 191.41 945.41 190.58 944.92 190.17 C 939.87 196.67 936.41 204.21 931.64 210.90 C 927.92 215.97 924.79 221.47 922.26 227.22 C 920.63 230.73 919.09 234.48 916.11 237.09 C 912.94 239.97 910.23 243.32 906.98 246.10 C 903.68 248.87 901.31 252.55 899.43 256.38 C 897.77 259.77 897.76 263.66 896.31 267.12 C 894.46 270.61 890.38 272.55 889.35 276.55 C 888.62 279.69 886.62 282.20 884.89 284.83 C 882.84 289.31 878.39 292.22 876.91 297.03 C 875.60 300.15 880.01 300.59 881.46 302.53 C 881.77 305.32 881.62 308.15 881.37 310.94 C 880.53 314.27 878.28 317.00 876.58 319.93 C 876.53 322.75 876.68 325.59 877.65 328.28 C 878.19 328.54 879.28 329.05 879.82 329.30 C 885.02 328.77 890.07 326.61 893.90 323.01 C 897.28 319.77 901.38 317.20 905.88 315.85 C 910.09 315.57 915.20 318.19 915.51 322.88 C 916.20 331.03 914.55 339.48 917.26 347.41 C 918.66 351.16 921.50 354.25 924.93 356.26 C 927.81 356.01 930.71 355.51 933.43 354.50 C 935.52 353.21 937.21 351.38 939.06 349.78 C 942.37 343.74 944.67 337.01 944.48 330.05 C 944.11 324.60 948.79 320.46 948.72 315.03 C 948.76 309.69 948.84 304.35 948.66 299.02 C 948.67 296.20 946.97 293.80 946.58 291.08 C 946.46 286.82 946.53 282.31 948.49 278.43 C 950.37 275.74 952.98 273.68 955.17 271.25 C 956.19 270.01 957.93 268.95 957.69 267.10 C 957.61 261.00 957.47 254.71 959.77 248.95 C 961.82 245.38 963.65 241.41 966.96 238.81 C 972.53 235.16 979.32 232.98 986.02 234.14 C 989.79 234.68 995.07 234.01 997.08 238.09 C 998.11 242.10 997.16 246.38 996.17 250.32 C 993.75 254.70 990.00 258.27 986.03 261.26 C 980.96 265.42 976.33 270.22 972.92 275.85 C 970.98 278.86 971.72 282.58 971.62 285.96 C 971.82 289.60 971.20 293.59 973.32 296.81 C 975.20 299.77 976.52 303.48 979.81 305.20 C 982.45 306.03 985.31 305.64 988.05 305.64 C 992.28 305.63 995.84 302.75 1000.05 302.59 C 1004.81 302.51 1009.73 302.09 1014.32 303.66 C 1016.35 308.69 1015.70 314.85 1012.24 319.13 C 1010.25 323.38 1005.07 323.80 1001.87 326.73 C 999.14 328.82 996.80 331.98 993.07 332.16 C 987.38 333.26 980.20 333.20 976.65 338.60 C 976.24 343.91 978.40 350.64 973.56 354.51 C 970.22 358.24 965.12 356.61 960.81 356.74 C 954.91 359.12 950.28 364.16 944.00 365.69 C 937.56 368.04 930.61 366.75 923.94 367.53 C 918.51 367.54 911.88 368.67 907.69 364.40 C 905.42 359.97 907.99 354.62 906.01 350.04 C 904.86 347.62 903.28 345.29 901.07 343.75 C 899.17 343.42 897.40 344.24 895.65 344.78 C 895.51 349.04 896.16 353.62 899.18 356.86 C 903.25 361.40 900.90 368.91 896.05 371.84 C 893.11 372.65 889.83 371.65 887.04 373.04 C 884.22 374.20 884.04 377.88 881.48 379.34 C 876.15 382.86 871.86 387.62 867.12 391.85 C 865.47 393.29 863.87 394.81 862.60 396.61 C 858.01 402.72 855.52 410.18 850.33 415.86 C 847.55 418.95 844.20 422.07 839.74 421.94 C 835.16 422.64 830.28 421.56 825.94 423.49 C 823.39 424.54 820.76 425.79 819.03 428.01 C 817.57 431.14 818.55 434.69 819.51 437.83 C 825.58 439.41 832.74 437.84 837.99 441.99 C 841.04 444.40 840.79 448.69 840.15 452.14 C 838.96 456.63 837.33 461.40 833.62 464.45 C 828.52 466.50 823.06 464.08 818.15 462.56 C 813.45 462.03 808.68 462.31 803.96 462.32 C 798.95 462.32 794.66 465.24 790.31 467.34 C 786.86 468.77 785.91 472.66 784.79 475.85 C 782.80 481.05 784.54 486.61 784.27 491.99 C 783.86 498.98 787.85 505.27 792.10 510.48 C 798.16 509.72 804.35 505.58 810.37 508.81 C 810.44 512.18 810.28 515.57 810.66 518.94 C 814.21 516.00 815.62 511.59 817.60 507.61 C 819.31 504.48 823.20 505.48 826.03 506.02 C 830.07 506.99 833.30 503.63 836.38 501.56 C 842.88 497.07 837.30 488.13 841.17 482.25 C 845.57 476.09 850.76 470.42 856.68 465.68 C 858.62 463.76 859.71 461.20 860.90 458.78 C 862.68 457.94 865.00 456.65 866.81 458.16 C 868.85 460.17 869.78 463.14 872.12 464.92 C 878.36 464.07 879.54 456.03 885.34 454.19 C 888.93 454.38 892.67 454.53 896.04 455.94 C 898.33 457.44 899.84 459.80 901.76 461.71 C 904.58 464.12 906.85 467.06 908.70 470.27 C 911.97 475.97 917.70 480.06 924.07 481.60 C 926.68 482.04 928.79 484.24 929.08 486.90 C 929.62 492.25 928.96 497.66 929.63 503.02 C 933.76 501.23 935.48 496.82 938.46 493.74 C 938.17 489.54 940.14 483.83 936.00 481.00 C 928.49 476.91 921.25 472.35 913.84 468.07 C 909.80 465.91 908.05 461.34 907.09 457.12 C 907.02 456.40 906.88 454.95 906.81 454.23 C 906.93 450.32 906.20 445.38 909.47 442.51 C 911.73 442.11 914.05 442.36 916.35 442.20 L 916.42 442.41 C 916.48 442.60 916.61 442.97 916.67 443.16 C 917.68 443.15 919.69 443.12 920.70 443.11 C 924.01 443.79 926.86 445.79 930.03 446.93 C 932.82 447.90 934.59 450.38 936.26 452.66 C 938.48 455.81 941.23 458.58 943.21 461.92 C 946.61 467.60 952.19 471.78 954.60 478.10 C 958.24 487.78 961.52 497.62 965.83 507.04 C 966.86 509.04 968.21 511.86 970.96 511.36 C 974.64 511.04 979.05 510.77 981.38 507.43 C 983.59 505.61 982.61 502.46 981.34 500.39 C 978.67 495.24 973.72 492.00 969.60 488.15 C 968.09 483.72 969.93 478.22 974.10 475.88 C 979.28 475.08 984.57 476.23 989.50 477.85 C 991.63 478.65 993.98 480.49 993.58 483.05 C 993.31 489.09 992.54 495.26 993.67 501.24 C 995.66 505.50 996.97 511.36 1002.03 512.95 C 1007.68 513.68 1013.58 513.40 1018.95 511.30 C 1026.09 508.80 1033.82 508.68 1041.23 509.97 C 1044.15 510.67 1047.56 512.54 1047.68 515.94 C 1047.73 522.07 1047.80 528.23 1047.46 534.35 C 1045.58 541.24 1038.96 546.03 1037.48 553.00 C 1040.59 559.29 1045.20 564.86 1049.51 570.43 C 1055.36 579.26 1058.73 589.85 1066.55 597.30 C 1070.49 600.87 1073.22 605.46 1076.57 609.54 C 1079.44 613.23 1081.30 617.58 1083.04 621.90 C 1085.05 627.96 1088.83 633.46 1089.54 639.93 C 1090.21 646.74 1092.89 653.20 1093.45 660.03 C 1093.77 662.03 1092.58 664.58 1090.20 663.69 C 1088.25 662.34 1087.70 659.65 1086.07 657.94 C 1083.71 655.59 1080.87 653.81 1078.48 651.51 C 1075.60 648.68 1071.83 646.98 1069.09 644.03 C 1066.16 641.10 1063.72 637.69 1062.09 633.89 C 1061.11 631.53 1060.10 629.19 1059.18 626.81 C 1056.36 619.91 1051.91 613.55 1050.96 606.01 C 1050.11 600.08 1048.51 594.31 1046.29 588.76 C 1043.01 580.04 1037.10 572.80 1031.88 565.22 C 1026.33 557.48 1029.98 547.37 1027.24 538.83 C 1022.78 536.73 1017.58 536.65 1012.87 537.88 C 1007.27 540.23 1002.15 543.59 997.32 547.23 C 994.91 549.06 991.75 548.45 988.96 548.41 C 981.05 548.39 973.06 545.12 967.79 539.15 C 964.01 534.10 956.78 536.67 951.46 536.76 C 952.21 539.81 952.83 542.97 952.32 546.13 C 950.60 550.67 944.61 550.02 940.86 548.92 C 935.81 547.45 934.36 541.88 933.07 537.44 C 927.42 535.97 921.56 537.27 915.85 536.52 C 910.09 535.24 905.86 530.70 903.17 525.68 C 898.08 525.92 892.91 527.79 887.87 526.28 C 883.50 524.61 883.00 519.46 880.13 516.32 C 877.31 516.50 874.98 518.06 872.47 519.14 C 868.69 519.97 864.77 519.68 860.94 519.59 C 856.32 519.62 852.73 515.53 847.99 516.35 C 842.99 516.77 836.91 514.98 832.99 519.04 C 829.60 521.81 829.44 527.53 824.99 529.09 C 819.71 529.42 814.88 526.95 809.97 525.45 C 804.58 525.01 799.69 528.38 796.05 532.00 C 793.65 537.00 790.73 541.74 788.55 546.84 C 787.28 549.46 784.90 551.47 784.14 554.34 C 783.02 557.78 782.70 561.50 780.79 564.66 C 779.76 562.12 780.62 559.46 780.75 556.88 C 777.79 559.54 778.12 563.56 778.22 567.19 C 777.91 567.69 777.31 568.68 777.00 569.18 C 767.73 570.85 760.33 577.77 755.54 585.58 C 752.74 589.97 750.86 594.85 748.37 599.41 C 745.45 604.12 744.23 609.65 743.22 615.03 C 742.71 621.20 741.02 627.19 740.49 633.35 C 740.42 644.66 739.31 656.43 744.08 667.06 C 748.26 674.77 751.94 682.78 757.01 689.99 C 760.53 696.60 766.93 700.74 772.67 705.23 C 775.82 707.68 779.86 708.52 783.11 710.83 C 787.70 713.96 793.42 714.30 798.55 716.13 C 807.27 717.32 816.29 717.91 824.98 716.20 C 832.09 713.43 838.53 709.13 845.87 706.94 C 850.76 705.09 856.10 705.80 861.22 705.80 C 864.60 706.99 867.45 709.96 868.22 713.53 C 869.55 718.46 873.56 723.53 879.08 723.50 C 883.17 723.98 886.92 720.81 891.00 721.83 C 893.07 723.19 892.58 725.94 892.80 728.07 C 893.37 735.08 890.07 742.13 892.65 749.01 C 895.59 755.93 901.29 761.14 906.62 766.25 C 910.68 771.49 914.60 777.21 915.60 783.92 C 917.86 793.41 915.62 803.38 918.34 812.79 C 918.77 814.79 920.21 816.85 919.31 818.93 C 918.69 818.84 917.44 818.66 916.82 818.57 C 916.28 813.68 914.70 808.95 914.48 804.02 C 913.66 797.32 914.93 790.49 913.40 783.87 C 912.21 778.36 908.75 773.77 905.73 769.15 C 904.30 766.98 902.21 765.39 900.31 763.68 C 892.81 757.97 888.29 748.42 889.03 738.99 C 889.88 734.16 890.10 729.24 889.58 724.37 C 884.84 725.34 879.85 727.76 875.06 725.66 C 872.46 724.13 869.97 722.24 868.22 719.77 C 865.52 716.20 865.50 710.88 861.13 708.65 C 857.08 708.78 852.99 708.32 848.99 709.01 C 840.68 711.40 833.23 715.99 824.98 718.56 C 819.44 720.02 813.65 719.50 808.00 719.57 C 801.09 719.67 794.59 717.10 788.03 715.30 C 783.35 713.81 779.37 710.77 774.75 709.14 C 769.98 706.49 766.11 702.51 761.84 699.17 C 754.61 691.99 749.20 683.13 745.02 673.89 C 741.26 668.22 740.51 661.33 738.79 654.91 C 737.36 645.63 738.60 636.23 738.90 626.92 C 739.75 621.60 740.31 616.17 742.08 611.05 C 743.34 607.24 743.26 602.98 745.53 599.54 C 749.27 593.21 752.86 586.79 756.81 580.58 C 761.31 574.14 767.79 568.88 775.33 566.48 C 775.61 563.33 774.64 559.61 777.06 557.07 C 778.91 554.29 781.46 552.04 783.24 549.21 C 784.02 545.58 783.58 541.36 786.26 538.42 C 789.67 534.42 793.36 530.54 797.86 527.75 C 800.69 525.78 803.46 523.41 806.96 522.74 C 810.73 521.87 814.00 524.35 817.43 525.45 C 819.69 526.45 822.18 526.35 824.60 526.47 C 828.38 522.05 830.66 515.35 836.90 513.84 C 841.24 513.47 845.62 513.74 849.98 513.63 C 853.94 513.26 857.06 516.41 860.92 516.68 C 864.63 517.01 868.38 516.89 872.08 516.36 C 874.63 514.67 877.87 512.70 880.99 514.12 C 884.95 515.82 884.81 521.41 888.62 523.31 C 893.96 525.52 899.76 521.67 905.23 523.61 C 907.50 526.67 909.21 530.39 912.78 532.22 C 919.37 535.84 927.14 533.89 934.29 534.42 C 936.17 537.52 936.59 541.33 938.78 544.26 C 941.34 547.39 945.77 547.06 949.36 546.41 C 950.35 542.85 949.31 539.34 948.59 535.87 C 949.67 533.91 952.08 534.33 953.95 533.98 C 958.26 534.62 962.97 532.76 967.00 534.96 C 971.63 539.04 976.00 544.09 982.31 545.48 C 987.91 546.42 994.52 547.11 999.17 543.12 C 1005.39 539.48 1011.39 534.22 1019.02 534.34 C 1023.18 533.89 1028.66 534.94 1030.51 539.17 C 1031.33 545.73 1031.42 552.37 1031.54 558.98 C 1032.92 565.50 1037.76 570.46 1040.76 576.24 C 1047.53 586.78 1050.94 599.03 1053.79 611.12 C 1057.82 618.75 1059.98 627.20 1064.08 634.81 C 1069.53 644.66 1080.05 649.77 1088.52 656.58 C 1089.36 657.37 1090.09 658.29 1090.85 659.19 C 1091.18 650.28 1089.24 641.37 1085.80 633.18 C 1081.32 624.52 1079.59 614.42 1073.30 606.74 C 1070.48 603.19 1066.60 600.72 1063.45 597.50 C 1057.68 590.28 1053.71 581.89 1049.10 573.92 C 1045.41 567.20 1039.33 562.23 1035.32 555.72 C 1034.16 554.05 1034.28 551.72 1035.53 550.14 C 1038.77 545.49 1042.28 540.90 1044.36 535.58 C 1045.79 529.14 1045.16 522.47 1045.04 515.94 C 1042.88 512.14 1037.84 512.56 1034.11 512.02 C 1027.60 510.81 1021.43 513.59 1015.38 515.47 C 1011.27 515.95 1007.12 515.54 1003.00 515.73 C 999.15 516.18 996.10 512.99 994.45 509.90 C 993.28 506.83 991.39 504.07 990.47 500.92 C 989.82 494.94 990.43 488.92 990.57 482.93 C 990.79 480.82 988.54 480.05 986.93 479.57 C 982.96 478.20 978.72 478.68 974.61 478.56 C 972.69 480.78 970.44 484.46 972.68 487.16 C 977.40 491.59 982.72 495.82 985.35 501.94 C 986.64 505.50 984.46 508.70 981.73 510.77 C 978.79 514.06 974.07 513.91 970.03 514.20 C 967.31 514.39 965.40 511.97 964.17 509.87 C 961.57 504.53 959.36 499.01 957.29 493.46 C 954.91 488.37 953.89 482.76 951.27 477.77 C 948.80 472.56 944.06 468.93 941.19 463.98 C 939.47 461.04 937.07 458.59 935.19 455.76 C 933.35 453.26 931.49 450.50 928.51 449.27 C 925.24 447.94 922.11 445.35 918.39 446.55 L 918.53 445.37 C 915.82 445.25 913.11 445.20 910.41 445.20 C 909.65 448.05 909.50 450.98 909.58 453.92 C 909.58 454.00 909.57 454.16 909.57 454.25 C 909.52 458.64 911.05 463.60 915.14 465.85 C 920.06 468.41 924.88 471.19 929.52 474.25 C 933.21 476.47 937.87 477.54 940.41 481.33 C 942.06 484.60 941.42 488.44 941.54 491.98 C 941.87 496.18 937.77 498.51 935.91 501.79 C 934.29 504.64 930.99 506.04 927.80 505.45 C 925.66 499.51 926.82 493.11 926.31 486.97 C 925.54 484.23 922.46 484.41 920.31 483.61 C 915.07 481.21 909.89 477.98 906.97 472.83 C 904.87 469.04 902.07 465.73 898.73 462.99 C 897.45 461.46 896.33 459.71 894.62 458.63 C 891.65 457.42 888.39 457.18 885.22 457.17 C 882.52 458.55 881.84 461.77 879.70 463.69 C 877.61 465.52 875.38 467.18 873.05 468.68 C 869.22 467.28 867.49 463.45 865.00 460.56 C 864.52 460.62 863.55 460.75 863.06 460.81 C 861.10 463.60 859.88 466.98 857.14 469.15 C 852.04 472.62 847.57 477.06 844.18 482.23 C 841.13 486.96 843.32 492.88 842.25 498.09 C 840.27 503.08 835.54 506.10 831.03 508.54 C 827.38 509.45 823.63 508.02 819.95 508.62 C 818.51 513.88 815.53 518.84 810.88 521.78 C 810.27 521.76 809.04 521.71 808.43 521.68 C 808.24 517.96 808.31 514.22 807.62 510.55 C 803.24 509.54 798.93 510.80 795.08 512.86 C 792.92 514.34 790.52 512.72 789.41 510.80 C 786.16 505.60 782.06 500.40 781.81 494.00 C 781.63 485.35 780.80 476.19 785.31 468.38 C 786.61 465.61 789.68 464.71 792.16 463.33 C 795.51 461.49 799.06 459.59 803.00 459.59 C 806.67 459.51 810.34 459.58 814.02 459.52 C 820.17 459.06 825.64 463.51 831.90 462.19 C 835.29 459.82 836.28 455.59 837.47 451.88 C 837.93 449.31 838.56 445.81 835.99 444.13 C 830.76 440.08 823.74 442.11 817.79 440.26 C 815.95 435.98 814.57 430.54 817.31 426.32 C 819.47 423.57 822.76 421.95 825.97 420.71 C 832.03 418.06 839.39 421.06 845.07 417.18 C 848.95 415.05 850.97 410.96 853.39 407.46 C 857.65 401.75 859.99 394.82 864.96 389.61 L 865.83 389.56 L 865.19 388.54 C 866.81 388.36 868.39 387.75 869.55 386.55 C 872.62 383.57 875.75 380.66 879.04 377.92 C 881.45 376.02 882.30 372.70 884.99 371.08 C 888.04 369.30 891.72 369.49 895.13 369.22 C 897.02 366.92 898.82 364.06 898.23 360.94 C 897.06 357.82 894.49 355.42 893.61 352.16 C 892.68 349.23 891.98 345.59 893.82 342.88 C 896.77 340.20 902.09 339.97 904.59 343.40 C 906.34 345.80 908.66 348.04 909.24 351.07 C 909.64 354.73 909.38 358.44 909.82 362.11 C 910.10 363.65 911.66 363.93 912.97 364.24 C 920.27 365.65 927.66 363.82 935.02 364.29 C 944.34 365.09 951.47 358.08 959.41 354.44 C 962.22 353.10 965.29 354.37 968.23 354.23 C 970.36 353.68 972.17 352.20 973.33 350.36 C 974.16 346.08 973.89 341.67 974.41 337.36 C 975.31 335.17 977.34 333.54 979.51 332.65 C 984.18 330.76 989.12 329.56 994.14 329.08 C 997.14 328.65 998.99 325.98 1001.25 324.24 C 1004.18 321.42 1008.77 320.52 1010.64 316.62 C 1013.08 313.50 1012.51 309.41 1012.34 305.74 C 1008.56 305.27 1004.75 305.07 1000.96 305.20 C 996.38 305.24 992.48 308.30 987.91 308.37 C 983.64 308.61 978.56 309.33 975.56 305.51 C 972.00 300.76 968.00 295.27 968.86 288.97 C 969.36 285.01 968.83 280.98 969.50 277.05 C 972.72 270.23 978.07 264.66 983.73 259.78 C 986.63 257.70 989.73 255.73 991.65 252.61 C 994.73 248.71 994.66 243.43 994.47 238.71 C 990.28 236.75 985.53 236.68 981.00 236.60 C 976.04 236.20 971.76 239.26 967.76 241.75 C 965.49 244.34 963.86 247.43 962.33 250.49 C 959.62 256.68 961.09 263.56 960.13 270.02 C 957.11 273.39 953.26 276.02 950.74 279.84 C 948.57 285.36 949.07 291.44 951.24 296.86 C 951.33 305.87 952.71 315.45 948.71 323.90 C 946.18 328.43 948.01 333.81 946.36 338.60 C 944.24 345.01 942.11 352.24 936.22 356.24 C 932.98 357.89 929.27 358.17 925.87 359.38 C 919.53 357.26 914.49 351.12 913.85 344.42 C 912.87 336.93 913.57 329.31 912.31 321.84 C 911.34 319.79 908.83 319.43 907.00 318.53 C 904.32 319.65 901.47 320.45 899.00 322.00 C 896.63 323.97 894.79 326.59 891.97 327.98 C 887.41 330.31 882.28 333.10 877.03 331.41 C 873.72 328.72 873.34 323.94 873.87 320.01 C 874.96 316.99 877.18 314.55 878.27 311.54 C 878.94 308.99 878.70 306.31 878.75 303.71 C 877.38 303.16 876.03 302.62 874.68 302.10 C 872.35 295.92 877.60 291.10 881.40 287.04 C 882.09 283.67 884.90 281.39 886.21 278.30 C 887.22 276.01 887.73 273.38 889.53 271.51 C 891.80 269.03 894.58 266.62 895.09 263.10 C 896.45 256.02 899.82 249.06 905.62 244.59 C 908.85 242.18 911.46 239.08 914.21 236.15 C 918.13 232.00 920.10 226.53 923.11 221.76 C 926.69 216.14 930.05 210.35 934.26 205.16 C 936.80 199.82 939.34 194.45 942.59 189.51 C 943.51 187.92 945.46 187.78 947.10 187.59 C 950.08 183.28 954.57 180.47 958.90 177.69 C 963.82 173.69 968.96 169.97 973.85 165.93 C 980.39 162.17 987.88 160.56 994.93 158.01 Z" />
<path fill="#060606" d=" M 736.79 183.87 C 742.87 184.61 746.98 190.18 749.95 195.06 C 751.05 197.22 752.37 199.41 752.57 201.90 C 753.35 214.50 753.15 227.51 748.48 239.42 C 746.62 243.36 743.13 246.20 739.80 248.86 C 734.35 251.73 728.84 254.66 722.85 256.21 C 712.11 257.18 701.14 255.65 691.05 251.90 C 687.95 250.55 685.18 248.08 681.85 247.58 C 677.90 249.76 674.23 252.78 669.70 253.62 C 661.48 253.94 653.22 253.28 645.01 253.97 C 645.81 253.45 646.65 253.00 647.52 252.60 C 655.06 252.69 662.65 253.19 670.17 252.39 C 673.28 250.86 676.40 249.28 678.98 246.90 C 680.20 245.70 681.91 244.61 683.68 245.44 C 686.81 247.26 689.59 249.65 692.85 251.27 C 693.38 251.48 694.45 251.89 694.98 252.09 C 697.26 252.83 699.55 253.54 701.86 254.24 C 708.86 255.19 715.92 256.03 723.00 255.31 C 726.12 254.55 729.04 253.16 731.98 251.89 C 738.88 249.06 745.63 244.53 748.25 237.20 C 751.69 226.89 752.87 215.86 752.05 205.04 C 751.70 198.07 747.27 191.94 741.73 187.99 C 740.01 186.64 737.08 186.51 736.79 183.87 Z" />
<path fill="#121212" d=" M 629.81 185.54 C 630.35 185.48 631.43 185.37 631.97 185.31 C 631.54 188.08 628.28 188.72 626.71 190.71 C 622.08 196.14 617.22 202.46 617.48 209.99 C 616.64 219.26 622.45 228.03 630.14 232.76 C 634.54 235.81 639.89 236.82 644.87 238.53 C 648.75 239.89 652.90 239.84 656.96 239.76 C 659.99 239.77 662.59 237.89 665.53 237.38 C 665.54 241.34 662.28 244.33 658.98 245.96 C 655.70 247.49 652.20 248.69 648.61 249.14 C 648.10 249.03 647.07 248.81 646.55 248.70 C 652.30 246.84 658.46 245.09 662.66 240.43 C 652.37 242.99 641.74 240.04 632.46 235.52 C 626.37 231.91 620.24 227.09 618.01 220.08 C 615.65 213.55 615.59 205.85 619.11 199.71 C 621.98 194.52 625.27 189.44 629.81 185.54 Z" />
<path fill="#171717" d=" M 642.47 190.09 C 642.98 190.17 644.01 190.33 644.52 190.41 C 643.50 195.59 641.68 200.57 640.13 205.61 C 643.89 206.20 647.69 206.48 651.49 206.29 C 653.03 200.64 651.82 194.57 653.98 189.05 C 656.18 190.89 654.91 193.64 654.47 195.93 C 653.68 198.97 653.37 202.11 653.10 205.24 C 653.61 205.40 654.63 205.73 655.14 205.90 L 655.48 207.21 C 654.74 207.47 653.25 208.00 652.50 208.26 C 652.32 212.98 652.58 217.76 651.45 222.39 C 650.80 222.78 650.15 223.17 649.51 223.56 C 649.01 218.20 651.72 213.13 651.50 207.73 C 647.47 207.81 643.41 208.57 639.44 207.60 C 637.21 213.17 636.57 219.23 634.57 224.84 C 634.25 226.39 631.35 225.96 632.40 224.23 C 636.11 219.16 636.45 212.71 638.50 206.95 C 640.39 201.48 641.84 195.86 642.47 190.09 Z" />
<path fill="#171717" d=" M 709.68 190.63 C 710.11 190.65 710.99 190.69 711.42 190.71 C 711.22 194.14 710.68 197.55 709.91 200.90 C 708.52 206.43 707.70 212.07 706.58 217.65 C 705.98 217.56 704.77 217.39 704.17 217.30 C 704.60 216.01 705.27 214.83 706.06 213.73 C 707.87 206.15 709.42 198.44 709.68 190.63 Z" />
<path fill="#2a2929" d=" M 718.74 198.00 C 718.87 196.00 718.57 193.08 721.24 192.69 C 720.61 199.49 719.43 206.23 718.26 212.96 C 717.68 214.98 717.55 217.82 715.03 218.33 C 717.65 211.88 718.61 204.92 718.74 198.00 Z" />
<path fill="#171717" d=" M 726.60 193.68 C 727.09 193.62 728.07 193.50 728.56 193.45 C 728.53 196.67 728.34 199.90 728.15 203.12 C 727.41 209.95 727.74 217.03 725.17 223.55 C 724.79 223.94 724.02 224.73 723.64 225.13 C 723.42 222.51 725.45 220.45 725.72 217.90 C 727.32 209.93 726.53 201.75 726.60 193.68 Z" />
<path fill="#5d5c5b" d=" M 0.00 198.29 C 14.92 196.83 29.82 195.06 44.78 193.98 C 47.62 194.11 50.45 194.46 53.29 194.66 C 45.93 195.86 38.44 195.68 31.06 196.61 C 20.70 197.61 10.36 198.78 0.00 199.71 L 0.00 198.29 Z" />
<path fill="#0f0f0e" d=" M 686.30 204.32 C 689.91 204.74 695.22 202.91 697.27 206.95 C 697.95 209.56 697.42 212.49 695.63 214.55 C 692.62 218.43 687.41 219.39 682.79 219.68 C 681.80 224.84 680.88 230.02 680.30 235.25 C 679.79 235.28 678.76 235.36 678.24 235.40 C 680.32 227.13 682.65 218.76 682.64 210.14 C 682.46 208.83 683.26 207.55 684.54 207.18 C 685.33 210.75 683.99 214.35 683.31 217.83 C 687.05 217.93 691.37 217.94 693.96 214.75 C 696.25 212.48 696.04 208.87 694.43 206.29 C 691.84 206.27 689.25 206.26 686.68 206.23 C 686.58 205.75 686.39 204.80 686.30 204.32 Z" />
<path fill="#0a0a0a" d=" M 663.26 211.36 C 664.92 208.04 668.95 207.22 672.35 207.44 C 675.91 209.85 674.40 214.60 673.72 218.09 C 672.82 223.42 665.02 225.20 661.69 221.12 C 661.14 217.82 662.00 214.41 663.26 211.36 Z" />
<path fill="#f5f4f0" d=" M 667.40 210.19 C 668.82 208.91 670.80 209.66 672.48 209.66 C 672.86 213.22 673.15 217.53 670.46 220.31 C 668.41 222.22 665.63 221.35 663.41 220.34 C 663.52 216.69 663.84 212.21 667.40 210.19 Z" />
<path fill="#313130" d=" M 701.15 231.20 C 701.62 230.60 702.55 229.40 703.02 228.79 C 705.62 227.69 705.95 230.89 705.63 232.64 C 703.97 232.72 702.36 232.44 701.15 231.20 Z" />
<path fill="#323231" d=" M 711.22 231.79 C 712.26 230.35 713.96 230.34 715.57 230.33 C 715.99 232.42 715.34 234.60 712.87 234.57 C 712.46 233.87 711.63 232.49 711.22 231.79 Z" />
<path fill="#323231" d=" M 722.45 236.55 C 723.48 236.57 724.53 236.61 725.58 236.65 C 725.49 238.07 726.02 240.23 724.00 240.38 C 721.84 240.29 722.30 238.04 722.45 236.55 Z" />
<path fill="#000000" d=" M 599.58 254.91 C 601.56 249.05 607.95 245.21 614.05 245.57 C 617.76 245.47 620.96 247.97 623.39 250.53 C 625.62 254.92 623.79 260.09 620.53 263.42 C 617.59 267.48 612.21 268.26 608.93 271.91 C 608.43 273.01 607.93 274.12 607.42 275.22 C 609.35 276.17 611.10 277.45 612.99 278.48 C 621.11 275.26 629.36 271.62 635.92 265.73 C 636.83 264.56 639.14 265.53 638.35 267.23 C 637.82 268.60 636.83 269.71 635.58 270.44 C 629.99 273.97 624.13 277.06 618.13 279.82 C 621.08 280.78 623.70 282.48 625.93 284.62 C 630.40 284.34 633.74 281.34 637.25 278.92 C 641.08 278.18 643.82 275.08 646.18 272.21 C 646.85 272.26 648.19 272.37 648.86 272.42 C 648.38 275.53 645.52 277.38 643.31 279.28 C 638.93 282.15 634.57 285.21 629.68 287.16 C 633.82 292.42 636.51 298.69 638.42 305.06 C 639.19 311.11 639.36 317.63 636.40 323.17 C 633.87 327.82 630.72 332.46 625.99 335.11 C 632.60 337.84 636.59 344.66 638.25 351.34 C 642.27 347.34 646.27 343.11 651.44 340.56 C 652.69 339.89 655.11 339.95 654.40 342.11 C 650.35 344.65 646.12 347.10 642.97 350.76 C 641.20 353.07 639.86 355.68 638.00 357.93 C 635.73 356.28 635.86 353.39 635.12 350.97 C 634.14 347.38 632.13 344.16 629.81 341.29 C 628.57 339.91 627.04 338.39 625.06 338.41 C 620.39 338.19 615.73 338.52 611.07 338.79 C 604.41 338.64 597.74 338.57 591.08 338.28 C 587.26 344.12 581.04 348.55 574.08 349.61 C 570.50 349.89 566.91 349.73 563.33 349.71 C 563.21 354.58 563.93 360.35 560.01 364.03 C 557.46 362.06 559.94 359.48 560.25 357.09 C 560.51 353.86 560.27 350.62 560.43 347.38 C 564.86 346.37 569.40 347.10 573.87 346.68 C 579.47 345.82 584.44 342.27 587.78 337.80 C 587.77 337.44 587.74 336.71 587.73 336.34 C 580.50 332.02 572.91 326.54 570.59 317.98 C 569.90 312.00 570.68 305.93 571.99 300.08 C 573.45 291.59 580.08 285.39 586.22 279.94 C 591.54 276.62 597.98 274.54 604.28 275.77 C 604.82 274.15 605.37 272.54 605.90 270.91 C 603.94 269.97 601.53 269.26 600.69 267.01 C 599.38 263.15 599.10 258.94 599.58 254.91 Z" />
<path fill="#3d3d3c" d=" M 634.90 248.91 C 638.77 248.78 642.67 248.59 646.55 248.70 C 647.07 248.81 648.10 249.03 648.61 249.14 C 645.92 250.05 643.07 250.43 640.32 250.99 L 646.29 252.16 C 642.53 254.13 636.84 253.94 634.34 250.11 L 634.90 248.91 Z" />
<path fill="#f5f4f0" d=" M 604.98 251.88 C 607.78 248.92 612.14 248.08 616.02 248.84 C 618.99 249.99 622.41 252.40 621.32 256.09 C 619.70 262.19 613.71 266.01 607.93 267.66 C 606.32 267.99 604.89 267.01 603.47 266.47 C 602.52 261.75 600.46 255.37 604.98 251.88 Z" />
<path fill="#f5f4f0" d=" M 606.37 279.41 C 612.67 281.22 619.17 283.34 624.15 287.79 C 628.17 290.44 631.61 294.20 632.92 298.93 C 635.03 306.40 636.01 314.74 632.87 322.06 C 631.15 327.53 626.80 332.55 621.03 333.77 C 615.61 335.28 609.93 335.39 604.34 335.59 C 604.48 316.85 603.58 298.01 606.37 279.41 Z" />
<path fill="#000000" d=" M 616.62 288.81 C 617.57 289.42 619.75 289.18 619.22 290.96 C 619.53 299.65 619.47 308.36 619.27 317.06 C 619.82 319.10 617.41 318.69 616.28 318.99 C 616.60 312.05 616.56 305.10 616.35 298.15 C 615.34 300.55 614.32 303.13 612.04 304.61 C 608.82 303.63 611.30 301.05 612.41 299.42 C 614.76 296.32 615.52 292.44 616.62 288.81 Z" />
<path fill="#f2f2f2" d=" M 584.81 297.89 C 586.90 294.80 589.74 290.31 594.12 291.38 C 596.17 291.45 598.17 293.04 598.51 295.10 C 599.07 303.27 598.55 312.56 592.31 318.65 C 589.00 318.81 584.52 319.66 582.65 316.10 C 581.70 309.97 582.88 303.71 584.81 297.89 Z" />
<path fill="#040403" d=" M 802.71 300.60 C 804.70 296.74 808.37 293.23 812.94 293.17 C 817.05 293.19 821.52 292.62 825.27 294.70 C 826.89 295.46 826.85 297.63 825.93 298.94 C 823.70 302.49 819.76 304.60 817.85 308.40 C 825.13 309.57 832.60 305.68 839.63 308.63 C 839.74 311.57 840.41 314.99 838.31 317.42 C 836.70 319.44 835.34 321.74 833.30 323.36 C 829.93 324.98 826.06 325.16 822.69 326.83 C 823.04 329.31 822.67 332.40 824.96 334.05 C 827.23 336.61 830.92 338.53 831.23 342.28 C 831.25 342.95 831.28 344.29 831.30 344.95 C 831.23 347.80 831.40 350.65 831.82 353.47 C 839.57 353.15 848.49 349.25 855.35 354.64 C 858.15 356.85 855.91 360.43 855.11 363.07 C 856.78 368.38 858.25 374.92 854.66 379.79 C 852.16 383.72 847.38 385.21 843.01 385.80 C 835.52 387.13 827.98 385.16 820.47 385.76 C 818.71 385.76 817.39 387.05 816.04 387.98 C 813.38 389.98 810.35 391.43 807.82 393.59 C 805.60 395.34 803.49 397.74 800.39 397.59 C 800.44 396.96 800.54 395.69 800.59 395.06 C 803.70 391.04 807.33 387.45 810.79 383.73 C 811.63 382.63 812.91 382.12 814.19 381.66 C 812.21 385.51 808.77 388.32 806.68 392.10 C 810.60 389.49 814.00 386.15 818.04 383.71 C 827.62 382.17 837.59 385.52 847.03 382.48 C 850.51 381.68 853.07 378.67 854.21 375.41 C 855.04 371.18 853.64 367.02 852.54 363.00 C 852.76 361.09 853.88 359.45 854.60 357.70 C 852.74 354.95 849.18 354.19 846.06 354.25 C 840.94 354.76 835.84 355.75 830.68 355.64 C 828.59 351.43 828.91 346.65 828.65 342.09 C 827.47 337.48 821.18 336.05 820.75 331.05 C 820.66 328.98 819.73 326.13 821.93 324.82 C 824.83 322.59 828.83 322.87 831.98 321.13 C 835.03 318.37 838.03 314.85 837.66 310.45 C 830.74 308.84 823.77 311.87 816.76 310.69 C 816.46 310.00 815.84 308.62 815.54 307.92 C 817.09 303.17 822.53 301.35 824.24 296.69 C 820.06 295.08 815.39 294.97 811.03 295.79 C 807.01 297.47 803.92 301.49 803.75 305.90 C 803.70 310.04 802.27 313.96 801.77 318.03 C 801.42 321.02 803.97 323.07 805.66 325.15 C 806.82 327.59 807.70 330.16 808.30 332.79 C 808.69 334.78 808.43 336.82 808.36 338.84 C 808.93 338.82 810.09 338.77 810.66 338.75 C 812.71 339.14 815.34 339.28 816.39 341.43 C 817.75 343.92 815.24 346.06 814.19 348.12 C 812.37 350.58 812.32 353.76 812.80 356.66 C 815.24 362.52 812.74 368.85 813.33 374.95 C 812.94 377.53 815.47 379.18 815.58 381.68 C 812.92 381.03 810.99 378.94 808.28 378.37 C 809.09 378.46 810.73 378.66 811.54 378.76 C 810.83 373.54 811.17 368.26 811.63 363.04 C 812.01 360.18 810.41 357.63 810.07 354.88 C 809.80 350.19 812.26 346.17 814.81 342.48 C 812.77 342.05 810.75 341.65 808.72 341.25 C 807.63 340.16 806.54 339.10 805.42 338.08 C 805.67 333.99 806.25 328.93 802.52 326.13 L 802.45 325.38 C 802.01 325.45 801.15 325.57 800.72 325.63 C 800.52 323.72 800.12 321.84 799.75 319.97 C 798.90 316.25 800.65 312.67 801.10 309.03 C 801.60 306.21 801.04 303.09 802.71 300.60 Z" />
<path fill="#000000" d=" M 590.45 295.52 C 591.65 293.84 593.75 294.57 595.48 294.49 C 596.12 301.81 595.82 309.76 591.14 315.83 C 589.22 315.81 587.32 315.73 585.42 315.56 C 585.11 308.75 585.13 300.55 590.45 295.52 Z" />
<path fill="#0f37fe" d=" M 680.64 298.76 C 683.98 297.77 687.52 298.20 690.96 298.29 C 690.76 299.26 690.57 300.23 690.39 301.21 C 687.16 301.19 683.94 301.44 680.72 301.34 C 680.70 300.69 680.66 299.41 680.64 298.76 Z" />
<path fill="#143bfe" d=" M 662.20 299.50 C 665.11 299.47 668.03 299.36 670.95 299.34 C 671.29 304.34 664.63 302.09 661.55 302.43 C 661.72 301.70 662.04 300.24 662.20 299.50 Z" />
<path fill="#0f37fe" d=" M 703.42 301.42 C 703.47 300.40 703.53 299.39 703.60 298.38 C 707.73 298.79 711.87 299.10 716.01 299.44 C 715.76 300.61 716.12 302.95 714.08 302.25 C 710.51 302.12 706.96 301.77 703.42 301.42 Z" />
<path fill="#1038fe" d=" M 726.02 303.02 C 726.76 301.88 727.76 301.34 729.03 301.39 C 732.86 301.50 736.70 301.68 740.54 301.67 C 740.59 302.62 740.65 303.58 740.72 304.55 C 735.85 304.14 730.39 305.80 726.02 303.02 Z" />
<path fill="#0f37fe" d=" M 641.53 303.82 C 645.00 303.25 648.47 302.64 651.96 302.13 C 651.84 303.15 651.60 304.13 651.24 305.08 C 648.37 306.05 645.33 306.54 642.31 306.63 C 642.12 305.93 641.73 304.52 641.53 303.82 Z" />
<path fill="#0f37fe" d=" M 755.43 305.36 C 760.67 305.69 766.49 305.64 770.91 308.92 C 770.46 309.32 769.54 310.12 769.08 310.52 C 764.66 309.13 760.09 308.56 755.49 308.28 C 755.43 307.31 755.41 306.33 755.43 305.36 Z" />
<path fill="#000000" d=" M 28.65 311.92 C 38.14 313.91 43.69 322.44 50.56 328.45 C 58.58 335.41 67.27 342.33 71.56 352.36 C 75.95 363.47 79.72 374.91 85.39 385.47 C 88.31 391.21 93.74 395.60 99.88 397.46 C 105.95 400.03 112.29 402.36 117.55 406.43 C 120.71 409.40 122.78 413.60 122.76 417.98 C 122.97 428.67 121.45 439.59 124.23 450.06 C 125.53 456.30 124.74 462.75 126.12 468.97 C 127.15 473.30 127.63 477.94 130.34 481.65 C 132.33 485.21 136.39 487.20 138.02 490.95 C 139.57 497.47 139.80 504.24 139.62 510.92 C 139.54 518.04 138.24 525.16 139.27 532.28 C 143.13 534.23 147.54 534.66 151.42 536.53 C 157.88 540.83 162.82 547.79 163.74 555.60 C 165.34 561.12 167.24 566.66 170.70 571.34 C 175.71 578.13 176.03 587.18 181.19 593.88 C 183.85 597.53 187.96 599.69 191.02 602.96 C 193.60 605.73 196.69 607.98 199.02 610.99 C 200.21 612.37 201.22 613.98 202.82 614.95 C 205.23 601.93 197.94 589.96 191.85 579.06 C 187.22 571.58 184.11 563.25 178.87 556.15 C 177.61 553.34 175.15 550.21 176.83 547.07 C 179.49 548.96 180.63 552.12 182.10 554.90 C 184.08 559.16 186.45 563.23 188.85 567.27 C 192.48 573.52 199.20 576.87 204.11 581.94 C 206.24 584.21 208.86 585.92 211.39 587.70 C 214.63 590.15 219.13 590.11 222.15 592.92 C 224.28 596.20 222.99 600.36 223.64 604.02 C 223.85 612.44 227.54 620.63 233.63 626.43 C 236.37 629.08 240.26 629.70 243.56 631.38 C 246.44 632.87 249.77 632.99 252.94 633.35 C 258.65 633.68 264.37 634.47 269.87 636.08 C 274.76 639.80 278.45 645.78 284.83 647.16 C 292.06 647.61 300.11 646.18 306.43 650.63 C 309.69 653.60 312.72 656.89 316.40 659.37 C 319.19 660.42 322.35 659.75 325.15 660.75 C 328.21 662.36 329.22 666.00 331.41 668.48 C 336.13 675.66 343.59 680.47 351.48 683.54 C 351.43 680.53 350.77 677.39 351.63 674.46 C 354.01 669.95 357.38 665.96 359.23 661.17 C 359.59 659.00 359.54 656.79 359.59 654.61 C 351.86 652.31 343.48 653.13 335.83 655.39 C 334.49 654.82 332.76 654.30 332.65 652.57 C 331.96 648.46 331.23 644.19 331.97 640.05 C 333.49 636.73 336.11 634.03 337.45 630.61 C 339.33 626.52 338.85 621.86 338.53 617.51 C 335.68 616.78 332.73 616.36 329.80 616.74 C 325.06 619.11 320.92 622.50 317.04 626.06 C 311.61 630.31 304.49 629.99 297.98 629.80 C 292.67 629.96 289.30 624.61 287.70 620.18 C 284.57 610.85 281.35 600.96 283.10 591.02 C 284.45 584.06 289.02 578.46 292.68 572.59 C 297.87 565.19 306.63 561.64 315.07 559.48 C 319.26 558.28 323.65 558.52 327.96 558.47 C 334.29 558.39 340.57 557.26 346.91 557.56 C 349.98 557.84 354.37 556.51 356.08 559.96 C 359.03 565.86 356.35 572.70 358.16 578.87 C 359.90 585.51 366.62 589.55 373.04 590.64 C 373.73 588.15 372.80 584.61 375.69 583.38 C 375.72 586.84 375.80 590.42 374.21 593.61 C 366.46 592.69 358.63 587.72 355.80 580.21 C 354.46 573.74 356.79 566.57 353.34 560.54 C 349.53 560.38 345.70 560.22 341.90 560.66 C 338.49 562.20 334.61 561.57 331.07 560.92 C 321.21 559.49 311.37 562.43 302.57 566.69 C 297.65 569.29 293.97 573.71 291.21 578.45 C 288.33 582.90 285.01 587.46 284.78 592.98 C 284.47 604.08 286.31 615.83 293.03 624.98 C 295.41 628.17 299.59 627.39 303.04 627.38 C 308.92 627.42 315.08 625.48 319.04 620.95 C 322.81 618.36 326.28 614.66 330.95 613.90 C 334.49 614.29 339.73 613.37 341.31 617.55 C 341.91 620.95 341.68 624.47 341.43 627.91 C 340.19 632.57 336.64 636.13 334.67 640.46 C 333.95 644.14 334.45 647.95 334.75 651.67 C 343.85 652.15 353.72 648.18 362.30 652.77 C 362.11 656.73 363.37 661.29 360.76 664.71 C 358.59 668.14 355.99 671.36 354.31 675.08 C 353.95 678.21 354.21 681.37 354.30 684.52 C 356.81 685.22 359.28 686.89 361.94 686.59 C 365.86 684.71 368.77 681.13 372.90 679.68 C 378.36 679.02 383.75 680.47 388.86 682.25 C 391.77 683.35 394.77 685.54 395.02 688.91 C 391.95 689.14 390.68 685.90 388.17 684.84 C 383.36 682.94 378.10 681.86 372.95 682.73 C 370.13 683.96 367.90 686.13 365.55 688.04 C 371.80 690.56 378.65 689.31 385.21 689.59 C 388.22 691.95 391.54 693.96 394.43 696.46 C 396.32 701.26 392.55 705.40 390.47 709.37 C 386.66 717.07 380.24 723.27 377.48 731.52 C 374.17 741.02 369.15 749.97 367.22 759.91 C 366.31 769.30 366.28 779.15 369.94 788.03 C 371.89 794.09 375.66 799.31 377.85 805.27 C 378.98 808.23 382.24 808.97 384.75 810.35 C 391.81 815.08 399.41 818.92 406.82 823.07 C 411.21 826.38 417.63 827.80 419.64 833.51 C 421.56 839.06 422.45 845.17 426.13 849.96 C 429.62 853.69 434.11 856.28 437.78 859.83 C 437.33 860.27 436.42 861.15 435.97 861.60 C 432.22 859.23 429.02 856.16 425.80 853.16 C 419.49 847.56 420.89 837.78 415.37 831.66 C 405.32 824.45 393.98 819.32 383.53 812.73 C 381.13 811.39 377.88 811.10 376.50 808.42 C 374.52 804.92 373.87 800.81 371.63 797.44 C 369.08 793.63 367.43 789.35 365.74 785.13 C 363.57 776.75 363.23 767.95 364.58 759.41 C 367.16 750.79 369.75 742.05 374.24 734.19 C 376.73 729.53 378.09 724.32 381.17 719.98 C 385.58 713.74 390.30 707.42 392.46 700.00 C 392.09 696.40 388.05 694.61 385.32 692.79 C 380.58 691.89 375.68 692.89 370.91 692.09 C 367.88 691.54 364.95 690.59 361.99 689.76 C 360.25 690.34 358.51 690.91 356.76 691.50 C 354.58 690.60 353.26 688.65 352.21 686.66 C 346.91 684.20 341.29 682.16 336.84 678.26 C 331.58 674.36 328.74 668.27 324.28 663.63 C 321.55 662.27 318.31 663.20 315.47 662.26 C 311.53 659.36 307.99 655.93 304.48 652.53 C 297.64 648.09 289.00 651.81 281.65 649.26 C 276.99 646.40 273.08 642.51 268.98 638.94 C 261.32 636.14 252.94 636.42 245.01 634.90 C 239.95 632.55 234.00 631.21 230.58 626.41 C 227.51 622.19 223.87 618.09 222.60 612.91 C 220.71 607.14 221.59 600.90 220.12 595.06 C 217.54 592.59 213.84 592.06 210.92 590.15 C 204.02 585.88 199.12 579.17 192.21 574.89 C 192.45 575.38 192.92 576.35 193.16 576.84 C 196.39 585.44 203.40 592.49 204.38 601.92 C 204.68 607.47 205.50 613.08 204.52 618.62 C 203.63 618.63 202.74 618.64 201.85 618.66 C 197.99 614.63 194.92 609.88 190.50 606.41 C 187.13 602.77 182.69 600.21 179.85 596.08 C 176.57 591.27 174.21 585.91 172.38 580.40 C 170.37 574.44 165.51 569.99 163.65 563.96 C 160.68 556.74 161.01 547.83 154.61 542.36 C 150.26 537.70 143.56 537.56 138.20 534.78 C 135.82 533.81 136.38 530.99 136.35 528.96 C 136.58 523.87 136.76 518.79 136.78 513.70 C 136.71 508.47 136.77 503.25 136.76 498.03 C 136.76 494.64 136.11 490.91 133.41 488.58 C 130.22 485.68 127.33 482.28 125.91 478.15 C 123.60 469.65 124.14 460.71 122.44 452.11 C 121.89 448.70 119.97 445.57 120.17 442.04 C 120.44 433.68 120.52 425.30 119.80 416.97 C 119.90 412.11 115.90 408.33 112.05 405.95 C 107.15 402.14 100.73 401.48 95.30 398.72 C 85.04 391.63 80.07 379.75 75.52 368.63 C 72.49 363.27 71.63 356.96 68.18 351.83 C 64.12 344.56 58.27 338.50 52.32 332.77 C 44.84 326.46 38.52 318.50 29.60 314.11 C 29.36 313.56 28.89 312.47 28.65 311.92 Z" />
<path fill="#0f37fe" d=" M 781.70 311.67 C 786.54 311.08 790.07 315.60 794.52 316.93 C 794.45 317.86 794.40 318.80 794.35 319.75 C 789.92 318.45 786.08 315.79 781.88 313.94 C 781.83 313.37 781.75 312.23 781.70 311.67 Z" />
<path fill="#0f37fe" d=" M 556.66 326.83 C 559.47 325.33 562.69 324.80 565.78 324.11 C 566.21 328.42 560.43 329.09 557.28 328.71 C 557.13 328.24 556.82 327.30 556.66 326.83 Z" />
<path fill="#133afe" d=" M 805.66 325.15 C 807.68 326.49 809.63 328.16 810.54 330.48 C 810.75 331.90 809.37 332.40 808.30 332.79 C 807.70 330.16 806.82 327.59 805.66 325.15 Z" />
<path fill="#010101" d=" M 765.90 337.95 C 769.14 331.41 776.33 328.13 782.97 326.08 C 786.75 324.74 790.72 325.98 794.16 327.67 C 795.25 332.87 798.55 337.90 797.39 343.34 C 794.26 345.68 790.40 346.77 787.06 348.77 C 788.78 353.99 789.85 359.42 789.63 364.95 C 789.27 368.80 791.82 373.44 788.60 376.60 C 782.83 381.45 774.84 381.13 767.97 383.28 C 765.33 383.86 761.71 384.69 759.93 382.00 C 758.23 379.43 756.70 376.73 755.43 373.93 C 754.33 370.92 756.89 368.48 758.00 365.93 C 759.76 362.50 758.99 358.56 759.49 354.90 C 760.76 348.94 764.01 343.69 765.90 337.95 Z" />
<path fill="#f5f4f0" d=" M 784.04 328.19 C 787.87 326.97 795.09 328.67 793.40 333.99 C 792.50 335.34 792.79 335.81 794.25 335.42 C 794.90 337.56 795.35 339.75 795.46 341.99 C 791.71 344.03 786.97 345.02 784.49 348.77 C 788.00 356.43 787.03 364.99 787.86 373.14 C 787.96 374.68 786.71 375.84 785.47 376.49 C 781.83 378.22 777.84 378.97 773.90 379.56 C 770.53 380.06 767.33 381.37 763.93 381.66 C 761.70 382.03 760.71 379.65 759.78 378.10 C 758.90 376.13 757.39 374.23 757.46 372.01 C 758.75 369.19 760.62 366.58 761.24 363.50 C 761.65 360.67 761.23 357.80 761.65 354.98 C 762.99 349.52 766.06 344.73 767.77 339.41 C 770.45 332.74 778.05 330.76 784.04 328.19 Z" />
<path fill="#0f37fe" d=" M 549.25 329.07 L 550.18 328.50 C 552.96 329.00 551.24 332.00 549.44 332.57 C 545.68 334.22 541.89 336.92 537.62 336.44 C 537.65 335.83 537.71 334.62 537.73 334.01 C 541.72 332.74 545.80 331.53 549.25 329.07 Z" />
<path fill="#5f74d9" d=" M 794.25 335.42 C 792.79 335.81 792.50 335.34 793.40 333.99 C 793.61 334.35 794.04 335.06 794.25 335.42 Z" />
<path fill="#dd4e0c" d=" M 810.66 338.75 C 816.49 332.93 827.95 337.65 827.84 345.95 C 828.98 353.87 819.87 359.85 812.80 356.66 C 812.32 353.76 812.37 350.58 814.19 348.12 C 815.24 346.06 817.75 343.92 816.39 341.43 C 815.34 339.28 812.71 339.14 810.66 338.75 Z" />
<path fill="#0f37fe" d=" M 519.24 340.33 C 523.60 340.06 527.45 337.47 531.81 337.40 C 531.55 339.09 530.66 340.52 528.95 340.93 C 525.87 342.16 522.61 343.41 519.23 342.87 C 519.23 342.23 519.24 340.96 519.24 340.33 Z" />
<path fill="#dd4e0c" d=" M 808.72 341.25 C 810.75 341.65 812.77 342.05 814.81 342.48 C 812.26 346.17 809.80 350.19 810.07 354.88 C 808.77 353.07 807.39 351.23 806.89 349.03 C 805.94 346.27 807.90 343.76 808.72 341.25 Z" />
<path fill="#0f37fe" d=" M 831.23 342.28 C 833.47 342.71 838.33 340.75 838.47 344.16 C 836.46 345.81 833.69 345.19 831.31 345.53 L 831.30 344.95 C 831.28 344.29 831.25 342.95 831.23 342.28 Z" />
<path fill="#1138fe" d=" M 842.17 342.17 C 845.02 342.61 852.53 341.55 850.34 346.41 C 847.75 345.97 845.17 345.50 842.57 345.20 C 842.42 344.19 842.29 343.18 842.17 342.17 Z" />
<path fill="#1138fe" d=" M 854.37 347.02 C 858.13 347.55 861.90 350.17 862.53 354.13 C 861.83 355.41 859.67 355.11 859.28 353.71 C 858.23 351.71 856.22 350.74 854.23 349.92 C 854.27 349.19 854.34 347.74 854.37 347.02 Z" />
<path fill="#0f37fe" d=" M 497.74 353.98 C 502.23 353.39 505.52 350.07 509.30 347.93 C 509.46 348.63 509.78 350.03 509.95 350.73 C 506.18 353.44 502.38 357.34 497.31 356.57 C 497.44 355.70 497.59 354.84 497.74 353.98 Z" />
<path fill="#252424" d=" M 623.79 359.22 C 628.96 359.77 634.28 360.06 639.17 362.00 C 642.58 363.50 645.83 366.34 646.37 370.23 C 642.99 370.41 644.05 366.44 641.97 364.98 C 640.82 364.06 639.50 363.39 638.24 362.67 C 633.78 361.40 629.08 361.70 624.60 360.86 C 624.39 360.45 623.99 359.63 623.79 359.22 Z" />
<path fill="#242423" d=" M 542.09 361.05 C 545.79 362.33 549.23 364.29 552.45 366.49 C 557.49 370.70 560.24 377.26 560.82 383.71 C 560.25 383.75 559.09 383.83 558.51 383.87 C 559.75 378.25 557.05 372.71 553.20 368.77 C 550.26 365.90 546.16 364.93 542.55 363.22 C 542.44 362.68 542.21 361.59 542.09 361.05 Z" />
<path fill="#133afe" d=" M 862.26 361.53 C 862.86 361.52 864.05 361.49 864.65 361.47 C 865.45 363.65 865.78 365.96 865.63 368.29 C 865.09 368.31 864.00 368.36 863.45 368.38 C 862.43 366.24 862.15 363.88 862.26 361.53 Z" />
<path fill="#1138fe" d=" M 487.02 364.20 C 488.17 364.78 489.34 365.31 490.50 365.87 C 487.36 367.73 484.68 370.75 480.84 371.05 C 481.50 367.75 484.61 366.13 487.02 364.20 Z" />
<path fill="#292928" d=" M 624.24 368.52 C 630.06 367.68 635.80 369.83 639.82 374.06 C 639.31 374.57 638.82 375.09 638.33 375.60 C 636.69 373.42 634.82 371.12 632.02 370.51 C 629.64 370.10 627.23 370.27 624.84 370.25 C 624.69 369.82 624.39 368.95 624.24 368.52 Z" />
<path fill="#0f0f0e" d=" M 538.09 369.59 C 543.41 368.29 547.04 373.92 548.71 378.17 C 548.58 378.64 548.32 379.58 548.19 380.05 C 546.85 377.95 545.89 375.59 544.21 373.74 C 542.23 372.26 539.90 371.30 538.09 369.59 Z" />
<path fill="#1038fe" d=" M 864.28 375.20 C 865.26 375.30 866.26 375.42 867.26 375.55 C 867.38 377.95 867.46 380.37 867.49 382.78 C 866.48 382.73 865.47 382.69 864.48 382.64 C 864.42 380.15 864.33 377.67 864.28 375.20 Z" />
<path fill="#121212" d=" M 623.74 377.74 C 628.22 377.16 633.04 376.91 637.25 378.86 C 637.31 379.36 637.41 380.37 637.47 380.87 C 635.61 380.26 634.01 378.95 632.07 378.64 C 629.01 378.49 626.02 379.32 622.99 379.53 C 623.18 379.08 623.55 378.19 623.74 377.74 Z" />
<path fill="#0f37fe" d=" M 473.45 378.35 C 473.93 378.40 474.89 378.50 475.38 378.55 C 475.41 379.04 475.48 380.03 475.51 380.52 C 473.74 382.41 472.10 384.75 469.29 385.03 C 469.28 384.37 469.24 383.05 469.23 382.39 C 470.72 381.13 472.10 379.75 473.45 378.35 Z" />
<path fill="#0f0f0e" d=" M 536.55 378.96 C 539.95 378.96 542.29 381.83 542.91 384.93 C 543.87 386.66 542.55 388.07 540.88 388.39 C 540.65 386.60 541.13 384.61 540.21 382.99 C 538.84 381.76 536.99 380.94 536.55 378.96 Z" />
<path fill="#1138fe" d=" M 463.28 390.97 C 466.09 388.80 466.08 393.28 464.71 394.68 C 462.39 397.81 460.22 401.19 457.15 403.64 C 454.52 403.66 455.51 400.73 456.78 399.77 C 459.23 397.05 461.62 394.26 463.28 390.97 Z" />
<path fill="#143bfe" d=" M 862.60 396.61 C 863.87 394.81 865.47 393.29 867.12 391.85 C 866.76 393.22 866.53 394.65 866.00 395.99 C 865.00 396.61 863.70 396.37 862.60 396.61 Z" />
<path fill="#1038fe" d=" M 862.53 406.91 C 858.34 405.46 862.72 399.64 865.86 400.25 C 865.99 402.96 864.07 404.94 862.53 406.91 Z" />
<path fill="#1038fe" d=" M 885.14 411.08 C 885.83 410.29 886.54 409.52 887.26 408.75 C 888.66 409.92 890.38 410.56 892.19 410.87 C 893.02 411.55 893.86 412.24 894.71 412.94 C 894.33 413.40 893.56 414.32 893.18 414.78 C 890.39 413.77 887.39 413.10 885.14 411.08 Z" />
<path fill="#0f37fe" d=" M 854.27 414.14 C 855.68 411.92 856.78 408.50 860.10 409.00 C 859.98 411.34 858.55 413.19 857.04 414.86 C 858.90 414.54 861.29 412.61 862.54 415.04 C 861.79 417.28 859.38 417.52 857.45 418.04 C 857.23 417.27 856.80 415.72 856.58 414.95 C 856.00 414.74 854.85 414.34 854.27 414.14 Z" />
<path fill="#133afe" d=" M 875.63 409.59 C 878.17 409.60 880.72 409.66 883.27 409.74 C 883.36 410.70 883.45 411.66 883.55 412.62 C 880.86 412.81 878.17 412.77 875.50 412.51 C 875.53 411.53 875.58 410.56 875.63 409.59 Z" />
<path fill="#0f37fe" d=" M 865.24 411.29 C 867.66 410.69 870.15 410.55 872.65 410.49 C 872.68 411.48 872.72 412.47 872.77 413.47 C 870.26 413.64 867.75 413.80 865.25 413.88 C 865.25 413.24 865.24 411.94 865.24 411.29 Z" />
<path fill="#1138fe" d=" M 445.03 421.94 C 446.10 418.27 447.84 414.81 449.80 411.54 C 450.41 411.54 451.62 411.52 452.22 411.51 C 451.28 415.10 450.09 418.81 447.67 421.70 C 447.01 421.76 445.69 421.88 445.03 421.94 Z" />
<path fill="#1138fe" d=" M 896.05 413.98 C 899.67 413.97 902.15 416.99 903.60 419.98 C 903.20 420.42 902.38 421.29 901.98 421.72 C 899.85 419.29 896.05 417.61 896.05 413.98 Z" />
<path fill="#dd4e0c" d=" M 839.74 421.94 C 844.20 422.07 847.55 418.95 850.33 415.86 C 853.33 416.70 856.44 418.09 857.96 421.00 C 861.33 426.09 858.49 433.80 852.70 435.62 C 847.47 437.83 841.02 434.37 839.53 429.00 C 838.87 426.67 839.38 424.26 839.74 421.94 Z" />
<path fill="#dd4e0c" d=" M 901.56 424.70 C 906.92 422.40 913.69 425.97 914.26 431.90 C 915.45 438.84 907.04 444.77 900.97 441.05 C 894.31 438.10 894.75 427.22 901.56 424.70 Z" />
<path fill="#1138fe" d=" M 441.10 432.13 C 442.28 430.73 443.52 429.38 444.80 428.08 C 444.41 432.08 443.96 438.06 438.79 438.39 C 439.28 436.21 440.03 434.09 441.10 432.13 Z" />
<path fill="#1138fe" d=" M 914.12 429.72 C 917.85 427.74 920.34 431.61 922.06 434.30 C 921.12 434.38 919.97 436.09 919.08 434.98 C 917.25 433.40 915.63 431.59 914.12 429.72 Z" />
<path fill="#143bfe" d=" M 916.42 442.41 C 916.71 440.18 918.05 438.20 920.53 439.26 C 920.58 440.54 920.64 441.82 920.70 443.11 C 919.69 443.12 917.68 443.15 916.67 443.16 C 916.61 442.97 916.48 442.60 916.42 442.41 Z" />
<path fill="#0f37fe" d=" M 434.58 448.75 C 435.19 447.08 434.30 442.94 437.19 443.64 C 438.83 445.90 437.73 448.75 437.48 451.26 C 436.86 451.57 435.61 452.18 434.99 452.49 C 432.45 452.52 433.77 449.85 434.58 448.75 Z" />
<path fill="#dd4e0c" d=" M 885.34 454.19 C 886.58 451.10 888.61 447.92 892.11 447.15 C 896.99 445.38 901.59 449.11 903.74 453.24 L 902.86 453.93 C 901.05 454.68 901.60 457.39 903.40 457.77 C 903.28 458.04 903.06 458.58 902.95 458.85 C 902.53 459.80 902.14 460.75 901.76 461.71 C 899.84 459.80 898.33 457.44 896.04 455.94 C 892.67 454.53 888.93 454.38 885.34 454.19 Z" />
<path fill="#0f37fe" d=" M 914.38 449.44 C 914.92 449.54 916.02 449.74 916.56 449.84 C 916.34 452.44 914.04 453.93 912.27 455.52 C 911.59 455.20 910.25 454.57 909.57 454.25 C 909.57 454.16 909.58 454.00 909.58 453.92 C 911.16 452.41 912.80 450.96 914.38 449.44 Z" />
<path fill="#0f37fe" d=" M 252.60 452.70 C 255.56 452.84 258.63 452.66 261.47 453.67 C 262.68 454.08 262.23 455.71 262.71 456.63 C 259.22 456.34 255.76 455.84 252.27 455.59 C 252.38 454.62 252.49 453.66 252.60 452.70 Z" />
<path fill="#1038fe" d=" M 237.38 455.30 C 241.23 454.48 245.08 453.54 249.04 453.43 C 248.91 454.13 248.67 455.54 248.55 456.24 C 244.91 456.98 241.25 457.86 237.50 457.75 C 237.47 457.14 237.41 455.92 237.38 455.30 Z" />
<path fill="#0a0a0a" d=" M 903.40 457.77 C 901.60 457.39 901.05 454.68 902.86 453.93 L 903.60 454.21 C 904.07 455.41 904.00 456.60 903.40 457.77 Z" />
<path fill="#133afe" d=" M 903.60 454.21 C 904.40 454.21 906.00 454.23 906.81 454.23 C 906.88 454.95 907.02 456.40 907.09 457.12 C 905.93 457.26 904.78 457.40 903.65 457.57 C 903.47 457.89 903.12 458.53 902.95 458.85 C 903.06 458.58 903.28 458.04 903.40 457.77 C 904.00 456.60 904.07 455.41 903.60 454.21 Z" />
<path fill="#0f37fe" d=" M 266.55 456.23 C 269.66 457.02 274.56 458.56 274.49 462.28 C 271.44 463.22 269.22 459.74 266.35 459.11 C 266.41 458.15 266.47 457.19 266.55 456.23 Z" />
<path fill="#dd4e0c" d=" M 418.51 474.62 C 415.39 466.86 420.82 457.35 428.94 455.76 C 433.53 454.54 438.07 456.49 441.92 458.87 C 438.09 461.64 434.32 464.86 432.13 469.13 C 430.42 473.99 433.52 480.18 429.49 484.25 C 424.71 482.70 420.11 479.61 418.51 474.62 Z" />
<path fill="#dd4e0c" d=" M 885.22 457.17 C 888.39 457.18 891.65 457.42 894.62 458.63 C 896.33 459.71 897.45 461.46 898.73 462.99 L 899.42 464.15 C 896.16 464.71 892.35 465.60 889.48 463.42 C 887.27 461.98 886.21 459.48 885.22 457.17 Z" />
<path fill="#f5f4f0" d=" M 907.09 457.12 C 908.05 461.34 909.80 465.91 913.84 468.07 C 921.25 472.35 928.49 476.91 936.00 481.00 C 940.14 483.83 938.17 489.54 938.46 493.74 C 935.48 496.82 933.76 501.23 929.63 503.02 C 928.96 497.66 929.62 492.25 929.08 486.90 C 928.79 484.24 926.68 482.04 924.07 481.60 C 917.70 480.06 911.97 475.97 908.70 470.27 C 906.85 467.06 904.58 464.12 901.76 461.71 C 902.14 460.75 902.53 459.80 902.95 458.85 C 903.12 458.53 903.47 457.89 903.65 457.57 C 904.78 457.40 905.93 457.26 907.09 457.12 Z" />
<path fill="#0f37fe" d=" M 182.47 458.60 C 185.41 457.83 188.51 458.24 191.52 458.22 C 191.55 458.84 191.59 460.07 191.61 460.68 C 189.08 461.09 186.52 461.17 183.98 461.44 C 182.40 461.85 180.93 464.12 179.36 462.54 C 178.67 460.53 181.05 459.42 182.47 458.60 Z" />
<path fill="#0f37fe" d=" M 225.31 460.46 C 227.58 459.28 229.92 458.21 232.32 457.31 C 232.47 458.31 232.62 459.31 232.77 460.32 C 230.48 461.48 228.14 462.63 225.55 462.91 C 225.49 462.30 225.37 461.07 225.31 460.46 Z" />
<path fill="#0f37fe" d=" M 195.21 459.35 C 198.80 459.31 203.19 459.27 205.66 462.33 C 205.72 463.02 205.84 464.42 205.90 465.12 C 202.51 463.84 199.39 461.73 195.58 462.17 C 195.45 461.23 195.33 460.29 195.21 459.35 Z" />
<path fill="#dc4601" d=" M 211.35 461.47 C 220.23 457.17 229.79 469.61 224.31 477.34 C 220.57 482.81 212.05 481.50 208.27 476.72 C 203.55 472.34 205.49 463.79 211.35 461.47 Z" />
<path fill="#dd4e0c" d=" M 434.85 470.48 C 436.62 466.42 440.33 463.59 443.82 461.05 C 445.79 464.96 447.45 469.50 445.84 473.85 C 444.32 479.45 439.19 483.16 433.69 484.31 C 434.53 479.73 434.28 475.06 434.85 470.48 Z" />
<path fill="#0f37fe" d=" M 168.56 465.65 C 170.91 464.00 173.70 463.20 176.41 462.36 C 176.58 463.38 176.75 464.40 176.91 465.43 C 174.20 466.35 171.16 466.94 169.06 469.05 C 167.63 470.42 166.25 471.86 164.58 472.96 C 163.30 469.73 166.14 467.25 168.56 465.65 Z" />
<path fill="#0f37fe" d=" M 276.26 464.52 C 277.25 464.49 278.24 464.47 279.23 464.46 C 279.57 467.48 282.92 471.33 280.03 473.74 C 277.22 471.66 277.15 467.65 276.26 464.52 Z" />
<path fill="#1038fe" d=" M 156.78 475.73 C 157.67 473.93 159.81 474.62 161.41 474.46 C 161.44 475.42 161.46 476.38 161.48 477.34 C 160.88 477.44 159.67 477.62 159.07 477.72 C 157.62 479.53 156.55 482.65 153.63 481.89 C 153.06 479.33 155.56 477.66 156.78 475.73 Z" />
<path fill="#0f37fe" d=" M 280.72 475.57 C 281.74 475.35 282.76 475.14 283.78 474.95 C 284.03 476.99 284.32 479.06 284.20 481.14 C 284.65 482.91 282.44 482.61 281.43 482.99 C 281.25 480.51 281.03 478.03 280.72 475.57 Z" />
<path fill="#0f37fe" d=" M 443.27 481.29 C 449.45 480.43 449.46 488.36 449.55 492.59 C 448.55 492.68 447.56 492.77 446.57 492.87 C 447.12 488.57 445.23 484.92 443.27 481.29 Z" />
<path fill="#0f37fe" d=" M 146.56 494.01 C 148.04 490.48 149.40 485.27 153.98 484.95 C 153.81 488.39 150.97 490.83 149.71 493.90 C 149.44 495.61 146.47 496.39 146.56 494.01 Z" />
<path fill="#dd4e0c" d=" M 276.38 486.54 C 282.49 484.67 289.58 487.91 291.68 494.04 C 294.73 501.31 288.84 510.32 280.99 510.55 C 275.04 511.17 269.32 506.74 268.05 500.97 C 266.51 494.98 270.48 488.27 276.38 486.54 Z" />
<path fill="#0f37fe" d=" M 445.34 497.39 C 445.94 497.42 447.14 497.49 447.74 497.52 C 447.91 501.74 447.92 507.15 443.99 509.75 C 440.74 510.48 442.94 506.73 443.60 505.54 C 444.89 503.02 444.68 500.08 445.34 497.39 Z" />
<path fill="#0f37fe" d=" M 143.76 505.05 C 143.69 502.54 145.45 500.68 147.11 499.05 C 150.21 501.14 146.86 504.25 146.25 506.77 C 145.10 508.53 143.40 506.40 143.76 505.05 Z" />
<path fill="#dd4e0c" d=" M 139.62 510.92 C 144.13 509.22 149.71 509.12 153.31 512.77 C 158.52 517.10 158.49 525.95 153.22 530.22 C 149.51 533.92 143.93 533.55 139.27 532.28 C 138.24 525.16 139.54 518.04 139.62 510.92 Z" />
<path fill="#2b4efe" d=" M 273.87 511.55 C 274.49 511.17 275.73 510.43 276.34 510.06 C 277.44 514.30 277.91 518.96 276.27 523.13 C 275.68 522.68 274.51 521.79 273.93 521.34 C 273.67 518.09 273.69 514.80 273.87 511.55 Z" />
<path fill="#0f37fe" d=" M 438.92 511.56 C 439.85 511.51 440.78 511.47 441.71 511.45 C 441.71 517.54 436.44 521.35 432.08 524.67 C 431.58 524.54 430.57 524.28 430.06 524.14 C 430.39 521.29 433.39 520.08 435.16 518.20 C 437.35 516.62 438.11 513.98 438.92 511.56 Z" />
<path fill="#dd4e0c" d=" M 136.35 528.96 C 132.79 524.61 132.75 517.76 136.78 513.70 C 136.76 518.79 136.58 523.87 136.35 528.96 Z" />
<path fill="#0f37fe" d=" M 360.01 514.86 C 363.98 513.34 368.26 513.74 372.42 513.52 C 372.50 514.52 372.58 515.53 372.67 516.54 C 368.63 516.71 364.48 516.31 360.60 517.74 C 360.46 517.02 360.16 515.58 360.01 514.86 Z" />
<path fill="#0f37fe" d=" M 377.25 516.08 C 380.36 516.49 383.21 517.82 386.12 518.92 C 385.03 523.79 380.09 519.45 377.21 518.74 C 377.22 518.08 377.24 516.74 377.25 516.08 Z" />
<path fill="#dd4e0c" d=" M 381.97 535.01 C 379.80 527.65 385.38 519.26 392.96 518.38 C 396.61 517.71 400.14 519.06 403.37 520.62 C 403.38 522.41 403.38 524.20 403.31 526.00 C 403.35 533.77 397.94 540.35 392.30 545.12 C 387.59 543.48 383.11 540.11 381.97 535.01 Z" />
<path fill="#0f37fe" d=" M 343.71 524.39 C 345.99 520.90 349.88 518.43 354.17 518.80 C 354.35 519.41 354.72 520.63 354.90 521.25 C 350.16 521.72 346.80 524.92 343.49 527.99 C 343.34 530.21 341.81 531.89 340.61 533.63 C 339.96 533.53 338.67 533.33 338.02 533.23 C 338.06 529.06 343.02 528.07 343.71 524.39 Z" />
<path fill="#dd4e0c" d=" M 405.83 523.19 C 408.10 526.95 409.37 531.57 407.85 535.87 C 406.29 541.12 401.21 544.63 395.88 545.17 C 398.81 541.60 401.29 537.68 404.02 533.95 C 406.50 530.92 405.68 526.79 405.83 523.19 Z" />
<path fill="#0f37fe" d=" M 416.16 530.49 C 420.01 529.15 423.56 526.74 427.67 526.30 C 427.70 526.91 427.77 528.14 427.80 528.75 C 424.15 530.64 420.33 532.49 416.22 533.04 C 416.20 532.41 416.18 531.13 416.16 530.49 Z" />
<path fill="#0f37fe" d=" M 276.97 527.87 C 280.15 527.83 280.90 531.29 282.35 533.44 C 283.23 534.61 283.01 537.20 280.90 536.37 C 278.67 534.08 277.03 531.12 276.97 527.87 Z" />
<path fill="#dd4e0c" d=" M 328.50 539.49 C 333.90 534.63 343.33 535.74 347.33 541.85 C 350.87 546.44 350.29 553.06 346.91 557.56 C 340.57 557.26 334.29 558.39 327.96 558.47 C 322.41 553.75 322.85 543.98 328.50 539.49 Z" />
<path fill="#0f37fe" d=" M 285.00 538.95 C 288.02 539.56 290.72 541.16 293.21 542.91 L 293.48 544.14 C 293.13 544.48 292.44 545.15 292.09 545.49 C 289.29 543.99 284.68 542.93 285.00 538.95 Z" />
<path fill="#0f37fe" d=" M 296.45 548.48 C 295.12 547.87 295.54 546.28 295.34 545.15 C 298.89 546.65 302.70 546.89 306.50 546.63 C 306.47 547.31 306.40 548.67 306.37 549.34 C 303.15 550.02 299.33 550.36 296.45 548.48 Z" />
<path fill="#0f37fe" d=" M 310.64 549.69 C 314.01 549.24 317.42 549.41 320.82 549.39 C 320.69 550.38 320.56 551.38 320.43 552.38 C 317.11 552.43 313.79 552.43 310.48 552.37 C 310.52 551.70 310.60 550.36 310.64 549.69 Z" />
<path fill="#010101" d=" M 408.88 673.95 C 415.97 671.18 423.29 668.33 431.02 668.45 C 435.89 668.49 441.01 667.67 445.67 669.51 C 450.74 671.71 454.78 675.60 458.20 679.86 C 464.38 685.48 471.35 691.27 479.97 692.28 C 489.32 692.73 498.68 693.14 508.05 693.17 C 511.77 693.14 515.08 695.01 518.38 696.49 C 522.55 698.38 526.85 700.52 529.80 704.15 C 531.43 707.04 532.38 710.26 533.65 713.34 C 536.24 715.06 538.66 717.02 541.21 718.81 C 545.61 721.39 546.97 726.70 548.64 731.16 C 550.32 735.62 548.55 741.30 551.94 745.06 C 558.56 749.82 567.17 749.37 574.94 749.63 C 585.74 750.18 596.62 748.45 607.37 749.85 C 614.34 753.65 620.98 758.91 624.85 766.00 C 627.40 769.90 626.12 774.80 627.63 779.06 C 631.35 780.86 635.79 782.31 637.80 786.26 C 640.66 792.53 639.48 800.07 635.72 805.72 C 632.52 810.31 629.88 815.27 627.71 820.43 C 621.75 831.00 618.99 843.04 617.91 855.04 C 617.90 858.07 615.64 860.35 613.07 861.59 C 612.60 861.23 611.65 860.51 611.17 860.16 C 612.60 858.62 614.48 857.33 615.24 855.31 C 617.08 848.00 618.22 840.54 619.82 833.18 C 621.26 827.10 625.16 821.99 626.91 816.01 C 628.69 809.17 635.81 805.12 636.68 797.94 C 636.58 794.43 636.93 790.64 635.29 787.43 C 633.04 783.20 627.22 783.25 624.66 779.34 C 623.93 775.54 624.85 771.46 623.19 767.84 C 619.94 760.77 613.34 756.04 606.93 752.05 C 602.74 751.02 598.29 750.72 593.97 751.15 C 584.64 751.68 575.30 751.57 565.96 751.75 C 560.27 751.99 554.62 750.10 549.87 747.06 C 545.58 742.02 548.29 734.56 545.44 728.87 C 543.57 722.13 536.64 719.37 531.61 715.40 C 530.15 713.18 530.03 710.41 528.93 708.04 C 527.93 705.52 525.58 703.97 523.50 702.43 C 518.07 698.68 511.83 695.32 505.02 695.69 C 492.57 695.54 478.92 697.07 467.84 690.16 C 463.22 686.83 458.70 683.26 454.87 679.02 C 451.23 675.18 446.73 671.89 441.47 670.77 C 430.25 669.18 418.55 671.26 408.62 676.76 C 404.69 680.36 402.22 685.27 400.19 690.13 C 398.59 693.90 399.91 698.56 397.01 701.82 L 395.73 700.04 C 396.84 694.36 398.77 688.87 400.77 683.44 C 402.30 679.55 404.73 675.43 408.88 673.95 Z" />
<path fill="#090908" d=" M 1118.10 709.05 C 1118.72 708.02 1120.41 708.80 1119.69 710.03 C 1118.71 711.87 1116.40 712.52 1115.05 714.07 C 1109.70 719.50 1103.01 723.30 1097.20 728.19 C 1090.38 733.69 1083.79 739.90 1079.79 747.81 C 1075.55 755.75 1071.00 763.54 1067.74 771.95 C 1065.53 781.74 1069.48 791.41 1069.11 801.24 C 1069.03 802.78 1067.55 802.62 1066.45 802.76 C 1067.08 792.77 1064.32 782.89 1065.08 772.92 C 1067.48 765.11 1072.95 758.70 1076.66 751.49 C 1080.81 742.93 1086.42 734.89 1094.00 729.03 C 1099.14 724.74 1104.48 720.70 1110.24 717.26 C 1113.28 714.95 1115.81 712.09 1118.10 709.05 Z" />
</svg>
