<?xml version="1.0" encoding="UTF-8" ?>
<!DOCTYPE svg PUBLIC "-//W3C//DTD SVG 1.1//EN" "http://www.w3.org/Graphics/SVG/1.1/DTD/svg11.dtd">
<svg width="1155pt" height="866pt" viewBox="0 0 1155 866" version="1.1" xmlns="http://www.w3.org/2000/svg">
<path fill="#f5f4f0" d=" M 0.00 0.00 L 1155.00 0.00 L 1155.00 866.00 L 0.00 866.00 L 0.00 0.00 Z" />
<path fill="#010101" d=" M 209.97 180.71 C 219.99 180.65 230.06 179.85 240.06 180.86 C 249.66 182.41 259.40 181.24 269.06 181.12 C 284.53 179.26 300.16 179.61 315.71 179.64 C 317.05 183.99 316.15 188.58 315.83 193.01 C 314.95 209.99 312.85 226.98 314.07 244.00 C 314.30 245.34 313.81 246.40 312.59 247.18 C 312.54 247.76 312.44 248.92 312.39 249.49 C 303.27 249.58 294.15 249.52 285.04 249.31 C 275.71 248.45 266.31 248.92 257.00 247.79 C 248.01 247.57 239.01 247.70 230.02 247.88 C 222.66 248.50 215.24 247.92 207.90 248.83 C 207.19 247.60 206.45 246.40 205.69 245.21 C 206.21 224.22 205.17 203.20 206.51 182.23 C 207.66 181.73 208.82 181.23 209.97 180.71 Z" />
<path fill="#f5f4f0" d=" M 209.49 183.96 C 219.34 183.40 229.24 182.91 239.11 183.54 C 254.02 185.53 269.01 183.17 283.94 182.64 C 293.79 182.66 303.64 182.44 313.49 182.54 C 313.54 189.69 312.47 196.78 312.44 203.93 C 311.07 218.11 310.87 232.38 311.35 246.62 C 297.23 246.68 283.10 246.68 269.00 246.02 C 258.34 245.00 247.64 245.14 236.95 245.19 C 227.54 245.32 218.13 245.09 208.73 245.46 C 208.71 224.96 208.01 204.42 209.49 183.96 Z" />
<path fill="#020202" d=" M 218.24 188.58 C 221.22 187.71 224.33 187.80 227.39 188.14 C 235.59 188.38 243.81 188.26 252.00 187.84 C 266.00 187.67 279.99 188.57 293.99 187.84 C 299.39 187.90 304.85 187.52 310.19 188.57 C 310.96 201.39 309.51 214.18 309.52 227.00 C 309.44 231.26 309.71 235.63 308.29 239.74 C 294.20 238.80 280.08 239.95 266.04 241.21 C 257.01 241.38 247.96 241.35 238.93 241.24 C 231.30 240.51 223.64 240.26 216.02 239.51 C 214.66 239.65 213.88 238.29 213.84 237.09 C 213.28 231.09 213.60 225.06 213.68 219.04 C 213.73 208.87 213.50 198.70 213.60 188.54 C 214.59 188.52 215.57 188.51 216.56 188.51 C 216.88 204.51 215.87 220.53 216.78 236.51 C 224.19 237.29 231.63 237.63 239.04 238.42 C 251.03 238.39 263.11 239.25 275.04 237.61 C 285.43 236.95 295.83 236.15 306.25 236.54 C 306.67 221.30 307.88 206.07 307.45 190.81 C 283.63 190.89 259.82 190.27 236.01 190.79 C 230.18 190.97 224.31 190.37 218.54 191.45 C 218.43 190.49 218.33 189.54 218.24 188.58 Z" />
<path fill="#dd4e0c" d=" M 248.19 199.20 C 251.81 196.49 256.71 196.02 261.08 196.61 C 264.67 198.18 267.34 202.92 265.58 206.69 C 263.37 209.50 259.70 210.77 257.67 213.76 C 255.88 216.00 255.69 218.97 255.23 221.69 C 254.31 221.57 253.39 221.46 252.48 221.34 C 252.82 218.42 252.92 215.25 254.71 212.78 C 256.94 209.18 260.89 207.29 263.74 204.28 C 262.69 202.74 262.14 200.63 260.50 199.60 C 256.60 198.64 252.68 200.08 249.18 201.72 C 249.41 203.55 249.41 205.61 251.01 206.85 C 251.69 207.75 253.80 209.45 252.09 210.44 C 246.91 210.52 244.11 202.51 248.19 199.20 Z" />
<path fill="#dd4e0c" d=" M 505.67 197.94 C 508.46 196.34 511.73 196.48 514.76 197.21 C 511.75 210.36 510.07 223.84 509.53 237.33 C 510.07 237.65 511.15 238.28 511.70 238.60 C 511.64 239.14 511.53 240.22 511.47 240.76 C 508.48 240.84 505.49 240.84 502.51 240.77 C 502.49 240.15 502.44 238.90 502.42 238.28 C 503.81 238.02 505.21 237.78 506.63 237.56 C 507.35 225.14 508.92 212.80 510.50 200.47 C 508.86 199.67 507.25 198.83 505.67 197.94 Z" />
<path fill="#dd4e0c" d=" M 524.58 202.57 C 529.43 200.27 535.28 198.75 540.49 200.69 C 545.12 203.31 545.94 209.17 546.39 213.97 C 546.43 217.12 547.29 221.14 544.41 223.37 C 539.64 227.24 533.13 227.32 527.35 226.37 C 526.85 232.48 526.52 238.62 525.78 244.71 C 525.12 244.68 523.82 244.62 523.16 244.59 C 523.15 238.37 524.49 232.25 524.58 226.03 C 524.74 218.21 524.56 210.39 524.58 202.57 Z" />
<path fill="#f5f4f0" d=" M 527.63 204.38 C 531.81 203.47 537.73 200.73 540.97 204.94 C 543.84 209.40 543.83 215.08 543.50 220.19 C 539.46 224.42 532.85 224.97 527.51 223.18 C 527.52 216.91 527.56 210.64 527.63 204.38 Z" />
<path fill="#dd4e0c" d=" M 557.76 210.71 C 559.78 206.01 565.43 204.29 570.17 204.80 C 574.53 205.59 576.72 210.20 577.61 214.10 C 577.78 216.37 578.40 219.47 576.10 220.90 C 571.99 223.72 566.80 224.62 562.97 227.92 C 560.63 229.94 558.36 232.08 556.49 234.56 C 554.10 237.77 553.81 241.91 553.21 245.73 C 552.24 245.62 551.29 245.51 550.34 245.40 C 551.01 240.48 551.86 235.16 555.39 231.39 C 558.60 227.94 561.92 224.34 566.33 222.42 C 569.21 221.12 572.11 219.86 574.94 218.46 C 575.30 214.20 573.61 210.14 570.37 207.37 C 567.07 207.81 563.01 207.87 560.97 210.98 C 558.80 213.65 563.66 218.00 559.92 219.66 C 557.31 217.55 556.87 213.75 557.76 210.71 Z" />
<path fill="#dd4e0c" d=" M 344.97 216.44 C 352.98 216.57 360.99 216.56 368.97 215.83 C 397.03 215.51 425.11 215.05 453.17 215.75 C 459.77 216.55 466.43 216.27 473.05 216.79 C 478.88 217.60 484.82 217.93 490.56 219.31 C 482.63 219.40 474.86 217.17 466.91 217.36 C 442.32 215.69 417.64 216.44 393.01 216.40 C 382.02 216.88 370.99 216.04 360.04 217.20 C 352.19 217.72 344.28 216.94 336.48 218.20 C 334.64 218.65 332.91 218.00 331.41 216.93 C 335.84 215.67 340.45 216.40 344.97 216.44 Z" />
<path fill="#dd4e0c" d=" M 253.23 225.46 C 253.81 225.50 254.99 225.56 255.58 225.60 C 255.59 226.50 255.61 227.41 255.63 228.32 C 255.03 228.36 253.83 228.45 253.22 228.49 C 253.22 227.48 253.22 226.47 253.23 225.46 Z" />
<path fill="#dd4e0c" d=" M 576.25 235.32 C 596.65 241.22 617.22 246.54 637.81 251.76 C 643.99 253.24 650.00 255.32 656.02 257.35 C 663.21 259.44 670.48 261.26 677.58 263.65 C 689.80 267.63 701.18 273.78 713.38 277.82 C 728.01 283.52 743.35 287.84 756.72 296.33 C 764.48 301.39 772.60 305.86 780.49 310.70 C 783.95 312.63 787.33 314.80 791.11 316.07 C 794.40 312.72 794.54 307.43 798.22 304.40 C 798.29 303.83 798.42 302.69 798.49 302.11 C 799.31 302.18 800.14 302.26 800.98 302.34 C 803.35 311.78 809.87 319.23 814.49 327.56 C 816.22 330.06 818.18 332.45 819.20 335.36 C 807.33 337.35 795.22 335.99 783.25 336.31 C 782.14 335.13 780.36 333.92 781.39 332.08 C 783.75 326.64 787.93 322.21 790.73 316.98 C 777.39 310.45 765.01 302.19 752.26 294.62 C 735.82 285.57 717.46 280.98 700.28 273.62 C 692.22 270.23 684.26 266.54 675.89 263.95 C 668.96 261.62 661.83 259.98 654.85 257.82 C 641.09 252.79 626.68 249.93 612.57 246.11 C 600.32 243.19 588.34 239.30 576.14 236.24 C 576.17 236.01 576.22 235.55 576.25 235.32 Z" />
<path fill="#dd4e0c" d=" M 546.44 255.73 C 546.94 255.75 547.94 255.80 548.43 255.82 C 548.58 256.75 548.73 257.68 548.88 258.62 C 548.18 258.66 546.79 258.76 546.10 258.81 C 546.20 257.78 546.32 256.75 546.44 255.73 Z" />
<path fill="#000000" d=" M 299.91 257.67 C 305.01 257.89 309.98 256.75 315.02 256.46 C 318.81 265.96 322.07 275.66 325.78 285.19 C 326.96 288.17 328.86 290.90 329.53 294.07 C 329.89 295.99 327.58 297.07 326.00 296.20 C 325.28 294.92 324.73 293.55 324.15 292.21 C 309.76 292.60 295.38 291.60 280.99 291.83 C 266.38 293.07 251.70 291.82 237.08 292.71 C 222.39 292.50 207.70 293.02 193.00 292.75 C 190.56 292.59 187.82 292.73 185.85 291.02 C 184.91 288.95 186.53 287.11 187.51 285.42 C 194.58 276.29 201.76 267.17 207.97 257.44 C 212.91 258.56 217.99 258.33 223.02 258.44 C 235.02 258.91 247.03 258.76 259.04 258.82 C 272.67 258.67 286.35 259.30 299.91 257.67 Z" />
<path fill="#f5f4f0" d=" M 292.12 261.08 C 298.89 260.20 305.74 260.86 312.54 260.45 C 315.75 269.45 319.07 278.43 322.08 287.51 C 308.05 287.85 294.01 287.56 279.98 287.86 C 266.01 289.18 251.92 288.01 237.95 289.45 C 221.47 289.65 204.92 291.28 188.49 289.33 C 192.78 282.47 198.26 276.44 202.93 269.85 C 204.98 266.87 207.30 264.09 209.54 261.25 C 231.68 261.63 253.83 261.46 275.98 261.49 C 281.36 261.46 286.75 261.58 292.12 261.08 Z" />
<path fill="#000000" d=" M 215.08 270.53 C 216.34 270.22 217.61 269.97 218.88 269.77 C 235.96 269.00 252.99 270.76 270.06 270.88 C 281.77 271.68 293.52 270.91 305.24 271.33 C 305.32 271.86 305.49 272.92 305.57 273.45 C 285.73 273.90 265.82 273.65 246.00 272.62 C 235.84 272.67 225.58 271.89 215.51 273.36 C 215.36 272.42 215.22 271.47 215.08 270.53 Z" />
<path fill="#000000" d=" M 277.08 280.00 C 284.86 278.97 292.63 277.95 300.46 277.32 C 300.70 277.74 301.18 278.58 301.42 279.00 C 301.13 279.34 300.56 280.03 300.27 280.38 C 289.78 280.40 279.52 283.26 269.01 282.61 C 255.63 283.11 242.31 281.03 228.94 281.79 C 225.90 281.74 222.20 284.00 219.94 280.95 C 225.11 277.90 231.36 278.91 237.08 278.74 C 250.39 279.51 263.74 280.57 277.08 280.00 Z" />
<path fill="#000000" d=" M 933.44 282.72 C 936.28 282.33 939.17 282.23 942.05 282.38 C 942.38 283.05 943.05 284.38 943.38 285.04 C 942.88 292.70 941.58 300.33 941.80 308.03 C 942.07 318.69 941.13 329.33 941.38 339.99 C 941.49 345.88 941.15 351.77 940.51 357.63 C 939.17 357.61 937.85 357.58 936.54 357.51 C 936.71 338.35 937.72 319.17 938.30 300.00 C 938.34 295.14 939.68 290.42 939.84 285.57 C 938.65 285.55 937.48 285.53 936.32 285.51 C 934.68 299.97 935.40 314.53 935.29 329.04 C 935.22 338.13 935.48 347.22 935.30 356.31 C 934.64 356.70 933.32 357.47 932.66 357.86 C 931.97 353.92 932.35 349.92 932.32 345.95 C 932.38 331.97 932.40 318.00 932.42 304.02 C 932.34 296.90 933.36 289.84 933.44 282.72 Z" />
<path fill="#000000" d=" M 858.59 287.60 C 860.68 287.48 862.79 287.47 864.90 287.54 C 865.38 289.32 865.66 291.14 865.65 293.00 C 865.60 314.03 865.39 335.08 866.12 356.10 C 865.96 357.75 865.36 359.31 864.72 360.83 C 876.45 359.73 888.25 360.35 900.01 360.15 C 912.33 359.26 924.60 361.88 936.94 361.13 C 945.30 360.31 953.65 361.52 962.02 361.55 C 963.57 361.56 965.84 361.60 966.43 363.39 C 968.47 374.34 963.91 385.08 964.56 396.05 C 964.40 397.89 965.00 400.26 963.21 401.50 C 959.50 402.02 955.73 401.48 952.05 402.14 C 943.98 402.21 936.05 404.11 927.98 403.81 C 909.99 403.74 892.00 403.03 874.02 403.74 C 864.70 404.33 855.40 405.35 846.05 405.29 C 841.78 405.17 837.72 407.29 833.44 406.47 C 833.00 400.30 834.34 394.22 834.52 388.08 C 834.93 379.91 835.55 371.76 835.78 363.58 C 836.14 362.19 837.81 362.51 838.89 362.30 C 844.82 362.11 850.74 361.63 856.68 361.56 C 857.54 344.73 857.21 327.87 857.29 311.02 C 857.07 303.19 857.79 295.38 858.59 287.60 Z" />
<path fill="#f5f4f0" d=" M 860.86 290.53 C 861.29 290.49 862.14 290.40 862.57 290.36 C 862.67 304.59 862.91 318.82 862.38 333.04 C 862.08 342.45 862.58 351.89 861.20 361.23 C 860.72 361.25 859.74 361.29 859.25 361.31 C 860.52 354.30 860.34 347.13 859.87 340.05 C 859.74 329.04 859.78 318.03 859.80 307.02 C 860.08 301.52 861.06 296.06 860.86 290.53 Z" />
<path fill="#dd4e0c" d=" M 569.16 327.16 C 570.22 325.47 573.23 321.50 574.48 325.00 C 568.03 335.23 559.08 343.55 552.43 353.63 C 558.53 353.76 564.65 353.81 570.75 353.38 C 572.04 359.09 571.46 365.00 571.63 370.81 C 570.66 370.72 569.70 370.64 568.74 370.56 C 568.68 365.84 568.60 361.12 568.59 356.40 C 562.05 356.48 555.43 357.11 548.94 356.09 L 548.39 354.99 C 554.20 344.91 562.97 336.99 569.16 327.16 Z" />
<path fill="#dd4e0c" d=" M 585.31 335.99 C 584.82 327.64 594.30 321.55 601.92 324.24 C 605.10 325.03 606.73 328.22 607.60 331.12 C 608.77 335.36 609.06 340.48 605.98 344.03 C 601.05 349.97 596.25 356.04 590.66 361.40 C 591.47 361.48 593.08 361.64 593.89 361.72 C 596.05 363.22 598.26 365.01 601.02 365.16 C 604.58 366.00 606.60 359.69 609.95 362.76 C 608.32 364.40 606.85 366.29 604.82 367.45 C 600.44 368.80 596.03 367.09 592.02 365.43 C 588.76 365.25 586.55 368.07 583.92 369.51 C 582.22 369.45 581.88 367.76 582.70 366.55 C 587.51 359.85 594.04 354.64 598.93 348.01 C 601.11 345.07 604.21 342.62 605.34 339.04 C 605.78 335.14 605.33 330.61 602.41 327.71 C 597.46 324.60 590.04 327.75 588.50 333.33 C 587.92 336.81 589.17 340.22 589.66 343.62 C 585.36 344.19 585.40 338.94 585.31 335.99 Z" />
<path fill="#dc4703" d=" M 508.12 356.26 C 515.82 355.49 523.52 354.06 531.30 354.54 C 527.60 355.45 523.78 355.40 520.01 355.66 C 509.13 356.88 498.21 357.84 487.51 360.23 C 473.08 362.11 459.05 366.01 444.96 369.51 C 437.56 371.49 430.01 372.91 422.76 375.40 C 412.86 378.56 403.16 382.33 393.11 385.02 C 389.27 386.11 385.52 387.47 381.80 388.89 C 383.34 394.22 385.59 399.43 385.79 405.06 C 384.97 405.80 384.16 406.55 383.35 407.29 C 369.76 406.73 356.09 410.06 342.60 407.44 C 343.34 404.90 344.96 402.75 347.07 401.17 C 352.42 397.17 355.79 391.23 360.74 386.80 C 365.80 382.19 370.08 376.82 375.06 372.14 C 379.58 376.20 379.17 382.76 381.17 388.07 C 385.44 386.81 389.61 385.24 393.90 384.05 C 407.75 380.25 420.96 374.40 434.99 371.22 C 449.69 367.68 464.25 363.49 479.14 360.79 C 488.84 359.52 498.34 356.95 508.12 356.26 Z" />
<path fill="#dd4e0c" d=" M 637.44 355.36 C 652.04 354.90 666.56 356.58 681.06 358.01 C 700.15 359.22 718.93 363.15 737.85 365.75 C 748.50 367.81 759.35 368.85 769.84 371.69 C 782.02 374.34 793.79 378.48 805.55 382.55 C 808.19 383.78 812.23 384.39 812.15 388.11 C 806.99 385.81 802.63 381.94 797.05 380.57 C 769.77 370.22 740.59 367.30 712.02 362.54 C 703.38 361.45 694.83 359.68 686.13 359.25 C 677.08 358.50 668.05 357.53 659.01 356.67 C 651.82 356.22 644.56 356.58 637.44 355.36 Z" />
<path fill="#000000" d=" M 253.02 360.70 C 262.38 360.80 271.67 359.33 281.04 359.54 C 292.33 359.59 303.63 359.26 314.93 359.73 C 318.79 359.86 322.72 359.37 326.53 360.28 C 327.45 367.24 324.93 374.02 325.20 380.98 C 325.29 399.18 324.88 417.40 325.52 435.60 C 318.40 438.62 310.48 437.29 302.97 437.70 C 288.34 438.87 273.63 438.30 258.98 439.31 C 238.08 441.11 216.88 437.24 196.15 441.45 C 193.52 436.43 194.78 430.50 194.27 425.06 C 193.60 417.06 193.78 409.04 193.62 401.03 C 193.11 389.47 193.10 377.89 193.30 366.32 C 193.61 364.43 193.06 362.08 194.61 360.66 C 202.38 360.01 210.19 360.77 217.95 361.26 C 229.64 361.16 241.37 361.88 253.02 360.70 Z" />
<path fill="#f5f4f0" d=" M 262.05 363.15 C 273.64 361.80 285.33 362.40 296.97 362.29 C 305.94 362.17 314.90 362.72 323.87 362.68 C 323.73 365.69 323.53 368.71 323.06 371.69 C 322.03 377.74 322.44 383.90 322.36 390.01 C 322.44 404.57 322.16 419.14 322.40 433.71 C 315.70 435.23 308.78 434.51 301.98 434.92 C 293.34 435.71 284.64 435.39 275.98 435.91 C 267.99 436.53 259.94 436.06 251.99 437.17 C 245.65 437.51 239.28 437.49 232.97 436.80 C 225.29 436.66 217.60 436.56 209.93 436.83 C 205.89 437.50 201.75 437.38 197.73 438.19 C 197.10 427.45 196.35 416.72 196.48 405.97 C 196.03 391.85 194.85 377.64 196.44 363.56 C 203.30 363.33 210.15 363.54 217.00 363.99 C 232.02 364.60 247.05 363.86 262.05 363.15 Z" />
<path fill="#dd4e0c" d=" M 537.50 363.18 C 538.51 363.22 539.52 363.26 540.54 363.31 C 540.49 363.88 540.41 365.02 540.36 365.59 C 539.43 365.59 538.51 365.60 537.60 365.60 C 537.58 365.00 537.53 363.79 537.50 363.18 Z" />
<path fill="#f5f4f0" d=" M 839.75 364.89 C 851.55 365.16 863.28 363.58 875.03 362.75 C 890.35 362.45 905.70 362.79 920.93 364.52 C 934.76 365.77 948.71 364.54 962.51 366.34 C 962.77 372.27 961.76 378.12 960.81 383.95 C 959.97 388.80 960.25 393.74 960.08 398.65 C 952.38 399.28 944.66 399.54 937.01 400.59 C 931.02 401.46 924.98 401.14 918.96 401.20 C 901.62 400.33 884.20 400.33 866.86 401.50 C 860.89 401.66 854.98 402.69 849.00 402.39 C 844.65 402.18 840.35 402.85 836.15 403.87 C 836.59 395.92 837.55 388.01 837.78 380.04 C 838.62 375.00 837.85 369.73 839.75 364.89 Z" />
<path fill="#000000" d=" M 200.72 367.63 C 201.42 367.29 202.83 366.62 203.53 366.29 C 203.63 366.84 203.83 367.95 203.93 368.51 L 205.77 367.69 C 223.51 367.42 241.30 368.15 259.01 366.79 C 273.70 366.66 288.40 366.72 303.07 367.62 C 308.10 368.04 313.29 366.99 318.18 368.66 C 320.04 379.14 319.02 389.78 319.43 400.36 C 320.04 410.61 320.57 420.90 320.30 431.17 C 311.38 433.90 302.09 430.94 293.01 430.84 C 283.32 430.89 273.62 430.47 263.94 430.92 C 253.68 431.86 243.32 430.94 233.09 432.34 C 223.58 432.64 214.06 432.51 204.55 432.48 C 204.05 432.10 203.05 431.36 202.55 430.98 C 202.66 425.97 202.69 420.94 202.05 415.96 C 201.32 410.34 201.93 404.66 201.49 399.03 C 200.34 388.62 200.17 378.07 200.72 367.63 Z" />
<path fill="#f5f4f0" d=" M 202.87 370.04 C 216.85 370.88 230.91 370.17 244.92 370.22 C 260.93 369.13 277.00 369.60 293.03 369.83 C 300.44 370.50 307.87 370.75 315.31 370.65 C 317.40 381.33 315.97 392.23 316.77 403.00 C 317.80 411.18 317.32 419.45 316.44 427.61 C 309.96 427.72 303.48 427.58 297.04 426.82 C 274.98 426.04 252.99 428.21 231.00 429.60 C 222.53 429.64 214.06 429.55 205.58 429.54 C 205.57 425.60 205.58 421.64 205.05 417.72 C 203.99 410.33 205.11 402.81 203.93 395.42 C 202.70 387.01 204.27 378.34 202.87 370.04 Z" />
<path fill="#dd4e0c" d=" M 244.57 380.50 C 248.72 377.18 254.51 376.56 259.58 377.52 C 263.84 379.60 264.34 385.36 263.34 389.45 C 259.85 394.18 253.14 396.76 252.03 403.07 C 251.25 405.17 252.34 409.60 248.68 408.23 C 248.28 403.98 249.24 399.45 252.19 396.24 C 254.62 393.08 258.27 391.10 260.70 387.97 C 260.93 385.43 261.15 381.94 258.66 380.44 C 254.17 379.59 248.97 380.25 245.52 383.51 C 244.02 384.92 244.02 387.22 244.37 389.10 C 244.89 391.43 246.99 393.70 245.21 396.04 C 240.16 392.67 239.44 384.08 244.57 380.50 Z" />
<path fill="#000000" d=" M 874.40 379.72 C 877.98 378.89 881.70 379.10 885.35 378.79 C 885.51 379.72 885.68 380.66 885.85 381.61 C 882.03 381.97 878.20 382.36 874.37 382.44 C 874.37 381.76 874.39 380.40 874.40 379.72 Z" />
<path fill="#030303" d=" M 923.34 378.56 C 925.42 378.52 927.52 378.53 929.63 378.59 C 929.63 379.58 929.64 380.57 929.66 381.56 C 927.51 381.62 925.38 381.64 923.25 381.59 C 923.26 380.57 923.29 379.56 923.34 378.56 Z" />
<path fill="#000000" d=" M 899.51 379.70 C 902.77 379.18 906.79 377.45 909.63 379.90 C 909.43 380.29 909.02 381.08 908.81 381.48 C 906.14 381.92 903.42 382.07 900.73 382.34 C 900.32 381.46 899.90 380.58 899.51 379.70 Z" />
<path fill="#000000" d=" M 940.70 379.56 C 942.90 379.42 945.11 379.35 947.33 379.40 C 947.32 380.36 947.31 381.33 947.31 382.30 C 945.10 382.41 942.89 382.50 940.69 382.49 C 940.68 381.51 940.68 380.53 940.70 379.56 Z" />
<path fill="#000000" d=" M 851.48 381.36 C 854.41 380.43 857.51 380.39 860.56 380.44 C 860.55 381.35 860.54 382.26 860.54 383.18 C 857.92 383.42 855.29 383.58 852.72 384.09 C 852.41 383.92 851.81 383.58 851.50 383.41 C 851.50 382.89 851.48 381.87 851.48 381.36 Z" />
<path fill="#dd4e0c" d=" M 247.23 413.17 C 247.85 413.20 249.11 413.25 249.74 413.28 C 249.75 413.90 249.77 415.15 249.78 415.77 C 249.12 415.79 247.80 415.81 247.14 415.83 C 247.16 415.16 247.20 413.84 247.23 413.17 Z" />
<path fill="#0f37fe" d=" M 855.42 437.42 C 863.05 430.31 871.15 423.68 878.76 416.55 C 879.20 416.91 880.08 417.62 880.52 417.97 C 880.55 422.26 879.16 426.40 878.27 430.55 C 876.87 435.67 876.41 441.24 873.34 445.72 C 870.30 444.78 867.30 443.74 864.22 443.00 C 860.49 448.91 856.41 454.61 851.97 460.01 C 844.20 467.91 835.68 475.04 828.11 483.16 C 821.54 488.92 814.89 494.62 808.85 500.95 C 801.34 507.04 795.29 514.69 787.67 520.64 C 782.33 524.95 777.50 529.85 771.91 533.85 C 761.59 541.75 749.48 546.73 738.12 552.86 C 728.51 557.90 719.32 563.74 709.43 568.24 C 698.77 573.64 687.39 577.39 675.97 580.78 C 666.35 584.59 656.27 586.97 646.16 589.06 C 634.85 590.98 624.30 595.82 613.05 598.05 C 605.25 599.52 597.72 602.08 589.97 603.75 C 579.08 605.81 568.11 607.35 557.16 609.01 C 533.25 613.37 509.41 619.19 485.00 619.56 C 467.34 619.53 449.69 619.61 432.03 619.43 C 425.39 619.44 418.80 618.41 412.15 618.45 C 402.99 618.45 394.08 616.10 385.00 615.25 C 380.56 614.69 376.19 613.71 371.85 612.65 C 370.00 616.17 368.16 619.70 365.92 622.99 C 362.30 620.70 359.09 617.83 355.47 615.53 C 351.39 612.92 348.45 608.89 344.20 606.50 C 344.57 605.14 344.82 603.75 345.50 602.52 C 354.50 601.63 363.59 601.99 372.63 601.66 C 376.69 604.24 373.32 608.73 372.24 612.05 C 376.17 612.75 380.03 613.78 383.99 614.31 C 393.88 615.28 403.61 617.86 413.61 617.58 C 432.01 619.19 450.52 618.48 468.98 618.68 C 478.97 618.49 489.02 619.20 498.95 617.85 C 516.18 616.72 533.01 612.63 549.96 609.56 C 559.86 607.48 569.96 606.55 579.90 604.68 C 591.22 603.44 601.94 599.46 613.06 597.26 C 620.68 595.62 628.06 593.10 635.48 590.73 C 647.37 587.49 659.75 586.03 671.31 581.58 C 678.92 578.58 687.02 577.05 694.55 573.81 C 707.21 569.09 719.13 562.62 730.85 555.92 C 741.97 549.50 753.86 544.49 764.83 537.80 C 774.91 531.47 783.31 522.97 792.41 515.39 C 798.44 509.43 804.65 503.66 810.45 497.48 C 814.93 492.55 820.48 488.81 825.52 484.52 C 831.39 479.05 836.76 473.07 842.53 467.50 C 849.82 459.85 857.39 452.20 862.20 442.65 C 859.88 441.28 854.28 441.19 855.42 437.42 Z" />
<path fill="#000000" d=" M 319.89 451.31 C 321.29 450.65 322.95 450.43 323.93 451.93 C 331.18 461.03 334.43 472.41 338.35 483.17 C 337.79 483.78 337.24 484.38 336.70 485.00 C 334.74 482.74 334.02 479.79 333.12 477.02 C 330.23 469.09 327.25 461.08 322.13 454.27 C 303.75 454.49 285.35 453.81 266.99 454.86 C 256.65 455.89 246.42 459.05 235.96 457.96 C 230.30 457.62 224.66 458.72 219.00 458.51 C 212.93 458.68 206.87 457.64 200.82 458.17 C 198.46 464.41 196.58 470.82 193.88 476.92 C 191.35 482.22 190.59 488.23 187.37 493.23 C 200.91 493.62 214.49 494.15 228.01 493.18 C 235.97 492.29 243.99 492.39 251.96 491.81 C 260.99 491.73 269.98 490.61 279.01 490.76 C 293.01 490.55 307.01 490.64 321.01 490.44 C 327.13 490.43 333.01 488.36 339.05 487.80 C 341.38 488.11 340.59 490.47 340.66 492.12 C 330.87 493.82 320.98 495.86 310.99 494.90 C 286.63 494.36 262.34 495.52 237.99 495.84 C 224.68 496.97 211.31 496.48 197.97 496.50 C 193.29 496.19 188.47 496.85 183.93 495.40 C 184.11 491.87 186.65 489.18 187.58 485.89 C 190.65 475.65 196.29 466.13 197.60 455.41 C 199.70 455.01 201.84 454.53 204.00 454.82 C 212.31 455.73 220.70 455.88 229.05 455.34 C 236.35 454.98 243.77 456.12 250.97 454.46 C 273.68 450.01 296.91 451.96 319.89 451.31 Z" />
<path fill="#000000" d=" M 279.95 465.53 C 291.60 465.06 303.38 465.61 314.90 463.48 C 317.00 463.02 320.32 463.03 319.32 466.16 C 317.22 467.93 314.26 467.32 311.75 467.83 C 308.31 468.21 304.83 468.53 301.40 468.00 C 293.61 466.85 285.74 467.74 277.91 467.78 C 265.93 467.78 253.95 468.29 241.97 468.21 C 230.89 468.41 219.79 467.98 208.74 468.82 C 208.97 468.07 209.44 466.57 209.68 465.82 C 233.08 465.03 256.53 466.11 279.95 465.53 Z" />
<path fill="#b9b8b5" d=" M 277.91 467.78 C 285.74 467.74 293.61 466.85 301.40 468.00 C 304.83 468.53 308.31 468.21 311.75 467.83 C 305.37 469.93 298.55 469.39 291.94 469.52 C 267.96 468.99 243.97 468.37 219.98 468.73 C 216.24 468.93 212.46 469.48 208.74 468.82 C 219.79 467.98 230.89 468.41 241.97 468.21 C 253.95 468.29 265.93 467.78 277.91 467.78 Z" />
<path fill="#000000" d=" M 289.99 475.32 C 299.88 474.09 309.85 472.66 319.83 473.35 C 320.31 473.65 321.27 474.24 321.75 474.53 C 321.35 475.23 320.56 476.63 320.17 477.33 C 311.10 477.15 302.00 477.11 292.99 478.26 C 285.05 479.17 277.00 477.85 269.12 479.40 C 259.40 480.33 249.72 481.95 239.94 481.67 C 230.69 481.56 221.43 481.94 212.19 481.54 C 212.24 480.55 212.30 479.57 212.37 478.59 C 224.58 478.92 236.81 478.87 249.02 478.76 C 256.32 477.96 263.67 477.50 270.92 476.30 C 277.22 475.15 283.66 476.04 289.99 475.32 Z" />
<path fill="#000000" d=" M 268.99 547.81 C 282.95 546.90 296.96 547.38 310.95 547.31 C 312.95 547.09 314.12 549.18 314.20 550.93 C 314.61 568.61 314.93 586.29 314.80 603.98 C 314.76 614.82 315.10 625.67 314.22 636.48 C 308.54 637.69 302.71 637.10 296.96 637.19 C 272.32 636.53 247.67 636.73 223.03 636.73 C 212.81 636.50 202.56 637.20 192.37 636.43 C 191.95 634.97 191.45 633.51 191.49 632.00 C 191.37 620.33 191.78 608.65 191.35 596.99 C 191.26 588.33 191.06 579.66 191.74 571.02 C 192.20 563.98 191.02 556.83 192.44 549.87 C 197.54 548.54 202.83 548.48 208.06 548.33 C 209.56 548.08 210.73 549.10 211.93 549.82 C 218.67 549.76 225.46 549.96 232.12 548.77 C 244.38 547.77 256.73 549.09 268.99 547.81 Z" />
<path fill="#f5f4f0" d=" M 227.83 552.32 C 234.05 550.54 240.67 551.39 247.06 551.16 C 263.01 550.60 278.99 550.22 294.94 550.80 C 299.88 551.35 304.84 551.28 309.80 551.33 C 309.56 560.90 310.67 570.43 310.49 580.01 C 310.70 598.07 310.00 616.14 310.85 634.19 C 281.90 634.48 252.95 634.16 224.00 634.20 C 214.17 634.01 204.30 634.59 194.50 633.75 C 194.21 622.16 194.60 610.55 194.15 598.97 C 192.57 583.54 195.31 568.18 195.60 552.76 C 197.71 552.75 199.87 552.39 201.96 552.87 C 203.97 553.55 205.97 554.32 208.03 554.88 C 205.54 555.09 203.05 555.25 200.56 555.46 C 199.45 564.26 199.87 573.15 200.10 581.99 C 199.65 589.66 200.22 597.37 199.24 605.01 C 198.41 610.92 198.47 616.90 198.49 622.86 C 199.80 624.61 199.64 626.75 199.58 628.80 C 213.69 627.96 227.82 628.38 241.95 628.50 C 262.66 628.53 283.39 628.50 304.10 628.40 C 305.95 628.54 307.08 626.76 306.77 625.08 C 306.91 619.35 305.43 613.73 305.40 608.01 C 305.04 590.98 305.54 573.93 305.24 556.91 C 305.13 554.18 302.05 554.19 300.03 554.18 C 283.69 554.22 267.36 554.13 251.02 554.13 C 242.48 553.58 233.91 553.26 225.35 553.59 C 225.97 553.27 227.21 552.64 227.83 552.32 Z" />
<path fill="#c8c8c4" d=" M 201.96 552.87 C 210.57 553.51 219.19 552.13 227.83 552.32 C 227.21 552.64 225.97 553.27 225.35 553.59 C 219.57 553.88 213.79 554.30 208.03 554.88 C 205.97 554.32 203.97 553.55 201.96 552.87 Z" />
<path fill="#010101" d=" M 208.03 554.88 C 213.79 554.30 219.57 553.88 225.35 553.59 C 233.91 553.26 242.48 553.58 251.02 554.13 C 267.36 554.13 283.69 554.22 300.03 554.18 C 302.05 554.19 305.13 554.18 305.24 556.91 C 305.54 573.93 305.04 590.98 305.40 608.01 C 305.43 613.73 306.91 619.35 306.77 625.08 C 307.08 626.76 305.95 628.54 304.10 628.40 C 283.39 628.50 262.66 628.53 241.95 628.50 C 227.82 628.38 213.69 627.96 199.58 628.80 C 199.64 626.75 199.80 624.61 198.49 622.86 C 198.47 616.90 198.41 610.92 199.24 605.01 C 200.22 597.37 199.65 589.66 200.10 581.99 C 199.87 573.15 199.45 564.26 200.56 555.46 C 203.05 555.25 205.54 555.09 208.03 554.88 Z" />
<path fill="#f5f4f0" d=" M 203.41 557.87 C 208.95 557.82 214.39 556.66 219.93 556.55 C 226.61 556.23 233.30 556.26 239.99 556.37 C 252.99 557.08 266.02 556.47 279.04 556.82 C 286.77 557.51 294.54 557.04 302.30 557.29 C 302.46 573.88 302.35 590.48 302.46 607.07 C 302.45 613.22 303.83 619.27 303.85 625.42 C 274.90 625.73 245.93 625.78 216.98 625.33 C 211.42 624.98 205.60 626.44 200.25 624.47 C 201.87 622.66 201.19 620.17 201.34 618.00 C 200.93 608.94 203.11 600.02 202.70 590.96 C 202.98 579.94 202.05 568.84 203.41 557.87 Z" />
<path fill="#0f37fe" d=" M 241.34 571.33 C 243.51 569.08 245.62 566.15 249.07 566.08 C 248.57 569.39 245.57 571.21 243.46 573.48 C 237.58 579.65 232.66 586.64 228.24 593.91 C 232.87 594.40 237.54 594.36 242.19 594.28 C 242.31 591.05 242.43 587.83 242.67 584.61 C 243.66 584.55 244.65 584.49 245.65 584.45 C 245.54 587.47 245.36 590.50 245.14 593.53 C 246.57 593.50 247.99 593.50 249.42 593.52 C 248.88 595.82 246.67 596.37 244.70 596.98 C 243.93 601.12 245.64 606.05 243.17 609.61 L 241.75 608.97 C 241.20 605.08 241.60 601.13 241.69 597.23 C 235.83 597.12 229.53 598.19 224.14 595.25 C 228.92 586.65 234.83 578.70 241.34 571.33 Z" />
<path fill="#0f37fe" d=" M 266.03 572.03 C 269.88 569.55 274.83 568.62 279.29 569.69 C 283.17 571.97 284.05 577.01 283.66 581.15 C 283.57 583.07 282.04 584.48 280.54 585.47 C 276.63 587.96 272.05 589.38 268.54 592.49 C 266.08 594.56 264.68 597.51 263.09 600.23 C 268.28 597.90 273.31 601.42 278.61 600.79 C 280.14 599.71 281.78 598.73 282.84 601.02 C 280.15 605.42 274.27 603.89 270.17 602.83 C 266.04 601.11 262.65 604.76 259.13 606.28 C 259.72 599.45 262.80 592.54 268.70 588.72 C 272.33 585.88 277.14 584.86 280.48 581.64 C 281.03 578.58 280.74 574.95 278.52 572.59 C 273.99 571.49 268.43 572.66 265.50 576.54 C 264.10 578.56 266.35 580.26 267.55 581.67 C 267.44 582.26 267.23 583.44 267.13 584.03 C 264.90 583.00 262.40 581.73 261.78 579.12 C 261.38 576.09 263.70 573.58 266.03 572.03 Z" />
<path fill="#0f37fe" d=" M 212.54 609.46 C 209.06 605.65 214.54 599.39 218.80 602.27 C 222.03 603.77 221.48 607.61 220.33 610.34 C 217.76 611.27 214.31 612.32 212.54 609.46 Z" />
<path fill="#000000" d=" M 292.01 643.29 C 297.67 643.10 303.50 641.72 309.06 643.35 C 313.27 654.65 318.57 665.58 321.77 677.26 C 320.84 677.36 319.91 677.47 318.98 677.58 C 315.56 666.67 311.19 656.10 306.58 645.65 C 297.33 645.40 288.07 646.08 278.96 647.75 C 271.42 649.27 263.66 647.95 256.10 649.30 C 244.09 650.29 232.03 649.24 220.00 649.40 C 211.15 649.76 202.60 646.54 193.73 647.18 C 192.23 651.48 191.17 655.97 189.01 660.02 C 185.61 667.42 180.56 673.98 177.79 681.68 C 188.20 682.06 198.61 681.63 209.02 681.27 C 216.46 680.62 223.64 678.32 231.08 677.67 C 240.38 677.04 249.71 677.12 259.00 677.72 C 274.57 677.74 290.25 677.72 305.62 680.51 C 309.58 681.33 314.02 679.68 317.65 681.73 C 317.72 682.92 317.61 684.11 317.55 685.31 C 312.73 685.54 307.82 685.76 303.08 684.65 C 287.58 681.52 271.68 682.02 255.96 681.50 C 248.02 680.45 240.00 680.49 232.01 680.75 C 223.28 681.45 214.75 683.65 205.99 684.02 C 195.48 684.48 184.91 685.23 174.42 684.27 C 175.36 676.37 180.81 670.12 184.20 663.18 C 187.80 657.11 189.48 650.22 191.57 643.55 C 193.71 643.80 195.85 644.09 198.01 644.20 C 205.12 644.39 211.99 646.86 219.15 646.60 C 228.76 646.46 238.35 647.16 247.96 647.14 C 255.90 646.63 263.85 646.03 271.81 645.78 C 278.63 645.68 285.19 643.42 292.01 643.29 Z" />
<path fill="#000000" d=" M 198.49 654.42 C 205.31 653.16 212.23 654.33 219.08 654.65 C 227.65 656.12 236.38 655.32 245.02 655.70 C 258.99 656.93 273.07 657.94 287.07 656.64 C 293.76 656.19 300.44 655.33 307.16 655.50 C 309.12 656.27 308.10 657.92 307.59 659.35 C 287.38 659.64 267.09 660.58 246.95 658.46 C 239.65 658.09 232.33 658.62 225.04 658.13 C 220.41 657.50 215.74 657.20 211.08 656.89 C 206.88 656.61 202.67 657.58 198.47 656.90 C 198.48 656.28 198.49 655.04 198.49 654.42 Z" />
<path fill="#000000" d=" M 202.13 667.26 C 229.07 667.46 256.04 667.76 282.98 667.24 C 287.50 667.11 291.99 666.38 296.53 666.62 C 296.57 667.54 296.61 668.48 296.65 669.42 C 266.47 670.71 236.24 670.08 206.04 670.28 C 204.20 670.27 199.82 669.95 202.13 667.26 Z" />
</svg>
