<?xml version="1.0" encoding="UTF-8" ?>
<!DOCTYPE svg PUBLIC "-//W3C//DTD SVG 1.1//EN" "http://www.w3.org/Graphics/SVG/1.1/DTD/svg11.dtd">
<svg width="1118pt" height="895pt" viewBox="0 0 1118 895" version="1.1" xmlns="http://www.w3.org/2000/svg">
<path fill="#f5f3ef" d=" M 0.00 0.00 L 1118.00 0.00 L 1118.00 895.00 L 0.00 895.00 L 0.00 0.00 Z" />
<path fill="#dd4f0d" d=" M 800.63 32.95 C 799.97 22.32 809.30 12.27 819.98 12.29 C 830.43 11.62 840.22 20.64 840.54 31.08 C 841.09 37.64 837.83 43.93 832.94 48.13 C 842.82 51.51 849.74 61.02 851.62 71.08 C 852.98 77.63 852.26 84.35 852.59 90.99 C 852.47 94.62 853.28 99.15 850.01 101.70 C 848.01 101.78 846.03 101.57 844.05 101.50 C 843.41 102.13 842.77 102.73 842.13 103.32 C 838.93 101.86 835.36 102.38 831.97 102.28 C 821.99 102.49 812.06 101.32 802.08 101.29 C 798.17 101.74 794.42 98.58 793.47 94.98 C 793.31 81.18 792.76 66.37 800.03 54.05 C 801.54 51.10 804.38 48.99 805.78 46.04 C 803.15 42.11 800.55 37.86 800.63 32.95 Z" />
<path fill="#0a0a0a" d=" M 770.12 76.08 C 775.59 72.88 782.14 70.95 788.37 73.12 C 789.76 73.37 789.92 74.61 789.94 75.83 C 786.29 75.47 782.73 73.90 779.03 74.53 C 775.50 75.19 772.19 76.63 768.85 77.87 C 764.92 79.66 760.96 81.37 757.07 83.21 C 746.72 87.45 736.50 94.27 732.22 105.06 C 730.86 108.05 729.42 111.00 728.19 114.04 C 727.74 115.32 727.34 116.60 726.91 117.87 C 726.58 119.21 726.24 120.54 725.90 121.88 C 724.64 129.15 723.50 136.69 724.99 144.02 C 726.72 151.40 733.38 155.80 738.96 160.20 C 748.05 164.31 758.25 163.93 768.01 163.86 C 776.81 164.62 784.61 159.79 792.94 157.89 C 797.63 156.86 802.12 154.74 807.00 154.79 C 816.67 154.90 826.33 154.12 836.00 154.26 C 843.35 154.18 850.82 158.78 853.38 165.81 C 854.66 169.22 855.65 172.74 856.85 176.19 C 858.13 179.96 859.23 183.82 859.81 187.77 C 859.81 190.33 859.71 192.89 859.60 195.45 C 859.34 194.51 859.11 193.56 858.91 192.62 C 858.50 187.59 857.15 182.73 856.24 177.79 C 853.37 169.85 849.92 160.53 841.03 157.74 C 830.17 155.33 818.98 157.64 807.99 157.67 C 802.84 157.61 798.00 159.53 793.04 160.60 C 786.23 162.06 779.88 165.25 773.02 166.46 C 762.68 166.57 752.11 166.83 742.05 164.07 C 737.46 162.98 734.06 159.56 730.55 156.66 C 725.96 153.13 722.87 147.78 722.74 141.93 C 722.86 130.76 723.83 119.20 729.21 109.16 C 730.24 106.84 731.24 104.50 732.22 102.15 C 733.74 99.15 735.48 96.24 737.61 93.61 C 740.12 90.63 743.72 88.92 747.11 87.14 C 751.15 84.55 755.63 82.79 759.94 80.71 C 761.01 80.23 762.08 79.74 763.18 79.26 C 765.47 78.16 767.79 77.11 770.12 76.08 Z" />
<path fill="#f4b132" d=" M 1022.62 168.07 C 1022.93 158.59 1032.75 150.97 1042.00 153.05 C 1049.87 154.39 1055.90 162.11 1055.29 170.07 C 1055.19 174.16 1053.01 177.73 1050.58 180.87 C 1056.00 184.16 1063.05 187.80 1063.38 195.02 C 1063.58 203.35 1064.19 211.88 1061.97 220.01 C 1060.94 223.02 1063.10 227.69 1059.58 229.38 C 1049.35 230.26 1039.02 231.70 1028.77 230.19 C 1022.90 229.13 1016.96 228.59 1011.11 227.48 C 1009.69 227.26 1008.44 226.32 1007.73 225.11 C 1007.68 220.03 1006.91 214.87 1008.34 209.89 C 1010.03 203.69 1010.44 196.79 1014.58 191.57 C 1017.99 187.24 1022.17 183.48 1026.93 180.67 C 1024.40 176.96 1022.10 172.74 1022.62 168.07 Z" />
<path fill="#605f5d" d=" M 859.81 187.77 C 861.45 193.48 861.27 199.70 860.86 205.58 C 860.38 207.19 859.85 208.78 859.41 210.40 C 858.79 204.50 858.71 198.54 858.91 192.62 C 859.11 193.56 859.34 194.51 859.60 195.45 C 859.71 192.89 859.81 190.33 859.81 187.77 Z" />
<path fill="#0a0a0a" d=" M 859.41 210.40 C 859.85 208.78 860.38 207.19 860.86 205.58 C 860.71 209.24 861.01 212.94 860.39 216.56 C 859.51 219.57 857.35 222.01 855.01 224.00 C 848.97 228.47 841.90 231.11 835.16 234.28 C 827.39 236.69 819.88 239.84 812.11 242.22 C 808.39 243.56 804.69 244.95 800.87 245.96 C 798.17 246.59 795.48 247.24 792.79 247.85 C 783.82 250.42 774.51 252.08 766.08 256.23 C 759.83 259.12 753.82 263.48 750.79 269.84 C 747.36 277.28 748.06 285.72 748.48 293.66 C 751.73 299.12 757.58 302.14 762.85 305.32 C 770.87 309.16 779.04 313.18 785.49 319.46 C 789.00 323.40 788.40 329.05 788.41 333.95 C 788.52 339.57 784.50 344.03 780.49 347.45 C 776.81 350.41 772.75 353.05 768.16 354.31 C 762.86 355.76 757.55 357.59 751.98 357.55 C 746.13 357.49 739.60 359.12 734.44 355.52 C 727.29 351.00 724.61 342.61 721.62 335.19 C 718.05 327.02 717.85 317.88 714.73 309.57 C 712.15 302.46 705.14 298.31 698.36 295.88 C 689.57 294.52 680.65 294.47 671.78 294.79 C 669.88 295.34 668.21 296.43 666.43 297.24 L 666.80 295.91 C 666.21 295.82 665.02 295.63 664.43 295.53 C 665.07 302.64 664.31 309.79 665.07 316.89 C 665.53 323.77 665.00 330.68 665.73 337.55 C 670.39 338.06 675.10 339.32 678.99 342.05 C 689.59 347.84 699.74 355.04 707.13 364.76 C 712.78 372.68 715.53 382.50 722.41 389.58 C 727.48 394.51 733.28 398.67 738.16 403.80 C 744.24 410.13 748.16 418.32 755.06 423.90 C 765.86 431.43 772.07 443.26 778.89 454.14 C 782.10 459.48 787.42 462.98 791.63 467.45 C 800.69 478.32 805.42 493.47 818.56 500.44 C 828.42 505.14 838.94 508.96 849.91 509.75 C 860.65 509.71 871.41 510.08 882.13 509.23 C 885.53 508.39 888.89 507.40 892.18 506.19 C 899.86 503.22 905.85 496.98 910.18 490.13 C 912.28 487.19 911.69 483.40 911.82 480.01 C 911.94 474.91 910.71 469.88 908.82 465.18 C 906.47 459.89 901.93 456.11 898.18 451.86 C 895.01 448.29 890.91 445.78 887.52 442.46 C 883.75 438.83 879.00 435.94 876.67 431.07 C 874.42 422.06 878.89 413.12 884.20 406.07 C 887.94 401.19 891.81 395.44 898.07 393.72 C 903.51 392.92 909.07 393.11 914.56 393.40 C 914.10 394.18 913.65 394.97 913.16 395.72 C 907.51 396.23 901.56 394.64 896.14 396.80 C 888.42 400.57 883.65 408.27 880.40 415.92 C 878.91 420.37 877.68 425.31 878.83 429.96 C 881.64 436.13 887.48 440.16 892.55 444.38 C 899.24 449.62 905.54 455.63 910.02 462.90 C 913.95 470.99 915.48 480.55 913.29 489.34 C 909.62 496.15 903.11 500.78 897.06 505.33 C 895.43 505.97 893.82 506.60 892.22 507.26 C 888.89 508.43 885.52 509.45 882.10 510.26 C 876.92 510.77 871.71 510.72 866.51 510.66 L 866.51 511.38 C 858.99 510.99 851.38 512.09 843.93 510.69 C 832.48 509.36 821.46 505.13 811.49 499.43 C 802.21 492.33 798.18 480.84 791.54 471.60 C 787.12 465.98 780.60 462.24 776.94 456.00 C 773.70 450.35 770.22 444.84 766.70 439.36 C 762.60 434.14 757.90 429.34 752.52 425.43 C 744.92 417.87 739.95 408.05 731.97 400.84 C 727.13 396.44 721.23 392.99 717.69 387.34 C 711.13 377.91 707.05 366.55 698.01 359.01 C 692.06 353.32 684.91 349.17 677.76 345.21 C 674.25 342.73 670.03 341.37 665.74 341.29 C 665.82 345.87 665.98 350.47 665.44 355.03 C 665.04 358.11 665.92 361.19 665.36 364.26 C 661.32 366.05 656.80 365.05 652.55 365.74 C 654.03 377.13 654.35 388.61 654.78 400.08 C 655.70 405.96 656.07 411.96 655.48 417.89 C 654.70 421.77 646.42 423.04 646.68 418.00 C 646.54 400.68 647.40 383.31 645.30 366.07 C 633.18 366.50 621.05 365.95 608.93 366.43 C 601.63 366.62 594.24 365.90 587.02 367.18 C 583.59 367.43 580.15 367.17 576.84 366.24 C 575.79 363.73 574.99 361.12 574.38 358.48 C 578.59 359.06 582.85 359.50 587.11 359.08 C 593.66 358.39 600.34 359.22 606.83 357.83 C 616.28 356.10 625.91 356.98 635.46 356.76 C 636.07 350.36 636.34 343.94 636.68 337.52 C 637.16 337.43 638.11 337.25 638.59 337.16 C 638.79 343.69 639.15 350.27 638.20 356.77 C 646.37 355.69 654.37 359.39 662.48 357.68 C 663.01 352.24 663.50 346.80 663.40 341.34 C 662.63 340.55 661.87 339.77 661.12 338.99 C 661.86 338.06 662.62 337.14 663.38 336.22 C 663.03 324.83 663.21 313.43 663.22 302.04 C 663.09 292.57 665.54 283.19 664.40 273.72 C 655.48 273.07 646.50 273.32 637.63 274.40 C 638.10 282.69 638.55 290.99 638.52 299.30 C 638.07 299.32 637.18 299.34 636.73 299.36 C 636.76 295.60 636.64 291.84 636.67 288.08 L 637.15 287.93 L 636.61 287.66 C 636.40 285.67 636.29 283.68 636.31 281.68 L 636.57 280.15 C 632.85 280.27 629.14 280.17 625.42 280.00 C 628.81 279.20 632.31 279.44 635.77 279.43 C 635.62 277.11 635.36 274.79 635.13 272.47 C 640.01 271.26 645.09 271.86 650.07 271.89 C 655.06 272.90 660.08 271.63 665.06 271.68 C 668.27 274.26 666.17 279.36 665.90 282.92 C 665.53 285.96 665.33 289.01 665.14 292.07 C 665.73 292.53 666.33 292.99 666.93 293.46 C 669.49 290.46 673.57 291.56 677.00 291.37 C 683.75 291.20 690.45 291.88 697.14 292.66 C 705.63 294.30 713.78 299.78 716.80 308.15 C 719.74 316.14 720.92 324.66 723.36 332.80 C 725.84 339.44 728.04 346.61 733.30 351.67 C 735.55 354.04 738.65 355.69 741.98 355.71 C 750.04 355.99 758.33 355.96 766.00 353.11 C 774.31 351.05 782.19 345.29 785.17 337.08 C 785.49 331.92 785.99 326.18 783.40 321.50 C 777.23 314.41 768.01 311.38 759.98 307.02 C 755.29 303.84 750.08 301.06 746.70 296.37 C 744.63 293.30 745.58 289.43 745.65 286.00 C 745.97 278.43 747.12 270.27 752.24 264.32 C 756.24 259.21 762.32 256.49 768.18 254.12 C 772.03 252.39 776.08 251.14 780.17 250.10 C 789.78 247.27 799.75 245.69 809.16 242.19 C 811.13 241.42 813.13 240.71 815.18 240.12 C 817.18 239.47 819.19 238.82 821.20 238.17 C 824.77 236.59 828.48 235.41 832.20 234.22 C 833.84 233.54 835.50 232.87 837.17 232.21 C 843.58 229.27 849.89 225.80 855.10 220.99 C 858.08 218.23 858.81 214.22 859.41 210.40 Z" />
<path fill="#0a0a0a" d=" M 987.61 212.43 C 989.88 210.30 990.10 205.51 994.02 205.99 C 993.80 209.13 991.66 211.52 989.52 213.60 C 984.61 218.79 978.27 222.24 972.88 226.85 C 966.17 231.82 961.23 238.76 954.64 243.85 L 954.42 244.20 C 952.66 245.51 950.96 246.90 949.29 248.30 C 946.13 251.50 942.01 253.31 938.06 255.29 C 931.39 258.40 924.10 259.86 916.85 260.87 C 913.89 261.41 911.89 263.88 909.60 265.61 C 905.81 269.17 902.25 272.96 898.43 276.48 C 891.56 282.55 883.43 287.30 877.74 294.62 C 871.87 302.24 871.10 312.18 868.42 321.11 C 865.53 330.65 865.40 341.00 860.89 350.02 C 856.54 357.21 848.72 361.11 843.09 367.13 C 837.09 373.63 829.92 379.00 821.94 382.83 C 821.42 383.07 820.38 383.55 819.86 383.79 C 815.95 386.00 811.99 388.13 807.86 389.90 C 806.21 390.57 804.56 391.24 802.91 391.90 C 801.55 392.26 800.19 392.59 798.84 392.92 C 795.92 393.57 793.00 394.31 790.01 394.42 C 780.30 394.99 770.51 396.29 760.81 395.10 C 754.26 393.37 747.88 390.60 742.34 386.67 C 737.02 382.01 731.10 377.86 726.93 372.05 C 722.73 366.38 717.45 361.65 712.70 356.49 C 708.07 349.29 704.71 341.30 699.39 334.54 C 696.16 328.48 690.13 324.87 684.34 321.65 C 679.78 320.37 675.15 319.26 670.51 318.30 C 670.53 317.36 670.57 316.42 670.61 315.48 C 675.49 315.19 680.18 317.03 684.85 318.19 C 689.57 320.96 694.62 323.56 698.41 327.59 C 703.72 334.56 708.14 342.16 711.99 350.03 C 714.59 356.07 720.38 359.69 724.14 364.91 C 734.04 377.56 746.54 389.79 762.84 393.14 C 771.22 393.47 779.63 393.39 788.02 393.47 C 793.59 393.62 798.91 391.72 804.19 390.22 C 806.11 389.39 808.06 388.62 810.00 387.82 C 811.33 387.15 812.66 386.48 813.99 385.80 C 820.23 382.20 827.04 379.44 832.53 374.67 C 837.55 370.62 841.64 365.60 846.32 361.19 C 850.46 357.73 854.54 354.13 857.97 349.94 C 862.02 343.37 863.07 335.56 864.09 328.07 C 866.80 317.92 868.67 307.46 872.82 297.77 C 878.19 288.36 887.76 282.49 895.87 275.68 C 900.88 271.71 904.61 266.47 909.33 262.22 C 903.53 262.37 897.73 262.57 891.96 263.18 C 887.83 262.99 883.85 260.83 881.11 257.79 C 876.89 250.61 877.17 241.99 876.58 233.94 C 876.11 230.01 878.30 226.53 880.38 223.41 C 882.61 220.83 885.82 219.41 888.71 217.70 C 893.34 214.96 898.91 215.91 904.04 215.72 C 909.89 215.51 914.72 219.45 918.70 223.29 C 921.32 225.82 922.27 229.46 923.06 232.89 C 924.25 238.50 924.97 244.26 924.53 249.99 C 923.99 254.33 921.06 258.18 916.89 259.65 C 918.19 259.54 920.77 259.31 922.07 259.20 C 925.76 258.18 929.52 257.42 933.19 256.27 C 939.12 253.43 945.33 250.78 950.16 246.19 C 951.82 244.87 953.48 243.53 955.14 242.21 C 955.44 241.98 956.03 241.53 956.33 241.30 C 958.28 239.52 960.13 237.64 961.79 235.59 L 962.51 235.53 L 962.52 234.52 L 963.24 234.45 C 963.50 234.15 964.02 233.53 964.28 233.23 C 965.46 232.09 966.65 230.96 967.83 229.81 C 974.22 223.79 981.73 218.98 987.61 212.43 Z" />
<path fill="#f5f3ef" d=" M 889.19 221.22 C 893.28 218.45 898.41 219.51 903.05 219.27 C 909.92 218.76 916.28 223.82 918.90 229.91 C 920.81 236.06 921.69 242.56 921.29 249.00 C 921.16 251.38 920.13 253.83 918.04 255.12 C 915.01 257.09 912.36 259.59 909.21 261.36 C 903.82 261.27 898.41 261.53 893.04 261.02 C 888.19 260.69 883.25 257.65 881.83 252.82 C 879.04 246.15 879.69 238.83 879.83 231.79 C 880.69 226.75 884.81 223.33 889.19 221.22 Z" />
<path fill="#dd4f0d" d=" M 248.34 274.11 C 245.85 263.20 253.21 251.39 263.91 248.41 C 273.43 245.43 284.62 249.86 289.49 258.58 C 293.72 265.65 293.52 275.04 288.96 281.91 C 286.95 285.19 283.77 287.44 280.88 289.86 C 288.10 290.73 294.25 295.85 297.66 302.10 C 300.97 308.78 304.85 315.39 305.91 322.90 C 306.72 329.01 308.53 334.92 309.51 340.99 C 310.19 344.54 307.51 348.16 304.05 348.89 C 297.98 350.47 291.91 348.01 285.86 347.54 C 277.43 346.89 268.92 346.17 260.50 347.14 C 259.80 347.05 259.09 346.98 258.38 346.94 C 250.26 345.91 242.20 348.31 234.07 347.52 C 231.25 347.52 228.42 345.74 227.46 343.05 C 225.85 338.89 226.33 334.33 226.31 329.97 C 226.36 324.63 228.91 319.80 231.10 315.08 C 233.11 310.69 236.34 307.04 239.57 303.51 C 241.54 301.29 244.60 300.65 246.87 298.82 C 251.57 294.97 257.59 293.45 263.10 291.14 C 255.80 288.28 249.70 281.98 248.34 274.11 Z" />
<path fill="#f5f3ef" d=" M 637.63 274.40 C 646.50 273.32 655.48 273.07 664.40 273.72 C 665.54 283.19 663.09 292.57 663.22 302.04 C 663.21 313.43 663.03 324.83 663.38 336.22 C 662.62 337.14 661.86 338.06 661.12 338.99 C 661.87 339.77 662.63 340.55 663.40 341.34 C 663.50 346.80 663.01 352.24 662.48 357.68 C 654.37 359.39 646.37 355.69 638.20 356.77 C 639.15 350.27 638.79 343.69 638.59 337.16 C 638.57 336.81 638.54 336.12 638.52 335.77 C 638.28 324.07 638.59 312.36 638.51 300.66 C 638.51 300.32 638.52 299.64 638.52 299.30 C 638.55 290.99 638.10 282.69 637.63 274.40 Z" />
<path fill="#605f5d" d=" M 615.76 286.98 C 618.42 284.03 621.57 281.21 625.42 280.00 C 629.14 280.17 632.85 280.27 636.57 280.15 L 636.31 281.68 C 631.04 282.15 624.96 280.75 620.65 284.67 C 616.58 287.30 615.35 292.44 616.80 296.91 C 617.49 297.06 618.12 297.33 618.68 297.72 C 624.30 300.36 630.72 299.36 636.73 299.36 C 637.18 299.34 638.07 299.32 638.52 299.30 C 638.52 299.64 638.51 300.32 638.51 300.66 C 638.09 301.07 637.25 301.91 636.83 302.33 C 630.43 302.39 623.82 303.02 617.71 300.70 C 617.08 300.10 616.41 299.52 615.79 298.94 C 612.17 296.01 612.91 290.19 615.76 286.98 Z" />
<path fill="#f5f3ef" d=" M 620.65 284.67 C 624.96 280.75 631.04 282.15 636.31 281.68 C 636.29 283.68 636.40 285.67 636.61 287.66 C 635.19 287.21 633.78 286.18 632.25 286.61 C 626.25 288.61 621.93 293.48 616.80 296.91 C 615.35 292.44 616.58 287.30 620.65 284.67 Z" />
<path fill="#f4b132" d=" M 616.80 296.91 C 621.93 293.48 626.25 288.61 632.25 286.61 C 633.78 286.18 635.19 287.21 636.61 287.66 L 637.15 287.93 L 636.67 288.08 C 629.96 289.55 623.17 292.30 618.68 297.72 C 618.12 297.33 617.49 297.06 616.80 296.91 Z" />
<path fill="#f5f3ef" d=" M 618.68 297.72 C 623.17 292.30 629.96 289.55 636.67 288.08 C 636.64 291.84 636.76 295.60 636.73 299.36 C 630.72 299.36 624.30 300.36 618.68 297.72 Z" />
<path fill="#0a0a0a" d=" M 577.71 291.54 C 581.76 291.27 587.00 290.22 589.46 294.44 C 590.85 301.80 588.77 309.56 584.84 315.86 C 582.35 319.43 577.44 318.69 573.84 317.63 C 571.95 318.58 570.03 319.47 568.20 320.54 C 568.80 323.49 575.41 323.59 574.06 327.10 C 573.61 327.17 572.72 327.31 572.27 327.38 C 567.71 324.45 563.34 321.29 558.89 318.23 C 553.18 323.47 550.54 330.95 548.23 338.13 C 547.75 339.35 547.32 340.59 546.86 341.82 C 542.66 354.78 540.76 368.60 542.48 382.17 C 547.37 382.18 552.31 381.97 557.15 382.86 C 557.73 382.24 558.32 381.62 558.92 381.02 C 566.63 380.32 574.23 378.84 581.91 377.87 C 584.45 377.34 587.31 379.16 587.54 381.83 C 588.53 391.61 586.16 401.25 585.48 410.97 C 587.36 411.35 589.27 411.90 588.33 414.29 C 586.73 414.33 585.23 413.75 583.72 413.38 C 581.87 410.80 583.27 407.72 583.49 404.88 C 584.04 396.84 587.62 388.66 584.33 380.74 C 580.50 380.64 576.66 380.73 572.89 381.41 C 575.54 381.55 579.57 380.65 580.50 384.02 C 581.86 395.42 580.09 406.86 578.71 418.18 C 581.58 418.56 584.47 418.77 587.37 418.88 C 587.33 419.49 587.25 420.72 587.21 421.34 C 583.65 421.78 580.05 421.31 576.65 420.25 C 575.72 416.12 577.06 411.98 577.39 407.86 C 578.26 400.12 579.69 392.08 577.68 384.41 C 573.30 384.29 568.92 384.21 564.55 384.30 C 566.71 385.08 570.12 384.30 570.94 387.07 C 571.90 388.42 571.12 389.93 570.50 391.21 C 570.54 400.13 569.90 409.04 569.53 417.95 C 569.05 420.62 565.85 420.76 563.69 420.59 C 561.56 416.46 563.38 411.74 563.47 407.38 C 556.92 407.62 550.37 407.57 543.82 407.57 C 543.57 411.75 544.37 416.07 543.30 420.16 C 541.76 422.13 539.48 420.94 537.58 420.37 C 535.49 414.68 538.13 408.78 538.33 403.00 C 538.43 397.89 538.52 392.66 537.09 387.70 C 534.41 381.13 535.43 373.89 535.33 366.97 C 535.08 357.30 535.38 347.62 534.82 337.97 C 535.19 330.18 533.91 322.22 535.75 314.58 C 538.16 313.94 541.04 314.87 541.21 317.73 C 541.98 330.64 540.63 343.63 541.71 356.52 C 542.12 354.70 542.53 352.90 542.97 351.09 C 544.85 345.84 546.06 340.38 548.07 335.18 C 548.39 334.16 548.72 333.14 549.07 332.13 C 549.66 330.43 550.31 328.75 550.99 327.08 C 552.49 323.54 554.32 320.13 556.83 317.18 C 555.79 316.00 554.21 315.04 554.32 313.22 C 556.09 313.35 557.60 314.32 559.08 315.22 C 559.57 315.23 560.56 315.24 561.06 315.25 C 561.42 317.26 563.40 318.21 565.18 318.73 C 567.19 318.10 569.07 317.14 571.00 316.30 C 566.74 311.61 569.74 305.14 571.09 299.89 C 571.85 296.18 574.79 293.65 577.71 291.54 Z" />
<path fill="#f5f3ef" d=" M 571.31 307.95 C 571.98 302.44 573.94 296.58 578.90 293.49 C 581.30 293.88 583.89 293.68 586.15 294.74 C 587.50 295.75 587.28 297.48 587.34 298.97 C 587.38 304.20 585.97 309.53 582.98 313.85 C 580.70 316.87 576.36 315.54 573.42 314.38 C 570.79 313.36 571.12 310.22 571.31 307.95 Z" />
<path fill="#f4b132" d=" M 615.79 298.94 C 616.41 299.52 617.08 300.10 617.71 300.70 C 617.19 300.88 616.16 301.25 615.64 301.43 C 614.41 304.65 614.13 308.10 614.21 311.52 C 613.55 311.28 612.24 310.79 611.58 310.55 C 611.83 306.32 613.12 302.26 615.79 298.94 Z" />
<path fill="#f5f3ef" d=" M 615.64 301.43 C 616.16 301.25 617.19 300.88 617.71 300.70 C 623.82 303.02 630.43 302.39 636.83 302.33 C 636.68 304.41 636.74 306.50 636.76 308.58 C 630.45 308.02 624.12 309.81 618.76 313.09 C 617.23 312.57 615.71 312.07 614.21 311.52 C 614.13 308.10 614.41 304.65 615.64 301.43 Z" />
<path fill="#0a0a0a" d=" M 636.83 302.33 C 637.25 301.91 638.09 301.07 638.51 300.66 C 638.59 312.36 638.28 324.07 638.52 335.77 L 636.80 335.15 C 636.78 333.74 636.79 332.34 636.83 330.95 C 636.82 324.10 636.63 317.27 636.75 310.43 L 636.76 308.58 C 636.74 306.50 636.68 304.41 636.83 302.33 Z" />
<path fill="#f4b132" d=" M 618.76 313.09 C 624.12 309.81 630.45 308.02 636.76 308.58 L 636.75 310.43 C 631.72 311.79 626.37 311.86 621.56 314.07 C 620.86 313.83 619.46 313.34 618.76 313.09 Z" />
<path fill="#0a0a0a" d=" M 590.09 317.02 C 596.03 315.29 601.54 312.42 607.17 309.91 C 608.63 309.18 610.18 310.12 611.58 310.55 C 612.24 310.79 613.55 311.28 614.21 311.52 C 615.71 312.07 617.23 312.57 618.76 313.09 C 619.46 313.34 620.86 313.83 621.56 314.07 C 626.21 315.77 631.04 317.33 634.95 320.49 C 632.17 322.60 629.42 319.74 626.73 319.00 C 623.11 317.48 619.38 316.25 615.70 314.93 C 612.58 314.20 609.32 311.16 606.17 313.35 C 598.59 316.96 590.41 319.10 582.81 322.66 C 580.26 323.93 577.35 324.06 574.60 323.52 C 574.66 323.08 574.78 322.20 574.84 321.77 C 580.31 321.61 584.94 318.42 590.09 317.02 Z" />
<path fill="#f5f3ef" d=" M 621.56 314.07 C 626.37 311.86 631.72 311.79 636.75 310.43 C 636.63 317.27 636.82 324.10 636.83 330.95 C 636.79 332.34 636.78 333.74 636.80 335.15 C 631.75 335.15 626.70 335.34 621.66 335.37 C 621.25 334.22 620.89 333.06 620.58 331.89 C 623.48 329.59 626.31 327.14 628.48 324.11 C 630.95 323.28 634.11 323.88 636.08 322.03 C 635.80 321.65 635.23 320.87 634.95 320.49 C 631.04 317.33 626.21 315.77 621.56 314.07 Z" />
<path fill="#f4b132" d=" M 615.70 314.93 C 619.38 316.25 623.11 317.48 626.73 319.00 C 627.48 319.49 628.96 320.47 629.71 320.96 C 628.21 321.39 626.72 321.83 625.25 322.29 C 625.02 321.59 624.57 320.17 624.35 319.46 C 622.16 318.70 619.96 317.93 617.79 317.16 C 615.88 319.48 613.35 321.77 613.17 324.97 C 612.73 328.21 613.61 331.42 615.07 334.29 C 616.00 333.41 616.92 332.53 617.85 331.66 C 618.46 333.70 619.13 335.73 619.97 337.70 C 619.10 337.61 617.36 337.44 616.49 337.35 C 615.86 339.82 614.79 342.93 616.94 344.99 C 620.39 347.64 625.04 346.74 629.08 346.66 C 624.70 347.28 620.33 348.11 615.90 348.20 C 612.24 345.10 613.04 340.22 613.85 336.10 C 610.71 332.49 609.48 327.40 610.86 322.79 C 612.07 319.94 614.27 317.66 615.70 314.93 Z" />
<path fill="#f5f3ef" d=" M 537.84 317.02 C 538.28 318.28 538.65 319.58 538.66 320.94 C 538.84 335.30 538.69 349.67 538.74 364.03 C 538.91 370.84 538.11 377.69 539.42 384.43 C 537.18 378.62 537.60 372.14 537.49 366.00 C 537.94 352.64 537.33 339.28 537.22 325.92 C 537.17 322.94 537.24 319.94 537.84 317.02 Z" />
<path fill="#f5f3ef" d=" M 613.17 324.97 C 613.35 321.77 615.88 319.48 617.79 317.16 C 619.96 317.93 622.16 318.70 624.35 319.46 C 624.57 320.17 625.02 321.59 625.25 322.29 C 620.98 323.30 616.84 326.84 617.85 331.66 C 616.92 332.53 616.00 333.41 615.07 334.29 C 613.61 331.42 612.73 328.21 613.17 324.97 Z" />
<path fill="#605f5d" d=" M 626.73 319.00 C 629.42 319.74 632.17 322.60 634.95 320.49 C 635.23 320.87 635.80 321.65 636.08 322.03 C 634.11 323.88 630.95 323.28 628.48 324.11 C 624.65 324.73 619.25 326.99 620.58 331.89 C 620.89 333.06 621.25 334.22 621.66 335.37 C 622.24 336.15 622.86 336.92 623.52 337.66 C 626.55 341.31 631.65 340.02 635.48 341.85 L 636.26 343.48 C 630.28 344.30 623.52 343.05 619.97 337.70 C 619.13 335.73 618.46 333.70 617.85 331.66 C 616.84 326.84 620.98 323.30 625.25 322.29 C 626.72 321.83 628.21 321.39 629.71 320.96 C 628.96 320.47 627.48 319.49 626.73 319.00 Z" />
<path fill="#f4b132" d=" M 620.58 331.89 C 619.25 326.99 624.65 324.73 628.48 324.11 C 626.31 327.14 623.48 329.59 620.58 331.89 Z" />
<path fill="#0a0a0a" d=" M 564.78 338.87 C 566.24 334.56 568.55 329.29 573.25 328.00 C 573.35 328.44 573.56 329.32 573.67 329.76 C 571.37 332.20 568.87 334.62 567.78 337.88 C 565.05 345.14 561.53 352.19 560.26 359.90 C 559.01 366.80 559.07 373.84 559.44 380.82 C 558.77 380.70 557.43 380.47 556.76 380.35 C 555.64 372.23 557.46 364.06 558.95 356.10 C 559.88 350.04 563.07 344.70 564.78 338.87 Z" />
<path fill="#0a0a0a" d=" M 573.72 327.95 L 576.01 328.46 C 583.64 334.68 589.07 343.47 598.01 348.04 C 603.88 349.00 609.98 348.98 615.90 348.20 C 620.33 348.11 624.70 347.28 629.08 346.66 C 629.80 346.58 631.24 346.42 631.95 346.34 L 631.76 347.37 C 631.59 348.12 631.44 348.87 631.31 349.63 C 623.49 349.50 615.81 351.59 607.99 351.35 C 603.98 351.14 599.64 352.16 595.93 350.21 C 589.98 346.63 585.14 341.60 580.60 336.42 C 578.32 333.58 574.53 331.74 573.72 327.95 Z" />
<path fill="#f4b132" d=" M 621.66 335.37 C 626.70 335.34 631.75 335.15 636.80 335.15 L 638.52 335.77 C 638.54 336.12 638.57 336.81 638.59 337.16 C 638.11 337.25 637.16 337.43 636.68 337.52 C 632.31 337.99 627.90 337.51 623.52 337.66 C 622.86 336.92 622.24 336.15 621.66 335.37 Z" />
<path fill="#1138fe" d=" M 934.95 343.95 C 939.00 336.78 948.08 332.95 956.05 335.06 C 961.21 336.33 965.85 339.77 968.32 344.51 C 971.98 351.01 971.37 359.73 966.64 365.56 C 964.57 368.29 961.56 370.01 958.88 372.05 C 966.03 371.66 972.15 376.56 975.31 382.65 C 977.65 388.64 980.90 394.39 981.45 400.94 C 983.28 408.54 984.66 416.42 983.43 424.24 C 982.42 425.04 981.29 425.43 980.04 425.41 C 962.67 425.45 945.33 424.16 927.95 424.40 C 924.38 424.32 920.40 424.78 917.30 422.70 C 915.64 421.57 916.77 419.40 917.10 417.93 C 919.29 410.22 920.09 402.04 924.13 394.97 C 926.20 388.44 930.42 383.01 934.99 378.03 C 937.82 375.31 941.52 373.82 944.96 372.05 C 939.41 369.63 934.60 365.05 932.99 359.09 C 931.65 354.05 932.19 348.43 934.95 343.95 Z" />
<path fill="#0a0a0a" d=" M 213.72 350.67 C 216.60 348.38 217.03 343.79 220.86 342.62 C 225.09 341.36 229.67 345.58 228.52 349.90 C 227.08 354.23 223.90 357.65 220.58 360.65 C 215.88 364.99 211.95 370.04 207.89 374.96 C 200.20 383.87 192.08 392.40 183.58 400.54 C 175.54 409.24 167.95 418.36 160.48 427.54 C 156.73 431.13 153.49 435.20 150.02 439.04 C 144.43 446.50 140.24 455.01 133.95 461.93 C 130.47 464.89 126.98 467.86 124.32 471.63 C 141.17 471.94 158.08 469.25 174.88 471.57 C 178.96 471.96 182.86 473.31 186.91 473.90 C 190.44 462.99 197.30 453.71 202.29 443.49 C 206.22 436.75 209.91 429.84 214.53 423.54 C 222.49 412.21 227.73 399.25 235.63 387.90 C 239.06 382.63 241.83 376.97 244.18 371.15 C 246.87 364.33 251.12 358.17 253.16 351.09 C 253.76 348.73 256.03 347.18 258.38 346.94 C 259.09 346.98 259.80 347.05 260.50 347.14 C 263.86 348.10 265.67 351.89 264.54 355.16 C 262.22 363.26 256.93 370.07 253.93 377.90 C 249.52 388.92 241.79 398.07 236.37 408.55 C 232.74 415.39 228.84 422.11 224.56 428.57 C 216.80 439.19 210.91 450.99 204.59 462.48 C 201.46 467.15 199.46 472.40 197.23 477.52 C 208.66 481.77 220.55 484.74 232.61 486.54 C 248.02 491.07 264.21 491.56 280.07 493.19 C 291.68 495.16 303.40 496.27 315.00 498.26 C 325.20 498.95 334.70 503.11 344.82 504.35 C 341.12 493.02 335.25 482.53 331.64 471.17 C 328.14 461.17 323.78 451.50 320.38 441.47 C 316.56 430.24 309.76 420.44 303.63 410.40 C 297.68 401.55 294.26 391.36 289.43 381.92 C 286.13 375.60 284.07 368.68 280.21 362.65 C 278.52 360.27 279.59 357.33 280.84 355.03 C 283.53 353.30 287.48 352.58 289.78 355.36 C 292.67 359.06 294.34 363.52 296.07 367.84 C 298.80 374.96 302.30 381.75 305.25 388.78 C 310.62 402.83 320.32 414.62 326.83 428.10 C 330.01 435.24 332.30 442.73 335.23 449.97 C 337.16 455.18 339.51 460.23 341.32 465.49 C 345.69 479.16 352.71 491.82 357.06 505.51 C 362.76 506.27 368.28 508.05 374.03 508.47 C 382.80 509.18 391.21 511.98 399.93 512.99 C 411.73 513.56 423.48 515.29 434.98 517.95 C 437.34 518.51 440.26 517.92 442.04 519.95 C 444.98 522.73 443.84 528.26 440.02 529.65 C 434.57 530.66 429.29 528.64 424.06 527.43 C 417.38 526.44 410.75 524.95 403.99 524.57 C 395.84 524.51 387.93 522.29 379.98 520.78 C 374.34 519.82 368.59 519.58 363.01 518.32 C 365.28 526.03 367.72 533.74 370.79 541.19 C 374.27 548.74 376.22 556.88 379.64 564.46 C 382.90 562.62 386.38 561.20 389.94 560.07 C 399.01 556.79 407.69 552.39 417.02 549.83 C 419.39 549.05 421.61 547.88 423.95 547.01 C 429.24 545.08 433.14 540.79 437.91 537.98 C 441.29 536.48 445.76 539.22 445.75 542.99 C 446.20 546.24 443.56 548.81 441.07 550.42 C 437.51 552.30 434.57 555.19 430.83 556.74 C 426.59 558.34 422.53 560.44 418.12 561.54 C 409.86 563.88 402.21 567.92 394.06 570.58 C 390.07 571.87 386.13 573.39 382.52 575.55 C 384.69 583.37 388.50 590.56 392.70 597.47 C 395.09 601.27 395.05 605.90 396.23 610.10 C 397.14 613.68 400.06 616.36 400.81 620.00 C 401.43 623.39 403.69 626.69 402.58 630.22 C 401.18 634.35 394.81 635.17 392.39 631.54 C 390.07 627.87 390.15 623.18 387.63 619.60 C 384.62 614.89 384.40 609.19 382.91 603.97 C 378.95 596.66 375.13 589.24 372.53 581.32 C 363.24 586.00 354.43 591.63 344.80 595.62 C 337.34 598.75 329.82 601.76 322.16 604.38 C 314.78 606.74 307.34 609.05 300.27 612.25 C 310.39 620.02 321.92 625.60 332.87 632.06 C 340.31 637.52 346.89 644.07 354.32 649.57 C 359.84 653.37 365.24 657.37 370.30 661.78 C 372.70 664.11 373.80 667.39 375.93 669.94 C 378.54 673.14 381.04 676.46 383.04 680.08 C 384.41 682.70 383.50 686.33 380.87 687.80 C 378.05 689.69 374.10 688.38 372.59 685.44 C 370.33 681.53 367.33 678.15 364.75 674.48 C 361.96 668.72 356.32 665.27 351.52 661.36 C 342.59 655.49 335.06 647.83 326.60 641.38 C 314.09 634.13 301.32 627.18 289.89 618.26 C 279.51 622.70 269.20 627.32 258.80 631.72 C 250.12 635.40 240.89 637.59 232.26 641.39 C 223.63 644.77 215.49 649.23 207.05 653.03 C 195.77 658.40 184.91 664.83 172.87 668.42 C 162.25 671.51 151.79 675.07 141.15 678.07 C 134.13 680.09 127.28 684.43 119.73 683.20 C 115.86 682.66 113.26 677.70 115.46 674.35 C 116.44 672.31 118.68 671.00 120.95 671.30 C 125.15 671.60 129.00 669.64 132.92 668.44 C 139.83 665.88 147.10 664.55 154.08 662.22 C 161.68 659.73 169.54 658.10 176.98 655.16 C 186.02 651.80 194.33 646.85 203.12 642.94 C 211.83 639.08 220.24 634.59 229.13 631.15 C 237.01 627.69 245.43 625.69 253.36 622.37 C 261.07 619.20 268.64 615.68 276.36 612.50 C 277.56 611.90 278.97 611.58 279.92 610.58 C 276.97 608.38 273.72 606.63 270.78 604.42 C 263.73 599.02 255.65 594.97 249.39 588.56 C 242.34 582.53 234.80 577.07 227.00 572.04 C 207.90 558.26 191.48 541.08 172.04 527.71 C 166.66 536.26 163.76 546.03 158.80 554.80 C 154.38 562.65 149.76 570.51 147.19 579.21 C 145.99 583.51 143.91 587.54 143.04 591.94 C 141.60 599.71 140.06 607.53 137.19 614.92 C 134.70 622.24 130.33 628.71 127.59 635.92 C 123.25 647.06 118.64 658.21 112.00 668.22 C 109.93 669.23 107.35 670.30 105.20 668.88 C 102.07 667.36 101.23 662.97 103.26 660.24 C 111.83 647.44 115.50 632.22 123.03 618.87 C 129.75 606.48 130.00 591.97 135.44 579.12 C 136.28 576.70 136.97 574.23 137.84 571.82 C 142.27 559.24 150.63 548.55 155.28 536.07 C 157.23 530.46 160.96 525.70 162.98 520.15 C 155.31 514.43 148.38 507.66 139.92 503.10 C 134.07 499.90 128.37 496.40 122.16 493.96 C 119.76 492.83 116.88 491.72 115.81 489.08 C 114.93 486.96 115.73 484.71 116.47 482.69 C 114.49 481.91 112.41 481.41 110.53 480.42 C 108.35 478.75 107.63 475.44 109.00 473.05 C 111.33 468.91 114.44 465.27 117.37 461.55 C 120.19 457.63 124.71 455.42 127.68 451.64 C 132.49 445.35 136.35 438.39 141.06 432.03 C 144.96 427.93 148.52 423.51 152.69 419.67 C 158.82 412.45 164.85 405.16 171.04 398.00 C 177.71 390.69 184.93 383.90 191.43 376.43 C 199.23 368.16 205.41 358.48 213.72 350.67 Z" />
<path fill="#f4b132" d=" M 631.76 347.37 C 632.80 346.15 634.54 346.32 635.96 345.96 C 635.74 347.10 635.51 348.23 635.29 349.38 C 633.95 349.47 632.62 349.56 631.31 349.63 C 631.44 348.87 631.59 348.12 631.76 347.37 Z" />
<path fill="#0a0a0a" d=" M 309.55 353.97 C 309.34 348.96 316.14 345.40 319.79 349.16 C 323.72 353.91 328.16 358.23 331.81 363.23 C 333.90 366.11 336.12 368.90 338.56 371.49 C 342.25 375.45 345.14 380.06 348.71 384.12 C 351.83 387.72 355.80 390.47 358.85 394.13 C 363.48 399.60 367.71 405.38 372.15 411.00 C 380.63 419.45 391.77 425.30 398.32 435.63 C 402.53 440.53 405.36 446.49 410.00 451.03 C 419.93 459.99 426.49 471.85 435.11 481.96 C 439.85 486.99 443.39 492.98 447.44 498.56 C 450.76 504.57 457.89 507.53 460.50 514.01 C 460.32 514.53 459.96 515.57 459.79 516.09 C 459.17 517.09 458.55 518.09 457.91 519.09 C 456.40 519.92 454.67 520.66 452.92 520.24 C 450.08 519.32 448.54 516.57 446.31 514.78 C 437.94 508.14 433.97 497.84 427.07 489.92 C 420.83 482.40 415.28 474.34 409.26 466.65 C 405.40 461.56 399.91 457.91 396.50 452.45 C 393.46 447.56 389.78 443.13 386.41 438.49 C 381.86 433.01 375.69 429.28 370.45 424.54 C 360.14 417.18 355.11 404.78 345.36 396.83 C 339.16 391.83 335.19 384.77 329.82 378.98 C 324.63 373.81 320.86 367.42 315.50 362.40 C 313.30 359.78 309.27 357.91 309.55 353.97 Z" />
<path fill="#f5f3ef" d=" M 611.63 359.44 C 621.41 358.99 631.21 359.50 641.00 359.40 C 648.36 359.16 655.58 361.50 662.96 360.57 C 662.89 361.04 662.74 361.99 662.67 362.47 C 658.75 362.46 654.83 362.63 650.94 363.10 C 638.34 363.76 625.71 362.93 613.11 363.64 C 608.73 363.92 604.34 363.81 599.97 363.86 C 593.66 364.07 587.35 365.25 581.03 364.50 C 579.38 364.38 578.40 363.48 578.10 361.80 C 589.30 361.62 600.53 361.00 611.63 359.44 Z" />
<path fill="#f5f3ef" d=" M 647.34 365.98 C 647.94 366.01 649.14 366.06 649.74 366.09 C 652.01 380.29 651.42 394.76 653.44 408.96 C 653.37 412.00 653.61 415.24 652.28 418.06 C 651.59 418.19 650.22 418.44 649.53 418.57 C 649.36 414.33 649.67 410.07 649.07 405.86 C 647.89 397.30 648.87 388.63 647.89 380.07 C 648.00 375.37 648.69 370.58 647.34 365.98 Z" />
<path fill="#0a0a0a" d=" M 593.68 366.58 C 595.46 366.34 596.81 367.09 596.72 368.99 C 597.11 374.66 596.58 380.35 596.96 386.01 C 597.55 392.65 596.89 399.33 597.54 405.97 C 597.69 411.12 599.51 416.89 596.23 421.48 C 594.58 421.43 592.53 422.16 591.28 420.74 C 589.82 419.65 590.40 417.52 590.20 415.97 C 590.48 404.30 590.40 392.63 590.86 380.97 C 590.94 376.89 590.54 372.83 590.21 368.78 C 590.40 368.47 590.77 367.85 590.96 367.54 C 592.74 368.71 592.24 371.11 592.42 372.92 C 592.16 388.28 592.61 403.63 592.88 418.99 C 593.40 418.85 594.45 418.56 594.98 418.42 C 596.36 412.37 595.72 406.01 594.78 399.93 C 594.02 388.83 594.97 377.64 593.68 366.58 Z" />
<path fill="#f5f3ef" d=" M 544.50 385.63 C 552.41 384.47 560.27 386.48 568.07 387.61 C 568.21 387.82 568.48 388.23 568.62 388.44 C 561.46 389.53 554.21 389.20 547.01 389.25 C 544.32 388.94 541.44 389.03 539.05 387.62 C 541.01 387.34 543.17 387.33 544.50 385.63 Z" />
<path fill="#f5f3ef" d=" M 540.48 390.84 C 541.23 391.35 541.60 392.04 541.59 392.91 C 541.39 401.12 542.11 409.35 541.39 417.55 C 540.99 417.84 540.19 418.43 539.78 418.72 C 539.27 414.81 539.81 410.89 540.21 407.00 C 540.36 401.62 539.95 396.21 540.48 390.84 Z" />
<path fill="#f5f3ef" d=" M 544.21 400.56 C 544.33 397.61 544.46 394.65 544.59 391.71 C 551.60 391.73 558.61 391.90 565.62 391.77 C 565.37 394.45 564.84 397.09 564.33 399.73 C 557.62 400.04 550.93 400.98 544.21 400.56 Z" />
<path fill="#0a0a0a" d=" M 674.54 394.44 C 675.05 392.41 677.85 390.35 679.83 392.05 C 683.30 394.55 686.77 397.33 688.81 401.19 C 691.20 405.46 694.07 409.44 697.59 412.86 C 697.94 417.10 692.76 418.09 690.00 420.07 C 692.93 429.17 696.98 437.86 700.25 446.84 C 702.97 454.99 707.53 462.36 710.38 470.45 C 715.89 485.75 724.23 499.80 730.21 514.90 C 734.91 525.00 738.13 535.68 741.87 546.15 C 742.69 548.03 743.46 549.93 744.23 551.85 C 747.26 560.42 754.19 567.58 754.58 576.98 C 765.96 571.59 778.24 567.30 790.99 567.55 C 798.64 567.72 806.33 567.23 813.95 568.19 C 819.20 568.48 824.67 568.27 829.64 570.29 C 836.65 574.43 845.09 574.69 852.54 577.75 C 861.80 581.68 872.02 583.68 880.28 589.69 C 889.05 595.86 898.62 601.13 905.99 609.04 C 913.55 616.25 919.14 625.18 925.78 633.19 C 928.98 637.18 931.47 641.66 933.76 646.21 C 934.75 648.21 935.73 650.22 936.72 652.23 C 941.60 661.53 944.62 671.70 946.87 681.92 C 948.22 687.67 949.99 693.41 950.38 699.32 C 950.14 699.73 949.66 700.54 949.42 700.95 C 949.40 694.24 946.78 687.92 946.10 681.30 C 945.66 681.41 944.78 681.62 944.34 681.73 C 944.71 680.88 945.08 680.03 945.46 679.20 C 945.02 677.94 944.60 676.69 944.25 675.42 C 943.28 671.58 942.21 667.77 940.81 664.07 C 938.28 656.77 934.42 650.06 931.02 643.16 C 927.45 635.75 921.49 629.96 916.71 623.36 C 911.77 616.68 905.45 611.26 899.55 605.46 C 892.71 599.01 884.06 595.09 876.42 589.75 C 867.94 584.47 858.31 581.52 848.87 578.50 C 841.25 576.76 833.25 574.54 825.45 576.41 C 825.36 575.80 825.16 574.59 825.07 573.98 C 826.22 573.23 827.38 572.49 828.55 571.75 C 815.76 567.68 802.18 568.82 788.96 568.59 C 781.37 568.33 774.06 570.77 766.85 572.80 C 761.96 574.67 757.16 576.78 752.72 579.58 C 752.37 578.78 752.03 577.99 751.72 577.19 C 750.92 574.56 751.02 571.70 749.81 569.18 C 746.72 562.96 744.74 556.29 742.22 549.83 C 741.51 548.17 740.82 546.51 740.15 544.85 C 738.58 540.84 737.19 536.75 735.39 532.83 C 731.56 524.37 729.90 514.99 725.09 506.96 C 721.33 499.90 717.03 493.07 714.43 485.46 C 711.82 477.25 708.29 469.35 704.21 461.77 C 700.13 454.43 698.00 446.23 694.39 438.67 C 691.69 433.23 689.39 427.61 687.13 421.98 C 683.46 423.69 679.61 425.67 675.44 424.36 C 674.78 414.40 676.62 404.29 674.54 394.44 Z" />
<path fill="#f5f3ef" d=" M 567.92 393.95 C 568.27 398.11 568.63 402.34 567.76 406.46 C 567.03 410.36 567.43 414.38 566.43 418.24 C 564.02 415.48 565.14 411.28 564.80 407.91 C 565.21 405.90 565.56 403.88 566.07 401.90 C 566.46 399.20 567.18 396.57 567.92 393.95 Z" />
<path fill="#f5f3ef" d=" M 544.13 403.18 C 550.65 403.18 557.13 402.04 563.66 402.55 L 563.83 404.66 C 557.29 405.44 550.71 405.37 544.13 405.38 L 544.13 403.18 Z" />
<path fill="#605f5d" d=" M 681.27 421.30 C 681.82 421.75 681.82 421.75 681.27 421.30 Z" />
<path fill="#41a3e7" d=" M 65.98 428.92 C 71.40 425.70 78.57 425.73 83.96 429.02 C 91.07 433.00 94.49 442.30 91.77 449.97 C 90.73 453.66 88.01 456.47 85.22 458.95 C 93.40 463.93 97.73 472.82 101.28 481.35 C 103.61 487.18 103.64 493.78 101.85 499.75 C 99.60 505.64 92.52 506.99 86.95 507.15 C 80.34 506.29 73.64 506.71 67.02 505.85 C 60.58 505.18 53.68 507.38 47.57 504.51 C 42.08 502.00 40.11 495.57 39.71 490.01 C 40.33 482.33 41.89 474.18 47.25 468.29 C 51.63 463.87 56.50 459.87 62.14 457.15 C 59.73 453.88 57.33 450.27 57.21 446.07 C 56.42 439.28 59.98 432.23 65.98 428.92 Z" />
<path fill="#f4b132" d=" M 470.97 476.99 C 474.49 472.47 480.30 469.82 486.03 470.27 C 495.10 470.58 502.98 478.89 502.67 487.99 C 502.90 493.64 499.78 498.73 495.70 502.39 C 502.99 503.11 509.15 508.37 512.15 514.88 C 515.84 522.68 517.27 531.41 517.39 539.98 C 517.57 546.06 512.09 551.59 506.00 551.40 C 496.29 551.29 486.70 549.06 476.97 549.43 C 469.65 549.52 462.28 551.24 454.99 549.71 C 453.91 549.55 452.48 548.92 452.45 547.68 C 452.26 544.14 452.40 540.59 452.00 537.07 C 451.36 530.52 454.59 524.48 457.91 519.09 C 458.55 518.09 459.17 517.09 459.79 516.09 C 465.16 510.76 472.26 507.90 479.16 505.13 C 475.32 503.12 471.47 500.64 469.41 496.67 C 465.98 490.61 466.53 482.41 470.97 476.99 Z" />
<path fill="#f5f3ef" d=" M 128.83 483.70 C 137.24 483.26 145.62 482.35 154.05 482.28 C 163.26 482.20 172.74 481.62 181.63 484.54 C 176.85 492.83 171.65 500.92 167.71 509.66 C 160.90 504.40 154.69 498.29 147.21 493.93 C 141.16 490.39 135.16 486.73 128.83 483.70 Z" />
<path fill="#f5f3ef" d=" M 176.99 517.00 C 180.07 506.49 187.42 497.87 192.01 488.01 C 197.08 489.23 201.95 491.14 206.94 492.62 C 214.60 494.59 222.30 496.47 230.13 497.62 C 249.34 503.31 269.61 502.53 289.20 506.04 C 300.14 507.31 311.03 508.97 321.91 510.63 C 330.12 513.05 338.48 515.22 347.07 515.76 C 348.12 515.85 349.56 515.79 349.96 517.07 C 354.24 525.04 356.04 533.99 359.34 542.35 C 363.17 551.55 366.17 561.05 369.60 570.41 C 363.36 573.81 357.07 577.13 350.90 580.66 C 335.75 588.83 319.27 593.99 303.04 599.50 C 299.51 600.55 296.35 602.46 293.14 604.22 C 290.78 605.89 288.87 602.97 286.96 601.97 C 279.83 597.51 273.17 592.36 266.06 587.89 C 259.79 583.92 254.86 578.26 248.72 574.12 C 240.36 567.38 230.93 562.13 222.61 555.32 C 211.73 545.96 200.91 536.52 189.85 527.37 C 185.66 523.80 180.77 520.98 176.99 517.00 Z" />
<path fill="#0a0a0a" d=" M 70.43 511.51 C 74.41 509.80 78.65 512.81 79.24 516.86 C 80.79 524.78 79.90 532.92 80.69 540.92 C 81.54 548.61 81.02 556.35 81.44 564.06 C 82.46 573.99 82.99 583.96 83.52 593.92 C 85.25 604.23 85.41 614.70 85.35 625.13 C 84.66 630.92 75.51 631.61 73.87 626.06 C 72.90 618.25 74.20 610.27 72.94 602.46 C 72.60 598.30 71.56 594.22 71.58 590.04 C 71.66 578.30 69.29 566.68 69.66 554.94 C 69.83 545.24 68.31 535.62 68.23 525.93 C 68.24 522.87 67.32 519.92 66.74 516.95 C 66.74 514.64 68.27 512.36 70.43 511.51 Z" />
<path fill="#0a0a0a" d=" M 472.92 559.89 C 475.73 556.82 481.50 558.05 482.89 561.98 C 484.44 565.05 481.81 567.72 480.74 570.42 C 478.64 576.85 475.32 582.79 473.31 589.26 C 469.14 597.71 465.45 606.39 462.72 615.42 C 460.50 624.16 456.47 632.29 453.84 640.92 C 451.37 646.57 451.67 653.12 448.46 658.48 C 447.50 660.08 445.55 660.55 444.01 661.40 C 440.82 660.83 437.45 658.67 437.64 655.04 C 438.84 651.09 440.23 647.19 440.85 643.09 C 443.41 634.57 446.68 626.27 450.05 618.03 C 453.03 608.07 456.19 598.12 460.78 588.76 C 463.30 583.94 464.30 578.52 466.77 573.68 C 469.09 569.19 469.16 563.59 472.92 559.89 Z" />
<path fill="#f5f3ef" d=" M 766.85 572.80 C 774.06 570.77 781.37 568.33 788.96 568.59 C 802.18 568.82 815.76 567.68 828.55 571.75 C 827.38 572.49 826.22 573.23 825.07 573.98 C 825.16 574.59 825.36 575.80 825.45 576.41 C 833.25 574.54 841.25 576.76 848.87 578.50 C 858.31 581.52 867.94 584.47 876.42 589.75 C 884.06 595.09 892.71 599.01 899.55 605.46 C 905.45 611.26 911.77 616.68 916.71 623.36 C 921.49 629.96 927.45 635.75 931.02 643.16 C 934.42 650.06 938.28 656.77 940.81 664.07 C 942.21 667.77 943.28 671.58 944.25 675.42 C 935.38 684.44 922.61 689.10 910.04 688.54 C 897.24 689.03 884.32 687.70 872.13 683.70 C 867.70 682.23 864.00 679.24 859.66 677.60 C 852.31 675.10 844.14 674.34 836.68 676.83 C 837.61 669.23 838.21 661.60 839.00 653.99 C 839.47 648.54 841.26 642.66 838.37 637.55 C 832.88 637.55 827.41 637.76 821.94 638.15 C 816.72 637.92 811.53 637.17 806.30 637.13 C 805.01 644.35 806.25 651.70 805.55 658.98 C 805.93 663.88 804.87 669.04 806.11 673.79 C 806.36 673.82 806.86 673.87 807.10 673.90 C 807.88 668.28 807.32 662.59 807.92 656.95 C 808.51 651.21 808.27 645.43 808.57 639.67 C 818.00 639.72 827.39 640.71 836.82 640.42 C 838.32 646.22 836.82 652.24 836.48 658.11 C 835.49 671.40 833.03 684.59 833.27 697.96 C 833.28 705.55 833.38 713.15 831.98 720.66 C 831.50 729.44 830.29 738.20 830.67 747.01 C 831.02 754.03 829.73 760.95 828.86 767.88 C 828.13 772.69 828.82 777.80 826.51 782.28 C 816.70 781.80 807.37 777.94 797.46 778.62 C 795.44 768.23 797.51 757.71 797.60 747.26 C 798.56 739.46 798.66 731.52 800.67 723.88 C 801.48 720.68 801.15 717.35 801.57 714.10 C 802.52 705.84 803.53 697.59 804.79 689.37 C 804.25 689.60 803.17 690.06 802.63 690.29 C 802.09 698.65 800.47 706.91 799.69 715.26 C 799.32 715.96 798.98 716.69 798.67 717.43 C 793.48 716.70 788.25 716.78 783.03 716.83 C 777.77 716.90 772.52 715.58 767.27 716.40 C 765.53 716.61 764.06 718.08 764.19 719.90 C 764.12 725.25 765.65 730.71 764.27 736.01 C 763.18 739.62 758.97 738.70 756.15 738.33 C 750.06 736.83 745.73 731.88 741.05 728.05 C 735.26 722.04 729.27 714.81 729.24 706.01 C 728.90 694.82 730.31 682.63 737.74 673.73 C 739.83 671.29 741.52 667.93 744.88 667.10 C 747.29 666.31 749.81 667.03 752.18 667.60 C 753.07 671.39 753.18 675.50 755.04 679.00 C 758.11 683.16 762.31 687.99 768.05 687.36 C 773.34 687.55 777.83 684.36 782.70 682.79 C 783.20 683.29 784.22 684.29 784.72 684.79 C 791.27 683.88 797.87 683.27 804.49 683.62 C 804.25 684.48 803.77 686.20 803.52 687.06 C 803.98 687.68 804.44 688.34 804.96 688.94 C 805.00 684.63 806.43 680.45 806.40 676.17 L 805.93 675.81 L 805.39 675.77 C 798.38 674.51 791.11 674.63 784.06 675.56 C 783.26 679.60 778.84 680.21 775.73 681.83 C 771.43 683.84 765.31 685.26 761.63 681.39 C 759.48 679.35 757.30 676.99 756.93 673.93 C 756.07 670.37 756.34 665.27 752.13 663.85 C 747.87 662.93 742.56 662.91 739.37 666.37 C 736.49 669.52 733.87 672.94 731.60 676.56 C 726.62 685.85 725.52 696.67 725.84 707.05 C 726.91 719.20 735.99 728.72 745.13 735.90 C 749.43 739.81 755.04 742.43 760.96 741.95 C 764.09 742.25 766.64 739.75 767.54 736.93 C 769.38 731.29 767.84 725.35 767.39 719.63 C 771.17 719.45 774.98 719.62 778.70 720.40 C 778.67 722.04 778.65 723.68 778.65 725.34 C 785.26 726.12 791.91 725.40 798.54 725.66 C 796.89 733.03 796.28 740.60 795.91 748.14 C 795.88 758.67 793.89 769.13 794.83 779.66 C 787.89 779.40 780.95 779.51 774.04 778.89 C 766.67 778.66 759.27 778.75 751.96 777.71 C 740.31 777.25 728.65 777.40 717.00 777.20 C 712.87 777.13 708.92 775.74 704.82 775.47 C 702.48 777.10 701.76 780.35 702.39 783.01 C 703.65 784.81 706.00 784.67 707.96 784.69 C 714.64 784.56 721.35 784.22 728.03 784.94 C 737.97 785.94 748.03 784.81 757.93 786.42 C 767.44 787.25 777.03 786.78 786.52 787.86 C 793.65 788.62 800.84 788.27 807.99 788.43 C 814.73 788.20 821.35 790.37 828.09 789.52 C 828.99 786.70 830.68 784.06 830.76 781.04 C 830.69 771.00 832.55 761.07 832.58 751.03 C 832.96 741.69 832.43 732.31 833.16 722.99 C 838.97 719.11 846.11 718.06 852.97 718.74 C 857.52 719.54 862.05 720.59 866.56 721.65 C 871.98 723.09 877.72 724.21 882.28 727.70 C 887.46 731.65 893.32 734.61 898.40 738.69 C 903.37 743.04 908.32 747.75 911.15 753.83 C 913.71 759.01 913.45 765.00 915.44 770.38 C 917.35 776.49 921.98 781.28 926.86 785.20 C 931.30 788.20 936.41 790.13 941.48 791.78 C 938.95 798.80 936.00 805.71 931.87 811.96 C 925.51 821.68 919.98 832.30 910.95 839.89 C 905.06 844.67 900.39 850.78 894.23 855.23 C 879.33 866.46 862.32 875.14 844.11 879.44 C 839.72 880.55 835.40 882.05 830.89 882.58 C 807.27 883.89 783.56 880.03 761.08 872.85 C 745.46 867.44 730.77 859.35 717.69 849.27 C 709.17 842.84 701.48 835.42 693.15 828.76 C 688.00 824.26 682.47 820.10 678.29 814.63 C 668.72 803.44 661.40 790.58 654.30 777.73 C 649.11 768.38 645.65 757.82 645.87 747.04 C 645.91 733.98 646.10 720.87 648.52 708.00 C 650.67 689.00 655.68 669.70 667.14 654.07 C 673.74 644.79 680.06 635.23 688.01 627.01 C 697.86 616.78 708.63 607.46 720.01 598.97 C 730.13 591.27 741.60 585.65 752.72 579.58 C 757.16 576.78 761.96 574.67 766.85 572.80 Z" />
<path fill="#605f5d" d=" M 751.72 577.19 C 752.03 577.99 752.37 578.78 752.72 579.58 C 741.60 585.65 730.13 591.27 720.01 598.97 C 708.63 607.46 697.86 616.78 688.01 627.01 C 680.06 635.23 673.74 644.79 667.14 654.07 C 655.68 669.70 650.67 689.00 648.52 708.00 C 646.10 720.87 645.91 733.98 645.87 747.04 C 645.65 757.82 649.11 768.38 654.30 777.73 C 661.40 790.58 668.72 803.44 678.29 814.63 C 682.47 820.10 688.00 824.26 693.15 828.76 C 701.48 835.42 709.17 842.84 717.69 849.27 C 730.77 859.35 745.46 867.44 761.08 872.85 C 783.56 880.03 807.27 883.89 830.89 882.58 C 835.40 882.05 839.72 880.55 844.11 879.44 C 862.32 875.14 879.33 866.46 894.23 855.23 C 900.39 850.78 905.06 844.67 910.95 839.89 C 919.98 832.30 925.51 821.68 931.87 811.96 C 936.00 805.71 938.95 798.80 941.48 791.78 L 942.49 791.86 L 943.10 791.91 C 940.68 799.63 937.16 806.98 932.73 813.75 C 926.63 823.12 921.23 833.24 912.60 840.60 C 906.61 845.60 901.79 851.88 895.42 856.43 C 879.58 868.49 861.28 877.41 841.82 881.79 C 830.95 885.63 819.31 884.52 808.03 884.02 C 796.50 883.00 784.98 881.24 773.81 878.19 C 748.02 872.41 724.65 858.50 705.04 841.06 C 697.14 833.89 688.50 827.58 680.89 820.09 C 671.03 809.59 663.32 797.29 656.31 784.76 C 649.92 774.21 644.66 762.48 644.24 749.97 C 644.39 736.12 644.10 722.18 646.75 708.52 C 648.89 689.89 653.46 670.90 664.29 655.28 C 669.13 648.19 674.13 641.20 679.32 634.37 C 690.46 620.90 703.69 609.31 717.55 598.72 C 727.16 591.21 738.02 585.54 748.76 579.83 C 749.96 579.23 751.02 578.36 751.72 577.19 Z" />
<path fill="#0a0a0a" d=" M 806.30 637.13 C 811.53 637.17 816.72 637.92 821.94 638.15 C 827.41 637.76 832.88 637.55 838.37 637.55 C 841.26 642.66 839.47 648.54 839.00 653.99 C 838.21 661.60 837.61 669.23 836.68 676.83 C 836.59 677.80 836.40 679.74 836.31 680.70 C 835.15 693.38 834.67 706.11 833.48 718.80 C 833.39 720.20 833.23 721.56 833.16 722.99 C 832.43 732.31 832.96 741.69 832.58 751.03 C 832.55 761.07 830.69 771.00 830.76 781.04 C 830.68 784.06 828.99 786.70 828.09 789.52 C 821.35 790.37 814.73 788.20 807.99 788.43 C 800.84 788.27 793.65 788.62 786.52 787.86 C 777.03 786.78 767.44 787.25 757.93 786.42 C 748.03 784.81 737.97 785.94 728.03 784.94 C 721.35 784.22 714.64 784.56 707.96 784.69 C 706.00 784.67 703.65 784.81 702.39 783.01 C 701.76 780.35 702.48 777.10 704.82 775.47 C 708.92 775.74 712.87 777.13 717.00 777.20 C 728.65 777.40 740.31 777.25 751.96 777.71 C 759.27 778.75 766.67 778.66 774.04 778.89 C 780.95 779.51 787.89 779.40 794.83 779.66 C 793.89 769.13 795.88 758.67 795.91 748.14 L 797.60 747.26 C 797.51 757.71 795.44 768.23 797.46 778.62 C 807.37 777.94 816.70 781.80 826.51 782.28 C 828.82 777.80 828.13 772.69 828.86 767.88 C 829.73 760.95 831.02 754.03 830.67 747.01 C 830.29 738.20 831.50 729.44 831.98 720.66 C 833.38 713.15 833.28 705.55 833.27 697.96 C 833.03 684.59 835.49 671.40 836.48 658.11 C 836.82 652.24 838.32 646.22 836.82 640.42 C 827.39 640.71 818.00 639.72 808.57 639.67 C 808.27 645.43 808.51 651.21 807.92 656.95 C 807.32 662.59 807.88 668.28 807.10 673.90 C 806.86 673.87 806.36 673.82 806.11 673.79 C 804.87 669.04 805.93 663.88 805.55 658.98 C 806.25 651.70 805.01 644.35 806.30 637.13 Z" />
<path fill="#1fbb2e" d=" M 68.36 653.01 C 67.70 644.58 75.56 636.80 83.98 637.49 C 92.74 637.56 99.96 646.59 98.10 655.15 C 97.31 659.82 94.08 663.61 90.13 666.03 C 94.74 667.58 98.25 670.89 101.61 674.26 C 107.29 678.27 111.71 684.18 113.37 690.97 C 113.91 696.08 113.46 702.49 108.85 705.68 C 101.58 708.37 93.60 706.99 86.04 707.99 C 78.39 709.04 70.66 708.64 62.97 708.74 C 59.57 708.68 55.39 708.93 53.17 705.79 C 50.05 700.79 51.25 694.43 52.85 689.11 C 54.39 682.97 59.81 679.23 63.88 674.83 C 67.38 670.94 71.86 668.12 76.64 666.07 C 72.05 663.33 68.28 658.56 68.36 653.01 Z" />
<path fill="#1138fe" d=" M 397.67 644.68 C 402.66 639.09 410.88 636.85 418.04 638.97 C 424.91 640.96 430.45 646.92 431.96 653.91 C 433.33 660.04 431.58 666.74 427.40 671.42 C 424.90 674.38 421.34 676.10 417.94 677.80 C 423.37 678.30 428.00 681.62 432.06 685.03 C 436.65 689.94 438.47 696.66 439.90 703.06 C 441.28 707.61 440.40 712.38 440.46 717.04 C 440.57 720.20 438.70 723.46 435.60 724.44 C 429.75 725.70 423.94 723.24 418.06 723.85 C 407.38 724.80 396.67 723.96 385.99 723.71 C 383.56 723.80 381.63 722.17 379.61 721.09 C 379.30 717.71 378.93 714.17 380.18 710.94 C 381.72 707.26 381.84 703.18 383.40 699.52 C 386.03 692.71 391.04 687.16 396.30 682.25 C 398.76 679.84 401.82 678.21 405.05 677.06 C 400.69 674.69 396.50 671.54 394.43 666.88 C 390.82 659.73 392.19 650.51 397.67 644.68 Z" />
<path fill="#1fbb2e" d=" M 739.37 666.37 C 742.56 662.91 747.87 662.93 752.13 663.85 C 756.34 665.27 756.07 670.37 756.93 673.93 C 757.30 676.99 759.48 679.35 761.63 681.39 C 765.31 685.26 771.43 683.84 775.73 681.83 C 778.84 680.21 783.26 679.60 784.06 675.56 C 791.11 674.63 798.38 674.51 805.39 675.77 C 805.14 678.39 804.96 681.02 804.49 683.62 C 797.87 683.27 791.27 683.88 784.72 684.79 C 784.22 684.29 783.20 683.29 782.70 682.79 C 777.83 684.36 773.34 687.55 768.05 687.36 C 762.31 687.99 758.11 683.16 755.04 679.00 C 753.18 675.50 753.07 671.39 752.18 667.60 C 749.81 667.03 747.29 666.31 744.88 667.10 C 741.52 667.93 739.83 671.29 737.74 673.73 C 730.31 682.63 728.90 694.82 729.24 706.01 C 729.27 714.81 735.26 722.04 741.05 728.05 C 745.73 731.88 750.06 736.83 756.15 738.33 C 758.97 738.70 763.18 739.62 764.27 736.01 C 765.65 730.71 764.12 725.25 764.19 719.90 C 764.06 718.08 765.53 716.61 767.27 716.40 C 772.52 715.58 777.77 716.90 783.03 716.83 C 788.25 716.78 793.48 716.70 798.67 717.43 C 798.98 716.69 799.32 715.96 799.69 715.26 C 799.68 715.40 799.67 715.68 799.66 715.82 C 799.62 719.12 799.36 722.44 798.54 725.66 C 791.91 725.40 785.26 726.12 778.65 725.34 C 778.65 723.68 778.67 722.04 778.70 720.40 C 774.98 719.62 771.17 719.45 767.39 719.63 C 767.84 725.35 769.38 731.29 767.54 736.93 C 766.64 739.75 764.09 742.25 760.96 741.95 C 755.04 742.43 749.43 739.81 745.13 735.90 C 735.99 728.72 726.91 719.20 725.84 707.05 C 725.52 696.67 726.62 685.85 731.60 676.56 C 733.87 672.94 736.49 669.52 739.37 666.37 Z" />
<path fill="#f4b132" d=" M 836.68 676.83 C 844.14 674.34 852.31 675.10 859.66 677.60 C 864.00 679.24 867.70 682.23 872.13 683.70 C 884.32 687.70 897.24 689.03 910.04 688.54 C 922.61 689.10 935.38 684.44 944.25 675.42 C 944.60 676.69 945.02 677.94 945.46 679.20 C 945.08 680.03 944.71 680.88 944.34 681.73 C 936.33 688.08 926.21 691.61 916.04 692.10 C 906.24 691.53 896.33 692.38 886.62 690.61 C 881.35 689.69 876.08 688.66 871.02 686.92 C 865.12 684.90 860.21 680.47 853.90 679.59 C 848.06 678.11 841.96 678.78 836.31 680.70 C 836.40 679.74 836.59 677.80 836.68 676.83 Z" />
<path fill="#0a0a0a" d=" M 805.39 675.77 L 805.93 675.81 L 806.40 676.17 C 806.43 680.45 805.00 684.63 804.96 688.94 C 804.44 688.34 803.98 687.68 803.52 687.06 C 803.77 686.20 804.25 684.48 804.49 683.62 C 804.96 681.02 805.14 678.39 805.39 675.77 Z" />
<path fill="#f5f3ef" d=" M 836.31 680.70 C 841.96 678.78 848.06 678.11 853.90 679.59 C 860.21 680.47 865.12 684.90 871.02 686.92 C 876.08 688.66 881.35 689.69 886.62 690.61 C 896.33 692.38 906.24 691.53 916.04 692.10 C 926.21 691.61 936.33 688.08 944.34 681.73 C 944.78 681.62 945.66 681.41 946.10 681.30 C 946.78 687.92 949.40 694.24 949.42 700.95 C 949.28 714.63 949.56 728.32 948.89 741.99 C 948.76 750.74 947.22 759.37 946.12 768.03 C 945.23 774.98 943.96 781.88 942.19 788.66 C 936.79 786.33 930.78 784.74 926.49 780.50 C 923.53 777.68 920.61 774.60 919.18 770.70 C 916.71 764.98 917.17 758.46 914.43 752.84 C 911.19 745.49 905.23 739.81 899.05 734.90 C 894.39 731.47 889.29 728.69 884.67 725.22 C 877.77 720.02 868.96 718.89 860.81 716.86 C 851.93 714.73 841.56 713.77 833.48 718.80 C 834.67 706.11 835.15 693.38 836.31 680.70 Z" />
<path fill="#605f5d" d=" M 802.63 690.29 C 803.17 690.06 804.25 689.60 804.79 689.37 C 803.53 697.59 802.52 705.84 801.57 714.10 C 801.15 717.35 801.48 720.68 800.67 723.88 C 798.66 731.52 798.56 739.46 797.60 747.26 L 795.91 748.14 C 796.28 740.60 796.89 733.03 798.54 725.66 C 799.36 722.44 799.62 719.12 799.66 715.82 C 799.67 715.68 799.68 715.40 799.69 715.26 C 800.47 706.91 802.09 698.65 802.63 690.29 Z" />
<path fill="#0a0a0a" d=" M 126.26 697.41 C 128.77 696.22 131.43 697.81 134.01 697.96 C 140.98 698.66 148.04 698.53 155.01 697.75 C 169.00 697.17 183.02 697.51 197.02 697.46 C 210.04 697.57 223.07 697.24 236.07 698.14 C 241.73 698.23 247.43 698.18 253.03 699.18 C 261.01 700.03 269.02 700.56 277.01 701.22 C 284.97 701.49 292.94 701.21 300.91 701.37 C 306.29 701.78 311.61 702.77 316.97 703.42 C 322.60 703.92 328.31 703.24 333.88 704.43 C 345.06 707.04 356.60 706.02 367.97 706.25 C 372.13 706.14 374.92 711.57 372.59 714.97 C 371.11 718.34 367.06 717.89 364.05 717.88 C 353.33 717.58 342.39 718.63 331.89 715.98 C 327.30 714.97 322.58 715.46 317.93 715.11 C 309.63 714.32 301.44 712.18 293.05 712.52 C 278.33 712.76 263.62 711.77 249.04 709.76 C 242.04 708.89 234.98 709.47 227.97 708.82 C 213.66 708.28 199.33 708.74 185.01 708.66 C 172.34 708.63 159.64 708.71 147.04 710.15 C 140.02 710.27 132.76 710.75 125.99 708.55 C 121.26 706.67 121.41 699.02 126.26 697.41 Z" />
<path fill="#605f5d" d=" M 949.42 700.95 C 949.66 700.54 950.14 699.73 950.38 699.32 C 951.75 708.15 950.73 717.12 950.91 726.02 C 950.95 737.67 950.71 749.38 948.75 760.90 C 947.56 770.17 946.50 779.53 943.86 788.53 C 943.53 788.59 942.88 788.72 942.55 788.78 L 942.19 788.66 C 943.96 781.88 945.23 774.98 946.12 768.03 C 947.22 759.37 948.76 750.74 948.89 741.99 C 949.56 728.32 949.28 714.63 949.42 700.95 Z" />
<path fill="#1138fe" d=" M 833.48 718.80 C 841.56 713.77 851.93 714.73 860.81 716.86 C 868.96 718.89 877.77 720.02 884.67 725.22 C 889.29 728.69 894.39 731.47 899.05 734.90 C 905.23 739.81 911.19 745.49 914.43 752.84 C 917.17 758.46 916.71 764.98 919.18 770.70 C 920.61 774.60 923.53 777.68 926.49 780.50 C 930.78 784.74 936.79 786.33 942.19 788.66 L 942.55 788.78 C 942.54 789.55 942.50 791.09 942.49 791.86 L 941.48 791.78 C 936.41 790.13 931.30 788.20 926.86 785.20 C 921.98 781.28 917.35 776.49 915.44 770.38 C 913.45 765.00 913.71 759.01 911.15 753.83 C 908.32 747.75 903.37 743.04 898.40 738.69 C 893.32 734.61 887.46 731.65 882.28 727.70 C 877.72 724.21 871.98 723.09 866.56 721.65 C 862.05 720.59 857.52 719.54 852.97 718.74 C 846.11 718.06 838.97 719.11 833.16 722.99 C 833.23 721.56 833.39 720.20 833.48 718.80 Z" />
<path fill="#f5f3ef" d=" M 705.33 778.41 C 716.72 780.91 728.42 779.22 739.96 779.70 C 749.97 779.58 759.92 780.91 769.94 780.50 C 777.99 780.94 786.03 781.57 794.10 781.79 C 805.02 783.38 816.21 783.44 826.89 786.47 C 821.22 787.32 815.58 785.89 809.92 785.76 C 800.32 785.64 790.63 786.53 781.13 784.83 C 772.07 784.11 762.93 785.36 753.90 784.27 C 747.95 783.33 741.91 783.27 735.90 783.18 C 725.73 782.11 715.45 783.41 705.28 782.14 C 705.29 781.21 705.32 779.35 705.33 778.41 Z" />
<path fill="#0a0a0a" d=" M 942.55 788.78 C 942.88 788.72 943.53 788.59 943.86 788.53 C 943.67 789.66 943.42 790.79 943.10 791.91 L 942.49 791.86 C 942.50 791.09 942.54 789.55 942.55 788.78 Z" />
<path fill="#41a3e7" d=" M 943.86 788.53 C 945.82 788.63 944.83 792.87 943.10 791.91 C 943.42 790.79 943.67 789.66 943.86 788.53 Z" />
</svg>
