<?xml version="1.0" encoding="UTF-8" ?>
<!DOCTYPE svg PUBLIC "-//W3C//DTD SVG 1.1//EN" "http://www.w3.org/Graphics/SVG/1.1/DTD/svg11.dtd">
<svg width="1155pt" height="866pt" viewBox="0 0 1155 866" version="1.1" xmlns="http://www.w3.org/2000/svg">
<path fill="#f5f4f0" d=" M 0.00 0.00 L 1155.00 0.00 L 1155.00 866.00 L 0.00 866.00 L 0.00 0.00 Z" />
<path fill="#171717" d=" M 428.25 88.28 C 438.42 82.40 450.20 79.12 461.97 79.29 C 465.96 79.08 470.09 77.93 474.00 79.28 C 483.54 82.94 493.59 85.07 503.12 88.79 C 514.04 94.52 525.03 100.52 533.97 109.16 C 542.02 116.49 550.62 124.21 554.10 134.89 C 554.93 138.20 557.19 140.79 558.69 143.78 C 556.33 144.19 554.48 142.65 553.68 140.58 C 550.87 133.95 548.66 126.77 543.58 121.43 C 535.47 112.83 527.61 103.68 517.23 97.72 C 512.91 95.44 508.91 92.61 504.48 90.54 C 494.80 86.21 484.27 84.29 474.40 80.50 C 468.75 78.57 462.80 80.39 457.02 80.44 C 451.14 80.35 445.52 82.29 439.94 83.89 C 432.98 86.25 426.82 90.41 420.03 93.17 C 412.76 96.71 406.87 102.88 403.08 109.97 C 402.59 111.51 400.14 112.52 399.12 110.96 C 395.35 105.77 389.73 101.16 382.98 101.33 C 365.77 100.67 346.74 104.20 334.34 117.10 C 341.01 115.71 347.34 112.87 354.17 112.26 C 364.48 110.81 375.21 109.00 385.44 111.87 C 389.31 112.94 393.40 113.27 397.11 114.88 C 394.02 117.70 389.55 118.43 386.59 121.49 C 380.50 127.52 373.99 133.69 370.75 141.81 C 368.18 148.85 366.12 156.09 365.25 163.55 C 365.10 163.24 364.78 162.62 364.63 162.30 C 364.96 156.72 366.69 151.33 368.30 146.01 C 369.88 140.85 372.12 135.81 375.73 131.73 C 380.86 125.77 385.99 119.49 392.96 115.57 C 386.83 113.52 380.59 111.04 374.01 111.43 C 362.23 111.58 350.26 112.96 339.19 117.19 C 335.82 118.29 333.03 120.67 329.62 121.66 C 328.69 120.00 330.70 118.19 331.54 116.74 C 341.36 107.42 354.67 102.50 367.87 100.42 C 373.22 99.43 378.65 98.71 384.10 98.89 C 390.95 99.17 396.72 103.86 400.79 109.03 C 405.14 103.72 409.74 98.48 415.46 94.59 C 419.47 92.01 424.03 90.48 428.25 88.28 Z" />
<path fill="#010101" d=" M 440.31 90.25 C 444.99 86.84 451.06 86.90 456.57 87.61 C 460.79 88.59 464.22 91.27 467.55 93.90 C 469.87 100.69 469.28 108.91 464.51 114.54 C 458.05 121.05 446.99 121.19 439.57 116.28 C 436.45 113.79 433.16 110.35 433.53 106.04 C 433.62 100.15 435.60 94.06 440.31 90.25 Z" />
<path fill="#f5f4f0" d=" M 446.07 89.66 C 448.13 89.62 450.20 89.60 452.28 89.60 C 452.92 95.24 452.11 100.85 450.75 106.32 C 451.33 106.39 452.48 106.55 453.05 106.62 C 457.59 103.56 461.10 98.96 466.34 96.95 C 466.80 102.82 466.84 109.83 462.00 114.04 C 457.70 118.12 451.39 118.10 445.91 117.21 C 441.91 116.44 438.74 113.48 436.57 110.18 C 434.42 107.16 435.44 103.29 435.71 99.88 C 437.52 95.16 440.95 90.89 446.07 89.66 Z" />
<path fill="#2d2d2c" d=" M 454.18 90.21 C 457.52 90.37 452.63 93.18 454.18 90.21 Z" />
<path fill="#090909" d=" M 311.77 104.48 C 312.17 102.18 313.66 100.36 315.36 98.85 L 315.68 100.94 C 318.67 98.84 322.92 98.81 325.58 101.48 C 328.58 103.78 327.81 108.00 327.03 111.19 C 325.44 115.64 323.07 121.36 317.52 121.49 C 317.48 124.28 317.28 127.09 316.48 129.79 C 319.06 129.78 321.67 129.72 324.16 130.49 C 325.44 136.16 328.61 141.14 330.20 146.72 C 331.13 153.49 333.49 159.91 335.04 166.53 C 338.31 166.14 341.25 164.61 344.17 163.20 C 347.45 161.74 350.50 159.85 353.34 157.66 C 353.75 157.99 354.57 158.66 354.98 158.99 C 351.65 161.11 347.83 162.23 344.47 164.29 C 340.99 166.09 337.75 169.04 333.57 168.68 C 330.12 160.07 331.42 150.32 327.32 141.86 C 326.32 140.16 325.26 138.49 324.12 136.88 C 323.71 138.88 323.35 140.88 322.84 142.86 C 321.96 152.04 323.44 161.34 321.68 170.45 C 321.07 176.02 321.46 181.65 321.28 187.25 C 315.40 190.45 308.38 187.84 302.03 188.52 C 300.69 196.00 300.38 203.71 297.94 210.96 C 295.82 219.68 294.49 228.56 292.62 237.32 C 296.01 240.28 300.61 242.46 302.22 246.95 C 299.02 247.33 297.66 243.91 295.33 242.44 C 293.44 240.66 289.44 239.50 290.50 236.20 C 293.04 223.06 298.15 210.43 299.29 197.00 C 299.60 190.98 299.95 184.96 299.80 178.94 L 300.22 178.33 C 300.44 171.17 302.39 164.17 301.81 156.97 C 302.44 149.39 304.50 141.99 305.43 134.44 C 302.04 137.33 299.69 141.15 296.80 144.49 C 296.91 143.83 297.13 142.50 297.24 141.83 C 298.52 139.13 300.95 137.12 302.42 134.50 C 303.67 132.00 305.92 130.33 307.95 128.51 C 310.03 128.82 312.09 129.21 314.17 129.56 C 314.85 126.83 315.31 124.04 315.37 121.23 C 312.93 120.79 310.38 119.68 309.56 117.12 C 309.41 112.81 310.98 108.67 311.77 104.48 Z" />
<path fill="#f5f4f0" d=" M 316.88 103.86 C 317.90 103.05 318.90 102.22 319.88 101.36 C 321.92 102.06 324.46 102.58 325.27 104.91 C 325.93 109.77 324.56 115.52 320.22 118.32 C 317.40 119.32 314.15 118.71 311.61 117.21 C 311.54 114.81 311.59 112.41 311.77 110.02 C 312.69 106.81 313.74 103.65 315.14 100.62 C 315.57 101.43 316.44 103.05 316.88 103.86 Z" />
<path fill="#000000" d=" M 280.73 114.25 C 284.10 114.59 284.57 118.24 284.55 120.95 C 284.43 124.73 284.70 128.59 283.66 132.27 C 286.94 137.29 288.00 143.52 291.88 148.12 C 293.64 146.00 295.27 143.77 297.24 141.83 C 297.13 142.50 296.91 143.83 296.80 144.49 C 295.95 147.01 293.86 148.90 292.05 150.78 C 288.78 149.11 287.99 145.40 286.50 142.38 C 285.17 139.59 283.55 136.94 282.00 134.27 C 280.99 134.59 279.99 134.92 278.99 135.25 C 275.90 134.46 272.24 133.38 271.02 130.08 C 269.46 127.12 272.31 124.64 273.87 122.44 C 275.41 122.41 276.96 122.39 278.51 122.39 C 278.95 119.60 279.47 116.80 280.73 114.25 Z" />
<path fill="#e16830" d=" M 863.16 114.68 C 864.47 117.33 863.13 120.20 862.85 122.94 C 861.83 128.07 862.56 133.30 862.20 138.46 C 859.68 139.59 860.77 136.17 860.50 134.98 C 860.72 128.15 861.60 121.32 863.16 114.68 Z" />
<path fill="#080707" d=" M 930.46 124.36 C 930.99 124.47 932.05 124.70 932.58 124.81 C 931.54 129.57 929.17 134.08 929.23 139.05 C 929.18 144.14 929.01 149.31 930.02 154.33 C 931.56 159.76 932.49 165.48 935.29 170.47 C 937.64 175.00 941.67 178.27 944.84 182.20 C 948.99 187.07 955.59 188.23 961.06 191.02 C 963.49 191.96 962.58 194.96 962.77 196.96 C 962.76 206.28 964.37 216.83 971.78 223.30 C 968.51 213.17 969.07 202.40 969.50 191.91 C 969.35 190.44 970.08 189.19 970.97 188.08 C 974.52 191.81 975.63 197.13 979.11 200.94 C 985.08 207.60 990.44 215.13 998.16 219.90 C 1008.55 225.03 1020.46 226.97 1031.94 225.38 C 1034.48 224.82 1037.01 224.20 1039.64 224.11 C 1039.57 224.64 1039.42 225.72 1039.35 226.26 C 1028.40 228.34 1016.73 228.96 1006.08 225.12 C 1003.12 224.04 1000.06 223.19 997.26 221.75 C 990.83 218.08 986.22 212.18 981.42 206.72 C 977.60 202.92 974.72 198.35 971.84 193.85 C 970.76 203.90 971.01 214.41 974.80 223.92 C 973.49 226.76 970.25 224.81 968.51 223.48 C 964.23 219.06 962.47 212.97 961.36 207.08 C 960.06 202.54 960.63 197.78 960.34 193.14 C 954.30 190.29 947.03 188.77 942.88 183.10 C 940.12 179.19 936.75 175.74 934.30 171.61 C 931.78 167.83 931.22 163.21 930.07 158.91 C 929.58 157.05 929.25 155.15 928.78 153.28 C 928.42 149.87 928.37 146.44 927.96 143.04 C 926.93 136.66 929.69 130.60 930.46 124.36 Z" />
<path fill="#e16830" d=" M 905.03 128.94 C 905.89 128.21 906.88 128.12 908.00 128.69 C 900.88 132.48 896.62 139.58 891.30 145.34 C 889.52 147.11 887.94 149.98 885.02 149.48 C 886.08 147.76 887.54 146.34 889.06 145.02 C 894.70 139.98 899.04 133.60 905.03 128.94 Z" />
<path fill="#2a2a29" d=" M 947.26 130.23 C 948.53 129.99 949.14 130.54 949.09 131.87 C 948.57 137.24 946.97 142.47 946.76 147.87 C 946.52 150.61 948.32 153.84 945.96 156.08 C 944.46 153.26 945.57 150.06 945.70 147.07 C 946.52 141.48 946.58 135.82 947.26 130.23 Z" />
<path fill="#0d0d0d" d=" M 992.51 133.58 C 998.59 132.93 1004.61 131.85 1010.55 130.41 C 1011.31 135.15 1008.02 139.16 1006.60 143.45 C 1008.19 143.57 1010.37 142.91 1010.72 145.17 C 1009.07 145.73 1007.36 146.03 1005.69 146.38 C 1004.47 149.86 1005.48 154.20 1002.85 157.04 C 1001.95 153.18 1004.61 149.65 1004.78 145.82 C 1003.13 145.81 1001.50 145.77 999.88 145.70 C 1000.51 143.02 1003.47 143.97 1005.50 143.71 C 1007.00 140.05 1008.33 136.32 1009.14 132.44 C 1008.08 132.54 1005.97 132.72 1004.91 132.81 C 1000.99 134.10 996.96 135.25 992.81 135.38 C 992.73 134.93 992.58 134.03 992.51 133.58 Z" />
<path fill="#f5f4f0" d=" M 308.25 131.13 C 313.08 131.45 317.93 131.66 322.71 132.39 C 322.65 135.30 322.45 138.21 322.10 141.11 C 320.91 147.66 320.69 154.34 320.47 160.99 C 320.39 169.50 319.38 178.00 318.34 186.43 C 313.05 187.27 307.74 185.97 302.43 186.20 C 301.03 181.59 301.38 176.70 301.74 171.97 C 302.75 164.64 303.42 157.27 303.85 149.89 C 304.77 143.51 306.29 137.26 308.25 131.13 Z" />
<path fill="#080808" d=" M 977.49 131.71 C 977.98 131.72 978.94 131.73 979.43 131.73 C 979.46 139.24 979.89 146.77 979.44 154.26 C 978.93 154.29 977.91 154.35 977.40 154.38 C 977.37 149.25 978.68 144.15 978.01 139.02 C 977.70 136.60 977.51 134.16 977.49 131.71 Z" />
<path fill="#060606" d=" M 955.12 132.18 C 959.92 132.89 965.04 130.63 969.55 132.67 C 969.86 135.97 968.82 139.12 967.53 142.11 C 968.92 142.15 970.33 142.19 971.75 142.25 C 971.69 142.81 971.59 143.94 971.53 144.51 C 969.91 144.47 968.29 144.42 966.70 144.38 C 966.49 145.00 966.06 146.25 965.84 146.87 C 965.58 149.74 965.03 152.57 964.26 155.35 C 963.76 155.38 962.76 155.43 962.26 155.46 C 962.57 151.66 963.96 148.08 965.14 144.50 C 963.42 144.32 961.38 144.47 960.89 142.42 C 962.66 142.28 964.44 142.19 966.24 142.13 C 967.22 139.42 968.04 136.59 967.51 133.69 C 963.54 133.87 959.58 134.24 955.62 134.23 C 955.49 133.72 955.24 132.70 955.12 132.18 Z" />
<path fill="#030303" d=" M 1017.75 141.54 C 1019.81 138.19 1020.91 134.22 1023.77 131.40 C 1023.90 135.46 1020.31 138.30 1018.76 141.82 C 1018.06 143.78 1017.47 145.78 1017.33 147.86 C 1019.95 147.63 1021.94 145.59 1024.56 145.36 C 1024.12 150.74 1021.84 155.85 1022.47 161.33 C 1021.95 161.33 1020.90 161.32 1020.38 161.31 C 1020.53 156.82 1021.94 152.52 1022.72 148.12 C 1020.69 149.20 1018.18 150.61 1015.98 149.12 C 1014.65 146.51 1016.66 143.85 1017.75 141.54 Z" />
<path fill="#101010" d=" M 1045.28 141.01 C 1045.32 138.25 1044.57 135.30 1046.05 132.78 C 1047.52 136.33 1046.39 140.27 1046.41 144.00 C 1045.56 149.39 1045.41 154.83 1045.45 160.28 C 1044.93 160.32 1043.88 160.40 1043.36 160.44 C 1043.79 153.95 1045.64 147.56 1045.28 141.01 Z" />
<path fill="#050505" d=" M 1103.56 134.83 C 1103.60 135.90 1103.87 137.08 1102.96 137.88 C 1099.94 142.43 1096.52 146.75 1093.99 151.60 C 1096.75 152.01 1099.85 151.15 1102.35 152.67 C 1103.54 154.17 1103.54 156.14 1103.61 157.96 C 1103.56 160.11 1104.19 162.78 1101.76 163.93 C 1100.61 160.87 1102.15 157.33 1100.72 154.43 C 1097.91 153.27 1094.71 154.12 1091.88 153.05 C 1091.78 152.54 1091.58 151.52 1091.49 151.01 C 1095.00 145.29 1099.06 139.83 1103.56 134.83 Z" />
<path fill="#2a2a29" d=" M 1067.16 137.91 C 1067.37 136.68 1068.04 135.73 1069.19 135.08 C 1068.74 142.87 1065.14 150.55 1067.33 158.44 C 1066.76 158.54 1065.61 158.73 1065.03 158.83 C 1065.51 151.83 1065.84 144.81 1067.16 137.91 Z" />
<path fill="#010101" d=" M 1073.65 136.99 C 1077.34 135.55 1081.38 136.42 1085.24 135.91 C 1087.12 135.88 1086.99 137.88 1086.31 139.09 C 1084.61 141.93 1082.41 144.43 1080.56 147.16 C 1082.03 147.40 1083.74 147.06 1085.11 147.83 C 1087.57 150.11 1088.03 154.37 1086.05 157.09 C 1083.46 160.18 1079.08 160.49 1075.34 160.43 C 1075.27 160.01 1075.13 159.18 1075.05 158.76 C 1078.07 158.70 1081.58 159.17 1083.91 156.79 C 1086.17 154.95 1085.53 151.06 1083.30 149.51 C 1081.24 149.45 1079.21 149.64 1077.17 149.62 C 1078.57 145.02 1083.50 142.52 1084.83 137.76 C 1081.11 137.36 1077.13 138.73 1073.65 136.99 Z" />
<path fill="#e16830" d=" M 807.34 143.70 C 806.39 141.35 809.04 142.35 810.19 142.97 C 818.21 146.87 826.20 150.85 834.03 155.14 C 833.61 155.44 832.78 156.04 832.36 156.35 C 829.46 155.72 827.42 153.25 824.86 151.90 C 819.21 148.77 813.65 145.33 807.34 143.70 Z" />
<path fill="#090909" d=" M 388.91 151.94 C 389.30 150.78 392.66 151.05 391.27 152.25 C 386.31 156.68 380.51 161.58 380.26 168.81 C 383.30 167.21 388.59 165.77 390.38 169.84 C 390.78 173.83 387.78 177.24 384.15 178.41 C 383.07 178.03 381.99 177.65 380.92 177.28 C 379.67 175.77 378.37 174.32 376.96 172.97 C 377.32 172.51 378.05 171.59 378.41 171.13 C 378.99 168.79 379.52 166.44 380.00 164.08 C 382.10 159.49 385.50 155.60 388.91 151.94 Z" />
<path fill="#313130" d=" M 986.94 151.90 C 988.05 151.72 989.19 151.71 990.33 151.65 C 990.38 153.14 991.42 155.53 989.53 156.26 C 988.54 156.36 987.56 156.41 986.58 156.43 C 986.50 154.91 985.67 153.14 986.94 151.90 Z" />
<path fill="#161616" d=" M 402.73 156.83 C 404.18 155.08 404.94 151.44 407.87 152.22 C 404.58 158.81 396.90 163.88 397.22 172.02 C 398.69 175.80 402.36 172.03 404.15 170.42 C 404.52 170.42 405.26 170.40 405.63 170.40 C 405.60 173.74 405.21 177.07 405.32 180.42 C 404.82 180.48 403.84 180.59 403.35 180.65 C 403.37 178.49 403.43 176.34 403.51 174.20 C 400.98 175.87 397.99 176.04 395.46 174.34 C 394.65 167.67 399.68 162.28 402.73 156.83 Z" />
<path fill="#1c1c1b" d=" M 426.46 153.22 C 429.66 152.52 433.02 152.76 436.29 152.57 C 436.68 152.97 437.44 153.76 437.83 154.15 C 434.12 155.38 430.19 155.14 426.36 155.32 C 426.38 154.80 426.43 153.74 426.46 153.22 Z" />
<path fill="#101010" d=" M 442.94 154.83 C 447.26 154.35 451.57 153.87 455.86 153.09 C 456.11 158.02 451.76 161.45 450.77 166.10 C 451.56 166.14 453.13 166.23 453.91 166.27 C 453.84 166.77 453.70 167.77 453.64 168.27 C 451.89 168.41 449.97 168.20 448.59 169.49 C 448.45 172.15 448.24 174.82 448.19 177.49 C 447.64 177.56 446.55 177.71 446.00 177.78 C 446.31 174.82 447.19 171.98 448.00 169.14 C 447.72 168.61 447.15 167.55 446.87 167.02 C 447.95 166.48 449.03 165.92 450.11 165.36 C 450.90 161.68 453.11 158.53 454.32 155.00 C 450.62 154.59 445.80 158.33 442.94 154.83 Z" />
<path fill="#212120" d=" M 470.50 161.99 C 469.51 157.53 474.13 154.25 477.93 153.28 C 480.76 152.51 482.76 155.36 482.86 157.87 C 483.60 164.61 478.31 169.74 474.07 174.20 C 474.83 175.60 475.31 177.23 476.47 178.38 C 478.76 179.40 481.22 178.02 483.51 177.64 C 483.92 181.21 479.44 181.39 476.91 181.19 C 474.62 180.99 473.75 178.85 472.81 177.12 C 471.71 177.58 470.62 178.04 469.53 178.50 C 469.63 177.91 469.84 176.73 469.95 176.14 C 474.47 172.69 478.75 168.46 480.58 162.94 C 480.92 160.57 481.22 157.49 479.19 155.79 C 476.17 155.34 473.35 157.86 472.56 160.68 C 473.12 161.89 473.65 163.12 474.15 164.37 C 472.57 164.40 470.75 163.79 470.50 161.99 Z" />
<path fill="#313130" d=" M 1033.79 153.56 C 1034.66 153.52 1035.54 153.48 1036.43 153.44 C 1036.75 154.42 1037.42 155.35 1037.46 156.42 C 1036.80 157.76 1035.34 158.11 1034.04 158.43 C 1033.65 157.82 1032.87 156.61 1032.48 156.00 C 1032.81 155.39 1033.46 154.17 1033.79 153.56 Z" />
<path fill="#313130" d=" M 1051.12 155.10 C 1052.06 153.71 1053.24 152.52 1055.02 152.45 C 1055.37 153.09 1056.08 154.36 1056.43 154.99 C 1056.07 155.59 1055.36 156.80 1055.01 157.40 C 1053.40 157.25 1052.10 156.33 1051.12 155.10 Z" />
<path fill="#383737" d=" M 527.67 155.57 C 531.66 154.45 535.89 154.99 539.98 154.45 C 540.09 155.09 540.19 155.72 540.27 156.37 C 535.96 156.90 531.59 156.86 527.29 157.58 C 527.39 157.07 527.57 156.07 527.67 155.57 Z" />
<path fill="#020202" d=" M 495.49 163.14 C 497.54 159.84 499.71 155.46 504.02 154.98 C 503.64 157.29 501.35 158.30 499.93 159.90 C 497.15 162.32 495.52 165.67 493.67 168.79 C 492.53 171.50 492.28 174.42 492.16 177.32 C 494.22 178.23 496.74 179.37 498.90 178.07 C 500.56 177.15 500.95 175.14 501.80 173.61 C 498.76 172.74 495.73 173.49 493.56 175.83 C 493.43 174.85 493.32 173.86 493.23 172.87 C 496.42 171.32 499.94 170.98 503.40 171.71 C 504.41 175.15 502.24 178.63 499.35 180.37 C 496.33 181.08 492.29 180.99 490.50 178.00 C 489.52 172.55 493.34 167.83 495.49 163.14 Z" />
<path fill="#080808" d=" M 426.65 156.52 C 427.14 156.43 428.10 156.24 428.59 156.15 C 428.99 158.39 429.22 160.66 429.26 162.94 C 432.24 162.73 436.69 161.29 438.19 164.91 C 438.91 168.32 439.27 172.74 436.20 175.16 C 432.98 178.10 428.35 177.89 424.29 177.68 C 424.33 177.08 424.42 175.89 424.46 175.30 C 428.27 177.59 433.01 176.75 436.30 173.94 C 437.50 170.97 437.89 166.79 435.12 164.62 C 432.01 164.26 429.26 166.09 426.30 166.67 C 426.80 163.31 427.13 159.91 426.65 156.52 Z" />
<path fill="#0d0d0d" d=" M 545.81 157.99 C 548.79 156.41 552.34 155.95 555.64 156.56 C 555.03 160.32 552.94 163.60 551.40 167.02 C 551.92 167.70 552.43 168.39 552.95 169.08 C 551.90 169.58 550.85 170.10 549.82 170.62 C 549.19 172.98 548.64 175.40 547.57 177.60 C 547.20 179.00 544.91 179.37 544.43 177.89 C 546.26 175.52 548.25 173.21 549.18 170.29 C 548.23 170.29 546.33 170.28 545.38 170.28 C 545.38 169.90 545.38 169.14 545.39 168.75 C 546.82 168.40 548.45 168.53 549.73 167.70 C 551.44 164.77 552.23 161.40 553.43 158.25 C 550.89 158.46 548.16 159.49 545.81 157.99 Z" />
<path fill="#dd4e0c" d=" M 849.68 163.77 C 852.59 159.46 857.81 157.06 862.96 157.18 C 867.06 157.26 871.79 157.04 875.07 159.98 C 876.62 161.62 878.11 164.02 877.40 166.35 C 873.56 167.41 874.47 161.37 871.02 161.00 C 865.65 159.76 859.31 159.34 854.56 162.65 C 853.04 163.91 852.21 165.76 851.14 167.37 C 847.86 166.99 844.42 165.94 841.17 166.93 C 837.45 168.65 834.01 171.28 831.77 174.75 C 831.02 176.74 830.69 179.32 831.91 181.19 C 834.14 182.68 836.95 182.37 839.51 182.64 C 840.28 185.72 840.36 189.88 844.11 190.91 C 852.98 193.67 864.13 193.15 871.12 186.37 C 875.18 187.19 879.49 189.15 883.57 187.30 C 885.83 186.17 889.11 185.13 889.08 182.05 C 889.52 177.02 894.33 173.78 894.74 168.64 C 890.90 164.21 884.54 164.94 879.28 164.81 C 879.28 164.19 879.28 162.94 879.28 162.32 C 884.98 161.59 891.78 161.55 896.14 165.91 C 897.77 167.58 897.13 170.07 897.25 172.17 C 901.22 173.13 904.67 175.46 908.58 176.63 C 911.49 177.93 915.02 178.39 917.27 180.84 C 910.41 178.40 903.36 176.27 896.79 173.07 C 895.51 175.39 893.99 177.56 892.74 179.89 C 891.95 181.86 891.99 184.10 891.08 186.02 C 887.50 189.09 882.90 191.52 878.03 190.78 C 875.43 190.83 872.56 189.31 870.20 190.95 C 863.82 194.62 856.18 196.20 848.90 195.00 C 845.60 194.49 842.08 193.78 839.55 191.45 C 837.88 189.93 837.59 187.59 837.20 185.50 C 833.38 185.59 827.88 183.82 828.26 179.10 C 827.50 172.92 832.87 168.50 837.54 165.52 C 841.11 163.03 845.58 163.67 849.68 163.77 Z" />
<path fill="#101010" d=" M 527.23 158.41 C 527.78 158.38 528.88 158.32 529.43 158.29 C 528.97 160.46 528.51 162.63 528.11 164.81 C 530.19 164.46 532.27 164.08 534.34 163.61 C 537.70 165.04 538.00 169.09 537.06 172.15 C 536.05 175.16 532.72 176.23 529.95 176.93 C 527.88 177.49 525.03 178.33 524.27 175.65 C 528.01 175.51 532.56 176.32 535.21 172.97 C 536.15 170.68 536.27 167.35 534.11 165.72 C 531.28 165.91 528.50 166.93 525.65 166.45 C 526.22 163.78 526.56 161.06 527.23 158.41 Z" />
<path fill="#1c1c1b" d=" M 364.67 162.48 C 366.58 167.05 363.96 172.63 366.51 177.19 C 369.56 184.56 376.76 189.34 384.46 190.68 C 384.41 191.17 384.30 192.16 384.25 192.66 C 375.61 189.77 366.96 183.92 364.58 174.61 C 364.09 170.59 364.32 166.50 364.67 162.48 Z" />
<path fill="#f5f4f0" d=" M 380.61 171.94 C 381.65 169.00 385.48 169.00 388.03 169.75 C 387.62 171.30 387.98 173.32 386.59 174.46 C 384.69 176.98 379.79 175.33 380.61 171.94 Z" />
<path fill="#323231" d=" M 413.57 174.61 C 414.61 174.50 415.66 174.39 416.71 174.30 C 416.73 175.46 416.75 176.63 416.76 177.81 C 415.67 177.71 414.59 177.61 413.51 177.51 C 413.53 176.54 413.54 175.57 413.57 174.61 Z" />
<path fill="#313130" d=" M 512.91 174.62 C 514.07 174.65 515.23 174.70 516.41 174.75 C 516.46 176.27 516.43 177.79 516.32 179.31 C 514.33 179.46 512.37 179.17 511.43 177.16 C 511.80 176.53 512.54 175.25 512.91 174.62 Z" />
<path fill="#313130" d=" M 456.46 175.59 C 457.56 175.56 458.66 175.53 459.76 175.50 C 459.68 177.07 460.42 179.73 457.85 179.44 C 455.89 179.00 456.48 177.05 456.46 175.59 Z" />
<path fill="#060606" d=" M 1021.40 176.54 C 1026.47 174.94 1031.92 176.55 1036.96 177.70 C 1041.41 178.44 1045.90 182.11 1045.73 186.95 C 1046.13 193.12 1043.81 199.88 1038.49 203.41 C 1035.08 205.62 1031.11 208.02 1026.88 207.06 C 1021.30 205.84 1014.58 204.95 1011.62 199.34 C 1010.45 192.92 1012.35 186.24 1015.75 180.77 C 1017.02 178.71 1019.22 177.45 1021.40 176.54 Z" />
<path fill="#dd4e0c" d=" M 788.12 178.76 C 789.46 176.85 792.01 177.69 793.98 177.43 C 801.40 177.64 809.03 176.68 816.27 178.78 C 816.39 179.31 816.62 180.37 816.74 180.90 C 807.52 177.80 797.69 178.20 788.12 178.76 Z" />
<path fill="#f5f4f0" d=" M 1021.15 179.18 C 1024.48 177.30 1028.39 178.79 1031.96 178.97 C 1036.05 179.88 1041.44 180.51 1043.27 184.93 C 1044.04 190.20 1042.87 196.16 1039.07 200.09 C 1035.84 203.14 1031.55 205.76 1026.93 204.65 C 1022.22 203.50 1016.07 203.21 1013.79 198.14 C 1013.04 191.34 1014.92 182.96 1021.15 179.18 Z" />
<path fill="#323231" d=" M 1033.81 183.75 C 1035.05 183.67 1036.29 183.59 1037.55 183.53 C 1037.59 184.87 1037.62 186.22 1037.64 187.57 C 1036.31 187.52 1035.02 187.45 1033.72 187.36 C 1033.73 186.16 1033.76 184.95 1033.81 183.75 Z" />
<path fill="#323231" d=" M 1020.73 186.19 C 1020.98 184.16 1023.07 184.50 1024.60 184.37 C 1024.63 185.80 1024.64 187.23 1024.62 188.67 C 1022.98 188.65 1020.30 188.53 1020.73 186.19 Z" />
<path fill="#0b0b0b" d=" M 317.46 190.28 C 319.41 189.72 320.27 191.09 320.22 192.93 C 320.07 207.20 320.38 221.47 320.13 235.75 C 323.23 235.91 326.62 235.03 329.51 236.57 C 329.63 237.13 329.89 238.25 330.02 238.81 C 326.43 237.87 322.64 238.52 319.09 237.70 C 317.19 237.49 317.70 235.38 317.58 234.03 C 317.65 219.47 320.23 204.72 317.46 190.28 Z" />
<path fill="#030303" d=" M 1021.97 198.57 C 1024.12 195.13 1027.58 192.00 1031.95 192.44 C 1034.97 192.04 1038.32 195.13 1036.27 198.10 C 1035.19 197.02 1034.22 195.87 1033.06 194.89 C 1029.51 194.09 1026.58 196.54 1023.97 198.52 C 1023.47 198.53 1022.47 198.56 1021.97 198.57 Z" />
<path fill="#050505" d=" M 404.46 194.46 C 410.05 194.77 415.40 196.96 421.05 196.83 C 428.36 197.28 435.68 197.63 443.02 197.50 C 454.00 197.23 465.02 198.02 475.97 196.85 C 479.11 196.55 482.27 196.87 485.29 197.80 C 485.57 199.18 485.90 200.56 486.00 201.98 C 485.44 215.69 485.71 229.41 485.72 243.13 C 484.94 242.67 484.19 242.23 483.44 241.77 C 483.51 229.83 483.52 217.90 483.38 205.97 C 483.36 203.86 483.08 201.77 482.71 199.69 C 473.43 198.58 464.09 198.19 454.75 198.43 C 447.53 197.61 440.29 198.74 433.05 198.46 C 423.44 199.14 413.83 198.58 404.31 197.29 C 401.97 206.82 402.80 216.72 401.42 226.39 L 400.87 224.86 C 400.79 224.62 400.62 224.14 400.54 223.90 C 402.67 215.48 400.06 206.59 401.77 198.07 C 403.07 197.19 403.71 195.78 404.46 194.46 Z" />
<path fill="#e16830" d=" M 891.99 196.75 C 895.05 198.38 896.80 201.50 899.23 203.86 C 901.39 206.12 904.07 207.77 906.39 209.85 C 906.44 210.30 906.55 211.19 906.60 211.64 C 902.12 208.09 897.61 204.52 893.68 200.36 C 892.58 199.46 892.32 198.03 891.99 196.75 Z" />
<path fill="#f5f4f0" d=" M 404.31 197.29 C 413.83 198.58 423.44 199.14 433.05 198.46 C 440.29 198.74 447.53 197.61 454.75 198.43 C 464.09 198.19 473.43 198.58 482.71 199.69 C 483.08 201.77 483.36 203.86 483.38 205.97 C 483.52 217.90 483.51 229.83 483.44 241.77 C 478.65 238.70 473.80 235.73 468.70 233.23 C 464.99 231.30 460.68 231.80 456.66 231.93 C 456.92 232.45 457.44 233.49 457.70 234.00 C 461.42 234.69 465.38 233.61 468.96 235.11 C 474.07 237.11 478.94 239.70 483.43 242.86 C 483.31 250.22 484.05 257.65 482.68 264.94 C 462.89 265.69 443.06 265.33 423.26 265.46 C 415.04 265.30 406.92 263.73 399.05 261.41 C 399.82 256.99 400.49 252.54 400.44 248.04 C 404.87 245.50 409.18 242.61 414.15 241.22 C 417.86 239.94 422.09 239.72 425.26 237.23 C 425.44 236.21 425.56 235.20 425.64 234.18 C 418.21 238.09 409.79 239.70 402.71 244.36 C 402.41 244.40 401.82 244.47 401.53 244.50 C 401.10 238.47 401.78 232.43 401.42 226.39 C 402.80 216.72 401.97 206.82 404.31 197.29 Z" />
<path fill="#dd4e0c" d=" M 828.33 205.30 C 829.41 204.22 830.91 203.76 832.33 203.28 C 832.35 203.73 832.39 204.64 832.41 205.10 C 827.07 207.14 823.88 212.09 820.07 216.03 C 817.56 218.62 815.24 221.41 812.53 223.80 C 812.55 221.82 814.33 220.78 815.52 219.50 C 820.24 215.18 823.57 209.59 828.33 205.30 Z" />
<path fill="#020202" d=" M 859.06 210.96 C 860.27 208.76 860.95 205.13 864.12 205.40 C 864.73 208.06 868.36 211.86 864.96 213.91 C 864.44 212.46 863.95 211.01 863.48 209.56 C 863.21 228.14 862.26 246.70 862.41 265.29 C 861.94 265.32 860.99 265.39 860.52 265.42 C 859.90 259.56 861.59 253.81 861.41 247.97 C 861.35 237.09 860.46 226.22 860.80 215.33 C 857.71 216.10 857.89 212.79 859.06 210.96 Z" />
<path fill="#0f37fe" d=" M 435.31 223.39 C 441.07 220.11 448.56 226.72 446.01 232.82 C 444.44 238.00 436.90 239.59 433.32 235.61 C 429.66 232.28 430.79 225.40 435.31 223.39 Z" />
<path fill="#2a2a29" d=" M 398.78 246.78 C 400.07 239.53 399.77 232.12 400.87 224.86 L 401.42 226.39 C 401.78 232.43 401.10 238.47 401.53 244.50 C 401.82 244.47 402.41 244.40 402.71 244.36 C 401.37 245.13 400.07 245.95 398.78 246.78 Z" />
<path fill="#010101" d=" M 974.66 233.53 C 977.06 230.25 980.51 226.27 985.04 227.20 C 988.06 227.10 990.15 230.07 989.74 232.92 C 990.48 239.49 986.51 245.59 981.44 249.39 C 980.20 250.45 978.55 250.61 977.05 250.97 C 976.26 253.38 976.18 257.95 972.47 256.59 C 973.15 255.03 974.08 253.56 974.58 251.92 C 975.17 249.87 972.58 248.83 972.41 246.95 C 972.25 242.43 971.70 237.35 974.66 233.53 Z" />
<path fill="#f5f4f0" d=" M 981.15 229.97 C 983.22 228.99 986.76 229.06 987.32 231.84 C 988.07 236.85 985.93 241.88 982.52 245.47 C 980.73 247.02 978.56 249.15 975.98 248.18 C 974.29 246.96 974.60 244.77 974.56 242.96 C 974.29 237.91 976.84 232.66 981.15 229.97 Z" />
<path fill="#1038fe" d=" M 456.66 231.93 C 460.68 231.80 464.99 231.30 468.70 233.23 C 473.80 235.73 478.65 238.70 483.44 241.77 C 484.19 242.23 484.94 242.67 485.72 243.13 C 489.63 245.20 493.06 248.01 496.84 250.31 C 515.68 261.08 528.58 279.45 538.97 298.02 C 541.11 304.19 545.32 310.01 544.69 316.80 C 543.75 316.65 542.83 316.49 541.91 316.33 C 541.84 311.80 539.89 307.66 538.39 303.48 C 536.80 299.08 534.69 294.87 532.13 290.95 C 526.25 282.22 521.36 272.65 513.57 265.37 C 505.72 256.63 495.40 250.86 485.74 244.42 C 484.96 243.90 484.19 243.38 483.43 242.86 C 478.94 239.70 474.07 237.11 468.96 235.11 C 465.38 233.61 461.42 234.69 457.70 234.00 C 457.44 233.49 456.92 232.45 456.66 231.93 Z" />
<path fill="#1038fe" d=" M 402.71 244.36 C 409.79 239.70 418.21 238.09 425.64 234.18 C 425.56 235.20 425.44 236.21 425.26 237.23 C 422.09 239.72 417.86 239.94 414.15 241.22 C 409.18 242.61 404.87 245.50 400.44 248.04 C 399.82 248.38 399.21 248.73 398.60 249.07 C 385.13 255.75 371.71 263.28 361.58 274.63 C 356.01 281.47 349.60 287.65 344.95 295.21 C 331.50 312.03 318.79 329.51 307.92 348.14 C 303.68 355.25 298.93 362.07 295.21 369.48 C 293.15 373.35 292.90 378.34 289.09 381.09 C 289.15 378.10 291.14 375.75 292.35 373.16 C 297.14 363.04 303.67 353.90 309.33 344.27 C 319.55 327.00 331.49 310.81 344.01 295.15 C 347.85 289.10 352.53 283.66 357.40 278.42 C 362.83 271.60 369.07 265.42 376.10 260.26 C 383.57 255.62 391.10 251.08 398.78 246.78 C 400.07 245.95 401.37 245.13 402.71 244.36 Z" />
<path fill="#050505" d=" M 483.43 242.86 C 484.19 243.38 484.96 243.90 485.74 244.42 C 485.54 250.98 485.75 257.54 485.75 264.10 C 485.93 265.82 484.76 267.46 482.98 267.63 C 477.68 267.97 472.36 267.56 467.06 267.68 C 451.98 267.26 436.84 268.22 421.81 266.68 C 422.17 266.38 422.90 265.77 423.26 265.46 C 443.06 265.33 462.89 265.69 482.68 264.94 C 484.05 257.65 483.31 250.22 483.43 242.86 Z" />
<path fill="#030302" d=" M 964.57 245.41 C 965.87 244.67 967.16 243.93 968.49 243.21 C 967.91 247.11 966.84 251.08 967.64 255.03 C 969.25 258.45 973.55 259.25 976.93 258.47 C 981.06 257.00 984.41 254.10 987.87 251.51 L 989.24 251.80 C 989.16 256.81 989.74 261.99 988.14 266.83 C 987.04 270.80 986.19 274.86 984.64 278.69 C 990.76 276.87 997.11 276.22 1003.43 275.42 C 1003.57 275.95 1003.86 277.01 1004.01 277.54 C 1001.07 278.28 998.05 278.44 995.07 278.79 C 990.78 279.30 986.66 281.53 982.28 280.55 C 982.06 277.46 983.82 274.80 984.51 271.89 C 985.32 268.35 986.40 264.86 986.83 261.25 C 982.17 269.43 977.96 277.89 972.92 285.86 C 971.72 288.08 970.81 290.43 969.52 292.60 C 967.29 296.02 966.40 300.13 963.95 303.43 C 966.59 309.09 970.53 313.99 973.61 319.40 C 974.64 321.47 977.04 323.38 976.18 325.91 C 974.46 329.43 971.53 332.15 969.41 335.40 C 966.09 340.48 963.25 345.85 960.29 351.14 C 965.04 354.35 970.50 356.20 975.50 358.90 C 975.58 359.40 975.73 360.39 975.80 360.88 C 971.07 360.02 967.04 357.17 962.70 355.28 C 960.66 354.24 957.21 353.08 958.26 350.11 C 961.36 344.10 964.69 338.13 968.57 332.58 C 970.35 329.91 973.76 327.64 973.75 324.22 C 970.20 317.41 965.05 311.52 961.93 304.48 C 956.48 303.09 951.13 301.33 945.60 300.28 C 944.75 302.09 943.64 303.78 942.21 305.19 C 938.09 309.27 935.25 314.38 931.44 318.72 C 933.00 324.56 937.36 329.09 939.12 334.86 C 940.66 339.94 943.53 344.79 943.50 350.21 C 938.91 351.91 933.96 352.02 929.19 352.86 C 929.18 352.26 929.15 351.07 929.14 350.47 C 933.09 350.42 936.99 349.66 940.88 349.00 C 940.68 344.14 938.09 339.87 936.84 335.27 C 935.29 329.96 931.60 325.68 929.50 320.64 C 928.19 316.60 932.76 314.53 934.73 311.74 C 937.96 307.37 941.67 303.29 944.18 298.44 C 944.11 294.59 946.67 291.49 947.95 288.03 C 949.95 283.93 949.91 279.19 951.99 275.12 C 953.47 272.12 954.84 269.06 955.93 265.90 C 955.29 266.79 954.67 267.70 954.07 268.62 C 949.60 267.37 947.01 263.17 943.94 260.03 C 940.62 256.05 936.34 252.94 933.10 248.93 C 933.24 248.41 933.53 247.36 933.67 246.84 C 936.64 249.33 939.30 252.18 942.23 254.73 C 945.85 258.49 948.76 262.96 953.09 266.02 C 954.43 263.58 955.69 261.09 956.63 258.46 C 958.08 253.41 963.05 250.45 964.57 245.41 Z" />
<path fill="#040404" d=" M 398.60 249.07 C 399.21 248.73 399.82 248.38 400.44 248.04 C 400.49 252.54 399.82 256.99 399.05 261.41 C 406.92 263.73 415.04 265.30 423.26 265.46 C 422.90 265.77 422.17 266.38 421.81 266.68 C 413.32 266.29 404.73 265.58 396.52 263.29 C 395.53 258.41 398.68 253.95 398.60 249.07 Z" />
<path fill="#f5f4f0" d=" M 964.85 251.71 C 964.54 256.10 967.53 260.37 972.04 260.95 C 977.36 262.40 981.77 258.40 986.21 256.17 C 984.85 261.60 981.23 265.96 978.82 270.91 C 973.17 281.10 967.02 291.03 962.30 301.70 C 956.79 301.43 951.75 298.80 946.30 298.10 C 947.59 292.15 951.42 287.02 952.38 280.92 C 955.80 270.90 960.29 261.25 964.85 251.71 Z" />
<path fill="#010101" d=" M 374.25 294.13 C 381.41 285.48 387.19 275.74 394.93 267.57 C 397.39 266.45 396.97 270.66 395.51 271.42 C 389.92 276.16 386.12 282.48 381.30 287.92 C 378.45 291.84 374.53 294.81 371.76 298.79 C 370.51 300.51 369.11 302.10 367.74 303.71 C 365.94 305.99 363.92 308.08 362.12 310.36 L 361.76 310.53 C 360.58 312.19 359.36 313.81 358.19 315.47 C 352.58 321.53 347.56 328.09 342.76 334.82 C 340.10 338.11 337.44 341.40 334.70 344.63 C 325.57 355.76 318.39 368.28 309.75 379.77 C 294.46 401.07 278.64 421.99 263.67 443.52 C 261.38 446.95 259.13 450.42 256.58 453.67 L 256.28 454.44 C 253.37 457.93 250.80 461.68 248.13 465.36 C 239.85 475.80 233.18 487.42 224.76 497.76 C 220.17 503.38 216.18 509.43 212.12 515.43 C 205.78 523.72 199.77 532.25 193.80 540.81 C 192.76 542.12 191.66 543.38 190.58 544.66 L 190.30 545.42 C 186.28 550.43 182.84 555.89 179.04 561.07 C 178.39 562.18 177.20 562.57 176.05 562.91 C 177.71 558.61 181.34 555.67 184.21 552.24 C 185.81 549.85 187.51 547.52 189.27 545.25 C 195.21 537.97 200.17 529.97 205.81 522.47 C 211.09 516.06 215.31 508.89 220.26 502.25 C 227.74 492.93 234.67 483.19 241.22 473.19 C 243.16 470.49 245.15 467.82 247.27 465.25 C 252.91 457.25 258.92 449.50 264.24 441.28 C 269.83 433.23 275.72 425.40 281.27 417.33 C 283.26 414.59 285.23 411.83 287.45 409.27 L 287.71 408.48 C 288.59 407.42 289.45 406.34 290.31 405.27 C 293.30 400.69 296.78 396.47 299.98 392.04 C 302.91 388.20 305.18 383.87 308.47 380.31 L 308.72 379.61 C 314.93 371.66 320.31 363.09 325.99 354.77 C 332.36 345.65 340.06 337.57 346.42 328.45 C 349.75 323.81 353.53 319.52 357.32 315.25 C 358.26 313.91 359.26 312.61 360.25 311.29 C 362.05 309.01 364.04 306.87 365.89 304.62 L 366.20 304.44 C 368.91 301.03 371.74 297.71 374.25 294.13 Z" />
<path fill="#0f37fe" d=" M 856.32 272.53 C 860.80 269.11 867.91 273.54 866.77 279.10 C 866.48 284.35 859.39 286.76 855.67 283.33 C 852.25 280.64 852.59 274.80 856.32 272.53 Z" />
<path fill="#000000" d=" M 465.42 279.58 C 463.99 279.36 463.58 277.18 464.87 276.58 C 469.61 278.41 472.40 282.96 476.45 285.81 L 476.61 286.11 C 477.76 287.07 478.88 288.07 479.97 289.10 C 486.05 295.42 491.53 302.34 498.40 307.88 L 498.41 308.30 C 498.73 308.55 499.38 309.06 499.70 309.32 C 500.65 310.32 501.64 311.30 502.60 312.31 C 504.11 313.83 505.62 315.36 507.16 316.86 C 509.12 318.89 511.08 320.95 512.78 323.21 C 516.90 328.70 521.45 333.85 525.72 339.23 C 527.07 340.89 528.47 342.52 529.72 344.27 C 531.48 346.43 533.43 348.43 535.37 350.44 L 535.55 351.29 C 536.78 352.68 537.99 354.08 539.20 355.49 C 540.35 357.16 541.56 358.79 542.73 360.45 L 543.11 360.66 C 546.08 364.48 549.89 367.54 552.84 371.38 L 553.29 371.53 C 553.63 371.96 554.31 372.82 554.65 373.25 C 554.93 373.51 555.49 374.03 555.77 374.29 C 561.15 381.53 566.93 388.45 572.55 395.49 C 578.33 401.66 584.05 408.09 587.42 415.95 L 587.20 417.27 C 586.64 417.32 585.53 417.41 584.97 417.45 C 582.03 411.47 578.83 405.57 574.42 400.52 C 566.32 390.80 559.82 379.84 551.17 370.58 L 550.87 370.39 C 546.69 365.48 541.78 361.20 538.31 355.70 C 532.36 348.26 525.95 341.20 520.20 333.59 L 519.84 333.36 C 514.77 327.34 510.38 320.73 504.54 315.39 C 497.91 308.31 490.29 302.17 484.15 294.65 L 483.69 294.58 C 483.48 294.23 483.06 293.52 482.85 293.16 C 482.56 292.91 481.99 292.40 481.71 292.15 C 481.36 291.79 480.67 291.08 480.32 290.73 C 479.60 290.02 478.88 289.30 478.18 288.59 L 477.47 288.50 L 477.45 287.80 C 473.61 284.82 469.90 281.60 465.42 279.58 Z" />
<path fill="#030303" d=" M 858.98 295.92 C 859.57 295.52 860.74 294.73 861.33 294.34 C 862.61 296.24 863.62 298.34 863.68 300.69 C 863.04 300.61 861.76 300.45 861.12 300.38 C 860.01 306.51 861.17 312.87 859.33 318.91 C 858.20 322.54 858.55 326.40 857.83 330.11 C 856.66 334.38 857.44 338.78 857.65 343.12 C 857.40 343.45 856.89 344.10 856.63 344.43 C 856.83 340.07 856.83 335.70 856.86 331.34 C 844.41 331.52 831.79 330.20 819.53 332.81 C 819.48 332.25 819.38 331.13 819.34 330.56 C 824.06 328.67 829.20 329.81 834.08 330.27 C 841.80 330.51 849.53 330.28 857.25 330.41 C 857.43 321.53 858.45 312.70 858.42 303.81 C 857.82 303.73 856.64 303.57 856.05 303.49 C 856.77 300.87 858.01 298.44 858.98 295.92 Z" />
<path fill="#212120" d=" M 814.26 327.12 C 814.79 327.17 815.86 327.26 816.39 327.30 C 814.53 339.79 815.74 352.45 815.28 365.01 L 814.31 365.31 C 814.39 352.58 814.27 339.85 814.26 327.12 Z" />
<path fill="#0f37fe" d=" M 548.28 330.49 C 553.10 328.83 558.67 332.90 558.32 338.03 C 558.40 343.68 551.21 347.66 546.54 344.29 C 541.18 341.25 542.37 332.15 548.28 330.49 Z" />
<path fill="#4a4a49" d=" M 857.65 343.12 C 857.44 338.78 856.66 334.38 857.83 330.11 C 864.25 331.02 870.83 331.01 877.18 332.30 C 875.00 332.36 872.83 332.52 870.66 332.61 C 866.50 332.71 862.42 331.80 858.29 331.49 C 858.14 336.91 858.61 342.32 858.36 347.73 C 857.01 347.46 856.29 346.47 856.02 345.18 L 856.63 344.43 C 856.89 344.10 857.40 343.45 857.65 343.12 Z" />
<path fill="#0a0a09" d=" M 870.66 332.61 C 872.83 332.52 875.00 332.36 877.18 332.30 C 880.38 332.29 883.57 332.66 886.73 333.17 C 891.44 333.15 896.38 333.23 900.55 335.75 C 900.92 342.48 900.24 349.23 900.92 355.95 C 901.89 367.28 901.20 378.62 901.16 389.96 C 900.98 393.37 901.76 397.05 900.16 400.22 C 893.63 403.27 886.02 401.96 879.04 403.06 C 870.27 403.54 861.48 402.96 852.70 403.18 C 850.90 406.49 847.75 408.79 846.01 412.14 C 841.75 419.77 836.78 426.99 832.65 434.70 C 828.42 442.60 823.65 450.20 818.78 457.72 C 815.53 463.13 812.14 468.44 808.78 473.77 C 802.10 484.23 796.22 495.18 789.72 505.75 C 787.72 509.45 785.84 513.22 784.14 517.07 C 782.86 520.10 781.50 523.10 780.19 526.12 C 777.62 531.81 774.64 537.29 771.74 542.81 C 768.80 549.28 765.34 555.53 763.13 562.31 C 760.73 568.67 757.44 574.65 755.33 581.14 C 752.35 586.43 750.69 592.35 747.57 597.57 C 747.10 599.25 743.47 599.14 744.37 597.14 C 751.09 587.98 755.62 577.51 760.25 567.21 C 764.42 555.85 769.48 544.84 775.30 534.23 C 776.67 531.57 777.95 528.86 779.23 526.16 C 782.79 518.14 786.05 509.94 790.70 502.47 C 794.56 496.25 798.02 489.80 801.77 483.52 C 810.67 468.88 820.09 454.57 828.82 439.83 C 832.70 432.70 836.73 425.66 841.08 418.81 C 844.15 413.61 846.86 408.19 850.37 403.26 C 844.56 402.90 838.76 402.49 832.98 401.84 C 826.46 401.57 819.91 400.94 813.61 399.21 C 813.03 391.42 814.46 383.65 814.46 375.85 C 808.22 380.54 799.72 380.60 793.52 385.41 C 789.06 389.22 783.86 391.95 778.89 394.98 C 771.62 399.53 764.06 403.70 756.15 407.02 C 750.49 408.47 745.91 412.24 740.66 414.62 C 734.66 417.36 729.42 421.43 723.79 424.80 C 715.23 428.97 706.71 433.22 698.04 437.15 C 685.27 443.28 672.58 449.56 659.88 455.82 C 657.64 456.99 655.37 458.09 653.10 459.19 C 647.80 460.72 643.05 464.08 637.50 464.63 C 637.54 464.16 637.62 463.21 637.66 462.73 C 644.51 461.77 650.97 459.16 657.20 456.27 C 658.51 455.55 659.83 454.86 661.17 454.19 C 663.42 453.09 665.67 451.98 667.92 450.84 C 685.18 442.35 702.55 434.08 719.91 425.81 C 726.47 422.76 732.00 417.95 738.47 414.74 C 744.60 411.94 750.16 408.03 756.39 405.42 C 763.48 401.49 770.90 398.11 777.54 393.42 C 782.08 390.78 786.66 388.15 790.60 384.63 C 796.54 379.34 804.73 378.30 811.47 374.45 C 812.32 374.07 813.20 373.75 814.11 373.50 C 814.12 371.57 814.16 369.64 814.19 367.72 L 814.83 367.58 C 814.87 370.62 814.25 373.78 815.24 376.74 C 815.51 383.56 815.43 390.42 816.45 397.20 C 821.86 398.73 827.34 400.40 833.03 400.36 C 848.68 400.68 864.35 400.82 880.00 400.27 C 886.07 399.53 892.33 400.04 898.23 398.15 C 900.96 388.31 898.83 377.99 899.35 367.94 C 899.11 357.83 897.46 347.77 897.77 337.63 C 893.93 335.24 889.39 334.82 885.09 333.86 C 880.27 333.50 875.49 332.66 870.66 332.61 Z" />
<path fill="#0f37fe" d=" M 564.82 354.57 C 570.47 353.84 575.42 357.04 579.01 361.07 C 585.28 367.35 590.44 374.71 594.45 382.62 C 597.34 386.85 598.44 391.87 599.21 396.85 C 601.40 405.20 602.54 413.80 602.70 422.44 C 602.70 422.69 602.71 423.21 602.71 423.47 C 602.62 431.27 602.98 439.08 602.78 446.88 C 602.20 446.64 601.05 446.15 600.47 445.90 C 599.76 438.23 600.76 430.49 600.33 422.79 L 600.32 422.24 C 599.93 415.05 599.34 407.81 597.43 400.84 C 596.17 396.46 596.63 391.66 594.44 387.57 C 591.61 382.19 588.91 376.67 585.05 371.94 C 581.10 366.59 576.95 360.98 570.84 357.95 C 568.80 356.86 566.21 356.64 564.82 354.57 Z" />
<path fill="#0f37fe" d=" M 849.36 355.57 C 855.47 352.00 863.75 358.27 862.04 365.09 C 861.12 371.37 852.53 374.71 847.82 370.22 C 842.82 366.60 843.80 358.12 849.36 355.57 Z" />
<path fill="#1038fe" d=" M 815.28 365.01 C 822.58 362.61 829.93 360.22 837.62 359.44 C 837.47 360.06 837.17 361.28 837.02 361.89 C 834.30 363.29 831.01 363.16 828.04 363.78 C 823.42 364.22 819.28 366.48 814.83 367.58 L 814.19 367.72 C 804.18 369.62 794.66 373.42 785.26 377.25 C 779.41 380.51 773.37 383.45 767.21 386.07 C 759.79 389.22 753.85 394.79 747.19 399.16 C 744.11 401.26 741.97 404.81 738.24 405.85 C 738.46 404.20 738.88 402.45 740.38 401.49 C 749.30 394.79 758.76 388.75 768.85 383.93 C 775.05 381.31 780.61 377.42 786.74 374.68 C 795.87 371.40 804.92 367.81 814.31 365.31 L 815.28 365.01 Z" />
<path fill="#0f37fe" d=" M 271.47 394.74 C 276.24 392.74 282.30 396.67 281.80 401.98 C 282.22 407.94 274.51 411.72 269.87 408.17 C 264.84 405.09 265.79 396.52 271.47 394.74 Z" />
<path fill="#0f37fe" d=" M 717.39 405.56 C 721.37 403.78 726.55 406.42 726.55 411.01 C 727.24 416.50 719.69 420.00 715.91 416.06 C 712.44 413.17 713.55 407.54 717.39 405.56 Z" />
<path fill="#1038fe" d=" M 262.15 419.16 C 262.84 419.29 264.20 419.56 264.88 419.69 C 261.84 426.89 255.49 431.83 250.98 438.02 C 246.78 443.93 242.94 450.08 239.17 456.26 C 234.25 463.78 228.40 470.67 221.94 476.92 C 217.44 481.52 212.18 485.35 208.23 490.48 C 202.77 497.28 197.07 503.88 191.03 510.19 C 181.30 522.23 172.46 535.20 166.44 549.53 C 165.13 552.50 164.75 555.79 163.36 558.73 C 163.28 554.67 164.97 550.90 166.47 547.22 C 173.23 532.28 182.77 518.76 193.26 506.22 C 197.12 501.40 200.64 496.32 204.59 491.58 C 213.55 482.21 223.29 473.53 231.27 463.26 C 234.73 458.42 238.87 454.08 241.87 448.91 C 245.16 443.30 248.74 437.83 253.00 432.89 C 256.55 428.68 259.93 424.25 262.15 419.16 Z" />
<path fill="#000000" d=" M 549.26 418.67 C 550.64 419.07 551.42 420.03 551.54 421.47 C 559.71 420.92 567.93 421.40 576.06 422.32 C 584.15 422.32 592.23 422.24 600.32 422.24 L 600.33 422.79 C 583.82 423.17 567.23 422.75 550.80 424.54 C 550.38 430.42 550.37 436.35 549.54 442.20 C 549.10 439.40 549.92 436.62 549.64 433.84 C 549.40 428.79 549.12 423.73 549.26 418.67 Z" />
<path fill="#1c41fd" d=" M 694.36 418.72 C 694.94 419.03 696.10 419.66 696.68 419.98 C 695.63 421.43 694.74 423.22 692.92 423.84 C 683.01 428.05 672.87 431.68 662.84 435.57 C 651.29 438.88 641.02 445.31 630.26 450.41 C 629.62 450.61 628.35 451.01 627.72 451.20 C 625.65 451.67 623.55 451.96 621.45 452.20 C 622.77 449.89 625.47 449.67 627.77 449.04 C 628.39 448.86 629.62 448.50 630.24 448.32 C 647.51 440.90 664.49 432.73 682.06 426.00 C 686.29 423.84 691.25 422.55 694.36 418.72 Z" />
<path fill="#0a0a0a" d=" M 602.70 422.44 C 608.82 422.97 614.91 423.81 621.03 424.32 C 624.08 424.59 627.91 423.45 630.22 426.08 C 630.84 433.47 629.87 440.90 630.24 448.32 C 629.62 448.50 628.39 448.86 627.77 449.04 C 627.85 441.78 627.72 434.53 627.57 427.27 C 619.25 426.21 611.16 423.44 602.71 423.47 C 602.71 423.21 602.70 422.69 602.70 422.44 Z" />
<path fill="#f5f4f0" d=" M 550.80 424.54 C 567.23 422.75 583.82 423.17 600.33 422.79 C 600.76 430.49 599.76 438.23 600.47 445.90 C 601.05 446.15 602.20 446.64 602.78 446.88 C 602.98 439.08 602.62 431.27 602.71 423.47 C 611.16 423.44 619.25 426.21 627.57 427.27 C 627.72 434.53 627.85 441.78 627.77 449.04 C 625.47 449.67 622.77 449.89 621.45 452.20 C 623.55 451.96 625.65 451.67 627.72 451.20 C 627.64 458.17 628.35 465.12 628.27 472.08 C 627.86 479.86 626.46 487.54 625.53 495.27 C 609.35 495.98 593.16 495.37 576.98 495.77 C 567.46 495.65 557.80 496.49 548.40 494.73 C 548.91 488.77 547.76 482.85 547.81 476.90 C 548.47 470.95 547.99 464.95 548.34 458.99 C 548.53 453.37 549.38 447.81 549.54 442.20 C 550.37 436.35 550.38 430.42 550.80 424.54 Z" />
<path fill="#4a4a49" d=" M 549.10 432.83 L 549.64 433.84 C 549.92 436.62 549.10 439.40 549.54 442.20 C 549.38 447.81 548.53 453.37 548.34 458.99 C 547.99 464.95 548.47 470.95 547.81 476.90 L 546.67 477.68 C 546.16 462.68 548.01 447.76 549.10 432.83 Z" />
<path fill="#212120" d=" M 627.72 451.20 C 628.35 451.01 629.62 450.61 630.26 450.41 C 630.18 462.33 628.82 474.19 628.30 486.09 C 628.07 489.42 628.76 492.82 627.91 496.10 C 627.95 493.36 627.78 490.63 627.71 487.90 C 627.20 490.41 626.59 492.93 625.53 495.27 C 626.46 487.54 627.86 479.86 628.27 472.08 C 628.35 465.12 627.64 458.17 627.72 451.20 Z" />
<path fill="#0f37fe" d=" M 588.37 453.51 C 592.71 451.69 598.07 455.19 597.69 459.98 C 597.89 464.99 591.54 468.45 587.41 465.61 C 582.75 463.08 583.29 455.21 588.37 453.51 Z" />
<path fill="#000000" d=" M 546.67 477.68 L 547.81 476.90 C 547.76 482.85 548.91 488.77 548.40 494.73 C 557.80 496.49 567.46 495.65 576.98 495.77 C 593.16 495.37 609.35 495.98 625.53 495.27 C 626.59 492.93 627.20 490.41 627.71 487.90 C 627.78 490.63 627.95 493.36 627.91 496.10 C 627.85 496.48 627.72 497.23 627.65 497.61 C 622.11 498.04 616.55 497.43 611.00 497.62 C 598.98 497.47 586.94 497.84 574.93 497.19 C 571.34 496.32 567.62 496.71 563.98 496.88 C 561.03 497.43 558.02 497.26 555.04 497.38 C 551.81 497.39 548.39 497.84 545.43 496.25 C 545.90 490.06 546.73 483.90 546.67 477.68 Z" />
<path fill="#060606" d=" M 526.07 504.10 C 527.22 503.30 528.68 503.31 530.02 503.08 C 529.47 505.87 526.21 505.88 524.19 507.11 C 518.67 509.97 513.41 513.64 509.52 518.56 C 507.77 520.93 504.49 519.99 501.98 520.22 C 496.42 520.05 491.05 521.83 486.05 524.10 C 482.18 525.86 479.30 529.16 475.48 531.00 C 475.45 530.38 475.39 529.12 475.36 528.50 C 484.56 521.69 495.71 517.32 507.28 517.58 C 508.84 515.73 510.60 514.01 512.70 512.76 C 517.22 509.97 521.50 506.82 526.07 504.10 Z" />
<path fill="#474746" d=" M 523.33 512.33 C 523.85 512.40 524.90 512.54 525.42 512.61 C 525.04 520.52 525.04 528.45 525.42 536.37 C 524.60 536.40 523.78 536.42 522.97 536.41 C 524.09 528.42 523.25 520.36 523.33 512.33 Z" />
<path fill="#282727" d=" M 573.79 515.50 C 573.65 514.15 574.71 513.46 575.71 512.86 C 575.44 521.32 572.96 529.76 574.19 538.21 C 573.89 538.57 573.29 539.30 572.99 539.66 C 572.71 539.28 572.13 538.52 571.85 538.14 C 573.25 530.67 573.40 523.06 573.79 515.50 Z" />
<path fill="#050505" d=" M 590.83 514.74 C 591.88 513.97 593.18 513.69 594.41 513.32 C 594.41 513.75 594.42 514.62 594.42 515.05 C 588.25 518.03 583.76 523.94 582.21 530.60 C 585.40 530.31 588.76 530.10 591.68 531.70 C 591.91 535.72 588.10 540.16 583.81 538.67 C 582.02 538.49 581.47 536.51 580.65 535.24 C 581.24 527.37 584.95 519.97 590.83 514.74 Z" />
<path fill="#181818" d=" M 530.62 513.81 C 533.54 514.05 537.51 512.39 539.68 514.97 C 539.80 517.46 537.74 519.15 536.44 521.02 C 538.82 521.34 541.79 522.15 542.34 524.92 C 542.77 530.53 536.89 535.60 531.39 534.70 C 531.47 534.25 531.64 533.36 531.73 532.91 C 535.51 533.33 540.14 531.28 540.36 527.03 C 540.84 522.94 535.83 523.43 533.31 522.17 C 534.66 520.11 536.10 518.10 537.25 515.92 C 534.99 515.38 531.14 517.06 530.62 513.81 Z" />
<path fill="#0e0e0e" d=" M 544.23 513.67 C 548.62 513.99 553.04 513.90 557.42 514.38 C 557.65 515.03 558.10 516.35 558.33 517.01 C 557.37 520.27 555.86 523.33 554.15 526.26 C 555.37 526.54 556.42 527.19 557.00 528.33 C 555.61 528.58 554.22 528.83 552.83 529.08 C 552.35 531.35 551.81 533.60 551.34 535.88 C 550.79 535.81 549.70 535.68 549.15 535.62 C 549.98 533.63 550.86 531.65 551.77 529.70 C 551.11 529.31 549.79 528.53 549.13 528.14 C 550.36 527.36 551.73 526.84 553.09 526.30 C 554.25 523.21 556.20 520.25 556.30 516.87 C 553.16 514.23 548.38 516.69 544.68 515.27 L 544.23 513.67 Z" />
<path fill="#080808" d=" M 599.83 519.84 C 600.60 517.72 600.34 514.68 602.88 513.76 C 602.55 519.58 598.80 524.61 598.48 530.47 C 600.09 530.09 601.71 529.68 603.34 529.32 C 605.40 532.97 603.95 537.26 604.26 541.23 C 603.79 541.28 602.85 541.38 602.38 541.43 C 602.55 538.35 602.70 535.26 602.44 532.18 C 600.75 532.31 599.07 532.41 597.39 532.47 C 596.90 528.10 598.99 524.03 599.83 519.84 Z" />
<path fill="#0f0f0f" d=" M 621.58 521.36 C 622.75 518.39 625.30 516.20 627.94 514.51 C 628.71 514.92 629.49 515.34 630.28 515.77 C 631.92 520.04 631.10 524.62 630.03 528.92 C 629.29 530.63 628.53 532.34 627.70 534.01 C 628.71 536.20 629.31 538.63 630.85 540.55 C 632.85 540.24 633.19 537.13 635.45 537.67 C 636.74 541.29 631.86 543.52 629.01 542.14 C 627.60 540.92 627.38 538.94 626.63 537.35 C 625.55 537.85 624.48 538.37 623.42 538.91 C 623.01 536.09 625.43 534.75 627.06 533.02 C 629.93 528.17 630.30 522.02 628.33 516.78 C 624.89 518.37 623.09 521.94 624.26 525.57 C 621.58 526.71 621.14 523.17 621.58 521.36 Z" />
<path fill="#1b1b1a" d=" M 646.15 522.08 C 648.52 518.66 650.98 514.77 655.16 513.44 C 655.35 513.83 655.74 514.60 655.93 514.99 C 648.27 519.15 642.98 527.18 641.91 535.80 C 643.74 532.72 649.04 532.63 650.48 535.93 C 651.90 541.53 642.08 544.48 640.54 538.90 C 640.36 532.86 643.01 527.10 646.15 522.08 Z" />
<path fill="#121212" d=" M 669.52 514.18 C 670.06 514.17 671.13 514.15 671.67 514.14 C 671.26 522.09 671.94 530.09 671.19 538.01 C 670.57 537.85 669.34 537.54 668.72 537.38 C 669.24 534.16 669.52 530.91 670.02 527.69 C 670.75 523.18 669.55 518.69 669.52 514.18 Z" />
<path fill="#111111" d=" M 679.01 515.83 C 682.42 515.90 685.86 515.37 689.25 515.81 C 689.86 520.96 684.45 524.15 681.56 527.72 C 683.81 527.44 686.08 527.11 688.32 526.64 C 690.82 528.17 690.77 531.41 689.68 533.84 C 687.99 537.73 684.48 540.45 680.87 542.46 C 680.35 542.11 679.32 541.41 678.81 541.06 C 678.77 540.59 678.69 539.66 678.65 539.20 C 679.79 539.49 680.92 539.82 682.05 540.21 C 682.58 539.96 683.64 539.47 684.17 539.22 C 687.15 536.41 689.85 532.82 688.46 528.45 C 684.92 527.82 681.61 530.11 678.15 529.31 C 682.15 526.15 685.41 522.13 687.77 517.62 C 684.51 518.04 681.18 518.43 678.02 517.26 L 679.01 515.83 Z" />
<path fill="#080808" d=" M 695.20 522.85 C 694.75 518.83 699.58 518.66 702.41 518.31 C 706.01 525.25 695.93 529.19 696.14 535.63 C 698.66 536.86 701.58 536.16 704.28 536.34 C 702.92 539.09 699.32 538.17 696.89 537.93 C 695.36 537.84 693.00 536.84 693.77 534.85 C 696.44 530.06 701.19 526.16 701.74 520.38 C 699.42 520.82 697.33 521.92 695.20 522.85 Z" />
<path fill="#030303" d=" M 476.71 530.61 C 485.82 527.75 495.55 527.10 505.03 527.92 C 507.97 528.73 512.18 529.14 513.51 532.29 C 513.64 537.43 511.46 542.59 513.44 547.70 C 512.34 547.61 510.82 547.91 510.77 546.35 C 509.56 541.86 510.63 537.22 511.47 532.77 C 505.05 528.93 497.24 529.71 490.11 530.06 C 485.17 529.85 480.70 532.37 475.82 532.39 L 476.71 530.61 Z" />
<path fill="#f5f4f0" d=" M 583.97 532.21 C 585.88 532.24 587.80 532.40 589.70 532.70 C 588.92 534.08 588.69 536.17 586.94 536.73 C 585.53 537.07 584.14 536.49 582.78 536.27 C 583.18 534.91 583.58 533.56 583.97 532.21 Z" />
<path fill="#090909" d=" M 461.28 535.83 C 463.85 532.60 468.46 532.77 472.02 534.00 C 476.05 535.46 477.74 540.04 477.58 544.03 C 477.76 547.58 476.40 550.93 475.11 554.16 C 474.63 554.43 473.68 554.97 473.21 555.24 C 473.19 557.00 473.20 558.78 473.19 560.56 C 475.01 559.58 476.80 558.38 478.90 558.16 C 483.04 561.74 485.94 566.70 490.87 569.40 C 490.64 569.80 490.18 570.61 489.95 571.01 C 486.67 568.49 483.60 565.73 480.61 562.89 C 480.44 570.03 480.40 577.18 480.57 584.33 C 480.00 583.72 479.43 583.14 478.86 582.57 C 478.71 575.26 479.13 567.94 478.29 560.66 C 473.29 563.02 468.96 566.64 463.63 568.31 C 462.21 574.44 462.62 580.80 462.68 587.04 C 463.96 598.23 464.61 609.50 466.46 620.63 C 470.77 618.42 475.51 617.14 479.68 614.68 C 480.00 609.86 479.24 605.04 479.33 600.22 C 479.27 596.25 480.03 592.34 480.97 588.51 C 481.78 594.98 481.49 601.52 482.00 608.01 C 482.17 611.12 483.71 615.11 480.39 617.11 C 485.95 625.99 485.67 636.95 485.37 647.04 C 484.55 655.01 482.08 662.72 478.88 670.03 C 481.27 672.45 486.56 672.47 486.55 676.56 C 482.98 675.39 479.57 673.51 476.77 671.00 C 476.72 670.51 476.61 669.54 476.56 669.06 C 479.72 662.90 482.93 656.69 484.27 649.84 C 484.61 643.83 484.57 637.80 484.28 631.79 C 483.81 630.17 483.45 628.52 483.14 626.88 C 482.05 623.75 480.45 620.85 478.82 617.98 C 474.63 619.10 470.77 621.15 466.77 622.78 C 466.40 622.05 465.66 620.60 465.30 619.88 C 465.36 624.95 464.95 630.02 464.39 635.06 C 463.50 640.16 461.66 645.03 459.89 649.89 C 458.02 654.32 455.69 658.53 453.63 662.86 C 453.24 663.85 452.63 665.31 453.63 666.17 C 456.82 669.32 460.57 671.82 463.82 674.91 C 463.49 675.32 462.84 676.14 462.52 676.55 C 459.46 671.88 454.27 669.69 450.17 666.18 C 450.55 663.88 451.57 661.78 453.05 660.00 C 458.28 653.60 460.82 645.52 462.87 637.64 C 464.53 631.72 462.77 625.60 463.66 619.61 C 463.29 612.47 463.47 605.32 463.09 598.20 C 456.17 599.87 449.06 598.94 442.04 599.37 C 439.84 599.50 437.62 599.32 435.58 598.47 C 435.59 598.04 435.60 597.18 435.61 596.75 C 440.85 592.63 444.97 587.35 449.83 582.82 C 453.65 579.11 457.24 575.11 459.86 570.45 C 460.27 570.43 461.09 570.39 461.49 570.37 C 461.71 568.94 461.44 566.81 463.12 566.17 C 465.74 565.08 468.35 563.96 470.74 562.40 C 470.81 559.91 470.76 557.41 470.59 554.93 C 467.36 553.60 464.27 551.51 462.85 548.20 C 460.75 544.40 461.61 539.96 461.28 535.83 Z" />
<path fill="#323231" d=" M 561.25 536.67 C 561.32 535.03 560.64 532.72 563.00 532.53 C 565.22 532.82 564.66 534.98 564.72 536.59 C 563.56 536.62 562.40 536.65 561.25 536.67 Z" />
<path fill="#f5f4f0" d=" M 464.35 536.43 C 467.68 534.31 473.56 535.94 474.61 540.10 C 475.81 544.26 475.06 549.12 472.78 552.77 C 465.17 552.26 461.77 542.47 464.35 536.43 Z" />
<path fill="#f2f1ed" d=" M 641.83 537.42 C 643.91 536.80 646.03 536.21 648.22 536.00 C 648.28 539.69 643.32 540.82 641.83 537.42 Z" />
<path fill="#323231" d=" M 656.49 537.98 C 657.12 536.14 658.90 536.31 660.48 536.38 C 660.53 537.47 660.58 538.56 660.63 539.67 C 658.98 539.79 656.89 540.14 656.49 537.98 Z" />
<path fill="#323231" d=" M 610.38 537.48 C 611.46 537.48 612.55 537.49 613.65 537.51 C 613.64 538.79 613.62 540.08 613.59 541.37 C 612.52 541.37 611.45 541.37 610.40 541.38 C 610.36 540.07 610.35 538.77 610.38 537.48 Z" />
<path fill="#000000" d=" M 501.75 549.02 C 504.10 544.93 508.00 550.14 507.84 553.14 C 510.66 553.26 514.04 552.61 516.21 554.94 C 517.67 558.70 515.67 563.08 512.60 565.44 C 510.16 566.44 507.48 565.49 505.00 565.15 C 501.96 568.44 500.32 572.60 498.29 576.51 C 494.61 577.57 492.72 572.73 489.95 571.01 C 490.18 570.61 490.64 569.80 490.87 569.40 C 492.96 570.97 495.00 572.59 497.05 574.21 C 499.43 570.56 502.09 566.97 503.70 562.91 C 503.10 558.27 502.09 553.68 501.75 549.02 Z" />
<path fill="#4a4a48" d=" M 504.26 550.25 C 504.77 550.76 504.77 550.76 504.26 550.25 Z" />
<path fill="#000000" d=" M 581.79 556.61 C 589.89 554.65 598.39 558.33 604.73 563.26 C 610.93 569.00 610.34 578.17 609.31 585.82 C 607.05 592.31 602.55 599.05 595.33 600.43 C 588.43 601.37 580.95 600.70 575.01 596.76 C 571.07 594.24 566.31 591.86 564.73 587.11 C 563.09 574.72 570.43 561.76 581.79 556.61 Z" />
<path fill="#313130" d=" M 510.43 558.13 C 511.84 557.77 512.31 558.28 511.84 559.67 C 510.42 560.02 509.95 559.50 510.43 558.13 Z" />
<path fill="#f5f4f0" d=" M 576.76 560.71 C 579.53 559.33 582.46 558.31 585.47 557.56 C 585.00 563.46 584.94 569.38 584.58 575.29 C 586.76 577.12 589.46 578.09 592.19 578.79 C 597.14 581.22 601.90 584.04 606.79 586.60 C 604.56 591.35 601.47 596.54 595.99 597.85 C 589.10 599.21 581.53 598.52 575.45 594.78 C 571.02 592.38 565.91 588.58 566.24 582.95 C 565.74 576.68 568.21 570.76 571.70 565.70 C 573.22 563.87 574.93 562.23 576.76 560.71 Z" />
<path fill="#222221" d=" M 589.18 558.33 C 590.80 557.80 591.34 558.36 590.79 559.99 C 589.15 560.51 588.61 559.95 589.18 558.33 Z" />
<path fill="#111111" d=" M 520.32 560.49 C 520.77 560.53 521.68 560.61 522.13 560.65 C 523.33 566.33 525.10 571.96 527.95 577.04 C 531.37 582.45 535.22 587.64 539.56 592.36 C 547.55 600.05 557.23 606.28 568.11 608.92 C 577.68 612.25 587.97 611.82 597.95 611.55 C 606.04 610.62 614.32 608.76 621.22 604.23 C 623.23 602.89 625.27 601.58 627.34 600.33 C 634.66 594.26 640.26 586.50 646.09 579.07 C 648.15 576.39 649.25 573.10 651.37 570.48 C 652.03 570.44 653.33 570.35 653.99 570.30 C 653.34 571.50 652.63 572.68 651.77 573.75 C 643.61 582.85 637.13 593.48 627.57 601.28 C 622.13 604.56 617.05 608.66 610.86 610.44 C 605.68 611.83 600.36 612.84 594.98 612.78 C 586.61 612.72 577.99 613.75 569.87 611.17 C 562.33 608.95 554.81 606.18 548.25 601.78 C 541.32 596.38 535.52 589.67 530.46 582.53 C 526.58 577.44 523.49 571.78 521.12 565.85 C 520.40 564.15 520.36 562.29 520.32 560.49 Z" />
<path fill="#f5f4f0" d=" M 463.63 568.31 C 468.96 566.64 473.29 563.02 478.29 560.66 C 479.13 567.94 478.71 575.26 478.86 582.57 C 478.90 588.45 479.14 594.33 479.33 600.22 C 479.24 605.04 480.00 609.86 479.68 614.68 C 475.51 617.14 470.77 618.42 466.46 620.63 C 464.61 609.50 463.96 598.23 462.68 587.04 C 462.62 580.80 462.21 574.44 463.63 568.31 Z" />
<path fill="#292928" d=" M 595.21 562.04 C 598.21 560.54 595.30 565.37 595.21 562.04 Z" />
<path fill="#020202" d=" M 139.84 587.85 C 141.62 579.80 139.16 571.61 139.57 563.52 C 146.24 564.86 153.21 564.84 159.93 563.85 C 163.63 563.97 167.77 562.93 171.00 565.29 C 181.02 565.87 191.06 565.23 201.09 565.47 C 204.87 565.42 208.94 566.82 211.24 569.96 C 211.57 574.30 211.24 578.66 211.26 583.02 C 210.28 597.32 211.26 611.70 209.90 625.99 C 209.41 630.73 210.01 635.53 209.37 640.27 C 209.19 641.96 207.73 643.00 206.07 642.77 C 193.52 642.74 181.00 641.71 168.45 641.74 C 168.55 641.20 168.75 640.13 168.85 639.59 C 173.48 640.56 178.30 639.43 183.02 639.74 C 191.03 639.57 199.16 641.38 207.10 639.53 C 207.54 635.64 208.58 631.85 208.92 627.95 C 209.89 620.98 209.13 613.95 208.76 606.97 C 208.96 594.86 208.60 582.75 208.46 570.64 C 203.10 565.97 195.51 567.73 189.02 567.11 C 181.92 566.32 174.82 567.32 167.72 567.30 C 166.30 566.41 164.72 565.15 162.96 566.06 C 159.08 567.39 154.96 566.62 150.96 566.83 C 147.81 566.99 144.66 567.26 141.50 567.22 C 141.08 573.70 141.15 580.20 141.20 586.69 C 141.19 593.50 141.04 600.31 141.23 607.12 C 141.71 611.03 141.38 614.96 141.19 618.88 C 141.18 625.38 141.71 631.86 141.89 638.36 C 149.16 639.90 156.61 640.67 164.06 640.33 C 165.21 640.32 167.29 640.38 167.78 641.67 C 159.90 641.22 151.92 641.72 144.00 641.44 C 142.38 641.49 140.88 640.89 139.39 640.36 C 139.09 634.59 139.16 628.72 140.12 623.03 C 140.11 618.28 142.29 613.72 140.44 609.06 L 140.33 609.19 C 140.33 608.84 140.33 608.13 140.34 607.78 C 140.26 601.53 140.72 595.27 140.13 589.05 L 139.86 588.00 C 139.86 587.96 139.84 587.89 139.84 587.85 Z" />
<path fill="#222222" d=" M 601.30 564.27 C 603.46 562.97 603.27 567.16 601.57 567.49 C 600.08 567.31 600.44 565.00 601.30 564.27 Z" />
<path fill="#474746" d=" M 591.50 565.47 C 593.81 564.00 593.03 569.50 591.06 568.80 C 590.45 567.62 590.60 566.51 591.50 565.47 Z" />
<path fill="#f5f4f0" d=" M 442.72 591.80 C 448.30 584.42 456.26 579.16 461.60 571.58 C 461.14 579.99 461.96 588.33 462.73 596.68 C 458.39 596.07 454.20 597.59 449.91 597.93 C 445.99 598.65 442.02 597.94 438.14 597.35 C 439.67 595.51 441.28 593.72 442.72 591.80 Z" />
<path fill="#363635" d=" M 589.18 574.23 C 592.15 572.68 589.34 577.56 589.18 574.23 Z" />
<path fill="#565554" d=" M 599.10 575.32 C 599.64 575.82 599.64 575.82 599.10 575.32 Z" />
<path fill="#3b3b3a" d=" M 478.86 582.57 C 479.43 583.14 480.00 583.72 480.57 584.33 C 481.36 585.54 481.21 587.13 480.97 588.51 C 480.03 592.34 479.27 596.25 479.33 600.22 C 479.14 594.33 478.90 588.45 478.86 582.57 Z" />
<path fill="#0f37fe" d=" M 141.20 586.69 C 147.34 588.23 152.95 592.06 156.20 597.53 C 156.87 599.09 157.33 601.69 155.23 602.37 C 150.82 604.61 146.03 605.99 141.23 607.12 C 141.04 600.31 141.19 593.50 141.20 586.69 Z" />
<path fill="#1038fe" d=" M 138.32 596.43 C 138.63 593.60 138.02 590.43 139.86 588.00 L 140.13 589.05 C 140.72 595.27 140.26 601.53 140.34 607.78 C 137.72 605.91 137.92 602.55 137.69 599.72 C 129.48 599.35 121.24 599.38 113.06 598.58 C 104.60 598.03 96.00 598.85 87.64 597.18 C 87.58 596.58 87.46 595.37 87.40 594.76 C 90.90 594.07 94.46 595.32 98.01 595.23 C 111.46 595.37 124.84 596.97 138.32 596.43 Z" />
<path fill="#0f37fe" d=" M 173.42 591.59 C 179.03 589.62 185.47 594.10 185.45 600.06 C 185.80 606.68 177.69 611.84 171.95 608.18 C 165.04 604.96 166.15 593.68 173.42 591.59 Z" />
<path fill="#090909" d=" M 704.32 600.66 C 705.85 600.40 707.39 600.15 708.94 599.93 C 718.28 600.76 727.67 600.61 737.04 600.85 C 744.01 601.76 751.07 601.04 758.06 601.74 C 762.56 602.23 767.09 602.36 771.60 602.72 C 773.22 602.73 774.52 604.29 774.26 605.89 C 773.69 626.91 773.29 647.95 773.87 668.97 C 774.04 670.87 773.44 673.65 770.98 673.53 C 763.67 673.77 756.36 673.01 749.04 673.19 C 737.24 672.93 725.32 674.10 713.64 671.86 C 707.74 671.21 701.81 670.80 695.89 670.50 C 694.30 670.47 692.84 669.87 691.41 669.30 C 691.78 666.76 692.71 664.36 693.35 661.90 C 695.18 654.30 695.55 646.47 696.91 638.80 C 699.31 630.07 699.65 620.96 699.67 611.97 C 699.81 609.15 699.20 605.81 701.53 603.67 C 702.17 607.49 700.61 611.19 700.64 615.00 C 700.60 621.13 699.92 627.22 699.06 633.28 C 696.13 644.67 695.99 656.47 694.56 668.09 C 698.03 668.68 701.51 669.28 704.92 670.21 C 710.33 670.05 715.63 671.71 721.03 671.11 C 733.01 670.21 745.01 671.78 757.00 670.87 C 761.64 670.47 766.61 671.23 771.06 670.07 C 772.01 665.43 771.49 660.64 771.97 655.95 C 772.81 646.63 771.42 637.31 771.69 627.98 C 771.65 620.51 771.60 613.04 771.39 605.57 C 763.73 603.98 756.03 602.16 748.17 602.23 C 740.13 601.85 732.07 601.26 724.03 601.83 C 717.46 602.75 710.73 602.00 704.24 603.57 C 704.25 602.59 704.27 601.62 704.32 600.66 Z" />
<path fill="#dd4e0c" d=" M 727.68 619.72 C 731.68 618.26 736.37 618.00 740.32 619.76 C 743.74 621.32 744.23 625.77 744.02 629.07 C 743.40 635.04 737.52 637.95 734.20 642.29 C 731.27 645.29 730.27 649.46 730.27 653.54 C 729.29 653.51 728.31 653.48 727.34 653.46 C 727.54 649.42 728.22 645.16 730.89 641.95 C 733.56 638.07 737.68 635.45 740.31 631.55 C 742.08 628.82 741.06 625.59 740.26 622.73 C 736.41 621.06 731.66 620.79 727.92 622.86 C 724.96 624.72 725.24 628.39 725.52 631.41 C 726.88 631.69 728.49 631.62 729.36 632.94 C 729.00 634.11 728.22 635.00 727.01 635.60 C 719.69 633.53 721.47 622.09 727.68 619.72 Z" />
<path fill="#030303" d=" M 917.43 636.87 C 920.53 635.89 923.72 635.29 926.99 635.71 C 941.31 636.62 955.66 636.60 970.01 636.61 C 973.05 637.15 976.94 636.34 979.32 638.66 C 980.04 643.47 981.72 648.09 982.02 652.98 C 982.42 659.69 983.86 666.28 984.59 672.95 C 984.87 680.98 984.10 689.01 984.57 697.04 C 984.63 700.18 985.35 703.65 983.36 706.39 C 979.59 706.87 975.80 706.91 972.01 706.84 C 967.28 706.63 962.73 708.26 958.02 708.26 C 951.56 708.75 944.97 707.89 938.65 709.58 C 933.83 710.74 928.85 710.24 923.96 710.39 C 921.43 710.36 918.16 710.70 916.69 708.16 C 918.08 700.00 917.34 691.68 917.89 683.45 C 913.34 683.95 909.38 681.29 905.08 680.35 C 898.96 678.35 892.33 678.25 886.46 675.49 C 879.92 672.63 872.64 672.27 866.09 669.44 C 858.89 666.56 851.35 664.79 843.75 663.31 L 843.11 662.85 C 832.41 659.68 821.53 657.00 811.19 652.80 C 805.28 650.14 799.50 647.22 793.87 644.02 C 791.02 642.42 787.68 642.29 784.62 641.32 C 784.65 640.84 784.70 639.88 784.73 639.40 C 789.65 639.86 793.79 642.64 797.82 645.27 C 805.91 649.60 814.22 653.65 823.09 656.17 C 830.43 658.17 837.58 661.02 845.20 661.78 C 857.40 663.23 868.06 670.10 880.20 671.79 C 884.21 672.82 888.08 674.35 892.05 675.54 C 900.63 677.30 909.51 678.28 917.68 681.56 C 918.78 675.75 918.07 669.84 918.24 663.98 C 918.39 657.96 918.59 651.92 918.16 645.90 C 917.55 642.93 917.46 639.89 917.43 636.87 Z" />
<path fill="#f5f4f0" d=" M 943.04 637.65 C 954.20 637.34 965.52 636.98 976.42 639.85 C 977.29 644.31 979.61 648.41 979.76 653.02 C 980.40 659.72 981.86 666.31 982.57 673.00 C 982.71 680.37 983.63 687.71 983.20 695.09 C 982.61 697.90 982.39 700.76 981.86 703.58 C 976.64 704.57 971.32 703.85 966.10 704.61 C 959.46 705.95 952.67 706.18 945.93 706.32 C 941.48 706.28 937.38 708.39 932.95 708.48 C 928.49 708.55 924.00 708.46 919.63 707.49 C 921.22 700.37 919.61 693.12 919.73 685.94 C 919.57 670.22 919.15 654.51 919.70 638.80 C 927.44 637.89 935.27 638.26 943.04 637.65 Z" />
<path fill="#0b0b0b" d=" M 250.60 641.36 C 262.99 642.39 276.02 644.06 286.53 651.28 C 294.29 655.95 299.99 664.72 299.46 673.96 C 299.22 678.41 300.31 683.21 297.96 687.28 C 293.29 697.40 283.34 705.67 271.94 706.27 C 263.68 706.58 255.42 706.75 247.15 706.67 C 250.11 711.12 249.64 716.59 250.75 721.60 C 251.25 723.76 251.67 725.95 251.69 728.18 C 241.64 732.19 231.25 735.24 220.58 737.04 L 220.07 737.73 C 222.04 741.98 224.53 745.97 226.89 750.03 C 229.05 753.86 232.61 756.90 233.75 761.28 C 233.21 761.37 232.13 761.55 231.59 761.65 C 227.84 754.96 223.68 748.49 220.35 741.57 C 216.77 733.62 211.38 726.69 207.45 718.94 C 207.49 718.65 207.57 718.08 207.61 717.79 C 216.89 716.90 225.72 713.77 234.46 710.72 C 237.82 709.44 241.66 709.18 244.54 706.87 C 231.07 706.19 217.56 706.66 204.08 706.31 C 197.16 705.51 190.24 704.49 183.49 702.75 C 175.50 700.56 167.07 701.58 159.01 699.72 C 150.83 697.85 142.60 696.10 134.18 695.97 C 134.23 695.39 134.33 694.23 134.37 693.65 C 149.12 693.87 163.14 699.43 177.88 699.79 C 189.77 702.23 201.77 705.01 214.00 704.84 C 230.00 704.89 246.00 704.51 262.00 704.78 C 269.51 704.70 277.60 704.52 284.06 700.15 C 289.69 696.24 295.13 691.02 296.76 684.12 C 297.94 676.19 298.04 667.47 293.27 660.61 C 286.94 652.31 277.07 647.33 266.95 645.38 C 261.61 644.10 256.11 643.99 250.68 643.44 C 250.66 642.92 250.62 641.88 250.60 641.36 Z" />
<path fill="#010101" d=" M 110.39 645.34 C 111.19 644.74 112.04 644.23 112.95 643.80 C 112.83 644.39 112.59 645.56 112.47 646.15 C 107.63 649.66 102.53 652.96 98.69 657.63 C 96.67 660.37 94.78 663.19 93.14 666.17 C 91.41 670.94 90.31 675.96 90.39 681.06 C 90.43 685.23 89.85 689.81 92.23 693.51 C 96.99 701.66 106.94 705.23 115.98 705.24 C 119.59 705.39 122.33 701.91 125.89 702.36 C 128.91 704.17 130.80 707.35 133.42 709.65 C 135.76 712.12 138.83 713.62 141.85 715.07 C 136.35 710.09 133.03 703.34 130.41 696.52 C 131.68 696.38 133.24 695.99 133.33 697.81 C 136.34 707.62 143.45 716.82 153.56 719.87 C 153.58 720.40 153.61 721.47 153.62 722.01 C 142.48 719.60 132.86 712.57 125.12 704.40 C 121.93 705.90 118.71 708.04 115.01 707.51 C 108.26 706.88 101.54 704.77 95.95 700.89 C 92.36 698.45 90.66 694.22 89.64 690.18 C 89.00 683.70 89.53 677.13 90.75 670.75 C 93.60 659.98 102.23 652.29 110.39 645.34 Z" />
<path fill="#dd4e0c" d=" M 941.43 665.71 C 937.86 659.46 943.27 651.51 949.92 650.66 C 952.75 650.31 955.71 649.99 958.53 650.67 C 962.61 652.85 961.71 658.19 961.66 662.04 C 960.64 667.44 955.35 670.24 951.66 673.72 C 949.02 676.14 949.55 680.04 949.12 683.25 C 945.10 684.85 946.35 679.36 946.71 677.10 C 947.80 671.34 953.73 669.10 957.12 664.99 C 959.98 661.84 958.59 657.27 958.30 653.49 C 953.65 652.96 947.92 652.62 944.88 656.93 C 941.99 659.74 944.09 663.68 944.95 666.89 C 943.74 666.62 941.97 667.21 941.43 665.71 Z" />
<path fill="#141313" d=" M 168.67 660.58 C 169.10 660.58 169.97 660.57 170.40 660.57 C 170.00 667.52 168.98 674.47 169.57 681.45 C 168.99 681.47 167.84 681.50 167.26 681.51 C 168.57 674.60 168.69 667.59 168.67 660.58 Z" />
<path fill="#dd4e0c" d=" M 727.26 662.70 C 727.25 661.22 727.73 659.90 729.01 659.04 C 731.32 660.74 729.78 663.25 727.26 662.70 Z" />
<path fill="#010101" d=" M 130.51 661.41 C 133.49 660.81 136.13 662.13 138.53 663.73 C 139.27 668.15 139.52 672.63 140.07 677.08 C 140.36 678.50 139.67 679.87 139.37 681.25 C 136.24 682.60 132.91 683.37 129.52 683.66 C 129.45 683.14 129.30 682.11 129.22 681.59 C 132.01 681.52 134.74 680.96 137.43 680.23 C 139.26 675.99 137.40 671.51 137.09 667.16 C 135.77 669.53 133.59 672.74 130.40 671.52 C 127.49 670.12 128.20 666.18 129.23 663.75 C 129.79 665.66 130.16 667.64 130.74 669.56 C 134.08 669.96 135.09 666.40 134.96 663.79 C 133.46 663.64 131.96 663.54 130.46 663.44 C 130.47 662.93 130.50 661.92 130.51 661.41 Z" />
<path fill="#0f0f0e" d=" M 176.06 671.10 C 178.68 667.22 181.70 662.84 186.33 661.29 C 186.43 661.75 186.63 662.67 186.73 663.13 C 179.71 666.10 174.33 673.24 175.60 681.14 C 175.94 681.62 176.60 682.59 176.94 683.07 C 177.99 683.53 179.04 684.00 180.10 684.48 C 183.46 683.37 185.38 680.22 185.50 676.77 C 183.23 675.91 180.86 675.44 178.45 675.36 C 178.46 674.91 178.50 674.01 178.52 673.56 C 181.20 673.84 184.41 673.64 186.43 675.77 C 188.15 680.81 183.06 687.64 177.57 685.34 C 172.84 682.17 174.67 675.62 176.06 671.10 Z" />
<path fill="#010101" d=" M 195.66 663.62 C 197.23 661.54 200.06 662.55 202.24 662.66 C 204.77 665.55 201.89 668.60 200.45 671.21 C 200.89 673.85 202.89 676.19 202.59 679.09 C 202.18 679.65 201.37 680.77 200.97 681.33 C 198.53 682.24 195.30 682.85 193.79 680.15 C 191.94 676.78 194.83 673.74 196.58 671.13 C 194.61 669.22 193.36 665.77 195.66 663.62 Z" />
<path fill="#101010" d=" M 121.31 663.20 C 121.67 663.23 122.37 663.29 122.73 663.32 C 122.73 668.62 122.73 673.96 122.24 679.24 C 121.69 679.44 120.58 679.83 120.03 680.03 C 122.24 674.61 120.83 668.81 121.31 663.20 Z" />
<path fill="#0f0f0e" d=" M 149.27 663.50 C 149.77 663.54 150.77 663.63 151.27 663.67 C 151.56 664.25 152.15 665.42 152.44 666.00 C 150.79 670.26 147.29 673.68 146.52 678.29 C 147.72 679.69 149.65 679.42 151.30 679.72 C 151.40 680.22 151.61 681.21 151.71 681.71 C 149.79 682.28 147.84 681.69 145.96 681.26 C 145.61 680.68 144.91 679.53 144.55 678.96 C 145.98 674.46 148.74 670.57 150.38 666.16 C 149.36 666.34 147.33 666.71 146.32 666.89 C 147.24 665.70 148.24 664.58 149.27 663.50 Z" />
<path fill="#0e0e0e" d=" M 223.46 663.36 C 228.17 663.17 232.90 663.51 237.62 663.50 C 237.95 667.73 233.23 669.36 230.68 671.88 C 233.49 672.24 237.39 670.15 239.34 672.85 C 241.00 676.62 237.84 679.95 234.80 681.69 C 231.34 683.49 227.45 684.30 223.62 684.92 C 223.35 685.37 222.82 686.26 222.55 686.71 C 221.92 685.79 221.49 684.76 221.03 683.77 C 226.45 683.61 232.76 682.86 236.50 678.47 C 237.91 677.19 237.43 675.18 237.65 673.52 C 233.88 672.70 230.17 673.90 226.74 675.40 C 226.32 675.07 225.49 674.40 225.07 674.07 C 228.94 671.69 232.73 669.01 235.40 665.27 C 231.04 665.05 226.68 665.39 222.32 665.16 C 222.61 664.71 223.18 663.81 223.46 663.36 Z" />
<path fill="#050504" d=" M 273.33 669.84 C 277.45 669.34 280.02 666.05 282.48 663.09 C 282.79 664.40 282.84 665.77 282.39 667.07 C 280.92 672.25 279.91 677.58 279.68 682.97 C 279.85 684.61 279.09 685.98 277.86 687.02 C 276.47 684.88 277.98 682.73 278.53 680.61 C 279.44 677.86 279.40 674.93 280.11 672.14 C 280.19 671.08 280.37 668.96 280.46 667.90 C 278.47 669.81 276.36 671.91 273.39 671.78 C 273.37 671.30 273.35 670.32 273.33 669.84 Z" />
<path fill="#f5f4f0" d=" M 197.54 664.50 C 198.67 664.52 199.81 664.55 200.95 664.59 C 200.82 666.51 200.05 668.27 199.10 669.92 C 196.95 668.86 195.93 666.56 197.54 664.50 Z" />
<path fill="#050505" d=" M 254.58 671.05 C 254.27 667.03 258.68 664.70 261.95 663.60 C 265.86 662.94 267.11 668.06 265.69 670.86 C 264.07 674.26 261.34 676.98 259.21 680.05 C 261.55 681.81 264.17 683.02 267.14 683.08 C 267.23 683.67 267.41 684.85 267.50 685.44 C 264.45 685.45 261.43 684.69 259.08 682.70 C 258.12 682.88 256.21 683.26 255.25 683.45 C 257.92 677.43 265.89 672.86 263.40 665.37 C 259.48 665.43 257.36 668.89 254.58 671.05 Z" />
<path fill="#f5f4f0" d=" M 195.57 679.47 C 195.16 677.05 196.16 674.80 197.92 673.17 C 199.96 673.94 199.65 676.65 200.52 678.32 C 199.24 679.81 197.32 679.59 195.57 679.47 Z" />
<path fill="#313130" d=" M 209.39 677.34 C 210.69 677.43 212.00 677.56 213.30 677.70 C 213.29 678.91 213.28 680.12 213.26 681.34 C 211.96 681.46 210.66 681.56 209.36 681.65 C 209.33 680.21 209.34 678.77 209.39 677.34 Z" />
<path fill="#323231" d=" M 156.60 678.60 C 157.85 678.62 159.09 678.67 160.34 678.73 C 160.21 679.94 160.74 681.50 159.53 682.34 C 158.54 682.42 157.55 682.47 156.55 682.48 C 156.55 681.17 156.57 679.88 156.60 678.60 Z" />
<path fill="#313130" d=" M 245.18 681.21 C 246.56 681.27 247.94 681.37 249.31 681.51 C 249.29 682.37 249.27 683.23 249.25 684.11 C 248.65 684.50 247.44 685.28 246.84 685.67 C 245.32 684.59 245.06 682.92 245.18 681.21 Z" />
<path fill="#dd4e0c" d=" M 947.56 690.38 C 948.50 690.33 949.45 690.30 950.42 690.29 C 950.44 690.89 950.47 692.09 950.49 692.70 C 949.49 692.67 948.51 692.66 947.53 692.65 C 947.54 692.08 947.55 690.95 947.56 690.38 Z" />
<path fill="#2a2a29" d=" M 186.67 713.82 C 187.25 711.96 187.87 709.02 190.54 709.60 C 186.67 716.52 185.46 725.17 187.82 732.77 C 187.46 732.82 186.74 732.91 186.37 732.96 C 184.95 726.70 185.20 720.04 186.67 713.82 Z" />
<path fill="#f5f4f0" d=" M 231.26 713.17 C 236.18 711.55 241.36 710.89 246.32 709.36 C 248.47 714.97 248.98 721.03 249.36 726.98 C 242.93 730.20 236.28 733.19 229.09 734.14 C 225.40 734.42 221.72 734.70 218.04 734.85 C 216.02 731.25 213.69 727.84 211.85 724.14 C 211.20 722.61 210.53 721.08 209.87 719.57 C 217.13 717.89 224.25 715.70 231.26 713.17 Z" />
<path fill="#0a0a0a" d=" M 114.15 711.21 C 114.72 711.17 115.85 711.08 116.41 711.03 C 119.42 719.61 117.75 728.88 120.49 737.51 C 130.07 739.23 139.33 742.38 148.82 744.53 C 152.69 744.95 156.61 744.71 160.51 744.67 C 160.85 743.04 161.17 741.41 161.47 739.79 C 158.91 738.56 155.65 737.14 155.39 733.88 C 154.87 728.52 156.08 723.08 158.17 718.15 C 158.72 716.55 160.38 715.85 161.74 715.10 C 159.98 720.61 157.07 726.00 157.56 731.99 C 157.09 735.54 160.90 737.70 164.00 737.56 C 166.85 738.09 168.95 735.60 170.26 733.43 C 172.62 728.98 172.64 723.68 172.29 718.78 C 170.92 715.39 166.79 715.04 163.65 715.22 C 163.54 714.74 163.33 713.77 163.22 713.28 C 166.67 712.01 170.69 713.27 173.20 715.84 C 175.71 718.67 174.30 722.71 174.27 726.09 C 174.17 730.86 172.25 735.56 168.62 738.73 C 167.33 740.14 165.21 739.67 163.53 739.99 C 163.47 741.71 163.42 743.44 163.36 745.19 C 166.96 745.34 170.61 745.39 174.13 744.45 C 180.62 747.84 185.87 753.03 191.88 757.14 C 194.59 758.97 196.82 761.36 199.00 763.78 C 205.24 758.45 211.63 753.29 218.20 748.37 C 219.24 747.36 220.67 747.17 222.06 747.20 C 220.88 749.44 218.13 749.86 216.23 751.27 C 210.89 754.79 206.23 759.25 201.98 764.01 C 200.91 765.28 199.06 766.63 197.40 765.53 C 195.29 763.31 193.41 760.86 190.94 759.02 C 185.35 755.17 181.15 749.38 174.50 747.16 C 173.64 751.88 172.46 756.55 171.74 761.30 C 171.61 760.03 171.46 758.78 171.30 757.54 C 171.75 754.09 172.32 750.65 172.52 747.18 C 166.97 745.86 161.24 746.43 155.62 746.79 C 154.53 751.93 152.91 756.94 151.82 762.08 C 151.40 766.48 150.81 770.88 150.64 775.31 C 150.58 773.46 150.44 771.61 150.36 769.77 C 150.37 762.20 152.56 754.86 152.88 747.31 C 150.56 747.39 148.24 747.07 146.12 746.11 C 137.33 742.59 128.05 740.52 118.67 739.46 C 117.47 735.76 117.25 731.87 117.41 728.02 C 117.67 722.24 115.87 716.65 114.15 711.21 Z" />
<path fill="#161616" d=" M 191.84 722.53 C 192.62 719.04 193.10 714.37 196.93 712.88 C 196.95 715.60 194.68 717.46 193.86 719.92 C 192.19 724.76 192.36 730.00 192.68 735.05 C 193.16 735.97 193.62 736.91 194.05 737.87 C 193.65 737.78 192.84 737.61 192.43 737.52 C 190.78 732.73 191.35 727.47 191.84 722.53 Z" />
<path fill="#212120" d=" M 269.59 714.79 C 269.95 714.51 270.67 713.96 271.03 713.69 C 273.18 719.29 273.06 725.81 271.25 731.50 C 269.89 734.01 268.87 737.73 265.61 738.17 C 266.89 735.64 269.42 733.89 270.23 731.10 C 271.96 725.80 271.41 719.99 269.59 714.79 Z" />
<path fill="#101010" d=" M 261.16 714.00 C 262.57 713.86 263.71 714.44 263.63 716.01 C 263.98 721.10 264.17 726.50 261.93 731.23 C 260.86 733.40 259.39 735.77 256.79 736.19 C 257.95 734.86 259.18 733.60 260.40 732.34 C 263.15 726.62 263.16 719.95 261.16 714.00 Z" />
<path fill="#1b1b1a" d=" M 281.19 717.93 C 280.49 716.70 280.29 715.32 280.78 713.97 C 283.14 715.78 283.60 718.84 284.20 721.56 C 285.32 728.37 284.74 735.51 281.91 741.85 C 280.79 744.03 279.73 746.30 278.07 748.15 C 278.48 744.96 280.71 742.45 281.69 739.46 C 284.16 732.58 284.40 724.61 281.19 717.93 Z" />
<path fill="#161616" d=" M 201.01 716.96 C 201.50 716.66 202.47 716.06 202.96 715.76 C 201.81 721.62 199.96 728.00 202.87 733.65 C 202.34 733.62 201.29 733.58 200.76 733.55 C 200.23 728.05 199.86 722.40 201.01 716.96 Z" />
<path fill="#f5f4f0" d=" M 151.82 762.08 C 152.91 756.94 154.53 751.93 155.62 746.79 C 161.24 746.43 166.97 745.86 172.52 747.18 C 172.32 750.65 171.75 754.09 171.30 757.54 C 169.38 766.11 168.86 774.93 168.23 783.67 C 167.46 792.52 166.88 801.40 165.53 810.19 C 160.38 810.13 155.30 809.20 150.24 808.30 C 149.77 806.40 149.40 804.47 149.11 802.54 C 149.29 796.69 148.94 790.80 149.75 784.98 C 150.19 781.77 150.59 778.54 150.64 775.31 C 150.81 770.88 151.40 766.48 151.82 762.08 Z" />
<path fill="#4a4a49" d=" M 168.23 783.67 C 168.86 774.93 169.38 766.11 171.30 757.54 C 171.46 758.78 171.61 760.03 171.74 761.30 C 171.60 765.23 170.59 769.08 170.43 773.02 C 170.20 778.06 170.60 783.12 170.11 788.16 C 170.30 784.79 170.07 781.42 169.66 778.09 C 169.45 779.79 169.27 781.49 169.12 783.21 C 168.90 783.33 168.45 783.56 168.23 783.67 Z" />
<path fill="#525251" d=" M 149.29 775.94 C 149.49 773.86 149.35 771.66 150.36 769.77 C 150.44 771.61 150.58 773.46 150.64 775.31 C 150.59 778.54 150.19 781.77 149.75 784.98 C 148.94 790.80 149.29 796.69 149.11 802.54 C 148.69 801.51 148.26 800.49 147.84 799.48 C 146.94 791.62 148.69 783.77 149.29 775.94 Z" />
<path fill="#141414" d=" M 169.12 783.21 C 169.27 781.49 169.45 779.79 169.66 778.09 C 170.07 781.42 170.30 784.79 170.11 788.16 C 169.73 795.93 168.47 803.67 168.25 811.44 C 170.25 822.54 169.72 833.84 169.53 845.06 C 168.80 849.68 169.09 854.53 167.15 858.88 C 170.48 858.79 173.82 858.38 177.16 858.71 C 178.78 860.36 176.24 861.36 175.01 861.17 C 171.47 861.16 167.94 861.43 164.40 861.47 C 164.24 856.94 167.51 853.25 168.11 848.85 C 169.11 841.64 168.70 834.31 168.63 827.06 C 168.65 822.05 166.97 817.30 165.95 812.46 C 160.48 812.04 155.13 810.66 149.63 810.48 C 148.30 813.60 147.12 816.78 145.84 819.93 C 144.17 825.13 143.79 830.59 142.84 835.94 C 143.34 843.34 142.57 850.86 144.35 858.13 C 142.14 860.93 137.99 860.30 134.83 860.34 L 134.44 858.76 C 136.82 857.95 139.35 857.85 141.82 857.48 C 141.51 855.65 141.13 853.86 140.94 852.04 C 141.19 838.66 142.63 825.21 146.67 812.40 C 148.21 808.25 147.53 803.79 147.84 799.48 C 148.26 800.49 148.69 801.51 149.11 802.54 C 149.40 804.47 149.77 806.40 150.24 808.30 C 155.30 809.20 160.38 810.13 165.53 810.19 C 166.88 801.40 167.46 792.52 168.23 783.67 C 168.45 783.56 168.90 783.33 169.12 783.21 Z" />
</svg>
