<?xml version="1.0" encoding="UTF-8" standalone="no"?>
<svg
   xmlns:dc="http://purl.org/dc/elements/1.1/"
   xmlns:cc="http://creativecommons.org/ns#"
   xmlns:rdf="http://www.w3.org/1999/02/22-rdf-syntax-ns#"
   xmlns:svg="http://www.w3.org/2000/svg"
   xmlns="http://www.w3.org/2000/svg"
   xmlns:sodipodi="http://sodipodi.sourceforge.net/DTD/sodipodi-0.dtd"
   xmlns:inkscape="http://www.inkscape.org/namespaces/inkscape"
   width="1155pt"
   height="866pt"
   viewBox="0 0 1155 866"
   version="1.1"
   id="svg6572"
   inkscape:version="0.91 r13725"
   sodipodi:docname="Encr_Decr.svg">
  <metadata
     id="metadata7016">
    <rdf:RDF>
      <cc:Work
         rdf:about="">
        <dc:format>image/svg+xml</dc:format>
        <dc:type
           rdf:resource="http://purl.org/dc/dcmitype/StillImage" />
        <dc:title></dc:title>
      </cc:Work>
    </rdf:RDF>
  </metadata>
  <defs
     id="defs7014" />
  <sodipodi:namedview
     pagecolor="#ffffff"
     bordercolor="#666666"
     borderopacity="1"
     objecttolerance="10"
     gridtolerance="10"
     guidetolerance="10"
     inkscape:pageopacity="0"
     inkscape:pageshadow="2"
     inkscape:window-width="1920"
     inkscape:window-height="1017"
     id="namedview7012"
     showgrid="false"
     inkscape:zoom="0.61663631"
     inkscape:cx="834.5061"
     inkscape:cy="480.23213"
     inkscape:window-x="-8"
     inkscape:window-y="-8"
     inkscape:window-maximized="1"
     inkscape:current-layer="svg6572" />
  <path
     fill="#0e0e0e"
     d=" M 1107.98 36.60 C 1109.78 36.83 1111.65 35.43 1113.36 36.31 C 1113.43 36.93 1113.58 38.17 1113.65 38.79 C 1114.60 41.17 1113.40 43.57 1113.32 45.98 C 1113.01 54.98 1112.34 63.98 1112.74 73.00 C 1113.22 83.33 1112.17 93.65 1112.53 103.98 C 1112.52 108.95 1112.96 114.02 1111.86 118.91 C 1111.20 130.29 1109.34 141.60 1109.58 153.02 C 1109.54 183.76 1109.46 214.50 1109.66 245.24 C 1111.21 255.41 1110.36 265.72 1110.62 275.96 C 1110.98 287.26 1110.25 298.60 1111.57 309.85 C 1114.20 323.40 1113.65 337.27 1113.51 351.00 C 1113.72 358.78 1112.28 366.46 1112.27 374.24 L 1111.66 374.92 C 1111.70 381.63 1110.36 388.27 1110.60 394.98 C 1110.70 402.00 1110.56 409.02 1110.59 416.04 C 1110.55 420.07 1111.88 423.98 1111.73 428.03 C 1111.77 443.01 1111.50 458.00 1111.80 472.98 C 1111.46 481.84 1112.95 490.66 1112.31 499.52 C 1112.04 500.83 1111.73 502.13 1111.48 503.44 C 1111.33 497.96 1111.58 492.46 1111.09 487.00 C 1110.03 478.06 1110.88 469.01 1110.69 460.02 C 1110.58 446.32 1111.08 432.57 1109.67 418.93 C 1109.75 407.62 1109.12 396.26 1110.29 384.99 C 1110.68 373.96 1112.73 363.03 1112.51 351.96 C 1112.45 345.31 1112.24 338.66 1112.32 332.01 C 1112.57 322.91 1109.17 314.16 1109.34 305.07 C 1109.51 293.39 1109.52 281.71 1109.60 270.03 C 1109.80 257.34 1108.41 244.70 1108.51 232.01 C 1108.65 206.03 1108.52 180.04 1108.56 154.05 C 1108.61 145.71 1108.16 137.23 1110.21 129.07 C 1110.24 123.04 1111.61 117.10 1111.32 111.06 C 1111.21 103.37 1111.70 95.66 1111.13 87.97 C 1109.95 77.99 1112.09 67.96 1110.93 57.96 C 1110.82 51.77 1109.92 45.28 1112.27 39.38 C 1104.18 39.61 1096.08 39.38 1087.99 39.20 C 1080.32 38.92 1072.63 39.63 1064.97 38.84 C 1056.30 38.13 1047.66 39.70 1038.98 39.26 C 1032.32 39.45 1025.65 38.14 1019.03 39.23 C 1009.76 40.72 1000.36 40.45 991.01 40.72 C 981.66 40.90 972.40 39.16 963.05 39.46 C 948.16 39.89 933.17 38.33 918.38 40.48 L 919.90 39.39 C 921.01 38.42 922.57 38.56 923.96 38.38 C 941.61 37.11 959.33 38.21 977.00 37.20 C 981.38 37.22 985.60 38.82 990.03 38.49 C 996.71 38.16 1003.37 39.92 1010.01 38.74 C 1022.24 37.08 1034.64 36.77 1046.99 36.81 C 1055.97 37.69 1064.99 37.17 1073.99 36.80 C 1085.31 37.37 1096.64 36.42 1107.98 36.60 Z"
     id="path6576" />
  <path
     fill="#5b5b59"
     d=" M 35.32 37.15 C 37.48 37.63 37.96 39.99 38.90 41.67 C 42.57 41.88 46.25 41.97 49.90 42.45 C 49.57 42.71 48.91 43.24 48.57 43.51 C 45.70 44.68 42.32 43.92 39.26 44.10 C 40.01 52.37 40.50 60.65 40.48 68.96 C 40.63 105.67 40.49 142.39 40.56 179.10 C 40.85 192.75 42.36 206.34 42.30 220.00 C 43.85 238.99 43.05 258.06 43.42 277.10 C 43.43 283.74 44.62 290.31 44.67 296.96 C 45.49 321.30 45.68 345.65 46.34 369.99 C 47.71 387.30 48.42 404.68 48.35 422.05 C 48.38 446.69 48.35 471.32 48.36 495.96 C 48.42 503.99 47.31 511.96 47.35 519.99 C 47.42 528.01 46.20 535.97 46.23 543.99 C 46.11 570.00 46.20 596.01 46.16 622.02 C 45.19 645.75 45.75 669.50 45.59 693.25 C 45.26 692.87 44.60 692.12 44.27 691.74 L 43.83 691.24 C 44.39 676.51 44.00 661.78 44.17 647.04 C 44.07 635.37 44.85 623.70 44.64 612.03 C 44.75 587.70 44.40 563.37 44.89 539.06 C 45.96 526.74 45.90 514.38 46.74 502.05 C 46.92 477.06 46.77 452.07 46.82 427.07 C 46.97 410.04 46.58 393.01 45.40 376.03 C 44.01 363.40 44.98 350.67 44.01 338.01 C 43.81 323.01 43.64 307.99 43.00 293.00 C 40.93 272.74 42.29 252.35 41.58 232.03 C 40.93 222.99 40.60 213.93 40.50 204.87 C 38.91 185.95 38.58 166.95 39.07 147.97 C 38.69 131.99 38.95 116.00 39.02 100.02 C 38.38 81.52 39.91 62.93 37.44 44.53 C 35.58 44.25 33.70 43.85 32.63 42.13 C 33.38 41.81 34.89 41.17 35.64 40.85 C 35.50 39.62 35.37 38.39 35.32 37.15 Z"
     id="path6578" />
  <path
     fill="#131313"
     d=" M 186.90 38.62 C 200.31 36.06 214.01 36.54 227.59 36.31 C 224.78 40.01 225.69 44.69 225.05 48.99 C 224.05 58.29 225.00 67.65 225.26 76.96 C 223.94 86.27 225.08 95.65 225.38 104.97 C 224.60 116.27 224.26 127.65 225.07 138.95 C 224.07 152.93 225.23 166.96 224.65 180.95 C 224.35 186.33 225.37 191.66 225.19 197.03 C 224.25 200.67 225.60 204.34 225.41 208.03 C 225.30 214.99 225.77 221.94 225.69 228.89 C 225.34 228.89 224.64 228.87 224.29 228.87 C 224.21 218.94 224.98 208.97 223.76 199.09 C 223.33 188.72 224.23 178.36 224.18 168.00 C 223.13 147.02 224.23 125.99 223.53 105.00 C 223.71 95.36 223.92 85.72 223.61 76.08 C 223.83 63.62 223.95 51.15 223.22 38.70 C 210.44 37.90 197.66 38.97 184.91 39.87 C 179.32 40.73 173.61 40.31 168.05 41.44 C 153.39 41.73 138.71 41.74 124.04 41.87 C 118.79 43.01 113.37 42.21 108.08 43.01 C 105.05 43.45 101.99 43.52 98.94 43.52 C 82.15 43.48 65.36 43.53 48.57 43.51 C 48.91 43.24 49.57 42.71 49.90 42.45 C 65.92 42.58 81.94 42.49 97.97 42.51 C 106.00 42.72 113.96 41.43 121.99 41.29 C 137.83 38.13 153.96 41.08 169.92 39.99 C 175.55 39.10 181.33 39.95 186.90 38.62 Z"
     id="path6580" />
  <path
     fill="#020202"
     d=" M 914.04 40.07 C 915.96 39.68 917.92 39.45 919.90 39.39 L 918.38 40.48 C 911.86 41.99 905.09 42.43 898.50 43.69 C 902.65 53.66 899.67 64.64 900.85 75.07 C 902.52 87.28 902.44 99.68 902.46 112.00 C 902.42 123.01 903.24 134.05 902.19 145.04 C 899.44 163.22 901.78 181.74 899.54 199.96 C 899.43 208.50 899.69 217.04 899.45 225.57 C 898.77 225.65 897.42 225.82 896.75 225.90 C 896.83 215.24 896.28 204.54 897.44 193.93 C 898.53 182.28 897.02 170.53 898.41 158.91 C 898.60 155.30 898.28 151.63 899.10 148.07 C 900.98 138.14 900.00 128.01 900.48 117.97 C 900.50 103.97 900.88 89.95 899.99 75.97 C 899.10 66.32 900.87 56.32 897.90 46.93 C 897.54 45.16 895.73 43.50 896.52 41.66 C 902.25 40.21 908.24 41.06 914.04 40.07 Z"
     id="path6582" />
  <path
     fill="#090909"
     d=" M 1079.41 63.46 C 1082.19 62.53 1085.26 61.75 1088.17 62.63 C 1090.75 64.17 1089.13 67.41 1088.45 69.60 C 1086.77 73.66 1086.11 78.01 1085.57 82.33 C 1085.49 81.50 1085.41 80.67 1085.34 79.84 C 1085.02 74.90 1086.96 70.18 1086.87 65.24 C 1081.52 65.05 1076.32 66.77 1070.96 66.27 C 1063.63 67.13 1056.28 65.71 1048.97 66.70 C 1032.16 69.61 1015.03 68.66 998.06 68.89 C 981.70 68.87 965.35 68.85 948.99 68.93 C 943.33 68.93 937.64 68.38 932.00 69.09 C 929.21 69.47 926.43 68.92 923.77 68.13 C 925.79 67.35 927.97 67.42 930.10 67.58 C 949.70 68.70 969.34 68.06 988.97 68.25 C 1008.00 68.15 1027.13 68.78 1046.04 66.33 C 1050.98 65.63 1056.15 64.68 1061.08 65.90 C 1064.49 66.98 1068.12 66.26 1071.61 65.97 C 1069.13 65.79 1066.68 65.52 1064.25 65.18 C 1069.25 64.23 1074.54 65.21 1079.41 63.46 Z"
     id="path6584" />
  <path
     fill="#020201"
     d=" M 917.45 65.33 C 918.06 65.27 919.27 65.15 919.87 65.09 C 917.67 78.94 919.03 93.00 918.71 106.96 C 918.98 114.29 918.17 121.64 918.88 128.95 C 917.16 126.62 917.72 123.71 917.78 121.01 C 918.37 113.01 918.01 104.99 918.12 96.98 C 917.38 86.44 918.00 75.87 917.45 65.33 Z"
     id="path6586" />
  <path
     fill="#5b5b59"
     d=" M 99.98 76.48 C 109.99 75.25 119.90 73.13 130.00 72.70 C 143.65 72.33 157.31 72.54 170.96 72.30 C 174.46 72.34 177.95 72.74 181.38 73.47 C 179.18 73.56 177.00 73.80 174.82 73.98 C 152.22 73.94 129.45 72.90 107.02 76.37 C 98.10 78.06 89.02 77.30 80.01 77.79 C 76.15 78.44 72.17 78.65 68.28 78.13 C 66.94 77.71 65.62 77.24 64.29 76.80 C 76.18 76.50 88.09 76.98 99.98 76.48 Z"
     id="path6588" />
  <path
     fill="#0c0c0c"
     d=" M 181.38 73.47 C 186.18 73.85 191.05 74.25 195.67 75.68 C 195.58 76.65 195.45 77.62 195.30 78.58 C 188.62 76.49 181.89 74.26 174.82 73.98 C 177.00 73.80 179.18 73.56 181.38 73.47 Z"
     id="path6590" />
  <path
     fill="#272726"
     d=" M 57.63 78.10 C 59.40 76.28 61.98 76.22 64.29 76.80 C 65.62 77.24 66.94 77.71 68.28 78.13 C 64.74 78.42 61.12 79.09 57.63 78.10 Z"
     id="path6592" />
  <path
     fill="#5f5e5d"
     d=" M 1084.97 78.46 L 1085.34 79.84 C 1085.41 80.67 1085.49 81.50 1085.57 82.33 C 1084.80 98.54 1084.13 114.77 1084.21 131.00 C 1083.99 132.53 1084.54 134.41 1083.55 135.70 L 1082.76 136.64 C 1082.63 127.76 1082.70 118.87 1082.95 109.99 C 1083.70 99.48 1082.80 88.83 1084.97 78.46 Z"
     id="path6594" />
  <path
     fill="#141413"
     d=" M 196.70 82.23 C 197.13 82.21 197.99 82.17 198.42 82.15 C 197.94 95.70 199.02 109.33 196.92 122.77 C 195.56 132.00 196.71 141.32 196.56 150.58 C 195.56 150.52 194.56 150.46 193.56 150.40 C 194.26 144.60 194.51 138.78 194.78 132.95 C 195.54 125.97 196.58 119.03 197.26 112.04 C 197.53 102.09 197.19 92.15 196.70 82.23 Z"
     id="path6596" />
  <path
     fill="#181818"
     d=" M 60.33 90.96 C 60.00 88.60 61.13 86.47 63.62 86.13 C 62.64 90.03 61.16 93.88 61.35 97.98 C 61.28 119.83 60.09 141.71 61.80 163.52 C 70.37 165.70 79.23 163.38 87.92 163.63 C 97.62 163.24 107.34 163.47 117.04 163.15 C 128.13 162.38 139.27 163.10 150.35 162.21 C 156.59 161.31 162.87 160.55 169.05 159.25 C 175.30 157.89 181.75 158.72 188.06 157.88 C 192.34 157.75 196.59 157.23 200.84 156.70 C 201.40 157.02 202.52 157.64 203.08 157.95 C 201.94 158.88 200.72 159.91 199.13 159.60 C 190.08 159.01 180.98 159.03 171.93 159.73 C 164.33 161.16 156.67 162.28 149.00 163.30 C 138.33 164.00 127.63 163.41 116.95 163.82 C 99.92 164.79 82.79 163.92 65.84 166.09 C 63.68 166.19 60.65 167.01 59.26 164.79 C 58.98 161.46 59.66 158.14 59.82 154.81 L 60.26 154.16 C 60.07 133.10 60.29 112.03 60.33 90.96 Z"
     id="path6598" />
  <path
     fill="#13b824"
     d=" M 283.82 96.02 C 285.70 93.40 286.89 89.66 290.06 88.39 L 290.96 88.77 C 295.03 94.91 297.76 101.80 300.66 108.55 C 304.43 117.81 310.37 126.34 311.76 136.43 C 305.70 138.22 299.30 137.00 293.11 137.86 C 285.75 138.94 278.27 138.03 270.93 139.28 C 267.69 139.67 263.85 140.51 261.47 137.61 C 261.07 136.22 262.25 135.03 262.79 133.84 C 265.88 128.80 268.42 123.46 271.49 118.41 C 275.96 111.14 279.02 103.10 283.82 96.02 Z"
     id="path6602" />
  <path
     fill="#08b61a"
     d=" M 850.06 89.44 C 851.04 89.33 852.04 89.22 853.05 89.11 C 856.88 98.53 860.32 108.11 864.30 117.47 C 866.96 123.54 871.73 128.39 874.35 134.47 C 874.73 136.11 875.31 139.33 872.96 139.64 C 868.72 140.72 864.29 140.81 859.95 141.24 C 853.88 141.14 848.05 143.14 842.00 143.25 C 837.28 143.61 832.61 142.51 827.90 142.77 C 825.29 142.88 822.43 144.12 820.13 142.31 C 824.13 136.86 826.03 130.29 829.54 124.55 C 832.63 119.23 834.47 113.25 837.91 108.12 C 841.36 102.97 844.45 97.58 846.81 91.85 C 847.90 91.06 848.99 90.27 850.06 89.44 Z"
     id="path6604" />
  <path
     fill="#13b824"
     d=" M 843.53 114.48 C 846.35 109.76 847.44 104.28 850.02 99.44 C 852.61 105.25 854.43 111.37 856.81 117.27 C 858.38 121.25 860.96 124.81 862.05 128.98 C 861.68 130.05 860.95 130.64 859.84 130.75 C 856.96 131.44 854.02 131.73 851.10 132.12 C 850.30 131.24 849.52 130.37 848.75 129.49 C 847.71 129.64 846.68 129.78 845.67 129.93 C 845.59 128.80 845.57 127.66 845.40 126.54 C 844.16 125.15 842.50 124.23 841.00 123.18 C 839.97 123.71 838.94 124.23 837.92 124.76 C 839.72 121.30 841.58 117.87 843.53 114.48 Z"
     id="path6616" />
  <path
     fill="#050505"
     d=" M 917.12 128.09 C 917.56 128.90 917.98 129.73 918.38 130.57 C 917.21 138.34 916.12 146.13 916.12 154.00 C 916.15 157.09 916.24 160.18 916.46 163.26 C 919.79 163.93 923.17 164.36 926.57 164.59 C 928.15 164.88 929.73 165.25 931.33 165.57 C 927.19 165.51 923.07 165.56 918.94 165.72 C 917.08 165.65 914.67 166.11 913.64 164.11 C 913.46 152.01 917.53 140.15 917.12 128.09 Z"
     id="path6670" />
  <path
     fill="#000000"
     d=" M 1080.56 159.65 C 1080.79 151.93 1082.68 144.37 1082.76 136.64 L 1083.55 135.70 C 1085.35 143.13 1082.97 150.68 1083.63 158.20 C 1085.79 158.33 1087.78 160.92 1085.32 162.34 C 1079.49 162.47 1073.82 164.22 1067.97 163.82 C 1064.21 163.75 1060.46 163.74 1056.71 163.70 L 1057.95 162.74 C 1065.52 162.02 1073.32 162.28 1080.56 159.65 Z"
     id="path6672" />
  <path
     fill="#5b5b59"
     d=" M 926.57 164.59 C 959.02 163.01 991.53 164.17 1024.01 163.59 C 1035.30 162.82 1046.63 162.49 1057.95 162.74 L 1056.71 163.70 C 1054.33 164.64 1051.53 164.02 1048.99 164.21 C 1036.99 163.97 1025.04 165.47 1013.04 165.22 C 990.99 165.26 968.95 165.11 946.90 165.34 C 941.71 165.31 936.50 166.13 931.33 165.57 C 929.73 165.25 928.15 164.88 926.57 164.59 Z"
     id="path6674" />
  <path
     fill="#000000"
     d=" M 129.70 167.59 C 130.66 167.51 131.61 167.43 132.57 167.36 C 133.05 173.77 132.70 180.21 132.78 186.63 C 135.01 187.02 137.27 187.32 139.53 187.51 C 141.57 193.61 136.60 199.20 133.18 203.78 C 127.91 200.40 125.07 194.80 121.47 189.93 C 121.31 188.57 121.15 187.21 121.20 185.84 C 124.03 185.19 126.92 185.80 129.71 186.34 C 129.89 180.09 129.88 173.84 129.70 167.59 Z"
     id="path6676" />
  <path
     fill="#000000"
     d=" M 1012.56 171.19 C 1013.43 171.38 1014.31 171.58 1015.21 171.78 C 1018.07 177.49 1017.92 184.03 1018.57 190.24 C 1017.78 190.39 1016.22 190.68 1015.44 190.82 C 1015.10 197.66 1016.05 204.70 1014.18 211.37 C 1012.63 212.44 1011.05 211.04 1009.57 210.58 C 1009.54 206.69 1009.91 202.74 1009.12 198.90 C 1009.29 196.66 1009.48 194.41 1009.68 192.17 C 1007.94 192.25 1006.24 192.35 1004.53 192.42 C 1004.51 191.68 1004.50 190.94 1004.52 190.20 C 1006.94 187.47 1007.52 183.79 1008.75 180.47 C 1009.90 177.33 1011.28 174.28 1012.56 171.19 Z"
     id="path6678" />
  <path
     fill="#dd4e0c"
     d=" M 287.13 217.02 C 286.52 211.20 292.34 206.11 298.03 207.25 C 302.70 207.57 305.45 211.98 306.63 216.07 C 312.02 216.23 317.73 217.50 321.85 221.19 C 327.97 226.24 332.51 233.09 335.26 240.50 C 337.00 247.49 337.20 254.85 336.43 261.98 C 334.80 268.22 331.85 274.06 328.57 279.57 C 324.53 286.31 316.80 289.19 309.85 291.90 C 299.45 296.02 288.10 297.38 277.02 296.07 C 265.98 293.08 255.00 287.29 248.52 277.55 C 245.52 270.73 242.33 263.61 242.64 255.99 C 242.26 249.10 246.04 243.06 249.28 237.30 C 253.42 230.11 259.67 224.31 266.66 219.93 C 266.28 218.11 265.84 216.30 265.41 214.49 C 268.40 213.08 271.75 213.21 274.97 213.24 C 277.21 214.66 279.82 215.73 281.41 217.94 C 281.60 219.89 279.82 221.25 278.52 222.41 C 275.09 224.93 271.76 227.80 267.64 229.09 C 267.23 227.13 266.86 225.16 266.52 223.19 C 260.92 227.68 255.26 232.41 251.74 238.78 C 249.42 243.01 246.78 247.23 245.74 252.00 C 245.27 256.93 245.42 262.07 247.27 266.74 C 249.07 271.11 250.05 276.07 253.58 279.48 C 259.08 285.88 266.84 289.67 274.62 292.57 C 278.91 294.15 283.55 293.52 288.02 293.59 C 296.86 293.83 305.31 290.68 313.38 287.42 C 318.03 285.38 322.96 283.08 325.75 278.62 C 328.86 273.78 331.41 268.53 333.12 263.04 C 334.41 257.78 333.80 252.28 333.46 246.95 C 332.97 239.17 328.46 232.31 323.43 226.65 C 319.17 221.64 312.75 218.71 306.15 219.12 C 304.80 221.82 303.04 224.63 300.01 225.62 C 294.30 228.24 286.89 223.31 287.13 217.02 Z"
     id="path6680" />
  <path
     fill="#13b824"
     d=" M 817.04 215.07 C 820.46 207.25 831.52 204.65 838.19 209.87 C 844.51 214.25 845.87 224.05 840.99 229.98 C 837.02 235.27 829.06 237.28 823.27 233.84 C 821.51 232.93 820.10 231.30 818.20 230.76 C 812.76 232.58 807.90 235.88 803.51 239.50 C 800.37 242.70 796.34 245.21 794.25 249.31 C 788.55 260.26 788.68 273.13 790.98 284.98 C 792.12 290.93 793.65 297.36 798.64 301.33 C 805.37 308.55 814.35 313.56 824.05 315.39 C 831.65 316.05 839.32 315.58 846.87 314.47 C 852.36 313.59 857.97 313.11 863.27 311.31 C 869.84 309.20 875.77 305.42 880.90 300.85 C 888.63 294.70 894.82 285.94 896.45 276.08 C 896.60 266.16 897.67 255.37 892.56 246.39 C 890.85 243.35 888.57 240.67 886.77 237.69 C 887.22 237.28 888.14 236.48 888.59 236.08 L 888.88 235.83 C 892.48 241.05 896.61 246.18 898.18 252.47 C 899.72 260.18 899.73 268.11 899.37 275.94 C 897.81 286.93 890.94 296.65 882.32 303.38 C 874.71 310.16 865.11 314.81 854.97 316.10 C 844.71 317.55 834.34 319.24 823.96 318.17 C 818.51 317.18 813.25 315.20 808.39 312.55 C 803.04 309.88 798.92 305.42 794.69 301.31 C 791.02 297.77 789.82 292.63 788.66 287.85 C 786.72 279.70 786.44 271.25 786.94 262.92 C 787.75 257.91 789.41 253.05 791.44 248.42 C 793.38 243.94 797.62 241.25 800.97 237.93 C 805.65 233.73 811.15 230.48 816.91 228.00 C 815.57 223.81 814.80 219.12 817.04 215.07 Z"
     id="path6682" />
  <path
     fill="#070707"
     d=" M 78.02 209.65 C 85.11 209.87 92.19 209.49 99.26 209.27 C 104.78 208.34 110.41 208.87 115.97 208.67 C 126.33 208.80 136.80 207.90 147.03 210.00 C 167.33 212.77 187.84 210.82 208.21 210.23 C 208.48 210.74 209.02 211.77 209.29 212.28 C 202.67 214.44 195.72 212.40 188.94 212.72 C 178.30 212.07 167.61 212.91 157.02 211.65 C 149.57 212.08 142.42 209.27 134.98 209.54 C 123.88 209.54 112.77 209.45 101.67 209.73 C 92.04 210.97 82.20 209.92 72.72 212.39 C 72.61 211.89 72.39 210.89 72.27 210.39 C 74.15 209.90 76.07 209.55 78.02 209.65 Z"
     id="path6684" />
  <path
     fill="#20201f"
     d=" M 917.62 212.77 C 917.95 212.34 918.61 211.48 918.94 211.06 C 919.55 212.58 920.13 214.13 920.65 215.70 C 922.70 215.23 924.80 214.74 926.94 214.79 C 965.62 214.46 1004.30 214.71 1042.98 214.60 C 1048.70 214.45 1054.43 214.49 1060.15 214.14 L 1059.39 215.28 C 1059.83 215.34 1060.72 215.48 1061.17 215.55 C 1051.78 215.05 1042.38 215.93 1032.98 215.64 C 1000.64 215.67 968.30 215.57 935.97 215.71 C 930.66 215.67 925.50 216.98 920.30 217.79 C 919.93 220.96 919.61 224.15 919.49 227.34 C 919.52 222.41 918.57 217.57 917.62 212.77 Z"
     id="path6686" />
  <path
     fill="#10100f"
     d=" M 1058.91 213.41 C 1066.54 214.14 1074.15 213.19 1081.75 212.51 C 1082.51 213.53 1083.79 214.46 1083.54 215.92 C 1083.07 225.93 1083.41 235.95 1083.22 245.96 C 1082.31 259.36 1083.81 272.99 1080.80 286.20 C 1080.57 291.15 1079.28 296.01 1079.59 300.98 C 1079.71 304.54 1080.38 308.05 1080.34 311.62 C 1075.07 311.13 1069.71 311.54 1064.51 310.60 C 1063.48 310.22 1062.47 309.84 1061.46 309.45 C 1066.80 308.76 1072.18 308.60 1077.56 308.54 C 1078.48 301.68 1078.97 294.78 1079.72 287.91 C 1082.88 271.48 1082.22 254.66 1082.37 238.02 C 1082.18 230.52 1082.98 222.86 1080.90 215.55 C 1075.29 215.30 1069.71 214.48 1064.10 214.69 L 1064.18 213.84 C 1062.41 213.72 1060.65 213.60 1058.91 213.41 Z"
     id="path6688" />
  <path
     fill="#101010"
     d=" M 205.60 214.71 C 209.28 213.14 208.96 217.65 208.97 219.99 C 207.54 235.29 208.94 250.69 207.76 266.00 C 207.33 274.97 208.60 284.23 205.59 292.89 C 204.72 295.23 203.87 298.37 201.11 299.05 C 190.94 300.84 180.44 298.52 170.44 301.62 C 140.75 304.82 110.80 303.13 80.99 303.72 C 76.85 304.00 72.69 304.62 68.53 304.18 C 67.04 304.00 65.41 302.81 65.69 301.13 C 66.53 273.81 67.02 246.43 66.39 219.12 C 66.53 218.51 66.81 217.30 66.95 216.69 C 69.44 220.01 67.58 224.20 67.71 227.95 C 67.64 241.30 67.29 254.67 68.14 268.00 C 68.24 279.16 68.08 290.35 68.75 301.51 C 82.07 303.59 95.60 302.02 108.98 303.08 C 124.00 302.45 139.07 302.69 154.10 302.15 C 160.70 300.89 167.40 300.43 173.97 299.05 C 182.84 297.48 192.00 298.26 200.73 295.90 C 204.16 292.54 205.44 287.59 206.38 283.03 C 207.40 265.03 207.66 246.98 207.13 228.96 C 206.43 224.23 206.32 219.43 205.60 214.71 Z"
     id="path6690" />
  <path
     fill="#0eb71f"
     d=" M 858.28 219.83 C 862.69 215.93 868.78 217.83 873.99 218.40 C 878.63 219.14 883.45 219.02 887.93 220.61 C 886.75 223.77 884.43 226.36 883.31 229.52 C 884.94 231.77 887.95 233.29 888.59 236.08 C 888.14 236.48 887.22 237.28 886.77 237.69 C 885.14 235.67 883.66 233.38 881.35 232.10 C 879.94 233.95 878.97 236.08 878.00 238.17 C 876.38 237.80 874.50 237.91 873.36 236.53 C 867.96 231.38 860.49 227.48 858.28 219.83 Z"
     id="path6692" />
  <path
     fill="#000000"
     d=" M 919.49 227.34 C 919.61 224.15 919.93 220.96 920.30 217.79 C 920.40 245.60 920.54 273.42 920.28 301.22 C 920.04 300.04 919.81 298.85 919.59 297.67 C 919.39 274.24 919.57 250.78 919.49 227.34 Z"
     id="path6694" />
  <path
     fill="#393938"
     d=" M 224.29 228.87 C 224.64 228.87 225.34 228.89 225.69 228.89 C 225.64 252.30 225.24 275.73 226.35 299.12 C 226.74 300.59 225.61 301.73 225.02 302.93 C 224.66 293.62 223.91 284.31 224.36 274.99 C 224.30 259.62 224.49 244.24 224.29 228.87 Z"
     id="path6696" />
  <path
     fill="#dd4e0c"
     d=" M 86.77 244.76 C 89.72 238.79 95.97 233.68 102.96 234.34 C 107.64 234.39 113.76 234.27 116.53 238.83 C 116.69 242.02 113.07 240.12 112.13 238.64 C 105.92 236.62 97.87 235.81 92.97 241.05 C 88.31 244.61 87.98 250.87 88.51 256.23 C 95.64 256.88 102.80 256.48 109.94 256.64 C 118.73 256.80 123.35 270.08 116.63 275.69 C 112.07 280.38 105.82 284.38 98.99 283.44 C 95.29 282.56 92.33 279.76 90.14 276.76 C 88.71 275.27 89.83 274.08 91.54 274.38 C 94.16 276.62 96.07 280.42 99.89 280.71 C 106.69 281.38 112.42 276.49 116.39 271.54 C 117.82 267.18 116.12 261.52 111.63 259.68 C 103.32 258.75 94.78 260.58 86.60 258.36 C 84.89 254.02 85.31 249.10 86.77 244.76 Z"
     id="path6698" />
  <path
     fill="#dd4e0c"
     d=" M 137.23 237.20 C 140.86 234.47 145.84 235.05 149.91 236.35 C 152.71 237.16 153.91 240.01 154.76 242.52 C 152.27 243.50 151.01 241.70 150.05 239.71 C 147.11 238.50 143.74 237.64 140.62 238.64 C 134.83 241.51 130.17 247.39 130.33 254.09 C 136.35 257.14 143.65 256.73 149.20 260.85 C 154.28 263.51 155.77 270.79 152.32 275.32 C 148.48 281.47 140.73 283.21 133.95 283.27 C 130.97 283.22 128.29 281.47 126.99 278.80 C 127.64 278.66 128.93 278.40 129.58 278.27 C 133.20 281.70 138.54 280.30 142.82 279.08 C 148.22 277.47 153.57 271.38 150.36 265.64 C 146.82 261.36 141.05 259.98 135.82 259.08 C 132.49 258.59 129.44 256.97 127.31 254.34 C 127.58 247.37 131.43 240.98 137.23 237.20 Z"
     id="path6700" />
  <path
     fill="#dd4b07"
     d=" M 266.57 235.51 C 273.06 236.29 279.56 235.53 286.00 234.71 C 294.45 234.40 302.91 234.90 311.36 234.57 C 312.59 246.58 310.85 258.66 311.51 270.71 C 309.39 271.35 307.19 271.68 304.98 271.53 C 297.64 271.23 290.29 271.38 282.97 270.87 C 277.89 270.46 272.84 271.67 267.77 271.26 C 266.06 270.02 267.02 267.70 266.86 265.95 C 267.81 255.80 266.24 245.66 266.57 235.51 Z"
     id="path6702" />
  <path
     fill="#13b824"
     d=" M 850.91 235.01 C 852.45 235.26 854.18 235.62 854.58 237.41 C 860.30 250.76 863.61 264.98 868.24 278.72 C 868.74 280.66 869.14 282.81 868.61 284.78 C 867.29 286.40 864.93 286.24 863.05 286.32 C 850.53 286.19 838.00 286.29 825.49 286.48 C 824.94 283.83 825.43 281.19 827.24 279.13 C 833.33 270.87 836.35 260.96 841.01 251.93 C 843.65 247.35 846.31 242.76 848.16 237.79 C 848.71 237.74 849.81 237.63 850.36 237.58 C 850.50 236.94 850.77 235.65 850.91 235.01 Z"
     id="path6704" />
  <path
     fill="#14b825"
     d=" M 945.35 243.37 C 947.96 240.60 951.49 238.78 955.14 237.77 C 958.92 237.25 963.59 236.58 966.15 240.15 C 962.71 242.20 958.68 239.39 955.02 240.87 C 950.83 242.25 945.82 244.96 945.37 249.87 C 945.26 252.22 944.22 255.83 947.04 257.01 C 953.14 258.89 959.96 256.32 965.91 258.97 C 970.38 261.48 974.59 265.59 975.21 270.93 C 976.04 274.53 973.94 277.98 971.40 280.35 C 966.64 284.46 959.93 285.17 953.91 284.49 C 951.06 284.18 949.07 281.89 947.07 280.09 C 947.20 279.49 947.46 278.30 947.60 277.70 C 947.94 277.72 948.62 277.76 948.96 277.79 C 950.63 279.46 952.33 281.66 954.94 281.68 C 961.15 282.27 968.85 281.07 971.95 274.90 C 973.60 270.06 970.27 265.26 966.36 262.67 C 962.23 259.44 956.75 260.96 951.96 260.61 C 948.49 260.75 944.37 259.92 942.59 256.61 C 941.79 252.15 942.00 246.82 945.35 243.37 Z"
     id="path6706" />
  <path
     fill="#dd500f"
     d=" M 162.20 239.54 C 162.84 239.50 164.13 239.40 164.77 239.36 C 166.09 252.16 166.64 265.04 166.44 277.92 C 171.58 277.50 176.76 277.55 181.89 276.84 C 186.51 276.35 191.10 275.36 195.78 275.56 C 194.97 276.53 194.83 278.64 193.09 278.33 C 186.38 279.02 179.72 280.20 172.97 280.49 C 169.80 280.44 166.51 282.18 163.53 280.51 C 163.75 272.68 163.81 264.84 163.34 257.02 C 162.66 251.22 162.14 245.39 162.20 239.54 Z"
     id="path6708" />
  <path
     fill="#13b824"
     d=" M 995.20 241.26 C 999.60 239.78 1004.47 240.55 1009.01 241.07 C 1011.33 241.73 1015.17 242.09 1014.63 245.38 C 1011.60 245.93 1008.94 243.70 1005.94 243.66 C 1001.75 243.48 996.09 242.14 993.56 246.54 C 991.59 250.09 990.26 255.56 993.05 258.91 C 998.75 262.36 1006.23 261.27 1011.84 265.09 C 1014.81 267.40 1015.89 271.42 1015.71 275.05 C 1015.98 280.02 1011.12 283.26 1007.18 285.18 C 1000.28 287.30 991.18 287.46 986.42 281.07 C 986.48 280.55 986.60 279.50 986.67 278.98 C 989.66 279.28 991.34 282.21 994.07 283.20 C 1000.56 284.36 1008.64 283.42 1012.38 277.29 C 1013.09 274.23 1012.77 270.75 1010.98 268.11 C 1005.52 264.01 998.04 264.95 992.11 261.91 C 988.30 259.71 988.40 254.76 989.00 250.97 C 989.42 247.01 991.59 243.12 995.20 241.26 Z"
     id="path6710" />
  <path
     fill="#13b824"
     d=" M 1034.39 261.73 C 1034.94 255.25 1034.13 248.65 1035.67 242.27 C 1036.31 242.45 1037.59 242.81 1038.22 242.99 C 1037.69 256.75 1036.17 270.47 1036.64 284.27 C 1043.79 284.34 1050.95 284.46 1058.11 284.36 C 1061.52 284.38 1065.11 282.91 1068.27 284.92 C 1067.69 285.30 1066.54 286.06 1065.97 286.45 C 1058.03 287.77 1049.97 287.09 1041.97 287.31 C 1039.41 287.20 1036.70 287.64 1034.30 286.57 C 1032.87 283.70 1033.87 280.29 1033.83 277.20 C 1034.34 272.06 1034.33 266.89 1034.39 261.73 Z"
     id="path6712" />
  <path
     fill="#87d78d"
     d=" M 1033.83 277.20 C 1033.66 272.05 1033.37 266.82 1034.39 261.73 C 1034.33 266.89 1034.34 272.06 1033.83 277.20 Z"
     id="path6714" />
  <path
     fill="#090909"
     d=" M 919.59 297.67 C 919.81 298.85 920.04 300.04 920.28 301.22 C 920.34 302.42 920.38 303.62 920.39 304.82 C 926.52 306.14 932.74 307.40 939.04 307.45 C 948.22 307.57 957.35 308.61 966.54 308.50 C 965.88 308.68 964.55 309.03 963.89 309.21 C 958.59 309.77 953.33 308.54 948.05 308.60 C 942.67 308.47 937.28 308.52 931.95 307.77 C 927.07 307.13 922.05 307.76 917.29 306.36 C 917.68 303.37 918.69 300.52 919.59 297.67 Z"
     id="path6716" />
  <path
     fill="#232322"
     d=" M 225.76 302.81 C 227.70 305.05 227.20 308.18 227.54 310.91 C 228.11 319.10 227.16 327.35 228.22 335.51 C 228.11 336.37 227.99 337.45 227.07 337.84 C 227.22 332.23 226.26 326.64 226.48 321.02 C 226.83 314.92 225.12 308.90 225.76 302.81 Z"
     id="path6718" />
  <path
     fill="#000000"
     d=" M 141.65 308.74 C 142.88 307.56 143.96 305.59 145.94 306.68 C 145.71 312.35 145.15 318.00 144.51 323.64 C 146.97 324.28 149.47 324.78 151.87 325.64 C 151.27 327.58 150.40 329.43 149.11 331.01 C 146.05 334.98 143.86 339.71 139.85 342.86 C 138.26 339.36 137.89 335.40 135.80 332.11 C 134.18 329.52 133.10 326.67 132.47 323.69 C 135.01 322.73 137.72 322.59 140.41 322.73 C 140.01 318.00 140.85 313.36 141.65 308.74 Z"
     id="path6720" />
  <path
     fill="#5b5b59"
     d=" M 966.54 308.50 C 976.32 308.09 986.17 308.73 995.97 308.57 C 1017.80 308.66 1039.69 308.32 1061.46 309.45 C 1062.47 309.84 1063.48 310.22 1064.51 310.60 C 1050.99 311.04 1037.48 309.82 1023.96 310.17 C 1003.94 309.92 983.86 310.81 963.89 309.21 C 964.55 309.03 965.88 308.68 966.54 308.50 Z"
     id="path6722" />
  <path
     fill="#020202"
     d=" M 898.45 313.43 C 898.91 313.50 899.83 313.63 900.29 313.70 C 901.32 324.07 899.77 334.52 901.07 344.89 C 901.26 353.27 901.38 361.67 900.71 370.03 C 900.59 381.68 901.44 393.31 901.32 404.97 C 901.06 416.95 901.66 429.01 899.82 440.89 C 899.29 453.60 900.01 466.31 899.70 479.02 C 898.90 499.02 899.35 519.04 899.24 539.05 C 899.50 549.03 898.51 558.97 898.68 568.95 C 898.88 575.95 898.58 582.95 898.71 589.95 C 899.72 597.93 899.62 605.99 900.20 614.01 C 900.24 641.34 900.84 668.66 900.64 695.99 C 900.54 701.18 901.34 706.55 899.37 711.52 C 898.79 711.55 897.63 711.62 897.05 711.65 C 898.83 692.16 897.00 672.52 898.16 652.99 C 898.33 638.99 898.42 624.98 898.27 610.98 C 896.75 595.05 897.72 579.03 897.38 563.05 C 897.03 539.39 897.33 515.72 897.18 492.05 C 897.03 484.34 898.74 476.74 898.57 469.04 C 898.42 462.04 898.77 455.04 898.68 448.05 C 898.70 444.70 898.44 441.32 899.14 438.03 C 899.86 420.70 899.33 403.36 899.65 386.02 C 899.74 370.01 899.72 354.00 899.27 338.00 C 899.19 334.34 899.56 330.66 898.89 327.04 C 898.65 322.51 898.48 317.97 898.45 313.43 Z"
     id="path6724" />
  <path
     fill="#000000"
     d=" M 1008.82 320.87 C 1010.11 318.45 1010.84 315.67 1012.72 313.61 C 1014.60 313.23 1016.68 313.85 1017.11 315.95 C 1018.77 320.90 1020.83 325.86 1021.54 331.03 C 1020.03 332.80 1017.61 332.55 1015.56 332.91 C 1015.52 339.06 1015.16 345.19 1014.66 351.32 C 1014.08 351.36 1012.93 351.46 1012.35 351.50 C 1011.48 345.52 1011.82 339.44 1011.90 333.42 C 1009.75 333.03 1007.63 332.61 1005.52 332.18 C 1004.85 328.07 1007.31 324.49 1008.82 320.87 Z"
     id="path6726" />
  <path
     fill="#5a5a58"
     d=" M 227.33 338.43 C 227.83 338.64 228.84 339.05 229.34 339.26 C 228.93 345.54 230.14 351.76 230.69 358.00 C 231.72 367.96 230.96 377.99 231.37 387.98 C 231.65 394.98 232.44 401.97 232.29 409.00 C 232.03 417.01 233.85 424.92 233.48 432.94 C 233.78 447.96 232.67 463.06 234.76 477.99 C 235.89 486.61 235.70 495.32 235.76 503.99 C 235.85 521.63 235.66 539.28 235.86 556.92 C 237.46 579.60 236.66 602.35 236.87 625.06 C 236.79 635.69 236.72 646.36 237.99 656.93 C 239.63 671.56 239.13 686.29 239.18 700.97 C 239.08 706.26 239.48 711.57 238.86 716.84 C 238.61 716.23 238.11 715.00 237.86 714.39 C 237.29 700.73 237.80 686.99 237.54 673.30 C 237.55 662.83 235.62 652.48 235.53 642.02 C 235.30 618.01 235.76 593.98 235.16 569.97 C 233.85 552.68 234.52 535.34 234.36 518.02 C 234.22 503.06 234.91 488.02 232.71 473.16 C 231.26 453.64 232.93 433.97 230.93 414.47 C 230.77 407.63 230.92 400.78 230.29 393.97 C 229.28 382.25 230.15 370.48 229.32 358.76 C 228.48 352.00 227.86 345.22 227.33 338.43 Z"
     id="path6728" />
  <path
     fill="#595958"
     d=" M 79.71 344.19 C 83.81 344.50 87.81 345.69 91.94 345.70 C 107.62 346.09 123.31 345.70 138.98 346.05 C 150.75 346.09 162.25 349.29 174.03 349.19 C 183.01 349.58 191.97 348.60 200.96 348.82 C 204.60 349.02 208.39 347.83 211.93 348.94 C 213.62 352.71 212.55 357.04 212.64 361.04 C 211.60 374.16 210.98 387.31 209.61 400.40 C 209.47 397.93 209.16 395.47 209.02 393.00 C 209.45 383.35 210.32 373.72 210.83 364.08 C 211.01 359.91 211.05 355.67 209.85 351.64 C 196.88 351.11 183.90 350.95 170.92 350.65 C 160.24 350.25 149.77 347.59 139.07 347.37 C 121.73 347.25 104.37 347.49 87.03 347.09 C 84.42 346.86 80.84 347.21 79.71 344.19 Z"
     id="path6730" />
  <path
     fill="#1c1c1c"
     d=" M 73.64 347.47 C 74.06 347.51 74.90 347.58 75.32 347.62 C 75.64 363.08 75.50 378.56 75.44 394.02 C 74.82 401.34 74.21 408.67 73.72 416.00 C 73.83 420.93 73.71 425.87 73.16 430.77 C 77.70 431.60 82.33 431.85 86.95 431.89 C 83.85 432.07 80.81 432.66 77.78 433.26 C 75.50 433.66 73.18 433.46 70.90 433.33 C 70.62 432.77 70.08 431.65 69.80 431.09 C 72.63 421.65 73.05 411.71 73.75 401.95 C 74.55 397.35 74.45 392.67 74.52 388.03 C 74.49 374.50 74.70 360.96 73.64 347.47 Z"
     id="path6732" />
  <path
     fill="#dd4d0b"
     d=" M 806.42 349.91 C 807.34 349.31 808.28 348.71 809.22 348.10 C 811.79 348.76 814.31 349.77 817.01 349.70 C 832.34 349.76 847.67 349.61 863.01 349.86 C 865.31 350.05 867.77 349.97 869.94 350.95 C 872.55 353.11 873.28 356.75 873.43 359.98 C 873.63 369.65 873.32 379.33 873.51 389.00 C 873.85 395.17 873.89 401.35 873.56 407.52 C 868.45 408.67 863.24 409.79 857.98 409.48 C 848.65 408.94 839.31 409.37 829.98 408.89 C 822.83 409.27 815.57 409.61 808.64 407.47 C 807.35 389.64 807.06 371.75 807.40 353.89 C 807.20 352.53 806.87 351.21 806.42 349.91 Z"
     id="path6734" />
  <path
     fill="#575755"
     d=" M 928.41 353.04 C 929.12 351.69 930.36 350.95 931.90 351.24 C 950.27 352.01 968.74 350.88 987.03 353.18 C 1001.35 354.11 1015.68 355.02 1030.00 356.03 L 1030.62 356.48 C 1030.93 356.69 1031.54 357.12 1031.85 357.33 C 1024.90 357.56 1018.01 356.32 1011.07 356.15 C 1001.34 355.41 991.57 355.18 981.87 354.12 C 964.10 352.36 946.22 353.35 928.41 353.04 Z"
     id="path6736" />
  <path
     fill="#5e5e5c"
     d=" M 921.94 354.89 L 923.24 354.28 C 926.14 361.43 925.13 369.39 925.53 376.94 C 925.40 390.52 926.19 404.08 926.66 417.65 C 926.64 422.97 927.10 428.36 925.82 433.60 C 925.80 418.37 924.05 403.21 924.19 387.97 C 923.97 376.91 924.42 365.74 921.94 354.89 Z"
     id="path6738" />
  <path
     fill="#010101"
     d=" M 1030.62 356.48 C 1033.41 356.55 1036.21 356.67 1038.99 357.09 C 1047.98 358.17 1056.97 356.52 1065.98 356.63 C 1070.35 356.66 1074.74 356.20 1079.12 356.53 C 1080.50 357.17 1080.79 358.56 1080.66 359.97 C 1080.13 375.00 1080.65 390.05 1080.34 405.09 C 1078.64 417.86 1079.64 430.79 1079.49 443.62 C 1078.07 443.62 1076.64 443.53 1075.51 442.60 C 1078.78 436.97 1076.52 430.07 1077.92 423.92 C 1078.82 418.34 1078.34 412.65 1079.37 407.09 C 1079.72 394.72 1079.50 382.35 1079.44 369.98 C 1079.51 366.41 1079.10 362.85 1078.21 359.39 C 1062.74 359.01 1047.27 358.50 1031.85 357.33 C 1031.54 357.12 1030.93 356.69 1030.62 356.48 Z"
     id="path6740" />
  <path
     fill="#dd4e0c"
     d=" M 258.49 374.07 C 258.63 370.96 261.92 368.19 265.01 368.95 C 271.97 369.69 279.00 369.58 285.98 369.19 C 292.36 368.70 298.56 370.75 304.94 370.42 C 310.17 371.01 315.40 371.65 320.62 372.39 C 321.76 387.95 318.76 403.45 319.76 419.00 C 319.99 421.18 321.29 423.74 319.59 425.67 C 318.13 427.81 315.28 427.64 313.00 427.79 C 304.65 427.87 296.31 427.74 287.96 427.88 C 277.15 428.51 266.20 428.05 255.63 425.51 C 254.02 415.01 255.57 404.41 257.14 394.01 C 258.20 387.41 257.91 380.70 258.49 374.07 Z"
     id="path6742" />
  <path
     fill="#5b5b59"
     d=" M 207.19 416.74 C 207.33 408.80 208.18 400.89 209.02 393.00 C 209.16 395.47 209.47 397.93 209.61 400.40 C 209.51 404.61 208.86 408.79 208.75 413.00 C 208.49 418.09 209.22 423.18 208.87 428.27 C 208.12 424.46 207.30 420.63 207.19 416.74 Z"
     id="path6770" />
  <path
     fill="#030303"
     d=" M 207.19 416.74 C 207.30 420.63 208.12 424.46 208.87 428.27 C 209.74 430.49 208.77 434.89 205.94 434.53 C 205.51 434.08 204.64 433.17 204.21 432.72 C 200.35 435.84 195.22 434.34 190.71 434.31 L 189.71 433.40 C 193.65 432.32 198.34 433.52 201.63 430.65 C 203.18 428.66 204.79 430.78 205.33 432.42 C 207.22 427.43 206.35 421.94 207.19 416.74 Z"
     id="path6792" />
  <path
     fill="#020202"
     d=" M 925.82 433.60 C 927.10 428.36 926.64 422.97 926.66 417.65 C 927.35 428.51 927.55 439.40 928.62 450.24 C 931.78 450.74 934.96 451.12 938.13 451.62 C 938.58 451.81 939.50 452.18 939.95 452.36 C 936.60 452.57 933.26 452.94 929.92 453.18 C 928.07 453.38 925.66 452.14 925.81 450.04 C 925.88 444.56 925.19 439.06 925.82 433.60 Z"
     id="path6794" />
  <path
     fill="#5b5b59"
     d=" M 77.78 433.26 C 80.81 432.66 83.85 432.07 86.95 431.89 C 116.58 433.64 146.29 432.52 175.96 432.85 C 180.50 433.14 185.40 432.12 189.71 433.40 L 190.71 434.31 C 161.47 434.34 132.21 434.47 102.97 434.19 C 94.57 433.77 86.18 433.33 77.78 433.26 Z"
     id="path6796" />
  <path
     fill="#000000"
     d=" M 145.86 441.85 C 145.97 439.49 147.50 437.63 149.06 436.02 C 150.05 437.19 150.51 438.52 150.46 440.03 C 150.39 447.03 150.46 454.02 150.33 461.01 C 152.55 461.18 154.78 461.53 156.82 462.49 C 156.28 469.52 151.49 475.37 147.39 480.81 C 146.21 480.26 145.04 479.72 143.86 479.21 C 142.38 473.49 140.18 468.01 138.47 462.36 C 140.64 461.21 143.13 461.12 145.52 460.75 C 146.08 454.46 145.59 448.15 145.86 441.85 Z"
     id="path6798" />
  <path
     fill="#060606"
     d=" M 624.66 445.66 C 625.12 445.58 626.03 445.42 626.48 445.34 C 626.93 446.65 627.38 447.96 627.81 449.29 C 640.23 449.17 652.64 449.39 665.06 449.12 C 670.36 448.46 675.67 449.60 680.98 449.15 C 684.63 448.79 688.31 448.75 691.97 449.11 C 705.31 449.62 718.66 449.02 732.01 449.27 C 740.02 449.13 748.09 448.55 755.94 446.81 C 760.58 446.02 765.32 446.32 770.01 446.19 C 775.35 446.29 780.65 445.40 786.00 445.61 C 795.33 445.83 804.68 444.97 814.01 445.69 C 819.06 446.00 823.52 448.88 828.61 449.02 C 829.32 452.40 825.55 451.83 823.45 451.33 C 820.28 450.35 817.39 448.44 814.02 448.17 C 807.40 447.30 800.70 447.56 794.04 447.35 C 784.37 447.04 774.76 448.51 765.09 448.14 C 757.62 447.69 750.46 450.35 743.03 450.50 C 704.56 450.30 666.08 450.62 627.60 450.38 C 627.25 460.25 627.19 470.14 628.15 479.98 C 627.96 485.48 627.28 490.97 626.54 496.42 C 625.92 496.48 624.68 496.61 624.06 496.67 C 624.32 489.72 625.99 482.92 625.57 475.92 C 626.63 467.56 626.64 459.11 625.39 450.77 C 623.76 450.52 622.16 450.30 620.57 449.94 C 622.00 449.46 623.44 449.01 624.90 448.60 C 624.84 447.87 624.72 446.39 624.66 445.66 Z"
     id="path6800" />
  <path
     fill="#040404"
     d=" M 1030.28 446.31 C 1039.16 445.34 1048.12 445.75 1057.01 444.93 C 1062.42 444.66 1067.87 444.00 1073.28 444.67 C 1073.26 445.31 1073.23 446.58 1073.21 447.22 C 1063.14 447.92 1053.10 446.02 1043.02 446.52 C 1038.79 446.27 1034.40 447.31 1030.28 446.31 Z"
     id="path6802" />
  <path
     fill="#020202"
     d=" M 374.83 448.12 C 376.84 445.19 380.29 446.99 383.06 447.32 C 390.13 448.33 397.34 447.38 404.40 448.58 L 402.76 448.93 C 399.15 448.72 395.54 448.53 391.94 448.83 C 386.27 449.65 380.45 448.99 374.83 448.12 Z"
     id="path6804" />
  <path
     fill="#5b5b59"
     d=" M 1001.95 448.02 C 1011.12 447.78 1020.21 446.31 1029.40 446.39 C 1029.27 446.86 1029.02 447.81 1028.90 448.28 C 1022.56 447.75 1016.23 448.42 1009.93 449.03 C 996.99 449.71 984.06 450.52 971.14 451.42 C 960.85 452.91 950.25 453.30 939.95 452.36 C 939.50 452.18 938.58 451.81 938.13 451.62 C 946.39 450.68 954.76 451.91 963.04 450.91 C 975.93 449.07 988.98 448.98 1001.95 448.02 Z"
     id="path6806" />
  <path
     fill="#5b5b59"
     d=" M 404.40 448.58 C 405.57 448.31 406.76 448.20 407.96 448.24 C 432.79 448.92 457.68 448.14 482.49 448.67 C 483.04 448.94 484.14 449.47 484.69 449.73 C 473.81 450.51 462.88 449.51 451.98 450.04 C 439.01 449.74 426.05 450.01 413.08 449.84 C 409.63 449.77 406.10 449.94 402.76 448.93 L 404.40 448.58 Z"
     id="path6808" />
  <path
     fill="#121212"
     d=" M 482.49 448.67 C 494.99 448.68 507.51 447.82 520.00 448.65 C 537.47 450.44 555.03 448.54 572.53 448.38 C 574.90 451.18 570.50 451.26 568.95 451.29 C 557.00 449.44 545.00 452.40 533.06 450.95 C 523.08 450.26 513.06 450.38 503.07 450.22 C 496.96 449.54 490.82 449.84 484.69 449.73 C 484.14 449.47 483.04 448.94 482.49 448.67 Z"
     id="path6810" />
  <path
     fill="#0e0e0e"
     d=" M 373.40 449.52 C 373.92 449.47 374.95 449.35 375.47 449.29 C 377.79 455.28 376.22 461.78 376.53 468.01 C 376.89 473.72 375.68 479.35 375.69 485.04 C 375.42 493.41 373.92 501.76 374.94 510.14 C 375.91 517.00 375.51 523.99 374.64 530.84 C 373.97 536.19 374.69 541.64 373.46 546.92 L 372.85 545.17 C 372.07 538.48 373.42 531.72 373.38 525.00 C 373.19 511.68 374.31 498.40 374.29 485.09 C 376.12 473.33 376.27 461.13 373.40 449.52 Z"
     id="path6812" />
  <path
     fill="#020202"
     d=" M 573.16 452.19 C 574.81 450.61 575.72 453.12 576.25 454.41 C 577.08 458.88 576.54 463.45 576.54 467.96 C 576.53 479.10 576.65 490.25 577.45 501.36 C 576.73 501.50 575.29 501.77 574.56 501.91 C 574.09 485.37 576.99 468.40 573.16 452.19 Z"
     id="path6814" />
  <path
     fill="#000000"
     d=" M 1013.77 452.46 C 1014.50 452.43 1015.24 452.42 1016.00 452.41 C 1018.47 457.49 1023.00 462.33 1022.38 468.32 C 1021.06 468.52 1019.76 468.71 1018.47 468.90 C 1017.32 473.41 1017.86 478.16 1016.64 482.62 C 1015.25 482.14 1013.88 481.66 1012.51 481.20 C 1012.28 477.29 1012.42 473.38 1012.67 469.47 C 1011.12 469.08 1009.59 468.67 1008.07 468.26 C 1009.36 463.71 1011.55 459.47 1013.27 455.07 C 1013.39 454.42 1013.65 453.11 1013.77 452.46 Z"
     id="path6816" />
  <path
     fill="#393938"
     d=" M 829.21 452.68 C 831.10 453.80 831.66 455.96 831.99 457.98 C 834.63 475.20 833.50 492.64 833.90 509.98 C 833.39 530.99 835.21 552.03 833.74 573.03 C 833.21 591.73 830.28 610.27 829.76 628.99 C 829.70 636.36 827.66 643.53 827.15 650.87 C 826.74 659.12 824.65 667.14 824.01 675.37 C 824.20 672.04 823.79 668.71 822.94 665.51 L 822.83 665.02 C 828.05 645.16 827.96 624.49 829.65 604.16 C 831.50 594.53 831.90 584.73 831.96 574.95 C 832.99 563.64 831.76 552.30 832.19 540.97 C 832.84 526.32 832.32 511.65 832.55 497.00 C 832.19 486.68 833.09 476.30 831.63 466.03 C 831.40 461.47 829.64 457.20 829.21 452.68 Z"
     id="path6818" />
  <path
     fill="#5b5b59"
     d=" M 414.80 474.79 C 416.78 474.19 418.90 474.31 420.95 474.25 C 449.99 474.12 479.02 474.17 508.05 474.18 C 517.54 474.41 527.11 473.65 536.55 474.53 C 537.52 474.83 538.50 475.14 539.49 475.44 C 502.00 475.74 464.50 475.40 427.00 475.69 C 422.32 475.67 417.61 476.09 412.95 475.43 L 414.80 474.79 Z"
     id="path6820" />
  <path
     fill="#0e0e0d"
     d=" M 536.55 474.53 C 540.70 474.01 544.92 473.03 549.11 473.77 C 551.10 474.08 552.68 475.89 552.31 477.96 C 551.28 492.80 549.95 507.63 549.49 522.51 L 548.79 520.73 C 548.57 519.12 548.72 517.49 548.75 515.89 C 549.98 509.68 548.83 503.28 550.02 497.05 C 550.69 490.29 551.00 483.33 549.24 476.69 C 545.98 476.34 542.68 476.25 539.49 475.44 C 538.50 475.14 537.52 474.83 536.55 474.53 Z"
     id="path6822" />
  <path
     fill="#020202"
     d=" M 782.73 475.53 C 786.27 474.89 789.83 474.03 793.47 474.28 C 794.70 478.12 793.60 482.08 793.66 486.00 C 793.52 499.98 793.98 513.94 793.78 527.92 C 793.67 541.67 795.04 555.44 794.58 569.19 C 786.10 570.00 777.64 570.67 769.28 572.31 C 760.30 572.44 751.38 573.97 742.43 574.27 C 741.13 574.07 739.85 573.84 738.58 573.65 C 748.08 573.45 757.48 572.02 766.97 571.56 C 772.08 571.47 777.03 570.12 782.05 569.32 C 785.64 568.49 789.54 567.91 792.24 565.16 C 792.39 559.43 792.47 553.69 792.79 547.97 C 793.75 544.74 793.36 541.36 793.30 538.05 C 792.93 526.04 793.48 514.01 793.03 501.99 C 792.23 493.65 793.72 485.08 791.58 476.90 C 790.18 476.79 788.79 476.64 787.42 476.46 C 785.84 476.16 784.29 475.81 782.73 475.53 Z"
     id="path6824" />
  <path
     fill="#181818"
     d=" M 395.02 477.72 C 397.12 476.47 399.46 475.55 401.94 475.45 C 406.22 475.23 410.49 474.45 414.80 474.79 L 412.95 475.43 C 406.87 475.51 401.06 477.82 395.02 477.72 Z"
     id="path6826" />
  <path
     fill="#474746"
     d=" M 646.29 477.82 C 645.66 475.40 648.48 475.80 650.00 475.74 C 676.33 476.21 702.65 475.18 728.97 475.33 C 746.89 475.48 764.83 475.02 782.73 475.53 C 784.29 475.81 785.84 476.16 787.42 476.46 C 754.94 476.81 722.45 476.38 689.97 476.87 C 677.99 477.73 665.97 476.95 653.98 477.54 C 651.42 477.56 648.81 478.61 646.29 477.82 Z"
     id="path6828" />
  <path
     fill="#090909"
     d=" M 641.07 481.08 C 641.60 481.26 642.67 481.62 643.20 481.80 C 642.18 495.81 642.91 509.90 642.81 523.96 C 642.85 538.73 642.32 553.62 644.59 568.26 C 654.63 572.04 665.48 571.97 675.98 573.29 C 696.84 573.76 717.72 573.38 738.58 573.65 C 739.85 573.84 741.13 574.07 742.43 574.27 C 721.28 574.73 700.10 574.40 678.95 574.29 C 670.64 573.55 662.32 572.95 654.05 571.83 C 650.10 571.56 646.13 571.40 642.28 570.42 C 640.75 565.73 642.63 560.81 642.32 556.00 C 641.88 531.03 642.66 506.01 641.07 481.08 Z"
     id="path6830" />
  <path
     fill="#060606"
     d=" M 935.55 489.30 C 935.19 486.73 934.21 484.16 934.95 481.56 C 937.13 485.01 936.59 489.19 936.69 493.07 C 937.10 520.76 936.32 548.47 938.39 576.10 C 950.11 578.90 962.23 576.76 973.89 574.77 C 982.30 574.30 990.61 572.81 999.01 572.13 C 1008.28 570.09 1017.84 570.60 1027.15 568.74 C 1040.48 567.09 1053.88 566.13 1067.23 564.70 C 1067.33 564.48 1067.53 564.04 1067.63 563.82 C 1067.41 561.50 1068.40 559.31 1068.76 557.06 C 1071.38 541.54 1070.38 525.75 1070.55 510.08 C 1070.33 502.21 1071.13 494.21 1069.34 486.48 C 1061.87 486.48 1054.42 486.38 1046.99 485.48 C 1024.65 485.19 1002.29 485.46 979.95 485.34 C 972.48 485.20 964.96 485.76 957.57 484.50 L 957.52 485.35 C 954.44 484.78 949.92 486.72 948.33 483.08 C 962.14 484.82 976.07 484.42 989.95 484.46 C 1005.66 484.47 1021.36 484.48 1037.07 484.46 C 1048.12 484.82 1059.11 482.64 1070.17 483.59 C 1071.32 483.98 1071.85 484.76 1071.78 485.94 C 1071.22 501.95 1071.56 517.98 1071.47 534.00 C 1071.74 543.57 1069.27 553.07 1070.82 562.64 L 1069.23 563.07 C 1070.34 563.68 1071.47 564.23 1072.65 564.77 C 1072.52 565.65 1072.40 566.54 1072.29 567.44 C 1067.52 568.02 1062.73 567.27 1057.96 567.23 C 1040.18 566.81 1022.78 571.19 1005.07 571.69 L 1004.34 572.27 C 993.62 573.37 982.97 575.07 972.22 575.77 C 961.03 578.29 949.50 578.55 938.08 578.50 C 936.77 578.49 935.12 577.42 935.40 575.95 C 935.25 566.28 936.66 556.67 936.39 547.01 C 935.91 527.77 936.83 508.50 935.55 489.30 Z"
     id="path6832" />
  <path
     fill="#0e0e0e"
     d=" M 74.54 484.31 C 75.04 484.30 76.05 484.28 76.56 484.27 C 75.89 502.84 75.91 521.41 75.63 539.98 C 75.59 542.12 75.52 544.29 75.16 546.42 C 73.59 554.18 72.93 562.10 72.25 569.98 C 76.05 571.48 80.17 571.83 84.22 572.00 C 81.11 572.24 78.01 572.66 74.90 572.87 C 72.90 572.97 71.01 572.23 69.17 571.57 C 69.26 569.66 69.45 567.75 70.00 565.92 C 71.63 560.05 71.61 553.88 73.23 548.02 C 75.21 541.19 74.87 534.00 75.22 526.97 C 74.94 512.74 76.03 498.48 74.54 484.31 Z"
     id="path6834" />
  <path
     fill="#393938"
     d=" M 78.64 484.88 C 80.98 483.63 83.55 484.44 86.00 484.74 C 90.95 485.48 95.97 485.28 100.95 485.37 C 130.00 485.47 159.05 485.44 188.10 485.42 C 188.10 485.71 188.09 486.30 188.09 486.60 C 153.38 486.56 118.67 486.65 83.96 486.46 C 82.03 486.61 80.27 485.81 78.64 484.88 Z"
     id="path6836" />
  <path
     fill="#060606"
     d=" M 391.53 484.74 C 392.09 484.61 393.21 484.34 393.77 484.21 C 393.20 498.81 393.58 513.43 393.28 528.04 C 391.86 540.47 393.18 553.03 392.20 565.50 C 405.12 566.01 418.08 565.24 430.99 566.11 C 441.99 566.24 452.96 565.40 463.97 565.68 C 472.01 565.29 479.98 566.62 488.03 566.47 C 493.98 566.98 500.01 565.64 505.91 566.85 C 501.74 566.79 497.55 566.82 493.41 567.42 C 484.93 567.71 476.50 566.40 468.03 566.60 C 446.69 566.71 425.35 566.62 404.01 566.65 C 399.04 566.38 394.22 568.19 389.25 567.67 C 388.93 563.61 391.22 559.99 391.43 555.99 C 391.99 549.19 391.57 542.35 391.89 535.54 C 392.80 527.38 392.33 519.16 392.46 510.97 C 392.32 502.22 392.82 493.42 391.53 484.74 Z"
     id="path6838" />
  <path
     fill="#10100f"
     d=" M 188.10 485.42 C 198.26 485.18 208.42 485.44 218.57 485.74 C 220.07 485.98 220.77 487.47 220.62 488.89 C 220.50 493.53 220.59 498.23 219.79 502.83 C 219.49 506.88 219.51 511.13 217.89 514.92 L 217.44 515.84 C 218.76 506.88 219.62 497.68 218.24 488.68 C 208.16 488.25 198.23 485.90 188.09 486.60 C 188.09 486.30 188.10 485.71 188.10 485.42 Z"
     id="path6840" />
  <path
     fill="#0f37fe"
     d=" M 480.65 499.75 C 485.10 499.14 490.28 497.68 494.02 501.07 C 498.14 505.16 501.34 511.04 500.35 517.01 C 499.25 520.98 495.33 523.38 491.55 524.30 C 487.36 525.11 483.07 524.73 478.90 524.09 C 478.57 528.73 478.25 533.37 478.25 538.03 C 478.67 540.01 477.43 541.45 475.42 541.69 C 475.14 531.38 476.76 521.15 477.58 510.90 C 477.81 507.00 477.95 502.85 480.65 499.75 Z"
     id="path6842" />
  <path
     fill="#0f37fe"
     d=" M 724.20 500.41 C 729.24 500.48 735.08 499.12 739.35 502.60 C 744.30 505.92 744.93 513.36 742.29 518.30 C 738.09 524.09 730.11 523.58 723.76 523.69 C 722.02 529.93 722.52 536.43 721.71 542.79 C 721.10 542.73 719.87 542.60 719.26 542.54 C 718.60 530.02 722.94 517.98 722.71 505.48 C 723.73 505.33 724.76 505.21 725.80 505.12 C 725.61 510.35 725.12 515.56 724.43 520.74 C 729.13 520.64 734.29 521.07 738.41 518.34 C 741.72 515.95 741.04 511.17 740.19 507.74 C 737.09 501.89 729.87 503.26 724.43 503.43 C 724.31 502.42 724.23 501.42 724.20 500.41 Z"
     id="path6844" />
  <path
     fill="#555553"
     d=" M 1111.48 503.44 C 1111.73 502.13 1112.04 500.83 1112.31 499.52 C 1113.73 514.98 1113.02 530.53 1113.19 546.03 C 1112.87 568.39 1114.40 590.95 1110.59 613.11 C 1109.98 625.74 1108.47 638.35 1108.74 651.02 C 1108.42 671.56 1109.25 692.13 1108.10 712.64 C 1107.59 715.23 1106.85 717.77 1106.30 720.35 C 1108.04 694.59 1106.90 668.76 1107.45 642.97 C 1107.51 633.89 1108.76 624.89 1108.93 615.81 C 1110.03 605.89 1111.75 596.01 1111.65 585.99 C 1111.71 558.48 1111.83 530.94 1111.48 503.44 Z"
     id="path6846" />
  <path
     fill="#0f37fe"
     d=" M 446.98 501.98 C 447.75 501.61 448.54 501.28 449.34 500.98 C 449.91 502.93 450.49 504.93 450.46 507.00 C 450.50 517.66 450.31 528.32 450.42 538.97 C 450.58 540.82 450.02 542.60 448.98 544.13 C 448.12 542.87 447.66 541.51 447.61 540.03 C 447.46 527.35 447.95 514.62 446.98 501.98 Z"
     id="path6848" />
  <path
     fill="#f5f4f0"
     d=" M 481.66 502.71 C 485.18 502.33 489.54 500.59 492.44 503.54 C 495.67 507.02 498.47 511.75 497.50 516.68 C 496.78 518.95 494.54 520.28 492.47 521.15 C 488.17 522.35 482.80 523.37 479.40 519.68 C 480.43 514.06 480.69 508.34 481.66 502.71 Z"
     id="path6850" />
  <path
     fill="#163cfe"
     d=" M 113.53 504.49 C 114.53 504.52 115.53 504.56 116.53 504.61 C 116.47 515.38 116.75 526.17 115.78 536.91 C 115.22 541.97 116.11 547.26 114.29 552.13 C 113.74 551.85 112.62 551.31 112.06 551.03 C 113.66 535.56 113.58 520.02 113.53 504.49 Z"
     id="path6852" />
  <path
     fill="#0f37fe"
     d=" M 141.96 537.92 C 142.61 526.35 144.14 514.88 145.61 503.40 C 151.75 504.51 159.43 501.59 164.16 506.92 C 168.96 511.52 169.38 518.72 168.43 524.91 C 167.57 528.10 164.67 530.40 161.63 531.40 C 156.43 532.69 150.94 532.51 145.73 531.34 C 145.99 530.76 146.50 529.61 146.75 529.03 C 152.28 529.15 158.46 530.55 163.41 527.34 C 166.87 525.09 165.74 520.38 165.74 516.92 C 165.55 511.90 161.50 506.13 156.03 506.58 C 153.48 506.56 150.93 506.75 148.39 506.99 C 147.06 515.64 145.49 524.28 145.10 533.04 C 144.18 538.34 145.01 543.93 143.11 549.04 C 139.50 546.45 142.02 541.55 141.96 537.92 Z"
     id="path6854" />
  <path
     fill="#1038fe"
     d=" M 690.94 515.04 C 691.76 510.94 690.71 506.07 694.03 502.87 C 695.93 505.26 694.67 508.22 694.47 510.91 C 692.89 521.49 691.64 532.15 691.66 542.86 C 691.04 542.86 689.80 542.84 689.18 542.83 C 689.22 533.53 689.51 524.23 690.94 515.04 Z"
     id="path6856" />
  <path
     fill="#000000"
     d=" M 619.44 505.73 C 625.08 507.73 629.74 511.72 634.75 514.90 C 635.87 518.86 631.19 519.17 628.77 520.80 C 625.58 522.15 623.07 525.69 619.27 524.86 C 619.22 523.05 619.19 521.23 619.19 519.43 C 613.15 519.80 607.08 519.26 601.06 520.09 C 598.36 520.47 595.69 519.69 593.00 519.81 C 581.63 520.71 570.20 520.12 558.81 520.60 C 559.04 518.55 560.53 517.18 561.86 515.77 C 570.24 516.18 578.58 514.89 586.97 515.15 C 597.73 515.37 608.46 514.74 619.22 514.75 C 618.78 511.74 618.78 508.70 619.44 505.73 Z"
     id="path6858" />
  <path
     fill="#0f37fe"
     d=" M 1008.54 510.24 C 1013.89 508.98 1019.74 507.88 1025.05 509.91 C 1029.76 511.81 1031.19 517.48 1031.20 522.07 C 1030.27 525.68 1027.33 528.37 1024.15 530.07 C 1020.34 532.18 1015.85 531.36 1011.71 531.50 C 1011.43 536.08 1012.52 540.89 1011.22 545.34 C 1009.15 546.09 1008.58 543.46 1008.77 542.03 C 1008.89 531.44 1008.91 520.83 1008.54 510.24 Z"
     id="path6860" />
  <path
     fill="#0f37fe"
     d=" M 980.26 510.13 C 981.27 510.25 982.30 510.37 983.35 510.50 C 983.32 523.08 983.42 535.67 983.23 548.24 C 982.57 550.93 979.86 548.98 980.43 547.03 C 980.50 534.73 980.50 522.43 980.26 510.13 Z"
     id="path6862" />
  <path
     fill="#f5f4f0"
     d=" M 1011.82 512.55 C 1016.11 512.29 1020.92 510.60 1024.86 513.10 C 1027.91 515.06 1027.95 519.04 1028.58 522.23 C 1026.40 524.77 1024.10 527.73 1020.60 528.34 C 1017.66 528.72 1014.69 528.54 1011.75 528.52 C 1011.80 523.20 1011.79 517.87 1011.82 512.55 Z"
     id="path6864" />
  <path
     fill="#030303"
     d=" M 217.44 515.84 L 217.89 514.92 C 217.21 524.97 215.60 534.93 214.58 544.95 C 214.41 552.27 213.29 559.51 212.56 566.79 C 215.54 565.71 218.47 564.46 221.59 563.86 C 221.60 564.54 221.62 565.89 221.63 566.57 C 218.99 567.38 216.23 567.56 213.49 567.80 C 212.57 567.86 210.72 567.98 209.80 568.04 C 209.81 567.26 209.85 565.71 209.87 564.94 C 210.31 561.61 210.99 558.32 211.62 555.03 C 214.64 545.30 214.50 534.97 216.11 524.97 C 216.75 521.95 216.24 518.72 217.44 515.84 Z"
     id="path6866" />
  <path
     fill="#838280"
     d=" M 548.79 520.73 L 549.49 522.51 C 550.60 525.55 549.93 528.87 550.06 532.03 C 549.81 540.77 550.51 549.55 549.63 558.27 C 549.33 557.90 548.73 557.17 548.43 556.81 L 547.99 556.27 C 548.27 544.43 547.36 532.50 548.79 520.73 Z"
     id="path6868" />
  <path
     fill="#dd4e0b"
     d=" M 619.99 528.82 C 623.44 528.82 626.88 527.95 630.34 528.41 C 632.51 532.24 631.10 536.91 631.31 541.09 C 630.50 550.34 630.36 559.67 628.75 568.84 C 628.50 572.15 624.31 571.48 622.01 572.02 C 612.03 572.76 602.00 572.84 592.05 573.91 C 587.36 574.49 582.58 574.90 577.88 574.36 C 577.58 574.08 576.99 573.51 576.70 573.23 C 576.16 560.13 576.76 547.01 576.46 533.90 C 577.71 532.45 578.75 530.71 580.41 529.67 C 583.86 528.81 587.46 528.80 591.01 528.78 C 600.67 528.81 610.33 528.89 619.99 528.82 Z"
     id="path6870" />
  <path
     fill="#1e1e1e"
     d=" M 372.85 545.17 L 373.46 546.92 C 373.94 556.58 373.62 566.34 373.56 576.04 C 372.36 585.39 373.00 594.89 371.23 604.18 C 369.39 613.34 369.35 622.73 369.71 632.04 C 369.82 643.68 369.36 655.34 369.79 666.99 C 370.36 677.39 372.88 687.60 373.12 698.03 C 373.12 702.98 373.22 707.93 373.22 712.89 C 372.72 713.21 371.72 713.86 371.22 714.18 C 371.53 703.09 370.91 692.03 369.53 681.02 C 366.71 664.84 368.20 648.36 367.79 632.03 C 368.62 622.99 367.39 613.81 369.36 604.89 C 371.02 596.75 371.63 588.44 371.92 580.16 C 373.39 568.55 372.27 556.82 372.85 545.17 Z"
     id="path6872" />
  <path
     fill="#020202"
     d=" M 548.43 556.81 C 548.73 557.17 549.33 557.90 549.63 558.27 C 549.62 561.01 549.97 563.74 550.31 566.46 C 551.58 566.64 552.54 567.29 553.19 568.39 C 551.21 568.58 549.39 569.26 547.98 570.67 C 547.28 570.21 546.10 569.87 546.66 568.80 C 546.77 568.38 546.98 567.54 547.08 567.12 C 548.05 563.77 548.44 560.28 548.43 556.81 Z"
     id="path6874" />
  <path
     fill="#595857"
     d=" M 209.19 567.72 C 209.41 566.78 209.63 565.85 209.87 564.94 C 209.85 565.71 209.81 567.26 209.80 568.04 C 210.72 567.98 212.57 567.86 213.49 567.80 C 207.93 570.10 201.83 570.29 195.97 571.28 C 189.04 572.40 182.02 572.10 175.03 572.18 C 161.29 572.10 147.67 574.13 134.00 575.22 C 120.99 575.52 107.98 574.94 95.01 573.95 C 88.33 573.16 81.58 573.70 74.90 572.87 C 78.01 572.66 81.11 572.24 84.22 572.00 C 104.50 572.67 124.91 575.35 145.16 572.70 C 157.39 571.49 169.66 570.43 181.96 570.63 C 191.13 570.97 200.19 569.25 209.19 567.72 Z"
     id="path6876" />
  <path
     fill="#5b5b59"
     d=" M 493.41 567.42 C 497.55 566.82 501.74 566.79 505.91 566.85 C 519.63 567.36 533.36 567.18 547.08 567.12 C 546.98 567.54 546.77 568.38 546.66 568.80 C 534.10 568.38 521.52 568.74 508.95 568.38 C 503.76 568.17 498.51 568.60 493.41 567.42 Z"
     id="path6878" />
  <path
     fill="#000000"
     d=" M 461.14 578.10 C 462.09 575.59 462.88 572.15 466.07 571.80 C 468.21 576.93 470.78 581.86 473.14 586.89 C 474.04 588.62 473.80 590.60 473.77 592.49 C 471.42 592.85 469.06 593.16 466.69 593.42 C 466.58 596.61 466.30 599.79 465.99 602.97 C 465.56 607.26 466.24 611.61 465.37 615.87 C 464.74 615.44 463.46 614.58 462.83 614.14 C 462.49 607.24 462.99 600.34 463.57 593.46 C 461.62 593.06 459.64 592.82 457.79 592.09 C 458.43 587.34 459.76 582.69 461.14 578.10 Z"
     id="path6880" />
  <path
     fill="#000000"
     d=" M 1010.86 576.27 C 1011.91 576.26 1012.98 576.26 1014.07 576.27 C 1015.74 580.52 1017.75 584.66 1018.73 589.16 C 1019.05 590.88 1021.31 591.78 1020.78 593.74 C 1019.24 594.82 1017.24 594.39 1015.50 594.53 C 1015.83 602.59 1014.78 610.61 1014.36 618.66 C 1013.39 618.66 1012.43 618.67 1011.48 618.68 C 1011.32 610.56 1011.63 602.45 1011.32 594.34 C 1008.62 594.22 1005.94 594.65 1003.26 594.59 C 1006.06 588.61 1009.74 582.89 1010.86 576.27 Z"
     id="path6882" />
  <path
     fill="#000000"
     d=" M 142.66 579.47 C 142.41 577.64 144.01 576.66 145.60 576.35 C 145.86 584.51 145.14 592.66 144.63 600.80 C 146.92 601.24 149.26 601.24 151.53 600.68 C 152.60 601.45 153.74 602.42 153.57 603.92 C 151.43 608.93 148.06 613.30 144.65 617.51 C 143.54 619.30 141.20 619.16 139.40 619.74 C 138.93 613.84 136.28 608.51 134.19 603.08 C 134.41 599.83 139.35 601.80 141.55 601.14 C 142.54 593.96 142.38 586.69 142.66 579.47 Z"
     id="path6884" />
  <path
     fill="#000000"
     d=" M 724.62 579.24 C 725.51 579.35 726.40 579.46 727.31 579.58 C 727.46 589.24 727.42 598.91 727.26 608.56 C 729.61 608.69 733.58 607.16 734.73 610.11 C 734.54 613.15 732.56 615.69 731.29 618.37 C 729.23 621.78 728.74 625.99 725.98 628.99 C 722.53 625.64 721.46 620.79 719.31 616.65 C 718.11 614.04 715.87 611.72 716.25 608.64 C 718.28 608.51 720.34 608.45 722.40 608.40 C 723.65 599.96 723.20 591.40 723.37 582.91 C 723.31 581.56 724.16 580.43 724.62 579.24 Z"
     id="path6886" />
  <path
     fill="#0f0f0f"
     d=" M 574.31 601.04 C 574.14 594.96 572.60 588.77 573.86 582.75 C 576.39 585.20 575.61 588.80 575.64 591.95 C 575.14 600.30 575.30 608.66 575.22 617.02 C 574.43 629.99 575.30 643.01 574.74 655.99 C 574.83 668.08 573.09 680.04 571.98 692.05 C 570.80 698.98 571.66 706.04 570.67 712.98 C 570.34 722.12 568.96 731.21 569.43 740.38 C 570.04 741.03 570.66 741.68 571.27 742.35 C 567.60 743.56 563.76 743.35 560.01 742.79 C 542.94 742.20 525.80 743.30 508.77 741.98 L 509.95 741.83 C 512.07 741.68 514.19 741.56 516.32 741.53 C 533.05 741.62 549.80 742.00 566.53 741.35 C 566.69 732.15 567.43 722.97 568.88 713.88 C 569.61 709.93 569.35 705.90 569.56 701.91 C 569.71 695.44 570.89 689.05 572.07 682.71 C 573.45 669.17 574.48 655.57 574.29 641.95 C 574.13 628.31 574.50 614.67 574.31 601.04 Z"
     id="path6888" />
  <path
     fill="#111111"
     d=" M 627.19 593.97 C 627.24 591.50 625.59 587.99 628.54 586.66 C 628.58 616.09 627.70 645.60 629.62 675.00 C 630.44 687.09 634.28 698.83 633.68 711.02 C 634.60 723.42 634.03 735.87 634.45 748.29 C 642.36 750.90 650.79 750.38 659.00 750.62 C 671.33 750.85 683.71 750.11 696.01 751.32 C 707.55 751.44 719.11 751.43 730.66 751.33 L 730.82 751.33 L 730.69 751.52 C 730.49 751.76 730.08 752.26 729.87 752.51 C 716.93 751.95 703.93 753.06 691.04 751.66 C 676.66 751.59 662.29 751.54 647.92 751.77 C 643.55 751.86 639.20 751.30 634.98 750.22 C 633.96 751.00 632.96 752.33 631.61 751.33 C 631.59 736.89 631.71 722.43 631.86 707.99 C 632.17 697.44 628.48 687.39 627.88 676.91 C 626.41 649.30 628.12 621.61 627.19 593.97 Z"
     id="path6890" />
  <path
     fill="#161616"
     d=" M 392.65 618.14 C 396.36 615.80 400.89 616.88 405.01 616.54 C 413.38 616.08 421.64 617.67 430.00 617.51 C 442.97 618.95 456.05 618.40 469.08 618.89 C 482.94 619.80 496.86 618.96 510.73 619.59 C 510.14 619.74 508.96 620.03 508.37 620.17 C 498.58 620.63 488.76 620.09 478.97 619.93 C 465.97 619.57 452.96 619.73 439.97 619.28 C 434.00 618.50 427.97 618.47 421.96 618.21 C 413.70 617.32 405.28 617.10 397.06 618.50 C 395.56 618.71 394.10 618.59 392.65 618.14 Z"
     id="path6892" />
  <path
     fill="#393938"
     d=" M 510.73 619.59 C 516.26 619.39 521.80 620.41 527.35 619.97 C 531.94 620.77 536.56 621.51 541.14 622.41 C 530.20 622.05 519.27 621.19 508.37 620.17 C 508.96 620.03 510.14 619.74 510.73 619.59 Z"
     id="path6894" />
  <path
     fill="#010101"
     d=" M 527.35 619.97 C 531.90 619.67 536.48 619.59 541.04 619.55 C 542.42 619.23 543.27 620.84 543.46 621.97 C 543.75 624.80 543.43 627.64 543.34 630.48 L 542.70 630.49 C 542.62 633.65 542.60 636.87 541.75 639.94 C 541.57 648.69 540.41 657.37 540.24 666.12 C 538.09 681.41 542.22 696.79 540.08 712.07 C 539.15 713.97 536.76 713.46 535.04 713.71 C 531.29 713.79 527.60 714.62 524.08 715.86 C 522.50 716.73 520.91 716.10 519.40 715.52 C 519.47 714.99 519.61 713.93 519.69 713.40 C 525.69 713.50 531.50 711.76 537.41 710.92 C 538.23 699.27 539.04 687.62 538.84 675.93 C 539.39 667.64 539.46 659.32 540.40 651.07 C 540.21 641.49 542.98 631.96 541.14 622.41 C 536.56 621.51 531.94 620.77 527.35 619.97 Z"
     id="path6896" />
  <path
     fill="#060606"
     d=" M 164.91 621.71 C 174.26 621.33 183.64 621.91 192.96 620.92 C 197.32 620.58 201.71 620.68 206.05 621.28 C 210.15 621.87 214.50 620.84 218.41 622.54 C 218.88 636.92 218.44 651.34 218.60 665.73 C 218.32 671.43 217.71 677.11 217.79 682.83 C 217.70 683.11 217.51 683.66 217.42 683.94 C 217.95 670.33 217.71 656.68 217.70 643.05 C 217.53 636.90 218.03 630.61 216.27 624.64 C 212.18 624.57 208.05 624.78 204.04 623.87 C 181.20 621.05 158.14 622.87 135.36 625.08 C 128.63 626.04 121.80 625.30 115.04 625.81 C 106.43 626.66 97.68 625.61 89.13 627.13 C 85.63 627.58 82.16 628.27 78.79 629.34 C 78.01 641.90 78.41 654.49 78.31 667.07 C 78.44 677.02 77.77 687.04 79.26 696.92 C 79.16 703.45 80.25 710.28 77.84 716.53 C 81.53 717.41 85.32 717.66 89.09 717.86 C 87.88 718.10 86.67 718.35 85.46 718.61 C 81.84 719.10 77.19 720.39 74.43 717.20 C 77.92 709.51 75.55 701.02 76.82 692.95 C 77.80 686.32 77.31 679.60 77.43 672.93 C 77.26 657.50 77.90 642.04 76.65 626.65 C 80.83 626.56 85.00 626.49 89.17 626.24 C 97.35 624.68 105.74 625.72 114.01 625.21 C 121.73 624.38 129.55 625.19 137.24 624.02 C 141.48 623.29 145.82 623.73 150.04 622.91 C 154.96 621.99 160.04 622.96 164.91 621.71 Z"
     id="path6898" />
  <path
     fill="#060606"
     d=" M 939.56 623.06 C 944.64 621.51 949.87 623.59 955.04 623.42 C 988.69 623.92 1022.35 623.58 1056.00 623.70 C 1060.77 623.83 1065.43 622.27 1070.20 622.73 C 1071.38 623.07 1072.22 624.13 1072.33 625.37 C 1073.94 638.51 1075.07 651.73 1074.89 664.99 C 1074.68 669.22 1075.44 673.41 1075.42 677.64 C 1075.33 683.41 1075.35 689.20 1076.14 694.94 C 1076.55 697.84 1076.19 700.78 1075.50 703.61 C 1074.92 703.64 1073.76 703.70 1073.18 703.73 C 1072.68 702.81 1072.19 701.90 1071.70 701.01 C 1072.15 700.64 1073.05 699.89 1073.51 699.52 C 1075.00 686.04 1074.38 672.49 1074.25 658.97 C 1073.81 650.25 1073.25 641.55 1072.24 632.89 C 1071.50 630.51 1070.76 628.13 1069.98 625.77 C 1064.29 625.72 1058.71 624.29 1053.02 624.56 C 1020.01 624.57 987.01 624.63 954.01 624.46 C 949.17 624.35 944.19 624.77 939.56 623.06 Z"
     id="path6900" />
  <path
     fill="#050505"
     d=" M 394.06 626.15 C 394.66 626.19 395.85 626.27 396.45 626.30 C 396.24 634.20 396.27 642.10 396.21 650.00 C 395.81 657.65 395.69 665.34 396.17 673.00 C 396.53 685.61 395.55 698.32 397.52 710.85 C 405.15 708.64 413.17 709.55 421.01 709.35 C 450.99 708.79 480.99 709.72 510.96 708.49 C 514.23 708.24 517.53 708.03 520.77 708.67 C 520.35 709.57 520.03 710.57 519.30 711.30 C 512.58 710.06 505.74 710.41 498.98 709.66 C 468.32 710.10 437.65 709.31 407.01 710.54 C 402.58 710.37 399.15 714.43 394.70 713.62 C 396.09 702.77 395.10 691.84 395.37 680.95 C 395.17 666.97 395.34 653.00 395.33 639.03 C 395.40 634.69 394.35 630.46 394.06 626.15 Z"
     id="path6902" />
  <path
     fill="#060606"
     d=" M 792.09 630.07 C 795.12 629.56 798.17 629.16 801.21 628.63 C 801.73 628.94 802.79 629.56 803.32 629.87 C 802.77 637.52 802.08 645.27 803.30 652.88 C 803.70 664.00 806.74 674.87 806.67 686.03 C 807.77 692.86 806.84 699.85 808.34 706.64 C 807.38 706.68 806.42 706.70 805.47 706.69 C 807.51 696.84 805.81 686.84 805.33 676.94 C 804.56 671.34 803.90 665.72 802.97 660.15 C 801.65 650.75 802.32 641.14 800.71 631.81 C 797.81 631.29 794.95 630.67 792.09 630.07 Z"
     id="path6904" />
  <path
     fill="#181818"
     d=" M 938.82 629.85 C 939.35 629.50 940.42 628.78 940.95 628.43 C 940.23 635.65 938.48 642.76 938.28 650.05 C 937.81 658.01 936.11 665.97 936.92 673.95 C 934.63 671.07 936.00 667.31 936.18 664.01 C 936.88 652.60 938.30 641.26 938.82 629.85 Z"
     id="path6906" />
  <path
     fill="#61605f"
     d=" M 733.03 631.29 C 747.03 631.17 761.04 631.61 775.02 630.74 C 780.71 630.68 786.40 629.75 792.09 630.07 C 794.95 630.67 797.81 631.29 800.71 631.81 C 796.15 631.61 791.58 631.27 787.03 631.63 C 764.41 633.38 741.71 632.55 719.05 632.73 C 703.68 632.93 688.29 632.31 672.94 633.21 C 671.81 632.87 668.68 634.07 669.24 631.97 C 668.74 629.86 671.84 631.12 672.98 630.77 C 692.98 631.75 713.01 631.07 733.03 631.29 Z"
     id="path6908" />
  <path
     fill="#070707"
     d=" M 652.23 632.50 C 652.71 632.82 653.68 633.48 654.16 633.81 C 652.61 649.46 654.51 665.28 652.63 680.91 C 652.16 691.80 652.61 702.67 653.57 713.52 C 661.42 715.41 669.51 715.37 677.53 715.47 C 678.79 715.76 680.04 716.11 681.30 716.44 C 673.17 716.25 665.04 716.05 656.92 716.40 C 654.69 716.50 651.92 716.38 650.65 714.25 C 650.15 711.52 650.61 708.74 650.80 706.02 C 651.68 698.75 651.49 691.42 651.61 684.13 C 653.27 666.99 652.50 649.69 652.23 632.50 Z"
     id="path6910" />
  <path
     fill="#292928"
     d=" M 217.79 682.83 C 217.71 677.11 218.32 671.43 218.60 665.73 C 218.55 673.36 219.10 681.00 219.09 688.61 C 218.05 694.00 217.75 699.48 217.06 704.91 C 217.24 697.92 217.21 690.91 217.42 683.94 C 217.51 683.66 217.70 683.11 217.79 682.83 Z"
     id="path6948" />
  <path
     fill="#050505"
     d=" M 821.61 717.36 C 822.35 700.09 820.36 682.67 822.94 665.51 C 823.79 668.71 824.20 672.04 824.01 675.37 C 823.16 684.20 823.78 693.07 823.46 701.92 C 823.28 710.31 823.88 718.77 822.58 727.10 C 822.05 733.73 822.11 740.47 820.71 747.00 C 820.54 749.23 818.78 748.34 817.64 747.39 C 818.68 741.99 819.72 736.54 819.56 731.02 C 819.40 726.36 821.23 721.96 821.61 717.36 Z"
     id="path6952" />
  <path
     fill="#030303"
     d=" M 935.11 674.80 C 935.46 674.79 936.15 674.77 936.50 674.76 C 936.00 683.65 935.70 692.53 935.58 701.43 L 936.37 701.49 C 936.46 705.45 936.63 709.42 937.32 713.33 C 941.34 713.80 945.37 714.34 949.43 714.52 C 948.93 714.78 947.93 715.29 947.44 715.55 C 943.12 715.75 938.72 716.80 934.51 715.33 C 934.27 701.84 936.11 688.28 935.11 674.80 Z"
     id="path6956" />
  <path
     fill="#090909"
     d=" M 217.06 704.91 C 217.75 699.48 218.05 694.00 219.09 688.61 C 219.30 694.90 219.53 701.20 219.45 707.50 C 218.73 707.78 217.30 708.35 216.58 708.63 C 216.70 707.70 216.94 705.84 217.06 704.91 Z"
     id="path6958" />
  <path
     fill="#040404"
     d=" M 44.27 691.74 C 44.60 692.12 45.26 692.87 45.59 693.25 C 45.36 705.65 46.03 718.03 46.34 730.42 C 46.55 733.37 47.11 736.28 47.59 739.19 C 46.55 739.34 45.51 739.48 44.47 739.63 C 42.02 723.76 44.67 707.69 44.27 691.74 Z"
     id="path6960" />
  <path
     fill="#090909"
     d=" M 1058.49 710.19 C 1061.72 708.84 1064.89 707.31 1068.31 706.42 C 1068.41 707.34 1068.52 708.26 1068.64 709.19 C 1058.20 712.55 1047.34 714.21 1036.84 717.39 C 1028.60 718.12 1020.29 717.91 1012.03 717.64 C 1005.49 717.62 998.94 717.86 992.43 717.24 C 992.98 717.06 994.10 716.70 994.66 716.52 C 1003.77 716.90 1012.88 716.90 1021.99 717.32 C 1028.43 717.30 1035.01 717.22 1041.19 715.20 C 1042.45 714.76 1043.72 714.38 1045.03 714.02 C 1049.48 712.61 1054.04 711.59 1058.49 710.19 Z"
     id="path6962" />
  <path
     fill="#090909"
     d=" M 766.22 715.36 C 779.55 714.73 792.43 711.01 805.58 709.04 C 805.58 709.65 805.57 710.85 805.57 711.46 C 800.92 711.76 796.17 711.06 791.64 712.36 C 784.55 714.21 777.28 715.07 770.04 715.99 C 768.92 716.18 766.92 716.54 766.22 715.36 Z"
     id="path6964" />
  <path
     fill="#020202"
     d=" M 223.11 710.38 C 223.52 710.36 224.36 710.33 224.77 710.31 C 224.76 711.36 224.75 712.42 224.73 713.49 C 222.33 714.09 219.88 714.63 217.40 714.73 C 215.79 714.62 214.19 714.47 212.58 714.38 C 216.14 713.25 220.17 712.89 223.11 710.38 Z"
     id="path6966" />
  <path
     fill="#020202"
     d=" M 371.22 714.18 C 371.72 713.86 372.72 713.21 373.22 712.89 C 373.09 722.80 373.82 732.70 373.81 742.61 C 373.23 742.67 372.07 742.78 371.49 742.84 C 372.14 733.27 370.95 723.74 371.22 714.18 Z"
     id="path6968" />
  <path
     fill="#000000"
     d=" M 1106.30 720.35 C 1106.85 717.77 1107.59 715.23 1108.10 712.64 C 1108.36 722.62 1107.37 732.59 1107.52 742.58 C 1105.97 742.69 1104.43 742.76 1102.91 742.79 C 1103.13 741.55 1103.67 740.47 1104.68 739.69 C 1106.01 733.32 1105.39 726.76 1106.30 720.35 Z"
     id="path6970" />
  <path
     fill="#5b5b59"
     d=" M 188.00 715.89 C 196.23 716.02 204.39 714.78 212.58 714.38 C 214.19 714.47 215.79 714.62 217.40 714.73 C 212.11 716.36 206.50 716.28 201.02 716.75 C 187.05 718.10 172.97 716.86 158.99 718.04 C 144.07 719.95 129.01 718.84 114.02 719.13 C 104.51 718.85 94.93 719.73 85.46 718.61 C 86.67 718.35 87.88 718.10 89.09 717.86 C 109.27 717.32 129.52 718.06 149.71 717.54 C 162.41 715.95 175.22 715.78 188.00 715.89 Z"
     id="path6972" />
  <path
     fill="#5f5e5d"
     d=" M 949.43 714.52 C 956.21 713.70 963.17 714.93 970.03 714.82 C 978.23 715.42 986.54 715.06 994.66 716.52 C 994.10 716.70 992.98 717.06 992.43 717.24 C 977.45 716.77 962.42 716.14 947.44 715.55 C 947.93 715.29 948.93 714.78 949.43 714.52 Z"
     id="path6974" />
  <path
     fill="#212120"
     d=" M 238.51 732.24 C 237.82 726.32 237.23 720.33 237.86 714.39 C 238.11 715.00 238.61 716.23 238.86 716.84 C 239.75 719.90 239.51 723.17 239.99 726.32 C 239.45 728.27 238.90 730.23 238.51 732.24 Z"
     id="path6976" />
  <path
     fill="#5b5b59"
     d=" M 677.53 715.47 C 693.02 715.49 708.53 716.05 724.03 715.88 C 737.88 715.67 751.76 716.41 765.57 715.31 C 765.36 715.81 764.94 716.83 764.73 717.33 C 741.83 717.42 718.90 717.48 695.99 717.21 C 691.09 717.10 686.12 717.47 681.30 716.44 C 680.04 716.11 678.79 715.76 677.53 715.47 Z"
     id="path6978" />
  <path
     fill="#dd4b07"
     d=" M 278.36 720.02 C 277.92 718.17 279.59 717.24 280.71 716.16 C 299.36 717.41 318.06 717.54 336.74 717.18 C 336.96 719.09 337.23 721.02 337.16 722.96 C 336.03 734.78 336.91 746.82 334.28 758.47 C 334.11 758.71 333.77 759.17 333.60 759.40 C 325.77 760.11 317.88 759.34 310.03 759.73 C 300.28 760.59 290.44 761.44 280.67 760.50 C 277.65 747.22 278.59 733.53 278.36 720.02 Z"
     id="path6980" />
  <path
     fill="#dc4702"
     d=" M 853.54 720.36 C 871.27 720.53 888.97 721.31 906.69 721.58 C 906.16 731.72 906.34 741.88 906.27 752.04 C 906.25 755.69 905.35 759.25 904.47 762.77 C 900.36 763.60 896.17 763.28 892.02 763.41 C 878.88 763.94 865.73 763.57 852.60 763.60 C 852.49 749.18 852.91 734.76 853.54 720.36 Z"
     id="path6982" />
  <path
     fill="#000000"
     d=" M 730.07 725.50 C 731.46 725.03 732.89 724.59 734.32 724.23 C 734.97 733.25 734.46 742.32 734.56 751.37 C 734.55 751.73 734.55 752.10 734.57 752.48 C 734.56 762.18 734.64 771.87 734.79 781.57 C 741.13 782.66 747.57 782.10 753.97 782.23 C 760.48 782.14 767.01 782.51 773.50 781.88 C 781.32 781.48 789.18 781.98 796.96 780.97 C 803.56 780.36 810.26 780.98 816.81 779.73 C 826.17 779.09 835.55 778.81 844.94 778.56 C 859.63 777.13 874.47 778.40 889.12 776.47 C 893.76 776.30 898.37 775.62 903.02 775.82 C 910.38 775.92 917.67 774.64 925.03 774.72 C 931.41 774.69 937.66 773.17 944.05 773.14 C 957.94 771.88 971.97 772.39 985.93 772.27 C 996.55 772.55 1007.08 770.89 1017.59 769.52 C 1017.48 763.49 1017.60 757.47 1017.39 751.45 C 1015.81 751.39 1014.24 751.33 1012.69 751.30 C 1012.14 750.97 1011.03 750.31 1010.48 749.97 C 1010.92 742.03 1013.90 734.41 1017.15 727.23 C 1017.57 727.22 1018.42 727.20 1018.84 727.19 C 1022.76 733.86 1024.05 741.65 1026.81 748.80 C 1025.51 750.84 1022.70 750.31 1020.63 750.75 C 1020.41 756.93 1020.52 763.12 1020.51 769.31 C 1021.20 770.20 1021.86 771.12 1022.51 772.07 C 1021.69 774.25 1019.02 774.23 1017.07 774.47 C 1001.01 774.77 984.98 775.65 968.96 776.69 C 961.32 776.84 953.63 776.22 946.05 777.48 C 933.13 779.46 920.05 779.72 907.00 779.63 C 898.07 781.06 888.96 781.18 879.93 781.79 C 867.65 783.24 855.22 781.69 842.95 783.25 C 834.99 783.55 827.02 783.44 819.07 783.86 C 814.07 784.56 809.03 784.77 804.00 784.78 C 797.64 784.60 791.34 785.63 784.98 785.39 C 767.64 784.92 750.28 785.39 732.94 785.32 C 729.92 785.64 729.57 782.20 729.80 780.02 C 730.34 770.53 730.77 761.02 730.69 751.52 L 730.82 751.33 L 730.66 751.33 C 730.87 742.72 730.81 734.09 730.07 725.50 Z"
     id="path6984" />
  <path
     fill="#040404"
     d=" M 238.51 732.24 C 238.90 730.23 239.45 728.27 239.99 726.32 C 240.58 730.76 240.44 735.25 240.61 739.73 C 241.34 739.78 242.82 739.90 243.56 739.95 C 242.88 741.90 241.03 742.74 239.07 742.54 C 230.18 742.07 221.25 742.85 212.37 742.13 C 211.99 741.97 211.21 741.64 210.83 741.47 C 214.39 741.06 217.96 740.66 221.50 740.05 C 227.13 739.63 232.78 740.48 238.43 740.20 C 238.52 737.54 238.44 734.89 238.51 732.24 Z"
     id="path6986" />
  <path
     fill="#000000"
     d=" M 467.76 727.13 C 468.77 727.36 470.22 727.01 470.59 728.35 C 472.53 731.74 474.26 735.26 476.33 738.59 C 478.05 741.58 480.27 744.42 480.92 747.90 C 480.46 748.30 479.55 749.09 479.10 749.49 C 476.62 749.46 474.14 749.44 471.67 749.44 C 470.91 757.95 471.99 766.60 470.01 775.00 C 469.47 776.43 467.89 776.37 466.63 776.45 C 436.09 776.63 405.54 776.37 375.00 776.30 C 370.30 776.10 365.72 777.39 361.03 777.35 C 345.67 777.59 330.32 777.70 314.96 777.76 C 307.35 778.67 299.67 778.03 292.04 778.66 C 286.04 779.11 279.82 777.82 274.01 779.84 C 272.07 780.47 270.03 780.57 268.01 780.56 C 254.67 780.47 241.33 780.53 227.99 780.43 C 220.63 780.21 213.37 781.77 206.00 781.42 C 198.08 782.46 190.08 782.35 182.10 782.41 C 169.76 782.14 157.42 782.49 145.08 782.24 C 145.07 777.48 145.34 772.72 146.03 768.01 C 147.34 758.88 147.52 749.64 147.22 740.44 L 147.20 740.03 C 146.90 736.22 146.58 732.38 147.44 728.63 C 148.42 728.64 150.38 728.66 151.36 728.68 C 151.37 732.62 151.26 736.57 150.72 740.49 C 150.69 740.81 150.62 741.44 150.59 741.76 C 150.05 746.81 150.22 751.90 150.12 756.98 C 149.74 763.94 149.54 770.94 150.27 777.88 C 156.82 776.87 163.44 777.40 170.01 776.86 C 181.34 776.99 192.64 776.01 203.96 776.22 C 223.30 775.34 242.67 775.87 262.03 775.72 C 265.99 775.58 270.05 776.15 273.92 775.07 C 278.82 773.62 283.98 774.36 289.01 774.18 C 302.67 773.18 316.38 773.36 330.07 773.19 C 344.04 772.13 358.15 773.55 372.07 771.68 C 403.81 771.32 435.57 772.43 467.29 771.35 C 468.33 764.12 468.39 756.82 468.68 749.54 C 466.28 749.20 463.43 750.00 461.45 748.24 C 460.87 745.76 462.28 743.47 463.32 741.34 C 465.67 736.93 467.35 732.13 467.76 727.13 Z"
     id="path6988" />
  <path
     fill="#dd4e0c"
     d=" M 863.23 730.15 C 871.17 729.86 879.13 730.00 887.05 729.21 C 888.82 729.19 890.81 728.65 892.43 729.68 C 893.76 735.24 892.81 741.06 892.85 746.72 C 888.11 747.43 883.34 747.86 878.59 748.41 C 880.18 752.45 884.68 750.68 887.68 749.51 C 888.38 750.16 889.09 750.82 889.82 751.50 C 890.91 751.73 893.52 750.72 892.76 752.77 C 886.65 753.23 880.51 753.15 874.40 753.30 C 874.63 751.34 876.84 750.45 878.05 749.10 C 872.70 748.57 867.38 749.37 862.10 750.13 C 861.75 743.45 861.67 736.69 863.23 730.15 Z"
     id="path6990" />
  <path
     fill="#0e0e0d"
     d=" M 438.01 736.19 C 439.94 735.85 441.52 734.24 443.57 734.45 C 444.47 737.70 440.73 739.24 438.10 739.22 C 428.05 739.02 418.01 739.70 407.97 739.68 C 399.52 740.15 390.98 740.66 382.54 740.06 C 382.31 739.58 381.85 738.62 381.62 738.15 C 386.43 738.23 391.23 738.70 396.05 738.86 C 399.02 739.40 402.07 739.37 405.08 739.08 C 411.73 738.44 418.49 739.10 425.09 737.83 C 429.36 737.00 433.71 736.78 438.01 736.19 Z"
     id="path6992" />
  <path
     fill="#0d0d0d"
     d=" M 1096.41 738.37 C 1097.58 737.61 1098.89 737.18 1100.28 736.97 C 1100.33 737.58 1100.44 738.80 1100.50 739.41 C 1097.25 742.14 1092.87 741.07 1089.00 741.31 C 1084.62 741.22 1080.38 742.49 1076.03 742.55 C 1064.67 742.78 1053.30 742.41 1041.95 742.87 C 1038.94 743.00 1035.32 742.73 1034.10 739.45 C 1038.45 739.79 1042.56 741.69 1047.00 741.55 C 1063.50 741.69 1080.29 742.72 1096.41 738.37 Z"
     id="path6994" />
  <path
     fill="#030303"
     d=" M 497.52 741.32 C 496.20 741.05 496.49 739.61 496.40 738.64 C 501.17 740.02 506.14 740.15 510.98 741.08 C 512.75 741.26 514.53 741.39 516.32 741.53 C 514.19 741.56 512.07 741.68 509.95 741.83 C 505.81 741.60 501.58 742.22 497.52 741.32 Z"
     id="path6996" />
  <path
     fill="#363635"
     d=" M 150.72 740.49 C 172.11 740.58 193.52 740.80 214.90 739.94 C 217.10 739.86 219.30 739.90 221.50 740.05 C 217.96 740.66 214.39 741.06 210.83 741.47 C 211.21 741.64 211.99 741.97 212.37 742.13 C 204.26 742.56 196.16 741.59 188.05 741.69 C 175.56 741.78 163.08 741.63 150.59 741.76 C 150.62 741.44 150.69 740.81 150.72 740.49 Z"
     id="path6998" />
  <path
     fill="#030303"
     d=" M 927.48 740.72 C 931.77 741.25 935.99 742.31 940.33 742.47 C 940.04 742.72 939.45 743.24 939.16 743.49 C 935.33 743.58 931.50 743.90 927.68 743.53 C 927.63 742.83 927.53 741.42 927.48 740.72 Z"
     id="path7000" />
  <path
     fill="#10100f"
     d=" M 994.50 742.38 C 998.23 742.17 1001.96 741.66 1005.46 740.30 C 1005.59 741.35 1005.71 742.42 1005.85 743.50 C 1003.42 744.20 1000.84 744.48 998.42 743.67 C 997.10 743.24 995.80 742.78 994.50 742.38 Z"
     id="path7002" />
  <path
     fill="#050505"
     d=" M 41.61 741.26 C 46.04 741.97 50.48 742.72 54.98 742.74 L 54.56 743.99 C 50.18 744.24 45.67 744.87 41.39 743.56 C 41.44 742.98 41.55 741.83 41.61 741.26 Z"
     id="path7004" />
  <path
     fill="#60605e"
     d=" M 54.98 742.74 C 71.28 742.23 87.66 743.43 103.93 741.84 C 118.35 741.07 132.78 740.45 147.22 740.44 C 147.52 749.64 147.34 758.88 146.03 768.01 C 145.34 772.72 145.07 777.48 145.08 782.24 C 157.42 782.49 169.76 782.14 182.10 782.41 C 169.48 782.94 156.84 782.52 144.22 782.64 C 144.41 776.22 144.87 769.82 145.80 763.47 C 146.91 756.33 146.72 749.09 146.78 741.89 C 128.83 742.15 110.88 742.76 92.98 744.13 C 80.18 744.14 67.35 744.44 54.56 743.99 L 54.98 742.74 Z"
     id="path7006" />
  <path
     fill="#5b5b59"
     d=" M 940.33 742.47 C 941.57 741.43 943.45 742.04 944.96 741.90 C 961.46 742.64 978.03 741.71 994.50 742.38 C 995.80 742.78 997.10 743.24 998.42 743.67 C 978.67 743.51 958.90 743.86 939.16 743.49 C 939.45 743.24 940.04 742.72 940.33 742.47 Z"
     id="path7008" />
  <path
     fill="#010101"
     d=" M 816.55 748.69 C 816.86 748.80 817.50 749.02 817.82 749.13 C 818.99 751.35 816.04 753.02 814.10 752.67 C 803.38 752.49 792.67 753.10 781.95 752.81 C 766.16 752.32 750.36 752.24 734.57 752.48 C 734.55 752.10 734.55 751.73 734.56 751.37 C 745.36 751.59 756.16 751.24 766.96 751.39 C 772.64 751.44 778.26 750.38 783.96 750.60 C 791.64 750.30 799.37 751.22 807.02 750.05 C 810.18 749.48 813.60 750.28 816.55 748.69 Z"
     id="path7010" />
  <text
     xml:space="preserve"
     style="font-style:normal;font-variant:normal;font-weight:normal;font-stretch:condensed;font-size:46px;line-height:125%;font-family:'Gill Sans MT Condensed';-inkscape-font-specification:'Gill Sans MT Condensed, Condensed';letter-spacing:0px;word-spacing:0px;fill:#0f37fe;fill-opacity:1;stroke:none;stroke-width:1px;stroke-linecap:butt;stroke-linejoin:miter;stroke-opacity:1;"
     x="64.216072"
     y="133.01906"
     id="text7558"
     sodipodi:linespacing="125%"><tspan
       sodipodi:role="line"
       id="tspan7560"
       x="64.216072"
       y="133.01906">Aplicacin</tspan></text>
  <text
     xml:space="preserve"
     style="font-style:normal;font-variant:normal;font-weight:normal;font-stretch:condensed;font-size:46px;line-height:125%;font-family:'Gill Sans MT Condensed';-inkscape-font-specification:'Gill Sans MT Condensed, Condensed';letter-spacing:0px;word-spacing:0px;fill:#0f37fe;fill-opacity:1;stroke:none;stroke-width:1px;stroke-linecap:butt;stroke-linejoin:miter;stroke-opacity:1"
     x="934.94928"
     y="128.41484"
     id="text7558-5"
     sodipodi:linespacing="125%"><tspan
       sodipodi:role="line"
       id="tspan7560-3"
       x="934.94928"
       y="128.41484">Aplicacin</tspan></text>
  <text
     xml:space="preserve"
     style="font-style:normal;font-variant:normal;font-weight:normal;font-stretch:condensed;font-size:42px;line-height:125%;font-family:'Gill Sans MT Condensed';-inkscape-font-specification:'Gill Sans MT Condensed, Condensed';letter-spacing:0px;word-spacing:0px;fill:#0f37fe;fill-opacity:1;stroke:none;stroke-width:1px;stroke-linecap:butt;stroke-linejoin:miter;stroke-opacity:1"
     x="79.957726"
     y="402.70932"
     id="text7558-1"
     sodipodi:linespacing="125%"><tspan
       sodipodi:role="line"
       id="tspan7560-2"
       x="79.957726"
       y="402.70932">Transporte</tspan></text>
  <text
     xml:space="preserve"
     style="font-style:normal;font-variant:normal;font-weight:normal;font-stretch:condensed;font-size:42px;line-height:125%;font-family:'Gill Sans MT Condensed';-inkscape-font-specification:'Gill Sans MT Condensed, Condensed';letter-spacing:0px;word-spacing:0px;fill:#0f37fe;fill-opacity:1;stroke:none;stroke-width:1px;stroke-linecap:butt;stroke-linejoin:miter;stroke-opacity:1"
     x="941.66107"
     y="411.73987"
     id="text7558-1-4"
     sodipodi:linespacing="125%"><tspan
       sodipodi:role="line"
       id="tspan7560-2-2"
       x="941.66107"
       y="411.73987">Transporte</tspan></text>
  <text
     xml:space="preserve"
     style="font-style:normal;font-variant:normal;font-weight:normal;font-stretch:condensed;font-size:48px;line-height:125%;font-family:'Gill Sans MT Condensed';-inkscape-font-specification:'Gill Sans MT Condensed, Condensed';letter-spacing:0px;word-spacing:0px;fill:#0f37fe;fill-opacity:1;stroke:none;stroke-width:1px;stroke-linecap:butt;stroke-linejoin:miter;stroke-opacity:1"
     x="103.18227"
     y="687.86914"
     id="text7558-1-0"
     sodipodi:linespacing="125%"><tspan
       sodipodi:role="line"
       id="tspan7560-2-9"
       x="103.18227"
       y="687.86914">Acceso</tspan></text>
  <text
     xml:space="preserve"
     style="font-style:normal;font-variant:normal;font-weight:normal;font-stretch:condensed;font-size:48px;line-height:125%;font-family:'Gill Sans MT Condensed';-inkscape-font-specification:'Gill Sans MT Condensed, Condensed';letter-spacing:0px;word-spacing:0px;fill:#0f37fe;fill-opacity:1;stroke:none;stroke-width:1px;stroke-linecap:butt;stroke-linejoin:miter;stroke-opacity:1"
     x="426.58163"
     y="683.6795"
     id="text7558-1-0-2"
     sodipodi:linespacing="125%"><tspan
       sodipodi:role="line"
       id="tspan7560-2-9-4"
       x="426.58163"
       y="683.6795">Acceso</tspan></text>
  <text
     xml:space="preserve"
     style="font-style:normal;font-variant:normal;font-weight:normal;font-stretch:condensed;font-size:48px;line-height:125%;font-family:'Gill Sans MT Condensed';-inkscape-font-specification:'Gill Sans MT Condensed, Condensed';letter-spacing:0px;word-spacing:0px;fill:#0f37fe;fill-opacity:1;stroke:none;stroke-width:1px;stroke-linecap:butt;stroke-linejoin:miter;stroke-opacity:1"
     x="688.0329"
     y="691.01849"
     id="text7558-1-0-6"
     sodipodi:linespacing="125%"><tspan
       sodipodi:role="line"
       id="tspan7560-2-9-7"
       x="688.0329"
       y="691.01849">Acceso</tspan></text>
  <text
     xml:space="preserve"
     style="font-style:normal;font-variant:normal;font-weight:normal;font-stretch:condensed;font-size:48px;line-height:125%;font-family:'Gill Sans MT Condensed';-inkscape-font-specification:'Gill Sans MT Condensed, Condensed';letter-spacing:0px;word-spacing:0px;fill:#0f37fe;fill-opacity:1;stroke:none;stroke-width:1px;stroke-linecap:butt;stroke-linejoin:miter;stroke-opacity:1"
     x="967.83167"
     y="686.43164"
     id="text7558-1-0-23"
     sodipodi:linespacing="125%"><tspan
       sodipodi:role="line"
       id="tspan7560-2-9-0"
       x="967.83167"
       y="686.43164">Acceso</tspan></text>
  <text
     xml:space="preserve"
     style="font-style:normal;font-weight:normal;font-size:64px;line-height:125%;font-family:sans-serif;letter-spacing:0px;word-spacing:0px;fill:#000000;fill-opacity:1;stroke:none;stroke-width:1px;stroke-linecap:butt;stroke-linejoin:miter;stroke-opacity:1"
     x="415.56992"
     y="261.45126"
     id="text7648"
     sodipodi:linespacing="125%"><tspan
       sodipodi:role="line"
       id="tspan7650"
       x="415.56992"
       y="261.45126"></tspan></text>
</svg>
