<?xml version="1.0" encoding="UTF-8" ?>
<!DOCTYPE svg PUBLIC "-//W3C//DTD SVG 1.1//EN" "http://www.w3.org/Graphics/SVG/1.1/DTD/svg11.dtd">
<svg width="1155pt" height="866pt" viewBox="0 0 1155 866" version="1.1" xmlns="http://www.w3.org/2000/svg">
<path fill="#f5f4f0" d=" M 0.00 0.00 L 1155.00 0.00 L 1155.00 866.00 L 0.00 866.00 L 0.00 0.00 Z" />
<path fill="#595957" d=" M 1033.55 133.33 C 1034.65 132.07 1035.63 134.43 1036.63 134.75 C 1035.01 136.07 1033.30 137.60 1031.06 137.37 C 1014.67 137.58 998.35 139.02 981.98 139.67 C 975.30 140.02 968.63 140.64 961.98 141.32 C 958.97 141.44 955.58 142.18 953.10 140.02 C 962.42 140.25 971.66 138.70 980.96 138.32 C 994.98 137.77 1008.96 136.46 1022.99 136.18 C 1026.64 135.98 1030.90 136.42 1033.55 133.33 Z" />
<path fill="#595957" d=" M 838.93 143.79 C 859.97 143.57 880.96 141.73 902.01 141.39 C 917.68 141.07 933.35 141.04 949.02 140.41 C 950.84 140.10 952.44 140.92 953.87 141.98 C 939.91 142.11 925.94 142.71 911.97 142.64 C 885.28 142.91 858.65 145.01 831.97 145.45 C 818.61 146.00 805.27 146.98 791.90 147.32 C 787.94 147.38 783.96 148.42 780.02 147.81 L 779.22 146.87 L 779.83 145.64 C 782.86 144.99 785.96 145.79 789.02 145.74 C 805.68 145.71 822.28 144.10 838.93 143.79 Z" />
<path fill="#5c5b5a" d=" M 1036.30 145.59 C 1040.70 145.50 1043.13 149.56 1043.16 153.53 C 1044.64 181.40 1041.72 209.25 1039.49 237.00 C 1039.26 251.39 1037.42 265.67 1036.62 280.03 C 1036.10 295.72 1034.93 311.39 1032.91 326.95 C 1031.49 339.02 1029.48 351.02 1028.49 363.13 C 1026.84 382.04 1025.97 401.01 1025.45 419.98 C 1025.45 450.68 1022.08 481.25 1021.01 511.92 C 1018.49 554.24 1019.33 596.66 1019.18 639.04 C 1019.08 640.69 1018.90 642.34 1018.64 643.99 C 1018.45 643.37 1018.08 642.12 1017.89 641.50 C 1017.37 617.03 1017.81 592.51 1017.73 568.02 C 1018.03 529.82 1020.55 491.69 1022.84 453.57 C 1024.31 436.73 1023.62 419.81 1024.62 402.96 C 1024.88 390.59 1025.87 378.26 1026.72 365.93 C 1028.49 345.89 1032.09 326.06 1033.68 306.00 C 1034.96 291.00 1034.95 275.91 1036.61 260.94 C 1037.83 249.97 1037.69 238.92 1038.73 227.94 C 1040.11 212.31 1041.39 196.66 1041.88 180.97 C 1042.31 172.31 1042.41 163.60 1041.52 154.96 C 1041.27 151.16 1038.32 148.53 1036.30 145.59 Z" />
<path fill="#1f1f1e" d=" M 789.80 150.21 C 790.44 150.29 791.73 150.45 792.37 150.53 C 793.12 154.64 793.36 158.81 793.34 162.98 C 793.50 190.32 793.42 217.67 793.45 245.02 C 793.43 247.02 793.77 249.00 793.96 250.99 C 793.60 250.96 792.89 250.91 792.54 250.88 L 792.44 250.89 C 792.41 221.60 792.55 192.32 792.28 163.03 C 792.33 158.63 791.14 154.36 789.80 150.21 Z" />
<path fill="#0c0c0c" d=" M 893.55 209.54 C 911.47 204.07 930.42 204.00 948.98 204.58 C 954.31 204.77 959.60 205.55 964.80 206.71 C 966.44 209.41 969.82 209.17 972.53 209.84 C 977.60 210.75 981.53 214.45 985.04 217.96 C 987.11 219.72 986.46 222.57 986.37 224.95 C 985.69 247.64 984.49 270.50 987.74 293.05 C 988.56 299.04 990.48 304.88 990.71 310.95 C 990.69 320.31 992.30 329.62 991.62 338.99 C 987.13 344.16 984.75 350.94 979.47 355.47 C 968.76 365.43 953.98 368.69 939.94 370.58 C 931.58 370.74 923.17 370.47 914.89 369.29 C 907.44 368.22 900.41 365.03 894.35 360.62 C 889.42 357.71 884.77 354.22 881.14 349.76 C 879.78 348.20 879.60 346.03 879.42 344.07 C 879.08 338.11 878.54 332.16 878.23 326.21 C 878.25 325.45 878.28 323.93 878.30 323.18 C 878.40 322.94 878.58 322.46 878.68 322.22 C 879.51 327.49 880.25 332.77 881.17 338.03 C 881.76 341.36 881.57 344.91 882.98 348.06 C 886.70 353.76 893.14 356.61 898.50 360.50 C 903.91 364.33 910.23 366.83 916.79 367.83 C 932.34 369.94 948.52 368.91 963.23 363.13 C 970.07 359.80 976.86 355.71 981.52 349.53 C 984.71 345.10 987.62 340.36 989.22 335.11 C 989.68 330.44 989.30 325.73 989.01 321.06 C 988.44 315.69 989.15 310.27 988.36 304.92 C 985.96 292.10 984.06 279.07 984.51 265.99 C 984.88 253.63 984.51 241.26 984.24 228.90 C 967.47 237.25 948.61 240.27 930.05 240.76 L 930.40 239.66 C 927.84 239.59 925.37 240.17 922.90 240.64 C 919.26 240.51 915.59 240.73 912.01 240.00 C 899.43 237.97 886.35 236.82 874.76 231.15 C 874.17 248.42 873.49 265.81 875.70 282.99 C 876.42 289.40 877.07 295.82 877.54 302.25 C 877.26 303.36 876.99 304.47 876.72 305.59 C 876.38 294.01 874.74 282.53 873.59 271.01 C 873.04 260.34 873.67 249.65 873.14 238.99 C 872.14 234.61 873.33 229.99 871.71 225.73 C 872.87 222.01 875.36 218.77 878.77 216.83 C 883.53 214.10 888.38 211.43 893.55 209.54 Z" />
<path fill="#f5f4f0" d=" M 903.26 208.04 C 916.95 204.91 931.05 205.26 944.99 205.46 C 950.95 205.44 956.76 206.94 962.45 208.61 C 962.74 209.03 963.31 209.88 963.60 210.30 C 971.44 210.11 979.16 213.66 983.66 220.14 C 985.71 223.98 982.76 228.49 979.25 230.26 C 965.66 236.43 950.69 238.76 935.91 239.66 C 927.29 239.38 918.60 240.38 910.06 238.90 C 901.90 237.77 893.76 236.42 885.82 234.21 C 881.71 232.35 876.76 231.02 874.27 226.93 C 874.00 222.48 877.61 219.20 880.94 216.86 C 887.63 212.35 895.28 209.26 903.26 208.04 Z" />
<path fill="#dc4601" d=" M 743.02 229.53 C 746.51 224.55 751.10 219.60 750.77 213.07 C 755.79 215.59 758.43 220.85 762.36 224.64 C 766.12 229.78 771.34 233.83 774.36 239.47 C 766.70 241.23 758.76 240.31 751.00 241.23 C 746.55 241.46 742.31 242.86 737.98 243.70 C 736.24 244.18 735.16 242.55 735.59 240.97 C 737.37 237.38 740.00 234.31 742.05 230.88 C 725.12 227.39 708.36 222.54 690.99 221.81 C 671.71 221.26 652.35 221.61 633.22 224.31 C 622.81 224.63 612.42 225.38 602.01 225.51 C 580.46 227.88 558.99 231.97 538.52 239.25 C 533.51 240.96 528.25 241.91 523.41 244.11 C 518.10 246.49 512.83 248.97 507.70 251.72 C 491.64 260.32 475.78 269.40 461.07 280.20 C 459.50 281.59 457.42 281.81 455.42 281.96 C 455.38 281.47 455.30 280.49 455.26 279.99 C 460.83 279.58 465.29 275.95 469.87 273.14 C 482.16 264.77 495.22 257.63 508.29 250.57 C 516.93 246.12 525.70 241.71 535.22 239.49 C 550.78 234.18 566.69 229.69 583.00 227.42 C 592.27 225.88 601.60 224.25 611.03 224.47 C 622.70 224.23 634.38 223.65 645.96 222.06 C 651.92 221.10 657.99 221.73 663.98 221.00 C 674.63 220.32 685.33 220.63 695.96 221.47 C 712.06 221.16 727.27 227.17 743.02 229.53 Z" />
<path fill="#f5f4f0" d=" M 930.05 240.76 C 948.61 240.27 967.47 237.25 984.24 228.90 C 984.51 241.26 984.88 253.63 984.51 265.99 C 984.06 279.07 985.96 292.10 988.36 304.92 C 989.15 310.27 988.44 315.69 989.01 321.06 C 989.30 325.73 989.68 330.44 989.22 335.11 C 987.62 340.36 984.71 345.10 981.52 349.53 C 976.86 355.71 970.07 359.80 963.23 363.13 C 948.52 368.91 932.34 369.94 916.79 367.83 C 910.23 366.83 903.91 364.33 898.50 360.50 C 893.14 356.61 886.70 353.76 882.98 348.06 C 881.57 344.91 881.76 341.36 881.17 338.03 C 880.25 332.77 879.51 327.49 878.68 322.22 C 878.32 315.56 878.29 308.88 877.54 302.25 C 877.07 295.82 876.42 289.40 875.70 282.99 C 873.49 265.81 874.17 248.42 874.76 231.15 C 886.35 236.82 899.43 237.97 912.01 240.00 C 915.59 240.73 919.26 240.51 922.90 240.64 C 925.37 240.17 927.84 239.59 930.40 239.66 L 930.05 240.76 Z" />
<path fill="#191919" d=" M 365.29 236.44 C 381.82 235.54 398.41 236.09 414.97 235.45 C 420.83 234.73 426.72 234.04 432.64 234.50 C 434.13 240.88 433.24 247.48 433.56 253.96 C 433.29 267.13 435.09 280.24 434.48 293.41 C 434.37 294.14 434.17 295.61 434.07 296.34 C 433.91 295.23 433.76 294.11 433.70 293.00 C 433.34 285.71 433.66 278.39 433.16 271.11 C 431.97 259.90 433.45 248.50 431.28 237.38 C 421.86 237.07 412.41 237.68 403.00 236.81 C 391.26 236.57 379.51 236.74 367.76 236.91 C 368.59 246.59 369.35 256.30 369.18 266.03 C 369.07 271.59 370.50 277.05 370.28 282.61 C 369.99 283.89 369.71 285.17 369.43 286.45 C 369.34 285.58 369.15 283.85 369.05 282.98 C 367.25 273.74 367.53 264.32 367.57 254.96 C 367.71 248.71 366.48 242.55 365.29 236.44 Z" />
<path fill="#ebae90" d=" M 771.26 246.16 C 772.57 246.78 772.59 247.47 771.32 248.22 C 770.00 247.59 769.98 246.90 771.26 246.16 Z" />
<path fill="#0f37fe" d=" M 782.77 251.81 C 785.96 251.03 789.29 251.33 792.54 250.88 L 792.33 251.86 L 793.18 252.22 C 793.37 251.91 793.76 251.30 793.96 250.99 C 799.75 249.84 805.56 252.12 811.03 253.82 C 820.62 256.87 828.03 265.22 830.11 275.04 C 831.78 289.25 828.85 304.46 819.95 315.92 C 813.07 323.71 803.41 330.93 792.46 329.77 C 792.05 329.75 791.24 329.70 790.83 329.67 C 782.50 328.63 774.53 324.32 769.06 317.93 C 765.40 313.54 763.18 308.20 760.68 303.12 C 757.26 304.45 753.65 305.43 749.96 305.29 C 736.91 305.43 723.87 306.33 711.02 308.61 C 705.07 309.83 698.97 309.14 692.98 309.90 C 683.34 310.88 673.78 312.77 664.05 312.60 C 644.66 314.58 625.24 316.50 605.99 319.68 C 598.05 321.14 589.97 321.50 581.98 322.58 C 557.23 326.58 532.34 329.94 507.86 335.49 C 494.89 338.93 481.42 339.75 468.24 341.98 C 465.05 347.16 462.65 352.94 458.35 357.37 C 452.70 362.74 445.39 366.98 437.34 366.58 C 437.32 365.56 437.30 364.55 437.29 363.54 C 444.62 364.25 451.28 360.15 456.37 355.28 C 460.32 350.99 463.18 345.78 465.34 340.39 C 469.75 333.05 469.87 324.24 469.52 315.95 C 469.24 312.79 467.44 309.96 465.31 307.70 C 456.66 300.22 445.03 297.58 433.93 296.45 C 425.76 295.35 418.89 301.09 413.22 306.19 C 403.28 315.13 399.48 330.99 406.11 342.93 C 409.07 348.07 412.04 353.55 417.12 356.92 C 422.55 361.17 429.28 363.95 436.28 363.53 C 436.31 364.29 436.36 365.80 436.38 366.56 C 426.35 366.84 417.00 361.66 410.24 354.59 C 405.17 347.35 399.50 339.38 400.24 330.07 C 399.49 319.56 404.99 309.51 412.78 302.79 C 418.55 297.58 425.60 292.82 433.70 293.00 C 433.76 294.11 433.91 295.23 434.07 296.34 C 434.17 295.61 434.37 294.14 434.48 293.41 C 441.85 294.36 449.14 296.00 456.12 298.60 C 459.47 299.80 462.33 302.03 465.71 303.17 C 467.10 303.65 468.51 304.10 469.93 304.55 C 469.17 304.64 467.65 304.83 466.89 304.92 C 467.47 305.63 468.06 306.36 468.64 307.09 C 473.67 312.92 472.72 320.92 472.12 328.01 C 471.70 331.97 470.52 335.78 469.22 339.52 C 479.85 338.31 490.67 338.82 501.13 336.32 C 525.16 330.48 549.65 326.86 574.06 323.11 C 584.83 320.87 595.89 320.82 606.69 318.79 C 626.36 315.65 646.18 313.56 666.00 311.70 C 678.75 311.80 691.21 308.43 703.95 308.50 C 713.16 308.58 721.79 304.58 730.95 304.21 C 740.56 303.61 750.20 302.97 759.68 301.17 C 756.22 290.26 759.22 278.72 762.49 268.15 C 747.05 269.77 731.53 269.90 716.02 269.66 C 702.11 269.16 688.67 273.40 674.93 274.72 C 667.58 275.85 660.22 276.90 652.81 277.42 C 625.81 281.16 599.02 286.44 572.00 290.14 C 558.98 290.94 546.15 293.47 533.23 295.17 C 525.41 296.16 517.72 297.87 509.95 299.16 L 508.15 298.97 C 524.87 295.09 541.98 293.38 558.89 290.60 C 581.39 288.90 603.50 284.23 625.77 280.85 C 633.74 279.27 641.85 278.56 649.81 276.94 C 666.97 275.38 684.06 272.96 701.00 269.76 C 708.70 269.22 716.32 267.75 724.05 267.62 C 737.38 267.54 750.91 268.11 764.01 265.19 C 768.31 258.52 775.38 254.25 782.77 251.81 Z" />
<path fill="#293b93" d=" M 792.54 250.88 C 792.89 250.91 793.60 250.96 793.96 250.99 C 793.76 251.30 793.37 251.91 793.18 252.22 L 792.33 251.86 L 792.54 250.88 Z" />
<path fill="#dd500f" d=" M 395.64 252.66 C 396.14 252.58 397.15 252.42 397.65 252.34 C 397.71 261.50 397.89 270.67 397.64 279.84 C 397.07 279.86 395.92 279.89 395.35 279.91 C 395.37 275.86 395.48 271.81 395.51 267.77 C 388.72 267.32 381.91 267.34 375.13 267.80 C 375.14 267.22 375.17 266.07 375.18 265.49 C 381.89 266.91 388.78 266.43 395.58 266.08 C 395.71 261.60 395.61 257.13 395.64 252.66 Z" />
<path fill="#f5f4f0" d=" M 768.26 263.86 C 772.61 259.42 778.17 256.20 784.13 254.47 C 789.37 253.73 794.69 254.83 799.94 253.95 C 807.48 255.12 815.30 257.66 820.74 263.27 C 824.11 266.68 826.28 271.17 827.29 275.84 C 828.69 289.09 826.08 303.16 817.89 313.92 C 813.08 319.52 807.03 324.28 799.86 326.39 C 790.70 328.36 780.97 325.12 774.09 318.95 C 768.89 314.44 766.21 307.92 763.27 301.87 C 758.00 291.16 762.26 279.03 765.43 268.36 C 766.66 267.96 767.91 267.57 769.16 267.18 C 768.85 266.07 768.55 264.96 768.26 263.86 Z" />
<path fill="#f5f4f0" d=" M 716.02 269.66 C 731.53 269.90 747.05 269.77 762.49 268.15 C 759.22 278.72 756.22 290.26 759.68 301.17 C 750.20 302.97 740.56 303.61 730.95 304.21 C 721.79 304.58 713.16 308.58 703.95 308.50 C 691.21 308.43 678.75 311.80 666.00 311.70 C 646.18 313.56 626.36 315.65 606.69 318.79 C 595.89 320.82 584.83 320.87 574.06 323.11 C 549.65 326.86 525.16 330.48 501.13 336.32 C 490.67 338.82 479.85 338.31 469.22 339.52 C 470.52 335.78 471.70 331.97 472.12 328.01 C 472.72 320.92 473.67 312.92 468.64 307.09 L 467.60 305.54 C 472.62 305.28 477.66 304.83 482.55 303.59 C 491.56 301.37 500.90 301.14 509.95 299.16 C 517.72 297.87 525.41 296.16 533.23 295.17 C 546.15 293.47 558.98 290.94 572.00 290.14 C 599.02 286.44 625.81 281.16 652.81 277.42 C 660.22 276.90 667.58 275.85 674.93 274.72 C 688.67 273.40 702.11 269.16 716.02 269.66 Z" />
<path fill="#0f37fe" d=" M 780.06 271.00 C 782.17 268.91 785.04 270.06 787.51 270.68 C 789.28 276.41 787.41 282.45 784.23 287.30 C 787.23 291.22 789.97 295.81 789.46 300.96 C 789.82 303.82 787.56 306.35 784.83 306.82 C 781.90 307.35 778.31 308.27 775.76 306.26 C 773.05 303.59 773.35 299.46 773.34 295.97 C 773.14 291.83 776.11 288.64 778.26 285.44 C 776.55 280.76 776.57 274.85 780.06 271.00 Z" />
<path fill="#f5f4f0" d=" M 781.76 273.70 C 782.50 272.04 784.22 273.14 785.54 273.25 C 785.40 277.54 784.00 281.61 782.02 285.38 C 781.12 283.65 780.28 281.90 779.51 280.13 C 780.13 277.95 780.51 275.63 781.76 273.70 Z" />
<path fill="#0f37fe" d=" M 799.44 282.07 C 800.31 278.62 803.35 276.52 805.80 274.21 C 808.52 274.71 811.95 274.75 813.55 277.44 C 818.14 284.19 816.15 293.15 813.20 300.15 C 811.53 303.27 810.08 307.61 806.07 308.24 C 801.80 308.27 797.19 305.43 796.52 300.99 C 796.05 294.56 797.62 288.19 799.44 282.07 Z" />
<path fill="#f5f4f0" d=" M 802.48 282.32 C 803.35 279.73 806.03 278.58 808.06 277.07 C 814.02 279.37 813.67 286.72 812.87 291.95 C 811.75 296.81 809.88 301.92 806.19 305.43 C 803.18 305.25 799.48 303.41 799.42 299.99 C 799.23 293.98 800.49 287.96 802.48 282.32 Z" />
<path fill="#13b824" d=" M 907.86 278.69 C 908.48 278.36 909.72 277.68 910.34 277.35 C 910.92 278.74 911.60 280.25 910.86 281.74 C 909.00 287.89 906.20 293.72 904.81 300.02 C 904.55 302.34 902.62 303.73 900.87 304.97 C 898.36 300.13 897.98 294.60 896.75 289.38 C 894.45 293.91 894.06 299.03 892.62 303.83 C 892.08 303.76 891.02 303.63 890.49 303.56 C 886.16 296.97 883.78 289.28 882.56 281.53 C 883.52 281.36 884.49 281.20 885.48 281.04 C 886.68 286.96 887.78 293.04 890.93 298.30 C 892.14 293.20 893.54 288.09 895.87 283.37 C 896.39 283.46 897.42 283.65 897.93 283.75 C 900.03 288.49 900.49 293.71 901.66 298.72 C 903.34 291.92 906.14 285.48 907.86 278.69 Z" />
<path fill="#13b824" d=" M 969.95 300.38 C 972.48 293.25 973.77 285.75 975.77 278.50 C 979.50 277.41 978.89 281.81 978.46 284.09 C 977.13 289.84 975.42 295.50 973.71 301.15 C 973.02 303.24 971.76 306.43 968.97 305.43 C 965.80 301.19 965.70 295.66 964.25 290.74 C 962.93 295.29 962.43 300.15 960.21 304.38 C 957.38 306.29 956.00 302.64 955.30 300.52 C 953.41 294.56 951.28 288.47 951.45 282.13 C 952.18 282.17 953.65 282.26 954.39 282.30 C 954.59 288.74 956.32 295.01 958.66 300.98 C 960.22 295.42 961.18 289.59 963.80 284.40 C 964.35 284.51 965.46 284.72 966.01 284.83 C 967.75 289.90 968.12 295.33 969.95 300.38 Z" />
<path fill="#13b824" d=" M 943.99 281.46 C 945.25 281.47 946.50 281.48 947.78 281.52 C 946.53 289.28 943.70 296.66 941.42 304.14 C 940.92 306.22 939.13 309.06 936.77 307.28 C 933.44 302.38 933.68 296.09 932.04 290.56 C 930.68 295.01 929.59 299.54 928.13 303.95 C 927.52 304.42 926.29 305.35 925.67 305.82 C 923.00 302.75 922.05 298.73 920.99 294.92 C 919.89 290.82 918.76 286.73 918.03 282.55 C 918.71 282.50 920.07 282.40 920.75 282.35 C 922.80 288.53 923.61 295.06 925.98 301.16 C 927.68 296.02 928.73 290.70 930.36 285.55 C 930.63 284.06 931.87 283.16 932.99 282.27 C 935.65 288.97 935.47 296.39 938.00 303.15 C 940.18 295.98 942.51 288.82 943.99 281.46 Z" />
<path fill="#60605e" d=" M 370.28 282.61 C 371.32 289.35 370.42 296.19 370.73 302.97 C 371.39 314.66 370.72 326.36 370.60 338.05 C 370.32 337.63 369.77 336.78 369.49 336.36 C 368.60 319.79 369.11 303.05 369.43 286.45 C 369.71 285.17 369.99 283.89 370.28 282.61 Z" />
<path fill="#de5212" d=" M 376.68 288.33 C 380.80 288.39 384.85 289.47 388.99 289.22 C 391.85 289.26 394.89 288.59 397.50 290.14 C 394.47 290.80 391.36 290.57 388.29 290.45 C 388.31 294.03 388.62 297.62 388.36 301.19 C 385.88 302.75 386.39 299.30 385.98 298.07 C 385.83 295.47 386.14 292.88 386.18 290.29 C 383.48 290.23 380.78 290.22 378.08 290.30 C 377.05 295.29 377.15 300.39 377.29 305.45 C 376.38 305.45 375.47 305.45 374.57 305.45 C 374.65 299.69 375.21 293.91 376.68 288.33 Z" />
<path fill="#f5f4f0" d=" M 778.68 289.64 C 779.04 288.70 780.55 287.47 781.34 288.71 C 785.27 292.48 787.24 297.85 786.45 303.28 C 783.57 304.05 780.61 304.49 777.64 304.62 C 775.75 299.84 775.35 293.89 778.68 289.64 Z" />
<path fill="#de5212" d=" M 397.06 291.02 C 397.46 290.59 398.27 289.73 398.67 289.30 C 398.87 294.70 398.46 300.09 398.55 305.49 C 397.99 305.47 396.87 305.41 396.31 305.39 C 396.51 300.60 396.31 295.76 397.06 291.02 Z" />
<path fill="#f5f4f0" d=" M 413.22 306.19 C 418.89 301.09 425.76 295.35 433.93 296.45 C 445.03 297.58 456.66 300.22 465.31 307.70 C 467.44 309.96 469.24 312.79 469.52 315.95 C 469.87 324.24 469.75 333.05 465.34 340.39 C 463.18 345.78 460.32 350.99 456.37 355.28 C 451.28 360.15 444.62 364.25 437.29 363.54 L 436.28 363.53 C 429.28 363.95 422.55 361.17 417.12 356.92 C 412.04 353.55 409.07 348.07 406.11 342.93 C 399.48 330.99 403.28 315.13 413.22 306.19 Z" />
<path fill="#4564fb" d=" M 480.80 302.75 C 489.78 300.77 498.96 299.25 508.15 298.97 L 509.95 299.16 C 500.90 301.14 491.56 301.37 482.55 303.59 C 477.66 304.83 472.62 305.28 467.60 305.54 L 468.64 307.09 C 468.06 306.36 467.47 305.63 466.89 304.92 C 467.65 304.83 469.17 304.64 469.93 304.55 C 468.51 304.10 467.10 303.65 465.71 303.17 C 470.73 303.32 475.84 303.94 480.80 302.75 Z" />
<path fill="#dd4e0c" d=" M 300.39 305.36 C 304.05 303.99 307.23 301.19 311.29 301.11 C 308.96 306.48 302.29 307.64 297.30 309.40 C 294.28 311.88 291.54 314.88 287.96 316.63 C 287.50 316.23 286.56 315.44 286.09 315.04 C 290.20 310.98 294.88 307.29 300.39 305.36 Z" />
<path fill="#61605e" d=" M 877.54 302.25 C 878.29 308.88 878.32 315.56 878.68 322.22 C 878.58 322.46 878.40 322.94 878.30 323.18 C 878.28 323.93 878.25 325.45 878.23 326.21 C 876.57 319.50 876.31 312.45 876.72 305.59 C 876.99 304.47 877.26 303.36 877.54 302.25 Z" />
<path fill="#dd4e0c" d=" M 298.15 312.94 C 296.16 311.20 299.22 310.65 299.53 309.16 C 301.62 311.81 302.42 315.14 303.69 318.21 C 305.86 324.13 309.97 329.06 312.53 334.80 C 311.99 335.13 310.90 335.80 310.36 336.14 C 305.44 328.87 301.44 321.06 298.15 312.94 Z" />
<path fill="#0f37fe" d=" M 424.51 311.70 C 426.91 309.73 429.96 310.92 432.57 311.65 C 433.43 317.28 430.17 322.32 426.19 325.95 C 430.84 329.53 434.18 335.08 434.15 341.06 C 433.77 344.97 429.41 346.41 426.08 346.68 C 423.88 346.79 421.17 347.36 419.47 345.57 C 416.25 342.76 415.04 338.12 415.83 334.00 C 416.59 330.69 419.11 328.24 421.18 325.69 C 419.78 320.93 420.00 314.72 424.51 311.70 Z" />
<path fill="#f5f4f0" d=" M 426.17 314.10 C 427.12 313.90 429.03 313.50 429.99 313.30 C 429.60 317.76 426.77 321.35 423.50 324.14 C 423.32 320.67 422.88 316.35 426.17 314.10 Z" />
<path fill="#0f37fe" d=" M 447.33 314.49 C 450.22 313.93 453.75 313.76 456.02 315.99 C 459.76 319.14 458.98 324.73 457.57 328.85 C 455.32 333.81 452.50 338.80 448.21 342.27 C 443.78 345.77 436.69 342.43 435.67 337.12 C 435.72 331.18 439.15 326.11 441.93 321.12 C 443.41 318.69 444.15 315.21 447.33 314.49 Z" />
<path fill="#df5d20" d=" M 374.60 320.98 C 374.47 318.62 376.41 316.05 378.98 316.95 C 384.59 317.82 390.26 317.48 395.91 317.72 L 396.08 319.45 C 389.78 320.00 383.48 318.91 377.17 319.31 C 376.12 325.71 376.40 332.22 376.30 338.68 C 375.71 338.65 374.53 338.59 373.94 338.56 C 373.34 332.69 374.26 326.83 374.60 320.98 Z" />
<path fill="#f5f4f0" d=" M 439.59 331.84 C 441.92 326.42 444.96 321.24 449.04 316.94 C 451.55 317.10 454.80 317.37 455.60 320.30 C 456.92 327.43 452.12 333.71 447.78 338.81 C 445.95 341.32 441.95 341.42 439.96 339.06 C 437.68 337.23 438.82 334.14 439.59 331.84 Z" />
<path fill="#dd4e0c" d=" M 349.82 318.62 C 355.09 320.43 360.64 321.60 365.50 324.42 C 365.53 325.39 365.58 326.36 365.63 327.34 C 361.21 331.36 357.48 336.09 352.99 340.04 C 352.08 341.08 350.60 340.61 349.42 340.77 C 349.66 337.44 349.80 334.11 349.83 330.78 C 343.55 332.69 337.46 335.16 331.34 337.50 C 319.55 342.50 309.62 350.87 299.95 359.08 C 296.43 362.82 292.78 366.49 289.71 370.61 C 285.15 377.72 279.59 384.21 275.87 391.84 C 273.39 397.19 270.64 402.47 269.11 408.20 C 266.58 417.63 263.54 427.11 263.51 436.97 C 263.49 439.57 263.58 442.34 261.87 444.52 C 260.75 438.95 262.43 433.38 263.35 427.92 C 265.30 416.89 267.87 405.84 272.88 395.76 C 276.48 387.78 281.57 380.63 286.32 373.33 C 290.06 366.95 294.89 361.27 299.99 355.96 C 310.06 348.24 319.68 339.39 331.77 334.92 C 337.79 332.80 343.54 329.85 349.81 328.44 C 349.72 325.17 349.58 321.88 349.82 318.62 Z" />
<path fill="#dd4e0c" d=" M 271.89 322.92 C 273.31 321.80 274.55 319.77 276.65 320.37 C 277.14 322.75 274.97 324.15 273.47 325.54 C 270.34 328.19 267.06 330.64 263.85 333.20 C 266.25 336.78 268.37 340.55 270.85 344.08 C 272.96 342.12 274.42 339.50 276.67 337.71 C 277.25 337.93 278.40 338.37 278.97 338.59 C 277.19 341.48 275.09 344.16 272.73 346.61 C 275.33 350.23 277.90 353.97 281.33 356.86 C 284.94 352.63 287.19 347.42 290.91 343.27 C 293.18 342.90 294.03 345.01 292.49 346.53 C 288.68 351.36 285.83 357.05 281.00 361.00 C 275.16 355.09 269.87 348.55 265.59 341.41 C 263.77 338.35 261.24 335.82 259.04 333.05 C 263.26 329.59 267.90 326.66 271.89 322.92 Z" />
<path fill="#e37a48" d=" M 360.21 325.03 C 361.84 324.50 362.40 325.04 361.90 326.67 C 360.27 327.20 359.70 326.65 360.21 325.03 Z" />
<path fill="#f5f4f0" d=" M 418.79 334.03 C 419.74 331.46 421.76 329.53 423.63 327.62 C 427.94 330.78 431.29 335.57 431.28 341.08 C 429.34 344.05 425.20 343.88 422.08 343.75 C 418.88 341.85 417.92 337.46 418.79 334.03 Z" />
<path fill="#13b824" d=" M 762.26 328.76 C 763.22 327.57 765.51 329.02 764.61 330.37 C 763.64 331.46 761.32 330.10 762.26 328.76 Z" />
<path fill="#60605e" d=" M 790.83 329.67 C 791.24 329.70 792.05 329.75 792.46 329.77 C 791.37 354.92 789.56 380.03 787.39 405.11 C 786.09 430.38 786.54 455.71 786.39 481.01 C 786.28 510.68 786.62 540.36 786.15 570.03 C 785.88 580.08 784.79 590.09 783.70 600.09 C 782.69 609.70 783.80 619.42 782.61 629.01 L 781.98 626.94 C 781.22 621.99 781.87 616.94 781.75 611.95 C 781.72 597.59 784.59 583.40 784.58 569.04 C 785.41 519.36 784.27 469.65 785.29 419.97 C 785.50 405.28 787.32 390.68 788.20 376.02 C 789.08 360.57 790.66 345.15 790.83 329.67 Z" />
<path fill="#040403" d=" M 369.49 336.36 C 369.77 336.78 370.32 337.63 370.60 338.05 C 370.49 347.40 371.91 356.71 371.14 366.06 C 370.60 370.36 371.69 374.68 371.02 378.98 C 369.65 389.54 371.13 400.24 369.76 410.79 C 369.27 421.85 369.58 432.93 369.77 443.99 C 370.59 449.46 370.50 455.04 371.84 460.42 C 371.24 460.43 370.05 460.44 369.45 460.44 C 365.78 444.21 368.77 427.54 368.69 411.10 C 368.80 400.77 367.83 390.38 369.26 380.10 C 370.14 365.54 368.94 350.93 369.49 336.36 Z" />
<path fill="#de5211" d=" M 375.09 344.02 C 381.97 345.08 388.90 345.90 395.87 345.46 C 395.85 345.79 395.81 346.44 395.79 346.77 C 389.10 350.26 383.57 355.58 377.98 360.57 C 384.00 362.74 390.37 363.81 396.77 363.78 C 396.76 364.31 396.74 365.39 396.73 365.92 C 389.63 364.50 382.43 363.66 375.34 362.16 C 374.91 358.76 378.37 357.33 380.64 355.65 C 384.37 353.30 387.74 350.46 390.87 347.37 C 385.74 346.66 380.57 346.72 375.41 346.58 C 375.33 345.94 375.17 344.66 375.09 344.02 Z" />
<path fill="#dd4e0c" d=" M 239.58 356.94 C 239.81 352.62 242.59 348.88 245.89 346.30 C 246.45 346.43 247.56 346.68 248.11 346.80 C 247.12 350.36 243.27 352.36 242.66 356.09 C 242.19 360.34 241.80 364.72 242.57 368.96 C 245.04 375.97 252.96 380.05 260.17 379.23 C 266.70 377.73 270.78 366.43 263.93 362.94 C 260.91 361.44 260.50 366.07 258.91 367.64 C 256.02 366.85 257.38 363.37 258.72 361.74 C 260.84 359.11 262.55 355.76 265.93 354.57 C 265.71 356.15 265.45 357.74 265.16 359.31 C 267.17 361.22 269.51 363.12 270.19 365.95 C 271.35 372.22 268.01 379.51 261.87 381.80 C 252.91 383.80 242.52 378.41 239.69 369.52 C 238.78 365.39 239.31 361.11 239.58 356.94 Z" />
<path fill="#13b824" d=" M 760.80 352.74 C 763.50 350.66 765.88 347.44 769.58 347.28 C 769.84 347.73 770.38 348.62 770.65 349.06 C 763.06 352.49 757.31 358.65 750.45 363.19 C 745.06 366.82 740.20 371.17 734.77 374.74 C 725.50 380.83 716.06 386.63 706.90 392.87 C 696.76 399.79 686.05 405.91 674.83 410.90 C 679.06 407.56 684.17 405.65 688.85 403.04 C 701.46 396.26 712.84 387.48 725.09 380.09 C 737.88 372.20 749.63 362.76 760.80 352.74 Z" />
<path fill="#10100f" d=" M 436.28 363.53 L 437.29 363.54 C 437.30 364.55 437.32 365.56 437.34 366.58 C 437.98 390.39 436.54 414.29 439.15 438.01 C 439.33 443.60 439.36 449.20 439.41 454.79 C 438.69 454.75 437.25 454.68 436.53 454.64 C 437.52 445.41 436.94 436.18 436.23 426.96 C 436.64 406.83 436.68 386.69 436.38 366.56 C 436.36 365.80 436.31 364.29 436.28 363.53 Z" />
<path fill="#de5212" d=" M 374.56 374.22 C 380.11 373.91 385.45 375.80 390.98 375.98 C 393.29 376.27 397.10 375.92 397.48 379.07 C 397.65 384.33 397.75 389.59 398.28 394.84 C 397.67 394.66 396.43 394.30 395.81 394.12 C 395.47 388.98 395.50 383.82 395.24 378.68 C 392.28 378.31 389.32 377.94 386.37 377.56 C 385.63 382.82 387.03 388.34 385.04 393.40 C 382.73 388.35 384.27 382.62 383.83 377.26 C 381.39 376.95 378.94 376.65 376.50 376.40 C 375.37 382.44 375.93 388.57 375.67 394.67 C 374.39 393.84 373.37 392.69 373.83 391.06 C 374.45 385.45 373.32 379.77 374.56 374.22 Z" />
<path fill="#010101" d=" M 982.00 394.24 C 982.23 393.48 982.69 391.97 982.92 391.21 C 984.80 392.06 986.00 393.59 986.31 395.65 C 943.22 395.66 900.11 395.75 857.01 395.86 C 850.02 395.86 843.03 395.60 836.06 396.22 C 828.25 396.15 820.45 396.39 812.65 396.53 C 812.62 395.93 812.58 394.75 812.55 394.16 C 826.62 396.32 840.87 394.95 855.03 395.26 C 881.37 395.15 907.71 395.14 934.05 395.17 C 945.37 394.93 956.73 395.65 968.02 394.69 C 972.68 394.63 977.36 394.89 982.00 394.24 Z" />
<path fill="#de5212" d=" M 394.81 403.91 C 397.64 405.69 396.66 409.21 396.82 411.98 C 396.52 416.77 397.35 421.53 397.19 426.32 C 396.59 426.60 395.40 427.17 394.80 427.46 C 394.73 423.82 394.82 420.18 394.94 416.54 C 386.91 416.92 378.87 416.40 370.84 416.74 C 370.59 416.18 370.11 415.06 369.86 414.51 C 378.30 414.64 386.74 415.00 395.18 414.72 C 394.85 411.13 394.61 407.52 394.81 403.91 Z" />
<path fill="#13b824" d=" M 634.90 413.53 C 635.10 412.54 635.32 411.55 635.54 410.56 C 645.41 412.43 655.31 414.13 665.18 415.91 C 667.12 418.72 664.64 421.80 662.92 423.98 C 658.54 429.17 655.51 435.27 651.94 440.99 C 651.29 441.20 650.01 441.61 649.36 441.81 C 649.93 437.61 652.57 434.19 654.68 430.65 C 657.22 426.41 660.32 422.53 663.24 418.55 C 653.78 416.94 644.35 415.13 634.90 413.53 Z" />
<path fill="#020202" d=" M 950.37 414.55 C 955.25 414.44 960.14 414.52 965.02 414.36 C 968.92 414.21 972.77 413.08 976.70 413.45 C 976.67 414.05 976.61 415.26 976.57 415.86 C 969.60 415.68 962.63 414.97 955.65 415.45 C 953.84 415.42 952.05 415.19 950.37 414.55 Z" />
<path fill="#1f1f1e" d=" M 884.97 419.31 C 903.95 417.41 922.99 416.44 942.01 415.13 C 945.38 414.74 948.96 413.94 952.24 415.25 C 929.53 417.17 906.75 418.02 884.06 420.37 C 865.42 420.85 846.76 420.63 828.11 420.36 C 824.86 420.02 820.28 420.61 819.15 416.61 C 823.38 417.71 827.53 419.38 831.98 419.31 C 849.64 419.65 867.31 419.84 884.97 419.31 Z" />
<path fill="#13b824" d=" M 611.12 417.77 C 612.12 417.60 613.13 417.45 614.15 417.31 C 616.33 422.17 618.47 427.08 619.84 432.26 C 621.82 439.97 625.01 447.31 626.71 455.10 C 633.73 451.84 640.20 447.42 647.45 444.70 C 647.54 445.37 647.72 446.71 647.81 447.37 C 640.04 451.11 632.79 455.98 624.67 458.92 C 622.44 449.35 619.18 440.08 616.33 430.69 C 614.96 426.23 612.78 422.10 611.12 417.77 Z" />
<path fill="#13b824" d=" M 600.08 420.02 C 600.42 418.73 602.08 419.42 603.04 419.21 C 604.43 429.48 606.80 439.66 610.80 449.24 C 613.09 454.16 615.77 458.97 616.91 464.34 C 616.28 464.43 615.03 464.61 614.41 464.70 C 612.35 459.49 610.21 454.32 607.85 449.24 C 604.92 441.58 602.58 433.69 601.02 425.63 C 598.33 431.66 596.10 437.89 593.08 443.77 C 588.44 443.73 586.37 438.81 583.29 436.12 C 586.84 447.07 591.12 457.76 595.26 468.50 C 596.18 470.19 595.52 472.78 593.24 471.25 C 588.20 457.83 582.74 444.53 578.46 430.84 C 578.83 430.49 579.58 429.79 579.96 429.44 C 584.84 431.97 587.56 436.97 591.53 440.58 C 594.41 433.73 597.47 426.97 600.08 420.02 Z" />
<path fill="#0bb61d" d=" M 558.27 438.19 C 562.90 436.27 566.89 433.09 571.59 431.31 C 571.51 432.00 571.34 433.40 571.26 434.09 C 568.00 436.40 564.43 438.23 560.95 440.18 C 563.92 450.57 566.43 461.17 570.88 471.07 C 571.80 473.16 572.57 475.32 573.22 477.52 C 572.59 477.59 571.32 477.72 570.69 477.79 C 565.18 466.15 562.06 453.64 557.97 441.49 C 554.29 442.85 550.62 444.81 546.58 444.44 C 546.58 443.82 546.59 442.57 546.60 441.95 C 550.56 440.94 554.54 439.91 558.27 438.19 Z" />
<path fill="#020202" d=" M 964.02 444.14 C 971.65 443.29 979.35 444.03 987.01 443.39 C 988.71 442.88 989.93 444.03 991.17 445.04 C 987.73 447.47 983.78 444.33 980.02 444.58 C 963.33 444.65 946.63 444.80 929.94 444.81 C 922.02 444.58 914.14 445.52 906.23 445.39 C 895.14 445.68 884.03 445.21 872.97 446.18 C 858.17 446.45 843.35 446.28 828.55 446.50 C 828.53 445.95 828.50 444.84 828.48 444.29 C 843.88 446.40 859.49 445.07 874.99 445.36 C 886.98 444.35 899.02 444.64 911.04 444.45 C 928.70 443.94 946.36 444.25 964.02 444.14 Z" />
<path fill="#13b824" d=" M 535.53 444.41 C 536.23 444.47 537.63 444.59 538.33 444.65 C 542.40 450.11 544.65 456.69 547.18 462.95 C 549.19 469.22 552.38 475.02 554.53 481.23 C 553.88 481.52 552.58 482.08 551.93 482.36 C 549.81 476.64 547.35 471.05 544.96 465.44 C 540.97 467.31 537.03 469.28 533.09 471.24 C 535.34 477.42 538.46 483.32 540.11 489.70 C 539.84 490.30 539.30 491.52 539.03 492.12 C 535.47 488.49 535.49 483.04 533.16 478.72 C 529.03 470.06 526.57 460.51 521.13 452.54 C 521.34 451.93 521.74 450.69 521.95 450.08 C 523.50 451.16 525.36 452.13 525.99 454.08 C 527.95 458.76 529.87 463.46 531.82 468.15 C 535.94 466.49 539.99 464.63 543.94 462.58 C 541.92 456.16 538.00 450.62 535.53 444.41 Z" />
<path fill="#de5211" d=" M 246.93 448.43 C 252.77 448.32 258.85 448.47 264.30 450.82 C 268.72 452.73 272.07 456.32 275.15 459.90 C 278.99 464.23 280.38 469.98 282.73 475.14 C 285.53 480.97 284.81 487.61 284.45 493.86 C 282.76 506.09 278.52 518.15 271.00 528.05 C 268.13 531.56 264.56 534.53 260.42 536.44 C 259.91 536.67 258.89 537.13 258.38 537.36 C 250.95 540.68 242.39 540.14 234.63 538.40 C 222.77 535.74 215.66 524.05 212.56 513.12 C 210.09 499.54 212.34 484.94 219.15 472.87 C 224.01 465.39 229.59 458.11 237.03 453.01 C 240.03 450.89 243.74 450.21 246.93 448.43 Z" />
<path fill="#f5f4f0" d=" M 237.28 454.18 C 239.93 452.47 243.05 451.81 245.94 450.63 C 254.39 450.43 264.18 451.08 270.17 457.88 C 275.68 462.63 278.18 469.62 280.97 476.11 C 282.88 480.49 282.69 485.31 282.70 489.98 C 283.33 501.36 278.39 512.12 272.81 521.74 C 269.80 527.27 265.02 531.61 259.60 534.72 L 259.32 534.15 C 255.58 526.07 250.63 518.57 247.59 510.18 C 246.86 508.29 245.78 506.56 244.67 504.89 C 244.49 493.92 244.27 482.80 246.89 472.07 C 247.08 470.15 248.47 466.96 245.88 466.15 C 241.70 465.42 237.42 466.09 233.22 466.39 C 234.47 481.31 230.83 496.08 231.20 510.99 C 231.03 516.32 231.88 521.62 231.81 526.96 C 231.88 529.73 231.47 532.73 232.98 535.24 C 236.79 535.86 240.68 535.57 244.52 535.46 C 245.69 526.79 244.52 518.03 244.76 509.32 C 249.44 517.85 252.57 527.16 257.65 535.47 C 248.42 538.42 237.81 538.54 229.08 533.97 C 220.64 529.04 216.21 519.63 213.66 510.58 C 212.37 497.90 213.82 484.50 219.97 473.17 C 224.68 466.02 229.89 458.79 237.28 454.18 Z" />
<path fill="#070707" d=" M 426.13 458.47 C 431.73 456.91 437.62 457.31 443.37 457.28 C 442.81 458.33 442.65 459.87 441.23 460.13 C 436.63 460.44 431.97 459.77 427.42 460.68 C 420.74 462.33 413.75 461.74 407.03 463.09 C 401.70 463.80 396.39 464.94 390.98 464.62 C 383.40 464.34 375.78 465.41 368.23 464.44 C 371.57 462.75 375.44 463.90 379.01 463.41 C 388.51 462.39 398.25 463.47 407.54 460.82 C 413.60 458.97 420.08 460.32 426.13 458.47 Z" />
<path fill="#13b824" d=" M 497.35 478.21 C 503.01 473.24 506.51 466.35 511.99 461.24 C 512.40 461.68 513.21 462.54 513.62 462.98 C 509.57 468.62 505.16 474.01 500.81 479.44 C 509.54 482.20 518.05 485.60 526.74 488.49 C 526.70 489.14 526.63 490.44 526.59 491.09 C 516.71 488.88 507.67 483.89 497.67 482.10 C 497.56 480.80 497.45 479.50 497.35 478.21 Z" />
<path fill="#1f1f1e" d=" M 233.22 466.39 C 237.42 466.09 241.70 465.42 245.88 466.15 C 248.47 466.96 247.08 470.15 246.89 472.07 C 244.27 482.80 244.49 493.92 244.67 504.89 C 245.78 506.56 246.86 508.29 247.59 510.18 C 250.63 518.57 255.58 526.07 259.32 534.15 L 258.96 535.26 L 257.65 535.47 C 252.57 527.16 249.44 517.85 244.76 509.32 C 244.52 518.03 245.69 526.79 244.52 535.46 C 240.68 535.57 236.79 535.86 232.98 535.24 C 231.47 532.73 231.88 529.73 231.81 526.96 C 231.88 521.62 231.03 516.32 231.20 510.99 C 230.83 496.08 234.47 481.31 233.22 466.39 Z" />
<path fill="#020202" d=" M 967.86 468.73 C 972.48 468.43 977.38 469.53 981.78 467.71 C 982.92 468.11 984.07 468.50 985.22 468.94 C 983.24 472.00 979.73 469.72 976.95 469.71 C 957.30 469.23 937.66 470.37 918.00 470.68 C 904.74 472.36 891.31 470.91 878.03 472.23 C 860.58 472.50 843.13 472.56 825.68 472.40 C 825.64 471.81 825.56 470.63 825.52 470.04 C 829.32 470.59 833.10 471.51 836.98 471.45 C 856.38 471.67 875.79 471.59 895.17 470.76 C 909.48 471.00 923.70 469.17 938.01 469.38 C 947.98 469.57 957.89 468.39 967.86 468.73 Z" />
<path fill="#f5f4f0" d=" M 235.53 468.25 C 238.67 468.20 241.82 468.14 244.96 468.26 C 243.76 489.94 242.34 511.62 242.49 533.34 C 239.81 533.22 237.14 533.07 234.48 532.84 C 232.35 520.71 231.88 508.27 233.28 496.04 C 234.00 486.78 236.67 477.59 235.53 468.25 Z" />
<path fill="#030303" d=" M 155.69 488.67 C 158.54 486.48 161.78 484.07 165.62 484.67 C 164.20 486.23 162.05 486.57 160.28 487.61 C 161.86 487.54 163.29 486.89 164.83 486.70 C 167.56 487.20 171.19 487.38 172.38 490.40 C 174.03 498.76 168.35 506.46 161.99 511.19 C 157.44 514.82 151.31 513.33 146.18 512.03 C 144.11 514.50 143.14 519.82 138.95 518.57 C 140.77 515.91 143.05 513.54 144.47 510.62 C 143.70 501.84 149.42 494.16 155.69 488.67 Z" />
<path fill="#13b824" d=" M 474.90 489.86 C 481.46 488.99 487.93 487.02 494.61 487.35 C 485.58 489.02 476.47 490.24 467.48 492.18 C 456.42 493.32 445.58 495.92 434.54 497.22 C 425.08 498.75 415.48 499.00 406.03 500.59 C 392.44 502.88 378.62 502.36 364.92 503.20 C 352.15 503.30 339.39 503.62 326.63 503.70 C 326.02 507.46 325.60 511.25 324.98 515.01 C 324.72 516.42 323.79 518.55 322.00 518.14 C 314.10 516.51 308.03 510.79 301.61 506.32 C 299.91 505.32 298.95 503.58 298.05 501.91 C 302.71 500.26 306.76 497.32 311.39 495.60 C 316.82 493.41 322.09 490.87 327.39 488.38 C 329.60 492.65 327.37 497.25 326.99 501.67 C 345.49 501.64 364.00 503.31 382.48 501.63 C 395.13 501.90 407.52 499.04 420.09 498.13 C 430.48 497.06 440.88 495.76 451.14 493.76 C 459.03 492.26 467.09 491.82 474.90 489.86 Z" />
<path fill="#f5f4f0" d=" M 154.71 490.71 C 156.05 490.35 158.05 486.91 158.88 488.98 C 159.07 492.08 161.54 490.10 163.12 489.35 C 165.49 489.52 168.61 488.78 170.18 491.08 C 171.72 498.91 166.42 506.15 160.14 510.19 C 156.65 512.18 152.26 511.56 148.66 510.20 C 145.09 507.74 147.00 503.19 147.76 499.79 C 148.00 499.29 148.49 498.28 148.73 497.77 C 150.63 495.34 152.61 492.97 154.71 490.71 Z" />
<path fill="#5e5e5c" d=" M 885.88 501.76 C 908.26 500.91 930.65 500.54 953.04 500.38 C 956.84 500.40 960.70 500.08 964.47 500.81 C 965.52 501.04 966.59 501.28 967.67 501.51 C 962.12 502.18 956.53 501.71 950.96 501.82 C 929.80 501.93 908.64 502.37 887.49 503.21 C 868.52 503.95 849.55 505.89 830.55 505.32 L 830.60 503.80 C 849.05 504.22 867.47 502.61 885.88 501.76 Z" />
<path fill="#171717" d=" M 964.47 500.81 C 969.45 500.74 974.43 501.13 979.41 501.30 C 979.53 501.93 979.76 503.17 979.87 503.79 C 975.76 503.27 971.86 501.65 967.67 501.51 C 966.59 501.28 965.52 501.04 964.47 500.81 Z" />
<path fill="#1f1f1e" d=" M 819.25 503.50 C 823.03 503.03 826.82 503.64 830.60 503.80 L 830.55 505.32 C 826.76 505.02 822.54 505.84 819.25 503.50 Z" />
<path fill="#080808" d=" M 100.43 517.42 C 102.37 518.30 104.22 519.54 105.27 521.46 C 110.16 530.44 111.31 540.88 111.17 550.96 C 111.11 558.29 110.20 565.99 105.95 572.19 C 104.55 572.59 103.16 573.02 101.75 573.37 C 100.53 563.39 100.64 553.34 100.50 543.31 C 97.91 548.21 95.38 553.38 95.28 559.04 C 95.14 567.78 94.35 577.21 99.11 585.00 C 100.37 586.59 102.04 587.79 103.57 589.11 C 103.61 586.85 103.57 584.60 103.55 582.35 C 104.05 582.37 105.03 582.42 105.53 582.44 C 105.78 585.68 105.95 588.96 106.86 592.10 C 106.15 593.03 105.44 593.97 104.74 594.92 C 104.24 593.73 103.73 592.56 103.21 591.39 C 96.63 588.26 93.79 580.89 93.20 574.06 C 93.18 565.01 93.40 555.74 96.43 547.11 C 97.41 544.52 98.66 541.95 100.71 540.04 C 101.54 532.49 100.39 524.98 100.43 517.42 Z" />
<path fill="#0b0b0b" d=" M 130.99 517.23 C 138.45 518.83 145.79 521.14 152.95 523.78 C 152.60 525.39 152.18 526.97 151.66 528.54 C 155.88 534.01 159.97 539.58 164.04 545.15 C 166.62 545.55 169.23 545.17 171.83 545.23 L 171.53 546.18 L 171.16 546.93 C 169.02 547.90 166.39 547.75 164.08 547.48 C 161.60 546.94 160.81 544.26 159.85 542.26 C 157.73 537.47 153.89 533.77 150.24 530.14 C 148.34 533.09 146.28 535.95 144.62 539.05 C 145.53 544.30 147.80 549.26 148.76 554.54 C 157.11 553.85 164.82 549.95 172.82 547.67 C 174.23 547.52 175.64 547.39 177.05 547.28 C 175.68 546.93 174.25 546.71 172.99 546.06 C 172.80 545.75 172.43 545.14 172.25 544.83 C 176.95 544.84 181.86 543.91 186.41 545.57 C 187.76 545.91 188.94 544.69 190.14 544.23 C 194.22 541.71 198.72 540.01 203.27 538.54 C 205.87 541.59 205.46 545.84 205.20 549.56 L 203.82 551.04 C 202.84 547.87 202.83 544.52 202.47 541.26 C 196.92 543.20 191.52 545.57 186.39 548.44 C 183.00 550.28 179.88 553.44 175.67 552.70 C 176.60 550.89 178.59 550.33 180.19 549.35 C 170.59 549.93 161.48 553.16 152.48 556.32 C 150.19 557.09 146.25 557.25 146.08 554.00 C 145.50 549.49 144.92 544.97 143.99 540.51 C 139.44 545.20 138.43 551.85 136.76 557.89 C 135.97 565.45 137.15 572.92 138.96 580.24 C 137.06 580.89 135.18 581.60 133.31 582.32 C 134.28 582.87 135.25 583.42 136.22 584.00 C 126.55 584.10 116.99 586.03 107.32 585.75 C 107.39 585.26 107.54 584.29 107.61 583.80 C 110.34 583.78 113.07 583.76 115.81 583.82 C 115.42 581.54 115.12 579.25 115.15 576.94 C 115.06 569.93 113.98 562.81 115.51 555.88 C 116.62 550.81 117.91 545.77 119.78 540.92 C 121.91 535.62 123.23 529.98 126.02 524.97 C 127.48 522.23 130.56 520.50 130.99 517.23 Z" />
<path fill="#f5f4f0" d=" M 127.04 527.14 C 128.68 524.39 130.67 520.97 133.97 520.18 C 139.59 521.57 144.98 523.79 150.56 525.36 C 148.46 529.26 146.32 533.14 143.82 536.80 C 143.05 534.31 142.43 531.71 140.73 529.67 C 139.87 532.71 141.89 535.31 142.68 538.09 C 141.71 540.80 139.71 543.02 138.76 545.76 C 137.57 549.15 136.81 552.67 136.05 556.18 C 134.78 563.59 133.58 571.53 136.44 578.75 C 130.56 581.40 124.03 581.69 117.69 581.77 C 115.78 569.24 115.20 555.90 119.79 543.84 C 122.03 538.20 124.45 532.63 127.04 527.14 Z" />
<path fill="#f5f4f0" d=" M 102.81 521.40 C 106.64 529.00 108.85 537.45 108.63 545.99 C 108.68 554.18 109.44 563.58 103.98 570.37 C 102.17 558.66 102.69 546.81 102.44 535.02 C 102.39 530.48 102.46 525.93 102.81 521.40 Z" />
<path fill="#0a0a0a" d=" M 887.06 534.36 C 915.05 533.86 943.07 534.74 971.06 533.46 C 972.97 533.12 973.71 534.45 973.25 536.24 C 969.78 536.95 966.31 535.47 962.92 534.87 C 952.93 534.36 942.92 535.06 932.92 534.81 C 917.30 534.91 901.67 534.53 886.07 535.24 C 873.66 535.37 861.25 535.27 848.85 535.76 C 841.27 536.82 833.61 536.41 825.99 536.81 C 824.05 536.94 822.09 536.77 820.21 536.30 C 821.70 535.57 823.32 535.17 824.99 535.39 C 832.38 535.85 839.78 535.48 847.18 535.27 C 860.39 533.85 873.77 534.63 887.06 534.36 Z" />
<path fill="#050505" d=" M 258.38 537.36 C 258.89 537.13 259.91 536.67 260.42 536.44 C 262.09 539.84 263.88 543.28 264.56 547.06 C 264.88 549.52 261.97 550.30 260.07 550.50 C 252.04 550.80 244.01 551.21 235.98 551.53 C 245.32 551.84 254.67 551.65 264.01 551.98 C 267.53 552.30 271.06 551.97 274.57 551.74 C 274.29 554.48 274.00 557.22 273.54 559.95 C 273.34 561.25 272.61 562.95 271.01 562.75 C 265.76 563.05 260.50 562.60 255.28 562.12 C 255.27 574.01 256.22 585.86 256.66 597.73 C 256.09 598.48 255.52 599.23 254.95 599.98 C 254.82 590.11 253.44 580.29 253.46 570.42 C 253.97 566.79 253.67 563.14 252.50 559.68 C 252.72 559.65 253.14 559.59 253.35 559.56 C 259.25 560.67 265.26 560.53 271.24 560.44 C 271.37 558.41 271.49 556.38 271.61 554.36 C 242.74 554.56 213.86 553.69 185.01 554.85 C 180.09 555.39 175.14 555.63 170.18 555.74 C 170.27 557.30 170.35 558.85 170.45 560.42 C 179.56 561.84 188.83 561.29 198.01 561.26 L 197.89 562.48 C 195.68 562.53 193.47 562.63 191.27 562.73 C 191.94 567.76 192.07 572.85 192.61 577.91 C 193.24 584.58 192.33 591.30 193.15 597.96 C 193.54 606.50 193.47 615.07 194.77 623.54 C 194.07 622.58 193.38 621.63 192.74 620.65 C 192.21 615.43 192.53 610.18 192.39 604.95 C 192.34 600.28 191.37 595.69 191.35 591.02 C 191.32 581.55 189.19 572.24 189.38 562.76 C 187.46 562.78 185.55 562.80 183.65 562.81 C 183.86 568.52 183.55 574.24 183.66 579.95 C 183.58 582.74 183.39 585.53 183.31 588.33 C 182.52 579.82 182.91 571.22 181.56 562.78 C 177.24 563.34 172.83 563.42 168.61 562.22 C 168.12 559.39 168.08 556.51 168.32 553.66 C 172.91 553.53 177.53 553.66 182.08 552.91 C 188.00 551.92 194.00 552.71 199.95 552.54 C 210.11 552.10 220.28 552.13 230.45 552.19 C 230.77 551.72 231.42 550.78 231.74 550.31 C 241.58 548.55 251.90 550.03 261.66 547.82 C 262.18 544.07 259.64 540.73 258.38 537.36 Z" />
<path fill="#8e8d8b" d=" M 182.22 546.89 C 183.68 546.52 184.13 547.01 183.55 548.36 C 182.09 548.73 181.64 548.24 182.22 546.89 Z" />
<path fill="#f5f4f0" d=" M 185.01 554.85 C 213.86 553.69 242.74 554.56 271.61 554.36 C 271.49 556.38 271.37 558.41 271.24 560.44 C 265.26 560.53 259.25 560.67 253.35 559.56 C 253.14 559.59 252.72 559.65 252.50 559.68 L 251.29 559.87 C 240.55 561.24 229.74 559.18 218.98 559.94 C 212.00 560.60 205.01 560.96 198.01 561.26 C 188.83 561.29 179.56 561.84 170.45 560.42 C 170.35 558.85 170.27 557.30 170.18 555.74 C 175.14 555.63 180.09 555.39 185.01 554.85 Z" />
<path fill="#1d1c1c" d=" M 869.89 559.90 C 875.91 559.54 881.96 559.76 887.95 558.87 C 906.29 558.23 924.66 558.31 943.01 558.54 C 952.03 558.69 961.07 557.97 970.07 558.94 C 973.62 559.40 977.20 559.02 980.78 559.21 C 980.71 559.92 980.59 561.35 980.52 562.06 C 976.25 561.42 972.05 560.30 967.72 560.17 L 967.19 559.75 C 954.48 558.80 941.73 559.29 929.00 559.19 C 914.05 559.23 899.10 559.22 884.17 559.76 C 877.94 561.29 871.39 559.63 865.18 561.28 C 861.13 561.47 857.08 561.47 853.07 562.05 C 845.75 562.59 838.38 562.17 831.10 563.12 C 828.51 563.45 825.89 563.56 823.30 563.34 C 824.64 562.28 826.25 561.54 828.01 561.65 C 835.34 561.57 842.67 561.27 850.00 561.43 C 852.32 561.49 854.65 561.35 856.92 560.79 C 861.25 560.59 865.59 560.54 869.89 559.90 Z" />
<path fill="#171717" d=" M 198.01 561.26 C 205.01 560.96 212.00 560.60 218.98 559.94 C 229.74 559.18 240.55 561.24 251.29 559.87 L 252.50 559.68 C 253.67 563.14 253.97 566.79 253.46 570.42 C 253.15 567.69 252.93 564.96 252.70 562.24 C 251.88 562.19 250.24 562.10 249.42 562.05 C 251.07 569.17 250.26 576.54 251.26 583.74 C 251.53 592.70 251.67 601.69 251.59 610.66 C 251.37 612.53 251.09 614.39 250.88 616.28 C 250.00 598.24 251.57 579.91 247.67 562.12 C 237.45 562.52 227.26 561.62 217.04 561.73 C 210.68 562.35 204.28 562.64 197.89 562.48 L 198.01 561.26 Z" />
<path fill="#f5f4f0" d=" M 183.65 562.81 C 185.55 562.80 187.46 562.78 189.38 562.76 C 189.19 572.24 191.32 581.55 191.35 591.02 C 191.37 595.69 192.34 600.28 192.39 604.95 C 192.53 610.18 192.21 615.43 192.74 620.65 C 192.97 624.87 192.91 629.11 192.57 633.34 C 191.30 633.05 190.04 632.76 188.78 632.49 C 188.48 628.39 188.42 624.28 187.98 620.20 C 186.56 606.78 184.98 593.38 183.66 579.95 C 183.55 574.24 183.86 568.52 183.65 562.81 Z" />
<path fill="#030303" d=" M 142.09 580.90 C 148.51 582.16 154.85 579.71 161.28 580.36 C 162.33 588.05 161.05 595.84 162.00 603.55 C 162.47 610.82 162.77 618.11 162.82 625.40 C 167.16 626.50 171.63 626.21 176.03 625.69 C 175.59 628.74 172.12 627.73 169.99 628.18 C 166.96 628.06 162.66 629.23 160.80 626.11 C 159.93 618.75 160.58 611.32 161.33 603.99 C 160.21 596.61 161.57 588.98 159.57 581.73 C 154.91 581.37 150.25 581.73 145.65 582.53 C 146.03 586.86 145.53 591.23 144.25 595.38 C 139.38 595.60 134.50 595.14 129.63 595.13 C 129.82 602.55 129.57 609.96 130.66 617.33 C 130.08 617.37 128.92 617.43 128.35 617.46 C 128.67 610.03 128.72 602.61 128.31 595.18 C 126.26 595.21 124.21 595.22 122.16 595.24 C 122.50 602.22 122.21 609.28 123.62 616.16 C 117.41 620.11 111.35 624.38 105.78 629.21 C 107.53 629.26 109.28 629.31 111.03 629.34 C 114.53 626.12 117.76 622.61 120.32 618.60 C 120.96 618.61 122.23 618.64 122.87 618.65 C 121.94 619.75 120.98 620.86 119.94 621.89 C 116.76 625.06 114.64 629.17 111.10 632.01 C 111.39 632.56 111.96 633.67 112.25 634.23 C 111.87 635.31 111.50 636.40 111.13 637.50 C 108.63 637.89 106.10 637.74 103.60 637.41 C 103.14 635.55 103.07 633.64 103.54 631.79 C 103.40 629.28 103.95 626.54 106.60 625.59 C 112.13 623.10 115.82 617.94 121.23 615.37 C 121.64 608.47 121.89 601.40 119.61 594.77 C 114.93 594.34 110.18 595.12 105.54 594.27 C 106.95 592.57 108.89 592.14 110.97 592.28 C 121.48 592.45 131.98 593.15 142.49 593.31 C 143.24 590.18 143.74 586.99 143.53 583.78 C 141.39 583.78 139.26 583.81 137.12 583.85 C 136.45 583.23 135.77 582.62 135.09 582.03 C 137.40 581.55 139.67 580.36 142.09 580.90 Z" />
<path fill="#51504f" d=" M 183.66 579.95 C 184.98 593.38 186.56 606.78 187.98 620.20 C 187.60 617.91 187.08 615.66 186.60 613.41 C 186.32 613.45 185.77 613.54 185.49 613.58 L 184.96 613.67 C 185.24 605.17 183.43 596.80 183.31 588.33 C 183.39 585.53 183.58 582.74 183.66 579.95 Z" />
<path fill="#0c0c0c" d=" M 827.31 586.29 C 836.87 586.38 846.45 586.33 856.00 586.80 C 861.88 587.86 867.92 587.05 873.77 588.29 C 893.19 588.81 912.60 589.41 932.04 589.22 C 940.51 589.03 949.01 589.90 957.45 588.86 C 960.35 588.62 963.26 588.64 966.18 588.51 C 966.72 587.73 967.27 586.95 967.83 586.18 C 968.72 586.73 969.61 587.28 970.52 587.84 C 970.52 588.34 970.52 589.34 970.51 589.84 C 966.44 591.17 962.12 590.61 957.94 590.43 C 936.00 589.57 914.04 590.08 892.09 589.64 C 870.54 590.02 848.97 585.21 827.50 588.58 C 827.45 588.01 827.36 586.86 827.31 586.29 Z" />
<path fill="#0c0c0c" d=" M 255.28 601.32 C 255.85 600.55 256.42 599.79 256.99 599.03 C 257.87 607.33 259.78 615.56 259.44 623.96 C 259.26 628.30 259.87 632.70 259.17 637.01 C 258.11 640.69 251.58 639.61 251.66 635.91 C 251.61 629.36 251.30 622.81 250.88 616.28 C 251.09 614.39 251.37 612.53 251.59 610.66 C 253.10 619.21 253.74 627.92 254.29 636.58 C 254.95 636.59 256.26 636.60 256.92 636.61 C 258.30 624.84 257.26 612.95 255.28 601.32 Z" />
<path fill="#191919" d=" M 818.93 610.98 C 817.27 611.25 817.34 609.67 817.07 608.59 C 821.71 609.19 826.36 609.77 831.06 609.60 C 837.42 609.36 843.70 610.47 850.05 610.59 C 858.98 610.78 867.89 611.36 876.81 611.54 L 878.74 612.16 C 871.46 612.89 864.21 611.53 856.94 611.70 C 851.62 611.66 846.29 611.62 841.02 610.83 C 833.66 610.45 826.28 610.71 818.93 610.98 Z" />
<path fill="#61605e" d=" M 876.81 611.54 C 892.52 610.60 908.31 611.45 924.05 611.16 C 931.28 611.54 938.78 610.29 945.84 612.13 L 947.07 612.77 C 927.05 612.63 907.03 612.66 887.01 612.62 C 884.25 612.55 881.43 612.87 878.74 612.16 L 876.81 611.54 Z" />
<path fill="#070707" d=" M 945.84 612.13 C 952.56 613.35 959.53 610.38 966.04 612.72 C 965.07 613.90 964.12 615.09 963.19 616.30 C 962.51 615.42 961.84 614.56 961.18 613.70 C 956.50 613.06 951.76 613.18 947.07 612.77 L 945.84 612.13 Z" />
<path fill="#030303" d=" M 185.49 613.58 C 185.77 613.54 186.32 613.45 186.60 613.41 C 187.08 615.66 187.60 617.91 187.98 620.20 C 188.42 624.28 188.48 628.39 188.78 632.49 C 190.04 632.76 191.30 633.05 192.57 633.34 C 193.46 630.52 194.29 627.70 195.08 624.86 C 195.08 627.54 195.58 630.31 194.91 632.94 C 194.03 636.52 189.12 635.86 186.87 634.01 C 185.71 627.29 185.63 620.40 185.49 613.58 Z" />
<path fill="#010101" d=" M 131.51 617.31 C 134.64 616.70 136.92 619.22 139.40 620.64 C 141.66 622.29 145.19 623.52 144.89 626.92 C 144.38 627.39 143.34 628.32 142.83 628.79 C 144.68 629.70 147.40 630.42 147.43 632.98 C 148.24 638.76 139.17 640.84 136.55 636.18 C 136.11 633.56 138.32 631.79 139.90 630.09 C 134.81 626.53 129.33 623.50 124.61 619.45 C 124.55 618.87 124.44 617.71 124.38 617.13 C 126.39 618.19 128.29 619.46 130.04 620.92 C 133.21 623.52 137.04 625.12 140.35 627.52 C 140.96 627.06 142.17 626.14 142.77 625.68 C 139.74 621.96 135.37 619.96 131.51 617.31 Z" />
<path fill="#51504f" d=" M 192.74 620.65 C 193.38 621.63 194.07 622.58 194.77 623.54 L 195.26 624.21 L 195.08 624.86 C 194.29 627.70 193.46 630.52 192.57 633.34 C 192.91 629.11 192.97 624.87 192.74 620.65 Z" />
<path fill="#040404" d=" M 781.19 653.02 C 781.60 644.34 781.01 635.60 781.98 626.94 L 782.61 629.01 C 783.64 633.27 783.14 637.71 783.27 642.06 C 783.19 647.23 783.53 652.40 783.49 657.57 C 781.76 657.74 779.99 657.83 778.34 657.25 C 779.08 655.70 781.13 654.87 781.19 653.02 Z" />
<path fill="#f5f4f0" d=" M 139.11 636.28 C 138.55 632.90 141.66 631.26 144.59 631.27 C 144.64 632.57 144.94 633.95 144.45 635.23 C 142.98 636.60 140.92 636.23 139.11 636.28 Z" />
<path fill="#020202" d=" M 953.50 633.65 C 953.92 633.02 954.75 631.75 955.17 631.11 C 957.01 632.03 956.64 633.92 956.48 635.58 C 952.00 636.12 947.52 635.31 943.04 635.57 C 938.78 635.54 934.56 636.76 930.30 636.20 L 928.43 635.62 C 936.80 635.26 945.21 634.99 953.50 633.65 Z" />
<path fill="#f5f4f0" d=" M 105.40 633.00 C 106.71 633.23 108.03 633.49 109.34 633.75 C 109.39 634.22 109.47 635.16 109.51 635.63 C 108.10 635.60 106.68 635.55 105.27 635.50 C 105.30 634.87 105.37 633.63 105.40 633.00 Z" />
<path fill="#555554" d=" M 902.08 635.39 C 910.85 635.53 919.71 634.74 928.43 635.62 L 930.30 636.20 C 919.23 637.12 908.08 636.32 896.99 636.93 C 875.67 637.93 854.34 638.37 833.04 639.68 C 829.06 639.91 825.19 640.99 821.22 641.30 C 822.15 638.89 824.54 638.05 826.94 638.16 C 839.96 638.21 852.94 637.05 865.95 636.69 C 878.01 636.69 890.01 635.19 902.08 635.39 Z" />
<path fill="#070707" d=" M 1016.34 662.52 C 1017.82 655.61 1017.37 648.51 1017.89 641.50 C 1018.08 642.12 1018.45 643.37 1018.64 643.99 C 1018.78 644.50 1019.08 645.51 1019.23 646.01 C 1019.35 651.46 1019.98 656.91 1019.56 662.36 C 1018.48 662.42 1017.40 662.47 1016.34 662.52 Z" />
<path fill="#040404" d=" M 790.07 662.31 C 790.17 661.44 790.40 660.62 790.76 659.83 C 803.11 661.45 815.61 661.18 828.05 661.20 C 854.37 661.31 880.70 661.04 907.03 661.37 C 910.96 661.48 914.96 661.56 918.76 662.70 C 880.90 661.03 842.96 662.40 805.06 661.68 C 800.06 661.87 795.09 662.86 790.07 662.31 Z" />
<path fill="#000000" d=" M 959.77 665.92 C 961.47 665.23 963.28 664.58 965.17 664.67 C 980.43 664.26 995.72 665.00 1010.97 663.94 C 1012.90 663.78 1014.83 664.27 1016.75 664.57 C 1016.66 665.54 1016.58 666.53 1016.51 667.52 C 997.69 665.17 978.64 667.17 959.77 665.92 Z" />
<path fill="#000000" d=" M 827.68 681.00 C 827.76 677.27 828.65 673.52 830.91 670.50 C 834.04 670.26 837.68 670.56 839.83 673.16 C 841.74 675.88 841.21 679.41 841.24 682.55 C 840.25 682.68 839.27 682.81 838.30 682.95 C 838.29 680.11 838.25 677.26 837.54 674.50 C 835.72 673.93 833.86 673.50 831.97 673.38 C 831.32 676.81 830.06 680.46 831.06 683.92 C 833.56 688.82 838.00 692.45 840.33 697.49 C 842.41 701.00 842.80 705.08 843.26 709.05 C 842.97 713.01 841.06 717.38 836.93 718.57 C 833.86 720.08 829.74 718.96 828.18 715.86 C 826.14 711.72 825.87 706.99 825.66 702.47 C 826.87 702.40 828.09 702.35 829.32 702.31 C 829.48 706.85 829.87 711.45 831.78 715.65 C 834.69 716.06 838.34 715.74 839.53 712.54 C 841.85 705.09 837.79 697.46 833.04 691.90 C 830.61 688.69 827.22 685.36 827.68 681.00 Z" />
<path fill="#000000" d=" M 853.66 692.65 C 857.92 690.17 863.88 693.20 864.97 697.89 C 865.68 700.00 865.53 703.18 863.15 704.15 C 859.63 704.41 856.11 704.25 852.60 704.30 C 852.44 709.14 854.08 716.13 859.86 716.64 C 862.10 714.67 862.83 710.33 866.31 710.48 C 866.80 714.48 862.97 717.15 860.33 719.54 C 853.65 719.87 850.24 712.73 849.74 707.06 C 849.76 702.12 849.51 696.14 853.66 692.65 Z" />
<path fill="#000000" d=" M 873.16 693.65 C 873.74 693.62 874.90 693.56 875.48 693.53 C 875.85 695.19 876.22 696.85 876.58 698.53 C 879.05 697.13 881.60 695.83 884.34 695.04 C 884.37 695.99 884.41 696.95 884.45 697.93 C 881.74 699.26 879.05 700.61 876.28 701.81 C 876.23 707.01 876.28 712.22 876.25 717.42 C 875.31 717.47 874.38 717.53 873.46 717.59 C 873.26 709.61 873.50 701.62 873.16 693.65 Z" />
<path fill="#f5f4f0" d=" M 855.68 694.43 C 857.62 694.97 859.94 695.07 861.30 696.77 C 861.92 698.19 862.18 699.72 862.51 701.24 C 859.26 701.26 856.02 701.23 852.79 701.20 C 853.14 698.70 854.01 696.35 855.68 694.43 Z" />
<path fill="#010101" d=" M 894.14 715.38 C 897.50 708.46 899.00 700.83 901.74 693.67 C 904.29 692.30 903.79 695.78 903.47 697.05 C 901.14 704.52 899.05 712.10 896.05 719.35 C 895.11 719.44 894.17 719.49 893.24 719.52 C 891.64 717.65 891.27 715.16 890.76 712.86 C 889.82 707.39 888.89 701.91 888.51 696.38 C 889.21 696.48 890.60 696.69 891.30 696.80 C 892.73 702.90 892.71 709.26 894.14 715.38 Z" />
<path fill="#010101" d=" M 932.35 697.07 C 931.51 694.82 935.15 694.84 935.25 696.49 C 935.46 697.86 935.63 699.24 935.78 700.64 C 938.48 699.39 940.60 696.69 943.62 696.30 C 943.88 696.73 944.38 697.61 944.63 698.04 C 942.10 700.67 938.80 702.31 935.60 703.95 C 935.71 709.22 935.82 714.50 935.62 719.78 C 934.65 719.70 933.70 719.63 932.76 719.56 C 932.83 712.06 932.63 704.56 932.35 697.07 Z" />
<path fill="#000000" d=" M 912.70 697.58 C 916.20 696.66 919.96 697.28 923.35 698.42 C 923.61 699.07 924.13 700.37 924.39 701.02 C 923.94 702.41 923.59 703.86 923.00 705.21 C 919.56 706.29 915.84 705.55 912.30 705.81 C 912.31 709.64 911.40 714.48 914.59 717.34 C 918.41 719.24 921.61 716.39 924.28 714.03 C 926.19 716.99 922.98 719.33 920.58 720.42 C 917.55 721.10 913.81 721.00 911.57 718.56 C 908.54 714.37 909.33 708.95 909.28 704.11 C 909.71 701.69 910.44 698.93 912.70 697.58 Z" />
<path fill="#f5f4f0" d=" M 912.34 702.67 C 912.87 701.81 913.39 700.96 913.93 700.12 C 916.22 700.14 918.52 700.29 920.81 700.51 C 920.83 701.08 920.88 702.21 920.90 702.77 C 918.04 702.79 915.19 702.76 912.34 702.67 Z" />
</svg>
