<?xml version="1.0" encoding="UTF-8" ?>
<!DOCTYPE svg PUBLIC "-//W3C//DTD SVG 1.1//EN" "http://www.w3.org/Graphics/SVG/1.1/DTD/svg11.dtd">
<svg width="1295pt" height="772pt" viewBox="0 0 1295 772" version="1.1" xmlns="http://www.w3.org/2000/svg">
<path fill="#f5f4f0" d=" M 0.00 0.00 L 1295.00 0.00 L 1295.00 772.00 L 0.00 772.00 L 0.00 0.00 Z" />
<path fill="#050505" d=" M 1219.21 25.30 C 1220.07 24.09 1220.53 21.57 1222.56 22.72 C 1224.67 24.08 1222.50 26.39 1221.26 27.46 C 1219.44 27.04 1217.65 26.59 1215.84 26.27 C 1216.94 25.94 1218.07 25.62 1219.21 25.30 Z" />
<path fill="#4c4c4b" d=" M 1173.28 27.95 C 1187.47 27.60 1201.63 26.26 1215.84 26.27 C 1217.65 26.59 1219.44 27.04 1221.26 27.46 C 1205.95 28.43 1190.60 28.60 1175.30 29.64 C 1174.61 29.08 1173.93 28.52 1173.28 27.95 Z" />
<path fill="#4f4f4d" d=" M 1143.04 29.99 C 1152.56 28.95 1162.15 28.91 1171.71 28.30 C 1172.38 28.91 1173.06 29.53 1173.75 30.15 C 1161.47 30.28 1149.21 30.97 1137.01 32.29 C 1116.71 33.78 1096.34 34.27 1075.99 34.34 C 1059.99 34.20 1044.02 35.18 1028.04 35.60 C 1015.02 36.13 1002.02 37.42 988.98 37.32 C 963.78 37.68 938.65 40.02 913.45 40.31 C 916.71 39.62 919.98 38.94 923.30 38.48 C 950.17 37.13 977.06 35.74 1003.97 35.26 C 1035.92 33.18 1067.94 32.50 1099.95 32.40 C 1114.31 31.66 1128.73 31.63 1143.04 29.99 Z" />
<path fill="#040404" d=" M 904.31 38.29 C 910.64 38.26 916.96 39.04 923.30 38.48 C 919.98 38.94 916.71 39.62 913.45 40.31 C 910.42 40.77 907.34 40.80 904.30 40.73 C 904.30 40.12 904.31 38.90 904.31 38.29 Z" />
<path fill="#4c4b4a" d=" M 1224.81 38.89 C 1229.97 37.55 1232.52 43.70 1232.74 47.87 C 1233.77 61.55 1233.55 75.33 1232.67 89.02 C 1232.05 104.83 1231.10 120.65 1229.28 136.37 C 1228.98 135.13 1228.66 133.90 1228.39 132.66 C 1228.36 124.74 1229.68 116.87 1230.02 108.96 C 1230.73 93.32 1232.06 77.67 1231.65 61.99 C 1231.46 56.34 1231.56 50.49 1229.61 45.10 C 1228.73 42.49 1225.54 41.57 1224.81 38.89 Z" />
<path fill="#0f0f0f" d=" M 919.19 52.89 C 919.05 49.50 916.15 46.35 917.82 42.98 C 918.61 44.09 920.11 44.97 920.30 46.46 C 921.34 56.93 920.12 67.53 921.16 77.99 C 921.34 108.72 921.28 139.47 921.25 170.21 L 920.77 170.42 C 920.50 170.39 919.96 170.33 919.68 170.30 C 919.98 168.85 920.17 167.39 920.27 165.92 C 920.21 138.95 920.28 111.99 920.23 85.02 C 919.23 74.34 920.12 63.57 919.19 52.89 Z" />
<path fill="#070707" d=" M 1081.09 112.21 C 1090.29 110.86 1099.67 111.70 1108.95 111.48 C 1117.80 111.86 1126.79 112.30 1135.38 114.67 C 1135.73 115.18 1136.43 116.20 1136.78 116.71 C 1142.47 118.14 1148.83 118.34 1153.47 122.45 C 1156.84 125.47 1161.84 128.05 1162.35 133.03 C 1160.98 144.95 1161.88 157.02 1161.00 168.98 C 1160.25 174.31 1161.43 179.61 1161.38 184.94 C 1161.51 192.30 1160.99 199.69 1162.01 207.00 C 1162.42 210.00 1162.55 213.03 1162.80 216.05 C 1163.82 224.27 1165.59 232.38 1167.15 240.52 C 1167.95 246.63 1167.11 252.84 1168.03 258.95 C 1168.70 265.93 1168.97 272.99 1168.42 279.99 C 1164.90 282.47 1163.88 286.99 1161.25 290.25 C 1155.53 300.21 1145.60 306.78 1135.46 311.62 C 1126.55 314.71 1117.37 317.02 1108.04 318.45 C 1100.09 320.17 1091.96 318.65 1083.93 318.50 C 1072.35 318.15 1060.58 315.48 1050.82 309.04 C 1046.23 305.62 1040.94 303.20 1036.81 299.18 C 1033.50 296.01 1029.21 292.89 1028.73 287.97 C 1028.15 281.28 1027.74 274.56 1027.27 267.85 C 1027.75 268.03 1028.71 268.40 1029.19 268.58 L 1029.24 268.60 C 1029.68 274.46 1031.42 280.15 1031.58 286.05 C 1031.77 292.40 1037.68 296.29 1042.20 299.82 C 1049.18 303.80 1055.25 309.32 1062.84 312.23 C 1075.85 317.43 1090.19 316.82 1103.94 316.56 C 1113.77 315.34 1123.63 313.41 1132.91 309.82 C 1142.98 304.94 1153.06 298.61 1158.71 288.60 C 1161.69 284.43 1163.77 279.74 1165.60 274.97 C 1166.09 264.97 1164.86 255.00 1165.16 245.00 C 1165.05 235.54 1161.75 226.50 1161.41 217.07 C 1160.79 211.06 1159.46 205.10 1159.57 199.03 C 1159.66 189.69 1159.45 180.33 1160.00 171.00 C 1159.42 161.31 1159.60 151.58 1159.25 141.88 C 1157.97 142.60 1156.74 143.33 1155.50 144.07 C 1155.12 143.88 1154.37 143.48 1153.99 143.28 C 1158.24 140.97 1161.12 135.00 1158.27 130.63 C 1153.83 125.34 1147.97 120.56 1140.89 119.73 C 1137.79 119.13 1133.90 119.98 1131.98 116.87 C 1120.14 112.67 1107.46 112.34 1095.04 112.59 C 1079.83 112.44 1064.70 114.45 1049.88 117.81 C 1047.18 118.79 1044.48 119.78 1041.79 120.76 C 1039.15 122.15 1036.49 123.48 1033.81 124.77 C 1030.05 127.38 1026.08 129.97 1023.54 133.87 C 1021.80 136.52 1021.28 140.68 1024.41 142.54 C 1033.46 149.46 1045.18 150.85 1056.02 153.08 C 1060.03 153.68 1064.02 154.47 1068.09 154.64 L 1065.99 154.76 C 1067.14 156.69 1069.85 156.01 1071.74 156.59 C 1068.94 156.70 1065.97 157.02 1063.44 155.59 C 1058.81 154.06 1053.80 154.25 1049.11 152.88 C 1047.41 152.61 1045.72 152.33 1044.07 151.92 C 1042.41 151.55 1040.79 151.22 1039.16 150.81 C 1038.11 150.53 1037.08 150.23 1036.06 149.93 C 1031.37 148.89 1026.89 147.14 1022.66 144.88 C 1022.42 149.90 1022.42 154.94 1021.81 159.94 C 1021.54 168.62 1021.76 177.32 1021.67 186.01 C 1021.60 189.63 1022.79 193.16 1022.35 196.80 C 1020.17 194.86 1021.74 191.63 1020.91 189.13 C 1020.28 178.80 1020.86 168.42 1020.58 158.07 C 1020.46 152.79 1020.10 147.52 1020.17 142.24 C 1017.17 136.52 1022.22 130.86 1026.65 127.73 C 1031.97 124.57 1037.38 121.50 1043.12 119.14 C 1047.87 117.04 1052.98 115.89 1058.11 115.13 C 1059.74 114.71 1061.41 114.43 1063.09 114.14 C 1069.02 112.96 1075.02 112.11 1081.09 112.21 Z" />
<path fill="#f5f4f0" d=" M 1049.88 117.81 C 1064.70 114.45 1079.83 112.44 1095.04 112.59 C 1107.46 112.34 1120.14 112.67 1131.98 116.87 C 1133.90 119.98 1137.79 119.13 1140.89 119.73 C 1147.97 120.56 1153.83 125.34 1158.27 130.63 C 1161.12 135.00 1158.24 140.97 1153.99 143.28 C 1145.55 146.64 1137.02 149.96 1128.06 151.61 C 1108.35 155.44 1088.08 156.79 1068.09 154.64 C 1064.02 154.47 1060.03 153.68 1056.02 153.08 C 1045.18 150.85 1033.46 149.46 1024.41 142.54 C 1021.28 140.68 1021.80 136.52 1023.54 133.87 C 1026.08 129.97 1030.05 127.38 1033.81 124.77 C 1036.49 123.48 1039.15 122.15 1041.79 120.76 C 1044.48 119.78 1047.18 118.79 1049.88 117.81 Z" />
<path fill="#dc4603" d=" M 867.39 123.14 C 869.08 123.30 870.96 123.41 872.06 124.94 C 877.99 131.99 884.28 138.73 890.06 145.93 C 892.45 149.00 896.69 151.17 896.90 155.48 C 892.05 157.00 886.92 156.24 881.95 156.86 C 875.29 157.73 868.48 156.88 861.89 158.39 C 857.72 158.94 853.79 161.03 849.51 160.63 C 849.48 159.02 848.85 157.26 849.71 155.77 C 851.85 151.89 854.90 148.60 857.00 144.69 C 840.87 141.25 824.89 137.12 808.58 134.59 C 811.07 134.48 813.55 134.25 816.06 134.19 C 821.14 134.40 825.96 136.21 830.93 137.14 C 839.38 138.56 847.55 141.47 856.06 142.55 C 859.02 143.46 860.11 140.30 861.54 138.43 C 864.61 133.86 868.63 129.07 867.39 123.14 Z" />
<path fill="#dd5110" d=" M 739.00 133.32 C 748.28 131.90 757.71 132.70 767.06 132.25 C 769.71 132.08 772.36 131.60 775.03 131.85 C 784.50 132.87 794.05 131.83 803.52 132.84 C 807.69 133.40 811.97 133.07 816.06 134.19 C 813.55 134.25 811.07 134.48 808.58 134.59 C 803.37 134.58 798.26 133.17 793.04 133.41 C 777.01 133.57 760.99 133.28 744.97 133.66 C 734.65 134.83 724.36 136.48 713.96 136.84 C 703.01 138.06 691.97 137.26 680.99 137.80 C 668.37 139.93 655.64 141.52 643.07 143.98 C 630.68 147.16 618.08 149.68 606.07 154.15 C 598.67 156.92 590.78 158.21 583.55 161.47 C 573.23 166.24 563.07 171.36 553.15 176.94 C 544.13 182.36 534.67 187.05 525.96 192.99 C 518.96 197.60 511.95 202.21 505.15 207.12 C 503.58 208.46 501.51 208.53 499.56 208.62 C 499.41 207.63 499.27 206.64 499.14 205.65 C 501.28 205.53 503.50 205.47 505.43 204.38 C 512.08 200.98 518.21 196.68 524.47 192.64 C 533.97 186.17 544.28 181.03 554.11 175.11 C 562.58 170.54 571.09 166.04 579.83 162.04 C 588.02 157.69 597.25 156.13 605.91 153.01 C 612.48 150.72 619.12 148.59 625.91 147.04 C 632.96 145.44 639.87 143.18 647.04 142.07 C 659.34 140.24 671.55 137.76 683.96 136.72 C 693.28 136.24 702.64 136.80 711.93 135.83 C 721.02 135.81 729.99 134.30 739.00 133.32 Z" />
<path fill="#4e4e4d" d=" M 1228.39 132.66 C 1228.66 133.90 1228.98 135.13 1229.28 136.37 C 1229.57 139.95 1228.67 143.51 1228.56 147.09 C 1227.90 159.08 1227.62 171.11 1226.35 183.06 C 1224.65 198.69 1224.43 214.42 1223.41 230.10 C 1222.01 252.20 1218.65 274.11 1215.89 296.07 C 1215.18 302.95 1214.11 309.82 1214.09 316.75 C 1213.49 316.06 1212.90 315.38 1212.33 314.69 C 1214.26 289.99 1218.85 265.58 1220.85 240.89 C 1222.47 224.60 1222.50 208.22 1223.85 191.92 C 1224.83 181.27 1225.82 170.62 1226.26 159.93 C 1226.65 150.82 1226.98 141.67 1228.39 132.66 Z" />
<path fill="#4d4d4c" d=" M 1128.06 151.61 C 1137.02 149.96 1145.55 146.64 1153.99 143.28 C 1154.37 143.48 1155.12 143.88 1155.50 144.07 C 1142.28 150.73 1127.61 153.94 1112.99 155.71 C 1099.39 157.28 1085.62 158.06 1071.97 156.63 L 1071.74 156.59 C 1069.85 156.01 1067.14 156.69 1065.99 154.76 L 1068.09 154.64 C 1088.08 156.79 1108.35 155.44 1128.06 151.61 Z" />
<path fill="#090909" d=" M 450.94 150.24 C 457.66 149.21 464.55 148.61 471.32 149.58 C 472.15 157.69 471.48 165.85 471.86 173.97 C 472.43 179.02 472.44 184.11 472.68 189.19 C 472.29 185.16 471.74 181.15 470.97 177.19 C 470.20 169.03 471.25 160.70 469.28 152.66 C 455.54 152.28 441.72 153.13 428.05 151.81 C 423.76 151.79 419.38 151.27 415.15 152.17 C 412.09 152.29 408.96 152.55 405.99 151.64 C 404.69 151.80 403.41 151.99 402.13 152.22 C 398.16 152.35 394.19 152.19 390.23 152.24 C 390.48 156.19 390.35 160.16 390.80 164.10 C 392.17 173.68 391.07 183.40 391.76 193.02 C 394.29 210.57 393.02 228.33 393.61 245.99 C 393.49 263.02 393.07 280.09 394.31 297.09 C 394.45 307.40 394.19 317.72 394.17 328.04 C 392.89 338.65 393.46 349.35 393.21 360.01 C 392.28 372.64 392.16 385.34 392.43 398.00 C 392.53 404.98 392.25 412.00 393.49 418.90 C 393.25 423.16 394.81 427.35 394.47 431.54 C 393.48 431.20 392.53 430.76 391.58 430.36 C 390.43 424.64 390.68 418.76 389.75 413.01 C 389.74 402.68 389.68 392.29 391.19 382.05 C 391.32 374.03 391.49 366.01 391.07 358.01 C 390.16 347.32 391.17 336.63 392.23 326.00 C 392.58 315.34 392.03 304.68 392.24 294.02 C 391.75 288.69 391.30 283.31 392.12 277.98 C 392.56 267.66 392.29 257.31 391.76 247.01 C 392.63 237.03 392.25 227.01 392.33 217.00 C 391.91 210.99 390.76 205.05 390.32 199.03 C 388.61 186.46 390.94 173.64 388.65 161.11 C 388.28 157.86 387.38 154.70 387.24 151.43 C 392.79 150.95 398.38 151.75 403.91 150.94 C 405.58 150.59 407.29 150.81 408.94 151.22 C 412.32 151.45 415.69 151.11 419.05 150.79 C 429.68 150.68 440.32 150.84 450.94 150.24 Z" />
<path fill="#e99d79" d=" M 893.10 164.16 C 894.44 163.61 894.88 164.07 894.42 165.55 C 893.05 166.11 892.61 165.65 893.10 164.16 Z" />
<path fill="#0f37fe" d=" M 921.25 170.21 C 923.98 168.55 927.24 169.31 930.21 169.78 C 939.70 171.62 949.58 174.45 956.68 181.38 C 962.40 186.41 965.62 193.73 967.23 201.05 C 967.80 210.35 967.44 219.81 965.09 228.86 C 961.91 238.95 957.39 249.17 949.03 256.05 C 943.55 261.80 936.31 265.41 928.84 267.81 C 925.85 268.60 922.73 268.26 919.69 268.31 C 919.64 267.69 919.55 266.43 919.50 265.80 C 919.06 266.66 918.64 267.54 918.25 268.42 C 905.55 265.90 893.10 259.03 886.71 247.39 C 883.25 240.81 879.49 234.23 877.63 226.99 C 875.90 214.88 878.86 202.70 882.67 191.26 C 865.91 192.40 849.11 193.86 832.31 193.16 C 831.13 192.62 830.00 192.04 828.86 191.46 C 830.02 191.19 831.18 190.94 832.36 190.71 C 849.84 190.09 867.71 191.50 884.86 187.21 C 889.56 179.35 897.79 174.53 906.13 171.33 C 910.44 169.77 915.18 169.34 919.68 170.30 C 919.96 170.33 920.50 170.39 920.77 170.42 L 921.25 170.21 Z" />
<path fill="#dd4f0e" d=" M 425.02 171.38 C 425.60 171.44 426.77 171.56 427.35 171.63 C 427.38 182.96 427.66 194.29 427.34 205.63 C 426.64 205.74 425.25 205.95 424.55 206.06 C 424.33 200.93 424.69 195.80 424.55 190.67 C 417.01 190.33 409.46 190.12 401.93 190.65 C 400.18 191.00 398.68 190.21 397.81 188.65 C 402.84 187.66 407.88 189.33 412.94 189.24 C 416.81 188.45 420.78 188.68 424.70 188.49 C 424.97 182.79 424.44 177.07 425.02 171.38 Z" />
<path fill="#f5f4f0" d=" M 924.11 174.40 C 926.35 172.85 929.01 173.14 931.54 173.72 C 939.58 175.48 947.96 178.01 954.02 183.87 C 959.03 188.23 962.05 194.51 963.50 200.89 C 964.12 211.87 964.00 223.33 959.63 233.63 C 956.89 240.89 953.09 247.98 947.04 253.03 C 942.77 257.43 937.56 260.78 931.81 262.90 C 927.23 265.23 921.97 264.63 917.03 264.36 C 905.34 262.03 894.41 254.81 888.94 244.02 C 885.76 237.55 881.71 231.25 880.68 223.98 C 880.06 216.18 881.34 208.36 883.45 200.87 C 884.36 197.69 884.80 194.29 886.58 191.44 C 887.71 190.57 889.30 190.63 890.64 190.18 C 890.50 188.73 890.32 187.29 890.11 185.85 C 894.58 180.44 900.99 177.15 907.45 174.70 C 912.79 172.95 918.65 173.38 924.11 174.40 Z" />
<path fill="#565554" d=" M 470.97 177.19 C 471.74 181.15 472.29 185.16 472.68 189.19 C 473.27 199.85 473.76 210.54 473.57 221.23 L 473.11 221.82 L 472.21 221.93 C 471.36 217.76 471.96 213.45 471.71 209.23 C 471.79 198.54 470.27 187.88 470.97 177.19 Z" />
<path fill="#3c5cfc" d=" M 807.49 192.69 C 815.83 192.51 823.99 190.20 832.36 190.71 C 831.18 190.94 830.02 191.19 828.86 191.46 C 830.00 192.04 831.13 192.62 832.31 193.16 C 821.63 193.53 810.80 192.96 800.31 195.43 C 790.93 197.07 781.57 198.93 772.08 199.78 C 764.72 200.74 757.43 202.34 750.00 202.59 C 741.53 202.84 733.39 205.47 724.96 206.07 C 706.68 209.03 688.42 212.17 670.13 215.10 C 659.15 216.88 648.16 218.84 637.04 219.51 C 632.69 219.77 628.38 220.40 624.09 221.11 C 607.03 223.83 589.82 225.72 572.89 229.24 C 560.92 231.64 548.65 232.17 536.67 234.53 C 532.56 235.34 528.55 236.85 524.32 236.95 C 521.75 236.54 519.22 235.91 516.67 235.43 C 521.50 235.27 526.42 235.66 531.14 234.34 C 544.19 230.88 557.81 230.72 571.02 228.10 C 590.37 224.14 610.04 222.02 629.51 218.79 C 656.59 216.92 683.16 211.08 709.97 207.16 C 720.75 204.90 731.76 204.11 742.53 201.81 C 752.74 201.12 762.88 199.70 773.00 198.23 C 784.61 197.14 796.01 194.59 807.49 192.69 Z" />
<path fill="#0f37fe" d=" M 903.29 196.27 C 905.27 192.17 912.06 192.13 914.32 195.91 C 915.48 201.90 913.62 207.81 911.14 213.21 C 910.46 213.76 909.80 214.31 909.14 214.86 C 914.28 220.02 917.54 227.55 915.89 234.86 C 915.03 238.30 911.16 239.50 908.06 239.86 C 904.97 240.36 901.06 240.93 898.78 238.26 C 895.68 234.98 896.31 230.13 896.19 226.00 C 895.78 220.62 899.76 216.57 902.49 212.40 C 899.45 207.44 900.49 201.08 903.29 196.27 Z" />
<path fill="#f5f4f0" d=" M 906.78 197.68 C 907.93 196.94 909.45 197.28 910.77 197.05 C 911.28 202.18 910.11 207.28 907.41 211.67 C 905.89 211.85 905.39 210.08 904.82 209.03 C 903.73 205.23 904.59 200.95 906.78 197.68 Z" />
<path fill="#565554" d=" M 1021.21 196.71 C 1021.75 196.82 1022.82 197.04 1023.36 197.15 C 1023.06 202.82 1024.40 208.38 1024.75 214.02 C 1026.16 225.94 1026.76 237.94 1026.98 249.94 C 1026.60 250.26 1025.84 250.89 1025.46 251.20 C 1024.42 243.87 1025.07 236.44 1024.44 229.07 C 1023.50 218.27 1022.19 207.50 1021.21 196.71 Z" />
<path fill="#0f37fe" d=" M 935.72 199.56 C 938.84 198.64 943.00 199.07 945.41 201.57 C 948.28 205.02 949.86 209.52 949.53 214.03 C 949.85 222.38 946.88 230.52 942.36 237.44 C 941.15 239.28 939.32 240.91 937.07 241.18 C 931.64 241.29 925.68 237.62 925.07 231.87 C 924.70 223.70 926.49 215.59 928.88 207.82 C 930.02 204.29 932.93 201.80 935.72 199.56 Z" />
<path fill="#f5f4f0" d=" M 933.65 206.56 C 935.17 204.84 937.33 203.88 939.18 202.56 C 944.82 203.58 946.24 210.11 945.77 214.98 C 946.29 223.20 942.44 230.80 938.02 237.44 C 934.19 237.78 929.93 235.96 928.69 232.09 C 928.07 226.47 929.33 220.85 930.57 215.40 C 931.36 212.39 931.94 209.21 933.65 206.56 Z" />
<path fill="#13b824" d=" M 1064.56 203.27 C 1066.00 203.46 1067.79 203.23 1068.55 204.84 C 1066.99 212.49 1063.18 219.45 1061.23 226.99 C 1060.33 230.71 1059.67 235.00 1055.86 236.92 C 1055.03 235.87 1053.89 234.99 1053.55 233.66 C 1052.10 228.43 1051.44 223.03 1050.14 217.77 C 1047.13 223.26 1046.60 229.65 1045.33 235.68 C 1041.80 236.55 1040.75 232.88 1039.48 230.42 C 1036.06 223.63 1033.65 216.33 1032.64 208.78 C 1032.92 206.82 1034.90 207.47 1036.30 207.38 C 1037.34 214.89 1039.19 222.31 1042.81 229.02 C 1044.06 222.63 1046.45 216.57 1048.60 210.46 C 1049.56 210.40 1050.53 210.34 1051.53 210.29 C 1054.16 216.32 1054.74 222.90 1056.15 229.26 C 1058.62 220.49 1061.87 211.97 1064.56 203.27 Z" />
<path fill="#13b824" d=" M 1147.80 204.57 C 1149.37 204.44 1150.96 204.42 1152.56 204.53 C 1152.93 210.81 1150.60 216.77 1148.98 222.72 C 1147.54 227.07 1146.85 231.70 1144.76 235.81 C 1143.88 237.78 1140.52 238.72 1139.42 236.47 C 1136.43 231.65 1135.79 225.81 1135.16 220.29 C 1134.86 220.41 1134.25 220.64 1133.94 220.76 C 1132.90 225.24 1131.89 229.74 1130.48 234.12 C 1130.08 235.94 1128.16 236.74 1126.95 237.91 C 1124.10 234.92 1122.92 230.89 1121.72 227.06 C 1120.18 220.97 1117.96 214.91 1118.45 208.52 C 1119.44 208.47 1120.45 208.46 1121.47 208.50 C 1122.90 210.71 1122.14 213.53 1122.73 216.01 C 1123.80 221.44 1125.28 226.79 1127.20 231.99 C 1129.75 225.31 1130.20 217.74 1133.87 211.56 C 1134.43 211.57 1135.55 211.61 1136.11 211.63 C 1139.25 217.70 1138.69 225.02 1141.63 231.22 C 1144.02 222.43 1147.27 213.74 1147.80 204.57 Z" />
<path fill="#13b824" d=" M 1108.81 209.47 C 1109.06 207.04 1112.17 206.69 1113.47 208.54 C 1113.83 210.05 1113.29 211.57 1112.95 213.03 C 1110.87 220.51 1108.42 227.88 1106.20 235.31 C 1105.25 237.49 1104.23 241.60 1101.05 240.58 C 1099.57 239.94 1098.78 238.40 1098.30 236.96 C 1096.15 230.82 1095.51 224.30 1094.14 217.97 C 1092.74 223.89 1091.54 229.92 1089.24 235.57 C 1088.47 236.58 1087.36 238.05 1085.89 237.46 C 1084.02 236.18 1083.33 233.92 1082.60 231.91 C 1080.13 224.67 1078.72 217.14 1076.43 209.85 C 1077.15 209.47 1078.60 208.70 1079.32 208.31 C 1083.28 215.67 1083.04 224.53 1086.62 232.11 C 1089.53 224.57 1090.11 216.22 1093.86 209.01 C 1094.85 209.92 1096.47 210.56 1096.68 212.09 C 1098.55 219.67 1098.77 227.66 1101.77 234.96 C 1103.93 226.41 1106.91 218.09 1108.81 209.47 Z" />
<path fill="#dd500e" d=" M 400.59 218.37 C 401.41 215.15 405.16 216.50 407.48 216.80 C 414.49 218.58 421.91 215.85 428.74 218.59 C 428.50 224.89 428.45 231.19 428.37 237.49 C 427.69 237.51 426.34 237.55 425.66 237.57 C 425.36 231.75 426.16 225.96 426.57 220.16 C 426.03 219.66 425.49 219.17 424.94 218.69 C 421.93 220.28 418.56 218.23 415.55 219.32 C 415.33 223.79 415.86 228.27 415.66 232.74 C 415.07 232.47 413.90 231.93 413.31 231.66 C 411.84 227.59 413.19 222.93 412.75 218.64 C 409.64 218.91 406.01 217.80 403.22 219.21 C 400.83 225.01 401.98 231.65 401.70 237.81 C 400.63 237.68 399.56 237.54 398.50 237.39 C 398.75 231.03 398.97 224.56 400.59 218.37 Z" />
<path fill="#f5f4f0" d=" M 904.21 216.15 C 907.08 216.61 908.43 219.85 910.06 221.97 C 912.65 225.58 912.61 230.11 912.58 234.37 C 909.38 236.57 905.42 236.50 901.71 236.56 C 898.03 230.09 899.05 221.54 904.21 216.15 Z" />
<path fill="#18297e" d=" M 472.21 221.93 L 473.11 221.82 C 473.39 222.16 473.96 222.84 474.25 223.18 C 474.13 225.92 471.03 224.89 471.67 222.55 L 472.21 221.93 Z" />
<path fill="#0f37fe" d=" M 452.37 229.31 C 458.04 225.57 464.58 221.54 471.67 222.55 C 471.03 224.89 474.13 225.92 474.25 223.18 C 480.72 223.35 486.98 225.10 493.18 226.80 C 498.59 228.32 503.91 230.33 508.65 233.40 C 511.01 235.01 513.97 234.86 516.67 235.43 C 519.22 235.91 521.75 236.54 524.32 236.95 C 520.93 237.27 517.52 237.33 514.12 237.44 C 517.31 241.72 520.91 246.42 520.65 252.04 C 520.60 261.41 520.81 271.30 516.34 279.83 C 524.43 280.14 532.42 278.38 540.51 278.66 C 540.15 278.92 539.42 279.43 539.05 279.69 C 531.31 281.56 523.04 281.73 515.26 283.32 C 512.45 288.42 509.74 293.60 506.44 298.41 C 502.41 304.04 496.58 308.07 490.54 311.28 C 486.26 313.54 481.36 313.86 476.61 313.83 C 476.58 312.95 476.51 311.20 476.47 310.32 C 486.03 311.18 494.72 305.69 501.21 299.21 C 505.97 293.63 509.57 287.12 512.20 280.30 C 517.08 272.44 516.80 262.93 517.25 254.03 C 517.54 249.14 515.27 244.52 512.15 240.90 C 509.91 238.31 506.56 237.18 503.88 235.16 C 500.13 232.39 495.53 231.25 491.12 229.98 C 483.34 227.72 475.25 226.11 467.13 226.36 C 460.09 227.76 454.11 232.15 448.77 236.74 C 440.11 243.93 434.09 254.64 433.86 266.04 C 432.51 276.24 437.88 285.48 443.42 293.55 C 446.14 298.44 450.93 301.53 455.45 304.56 C 461.26 308.60 468.43 310.45 475.47 310.32 C 475.46 311.19 475.46 312.92 475.46 313.79 C 467.75 314.06 459.91 311.99 453.58 307.52 C 448.83 304.32 443.68 301.19 440.84 296.02 C 436.22 288.97 431.27 281.61 430.52 272.95 C 430.22 266.92 430.42 260.77 432.14 254.95 C 435.64 244.32 443.38 235.73 452.37 229.31 Z" />
<path fill="#f5f4f0" d=" M 448.77 236.74 C 454.11 232.15 460.09 227.76 467.13 226.36 C 475.25 226.11 483.34 227.72 491.12 229.98 C 495.53 231.25 500.13 232.39 503.88 235.16 C 506.56 237.18 509.91 238.31 512.15 240.90 C 515.27 244.52 517.54 249.14 517.25 254.03 C 516.80 262.93 517.08 272.44 512.20 280.30 C 509.57 287.12 505.97 293.63 501.21 299.21 C 494.72 305.69 486.03 311.18 476.47 310.32 C 476.35 309.94 476.10 309.18 475.98 308.80 C 475.85 309.18 475.59 309.94 475.47 310.32 C 468.43 310.45 461.26 308.60 455.45 304.56 C 450.93 301.53 446.14 298.44 443.42 293.55 C 437.88 285.48 432.51 276.24 433.86 266.04 C 434.09 254.64 440.11 243.93 448.77 236.74 Z" />
<path fill="#dd4e0c" d=" M 310.62 235.48 C 313.31 234.22 315.67 231.83 318.88 232.22 C 318.48 233.34 318.88 234.95 317.70 235.66 C 313.41 238.79 308.35 240.65 303.49 242.70 C 298.11 244.52 295.17 250.03 289.76 251.85 C 289.43 251.11 288.78 249.61 288.45 248.87 C 290.87 246.79 293.61 245.11 295.97 242.96 C 300.05 239.08 305.81 238.13 310.62 235.48 Z" />
<path fill="#1037fe" d=" M 850.01 235.73 C 859.37 235.11 868.79 234.34 877.96 232.32 L 879.22 232.58 C 880.96 235.64 876.43 236.25 874.48 236.80 C 867.09 237.96 859.51 237.17 852.07 238.00 C 847.53 238.58 842.94 238.30 838.40 238.70 C 830.07 239.92 821.74 241.30 813.39 242.26 C 812.69 242.08 811.29 241.74 810.59 241.56 C 823.88 240.59 836.57 235.31 850.01 235.73 Z" />
<path fill="#5772fa" d=" M 775.02 244.46 C 786.81 243.05 798.70 240.87 810.59 241.56 C 811.29 241.74 812.69 242.08 813.39 242.26 C 803.64 243.47 793.76 243.43 784.04 244.90 C 772.49 246.94 760.72 246.74 749.09 247.93 C 727.64 250.39 706.13 252.44 684.86 256.19 C 673.28 258.03 661.51 258.41 649.97 260.53 C 637.41 262.99 624.60 263.93 612.10 266.69 C 599.00 268.69 585.88 270.69 573.01 273.90 C 561.67 275.66 550.65 279.89 539.05 279.69 C 539.42 279.43 540.15 278.92 540.51 278.66 C 547.64 276.97 555.20 276.58 562.30 274.38 C 572.55 272.37 582.67 269.69 593.01 268.15 C 600.96 266.37 609.12 265.81 617.07 263.98 C 628.41 262.01 639.88 260.82 651.19 258.64 C 662.46 256.58 673.96 256.42 685.24 254.44 C 702.95 251.36 720.82 249.39 738.69 247.46 C 750.73 245.69 762.90 245.37 775.02 244.46 Z" />
<path fill="#dd4e0c" d=" M 302.08 243.74 C 302.86 243.45 304.41 242.89 305.19 242.61 C 307.32 246.13 308.71 250.00 310.10 253.85 C 312.07 259.51 315.79 264.28 318.53 269.56 C 319.46 271.40 321.84 273.37 320.22 275.54 C 316.12 275.66 315.24 270.49 313.32 267.73 C 308.37 260.34 305.25 251.99 302.08 243.74 Z" />
<path fill="#0f37fe" d=" M 459.48 246.56 C 462.30 243.32 467.13 243.81 470.64 245.56 C 472.07 252.45 467.83 258.51 463.20 263.09 C 466.20 266.37 469.66 269.50 471.12 273.90 C 472.74 277.98 474.27 284.17 469.81 286.99 C 465.92 289.08 461.25 289.75 456.89 289.28 C 449.81 285.71 447.48 275.47 451.85 268.97 C 453.19 266.76 455.25 265.12 456.62 262.94 C 454.97 257.45 455.09 250.79 459.48 246.56 Z" />
<path fill="#f5f4f0" d=" M 461.63 249.60 C 463.03 247.73 465.49 247.72 467.59 247.61 C 467.13 253.02 463.73 257.67 459.55 260.91 C 459.38 257.09 458.66 252.60 461.63 249.60 Z" />
<path fill="#0f37fe" d=" M 484.97 251.79 C 489.93 246.18 500.38 247.65 502.95 254.89 C 504.83 261.92 501.72 269.06 497.84 274.82 C 495.29 278.82 492.33 282.93 487.97 285.07 C 483.19 286.68 477.55 283.86 475.46 279.39 C 473.90 276.13 475.35 272.52 476.31 269.30 C 478.29 263.03 483.20 258.13 484.97 251.79 Z" />
<path fill="#454543" d=" M 1025.46 251.20 C 1025.84 250.89 1026.60 250.26 1026.98 249.94 C 1027.28 256.21 1028.38 262.37 1029.19 268.58 C 1028.71 268.40 1027.75 268.03 1027.27 267.85 C 1026.28 262.38 1025.76 256.77 1025.46 251.20 Z" />
<path fill="#dd510f" d=" M 398.55 256.95 C 398.66 254.99 399.48 252.13 401.92 252.21 C 407.97 251.97 413.96 253.91 420.01 252.89 C 422.20 252.44 424.34 252.96 426.30 253.96 C 424.32 255.92 421.47 255.36 418.97 255.37 C 413.60 255.39 408.25 254.17 402.89 254.87 C 401.81 255.27 401.26 256.05 401.25 257.21 C 400.21 264.28 400.79 271.47 400.46 278.56 C 400.26 280.51 397.66 279.40 397.73 277.95 C 397.07 270.93 398.25 263.95 398.55 256.95 Z" />
<path fill="#f5f4f0" d=" M 491.51 252.20 C 494.75 251.77 498.49 252.87 499.59 256.27 C 501.15 264.11 496.32 271.01 491.94 276.97 C 490.07 279.00 488.15 281.98 485.02 281.76 C 481.58 281.91 477.78 278.66 478.49 275.03 C 479.27 269.30 482.71 264.48 485.49 259.56 C 486.96 256.71 489.36 254.54 491.51 252.20 Z" />
<path fill="#dd4e0c" d=" M 367.50 254.04 C 373.25 256.38 379.50 257.35 385.06 260.15 C 387.00 260.94 387.27 263.14 387.68 264.94 C 384.65 267.19 381.72 269.75 379.95 273.15 C 376.18 275.76 373.40 279.47 370.04 282.54 C 369.07 282.07 368.10 281.60 367.14 281.13 C 367.54 277.19 367.58 273.22 367.64 269.25 C 360.81 271.17 354.37 274.20 347.65 276.43 C 333.01 281.91 320.59 291.78 308.77 301.75 C 304.07 305.04 300.88 309.91 296.81 313.87 C 292.82 317.71 290.41 322.77 287.14 327.17 C 276.14 341.29 268.36 357.87 264.40 375.32 C 260.92 386.36 259.64 397.98 259.60 409.53 C 258.99 409.59 257.77 409.71 257.16 409.78 C 257.14 400.72 259.54 391.94 261.09 383.08 C 264.03 366.97 269.85 351.34 278.56 337.45 C 282.23 331.27 286.50 325.49 290.26 319.38 C 292.39 315.64 295.11 312.29 298.00 309.12 C 300.59 306.35 302.53 302.97 305.52 300.59 C 314.05 294.07 322.30 287.14 331.32 281.28 C 339.57 275.93 349.13 273.26 358.07 269.34 C 361.13 268.03 364.39 267.26 367.61 266.42 C 367.46 262.30 367.35 258.17 367.50 254.04 Z" />
<path fill="#dd4e0c" d=" M 270.98 258.96 C 272.41 257.89 273.59 255.37 275.69 256.45 C 277.43 257.55 276.12 259.10 275.10 260.12 C 270.53 264.83 264.86 268.27 260.11 272.77 C 263.74 276.70 265.85 281.70 269.05 285.95 C 271.34 283.88 273.16 281.39 274.95 278.89 C 275.76 277.46 277.63 278.62 278.85 278.56 C 277.53 282.83 274.30 286.01 271.23 289.07 C 274.37 293.50 277.88 297.67 281.53 301.68 C 282.69 301.76 283.14 300.52 283.80 299.80 C 287.03 295.30 289.64 290.36 293.08 286.01 C 293.91 284.78 295.62 285.48 296.84 285.27 C 297.29 288.71 294.40 290.96 292.69 293.54 C 289.20 298.05 286.64 303.38 281.99 306.88 C 277.09 303.49 274.11 298.12 270.16 293.77 C 264.22 287.25 261.50 278.12 254.11 272.92 C 259.02 267.50 265.85 264.20 270.98 258.96 Z" />
<path fill="#e7936b" d=" M 380.99 262.34 C 382.37 261.88 382.87 262.35 382.49 263.77 C 381.09 264.23 380.59 263.75 380.99 262.34 Z" />
<path fill="#f5f4f0" d=" M 459.16 266.04 C 465.64 267.88 468.13 275.31 469.52 281.22 C 468.25 285.26 463.50 285.58 459.96 285.75 C 455.90 286.23 453.76 281.31 453.42 277.98 C 452.53 273.19 455.63 268.90 459.16 266.04 Z" />
<path fill="#4c4c4b" d=" M 918.25 268.42 C 918.64 267.54 919.06 266.66 919.50 265.80 C 919.55 266.43 919.64 267.69 919.69 268.31 C 919.42 286.58 917.83 304.80 916.57 323.03 C 916.21 333.72 914.91 344.34 914.18 355.00 C 912.20 376.27 912.58 397.65 912.37 418.98 C 912.29 461.98 912.33 504.99 912.33 547.99 C 912.17 565.06 911.73 582.18 909.59 599.14 C 907.98 612.81 908.42 626.59 908.19 640.32 L 907.78 641.45 L 906.58 641.07 C 906.48 625.73 906.42 610.32 908.39 595.09 C 910.12 579.77 910.46 564.35 910.69 548.96 C 910.68 504.62 910.67 460.29 910.74 415.96 C 910.86 402.97 910.46 389.96 911.28 376.99 C 911.57 358.94 914.06 341.03 914.95 323.02 C 915.90 306.00 917.75 289.02 917.80 271.95 C 917.83 270.76 917.84 269.54 918.25 268.42 Z" />
<path fill="#13b824" d=" M 882.27 266.91 C 883.23 265.78 885.60 267.15 884.78 268.53 C 883.80 269.50 881.42 268.29 882.27 266.91 Z" />
<path fill="#dd5110" d=" M 400.97 289.07 C 399.13 288.91 397.63 286.65 399.90 285.70 C 408.23 287.60 416.79 287.92 425.31 287.58 C 425.43 288.04 425.67 288.96 425.80 289.42 C 424.58 289.67 423.38 289.98 422.19 290.34 C 415.57 295.51 408.89 300.62 402.75 306.36 C 410.20 309.43 418.37 310.33 426.37 310.53 C 426.44 311.09 426.58 312.21 426.65 312.77 C 423.05 313.05 419.55 312.18 416.10 311.33 C 410.94 310.04 405.39 310.53 400.45 308.39 C 398.96 307.78 399.03 305.35 400.40 304.58 C 406.08 299.80 412.97 296.44 417.91 290.78 C 417.85 290.53 417.72 290.03 417.66 289.79 C 412.12 289.09 406.52 289.53 400.97 289.07 Z" />
<path fill="#dd4e0c" d=" M 237.21 289.17 C 238.29 287.63 241.25 289.33 240.44 291.02 C 238.24 294.15 234.70 296.54 233.89 300.51 C 233.25 304.63 233.18 308.83 233.20 313.00 C 233.01 318.16 236.30 322.76 240.37 325.62 C 244.95 329.37 251.24 330.36 256.96 329.45 C 262.04 327.16 264.99 321.41 264.73 315.94 C 264.95 312.22 261.22 308.18 257.35 309.41 C 256.21 310.97 255.80 312.91 255.18 314.71 C 253.79 314.58 251.94 314.97 251.67 313.10 C 252.17 308.91 255.64 306.14 257.88 302.86 C 259.11 301.54 259.97 299.12 262.18 299.44 C 263.82 301.19 261.85 303.20 261.49 305.01 C 264.24 307.10 267.30 309.38 268.09 312.97 C 269.72 320.78 265.69 329.88 258.11 332.93 C 246.32 335.68 232.25 328.19 229.69 315.94 C 229.11 310.98 229.55 305.96 230.13 301.02 C 230.53 296.24 233.84 292.32 237.21 289.17 Z" />
<path fill="#13b824" d=" M 884.39 293.36 C 886.48 291.56 889.58 288.95 892.39 290.79 C 893.05 293.80 888.85 293.81 887.06 295.08 C 880.90 299.10 875.55 304.23 869.52 308.45 C 860.72 314.23 852.98 321.51 843.88 326.86 C 833.21 333.84 822.40 340.59 811.84 347.74 C 803.15 353.62 794.20 359.13 784.75 363.71 C 781.02 365.42 777.71 368.21 773.57 368.88 C 777.03 366.06 781.32 364.54 785.17 362.34 C 799.99 355.05 813.39 345.32 827.16 336.28 C 834.09 332.27 840.56 327.52 847.41 323.38 C 860.31 314.08 872.52 303.91 884.39 293.36 Z" />
<path fill="#050505" d=" M 475.47 310.32 C 475.59 309.94 475.85 309.18 475.98 308.80 C 476.10 309.18 476.35 309.94 476.47 310.32 C 476.51 311.20 476.58 312.95 476.61 313.83 C 476.84 328.90 476.64 343.98 476.78 359.05 C 477.82 370.02 476.82 381.08 478.00 392.05 C 479.26 402.39 479.31 412.81 479.49 423.20 C 478.83 423.60 477.51 424.40 476.85 424.80 C 476.58 424.15 476.03 422.85 475.76 422.20 C 477.03 416.90 476.23 411.40 476.51 406.01 C 476.57 398.32 474.80 390.70 475.45 382.99 C 475.89 359.93 475.85 336.86 475.46 313.79 C 475.46 312.92 475.46 311.19 475.47 310.32 Z" />
<path fill="#545352" d=" M 1211.87 316.29 C 1212.47 316.95 1213.09 317.61 1213.72 318.29 C 1211.65 346.48 1210.68 374.73 1210.38 402.99 C 1209.18 427.03 1207.42 451.03 1206.25 475.06 C 1205.96 476.66 1206.72 479.19 1204.22 479.40 C 1205.47 454.90 1207.19 430.44 1208.54 405.94 C 1209.05 389.99 1208.98 374.02 1209.76 358.08 C 1209.96 344.13 1211.63 330.24 1211.87 316.29 Z" />
<path fill="#dd4f0d" d=" M 397.64 329.97 C 397.65 327.74 397.45 324.30 400.05 323.43 C 404.07 323.05 407.95 324.57 411.90 325.09 C 415.93 325.91 420.10 325.43 424.12 326.25 C 426.70 326.77 427.41 329.75 427.26 332.01 C 427.03 337.63 427.77 343.21 427.78 348.83 C 426.74 348.70 425.71 348.57 424.69 348.44 C 425.04 342.08 424.35 335.73 424.41 329.38 C 420.80 328.44 417.04 328.41 413.40 327.65 C 412.21 333.62 412.71 339.73 412.81 345.77 C 412.15 345.78 410.84 345.79 410.18 345.80 C 410.43 339.69 410.20 333.58 410.35 327.48 C 407.16 326.89 403.95 326.47 400.71 326.35 C 400.12 332.56 399.43 338.80 400.32 345.02 C 400.64 346.38 399.78 349.93 397.79 348.08 C 397.40 342.06 397.96 336.00 397.64 329.97 Z" />
<path fill="#030303" d=" M 1156.25 348.41 C 1157.05 347.40 1157.00 344.43 1159.13 345.45 C 1161.11 346.43 1161.93 348.34 1161.57 350.46 C 1158.78 350.61 1156.00 350.52 1153.23 350.52 C 1152.95 350.10 1152.38 349.25 1152.09 348.82 C 1153.46 348.69 1154.85 348.55 1156.25 348.41 Z" />
<path fill="#070707" d=" M 945.12 348.32 C 957.32 350.17 969.69 349.61 981.99 349.71 C 995.62 349.72 1009.26 349.69 1022.88 349.69 C 1024.32 350.05 1025.77 350.47 1027.24 350.84 C 1006.18 350.59 985.11 350.79 964.05 350.75 C 958.34 350.68 952.67 351.69 946.96 351.52 C 944.82 352.10 945.37 349.48 945.12 348.32 Z" />
<path fill="#565554" d=" M 1022.88 349.69 C 1050.22 348.40 1077.63 349.02 1105.00 348.80 C 1120.70 348.81 1136.39 348.76 1152.09 348.82 C 1152.38 349.25 1152.95 350.10 1153.23 350.52 C 1111.47 350.60 1069.68 350.26 1027.94 350.99 L 1027.24 350.84 C 1025.77 350.47 1024.32 350.05 1022.88 349.69 Z" />
<path fill="#e9a381" d=" M 423.42 374.30 C 423.91 369.99 423.21 365.64 423.46 361.32 C 424.79 370.68 424.53 380.18 423.59 389.57 C 423.35 385.29 423.52 381.01 423.62 376.74 C 419.35 376.89 415.07 376.87 410.83 376.45 C 414.92 376.45 419.01 376.44 423.10 376.10 C 423.18 375.65 423.34 374.75 423.42 374.30 Z" />
<path fill="#de5718" d=" M 423.46 361.32 C 427.14 361.50 426.34 365.55 426.44 368.05 C 426.15 375.11 426.69 382.17 426.58 389.23 C 425.83 389.32 424.34 389.49 423.59 389.57 C 424.53 380.18 424.79 370.68 423.46 361.32 Z" />
<path fill="#13b824" d=" M 723.54 369.33 C 726.04 369.42 728.54 369.58 731.01 370.02 C 740.64 372.01 750.32 373.81 760.04 375.23 C 764.10 376.65 761.63 381.49 759.76 383.79 C 753.99 390.68 749.41 398.45 745.12 406.33 C 744.55 408.82 740.40 407.44 741.74 405.01 C 744.45 399.47 747.84 394.29 751.17 389.11 C 753.39 385.53 756.73 382.67 758.18 378.64 C 746.51 376.84 734.88 374.61 723.28 372.52 C 723.36 371.45 723.44 370.39 723.54 369.33 Z" />
<path fill="#121111" d=" M 1137.06 373.38 C 1141.18 373.20 1145.27 372.07 1149.42 372.45 C 1149.70 373.19 1150.24 374.66 1150.51 375.40 C 1144.99 376.29 1139.51 374.58 1133.99 374.70 C 1120.72 374.59 1107.49 375.74 1094.27 376.58 C 1090.19 376.55 1086.11 376.45 1082.04 376.36 C 1082.26 376.69 1082.69 377.35 1082.90 377.68 C 1081.30 377.62 1079.71 377.63 1078.13 377.67 C 1077.81 377.38 1077.15 376.78 1076.82 376.48 C 1084.23 376.04 1091.63 375.47 1099.06 375.19 C 1103.96 374.19 1109.01 374.61 1113.98 374.19 C 1121.64 373.30 1129.36 373.76 1137.06 373.38 Z" />
<path fill="#dd5110" d=" M 393.65 373.69 C 403.55 374.50 413.49 374.52 423.42 374.30 C 423.34 374.75 423.18 375.65 423.10 376.10 C 419.01 376.44 414.92 376.45 410.83 376.45 C 404.94 376.26 399.07 376.51 393.19 376.73 C 393.31 375.97 393.54 374.45 393.65 373.69 Z" />
<path fill="#525250" d=" M 1041.30 378.83 C 1053.17 378.48 1064.93 376.42 1076.82 376.48 C 1077.15 376.78 1077.81 377.38 1078.13 377.67 C 1065.79 378.67 1053.42 379.89 1041.05 380.57 L 1040.88 379.94 C 1040.99 379.66 1041.20 379.10 1041.30 378.83 Z" />
<path fill="#878784" d=" M 1082.04 376.36 C 1086.11 376.45 1090.19 376.55 1094.27 376.58 C 1090.59 377.70 1086.70 377.63 1082.90 377.68 C 1082.69 377.35 1082.26 376.69 1082.04 376.36 Z" />
<path fill="#131313" d=" M 956.80 380.25 C 954.66 380.02 953.96 378.18 954.37 376.29 C 957.14 377.39 959.84 378.83 962.84 379.24 C 966.86 379.79 970.98 379.33 974.99 380.17 C 993.67 380.40 1012.37 380.49 1031.05 380.20 C 1034.07 379.47 1037.20 379.41 1040.30 379.58 C 1039.24 382.00 1035.99 380.32 1033.98 380.82 C 1021.71 382.08 1009.29 381.34 996.96 381.51 C 983.57 381.24 970.11 381.91 956.80 380.25 Z" />
<path fill="#13b824" d=" M 694.83 381.17 C 693.64 379.25 694.38 376.32 697.16 377.34 C 701.02 384.10 703.37 391.59 705.45 399.05 C 707.60 407.70 711.77 415.82 712.89 424.73 C 716.49 422.62 720.24 420.78 723.99 418.96 C 728.72 416.62 733.08 413.51 738.03 411.62 C 739.56 412.29 739.97 413.38 739.27 414.91 C 730.92 419.37 722.53 423.75 714.18 428.19 C 713.04 428.62 711.68 428.97 710.52 428.50 C 709.32 426.92 709.32 424.84 708.87 422.99 C 707.44 415.08 704.09 407.73 702.03 399.99 C 700.23 393.51 697.94 387.15 694.83 381.17 Z" />
<path fill="#13b824" d=" M 680.38 379.23 C 681.36 379.35 682.34 379.48 683.34 379.62 C 685.24 389.14 686.59 398.82 689.96 407.99 C 692.23 417.14 697.88 424.95 700.54 433.96 C 701.30 435.67 699.46 436.97 697.88 436.43 C 695.82 432.47 694.67 428.11 692.73 424.10 C 687.14 412.64 683.65 400.27 681.13 387.80 C 677.94 394.50 675.52 401.55 672.26 408.22 C 671.60 410.03 668.93 411.09 667.43 409.64 C 664.30 407.14 661.99 403.79 659.17 400.98 C 663.34 415.10 669.21 428.65 674.33 442.44 C 675.47 444.75 672.49 445.77 670.93 444.38 C 665.46 427.72 658.19 411.68 653.16 394.87 C 653.06 393.59 653.66 392.81 654.97 392.54 C 660.80 395.69 664.34 401.49 668.70 406.25 C 669.50 405.25 670.26 404.21 670.71 403.01 C 673.92 395.07 677.66 387.36 680.38 379.23 Z" />
<path fill="#13b824" d=" M 641.59 395.70 C 643.18 394.61 645.13 396.24 644.45 398.06 C 640.15 400.89 635.65 403.43 631.10 405.83 C 635.28 420.77 639.06 435.97 645.96 449.97 C 647.71 451.97 644.19 454.01 642.97 452.17 C 636.19 438.04 632.44 422.75 627.49 407.94 C 622.72 408.81 618.43 411.50 613.48 411.57 C 613.39 410.26 613.33 408.96 613.30 407.66 C 623.64 406.47 632.84 400.98 641.59 395.70 Z" />
<path fill="#030303" d=" M 1156.68 410.33 C 1159.93 410.11 1163.18 409.63 1166.46 409.64 C 1166.55 410.95 1166.59 412.27 1166.62 413.60 C 1162.89 413.12 1159.24 412.19 1155.58 411.39 C 1155.85 411.13 1156.40 410.60 1156.68 410.33 Z" />
<path fill="#4e4d4c" d=" M 982.37 412.24 C 1040.46 411.79 1098.57 409.47 1156.68 410.33 C 1156.40 410.60 1155.85 411.13 1155.58 411.39 C 1148.80 412.17 1141.86 411.47 1135.03 411.68 C 1103.99 411.64 1072.96 412.42 1041.93 413.01 C 1019.17 413.43 996.40 414.13 973.64 413.57 C 976.55 413.20 979.44 412.64 982.37 412.24 Z" />
<path fill="#13b824" d=" M 600.15 411.14 C 601.29 411.46 603.06 410.93 603.65 412.32 C 608.12 419.37 611.17 427.21 614.14 434.98 C 616.25 442.27 620.40 448.78 622.55 456.04 C 623.37 457.94 620.43 459.44 619.44 457.56 C 616.88 450.72 613.94 444.05 611.09 437.33 C 606.13 439.82 601.11 442.18 596.19 444.72 C 599.47 452.43 602.74 460.16 605.48 468.08 C 604.77 470.03 601.58 470.14 601.32 467.92 C 599.52 462.62 598.02 457.21 595.60 452.15 C 590.89 441.76 587.48 430.65 581.49 420.96 C 581.40 420.56 581.21 419.77 581.11 419.38 C 583.47 418.77 585.93 419.67 586.84 422.05 C 589.68 428.26 592.09 434.67 594.80 440.94 C 599.83 438.60 604.94 436.40 609.85 433.78 C 607.53 427.53 604.71 421.47 601.23 415.78 C 600.21 414.43 600.20 412.74 600.15 411.14 Z" />
<path fill="#070707" d=" M 964.58 411.39 C 968.04 411.14 971.52 411.62 974.94 412.23 C 977.40 412.27 979.88 412.21 982.37 412.24 C 979.44 412.64 976.55 413.20 973.64 413.57 C 970.67 413.84 967.68 413.86 964.73 413.44 C 964.69 412.93 964.62 411.91 964.58 411.39 Z" />
<path fill="#dd4f0d" d=" M 238.08 416.20 C 246.42 416.17 255.32 416.00 262.85 420.17 C 267.38 422.45 270.58 426.49 274.05 430.06 C 278.03 434.20 279.80 439.78 281.95 444.98 C 283.33 448.64 285.19 452.15 286.02 456.00 C 287.87 470.65 284.33 485.40 278.94 498.95 C 273.86 509.71 267.41 521.01 256.01 526.03 C 255.18 526.42 254.35 526.80 253.51 527.18 C 243.84 531.49 232.82 530.58 222.78 528.20 C 212.96 525.76 205.64 517.69 201.20 508.96 C 197.90 503.17 195.49 496.74 195.35 490.02 C 195.31 480.62 194.89 470.96 198.21 462.00 C 201.16 449.21 209.49 438.63 218.07 429.09 C 223.71 424.41 229.41 418.02 237.35 418.17 C 237.53 417.67 237.89 416.69 238.08 416.20 Z" />
<path fill="#f5f4f0" d=" M 238.18 418.86 C 248.38 418.69 260.25 419.37 267.62 427.42 C 271.04 430.73 274.46 434.26 276.33 438.73 C 279.39 445.91 283.92 452.97 283.72 461.07 C 283.51 467.73 284.51 474.54 282.72 481.06 C 280.21 491.86 275.22 501.91 269.30 511.21 C 265.67 516.61 260.42 520.50 255.09 524.06 C 242.34 528.73 227.12 529.06 215.15 521.92 C 209.86 517.80 205.11 512.67 202.49 506.42 C 200.06 500.86 197.00 495.25 197.24 488.99 C 197.35 481.85 196.77 474.58 198.55 467.59 C 199.90 462.15 200.78 456.52 203.33 451.46 C 206.13 444.98 210.76 439.60 215.09 434.11 C 218.91 429.55 223.46 425.59 228.54 422.49 C 231.46 420.52 235.22 420.74 238.18 418.86 Z" />
<path fill="#040404" d=" M 462.95 428.70 C 469.51 426.61 476.46 427.78 483.17 426.76 C 483.86 427.88 483.54 429.20 483.51 430.44 C 477.08 431.23 470.48 429.87 464.14 431.49 C 459.57 432.89 454.75 432.59 450.07 433.31 C 443.25 433.27 436.64 435.11 429.87 435.72 C 422.66 437.06 415.32 435.98 408.05 436.52 C 402.30 436.56 396.46 437.30 390.77 436.25 C 393.50 434.39 396.89 435.45 399.96 435.17 C 412.63 433.60 425.60 435.33 438.08 432.04 C 446.12 429.36 454.84 431.09 462.95 428.70 Z" />
<path fill="#13b824" d=" M 551.54 453.17 C 558.97 447.32 563.13 438.38 570.08 432.03 C 571.39 433.26 572.25 435.25 570.54 436.57 C 565.58 442.64 560.81 448.86 556.08 455.12 C 567.10 458.02 577.48 462.93 588.45 466.01 C 588.39 466.78 588.28 468.30 588.22 469.06 C 585.39 469.86 582.69 467.70 579.98 467.02 C 570.75 464.24 561.99 459.83 552.40 458.32 C 552.08 456.60 551.78 454.89 551.54 453.17 Z" />
<path fill="#333332" d=" M 220.89 439.86 C 223.35 437.65 226.88 438.14 229.93 437.88 C 232.80 438.00 235.92 437.23 238.57 438.68 C 233.09 439.44 227.42 438.27 222.05 439.83 C 226.73 440.48 231.46 440.23 236.17 440.32 C 238.07 441.20 237.91 443.78 238.73 445.43 C 238.96 443.16 239.21 440.89 239.44 438.63 C 240.32 443.87 238.11 448.87 237.62 454.03 C 237.08 459.73 236.37 465.45 236.67 471.19 L 236.54 471.29 C 236.36 471.45 235.98 471.78 235.79 471.94 C 236.46 477.92 235.92 483.90 235.25 489.84 C 235.35 497.90 234.21 505.91 234.40 513.97 C 234.40 516.90 234.22 519.83 234.03 522.76 C 230.70 522.66 227.16 523.30 223.99 522.07 C 221.83 519.57 222.03 515.96 221.38 512.91 C 221.10 515.96 220.81 519.02 220.55 522.09 C 220.29 517.76 220.44 513.43 220.41 509.10 C 220.77 508.79 221.50 508.18 221.87 507.87 C 222.43 512.44 222.85 517.02 223.55 521.57 C 226.91 521.77 230.27 521.94 233.62 522.17 C 233.52 495.63 234.69 469.08 236.80 442.64 C 236.55 442.29 236.05 441.59 235.80 441.24 C 232.18 439.74 228.08 441.12 224.26 440.98 C 220.32 447.22 224.88 454.85 221.59 461.15 C 221.92 463.34 222.34 465.53 222.99 467.67 C 222.52 471.75 222.25 475.85 221.75 479.94 C 221.24 480.24 220.22 480.85 219.71 481.15 C 220.93 472.72 221.12 464.18 221.82 455.70 C 222.75 450.99 222.10 446.17 222.63 441.43 C 222.20 441.04 221.33 440.25 220.89 439.86 Z" />
<path fill="#060606" d=" M 222.05 439.83 C 227.42 438.27 233.09 439.44 238.57 438.68 L 239.44 438.63 C 239.21 440.89 238.96 443.16 238.73 445.43 C 237.91 443.78 238.07 441.20 236.17 440.32 C 231.46 440.23 226.73 440.48 222.05 439.83 Z" />
<path fill="#030303" d=" M 1151.64 441.80 C 1152.83 441.36 1154.03 440.91 1155.23 440.43 C 1156.57 440.48 1157.94 440.56 1159.31 440.65 C 1159.39 441.64 1159.48 442.63 1159.57 443.63 C 1157.32 443.84 1155.09 443.58 1152.90 443.19 L 1152.67 442.93 C 1152.41 442.65 1151.90 442.08 1151.64 441.80 Z" />
<path fill="#f5f4f0" d=" M 224.26 440.98 C 228.08 441.12 232.18 439.74 235.80 441.24 C 236.05 441.59 236.55 442.29 236.80 442.64 C 234.69 469.08 233.52 495.63 233.62 522.17 C 230.27 521.94 226.91 521.77 223.55 521.57 C 222.85 517.02 222.43 512.44 221.87 507.87 C 221.11 498.58 221.10 489.23 221.75 479.94 C 222.25 475.85 222.52 471.75 222.99 467.67 C 224.03 461.48 224.74 455.24 225.25 448.99 C 225.43 446.29 225.43 443.49 224.26 440.98 Z" />
<path fill="#515150" d=" M 1090.91 442.03 C 1110.95 441.39 1131.02 441.32 1151.08 441.39 L 1151.64 441.80 C 1151.90 442.08 1152.41 442.65 1152.67 442.93 C 1128.47 443.70 1104.20 442.59 1080.03 444.37 C 1063.71 445.64 1047.34 445.29 1031.01 446.14 C 1015.33 446.10 999.66 446.71 983.99 446.44 C 983.64 446.36 982.96 446.21 982.62 446.13 L 981.16 445.22 C 988.39 444.22 995.73 445.00 1003.02 444.77 C 1032.33 444.26 1061.65 444.01 1090.91 442.03 Z" />
<path fill="#10100f" d=" M 221.59 461.15 C 224.88 454.85 220.32 447.22 224.26 440.98 C 225.43 443.49 225.43 446.29 225.25 448.99 C 224.74 455.24 224.03 461.48 222.99 467.67 C 222.34 465.53 221.92 463.34 221.59 461.15 Z" />
<path fill="#050505" d=" M 961.11 443.22 C 965.31 443.50 969.39 444.82 973.64 444.70 C 976.12 444.91 978.77 444.33 981.16 445.22 L 982.62 446.13 C 976.04 446.38 969.43 446.37 962.85 446.23 C 961.24 445.99 961.28 444.45 961.11 443.22 Z" />
<path fill="#050505" d=" M 130.68 462.74 C 132.48 461.63 134.60 461.43 136.66 461.24 C 136.60 461.75 136.49 462.76 136.44 463.27 C 134.64 463.62 132.87 464.04 131.10 464.50 C 131.14 464.84 131.23 465.51 131.27 465.85 C 131.66 465.50 132.43 464.79 132.82 464.44 C 137.50 464.36 144.18 463.42 146.29 468.85 C 147.22 475.06 145.27 481.52 141.33 486.37 C 138.18 490.20 134.77 494.12 130.21 496.28 C 124.88 498.26 118.85 497.33 113.71 495.18 C 111.25 498.61 109.81 503.32 105.49 504.88 C 105.47 504.20 105.44 502.85 105.42 502.18 C 107.49 499.35 110.00 496.79 111.51 493.58 C 111.06 489.18 111.82 484.82 113.70 480.81 C 117.76 473.55 123.32 466.82 130.68 462.74 Z" />
<path fill="#13b824" d=" M 512.97 469.89 C 524.51 468.10 535.93 465.10 547.61 464.33 C 546.86 464.91 546.02 465.27 545.10 465.41 C 538.04 466.45 531.02 467.71 523.98 468.86 C 515.17 471.22 506.01 471.65 497.06 473.28 C 487.12 475.24 477.08 476.69 467.01 477.84 C 460.40 479.09 453.62 479.07 446.98 480.11 C 439.56 480.56 432.35 482.67 424.90 482.74 C 416.96 483.97 408.89 483.16 400.95 484.27 C 389.97 484.76 378.97 484.26 367.99 484.65 C 358.16 484.77 348.36 485.31 338.53 485.32 C 337.84 490.20 337.35 495.11 336.51 499.97 C 336.20 502.02 334.08 503.85 331.96 503.02 C 322.11 500.51 314.58 493.30 306.42 487.68 C 304.57 486.63 303.94 484.57 303.19 482.75 C 309.17 480.90 314.09 476.84 320.02 474.90 C 326.56 472.44 332.67 468.97 339.14 466.38 C 341.17 468.01 340.94 470.80 340.63 473.10 C 340.12 476.28 339.40 479.43 339.06 482.65 C 348.71 483.00 358.40 482.38 368.03 483.24 C 378.68 483.59 389.33 483.36 399.98 483.29 C 406.34 482.52 412.74 482.48 419.14 482.28 C 423.05 481.40 427.08 481.53 431.06 481.18 C 440.61 479.39 450.33 478.76 459.97 477.69 C 468.70 476.90 477.33 475.37 486.02 474.23 C 492.36 473.18 498.64 471.57 505.08 471.23 L 505.89 470.72 C 508.26 470.58 510.63 470.35 512.97 469.89 Z" />
<path fill="#f5f4f0" d=" M 115.67 479.79 C 119.30 473.47 124.33 467.85 130.92 464.54 C 127.94 466.26 129.84 468.03 130.76 469.51 C 133.91 466.59 138.24 467.13 142.14 467.73 C 144.63 470.85 143.75 475.31 142.76 478.86 C 140.87 484.63 136.51 489.25 131.66 492.72 C 127.07 496.09 120.89 494.75 115.89 493.14 C 112.37 489.26 114.45 484.17 115.67 479.79 Z" />
<path fill="#060606" d=" M 235.79 471.94 C 235.98 471.78 236.36 471.45 236.54 471.29 C 236.91 476.61 236.23 481.90 236.29 487.22 C 239.10 489.60 239.89 493.31 241.16 496.60 C 243.07 502.10 246.56 506.85 248.97 512.13 C 250.67 515.37 251.97 518.88 254.32 521.72 C 254.26 523.20 253.31 524.21 251.97 524.72 C 250.84 520.72 248.15 517.44 246.71 513.57 C 243.79 506.08 239.79 499.10 236.48 491.79 C 236.17 502.65 237.17 513.55 236.27 524.39 C 231.55 525.06 226.75 524.81 222.01 524.46 C 221.65 523.87 220.92 522.68 220.55 522.09 C 220.81 519.02 221.10 515.96 221.38 512.91 C 222.03 515.96 221.83 519.57 223.99 522.07 C 227.16 523.30 230.70 522.66 234.03 522.76 C 234.22 519.83 234.40 516.90 234.40 513.97 C 234.21 505.91 235.35 497.90 235.25 489.84 C 235.92 483.90 236.46 477.92 235.79 471.94 Z" />
<path fill="#20201f" d=" M 219.71 481.15 C 220.22 480.85 221.24 480.24 221.75 479.94 C 221.10 489.23 221.11 498.58 221.87 507.87 C 221.50 508.18 220.77 508.79 220.41 509.10 C 218.94 499.86 219.54 490.46 219.71 481.15 Z" />
<path fill="#545352" d=" M 1204.19 479.56 L 1205.74 478.58 C 1205.59 492.10 1204.26 505.56 1204.08 519.07 C 1202.19 561.03 1202.95 603.04 1202.79 645.03 C 1202.62 649.07 1203.27 653.23 1202.48 657.20 C 1202.23 657.62 1201.74 658.47 1201.49 658.90 C 1200.80 648.27 1201.38 637.60 1201.19 626.95 C 1201.27 597.96 1200.99 568.96 1201.60 539.97 C 1202.39 525.99 1202.11 511.97 1203.29 498.01 C 1203.84 491.87 1203.37 485.67 1204.19 479.56 Z" />
<path fill="#4e4e4d" d=" M 1095.02 481.33 C 1111.25 481.35 1127.50 480.46 1143.70 481.68 C 1145.22 482.30 1146.68 483.05 1148.16 483.82 C 1131.48 482.04 1114.70 482.88 1097.97 482.79 C 1072.65 483.71 1047.28 483.57 1022.00 485.38 C 1003.67 486.04 985.35 487.78 966.99 487.21 C 962.70 487.00 958.21 487.56 954.14 485.90 C 954.21 485.55 954.34 484.83 954.41 484.47 C 960.30 484.20 966.13 485.49 972.02 485.52 C 982.35 486.02 992.64 484.81 1002.96 484.60 C 1018.65 484.11 1034.28 482.59 1049.98 482.32 C 1064.99 482.21 1079.99 481.29 1095.02 481.33 Z" />
<path fill="#111111" d=" M 1143.70 481.68 C 1146.43 481.79 1149.18 481.70 1151.93 481.72 C 1153.54 481.47 1154.43 484.14 1153.05 484.85 C 1151.51 486.38 1149.65 484.37 1148.16 483.82 C 1146.68 483.05 1145.22 482.30 1143.70 481.68 Z" />
<path fill="#050505" d=" M 93.35 502.54 C 94.90 502.39 96.46 502.40 98.01 502.57 C 104.64 504.76 111.34 506.78 118.08 508.62 C 119.34 509.21 121.43 509.34 121.59 511.07 C 121.94 512.85 120.74 514.44 120.17 516.05 C 124.77 522.42 130.00 528.32 134.13 535.02 C 135.37 537.57 138.51 537.41 140.91 537.18 C 147.94 536.29 155.08 535.98 162.14 536.48 C 162.43 536.87 163.02 537.65 163.31 538.03 C 169.97 535.35 175.94 530.96 183.02 529.28 C 185.91 528.42 186.86 531.68 187.12 533.86 C 187.27 536.94 187.47 540.04 187.24 543.12 L 185.79 543.50 C 185.49 543.24 184.89 542.72 184.59 542.46 C 184.20 539.00 184.70 535.44 183.55 532.09 C 176.49 534.49 169.70 537.62 163.17 541.20 C 159.27 543.33 155.73 546.96 150.95 546.61 C 150.73 543.40 154.05 543.53 156.16 542.50 C 143.56 542.24 131.79 547.45 120.02 551.24 C 117.84 551.82 114.83 551.60 113.64 549.41 C 112.56 543.41 112.43 537.20 110.38 531.41 C 106.79 535.08 105.12 540.08 103.74 544.91 C 100.47 556.00 100.53 568.19 104.51 579.09 C 104.15 579.62 103.43 580.68 103.06 581.22 C 101.14 582.07 98.57 582.10 97.23 583.89 C 99.63 582.61 102.41 582.35 104.92 581.32 C 111.25 581.75 117.65 582.02 123.95 580.98 C 126.32 580.69 128.76 580.25 131.14 580.65 C 132.83 581.31 132.56 583.52 132.77 584.99 C 132.90 592.67 132.58 600.36 132.72 608.04 C 133.78 617.76 134.27 627.54 134.52 637.31 C 139.67 638.29 144.98 637.42 150.09 637.79 L 150.52 639.09 C 150.15 639.35 149.40 639.88 149.03 640.14 C 144.70 640.47 140.33 640.54 135.99 640.46 C 134.06 640.44 131.51 639.15 131.50 636.98 C 131.26 628.99 130.90 620.92 132.09 612.99 C 130.82 602.94 132.89 592.56 130.24 582.68 C 126.14 582.41 122.02 582.44 117.93 582.81 C 116.15 583.19 114.35 583.41 112.55 583.58 C 113.92 588.03 112.49 592.65 111.80 597.10 C 111.74 598.62 110.52 599.76 108.99 599.70 C 103.69 599.69 98.39 599.27 93.08 599.25 C 93.83 607.95 92.17 616.85 94.41 625.39 C 93.84 626.70 92.50 626.88 91.25 627.13 C 91.64 617.85 91.50 608.57 91.29 599.30 C 88.66 599.34 86.02 599.37 83.38 599.37 C 83.47 606.26 84.24 613.10 84.49 619.99 C 84.52 622.21 85.45 624.54 84.45 626.69 C 81.95 621.00 83.87 614.58 82.39 608.65 C 81.84 605.47 81.29 602.28 80.53 599.15 C 75.16 598.28 69.69 598.65 64.28 598.90 C 64.26 598.27 64.22 597.01 64.20 596.38 C 70.67 594.64 77.39 596.05 83.94 596.36 C 92.27 596.38 100.59 596.92 108.92 596.76 C 109.66 593.02 110.54 589.27 110.33 585.44 C 98.88 585.13 87.41 585.83 76.06 587.35 C 72.45 587.71 68.82 587.65 65.20 587.58 C 65.23 587.02 65.28 585.91 65.31 585.35 C 68.84 585.32 72.38 585.33 75.91 585.25 C 73.86 580.04 74.78 574.41 74.51 568.97 C 74.51 561.34 73.64 553.51 76.16 546.14 C 77.57 539.61 79.72 533.26 82.24 527.07 C 84.95 518.98 87.41 510.13 94.43 504.61 C 94.16 504.09 93.62 503.06 93.35 502.54 Z" />
<path fill="#040404" d=" M 56.24 503.00 C 58.05 503.02 59.77 503.62 60.81 505.17 C 63.96 508.85 65.19 513.64 66.75 518.12 C 70.20 528.72 69.57 539.99 69.52 550.97 C 68.73 557.83 67.42 564.81 63.21 570.49 C 61.47 571.24 59.65 571.90 57.72 571.78 C 57.75 568.87 57.60 565.95 57.26 563.06 C 56.19 553.67 56.90 544.21 56.53 534.79 C 54.25 538.44 52.42 542.37 51.19 546.50 C 49.14 554.17 49.62 562.17 49.86 570.01 C 50.07 575.06 51.63 579.92 53.48 584.58 C 54.82 587.69 57.73 589.70 60.41 591.57 C 60.43 588.83 60.32 586.10 60.34 583.38 C 60.89 583.38 61.98 583.37 62.53 583.37 C 64.02 587.18 62.20 591.66 64.65 595.13 C 63.73 596.39 62.82 597.65 61.88 598.92 C 60.71 597.84 60.36 596.34 60.16 594.85 C 56.69 592.48 52.66 590.20 51.04 586.09 C 49.33 581.88 47.42 577.59 47.27 572.98 C 47.19 558.94 47.84 544.17 54.96 531.67 C 55.41 531.56 56.32 531.36 56.77 531.26 C 57.56 521.82 56.73 512.43 56.24 503.00 Z" />
<path fill="#f5f4f0" d=" M 88.25 517.07 C 90.29 512.37 93.27 507.92 97.82 505.35 C 104.82 507.51 111.67 510.20 118.81 511.91 C 116.46 516.96 114.01 522.17 110.10 526.22 C 109.39 523.36 109.24 519.94 106.61 518.10 C 104.98 522.53 110.93 526.57 107.91 530.69 C 104.67 535.26 103.12 540.64 101.77 545.99 C 99.74 556.51 97.30 567.92 101.31 578.25 C 101.10 578.50 100.68 579.01 100.47 579.26 C 94.61 581.63 88.28 582.26 82.03 582.68 C 80.66 582.65 79.12 583.01 77.91 582.19 C 75.80 573.97 76.47 565.40 76.31 557.01 C 76.11 551.20 77.69 545.58 78.83 539.95 C 79.34 538.69 79.81 537.41 80.30 536.15 C 82.54 529.62 85.57 523.41 88.25 517.07 Z" />
<path fill="#f5f4f0" d=" M 59.45 507.65 C 63.50 515.45 66.06 524.18 66.49 532.99 C 66.66 541.36 67.37 549.86 65.45 558.11 C 64.94 561.88 63.39 565.48 60.78 568.27 C 59.55 559.26 58.90 550.16 59.16 541.06 C 58.91 529.94 58.02 518.74 59.45 507.65 Z" />
<path fill="#f5f4f0" d=" M 111.61 529.03 C 113.70 525.20 116.21 521.61 118.75 518.05 C 123.10 523.09 128.37 527.65 130.86 533.99 C 131.88 536.37 133.03 539.55 136.09 539.76 C 141.76 540.11 147.44 538.96 153.13 539.42 C 148.34 540.34 143.40 540.75 138.84 542.61 C 133.36 544.78 127.65 546.28 122.02 548.01 C 120.23 548.59 118.34 548.55 116.48 548.60 C 115.69 543.98 114.44 539.46 112.82 535.06 C 112.43 533.06 111.27 531.10 111.61 529.03 Z" />
<path fill="#050505" d=" M 1130.63 522.82 C 1135.58 522.50 1140.55 522.36 1145.52 522.48 C 1145.43 523.77 1145.33 525.07 1145.23 526.38 C 1140.19 525.86 1135.32 524.13 1130.22 524.32 L 1130.50 523.23 L 1130.63 522.82 Z" />
<path fill="#4a4948" d=" M 962.01 524.51 C 976.02 525.41 989.99 523.52 1004.00 523.41 C 1044.31 522.29 1084.65 523.00 1124.97 522.74 C 1126.80 522.81 1128.74 522.49 1130.50 523.23 L 1130.22 524.32 C 1091.81 524.48 1053.40 524.23 1014.99 524.76 C 998.97 524.75 983.02 526.46 967.00 526.55 C 962.93 526.50 958.71 527.71 954.82 526.06 C 956.58 523.75 959.51 524.44 962.01 524.51 Z" />
<path fill="#030303" d=" M 253.51 527.18 C 254.35 526.80 255.18 526.42 256.01 526.03 C 258.24 530.55 260.67 535.12 261.32 540.19 C 260.57 541.95 258.82 543.02 257.00 543.38 C 246.04 544.32 234.99 544.37 224.03 545.33 C 240.55 545.42 257.09 545.57 273.62 545.41 C 273.15 549.09 272.85 552.81 272.21 556.47 C 271.28 559.46 267.59 559.28 265.06 559.21 C 259.87 558.78 254.67 558.53 249.48 558.07 C 249.61 563.38 249.70 568.69 249.84 574.00 C 250.35 580.19 250.79 586.41 250.55 592.63 C 250.09 593.04 249.18 593.87 248.72 594.28 C 247.89 582.26 247.31 570.23 246.50 558.21 C 245.07 558.03 243.65 557.86 242.22 557.70 C 246.00 580.05 243.48 602.84 245.91 625.30 C 245.49 629.56 245.02 633.81 244.78 638.08 C 244.57 631.04 243.79 624.02 243.74 616.99 C 244.89 614.11 243.91 611.08 243.76 608.14 C 243.46 596.98 243.89 585.77 242.56 574.67 C 242.60 568.95 240.80 563.46 240.39 557.80 C 226.99 558.09 213.60 557.46 200.20 557.56 C 199.38 557.03 198.57 556.50 197.75 555.99 C 210.13 554.40 222.59 556.03 235.01 555.72 C 239.04 555.51 243.39 556.53 247.14 554.60 C 248.70 555.14 250.29 555.65 251.96 555.67 C 257.82 555.90 263.71 556.61 269.55 555.78 C 269.67 553.31 269.75 550.83 269.82 548.36 C 244.54 548.33 219.27 548.39 193.99 548.20 C 193.98 547.55 193.96 546.24 193.95 545.59 C 202.31 545.43 210.67 545.58 219.03 545.44 C 220.31 542.26 224.18 542.43 227.03 542.40 C 233.35 542.57 239.64 541.70 245.97 541.61 C 249.92 541.16 254.16 541.80 257.84 539.96 C 257.68 535.38 255.27 531.29 253.51 527.18 Z" />
<path fill="#8e8d8b" d=" M 157.82 540.03 C 158.23 538.59 160.35 538.47 161.41 539.20 C 161.84 540.79 158.13 541.92 157.82 540.03 Z" />
<path fill="#0a0a0a" d=" M 174.00 546.12 C 180.66 546.54 187.28 545.39 193.95 545.59 C 193.96 546.24 193.98 547.55 193.99 548.20 C 184.31 548.04 174.66 548.92 164.98 548.81 C 157.79 549.42 150.58 549.96 143.37 550.37 C 143.46 552.13 143.55 553.89 143.64 555.67 C 149.27 557.44 155.24 556.41 161.02 556.97 C 167.02 557.64 173.00 556.55 179.00 556.72 C 185.25 556.63 191.53 556.76 197.75 555.99 C 198.57 556.50 199.38 557.03 200.20 557.56 C 189.95 559.07 179.56 558.05 169.26 558.88 C 171.26 563.70 170.07 569.05 171.05 574.07 C 172.63 583.98 170.98 594.04 172.18 603.97 C 172.65 612.28 172.39 620.63 173.44 628.89 C 173.91 634.87 175.26 640.97 174.16 646.94 C 172.73 651.06 167.55 649.55 164.50 648.39 C 163.13 645.23 163.38 641.72 163.33 638.36 C 163.98 632.26 161.45 625.89 164.10 620.07 C 165.67 628.72 166.24 637.49 166.79 646.25 C 168.34 646.41 169.89 646.56 171.45 646.71 C 172.64 638.15 171.14 629.56 171.24 620.98 C 171.62 611.61 170.00 602.32 169.67 592.99 C 169.79 581.65 166.98 570.51 167.42 559.16 C 165.05 559.19 162.69 559.19 160.33 559.16 C 160.35 572.19 160.35 585.23 161.76 598.20 C 161.00 593.65 160.56 589.04 159.59 584.53 C 158.53 576.11 159.02 567.57 157.64 559.19 C 152.45 558.84 146.60 560.65 141.90 557.84 C 139.86 554.84 140.55 550.71 141.40 547.40 C 152.34 548.29 163.08 544.81 174.00 546.12 Z" />
<path fill="#f5f4f0" d=" M 164.98 548.81 C 174.66 548.92 184.31 548.04 193.99 548.20 C 219.27 548.39 244.54 548.33 269.82 548.36 C 269.75 550.83 269.67 553.31 269.55 555.78 C 263.71 556.61 257.82 555.90 251.96 555.67 C 250.29 555.65 248.70 555.14 247.14 554.60 C 243.39 556.53 239.04 555.51 235.01 555.72 C 222.59 556.03 210.13 554.40 197.75 555.99 C 191.53 556.76 185.25 556.63 179.00 556.72 C 173.00 556.55 167.02 557.64 161.02 556.97 C 155.24 556.41 149.27 557.44 143.64 555.67 C 143.55 553.89 143.46 552.13 143.37 550.37 C 150.58 549.96 157.79 549.42 164.98 548.81 Z" />
<path fill="#393938" d=" M 1024.99 554.75 C 1033.35 554.94 1041.62 553.46 1049.98 553.55 C 1073.99 553.35 1098.04 551.74 1122.03 553.39 C 1129.77 553.22 1137.57 553.30 1145.24 554.45 C 1144.49 554.99 1143.76 555.55 1143.03 556.11 C 1140.21 555.78 1137.40 555.44 1134.60 555.11 C 1121.11 554.13 1107.54 552.55 1094.03 554.18 C 1074.32 554.67 1054.53 553.80 1034.88 555.53 C 1024.39 555.21 1014.00 556.84 1003.56 557.50 C 992.68 557.71 981.84 558.63 970.97 558.92 C 971.70 558.42 972.45 557.91 973.19 557.40 C 983.79 556.43 994.45 556.84 1005.07 556.26 C 1011.67 555.30 1018.37 555.62 1024.99 554.75 Z" />
<path fill="#e4e3df" d=" M 1034.88 555.53 C 1054.53 553.80 1074.32 554.67 1094.03 554.18 C 1107.54 552.55 1121.11 554.13 1134.60 555.11 C 1130.58 556.02 1126.43 555.76 1122.38 556.36 C 1116.50 557.34 1110.52 556.57 1104.62 557.35 C 1098.40 556.96 1092.16 556.69 1085.96 556.04 C 1081.30 555.68 1076.71 556.88 1072.07 556.87 C 1060.00 556.75 1047.99 558.01 1035.97 558.84 C 1020.65 559.08 1005.38 560.67 990.04 559.93 C 983.47 559.41 976.81 560.56 970.31 559.32 L 970.97 558.92 C 981.84 558.63 992.68 557.71 1003.56 557.50 C 1014.00 556.84 1024.39 555.21 1034.88 555.53 Z" />
<path fill="#040404" d=" M 1145.24 554.45 C 1148.37 554.65 1151.51 554.11 1154.65 554.42 C 1154.68 555.53 1154.71 556.64 1154.75 557.77 C 1152.78 557.69 1150.82 557.53 1148.99 556.81 C 1147.00 556.49 1145.02 556.27 1143.03 556.11 C 1143.76 555.55 1144.49 554.99 1145.24 554.45 Z" />
<path fill="#20201f" d=" M 958.64 559.56 C 962.51 556.01 968.42 557.97 973.19 557.40 C 972.45 557.91 971.70 558.42 970.97 558.92 L 970.31 559.32 C 966.41 559.38 962.52 560.01 958.64 559.56 Z" />
<path fill="#f5f4f0" d=" M 242.22 557.70 C 243.65 557.86 245.07 558.03 246.50 558.21 C 247.31 570.23 247.89 582.26 248.72 594.28 C 248.74 596.98 248.91 599.69 249.20 602.38 C 251.13 618.62 254.21 635.11 251.43 651.45 C 250.66 651.32 249.13 651.05 248.36 650.92 C 248.15 642.33 246.79 633.83 245.91 625.30 C 243.48 602.84 246.00 580.05 242.22 557.70 Z" />
<path fill="#f5f4f0" d=" M 160.33 559.16 C 162.69 559.19 165.05 559.19 167.42 559.16 C 166.98 570.51 169.79 581.65 169.67 592.99 C 170.00 602.32 171.62 611.61 171.24 620.98 C 171.14 629.56 172.64 638.15 171.45 646.71 C 169.89 646.56 168.34 646.41 166.79 646.25 C 166.24 637.49 165.67 628.72 164.10 620.07 C 163.77 612.74 163.11 605.41 161.76 598.20 C 160.35 585.23 160.35 572.19 160.33 559.16 Z" />
<path fill="#4a4948" d=" M 159.59 584.53 C 160.56 589.04 161.00 593.65 161.76 598.20 C 163.11 605.41 163.77 612.74 164.10 620.07 C 161.45 625.89 163.98 632.26 163.33 638.36 C 161.95 632.03 162.84 625.47 161.91 619.07 C 162.01 607.49 159.12 596.11 159.59 584.53 Z" />
<path fill="#060606" d=" M 963.46 588.45 C 970.73 588.06 978.04 588.51 985.32 588.54 C 987.07 588.82 988.84 589.12 990.61 589.48 C 989.47 589.73 988.32 589.91 987.19 590.09 C 979.28 588.61 971.34 590.46 963.43 590.72 C 963.43 590.15 963.45 589.02 963.46 588.45 Z" />
<path fill="#4f4f4d" d=" M 985.32 588.54 C 994.92 587.91 1004.49 589.22 1014.08 589.66 C 1045.29 592.20 1076.65 591.29 1107.95 591.62 C 1112.00 591.84 1116.16 591.16 1120.16 591.85 L 1121.71 592.81 C 1112.87 593.85 1103.93 592.97 1095.06 593.25 C 1066.36 593.30 1037.62 593.41 1008.99 591.03 C 1002.99 590.65 996.93 589.85 990.94 590.64 C 989.76 590.58 987.95 591.25 987.19 590.09 C 988.32 589.91 989.47 589.73 990.61 589.48 C 988.84 589.12 987.07 588.82 985.32 588.54 Z" />
<path fill="#030303" d=" M 1135.11 591.14 C 1136.92 591.20 1137.79 589.36 1139.03 588.38 C 1140.35 589.01 1141.52 589.92 1142.71 590.80 C 1142.30 591.41 1141.49 592.62 1141.08 593.23 C 1134.68 593.91 1127.98 593.97 1121.71 592.81 L 1120.16 591.85 C 1125.12 591.31 1130.12 591.42 1135.11 591.14 Z" />
<path fill="#3d3d3b" d=" M 250.55 592.63 C 252.00 597.21 250.83 602.37 251.90 607.12 C 251.34 604.64 250.77 602.16 250.15 599.70 C 249.91 600.37 249.44 601.71 249.20 602.38 C 248.91 599.69 248.74 596.98 248.72 594.28 C 249.18 593.87 250.09 593.04 250.55 592.63 Z" />
<path fill="#040404" d=" M 250.15 599.70 C 250.77 602.16 251.34 604.64 251.90 607.12 C 253.68 616.98 255.12 626.96 254.73 637.01 C 254.51 641.99 255.34 647.06 254.29 651.98 C 252.71 655.43 247.73 654.77 245.54 652.35 C 244.94 647.63 245.16 642.82 244.78 638.08 C 245.02 633.81 245.49 629.56 245.91 625.30 C 246.79 633.83 248.15 642.33 248.36 650.92 C 249.13 651.05 250.66 651.32 251.43 651.45 C 254.21 635.11 251.13 618.62 249.20 602.38 C 249.44 601.71 249.91 600.37 250.15 599.70 Z" />
<path fill="#030303" d=" M 82.39 608.65 C 83.87 614.58 81.95 621.00 84.45 626.69 L 84.52 626.87 C 84.13 626.76 83.35 626.54 82.96 626.42 C 76.88 632.03 69.14 635.68 63.45 641.72 C 65.63 641.81 67.80 641.81 69.98 641.73 C 74.17 637.78 78.11 633.53 81.17 628.63 C 81.79 628.56 83.04 628.42 83.66 628.35 C 83.77 630.40 81.86 631.36 80.70 632.66 C 76.94 636.10 74.80 640.95 70.94 644.27 C 70.28 644.47 68.95 644.87 68.29 645.07 C 68.97 645.26 69.66 645.47 70.34 645.69 C 70.86 648.03 71.20 651.12 68.53 652.31 C 65.59 652.82 61.50 653.20 59.63 650.28 C 58.78 648.34 59.81 646.42 60.84 644.81 C 60.69 644.39 60.39 643.54 60.24 643.12 C 60.41 642.00 60.58 640.89 60.73 639.78 C 63.41 637.30 66.85 635.94 69.75 633.78 C 72.90 631.58 75.78 629.03 78.59 626.42 C 79.52 625.33 81.04 625.45 82.30 625.15 C 82.47 619.65 82.84 614.14 82.39 608.65 Z" />
<path fill="#090909" d=" M 950.06 618.00 C 951.36 615.66 953.97 616.42 956.11 616.74 C 964.65 618.30 973.43 616.63 981.97 618.14 C 986.97 618.50 992.06 618.13 996.98 619.25 C 1001.76 619.39 1006.54 619.28 1011.32 619.29 C 1008.50 619.61 1005.69 620.08 1002.87 620.36 C 1000.87 620.44 998.89 620.30 996.92 620.18 C 992.66 619.23 988.27 619.81 983.97 619.30 C 976.69 618.22 969.30 618.79 961.97 618.65 C 957.98 618.38 953.78 620.05 950.06 618.00 Z" />
<path fill="#565554" d=" M 1011.32 619.29 C 1040.20 619.27 1069.09 619.44 1097.97 619.36 C 1107.26 619.74 1116.59 619.55 1125.85 620.33 C 1125.43 620.62 1124.60 621.19 1124.18 621.48 C 1118.54 622.19 1112.67 621.23 1106.95 621.35 C 1072.26 620.84 1037.53 621.84 1002.87 620.36 C 1005.69 620.08 1008.50 619.61 1011.32 619.29 Z" />
<path fill="#030303" d=" M 1125.85 620.33 C 1129.13 620.02 1132.45 620.10 1135.74 620.43 C 1135.48 621.94 1135.94 624.35 1133.88 624.69 C 1132.36 625.21 1131.56 623.47 1130.50 622.80 C 1128.44 622.14 1126.26 621.91 1124.18 621.48 C 1124.60 621.19 1125.43 620.62 1125.85 620.33 Z" />
<path fill="#040404" d=" M 96.59 626.17 C 100.90 628.05 104.60 631.00 108.56 633.50 C 110.03 634.56 112.28 635.78 111.81 637.97 C 111.69 639.55 109.98 640.23 109.09 641.33 C 110.97 642.13 113.28 642.59 114.43 644.50 C 115.55 647.45 114.74 651.21 111.74 652.70 C 108.48 654.45 102.92 654.09 101.44 650.11 C 101.09 647.19 103.34 645.06 105.42 643.45 C 104.15 642.03 102.75 640.70 101.07 639.78 C 95.98 636.77 91.13 633.37 86.51 629.68 C 85.53 627.94 86.03 627.24 88.01 627.58 C 89.81 628.53 91.39 629.82 92.93 631.14 C 96.87 634.78 102.14 636.45 106.26 639.85 C 106.99 638.84 108.74 638.29 108.71 636.91 C 105.38 633.08 101.04 630.15 96.29 628.36 C 96.37 627.82 96.52 626.72 96.59 626.17 Z" />
<path fill="#060606" d=" M 906.58 641.07 L 907.78 641.45 L 908.30 641.62 C 908.50 650.07 908.53 658.53 908.59 666.99 C 908.59 670.46 909.07 673.96 908.44 677.41 C 906.71 677.54 904.98 677.59 903.27 677.61 C 902.77 675.52 903.64 674.18 905.62 673.48 C 906.12 662.69 906.14 651.87 906.58 641.07 Z" />
<path fill="#f5f4f0" d=" M 105.82 645.75 C 107.54 645.23 109.27 644.34 111.12 644.68 C 112.46 646.49 112.00 649.16 110.02 650.31 C 108.14 650.83 106.18 650.33 104.29 650.25 C 104.66 648.70 105.20 647.21 105.82 645.75 Z" />
<path fill="#030303" d=" M 1120.96 647.39 C 1121.26 645.58 1122.97 644.54 1124.68 645.41 C 1126.21 646.37 1124.96 648.16 1124.16 649.15 C 1122.54 651.39 1119.35 649.88 1117.03 650.20 C 1116.86 649.65 1116.52 648.55 1116.35 647.99 L 1116.28 647.77 C 1117.83 647.65 1119.39 647.52 1120.96 647.39 Z" />
<path fill="#f5f4f0" d=" M 62.59 646.34 C 64.30 646.45 65.91 647.00 67.47 647.67 C 67.52 648.20 67.62 649.25 67.66 649.77 C 65.86 649.75 64.07 649.68 62.27 649.57 C 62.37 648.49 62.47 647.41 62.59 646.34 Z" />
<path fill="#4e4d4c" d=" M 1053.93 649.61 C 1074.75 649.38 1095.59 649.67 1116.35 647.99 C 1116.52 648.55 1116.86 649.65 1117.03 650.20 C 1104.33 650.09 1091.65 651.26 1078.95 651.10 C 1065.55 651.16 1052.15 651.31 1038.76 651.65 C 1018.87 653.19 998.89 652.93 979.00 654.47 C 972.81 654.84 966.50 654.65 960.50 656.40 C 959.05 656.90 957.57 656.48 956.15 656.20 C 957.13 654.90 958.23 653.47 960.02 653.40 C 966.62 652.48 973.32 653.26 979.96 652.67 C 990.95 651.82 1001.97 651.61 1012.98 651.23 C 1026.65 651.03 1040.26 649.56 1053.93 649.61 Z" />
<path fill="#0b0b0b" d=" M 1201.49 658.90 C 1201.74 658.47 1202.23 657.62 1202.48 657.20 C 1202.79 665.36 1203.83 673.53 1203.57 681.71 C 1203.10 683.66 1200.93 683.51 1199.37 683.50 C 1201.17 675.41 1200.55 667.08 1201.49 658.90 Z" />
<path fill="#060606" d=" M 917.16 680.22 C 919.96 680.28 922.74 680.57 925.54 680.76 L 925.72 680.93 C 926.49 681.68 927.28 682.43 928.07 683.19 C 924.55 683.27 921.04 683.39 917.53 683.32 C 917.39 682.28 917.26 681.24 917.16 680.22 Z" />
<path fill="#51504f" d=" M 925.72 680.93 C 949.12 681.68 972.53 681.17 995.94 681.32 C 1016.65 681.32 1037.37 681.32 1058.09 681.33 C 1072.53 681.30 1086.55 685.76 1101.00 685.80 C 1111.04 686.43 1121.11 685.99 1131.17 686.30 C 1130.85 686.66 1130.19 687.38 1129.86 687.74 C 1119.23 687.88 1108.59 687.71 1097.97 687.40 C 1084.52 686.96 1071.43 682.83 1057.95 683.17 C 1014.65 683.18 971.36 683.13 928.07 683.19 C 927.28 682.43 926.49 681.68 925.72 680.93 Z" />
<path fill="#030303" d=" M 1158.98 686.06 C 1172.51 686.08 1186.11 684.86 1199.63 685.66 C 1199.65 687.02 1199.62 688.39 1199.55 689.76 C 1198.65 689.55 1196.83 689.11 1195.93 688.90 C 1179.32 688.14 1162.69 688.09 1146.07 688.27 C 1140.65 688.45 1135.27 687.45 1129.86 687.74 C 1130.19 687.38 1130.85 686.66 1131.17 686.30 C 1140.44 686.12 1149.71 685.21 1158.98 686.06 Z" />
<path fill="#030303" d=" M 966.13 696.07 C 968.29 691.74 974.27 693.09 977.57 695.28 C 982.02 698.25 980.58 704.24 980.53 708.76 C 979.21 708.69 977.91 708.62 976.61 708.52 C 977.09 705.23 977.32 701.89 976.37 698.66 C 974.24 697.61 971.95 697.01 969.59 697.14 C 968.23 700.97 967.38 705.04 967.77 709.13 C 969.90 714.62 974.71 718.42 977.63 723.45 C 982.06 729.90 984.30 738.19 982.55 745.92 C 980.82 752.80 970.75 757.32 965.52 751.46 C 962.13 746.31 961.67 739.84 961.46 733.84 C 962.17 733.46 963.59 732.69 964.31 732.31 C 965.21 733.35 966.60 734.36 966.26 735.99 C 966.21 740.57 967.04 745.11 968.89 749.32 C 972.80 751.34 977.86 749.12 979.10 744.90 C 980.39 738.38 978.60 731.54 974.97 726.05 C 971.88 720.74 966.92 716.66 964.47 710.97 C 963.92 706.02 963.88 700.63 966.13 696.07 Z" />
<path fill="#030303" d=" M 996.88 720.65 C 1001.09 719.36 1006.37 720.26 1008.91 724.19 C 1011.06 726.81 1010.73 730.35 1010.57 733.51 C 1009.79 734.16 1009.02 734.82 1008.26 735.49 C 1003.92 735.37 999.58 735.56 995.24 735.44 C 994.55 741.08 996.62 746.62 1000.79 750.47 C 1001.64 750.52 1003.35 750.60 1004.20 750.64 C 1006.35 748.43 1007.88 745.74 1009.77 743.32 C 1012.20 742.72 1013.24 745.32 1011.61 746.93 C 1009.41 750.89 1005.97 755.24 1000.85 754.43 C 995.63 752.03 992.72 746.42 991.72 740.99 C 991.30 737.33 991.69 733.64 991.76 729.97 C 992.58 726.48 993.68 722.70 996.88 720.65 Z" />
<path fill="#030303" d=" M 1020.37 722.47 C 1021.49 722.38 1022.62 722.30 1023.77 722.25 C 1024.23 724.16 1024.51 726.11 1024.73 728.08 C 1027.98 727.01 1030.81 724.83 1034.20 724.18 C 1034.53 724.69 1035.20 725.71 1035.53 726.22 C 1032.58 729.40 1028.29 730.65 1024.52 732.54 C 1024.46 738.77 1024.62 744.99 1024.47 751.22 C 1023.51 753.00 1022.04 752.04 1020.72 751.36 C 1020.72 741.73 1021.01 732.08 1020.37 722.47 Z" />
<path fill="#030303" d=" M 1055.84 722.57 C 1056.81 722.48 1057.79 722.41 1058.79 722.35 C 1059.14 726.44 1057.31 730.19 1056.20 734.02 C 1054.25 740.07 1052.58 746.23 1050.18 752.12 C 1049.67 754.09 1047.54 754.48 1045.90 755.05 C 1040.87 746.80 1042.13 736.54 1039.55 727.51 C 1040.26 726.67 1041.08 725.96 1042.01 725.38 C 1043.70 726.24 1044.04 728.20 1044.24 729.91 C 1044.71 736.43 1045.54 742.95 1047.08 749.31 C 1050.70 740.66 1053.39 731.61 1055.84 722.57 Z" />
<path fill="#f5f4f0" d=" M 998.74 723.52 C 1001.07 723.60 1003.67 723.75 1005.37 725.61 C 1007.11 727.12 1006.69 729.60 1006.99 731.66 C 1003.06 731.64 999.13 731.61 995.21 731.56 C 995.70 728.61 996.64 725.72 998.74 723.52 Z" />
<path fill="#030303" d=" M 1094.67 724.68 C 1098.81 722.89 1098.53 728.23 1098.68 730.84 C 1101.66 729.39 1104.38 727.50 1107.08 725.60 C 1109.00 725.25 1109.80 726.10 1109.48 728.14 C 1106.42 731.18 1102.54 733.24 1098.62 734.96 C 1098.68 741.54 1098.81 748.13 1098.66 754.72 C 1097.52 754.73 1096.40 754.75 1095.29 754.76 C 1095.59 744.72 1094.45 734.69 1094.67 724.68 Z" />
<path fill="#030303" d=" M 1070.94 726.78 C 1075.20 725.91 1079.63 726.87 1083.64 728.42 C 1084.96 731.51 1084.20 734.81 1082.18 737.41 C 1077.92 737.46 1073.66 737.54 1069.41 737.58 C 1069.37 742.16 1068.61 747.44 1071.77 751.26 C 1074.14 752.87 1077.96 753.31 1080.16 751.16 C 1081.14 750.28 1082.05 749.31 1082.98 748.35 C 1083.57 748.42 1084.74 748.56 1085.32 748.62 C 1085.41 749.23 1085.58 750.45 1085.66 751.06 C 1083.62 753.46 1081.03 755.29 1078.09 756.40 C 1074.22 756.24 1069.16 755.71 1067.58 751.54 C 1064.70 746.46 1066.00 740.55 1065.37 735.04 C 1066.78 732.04 1067.42 728.07 1070.94 726.78 Z" />
<path fill="#f5f4f0" d=" M 1069.75 733.59 C 1070.41 732.49 1070.74 731.01 1071.96 730.37 C 1074.77 730.03 1077.59 730.57 1080.41 730.85 C 1080.43 731.77 1080.46 732.70 1080.51 733.64 C 1076.92 733.74 1073.33 733.71 1069.75 733.59 Z" />
</svg>
