<?xml version="1.0" encoding="UTF-8" ?>
<!DOCTYPE svg PUBLIC "-//W3C//DTD SVG 1.1//EN" "http://www.w3.org/Graphics/SVG/1.1/DTD/svg11.dtd">
<svg width="1155pt" height="866pt" viewBox="0 0 1155 866" version="1.1" xmlns="http://www.w3.org/2000/svg">
<path fill="#f5f4f0" d=" M 0.00 0.00 L 1155.00 0.00 L 1155.00 866.00 L 0.00 866.00 L 0.00 0.00 Z" />
<path fill="#111010" d=" M 14.96 21.02 C 14.88 18.41 13.59 14.24 17.33 13.64 C 16.95 20.63 16.19 27.60 16.22 34.62 C 19.99 35.47 23.86 35.22 27.70 35.25 C 27.61 35.81 27.44 36.93 27.36 37.49 C 22.92 36.68 17.13 38.63 13.75 35.02 C 14.93 30.45 15.81 25.74 14.96 21.02 Z" />
<path fill="#1b1b1a" d=" M 58.15 14.65 C 58.66 14.95 59.68 15.53 60.20 15.82 C 60.24 18.97 59.79 22.11 59.82 25.26 C 62.36 22.55 64.21 19.28 66.83 16.64 C 66.63 20.99 62.02 23.57 60.73 27.66 C 61.41 27.51 62.78 27.22 63.47 27.08 C 64.19 31.55 66.07 35.72 67.23 40.08 C 66.88 40.58 66.17 41.58 65.82 42.08 C 64.73 37.61 63.96 33.03 61.93 28.86 C 61.19 28.43 60.44 28.00 59.70 27.57 C 59.52 31.23 59.53 34.90 59.88 38.56 C 59.49 38.49 58.70 38.34 58.30 38.27 C 58.57 30.40 58.43 22.52 58.15 14.65 Z" />
<path fill="#2a2a29" d=" M 32.38 19.26 C 32.78 18.52 33.56 17.04 33.95 16.29 C 36.32 16.75 36.99 18.39 36.45 20.58 C 34.99 20.49 33.60 20.09 32.38 19.26 Z" />
<path fill="#222222" d=" M 89.79 18.29 C 90.28 18.29 91.26 18.29 91.75 18.29 C 91.94 24.77 89.93 30.96 88.95 37.29 C 93.19 38.22 97.57 38.45 101.84 37.58 C 101.85 38.06 101.87 39.02 101.89 39.50 C 97.73 39.43 93.57 39.70 89.43 39.37 C 88.21 39.36 87.51 38.17 86.60 37.54 C 89.75 31.64 90.05 24.83 89.79 18.29 Z" />
<path fill="#080808" d=" M 123.53 33.73 C 123.47 30.19 121.05 24.74 124.83 22.55 C 124.85 25.70 124.58 28.85 124.78 32.00 C 126.98 30.71 128.58 28.73 130.01 26.68 C 130.45 26.66 131.31 26.61 131.75 26.59 C 131.38 30.33 129.31 33.57 128.28 37.12 C 127.02 40.53 126.99 44.19 126.68 47.76 C 126.32 47.71 125.60 47.63 125.24 47.58 C 125.75 42.36 126.90 37.17 128.72 32.25 C 127.17 33.39 125.44 33.88 123.53 33.73 Z" />
<path fill="#060606" d=" M 156.34 23.42 C 156.85 23.47 157.86 23.57 158.37 23.63 C 158.29 25.38 158.21 27.13 158.14 28.89 C 160.93 28.83 163.65 27.25 166.40 27.68 L 166.52 29.30 C 163.69 30.37 160.63 30.50 157.66 30.91 C 157.55 33.46 157.92 35.99 158.19 38.52 C 157.60 39.03 156.99 39.52 156.37 39.98 C 156.47 34.46 156.29 28.94 156.34 23.42 Z" />
<path fill="#2a2a29" d=" M 34.73 24.67 C 35.23 24.57 36.21 24.36 36.71 24.26 C 36.76 28.47 36.53 32.67 36.48 36.87 C 35.98 36.84 34.98 36.78 34.48 36.75 C 35.48 32.78 35.12 28.69 34.73 24.67 Z" />
<path fill="#171717" d=" M 43.65 24.73 C 44.03 24.32 44.80 23.49 45.19 23.08 C 45.35 24.12 45.67 26.19 45.83 27.23 C 46.37 26.61 47.45 25.36 47.99 24.73 C 49.54 23.57 50.43 25.93 50.54 27.10 C 50.97 31.18 50.55 35.31 51.17 39.39 L 49.65 39.27 C 49.79 35.25 49.70 31.21 49.01 27.25 C 45.20 28.88 46.07 33.62 45.13 36.93 C 44.70 37.02 43.83 37.21 43.40 37.30 C 43.77 33.12 43.29 28.89 43.65 24.73 Z" />
<path fill="#0b0b0b" d=" M 137.30 33.12 C 139.36 28.43 144.38 25.53 149.18 24.32 C 149.52 25.01 150.20 26.41 150.55 27.11 C 149.14 28.81 147.88 30.81 145.81 31.78 C 143.80 32.95 141.41 32.28 139.23 32.36 C 141.03 35.23 144.04 37.13 147.50 36.95 C 147.56 37.44 147.70 38.42 147.77 38.91 C 143.55 38.82 139.73 36.48 137.30 33.12 Z" />
<path fill="#080808" d=" M 105.47 26.68 C 107.27 25.93 109.21 24.76 111.19 25.62 C 113.00 27.68 113.62 30.47 114.35 33.04 C 112.60 34.65 110.51 35.82 108.60 37.22 C 110.36 37.73 112.13 38.56 114.02 38.30 C 115.64 37.32 116.20 35.37 117.25 33.90 C 118.38 35.85 117.70 38.32 115.88 39.56 C 113.44 41.30 110.38 40.06 107.79 39.42 C 107.43 38.77 106.73 37.47 106.38 36.82 C 107.69 34.74 109.85 33.55 111.99 32.48 C 111.51 30.80 110.90 29.16 110.24 27.55 C 108.60 28.05 106.96 28.56 105.31 29.02 C 105.35 28.43 105.43 27.26 105.47 26.68 Z" />
<path fill="#f5f4f0" d=" M 142.05 30.82 C 142.10 27.69 145.91 27.35 148.23 26.77 C 146.91 29.07 144.55 30.26 142.05 30.82 Z" />
<path fill="#040404" d=" M 827.26 67.19 C 840.77 65.47 854.43 66.42 868.00 66.40 C 882.82 66.11 897.18 70.36 911.14 74.83 C 921.44 79.02 932.13 82.56 941.47 88.74 C 946.91 92.08 952.24 95.69 956.68 100.32 C 958.06 101.91 959.46 103.51 960.79 105.17 C 964.87 111.05 970.34 115.88 973.74 122.25 C 979.34 130.17 982.37 139.47 984.38 148.88 C 984.96 154.59 984.35 160.36 985.00 166.08 C 985.62 172.13 984.88 178.32 986.44 184.26 C 995.56 186.26 1004.09 190.10 1012.89 193.13 C 1030.09 201.32 1041.70 218.36 1046.45 236.47 C 1050.74 246.05 1052.18 256.62 1051.56 267.06 C 1050.89 277.41 1052.45 287.86 1050.54 298.12 C 1049.95 303.30 1047.99 308.17 1045.85 312.88 C 1039.12 322.89 1032.91 333.67 1023.28 341.22 C 1018.20 344.76 1012.43 347.15 1006.91 349.91 C 998.01 353.48 989.83 358.58 981.01 362.34 C 975.17 364.14 969.04 364.44 962.98 364.83 C 958.08 366.21 952.94 365.42 947.93 365.63 C 938.59 365.42 929.07 366.56 919.93 364.05 C 913.11 362.76 906.63 359.63 899.62 359.60 C 899.78 368.55 898.34 377.44 895.56 385.94 C 894.26 390.65 891.95 395.05 889.05 398.97 C 884.00 405.44 876.46 409.10 870.34 414.37 C 861.94 421.27 852.57 427.14 842.09 430.29 C 833.42 431.18 824.70 430.78 816.01 430.82 C 799.59 432.04 783.05 430.92 766.65 432.62 C 765.79 435.03 765.11 437.51 764.01 439.84 C 757.99 450.35 750.56 461.23 738.87 465.89 C 724.54 472.32 708.26 470.88 693.13 468.85 C 686.60 467.99 680.30 466.04 673.94 464.46 C 665.78 462.19 657.31 460.49 649.99 456.03 C 643.36 451.85 636.88 447.23 631.75 441.26 C 625.54 434.51 617.60 429.54 611.88 422.34 C 601.52 422.56 590.76 420.84 581.99 414.98 C 572.24 407.62 562.67 398.40 559.80 386.08 C 559.66 378.71 560.19 371.20 562.24 364.08 C 564.97 352.41 570.95 341.89 576.68 331.49 C 584.47 318.23 594.57 305.74 608.30 298.32 C 608.51 299.25 608.72 300.18 608.93 301.12 C 601.51 304.44 594.90 309.39 589.21 315.16 C 583.40 322.00 578.51 329.59 574.26 337.48 C 571.17 343.76 567.61 349.86 565.36 356.52 C 561.97 365.62 561.21 375.50 561.83 385.13 C 563.76 394.34 569.93 402.08 576.95 408.09 C 582.60 413.66 589.85 417.91 597.81 418.98 C 602.89 419.94 608.10 419.06 613.21 419.67 C 620.47 428.09 628.14 436.18 635.98 444.07 C 642.83 450.14 650.52 455.47 659.11 458.78 C 665.53 461.61 672.41 463.12 679.15 464.96 C 686.30 466.92 693.61 468.43 701.03 468.81 C 710.98 470.00 721.11 469.19 730.88 467.03 C 735.69 465.53 740.51 463.60 744.43 460.35 C 748.86 456.51 753.74 452.99 756.85 447.90 C 759.19 443.77 761.82 439.66 762.83 434.96 C 763.31 433.50 763.44 431.76 764.68 430.69 C 767.20 429.20 770.23 429.78 773.02 429.69 C 786.68 429.59 800.30 430.95 813.97 430.33 C 825.34 429.78 837.35 431.91 848.13 427.24 C 856.69 423.76 864.31 418.35 871.34 412.42 C 876.34 407.37 882.88 404.00 887.23 398.29 C 893.01 390.39 895.23 380.63 896.60 371.12 C 897.15 366.60 896.10 361.95 897.51 357.55 C 902.81 355.51 907.80 359.36 912.88 360.51 C 927.71 365.66 943.62 364.27 959.03 364.42 C 967.45 363.15 976.28 362.85 984.03 358.93 C 988.26 356.69 992.92 355.43 997.15 353.20 C 998.46 352.48 999.79 351.79 1001.14 351.11 C 1008.39 348.03 1015.34 344.28 1022.03 340.15 C 1027.39 336.80 1030.70 331.33 1034.74 326.65 C 1037.94 323.12 1040.49 319.09 1043.24 315.21 C 1048.12 307.38 1049.31 297.91 1049.85 288.87 C 1050.80 280.94 1050.42 272.94 1050.28 264.98 C 1050.33 258.24 1049.89 251.42 1048.22 244.87 C 1044.62 237.52 1043.58 229.25 1039.70 222.01 C 1037.70 216.62 1034.34 211.76 1030.19 207.80 C 1024.08 202.38 1017.89 196.65 1010.15 193.66 C 1003.36 191.02 996.36 188.79 989.11 187.86 C 986.88 187.33 983.44 186.92 983.32 184.01 C 982.89 176.33 983.69 168.64 983.70 160.95 C 983.66 155.22 984.29 149.29 982.16 143.83 C 981.06 140.26 980.23 136.60 978.93 133.09 C 978.37 131.97 977.81 130.84 977.28 129.72 C 976.26 128.08 975.25 126.45 974.23 124.83 C 972.51 121.94 970.91 118.96 968.73 116.38 L 968.47 115.64 C 966.86 113.95 965.26 112.26 963.65 110.58 L 963.45 109.75 C 960.59 106.54 958.21 102.93 955.12 99.94 C 950.59 95.29 944.98 91.94 939.55 88.49 C 930.68 82.98 920.76 79.56 911.10 75.74 C 900.01 72.13 888.72 68.73 877.07 67.58 C 860.73 67.27 844.33 65.79 828.07 67.97 C 824.71 68.64 821.46 69.70 818.42 71.25 C 817.14 71.98 816.13 70.18 815.08 69.87 C 818.51 67.15 823.16 67.64 827.26 67.19 Z" />
<path fill="#080808" d=" M 264.08 123.04 C 268.13 121.16 272.52 119.85 276.99 119.58 C 280.71 119.11 284.01 121.16 287.14 122.86 C 289.76 124.15 290.89 127.11 293.08 128.82 C 295.88 128.03 297.81 125.13 300.95 125.16 C 305.94 123.92 310.35 127.17 314.49 129.44 C 320.01 132.16 322.16 139.86 319.28 145.17 C 323.45 145.45 327.66 148.55 328.15 152.89 C 328.49 155.51 329.00 158.35 328.04 160.89 C 326.08 163.69 322.99 165.36 320.07 166.97 C 320.54 170.68 321.19 174.74 319.09 178.11 C 315.90 183.36 310.50 188.06 303.98 187.72 C 299.01 188.72 294.44 186.06 290.95 182.78 C 293.93 181.11 296.37 184.12 298.99 185.10 C 306.50 187.60 314.75 182.78 317.78 175.80 C 319.26 172.52 317.46 169.10 317.00 165.82 C 320.66 164.61 324.67 162.83 326.38 159.12 C 326.72 155.32 326.07 150.79 322.62 148.52 C 319.76 146.56 315.58 149.04 313.16 146.20 C 315.38 144.67 318.72 143.30 318.35 140.00 C 318.82 135.29 315.28 131.60 311.20 129.96 C 307.44 127.87 302.52 125.86 298.48 128.33 C 296.39 129.49 294.53 131.70 291.91 131.37 C 289.66 129.15 288.47 125.88 285.50 124.42 C 278.56 119.58 268.91 121.63 262.63 126.59 C 259.51 130.22 258.41 135.03 256.12 139.13 C 251.03 140.11 245.61 141.96 242.60 146.51 C 239.96 152.04 244.28 160.53 250.99 159.65 C 252.74 159.97 255.08 158.84 256.34 160.50 C 256.47 163.78 256.26 167.17 257.83 170.18 C 262.15 172.51 267.11 171.10 271.75 171.36 C 271.54 173.75 268.84 173.62 267.06 173.66 C 263.47 173.64 259.24 174.30 256.42 171.53 C 253.96 169.13 254.36 165.41 254.04 162.29 C 250.45 162.21 246.23 162.36 243.62 159.42 C 239.64 155.89 238.38 149.48 240.85 144.81 C 244.22 140.80 249.17 138.08 254.33 137.21 C 257.09 132.24 258.48 125.67 264.08 123.04 Z" />
<path fill="#000000" d=" M 381.52 121.76 C 385.98 119.52 391.18 120.01 396.03 119.74 C 408.46 119.59 421.40 120.50 432.62 126.36 C 434.77 127.82 436.63 129.69 438.81 131.14 C 448.30 136.41 451.87 147.66 454.00 157.63 C 454.92 165.71 457.01 173.82 456.06 182.00 C 454.78 185.55 450.63 184.47 447.72 184.52 C 447.29 176.02 448.72 167.08 445.22 159.05 C 442.93 153.51 441.41 147.36 437.15 142.92 C 434.35 139.49 431.91 135.34 427.55 133.70 C 417.80 131.08 407.97 128.11 397.83 127.85 C 393.08 128.46 388.38 129.29 383.65 129.96 C 382.64 127.31 381.86 124.58 381.52 121.76 Z" />
<path fill="#000000" d=" M 382.80 134.40 C 392.92 134.59 403.18 133.63 413.13 135.95 C 416.77 136.77 420.17 138.50 423.07 140.85 C 426.54 143.80 431.40 145.14 433.78 149.29 C 441.37 159.83 440.87 173.54 440.66 185.91 C 436.96 186.55 433.17 186.51 429.50 187.36 C 429.57 180.51 429.37 173.66 428.31 166.88 C 426.32 162.63 424.57 158.17 421.63 154.47 C 417.38 150.01 412.16 146.11 405.96 145.02 C 398.20 142.81 390.12 143.23 382.16 143.44 C 382.53 140.44 382.82 137.42 382.80 134.40 Z" />
<path fill="#060505" d=" M 664.90 145.67 C 671.76 143.77 678.96 144.60 685.99 144.46 C 691.69 144.70 697.55 143.79 703.07 145.69 C 703.40 146.22 704.08 147.27 704.42 147.80 C 704.08 155.98 705.46 164.53 702.28 172.34 C 695.81 172.41 689.41 173.50 682.94 173.40 C 677.44 173.29 671.94 175.18 666.52 173.55 C 664.87 170.18 666.44 166.51 666.55 163.00 C 666.77 158.05 666.77 153.09 666.75 148.13 C 666.13 147.31 665.52 146.48 664.90 145.67 Z" />
<path fill="#f5f4f0" d=" M 669.21 147.26 C 674.78 146.56 680.40 146.88 686.00 146.79 C 691.13 146.82 696.37 146.33 701.38 147.72 C 701.56 147.99 701.90 148.55 702.08 148.83 C 702.52 155.61 702.16 162.44 701.13 169.16 C 700.88 169.37 700.37 169.81 700.12 170.03 C 695.09 170.37 690.06 170.90 685.01 170.82 C 679.39 170.77 673.83 172.31 668.21 171.61 C 668.73 163.50 669.19 155.39 669.21 147.26 Z" />
<path fill="#000000" d=" M 381.08 151.87 C 382.90 150.86 384.89 150.17 387.01 150.30 C 392.65 150.35 398.51 149.59 403.96 151.46 C 408.26 152.81 412.18 155.50 414.75 159.24 C 417.35 163.03 420.25 166.85 421.25 171.44 C 422.79 176.97 422.28 182.75 422.23 188.41 C 419.92 190.59 416.00 189.88 413.05 190.59 C 413.74 182.80 415.32 174.08 410.74 167.13 C 408.17 163.48 404.43 160.79 400.63 158.55 C 394.72 156.48 388.57 158.78 382.67 159.62 C 381.56 157.19 381.19 154.52 381.08 151.87 Z" />
<path fill="#040404" d=" M 128.00 168.14 C 124.59 162.08 128.69 154.07 134.76 151.54 C 136.98 152.23 139.26 152.75 141.45 153.54 C 143.91 158.21 141.56 163.76 138.61 167.61 C 136.81 170.18 133.59 170.25 130.79 170.61 C 130.09 171.47 129.47 172.39 128.84 173.29 C 131.18 173.49 134.07 173.60 135.26 176.03 C 138.73 178.99 140.07 183.50 142.02 187.47 C 143.77 187.10 145.53 186.77 147.30 186.49 C 147.41 187.02 147.61 188.09 147.72 188.62 C 146.29 188.98 144.86 189.34 143.43 189.69 C 142.98 198.17 142.15 206.62 140.64 214.97 C 140.68 220.69 140.18 226.35 138.96 231.94 C 138.83 237.92 138.11 244.08 139.75 249.92 C 141.13 249.84 142.50 249.71 143.86 249.53 C 144.77 244.77 143.77 239.81 144.59 235.01 C 145.69 229.39 145.31 223.62 146.41 218.01 C 147.89 208.42 148.81 198.74 148.63 189.03 C 149.13 189.07 150.14 189.15 150.64 189.19 C 150.64 193.34 150.60 197.49 150.18 201.61 C 159.16 201.89 168.59 200.17 177.11 203.80 C 177.52 204.87 177.94 205.95 178.36 207.02 C 178.09 207.62 177.55 208.82 177.28 209.42 C 168.83 210.90 160.17 210.11 151.63 210.34 C 151.53 209.80 151.33 208.73 151.24 208.19 C 159.46 208.18 167.67 207.84 175.87 207.43 C 175.58 206.95 175.00 206.01 174.72 205.54 C 166.63 202.74 157.95 204.15 149.58 203.71 C 149.26 211.97 147.70 220.13 147.55 228.40 C 155.84 228.38 164.14 228.00 172.43 228.33 C 173.51 230.23 174.70 233.69 171.59 234.33 C 163.92 234.91 156.15 234.91 148.47 234.71 C 148.28 234.20 147.90 233.17 147.71 232.66 C 154.49 232.39 161.28 232.39 168.06 232.32 C 169.45 232.46 170.72 231.93 171.57 230.79 C 163.52 230.10 155.43 231.01 147.37 230.47 C 146.48 237.38 146.66 244.34 146.36 251.28 C 144.11 251.85 141.84 252.30 139.54 252.60 C 137.49 250.64 136.46 247.85 136.62 245.03 C 136.36 243.33 137.33 240.69 135.20 239.96 C 131.34 240.10 127.44 240.28 123.56 240.20 C 123.96 246.56 121.14 252.51 121.14 258.85 C 122.64 259.52 124.14 260.18 125.65 260.84 C 125.65 261.38 125.64 262.44 125.64 262.98 C 122.80 262.71 120.43 261.09 118.36 259.24 C 119.52 252.91 121.53 246.69 121.44 240.19 C 117.48 240.18 113.51 240.21 109.55 240.13 C 106.96 247.32 101.54 253.30 100.27 261.05 C 102.83 262.16 105.54 262.84 108.32 263.06 C 108.34 263.66 108.38 264.86 108.40 265.47 C 104.93 265.54 101.26 264.58 98.59 262.27 C 97.59 260.34 98.49 258.15 99.25 256.32 C 101.89 250.82 104.90 245.50 107.42 239.95 C 100.93 239.16 94.50 237.75 88.42 235.32 C 84.40 233.47 81.62 229.16 82.27 224.66 C 75.54 223.73 68.81 222.86 62.04 222.33 C 56.67 221.79 51.24 221.10 45.86 221.80 C 41.87 222.93 37.50 224.40 34.83 227.76 C 33.54 231.14 34.20 235.04 35.75 238.25 C 37.29 241.50 37.85 245.17 39.78 248.25 C 44.89 256.13 46.69 265.79 46.43 275.06 C 46.31 279.20 47.22 283.62 45.33 287.49 C 41.08 294.34 35.51 301.55 27.04 302.98 C 27.16 302.43 27.40 301.33 27.52 300.78 C 30.99 298.98 34.97 297.69 37.43 294.45 C 40.29 290.72 43.98 286.96 44.26 282.00 C 44.64 273.61 44.24 265.07 41.73 257.01 C 40.52 252.64 36.89 249.45 35.78 245.03 C 34.11 239.50 30.08 233.94 32.36 227.97 C 33.43 223.96 37.66 222.51 41.03 220.95 C 45.66 218.74 50.93 219.11 55.90 219.47 C 64.77 220.36 73.74 220.61 82.47 222.55 C 82.97 220.62 83.47 218.68 83.95 216.74 C 77.88 215.44 71.98 213.52 66.15 211.43 C 55.55 209.04 44.06 210.18 34.45 215.39 C 30.22 218.15 26.31 222.01 25.06 227.06 C 23.98 231.57 23.88 236.32 24.34 240.92 C 26.18 247.57 32.50 251.46 35.32 257.58 C 39.08 263.74 37.26 271.18 37.73 277.98 C 38.31 283.95 33.33 288.50 29.03 291.83 C 26.11 293.71 23.42 296.65 19.71 296.61 C 19.66 296.12 19.58 295.14 19.53 294.64 C 26.65 292.77 33.29 287.91 36.35 281.10 C 37.40 275.11 36.81 268.90 36.36 262.86 C 33.24 254.83 25.64 249.59 22.77 241.45 C 22.20 235.57 22.28 229.29 24.79 223.81 C 26.86 220.31 30.17 217.80 33.12 215.10 C 38.37 212.34 44.09 210.40 49.96 209.52 C 56.34 209.45 62.90 208.69 69.13 210.52 C 74.38 211.89 79.59 213.48 84.92 214.54 C 86.97 210.57 89.78 207.01 93.07 204.00 C 96.25 201.40 100.34 200.37 104.13 198.97 C 102.77 195.33 99.19 191.28 101.58 187.36 C 106.72 182.76 113.09 179.87 118.82 176.10 C 118.68 174.81 118.51 173.52 118.35 172.23 C 120.92 172.51 123.47 172.88 126.02 173.35 C 126.76 171.69 129.55 170.12 128.00 168.14 Z" />
<path fill="#dd4e0c" d=" M 676.31 152.57 C 682.25 152.61 688.19 152.62 694.13 152.39 C 696.03 154.42 695.03 157.51 695.29 160.03 C 695.02 162.34 696.13 166.29 692.92 166.86 C 687.66 167.85 682.26 167.54 676.94 167.69 C 674.54 162.96 676.52 157.59 676.31 152.57 Z" />
<path fill="#f5f4f0" d=" M 132.66 155.61 C 133.67 154.77 134.83 156.05 135.87 156.21 C 136.47 155.76 137.69 154.84 138.29 154.38 C 142.07 156.86 139.27 161.65 137.82 164.73 C 136.52 167.70 131.89 169.19 129.65 166.59 C 128.53 162.85 129.60 158.21 132.66 155.61 Z" />
<path fill="#2a2a29" d=" M 214.91 161.04 C 214.79 159.39 214.46 154.67 217.08 156.87 C 217.47 163.56 216.36 170.23 215.53 176.85 L 214.34 176.95 C 215.01 171.67 215.67 166.35 214.91 161.04 Z" />
<path fill="#040404" d=" M 277.69 168.96 C 277.73 166.12 278.99 162.95 281.83 161.87 C 281.96 164.42 280.23 166.48 279.82 168.92 C 279.63 173.78 281.82 178.27 282.68 182.97 C 284.03 188.19 283.66 193.63 283.63 198.96 C 283.73 205.47 279.58 210.97 275.84 215.92 C 270.65 220.49 264.81 224.72 257.99 226.45 C 251.11 227.41 243.97 227.56 237.34 225.20 C 237.14 226.81 237.10 228.42 237.24 230.05 C 236.79 230.16 235.87 230.39 235.42 230.51 C 236.50 225.76 236.36 220.88 236.56 216.05 C 233.45 209.56 227.20 205.73 222.44 200.60 C 220.44 198.42 216.89 197.50 216.22 194.29 C 222.71 195.83 226.21 202.05 231.29 205.78 C 234.65 208.06 236.56 211.70 238.69 215.03 C 238.53 217.81 238.30 220.59 238.07 223.37 C 244.31 224.72 250.73 224.93 257.09 224.62 C 263.23 223.80 268.55 220.13 273.09 216.13 C 276.20 213.65 278.00 210.01 279.72 206.51 C 282.25 201.39 281.18 195.50 281.43 190.01 C 281.58 182.76 277.57 176.20 277.69 168.96 Z" />
<path fill="#080808" d=" M 294.28 164.26 C 294.87 164.34 296.03 164.48 296.62 164.55 C 295.44 166.92 293.37 168.71 292.28 171.14 C 290.21 175.39 290.73 180.27 290.92 184.85 C 291.72 191.19 291.32 197.58 291.37 203.96 C 291.43 209.59 289.41 214.98 286.71 219.83 C 283.91 225.57 280.39 231.40 274.77 234.77 C 263.42 240.11 250.19 242.09 238.02 238.37 C 236.98 237.98 237.33 236.82 237.34 235.98 C 249.67 239.07 263.29 238.63 274.72 232.72 C 281.00 228.10 284.90 220.93 287.55 213.73 C 289.12 209.68 288.87 205.27 289.13 201.02 C 288.82 192.68 288.65 184.32 288.81 175.97 C 288.95 171.50 291.15 167.36 294.28 164.26 Z" />
<path fill="#000000" d=" M 386.67 168.83 C 392.19 167.01 398.94 168.63 402.31 173.58 C 406.66 179.49 405.16 188.96 398.75 192.79 C 392.55 196.98 383.05 194.83 379.57 188.09 C 375.33 181.23 379.16 171.43 386.67 168.83 Z" />
<path fill="#1b1b1a" d=" M 431.21 169.51 C 433.00 168.82 433.68 172.68 431.90 172.96 C 430.54 172.54 430.31 170.45 431.21 169.51 Z" />
<path fill="#f5f4f0" d=" M 121.56 175.06 C 125.27 175.55 129.00 175.88 132.74 175.82 C 132.23 181.82 129.51 187.38 129.08 193.38 C 129.55 193.33 130.50 193.22 130.97 193.17 C 132.64 188.39 133.28 183.32 134.72 178.47 C 137.75 183.42 140.92 188.77 140.88 194.77 C 133.29 193.88 125.62 194.41 118.03 194.96 C 120.51 188.62 120.84 181.75 121.56 175.06 Z" />
<path fill="#040404" d=" M 725.22 177.36 C 728.65 177.40 731.92 178.50 734.96 180.03 C 736.32 180.64 737.69 181.24 739.08 181.81 C 740.66 182.61 742.24 183.40 743.81 184.25 C 746.59 185.52 749.47 186.50 752.34 187.55 C 749.78 187.95 747.44 186.79 745.18 185.80 C 743.83 185.14 742.50 184.47 741.19 183.78 C 736.12 181.49 730.78 179.49 725.14 179.55 C 725.16 179.00 725.20 177.90 725.22 177.36 Z" />
<path fill="#eb0c3c" d=" M 755.55 199.05 C 756.10 187.49 766.36 177.70 777.85 177.21 C 778.03 183.81 776.61 190.33 776.69 196.94 C 776.91 205.96 774.83 214.83 775.17 223.86 C 763.42 222.50 754.38 210.73 755.55 199.05 Z" />
<path fill="#0b0b0b" d=" M 214.60 176.99 L 215.56 177.26 C 215.12 179.48 214.67 181.71 214.60 183.98 C 214.39 190.05 212.49 195.94 212.49 202.03 C 212.50 206.96 213.02 211.98 211.82 216.83 C 212.18 212.10 212.18 207.34 211.50 202.64 C 211.62 199.31 212.25 196.04 212.61 192.73 C 210.16 192.51 207.71 192.31 205.25 192.20 C 203.99 198.08 202.41 203.95 202.28 210.00 C 202.15 217.71 200.38 225.28 200.17 232.99 C 199.84 238.92 199.10 244.82 198.50 250.73 C 200.67 251.08 202.85 251.32 205.05 251.42 C 206.27 251.62 207.49 251.83 208.72 251.97 C 209.07 253.12 209.42 254.27 209.76 255.43 C 209.95 261.31 208.53 267.15 209.07 273.03 C 209.26 275.30 209.05 277.57 208.68 279.81 C 208.13 279.76 207.04 279.65 206.49 279.60 C 206.34 270.81 207.19 262.06 208.59 253.40 C 204.50 253.83 200.09 254.36 196.36 252.23 C 196.13 245.71 197.85 239.35 198.44 232.89 C 198.53 224.84 201.07 217.08 201.23 209.03 C 201.23 203.95 202.37 198.96 202.57 193.89 C 202.56 192.18 203.44 190.46 205.04 189.73 C 207.82 189.42 210.53 190.38 213.26 190.71 C 213.27 186.10 213.86 181.53 214.60 176.99 Z" />
<path fill="#eb0c3c" d=" M 781.43 194.97 C 781.32 189.07 782.47 183.26 782.60 177.37 C 790.92 178.92 798.47 184.83 801.16 192.97 C 804.22 201.09 802.05 210.78 796.05 217.01 C 791.82 221.65 785.69 223.96 779.54 224.50 C 779.47 214.62 781.40 204.86 781.43 194.97 Z" />
<path fill="#f5f4f0" d=" M 103.27 188.95 C 108.18 185.06 113.49 181.70 118.90 178.56 C 119.18 184.31 116.42 189.63 116.33 195.27 C 112.96 195.87 109.80 197.65 106.35 197.70 C 104.67 195.11 102.61 192.21 103.27 188.95 Z" />
<path fill="#010101" d=" M 667.61 179.57 C 677.74 178.23 688.03 178.46 698.22 178.86 C 701.15 179.03 702.41 182.06 703.52 184.34 C 704.91 187.88 706.36 191.50 706.69 195.33 C 702.24 196.71 697.56 196.10 692.99 196.18 C 687.99 196.24 682.98 196.51 678.00 195.92 C 671.84 195.14 665.63 196.15 659.47 195.57 C 658.63 188.88 666.82 185.81 667.61 179.57 Z" />
<path fill="#f5f4f0" d=" M 671.41 181.47 C 680.61 180.93 690.01 180.20 699.07 181.80 C 702.13 185.09 702.93 189.72 703.92 193.94 C 689.91 195.24 675.85 193.60 661.82 193.42 C 663.69 188.52 667.31 184.63 671.41 181.47 Z" />
<path fill="#222221" d=" M 674.35 184.19 C 680.38 184.64 686.43 184.96 692.48 184.49 C 692.50 185.03 692.55 186.11 692.57 186.65 C 686.61 186.31 680.64 186.69 674.69 186.39 C 674.60 185.84 674.44 184.74 674.35 184.19 Z" />
<path fill="#0a0a0a" d=" M 673.94 188.61 C 679.50 188.12 685.12 188.51 690.71 188.38 C 690.33 189.06 689.95 189.74 689.58 190.43 C 685.43 190.49 681.28 190.66 677.14 190.42 C 675.83 190.38 674.94 189.29 673.94 188.61 Z" />
<path fill="#f5f4f0" d=" M 205.25 192.20 C 207.71 192.31 210.16 192.51 212.61 192.73 C 212.25 196.04 211.62 199.31 211.50 202.64 C 210.75 210.75 209.72 218.84 209.61 227.00 C 208.66 235.29 208.24 243.63 208.72 251.97 C 207.49 251.83 206.27 251.62 205.05 251.42 C 202.85 251.32 200.67 251.08 198.50 250.73 C 199.10 244.82 199.84 238.92 200.17 232.99 C 200.38 225.28 202.15 217.71 202.28 210.00 C 202.41 203.95 203.99 198.08 205.25 192.20 Z" />
<path fill="#f5f4f0" d=" M 107.48 200.21 C 117.90 195.29 129.63 197.24 140.72 196.42 C 139.81 204.95 138.19 213.43 138.18 222.03 C 137.74 227.51 135.93 232.88 136.63 238.44 C 131.56 236.95 126.22 237.98 121.02 237.69 C 110.47 238.02 99.64 237.33 89.76 233.34 C 87.30 232.44 85.94 230.10 84.51 228.07 C 83.50 215.78 92.64 202.96 105.04 201.05 L 105.61 201.46 C 107.63 206.31 109.99 211.01 112.42 215.67 C 113.00 215.67 114.18 215.67 114.77 215.67 C 112.88 210.26 109.64 205.49 107.48 200.21 Z" />
<path fill="#1f1e1e" d=" M 211.50 202.64 C 212.18 207.34 212.18 212.10 211.82 216.83 C 211.45 226.23 210.11 235.57 210.21 244.99 C 210.18 248.47 210.46 251.99 209.76 255.43 C 209.42 254.27 209.07 253.12 208.72 251.97 C 208.24 243.63 208.66 235.29 209.61 227.00 C 209.72 218.84 210.75 210.75 211.50 202.64 Z" />
<path fill="#000000" d=" M 806.84 215.18 C 812.44 216.73 817.38 220.12 822.80 222.25 C 827.59 224.71 832.04 227.78 836.86 230.20 C 844.24 233.50 850.09 239.41 857.47 242.74 C 862.28 244.91 867.16 246.96 871.79 249.53 C 872.31 249.79 873.37 250.32 873.90 250.58 C 875.48 248.95 876.97 247.21 878.44 245.48 C 880.32 249.49 881.94 253.87 885.40 256.84 C 885.90 258.14 886.36 259.46 886.78 260.80 C 882.77 261.08 879.06 259.21 875.08 259.17 C 872.89 258.70 870.13 259.17 868.62 257.20 C 868.73 255.30 870.48 253.18 869.57 251.41 C 864.44 247.68 858.61 245.05 853.19 241.79 C 844.59 236.29 836.04 230.74 827.18 225.66 C 820.56 221.86 813.30 219.25 806.84 215.18 Z" />
<path fill="#0a0a0a" d=" M 235.08 231.09 C 237.74 234.59 235.90 239.31 236.12 243.40 C 228.90 247.35 220.93 249.73 213.32 252.85 C 212.88 249.58 216.85 249.24 218.95 248.04 C 223.87 246.55 228.46 243.20 233.74 243.45 C 234.31 239.35 235.24 235.26 235.08 231.09 Z" />
<path fill="#000000" d=" M 410.68 236.65 C 417.83 236.75 424.98 236.18 432.13 236.45 C 433.28 236.43 434.26 237.09 435.29 237.51 C 435.73 244.24 435.95 250.99 435.60 257.73 C 435.57 258.95 434.18 259.46 433.50 260.31 C 430.85 260.22 428.20 260.24 425.56 260.26 C 425.61 264.69 425.56 269.12 425.56 273.55 C 430.39 273.56 435.25 273.49 440.02 272.65 C 447.99 271.42 456.05 271.59 464.09 271.48 C 475.91 270.54 487.76 269.88 499.61 269.20 C 499.65 266.28 499.63 263.37 499.59 260.45 C 495.32 260.69 491.03 260.74 486.77 260.40 C 485.51 255.67 485.62 250.72 484.72 245.93 C 484.32 242.48 482.81 238.82 484.62 235.52 C 488.17 237.80 492.16 235.68 495.99 235.68 C 500.37 235.59 504.76 235.42 509.15 235.59 C 510.40 238.26 511.41 241.07 511.74 244.02 C 512.38 248.79 514.26 253.70 512.52 258.44 C 509.22 259.07 505.86 259.48 502.62 260.41 C 502.65 263.39 502.61 266.38 502.49 269.36 C 509.55 268.23 516.71 268.15 523.84 268.31 C 523.70 269.27 523.57 270.24 523.43 271.21 C 502.29 271.42 481.21 273.50 460.11 274.44 C 459.74 277.39 459.73 280.39 460.15 283.34 C 463.57 283.39 467.05 282.99 470.45 283.62 C 472.15 284.73 472.22 287.09 472.49 288.93 C 472.64 293.73 472.71 298.56 472.46 303.36 C 472.62 304.65 471.40 305.69 470.18 305.57 C 462.80 306.65 455.29 306.50 447.99 308.13 C 446.64 308.65 445.31 307.65 444.42 306.77 C 443.98 299.45 444.74 292.08 443.88 284.77 C 444.07 284.47 444.45 283.88 444.64 283.58 C 448.69 284.03 452.74 283.56 456.80 283.33 C 456.84 280.38 456.83 277.43 456.83 274.48 C 446.40 274.00 436.22 276.81 425.80 276.52 C 424.59 277.84 423.22 277.74 421.96 276.53 C 415.51 276.31 409.05 276.60 402.60 276.46 C 402.59 275.47 402.59 274.49 402.60 273.50 C 409.27 273.39 415.94 273.59 422.61 273.54 C 422.60 269.15 422.60 264.75 422.47 260.37 C 419.19 260.33 415.91 260.31 412.63 260.33 C 410.56 257.64 411.60 254.14 411.28 251.02 C 410.94 246.23 410.61 241.45 410.68 236.65 Z" />
<path fill="#f5f4f0" d=" M 487.11 239.83 C 493.79 238.39 500.61 238.46 507.41 238.45 C 509.06 244.02 509.74 249.82 510.46 255.57 C 503.47 257.53 496.15 258.07 488.93 257.57 C 488.68 251.62 487.41 245.77 487.11 239.83 Z" />
<path fill="#f5f4f0" d=" M 413.65 240.35 C 419.72 238.67 426.16 239.61 432.40 239.45 C 432.92 245.38 432.86 251.34 432.68 257.28 C 426.57 257.31 420.46 257.51 414.34 257.39 C 414.45 251.70 413.80 246.04 413.65 240.35 Z" />
<path fill="#f6af1e" d=" M 938.33 239.35 C 938.88 239.37 939.99 239.41 940.55 239.43 C 944.09 244.34 946.02 250.14 948.12 255.76 C 950.03 260.97 953.59 265.62 954.07 271.30 C 944.02 271.46 933.96 270.89 923.93 271.50 C 922.63 271.63 921.43 271.37 920.33 270.73 C 925.71 259.91 932.34 249.80 938.33 239.35 Z" />
<path fill="#090909" d=" M 871.79 249.53 C 872.77 247.15 874.05 244.90 875.11 242.55 C 876.25 243.48 877.36 244.46 878.44 245.48 C 876.97 247.21 875.48 248.95 873.90 250.58 C 873.37 250.32 872.31 249.79 871.79 249.53 Z" />
<path fill="#030303" d=" M 691.99 248.25 C 695.48 248.36 698.91 247.36 702.40 247.52 C 704.05 249.17 704.33 251.76 703.99 253.98 C 702.51 263.72 704.64 273.90 701.36 283.39 C 693.47 285.00 685.32 283.96 677.33 284.64 C 677.37 283.96 677.43 283.28 677.55 282.61 C 684.85 282.19 692.18 282.30 699.47 281.52 C 701.07 274.48 701.14 267.21 701.32 260.03 C 701.61 256.62 701.85 253.20 701.54 249.79 C 687.77 251.49 673.88 249.44 660.07 249.74 C 660.17 249.20 660.37 248.13 660.47 247.59 C 670.90 249.37 681.48 248.10 691.99 248.25 Z" />
<path fill="#040404" d=" M 659.40 252.40 C 659.99 252.37 661.19 252.31 661.79 252.28 C 661.78 262.79 660.28 273.46 662.33 283.86 C 667.24 284.35 672.69 282.32 677.19 284.96 C 672.40 285.06 667.69 285.97 662.94 286.39 C 660.61 286.76 659.64 283.92 659.78 282.07 C 660.12 275.42 660.79 268.71 659.89 262.07 C 659.50 258.86 659.48 255.63 659.40 252.40 Z" />
<path fill="#f6b228" d=" M 681.15 257.09 C 681.78 255.90 683.73 254.79 684.58 256.45 C 688.23 261.84 690.03 268.26 691.83 274.46 C 686.53 276.08 680.83 274.55 675.60 276.45 C 673.59 277.48 671.71 276.14 670.02 275.19 C 672.85 268.65 677.32 263.04 681.15 257.09 Z" />
<path fill="#000000" d=" M 306.40 259.53 C 309.00 259.02 312.46 259.94 313.00 262.91 C 313.72 266.03 316.06 268.37 318.16 270.64 C 322.50 274.65 328.52 275.72 333.93 277.61 C 337.53 278.95 341.44 278.75 345.22 278.81 C 345.82 277.64 344.76 274.52 346.91 274.66 C 347.38 274.78 348.33 275.01 348.80 275.13 C 356.94 274.05 365.21 275.13 373.40 274.55 C 368.89 272.43 364.44 270.18 360.35 267.32 C 360.42 266.78 360.55 265.68 360.62 265.14 C 363.89 265.14 366.32 267.51 369.04 268.98 C 373.57 271.47 378.61 273.15 382.82 276.15 C 383.85 279.09 382.68 282.46 382.46 285.53 C 378.05 285.91 373.62 285.74 369.21 285.77 C 368.56 286.64 367.91 287.50 367.26 288.37 C 360.36 288.34 353.46 288.29 346.56 288.39 C 344.83 287.41 344.28 285.74 344.46 283.84 C 336.72 284.42 329.04 282.23 322.14 278.83 C 319.06 277.39 315.59 276.46 313.17 273.94 C 309.44 270.09 305.05 265.40 306.40 259.53 Z" />
<path fill="#13b824" d=" M 776.86 261.45 C 788.03 258.12 800.67 266.06 802.98 277.40 C 788.94 277.01 774.98 278.51 760.96 278.78 C 762.46 270.61 768.64 263.35 776.86 261.45 Z" />
<path fill="#403f3e" d=" M 309.24 263.19 C 309.74 263.70 309.74 263.70 309.24 263.19 Z" />
<path fill="#000000" d=" M 846.41 265.03 C 849.45 265.75 851.99 267.64 854.66 269.18 C 858.17 271.45 861.87 273.48 865.14 276.12 C 866.63 278.84 862.51 278.83 860.91 279.64 C 855.24 280.99 850.70 284.85 845.41 286.94 C 845.31 285.59 843.12 281.56 845.86 282.07 C 846.18 282.47 846.82 283.28 847.14 283.68 C 847.28 282.58 847.40 281.46 847.58 280.37 C 847.14 280.47 846.25 280.68 845.80 280.79 L 845.60 279.21 C 836.67 278.87 827.84 280.65 818.92 280.18 C 814.46 280.05 810.02 280.62 805.57 280.43 C 807.04 279.20 808.99 278.88 810.86 278.74 C 816.91 278.46 822.99 278.75 829.02 278.10 C 834.72 277.02 840.54 277.34 846.31 277.27 C 847.32 273.25 847.65 269.05 846.41 265.03 Z" />
<path fill="#0a0a0a" d=" M 910.64 274.49 C 920.07 273.94 929.56 274.48 939.01 274.36 C 947.95 275.18 957.03 273.75 965.85 275.77 C 972.77 277.15 979.92 276.03 986.85 277.42 C 986.74 277.91 986.52 278.90 986.41 279.40 C 980.63 279.34 974.90 278.56 969.13 278.39 C 961.87 276.86 954.47 275.78 947.03 275.82 C 936.88 276.09 926.76 274.72 916.61 275.34 C 914.80 275.43 913.11 276.09 911.47 276.74 C 911.55 277.58 911.73 279.25 911.81 280.09 C 920.98 285.47 932.06 284.14 942.10 286.53 C 947.75 287.97 953.69 287.02 959.33 288.51 C 958.94 288.56 958.17 288.64 957.78 288.68 C 950.81 289.18 943.92 287.83 937.09 286.64 C 929.76 285.28 922.23 285.60 914.95 283.92 C 913.01 283.48 910.99 282.79 909.76 281.14 C 908.54 278.97 909.60 276.49 910.64 274.49 Z" />
<path fill="#313130" d=" M 919.59 281.84 C 918.66 280.22 918.20 276.99 920.93 277.20 C 923.31 276.64 924.33 280.18 922.44 281.31 C 921.48 281.52 920.53 281.70 919.59 281.84 Z" />
<path fill="#030303" d=" M 728.19 278.52 C 738.29 280.61 748.61 280.64 758.89 280.46 C 758.89 280.71 758.89 281.22 758.89 281.47 C 751.57 281.43 744.25 281.36 736.94 281.73 C 733.73 281.74 729.29 282.42 728.19 278.52 Z" />
<path fill="#13b824" d=" M 760.97 283.55 C 775.17 282.62 789.39 281.72 803.63 281.82 C 803.44 287.50 801.34 293.19 797.22 297.19 C 792.05 302.49 784.01 304.67 776.87 302.77 C 768.17 300.70 761.27 292.53 760.97 283.55 Z" />
<path fill="#090909" d=" M 978.01 288.51 C 984.94 288.01 991.71 285.93 998.71 286.23 C 998.65 286.76 998.54 287.82 998.48 288.35 C 992.97 288.30 987.56 289.60 982.05 289.42 C 973.55 289.45 965.02 289.86 956.55 289.22 L 957.78 288.68 C 958.17 288.64 958.94 288.56 959.33 288.51 C 965.55 288.37 971.78 288.77 978.01 288.51 Z" />
<path fill="#f5f4f0" d=" M 447.32 304.98 C 447.28 298.94 447.16 292.90 447.44 286.87 C 454.67 286.09 461.95 286.05 469.20 286.36 C 469.88 291.77 469.53 297.23 469.59 302.67 C 462.17 303.55 454.71 303.90 447.32 304.98 Z" />
<path fill="#000000" d=" M 855.00 295.86 C 862.44 293.25 869.23 286.91 877.60 288.58 C 877.44 295.71 872.03 300.70 868.87 306.60 C 868.17 307.86 867.21 308.96 866.07 309.83 C 865.56 306.10 861.85 303.93 859.02 302.01 C 855.58 302.82 852.77 305.13 849.69 306.74 C 844.66 309.87 839.23 312.23 833.93 314.84 C 825.94 318.25 818.28 322.33 810.81 326.75 C 805.36 329.43 800.51 333.07 795.55 336.53 C 793.13 338.01 790.66 339.68 787.75 339.85 C 793.10 336.98 798.04 333.45 803.16 330.17 C 807.75 326.87 813.04 324.76 817.86 321.81 C 824.09 318.04 831.01 315.58 837.15 311.63 C 843.81 307.53 851.15 304.66 857.62 300.24 C 856.64 298.84 855.73 297.39 855.00 295.86 Z" />
<path fill="#070706" d=" M 691.94 291.42 C 695.16 291.28 699.28 288.96 701.59 292.40 C 703.52 295.83 705.20 299.42 706.92 302.97 C 707.84 304.32 706.61 305.78 706.42 307.17 C 703.32 307.43 700.29 308.18 697.21 308.53 C 696.02 308.29 694.85 308.01 693.69 307.74 C 695.35 307.25 697.06 306.81 698.74 306.28 C 700.81 305.68 702.90 305.19 705.02 304.71 C 703.39 300.80 701.54 297.00 699.91 293.10 C 687.88 294.26 675.79 293.46 663.73 293.73 C 660.93 297.31 658.66 301.28 657.14 305.56 C 659.65 306.02 662.19 306.33 664.74 306.51 C 666.59 306.82 668.42 307.24 670.28 307.55 C 665.06 307.02 659.17 309.07 654.42 306.32 C 656.17 300.88 659.23 295.92 662.94 291.60 C 672.60 291.36 682.27 291.59 691.94 291.42 Z" />
<path fill="#f5f4f0" d=" M 657.14 305.56 C 658.66 301.28 660.93 297.31 663.73 293.73 C 675.79 293.46 687.88 294.26 699.91 293.10 C 701.54 297.00 703.39 300.80 705.02 304.71 C 702.90 305.19 700.81 305.68 698.74 306.28 C 691.47 307.35 684.05 307.10 676.92 305.29 C 679.84 304.82 682.78 304.48 685.75 304.35 C 685.61 303.61 685.34 302.13 685.20 301.39 C 687.05 301.36 688.91 301.34 690.77 301.31 C 690.80 300.87 690.87 299.98 690.91 299.54 C 690.11 299.36 688.51 298.99 687.72 298.80 C 689.18 296.68 692.59 297.89 694.87 297.34 C 695.07 296.65 695.28 295.97 695.49 295.29 C 686.83 296.86 678.06 298.23 669.22 297.46 C 669.22 297.95 669.21 298.94 669.21 299.43 C 674.74 299.93 680.47 297.50 685.81 299.08 C 685.81 299.32 685.82 299.79 685.83 300.02 C 680.72 301.44 674.87 300.06 670.21 302.84 C 674.28 302.93 678.31 302.25 682.39 302.36 C 679.05 303.32 675.57 303.53 672.15 303.97 C 672.21 304.56 672.33 305.75 672.39 306.34 C 669.84 306.39 667.29 306.47 664.74 306.51 C 662.19 306.33 659.65 306.02 657.14 305.56 Z" />
<path fill="#141413" d=" M 669.22 297.46 C 678.06 298.23 686.83 296.86 695.49 295.29 C 695.28 295.97 695.07 296.65 694.87 297.34 C 692.59 297.89 689.18 296.68 687.72 298.80 C 688.51 298.99 690.11 299.36 690.91 299.54 C 690.87 299.98 690.80 300.87 690.77 301.31 C 688.91 301.34 687.05 301.36 685.20 301.39 C 685.34 302.13 685.61 303.61 685.75 304.35 C 682.78 304.48 679.84 304.82 676.92 305.29 C 675.22 305.26 673.45 305.24 672.15 303.97 C 675.57 303.53 679.05 303.32 682.39 302.36 C 678.31 302.25 674.28 302.93 670.21 302.84 C 674.87 300.06 680.72 301.44 685.83 300.02 C 685.82 299.79 685.81 299.32 685.81 299.08 C 680.47 297.50 674.74 299.93 669.21 299.43 C 669.21 298.94 669.22 297.95 669.22 297.46 Z" />
<path fill="#000000" d=" M 182.09 298.17 C 183.44 297.51 184.89 297.21 186.38 297.12 C 186.91 298.51 187.44 299.91 187.95 301.32 C 188.59 301.36 189.88 301.43 190.52 301.47 C 193.79 314.47 197.60 327.64 204.96 339.00 C 208.16 344.88 211.33 350.98 216.34 355.56 C 220.00 359.62 223.87 363.67 228.86 366.10 C 238.22 369.86 247.67 373.39 257.09 376.99 C 260.76 377.94 264.97 377.23 268.10 379.82 C 272.43 382.30 274.72 386.91 275.65 391.64 C 280.13 398.25 278.87 406.65 277.01 413.95 C 274.13 422.33 266.28 427.89 258.43 431.21 C 252.18 432.19 245.46 432.10 239.52 429.66 C 234.72 427.77 229.54 426.73 225.26 423.70 C 220.74 420.41 215.05 418.99 210.97 415.08 C 202.26 406.40 193.86 397.40 186.10 387.86 C 179.47 377.98 175.35 366.69 171.76 355.42 C 169.36 349.85 168.71 343.78 166.99 338.00 C 164.98 330.15 166.66 321.81 164.30 314.05 C 164.58 313.56 165.14 312.58 165.42 312.09 C 165.59 308.10 164.98 303.96 166.54 300.16 C 168.10 300.11 169.63 300.33 170.80 301.48 C 171.13 301.39 171.80 301.20 172.14 301.11 C 173.08 298.91 175.02 297.48 177.24 299.20 C 178.49 297.73 180.31 297.32 182.09 298.17 Z" />
<path fill="#2a2a29" d=" M 866.06 299.30 C 869.38 299.50 864.45 302.24 866.06 299.30 Z" />
<path fill="#353534" d=" M 672.39 306.34 C 672.33 305.75 672.21 304.56 672.15 303.97 C 673.45 305.24 675.22 305.26 676.92 305.29 C 684.05 307.10 691.47 307.35 698.74 306.28 C 697.06 306.81 695.35 307.25 693.69 307.74 C 694.85 308.01 696.02 308.29 697.21 308.53 C 691.77 309.54 686.27 308.48 680.89 307.64 C 677.36 307.07 673.81 307.65 670.28 307.55 C 668.42 307.24 666.59 306.82 664.74 306.51 C 667.29 306.47 669.84 306.39 672.39 306.34 Z" />
<path fill="#eb0c3c" d=" M 765.74 340.15 C 772.81 341.46 778.87 347.05 780.47 354.09 C 781.20 358.37 781.08 363.02 778.97 366.92 C 776.22 372.45 770.60 376.14 764.57 377.09 C 764.19 364.75 765.92 352.48 765.74 340.15 Z" />
<path fill="#eb0c3c" d=" M 744.16 362.06 C 741.68 351.51 750.42 340.21 761.28 339.98 C 761.47 345.97 760.93 351.95 760.52 357.93 C 760.03 364.29 760.49 370.69 759.74 377.04 C 752.17 375.70 745.52 369.73 744.16 362.06 Z" />
<path fill="#191919" d=" M 686.01 361.15 C 692.22 361.36 698.39 359.25 704.58 360.43 C 704.77 362.30 704.91 364.19 704.74 366.07 C 703.70 375.34 705.22 384.71 704.00 393.96 C 703.72 395.79 701.82 396.77 700.10 396.45 C 690.06 395.55 679.98 396.11 669.93 395.62 C 668.35 395.66 666.94 394.96 665.58 394.30 C 665.39 384.39 666.07 374.46 664.92 364.59 C 665.54 364.53 666.76 364.40 667.38 364.33 C 667.29 373.55 665.72 382.90 667.81 392.02 C 668.34 393.44 670.08 393.32 671.32 393.51 C 681.37 394.01 691.44 393.34 701.49 393.93 C 702.43 383.50 702.61 373.01 702.68 362.56 C 699.13 362.42 695.57 362.20 692.02 362.44 C 682.64 363.36 673.21 361.97 663.84 363.11 C 663.36 362.79 662.40 362.14 661.92 361.82 C 664.79 360.52 667.93 361.25 670.96 361.32 C 675.97 361.56 680.99 361.00 686.01 361.15 Z" />
<path fill="#000000" d=" M 1021.47 361.32 C 1025.54 360.16 1029.80 361.08 1033.91 361.60 C 1038.10 362.33 1042.73 362.23 1046.36 364.79 C 1047.06 366.11 1046.65 367.63 1046.64 369.06 C 1044.13 370.32 1042.96 372.93 1041.42 375.11 C 1046.04 379.86 1050.43 385.02 1052.95 391.23 C 1054.34 394.96 1056.71 398.23 1058.09 401.96 C 1059.07 406.57 1058.64 411.34 1058.64 416.02 C 1058.41 421.04 1058.83 426.17 1057.50 431.08 C 1056.09 438.24 1052.70 444.80 1050.94 451.87 C 1049.73 456.99 1046.26 461.07 1043.55 465.45 C 1039.51 470.62 1035.40 476.11 1029.48 479.23 C 1026.39 480.84 1023.11 482.04 1019.78 483.04 C 1019.95 482.62 1020.30 481.79 1020.47 481.38 L 1020.65 480.94 C 1029.86 479.27 1036.47 472.21 1042.26 465.41 C 1045.12 461.62 1047.07 457.27 1049.32 453.11 C 1052.78 441.68 1057.14 430.13 1056.47 417.98 C 1056.14 411.25 1057.53 403.83 1053.50 397.91 C 1050.25 390.23 1046.25 382.72 1039.83 377.20 C 1036.54 381.67 1031.99 386.37 1025.90 385.64 C 1024.44 378.19 1019.33 371.75 1019.17 363.99 C 1019.14 362.61 1020.07 361.46 1021.47 361.32 Z" />
<path fill="#3b3b3a" d=" M 1041.22 365.16 C 1044.21 363.65 1041.32 368.50 1041.22 365.16 Z" />
<path fill="#0f37fe" d=" M 678.37 367.61 C 684.58 364.08 693.28 368.88 693.72 375.96 C 694.62 382.05 689.15 388.06 683.00 387.68 C 676.93 387.95 671.68 381.99 672.50 376.02 C 672.85 372.45 675.12 369.14 678.37 367.61 Z" />
<path fill="#030303" d=" M 729.08 378.23 C 732.63 376.75 735.40 373.69 739.24 372.90 C 733.94 377.05 728.66 382.39 721.45 382.48 C 721.36 381.50 721.28 380.54 721.21 379.58 C 723.87 379.47 726.65 379.50 729.08 378.23 Z" />
<path fill="#f2f2f2" d=" M 246.41 381.60 C 252.75 380.95 260.04 380.36 265.47 384.42 C 267.76 386.16 270.29 387.83 271.63 390.46 C 275.69 398.51 277.40 408.80 272.64 416.92 C 269.40 421.18 265.92 425.64 261.00 428.04 C 246.85 432.14 231.23 420.54 230.19 406.02 C 230.01 400.82 230.18 394.99 233.92 390.93 C 237.46 387.11 241.79 383.96 246.41 381.60 Z" />
<path fill="#000000" d=" M 245.58 384.63 C 247.74 382.94 250.76 383.18 253.14 384.27 C 256.39 384.91 259.61 385.74 262.69 386.99 C 260.65 387.90 259.06 389.41 258.25 391.51 C 257.36 391.29 256.47 391.06 255.59 390.85 C 255.91 388.16 255.00 385.30 252.27 384.29 C 248.94 383.71 246.19 386.59 246.29 389.82 C 244.04 389.47 241.85 389.82 239.82 390.83 C 239.34 392.30 238.87 393.77 238.43 395.27 C 236.16 395.51 234.46 396.97 233.16 398.73 C 233.06 401.60 234.77 404.90 238.05 404.75 C 241.01 405.22 242.21 402.00 242.89 399.75 C 246.36 399.51 249.08 396.75 248.57 393.15 C 249.10 393.24 250.17 393.43 250.70 393.53 C 250.51 395.74 250.78 397.93 251.71 399.97 C 249.65 400.32 247.32 400.99 246.41 403.08 C 243.93 406.91 247.20 412.27 251.66 412.14 C 250.80 414.97 249.17 411.95 247.69 411.21 C 246.59 410.54 245.23 410.73 244.02 410.53 C 244.02 408.02 243.02 404.99 239.99 405.12 C 235.21 403.99 233.25 411.25 236.98 413.55 C 238.39 413.85 239.83 413.88 241.26 413.97 C 241.27 415.07 241.28 416.18 241.29 417.29 C 242.67 418.87 244.41 419.97 246.56 419.94 C 246.71 421.73 247.14 423.48 247.68 425.20 C 241.93 422.87 236.70 418.58 234.33 412.73 C 231.46 406.60 231.48 398.89 235.12 393.09 C 237.84 389.46 241.90 387.18 245.58 384.63 Z" />
<path fill="#000000" d=" M 267.75 390.57 C 270.50 393.72 272.20 397.63 271.83 401.88 C 271.01 400.05 269.50 397.92 267.19 398.52 C 264.97 399.28 262.71 399.72 260.35 399.34 C 260.55 398.59 260.95 397.10 261.15 396.35 C 262.82 396.02 264.49 395.66 266.16 395.27 C 266.70 393.71 267.23 392.14 267.75 390.57 Z" />
<path fill="#989898" d=" M 255.93 401.12 C 257.56 400.61 258.10 401.17 257.54 402.79 C 255.91 403.30 255.37 402.75 255.93 401.12 Z" />
<path fill="#181818" d=" M 658.77 412.73 C 661.69 409.19 665.38 406.10 666.80 401.56 C 678.20 401.98 689.60 401.17 700.99 401.65 C 703.30 401.80 704.23 404.30 705.11 406.09 C 706.75 409.99 708.82 413.69 710.88 417.39 C 709.62 417.80 708.43 418.56 707.07 418.53 C 695.01 418.24 682.94 418.88 670.88 418.34 C 666.86 417.98 662.80 417.27 659.03 415.83 C 657.71 415.41 657.84 413.51 658.77 412.73 Z" />
<path fill="#000000" d=" M 265.59 406.84 C 268.53 407.39 271.12 406.23 271.81 403.22 C 271.60 407.11 270.79 410.98 269.34 414.60 C 266.54 418.25 263.09 421.38 259.76 424.53 C 257.47 426.82 254.12 426.37 251.19 426.47 C 253.57 425.83 255.07 424.02 255.64 421.65 C 258.23 420.96 259.98 419.13 260.83 416.63 C 262.66 417.33 264.99 418.18 266.65 416.61 C 269.83 414.55 268.64 409.14 264.98 408.46 C 262.23 407.55 259.98 410.02 259.08 412.35 C 257.91 411.67 256.72 411.03 255.52 410.41 C 256.54 409.33 257.23 408.04 257.58 406.60 C 259.83 409.11 263.08 408.64 265.59 406.84 Z" />
<path fill="#f5f4f0" d=" M 660.34 414.22 C 663.19 410.77 666.33 407.54 668.81 403.79 C 679.58 403.24 690.35 403.81 701.11 404.34 C 704.05 407.49 704.90 412.32 707.16 416.07 C 695.91 418.17 684.46 417.47 673.08 417.39 C 668.64 417.41 664.37 415.95 660.34 414.22 Z" />
<path fill="#151515" d=" M 673.87 406.87 C 681.16 406.31 688.52 407.26 695.82 406.40 C 695.78 406.97 695.71 408.12 695.68 408.70 C 691.77 407.91 687.81 407.52 683.83 407.73 L 683.13 408.17 C 679.69 408.21 676.27 408.64 672.85 408.79 C 673.10 408.31 673.61 407.35 673.87 406.87 Z" />
<path fill="#1b1b1b" d=" M 673.47 410.50 C 680.64 410.46 687.82 410.94 694.97 410.23 C 694.68 411.63 694.00 412.65 692.40 412.40 C 692.36 412.91 692.29 413.95 692.25 414.46 C 686.58 414.76 680.88 415.25 675.20 415.24 C 675.68 414.58 676.63 413.24 677.10 412.57 C 676.14 412.60 674.21 412.65 673.25 412.68 C 673.31 412.14 673.42 411.04 673.47 410.50 Z" />
<path fill="#b7b6b4" d=" M 677.23 412.21 C 681.85 411.85 686.50 411.44 691.14 411.83 C 686.99 414.42 681.80 412.67 677.20 413.19 L 677.23 412.21 Z" />
<path fill="#2a2a29" d=" M 877.42 448.49 C 889.01 444.01 901.73 442.87 914.03 444.22 C 920.55 444.03 927.07 444.43 933.45 445.83 C 944.98 447.15 955.53 452.65 964.91 459.21 C 973.22 464.51 981.78 470.80 985.96 480.02 C 987.07 484.76 987.16 490.06 986.00 494.78 L 985.50 495.85 C 985.10 489.77 987.15 482.97 983.56 477.52 C 980.01 472.11 975.12 467.71 970.00 463.83 C 963.11 459.35 956.44 454.40 948.80 451.22 C 941.35 447.64 933.03 446.86 924.99 445.55 C 911.97 444.90 898.73 443.57 885.94 446.88 C 877.67 448.81 870.37 453.26 862.54 456.37 C 856.09 459.46 849.73 462.75 843.45 466.17 L 844.28 464.61 C 844.74 463.57 846.01 463.35 846.91 462.82 C 853.11 460.24 858.81 456.64 865.04 454.13 C 869.25 452.44 873.25 450.29 877.42 448.49 Z" />
<path fill="#020202" d=" M 834.00 474.12 C 834.09 468.74 839.95 466.24 844.28 464.61 L 843.45 466.17 C 841.13 468.62 838.57 470.88 836.40 473.49 C 835.80 473.65 834.60 473.96 834.00 474.12 Z" />
<path fill="#111111" d=" M 805.90 478.88 C 808.64 476.24 811.27 472.83 815.32 472.34 C 815.39 472.91 815.54 474.07 815.62 474.64 C 809.28 476.73 804.55 481.54 799.80 485.98 C 792.76 491.98 787.36 499.63 782.23 507.26 C 774.98 518.00 772.66 531.40 773.77 544.15 C 775.12 550.22 779.44 555.01 783.96 559.02 C 787.35 562.02 791.49 564.56 796.16 564.63 C 798.21 564.98 800.62 564.18 802.41 565.52 C 803.75 569.15 800.07 571.68 798.05 574.10 C 791.09 581.15 790.32 591.64 790.16 601.00 C 789.95 606.52 790.58 612.08 792.71 617.21 C 797.53 628.56 807.15 636.77 815.75 645.24 C 821.58 650.33 827.67 655.39 834.97 658.23 C 845.75 662.48 857.53 663.27 869.00 663.55 C 879.03 663.98 889.63 662.10 897.80 655.91 C 903.87 652.10 908.95 646.99 913.28 641.31 C 918.95 632.58 924.18 622.74 923.42 611.99 C 923.72 608.85 921.56 606.34 921.11 603.37 C 927.06 602.85 933.02 603.89 939.00 603.55 C 945.80 603.66 951.71 599.76 957.29 596.33 C 967.29 588.78 978.36 581.17 983.33 569.16 C 985.21 563.63 986.48 557.86 986.61 552.00 C 986.84 543.95 987.26 535.85 986.38 527.82 C 984.17 522.51 981.20 516.87 975.30 515.03 C 975.32 512.66 977.46 511.45 978.89 509.89 C 980.71 507.92 981.87 505.46 983.27 503.19 C 984.10 500.77 984.59 498.25 985.50 495.85 L 986.00 494.78 C 986.24 501.85 981.95 507.71 978.85 513.69 C 983.21 517.35 984.89 522.95 987.37 527.86 C 987.64 539.56 988.52 551.49 986.07 563.03 C 984.09 572.76 977.95 581.19 970.25 587.25 C 961.88 594.23 953.14 601.83 942.23 604.25 C 936.58 604.92 930.83 604.28 925.23 605.48 C 925.38 613.75 923.90 622.15 920.80 629.84 C 918.05 635.51 914.88 641.02 910.76 645.82 C 906.32 651.37 900.35 655.39 894.42 659.17 C 884.86 664.59 873.49 665.00 862.78 664.34 C 856.79 663.68 850.75 663.44 844.84 662.14 C 841.20 661.25 837.56 660.29 834.08 658.89 C 821.98 653.52 812.66 643.75 803.58 634.41 C 797.80 628.51 792.79 621.60 790.55 613.55 C 788.77 608.53 789.45 603.14 789.37 597.94 C 789.27 591.76 790.59 585.66 792.66 579.88 C 794.98 575.63 798.29 571.99 800.25 567.55 C 796.43 566.66 792.35 566.24 789.05 563.95 C 783.39 560.15 778.05 555.47 774.76 549.41 C 771.11 542.44 772.85 534.31 773.56 526.86 C 775.66 513.01 784.44 501.59 793.19 491.16 C 796.90 486.53 801.88 483.20 805.90 478.88 Z" />
<path fill="#020202" d=" M 840.05 493.17 C 849.89 485.59 861.60 480.39 873.91 478.56 C 878.56 478.09 883.25 478.30 887.94 478.23 C 892.28 478.27 896.99 477.71 900.87 480.15 C 905.30 482.73 910.12 484.68 914.28 487.69 C 917.94 491.69 922.27 496.17 922.27 501.96 C 922.68 511.19 922.49 520.43 922.44 529.67 C 921.81 535.45 916.69 539.05 912.82 542.78 C 909.19 546.37 904.39 548.29 900.23 551.11 C 895.58 554.29 894.33 560.07 891.49 564.59 C 889.15 568.55 888.07 573.06 886.60 577.37 C 887.29 578.30 887.98 579.23 888.69 580.17 C 886.91 581.31 885.05 582.29 883.20 583.26 C 882.83 583.25 882.09 583.24 881.72 583.23 C 876.21 582.97 870.83 584.43 865.34 584.57 C 863.01 584.67 860.68 584.82 858.37 585.03 C 860.32 586.48 862.38 587.81 864.65 588.75 C 868.52 590.19 874.56 589.21 875.66 594.38 C 873.27 594.33 870.90 594.06 868.55 593.81 C 868.42 594.37 868.17 595.49 868.04 596.05 C 863.35 602.45 861.96 610.37 859.22 617.65 C 858.25 617.41 856.20 618.50 856.25 616.88 C 855.59 611.67 855.64 606.33 853.98 601.26 C 854.16 600.93 854.52 600.27 854.69 599.93 C 857.31 604.21 857.89 609.23 858.39 614.11 C 860.77 609.45 862.41 604.48 863.95 599.50 C 864.48 597.75 865.06 596.02 865.71 594.31 C 859.30 594.12 853.28 591.79 846.94 591.20 C 845.40 591.09 844.82 590.24 845.21 588.64 C 848.82 588.37 852.50 588.33 855.99 587.19 C 855.87 587.73 855.64 588.82 855.52 589.36 C 854.19 589.96 852.87 590.54 851.55 591.11 C 857.80 592.74 864.39 594.32 870.75 592.18 C 866.21 590.50 861.93 588.13 857.25 586.86 C 856.00 586.52 854.76 586.18 853.54 585.84 C 853.55 585.40 853.57 584.53 853.58 584.09 C 856.64 582.82 860.18 584.00 863.43 583.91 C 870.23 583.31 877.53 583.21 883.52 579.51 C 875.98 576.22 867.57 577.69 859.71 578.66 C 857.57 578.74 855.19 578.76 853.59 577.11 C 853.08 575.45 853.60 574.41 855.16 573.99 C 858.53 573.43 861.96 574.01 865.36 574.00 C 863.45 574.49 861.58 575.10 859.72 575.73 C 858.99 575.97 857.55 576.47 856.83 576.72 C 860.64 577.30 864.53 577.45 868.38 577.02 C 867.96 576.66 867.13 575.95 866.71 575.59 C 870.34 575.53 874.06 576.10 877.61 575.04 C 875.47 572.59 872.07 572.35 869.13 571.62 C 863.73 570.39 858.37 568.72 852.77 568.98 L 851.57 568.64 C 851.68 568.10 851.90 567.02 852.01 566.48 C 859.92 568.17 868.02 567.88 876.04 567.20 C 879.14 566.90 882.08 565.81 884.84 564.40 C 882.59 563.70 880.33 563.08 878.03 562.62 C 869.42 561.04 860.89 559.11 852.19 558.10 C 852.30 557.66 852.52 556.78 852.63 556.35 C 856.09 556.55 859.54 557.06 862.88 558.02 L 864.09 558.39 C 867.08 559.28 870.20 559.57 873.28 560.11 C 873.69 560.19 874.52 560.34 874.94 560.41 C 877.23 560.82 879.53 561.23 881.86 561.53 C 883.68 561.77 885.51 562.13 887.29 562.67 C 887.35 563.56 887.47 565.34 887.53 566.23 C 886.12 566.61 884.74 567.03 883.34 567.37 C 877.02 568.24 870.64 568.20 864.29 568.52 C 865.31 570.49 867.63 570.55 869.53 570.94 C 873.18 571.40 876.82 572.01 880.40 572.92 C 880.31 574.40 880.23 575.88 880.16 577.37 C 881.51 577.44 882.87 577.52 884.25 577.61 C 884.50 576.52 884.75 575.43 885.02 574.35 C 885.99 570.53 887.40 566.82 889.28 563.36 C 890.94 560.56 892.37 557.63 893.66 554.64 C 894.23 553.78 894.79 552.91 895.41 552.08 C 896.19 551.02 897.04 550.00 897.96 549.04 C 903.18 545.98 908.57 543.10 913.05 538.94 C 916.44 535.93 920.30 532.34 919.63 527.31 C 919.82 518.54 919.99 509.74 919.54 500.98 C 918.12 494.67 913.36 489.26 907.60 486.39 C 903.21 484.17 898.90 481.41 893.96 480.66 C 883.09 479.90 871.93 480.17 861.59 483.97 C 854.77 485.96 848.76 489.87 843.01 493.92 C 840.10 495.94 838.16 499.37 838.38 502.96 C 838.41 507.99 838.20 513.12 839.48 518.04 C 843.20 529.43 850.24 540.32 849.26 552.75 C 849.23 555.40 849.27 558.06 849.14 560.71 C 848.84 564.83 847.97 568.88 847.05 572.90 C 846.49 575.53 846.10 578.20 845.54 580.84 C 845.12 581.33 844.28 582.30 843.86 582.79 C 843.09 581.64 842.86 580.41 843.18 579.11 C 843.95 573.71 845.06 568.37 846.26 563.05 C 846.48 558.71 846.38 554.37 846.42 550.04 C 846.93 541.02 842.26 532.92 839.19 524.74 C 835.48 518.13 835.88 510.30 835.83 502.98 C 835.66 499.25 837.50 495.78 840.05 493.17 Z" />
<path fill="#f3a535" d=" M 861.59 483.97 C 871.93 480.17 883.09 479.90 893.96 480.66 C 898.90 481.41 903.21 484.17 907.60 486.39 C 913.36 489.26 918.12 494.67 919.54 500.98 C 919.42 504.31 919.00 507.63 918.64 510.94 C 918.22 502.00 915.34 491.80 906.60 487.63 C 906.52 491.10 907.61 494.42 910.01 496.97 C 912.82 500.05 913.86 504.14 914.13 508.21 C 912.16 505.61 910.47 502.74 908.01 500.57 C 906.55 500.39 905.41 500.87 904.59 502.02 C 905.14 506.97 908.08 511.25 908.96 516.13 C 910.42 522.36 908.39 528.68 906.38 534.54 C 904.82 538.92 900.75 541.55 897.29 544.33 C 897.50 545.89 897.72 547.46 897.96 549.04 C 897.04 550.00 896.19 551.02 895.41 552.08 C 894.98 551.20 894.56 550.31 894.16 549.44 C 891.72 549.21 888.62 549.76 887.30 547.13 C 888.18 540.26 896.07 537.12 896.86 530.11 C 897.13 529.25 897.27 528.32 897.54 527.48 C 898.63 521.36 897.53 515.15 897.66 508.99 C 897.80 504.35 896.68 499.84 895.33 495.45 C 890.08 494.71 884.49 495.20 879.70 492.55 C 876.59 494.11 873.35 495.53 869.82 495.67 C 869.02 494.00 868.22 492.34 867.42 490.68 C 864.26 492.42 861.03 494.03 857.94 495.88 C 856.43 495.67 854.93 495.48 853.44 495.30 C 853.50 493.47 853.44 491.63 853.81 489.83 C 856.19 487.61 861.27 487.88 861.59 483.97 Z" />
<path fill="#131312" d=" M 1010.22 481.67 C 1013.64 481.66 1017.05 481.65 1020.47 481.38 C 1020.30 481.79 1019.95 482.62 1019.78 483.04 L 1019.67 483.32 C 1016.51 483.57 1013.36 483.68 1010.20 483.63 C 1010.21 483.14 1010.22 482.16 1010.22 481.67 Z" />
<path fill="#f6c666" d=" M 843.01 493.92 C 848.76 489.87 854.77 485.96 861.59 483.97 C 861.27 487.88 856.19 487.61 853.81 489.83 C 853.44 491.63 853.50 493.47 853.44 495.30 C 854.93 495.48 856.43 495.67 857.94 495.88 C 857.15 496.35 856.36 496.84 855.60 497.34 C 855.98 500.65 856.31 503.97 856.59 507.30 C 858.04 505.20 859.52 503.14 861.05 501.11 C 864.81 503.85 870.20 504.23 873.14 507.99 C 870.68 511.76 866.16 514.19 865.64 519.09 C 865.12 519.42 864.07 520.06 863.54 520.39 C 866.81 523.99 871.12 526.73 873.46 531.12 C 874.22 536.72 873.88 542.54 872.31 547.99 C 871.25 551.49 871.06 555.16 871.39 558.79 C 870.22 558.72 869.07 558.66 867.94 558.61 C 864.62 554.77 859.46 555.07 854.90 555.50 C 853.01 554.59 851.13 553.67 849.26 552.75 C 850.24 540.32 843.20 529.43 839.48 518.04 C 838.20 513.12 838.41 507.99 838.38 502.96 C 838.16 499.37 840.10 495.94 843.01 493.92 Z" />
<path fill="#010101" d=" M 618.74 491.15 C 621.26 490.17 622.66 487.63 624.99 486.44 C 629.03 486.13 633.12 486.25 637.17 486.48 C 641.55 486.73 646.22 490.23 645.91 494.98 C 645.67 501.66 645.79 508.35 645.58 515.03 C 645.42 520.58 641.76 525.03 639.65 529.94 C 639.77 534.94 639.45 539.99 640.79 544.88 C 644.89 541.85 650.28 539.88 652.76 535.17 C 653.27 535.24 654.30 535.37 654.81 535.44 C 654.47 537.05 654.81 539.24 652.98 540.05 C 647.62 542.82 641.68 545.00 637.48 549.53 C 635.47 551.51 633.52 553.58 631.29 555.32 C 630.41 556.01 628.02 555.64 628.66 554.00 C 632.09 551.23 636.16 549.20 638.97 545.69 C 635.71 542.39 637.84 537.34 637.27 533.25 C 633.28 533.17 628.75 533.44 625.67 530.40 C 619.21 537.06 616.22 546.18 609.81 552.86 C 604.69 558.23 600.44 564.37 596.29 570.50 C 595.28 572.18 594.26 573.84 593.25 575.52 C 590.48 579.82 587.09 583.79 585.42 588.70 C 592.84 585.09 600.60 582.09 607.44 577.40 C 612.00 574.96 616.65 572.65 621.26 570.29 C 623.55 568.36 625.72 566.29 627.80 564.13 C 627.59 563.40 627.17 561.95 626.96 561.22 C 628.03 561.70 629.07 562.21 630.14 562.75 C 631.80 567.66 635.39 571.58 638.02 575.98 C 642.51 581.27 645.56 587.55 647.74 594.11 C 651.87 602.17 655.24 610.58 658.45 619.04 C 660.85 627.60 664.00 635.95 667.98 643.90 C 670.08 647.45 669.41 651.70 669.56 655.64 C 674.27 656.67 679.15 656.93 683.96 656.73 C 689.72 656.49 694.87 653.38 700.61 653.02 C 700.62 653.64 700.65 654.87 700.67 655.48 C 691.64 656.88 682.61 658.92 673.41 658.50 C 672.85 659.53 672.37 660.62 671.66 661.57 C 666.45 667.87 661.90 674.75 658.27 682.08 C 654.64 688.61 649.69 694.23 645.02 700.02 C 640.87 705.27 639.16 711.93 635.28 717.31 C 635.59 719.14 636.29 720.89 637.22 722.51 C 642.70 731.72 647.74 741.22 654.15 749.84 C 656.36 753.32 658.54 756.82 660.66 760.36 C 661.70 761.85 662.02 764.26 660.39 765.48 C 655.20 769.29 649.27 771.93 643.46 774.63 C 639.75 776.23 636.45 779.10 632.20 779.01 C 632.20 778.40 632.20 777.17 632.20 776.56 C 641.54 773.52 652.24 771.02 658.71 763.11 C 653.70 753.35 647.86 744.07 642.50 734.50 C 639.59 729.17 635.77 724.38 632.99 718.99 C 631.66 716.69 633.67 714.62 634.73 712.74 C 638.38 706.27 641.90 699.56 647.20 694.27 C 652.68 688.46 657.61 682.02 661.06 674.79 C 662.94 670.85 665.31 667.18 667.62 663.48 C 668.58 661.98 669.65 660.41 671.43 659.79 C 669.77 658.78 668.03 657.87 666.59 656.56 C 666.57 653.54 667.04 650.42 666.27 647.48 C 662.47 639.21 659.56 630.57 657.10 621.83 C 654.27 613.78 651.59 605.67 648.17 597.85 C 647.46 596.21 646.79 594.55 646.15 592.89 C 641.55 583.02 634.96 574.26 629.15 565.09 C 620.86 572.65 610.88 577.90 601.14 583.28 C 595.51 586.06 589.95 588.98 584.83 592.63 C 584.04 591.80 583.26 590.97 582.50 590.13 C 584.21 583.43 590.10 579.27 593.46 573.50 C 596.84 567.57 601.24 562.32 604.75 556.47 C 607.02 552.91 610.14 549.99 612.38 546.41 C 614.45 543.30 615.72 539.75 617.75 536.62 C 619.45 533.80 621.88 531.42 623.08 528.31 C 616.86 523.54 617.71 514.90 617.85 507.95 C 618.53 502.36 617.69 496.68 618.74 491.15 Z" />
<path fill="#ee8618" d=" M 906.60 487.63 C 915.34 491.80 918.22 502.00 918.64 510.94 C 919.00 507.63 919.42 504.31 919.54 500.98 C 919.99 509.74 919.82 518.54 919.63 527.31 C 919.55 526.99 919.39 526.34 919.32 526.02 C 918.34 530.78 916.41 535.37 913.05 538.94 C 908.57 543.10 903.18 545.98 897.96 549.04 C 897.72 547.46 897.50 545.89 897.29 544.33 C 900.75 541.55 904.82 538.92 906.38 534.54 C 908.39 528.68 910.42 522.36 908.96 516.13 C 908.08 511.25 905.14 506.97 904.59 502.02 C 905.41 500.87 906.55 500.39 908.01 500.57 C 910.47 502.74 912.16 505.61 914.13 508.21 C 913.86 504.14 912.82 500.05 910.01 496.97 C 907.61 494.42 906.52 491.10 906.60 487.63 Z" />
<path fill="#f5f4f0" d=" M 625.34 489.51 C 629.50 488.88 633.78 489.21 637.97 489.43 C 641.60 489.73 643.62 493.66 643.41 496.99 C 643.49 503.14 643.82 509.33 643.11 515.46 C 642.02 520.88 639.09 525.69 636.18 530.30 C 633.46 530.26 630.45 530.51 628.18 528.73 C 625.21 526.28 621.31 524.23 620.60 520.07 C 619.45 511.69 619.41 503.10 620.45 494.71 C 622.17 493.07 623.63 491.17 625.34 489.51 Z" />
<path fill="#f6cc76" d=" M 857.94 495.88 C 861.03 494.03 864.26 492.42 867.42 490.68 C 868.22 492.34 869.02 494.00 869.82 495.67 C 873.35 495.53 876.59 494.11 879.70 492.55 C 884.49 495.20 890.08 494.71 895.33 495.45 C 896.68 499.84 897.80 504.35 897.66 508.99 C 897.53 515.15 898.63 521.36 897.54 527.48 C 893.33 528.01 889.92 530.78 885.99 532.13 C 883.23 533.17 880.28 533.56 877.52 534.56 C 877.36 534.98 877.04 535.80 876.88 536.22 C 884.06 536.29 889.76 530.78 896.86 530.11 C 896.07 537.12 888.18 540.26 887.30 547.13 C 888.62 549.76 891.72 549.21 894.16 549.44 C 894.56 550.31 894.98 551.20 895.41 552.08 C 894.79 552.91 894.23 553.78 893.66 554.64 C 890.87 558.71 885.83 559.22 881.86 561.53 C 879.53 561.23 877.23 560.82 874.94 560.41 C 874.52 560.34 873.69 560.19 873.28 560.11 C 873.48 557.30 873.55 554.49 873.66 551.69 C 876.65 551.81 879.67 552.09 882.67 551.68 C 884.83 549.12 882.66 545.80 882.17 543.01 C 881.25 540.86 881.01 536.94 878.02 536.93 C 877.07 537.29 876.40 537.95 876.01 538.91 C 876.41 536.54 876.67 534.16 876.94 531.79 C 881.23 526.46 883.77 520.03 885.95 513.62 C 885.29 513.55 883.97 513.41 883.31 513.34 C 880.48 518.39 880.42 525.44 875.48 528.99 C 872.30 525.59 869.43 521.85 865.64 519.09 C 866.16 514.19 870.68 511.76 873.14 507.99 C 870.20 504.23 864.81 503.85 861.05 501.11 C 859.52 503.14 858.04 505.20 856.59 507.30 C 856.31 503.97 855.98 500.65 855.60 497.34 C 856.36 496.84 857.15 496.35 857.94 495.88 Z" />
<path fill="#010101" d=" M 191.26 493.07 C 191.77 493.14 192.79 493.29 193.30 493.36 C 192.19 503.40 192.60 513.50 192.33 523.59 C 197.84 524.65 203.41 523.62 208.97 523.79 C 214.47 523.88 219.97 524.41 225.36 525.55 C 226.94 515.65 226.77 505.45 225.64 495.52 C 215.57 493.87 205.39 494.98 195.26 494.76 C 195.34 494.21 195.50 493.09 195.58 492.54 C 201.39 492.46 207.15 493.61 212.97 493.33 C 217.74 493.36 222.60 492.11 227.29 493.55 C 228.88 496.78 228.35 500.47 228.64 503.95 C 228.63 511.78 229.23 519.78 227.17 527.43 C 223.11 528.36 219.18 526.51 215.13 526.44 C 210.43 526.20 205.73 525.49 201.02 526.07 C 197.48 526.42 193.86 526.43 190.41 525.44 C 190.19 520.33 190.19 515.19 190.89 510.12 C 191.83 504.48 191.26 498.75 191.26 493.07 Z" />
<path fill="#060606" d=" M 681.60 494.79 C 684.96 494.11 689.51 493.98 691.44 497.44 C 692.34 506.57 688.76 517.05 680.09 521.32 C 675.58 521.65 669.85 522.40 666.67 518.39 C 665.04 516.68 665.52 514.17 665.46 512.04 C 665.60 509.10 665.36 506.05 666.41 503.25 C 666.93 501.37 668.66 502.81 668.98 504.08 C 672.75 500.48 676.21 495.94 681.60 494.79 Z" />
<path fill="#f5f4f0" d=" M 675.70 498.71 C 676.75 498.03 677.78 497.33 678.82 496.62 C 682.16 496.27 687.19 495.40 689.22 498.77 C 689.60 505.30 688.56 512.91 683.00 517.16 C 679.00 520.75 672.94 519.51 668.52 517.39 C 667.55 514.29 667.54 511.03 667.72 507.82 C 670.23 504.66 672.57 501.31 675.70 498.71 Z" />
<path fill="#060606" d=" M 713.19 503.25 C 717.67 499.98 723.41 497.57 728.99 499.27 C 732.02 499.44 734.60 501.85 734.65 504.96 C 734.94 511.57 734.38 518.76 730.52 524.38 C 727.64 527.77 724.19 531.05 719.96 532.61 C 715.42 532.87 708.67 533.35 706.72 528.15 C 706.40 523.82 706.28 519.06 708.15 515.08 L 709.64 514.10 C 709.56 518.70 707.56 523.35 708.89 527.91 C 710.94 530.82 714.85 530.84 718.03 531.23 C 724.15 530.15 729.57 525.72 732.05 520.02 C 733.52 515.14 734.31 509.91 733.34 504.87 C 732.41 501.09 728.08 500.76 725.06 499.55 C 718.84 500.06 712.79 503.29 709.59 508.77 C 709.20 508.11 708.79 507.48 708.46 506.81 C 710.01 505.59 711.64 504.48 713.19 503.25 Z" />
<path fill="#dd4e0c" d=" M 202.85 501.60 C 207.19 501.74 211.59 501.32 215.90 502.01 C 218.62 502.59 217.56 506.01 217.81 508.02 C 217.40 511.06 218.57 515.52 215.23 517.23 C 210.86 518.74 206.14 517.95 201.61 518.38 C 201.19 516.97 200.25 515.56 200.75 514.06 C 201.63 509.94 202.61 505.82 202.85 501.60 Z" />
<path fill="#010101" d=" M 756.27 505.37 C 760.48 505.70 765.91 505.29 768.46 509.44 C 769.15 513.52 768.67 517.81 768.21 521.92 C 766.80 526.83 764.44 531.42 761.78 535.76 C 759.80 538.37 758.27 541.51 755.41 543.29 C 753.01 544.20 750.41 543.76 747.97 543.34 C 747.63 542.80 746.95 541.70 746.61 541.15 C 746.87 535.95 748.17 530.88 748.78 525.72 C 749.94 522.05 751.23 518.41 752.70 514.84 C 753.94 512.50 755.22 510.18 756.65 507.94 C 756.55 507.30 756.37 506.01 756.27 505.37 Z" />
<path fill="#f5f4f0" d=" M 758.97 506.50 C 761.05 506.58 763.11 506.96 765.05 507.74 C 765.83 508.49 766.63 509.24 767.45 509.98 C 768.03 514.57 768.02 519.29 766.91 523.80 C 764.27 529.78 761.54 536.18 756.21 540.27 C 754.02 542.08 751.13 541.29 748.77 540.38 C 748.05 533.36 749.12 526.33 751.73 519.79 C 753.91 515.23 756.74 511.03 758.97 506.50 Z" />
<path fill="#050402" d=" M 883.31 513.34 C 883.97 513.41 885.29 513.55 885.95 513.62 C 883.77 520.03 881.23 526.46 876.94 531.79 C 876.67 534.16 876.41 536.54 876.01 538.91 C 875.27 543.18 874.13 547.37 873.66 551.69 C 873.55 554.49 873.48 557.30 873.28 560.11 C 870.20 559.57 867.08 559.28 864.09 558.39 C 865.05 558.45 866.97 558.56 867.94 558.61 C 869.07 558.66 870.22 558.72 871.39 558.79 C 871.06 555.16 871.25 551.49 872.31 547.99 C 873.88 542.54 874.22 536.72 873.46 531.12 C 871.12 526.73 866.81 523.99 863.54 520.39 C 864.07 520.06 865.12 519.42 865.64 519.09 C 869.43 521.85 872.30 525.59 875.48 528.99 C 880.42 525.44 880.48 518.39 883.31 513.34 Z" />
<path fill="#0a0a0a" d=" M 246.28 521.16 C 253.34 524.13 258.23 530.22 263.78 535.22 C 266.51 537.46 269.00 539.99 271.71 542.27 C 276.22 545.96 280.97 549.33 285.87 552.49 C 296.36 559.39 304.21 569.46 314.42 576.71 C 324.25 584.82 333.87 593.20 343.90 601.07 C 343.76 601.77 343.47 603.16 343.33 603.86 C 334.36 596.77 326.67 588.21 317.44 581.44 C 313.68 578.59 310.05 575.57 306.86 572.09 C 301.68 566.59 295.96 561.65 290.27 556.70 C 288.90 555.75 287.56 554.78 286.19 553.84 C 281.43 550.62 276.67 547.38 272.20 543.76 C 269.45 541.54 266.95 539.04 264.25 536.77 C 260.62 533.77 257.46 530.21 253.56 527.53 C 251.26 525.83 248.56 524.75 246.27 523.04 C 246.28 522.57 246.28 521.63 246.28 521.16 Z" />
<path fill="#f5ce7d" d=" M 847.12 521.03 C 848.52 521.14 849.93 521.26 851.35 521.38 C 852.05 524.40 852.01 528.17 854.98 530.00 C 858.96 532.84 862.99 537.00 862.43 542.30 C 861.29 545.14 859.48 547.67 858.42 550.55 C 857.92 552.40 855.17 553.98 853.73 552.23 C 851.29 550.17 852.51 546.41 851.19 543.74 C 848.02 536.67 846.64 528.76 847.12 521.03 Z" />
<path fill="#f5f4f0" d=" M 913.05 538.94 C 916.41 535.37 918.34 530.78 919.32 526.02 C 919.39 526.34 919.55 526.99 919.63 527.31 C 920.30 532.34 916.44 535.93 913.05 538.94 Z" />
<path fill="#070706" d=" M 885.99 532.13 C 889.92 530.78 893.33 528.01 897.54 527.48 C 897.27 528.32 897.13 529.25 896.86 530.11 C 889.76 530.78 884.06 536.29 876.88 536.22 C 877.04 535.80 877.36 534.98 877.52 534.56 C 880.28 533.56 883.23 533.17 885.99 532.13 Z" />
<path fill="#010101" d=" M 188.93 531.56 C 195.24 531.23 201.60 531.25 207.88 532.11 C 213.45 532.75 219.08 531.93 224.65 532.48 C 226.70 532.72 227.45 534.90 228.37 536.44 C 230.15 540.06 232.95 543.24 233.82 547.25 C 229.88 549.38 225.30 548.34 221.05 548.22 C 215.06 547.36 209.01 547.98 202.99 547.77 C 195.98 547.46 188.97 547.07 182.02 546.10 C 180.18 545.54 180.43 543.54 181.59 542.43 C 184.02 539.36 187.29 537.18 190.42 534.91 C 191.73 533.61 189.37 532.64 188.93 531.56 Z" />
<path fill="#f5f4f0" d=" M 192.81 534.76 C 196.06 533.16 199.65 533.04 203.16 533.78 C 210.05 535.12 217.09 534.32 224.05 534.80 C 227.12 538.04 228.85 542.40 231.13 546.24 C 215.12 546.65 198.95 547.14 183.15 544.03 C 185.53 540.16 188.81 536.93 192.81 534.76 Z" />
<path fill="#080808" d=" M 196.19 535.30 C 198.78 535.63 201.31 536.28 203.84 536.91 C 209.29 538.18 214.91 537.46 220.44 537.49 C 220.79 537.94 221.50 538.82 221.85 539.26 C 218.87 539.77 215.86 539.48 212.88 539.23 C 207.34 538.45 201.75 538.06 196.20 537.25 C 196.20 536.76 196.19 535.79 196.19 535.30 Z" />
<path fill="#f6c664" d=" M 876.01 538.91 C 876.40 537.95 877.07 537.29 878.02 536.93 C 881.01 536.94 881.25 540.86 882.17 543.01 C 882.66 545.80 884.83 549.12 882.67 551.68 C 879.67 552.09 876.65 551.81 873.66 551.69 C 874.13 547.37 875.27 543.18 876.01 538.91 Z" />
<path fill="#161615" d=" M 195.73 540.17 C 203.31 540.43 210.88 540.88 218.46 540.11 C 218.47 540.62 218.49 541.64 218.51 542.15 C 211.69 542.10 204.87 542.21 198.05 542.27 C 196.64 542.50 196.11 541.26 195.73 540.17 Z" />
<path fill="#030303" d=" M 654.03 540.39 C 656.21 539.82 657.81 541.51 659.61 542.39 C 664.39 544.96 670.02 545.03 674.93 547.29 C 680.57 549.16 684.74 553.76 690.33 555.74 C 694.84 557.31 699.59 558.65 703.49 561.52 C 705.82 563.30 706.80 566.19 707.12 569.02 C 708.03 575.91 711.64 582.00 713.18 588.72 C 715.06 598.46 717.57 608.10 718.63 617.98 C 719.02 621.59 719.98 625.10 720.68 628.66 C 719.63 628.69 718.58 628.72 717.54 628.74 C 715.36 614.47 716.15 599.65 711.17 585.91 C 708.92 580.66 706.26 575.56 704.82 570.01 C 704.10 567.50 703.34 564.56 700.90 563.19 C 697.79 561.33 694.50 559.82 691.11 558.58 C 685.44 556.35 681.02 551.90 675.38 549.60 C 671.21 547.46 666.54 546.64 661.92 546.09 C 664.47 549.61 667.36 553.00 668.78 557.20 C 672.25 563.94 674.99 571.02 678.23 577.88 C 680.05 581.17 681.56 584.63 682.84 588.17 C 686.47 597.29 690.46 606.40 691.88 616.19 C 693.19 627.04 698.45 637.07 699.44 647.95 C 698.77 647.83 697.43 647.59 696.75 647.46 C 695.09 639.62 693.60 631.74 692.08 623.87 C 691.64 621.88 691.39 619.86 691.16 617.84 C 689.37 608.92 686.08 600.43 683.19 591.84 C 680.96 586.15 677.91 580.82 675.75 575.11 C 673.02 568.18 670.13 561.26 666.15 554.95 C 662.71 549.60 657.56 545.63 654.03 540.39 Z" />
<path fill="#f3f2ee" d=" M 849.26 552.75 C 851.13 553.67 853.01 554.59 854.90 555.50 C 859.46 555.07 864.62 554.77 867.94 558.61 C 866.97 558.56 865.05 558.45 864.09 558.39 L 862.88 558.02 C 859.54 557.06 856.09 556.55 852.63 556.35 C 852.52 556.78 852.30 557.66 852.19 558.10 C 851.71 559.29 851.20 560.48 850.75 561.68 C 850.35 561.44 849.54 560.95 849.14 560.71 C 849.27 558.06 849.23 555.40 849.26 552.75 Z" />
<path fill="#f4f3ef" d=" M 881.86 561.53 C 885.83 559.22 890.87 558.71 893.66 554.64 C 892.37 557.63 890.94 560.56 889.28 563.36 C 888.79 563.19 887.79 562.84 887.29 562.67 C 885.51 562.13 883.68 561.77 881.86 561.53 Z" />
<path fill="#75858e" d=" M 852.19 558.10 C 860.89 559.11 869.42 561.04 878.03 562.62 C 877.35 564.14 876.69 565.67 876.04 567.20 C 868.02 567.88 859.92 568.17 852.01 566.48 C 851.06 565.04 850.41 563.43 850.75 561.68 C 851.20 560.48 851.71 559.29 852.19 558.10 Z" />
<path fill="#8a979e" d=" M 849.14 560.71 C 849.54 560.95 850.35 561.44 850.75 561.68 C 850.41 563.43 851.06 565.04 852.01 566.48 C 851.90 567.02 851.68 568.10 851.57 568.64 C 851.34 569.69 851.13 570.75 850.94 571.82 C 851.44 571.88 852.46 572.00 852.96 572.06 C 851.58 573.53 850.80 575.41 850.13 577.29 C 849.03 578.26 847.94 579.24 846.83 580.19 C 846.83 577.76 846.84 575.32 847.05 572.90 C 847.97 568.88 848.84 564.83 849.14 560.71 Z" />
<path fill="#47555e" d=" M 878.03 562.62 C 880.33 563.08 882.59 563.70 884.84 564.40 C 882.08 565.81 879.14 566.90 876.04 567.20 C 876.69 565.67 877.35 564.14 878.03 562.62 Z" />
<path fill="#708089" d=" M 887.29 562.67 C 887.79 562.84 888.79 563.19 889.28 563.36 C 887.40 566.82 885.99 570.53 885.02 574.35 C 884.59 571.99 883.96 569.67 883.34 567.37 C 884.74 567.03 886.12 566.61 887.53 566.23 C 887.47 565.34 887.35 563.56 887.29 562.67 Z" />
<path fill="#394954" d=" M 864.29 568.52 C 870.64 568.20 877.02 568.24 883.34 567.37 C 883.96 569.67 884.59 571.99 885.02 574.35 C 884.75 575.43 884.50 576.52 884.25 577.61 C 882.87 577.52 881.51 577.44 880.16 577.37 C 880.23 575.88 880.31 574.40 880.40 572.92 C 876.82 572.01 873.18 571.40 869.53 570.94 C 867.63 570.55 865.31 570.49 864.29 568.52 Z" />
<path fill="#b5bbbd" d=" M 850.94 571.82 C 851.13 570.75 851.34 569.69 851.57 568.64 L 852.77 568.98 C 853.80 569.36 854.85 569.78 855.90 570.20 C 854.91 570.81 853.93 571.43 852.96 572.06 C 852.46 572.00 851.44 571.88 850.94 571.82 Z" />
<path fill="#72828b" d=" M 852.77 568.98 C 858.37 568.72 863.73 570.39 869.13 571.62 C 868.86 572.20 868.32 573.34 868.05 573.91 C 867.38 573.94 866.03 573.98 865.36 574.00 C 861.96 574.01 858.53 573.43 855.16 573.99 C 853.60 574.41 853.08 575.45 853.59 577.11 C 855.19 578.76 857.57 578.74 859.71 578.66 C 862.21 578.64 864.71 578.73 867.22 578.87 C 866.08 580.64 864.83 582.34 863.43 583.91 C 860.18 584.00 856.64 582.82 853.58 584.09 C 853.09 584.61 852.62 585.14 852.17 585.69 C 852.17 585.56 852.17 585.29 852.17 585.16 C 852.03 582.40 853.17 578.87 850.13 577.29 C 850.80 575.41 851.58 573.53 852.96 572.06 C 853.93 571.43 854.91 570.81 855.90 570.20 C 854.85 569.78 853.80 569.36 852.77 568.98 Z" />
<path fill="#344149" d=" M 869.13 571.62 C 872.07 572.35 875.47 572.59 877.61 575.04 C 874.06 576.10 870.34 575.53 866.71 575.59 C 864.37 575.52 862.04 575.56 859.72 575.73 C 861.58 575.10 863.45 574.49 865.36 574.00 C 866.03 573.98 867.38 573.94 868.05 573.91 C 868.32 573.34 868.86 572.20 869.13 571.62 Z" />
<path fill="#4f5f69" d=" M 845.54 580.84 C 846.10 578.20 846.49 575.53 847.05 572.90 C 846.84 575.32 846.83 577.76 846.83 580.19 C 847.94 579.24 849.03 578.26 850.13 577.29 C 853.17 578.87 852.03 582.40 852.17 585.16 C 849.97 583.69 847.74 582.29 845.54 580.84 Z" />
<path fill="#5e6c74" d=" M 856.83 576.72 C 857.55 576.47 858.99 575.97 859.72 575.73 C 862.04 575.56 864.37 575.52 866.71 575.59 C 867.13 575.95 867.96 576.66 868.38 577.02 C 864.53 577.45 860.64 577.30 856.83 576.72 Z" />
<path fill="#394954" d=" M 859.71 578.66 C 867.57 577.69 875.98 576.22 883.52 579.51 C 877.53 583.21 870.23 583.31 863.43 583.91 C 864.83 582.34 866.08 580.64 867.22 578.87 C 864.71 578.73 862.21 578.64 859.71 578.66 Z" />
<path fill="#1b1b1a" d=" M 406.27 579.48 C 406.82 579.56 407.91 579.72 408.46 579.80 C 405.17 593.26 407.63 607.22 405.86 620.86 C 405.18 624.62 406.67 629.40 403.49 632.27 C 403.36 628.51 404.33 624.84 404.62 621.11 C 406.19 609.85 405.06 598.42 406.26 587.14 C 406.42 584.58 406.22 582.03 406.27 579.48 Z" />
<path fill="#b2babc" d=" M 843.86 582.79 C 844.28 582.30 845.12 581.33 845.54 580.84 C 847.74 582.29 849.97 583.69 852.17 585.16 C 852.17 585.29 852.17 585.56 852.17 585.69 C 852.62 585.14 853.09 584.61 853.58 584.09 C 853.57 584.53 853.55 585.40 853.54 585.84 C 854.76 586.18 856.00 586.52 857.25 586.86 C 856.93 586.94 856.30 587.10 855.99 587.19 C 852.50 588.33 848.82 588.37 845.21 588.64 C 845.28 588.35 845.41 587.77 845.48 587.48 C 844.76 586.11 844.05 584.72 843.36 583.35 L 843.86 582.79 Z" />
<path fill="#394a55" d=" M 865.34 584.57 C 870.83 584.43 876.21 582.97 881.72 583.23 C 881.50 584.50 881.27 585.77 881.01 587.04 C 880.48 588.72 879.99 590.44 879.12 591.99 C 877.99 592.83 876.84 593.63 875.66 594.38 C 874.56 589.21 868.52 590.19 864.65 588.75 C 864.83 587.71 865.17 585.62 865.34 584.57 Z" />
<path fill="#5f6d75" d=" M 858.37 585.03 C 860.68 584.82 863.01 584.67 865.34 584.57 C 865.17 585.62 864.83 587.71 864.65 588.75 C 862.38 587.81 860.32 586.48 858.37 585.03 Z" />
<path fill="#677984" d=" M 855.99 587.19 C 856.30 587.10 856.93 586.94 857.25 586.86 C 861.93 588.13 866.21 590.50 870.75 592.18 C 864.39 594.32 857.80 592.74 851.55 591.11 C 852.87 590.54 854.19 589.96 855.52 589.36 C 855.64 588.82 855.87 587.73 855.99 587.19 Z" />
<path fill="#111111" d=" M 423.23 606.24 C 426.64 600.54 430.02 594.82 433.10 588.93 C 435.23 591.54 431.86 593.45 430.71 595.54 C 425.67 603.70 420.89 612.03 415.87 620.20 C 412.33 625.60 409.86 631.56 407.39 637.50 C 406.87 637.49 405.81 637.46 405.29 637.45 C 410.26 626.51 417.12 616.56 423.23 606.24 Z" />
<path fill="#838d91" d=" M 875.66 594.38 C 876.84 593.63 877.99 592.83 879.12 591.99 C 878.56 593.54 878.52 595.85 876.68 596.49 C 874.08 597.34 871.84 595.44 869.74 594.27 C 869.32 594.72 868.47 595.61 868.04 596.05 C 868.17 595.49 868.42 594.37 868.55 593.81 C 870.90 594.06 873.27 594.33 875.66 594.38 Z" />
<path fill="#708089" d=" M 854.99 599.14 C 855.25 596.35 856.97 593.85 860.09 594.19 C 861.33 595.98 862.63 597.74 863.95 599.50 C 862.41 604.48 860.77 609.45 858.39 614.11 C 857.89 609.23 857.31 604.21 854.69 599.93 C 854.52 600.27 854.16 600.93 853.98 601.26 L 852.99 602.38 C 852.77 600.74 853.39 599.56 854.99 599.14 Z" />
<path fill="#dd4e0c" d=" M 362.05 601.99 C 363.59 600.15 365.26 597.25 368.07 597.76 C 371.72 599.68 373.85 603.44 376.88 606.12 C 380.20 609.09 383.18 612.43 386.56 615.35 C 390.42 618.01 394.66 620.08 398.64 622.58 C 400.44 626.63 396.84 629.63 394.68 632.61 C 391.82 636.41 388.18 639.58 385.65 643.64 C 382.82 648.29 378.26 651.46 374.97 655.75 C 371.41 656.60 368.43 654.02 365.42 652.60 C 358.28 649.19 352.06 644.16 344.83 640.93 C 341.21 639.15 337.12 638.34 333.79 636.02 C 332.10 634.14 334.67 632.19 335.71 630.72 C 340.67 625.65 345.13 620.12 350.11 615.08 C 354.13 610.75 358.76 606.95 362.05 601.99 Z" />
<path fill="#0c0c0b" d=" M 444.25 613.26 C 446.87 611.36 448.78 608.61 451.66 607.07 C 451.60 607.69 451.49 608.93 451.44 609.55 C 446.03 612.59 441.31 616.65 436.23 620.18 C 429.26 625.29 422.04 630.04 414.91 634.93 C 413.57 635.88 412.03 636.49 410.45 636.94 C 410.46 636.41 410.47 635.36 410.48 634.84 C 422.86 629.63 433.28 620.83 444.25 613.26 Z" />
<path fill="#212120" d=" M 181.63 627.47 C 182.47 627.50 183.24 627.80 183.92 628.36 C 188.98 628.40 193.97 629.52 199.04 629.37 C 206.36 629.67 213.68 628.90 221.00 629.14 C 222.36 629.25 224.29 629.43 224.65 631.06 C 226.18 637.55 226.06 644.28 226.44 650.91 C 226.51 654.27 228.25 658.04 226.27 661.14 C 223.48 663.43 219.40 661.85 216.07 662.23 C 215.30 661.42 214.53 660.62 213.77 659.83 C 217.38 659.75 220.99 659.73 224.59 659.64 C 224.67 655.39 224.03 651.19 223.75 646.97 C 223.63 642.09 223.39 637.19 222.34 632.42 C 222.17 632.25 221.83 631.92 221.66 631.76 C 209.00 630.21 196.20 631.50 183.52 630.33 C 183.11 637.47 183.24 644.62 183.39 651.78 C 183.48 654.74 183.12 657.70 182.59 660.63 C 183.69 661.10 184.78 661.58 185.88 662.08 C 185.03 662.19 183.33 662.41 182.48 662.52 C 182.27 662.54 181.86 662.59 181.65 662.61 C 180.96 655.75 182.01 648.86 181.75 641.98 C 181.94 637.14 181.33 632.30 181.63 627.47 Z" />
<path fill="#f5f4f0" d=" M 183.52 630.33 C 196.20 631.50 209.00 630.21 221.66 631.76 C 221.83 631.92 222.17 632.25 222.34 632.42 C 223.39 637.19 223.63 642.09 223.75 646.97 C 224.03 651.19 224.67 655.39 224.59 659.64 C 220.99 659.73 217.38 659.75 213.77 659.83 C 204.03 659.92 194.32 660.75 184.59 660.95 C 183.73 657.97 183.54 654.85 183.39 651.78 C 183.24 644.62 183.11 637.47 183.52 630.33 Z" />
<path fill="#f6b228" d=" M 199.24 641.37 C 201.02 638.92 202.03 635.33 205.05 634.17 C 207.96 633.73 208.62 637.09 209.57 639.10 C 211.12 643.76 214.02 647.78 215.83 652.32 C 214.28 652.93 212.69 653.47 211.01 653.52 C 205.94 653.77 200.98 655.00 195.91 655.27 C 193.76 655.53 192.02 654.00 190.20 653.16 C 192.95 649.02 196.71 645.66 199.24 641.37 Z" />
<path fill="#313130" d=" M 398.38 641.39 C 399.72 641.36 401.09 641.16 402.41 641.48 C 404.17 642.84 402.91 644.92 402.31 646.54 C 400.96 646.23 398.83 646.71 398.35 644.98 C 398.26 643.77 398.27 642.58 398.38 641.39 Z" />
<path fill="#f6b124" d=" M 308.13 650.86 C 307.20 649.69 306.56 647.81 307.89 646.67 C 314.31 647.30 320.49 649.80 327.00 649.80 C 336.35 649.86 345.70 649.70 355.05 649.76 C 356.95 649.46 358.39 650.76 359.77 651.86 C 358.02 654.80 356.35 657.78 354.89 660.88 C 353.58 662.34 352.24 663.75 350.94 665.21 C 344.05 672.67 339.07 681.61 335.04 690.88 C 329.44 686.58 326.51 679.96 322.90 674.09 C 318.52 666.02 313.40 658.37 308.13 650.86 Z" />
<path fill="#020202" d=" M 425.95 647.51 C 435.64 647.67 445.32 647.07 455.01 646.89 C 468.34 647.61 481.68 646.89 495.02 646.84 C 504.98 647.87 515.01 647.51 525.01 647.45 C 530.67 648.02 536.35 647.71 542.02 647.93 C 544.79 648.48 543.59 652.10 541.23 652.33 C 540.84 651.88 540.06 650.99 539.67 650.54 C 530.09 650.70 520.56 649.39 510.97 649.74 C 481.32 649.09 451.64 649.19 421.99 649.81 C 413.44 650.35 404.46 650.83 396.57 654.51 C 393.42 655.68 394.18 659.53 394.85 662.08 C 396.49 664.16 399.31 664.68 401.77 665.19 C 409.18 665.90 416.71 665.77 424.01 667.39 C 442.65 668.81 461.37 668.11 480.05 668.28 C 487.28 668.47 494.76 667.22 501.77 669.47 C 501.71 669.97 501.59 670.98 501.53 671.48 C 498.03 670.92 494.49 670.55 490.94 670.63 C 472.29 670.12 453.63 670.46 434.97 670.51 C 424.91 670.10 415.05 667.90 404.98 667.65 C 400.79 667.41 395.85 667.46 392.77 664.13 C 390.90 660.47 390.42 654.86 394.50 652.49 C 399.30 650.22 404.73 649.67 409.95 649.01 C 415.26 648.31 420.57 647.38 425.95 647.51 Z" />
<path fill="#323131" d=" M 182.59 660.63 C 183.12 657.70 183.48 654.74 183.39 651.78 C 183.54 654.85 183.73 657.97 184.59 660.95 C 194.32 660.75 204.03 659.92 213.77 659.83 C 214.53 660.62 215.30 661.42 216.07 662.23 C 208.22 662.22 200.32 661.10 192.51 662.33 C 189.18 662.66 185.71 664.02 182.48 662.52 C 183.33 662.41 185.03 662.19 185.88 662.08 C 184.78 661.58 183.69 661.10 182.59 660.63 Z" />
<path fill="#0f37fe" d=" M 354.89 660.88 C 362.07 655.25 372.50 653.88 380.55 658.52 C 386.25 661.84 391.53 667.67 391.68 674.57 C 391.67 676.50 391.77 678.43 392.13 680.34 C 392.31 692.51 379.99 702.75 368.02 701.50 C 356.07 701.06 346.04 689.83 346.64 677.95 C 346.79 673.40 348.43 668.97 350.94 665.21 C 352.24 663.75 353.58 662.34 354.89 660.88 Z" />
<path fill="#f6cc75" d=" M 346.06 657.15 C 349.40 657.29 344.51 660.12 346.06 657.15 Z" />
<path fill="#313130" d=" M 407.38 657.48 C 408.69 657.41 410.01 657.36 411.34 657.33 C 411.63 658.00 412.23 659.35 412.53 660.03 C 412.18 660.62 411.48 661.81 411.13 662.41 C 410.24 662.40 408.46 662.39 407.58 662.38 C 407.35 660.75 407.29 659.11 407.38 657.48 Z" />
<path fill="#0c0c0b" d=" M 242.93 660.10 C 250.83 662.09 259.01 661.33 267.05 662.17 C 273.38 662.37 279.73 662.32 286.07 662.37 C 287.28 662.35 288.45 662.58 289.56 663.08 C 276.08 663.46 262.56 663.35 249.07 663.61 C 246.67 663.64 242.59 663.54 242.93 660.10 Z" />
<path fill="#010101" d=" M 698.58 661.36 C 699.11 661.45 700.16 661.63 700.69 661.72 C 699.04 667.85 694.68 672.81 692.82 678.90 C 690.11 687.72 685.08 695.52 680.13 703.22 C 678.35 707.02 675.28 710.64 675.46 715.04 C 677.34 721.32 681.01 726.92 684.79 732.24 C 687.77 736.54 689.14 741.69 691.78 746.18 C 693.02 748.44 694.54 750.60 695.38 753.06 C 696.57 758.62 694.09 764.02 692.03 769.05 C 690.44 772.63 689.29 776.56 686.62 779.53 C 685.58 779.78 684.54 779.90 683.48 779.90 C 683.49 779.42 683.52 778.46 683.53 777.98 C 688.31 773.84 690.38 767.63 692.44 761.87 C 694.50 756.77 691.75 751.71 689.83 747.07 C 687.87 742.90 686.55 738.45 684.34 734.40 C 680.62 728.55 676.51 722.88 673.57 716.58 C 672.28 714.18 672.49 711.28 673.90 709.00 C 679.57 699.32 686.94 690.61 691.17 680.12 C 693.77 673.92 695.94 667.55 698.58 661.36 Z" />
<path fill="#042eff" d=" M 368.36 663.39 C 377.34 661.80 386.54 669.80 386.11 678.94 C 386.73 687.10 379.08 694.55 370.99 694.13 C 365.39 694.62 360.46 690.95 357.39 686.58 C 354.61 681.94 354.54 675.96 357.27 671.27 C 359.16 666.76 363.92 664.58 368.36 663.39 Z" />
<path fill="#2a2a29" d=" M 208.00 669.62 C 213.82 669.48 219.29 666.76 225.06 666.68 C 228.15 669.23 229.39 673.27 231.52 676.56 C 232.69 679.00 234.99 681.17 234.84 684.05 C 232.22 685.75 228.92 685.06 225.98 685.13 C 213.30 684.25 200.59 684.65 187.89 684.75 C 182.84 684.91 177.69 686.18 172.69 685.21 C 171.86 682.76 173.94 681.02 175.52 679.54 C 178.67 676.91 182.25 674.85 185.24 672.02 C 183.48 671.81 182.02 671.07 180.84 669.82 C 184.51 668.55 188.30 669.93 192.04 669.83 C 197.36 669.83 202.68 669.76 208.00 669.62 Z" />
<path fill="#f5f4f0" d=" M 212.85 671.43 C 216.66 670.59 220.52 670.04 224.31 669.14 C 227.26 673.44 229.33 678.26 232.12 682.67 C 223.14 683.97 214.04 683.22 205.00 683.45 C 194.99 683.37 184.94 684.30 174.95 683.43 C 178.34 678.41 184.36 676.30 188.16 671.71 C 196.39 671.14 204.71 673.25 212.85 671.43 Z" />
<path fill="#343433" d=" M 189.66 673.73 C 199.08 672.93 208.53 674.86 217.90 673.25 L 218.51 673.98 L 218.28 675.44 C 210.07 675.13 201.83 674.93 193.62 675.40 C 200.79 676.37 208.04 675.64 215.25 675.87 C 215.03 676.35 214.58 677.32 214.36 677.80 C 207.83 677.72 201.20 676.88 194.74 678.22 C 196.71 678.57 198.70 678.77 200.71 678.74 C 200.94 679.21 201.41 680.14 201.64 680.60 C 197.33 680.04 192.98 679.79 188.66 680.36 C 188.58 679.92 188.42 679.04 188.34 678.60 C 189.08 678.45 190.55 678.16 191.28 678.01 C 190.76 676.57 190.21 675.14 189.66 673.73 Z" />
<path fill="#313130" d=" M 391.68 674.57 C 393.25 674.95 394.81 675.32 396.39 675.72 C 396.45 676.93 396.51 678.16 396.57 679.39 C 395.15 679.94 393.69 680.54 392.13 680.34 C 391.77 678.43 391.67 676.50 391.68 674.57 Z" />
<path fill="#5c5b5a" d=" M 398.86 677.45 C 399.91 678.23 401.22 678.96 401.55 680.37 C 404.77 689.76 410.29 698.12 415.40 706.57 C 421.96 716.59 428.29 726.86 436.02 736.04 C 437.23 736.99 435.50 738.06 435.18 738.88 C 425.79 724.31 415.31 710.44 406.80 695.30 C 404.96 692.14 403.21 688.92 401.34 685.78 C 401.21 697.42 401.46 709.11 403.55 720.60 C 405.26 730.00 406.46 739.58 409.57 748.65 C 410.21 750.96 412.31 753.10 411.61 755.60 C 411.09 755.60 410.07 755.58 409.56 755.58 C 404.09 734.49 399.47 712.90 399.67 691.01 C 399.74 686.46 398.44 681.99 398.86 677.45 Z" />
<path fill="#0c0c0b" d=" M 405.25 679.81 C 405.77 679.72 406.82 679.56 407.34 679.47 C 415.38 689.43 424.32 698.62 432.79 708.21 C 437.45 713.38 442.03 718.72 447.54 723.03 C 447.16 723.45 446.39 724.29 446.01 724.71 C 441.83 718.42 436.05 713.51 431.21 707.78 C 422.93 699.05 415.39 689.54 406.15 681.77 C 405.73 681.17 405.44 680.51 405.25 679.81 Z" />
<path fill="#1b1b1a" d=" M 202.16 681.00 C 202.90 680.51 203.63 680.03 204.38 679.56 C 208.07 680.89 211.98 679.97 215.78 680.14 C 215.63 680.65 215.32 681.67 215.17 682.18 C 210.81 682.00 206.55 680.49 202.16 681.00 Z" />
<path fill="#0b0b0b" d=" M 344.13 706.09 C 345.13 704.82 346.35 703.76 347.64 702.80 C 347.84 704.18 347.75 705.60 346.63 706.59 C 343.27 710.84 339.57 714.81 335.58 718.48 C 330.41 723.77 323.56 726.86 317.82 731.43 C 313.06 734.73 309.27 739.15 304.77 742.76 C 299.50 747.58 294.14 752.38 287.83 755.81 C 279.23 761.71 271.39 768.64 263.62 775.57 C 258.63 780.08 254.24 785.59 247.98 788.42 C 247.59 788.04 246.79 787.28 246.39 786.91 C 249.94 784.20 254.51 783.09 257.73 779.88 C 267.06 771.10 276.73 762.67 287.09 755.13 C 294.98 749.80 302.38 743.76 309.49 737.44 C 314.60 732.15 320.56 727.82 326.42 723.41 C 333.15 718.57 339.14 712.70 344.13 706.09 Z" />
<path fill="#131313" d=" M 959.78 740.14 C 960.31 740.19 961.38 740.28 961.92 740.33 C 961.28 743.77 958.64 746.30 957.24 749.42 C 953.10 756.46 950.98 764.39 947.88 771.89 C 946.04 776.39 944.76 781.09 943.06 785.63 C 942.56 785.71 941.58 785.87 941.09 785.95 C 944.56 776.51 948.78 767.36 952.14 757.88 C 954.21 751.75 958.92 746.68 959.78 740.14 Z" />
<path fill="#040404" d=" M 855.15 749.13 C 856.48 746.52 857.00 742.97 859.86 741.53 C 861.78 741.26 864.01 741.15 865.62 742.49 C 867.87 744.13 868.01 747.14 868.51 749.65 C 864.98 749.66 866.21 744.44 863.04 743.92 C 858.74 742.45 857.51 748.14 855.71 750.81 C 852.76 757.52 851.69 764.87 852.67 772.15 C 853.23 774.30 854.77 776.20 857.11 776.51 C 860.31 775.72 860.65 771.14 864.08 771.03 C 863.96 774.22 861.53 776.63 858.99 778.24 C 855.91 779.56 852.47 777.26 852.07 774.05 C 850.21 765.66 852.08 757.00 855.15 749.13 Z" />
<path fill="#040404" d=" M 880.33 745.49 C 882.64 743.78 886.09 743.98 888.43 745.56 C 890.11 746.89 889.62 749.22 889.77 751.10 C 888.00 750.65 887.60 749.05 887.32 747.49 C 885.86 747.01 884.38 746.35 882.83 746.60 C 878.43 748.92 877.04 754.36 877.46 758.99 C 881.32 760.64 885.19 763.39 885.79 767.89 C 887.93 774.64 880.85 780.24 874.70 780.59 C 874.66 780.12 874.58 779.17 874.54 778.70 C 878.13 778.24 881.85 776.55 883.45 773.10 C 884.14 770.37 883.57 767.32 881.99 765.01 C 880.41 762.77 877.60 762.04 875.69 760.18 C 874.34 754.97 876.13 748.94 880.33 745.49 Z" />
<path fill="#070707" d=" M 927.79 745.56 C 929.57 743.15 933.81 742.68 935.56 745.40 C 939.27 750.54 936.09 757.24 938.33 762.75 C 935.28 767.32 937.36 773.30 936.26 778.41 C 935.72 779.54 934.62 779.74 933.51 779.36 C 934.21 774.09 934.95 768.82 935.67 763.56 C 931.75 764.63 927.78 765.50 923.73 765.80 C 923.70 769.92 924.38 774.02 924.13 778.15 C 923.67 778.44 922.76 779.04 922.30 779.33 C 921.93 773.53 922.33 767.71 923.23 761.98 C 923.53 756.31 923.88 750.07 927.79 745.56 Z" />
<path fill="#0b0b0b" d=" M 896.83 745.56 C 897.22 745.81 898.00 746.31 898.39 746.56 C 899.38 751.18 900.54 755.79 902.24 760.22 C 907.12 757.55 908.81 751.67 912.06 747.47 C 912.59 747.34 913.63 747.09 914.15 746.97 C 914.78 757.81 911.29 768.37 911.24 779.20 C 910.77 779.27 909.83 779.40 909.36 779.47 C 909.62 769.71 913.84 760.36 912.53 750.47 C 908.94 753.18 907.82 757.74 905.19 761.20 C 904.16 762.64 901.69 763.06 900.64 761.43 C 899.65 759.68 899.28 757.68 898.71 755.79 C 896.84 762.74 897.41 769.99 897.63 777.09 C 897.84 778.35 896.50 779.03 895.94 779.98 C 895.61 779.16 894.32 778.54 894.85 777.56 C 896.81 771.24 896.15 764.56 897.14 758.10 C 897.62 753.91 896.45 749.75 896.83 745.56 Z" />
<path fill="#f5f4f0" d=" M 924.25 763.47 C 923.94 756.77 925.17 748.19 932.17 745.28 C 937.27 749.23 935.33 756.32 935.73 761.88 C 932.01 763.06 928.14 763.56 924.25 763.47 Z" />
<path fill="#070707" d=" M 972.93 747.83 C 976.84 747.06 981.61 747.85 984.03 751.35 C 980.50 751.59 977.39 749.01 973.80 749.70 C 969.80 751.27 967.79 755.34 965.62 758.75 C 964.41 762.73 963.41 766.95 963.98 771.12 C 964.47 774.91 968.70 776.54 972.08 776.45 C 974.32 776.60 976.37 774.89 978.63 775.53 C 977.91 778.34 974.40 778.65 971.98 778.53 C 968.23 778.56 963.66 776.98 962.54 773.00 C 961.71 768.66 962.37 764.15 964.08 760.11 C 966.13 755.53 968.09 750.12 972.93 747.83 Z" />
<path fill="#1b1b1a" d=" M 994.19 749.83 C 991.62 748.30 996.09 747.83 997.02 748.46 C 1002.14 751.31 1007.30 755.81 1008.04 762.00 C 1008.67 766.27 1009.62 771.68 1006.02 774.96 C 1001.95 779.08 995.83 779.08 990.56 780.37 C 989.99 779.02 989.44 777.68 988.88 776.34 C 990.38 767.74 991.45 758.98 990.38 750.27 C 990.90 750.30 991.94 750.37 992.47 750.41 C 992.56 754.09 992.60 757.80 992.10 761.47 C 991.18 766.94 991.92 772.51 991.28 778.01 C 996.51 777.89 1002.38 776.51 1005.53 771.94 C 1007.14 768.20 1006.54 763.79 1005.44 759.98 C 1003.54 755.03 998.92 751.77 994.19 749.83 Z" />
<path fill="#040404" d=" M 213.02 782.47 C 218.13 781.91 223.37 780.04 228.45 781.55 C 228.79 792.41 226.11 803.20 226.44 814.12 C 226.67 816.44 223.83 817.06 222.05 817.10 C 211.38 816.19 200.64 816.41 189.94 816.18 C 188.83 815.97 187.73 815.73 186.65 815.46 C 184.62 810.12 186.65 804.53 186.41 799.04 C 186.71 794.19 185.41 789.45 185.26 784.62 C 184.46 784.68 182.88 784.78 182.09 784.83 C 182.20 784.28 182.43 783.17 182.54 782.62 C 192.69 782.11 202.87 783.20 213.02 782.47 Z" />
<path fill="#f5f4f0" d=" M 187.61 784.34 C 196.35 782.98 205.23 783.97 214.03 783.46 C 218.18 783.18 222.34 783.10 226.50 783.37 C 226.18 793.80 223.86 804.09 224.12 814.56 C 218.75 814.79 213.37 814.21 207.99 814.37 C 201.47 814.12 194.88 814.72 188.42 813.68 C 186.95 803.96 187.54 794.12 187.61 784.34 Z" />
<path fill="#0f37fe" d=" M 200.36 785.57 C 207.74 781.91 217.43 786.97 219.04 794.94 C 221.16 802.65 214.99 811.28 206.96 811.61 C 199.28 812.58 191.79 805.70 192.21 797.96 C 192.02 792.64 195.63 787.72 200.36 785.57 Z" />
<path fill="#131313" d=" M 187.58 824.59 C 197.01 825.63 206.67 826.49 216.03 824.47 C 218.72 824.24 222.03 823.42 224.06 825.76 C 227.02 828.76 228.94 832.59 231.09 836.18 C 232.08 837.44 231.70 839.04 231.60 840.52 C 223.77 841.37 215.92 840.07 208.07 840.51 C 201.69 840.94 195.37 839.31 189.00 839.95 C 185.81 840.26 182.60 840.36 179.39 840.39 C 179.28 839.17 178.77 837.81 179.82 836.86 C 181.99 834.00 184.41 831.35 186.54 828.47 C 187.64 827.46 187.39 825.90 187.58 824.59 Z" />
<path fill="#f5f4f0" d=" M 206.99 828.14 C 211.85 828.42 216.50 826.11 221.37 826.75 C 225.45 829.41 227.35 834.20 229.20 838.51 C 220.87 839.67 212.40 839.62 204.04 838.76 C 196.65 838.19 189.22 838.46 181.84 837.63 C 183.81 833.55 187.50 830.84 190.00 827.18 C 195.67 827.30 201.33 827.81 206.99 828.14 Z" />
<path fill="#080808" d=" M 193.45 829.43 C 197.92 828.82 202.33 830.30 206.80 830.12 C 202.75 832.58 197.54 831.20 193.00 831.32 C 193.11 830.85 193.34 829.91 193.45 829.43 Z" />
<path fill="#060606" d=" M 207.19 832.13 C 207.00 831.73 206.63 830.92 206.45 830.52 C 210.29 830.76 214.13 830.44 217.97 830.60 C 218.99 833.69 215.37 832.12 213.93 832.26 C 211.70 832.01 209.37 831.22 207.19 832.13 Z" />
<path fill="#111111" d=" M 194.91 834.90 C 195.40 833.56 196.53 832.80 197.98 833.15 C 203.35 833.42 208.73 833.72 214.11 833.29 C 214.30 833.78 214.68 834.77 214.88 835.27 C 208.66 833.89 202.45 835.64 196.21 835.43 C 203.19 837.85 210.51 834.89 217.60 835.84 C 217.72 836.47 217.96 837.73 218.08 838.35 C 209.46 837.11 200.77 837.51 192.10 837.84 C 192.19 836.15 193.78 835.73 194.91 834.90 Z" />
</svg>
