<?xml version="1.0" encoding="UTF-8" ?>
<!DOCTYPE svg PUBLIC "-//W3C//DTD SVG 1.1//EN" "http://www.w3.org/Graphics/SVG/1.1/DTD/svg11.dtd">
<svg width="1155pt" height="866pt" viewBox="0 0 1155 866" version="1.1" xmlns="http://www.w3.org/2000/svg">
<path fill="#f5f3ef" d=" M 0.00 0.00 L 1155.00 0.00 L 1155.00 866.00 L 0.00 866.00 L 0.00 0.00 Z" />
<path fill="#060606" d=" M 75.69 47.70 C 79.15 47.40 83.91 46.61 85.76 50.45 C 88.33 55.82 82.55 61.29 77.34 61.36 C 77.27 61.02 77.12 60.34 77.05 59.99 C 77.16 59.81 77.37 59.46 77.48 59.28 C 80.96 59.28 85.51 57.17 84.62 52.96 C 84.31 48.97 79.71 49.33 76.81 49.62 C 76.39 55.87 75.02 62.20 76.32 68.43 C 76.71 70.11 75.64 71.60 75.04 73.08 C 74.72 72.61 74.08 71.67 73.76 71.20 C 74.98 66.90 74.90 62.39 75.24 57.96 C 74.88 54.52 74.60 51.06 75.69 47.70 Z" />
<path fill="#060606" d=" M 139.77 48.39 C 140.25 48.36 141.21 48.29 141.70 48.25 C 141.49 49.60 141.28 50.95 141.07 52.30 C 142.64 52.33 144.22 52.35 145.79 52.39 C 145.76 52.96 145.70 54.12 145.67 54.70 C 143.95 54.53 142.24 54.35 140.53 54.19 C 139.43 59.02 139.44 63.99 139.58 68.92 C 139.27 69.27 138.65 69.99 138.34 70.35 C 138.23 65.11 138.69 59.88 138.90 54.65 C 138.43 54.30 137.51 53.61 137.05 53.26 C 138.56 52.00 139.44 50.32 139.77 48.39 Z" />
<path fill="#060606" d=" M 204.18 53.79 C 204.71 51.74 205.23 49.68 206.02 47.71 C 206.88 49.21 207.09 50.81 206.66 52.50 C 208.63 53.02 210.84 53.33 212.00 55.27 C 210.01 55.45 208.03 55.37 206.05 55.33 C 205.45 59.65 205.24 64.02 205.30 68.37 C 204.87 68.38 203.99 68.38 203.56 68.39 C 204.44 63.59 204.87 58.64 204.18 53.79 Z" />
<path fill="#060606" d=" M 112.48 50.51 C 112.99 50.45 114.01 50.33 114.52 50.27 C 113.54 55.53 112.79 60.85 112.40 66.18 C 114.01 63.80 115.03 61.09 114.81 58.18 C 117.91 56.00 118.56 52.00 120.34 48.88 C 121.56 52.91 116.37 55.75 117.27 59.86 C 117.98 63.15 119.07 66.34 119.84 69.63 C 119.30 69.68 118.21 69.80 117.67 69.86 C 117.27 67.31 116.81 64.78 116.18 62.29 C 114.96 64.48 113.95 66.78 112.81 69.02 C 112.40 70.47 109.20 69.86 110.49 68.08 C 112.28 62.38 112.37 56.42 112.48 50.51 Z" />
<path fill="#060606" d=" M 165.03 52.27 C 167.37 50.48 171.65 48.97 173.17 52.54 C 169.39 51.97 165.46 52.66 163.06 55.91 C 166.09 56.94 171.31 57.68 170.32 62.17 C 168.55 66.10 164.09 67.50 160.36 68.90 C 160.32 68.35 160.24 67.25 160.20 66.71 C 161.53 66.60 162.86 66.49 164.19 66.38 C 165.86 64.83 168.68 63.50 168.40 60.81 C 166.95 58.47 163.58 59.03 161.76 57.10 C 160.47 54.75 163.49 53.40 165.03 52.27 Z" />
<path fill="#4d433b" d=" M 193.49 50.73 C 196.11 50.03 196.57 54.15 194.06 54.57 C 192.01 54.46 191.40 51.02 193.49 50.73 Z" />
<path fill="#060606" d=" M 224.21 51.26 C 224.74 51.31 225.80 51.41 226.33 51.46 C 226.10 54.83 225.49 58.21 226.00 61.59 C 225.48 61.03 224.96 60.46 224.46 59.88 C 224.45 57.01 224.27 54.13 224.21 51.26 Z" />
<path fill="#4d433b" d=" M 239.47 54.97 C 238.61 52.88 241.33 53.17 242.65 53.21 C 242.73 54.42 242.76 55.64 242.74 56.87 C 241.56 56.39 239.12 56.91 239.47 54.97 Z" />
<path fill="#060606" d=" M 180.93 61.82 C 181.63 59.90 182.26 57.83 183.96 56.53 C 184.17 59.43 182.01 61.52 181.06 64.05 C 180.99 65.63 182.05 66.87 182.91 68.07 C 185.09 65.79 186.00 62.85 185.81 59.74 C 186.31 59.71 187.32 59.64 187.83 59.61 C 187.73 63.06 187.06 66.87 184.48 69.38 C 181.85 70.88 179.80 68.48 178.80 66.31 C 177.90 67.07 176.99 67.81 176.09 68.55 C 175.49 68.21 174.28 67.52 173.68 67.17 C 174.06 64.38 173.22 60.55 176.34 59.06 C 176.30 61.42 175.97 63.75 175.74 66.10 C 178.41 65.10 178.53 62.67 178.28 60.15 C 179.15 60.72 180.03 61.28 180.93 61.82 Z" />
<path fill="#4d433b" d=" M 193.84 59.38 C 194.33 59.53 195.29 59.84 195.77 59.99 C 195.48 63.95 195.29 67.90 195.34 71.87 C 194.81 71.73 193.75 71.45 193.23 71.31 C 193.42 67.34 193.64 63.36 193.84 59.38 Z" />
<path fill="#060606" d=" M 210.41 66.06 C 210.64 62.90 212.53 58.97 216.01 58.61 C 217.74 58.16 218.70 59.44 219.44 60.77 C 218.44 60.74 216.42 60.69 215.41 60.66 C 213.43 62.28 211.87 64.58 212.61 67.26 C 214.37 66.91 216.12 66.48 217.91 66.29 C 217.05 67.45 216.64 69.32 215.00 69.57 C 212.91 70.08 209.93 68.52 210.41 66.06 Z" />
<path fill="#060606" d=" M 226.43 62.80 C 227.54 61.77 228.66 58.27 230.43 60.20 C 231.23 63.67 231.37 67.26 231.44 70.80 C 228.43 68.75 230.15 64.71 229.34 61.69 C 226.19 63.99 225.57 68.03 223.33 71.01 C 223.11 68.16 223.96 65.42 224.45 62.66 C 224.95 62.69 225.94 62.77 226.43 62.80 Z" />
<path fill="#060606" d=" M 238.34 59.46 C 238.89 59.41 239.99 59.31 240.54 59.26 C 239.63 63.11 239.47 67.06 239.53 71.00 C 239.23 71.34 238.64 72.03 238.34 72.38 C 238.16 68.08 238.21 63.76 238.34 59.46 Z" />
<path fill="#060606" d=" M 245.63 70.98 C 247.08 66.78 245.38 61.12 249.13 57.99 C 249.13 59.65 249.13 61.32 249.14 62.99 C 250.56 61.82 252.18 58.93 254.23 60.81 C 254.55 64.36 255.12 68.85 252.39 71.62 C 252.40 68.30 253.01 64.98 252.60 61.66 C 248.83 63.72 249.11 68.82 245.63 70.98 Z" />
<path fill="#060606" d=" M 259.61 70.46 C 259.40 66.35 260.12 61.73 263.28 58.79 C 263.26 62.26 261.22 65.37 261.49 68.88 C 265.39 67.31 266.11 63.02 266.60 59.36 C 267.09 59.41 268.06 59.52 268.54 59.57 C 267.17 64.59 266.39 69.77 266.76 74.98 C 267.29 78.98 264.05 81.88 260.96 83.75 C 260.36 83.11 258.74 82.63 259.41 81.54 C 262.01 80.82 264.66 79.41 265.44 76.61 C 265.97 73.79 265.74 70.90 265.85 68.05 C 264.06 69.57 262.08 70.93 259.61 70.46 Z" />
<path fill="#060606" d=" M 87.74 61.37 C 89.77 58.13 97.71 58.99 96.20 63.98 C 94.81 67.53 90.48 67.53 87.43 68.72 C 88.23 69.40 88.93 70.45 90.12 70.36 C 92.25 70.32 93.53 67.48 95.89 68.51 C 94.21 72.83 89.07 73.23 85.42 71.30 C 85.59 69.72 85.02 67.68 86.58 66.64 C 89.36 65.39 94.28 65.98 94.29 61.75 C 92.11 61.63 89.92 61.56 87.74 61.37 Z" />
<path fill="#060606" d=" M 104.33 60.33 C 105.64 59.25 107.04 60.14 108.34 60.70 C 105.30 62.18 100.73 63.58 101.03 67.79 C 102.52 67.92 104.02 67.72 105.51 67.56 C 105.55 67.98 105.62 68.82 105.66 69.24 C 105.03 69.55 103.77 70.17 103.14 70.47 C 101.84 70.01 100.55 69.56 99.25 69.11 C 98.31 65.27 101.23 62.08 104.33 60.33 Z" />
<path fill="#060606" d=" M 124.52 68.06 C 124.23 64.76 126.02 59.53 130.23 60.49 C 131.49 62.16 130.26 64.14 130.00 65.90 C 129.36 65.02 128.73 64.14 128.12 63.24 C 127.53 63.94 126.94 64.64 126.34 65.33 C 127.21 65.87 128.10 66.38 128.98 66.91 C 128.55 67.26 127.70 67.95 127.28 68.29 C 128.77 67.98 130.25 67.67 131.76 67.45 C 131.24 71.24 125.63 71.53 124.52 68.06 Z" />
<path fill="#060606" d=" M 650.49 101.86 C 656.33 101.68 662.17 101.32 668.00 100.87 C 670.95 100.75 674.76 100.58 676.48 103.53 C 678.71 106.16 678.52 109.76 678.61 113.00 C 678.67 121.94 678.61 130.89 678.55 139.84 C 678.43 144.29 678.25 148.73 678.21 153.18 C 678.09 159.97 678.15 166.77 678.34 173.56 C 679.48 175.48 681.32 177.76 680.01 180.07 C 679.15 182.48 676.34 183.62 673.96 183.17 C 670.60 182.75 667.36 181.51 663.94 181.68 C 637.30 181.61 610.65 181.43 584.01 181.70 C 568.30 183.18 552.47 183.57 536.89 186.23 C 524.83 187.92 513.19 191.70 501.14 193.42 C 495.41 194.58 489.26 195.60 483.58 193.72 C 480.24 192.80 478.43 189.28 478.52 186.01 C 478.47 177.56 478.60 169.11 478.61 160.66 C 478.61 155.95 478.59 151.25 478.57 146.54 C 478.56 137.71 478.35 128.88 478.48 120.05 C 478.62 117.63 478.51 115.00 479.80 112.85 C 480.87 111.87 482.17 111.20 483.42 110.49 C 484.21 107.98 485.87 104.92 488.98 105.30 C 512.65 105.45 536.32 105.68 559.99 105.71 C 566.62 105.71 573.27 105.90 579.87 105.11 C 587.90 104.06 596.02 104.49 604.09 104.09 C 619.53 102.94 635.07 103.48 650.49 101.86 Z" />
<path fill="#f5f3ef" d=" M 626.99 112.45 C 640.84 112.68 654.61 110.85 668.48 111.17 C 669.19 131.33 668.43 151.49 668.23 171.65 C 638.80 172.19 609.34 171.26 579.93 172.48 C 569.03 173.85 558.02 173.94 547.13 175.31 C 533.53 176.64 520.18 179.63 506.87 182.57 C 500.75 183.38 494.68 185.02 488.46 184.68 C 488.36 163.79 488.27 142.89 488.72 122.00 C 488.79 119.87 489.18 117.78 489.49 115.68 C 515.33 115.40 541.17 115.25 567.01 115.22 C 576.69 115.05 586.28 113.27 595.97 113.50 C 606.33 113.64 616.64 112.47 626.99 112.45 Z" />
<path fill="#060606" d=" M 632.06 131.02 C 638.93 128.09 646.90 136.19 643.62 142.95 C 641.68 148.94 633.07 150.69 628.83 146.15 C 624.02 141.89 625.89 132.93 632.06 131.02 Z" />
<path fill="#060606" d=" M 521.12 134.12 C 526.01 132.15 532.08 135.80 532.52 141.08 C 533.39 146.01 529.05 151.12 524.01 150.78 C 518.91 151.14 514.55 145.93 515.43 140.98 C 515.88 137.91 518.11 135.06 521.12 134.12 Z" />
<path fill="#060606" d=" M 602.55 141.31 C 602.55 139.36 602.40 137.39 602.63 135.44 C 607.79 136.10 612.44 138.81 616.35 142.15 C 616.30 142.62 616.21 143.57 616.17 144.04 C 612.15 145.05 608.02 145.68 603.95 146.38 C 603.17 145.72 602.44 145.02 601.74 144.29 C 585.51 144.42 569.28 144.36 553.06 144.46 C 549.85 144.31 546.35 144.99 543.45 143.30 C 543.54 142.69 543.73 141.47 543.82 140.86 C 547.20 141.28 550.60 141.56 554.01 141.50 C 570.19 141.50 586.37 141.84 602.55 141.31 Z" />
<path fill="#1a40fd" d=" M 678.21 153.18 C 678.25 148.73 678.43 144.29 678.55 139.84 C 682.98 143.92 687.82 147.62 691.63 152.33 C 695.83 156.82 699.46 161.94 704.49 165.56 C 711.52 170.40 716.74 177.26 722.60 183.35 C 728.97 189.68 737.31 193.34 744.52 198.54 C 751.10 203.17 757.04 208.62 762.95 214.07 C 769.32 220.54 777.78 224.46 784.21 230.88 C 790.47 237.28 796.29 244.09 802.61 250.43 C 809.17 257.05 814.23 264.93 819.30 272.70 C 821.98 276.65 826.18 279.10 829.63 282.29 C 833.44 285.85 836.89 289.84 841.20 292.83 C 844.73 295.31 848.22 297.88 851.53 300.67 C 851.50 304.70 851.54 308.74 851.53 312.77 C 842.86 320.21 832.46 325.01 822.77 330.88 C 818.23 333.49 814.79 337.55 810.37 340.34 C 802.85 346.40 793.96 350.40 786.35 356.33 C 780.56 360.15 775.86 365.33 770.18 369.30 C 761.01 376.02 751.95 382.91 743.48 390.50 C 739.62 393.99 735.20 396.78 731.42 400.35 C 725.07 406.27 717.21 410.16 710.19 415.18 C 702.09 420.95 695.60 428.62 687.69 434.61 C 683.40 437.90 678.35 439.87 673.69 442.50 C 674.12 438.61 674.55 434.72 674.90 430.83 C 675.48 430.33 676.08 429.85 676.68 429.37 C 685.58 424.77 692.05 416.89 699.84 410.80 C 705.61 406.02 712.22 402.45 718.45 398.34 C 722.83 395.53 726.44 391.73 730.64 388.67 C 737.16 383.89 742.89 378.16 749.35 373.32 C 756.08 367.69 763.51 362.97 770.20 357.30 C 777.68 350.58 785.89 344.68 794.54 339.56 C 799.45 336.59 803.95 333.03 808.50 329.54 C 818.75 320.21 832.06 315.31 842.82 306.67 C 840.07 304.55 837.25 302.53 834.43 300.51 C 828.61 296.41 824.31 290.59 818.68 286.26 C 813.52 282.32 810.04 276.78 806.58 271.41 C 799.41 260.20 789.33 251.38 780.68 241.38 C 774.45 233.72 765.34 229.39 758.11 222.84 C 751.87 217.07 745.63 211.22 738.62 206.38 C 732.13 201.82 724.92 198.30 718.88 193.10 C 711.91 187.06 706.62 179.23 699.08 173.82 C 691.05 168.08 685.56 159.67 678.21 153.18 Z" />
<path fill="#1a40fd" d=" M 473.51 147.55 C 475.04 146.67 476.87 146.77 478.57 146.54 C 478.59 151.25 478.61 155.95 478.61 160.66 C 470.34 166.78 462.14 173.01 453.50 178.63 C 441.76 186.80 430.66 195.86 418.70 203.72 C 409.76 209.64 402.59 217.68 394.22 224.30 C 389.57 228.40 384.02 231.30 379.45 235.48 C 372.67 241.68 366.74 248.80 359.41 254.39 C 352.41 259.68 345.10 264.64 338.92 270.92 C 334.29 275.35 330.78 280.79 326.04 285.12 C 318.95 291.67 312.93 299.24 306.30 306.23 C 314.92 310.52 324.28 313.32 332.40 318.60 C 338.29 322.29 343.98 326.31 349.45 330.61 C 355.21 335.15 362.26 337.57 368.26 341.75 C 376.14 347.08 382.91 353.88 390.82 359.17 C 400.30 364.53 409.55 370.28 418.78 376.07 C 426.41 381.79 433.18 388.83 441.87 393.02 C 446.37 395.22 450.87 397.43 455.36 399.66 C 465.78 404.27 474.00 412.51 484.09 417.72 C 483.75 422.00 483.41 426.28 482.95 430.55 C 479.87 428.51 477.63 425.43 474.33 423.70 C 468.33 420.12 462.88 415.73 457.06 411.89 C 448.70 407.06 439.65 403.50 431.38 398.51 C 425.10 394.24 419.42 389.18 413.51 384.45 C 405.68 379.66 398.01 374.59 390.09 369.93 C 378.82 364.04 370.42 354.08 359.47 347.72 C 354.79 345.05 349.86 342.80 345.45 339.69 C 336.06 332.66 326.53 325.38 315.42 321.29 C 310.46 319.40 305.63 317.19 300.63 315.42 L 300.38 314.90 C 300.58 306.66 300.85 298.41 301.08 290.17 C 301.77 290.19 303.13 290.23 303.81 290.25 C 304.05 291.21 304.29 292.17 304.53 293.14 C 311.47 284.56 320.35 277.80 327.18 269.13 C 334.46 260.67 343.54 254.06 352.53 247.56 C 362.45 240.18 369.64 229.68 380.03 222.87 C 392.22 215.02 401.56 203.64 413.57 195.54 C 424.31 188.47 434.52 180.61 444.24 172.19 C 452.53 165.81 461.10 159.77 468.87 152.73 C 470.52 151.11 471.64 148.97 473.51 147.55 Z" />
<path fill="#060606" d=" M 739.56 148.17 C 740.31 146.96 741.85 147.43 742.45 148.52 C 748.21 155.37 753.69 162.45 759.77 169.03 C 759.31 169.14 758.39 169.37 757.93 169.49 C 752.39 161.90 745.86 155.10 739.56 148.17 Z" />
<path fill="#060606" d=" M 714.32 148.94 C 720.88 155.60 726.03 163.52 731.99 170.70 C 731.46 170.63 730.40 170.49 729.87 170.41 C 725.49 164.10 720.51 158.25 715.38 152.54 C 714.23 151.66 714.40 150.21 714.32 148.94 Z" />
<path fill="#060606" d=" M 730.21 151.80 C 733.34 152.22 734.65 155.28 736.51 157.42 C 738.73 160.49 741.32 163.26 743.82 166.10 C 743.73 166.54 743.54 167.42 743.45 167.86 C 739.10 162.46 734.25 157.44 730.21 151.80 Z" />
<path fill="#f5f3ef" d=" M 678.21 153.18 C 685.56 159.67 691.05 168.08 699.08 173.82 C 706.62 179.23 711.91 187.06 718.88 193.10 C 724.92 198.30 732.13 201.82 738.62 206.38 C 745.63 211.22 751.87 217.07 758.11 222.84 C 765.34 229.39 774.45 233.72 780.68 241.38 C 789.33 251.38 799.41 260.20 806.58 271.41 C 810.04 276.78 813.52 282.32 818.68 286.26 C 824.31 290.59 828.61 296.41 834.43 300.51 C 837.25 302.53 840.07 304.55 842.82 306.67 C 832.06 315.31 818.75 320.21 808.50 329.54 C 803.95 333.03 799.45 336.59 794.54 339.56 C 785.89 344.68 777.68 350.58 770.20 357.30 C 763.51 362.97 756.08 367.69 749.35 373.32 C 742.89 378.16 737.16 383.89 730.64 388.67 C 726.44 391.73 722.83 395.53 718.45 398.34 C 712.22 402.45 705.61 406.02 699.84 410.80 C 692.05 416.89 685.58 424.77 676.68 429.37 C 676.40 429.40 675.82 429.47 675.54 429.50 C 676.03 416.19 676.26 402.87 676.84 389.57 C 664.23 389.66 651.62 389.75 639.02 389.59 C 625.69 388.86 612.34 389.43 599.01 389.20 C 587.68 388.72 576.40 387.22 565.04 387.45 C 559.35 387.47 553.66 387.24 547.99 386.85 C 530.96 386.66 513.92 387.05 496.90 386.57 C 493.60 386.73 490.84 383.37 487.53 384.73 C 486.03 385.60 484.37 387.06 484.54 388.98 C 484.74 398.56 484.77 408.16 484.09 417.72 C 474.00 412.51 465.78 404.27 455.36 399.66 C 450.87 397.43 446.37 395.22 441.87 393.02 C 433.18 388.83 426.41 381.79 418.78 376.07 C 409.55 370.28 400.30 364.53 390.82 359.17 C 382.91 353.88 376.14 347.08 368.26 341.75 C 362.26 337.57 355.21 335.15 349.45 330.61 C 343.98 326.31 338.29 322.29 332.40 318.60 C 324.28 313.32 314.92 310.52 306.30 306.23 C 312.93 299.24 318.95 291.67 326.04 285.12 C 330.78 280.79 334.29 275.35 338.92 270.92 C 345.10 264.64 352.41 259.68 359.41 254.39 C 366.74 248.80 372.67 241.68 379.45 235.48 C 384.02 231.30 389.57 228.40 394.22 224.30 C 402.59 217.68 409.76 209.64 418.70 203.72 C 430.66 195.86 441.76 186.80 453.50 178.63 C 462.14 173.01 470.34 166.78 478.61 160.66 C 478.60 169.11 478.47 177.56 478.52 186.01 C 478.43 189.28 480.24 192.80 483.58 193.72 C 489.26 195.60 495.41 194.58 501.14 193.42 C 513.19 191.70 524.83 187.92 536.89 186.23 C 552.47 183.57 568.30 183.18 584.01 181.70 C 610.65 181.43 637.30 181.61 663.94 181.68 C 667.36 181.51 670.60 182.75 673.96 183.17 C 676.34 183.62 679.15 182.48 680.01 180.07 C 681.32 177.76 679.48 175.48 678.34 173.56 C 678.15 166.77 678.09 159.97 678.21 153.18 Z" />
<path fill="#060606" d=" M 759.17 176.58 C 767.80 175.74 776.34 174.22 784.83 172.44 C 785.16 175.81 782.82 178.45 780.98 180.98 C 778.12 184.52 776.10 188.65 773.22 192.17 C 770.43 195.63 767.70 199.24 766.25 203.49 C 762.56 201.67 758.37 200.57 755.46 197.50 C 752.11 194.20 748.33 191.39 744.96 188.13 C 741.74 185.02 737.43 183.52 733.95 180.77 C 737.17 178.70 741.20 179.16 744.86 178.75 C 745.60 178.75 747.08 178.77 747.83 178.78 C 744.91 179.88 741.89 180.70 738.89 181.52 C 744.21 185.70 749.31 190.18 754.81 194.14 C 757.04 196.04 759.38 197.87 762.14 198.96 C 763.44 199.90 764.58 199.72 765.55 198.42 C 772.08 191.30 778.27 183.77 782.95 175.26 C 775.26 176.93 767.38 176.41 759.60 177.11 L 759.17 176.58 Z" />
<path fill="#060606" d=" M 366.62 175.19 C 370.56 172.32 375.55 174.83 379.99 174.33 C 390.39 175.00 400.77 172.65 411.12 174.35 C 413.30 174.37 415.07 175.74 416.78 176.93 C 416.26 177.37 415.21 178.25 414.69 178.69 C 413.59 179.04 412.57 179.63 411.86 180.56 C 405.97 186.81 398.63 191.82 394.22 199.34 C 393.02 201.13 391.46 203.43 388.95 202.89 C 382.73 198.06 378.87 191.09 373.49 185.46 C 371.13 182.72 368.13 180.59 366.10 177.56 C 366.78 177.53 368.16 177.46 368.84 177.43 C 373.10 183.08 378.37 187.85 382.73 193.42 C 384.97 196.19 387.55 198.66 390.09 201.15 C 394.43 196.47 397.67 190.85 402.48 186.61 C 405.99 183.42 409.54 180.28 412.94 176.96 C 398.20 174.43 383.20 174.91 368.33 175.37 C 367.90 175.33 367.05 175.24 366.62 175.19 Z" />
<path fill="#cb4d0b" d=" M 368.33 175.37 C 383.20 174.91 398.20 174.43 412.94 176.96 C 409.54 180.28 405.99 183.42 402.48 186.61 C 397.67 190.85 394.43 196.47 390.09 201.15 C 387.55 198.66 384.97 196.19 382.73 193.42 C 378.37 187.85 373.10 183.08 368.84 177.43 L 368.33 175.37 Z" />
<path fill="#cb4d0b" d=" M 759.60 177.11 C 767.38 176.41 775.26 176.93 782.95 175.26 C 778.27 183.77 772.08 191.30 765.55 198.42 C 764.58 199.72 763.44 199.90 762.14 198.96 C 759.78 197.23 757.35 195.58 754.81 194.14 C 749.31 190.18 744.21 185.70 738.89 181.52 C 741.89 180.70 744.91 179.88 747.83 178.78 C 747.08 178.77 745.60 178.75 744.86 178.75 C 749.67 177.78 754.67 175.96 759.60 177.11 Z" />
<path fill="#807d78" d=" M 411.86 180.56 C 412.57 179.63 413.59 179.04 414.69 178.69 C 415.71 180.25 412.96 181.86 411.86 180.56 Z" />
<path fill="#4d433b" d=" M 362.19 190.17 C 363.49 188.85 365.24 188.43 367.03 188.81 C 356.84 196.73 346.60 204.61 336.00 211.99 C 333.35 213.72 331.12 216.31 327.89 216.95 C 328.85 214.29 331.67 213.32 333.78 211.78 C 343.59 205.04 353.02 197.75 362.19 190.17 Z" />
<path fill="#f5f3ef" d=" M 754.81 194.14 C 757.35 195.58 759.78 197.23 762.14 198.96 C 759.38 197.87 757.04 196.04 754.81 194.14 Z" />
<path fill="#060606" d=" M 355.37 206.40 C 359.01 203.93 362.01 200.34 366.35 199.04 C 366.31 199.49 366.23 200.39 366.19 200.84 C 361.20 203.45 356.79 207.00 352.30 210.36 C 351.21 211.33 349.87 211.92 348.47 212.26 C 350.02 209.55 353.08 208.37 355.37 206.40 Z" />
<path fill="#4d433b" d=" M 369.91 206.81 C 371.37 205.50 373.12 204.48 375.14 204.43 C 372.26 208.14 368.12 210.47 364.55 213.41 C 359.73 216.96 355.11 220.82 350.09 224.08 C 350.21 222.73 350.75 221.54 351.99 220.89 C 358.16 216.45 364.11 211.72 369.91 206.81 Z" />
<path fill="#060606" d=" M 848.15 217.94 C 847.92 214.77 851.23 212.29 854.21 212.72 C 856.72 213.46 858.36 216.02 861.01 216.43 C 868.97 217.77 877.11 217.12 885.08 218.46 C 894.67 219.93 904.40 219.38 914.05 220.27 C 933.69 220.65 953.33 220.36 972.98 220.42 C 983.32 220.29 993.71 220.82 1004.02 219.76 C 1010.65 219.37 1017.30 217.80 1023.95 218.78 C 1027.68 220.67 1029.25 224.95 1029.33 228.92 C 1029.96 248.24 1030.14 267.60 1029.57 286.93 C 1029.51 294.35 1027.61 301.57 1026.91 308.93 C 1025.90 327.61 1026.33 346.32 1026.29 365.02 C 1026.42 367.17 1024.44 368.49 1023.19 369.94 C 1022.46 371.69 1021.73 373.89 1019.66 374.39 C 1006.80 377.04 993.57 376.36 980.62 378.35 C 971.18 379.78 961.61 379.79 952.08 379.78 C 930.70 379.78 909.31 379.77 887.93 379.89 C 881.64 380.39 875.36 379.74 869.07 379.62 C 863.82 379.43 857.79 379.12 853.99 374.97 C 852.02 372.02 853.00 368.27 852.80 364.96 C 853.18 358.24 851.15 351.69 851.41 344.98 C 851.55 334.24 851.56 323.51 851.53 312.77 C 851.54 308.74 851.50 304.70 851.53 300.67 C 852.06 290.16 854.53 279.44 851.87 269.01 C 851.10 265.41 851.45 261.70 851.36 258.05 C 851.19 246.39 851.45 234.70 850.63 223.06 C 849.71 221.40 847.95 220.01 848.15 217.94 Z" />
<path fill="#060606" d=" M 152.43 219.32 C 154.22 218.99 156.19 217.84 157.94 218.95 C 159.86 219.62 160.37 221.75 161.13 223.40 C 200.42 223.89 239.72 223.63 279.01 223.57 C 284.76 223.55 290.55 223.66 296.25 222.77 C 298.22 223.34 300.35 223.69 302.04 224.95 C 303.13 226.27 303.71 227.94 304.17 229.57 C 305.68 239.40 304.02 249.29 303.01 259.07 C 301.43 269.35 301.06 279.77 301.08 290.17 C 300.85 298.41 300.58 306.66 300.38 314.90 C 300.36 332.96 300.96 351.04 299.97 369.07 C 299.90 373.26 296.75 377.10 292.59 377.81 C 286.45 378.84 280.19 378.83 273.98 378.85 C 246.64 380.36 219.23 378.53 191.89 379.91 C 186.62 380.56 181.31 380.30 176.03 380.63 C 168.04 381.53 160.01 382.18 151.96 382.29 C 147.31 382.41 142.75 384.03 138.08 383.67 C 135.79 382.64 133.60 380.67 133.24 378.05 C 130.98 367.23 131.79 356.09 130.40 345.15 C 129.83 326.43 130.17 307.70 130.14 288.97 C 130.30 268.31 129.54 247.66 129.87 227.00 C 130.02 225.17 130.37 223.08 132.14 222.11 C 138.02 217.75 145.75 220.55 152.43 219.32 Z" />
<path fill="#f5f3ef" d=" M 861.37 227.10 C 871.98 227.13 882.55 227.88 893.08 229.17 C 925.71 230.08 958.36 230.28 991.01 230.17 C 1000.43 229.71 1009.85 229.12 1019.27 228.54 C 1020.16 247.67 1020.79 266.83 1020.12 285.98 C 1019.95 295.78 1017.01 305.28 1017.24 315.11 C 1015.95 331.60 1016.37 348.15 1016.24 364.68 C 1009.63 366.48 1002.74 366.72 995.95 367.31 C 987.24 367.46 978.70 369.30 970.03 369.90 C 962.03 370.67 953.99 370.28 945.97 370.35 C 928.97 370.36 911.98 370.35 894.99 370.29 C 884.25 370.24 873.45 370.42 862.81 368.79 C 862.65 364.40 862.59 360.01 862.04 355.65 C 860.09 343.53 860.99 331.21 860.77 318.99 C 860.56 288.36 861.19 257.74 861.37 227.10 Z" />
<path fill="#f5f3ef" d=" M 139.79 246.99 C 139.89 241.21 139.47 235.41 140.27 229.67 C 142.11 229.69 143.96 229.71 145.80 229.75 C 147.01 231.04 148.03 232.79 149.92 233.15 C 153.91 233.80 157.98 233.54 162.01 233.61 C 201.33 233.34 240.65 233.43 279.97 233.56 C 284.81 233.62 289.66 233.63 294.49 233.20 C 295.27 242.17 293.96 251.12 293.05 260.03 C 291.28 272.92 291.13 285.95 291.26 298.94 C 289.40 321.97 291.71 345.15 289.68 368.17 C 247.17 371.19 204.41 367.94 161.96 372.16 C 155.53 372.60 149.03 372.24 142.66 373.51 C 142.11 369.79 141.64 366.06 141.58 362.30 C 141.08 352.20 139.61 342.15 139.72 332.03 C 139.75 303.68 139.61 275.33 139.79 246.99 Z" />
<path fill="#060606" d=" M 942.83 238.80 C 943.47 238.70 944.76 238.50 945.40 238.40 C 945.34 247.36 945.03 256.36 945.19 265.34 C 946.45 265.41 947.72 265.48 949.01 265.56 C 950.90 269.07 948.19 272.55 946.95 275.77 C 945.28 275.81 943.61 275.79 941.96 275.75 C 940.81 272.74 939.46 269.75 939.20 266.50 C 939.97 266.46 941.50 266.38 942.26 266.34 C 942.56 257.17 941.49 247.88 942.83 238.80 Z" />
<path fill="#060606" d=" M 943.70 282.96 C 949.20 281.28 955.04 287.50 952.81 292.88 C 951.46 297.64 945.09 299.78 941.15 296.78 C 935.94 293.40 937.48 284.21 943.70 282.96 Z" />
<path fill="#060606" d=" M 231.82 283.75 C 237.96 282.41 243.68 289.01 241.53 294.93 C 239.93 301.42 230.26 302.92 226.50 297.54 C 222.35 292.76 225.70 284.68 231.82 283.75 Z" />
<path fill="#060606" d=" M 867.35 285.46 C 871.68 282.53 878.22 285.77 878.45 291.01 C 878.99 295.96 873.65 300.23 868.92 298.45 C 863.33 296.89 862.37 288.36 867.35 285.46 Z" />
<path fill="#060606" d=" M 907.83 286.65 C 910.60 287.85 915.69 288.29 915.58 292.14 C 912.69 294.00 909.19 293.70 906.03 292.87 C 897.97 292.52 889.92 293.53 881.86 293.32 C 881.82 292.71 881.76 291.48 881.73 290.86 C 884.02 289.89 886.56 290.21 888.99 290.15 C 895.07 290.31 901.14 289.69 907.23 289.74 C 907.38 288.97 907.68 287.42 907.83 286.65 Z" />
<path fill="#060606" d=" M 209.69 292.38 C 210.35 290.74 211.48 289.41 212.79 288.26 C 216.04 289.31 219.17 290.69 222.42 291.73 C 222.69 292.36 223.24 293.64 223.52 294.27 C 220.34 297.98 215.11 298.57 210.65 299.71 C 210.08 298.32 209.74 296.85 209.41 295.40 C 201.62 296.29 193.76 295.46 185.96 296.05 C 178.48 296.24 171.00 297.37 163.52 296.55 C 163.50 295.54 163.50 294.53 163.51 293.53 C 174.68 294.52 185.82 292.33 196.99 293.06 C 201.24 293.42 205.47 292.76 209.69 292.38 Z" />
<path fill="#060606" d=" M 350.90 294.18 C 351.45 294.22 352.53 294.30 353.08 294.34 C 358.33 301.85 363.85 309.90 372.56 313.67 C 368.65 314.61 365.73 311.50 363.22 309.03 C 358.91 304.25 354.99 299.14 350.90 294.18 Z" />
<path fill="#060606" d=" M 348.59 302.97 C 351.45 302.93 352.59 305.84 354.51 307.43 C 358.05 311.43 362.65 314.37 365.89 318.64 C 362.06 317.75 359.71 314.35 357.02 311.79 C 354.27 308.78 351.05 306.22 348.59 302.97 Z" />
<path fill="#060606" d=" M 339.68 307.91 C 345.07 312.91 350.56 318.21 357.53 320.93 C 358.36 321.33 358.98 321.97 359.38 322.86 C 351.18 321.55 346.16 314.12 339.50 309.94 C 339.54 309.43 339.63 308.42 339.68 307.91 Z" />
<path fill="#060606" d=" M 368.92 325.95 C 374.65 321.16 378.26 314.07 384.99 310.46 C 391.68 314.73 398.53 318.73 405.28 322.91 C 414.22 328.31 425.08 330.64 432.84 337.88 C 430.63 342.81 426.14 346.12 423.59 350.82 C 421.05 355.15 419.60 360.16 416.10 363.89 C 406.22 359.76 398.07 352.58 389.09 346.92 C 382.75 344.20 377.77 339.07 371.23 336.78 C 370.17 336.17 368.52 336.17 368.02 334.90 C 367.59 334.62 366.72 334.07 366.28 333.79 L 365.14 333.83 C 365.85 330.99 366.47 327.85 368.92 325.95 Z" />
<path fill="#f0ad24" d=" M 379.09 317.01 C 380.86 315.56 382.63 313.71 384.99 313.36 C 391.08 317.33 398.08 319.62 404.05 323.80 C 411.61 329.07 421.00 331.12 428.07 337.20 C 427.40 338.25 427.25 339.37 427.61 340.56 L 427.86 341.65 C 421.94 346.70 420.67 354.74 415.95 360.64 C 415.59 360.47 414.88 360.14 414.52 359.97 C 410.42 359.29 407.43 356.10 403.87 354.21 C 398.37 351.21 393.93 346.64 388.31 343.88 C 381.18 340.65 375.55 334.41 367.50 333.29 C 369.00 326.49 374.30 321.66 379.09 317.01 Z" />
<path fill="#060606" d=" M 727.51 319.56 C 730.02 317.89 731.69 314.15 735.11 314.50 C 738.02 316.34 739.63 319.51 741.78 322.09 C 745.03 326.84 749.62 330.47 752.63 335.39 C 755.51 339.87 762.05 342.58 761.71 348.65 C 761.25 348.31 760.33 347.62 759.86 347.28 C 756.96 342.95 753.12 339.37 750.15 335.09 C 748.62 332.81 746.86 330.70 744.99 328.70 C 741.50 324.76 738.51 320.22 734.22 317.09 C 728.22 320.75 721.96 324.10 716.58 328.69 C 714.36 330.67 711.58 331.78 708.88 332.93 C 711.72 339.45 717.49 343.85 721.64 349.45 C 726.24 355.46 731.02 361.38 736.44 366.68 C 737.75 367.70 739.53 369.61 741.27 368.31 C 748.32 363.93 754.48 358.26 760.80 352.91 C 762.05 352.26 763.75 350.50 765.10 351.95 C 764.38 354.49 761.38 354.96 759.71 356.69 C 757.09 359.17 754.22 361.36 751.13 363.22 C 747.19 365.59 744.10 369.17 740.01 371.31 C 736.09 370.31 733.64 366.75 731.30 363.72 C 725.02 354.73 718.16 346.12 710.43 338.36 C 709.62 337.17 708.74 336.04 707.81 334.95 C 707.47 334.45 706.77 333.45 706.42 332.95 C 707.07 332.80 708.37 332.49 709.01 332.33 C 709.15 332.00 709.43 331.33 709.57 330.99 C 715.64 327.34 721.82 323.79 727.51 319.56 Z" />
<path fill="#f0ad24" d=" M 716.58 328.69 C 721.96 324.10 728.22 320.75 734.22 317.09 C 738.51 320.22 741.50 324.76 744.99 328.70 C 746.50 330.99 748.24 333.11 750.15 335.09 C 753.12 339.37 756.96 342.95 759.86 347.28 C 760.33 347.62 761.25 348.31 761.71 348.65 C 763.20 349.80 761.47 351.75 760.80 352.91 C 754.48 358.26 748.32 363.93 741.27 368.31 C 739.53 369.61 737.75 367.70 736.44 366.68 C 731.02 361.38 726.24 355.46 721.64 349.45 C 717.49 343.85 711.72 339.45 708.88 332.93 C 711.58 331.78 714.36 330.67 716.58 328.69 Z" />
<path fill="#f5f3ef" d=" M 744.99 328.70 C 746.86 330.70 748.62 332.81 750.15 335.09 C 748.24 333.11 746.50 330.99 744.99 328.70 Z" />
<path fill="#807d78" d=" M 366.28 333.79 C 366.72 334.07 367.59 334.62 368.02 334.90 L 367.21 335.26 C 366.98 334.89 366.51 334.16 366.28 333.79 Z" />
<path fill="#f0ad24" d=" M 707.81 334.95 C 708.74 336.04 709.62 337.17 710.43 338.36 C 709.81 338.39 708.57 338.43 707.95 338.46 C 706.90 337.31 706.85 336.14 707.81 334.95 Z" />
<path fill="#f5f3ef" d=" M 428.07 337.20 C 430.90 336.12 430.00 341.82 427.61 340.56 C 427.25 339.37 427.40 338.25 428.07 337.20 Z" />
<path fill="#060606" d=" M 672.47 376.67 C 684.03 367.98 692.55 356.05 703.00 346.19 C 703.41 346.49 704.24 347.09 704.66 347.39 C 694.72 355.85 686.68 366.27 676.79 374.79 C 674.97 376.32 673.34 378.30 670.90 378.80 C 671.34 378.03 671.87 377.32 672.47 376.67 Z" />
<path fill="#060606" d=" M 695.56 368.75 C 700.67 365.06 705.00 359.93 711.23 358.09 C 710.72 359.17 710.04 360.16 708.89 360.61 C 703.37 363.51 698.75 367.73 693.87 371.54 C 692.85 372.36 691.71 372.95 690.44 373.31 C 691.43 371.08 693.75 370.15 695.56 368.75 Z" />
<path fill="#f5f3ef" d=" M 414.52 359.97 C 414.88 360.14 415.59 360.47 415.95 360.64 C 414.83 361.80 414.35 361.57 414.52 359.97 Z" />
<path fill="#060606" d=" M 713.81 369.81 C 715.90 367.92 717.67 365.39 720.61 364.78 C 718.10 368.79 713.82 371.17 710.58 374.51 C 708.87 375.83 707.57 378.44 705.04 377.74 C 707.93 375.07 711.02 372.60 713.81 369.81 Z" />
<path fill="#060606" d=" M 487.53 384.73 C 490.84 383.37 493.60 386.73 496.90 386.57 C 513.92 387.05 530.96 386.66 547.99 386.85 C 553.66 387.24 559.35 387.47 565.04 387.45 C 576.40 387.22 587.68 388.72 599.01 389.20 C 612.34 389.43 625.69 388.86 639.02 389.59 C 651.62 389.75 664.23 389.66 676.84 389.57 C 676.26 402.87 676.03 416.19 675.54 429.50 C 675.82 429.47 676.40 429.40 676.68 429.37 C 676.08 429.85 675.48 430.33 674.90 430.83 C 674.55 434.72 674.12 438.61 673.69 442.50 C 672.68 452.35 673.56 462.26 673.14 472.12 C 672.55 476.73 667.20 479.08 662.99 478.58 C 657.31 477.93 651.61 477.47 645.94 476.76 C 620.65 475.66 595.30 477.23 570.04 475.44 C 560.36 475.21 550.70 474.71 541.08 473.74 C 526.69 473.56 512.32 472.42 497.92 472.94 C 493.59 473.08 489.20 473.59 484.90 472.90 C 480.31 472.41 478.43 467.04 478.61 463.04 C 479.01 452.10 481.86 441.42 482.95 430.55 C 483.41 426.28 483.75 422.00 484.09 417.72 C 484.77 408.16 484.74 398.56 484.54 388.98 C 484.37 387.06 486.03 385.60 487.53 384.73 Z" />
<path fill="#f5f3ef" d=" M 494.73 396.77 C 512.47 396.85 530.22 396.61 547.96 396.76 C 558.27 397.83 568.65 396.90 578.97 397.68 C 590.93 398.79 602.96 399.42 614.97 399.06 C 620.30 398.59 625.63 399.29 630.97 399.18 C 642.52 399.84 654.09 399.51 665.66 399.59 C 665.64 409.13 666.24 418.69 665.39 428.21 C 663.61 441.56 663.00 455.02 663.17 468.48 C 651.19 466.91 639.11 466.37 627.03 466.63 C 609.28 466.53 591.52 467.17 573.80 466.23 C 565.19 465.50 556.51 465.91 547.92 464.85 C 543.30 464.34 538.66 464.32 534.03 464.19 C 518.90 462.91 503.70 463.66 488.54 463.26 C 489.95 447.13 493.56 431.22 493.68 414.99 C 494.30 408.94 494.61 402.86 494.73 396.77 Z" />
<path fill="#060606" d=" M 526.51 421.66 C 532.51 419.35 539.21 426.04 536.73 431.97 C 535.08 438.36 525.40 439.51 522.18 433.83 C 519.17 429.60 521.58 423.08 526.51 421.66 Z" />
<path fill="#060606" d=" M 628.62 425.83 C 633.19 425.32 637.92 429.16 637.49 433.97 C 637.86 439.58 631.19 444.03 626.18 441.51 C 621.59 439.77 619.70 433.53 622.56 429.55 C 623.85 427.40 626.15 426.11 628.62 425.83 Z" />
<path fill="#060606" d=" M 599.72 425.10 C 602.61 427.79 606.07 429.67 609.38 431.76 C 609.57 432.30 609.95 433.37 610.14 433.91 C 606.70 435.53 603.67 438.26 599.80 438.78 C 599.42 437.00 599.10 435.25 598.77 433.48 C 587.52 433.28 576.25 433.70 565.01 433.24 C 558.83 432.37 552.49 432.91 546.45 431.16 C 546.35 430.42 546.15 428.95 546.05 428.22 C 563.39 431.31 581.05 430.41 598.58 430.59 C 598.60 428.69 598.97 426.84 599.72 425.10 Z" />
<path fill="#4d433b" d=" M 863.58 459.49 C 872.13 455.65 881.68 454.80 890.94 454.85 C 899.51 455.04 906.73 460.81 911.27 467.68 C 913.12 470.31 913.51 473.55 913.96 476.65 C 917.10 477.11 920.67 477.44 922.84 480.10 C 927.83 486.01 933.28 492.85 932.76 501.06 C 932.80 507.21 928.90 512.43 924.41 516.24 C 925.61 521.47 926.56 527.15 924.29 532.24 C 921.29 539.01 916.26 545.52 909.05 548.04 C 904.58 549.75 899.75 549.82 895.07 550.43 C 894.90 549.88 894.55 548.77 894.37 548.22 C 901.56 547.86 909.67 547.53 915.17 542.20 C 919.74 537.65 924.16 531.84 923.93 525.06 C 924.10 521.70 923.19 518.45 922.07 515.33 C 926.88 512.17 930.91 507.02 930.87 501.03 C 931.45 493.36 926.46 486.84 921.72 481.37 C 919.53 478.46 915.61 478.91 912.42 478.38 C 911.59 475.05 911.43 471.42 909.43 468.51 C 905.17 462.45 898.82 457.05 891.07 456.83 C 882.21 456.62 872.88 456.89 864.79 460.92 C 861.49 462.66 857.48 462.26 854.28 464.23 C 846.88 468.49 841.15 475.81 839.37 484.22 C 838.47 492.53 838.78 502.25 845.56 508.20 C 844.73 510.76 843.11 513.15 843.21 515.95 C 843.28 523.68 846.16 531.77 852.41 536.65 C 855.98 539.36 859.77 541.93 864.03 543.43 C 870.10 545.15 876.10 541.93 882.19 542.63 C 885.78 545.41 889.96 547.62 894.58 547.92 C 893.98 548.55 893.38 549.19 892.80 549.83 C 888.01 548.86 883.62 546.48 880.10 543.13 C 875.84 544.22 871.53 545.42 867.12 545.43 C 862.01 545.20 857.63 542.23 853.43 539.62 C 843.47 533.44 838.39 519.74 842.82 508.75 C 837.95 501.85 836.37 493.16 837.34 484.85 C 838.88 475.14 845.47 466.63 854.07 462.05 C 857.07 460.61 860.54 460.80 863.58 459.49 Z" />
<path fill="#060606" d=" M 961.10 459.11 C 969.75 456.19 978.97 454.44 988.11 455.49 C 993.53 456.35 999.38 459.11 1001.07 464.79 C 1004.26 461.69 1008.42 459.36 1012.98 459.38 C 1019.11 459.16 1026.47 456.56 1031.55 461.32 C 1035.15 464.43 1039.02 469.86 1036.24 474.63 L 1034.71 474.40 C 1034.52 471.02 1034.86 467.29 1032.37 464.62 C 1029.02 459.58 1022.38 459.18 1016.96 459.93 C 1013.72 460.52 1010.34 460.85 1007.42 462.46 C 1004.48 464.07 1002.53 466.90 999.89 468.90 C 998.53 465.80 998.24 461.75 994.81 460.12 C 988.75 455.64 980.94 456.15 973.85 456.76 C 964.12 458.74 953.41 461.91 947.67 470.68 C 945.07 474.03 947.99 478.91 945.00 482.05 C 941.53 485.58 941.73 490.92 942.84 495.39 C 944.70 500.24 947.02 504.94 950.35 508.95 C 950.35 511.38 948.68 513.48 948.62 515.92 C 948.33 522.63 952.51 528.52 956.99 533.11 C 958.74 535.13 961.56 534.77 963.97 534.78 C 967.37 534.65 970.86 534.73 974.17 533.76 C 975.79 534.42 977.72 534.64 978.90 536.11 C 981.38 538.82 984.56 540.67 987.57 542.72 C 986.96 542.67 985.74 542.56 985.13 542.51 C 981.25 541.37 978.49 538.06 975.98 535.07 C 971.80 537.78 966.67 536.20 962.04 536.44 C 959.23 536.71 956.59 535.39 954.82 533.26 C 950.84 528.58 946.79 523.30 946.41 516.93 C 946.21 514.50 947.44 512.31 947.82 509.98 C 943.94 503.94 940.38 497.32 939.96 489.99 C 939.15 485.82 941.86 482.24 944.01 478.96 C 944.65 476.15 944.02 473.00 945.65 470.45 C 949.36 465.09 954.64 460.65 961.10 459.11 Z" />
<path fill="#060606" d=" M 1039.36 476.41 C 1039.45 475.89 1039.64 474.86 1039.74 474.34 C 1043.36 474.86 1047.19 475.61 1050.02 478.15 C 1053.60 481.32 1057.98 484.27 1059.48 489.06 C 1060.01 492.35 1059.74 495.72 1059.67 499.05 C 1059.58 504.56 1056.30 509.51 1052.27 513.05 C 1056.03 518.17 1054.33 524.85 1052.06 530.21 C 1049.34 535.48 1044.75 540.25 1038.81 541.60 C 1032.28 543.42 1025.53 541.41 1019.36 539.24 C 1016.03 543.41 1011.58 547.24 1006.12 548.00 C 1007.09 547.16 1008.12 546.36 1009.14 545.57 C 1012.54 543.20 1015.64 540.45 1018.15 537.14 C 1020.98 536.85 1023.40 538.68 1026.05 539.37 C 1031.92 540.90 1038.71 541.50 1044.06 538.06 C 1051.88 532.73 1055.26 520.69 1049.39 512.78 C 1051.51 510.44 1054.43 508.74 1055.86 505.83 C 1058.27 500.90 1058.88 495.26 1058.25 489.86 C 1056.48 485.20 1052.07 482.49 1048.42 479.45 C 1045.87 477.32 1042.48 477.01 1039.36 476.41 Z" />
<path fill="#4d433b" d=" M 962.25 481.23 C 965.28 480.43 968.45 480.20 971.58 480.41 C 968.61 481.53 965.45 482.12 962.30 482.39 C 962.28 482.10 962.26 481.52 962.25 481.23 Z" />
<path fill="#4d433b" d=" M 861.85 487.15 C 861.85 484.98 861.90 482.82 862.03 480.66 C 862.40 481.53 863.14 483.26 863.51 484.12 C 862.94 485.12 862.42 486.15 861.85 487.15 Z" />
<path fill="#4d433b" d=" M 866.46 481.39 C 868.46 481.29 870.47 481.39 872.47 481.69 C 870.51 482.69 868.33 482.46 866.46 481.39 Z" />
<path fill="#807d78" d=" M 875.92 482.12 C 878.62 480.68 881.71 480.78 884.67 481.15 C 882.57 483.88 878.75 482.52 875.92 482.12 Z" />
<path fill="#4d433b" d=" M 956.30 481.31 C 956.68 481.30 957.43 481.28 957.80 481.27 C 957.67 482.96 957.52 484.66 957.30 486.35 C 956.89 484.68 956.59 482.99 956.30 481.31 Z" />
<path fill="#4d433b" d=" M 1004.07 482.30 C 1004.62 482.07 1005.72 481.59 1006.27 481.36 C 1005.13 484.18 1001.80 483.31 999.41 483.60 C 999.39 483.32 999.36 482.76 999.34 482.48 C 1000.91 482.42 1002.48 482.36 1004.07 482.30 Z" />
<path fill="#b7b6b2" d=" M 974.30 481.91 C 976.56 482.21 980.45 480.66 980.70 484.16 C 978.46 483.78 975.15 484.81 974.30 481.91 Z" />
<path fill="#807d78" d=" M 986.07 482.13 C 988.37 482.10 990.67 482.17 992.99 482.30 C 991.29 484.35 988.45 483.61 986.15 483.87 C 986.13 483.43 986.09 482.56 986.07 482.13 Z" />
<path fill="#4d433b" d=" M 889.25 483.23 C 890.95 483.31 892.66 483.40 894.38 483.58 C 892.71 484.02 891.01 484.35 889.34 484.70 C 889.32 484.33 889.27 483.60 889.25 483.23 Z" />
<path fill="#807d78" d=" M 1011.55 483.09 C 1013.86 482.85 1016.20 483.06 1018.37 484.02 C 1016.04 485.18 1013.50 484.65 1011.55 483.09 Z" />
<path fill="#4d433b" d=" M 1020.28 483.31 C 1022.30 483.29 1024.34 483.29 1026.38 483.48 C 1024.43 484.08 1022.40 484.32 1020.41 484.58 C 1020.38 484.26 1020.31 483.63 1020.28 483.31 Z" />
<path fill="#4d433b" d=" M 896.33 485.61 C 898.03 484.16 900.33 484.48 902.26 485.25 C 900.29 485.54 898.30 485.67 896.33 485.61 Z" />
<path fill="#f0ad24" d=" M 1015.03 485.26 C 1020.64 485.35 1026.66 486.95 1031.87 484.09 C 1031.73 484.78 1031.44 486.16 1031.30 486.85 C 1029.50 488.42 1031.60 491.71 1033.18 489.10 L 1033.23 489.04 C 1034.44 498.56 1032.68 508.17 1033.71 517.67 C 1032.69 517.81 1032.14 518.45 1032.06 519.57 C 1031.67 519.61 1030.89 519.71 1030.51 519.76 C 1028.05 519.83 1025.59 519.91 1023.16 520.15 C 1021.90 520.23 1020.67 520.32 1019.45 520.38 C 1017.06 520.44 1014.68 520.52 1012.32 520.60 C 1011.92 518.94 1011.63 517.27 1011.58 515.58 C 1011.57 513.50 1011.60 511.42 1011.64 509.35 C 1011.69 506.96 1011.75 504.58 1011.80 502.20 C 1011.88 499.53 1011.80 496.85 1011.66 494.19 C 1011.56 492.27 1011.30 490.37 1011.22 488.46 C 1011.23 488.22 1011.25 487.74 1011.26 487.50 C 1012.52 486.77 1013.77 486.03 1015.03 485.26 Z" />
<path fill="#4d433b" d=" M 863.98 484.61 C 867.02 486.78 869.17 489.94 871.04 493.12 C 867.83 491.13 865.67 487.92 863.98 484.61 Z" />
<path fill="#4d433b" d=" M 1010.19 485.21 C 1010.51 485.25 1011.14 485.33 1011.46 485.37 C 1011.41 485.90 1011.31 486.97 1011.26 487.50 C 1011.25 487.74 1011.23 488.22 1011.22 488.46 C 1011.04 488.93 1010.67 489.88 1010.49 490.36 C 1010.32 488.64 1010.25 486.92 1010.19 485.21 Z" />
<path fill="#4d433b" d=" M 903.38 492.73 C 903.14 490.31 903.23 487.81 904.37 485.62 C 904.54 488.02 904.63 490.57 903.38 492.73 Z" />
<path fill="#cb4d0b" d=" M 1033.18 489.10 C 1031.60 491.71 1029.50 488.42 1031.30 486.85 C 1031.73 487.14 1032.58 487.72 1033.01 488.01 L 1033.18 489.10 Z" />
<path fill="#4d433b" d=" M 985.69 492.30 C 983.95 492.18 984.07 489.16 985.75 489.04 C 987.42 489.17 987.20 492.05 985.69 492.30 Z" />
<path fill="#807d78" d=" M 862.52 489.46 C 864.44 491.54 864.74 494.90 862.33 496.77 C 862.23 494.32 862.27 491.88 862.52 489.46 Z" />
<path fill="#4d433b" d=" M 896.50 493.34 C 898.01 492.12 899.54 490.90 901.21 489.87 C 900.09 491.67 898.62 493.21 897.12 494.69 C 896.97 494.36 896.65 493.68 896.50 493.34 Z" />
<path fill="#4d433b" d=" M 957.32 491.36 C 958.73 492.73 958.39 494.66 957.78 496.32 C 957.53 494.67 957.38 493.01 957.32 491.36 Z" />
<path fill="#807d78" d=" M 1010.62 502.84 C 1009.91 500.00 1009.57 496.55 1011.66 494.19 C 1011.80 496.85 1011.88 499.53 1011.80 502.20 L 1010.62 502.84 Z" />
<path fill="#cb4d0b" d=" M 1031.00 494.12 C 1033.56 495.45 1033.54 499.92 1031.21 501.57 C 1031.00 499.09 1030.96 496.60 1031.00 494.12 Z" />
<path fill="#4d433b" d=" M 877.15 496.76 C 879.19 497.28 880.32 498.98 880.79 500.94 C 879.47 499.63 878.25 498.24 877.15 496.76 Z" />
<path fill="#4d433b" d=" M 884.70 504.15 C 886.31 501.21 888.75 498.77 891.68 497.15 C 889.82 499.90 887.55 502.40 884.70 504.15 Z" />
<path fill="#4d433b" d=" M 905.39 503.51 C 904.44 501.23 904.26 498.60 905.45 496.37 C 905.75 498.74 905.72 501.14 905.39 503.51 Z" />
<path fill="#4d433b" d=" M 985.64 498.50 C 986.64 501.01 986.40 503.79 985.46 506.29 C 985.14 503.69 985.19 501.07 985.64 498.50 Z" />
<path fill="#4d433b" d=" M 862.52 500.29 C 863.67 502.28 863.61 504.63 862.56 506.65 C 862.31 504.53 862.29 502.40 862.52 500.29 Z" />
<path fill="#807d78" d=" M 958.08 502.52 C 959.48 502.28 959.75 504.68 958.75 505.32 C 957.35 505.54 957.06 503.14 958.08 502.52 Z" />
<path fill="#4d433b" d=" M 1032.32 512.36 C 1031.42 510.11 1031.52 507.65 1032.68 505.51 C 1032.78 507.80 1032.65 510.09 1032.32 512.36 Z" />
<path fill="#cb4d0b" d=" M 870.78 517.67 C 875.71 513.63 878.97 505.66 886.48 506.52 C 886.53 508.12 887.03 508.29 887.97 507.02 C 888.90 507.69 889.83 508.36 890.79 509.03 C 890.64 509.51 890.33 510.46 890.18 510.94 C 892.77 514.06 896.66 515.44 899.64 518.07 C 899.49 518.52 899.20 519.42 899.05 519.87 C 899.56 520.24 900.59 520.98 901.10 521.35 C 901.60 522.31 902.04 523.31 902.52 524.32 C 900.20 524.38 897.93 524.48 895.64 524.68 C 893.08 524.87 890.52 525.44 887.97 524.96 C 880.61 523.83 873.13 524.58 865.78 523.51 C 865.73 523.00 865.65 521.97 865.61 521.46 C 866.76 520.02 867.91 518.58 869.06 517.14 C 869.49 517.27 870.35 517.54 870.78 517.67 Z" />
<path fill="#4d433b" d=" M 886.48 506.52 C 886.85 506.64 887.60 506.90 887.97 507.02 C 887.03 508.29 886.53 508.12 886.48 506.52 Z" />
<path fill="#4d433b" d=" M 904.54 507.43 C 905.95 509.18 905.35 511.44 904.52 513.29 C 904.37 511.34 904.38 509.38 904.54 507.43 Z" />
<path fill="#b7b6b2" d=" M 958.29 510.16 C 959.80 508.94 961.14 511.70 959.84 512.68 C 958.31 513.87 956.95 511.12 958.29 510.16 Z" />
<path fill="#4d433b" d=" M 1011.58 515.58 C 1010.02 513.79 1010.47 511.20 1011.64 509.35 C 1011.60 511.42 1011.57 513.50 1011.58 515.58 Z" />
<path fill="#4d433b" d=" M 861.48 510.59 C 862.79 511.80 863.33 513.48 863.48 515.22 C 861.92 514.18 861.67 512.29 861.48 510.59 Z" />
<path fill="#807d78" d=" M 985.95 518.32 C 984.88 515.73 985.05 512.87 986.66 510.56 C 987.10 513.17 987.08 515.87 985.95 518.32 Z" />
<path fill="#4d433b" d=" M 262.98 514.12 C 263.28 513.81 263.88 513.19 264.18 512.88 C 265.22 521.19 265.20 529.61 266.59 537.90 C 265.24 537.09 263.82 536.37 262.63 535.35 C 260.84 531.32 260.03 526.91 257.95 522.99 C 257.28 521.35 255.81 519.83 256.34 517.95 C 260.47 521.90 261.52 527.98 263.72 533.08 C 263.86 526.74 263.32 520.42 262.98 514.12 Z" />
<path fill="#4d433b" d=" M 862.27 521.68 C 862.61 520.35 862.99 519.03 863.23 517.68 C 863.44 519.05 863.66 520.42 863.90 521.81 C 863.49 521.78 862.67 521.71 862.27 521.68 Z" />
<path fill="#4d433b" d=" M 901.10 521.35 C 902.12 520.21 903.18 519.11 904.24 518.00 C 904.15 518.98 904.07 519.98 904.00 520.97 C 903.38 522.42 902.81 523.88 902.32 525.38 C 900.08 525.33 897.66 525.91 895.64 524.68 C 897.93 524.48 900.20 524.38 902.52 524.32 C 902.04 523.31 901.60 522.31 901.10 521.35 Z" />
<path fill="#4d433b" d=" M 1032.06 519.57 C 1032.14 518.45 1032.69 517.81 1033.71 517.67 C 1034.34 519.21 1033.79 519.85 1032.06 519.57 Z" />
<path fill="#4d433b" d=" M 958.72 519.65 C 960.29 519.59 961.89 519.84 963.35 520.48 C 961.72 520.65 960.15 520.41 958.72 519.65 Z" />
<path fill="#4d433b" d=" M 968.47 520.32 C 970.47 519.62 972.60 519.53 974.72 519.42 C 974.73 519.75 974.76 520.43 974.77 520.77 C 972.66 520.70 970.55 520.60 968.47 520.32 Z" />
<path fill="#4d433b" d=" M 981.18 519.46 C 982.32 519.53 983.47 519.61 984.63 519.69 C 984.63 519.94 984.62 520.43 984.62 520.68 C 983.45 520.67 982.30 520.66 981.16 520.66 C 981.16 520.36 981.18 519.76 981.18 519.46 Z" />
<path fill="#4d433b" d=" M 993.10 520.26 C 993.20 518.56 996.09 518.77 996.33 520.31 C 996.23 522.05 993.21 521.93 993.10 520.26 Z" />
<path fill="#4d433b" d=" M 1023.16 520.15 C 1025.59 519.91 1028.05 519.83 1030.51 519.76 C 1028.26 521.19 1025.56 520.94 1023.16 520.15 Z" />
<path fill="#4d433b" d=" M 1001.33 520.74 C 1004.02 520.04 1006.79 519.68 1009.59 519.81 C 1007.36 522.09 1004.07 521.43 1001.33 520.74 Z" />
<path fill="#4d433b" d=" M 1012.32 520.60 C 1014.68 520.52 1017.06 520.44 1019.45 520.38 C 1017.47 522.23 1014.53 521.60 1012.32 520.60 Z" />
<path fill="#060606" d=" M 270.91 525.95 C 271.47 524.72 272.05 523.51 272.77 522.38 C 272.56 527.18 270.35 531.62 270.13 536.43 C 269.69 536.46 268.82 536.51 268.38 536.53 C 268.79 532.91 270.07 529.48 270.91 525.95 Z" />
<path fill="#4d433b" d=" M 887.61 523.28 C 888.61 522.40 890.41 522.39 891.44 523.26 C 891.36 524.76 887.67 524.79 887.61 523.28 Z" />
<path fill="#4d433b" d=" M 927.72 531.42 C 928.62 524.78 938.59 523.67 942.24 528.43 C 943.48 535.66 936.99 545.32 928.90 543.44 C 928.56 542.85 927.88 541.66 927.54 541.06 C 928.60 537.00 929.66 532.66 932.79 529.64 C 931.42 533.86 928.79 537.82 929.21 542.45 C 936.33 543.27 941.23 535.34 940.79 528.98 C 938.61 527.30 935.64 527.05 933.05 527.64 C 931.10 528.66 929.53 530.21 927.72 531.42 Z" />
<path fill="#060606" d=" M 291.56 526.86 C 291.79 526.70 292.23 526.37 292.45 526.21 C 294.36 531.59 295.10 537.31 297.08 542.67 C 297.85 538.11 296.81 533.61 296.26 529.12 L 297.21 528.11 C 298.45 535.57 298.91 543.25 298.35 550.80 C 294.07 543.46 294.58 534.64 291.56 526.86 Z" />
<path fill="#060606" d=" M 304.81 532.88 C 306.03 530.53 306.35 527.41 308.82 525.97 C 307.65 529.32 306.11 532.54 304.78 535.83 C 302.82 540.72 301.23 545.79 301.17 551.11 C 300.73 551.30 299.85 551.67 299.41 551.86 C 299.16 545.12 302.42 538.99 304.81 532.88 Z" />
<path fill="#060606" d=" M 109.65 533.69 C 117.07 532.44 124.60 532.61 132.07 532.08 C 140.04 530.98 147.98 532.53 155.87 533.49 C 163.40 534.49 170.97 533.00 178.53 533.50 C 179.38 537.58 177.76 541.53 177.13 545.51 C 175.78 551.94 176.61 558.54 176.12 565.04 C 175.82 567.36 175.23 571.02 172.08 570.71 C 156.08 571.02 140.06 569.96 124.07 570.74 C 119.28 570.92 114.67 572.44 109.90 572.77 C 108.28 573.02 107.56 571.29 107.56 569.96 C 107.45 565.94 108.39 562.01 108.92 558.05 C 110.28 549.98 108.81 541.79 109.65 533.69 Z" />
<path fill="#f0ad24" d=" M 111.75 535.67 C 126.05 532.13 141.11 532.63 155.54 535.17 C 162.58 535.99 169.69 535.82 176.77 535.75 C 176.88 542.60 174.73 549.18 174.15 555.96 C 173.68 560.04 173.86 564.17 173.28 568.25 C 156.23 569.46 139.08 569.68 122.01 568.83 C 117.83 568.88 113.74 569.80 109.64 570.53 C 108.58 563.66 110.33 556.85 110.41 550.00 C 110.51 545.19 111.34 540.45 111.75 535.67 Z" />
<path fill="#060606" d=" M 242.89 536.45 C 248.98 536.97 255.65 535.99 261.21 538.95 C 262.12 547.56 261.28 556.35 261.20 565.02 C 260.94 566.86 261.24 569.49 259.22 570.42 C 252.62 570.47 246.03 569.91 239.48 569.23 C 238.86 566.42 239.84 563.69 240.43 560.98 C 241.45 552.81 243.23 544.73 242.89 536.45 Z" />
<path fill="#f0ad24" d=" M 244.80 538.48 C 249.69 538.63 254.71 538.65 259.33 540.47 C 258.77 549.57 259.91 558.71 258.99 567.79 C 253.15 567.90 247.31 567.75 241.49 567.20 C 244.46 557.87 242.84 547.98 244.80 538.48 Z" />
<path fill="#060606" d=" M 272.45 540.28 C 279.51 541.17 287.07 538.79 293.78 541.65 C 293.87 547.44 293.73 553.23 294.18 559.02 C 294.02 563.08 294.93 567.38 293.34 571.26 C 291.27 572.86 288.44 572.25 286.01 572.44 C 281.13 572.15 276.11 573.01 271.39 571.42 C 271.27 567.66 271.75 563.92 272.20 560.20 C 272.90 553.57 271.85 546.91 272.45 540.28 Z" />
<path fill="#060606" d=" M 305.59 540.65 C 311.40 540.36 317.20 538.88 323.02 539.78 C 323.92 540.25 325.34 540.80 325.33 542.04 C 325.72 549.10 325.35 556.25 326.83 563.20 C 327.33 566.24 328.45 569.45 327.40 572.49 C 324.07 575.55 319.02 573.92 314.94 574.37 C 311.22 574.15 306.24 575.61 303.72 572.03 C 303.47 566.97 305.77 562.13 305.34 557.04 C 305.72 551.56 304.19 546.04 305.59 540.65 Z" />
<path fill="#f0ad24" d=" M 274.59 542.16 C 280.11 541.37 285.69 542.01 291.19 542.69 C 292.20 547.01 291.26 551.53 291.89 555.92 C 292.53 560.51 292.27 565.16 291.56 569.73 C 285.53 569.60 279.50 569.59 273.48 569.92 C 273.83 560.67 272.72 551.31 274.59 542.16 Z" />
<path fill="#f0ad24" d=" M 306.68 542.77 C 312.02 542.54 317.45 540.74 322.75 542.22 C 323.85 548.89 322.96 555.75 324.27 562.41 C 324.85 565.39 325.40 568.38 325.63 571.42 C 319.15 572.15 312.60 571.90 306.09 571.74 C 306.55 562.08 306.21 552.42 306.68 542.77 Z" />
<path fill="#4d433b" d=" M 987.57 542.72 C 994.41 545.36 1001.82 546.47 1009.14 545.57 C 1008.12 546.36 1007.09 547.16 1006.12 548.00 C 998.99 547.25 991.04 547.13 985.13 542.51 C 985.74 542.56 986.96 542.67 987.57 542.72 Z" />
<path fill="#060606" d=" M 1022.33 546.44 C 1025.62 544.77 1029.56 545.32 1033.08 545.91 C 1036.30 546.72 1040.26 549.22 1039.56 553.08 C 1039.64 556.10 1037.26 559.06 1034.07 558.78 C 1030.54 558.73 1026.04 559.67 1023.54 556.51 C 1022.24 554.45 1021.08 552.28 1020.15 550.04 C 1020.24 548.58 1021.08 547.20 1022.33 546.44 Z" />
<path fill="#060606" d=" M 222.75 547.03 C 225.22 547.68 227.59 548.79 229.68 550.26 C 229.69 551.20 229.68 552.14 229.62 553.09 C 226.95 554.08 224.23 554.98 221.45 555.65 C 221.40 554.88 221.30 553.34 221.26 552.57 C 217.15 552.42 213.02 552.45 208.96 553.22 C 201.55 553.71 194.11 553.13 186.69 553.39 C 186.33 552.99 185.61 552.18 185.25 551.78 C 190.79 550.17 196.36 552.73 201.96 552.39 C 208.58 552.79 215.12 551.53 221.69 550.98 C 222.04 549.66 222.40 548.34 222.75 547.03 Z" />
<path fill="#f5f3ef" d=" M 1022.21 549.04 C 1026.46 546.58 1032.06 547.04 1036.01 549.89 C 1038.65 551.58 1037.38 556.74 1034.04 556.49 C 1031.03 556.48 1027.44 557.08 1025.07 554.81 C 1023.86 553.74 1024.51 551.85 1024.20 550.49 C 1023.52 550.00 1022.86 549.52 1022.21 549.04 Z" />
<path fill="#4d433b" d=" M 928.47 549.77 C 931.53 549.37 935.90 549.61 937.37 552.86 C 936.96 558.45 930.06 562.55 924.96 560.14 C 921.98 556.82 924.53 551.00 928.47 549.77 Z" />
<path fill="#f5f3ef" d=" M 927.69 551.64 C 930.35 550.47 933.34 551.50 935.99 552.25 C 935.81 557.49 930.04 560.71 925.25 559.59 C 925.19 556.79 925.47 553.63 927.69 551.64 Z" />
<path fill="#4d433b" d=" M 266.42 554.49 C 269.25 553.44 269.71 558.96 266.99 558.53 C 264.39 559.31 263.70 554.45 266.42 554.49 Z" />
<path fill="#4d433b" d=" M 296.58 556.94 C 297.10 555.15 298.15 553.79 300.16 554.73 C 300.96 555.87 300.51 557.36 300.63 558.66 C 299.15 558.43 297.41 558.46 296.58 556.94 Z" />
<path fill="#060606" d=" M 1004.71 562.72 C 1008.27 561.26 1012.61 560.94 1016.02 562.98 C 1018.51 564.60 1017.92 568.05 1017.34 570.50 C 1015.82 573.42 1013.56 576.59 1010.11 577.23 C 1007.40 577.19 1003.58 576.22 1003.22 573.01 C 1003.01 569.53 1003.17 565.91 1004.71 562.72 Z" />
<path fill="#4d433b" d=" M 917.45 564.64 C 919.72 564.23 922.27 564.41 924.17 565.90 C 924.94 569.07 923.24 572.71 920.50 574.42 C 918.39 574.93 916.00 574.91 914.00 574.03 C 912.26 570.79 913.47 565.61 917.45 564.64 Z" />
<path fill="#f5f3ef" d=" M 1006.42 564.37 C 1009.42 563.91 1013.32 563.32 1015.58 565.88 C 1016.05 569.25 1014.16 572.48 1011.47 574.39 C 1009.43 575.36 1007.18 574.33 1005.38 573.34 C 1005.32 570.31 1005.48 567.26 1006.42 564.37 Z" />
<path fill="#4d433b" d=" M 954.71 565.59 C 955.13 565.51 955.99 565.36 956.42 565.28 C 955.66 579.88 954.54 594.93 958.77 609.14 C 960.55 609.78 962.33 610.47 964.12 611.14 C 964.61 609.72 965.10 608.29 965.61 606.87 C 963.72 604.62 961.43 602.21 961.51 599.06 C 961.21 593.83 962.43 587.70 967.13 584.66 C 965.14 588.22 962.66 591.75 962.76 596.02 C 962.56 599.27 963.14 604.39 967.16 604.91 C 971.04 601.26 973.72 595.47 972.08 590.17 C 970.49 589.03 968.74 588.18 967.12 587.11 C 969.82 586.93 973.27 587.80 973.92 590.86 C 974.79 597.04 971.55 603.30 966.72 607.10 C 966.17 608.73 965.62 610.36 965.11 612.02 C 967.81 613.53 971.02 616.89 974.17 614.39 C 984.49 606.84 990.87 595.09 994.45 583.03 C 995.28 580.78 995.31 577.87 997.77 576.68 C 997.56 581.89 995.26 586.66 993.44 591.45 C 989.76 600.58 983.62 608.67 975.85 614.69 C 974.04 616.10 971.67 616.21 969.52 616.64 C 968.15 620.20 966.79 623.76 965.42 627.33 C 962.80 634.24 963.69 641.76 963.48 648.99 C 963.28 653.65 964.19 658.42 962.90 662.99 C 960.65 673.14 959.42 683.53 960.41 693.93 C 958.87 697.06 958.07 700.52 956.34 703.56 C 955.68 699.05 959.43 695.36 958.66 690.90 C 957.79 679.56 960.35 668.34 963.10 657.42 C 958.85 656.84 954.44 657.03 950.34 655.73 C 948.50 640.80 951.33 625.23 958.65 612.06 C 957.32 607.53 955.51 603.11 955.00 598.39 C 953.79 587.50 953.50 576.49 954.71 565.59 Z" />
<path fill="#f5f3ef" d=" M 915.77 566.69 C 918.30 565.74 920.96 565.86 923.53 566.66 C 922.89 568.56 922.46 570.59 921.30 572.27 C 919.75 574.59 916.55 573.14 914.29 573.44 C 914.28 571.09 914.93 568.85 915.77 566.69 Z" />
<path fill="#4d433b" d=" M 894.54 578.97 C 894.56 574.72 893.63 569.50 897.21 566.33 C 894.43 578.96 896.94 592.39 903.87 603.27 C 906.44 603.93 909.01 604.62 911.64 605.08 C 912.08 603.47 912.52 601.86 912.94 600.24 C 911.28 599.00 909.11 598.04 908.35 595.98 C 907.64 591.16 909.35 586.15 912.38 582.41 C 912.96 582.12 914.12 581.53 914.71 581.24 C 912.37 585.74 908.67 590.54 910.25 595.90 C 912.17 599.04 918.59 600.32 920.24 596.22 C 921.68 593.52 922.02 590.33 921.52 587.35 C 920.74 584.07 916.93 583.39 914.82 581.27 C 918.98 580.79 923.03 583.85 923.39 588.07 C 923.65 591.90 923.11 596.32 920.14 599.07 C 918.81 600.63 916.60 600.18 914.82 600.54 C 914.25 602.41 913.70 604.30 913.17 606.20 C 915.26 606.62 917.34 607.04 919.45 607.49 C 927.33 601.81 932.73 593.48 937.00 584.92 C 939.14 580.71 939.28 575.54 942.45 571.90 C 941.40 582.53 935.61 591.89 929.12 600.08 C 926.33 603.37 922.75 605.86 919.83 609.01 C 919.18 612.46 918.66 615.97 917.24 619.22 C 913.01 629.94 914.20 641.71 911.32 652.73 C 905.77 652.04 900.21 651.47 894.63 651.27 C 895.07 664.39 893.15 677.39 892.24 690.45 C 889.96 690.68 887.66 690.80 885.39 690.59 C 887.04 689.59 888.96 689.39 890.83 689.08 C 891.50 676.71 893.57 664.45 893.71 652.05 C 897.58 642.77 898.06 632.54 900.42 622.85 C 901.69 617.21 902.60 611.47 904.36 605.96 C 898.97 597.94 894.74 588.78 894.54 578.97 Z" />
<path fill="#cb4d0b" d=" M 273.48 569.92 C 279.50 569.59 285.53 569.60 291.56 569.73 C 285.58 570.50 279.47 570.63 273.48 569.92 Z" />
<path fill="#060606" d=" M 392.77 568.98 C 393.36 569.88 393.96 570.79 394.57 571.70 C 396.52 576.61 396.51 581.95 397.06 587.14 C 400.78 582.91 404.49 578.69 408.01 574.30 C 405.10 573.39 402.17 572.51 399.21 571.79 C 397.37 571.26 395.41 571.05 393.77 569.98 C 398.15 568.15 402.49 571.20 406.92 571.45 C 409.30 571.35 409.24 574.08 409.76 575.73 C 408.00 577.93 406.33 580.19 404.63 582.45 C 410.68 581.31 416.73 579.88 422.93 580.27 C 433.45 580.65 443.97 579.98 454.48 580.47 C 454.47 580.97 454.44 581.96 454.43 582.46 C 445.27 582.67 436.14 581.03 426.99 582.09 C 419.18 582.21 411.11 581.53 403.81 584.96 C 405.99 586.67 408.31 588.37 411.06 589.03 C 416.95 590.68 423.06 588.96 429.06 589.35 C 434.72 589.67 440.27 588.17 445.93 588.22 C 452.20 588.30 458.46 587.78 464.73 587.72 C 464.58 588.31 464.26 589.50 464.11 590.09 C 454.77 590.57 445.37 589.86 436.04 590.80 C 430.02 591.60 423.94 591.03 417.91 591.65 C 411.81 592.21 405.79 589.86 401.26 585.85 C 399.49 587.86 398.18 590.80 395.00 590.48 C 390.04 594.00 386.12 598.73 381.15 602.22 C 381.36 602.65 381.78 603.52 381.99 603.96 C 381.05 613.42 380.96 622.97 381.39 632.46 C 381.48 636.59 383.95 641.00 382.09 644.98 C 379.03 647.04 375.30 647.76 371.80 648.73 C 371.20 653.78 370.38 658.80 369.92 663.86 C 369.54 669.25 368.14 674.55 368.51 679.98 C 368.04 684.05 373.89 685.83 372.54 690.01 C 370.16 688.06 367.98 685.76 366.57 683.01 C 364.54 673.17 369.56 663.78 369.55 653.98 C 369.96 648.64 368.62 643.38 368.80 638.04 C 368.80 627.72 370.87 617.16 368.28 607.00 C 369.64 605.99 371.00 604.98 372.37 603.99 C 371.85 602.29 371.61 600.54 371.52 598.78 C 367.68 597.94 363.49 595.99 362.03 592.06 C 361.52 589.69 361.60 587.23 360.85 584.92 C 361.14 583.78 361.44 582.65 361.74 581.52 C 367.90 579.21 376.48 582.15 378.15 588.97 C 378.54 592.79 376.75 596.69 373.75 599.05 C 373.79 600.00 373.87 601.91 373.91 602.86 C 375.30 601.79 376.69 600.73 378.05 599.63 C 379.67 595.11 384.16 592.34 386.17 587.96 C 387.96 583.95 390.97 580.75 393.50 577.24 C 393.23 574.48 392.43 571.77 392.77 568.98 Z" />
<path fill="#060606" d=" M 298.92 572.23 C 299.22 572.30 299.83 572.43 300.13 572.49 C 301.46 579.83 305.83 586.07 309.82 592.20 C 310.12 592.73 310.71 593.78 311.01 594.31 C 309.16 593.47 308.14 591.72 307.12 590.09 C 304.16 585.23 300.82 580.53 298.97 575.10 C 298.35 575.80 297.74 576.51 297.13 577.22 C 297.03 581.21 297.45 585.19 297.74 589.18 C 298.18 590.29 298.61 591.42 299.02 592.56 C 298.50 592.52 297.45 592.45 296.92 592.42 C 296.79 588.08 296.15 583.77 295.21 579.54 C 292.54 586.01 289.65 593.03 283.82 597.30 C 285.07 594.79 287.13 592.84 288.60 590.47 C 291.14 586.61 292.69 582.20 293.64 577.70 C 294.41 577.05 295.20 576.42 296.00 575.81 C 297.76 575.43 298.51 573.81 298.92 572.23 Z" />
<path fill="#cb4d0b" d=" M 394.57 571.70 C 396.12 571.67 397.66 571.70 399.21 571.79 C 402.17 572.51 405.10 573.39 408.01 574.30 C 404.49 578.69 400.78 582.91 397.06 587.14 C 396.51 581.95 396.52 576.61 394.57 571.70 Z" />
<path fill="#060606" d=" M 981.49 572.71 C 983.73 572.55 986.36 572.01 988.10 573.88 C 989.92 576.41 988.93 579.67 988.22 582.42 C 987.16 586.45 980.34 584.90 980.54 581.03 C 980.96 578.26 981.83 575.54 981.49 572.71 Z" />
<path fill="#060606" d=" M 255.24 584.07 C 257.72 580.86 259.79 577.27 262.95 574.66 C 263.29 577.28 261.04 578.81 259.59 580.60 C 256.10 584.85 252.62 589.12 249.20 593.43 C 248.49 594.32 247.59 594.98 246.50 595.40 C 248.93 591.29 252.58 588.04 255.24 584.07 Z" />
<path fill="#f5f3ef" d=" M 985.19 575.09 C 988.19 576.05 985.94 580.64 985.40 582.87 C 981.41 581.97 983.50 577.28 985.19 575.09 Z" />
<path fill="#060606" d=" M 266.72 576.04 C 267.07 576.17 267.79 576.44 268.15 576.57 C 270.11 581.42 271.76 586.46 274.69 590.85 C 273.68 591.07 272.94 590.77 272.49 589.95 C 270.84 586.68 269.27 583.36 267.84 580.00 C 265.10 583.49 266.34 588.23 264.42 592.01 C 264.79 588.33 263.27 583.73 266.06 580.75 C 267.35 579.57 267.13 577.52 266.72 576.04 Z" />
<path fill="#f5f3ef" d=" M 388.53 588.59 C 390.03 585.77 391.66 582.97 394.10 580.85 C 394.20 583.56 395.75 587.17 392.97 589.06 C 389.15 592.19 385.70 595.76 381.83 598.83 C 383.00 594.80 386.57 592.19 388.53 588.59 Z" />
<path fill="#f5f3ef" d=" M 363.52 583.13 C 367.89 582.82 372.79 583.90 375.33 587.80 C 376.56 590.97 375.11 594.28 373.11 596.76 C 369.98 595.96 366.28 595.18 364.54 592.13 C 363.57 589.24 363.56 586.14 363.52 583.13 Z" />
<path fill="#4d433b" d=" M 410.37 583.59 C 411.30 583.56 413.14 583.51 414.06 583.49 C 414.48 584.19 415.31 585.58 415.73 586.28 C 414.41 587.82 412.81 589.31 410.63 588.33 C 410.39 586.75 410.31 585.17 410.37 583.59 Z" />
<path fill="#060606" d=" M 830.15 603.20 C 834.20 597.73 838.12 592.08 843.01 587.32 C 848.13 590.43 848.56 597.21 850.77 602.19 C 853.22 602.43 855.72 602.17 858.16 602.66 C 861.42 605.23 857.54 610.63 854.05 610.61 C 845.35 610.77 836.65 610.63 827.95 610.66 C 822.15 610.41 816.44 612.36 810.63 611.51 C 812.31 610.65 814.17 610.41 816.05 610.37 C 828.99 608.46 842.12 609.95 855.13 609.27 C 856.92 608.25 857.73 606.28 858.79 604.62 C 857.25 603.97 855.68 603.34 853.99 603.49 C 845.30 603.44 836.58 603.30 827.94 604.34 C 823.38 604.46 818.97 606.25 814.38 605.63 C 819.40 603.76 824.81 603.13 830.15 603.20 Z" />
<path fill="#807d78" d=" M 843.16 589.20 C 843.28 589.23 843.51 589.29 843.63 589.32 L 843.16 589.20 Z" />
<path fill="#cb4d0b" d=" M 832.48 602.44 C 835.61 597.73 838.67 592.74 843.16 589.20 L 843.63 589.32 C 846.58 592.29 847.41 596.57 848.86 600.35 C 843.42 601.21 837.98 602.06 832.48 602.44 Z" />
<path fill="#f5f3ef" d=" M 369.70 608.74 C 371.64 606.84 373.84 605.22 376.15 603.82 C 374.43 605.96 372.30 607.78 369.70 608.74 Z" />
<path fill="#060606" d=" M 431.60 604.59 C 436.28 603.93 441.08 604.44 445.62 605.69 C 447.84 606.37 448.12 609.05 448.17 611.02 C 448.16 616.41 447.74 621.80 447.62 627.20 C 447.09 627.48 446.04 628.04 445.52 628.32 C 444.73 621.57 447.81 614.53 445.11 608.05 C 441.37 606.83 437.40 606.71 433.52 606.40 C 433.30 611.27 432.94 616.15 431.84 620.91 C 431.62 621.93 431.18 623.98 430.95 625.00 C 430.44 624.23 429.94 623.47 429.45 622.71 C 431.73 616.89 429.92 610.51 431.60 604.59 Z" />
<path fill="#060606" d=" M 520.43 604.78 C 526.89 602.95 533.73 609.51 532.12 616.05 C 531.05 622.33 522.99 625.96 517.68 622.34 C 512.73 619.63 511.68 612.39 515.13 608.11 C 516.50 606.49 518.42 605.40 520.43 604.78 Z" />
<path fill="#f5f3ef" d=" M 370.86 610.78 C 374.18 608.90 377.47 606.84 379.61 603.53 C 380.65 611.63 380.36 619.83 380.21 627.98 C 379.17 633.08 379.92 638.23 380.58 643.32 C 377.72 644.86 374.63 645.84 371.53 646.72 C 371.77 634.72 370.04 622.77 370.86 610.78 Z" />
<path fill="#060606" d=" M 671.39 605.67 C 678.31 601.77 687.70 608.29 686.58 616.13 C 686.45 624.32 675.54 628.97 669.42 623.64 C 663.25 619.22 664.35 608.58 671.39 605.67 Z" />
<path fill="#4d433b" d=" M 852.04 605.55 C 855.38 605.88 850.32 608.42 852.04 605.55 Z" />
<path fill="#f5f3ef" d=" M 905.75 605.18 C 907.30 605.42 908.83 605.63 910.41 605.84 C 910.47 606.63 910.59 608.20 910.65 608.98 C 911.41 608.38 912.17 607.78 912.94 607.19 C 914.74 607.66 916.58 608.08 918.33 608.77 C 918.64 614.22 915.37 618.88 914.28 624.05 C 911.71 632.96 912.10 642.32 910.31 651.36 C 905.64 650.66 900.94 650.25 896.24 650.10 C 899.42 637.82 901.47 625.30 904.60 613.02 C 905.16 610.43 905.52 607.81 905.75 605.18 Z" />
<path fill="#f0ad24" d=" M 431.84 620.91 C 432.94 616.15 433.30 611.27 433.52 606.40 C 437.40 606.71 441.37 606.83 445.11 608.05 C 447.81 614.53 444.73 621.57 445.52 628.32 L 445.53 629.37 C 440.69 629.12 435.86 628.59 431.01 628.84 C 431.23 626.19 431.41 623.53 431.84 620.91 Z" />
<path fill="#060606" d=" M 640.22 614.59 C 640.60 612.72 641.49 610.71 643.80 611.25 C 646.74 612.50 649.87 613.59 652.22 615.87 C 648.93 618.82 644.58 619.93 640.35 620.70 C 640.31 619.81 640.22 618.04 640.18 617.15 C 636.13 616.63 632.04 616.86 627.98 616.82 C 601.68 615.58 575.35 616.79 549.03 616.70 C 545.94 616.61 542.79 616.93 539.75 616.26 L 539.44 614.64 C 553.60 613.99 567.83 615.16 581.99 613.90 C 595.65 614.68 609.35 613.72 623.03 614.30 C 628.74 614.76 634.48 614.51 640.22 614.59 Z" />
<path fill="#f5f3ef" d=" M 960.96 611.09 C 963.56 612.50 966.14 613.97 968.61 615.64 C 966.89 620.45 964.50 625.01 963.06 629.91 C 961.02 638.38 961.88 647.16 961.66 655.79 C 958.27 655.53 954.89 655.21 951.55 654.61 C 951.71 646.56 951.25 638.40 953.31 630.53 C 954.42 623.56 956.93 616.89 960.96 611.09 Z" />
<path fill="#4d433b" d=" M 250.78 622.09 C 250.72 619.75 248.53 616.89 250.97 615.09 C 252.93 622.26 253.44 629.75 253.91 637.14 C 252.80 636.24 251.76 635.26 250.71 634.30 C 247.71 633.14 245.95 630.36 243.93 628.03 C 242.09 625.77 239.85 623.69 238.95 620.83 C 243.72 623.67 246.11 629.21 250.85 632.14 C 252.22 629.31 251.19 625.35 250.78 622.09 Z" />
<path fill="#060606" d=" M 290.25 634.17 C 292.30 629.69 294.04 625.07 296.37 620.73 C 296.65 621.92 296.52 623.05 295.98 624.12 C 294.34 627.74 292.62 631.39 291.98 635.35 C 294.24 632.36 296.02 629.04 298.12 625.94 C 298.60 625.69 299.55 625.17 300.03 624.92 C 296.33 630.86 292.93 636.99 289.28 642.97 C 289.31 640.02 288.83 636.88 290.25 634.17 Z" />
<path fill="#060606" d=" M 429.02 623.87 C 430.14 625.32 430.91 626.94 430.60 628.85 L 431.01 628.84 C 435.86 628.59 440.69 629.12 445.53 629.37 C 449.04 629.50 452.62 629.29 456.09 629.98 C 456.40 630.38 457.03 631.18 457.34 631.59 C 450.73 631.87 444.12 631.66 437.52 631.28 C 429.76 631.09 421.99 631.21 414.23 631.22 C 414.31 632.00 414.48 633.58 414.56 634.36 C 413.29 634.75 412.02 635.14 410.75 635.53 C 410.21 634.09 409.69 632.64 409.20 631.20 C 408.40 632.31 405.58 632.77 406.43 634.57 C 410.98 636.53 416.26 635.59 421.07 635.18 C 429.63 633.61 438.41 634.67 447.05 633.82 C 454.55 633.94 462.12 633.33 469.57 634.12 C 469.68 634.69 469.89 635.84 470.00 636.41 C 455.32 635.86 440.60 636.86 425.95 635.76 C 419.44 635.86 413.05 638.91 406.52 637.24 C 404.78 636.49 402.96 635.03 403.55 632.91 C 404.68 630.97 406.82 629.85 408.97 629.47 C 415.47 628.76 422.01 628.66 428.55 628.84 C 428.66 627.60 428.90 625.11 429.02 623.87 Z" />
<path fill="#4d433b" d=" M 819.66 625.54 C 822.39 625.02 825.17 624.74 827.97 624.75 C 835.99 624.77 844.03 623.77 852.05 624.65 C 853.38 624.67 854.40 625.64 855.54 626.23 C 854.56 631.06 854.62 636.48 852.38 640.83 L 851.47 640.33 C 852.13 635.66 853.05 631.01 853.27 626.29 C 842.59 625.84 831.89 626.21 821.22 626.79 C 820.60 631.80 820.27 636.85 820.24 641.90 C 822.70 641.64 825.16 641.39 827.63 641.19 C 837.06 640.93 846.48 641.73 855.90 641.45 C 859.20 641.57 858.37 645.93 858.56 648.21 C 845.94 650.87 832.90 650.42 820.06 650.49 C 817.78 650.20 814.78 651.14 813.33 648.74 C 826.09 648.59 838.88 648.93 851.61 647.80 C 851.63 647.16 851.67 645.87 851.69 645.23 C 852.70 647.31 854.80 647.61 856.84 647.23 C 856.80 645.88 856.77 644.55 856.73 643.22 C 847.12 643.48 837.52 642.43 827.91 643.05 C 821.95 643.22 816.02 643.99 810.06 644.05 C 812.32 641.19 816.36 642.57 819.48 642.03 C 817.53 636.68 819.18 630.99 819.66 625.54 Z" />
<path fill="#f0ad24" d=" M 821.22 626.79 C 831.89 626.21 842.59 625.84 853.27 626.29 C 853.05 631.01 852.13 635.66 851.47 640.33 C 843.53 640.77 835.54 640.25 827.63 641.19 C 825.16 641.39 822.70 641.64 820.24 641.90 C 820.27 636.85 820.60 631.80 821.22 626.79 Z" />
<path fill="#060606" d=" M 126.50 628.58 C 127.70 627.96 128.33 629.18 129.09 629.85 C 138.75 629.80 148.42 629.76 158.08 629.81 C 161.44 629.49 161.71 633.59 161.53 635.98 C 160.99 644.68 161.68 653.40 161.29 662.10 C 161.17 664.79 158.00 664.63 156.07 664.68 C 147.17 664.52 138.22 665.38 129.37 664.16 C 129.85 663.06 130.33 661.51 131.87 661.79 C 140.74 663.25 149.78 662.48 158.73 662.45 C 158.91 660.63 159.11 658.82 159.19 657.02 C 159.27 649.66 159.21 642.29 159.14 634.94 C 159.13 634.28 159.11 632.98 159.09 632.32 C 148.92 632.21 138.77 631.32 128.59 631.82 C 128.54 641.62 127.65 651.59 129.56 661.27 C 128.88 661.67 127.52 662.46 126.84 662.86 C 125.90 657.59 126.90 652.24 126.72 646.93 C 126.98 640.81 126.46 634.69 126.50 628.58 Z" />
<path fill="#4d433b" d=" M 225.28 631.57 C 225.41 631.09 225.67 630.13 225.81 629.65 C 232.72 632.59 240.21 632.96 247.60 632.99 C 246.84 634.34 245.56 635.03 244.02 634.72 C 237.62 634.75 231.49 632.80 225.28 631.57 Z" />
<path fill="#060606" d=" M 257.26 630.30 C 266.92 630.08 276.60 630.29 286.27 630.36 C 286.25 631.94 286.24 633.51 286.30 635.10 C 282.72 640.53 278.58 645.94 273.84 650.27 C 273.16 650.32 271.81 650.41 271.13 650.46 C 267.17 646.11 264.20 640.99 260.33 636.57 C 258.67 634.83 258.03 632.49 257.26 630.30 Z" />
<path fill="#cb4d0b" d=" M 128.59 631.82 C 138.77 631.32 148.92 632.21 159.09 632.32 C 159.11 632.98 159.13 634.28 159.14 634.94 C 158.78 642.30 159.00 649.66 159.19 657.02 C 159.11 658.82 158.91 660.63 158.73 662.45 C 149.78 662.48 140.74 663.25 131.87 661.79 C 131.10 661.59 130.33 661.42 129.56 661.27 C 127.65 651.59 128.54 641.62 128.59 631.82 Z" />
<path fill="#cb4d0b" d=" M 259.73 632.25 C 268.26 632.36 276.78 632.64 285.31 632.50 C 282.06 638.54 278.26 644.43 272.89 648.82 C 267.99 643.71 264.53 637.45 259.73 632.25 Z" />
<path fill="#060606" d=" M 300.04 637.26 C 303.02 636.08 305.53 632.77 308.95 633.44 C 303.50 636.43 298.57 640.51 292.63 642.50 C 293.25 638.89 297.58 639.07 300.04 637.26 Z" />
<path fill="#f5f3ef" d=" M 159.14 634.94 C 159.21 642.29 159.27 649.66 159.19 657.02 C 159.00 649.66 158.78 642.30 159.14 634.94 Z" />
<path fill="#060606" d=" M 245.20 637.52 C 250.00 639.10 253.28 643.74 257.30 646.74 C 259.71 648.93 263.88 651.03 262.79 654.97 C 259.66 659.17 254.46 661.18 251.12 665.24 C 249.47 666.82 246.50 670.06 244.50 667.17 C 244.23 662.76 244.84 658.36 245.23 653.98 C 245.63 648.53 244.57 643.13 244.47 637.69 L 245.20 637.52 Z" />
<path fill="#cb4d0b" d=" M 246.37 640.74 C 251.20 644.23 255.56 648.33 260.09 652.18 C 261.80 653.31 259.64 654.89 258.77 655.72 C 254.52 658.95 250.84 662.84 246.62 666.11 C 245.95 657.67 245.91 649.19 246.37 640.74 Z" />
<path fill="#060606" d=" M 204.87 645.55 C 205.48 644.45 206.18 643.41 206.98 642.45 C 209.16 642.20 211.63 643.30 212.75 645.21 C 214.52 647.72 210.91 649.21 208.93 649.62 C 206.54 650.85 205.23 647.83 203.03 647.80 C 197.03 647.42 191.00 647.30 185.00 647.67 C 180.60 648.11 176.31 649.51 171.84 649.40 C 171.75 648.90 171.58 647.90 171.49 647.40 C 182.64 647.32 193.74 646.13 204.87 645.55 Z" />
<path fill="#060606" d=" M 286.32 651.32 C 289.88 647.85 294.58 645.89 298.14 642.41 C 298.65 642.45 299.67 642.51 300.18 642.55 C 299.81 649.99 299.21 657.47 299.91 664.94 C 300.25 667.47 299.97 670.02 299.63 672.54 C 299.24 672.53 298.47 672.51 298.08 672.50 C 295.32 668.61 290.28 667.40 287.14 663.85 C 284.21 661.74 282.69 657.55 278.72 657.18 C 281.38 655.40 283.99 653.52 286.32 651.32 Z" />
<path fill="#cb4d0b" d=" M 282.91 657.06 C 287.27 652.55 292.44 649.02 297.89 645.96 C 298.64 653.44 298.13 660.96 297.78 668.45 C 294.65 666.58 291.23 665.04 288.66 662.39 C 286.83 660.51 284.96 658.68 282.91 657.06 Z" />
<path fill="#060606" d=" M 380.59 647.65 C 381.10 647.59 382.13 647.48 382.64 647.42 C 382.31 652.24 381.59 657.04 381.66 661.89 C 381.84 666.91 380.45 671.79 380.18 676.78 C 382.63 678.41 385.56 680.11 385.98 683.33 C 385.50 683.36 384.55 683.41 384.08 683.43 C 382.45 680.85 379.61 679.48 377.74 677.15 C 378.12 672.03 379.44 667.04 380.05 661.95 C 380.52 657.19 380.04 652.40 380.59 647.65 Z" />
<path fill="#4d433b" d=" M 271.13 650.46 C 271.81 650.41 273.16 650.32 273.84 650.27 C 274.39 651.78 275.44 653.21 275.46 654.87 C 275.18 657.36 270.87 657.42 270.48 654.98 C 270.51 653.62 271.39 652.52 271.77 651.27 C 271.61 651.07 271.29 650.66 271.13 650.46 Z" />
<path fill="#4d433b" d=" M 910.53 655.62 C 911.62 659.30 911.23 663.18 911.34 666.97 C 911.37 676.07 911.76 685.25 910.51 694.29 C 907.08 694.53 903.65 694.88 900.22 694.64 C 903.00 692.92 906.41 693.36 909.54 693.14 C 909.89 680.64 909.95 668.11 910.53 655.62 Z" />
<path fill="#4d433b" d=" M 944.93 693.29 C 944.01 681.17 943.70 667.62 951.00 657.25 C 949.49 662.72 946.84 667.89 946.41 673.64 C 945.92 680.53 945.99 687.47 946.68 694.36 C 943.80 694.40 939.82 696.62 937.73 693.84 C 940.12 693.60 942.52 693.44 944.93 693.29 Z" />
<path fill="#060606" d=" M 272.96 659.38 C 276.90 659.18 277.96 663.66 279.46 666.44 C 281.32 671.19 284.44 675.39 285.71 680.37 C 283.80 680.73 281.86 680.96 279.92 680.77 C 273.27 680.12 266.58 680.46 259.92 680.09 C 258.57 680.14 257.16 679.20 257.14 677.68 C 265.67 678.19 274.21 678.61 282.76 678.77 C 279.91 673.07 277.33 667.25 274.53 661.53 C 268.24 665.90 263.16 671.63 257.84 677.06 C 257.08 677.20 255.55 677.48 254.78 677.62 C 260.06 670.76 267.50 666.04 272.96 659.38 Z" />
<path fill="#cb4d0b" d=" M 257.84 677.06 C 263.16 671.63 268.24 665.90 274.53 661.53 C 277.33 667.25 279.91 673.07 282.76 678.77 C 274.21 678.61 265.67 678.19 257.14 677.68 L 257.84 677.06 Z" />
<path fill="#060606" d=" M 230.24 667.69 C 234.54 668.54 237.96 671.51 241.98 673.10 C 243.28 673.35 243.89 674.39 244.26 675.57 C 240.07 673.45 235.67 671.78 231.53 669.60 C 231.21 669.12 230.56 668.17 230.24 667.69 Z" />
<path fill="#4d433b" d=" M 303.07 676.03 C 305.88 676.16 308.67 675.62 311.49 675.69 C 311.31 676.14 310.96 677.06 310.78 677.51 C 306.38 677.92 301.96 678.10 297.54 678.13 C 297.85 675.01 300.93 676.08 303.07 676.03 Z" />
<path fill="#4d433b" d=" M 289.40 675.62 C 290.24 676.27 291.52 676.80 291.38 678.10 C 291.70 683.72 291.39 689.37 291.51 695.01 C 291.35 697.01 292.07 699.52 290.01 700.84 C 289.75 692.44 289.98 684.02 289.40 675.62 Z" />
<path fill="#060606" d=" M 239.41 686.38 C 242.25 683.37 244.18 679.51 247.61 677.08 C 247.68 678.32 247.58 679.63 246.47 680.44 C 242.63 684.36 239.21 688.76 234.80 692.09 C 235.59 689.66 237.83 688.24 239.41 686.38 Z" />
<path fill="#4d433b" d=" M 250.56 684.95 C 250.85 682.76 250.06 679.63 252.76 678.70 C 252.87 686.14 251.39 693.58 248.86 700.56 C 248.47 700.22 247.69 699.54 247.30 699.20 C 249.51 694.77 250.46 689.87 250.56 684.95 Z" />
<path fill="#060606" d=" M 295.66 679.68 C 299.07 681.30 302.22 683.45 305.73 684.87 C 305.67 685.38 305.54 686.39 305.47 686.89 C 302.33 684.32 297.08 683.88 295.66 679.68 Z" />
</svg>
