<?xml version="1.0" encoding="UTF-8" ?>
<!DOCTYPE svg PUBLIC "-//W3C//DTD SVG 1.1//EN" "http://www.w3.org/Graphics/SVG/1.1/DTD/svg11.dtd">
<svg width="1249pt" height="800pt" viewBox="0 0 1249 800" version="1.1" xmlns="http://www.w3.org/2000/svg">
<path fill="#f4f3ef" d=" M 0.00 0.00 L 1249.00 0.00 L 1249.00 800.00 L 0.00 800.00 L 0.00 0.00 Z" />
<path fill="#0a0909" d=" M 701.77 16.60 C 708.74 15.61 715.76 15.39 722.80 15.24 C 729.50 14.48 736.27 14.08 743.02 14.26 C 747.98 14.18 750.87 19.63 751.25 23.98 C 751.83 37.07 751.37 50.19 751.42 63.28 C 751.34 68.77 750.75 74.24 750.70 79.74 C 750.60 87.17 750.66 94.60 750.76 102.04 C 750.22 106.34 755.57 109.69 753.00 114.03 C 749.62 119.97 742.20 116.66 737.07 115.71 C 718.06 115.34 699.03 115.55 680.01 115.44 C 663.32 115.54 646.62 115.21 629.93 115.74 C 615.64 117.33 601.24 117.55 586.98 119.45 C 570.43 121.11 554.25 125.00 538.08 128.72 C 529.09 129.94 520.18 132.77 511.02 131.66 C 507.45 131.27 503.16 130.15 501.59 126.54 C 500.65 124.86 500.22 122.96 500.29 121.04 C 500.29 110.42 500.35 99.80 500.41 89.18 C 500.41 83.30 500.37 77.42 500.35 71.54 C 500.47 58.65 499.77 45.73 500.57 32.86 C 500.64 29.48 503.44 27.10 506.53 26.32 C 507.21 23.10 509.25 19.48 513.04 19.59 C 547.70 19.70 582.35 20.60 617.02 20.28 C 624.70 19.95 632.31 18.56 640.02 18.56 C 660.62 18.47 681.16 16.45 701.77 16.60 Z" />
<path fill="#f4f3ef" d=" M 710.93 27.65 C 720.18 27.62 729.40 26.71 738.65 26.82 C 739.15 39.53 739.36 52.25 739.24 64.98 C 738.30 77.58 738.75 90.23 738.44 102.85 C 723.34 103.78 708.16 103.15 693.03 103.35 C 672.36 103.54 651.69 103.10 631.03 103.69 C 611.89 105.90 592.56 106.15 573.51 109.24 C 557.54 111.22 542.12 116.15 526.16 118.13 C 521.74 119.06 517.24 119.87 512.70 119.39 C 512.61 95.27 512.48 71.15 512.87 47.04 C 513.39 42.24 512.93 37.35 514.03 32.63 C 540.36 32.42 566.68 32.22 593.01 32.12 C 605.36 31.42 617.81 32.62 630.09 30.74 C 646.05 29.77 662.07 30.03 678.02 28.74 C 688.99 28.24 700.03 29.20 710.93 27.65 Z" />
<path fill="#0a0909" d=" M 693.59 51.77 C 701.46 49.08 710.11 56.98 708.13 65.04 C 706.96 71.59 699.36 76.13 693.12 73.58 C 687.63 71.80 684.24 65.52 685.74 59.94 C 686.74 56.09 689.78 52.94 693.59 51.77 Z" />
<path fill="#0a0909" d=" M 554.34 55.60 C 561.97 53.06 570.26 61.07 567.84 68.73 C 566.46 75.35 558.34 78.79 552.46 75.75 C 547.60 73.42 545.11 67.23 547.15 62.21 C 548.36 59.05 551.08 56.52 554.34 55.60 Z" />
<path fill="#0a0909" d=" M 655.37 58.53 C 656.04 58.32 657.36 57.91 658.03 57.71 C 661.86 59.00 665.94 60.15 669.09 62.84 C 670.46 64.01 671.98 64.97 673.55 65.88 C 673.47 66.68 673.40 67.49 673.34 68.30 C 668.60 69.42 663.77 70.24 658.96 70.91 C 657.15 71.28 655.96 69.93 655.06 68.59 C 633.03 68.76 610.99 68.70 588.96 68.77 C 586.10 68.70 582.54 69.03 581.13 65.94 C 583.97 62.83 588.44 65.60 592.07 65.16 C 613.34 65.09 634.63 65.81 655.88 64.73 C 656.35 62.63 656.07 60.55 655.37 58.53 Z" />
<path fill="#1b41fc" d=" M 750.70 79.74 C 750.75 74.24 751.34 68.77 751.42 63.28 C 754.82 65.97 757.99 68.93 761.21 71.82 C 769.87 79.78 776.13 90.24 786.01 96.87 C 796.80 104.69 803.56 116.89 814.74 124.26 C 820.60 128.53 827.15 131.71 833.03 135.94 C 841.48 141.71 849.04 148.63 856.56 155.53 C 865.82 165.13 878.65 170.50 887.34 180.73 C 890.40 184.30 893.70 187.65 896.91 191.08 C 902.87 198.07 909.98 204.03 915.41 211.48 C 919.58 217.14 923.73 222.83 927.36 228.86 C 931.36 235.13 938.17 238.65 943.17 243.97 C 945.94 246.79 948.77 249.55 951.68 252.22 C 957.22 256.67 963.53 260.19 968.51 265.33 C 968.51 270.32 968.52 275.31 968.52 280.30 C 961.84 285.56 954.77 290.27 947.38 294.48 C 941.82 296.95 936.87 300.52 931.56 303.45 C 927.50 305.64 924.59 309.32 920.85 311.93 C 915.10 315.83 909.80 320.38 903.73 323.79 C 894.74 328.83 886.31 334.83 878.32 341.32 C 868.80 350.32 857.51 357.08 847.55 365.53 C 838.91 371.88 831.48 379.70 822.71 385.87 C 819.58 388.07 817.10 391.01 814.09 393.35 C 804.63 400.69 793.70 405.92 784.66 413.81 C 778.11 419.51 771.95 425.67 765.33 431.30 C 759.31 435.98 752.61 439.80 745.45 442.44 C 745.79 437.47 746.36 432.53 747.03 427.60 C 759.85 421.64 768.72 410.21 779.86 401.90 C 789.75 393.90 801.84 388.96 811.04 380.06 C 814.93 376.55 819.41 373.77 823.36 370.33 C 828.94 365.56 834.38 360.63 840.26 356.23 C 850.44 347.67 861.93 340.75 871.59 331.56 C 878.50 326.09 885.58 320.77 893.11 316.17 C 903.28 310.32 912.53 303.02 921.45 295.45 C 930.26 289.45 939.83 284.68 948.68 278.76 C 951.86 276.98 954.83 274.82 957.45 272.27 C 953.84 269.62 950.23 266.98 946.56 264.42 C 939.96 259.79 935.11 253.20 928.85 248.18 C 924.59 244.78 920.60 240.95 917.51 236.44 C 911.93 227.84 906.29 219.19 899.24 211.72 C 893.96 206.01 888.49 200.49 883.36 194.65 C 879.31 190.37 875.63 185.68 870.92 182.10 C 863.39 176.29 855.11 171.39 848.42 164.56 C 841.53 158.42 834.77 152.08 827.15 146.84 C 820.30 141.91 812.72 138.12 805.98 133.05 C 794.72 125.05 787.48 112.62 776.01 104.87 C 766.42 97.71 759.85 87.40 750.70 79.74 Z" />
<path fill="#1b41fc" d=" M 493.20 73.18 C 495.17 71.47 497.92 71.67 500.35 71.54 C 500.37 77.42 500.41 83.30 500.41 89.18 C 498.02 90.86 495.60 92.49 493.29 94.28 C 482.21 103.39 469.64 110.45 458.40 119.34 C 448.71 125.93 439.79 133.58 429.95 139.94 C 422.60 144.79 415.61 150.18 409.06 156.07 C 402.14 162.86 394.70 169.15 386.88 174.87 C 372.74 183.35 363.35 197.41 350.28 207.21 C 340.93 214.13 331.32 220.85 323.29 229.33 C 318.43 234.16 314.70 240.00 309.64 244.64 C 300.40 253.10 292.54 262.89 284.03 272.06 C 292.04 275.76 300.23 279.05 308.27 282.68 C 319.37 288.48 329.58 295.85 339.43 303.54 C 345.17 307.78 351.84 310.48 357.95 314.11 C 369.64 321.11 379.12 331.15 390.43 338.67 C 401.92 344.95 412.88 352.13 424.10 358.88 C 428.62 361.58 432.11 365.61 436.32 368.72 C 441.50 372.51 446.23 377.01 452.04 379.87 C 460.76 384.19 469.53 388.42 478.20 392.82 C 488.03 398.98 496.94 406.55 507.25 411.94 C 506.90 417.22 506.42 422.49 505.85 427.74 C 502.54 426.76 500.99 423.54 498.40 421.59 C 493.02 418.38 487.84 414.86 482.70 411.31 C 469.59 400.37 452.71 395.71 438.65 386.26 C 432.97 381.60 426.86 377.47 421.51 372.41 C 418.32 369.42 414.27 367.65 410.64 365.28 C 403.31 360.58 395.97 355.88 388.44 351.51 C 377.83 345.95 369.39 337.25 359.81 330.20 C 351.72 323.48 341.65 319.91 333.06 313.94 C 322.90 306.20 312.53 298.46 300.87 293.09 C 292.74 289.97 284.82 286.32 276.64 283.36 C 276.44 272.80 277.75 262.30 277.35 251.74 C 278.31 251.75 280.22 251.76 281.18 251.76 C 281.21 253.14 281.25 254.51 281.30 255.89 C 285.83 250.87 290.61 246.08 295.21 241.12 C 299.30 237.25 303.68 233.63 307.13 229.13 C 316.62 216.93 329.10 207.59 341.57 198.67 C 354.63 189.18 363.93 175.37 377.57 166.60 C 383.69 162.85 388.81 157.77 394.47 153.39 C 403.58 144.44 413.45 136.23 424.16 129.24 C 434.31 122.55 443.71 114.81 453.17 107.21 C 457.55 102.82 462.97 99.75 467.63 95.70 C 471.62 92.30 476.18 89.63 480.10 86.13 C 482.40 84.07 484.70 82.02 487.17 80.16 C 489.71 78.32 490.95 75.29 493.20 73.18 Z" />
<path fill="#0a0909" d=" M 828.22 72.28 C 828.86 72.50 830.13 72.93 830.77 73.14 C 838.94 81.77 845.20 92.27 854.52 99.75 L 852.93 99.34 C 852.46 99.58 851.53 100.07 851.06 100.31 C 846.01 93.34 840.10 87.04 834.50 80.51 C 832.42 77.76 828.59 76.03 828.22 72.28 Z" />
<path fill="#0a0909" d=" M 795.91 75.38 C 796.45 75.43 797.53 75.53 798.08 75.57 C 804.64 84.23 811.31 92.81 818.24 101.17 L 819.48 99.94 C 818.92 101.46 817.55 102.19 815.92 102.07 C 810.72 93.53 803.89 86.15 797.30 78.69 C 796.35 77.83 796.20 76.54 795.91 75.38 Z" />
<path fill="#0a0909" d=" M 817.06 77.57 C 821.91 80.88 824.62 86.33 828.53 90.58 C 830.20 93.04 833.33 94.58 833.84 97.72 C 833.29 97.59 832.20 97.34 831.65 97.21 C 828.37 92.58 824.55 88.39 820.89 84.07 C 819.25 82.13 816.86 80.43 817.06 77.57 Z" />
<path fill="#f4f3ef" d=" M 750.70 79.74 C 759.85 87.40 766.42 97.71 776.01 104.87 C 787.48 112.62 794.72 125.05 805.98 133.05 C 812.72 138.12 820.30 141.91 827.15 146.84 C 834.77 152.08 841.53 158.42 848.42 164.56 C 855.11 171.39 863.39 176.29 870.92 182.10 C 875.63 185.68 879.31 190.37 883.36 194.65 C 888.49 200.49 893.96 206.01 899.24 211.72 C 906.29 219.19 911.93 227.84 917.51 236.44 C 920.60 240.95 924.59 244.78 928.85 248.18 C 935.11 253.20 939.96 259.79 946.56 264.42 C 950.23 266.98 953.84 269.62 957.45 272.27 C 954.83 274.82 951.86 276.98 948.68 278.76 C 939.83 284.68 930.26 289.45 921.45 295.45 C 912.53 303.02 903.28 310.32 893.11 316.17 C 885.58 320.77 878.50 326.09 871.59 331.56 C 861.93 340.75 850.44 347.67 840.26 356.23 C 834.38 360.63 828.94 365.56 823.36 370.33 C 819.41 373.77 814.93 376.55 811.04 380.06 C 801.84 388.96 789.75 393.90 779.86 401.90 C 768.72 410.21 759.85 421.64 747.03 427.60 C 748.82 415.78 748.05 403.82 748.43 391.92 C 749.02 386.83 749.33 381.72 749.34 376.59 C 729.89 376.57 710.43 377.14 691.01 376.15 C 678.02 376.14 665.04 376.24 652.05 376.12 C 638.67 375.58 625.33 374.10 611.93 373.83 C 604.27 373.88 596.60 373.82 588.96 373.35 C 566.99 372.99 544.99 373.74 523.04 372.80 C 519.35 373.16 516.67 369.45 512.97 370.23 C 509.44 370.67 506.80 374.57 507.87 378.02 C 508.68 381.99 507.49 386.00 507.86 390.00 C 508.56 397.32 507.28 404.62 507.25 411.94 C 496.94 406.55 488.03 398.98 478.20 392.82 C 469.53 388.42 460.76 384.19 452.04 379.87 C 446.23 377.01 441.50 372.51 436.32 368.72 C 432.11 365.61 428.62 361.58 424.10 358.88 C 412.88 352.13 401.92 344.95 390.43 338.67 C 379.12 331.15 369.64 321.11 357.95 314.11 C 351.84 310.48 345.17 307.78 339.43 303.54 C 329.58 295.85 319.37 288.48 308.27 282.68 C 300.23 279.05 292.04 275.76 284.03 272.06 C 292.54 262.89 300.40 253.10 309.64 244.64 C 314.70 240.00 318.43 234.16 323.29 229.33 C 331.32 220.85 340.93 214.13 350.28 207.21 C 363.35 197.41 372.74 183.35 386.88 174.87 C 394.70 169.15 402.14 162.86 409.06 156.07 C 415.61 150.18 422.60 144.79 429.95 139.94 C 439.79 133.58 448.71 125.93 458.40 119.34 C 469.64 110.45 482.21 103.39 493.29 94.28 C 495.60 92.49 498.02 90.86 500.41 89.18 C 500.35 99.80 500.29 110.42 500.29 121.04 C 500.22 122.96 500.65 124.86 501.59 126.54 C 503.16 130.15 507.45 131.27 511.02 131.66 C 520.18 132.77 529.09 129.94 538.08 128.72 C 554.25 125.00 570.43 121.11 586.98 119.45 C 601.24 117.55 615.64 117.33 629.93 115.74 C 646.62 115.21 663.32 115.54 680.01 115.44 C 699.03 115.55 718.06 115.34 737.07 115.71 C 742.20 116.66 749.62 119.97 753.00 114.03 C 755.57 109.69 750.22 106.34 750.76 102.04 C 750.66 94.60 750.60 87.17 750.70 79.74 Z" />
<path fill="#0a0909" d=" M 391.01 106.26 C 400.09 105.12 409.29 105.35 418.33 106.67 C 419.80 107.88 422.75 108.36 421.81 110.91 C 421.36 111.15 420.45 111.63 419.99 111.87 C 418.85 112.27 417.86 112.97 417.09 113.88 C 412.41 117.97 408.23 122.60 403.47 126.59 C 399.88 129.70 397.06 133.54 394.54 137.54 C 392.92 139.80 391.10 143.03 387.82 142.44 C 383.59 138.49 379.21 134.57 376.16 129.59 C 371.92 124.23 367.52 118.94 362.39 114.41 C 361.22 113.37 360.34 112.08 359.45 110.82 C 360.05 110.50 361.26 109.85 361.86 109.53 C 362.11 109.84 362.62 110.47 362.88 110.78 C 367.02 116.01 371.73 120.74 376.23 125.64 C 380.22 130.60 384.08 135.75 389.15 139.67 C 394.64 134.92 397.74 128.05 403.18 123.23 C 408.19 118.83 412.88 114.08 417.98 109.78 C 416.01 109.45 414.05 109.10 412.10 108.77 C 395.18 107.07 378.03 107.09 361.05 108.22 C 361.19 107.61 361.47 106.40 361.61 105.79 C 364.71 105.50 367.85 105.65 370.93 106.14 C 377.62 106.37 384.32 106.43 391.01 106.26 Z" />
<path fill="#0a0909" d=" M 865.99 107.50 C 872.08 106.96 877.93 104.72 884.01 104.33 C 886.37 105.95 883.59 109.24 882.54 111.14 C 877.55 117.37 873.86 124.49 868.74 130.63 C 866.50 133.45 864.60 136.50 862.51 139.43 C 862.47 140.26 862.40 141.92 862.36 142.75 C 856.81 141.31 851.30 138.93 847.19 134.83 C 842.68 130.34 837.52 126.58 832.97 122.13 C 829.40 118.80 823.84 118.03 821.21 113.71 C 823.42 113.07 825.68 112.44 828.02 112.44 C 835.85 112.46 843.37 109.04 851.21 109.77 C 848.20 111.85 844.32 111.27 840.89 111.88 C 839.11 112.41 837.32 112.88 835.53 113.32 C 832.65 113.93 829.79 114.58 826.94 115.23 C 833.36 120.09 839.33 125.52 845.86 130.25 C 848.93 132.71 851.95 135.30 855.54 136.97 C 856.39 137.46 857.25 137.95 858.12 138.44 C 860.29 136.87 862.34 135.10 863.91 132.91 C 867.00 128.70 870.87 125.13 873.85 120.83 C 876.87 116.48 879.84 112.10 882.32 107.42 C 874.87 109.15 867.23 109.44 859.61 109.62 C 856.45 109.26 852.90 111.53 850.23 109.12 C 855.51 109.22 860.73 107.92 865.99 107.50 Z" />
<path fill="#cd4c0b" d=" M 859.61 109.62 C 867.23 109.44 874.87 109.15 882.32 107.42 C 879.84 112.10 876.87 116.48 873.85 120.83 C 870.87 125.13 867.00 128.70 863.91 132.91 C 862.34 135.10 860.29 136.87 858.12 138.44 C 857.25 137.95 856.39 137.46 855.54 136.97 C 852.66 134.26 849.29 132.19 845.86 130.25 C 839.33 125.52 833.36 120.09 826.94 115.23 C 829.79 114.58 832.65 113.93 835.53 113.32 C 843.55 111.91 851.70 111.67 859.61 109.62 Z" />
<path fill="#cd4c0b" d=" M 362.12 108.41 C 367.73 107.77 373.38 108.36 379.01 108.29 C 390.04 108.41 401.08 107.97 412.10 108.77 C 414.05 109.10 416.01 109.45 417.98 109.78 C 412.88 114.08 408.19 118.83 403.18 123.23 C 397.74 128.05 394.64 134.92 389.15 139.67 C 384.08 135.75 380.22 130.60 376.23 125.64 C 371.73 120.74 367.02 116.01 362.88 110.78 C 362.69 110.19 362.31 109.00 362.12 108.41 Z" />
<path fill="#cd4c0b" d=" M 417.09 113.88 C 417.86 112.97 418.85 112.27 419.99 111.87 C 420.93 113.42 418.25 115.13 417.09 113.88 Z" />
<path fill="#0a0909" d=" M 341.04 137.08 C 346.79 132.93 351.80 127.77 357.89 124.10 C 358.49 124.40 359.08 124.69 359.68 125.00 C 349.79 131.97 340.50 139.76 330.60 146.73 C 324.73 151.12 318.43 154.95 312.93 159.81 C 312.42 159.21 311.92 158.61 311.42 158.01 C 321.93 152.01 331.39 144.35 341.04 137.08 Z" />
<path fill="#f4f3ef" d=" M 845.86 130.25 C 849.29 132.19 852.66 134.26 855.54 136.97 C 851.95 135.30 848.93 132.71 845.86 130.25 Z" />
<path fill="#0a0909" d=" M 337.09 152.81 C 344.25 147.97 350.72 142.16 357.97 137.48 C 358.47 137.84 359.48 138.56 359.99 138.92 C 354.19 142.31 348.86 146.39 343.36 150.24 C 341.68 151.36 340.29 152.84 338.94 154.33 C 338.32 153.82 337.70 153.31 337.09 152.81 Z" />
<path fill="#0a0909" d=" M 360.47 150.29 C 363.48 148.09 365.97 144.48 369.99 144.26 C 369.08 145.54 368.11 146.80 366.84 147.74 C 359.98 152.88 353.27 158.22 346.34 163.26 C 343.97 164.91 341.99 167.16 339.27 168.25 C 339.35 167.71 339.51 166.61 339.60 166.06 C 347.06 161.54 353.62 155.67 360.47 150.29 Z" />
<path fill="#0a0909" d=" M 964.32 162.08 C 963.44 157.63 968.23 153.46 972.52 154.72 C 975.20 155.66 976.86 158.33 979.63 159.11 C 988.33 160.72 997.25 159.96 1006.00 161.24 C 1010.03 161.58 1014.02 162.21 1018.06 162.59 C 1029.02 163.74 1040.08 163.16 1051.06 164.17 C 1082.38 164.46 1113.70 164.15 1145.03 164.26 C 1154.70 163.75 1164.39 163.40 1173.98 161.90 C 1178.51 162.03 1184.26 160.31 1187.71 164.21 C 1190.43 166.69 1191.47 170.42 1191.64 174.00 C 1192.89 197.99 1192.76 222.04 1192.25 246.05 C 1192.03 258.50 1188.21 270.58 1188.48 283.06 C 1188.59 291.04 1187.41 298.98 1187.71 306.97 C 1187.94 319.70 1187.38 332.46 1188.18 345.17 C 1187.98 348.03 1186.22 350.21 1183.98 351.82 C 1183.42 354.46 1181.87 357.36 1178.93 357.77 C 1164.75 360.46 1150.27 360.13 1135.99 361.84 C 1124.08 363.56 1112.05 364.58 1100.02 364.47 C 1069.68 364.43 1039.34 364.51 1008.99 364.58 C 999.90 364.57 990.76 364.65 981.75 363.34 C 977.42 362.60 972.71 360.63 970.66 356.52 C 969.63 349.78 970.88 342.88 969.68 336.14 C 967.48 323.86 968.75 311.37 968.53 298.98 C 968.53 292.75 968.53 286.53 968.52 280.30 C 968.52 275.31 968.51 270.32 968.51 265.33 C 969.05 252.24 972.33 238.90 969.06 225.92 C 967.94 221.34 968.45 216.59 968.31 211.94 C 968.34 197.00 967.79 182.08 967.67 167.15 C 966.14 165.81 964.42 164.26 964.32 162.08 Z" />
<path fill="#0a0909" d=" M 89.04 163.26 C 91.77 163.13 94.38 160.80 97.14 162.07 C 99.94 162.83 100.97 165.68 101.79 168.14 C 154.21 168.57 206.63 168.36 259.05 168.24 C 265.58 168.28 273.18 165.48 278.78 170.12 C 282.14 174.26 281.71 180.01 282.21 185.02 C 282.22 200.48 278.70 215.69 278.11 231.12 C 277.08 237.94 277.44 244.87 277.35 251.74 C 277.75 262.30 276.44 272.80 276.64 283.36 C 276.41 306.27 277.23 329.21 276.02 352.10 C 275.39 357.20 271.03 361.35 265.99 362.05 C 257.73 363.12 249.38 363.45 241.04 363.31 C 213.73 364.40 186.39 363.56 159.06 363.77 C 150.01 364.53 140.93 364.42 131.86 364.82 L 131.17 365.23 C 118.74 364.80 106.46 367.43 94.04 367.36 C 87.99 367.21 82.06 368.58 76.10 369.37 C 72.17 370.33 68.86 366.98 67.10 363.87 C 64.78 354.44 64.80 344.64 64.35 334.99 C 63.74 325.65 62.50 316.34 62.70 306.97 C 62.59 262.33 62.72 217.68 62.50 173.04 C 61.88 168.35 66.08 165.00 70.13 163.83 C 76.39 162.86 82.74 163.52 89.04 163.26 Z" />
<path fill="#f4f3ef" d=" M 980.76 172.44 C 990.17 172.84 999.62 172.84 1008.99 174.01 C 1016.97 174.99 1025.01 175.58 1033.07 175.47 C 1042.06 175.38 1051.01 176.42 1060.00 176.25 C 1088.34 176.31 1116.67 176.35 1145.01 176.34 C 1156.38 176.05 1167.72 174.88 1179.09 174.52 C 1179.46 187.04 1180.50 199.53 1180.41 212.07 C 1180.33 227.74 1181.13 243.50 1179.11 259.09 C 1177.37 268.28 1176.51 277.61 1176.42 286.96 C 1174.83 306.41 1175.61 325.96 1175.33 345.45 C 1166.08 347.68 1156.53 348.28 1147.06 348.66 C 1133.35 349.73 1119.78 352.49 1105.99 352.48 C 1075.33 352.49 1044.68 352.50 1014.03 352.34 C 1003.59 352.26 993.09 352.18 982.76 350.59 C 982.64 344.04 982.35 337.50 981.31 331.03 C 980.04 324.09 980.49 317.01 980.33 310.00 C 980.10 264.14 980.46 218.29 980.76 172.44 Z" />
<path fill="#f4f3ef" d=" M 75.22 176.23 C 77.51 175.97 79.81 175.63 82.12 175.86 C 84.23 178.13 86.44 180.84 89.94 180.51 C 106.93 181.06 123.94 180.49 140.94 180.59 C 175.96 180.55 210.99 180.56 246.02 180.68 C 253.77 180.64 261.54 180.96 269.27 180.25 C 270.30 190.55 268.66 200.79 267.72 211.02 C 266.17 222.93 265.12 234.94 265.18 246.97 C 264.40 254.65 265.45 262.35 264.65 270.03 C 263.95 289.68 264.42 309.36 264.26 329.02 C 264.63 335.90 263.19 342.70 263.38 349.58 C 255.64 350.75 247.81 350.70 240.00 350.77 C 217.70 352.30 195.31 351.31 172.97 351.70 C 165.64 351.74 158.30 351.49 151.00 352.22 C 136.97 352.52 122.92 352.83 108.98 354.34 C 98.85 355.16 88.63 354.76 78.60 356.47 C 76.92 346.11 77.06 335.55 75.94 325.12 C 75.09 318.11 75.22 311.04 74.85 304.01 C 74.89 274.67 74.75 245.33 74.85 216.00 C 75.43 202.75 74.98 189.49 75.22 176.23 Z" />
<path fill="#0a0909" d=" M 1082.84 187.41 C 1083.80 187.39 1085.72 187.35 1086.68 187.33 C 1085.87 198.40 1086.23 209.50 1086.15 220.58 C 1087.53 220.61 1088.93 220.64 1090.34 220.66 C 1093.55 224.25 1090.56 229.02 1088.70 232.50 C 1087.65 235.38 1084.48 233.84 1082.32 233.45 C 1080.44 230.25 1079.10 226.58 1078.63 222.90 C 1079.50 221.57 1081.06 221.68 1082.46 221.53 C 1082.55 210.16 1081.89 198.75 1082.84 187.41 Z" />
<path fill="#0a0909" d=" M 190.51 243.72 C 198.16 242.04 205.60 250.49 202.72 257.84 C 200.55 265.56 189.37 268.01 184.36 261.63 C 178.43 255.83 182.55 244.93 190.51 243.72 Z" />
<path fill="#0a0909" d=" M 1082.34 243.48 C 1089.24 239.58 1098.26 247.01 1095.91 254.50 C 1094.55 261.18 1085.52 264.06 1080.45 259.60 C 1075.09 255.52 1076.17 246.19 1082.34 243.48 Z" />
<path fill="#0a0909" d=" M 990.13 245.04 C 996.96 242.06 1004.86 250.08 1001.68 256.84 C 999.77 262.81 991.18 264.68 986.95 260.07 C 982.11 255.85 984.00 246.98 990.13 245.04 Z" />
<path fill="#0a0909" d=" M 1038.54 251.32 C 1038.58 249.89 1038.52 248.36 1039.86 247.46 C 1042.46 248.20 1044.95 249.37 1047.30 250.72 C 1048.67 251.31 1048.99 252.71 1048.87 254.08 C 1046.66 255.83 1043.71 255.85 1041.07 256.31 C 1039.84 255.59 1038.51 254.94 1037.06 255.14 C 1026.85 255.31 1016.63 255.49 1006.43 255.67 C 1006.15 253.65 1006.70 251.94 1008.95 251.85 C 1018.80 251.38 1028.68 251.78 1038.54 251.32 Z" />
<path fill="#0a0909" d=" M 163.12 254.48 C 163.45 251.95 165.89 248.70 168.72 249.98 C 172.11 251.41 175.54 252.73 179.00 253.98 C 179.22 254.78 179.67 256.39 179.89 257.19 C 178.21 258.88 176.36 260.53 173.96 261.03 C 170.49 261.80 167.26 263.54 163.69 263.80 C 163.15 262.02 162.75 260.20 162.49 258.36 C 149.69 260.09 136.74 258.54 123.89 259.52 C 117.41 260.40 110.68 261.06 104.27 259.36 C 104.32 257.68 104.99 256.34 106.56 255.67 C 115.28 258.05 124.13 254.91 132.94 255.38 C 143.00 255.16 153.13 256.08 163.12 254.48 Z" />
<path fill="#0a0909" d=" M 340.28 256.37 C 340.91 256.50 342.19 256.75 342.82 256.88 C 346.88 263.41 351.79 269.37 357.17 274.85 C 359.92 277.78 363.80 279.07 367.07 281.28 C 365.38 281.61 363.53 282.00 362.05 280.87 C 355.73 277.00 351.35 270.82 346.77 265.15 C 344.63 262.20 341.62 259.85 340.28 256.37 Z" />
<path fill="#0a0909" d=" M 337.43 269.05 C 337.97 268.47 338.51 267.90 339.05 267.33 C 344.18 273.68 350.27 279.19 356.47 284.47 C 357.71 285.18 357.59 286.60 357.73 287.83 C 350.04 282.65 344.72 274.74 337.43 269.05 Z" />
<path fill="#0a0909" d=" M 325.64 274.73 C 325.99 274.73 326.68 274.73 327.02 274.73 C 331.26 279.65 336.62 283.45 341.87 287.22 C 344.65 289.42 348.58 289.67 350.99 292.37 C 347.25 293.21 344.11 290.70 341.16 288.83 C 335.60 285.14 331.05 280.17 325.50 276.47 C 325.54 276.04 325.61 275.17 325.64 274.73 Z" />
<path fill="#0a0909" d=" M 363.17 296.13 C 370.14 290.29 374.59 281.43 383.01 277.40 C 390.91 282.47 399.04 287.16 407.00 292.12 C 415.36 297.43 424.98 300.23 433.50 305.23 C 436.69 307.10 440.72 308.31 442.50 311.84 C 441.24 316.45 437.23 319.51 434.47 323.21 C 429.88 328.84 427.77 335.94 423.95 342.04 C 422.95 343.83 420.48 344.30 418.82 343.17 C 409.46 338.05 400.60 332.05 392.10 325.62 C 388.40 322.88 384.05 321.27 380.18 318.82 C 376.47 316.55 373.15 313.64 369.18 311.81 C 366.11 310.40 362.86 309.41 359.93 307.73 C 360.49 307.44 361.63 306.85 362.19 306.56 C 371.32 307.33 377.58 314.95 385.59 318.53 C 392.72 321.62 398.16 327.33 404.84 331.16 C 409.88 334.16 414.63 337.63 419.86 340.31 C 420.47 341.70 421.14 341.72 421.87 340.36 C 424.93 335.94 427.15 331.04 429.36 326.17 C 431.74 320.73 436.71 317.10 439.61 311.98 C 435.93 309.79 432.28 307.54 428.62 305.33 C 424.08 302.60 419.04 300.91 414.33 298.52 C 407.73 295.24 402.04 290.35 395.15 287.60 C 390.83 285.93 387.12 283.08 382.97 281.10 C 379.21 281.37 376.60 284.63 373.95 286.97 C 368.55 292.65 361.79 298.32 361.11 306.70 C 360.35 306.65 358.84 306.56 358.09 306.51 C 358.63 302.64 359.88 298.55 363.17 296.13 Z" />
<path fill="#f1ad24" d=" M 373.95 286.97 C 376.60 284.63 379.21 281.37 382.97 281.10 C 387.12 283.08 390.83 285.93 395.15 287.60 C 402.04 290.35 407.73 295.24 414.33 298.52 C 419.04 300.91 424.08 302.60 428.62 305.33 C 432.28 307.54 435.93 309.79 439.61 311.98 C 436.71 317.10 431.74 320.73 429.36 326.17 C 427.15 331.04 424.93 335.94 421.87 340.36 C 421.37 340.35 420.36 340.32 419.86 340.31 C 414.63 337.63 409.88 334.16 404.84 331.16 C 398.16 327.33 392.72 321.62 385.59 318.53 C 377.58 314.95 371.32 307.33 362.19 306.56 C 361.63 306.85 360.49 307.44 359.93 307.73 C 359.30 307.32 358.69 306.92 358.09 306.51 C 358.84 306.56 360.35 306.65 361.11 306.70 C 361.79 298.32 368.55 292.65 373.95 286.97 Z" />
<path fill="#0a0909" d=" M 817.44 284.50 C 818.79 282.50 821.77 281.39 823.70 283.27 C 827.29 286.74 829.93 291.05 833.08 294.91 C 836.11 299.19 840.49 302.32 843.18 306.86 C 845.51 310.78 848.99 313.73 852.17 316.92 C 853.93 319.07 856.57 321.50 855.58 324.58 C 855.02 324.51 853.90 324.37 853.34 324.30 C 851.01 318.21 845.14 314.64 841.96 309.07 C 839.95 305.95 837.50 303.16 835.00 300.43 C 830.56 295.07 826.11 289.69 821.00 284.96 L 820.38 286.11 C 818.92 286.55 817.75 287.50 816.79 288.63 C 808.14 292.79 800.75 298.91 793.16 304.65 C 792.59 304.30 791.46 303.62 790.90 303.27 C 799.39 296.52 809.92 292.49 817.44 284.50 Z" />
<path fill="#f4f3ef" d=" M 816.79 288.63 C 817.75 287.50 818.92 286.55 820.38 286.11 C 820.18 286.74 819.79 288.01 819.60 288.64 C 818.90 288.64 817.49 288.63 816.79 288.63 Z" />
<path fill="#f1ad24" d=" M 820.38 286.11 L 821.00 284.96 C 826.11 289.69 830.56 295.07 835.00 300.43 C 836.73 303.75 839.36 306.42 841.96 309.07 C 845.14 314.64 851.01 318.21 853.34 324.30 C 853.90 324.37 855.02 324.51 855.58 324.58 L 856.32 324.67 C 856.36 325.55 856.43 327.31 856.47 328.19 C 855.65 329.13 854.87 330.10 854.00 330.98 C 851.73 332.97 849.47 334.96 847.26 337.00 C 845.85 337.08 844.96 337.79 844.58 339.13 L 844.24 339.34 C 839.56 341.77 835.66 345.33 831.75 348.79 C 830.60 349.55 829.41 350.22 828.25 350.92 C 826.93 350.00 825.63 349.10 824.32 348.21 C 824.02 346.81 823.16 346.04 821.75 345.91 C 818.14 341.02 813.61 336.91 810.01 332.01 C 805.48 325.92 800.68 320.02 795.41 314.55 C 792.64 311.70 790.75 308.18 788.87 304.73 C 789.37 304.37 790.39 303.64 790.90 303.27 C 791.46 303.62 792.59 304.30 793.16 304.65 C 800.75 298.91 808.14 292.79 816.79 288.63 C 817.49 288.63 818.90 288.64 819.60 288.64 C 819.79 288.01 820.18 286.74 820.38 286.11 Z" />
<path fill="#f4f3ef" d=" M 835.00 300.43 C 837.50 303.16 839.95 305.95 841.96 309.07 C 839.36 306.42 836.73 303.75 835.00 300.43 Z" />
<path fill="#0a0909" d=" M 787.83 304.66 C 788.09 304.67 788.61 304.71 788.87 304.73 C 790.75 308.18 792.64 311.70 795.41 314.55 C 800.68 320.02 805.48 325.92 810.01 332.01 C 813.61 336.91 818.14 341.02 821.75 345.91 C 822.01 347.33 822.86 348.09 824.32 348.21 C 825.63 349.10 826.93 350.00 828.25 350.92 C 829.41 350.22 830.60 349.55 831.75 348.79 C 836.11 345.93 839.99 342.39 844.24 339.34 L 844.58 339.13 C 846.04 339.15 846.94 338.44 847.26 337.00 C 849.47 334.96 851.73 332.97 854.00 330.98 C 855.72 329.77 857.70 329.02 859.70 328.38 C 860.45 332.48 855.36 332.82 853.26 335.29 C 848.47 340.44 841.94 343.30 836.65 347.82 C 833.27 350.09 829.30 355.86 825.00 352.15 C 820.66 349.03 817.85 344.39 814.74 340.16 C 807.59 330.51 800.22 320.95 791.51 312.66 C 790.36 311.37 789.28 310.02 788.28 308.63 C 787.66 307.77 787.11 306.90 786.55 306.03 C 786.87 305.69 787.51 305.00 787.83 304.66 Z" />
<path fill="#f1ad24" d=" M 788.28 308.63 C 789.28 310.02 790.36 311.37 791.51 312.66 C 790.53 312.49 789.55 312.32 788.59 312.16 C 788.47 310.98 788.37 309.80 788.28 308.63 Z" />
<path fill="#0a0909" d=" M 778.97 324.98 C 780.34 323.67 781.79 322.00 783.99 322.46 C 783.77 323.04 783.31 324.18 783.09 324.75 C 774.54 331.57 767.60 340.12 759.92 347.86 C 755.46 352.78 750.22 356.88 745.45 361.48 C 744.66 362.38 743.49 362.66 742.42 363.02 C 742.47 362.50 742.56 361.47 742.61 360.95 C 751.80 355.23 758.54 346.60 766.04 338.97 C 770.47 334.42 774.50 329.49 778.97 324.98 Z" />
<path fill="#0a0909" d=" M 789.10 338.18 C 790.24 337.42 791.65 337.73 792.94 337.64 C 790.33 340.34 786.63 341.48 783.70 343.76 C 778.60 347.50 773.71 351.52 768.83 355.54 C 768.15 355.54 766.81 355.54 766.13 355.53 C 767.16 354.41 768.31 353.39 769.62 352.60 C 776.45 348.26 781.91 341.99 789.10 338.18 Z" />
<path fill="#5b554f" d=" M 844.58 339.13 C 844.96 337.79 845.85 337.08 847.26 337.00 C 846.94 338.44 846.04 339.15 844.58 339.13 Z" />
<path fill="#f4f3ef" d=" M 831.75 348.79 C 835.66 345.33 839.56 341.77 844.24 339.34 C 839.99 342.39 836.11 345.93 831.75 348.79 Z" />
<path fill="#5b554f" d=" M 419.86 340.31 C 420.36 340.32 421.37 340.35 421.87 340.36 C 421.14 341.72 420.47 341.70 419.86 340.31 Z" />
<path fill="#0a0909" d=" M 787.11 359.42 C 792.93 355.05 797.31 348.95 803.55 345.12 C 803.97 347.83 801.12 348.97 799.59 350.61 C 795.45 354.58 790.72 357.93 786.99 362.32 C 786.52 362.30 785.59 362.26 785.12 362.24 C 785.50 361.12 786.05 360.05 787.11 359.42 Z" />
<path fill="#5b554f" d=" M 821.75 345.91 C 823.16 346.04 824.02 346.81 824.32 348.21 C 822.86 348.09 822.01 347.33 821.75 345.91 Z" />
<path fill="#0a0909" d=" M 507.87 378.02 C 506.80 374.57 509.44 370.67 512.97 370.23 C 516.67 369.45 519.35 373.16 523.04 372.80 C 544.99 373.74 566.99 372.99 588.96 373.35 C 596.60 373.82 604.27 373.88 611.93 373.83 C 625.33 374.10 638.67 375.58 652.05 376.12 C 665.04 376.24 678.02 376.14 691.01 376.15 C 710.43 377.14 729.89 376.57 749.34 376.59 C 749.33 381.72 749.02 386.83 748.43 391.92 C 748.05 403.82 748.82 415.78 747.03 427.60 C 746.36 432.53 745.79 437.47 745.45 442.44 C 743.76 454.95 745.00 467.58 744.53 480.15 C 744.67 483.46 741.67 485.61 739.17 487.18 C 733.70 489.79 727.73 487.48 722.03 487.40 C 714.06 486.50 706.07 485.58 698.04 485.70 C 675.05 485.41 652.04 485.74 629.05 485.28 C 613.43 484.04 597.72 484.31 582.14 482.56 C 575.60 482.02 569.03 482.39 562.51 481.74 C 545.00 481.04 527.47 481.47 509.97 481.50 C 505.39 481.85 502.11 477.96 500.86 473.96 C 499.54 466.46 501.29 458.93 502.30 451.51 C 503.39 443.57 505.04 435.71 505.85 427.74 C 506.42 422.49 506.90 417.22 507.25 411.94 C 507.28 404.62 508.56 397.32 507.86 390.00 C 507.49 386.00 508.68 381.99 507.87 378.02 Z" />
<path fill="#f4f3ef" d=" M 519.62 403.94 C 520.30 397.89 520.44 391.80 520.56 385.72 C 543.36 385.86 566.16 385.49 588.96 385.75 C 601.28 386.92 613.68 385.80 626.01 386.79 C 632.34 387.44 638.72 387.58 645.05 388.30 C 661.04 388.70 677.05 388.27 693.05 388.57 C 707.11 389.92 721.26 388.97 735.37 389.34 C 735.30 399.87 735.86 410.42 735.30 420.95 C 734.07 429.92 733.46 438.95 732.59 447.96 C 731.98 457.20 732.44 466.48 731.79 475.72 C 724.91 474.60 717.92 474.51 711.01 473.64 C 683.36 473.02 655.69 473.99 628.04 473.32 C 614.39 472.32 600.69 472.30 587.05 471.20 C 581.07 470.35 575.01 470.39 568.99 470.25 C 550.44 468.81 531.81 469.59 513.23 469.23 C 513.09 460.41 515.06 451.75 516.06 443.02 C 518.21 430.10 519.05 417.01 519.62 403.94 Z" />
<path fill="#0a0909" d=" M 560.10 417.02 C 566.50 414.34 574.53 419.99 573.78 427.00 C 574.01 433.07 567.67 437.98 561.82 436.69 C 556.48 435.88 552.51 430.23 553.56 424.92 C 554.07 421.36 556.77 418.29 560.10 417.02 Z" />
<path fill="#0a0909" d=" M 651.26 428.18 C 651.32 425.78 650.76 422.94 652.99 421.31 C 656.43 425.69 662.06 427.12 665.88 430.99 C 662.54 434.85 657.54 436.85 652.87 438.61 C 651.98 436.38 651.40 434.06 651.28 431.66 C 630.19 431.40 608.97 432.55 588.03 429.50 C 585.73 429.91 582.96 426.39 586.01 425.24 C 607.55 428.92 629.49 428.14 651.26 428.18 Z" />
<path fill="#0a0909" d=" M 686.44 422.64 C 690.55 421.50 695.47 422.64 698.04 426.22 C 701.58 431.24 699.67 439.26 693.89 441.72 C 688.04 444.76 680.27 440.45 679.50 433.98 C 678.65 429.15 681.78 424.10 686.44 422.64 Z" />
<path fill="#0a0909" d=" M 1122.11 460.11 C 1124.06 459.67 1126.06 459.35 1128.04 458.91 C 1136.18 458.17 1145.06 459.21 1151.78 464.24 C 1154.10 465.80 1155.22 468.43 1156.10 470.99 C 1159.35 468.56 1162.54 465.76 1166.62 464.86 C 1173.36 463.66 1180.23 463.30 1187.09 463.37 C 1192.31 463.65 1196.30 467.77 1199.14 471.81 C 1201.12 474.39 1201.73 477.75 1201.50 480.95 C 1202.22 482.48 1198.58 484.84 1198.53 482.54 C 1198.21 479.64 1198.93 476.49 1197.40 473.84 C 1195.04 469.20 1190.59 464.82 1185.02 465.08 C 1175.94 464.60 1164.98 465.10 1158.76 472.78 C 1157.58 473.80 1156.72 475.91 1154.84 475.47 C 1152.59 473.41 1153.44 469.74 1151.34 467.53 C 1144.34 460.84 1134.12 459.54 1124.88 460.78 C 1121.22 461.55 1117.49 461.93 1113.87 462.84 C 1112.85 463.18 1111.85 463.53 1110.85 463.86 C 1102.18 466.61 1093.53 471.11 1088.80 479.23 C 1086.10 483.38 1089.63 489.24 1085.83 492.89 C 1081.41 497.35 1081.71 504.34 1083.37 509.94 C 1085.63 515.28 1087.77 520.86 1091.74 525.21 C 1094.17 527.96 1090.71 531.16 1090.50 534.09 C 1089.72 543.71 1095.83 552.54 1102.91 558.43 C 1103.65 558.98 1104.40 559.55 1105.17 560.12 C 1104.69 560.24 1103.75 560.47 1103.27 560.59 C 1098.52 559.06 1096.15 554.33 1093.25 550.67 C 1089.24 545.12 1085.99 537.67 1088.64 530.87 C 1089.00 529.70 1089.37 528.54 1089.73 527.38 C 1086.03 524.06 1084.65 519.23 1082.50 514.94 C 1080.38 510.60 1079.72 505.71 1079.51 500.94 C 1079.22 496.56 1081.86 492.82 1084.39 489.54 C 1085.24 486.46 1084.99 483.19 1085.74 480.09 C 1087.28 476.17 1090.67 473.43 1093.54 470.50 C 1098.53 465.54 1105.66 464.18 1112.11 462.08 C 1115.33 460.95 1118.68 460.26 1122.11 460.11 Z" />
<path fill="#0a0909" d=" M 994.17 461.10 C 1001.98 459.29 1010.05 458.88 1018.05 458.81 C 1029.19 459.10 1038.49 466.85 1044.08 475.98 C 1045.92 479.13 1046.26 482.85 1046.60 486.42 C 1050.32 486.55 1054.52 486.80 1057.16 489.83 C 1064.48 497.72 1071.76 507.61 1070.25 519.02 C 1069.85 520.38 1069.53 521.77 1069.23 523.17 C 1067.07 527.89 1064.21 532.70 1059.44 535.17 C 1060.02 537.12 1060.58 539.10 1061.12 541.09 C 1061.72 545.47 1061.62 549.93 1060.35 554.20 C 1056.42 563.49 1049.77 572.80 1039.62 575.73 C 1031.79 578.09 1023.02 578.85 1015.20 576.11 C 1011.47 574.43 1007.39 572.65 1005.06 569.12 C 1004.26 569.27 1002.66 569.57 1001.86 569.72 C 995.16 571.84 987.57 572.82 980.84 570.43 C 972.27 566.09 963.20 560.85 959.27 551.57 C 955.97 543.67 953.42 533.79 958.49 526.06 C 956.78 524.20 955.32 522.15 954.05 519.99 C 951.38 513.36 950.34 506.14 950.58 499.02 C 951.71 485.65 960.53 473.53 972.43 467.56 C 977.17 465.53 982.70 466.20 987.07 463.12 C 988.09 462.77 989.12 462.44 990.17 462.13 C 991.48 461.76 992.82 461.43 994.17 461.10 Z" />
<path fill="#f4f3ef" d=" M 1005.85 460.77 C 1011.95 460.66 1018.13 460.22 1024.12 461.71 C 1031.73 464.35 1037.87 470.05 1042.15 476.76 C 1044.06 479.98 1044.38 483.80 1044.67 487.45 C 1048.03 488.71 1051.75 488.22 1055.06 489.73 C 1060.01 495.03 1064.49 500.92 1067.26 507.69 C 1067.57 508.75 1067.90 509.81 1068.26 510.87 C 1069.87 519.83 1065.82 530.05 1057.39 534.12 C 1057.47 536.18 1058.38 538.04 1059.27 539.87 C 1059.85 545.26 1060.16 550.88 1057.90 555.96 C 1053.61 563.97 1047.36 572.00 1038.07 574.18 C 1029.23 576.36 1018.95 577.11 1011.03 571.80 C 1008.60 570.32 1006.13 568.33 1003.12 568.52 C 1000.95 569.06 998.76 569.59 996.54 569.82 L 996.60 570.40 C 992.09 570.43 987.45 571.28 983.07 569.84 C 973.65 565.18 963.59 558.99 960.25 548.37 C 958.30 542.07 956.13 534.68 959.65 528.52 C 960.01 527.40 961.54 525.97 960.38 524.91 C 954.14 520.03 952.78 511.48 952.49 504.05 C 951.63 493.31 956.79 482.73 964.59 475.57 C 968.65 471.96 973.29 468.42 978.89 467.88 C 982.92 467.75 986.17 465.21 989.79 463.77 C 994.87 462.62 999.92 461.15 1005.18 461.18 L 1005.85 460.77 Z" />
<path fill="#0a0909" d=" M 1204.61 483.60 C 1209.88 482.84 1215.25 485.45 1219.07 488.98 C 1222.61 492.09 1226.70 494.93 1228.74 499.36 C 1231.09 504.25 1230.02 509.82 1229.74 515.02 C 1229.41 521.69 1225.31 527.51 1220.47 531.83 C 1225.28 537.63 1223.09 545.55 1220.93 551.97 C 1217.57 559.20 1211.45 565.83 1203.42 567.62 C 1195.26 569.71 1186.84 567.34 1179.19 564.44 C 1174.27 570.97 1166.50 577.19 1157.78 575.06 C 1160.34 574.30 1162.94 573.62 1165.46 572.69 C 1170.59 570.19 1174.63 565.93 1178.00 561.39 C 1183.95 563.16 1189.62 565.91 1195.93 566.20 C 1203.17 566.85 1211.17 564.37 1215.36 558.09 C 1220.09 552.58 1221.20 544.98 1220.36 537.98 C 1219.83 535.43 1217.22 533.57 1217.45 530.86 C 1219.23 528.26 1222.51 527.11 1224.08 524.31 C 1227.83 518.27 1228.70 510.88 1228.25 503.92 C 1227.31 498.36 1222.41 494.90 1218.33 491.60 C 1215.49 488.98 1212.11 486.65 1208.13 486.41 C 1206.71 486.09 1203.00 486.16 1204.61 483.60 Z" />
<path fill="#5b554f" d=" M 1106.43 492.76 C 1109.31 490.40 1113.54 490.95 1117.02 490.22 C 1117.55 490.42 1118.59 490.81 1119.12 491.00 C 1115.04 492.37 1110.72 492.99 1106.43 492.76 Z" />
<path fill="#5b554f" d=" M 987.62 491.46 C 989.65 491.45 991.69 491.54 993.74 491.63 C 993.71 492.07 993.67 492.97 993.65 493.42 C 991.50 493.21 988.89 493.63 987.62 491.46 Z" />
<path fill="#5b554f" d=" M 1000.69 491.74 C 1003.54 492.16 1007.63 490.36 1009.70 492.73 C 1006.68 493.75 1003.43 493.24 1000.31 493.45 C 1000.41 493.02 1000.60 492.16 1000.69 491.74 Z" />
<path fill="#5b554f" d=" M 1100.44 497.20 C 1100.47 495.02 1100.12 492.69 1101.21 490.70 C 1101.47 492.75 1103.78 496.65 1100.44 497.20 Z" />
<path fill="#5b554f" d=" M 981.53 492.07 C 981.98 492.12 982.87 492.22 983.32 492.27 C 983.27 493.27 983.16 495.25 983.11 496.24 C 983.77 496.24 985.08 496.24 985.74 496.23 C 988.00 499.69 990.78 502.74 993.24 506.06 C 989.15 505.44 987.36 501.11 985.39 498.01 C 984.33 497.91 983.28 497.82 982.25 497.76 L 982.41 498.71 L 981.57 498.77 C 981.54 496.54 981.53 494.30 981.53 492.07 Z" />
<path fill="#5b554f" d=" M 1137.56 492.86 C 1139.94 492.85 1142.32 492.85 1144.72 492.83 C 1144.77 493.27 1144.86 494.16 1144.91 494.60 C 1142.38 494.61 1139.85 494.61 1137.34 494.61 C 1137.39 494.17 1137.51 493.30 1137.56 492.86 Z" />
<path fill="#5b554f" d=" M 1153.68 494.46 C 1155.90 491.62 1160.10 492.90 1163.23 492.78 C 1160.51 495.00 1156.93 494.66 1153.68 494.46 Z" />
<path fill="#5b554f" d=" M 1123.55 492.79 C 1125.79 493.07 1129.04 491.96 1130.32 494.51 C 1128.06 494.19 1124.50 495.73 1123.55 492.79 Z" />
<path fill="#5b554f" d=" M 1015.43 495.70 C 1016.77 493.15 1020.02 494.50 1022.28 494.49 C 1020.38 496.11 1017.69 495.53 1015.43 495.70 Z" />
<path fill="#a6a7ab" d=" M 1170.55 493.64 C 1172.60 493.60 1174.66 493.79 1176.71 494.13 C 1178.93 497.92 1168.54 496.70 1170.55 493.64 Z" />
<path fill="#5b554f" d=" M 1179.70 495.46 C 1181.71 494.08 1186.09 492.23 1187.16 495.36 C 1184.67 495.51 1182.17 495.62 1179.70 495.46 Z" />
<path fill="#5b554f" d=" M 1025.80 495.87 C 1027.43 495.81 1029.06 495.76 1030.71 495.71 C 1030.76 496.15 1030.84 497.03 1030.88 497.47 C 1028.99 497.49 1027.11 497.53 1025.25 497.56 C 1025.39 497.13 1025.66 496.29 1025.80 495.87 Z" />
<path fill="#5b554f" d=" M 1190.99 495.60 C 1192.31 495.97 1195.85 494.77 1194.57 497.39 C 1193.73 497.43 1192.90 497.46 1192.09 497.48 C 1191.81 497.01 1191.26 496.07 1190.99 495.60 Z" />
<path fill="#5b554f" d=" M 1167.93 503.25 C 1167.27 500.90 1166.45 497.59 1169.22 496.20 C 1169.22 497.19 1169.21 499.16 1169.20 500.14 L 1169.17 500.48 C 1168.86 501.17 1168.24 502.56 1167.93 503.25 Z" />
<path fill="#f1ad24" d=" M 1169.20 500.14 C 1171.13 498.59 1173.20 496.31 1175.94 496.72 C 1181.29 497.41 1186.68 497.79 1192.09 497.48 C 1192.90 497.46 1193.73 497.43 1194.57 497.39 C 1194.57 497.67 1194.58 498.24 1194.58 498.53 C 1194.58 500.06 1194.58 501.59 1194.65 503.14 C 1195.03 502.04 1195.33 500.92 1195.72 499.83 C 1197.94 507.07 1197.18 514.76 1197.23 522.22 L 1196.76 522.54 C 1196.28 522.87 1195.32 523.52 1194.84 523.85 C 1194.77 525.81 1194.70 527.78 1194.65 529.75 C 1195.29 529.56 1195.96 529.38 1196.64 529.20 C 1196.62 531.82 1196.72 534.45 1196.48 537.06 C 1195.78 538.08 1195.49 539.18 1195.63 540.37 L 1194.82 540.24 C 1191.26 539.03 1187.60 540.09 1184.03 540.56 C 1182.41 540.69 1180.80 540.70 1179.21 540.73 C 1176.22 540.71 1173.23 540.64 1170.26 540.59 C 1169.85 538.33 1169.53 536.06 1169.59 533.77 C 1169.69 531.54 1169.71 529.30 1169.72 527.08 C 1169.73 523.99 1169.64 520.91 1169.60 517.83 C 1169.62 514.64 1169.60 511.46 1169.58 508.29 C 1169.59 505.67 1169.30 503.08 1169.17 500.48 L 1169.20 500.14 Z" />
<path fill="#5b554f" d=" M 1033.64 498.52 C 1034.10 498.46 1035.03 498.35 1035.49 498.29 C 1035.04 500.99 1035.19 504.03 1033.47 506.33 C 1033.22 503.72 1033.42 501.11 1033.64 498.52 Z" />
<path fill="#0a0909" d=" M 1194.65 503.14 C 1194.58 501.59 1194.58 500.06 1194.58 498.53 C 1194.86 498.85 1195.43 499.51 1195.72 499.83 C 1195.33 500.92 1195.03 502.04 1194.65 503.14 Z" />
<path fill="#a6a7ab" d=" M 1136.33 502.16 C 1137.95 500.87 1138.87 503.93 1137.67 504.84 C 1136.04 506.12 1135.08 503.05 1136.33 502.16 Z" />
<path fill="#5b554f" d=" M 982.40 502.61 C 984.87 504.72 984.10 508.73 982.59 511.23 C 982.27 508.36 982.25 505.48 982.40 502.61 Z" />
<path fill="#5b554f" d=" M 1024.75 508.18 C 1026.24 505.94 1027.94 503.06 1031.03 503.14 C 1029.36 505.28 1027.54 507.56 1024.75 508.18 Z" />
<path fill="#a6a7ab" d=" M 1100.69 504.34 C 1104.10 504.47 1102.86 508.10 1103.15 510.36 C 1099.86 510.17 1101.11 506.49 1100.69 504.34 Z" />
<path fill="#cd4c0b" d=" M 1194.30 508.30 C 1194.63 508.28 1195.29 508.24 1195.62 508.22 C 1196.06 510.90 1196.01 513.63 1196.04 516.34 C 1195.49 516.33 1194.40 516.32 1193.85 516.31 C 1193.83 513.64 1193.68 510.92 1194.30 508.30 Z" />
<path fill="#5b554f" d=" M 1167.83 518.76 C 1168.06 515.30 1166.92 511.05 1169.58 508.29 C 1169.60 511.46 1169.62 514.64 1169.60 517.83 C 1169.16 518.06 1168.27 518.52 1167.83 518.76 Z" />
<path fill="#5b554f" d=" M 1000.97 510.96 C 1003.30 511.76 1005.03 513.66 1005.02 516.24 C 1003.28 514.81 1001.75 513.10 1000.97 510.96 Z" />
<path fill="#a6a7ab" d=" M 1035.13 510.65 C 1038.50 512.05 1036.78 516.31 1037.16 519.12 C 1036.59 519.11 1035.47 519.10 1034.90 519.09 C 1034.89 516.27 1034.91 513.45 1035.13 510.65 Z" />
<path fill="#5b554f" d=" M 1009.84 519.90 C 1012.63 517.19 1014.76 512.78 1018.93 512.25 C 1016.30 515.14 1014.08 519.37 1009.84 519.90 Z" />
<path fill="#a6a7ab" d=" M 1135.75 516.98 C 1135.59 515.33 1136.42 514.00 1137.97 513.41 C 1138.06 516.49 1138.03 519.57 1137.97 522.66 C 1134.73 522.69 1135.82 519.10 1135.75 516.98 Z" />
<path fill="#5b554f" d=" M 981.76 516.51 C 982.17 516.51 983.00 516.50 983.42 516.49 C 983.43 518.48 983.45 520.49 983.45 522.49 C 983.02 522.53 982.16 522.62 981.73 522.67 C 981.74 520.61 981.75 518.56 981.76 516.51 Z" />
<path fill="#5b554f" d=" M 1101.68 518.23 C 1102.10 518.24 1102.94 518.26 1103.36 518.27 C 1103.45 519.48 1103.55 520.70 1103.67 521.92 C 1103.21 521.85 1102.30 521.71 1101.85 521.64 C 1101.78 520.50 1101.72 519.36 1101.68 518.23 Z" />
<path fill="#cd4c0b" d=" M 1005.86 524.82 C 1007.81 522.91 1010.60 523.64 1013.05 523.38 C 1015.01 524.62 1017.33 525.68 1018.23 528.02 C 1017.76 528.13 1016.83 528.35 1016.36 528.47 C 1019.36 531.54 1023.30 533.73 1025.63 537.43 C 1027.65 540.52 1031.62 541.96 1032.75 545.71 C 1030.22 545.67 1027.70 545.75 1025.21 546.11 C 1016.17 547.82 1007.13 545.33 998.06 545.51 C 994.55 545.55 991.04 545.26 987.54 545.46 C 987.01 544.36 986.51 543.27 986.02 542.19 C 987.87 540.17 989.61 538.06 991.22 535.85 C 991.67 536.50 992.13 537.16 992.60 537.83 C 994.96 534.85 998.03 532.51 1000.21 529.38 C 1001.62 527.34 1003.55 525.75 1005.86 524.82 Z" />
<path fill="#5b554f" d=" M 1194.84 523.85 C 1195.32 523.52 1196.28 522.87 1196.76 522.54 C 1196.70 524.76 1196.65 526.98 1196.64 529.20 C 1195.96 529.38 1195.29 529.56 1194.65 529.75 C 1194.70 527.78 1194.77 525.81 1194.84 523.85 Z" />
<path fill="#5b554f" d=" M 1034.66 525.58 C 1035.07 525.51 1035.88 525.38 1036.28 525.31 C 1036.25 527.09 1036.23 528.88 1036.22 530.68 C 1035.79 530.71 1034.94 530.79 1034.51 530.83 C 1034.55 529.07 1034.61 527.32 1034.66 525.58 Z" />
<path fill="#5b554f" d=" M 1103.25 527.40 C 1104.72 527.85 1104.23 529.69 1104.65 530.87 C 1104.10 530.82 1103.00 530.74 1102.45 530.69 C 1102.68 529.58 1102.91 528.48 1103.25 527.40 Z" />
<path fill="#5b554f" d=" M 1168.76 535.24 C 1168.51 532.60 1167.21 529.04 1169.72 527.08 C 1169.71 529.30 1169.69 531.54 1169.59 533.77 L 1168.76 535.24 Z" />
<path fill="#5b554f" d=" M 981.41 528.58 C 982.72 529.90 983.18 531.72 983.60 533.49 C 983.11 533.57 982.12 533.74 981.63 533.83 C 981.52 532.08 981.42 530.32 981.41 528.58 Z" />
<path fill="#5b554f" d=" M 1136.52 536.84 C 1136.60 534.11 1136.37 531.15 1138.30 528.96 C 1138.41 531.53 1138.32 534.10 1138.25 536.68 C 1137.82 536.72 1136.95 536.80 1136.52 536.84 Z" />
<path fill="#0a0909" d=" M 229.27 532.47 C 229.77 532.44 230.78 532.40 231.29 532.37 C 231.68 542.52 232.50 552.63 233.75 562.70 C 232.48 561.68 231.16 560.73 229.63 560.18 C 226.49 553.25 225.53 545.25 220.55 539.24 C 221.10 538.89 221.64 538.56 222.20 538.24 C 222.74 539.20 223.28 540.17 223.82 541.15 C 226.61 546.30 228.42 551.90 230.66 557.30 C 230.97 550.16 230.38 543.02 230.24 535.88 C 229.89 534.75 229.58 533.59 229.27 532.47 Z" />
<path fill="#5b554f" d=" M 1195.63 540.37 C 1195.49 539.18 1195.78 538.08 1196.48 537.06 C 1199.22 536.77 1197.83 541.21 1195.63 540.37 Z" />
<path fill="#5b554f" d=" M 982.47 538.41 C 982.89 538.43 983.73 538.48 984.15 538.51 C 984.14 539.89 984.15 541.27 984.18 542.67 C 983.75 542.72 982.88 542.81 982.45 542.86 C 982.44 541.37 982.45 539.88 982.47 538.41 Z" />
<path fill="#5b554f" d=" M 1033.66 537.60 C 1035.07 539.55 1035.20 543.15 1032.55 544.19 C 1032.75 541.96 1033.13 539.76 1033.66 537.60 Z" />
<path fill="#5b554f" d=" M 1116.45 539.81 C 1118.78 539.80 1121.13 539.77 1123.48 539.74 C 1123.47 540.16 1123.45 540.99 1123.44 541.41 C 1121.05 541.43 1118.67 541.45 1116.30 541.48 C 1116.34 541.06 1116.41 540.23 1116.45 539.81 Z" />
<path fill="#5b554f" d=" M 1131.24 539.67 C 1132.58 539.72 1133.96 539.78 1135.34 539.84 C 1135.42 540.26 1135.59 541.09 1135.67 541.51 C 1134.18 541.45 1132.71 541.40 1131.25 541.36 C 1131.25 540.94 1131.24 540.09 1131.24 539.67 Z" />
<path fill="#5b554f" d=" M 1184.03 540.56 C 1187.60 540.09 1191.26 539.03 1194.82 540.24 C 1191.43 541.39 1187.37 542.49 1184.03 540.56 Z" />
<path fill="#5b554f" d=" M 1104.33 541.34 C 1104.38 540.82 1104.49 539.80 1104.54 539.29 C 1105.83 539.78 1107.45 540.05 1108.16 541.45 C 1106.87 541.42 1105.59 541.38 1104.33 541.34 Z" />
<path fill="#5b554f" d=" M 1145.67 540.65 C 1147.03 540.41 1148.41 540.20 1149.80 540.01 C 1149.79 540.49 1149.76 541.46 1149.75 541.94 C 1148.36 541.53 1147.01 541.14 1145.67 540.65 Z" />
<path fill="#5b554f" d=" M 1157.29 540.51 C 1160.56 540.23 1163.88 540.00 1167.14 540.60 C 1164.39 542.56 1160.96 542.22 1157.78 542.20 C 1157.66 541.78 1157.41 540.93 1157.29 540.51 Z" />
<path fill="#5b554f" d=" M 1170.26 540.59 C 1173.23 540.64 1176.22 540.71 1179.21 540.73 C 1177.77 543.47 1174.38 542.05 1171.96 542.26 C 1171.38 541.69 1170.81 541.14 1170.26 540.59 Z" />
<path fill="#0a0909" d=" M 238.79 550.81 C 239.99 548.61 239.38 544.44 242.60 544.19 C 240.81 549.73 239.23 555.35 238.41 561.13 C 237.94 560.93 236.99 560.53 236.52 560.33 C 236.80 557.06 237.91 553.95 238.79 550.81 Z" />
<path fill="#5b554f" d=" M 1025.21 546.11 C 1027.70 545.75 1030.22 545.67 1032.75 545.71 L 1034.06 545.74 C 1031.25 547.96 1027.51 547.27 1024.22 547.41 L 1025.21 546.11 Z" />
<path fill="#0a0909" d=" M 283.15 554.14 C 284.13 551.93 284.60 549.25 286.76 547.84 C 286.80 550.05 285.75 551.99 284.79 553.89 C 281.49 562.31 277.28 570.81 277.58 580.08 C 277.02 579.86 275.92 579.41 275.37 579.19 C 275.58 570.30 279.87 562.22 283.15 554.14 Z" />
<path fill="#5b554f" d=" M 1064.52 554.95 C 1064.19 549.99 1069.69 547.06 1074.05 547.42 C 1077.29 547.57 1081.97 548.20 1082.78 552.03 C 1083.05 559.12 1078.85 566.15 1072.62 569.51 C 1070.09 570.95 1066.62 570.58 1064.59 568.51 C 1063.53 564.92 1065.41 561.36 1066.67 558.08 C 1067.64 556.11 1068.25 553.41 1070.79 553.01 C 1068.71 557.81 1065.86 562.53 1066.07 567.96 C 1071.03 569.94 1075.32 565.78 1077.87 561.97 C 1079.58 558.98 1080.94 555.47 1080.52 551.98 C 1078.78 549.78 1075.56 549.68 1072.99 549.67 C 1069.28 549.61 1067.23 553.05 1064.52 554.95 Z" />
<path fill="#5b554f" d=" M 265.36 548.01 C 267.52 548.22 267.70 550.42 268.23 551.98 C 269.60 556.82 270.34 561.82 272.07 566.56 C 272.73 561.59 271.79 556.64 270.82 551.78 C 271.36 551.57 272.44 551.15 272.98 550.94 C 274.63 557.92 274.10 565.25 274.69 572.38 C 274.69 574.55 275.53 577.29 273.41 578.83 C 271.91 575.02 270.02 571.31 269.50 567.20 C 268.50 560.72 266.69 554.42 265.36 548.01 Z" />
<path fill="#0a0909" d=" M 37.41 557.59 C 43.89 556.49 50.48 556.27 57.05 556.13 C 69.17 554.53 81.45 555.14 93.48 557.14 C 103.41 558.93 113.44 556.67 123.42 557.45 C 125.28 562.26 122.40 567.12 121.83 571.93 C 121.32 576.94 120.41 581.92 120.61 586.98 C 120.47 592.06 121.30 597.43 119.29 602.25 C 117.68 604.51 114.46 604.27 112.00 604.41 C 92.04 604.30 72.04 602.72 52.11 604.44 C 46.58 604.67 41.32 606.91 35.75 606.72 C 33.80 603.44 34.52 599.56 34.96 596.00 C 35.59 597.73 36.29 599.45 36.89 601.21 C 37.05 601.86 37.37 603.15 37.54 603.80 C 46.98 601.41 56.74 601.52 66.39 602.08 C 73.60 602.30 80.82 602.31 88.03 602.07 C 97.51 601.36 107.04 601.93 116.53 601.21 C 117.41 598.24 117.70 595.13 117.65 592.04 C 117.62 581.30 121.26 570.98 121.51 560.27 C 114.67 560.35 107.82 560.61 100.99 559.98 C 91.61 559.40 82.39 557.05 72.96 557.11 C 62.47 557.15 51.87 557.04 41.61 559.52 C 38.31 560.85 39.77 565.29 38.95 568.06 L 38.87 568.78 C 38.24 569.70 37.58 570.61 36.91 571.52 C 36.66 566.87 36.25 562.15 37.41 557.59 Z" />
<path fill="#0a0909" d=" M 1114.16 558.75 C 1117.19 558.85 1120.13 558.16 1123.09 557.64 L 1124.31 558.67 C 1124.88 558.61 1126.01 558.49 1126.57 558.43 C 1130.34 563.50 1135.82 566.80 1141.32 569.71 C 1145.15 571.78 1149.59 571.90 1153.77 572.78 C 1154.83 573.44 1155.83 574.16 1156.87 574.90 C 1151.42 574.26 1145.96 573.31 1140.83 571.34 C 1134.75 568.41 1128.33 565.13 1124.85 559.06 C 1120.96 562.26 1115.82 561.29 1111.21 561.14 C 1112.17 560.35 1113.19 559.56 1114.16 558.75 Z" />
<path fill="#f1ad24" d=" M 41.61 559.52 C 51.87 557.04 62.47 557.15 72.96 557.11 C 82.39 557.05 91.61 559.40 100.99 559.98 C 107.82 560.61 114.67 560.35 121.51 560.27 C 121.26 570.98 117.62 581.30 117.65 592.04 C 117.70 595.13 117.41 598.24 116.53 601.21 C 99.80 600.56 83.10 601.49 66.39 602.08 C 56.74 601.52 46.98 601.41 37.54 603.80 C 37.37 603.15 37.05 601.86 36.89 601.21 C 37.24 590.39 38.76 579.62 38.87 568.78 L 38.95 568.06 C 39.28 565.07 39.76 561.99 41.61 559.52 Z" />
<path fill="#5b554f" d=" M 1102.91 558.43 C 1106.64 558.92 1110.40 558.76 1114.16 558.75 C 1113.19 559.56 1112.17 560.35 1111.21 561.14 C 1108.44 561.62 1105.61 561.18 1102.90 560.68 L 1103.27 560.59 C 1103.75 560.47 1104.69 560.24 1105.17 560.12 C 1104.40 559.55 1103.65 558.98 1102.91 558.43 Z" />
<path fill="#f4f3ef" d=" M 38.95 568.06 C 39.77 565.29 38.31 560.85 41.61 559.52 C 39.76 561.99 39.28 565.07 38.95 568.06 Z" />
<path fill="#0a0909" d=" M 204.58 561.20 C 210.35 561.34 216.17 561.35 221.89 562.15 C 224.08 562.67 227.79 563.07 227.77 566.03 C 227.83 577.03 227.66 588.04 227.21 599.03 C 226.97 600.48 226.57 601.92 226.22 603.37 C 219.96 603.98 213.66 603.12 207.38 603.09 C 204.81 602.64 201.70 603.10 199.74 601.05 C 199.06 599.03 200.15 597.04 200.57 595.11 C 202.17 589.89 201.92 584.35 203.10 579.06 C 204.41 573.19 204.43 567.17 204.58 561.20 Z" />
<path fill="#f1ad24" d=" M 206.78 563.55 C 212.75 564.11 219.14 563.48 224.71 566.04 C 224.96 573.68 224.37 581.34 225.08 588.96 C 225.48 592.87 224.96 596.79 224.33 600.65 C 217.08 600.36 209.79 600.53 202.59 599.49 C 204.59 593.23 205.29 586.64 205.26 580.09 C 205.19 574.53 206.24 569.06 206.78 563.55 Z" />
<path fill="#0a0909" d=" M 290.04 565.65 C 295.36 565.41 300.96 563.69 306.13 565.76 C 308.26 566.59 308.00 569.18 308.13 571.05 C 308.11 575.37 308.61 579.68 308.57 584.01 C 308.38 590.48 310.51 596.69 311.23 603.06 C 311.20 605.02 310.34 607.53 308.12 607.92 C 304.86 608.98 301.38 608.45 298.03 608.54 C 292.53 608.41 286.79 609.57 281.55 607.37 C 279.72 603.38 281.52 599.11 282.19 595.09 C 283.45 585.65 281.67 576.09 282.78 566.65 C 285.16 566.05 287.58 565.68 290.04 565.65 Z" />
<path fill="#0a0909" d=" M 241.40 587.94 C 241.88 580.53 240.73 573.09 241.63 565.69 C 248.43 565.97 255.23 565.62 262.04 565.74 C 264.43 565.71 266.77 566.56 268.52 568.21 C 268.29 578.83 268.72 589.44 268.73 600.06 C 268.80 601.97 268.18 603.79 267.34 605.48 C 260.98 606.92 254.44 606.02 247.99 606.26 C 245.45 606.41 242.97 605.80 240.53 605.19 C 239.65 599.43 241.20 593.69 241.40 587.94 Z" />
<path fill="#f1ad24" d=" M 284.48 569.08 C 291.24 568.55 298.02 566.74 304.80 568.16 C 305.84 577.42 304.84 586.89 307.01 596.02 C 307.59 598.81 308.01 601.63 308.39 604.45 C 306.33 605.13 304.19 605.61 302.01 605.54 C 295.88 605.44 289.73 605.92 283.61 605.30 C 283.60 599.20 284.76 593.13 284.02 587.03 C 284.03 581.05 284.54 575.07 284.48 569.08 Z" />
<path fill="#5b554f" d=" M 36.91 571.52 C 37.58 570.61 38.24 569.70 38.87 568.78 C 38.76 579.62 37.24 590.39 36.89 601.21 C 36.29 599.45 35.59 597.73 34.96 596.00 C 35.90 587.89 36.77 579.71 36.91 571.52 Z" />
<path fill="#f1ad24" d=" M 242.80 603.19 C 243.21 591.50 241.61 579.60 244.42 568.11 C 251.43 568.06 258.45 568.01 265.42 568.85 C 265.78 574.88 265.24 580.96 266.02 586.97 C 266.73 592.20 266.25 597.50 265.53 602.71 C 258.01 603.69 250.36 603.43 242.80 603.19 Z" />
<path fill="#5b554f" d=" M 1153.77 572.78 C 1157.66 572.77 1161.56 572.87 1165.46 572.69 C 1162.94 573.62 1160.34 574.30 1157.78 575.06 L 1157.29 575.20 L 1156.87 574.90 C 1155.83 574.16 1154.83 573.44 1153.77 572.78 Z" />
<path fill="#0a0909" d=" M 1182.13 574.30 C 1184.81 571.84 1188.72 572.31 1192.08 572.35 C 1196.59 572.39 1201.46 574.13 1204.08 577.98 C 1205.42 580.93 1204.29 584.29 1203.19 587.14 C 1198.36 590.13 1191.97 589.99 1186.80 588.08 C 1183.06 586.79 1183.34 582.36 1180.90 579.89 C 1179.50 578.16 1180.57 575.56 1182.13 574.30 Z" />
<path fill="#0a0909" d=" M 178.68 574.18 C 182.32 575.22 186.38 576.59 188.67 579.81 C 188.25 580.39 187.40 581.55 186.98 582.13 C 183.86 583.40 180.70 584.72 177.29 584.91 C 177.30 584.03 177.32 582.26 177.33 581.38 C 172.87 581.24 168.41 581.37 163.96 581.68 C 154.70 582.94 145.32 582.10 136.01 582.23 C 134.54 582.30 133.20 581.90 131.98 581.04 C 135.75 577.89 140.69 580.32 145.00 580.48 C 152.70 580.87 160.45 580.93 168.14 580.33 C 171.52 579.75 174.94 579.52 178.36 579.36 C 178.44 577.62 178.54 575.90 178.68 574.18 Z" />
<path fill="#f4f3ef" d=" M 1182.94 578.24 C 1184.29 575.64 1187.14 574.57 1189.99 574.81 C 1194.08 575.17 1198.95 575.77 1201.49 579.44 C 1202.20 582.11 1201.58 585.96 1198.20 586.20 C 1194.31 586.28 1189.84 586.96 1186.60 584.31 C 1184.79 582.77 1185.53 580.16 1185.31 578.12 C 1184.72 578.15 1183.53 578.21 1182.94 578.24 Z" />
<path fill="#5b554f" d=" M 1058.61 586.03 C 1060.06 582.89 1061.18 578.92 1064.87 577.75 C 1068.32 577.10 1072.29 577.57 1075.12 579.81 C 1077.70 582.04 1075.55 585.72 1073.62 587.62 C 1070.55 590.55 1065.85 593.62 1061.61 591.28 C 1059.45 590.43 1059.32 587.88 1058.61 586.03 Z" />
<path fill="#f4f3ef" d=" M 1060.38 588.20 C 1061.75 585.37 1061.85 581.33 1065.03 579.83 C 1068.37 578.69 1071.95 579.98 1074.87 581.67 C 1073.74 585.97 1070.08 588.96 1066.02 590.36 C 1063.79 591.16 1062.01 589.38 1060.38 588.20 Z" />
<path fill="#5b554f" d=" M 233.31 588.68 C 230.70 587.85 231.48 583.65 234.12 583.58 C 235.81 583.25 236.63 585.08 237.77 585.95 C 236.82 587.43 235.45 589.74 233.31 588.68 Z" />
<path fill="#5b554f" d=" M 272.57 584.59 C 274.58 581.92 278.97 585.26 276.72 587.83 C 274.87 590.45 270.47 587.41 272.57 584.59 Z" />
<path fill="#0a0909" d=" M 1163.14 593.12 C 1167.17 592.08 1171.96 592.23 1175.51 594.66 C 1178.61 597.48 1177.74 602.62 1175.65 605.82 C 1173.73 608.41 1171.61 611.39 1168.27 612.15 C 1163.97 612.88 1158.29 610.04 1158.69 605.10 C 1159.26 600.98 1158.41 595.04 1163.14 593.12 Z" />
<path fill="#f4f3ef" d=" M 1162.69 596.61 C 1165.92 594.97 1169.87 595.31 1173.12 596.76 C 1175.10 597.79 1174.58 600.27 1174.20 602.07 C 1173.21 605.09 1171.06 608.00 1168.06 609.24 C 1165.69 609.42 1162.32 608.85 1161.68 606.14 C 1161.34 602.92 1162.10 599.75 1162.69 596.61 Z" />
<path fill="#5b554f" d=" M 1050.74 596.63 C 1054.20 595.82 1059.03 595.92 1060.60 599.79 C 1059.39 602.85 1058.66 606.57 1055.70 608.49 C 1052.92 610.26 1049.59 608.93 1046.67 608.38 C 1046.30 606.55 1045.94 604.72 1045.59 602.90 C 1046.74 600.45 1047.81 597.41 1050.74 596.63 Z" />
<path fill="#5b554f" d=" M 1098.36 597.48 C 1098.86 597.43 1099.87 597.34 1100.37 597.30 C 1099.23 610.83 1098.94 624.48 1100.26 638.01 C 1100.60 642.83 1101.96 647.50 1103.25 652.14 C 1105.45 652.86 1107.52 653.88 1109.58 654.97 C 1110.39 653.03 1111.08 651.05 1111.68 649.04 C 1105.31 644.43 1105.65 635.57 1107.95 628.88 C 1109.13 626.06 1110.67 622.63 1114.02 621.99 C 1112.02 625.14 1109.32 628.05 1108.78 631.90 C 1108.15 636.42 1107.57 641.64 1110.64 645.46 C 1111.23 646.67 1112.61 646.90 1113.86 646.87 C 1118.42 642.30 1121.53 635.61 1120.19 629.07 C 1118.79 626.64 1115.00 627.12 1114.00 624.37 C 1117.22 624.45 1120.98 625.55 1122.23 628.88 C 1123.35 636.22 1120.09 643.75 1114.56 648.54 C 1112.48 650.26 1112.21 653.17 1111.15 655.50 C 1114.21 657.85 1117.94 661.36 1122.06 659.09 C 1136.43 648.99 1144.49 632.40 1149.11 615.88 C 1149.78 614.50 1149.51 611.66 1151.74 612.20 C 1152.17 613.50 1152.15 614.82 1151.66 616.14 C 1147.00 632.95 1138.45 649.47 1123.99 659.82 C 1121.97 661.35 1119.39 661.41 1116.99 661.51 C 1115.00 665.83 1113.59 670.38 1111.73 674.75 C 1108.40 683.09 1109.40 692.22 1109.19 700.98 C 1109.34 705.31 1108.59 709.79 1109.98 713.99 C 1108.40 718.86 1107.50 723.90 1106.83 728.97 C 1104.91 738.50 1104.07 748.35 1105.27 758.03 C 1104.24 762.03 1102.00 765.71 1101.35 769.88 C 1100.88 769.75 1099.93 769.50 1099.45 769.38 C 1100.46 765.52 1101.78 761.76 1103.48 758.17 C 1101.76 748.13 1103.16 737.83 1105.21 727.94 C 1105.95 722.78 1107.03 717.66 1108.83 712.76 C 1103.70 712.48 1098.47 712.52 1093.47 711.22 C 1091.96 710.94 1092.32 709.17 1092.16 708.08 C 1092.13 700.90 1091.75 693.67 1092.74 686.54 C 1094.09 679.35 1095.66 672.13 1098.34 665.30 C 1099.56 662.05 1101.80 659.27 1102.92 655.98 C 1100.56 648.85 1098.23 641.63 1097.88 634.07 C 1097.16 621.91 1096.37 609.54 1098.36 597.48 Z" />
<path fill="#5b554f" d=" M 1024.38 599.72 C 1024.79 599.47 1025.60 598.97 1026.01 598.73 C 1022.24 614.48 1025.56 631.66 1034.68 645.02 C 1037.72 645.66 1040.67 646.66 1043.62 647.64 C 1044.39 645.47 1045.06 643.26 1045.75 641.08 C 1043.55 639.74 1040.88 638.57 1039.86 636.03 C 1038.61 629.60 1041.50 623.34 1045.08 618.17 C 1047.36 618.01 1049.64 617.61 1051.95 617.61 C 1056.43 618.79 1059.18 623.54 1058.88 628.02 C 1058.70 632.40 1057.81 637.39 1054.14 640.25 C 1052.45 641.69 1050.08 641.22 1048.06 641.46 C 1047.30 643.78 1046.58 646.11 1045.92 648.46 C 1048.58 649.08 1051.29 649.58 1054.02 649.99 C 1058.22 646.55 1062.41 642.99 1065.69 638.63 C 1070.90 630.86 1076.34 623.04 1078.74 613.85 C 1080.01 611.24 1079.60 607.09 1082.85 606.00 C 1081.28 616.33 1076.99 626.19 1070.69 634.52 C 1066.73 641.41 1060.59 646.57 1054.61 651.63 C 1053.21 655.22 1053.69 659.42 1051.86 662.96 C 1046.05 676.69 1046.97 691.85 1044.11 706.23 C 1043.65 706.47 1042.73 706.95 1042.27 707.19 C 1036.10 706.03 1029.82 705.55 1023.57 705.44 C 1023.37 704.85 1022.96 703.68 1022.76 703.09 C 1026.50 690.63 1027.85 677.68 1030.82 665.05 C 1032.17 659.46 1033.17 653.78 1034.72 648.24 C 1028.29 638.64 1023.09 627.74 1022.63 616.01 C 1022.53 610.59 1021.68 604.67 1024.38 599.72 Z" />
<path fill="#f4f3ef" d=" M 1050.19 598.93 C 1052.74 597.47 1055.77 598.46 1058.50 598.75 C 1057.95 601.87 1057.45 605.61 1054.46 607.40 C 1052.22 608.09 1049.85 607.41 1047.59 607.22 C 1047.09 604.24 1047.85 600.96 1050.19 598.93 Z" />
<path fill="#f4f3ef" d=" M 66.39 602.08 C 83.10 601.49 99.80 600.56 116.53 601.21 C 107.04 601.93 97.51 601.36 88.03 602.07 C 80.82 602.31 73.60 602.30 66.39 602.08 Z" />
<path fill="#0a0909" d=" M 392.23 603.22 C 392.78 603.23 393.87 603.23 394.41 603.23 C 394.84 604.17 395.29 605.10 395.75 606.04 L 395.33 606.31 C 395.88 608.16 396.50 610.00 397.14 611.84 C 397.00 616.09 397.36 620.36 398.25 624.53 C 402.59 619.08 407.57 614.16 411.55 608.43 C 407.80 607.35 404.02 606.38 400.19 605.65 C 398.14 604.76 396.00 604.02 394.03 602.98 C 396.93 601.50 400.04 602.63 402.91 603.43 C 406.26 604.50 409.79 604.70 413.16 605.70 C 413.28 607.30 413.66 608.89 413.54 610.50 C 411.76 613.53 409.40 616.18 407.12 618.84 C 411.43 618.29 415.64 617.13 419.93 616.47 C 432.58 615.36 445.29 616.90 457.96 615.97 C 461.77 615.91 465.75 615.42 469.45 616.55 C 469.80 616.99 470.50 617.88 470.85 618.32 C 464.27 619.46 457.59 618.22 450.97 618.22 C 441.64 618.15 432.31 618.47 422.98 618.35 C 417.35 618.20 411.96 620.03 406.70 621.83 C 411.53 627.21 419.40 628.43 426.28 627.89 C 434.13 626.78 442.12 628.15 449.95 626.70 C 460.74 625.12 471.67 626.22 482.52 625.45 C 482.51 626.43 482.49 627.42 482.48 628.41 C 472.00 628.96 461.49 628.18 451.02 629.00 C 445.36 629.75 439.64 629.69 433.95 629.76 C 428.62 629.74 423.31 631.16 417.99 630.23 C 412.67 629.23 407.33 627.12 403.65 623.00 C 400.91 624.97 399.78 629.57 395.60 628.67 C 391.36 632.05 387.17 635.45 383.48 639.42 C 381.72 641.55 376.70 642.58 378.89 646.05 C 378.46 650.87 378.45 655.71 378.07 660.54 C 377.10 655.01 376.84 649.39 377.24 643.80 C 376.65 644.53 376.06 645.26 375.47 646.00 C 372.80 649.32 369.80 652.92 365.30 653.53 C 364.84 660.16 364.22 666.85 365.18 673.47 C 365.86 682.88 365.08 692.37 366.28 701.75 C 365.80 704.87 365.77 708.19 364.80 711.15 L 364.15 711.25 L 363.50 710.97 C 363.25 706.65 363.99 702.26 362.87 698.03 C 362.28 688.68 362.55 679.27 363.41 669.95 C 363.26 663.94 363.92 657.77 362.37 651.90 L 361.44 650.73 C 362.81 648.71 364.81 647.30 366.81 645.98 C 366.19 643.73 365.86 641.41 365.68 639.10 C 360.86 638.40 356.04 635.69 354.01 631.11 C 353.26 628.46 353.68 625.60 352.78 622.97 C 351.77 620.36 353.64 618.04 355.58 616.54 C 361.39 616.40 367.99 617.41 371.86 622.22 C 376.44 627.28 373.99 635.68 368.77 639.31 C 368.78 640.98 368.81 642.66 368.86 644.35 C 370.74 643.09 372.57 641.77 374.37 640.42 C 374.41 639.83 374.48 638.65 374.52 638.05 C 379.41 633.32 383.55 627.75 386.53 621.62 C 388.21 618.26 391.21 615.87 393.29 612.80 C 393.57 609.60 392.33 606.43 392.23 603.22 Z" />
<path fill="#0a0909" d=" M 273.97 606.26 C 274.53 606.26 275.66 606.24 276.23 606.24 C 277.95 615.96 284.13 623.98 289.12 632.24 L 289.39 634.11 C 286.31 630.90 284.14 626.99 281.79 623.26 C 278.51 617.95 275.09 612.49 273.97 606.26 Z" />
<path fill="#cd4c0b" d=" M 395.75 606.04 C 397.20 605.68 398.68 605.54 400.19 605.65 C 404.02 606.38 407.80 607.35 411.55 608.43 C 407.57 614.16 402.59 619.08 398.25 624.53 C 397.36 620.36 397.00 616.09 397.14 611.84 C 396.50 610.00 395.88 608.16 395.33 606.31 L 395.75 606.04 Z" />
<path fill="#0a0909" d=" M 1131.55 606.79 C 1134.53 606.14 1137.63 606.15 1140.26 607.93 C 1141.92 611.66 1141.30 615.98 1139.72 619.63 C 1137.86 623.43 1131.62 621.66 1130.59 618.08 C 1130.04 615.31 1131.42 612.73 1132.31 610.21 C 1131.33 609.27 1131.51 607.98 1131.55 606.79 Z" />
<path fill="#0a0909" d=" M 220.28 620.31 C 223.38 616.59 225.53 611.94 229.60 609.12 C 230.53 612.73 226.67 614.42 224.95 616.98 C 220.42 622.94 215.24 628.40 211.04 634.60 C 210.62 634.59 209.77 634.55 209.35 634.54 C 209.38 634.14 209.44 633.35 209.47 632.96 C 213.90 629.53 216.71 624.55 220.28 620.31 Z" />
<path fill="#0a0909" d=" M 271.15 609.71 C 271.48 609.66 272.16 609.56 272.50 609.52 C 272.09 615.78 272.55 622.05 273.71 628.22 C 274.12 629.27 274.49 630.35 274.85 631.44 C 274.25 631.48 273.04 631.55 272.44 631.58 C 272.33 630.03 272.24 628.48 272.13 626.94 C 271.34 623.05 270.89 619.10 270.18 615.20 C 267.07 622.80 263.48 630.41 257.69 636.37 C 257.21 636.54 256.25 636.86 255.78 637.02 C 261.42 629.96 266.62 622.18 268.00 613.02 C 269.17 612.04 270.25 610.95 271.15 609.71 Z" />
<path fill="#f4f3ef" d=" M 1136.04 609.51 C 1136.42 609.50 1137.17 609.49 1137.54 609.49 C 1138.75 612.50 1137.80 615.67 1137.18 618.69 C 1135.92 618.59 1134.68 618.48 1133.45 618.36 C 1133.19 615.14 1134.74 612.32 1136.04 609.51 Z" />
<path fill="#0a0909" d=" M 234.04 611.32 C 234.60 611.28 235.73 611.21 236.29 611.17 C 238.13 617.49 240.77 623.62 244.32 629.18 C 243.43 629.09 241.82 630.10 241.66 628.60 C 239.33 622.75 235.45 617.52 234.04 611.32 Z" />
<path fill="#0a0909" d=" M 231.33 627.13 C 232.12 623.68 229.91 618.43 233.85 616.54 C 233.73 621.00 232.88 625.38 232.30 629.79 C 231.78 629.73 230.74 629.60 230.22 629.53 C 230.58 628.72 230.95 627.92 231.33 627.13 Z" />
<path fill="#f4f3ef" d=" M 384.14 631.01 C 387.95 626.59 389.57 620.59 394.20 616.83 C 394.57 619.68 394.91 622.56 394.65 625.44 C 391.21 628.76 387.28 631.53 384.01 635.01 C 382.52 636.57 380.86 637.97 379.07 639.17 C 379.36 635.77 382.35 633.66 384.14 631.01 Z" />
<path fill="#f4f3ef" d=" M 1042.37 628.80 C 1043.45 624.81 1045.22 620.45 1049.26 618.66 C 1052.15 620.07 1055.66 621.53 1056.40 625.08 C 1057.11 629.86 1056.46 636.15 1051.96 638.95 C 1048.79 639.70 1044.98 638.80 1042.70 636.36 C 1041.01 634.16 1041.99 631.25 1042.37 628.80 Z" />
<path fill="#f4f3ef" d=" M 356.54 619.39 C 362.12 619.29 368.60 621.18 371.09 626.66 C 371.92 630.28 370.16 633.80 368.04 636.62 C 363.56 636.09 358.22 634.32 356.66 629.63 C 356.47 626.23 354.89 622.63 356.54 619.39 Z" />
<path fill="#5b554f" d=" M 414.25 623.05 C 414.31 621.43 415.91 620.47 416.76 619.26 C 418.74 620.08 421.61 621.44 420.68 624.12 C 420.29 626.49 417.34 626.34 415.55 626.73 C 415.07 625.52 414.44 624.34 414.25 623.05 Z" />
<path fill="#5b554f" d=" M 941.98 644.10 C 946.91 637.16 951.92 630.18 958.12 624.30 C 959.18 625.34 960.23 626.42 961.21 627.57 C 960.66 627.51 959.55 627.40 958.99 627.34 C 953.45 631.01 950.35 637.20 945.79 641.89 C 945.56 642.19 945.12 642.77 944.89 643.06 C 944.59 643.49 944.00 644.33 943.70 644.75 C 946.82 645.05 949.95 645.32 953.10 645.38 C 945.05 646.24 936.89 646.30 928.96 648.05 C 926.82 648.53 924.62 648.71 922.44 648.76 C 922.53 648.30 922.72 647.37 922.82 646.91 C 929.17 645.75 935.49 644.32 941.98 644.10 Z" />
<path fill="#cd4c0b" d=" M 945.79 641.89 C 950.35 637.20 953.45 631.01 958.99 627.34 C 961.83 631.60 963.54 636.44 965.03 641.31 C 958.28 642.23 951.56 643.47 944.75 643.79 L 945.79 641.89 Z" />
<path fill="#0a0909" d=" M 958.99 627.34 C 959.55 627.40 960.66 627.51 961.21 627.57 C 963.01 630.45 964.26 633.62 965.17 636.89 C 965.94 638.71 966.79 640.49 967.65 642.29 C 966.94 642.50 965.51 642.91 964.80 643.12 C 962.00 643.81 959.23 644.62 956.43 645.25 C 955.31 645.36 954.20 645.40 953.10 645.38 C 949.95 645.32 946.82 645.05 943.70 644.75 C 944.00 644.33 944.59 643.49 944.89 643.06 C 945.12 642.77 945.56 642.19 945.79 641.89 L 944.75 643.79 C 951.56 643.47 958.28 642.23 965.03 641.31 C 963.54 636.44 961.83 631.60 958.99 627.34 Z" />
<path fill="#f4f3ef" d=" M 363.90 651.15 C 367.24 648.50 371.01 646.42 374.05 643.39 C 371.18 646.52 368.44 650.49 363.90 651.15 Z" />
<path fill="#5b554f" d=" M 956.43 645.25 C 959.23 644.62 962.00 643.81 964.80 643.12 C 968.53 643.19 972.27 643.25 975.99 643.70 C 977.59 643.73 978.75 645.37 978.59 646.92 C 978.79 651.02 975.06 654.69 971.00 654.56 C 959.65 654.70 948.30 654.51 936.96 654.63 C 930.50 654.69 924.14 656.09 917.69 656.19 C 918.11 652.99 921.73 653.93 923.98 653.52 C 937.61 651.64 951.39 652.61 965.10 652.40 C 968.15 652.14 971.75 653.21 974.34 651.10 C 975.95 649.94 976.21 647.83 976.78 646.09 C 970.05 644.93 963.20 645.90 956.43 645.25 Z" />
<path fill="#5b554f" d=" M 375.47 646.00 C 376.06 645.26 376.65 644.53 377.24 643.80 C 376.84 649.39 377.10 655.01 378.07 660.54 C 378.51 667.65 377.73 674.81 378.51 681.92 C 378.85 686.67 380.92 691.25 380.11 696.07 C 379.28 690.17 378.33 684.28 377.21 678.43 C 376.46 683.93 376.83 689.50 377.74 694.96 C 377.43 695.14 376.80 695.48 376.49 695.65 C 377.17 690.73 375.43 685.88 375.96 680.95 C 376.64 673.32 376.27 665.66 376.48 658.02 C 376.46 654.00 376.72 649.88 375.47 646.00 Z" />
<path fill="#0a0909" d=" M 441.96 646.61 C 447.30 645.75 452.74 646.60 457.98 647.69 C 459.45 647.99 460.94 648.81 461.43 650.33 C 462.77 654.13 461.55 658.12 461.76 662.03 C 461.56 666.48 461.94 670.99 461.34 675.40 C 460.67 675.54 459.33 675.80 458.65 675.94 C 458.21 667.55 461.09 659.04 458.53 650.80 C 453.57 649.73 448.54 649.04 443.46 649.18 C 443.49 654.93 443.17 660.71 441.79 666.32 C 441.54 666.46 441.02 666.75 440.77 666.90 C 440.23 670.45 439.66 674.00 439.07 677.55 C 450.12 676.65 461.11 678.77 472.17 678.51 L 472.67 678.55 C 472.74 679.10 472.88 680.20 472.95 680.74 C 463.62 680.69 454.28 680.73 444.98 679.81 C 436.61 679.82 428.22 679.53 419.86 680.01 C 417.63 680.19 415.41 680.26 413.19 680.42 C 412.81 680.61 412.05 680.98 411.67 681.17 C 410.62 681.72 409.47 682.36 409.12 683.59 C 414.02 687.27 420.79 685.57 426.46 685.34 L 425.23 686.87 C 420.27 688.13 414.92 688.87 409.90 687.54 C 407.46 686.96 405.39 684.63 406.36 682.02 C 407.63 679.52 410.53 678.38 413.10 677.73 C 419.72 677.15 426.37 677.22 433.01 677.13 C 434.48 677.16 435.96 677.21 437.44 677.27 C 437.43 671.37 440.30 665.93 440.39 660.05 C 440.48 656.26 440.34 652.47 440.53 648.68 C 440.89 648.16 441.60 647.12 441.96 646.61 Z" />
<path fill="#0a0909" d=" M 745.60 646.83 C 753.49 645.06 761.88 651.89 761.56 660.03 C 761.89 668.36 753.07 675.31 745.04 673.05 C 737.77 671.54 732.89 663.17 735.36 656.13 C 736.67 651.39 740.81 647.80 745.60 646.83 Z" />
<path fill="#0a0909" d=" M 552.12 647.11 C 559.20 644.57 567.60 650.43 567.69 657.93 C 568.49 665.60 560.49 672.34 553.05 670.43 C 546.47 669.10 541.98 661.72 544.05 655.29 C 545.12 651.38 548.26 648.27 552.12 647.11 Z" />
<path fill="#f4f3ef" d=" M 1036.12 646.94 C 1038.83 648.11 1043.74 647.75 1042.85 652.09 C 1043.47 651.61 1044.73 650.65 1045.36 650.17 C 1047.63 650.59 1049.90 651.04 1052.18 651.48 C 1052.79 657.10 1050.08 662.14 1048.33 667.28 C 1044.16 679.44 1044.73 692.45 1042.36 704.96 C 1036.42 704.73 1030.55 703.67 1024.61 703.48 C 1026.00 697.64 1027.80 691.90 1028.96 686.01 C 1030.99 673.54 1034.44 661.36 1036.86 648.97 C 1036.67 648.46 1036.30 647.45 1036.12 646.94 Z" />
<path fill="#5b554f" d=" M 968.46 648.11 C 969.35 646.43 971.87 648.18 970.78 649.67 C 969.86 651.32 967.41 649.56 968.46 648.11 Z" />
<path fill="#f1ad24" d=" M 443.46 649.18 C 448.54 649.04 453.57 649.73 458.53 650.80 C 461.09 659.04 458.21 667.55 458.65 675.94 C 458.49 676.31 458.15 677.07 457.99 677.44 C 451.99 677.15 446.01 676.60 440.00 676.79 C 440.49 673.47 441.06 670.17 441.69 666.88 C 441.71 666.74 441.77 666.46 441.79 666.32 C 443.17 660.71 443.49 654.93 443.46 649.18 Z" />
<path fill="#0a0909" d=" M 703.36 659.20 C 703.25 656.40 705.27 654.95 707.79 654.58 C 710.61 656.70 714.01 657.71 717.16 659.19 C 717.28 659.67 717.52 660.63 717.63 661.11 C 714.08 664.86 708.58 665.90 703.68 666.61 C 702.85 665.25 702.88 663.65 702.77 662.13 C 694.74 662.15 686.69 662.48 678.71 661.47 C 668.16 661.27 657.61 661.53 647.07 661.23 C 632.05 661.25 617.04 661.86 602.02 661.71 C 593.62 661.60 585.16 662.24 576.80 661.31 C 577.00 660.67 577.40 659.39 577.61 658.75 C 589.42 658.70 601.22 659.30 613.03 659.13 C 619.69 658.76 626.35 658.32 633.02 658.44 C 648.99 658.84 664.98 658.10 680.96 658.60 C 688.39 659.57 695.89 659.09 703.36 659.20 Z" />
<path fill="#f4f3ef" d=" M 1105.82 654.87 C 1109.13 656.59 1112.44 658.37 1115.45 660.62 C 1113.28 666.10 1110.90 671.51 1108.87 677.04 C 1105.82 688.04 1107.07 699.57 1106.69 710.84 C 1102.54 710.48 1098.39 710.10 1094.28 709.53 C 1094.45 702.39 1094.03 695.21 1094.73 688.09 C 1096.26 679.42 1097.65 670.54 1101.43 662.51 C 1102.58 659.77 1105.09 657.80 1105.82 654.87 Z" />
<path fill="#0a0909" d=" M 212.92 661.16 C 213.46 661.21 214.53 661.31 215.07 661.36 C 215.63 665.92 216.52 670.42 217.04 674.99 C 217.22 679.00 217.70 682.99 218.58 686.92 C 215.38 687.00 215.54 683.31 215.47 681.04 C 215.54 674.33 214.83 667.61 212.92 661.16 Z" />
<path fill="#5b554f" d=" M 440.77 666.90 C 441.02 666.75 441.54 666.46 441.79 666.32 C 441.77 666.46 441.71 666.74 441.69 666.88 C 441.06 670.17 440.49 673.47 440.00 676.79 C 446.01 676.60 451.99 677.15 457.99 677.44 C 462.73 677.55 467.52 677.42 472.17 678.51 C 461.11 678.77 450.12 676.65 439.07 677.55 C 439.66 674.00 440.23 670.45 440.77 666.90 Z" />
<path fill="#0a0909" d=" M 200.35 667.11 C 204.72 671.91 208.85 676.92 213.71 681.25 C 213.62 681.93 213.44 683.31 213.35 683.99 C 208.46 679.71 204.81 674.24 200.49 669.44 C 200.45 668.85 200.39 667.69 200.35 667.11 Z" />
<path fill="#0a0909" d=" M 270.60 668.61 C 270.97 668.37 271.71 667.89 272.08 667.65 C 270.68 673.73 266.78 679.01 266.03 685.29 C 268.86 681.19 271.60 677.01 273.96 672.63 C 274.37 672.59 275.18 672.51 275.59 672.47 C 275.57 672.91 275.54 673.80 275.52 674.24 C 270.79 680.00 267.24 686.67 264.05 693.38 C 263.58 693.51 262.63 693.78 262.16 693.92 C 262.69 690.75 262.12 687.38 263.60 684.42 C 265.94 679.16 268.01 673.75 270.60 668.61 Z" />
<path fill="#0a0909" d=" M 928.67 673.78 C 930.31 672.03 932.85 672.49 935.00 672.32 C 947.45 672.29 960.03 670.30 972.40 672.50 L 972.41 672.82 C 972.93 678.02 971.84 683.13 970.85 688.20 C 970.65 689.36 970.48 690.53 970.34 691.70 C 969.89 691.64 968.99 691.50 968.54 691.43 C 969.57 685.53 971.12 679.66 970.78 673.63 C 957.26 673.06 943.70 673.35 930.22 674.38 C 929.20 680.35 929.16 686.41 929.15 692.46 L 927.65 692.78 C 926.92 686.42 927.90 680.07 928.67 673.78 Z" />
<path fill="#f1ad24" d=" M 930.22 674.38 C 943.70 673.35 957.26 673.06 970.78 673.63 C 971.12 679.66 969.57 685.53 968.54 691.43 C 956.96 692.13 945.27 690.91 933.79 692.89 C 932.54 693.03 931.30 693.18 930.08 693.33 L 929.40 693.09 L 929.15 692.46 C 929.16 686.41 929.20 680.35 930.22 674.38 Z" />
<path fill="#f1ad24" d=" M 972.41 672.82 C 974.16 674.98 973.01 677.66 972.66 680.10 C 972.21 682.83 971.67 685.55 970.85 688.20 C 971.84 683.13 972.93 678.02 972.41 672.82 Z" />
<path fill="#0a0909" d=" M 58.68 675.81 C 59.83 676.45 60.66 677.39 61.16 678.63 C 72.76 678.03 84.38 678.52 95.99 678.29 C 97.79 678.46 100.29 677.77 101.25 679.82 C 103.02 682.93 102.24 686.59 102.20 689.99 C 102.05 698.32 102.14 706.65 102.28 714.99 C 102.35 717.11 101.80 719.19 101.29 721.25 C 95.32 722.76 89.12 721.95 83.04 722.25 C 76.18 722.04 69.16 723.14 62.48 721.08 C 62.39 720.36 62.21 718.93 62.11 718.21 C 67.37 719.16 72.69 719.60 78.03 719.44 C 84.69 719.25 91.41 720.01 98.03 719.04 C 99.65 717.90 99.02 715.64 99.29 713.98 C 99.31 703.12 99.81 692.23 98.98 681.39 C 86.27 681.32 73.58 680.23 60.87 680.89 C 60.31 693.29 60.69 705.70 61.34 718.09 L 61.38 719.07 C 60.66 719.21 59.21 719.47 58.48 719.60 C 57.96 711.40 58.85 703.18 58.68 694.97 C 59.04 688.58 57.83 682.17 58.68 675.81 Z" />
<path fill="#5b554f" d=" M 183.17 678.22 C 188.94 680.02 194.82 681.98 200.94 681.89 C 203.85 682.04 206.92 681.36 209.68 682.57 C 209.82 683.53 209.45 684.12 208.56 684.34 C 199.54 685.22 190.85 682.12 182.09 680.51 C 182.43 679.73 182.79 678.97 183.17 678.22 Z" />
<path fill="#0a0909" d=" M 222.87 678.76 C 228.22 678.31 233.60 678.78 238.96 678.78 C 245.44 678.95 251.92 678.49 258.39 678.89 C 258.58 679.54 258.97 680.85 259.17 681.51 C 258.72 681.53 257.82 681.58 257.37 681.61 C 249.57 681.78 241.76 681.76 233.96 681.39 C 231.70 681.36 229.29 681.14 227.20 682.15 C 226.80 683.91 228.82 685.00 229.63 686.37 C 234.01 691.39 237.21 697.33 241.96 702.05 C 248.25 696.98 253.06 690.30 256.66 683.11 L 258.35 682.04 C 259.87 686.27 255.81 689.42 253.56 692.46 C 249.84 696.24 247.38 701.25 243.03 704.39 C 239.73 705.65 238.02 701.84 236.19 699.87 C 232.16 693.99 227.66 688.47 223.29 682.85 C 224.23 682.59 225.06 682.13 225.79 681.48 C 224.61 680.86 220.64 681.00 222.87 678.76 Z" />
<path fill="#0a0909" d=" M 377.21 678.43 C 378.33 684.28 379.28 690.17 380.11 696.07 C 378.38 698.63 375.25 699.27 372.55 700.29 C 370.62 700.84 368.72 701.93 366.65 701.63 C 366.56 700.95 366.37 699.60 366.28 698.92 C 369.86 698.55 373.37 697.48 376.49 695.65 C 376.80 695.48 377.43 695.14 377.74 694.96 C 376.83 689.50 376.46 683.93 377.21 678.43 Z" />
<path fill="#cd4c0b" d=" M 60.87 680.89 C 73.58 680.23 86.27 681.32 98.98 681.39 C 99.81 692.23 99.31 703.12 99.29 713.98 C 99.02 715.64 99.65 717.90 98.03 719.04 C 91.41 720.01 84.69 719.25 78.03 719.44 C 72.69 719.60 67.37 719.16 62.11 718.21 C 61.92 718.18 61.53 718.12 61.34 718.09 C 60.69 705.70 60.31 693.29 60.87 680.89 Z" />
<path fill="#5b554f" d=" M 411.67 681.17 C 412.05 680.98 412.81 680.61 413.19 680.42 C 415.41 680.26 417.63 680.19 419.86 680.01 C 419.91 681.89 419.79 683.79 419.39 685.65 C 417.55 685.37 414.95 686.04 413.94 684.00 C 413.81 683.28 413.54 681.84 413.41 681.12 C 412.97 681.13 412.10 681.15 411.67 681.17 Z" />
<path fill="#0a0909" d=" M 267.31 691.69 C 274.00 689.10 280.19 685.45 286.21 681.60 C 286.29 682.36 286.38 683.12 286.47 683.90 C 279.66 686.37 274.44 692.06 267.42 693.99 C 267.39 693.42 267.34 692.26 267.31 691.69 Z" />
<path fill="#cd4c0b" d=" M 227.20 682.15 C 229.29 681.14 231.70 681.36 233.96 681.39 C 241.76 681.76 249.57 681.78 257.37 681.61 L 256.66 683.11 C 253.06 690.30 248.25 696.98 241.96 702.05 C 237.21 697.33 234.01 691.39 229.63 686.37 C 228.82 685.00 226.80 683.91 227.20 682.15 Z" />
<path fill="#0a0909" d=" M 431.00 684.46 C 450.48 683.39 470.02 682.99 489.53 683.57 C 489.48 684.56 489.43 685.56 489.39 686.56 C 472.93 685.97 456.46 686.64 440.00 686.19 C 435.18 685.53 430.37 686.20 425.57 686.62 C 426.28 684.06 429.09 684.85 431.00 684.46 Z" />
<path fill="#0a0909" d=" M 206.64 687.37 C 213.89 690.59 218.81 697.02 225.07 701.65 C 227.57 703.59 230.88 706.41 229.40 709.99 C 226.21 714.33 221.01 716.46 217.30 720.26 C 215.04 722.45 213.01 725.00 210.15 726.44 C 208.78 726.76 206.71 726.59 206.44 724.92 C 206.20 718.96 206.85 712.99 207.23 707.05 C 207.56 700.48 206.15 693.94 206.64 687.37 Z" />
<path fill="#cd4c0b" d=" M 208.74 691.99 C 211.82 693.94 214.53 696.39 217.13 698.93 C 219.85 701.59 223.22 703.48 225.92 706.15 C 226.77 706.82 226.92 708.28 226.11 709.05 C 223.26 712.27 219.37 714.33 216.42 717.46 C 214.19 719.82 211.80 722.04 209.05 723.79 C 208.33 713.20 207.97 702.58 208.74 691.99 Z" />
<path fill="#5b554f" d=" M 917.44 694.14 C 921.63 693.63 925.89 693.91 930.08 693.33 C 931.30 693.18 932.54 693.03 933.79 692.89 C 946.88 691.68 960.01 693.20 973.12 692.73 C 975.14 692.53 977.14 693.77 977.25 695.95 C 977.44 697.77 978.34 700.84 976.01 701.64 C 970.59 703.52 964.70 703.06 959.07 703.65 C 949.73 704.57 940.33 704.22 930.96 704.30 C 927.83 704.19 924.62 704.49 921.56 703.72 C 921.47 703.22 921.29 702.23 921.20 701.73 C 939.30 701.78 957.62 702.75 975.53 699.57 C 975.28 698.10 975.03 696.63 974.80 695.18 C 962.50 695.56 950.24 694.07 937.95 694.95 C 931.11 695.28 924.31 696.05 917.48 696.34 C 917.47 695.79 917.45 694.69 917.44 694.14 Z" />
<path fill="#0a0909" d=" M 264.66 700.78 C 268.59 698.76 271.79 695.71 275.25 693.01 C 276.11 694.86 276.46 696.90 276.24 698.94 C 275.32 707.25 275.50 715.66 276.18 723.99 C 276.35 726.74 276.12 729.52 275.49 732.22 C 272.42 731.42 270.97 728.17 268.05 727.01 C 262.40 724.20 258.43 719.21 253.87 715.04 C 253.80 714.60 253.66 713.73 253.59 713.30 C 252.74 713.40 251.03 713.61 250.18 713.72 C 249.77 711.57 251.90 711.01 253.13 709.99 C 257.39 707.44 260.27 703.16 264.66 700.78 Z" />
<path fill="#0a0909" d=" M 156.59 698.25 C 157.48 696.77 158.06 694.51 160.04 694.20 C 163.77 693.91 168.07 697.19 166.70 701.25 C 163.94 702.47 161.09 703.68 158.02 703.61 C 157.51 702.67 156.99 701.74 156.48 700.83 C 150.60 700.75 144.72 700.39 138.84 700.47 C 137.33 700.82 136.22 699.65 135.01 699.03 C 137.31 699.25 139.65 699.32 141.94 698.93 C 146.82 698.56 151.70 698.42 156.59 698.25 Z" />
<path fill="#5b554f" d=" M 969.04 698.46 C 972.42 698.57 967.47 701.46 969.04 698.46 Z" />
<path fill="#cd4c0b" d=" M 271.88 699.81 C 272.27 699.52 273.06 698.95 273.46 698.66 C 274.10 708.04 273.61 717.43 273.30 726.81 C 270.19 724.84 266.83 723.28 263.89 721.07 C 260.50 718.45 258.51 713.87 253.93 713.01 C 259.18 708.82 263.66 703.41 270.12 700.98 C 270.56 700.69 271.44 700.10 271.88 699.81 Z" />
<path fill="#0a0909" d=" M 115.20 700.29 C 121.67 700.64 128.08 699.81 134.52 699.32 C 134.41 699.80 134.19 700.78 134.09 701.26 C 127.90 700.16 121.63 703.42 115.28 702.69 C 115.26 702.09 115.22 700.89 115.20 700.29 Z" />
<path fill="#5b554f" d=" M 270.10 700.06 L 271.01 699.45 L 271.88 699.81 C 271.44 700.10 270.56 700.69 270.12 700.98 L 270.10 700.06 Z" />
<path fill="#0a0909" d=" M 377.78 700.55 C 378.28 700.51 379.27 700.43 379.77 700.40 C 379.57 706.30 378.53 712.16 378.64 718.09 C 378.89 724.48 377.32 730.72 376.55 737.04 C 379.27 739.32 385.01 741.46 383.27 745.93 C 380.62 745.89 380.09 742.89 378.12 741.73 C 376.55 740.34 374.07 739.46 373.76 737.13 C 374.27 731.99 375.22 726.91 376.22 721.86 C 377.02 715.59 376.62 709.26 376.77 702.97 C 377.03 702.37 377.53 701.16 377.78 700.55 Z" />
<path fill="#5b554f" d=" M 1021.28 711.93 C 1021.46 709.30 1020.78 706.34 1022.55 704.11 C 1023.33 714.69 1022.39 725.33 1021.22 735.86 C 1020.46 742.00 1020.73 748.25 1019.50 754.33 C 1016.90 754.37 1013.06 756.75 1011.65 753.56 C 1013.73 753.24 1015.81 752.95 1017.91 752.68 C 1018.59 746.12 1018.51 739.51 1019.40 732.97 C 1020.36 725.99 1020.97 718.96 1021.28 711.93 Z" />
<path fill="#5b554f" d=" M 238.42 708.86 C 239.43 707.75 239.97 705.44 241.83 705.65 C 244.63 705.13 246.69 709.04 244.70 711.06 C 243.49 712.67 241.37 712.06 239.75 711.60 C 239.42 710.92 238.75 709.54 238.42 708.86 Z" />
<path fill="#5b554f" d=" M 1041.82 713.90 C 1041.62 712.70 1042.16 712.03 1043.44 711.89 C 1043.78 727.28 1044.05 742.71 1043.11 758.07 C 1039.65 760.72 1034.64 759.28 1030.60 760.43 L 1030.39 758.67 C 1034.05 758.11 1037.74 757.71 1041.44 757.39 C 1041.62 742.89 1041.97 728.40 1041.82 713.90 Z" />
<path fill="#0a0909" d=" M 362.85 713.18 C 363.11 713.19 363.63 713.20 363.89 713.21 C 364.05 713.52 364.36 714.14 364.52 714.45 C 364.16 724.04 361.46 733.47 362.34 743.11 C 363.09 746.94 367.66 748.86 367.89 752.91 C 367.26 752.80 366.01 752.60 365.38 752.49 C 363.07 749.94 360.41 747.36 359.32 744.04 C 358.90 737.95 359.09 731.73 360.81 725.83 C 362.05 721.71 362.62 717.45 362.85 713.18 Z" />
<path fill="#5b554f" d=" M 1089.80 718.74 C 1090.72 716.53 1091.45 713.89 1093.85 712.86 C 1091.14 719.84 1088.21 726.86 1087.59 734.42 C 1087.12 742.32 1086.87 750.30 1088.16 758.14 C 1085.69 761.42 1080.53 760.04 1076.94 760.18 C 1077.07 759.80 1077.34 759.04 1077.48 758.66 C 1080.29 758.22 1083.15 758.13 1085.98 757.78 C 1084.36 744.75 1084.65 731.01 1089.80 718.74 Z" />
<path fill="#0a0909" d=" M 233.85 723.95 C 237.19 721.45 239.35 717.64 242.92 715.45 C 245.71 714.98 246.98 717.89 248.14 719.87 C 251.13 725.79 253.69 731.93 256.98 737.69 C 258.00 739.20 258.25 741.68 256.19 742.44 C 251.75 743.01 247.37 741.71 242.93 741.67 C 236.53 741.61 230.11 741.52 223.72 741.17 C 223.38 740.50 222.70 739.17 222.36 738.50 C 233.03 738.80 243.69 739.65 254.38 739.80 C 250.74 732.61 247.79 725.09 243.89 718.04 C 240.07 721.17 236.38 724.47 232.64 727.71 C 229.13 730.80 226.62 734.86 223.05 737.89 C 222.39 738.06 221.05 738.38 220.39 738.54 C 219.52 736.65 221.44 735.60 222.51 734.50 C 226.30 730.99 229.69 727.04 233.85 723.95 Z" />
<path fill="#cd4c0b" d=" M 232.64 727.71 C 236.38 724.47 240.07 721.17 243.89 718.04 C 247.79 725.09 250.74 732.61 254.38 739.80 C 243.69 739.65 233.03 738.80 222.36 738.50 L 223.05 737.89 C 226.62 734.86 229.13 730.80 232.64 727.71 Z" />
<path fill="#0a0909" d=" M 189.36 725.40 C 194.93 728.11 200.10 731.67 205.99 733.71 C 205.82 734.22 205.48 735.22 205.31 735.73 C 200.35 732.50 194.60 730.80 189.43 727.97 C 189.41 727.33 189.38 726.04 189.36 725.40 Z" />
<path fill="#0a0909" d=" M 274.42 736.49 C 279.49 736.12 284.78 737.52 289.65 735.52 C 289.67 736.42 289.70 737.34 289.73 738.27 C 284.17 737.99 278.60 739.10 273.07 738.36 C 273.41 737.90 274.09 736.96 274.42 736.49 Z" />
<path fill="#0a0909" d=" M 263.19 737.18 L 264.08 735.70 C 265.80 739.59 265.20 743.89 265.28 748.02 C 265.31 753.99 265.22 759.96 265.31 765.94 C 264.86 765.89 263.97 765.80 263.52 765.75 C 263.93 756.24 263.50 746.67 263.19 737.18 Z" />
<path fill="#0a0909" d=" M 207.39 740.05 C 208.15 738.83 209.52 738.48 210.85 738.28 C 210.52 739.34 210.36 740.55 209.44 741.32 C 204.97 746.09 200.55 750.89 196.01 755.60 C 195.54 755.60 194.60 755.61 194.13 755.61 C 194.30 755.25 194.64 754.53 194.82 754.17 C 199.85 750.27 203.47 744.98 207.39 740.05 Z" />
<path fill="#0a0909" d=" M 214.65 740.70 C 215.15 740.64 216.15 740.52 216.65 740.47 C 216.93 745.63 215.35 750.64 215.30 755.78 C 214.81 756.01 213.81 756.47 213.31 756.70 C 214.12 751.40 214.51 746.06 214.65 740.70 Z" />
<path fill="#0a0909" d=" M 271.02 740.96 C 275.30 742.98 279.08 745.95 283.56 747.62 C 283.45 748.17 283.24 749.28 283.14 749.83 C 279.26 747.78 275.31 745.80 271.57 743.54 C 271.43 742.89 271.16 741.60 271.02 740.96 Z" />
<path fill="#0a0909" d=" M 212.94 756.44 C 213.48 757.01 214.03 757.59 214.57 758.18 C 213.69 761.09 213.05 764.17 211.31 766.73 C 210.75 766.15 210.20 765.59 209.65 765.03 C 211.93 762.70 213.00 759.68 212.94 756.44 Z" />
</svg>
