<?xml version="1.0" encoding="UTF-8" ?>
<!DOCTYPE svg PUBLIC "-//W3C//DTD SVG 1.1//EN" "http://www.w3.org/Graphics/SVG/1.1/DTD/svg11.dtd">
<svg width="1155pt" height="866pt" viewBox="0 0 1155 866" version="1.1" xmlns="http://www.w3.org/2000/svg">
<path fill="#f5f4f0" d=" M 0.00 0.00 L 1155.00 0.00 L 1155.00 866.00 L 0.00 866.00 L 0.00 0.00 Z" />
<path fill="#dd4e0c" d=" M 344.37 77.72 C 348.50 76.90 352.77 76.44 356.97 77.00 C 361.68 77.98 366.33 81.92 366.40 87.02 C 365.83 92.65 362.42 97.59 358.02 100.98 C 351.15 106.74 344.10 114.34 344.64 123.97 C 344.78 125.76 344.92 129.56 341.93 128.16 C 340.37 118.89 344.53 109.50 351.31 103.27 C 355.41 99.03 361.16 95.81 362.88 89.79 C 364.18 86.91 363.22 83.27 360.47 81.64 C 357.27 78.88 352.85 79.57 348.98 79.79 C 345.12 80.15 340.29 81.55 339.48 85.94 C 338.77 88.91 341.58 91.13 344.04 92.04 C 346.00 92.72 349.22 92.15 348.53 95.28 C 342.66 96.99 335.14 91.35 336.68 84.99 C 337.59 81.39 340.79 78.55 344.37 77.72 Z" />
<path fill="#dd4e0c" d=" M 300.47 81.79 C 300.50 79.92 302.56 80.49 303.73 80.34 C 302.87 85.82 301.46 91.19 300.21 96.59 C 303.60 96.63 306.99 96.64 310.38 96.64 C 311.35 91.76 311.34 86.78 311.83 81.85 C 312.53 81.80 313.93 81.69 314.63 81.64 C 314.96 86.69 314.02 91.69 313.32 96.67 C 316.96 96.79 320.59 96.48 324.23 96.53 C 325.93 98.93 322.44 99.23 321.02 99.32 C 318.26 99.48 315.49 99.42 312.73 99.47 C 312.00 102.85 311.20 106.22 310.42 109.59 C 314.20 109.38 317.99 109.23 321.78 109.21 C 321.80 109.78 321.85 110.90 321.87 111.46 C 317.87 112.07 313.77 111.85 309.77 112.57 C 308.62 117.50 307.69 122.48 306.53 127.41 C 306.55 129.40 304.42 130.23 303.52 128.22 C 304.93 123.11 306.08 117.94 306.96 112.72 C 302.93 112.72 298.90 112.62 294.88 112.74 C 293.78 117.72 292.74 122.71 291.45 127.64 C 291.24 129.28 288.60 130.52 288.46 128.07 C 289.93 122.95 291.42 117.81 292.09 112.51 C 288.42 112.16 284.67 111.86 281.22 110.44 C 281.35 109.46 281.48 108.47 281.62 107.49 C 285.40 108.59 289.27 109.41 293.21 109.58 C 294.26 106.25 295.46 102.96 296.07 99.51 C 292.30 99.47 288.48 99.81 284.76 99.06 C 284.71 98.31 284.61 96.81 284.56 96.06 C 288.77 96.54 293.01 96.63 297.25 96.52 C 298.50 91.65 299.33 86.68 300.47 81.79 Z" />
<path fill="#f5f4f0" d=" M 299.35 99.49 C 302.85 99.48 306.35 99.46 309.85 99.45 C 309.22 103.09 308.48 106.72 307.35 110.24 C 303.58 110.23 299.83 109.82 296.07 109.61 C 297.08 106.21 298.14 102.83 299.35 99.49 Z" />
<path fill="#222121" d=" M 713.05 99.22 C 724.41 99.78 735.81 99.01 747.16 100.00 C 749.13 100.30 751.99 100.71 752.45 103.08 C 753.11 108.37 751.94 113.69 752.57 118.99 C 752.43 121.69 753.74 125.44 751.02 127.24 C 739.04 127.90 726.87 126.29 715.02 128.60 C 713.82 128.74 712.07 129.06 711.37 127.78 C 710.13 126.45 711.18 124.53 711.16 122.97 C 712.01 116.01 711.37 109.00 711.31 102.02 C 711.89 101.09 712.46 100.16 713.05 99.22 Z" />
<path fill="#f5f4f0" d=" M 713.43 101.61 C 719.12 99.90 725.12 100.70 730.98 100.57 C 737.23 100.69 743.92 100.69 749.68 103.32 C 751.87 110.16 750.95 117.70 750.26 124.79 C 737.95 125.96 725.60 126.14 713.25 126.49 C 712.57 118.20 712.44 109.88 713.43 101.61 Z" />
<path fill="#0e0e0e" d=" M 678.16 121.14 C 682.41 120.74 686.64 120.11 690.88 119.46 C 690.74 120.54 690.81 121.98 689.40 122.14 C 685.30 122.62 681.15 122.02 677.04 122.30 C 665.91 123.22 655.48 127.48 645.03 131.11 C 632.49 135.64 619.91 140.15 607.78 145.71 C 598.21 150.64 589.25 156.62 579.92 161.97 C 569.30 167.21 558.48 172.57 549.80 180.80 C 544.92 186.86 539.89 192.86 533.78 197.74 C 530.54 200.15 527.95 203.29 524.77 205.75 C 522.42 207.74 520.27 209.95 517.80 211.78 C 508.49 219.79 497.66 225.57 487.50 232.36 C 480.63 237.71 473.59 242.87 466.32 247.65 C 465.91 247.59 465.09 247.46 464.68 247.40 C 466.73 245.82 468.98 244.55 471.23 243.27 C 479.23 238.08 485.95 231.07 494.47 226.68 C 505.62 220.50 515.79 212.73 525.26 204.24 C 531.52 198.16 538.70 193.05 544.27 186.27 C 545.44 184.46 546.91 182.88 548.25 181.19 C 548.77 180.42 549.42 179.77 550.20 179.24 C 559.25 170.94 570.49 165.71 581.36 160.27 C 584.58 158.18 587.84 156.14 591.18 154.23 C 606.80 143.77 624.63 137.58 642.16 131.18 C 653.92 127.10 665.64 122.26 678.16 121.14 Z" />
<path fill="#050505" d=" M 712.01 133.28 C 720.05 133.00 728.12 133.52 736.16 133.16 C 740.72 132.11 745.45 132.38 750.10 132.30 C 751.88 132.14 753.10 133.63 754.22 134.79 C 756.51 137.53 758.03 140.82 759.57 144.02 C 760.19 146.96 756.85 146.63 754.95 146.70 C 752.54 146.41 749.80 146.88 747.65 145.64 L 746.50 144.76 C 749.99 144.63 753.49 144.99 756.97 144.43 C 755.59 140.86 753.66 137.53 751.07 134.71 C 740.85 134.50 730.63 134.42 720.41 134.65 C 717.21 134.73 713.96 135.66 710.87 134.42 C 711.16 134.14 711.72 133.57 712.01 133.28 Z" />
<path fill="#222222" d=" M 702.36 148.16 C 705.77 143.63 710.45 140.11 713.02 134.96 C 713.49 135.45 714.41 136.44 714.87 136.94 C 711.91 140.42 707.82 142.97 705.75 147.16 C 706.88 147.18 708.02 147.18 709.17 147.18 C 712.75 146.46 716.40 146.43 720.03 146.14 C 718.79 145.02 717.36 144.07 715.62 144.26 C 715.63 143.83 715.65 142.97 715.66 142.54 C 724.29 141.95 732.98 141.83 741.54 140.38 C 741.86 139.87 742.50 138.85 742.82 138.34 C 734.89 138.29 727.03 139.41 719.18 140.43 C 719.06 139.20 719.75 138.21 721.09 138.41 C 729.93 138.11 738.72 137.14 747.54 136.54 C 748.00 139.70 741.91 137.91 743.60 141.82 C 740.50 142.78 737.23 142.59 734.04 142.64 C 729.00 142.62 724.07 143.83 719.05 144.01 C 719.81 144.57 720.58 145.13 721.36 145.69 C 724.26 145.47 727.18 145.34 730.10 145.12 C 735.49 144.23 741.08 144.37 746.50 144.76 L 747.65 145.64 C 742.37 145.97 737.08 145.34 731.81 145.82 C 722.49 147.04 712.99 147.04 703.83 149.28 C 703.47 149.00 702.73 148.44 702.36 148.16 Z" />
<path fill="#dd4e0c" d=" M 341.25 138.15 C 341.91 138.16 343.22 138.17 343.88 138.18 C 343.84 138.80 343.77 140.04 343.73 140.67 C 343.13 140.65 341.93 140.63 341.34 140.62 C 341.31 140.00 341.27 138.77 341.25 138.15 Z" />
<path fill="#4b6c71" d=" M 402.67 142.85 C 408.13 142.53 413.61 141.92 419.10 142.31 C 421.63 142.36 423.36 144.44 425.10 146.01 C 426.67 145.78 428.24 145.53 429.80 145.21 C 431.32 146.71 432.71 148.35 433.88 150.13 C 436.39 150.67 438.92 151.22 441.29 152.25 C 437.28 151.82 431.71 154.05 429.10 149.89 C 428.78 149.47 428.12 148.63 427.79 148.21 C 426.48 149.32 425.28 150.62 423.74 151.43 C 422.01 151.78 420.35 150.89 418.71 150.48 C 419.71 149.74 420.73 149.01 421.74 148.27 C 416.71 142.91 408.88 145.24 402.58 146.36 C 402.61 145.19 402.64 144.02 402.67 142.85 Z" />
<path fill="#82a1a3" d=" M 391.96 147.37 C 394.70 144.39 398.95 143.86 402.67 142.85 C 402.64 144.02 402.61 145.19 402.58 146.36 C 399.28 148.10 395.54 147.81 391.96 147.37 Z" />
<path fill="#527277" d=" M 430.90 144.87 C 438.45 143.92 447.26 144.19 452.85 150.10 C 455.79 153.34 454.09 158.14 450.60 160.15 C 450.16 156.67 451.22 152.30 448.49 149.61 C 443.27 147.09 437.11 147.61 431.80 145.20 L 430.90 144.87 Z" />
<path fill="#3e5960" d=" M 402.58 146.36 C 408.88 145.24 416.71 142.91 421.74 148.27 C 420.73 149.01 419.71 149.74 418.71 150.48 C 415.57 149.53 412.17 149.26 408.99 150.09 C 406.09 150.88 404.07 153.27 401.94 155.22 C 396.38 153.23 390.56 155.20 385.52 157.67 C 383.93 158.45 383.14 160.15 382.08 161.46 C 379.29 161.92 376.67 160.84 373.99 160.33 C 369.19 161.17 367.18 166.14 366.01 170.29 C 369.00 172.63 372.71 173.70 376.48 173.79 C 377.50 174.65 378.54 175.51 379.57 176.37 C 379.61 177.46 379.65 178.56 379.70 179.66 C 377.45 179.86 375.21 180.08 372.96 180.16 C 371.59 179.73 370.26 179.19 368.94 178.68 C 367.85 178.99 366.77 179.30 365.69 179.59 C 363.01 178.93 361.23 176.07 359.07 174.37 C 359.40 173.83 360.06 172.76 360.39 172.22 C 359.89 168.32 360.31 164.36 362.64 161.09 C 368.16 156.49 375.99 156.61 381.47 151.86 C 382.71 151.59 383.99 151.47 385.26 151.31 C 387.23 149.66 389.32 147.79 391.96 147.37 C 395.54 147.81 399.28 148.10 402.58 146.36 Z" />
<path fill="#3f5a61" d=" M 429.80 145.21 C 430.30 145.21 431.30 145.20 431.80 145.20 C 437.11 147.61 443.27 147.09 448.49 149.61 C 451.22 152.30 450.16 156.67 450.60 160.15 L 450.61 160.55 L 449.66 161.12 C 449.28 161.35 448.52 161.81 448.14 162.04 L 447.77 160.62 C 446.29 161.16 444.45 161.38 443.71 162.99 C 443.80 164.73 445.57 164.82 446.83 165.32 C 447.06 164.74 447.52 163.59 447.75 163.01 C 449.01 163.94 450.28 164.85 451.56 165.75 C 457.38 168.44 457.38 177.96 451.57 180.66 C 445.05 182.76 438.10 184.72 431.25 182.95 C 431.29 181.74 431.34 180.54 431.38 179.34 C 433.66 178.95 435.94 178.54 438.25 178.34 C 443.35 178.90 448.50 175.92 449.98 170.90 C 449.30 170.68 447.95 170.25 447.28 170.03 C 445.29 169.06 442.99 168.15 441.93 166.06 C 440.85 164.13 441.56 161.86 441.67 159.79 C 443.81 158.49 444.42 156.06 444.67 153.75 C 443.54 153.23 442.43 152.70 441.29 152.25 C 438.92 151.22 436.39 150.67 433.88 150.13 C 432.71 148.35 431.32 146.71 429.80 145.21 Z" />
<path fill="#92aeaf" d=" M 423.74 151.43 C 425.28 150.62 426.48 149.32 427.79 148.21 C 428.12 148.63 428.78 149.47 429.10 149.89 C 431.71 154.05 437.28 151.82 441.29 152.25 C 442.43 152.70 443.54 153.23 444.67 153.75 C 444.42 156.06 443.81 158.49 441.67 159.79 C 440.49 160.32 439.29 160.81 438.10 161.30 C 437.71 165.42 441.05 167.97 443.86 170.33 C 444.71 170.25 446.42 170.10 447.28 170.03 C 447.95 170.25 449.30 170.68 449.98 170.90 C 448.50 175.92 443.35 178.90 438.25 178.34 C 435.43 178.00 432.58 177.16 429.73 177.59 C 428.80 178.61 428.03 179.75 427.23 180.86 C 428.22 182.11 429.21 183.37 430.19 184.63 C 425.95 184.81 421.89 183.04 417.62 183.61 C 415.60 181.82 413.71 179.89 412.19 177.66 C 410.45 177.68 408.71 177.78 406.99 177.64 C 403.99 177.19 400.97 176.67 397.94 177.04 C 392.87 177.33 388.47 180.14 383.57 181.15 C 383.53 180.68 383.46 179.75 383.43 179.28 C 383.15 177.35 382.66 175.47 382.13 173.61 C 385.05 172.52 390.92 171.54 389.44 167.19 C 387.20 165.04 384.29 163.66 382.08 161.46 C 383.14 160.15 383.93 158.45 385.52 157.67 C 390.56 155.20 396.38 153.23 401.94 155.22 C 404.07 153.27 406.09 150.88 408.99 150.09 C 412.17 149.26 415.57 149.53 418.71 150.48 C 420.35 150.89 422.01 151.78 423.74 151.43 Z" />
<path fill="#53767a" d=" M 367.07 153.92 C 371.72 152.55 376.61 151.73 381.47 151.86 C 375.99 156.61 368.16 156.49 362.64 161.09 L 362.71 158.65 C 361.32 159.76 359.97 160.92 358.50 161.93 C 358.19 162.10 357.57 162.44 357.26 162.61 C 359.58 158.83 363.19 155.97 367.07 153.92 Z" />
<path fill="#363635" d=" M 790.02 158.27 C 790.46 158.53 791.32 159.07 791.75 159.33 C 807.20 158.30 823.06 156.79 838.24 160.61 C 839.05 170.08 838.53 179.58 839.01 189.06 C 839.25 190.48 838.66 191.28 837.22 191.47 L 837.85 192.84 C 837.70 193.18 837.41 193.87 837.26 194.22 C 820.09 192.47 802.84 195.11 785.83 197.32 C 786.40 195.94 786.34 194.57 785.69 193.26 C 787.96 188.49 788.30 183.12 789.31 178.00 C 790.47 171.47 788.74 164.75 790.02 158.27 Z" />
<path fill="#91abac" d=" M 358.50 161.93 C 359.97 160.92 361.32 159.76 362.71 158.65 L 362.64 161.09 C 360.31 164.36 359.89 168.32 360.39 172.22 C 360.06 172.76 359.40 173.83 359.07 174.37 C 356.62 171.38 354.17 165.79 357.26 162.61 C 357.57 162.44 358.19 162.10 358.50 161.93 Z" />
<path fill="#7ea0a2" d=" M 366.01 170.29 C 367.18 166.14 369.19 161.17 373.99 160.33 C 376.67 160.84 379.29 161.92 382.08 161.46 C 384.29 163.66 387.20 165.04 389.44 167.19 C 390.92 171.54 385.05 172.52 382.13 173.61 C 380.24 173.77 378.36 173.84 376.48 173.79 C 372.71 173.70 369.00 172.63 366.01 170.29 Z" />
<path fill="#6a858a" d=" M 438.10 161.30 C 439.29 160.81 440.49 160.32 441.67 159.79 C 441.56 161.86 440.85 164.13 441.93 166.06 C 442.99 168.15 445.29 169.06 447.28 170.03 C 446.42 170.10 444.71 170.25 443.86 170.33 C 441.05 167.97 437.71 165.42 438.10 161.30 Z" />
<path fill="#f5f4f0" d=" M 791.55 161.23 C 806.17 159.75 821.28 157.52 835.70 161.63 C 837.37 169.29 838.11 177.19 837.19 185.01 C 836.87 187.29 836.73 189.60 836.75 191.91 C 830.85 192.58 824.92 192.36 819.01 192.67 C 808.69 192.91 798.46 194.59 788.14 194.78 C 788.49 189.64 789.20 184.54 790.32 179.52 C 791.64 173.50 790.96 167.32 791.55 161.23 Z" />
<path fill="#20393f" d=" M 443.71 162.99 C 444.45 161.38 446.29 161.16 447.77 160.62 L 448.14 162.04 L 447.75 163.01 C 447.52 163.59 447.06 164.74 446.83 165.32 C 445.57 164.82 443.80 164.73 443.71 162.99 Z" />
<path fill="#567f83" d=" M 448.14 162.04 C 448.52 161.81 449.28 161.35 449.66 161.12 L 449.15 162.68 C 451.43 162.80 454.25 162.01 456.06 163.90 C 459.25 167.38 460.35 172.44 460.03 177.04 C 458.27 182.15 452.40 183.85 447.94 185.88 C 443.47 188.05 438.41 187.78 433.60 187.30 C 433.19 186.38 432.79 185.46 432.40 184.54 C 431.85 184.56 430.74 184.61 430.19 184.63 C 429.21 183.37 428.22 182.11 427.23 180.86 C 428.03 179.75 428.80 178.61 429.73 177.59 C 432.58 177.16 435.43 178.00 438.25 178.34 C 435.94 178.54 433.66 178.95 431.38 179.34 C 431.34 180.54 431.29 181.74 431.25 182.95 C 438.10 184.72 445.05 182.76 451.57 180.66 C 454.14 180.44 457.22 179.73 458.10 176.92 C 459.01 172.48 457.71 167.58 454.21 164.57 C 453.55 164.87 452.22 165.46 451.56 165.75 C 450.28 164.85 449.01 163.94 447.75 163.01 L 448.14 162.04 Z" />
<path fill="#b6c6c5" d=" M 451.56 165.75 C 452.22 165.46 453.55 164.87 454.21 164.57 C 457.71 167.58 459.01 172.48 458.10 176.92 C 457.22 179.73 454.14 180.44 451.57 180.66 C 457.38 177.96 457.38 168.44 451.56 165.75 Z" />
<path fill="#d1dbd8" d=" M 371.48 169.07 C 371.86 167.44 373.70 167.11 374.99 166.53 C 374.82 168.32 374.60 170.11 374.28 171.88 C 373.04 171.21 372.10 170.28 371.48 169.07 Z" />
<path fill="#bbcbca" d=" M 384.21 168.05 C 388.17 167.54 384.07 172.55 383.14 169.18 C 383.40 168.90 383.94 168.33 384.21 168.05 Z" />
<path fill="#e0e5e2" d=" M 443.38 171.50 C 444.45 171.96 445.52 172.42 446.59 172.88 C 446.02 175.34 444.17 176.82 441.85 177.55 C 442.42 175.55 442.93 173.53 443.38 171.50 Z" />
<path fill="#668186" d=" M 376.48 173.79 C 378.36 173.84 380.24 173.77 382.13 173.61 C 382.66 175.47 383.15 177.35 383.43 179.28 C 380.19 181.01 376.43 181.56 372.96 180.16 C 375.21 180.08 377.45 179.86 379.70 179.66 C 379.65 178.56 379.61 177.46 379.57 176.37 C 378.54 175.51 377.50 174.65 376.48 173.79 Z" />
<path fill="#80a2a3" d=" M 383.57 181.15 C 388.47 180.14 392.87 177.33 397.94 177.04 C 400.97 176.67 403.99 177.19 406.99 177.64 C 405.36 178.18 403.69 178.59 402.01 178.95 C 400.80 180.06 399.67 181.26 398.32 182.20 C 394.57 182.85 390.71 182.56 386.92 182.83 C 386.16 183.43 385.41 184.03 384.66 184.63 C 380.71 184.57 376.69 184.57 372.93 183.19 C 370.43 182.22 367.39 181.89 365.69 179.59 C 366.77 179.30 367.85 178.99 368.94 178.68 C 370.26 179.19 371.59 179.73 372.96 180.16 C 376.43 181.56 380.19 181.01 383.43 179.28 C 383.46 179.75 383.53 180.68 383.57 181.15 Z" />
<path fill="#101010" d=" M 695.85 180.86 C 703.57 180.13 711.22 178.36 719.01 178.49 C 729.32 178.56 739.64 178.46 749.96 178.69 C 757.85 179.02 765.86 179.83 773.26 182.80 C 773.31 183.26 773.43 184.19 773.49 184.65 C 766.08 184.30 759.52 179.76 752.04 179.68 C 739.37 179.46 726.69 179.46 714.01 179.54 C 694.10 181.42 674.56 185.95 655.22 190.94 C 642.19 195.20 628.75 198.11 615.83 202.76 C 603.65 208.41 591.80 214.73 579.80 220.75 C 575.44 222.95 570.74 224.32 566.23 226.15 C 563.07 227.31 559.99 228.67 556.82 229.79 C 554.47 230.73 552.13 231.69 549.84 232.76 C 548.52 233.49 547.18 234.17 545.82 234.82 C 539.41 237.65 533.63 241.81 526.86 243.87 C 519.54 247.60 511.48 249.47 503.86 252.47 C 495.03 255.89 485.54 257.55 477.08 261.92 C 471.51 263.83 465.68 265.14 459.78 265.34 C 459.64 266.78 459.50 268.22 459.36 269.66 L 458.71 269.61 C 458.91 267.30 459.14 265.01 459.43 262.73 C 465.01 263.28 470.61 262.33 476.01 260.96 C 480.45 259.50 484.57 257.17 489.14 256.06 C 497.07 252.72 505.48 250.70 513.49 247.58 C 521.27 244.19 529.83 242.64 537.18 238.25 C 546.40 232.99 556.22 228.87 566.17 225.20 C 580.91 220.27 594.17 211.99 608.19 205.41 C 620.16 199.10 633.60 196.60 646.45 192.70 C 662.59 187.52 679.24 184.16 695.85 180.86 Z" />
<path fill="#3f5a61" d=" M 411.53 185.22 C 411.27 183.94 411.90 183.07 413.18 182.72 C 413.33 185.92 413.24 189.13 413.07 192.34 C 412.86 205.36 413.86 218.43 412.54 231.42 C 412.37 235.94 412.49 240.47 412.74 245.00 L 412.02 245.64 L 411.17 245.09 C 411.55 239.28 411.63 233.46 411.62 227.64 C 411.62 213.50 411.47 199.36 411.53 185.22 Z" />
<path fill="#597077" d=" M 403.55 186.03 C 403.60 184.95 404.15 184.16 405.20 183.65 C 405.65 188.12 404.63 192.55 404.73 197.02 C 404.73 203.51 404.59 209.99 404.71 216.47 C 404.71 216.71 404.71 217.17 404.71 217.40 C 404.41 222.80 404.80 228.19 404.81 233.59 C 404.38 233.71 403.51 233.94 403.08 234.06 C 404.05 218.07 403.03 202.03 403.55 186.03 Z" />
<path fill="#92afaf" d=" M 415.65 184.30 C 417.89 183.84 420.19 183.89 422.30 184.91 L 420.83 186.42 C 419.54 186.41 418.26 186.39 416.99 186.37 C 417.29 194.25 417.03 202.16 415.70 209.95 C 415.76 215.41 414.28 220.67 413.63 226.05 C 413.18 227.93 415.05 229.01 416.05 230.26 C 417.40 228.72 418.59 227.02 419.41 225.14 C 419.83 227.07 420.32 229.00 420.82 230.93 C 421.28 235.09 420.40 239.31 420.58 243.50 C 420.19 240.50 419.77 237.51 419.20 234.53 C 418.98 233.43 418.75 232.34 418.51 231.25 C 416.66 232.82 414.56 232.19 412.54 231.42 C 413.86 218.43 412.86 205.36 413.07 192.34 C 413.94 189.66 415.23 187.11 415.65 184.30 Z" />
<path fill="#92aeaf" d=" M 406.47 187.64 C 408.04 186.61 409.75 185.83 411.53 185.22 C 411.47 199.36 411.62 213.50 411.62 227.64 C 410.77 227.67 409.07 227.72 408.22 227.75 C 405.43 224.94 406.78 220.62 404.71 217.40 C 404.71 217.17 404.71 216.71 404.71 216.47 C 405.14 215.86 406.00 214.62 406.43 214.01 C 405.48 207.38 404.98 200.64 406.00 193.99 C 406.36 191.89 406.53 189.76 406.47 187.64 Z" />
<path fill="#597077" d=" M 416.99 186.37 C 418.26 186.39 419.54 186.41 420.83 186.42 C 421.28 186.44 422.18 186.46 422.63 186.48 C 422.43 191.98 423.36 197.51 422.46 202.99 C 421.49 208.63 421.74 214.38 422.12 220.07 C 421.93 223.71 421.12 227.29 420.82 230.93 C 420.32 229.00 419.83 227.07 419.41 225.14 C 418.59 227.02 417.40 228.72 416.05 230.26 C 415.05 229.01 413.18 227.93 413.63 226.05 C 414.28 220.67 415.76 215.41 415.70 209.95 C 417.03 202.16 417.29 194.25 416.99 186.37 Z" />
<path fill="#6e7c83" d=" M 422.65 185.31 L 424.53 185.48 C 424.05 192.28 424.63 199.09 424.28 205.89 C 422.31 210.40 424.90 215.85 422.12 220.07 C 421.74 214.38 421.49 208.63 422.46 202.99 C 423.36 197.51 422.43 191.98 422.63 186.48 L 422.65 185.31 Z" />
<path fill="#000000" d=" M 318.87 202.06 C 325.48 202.33 332.20 202.62 338.70 201.10 C 338.91 219.75 338.44 238.42 338.88 257.07 C 339.40 260.42 339.37 263.82 339.67 267.19 C 345.69 264.39 352.30 263.25 358.25 260.27 C 362.67 258.70 367.88 258.91 371.64 255.70 C 377.18 250.94 383.24 246.78 389.00 242.34 C 392.24 244.03 395.86 242.79 399.29 242.73 C 402.61 244.06 401.08 248.07 400.90 250.74 C 400.58 254.46 400.56 258.21 400.66 261.94 C 400.85 268.26 402.77 274.40 402.68 280.74 C 402.65 283.65 402.94 286.61 402.41 289.49 L 400.57 289.57 C 400.14 286.16 400.49 282.72 400.34 279.29 C 399.66 270.20 399.51 261.10 399.45 251.97 C 399.38 249.77 399.24 247.57 399.11 245.38 C 396.66 245.28 394.22 245.29 391.79 245.32 C 390.73 256.19 391.46 267.10 391.74 277.99 C 392.70 282.03 392.98 286.20 393.81 290.28 C 395.28 292.37 398.34 291.12 400.53 291.49 C 400.53 292.05 400.52 293.16 400.52 293.71 C 397.93 293.68 395.24 293.86 392.82 292.80 C 392.18 292.76 390.89 292.69 390.25 292.65 C 385.32 288.12 379.68 284.40 373.65 281.52 C 371.85 280.43 368.73 281.08 368.09 278.63 C 358.95 277.02 349.59 278.12 340.42 276.71 C 340.01 290.43 338.73 304.16 339.41 317.90 C 340.27 327.91 341.97 337.90 341.49 347.99 C 341.55 349.64 340.96 351.19 340.39 352.71 C 329.57 352.62 318.67 353.26 307.94 351.61 C 291.30 351.16 274.63 351.94 257.99 351.27 C 255.49 351.00 250.91 351.39 252.44 347.48 C 255.71 347.91 258.99 348.40 262.31 348.51 C 277.54 348.86 292.80 348.35 308.03 348.88 C 318.08 350.47 328.32 349.69 338.45 349.72 C 339.53 334.08 335.52 318.63 336.58 303.00 C 337.71 289.04 337.96 274.98 336.60 261.03 C 335.97 245.37 336.50 229.68 336.26 214.01 C 336.10 210.89 336.74 207.61 335.51 204.64 C 325.35 206.03 315.16 204.03 304.97 204.52 C 300.93 204.54 296.95 205.31 292.93 205.67 C 279.51 206.46 266.11 204.65 252.68 205.21 C 252.17 223.49 252.61 241.79 252.14 260.07 C 250.90 273.02 252.40 286.10 250.69 299.02 C 250.55 309.01 250.58 319.01 250.67 329.00 C 251.36 335.52 251.54 342.08 251.72 348.63 C 250.72 348.59 249.72 348.55 248.73 348.52 C 248.65 341.35 248.34 334.19 247.80 327.04 C 247.86 318.01 247.61 308.96 247.98 299.94 C 249.38 288.31 248.34 276.58 249.26 264.93 C 249.71 245.02 249.44 225.10 249.53 205.19 C 249.04 204.98 248.08 204.56 247.60 204.35 C 247.56 203.89 247.47 202.96 247.43 202.49 C 250.77 201.07 254.46 202.61 257.97 202.21 C 268.67 201.79 279.31 203.63 290.01 203.14 C 299.58 202.08 309.25 200.77 318.87 202.06 Z" />
<path fill="#050505" d=" M 816.69 203.40 C 822.41 202.37 828.27 202.46 834.07 202.27 C 836.67 202.16 837.88 205.02 839.23 206.79 C 840.87 209.79 843.49 212.05 845.50 214.78 C 846.15 216.54 844.19 217.65 842.77 217.77 C 838.35 218.42 833.84 218.59 829.38 218.47 C 826.02 218.13 822.65 217.83 819.28 217.70 C 827.23 217.29 835.45 218.29 843.11 215.47 C 839.91 212.22 838.02 208.00 835.06 204.57 C 828.48 204.86 821.90 204.70 815.33 204.42 C 815.67 204.17 816.35 203.66 816.69 203.40 Z" />
<path fill="#323131" d=" M 786.91 205.10 C 787.25 201.88 790.69 202.87 792.98 202.82 C 800.87 203.56 808.79 203.02 816.69 203.40 C 816.35 203.66 815.67 204.17 815.33 204.42 C 808.37 204.46 801.42 204.44 794.47 204.59 C 794.28 205.12 793.90 206.18 793.72 206.72 C 789.07 210.18 785.22 214.63 781.90 219.34 C 794.37 219.87 806.88 218.77 819.28 217.70 C 822.65 217.83 826.02 218.13 829.38 218.47 C 820.66 219.82 811.78 219.02 803.04 220.08 C 797.34 220.55 791.57 220.19 785.93 221.24 C 783.67 221.35 780.79 222.51 779.27 220.16 C 782.33 214.25 788.39 210.74 792.03 205.23 C 790.31 205.19 788.61 205.16 786.91 205.10 Z" />
<path fill="#f5f4f0" d=" M 793.72 206.72 C 793.90 206.18 794.28 205.12 794.47 204.59 C 801.42 204.44 808.37 204.46 815.33 204.42 C 821.90 204.70 828.48 204.86 835.06 204.57 C 838.02 208.00 839.91 212.22 843.11 215.47 C 835.45 218.29 827.23 217.29 819.28 217.70 C 806.88 218.77 794.37 219.87 781.90 219.34 C 785.22 214.63 789.07 210.18 793.72 206.72 Z" />
<path fill="#0b0b0b" d=" M 797.74 209.81 C 807.40 209.71 817.09 210.23 826.74 209.41 C 826.75 209.94 826.77 210.99 826.78 211.51 C 816.93 209.88 806.99 211.09 797.10 211.60 C 797.26 211.15 797.58 210.25 797.74 209.81 Z" />
<path fill="#1e1e1d" d=" M 797.53 214.28 C 803.32 213.90 809.14 214.77 814.93 214.22 C 816.91 214.03 818.90 213.24 820.90 213.87 C 820.53 214.20 819.79 214.85 819.41 215.17 C 811.97 215.59 804.49 215.49 797.04 215.84 C 797.16 215.45 797.41 214.67 797.53 214.28 Z" />
<path fill="#000000" d=" M 276.00 216.85 C 284.64 215.70 293.34 215.41 302.01 214.60 C 308.98 214.65 316.11 213.88 322.97 215.43 C 323.11 216.14 323.24 216.86 323.38 217.57 C 312.97 217.54 302.48 216.69 292.12 218.22 C 281.92 218.55 271.86 220.83 261.61 220.26 C 261.48 219.28 261.35 218.30 261.24 217.33 C 266.16 216.99 271.11 217.62 276.00 216.85 Z" />
<path fill="#161616" d=" M 647.63 221.55 C 648.11 221.48 649.07 221.35 649.54 221.28 C 649.58 221.92 649.64 223.19 649.68 223.82 C 660.72 225.23 671.89 224.68 682.98 224.42 C 687.44 224.40 691.85 222.88 696.32 223.64 C 697.14 229.38 696.36 235.18 696.74 240.95 C 697.30 247.74 697.33 254.56 697.38 261.38 C 693.42 263.11 689.11 261.86 684.99 261.78 C 679.32 261.66 673.65 261.71 667.98 261.70 C 662.20 261.69 656.68 263.78 650.98 264.23 C 650.83 263.62 650.53 262.39 650.38 261.78 C 665.11 259.89 679.97 261.45 694.74 260.27 C 694.72 248.79 696.72 237.15 694.50 225.78 C 685.35 224.99 676.18 225.79 667.02 225.70 C 661.16 225.56 655.33 226.93 649.48 226.08 C 649.56 238.41 649.89 250.82 649.74 263.10 C 649.21 263.17 648.14 263.30 647.61 263.37 C 648.06 262.22 648.40 261.05 648.63 259.85 C 649.01 247.08 648.51 234.29 647.63 221.55 Z" />
<path fill="#7f7e7c" d=" M 313.85 227.85 C 318.42 227.27 323.00 226.58 327.61 226.41 C 328.10 227.58 328.79 229.64 326.87 229.91 C 321.09 230.19 315.29 231.54 309.52 230.75 C 315.15 229.97 320.85 229.85 326.50 229.15 C 326.66 228.87 326.98 228.30 327.14 228.02 C 326.99 227.78 326.68 227.31 326.53 227.08 C 322.30 227.32 318.08 227.76 313.85 227.85 Z" />
<path fill="#000000" d=" M 326.53 227.08 C 326.68 227.31 326.99 227.78 327.14 228.02 C 326.98 228.30 326.66 228.87 326.50 229.15 C 320.85 229.85 315.15 229.97 309.52 230.75 C 302.66 231.05 295.77 230.47 288.93 231.11 C 280.16 231.94 271.34 231.98 262.55 232.42 C 262.63 231.77 262.79 230.46 262.87 229.81 C 268.49 228.39 274.39 229.72 280.11 229.02 C 291.30 227.49 302.63 228.84 313.85 227.85 C 318.08 227.76 322.30 227.32 326.53 227.08 Z" />
<path fill="#3f5a61" d=" M 419.20 234.53 C 419.77 237.51 420.19 240.50 420.58 243.50 L 418.79 243.19 C 419.03 240.31 419.55 237.44 419.20 234.53 Z" />
<path fill="#000000" d=" M 307.97 243.71 C 315.44 243.61 322.93 243.18 330.39 243.54 C 330.77 243.92 331.52 244.68 331.89 245.06 C 329.04 247.16 325.31 245.95 322.04 246.23 C 302.53 246.49 283.00 246.63 263.49 246.60 C 263.21 245.10 264.11 243.32 265.91 243.70 C 279.93 243.62 293.95 243.85 307.97 243.71 Z" />
<path fill="#000000" d=" M 423.30 253.67 C 429.91 250.31 436.86 247.52 443.02 243.32 C 443.52 243.41 444.51 243.58 445.00 243.67 C 445.85 245.82 446.81 247.93 447.47 250.16 C 447.04 251.06 446.62 251.96 446.22 252.87 C 452.52 252.25 458.47 249.86 464.22 247.33 L 464.68 247.40 C 465.09 247.46 465.91 247.59 466.32 247.65 C 464.31 249.18 461.95 250.11 459.60 250.98 C 459.85 254.89 459.80 258.83 459.43 262.73 C 459.14 265.01 458.91 267.30 458.71 269.61 L 458.51 270.86 C 456.26 270.73 454.02 270.48 451.89 269.75 C 451.44 269.96 450.54 270.38 450.09 270.59 C 445.63 268.11 440.32 268.49 435.47 267.44 C 433.77 266.12 432.77 264.19 431.64 262.43 C 430.29 261.99 428.87 261.87 427.48 261.75 C 424.96 261.55 422.44 261.37 419.92 261.16 C 419.43 259.62 418.93 258.09 418.43 256.57 C 420.02 255.56 421.62 254.56 423.30 253.67 Z" />
<path fill="#f5f4f0" d=" M 382.93 248.98 C 385.36 247.78 387.68 246.36 389.77 244.64 C 389.64 252.10 390.51 259.52 390.49 266.99 C 390.86 270.99 390.15 275.12 391.15 279.04 C 390.37 282.72 390.94 286.44 391.46 290.10 C 388.45 288.86 386.43 286.16 383.63 284.59 C 379.43 282.20 375.29 279.51 370.55 278.36 C 368.08 272.56 369.78 266.00 369.35 259.88 C 374.49 257.02 377.64 251.62 382.93 248.98 Z" />
<path fill="#dd4e0c" d=" M 400.90 250.74 C 407.83 246.25 417.74 247.54 423.30 253.67 C 421.62 254.56 420.02 255.56 418.43 256.57 C 418.93 258.09 419.43 259.62 419.92 261.16 C 422.44 261.37 424.96 261.55 427.48 261.75 C 428.08 267.17 426.85 272.98 422.96 276.98 C 417.92 282.48 409.37 283.94 402.68 280.74 C 402.77 274.40 400.85 268.26 400.66 261.94 C 400.56 258.21 400.58 254.46 400.90 250.74 Z" />
<path fill="#000000" d=" M 631.04 250.06 C 632.22 249.36 633.60 249.22 634.94 248.98 C 634.82 249.51 634.57 250.57 634.45 251.10 C 630.41 252.36 626.38 253.70 622.65 255.71 C 618.88 258.20 615.10 260.68 611.77 263.76 C 607.08 269.12 602.15 274.41 596.49 278.75 L 596.47 279.18 C 589.01 284.48 581.84 290.21 573.98 294.93 C 569.90 297.40 565.45 299.14 561.17 301.22 C 552.28 304.17 543.61 308.93 533.98 308.61 C 529.06 308.35 524.21 309.32 519.31 309.33 C 512.51 309.17 505.30 310.49 499.15 306.81 C 487.99 303.44 478.36 296.46 467.07 293.47 C 463.03 292.67 460.34 288.71 456.30 288.21 C 455.15 289.90 452.54 290.69 451.42 288.52 C 448.19 283.44 444.47 278.63 441.69 273.28 C 440.85 272.09 441.41 270.72 441.68 269.47 C 450.50 267.76 455.47 276.75 462.86 279.55 C 462.82 281.26 462.37 282.77 460.34 282.83 C 461.38 284.28 461.34 285.72 460.28 287.09 C 466.14 291.79 473.54 293.58 480.10 297.00 C 485.04 298.76 489.39 301.81 494.30 303.64 C 499.21 305.24 503.71 308.37 509.06 308.35 C 515.69 308.44 522.34 308.66 528.96 308.00 C 534.58 307.61 540.39 308.04 545.75 305.94 C 551.05 304.44 556.02 302.01 561.24 300.26 C 569.82 296.67 577.98 292.06 585.28 286.26 C 587.36 284.78 589.47 283.33 591.48 281.73 L 592.36 281.47 C 593.96 279.95 595.61 278.48 597.44 277.24 L 597.59 276.83 C 602.24 273.10 606.36 268.72 610.30 264.25 C 610.72 263.39 611.36 262.73 612.21 262.28 C 617.87 257.33 624.44 253.58 631.04 250.06 Z" />
<path fill="#dd4e0c" d=" M 400.34 279.29 C 391.33 273.27 390.61 258.44 399.45 251.97 C 399.51 261.10 399.66 270.20 400.34 279.29 Z" />
<path fill="#000000" d=" M 266.33 254.37 C 285.36 256.38 304.52 254.55 323.61 254.76 C 323.73 255.75 323.85 256.73 323.98 257.73 C 314.29 257.73 304.61 257.57 294.93 257.80 C 285.39 258.41 275.80 258.41 266.29 257.43 C 266.29 256.41 266.30 255.39 266.33 254.37 Z" />
<path fill="#f5f4f0" d=" M 363.07 261.58 C 364.68 261.36 366.20 260.80 367.75 260.31 C 367.06 265.46 367.15 270.67 367.21 275.85 C 360.80 275.23 354.33 275.96 347.95 274.97 C 345.26 274.60 342.55 274.73 339.85 274.61 C 339.80 272.96 339.76 271.32 339.70 269.68 C 342.65 268.12 345.73 266.76 349.01 266.08 C 353.83 264.98 358.11 262.15 363.07 261.58 Z" />
<path fill="#131312" d=" M 650.55 267.69 C 664.11 270.46 677.61 266.35 691.00 264.55 C 691.76 264.55 693.28 264.55 694.05 264.55 C 696.23 269.01 698.58 273.40 701.52 277.42 C 703.07 278.91 701.73 280.88 701.37 282.58 C 694.91 282.61 688.37 281.94 681.99 283.29 C 668.62 284.36 655.11 282.70 641.82 284.81 C 642.47 283.10 644.35 282.54 646.04 282.64 C 657.72 282.54 669.41 283.03 681.08 282.41 C 687.53 281.53 694.04 281.13 700.52 280.50 C 698.39 275.81 695.53 271.53 692.86 267.15 C 681.17 267.37 669.74 270.67 658.04 270.37 C 655.20 270.19 651.89 271.09 649.56 269.00 C 650.34 272.60 647.77 275.53 646.15 278.47 C 645.49 279.74 644.34 280.58 643.08 281.18 C 643.11 278.23 645.69 276.32 646.61 273.66 C 647.42 271.37 648.90 269.44 650.55 267.69 Z" />
<path fill="#020202" d=" M 267.65 267.38 C 271.48 267.08 275.26 268.13 279.09 268.19 C 292.07 268.37 305.07 268.38 318.03 267.54 C 321.86 267.50 325.73 266.90 329.54 267.58 C 329.15 268.45 328.76 269.32 328.38 270.19 C 311.91 270.35 295.46 271.42 278.99 271.12 C 275.16 270.65 271.04 271.27 267.51 269.46 C 267.55 268.94 267.61 267.90 267.65 267.38 Z" />
<path fill="#201f1f" d=" M 655.29 272.53 C 667.48 272.10 679.74 273.37 691.85 271.58 L 690.98 273.10 C 679.12 274.24 667.13 272.90 655.29 274.44 C 655.29 273.96 655.29 273.01 655.29 272.53 Z" />
<path fill="#000000" d=" M 430.58 272.31 C 431.50 272.71 432.57 272.90 433.31 273.66 C 437.38 278.47 439.63 284.52 443.81 289.24 C 444.65 290.11 445.33 291.46 444.56 292.62 C 442.93 294.63 440.50 295.77 438.29 297.02 C 438.66 301.09 439.89 305.01 441.24 308.84 C 442.74 312.61 444.59 316.21 446.32 319.87 C 449.31 326.76 453.69 332.89 457.84 339.11 C 459.14 341.13 460.86 342.83 462.74 344.31 C 471.62 351.17 481.53 356.50 491.62 361.36 C 499.21 364.79 507.26 366.95 515.26 369.16 C 518.28 369.59 521.25 370.41 524.32 370.49 C 523.33 370.70 522.35 370.92 521.37 371.17 L 521.11 371.24 C 513.35 369.48 505.55 367.67 498.10 364.82 C 489.31 361.75 481.27 356.97 473.15 352.49 C 470.69 351.13 468.44 349.47 466.23 347.74 C 460.30 344.75 456.59 339.13 453.25 333.63 C 451.47 331.10 449.85 328.47 448.17 325.87 C 445.45 321.10 443.04 316.16 440.64 311.22 C 439.01 306.91 437.74 302.47 436.47 298.04 C 433.55 299.22 430.50 300.05 427.41 300.62 C 427.05 300.96 426.33 301.65 425.97 301.99 C 425.38 301.88 424.19 301.66 423.60 301.54 C 424.70 295.01 426.16 288.53 427.69 282.09 C 429.14 278.98 430.00 275.69 430.58 272.31 Z" />
<path fill="#101010" d=" M 684.04 276.10 C 685.83 275.64 687.63 275.15 689.51 275.26 C 689.45 275.78 689.31 276.80 689.25 277.31 C 682.44 277.01 675.80 278.56 669.09 279.36 C 664.47 279.71 659.84 279.72 655.23 279.77 C 655.22 279.36 655.21 278.56 655.20 278.15 C 664.87 279.03 674.57 278.12 684.04 276.10 Z" />
<path fill="#000000" d=" M 264.54 280.18 C 264.87 279.21 265.30 278.28 265.74 277.35 C 277.97 280.31 290.70 277.92 303.11 277.92 C 308.04 278.51 313.02 278.86 317.99 278.56 C 320.59 278.16 323.16 277.47 325.83 277.58 C 325.81 278.29 325.78 279.72 325.77 280.43 C 323.49 280.61 321.23 280.99 318.98 281.35 C 310.97 282.24 303.01 279.98 294.99 280.87 C 287.03 281.82 278.98 281.76 270.99 281.45 C 268.77 281.41 266.63 280.83 264.54 280.18 Z" />
<path fill="#222221" d=" M 431.31 281.48 C 432.67 281.69 432.88 282.39 431.94 283.56 C 430.57 283.34 430.36 282.64 431.31 281.48 Z" />
<path fill="#181817" d=" M 713.92 284.80 C 726.95 283.65 740.05 284.77 753.07 285.58 C 754.88 285.62 756.65 286.04 758.37 286.61 C 759.75 290.62 758.45 294.87 758.77 299.01 C 758.31 305.01 758.35 311.02 758.54 317.03 C 758.72 318.83 758.15 321.37 756.02 321.63 C 749.65 322.69 743.15 323.03 736.70 323.18 C 739.03 322.76 741.29 322.02 743.55 321.32 C 747.58 320.51 751.64 319.85 755.73 319.37 C 757.28 313.03 756.65 306.47 756.67 300.02 C 756.70 296.20 756.69 292.37 756.44 288.55 C 749.78 286.93 742.96 285.22 736.07 285.99 C 728.56 286.81 720.82 285.10 713.49 287.34 C 713.93 298.98 712.81 310.71 714.70 322.28 C 716.16 322.78 717.64 323.23 719.14 323.71 C 717.48 323.85 715.82 324.00 714.18 324.09 C 713.70 323.92 712.74 323.60 712.26 323.43 C 712.27 311.52 713.15 299.52 711.61 287.66 C 712.38 286.71 713.15 285.76 713.92 284.80 Z" />
<path fill="#f5f4f0" d=" M 713.49 287.34 C 720.82 285.10 728.56 286.81 736.07 285.99 C 742.96 285.22 749.78 286.93 756.44 288.55 C 756.69 292.37 756.70 296.20 756.67 300.02 C 756.65 306.47 757.28 313.03 755.73 319.37 C 751.64 319.85 747.58 320.51 743.55 321.32 C 737.87 321.71 732.15 321.51 726.51 322.34 C 722.59 322.89 718.61 322.87 714.70 322.28 C 712.81 310.71 713.93 298.98 713.49 287.34 Z" />
<path fill="#020202" d=" M 264.72 289.90 C 285.00 291.05 305.33 290.37 325.64 290.64 C 325.73 291.64 325.81 292.64 325.90 293.65 C 306.93 293.35 287.97 293.45 269.00 293.34 C 267.24 293.43 265.55 292.94 263.92 292.39 C 264.12 291.76 264.52 290.52 264.72 289.90 Z" />
<path fill="#515150" d=" M 440.11 290.23 C 441.70 289.75 442.26 290.33 441.79 291.98 C 440.19 292.46 439.63 291.88 440.11 290.23 Z" />
<path fill="#000000" d=" M 264.67 302.36 C 268.48 301.95 272.17 303.26 275.93 303.61 C 283.58 304.96 291.38 304.39 299.10 304.87 C 308.55 306.00 318.15 305.98 327.65 305.38 C 327.51 306.56 327.63 308.36 325.97 308.34 C 312.63 309.32 299.33 307.10 285.98 307.37 C 278.82 306.91 271.43 306.66 264.60 304.38 C 264.61 303.87 264.65 302.86 264.67 302.36 Z" />
<path fill="#626260" d=" M 678.00 320.97 C 683.31 318.03 688.68 315.22 694.17 312.63 C 694.71 312.98 695.79 313.68 696.33 314.03 C 696.34 315.75 694.17 315.71 693.01 316.06 C 687.44 317.05 682.73 320.40 677.73 322.81 C 661.56 330.27 646.07 339.27 629.28 345.31 C 619.68 348.73 611.38 354.77 602.27 359.19 C 592.79 363.44 583.35 368.16 573.05 370.06 C 563.81 371.76 554.38 371.66 545.02 371.84 C 537.14 371.78 529.15 372.91 521.37 371.17 C 522.35 370.92 523.33 370.70 524.32 370.49 C 536.20 370.20 548.12 370.68 560.00 369.89 C 568.00 369.60 576.07 368.53 583.56 365.56 C 592.92 361.98 602.17 357.94 610.83 352.86 C 618.37 348.31 626.34 344.45 634.70 341.67 C 649.49 335.53 663.52 327.77 678.00 320.97 Z" />
<path fill="#010100" d=" M 263.67 318.68 C 279.11 319.06 294.56 318.07 310.00 318.82 C 315.60 319.20 321.35 318.11 326.84 319.48 C 326.73 320.03 326.52 321.14 326.41 321.69 C 311.26 321.89 296.13 320.62 280.99 321.58 C 275.22 321.61 269.38 322.21 263.65 321.30 C 263.66 320.64 263.67 319.33 263.67 318.68 Z" />
<path fill="#5f5f5d" d=" M 726.51 322.34 C 732.15 321.51 737.87 321.71 743.55 321.32 C 741.29 322.02 739.03 322.76 736.70 323.18 C 732.90 323.45 729.08 323.61 725.27 323.78 C 725.58 323.42 726.20 322.70 726.51 322.34 Z" />
<path fill="#464544" d=" M 714.70 322.28 C 718.61 322.87 722.59 322.89 726.51 322.34 C 726.20 322.70 725.58 323.42 725.27 323.78 C 721.79 324.79 717.80 324.66 714.18 324.09 C 715.82 324.00 717.48 323.85 719.14 323.71 C 717.64 323.23 716.16 322.78 714.70 322.28 Z" />
<path fill="#050505" d=" M 739.97 330.06 C 744.88 328.58 750.06 328.00 755.15 328.75 C 757.53 330.52 758.23 333.65 759.75 336.08 C 761.41 339.98 764.34 343.20 765.78 347.18 C 761.24 349.70 755.84 347.77 750.96 347.73 C 744.29 347.70 737.62 347.91 730.96 347.83 C 721.83 348.68 712.59 347.59 703.55 349.44 C 703.41 348.03 703.24 346.49 704.31 345.37 C 707.48 341.15 711.27 337.41 714.99 333.68 C 714.07 333.51 712.24 333.18 711.32 333.01 C 712.06 331.00 714.19 331.46 715.89 331.39 C 723.93 331.67 732.01 331.14 739.97 330.06 Z" />
<path fill="#f5f4f0" d=" M 737.97 332.26 C 743.32 331.08 748.77 330.44 754.26 330.66 C 757.99 335.30 759.42 341.26 762.73 346.16 C 755.51 347.06 748.23 346.60 741.00 347.21 C 732.68 346.93 724.37 347.65 716.07 347.22 C 712.65 346.86 709.23 346.57 705.79 346.62 C 708.58 341.69 712.19 337.03 716.74 333.61 C 723.75 332.75 730.97 333.69 737.97 332.26 Z" />
<path fill="#000000" d=" M 264.25 333.58 C 270.84 333.29 277.44 333.39 284.03 333.72 C 295.65 335.07 307.36 334.43 319.03 334.54 C 321.80 334.68 324.50 333.84 327.26 333.85 C 327.30 334.44 327.37 335.61 327.41 336.20 C 323.16 337.98 318.48 337.38 314.00 337.45 C 306.68 337.31 299.34 337.55 292.03 337.18 C 282.84 336.22 273.58 336.26 264.35 336.64 C 264.31 335.61 264.27 334.59 264.25 333.58 Z" />
<path fill="#0b0b0b" d=" M 714.58 337.61 C 725.65 337.30 736.76 338.35 747.83 337.35 C 747.81 337.89 747.78 338.95 747.76 339.49 C 746.17 339.33 744.59 339.16 743.04 338.87 C 733.56 338.18 724.10 339.03 714.65 339.59 C 714.64 339.10 714.60 338.10 714.58 337.61 Z" />
<path fill="#212120" d=" M 744.18 342.17 C 747.14 341.44 750.18 341.01 753.22 340.68 C 753.59 341.02 754.32 341.69 754.68 342.02 C 754.37 342.34 753.75 342.97 753.43 343.29 C 741.14 343.13 728.84 343.55 716.59 344.47 C 716.58 343.99 716.56 343.03 716.55 342.55 C 725.75 342.14 734.97 342.90 744.18 342.17 Z" />
<path fill="#141414" d=" M 726.57 440.51 C 735.69 439.95 744.83 441.17 753.96 440.47 C 758.47 440.38 763.04 439.50 767.52 440.41 C 768.80 444.51 767.99 448.83 768.21 453.04 C 768.74 460.53 767.45 467.98 767.17 475.45 C 766.45 477.59 763.97 477.62 762.11 477.55 C 752.76 477.32 743.41 477.28 734.07 477.38 C 730.54 477.19 726.90 477.57 723.51 476.42 C 722.54 470.92 723.63 465.40 724.27 459.94 C 724.47 453.40 725.82 446.94 726.57 440.51 Z" />
<path fill="#f5f4f0" d=" M 727.24 442.44 C 732.50 442.80 737.75 442.18 743.02 442.24 C 750.57 442.12 758.11 442.49 765.65 442.48 C 768.70 453.25 764.43 464.17 764.69 475.07 C 756.22 476.54 747.61 476.33 739.06 476.33 C 734.44 476.37 729.96 475.19 725.42 474.58 C 723.78 467.69 725.48 460.71 725.99 453.80 C 726.23 449.99 728.37 446.26 727.24 442.44 Z" />
<path fill="#de5313" d=" M 732.44 456.02 C 731.54 451.01 741.46 449.54 741.36 454.97 C 740.57 459.07 737.19 462.19 735.64 466.07 C 737.43 466.85 739.39 466.77 741.32 466.82 C 740.42 471.88 733.99 468.89 732.24 466.02 C 734.93 462.32 738.23 458.72 739.06 454.06 C 737.63 454.31 735.99 454.00 734.77 454.88 C 735.15 456.57 735.37 458.29 735.41 460.02 C 734.42 458.75 732.19 457.93 732.44 456.02 Z" />
<path fill="#dd4f0d" d=" M 748.16 453.12 C 750.29 453.24 752.43 453.41 754.57 453.60 C 754.73 455.33 754.55 457.07 754.19 458.77 C 756.76 460.42 757.52 464.15 755.55 466.55 C 753.83 469.28 750.33 469.63 747.40 469.58 C 746.68 467.00 749.51 467.63 750.84 466.95 C 753.33 466.72 755.08 464.16 754.32 461.76 C 752.80 460.82 749.68 462.23 749.46 459.91 C 750.43 458.52 751.46 457.18 752.18 455.64 C 751.35 455.54 749.68 455.34 748.85 455.24 C 748.68 454.71 748.33 453.65 748.16 453.12 Z" />
<path fill="#de5313" d=" M 686.08 462.61 C 691.83 462.68 697.51 461.45 703.26 461.75 C 703.39 462.71 703.53 463.68 703.66 464.65 C 698.45 464.37 693.26 465.30 688.05 464.85 C 677.49 464.06 667.09 467.22 656.52 466.20 C 643.72 464.69 630.88 466.66 618.06 466.50 C 606.26 466.14 594.77 469.53 583.00 469.66 C 555.95 472.55 528.75 474.54 502.08 480.23 C 487.72 482.03 473.29 483.18 459.06 485.93 C 452.30 486.46 445.75 488.45 438.96 488.71 C 433.29 489.28 427.68 490.31 422.08 491.38 C 412.38 492.85 403.43 497.36 393.67 498.55 C 388.74 499.27 383.95 500.76 379.26 502.41 C 374.14 504.27 369.63 508.63 363.83 507.80 C 363.73 507.30 363.52 506.29 363.42 505.78 C 370.06 505.51 375.40 501.17 381.82 499.99 C 392.28 497.63 402.77 495.32 413.04 492.21 C 426.45 488.77 440.37 488.25 453.94 485.67 C 461.33 484.98 468.56 483.09 475.97 482.42 C 480.67 481.68 485.43 481.45 490.12 480.67 C 503.92 479.86 517.24 475.69 531.00 474.46 C 536.68 473.71 542.41 473.31 548.06 472.28 C 553.21 471.23 558.52 471.76 563.67 470.66 C 570.79 470.41 577.82 469.18 584.91 468.57 C 591.65 468.54 598.28 467.24 604.94 466.44 C 614.91 465.08 625.00 465.74 635.02 465.24 C 645.99 464.60 656.98 464.73 667.96 464.38 C 673.97 463.50 679.99 462.59 686.08 462.61 Z" />
<path fill="#13b824" d=" M 208.42 466.47 C 209.36 465.57 212.40 466.33 211.48 468.15 C 208.14 473.18 203.05 476.65 198.61 480.62 C 191.59 487.29 186.77 495.80 181.12 503.56 C 180.53 503.28 179.35 502.71 178.76 502.43 C 178.71 500.96 180.00 499.86 180.60 498.61 C 186.22 490.08 191.56 481.06 199.70 474.65 C 202.92 472.26 205.52 469.20 208.42 466.47 Z" />
<path fill="#090908" d=" M 722.80 481.66 C 725.68 480.25 728.92 480.31 732.03 480.75 C 740.98 482.12 750.07 481.37 759.06 480.81 C 761.01 480.86 763.43 480.37 764.92 482.03 C 767.15 484.94 768.55 488.39 770.36 491.57 C 770.89 492.82 772.46 494.83 770.76 495.89 C 768.01 498.04 764.22 496.94 761.02 496.85 C 747.19 496.41 733.37 496.69 719.56 497.41 C 719.13 497.09 718.27 496.43 717.84 496.11 C 716.97 496.31 716.10 496.51 715.24 496.71 C 715.34 493.94 717.00 491.69 718.56 489.54 C 720.34 487.12 721.49 484.34 722.80 481.66 Z" />
<path fill="#f5f4f0" d=" M 724.86 483.29 C 727.57 483.01 730.31 482.68 733.05 482.99 C 742.64 483.91 752.29 483.27 761.91 483.36 C 763.29 483.15 763.87 484.48 764.51 485.45 C 766.07 488.36 767.43 491.39 768.97 494.33 C 764.09 495.65 759.02 495.60 754.02 495.73 C 744.35 495.77 734.68 495.85 725.01 495.60 C 722.55 495.57 720.16 494.97 717.77 494.51 C 720.25 490.84 722.64 487.11 724.86 483.29 Z" />
<path fill="#131313" d=" M 754.06 487.66 C 756.85 487.41 759.52 486.35 762.36 486.39 C 762.32 486.89 762.26 487.87 762.22 488.37 C 751.61 489.51 740.83 487.84 730.22 489.37 C 730.22 488.88 730.23 487.90 730.23 487.41 C 738.18 487.16 746.12 488.25 754.06 487.66 Z" />
<path fill="#14b825" d=" M 166.68 503.36 C 167.04 498.42 165.42 493.02 167.77 488.44 C 168.33 488.52 169.46 488.68 170.02 488.76 C 169.82 493.61 169.24 498.49 169.79 503.36 C 169.01 503.36 167.46 503.36 166.68 503.36 Z" />
<path fill="#3e3e3c" d=" M 730.68 491.93 C 738.82 491.10 747.11 492.66 755.17 490.72 C 755.01 491.21 754.70 492.19 754.54 492.68 C 748.09 493.61 741.51 492.91 735.03 493.48 C 733.38 493.47 731.11 494.22 730.68 491.93 Z" />
<path fill="#000000" d=" M 250.91 493.71 C 255.30 493.41 259.70 493.44 264.10 493.27 C 264.51 493.57 265.34 494.18 265.75 494.48 C 271.82 494.71 277.91 494.75 283.97 494.28 C 293.93 492.93 304.01 493.88 314.02 493.56 C 318.04 493.33 321.97 494.47 325.98 494.37 C 330.23 494.55 334.14 492.50 338.36 492.33 C 340.54 497.19 339.13 502.75 339.49 507.93 C 342.09 507.21 344.67 506.13 347.42 506.34 C 349.61 504.47 351.81 502.58 354.13 500.86 C 355.53 501.86 357.44 502.81 357.45 504.81 C 357.95 508.81 357.55 512.86 357.50 516.88 C 358.14 516.30 358.77 515.73 359.41 515.15 C 359.48 511.03 359.51 506.91 359.37 502.79 C 358.18 502.25 357.00 501.67 355.93 500.93 C 357.87 500.43 359.72 500.67 361.48 501.66 C 361.27 506.57 361.60 511.48 361.63 516.39 C 359.47 519.21 355.19 519.67 352.50 517.36 C 348.69 514.61 344.10 513.47 339.46 514.42 C 339.56 520.91 339.05 527.46 340.13 533.90 C 340.49 536.60 340.49 539.34 340.58 542.07 C 343.91 538.87 348.60 537.80 352.02 534.73 C 353.41 534.07 354.80 533.39 355.96 532.35 C 357.60 532.43 359.17 532.91 360.70 533.50 C 360.68 539.10 362.33 544.96 360.23 550.36 C 356.47 551.10 352.36 550.90 349.05 548.81 C 346.50 547.12 343.39 547.33 340.48 547.26 C 341.45 556.54 341.66 565.89 342.66 575.18 C 344.53 573.82 346.29 572.33 348.00 570.78 C 351.59 570.92 354.32 568.43 356.09 565.56 C 356.97 565.57 358.74 565.60 359.62 565.62 C 359.56 566.19 359.44 567.35 359.37 567.93 C 358.72 572.14 358.83 576.41 359.32 580.64 C 359.86 580.57 360.94 580.43 361.48 580.36 C 362.37 576.25 362.55 572.04 362.81 567.87 C 362.83 567.53 362.88 566.86 362.90 566.53 C 360.88 566.46 358.86 566.27 359.46 563.64 C 361.09 563.80 362.84 563.81 364.33 564.62 C 366.54 566.50 364.74 569.54 364.46 571.92 C 363.58 575.31 365.52 579.83 362.44 582.40 C 360.03 583.04 357.50 582.46 355.06 582.83 C 353.90 581.78 352.76 580.73 351.63 579.67 C 348.61 579.33 345.63 578.71 342.66 578.14 C 343.76 588.03 343.17 598.01 343.52 607.94 C 344.67 607.11 345.82 606.28 346.96 605.45 C 347.46 605.82 348.47 606.54 348.97 606.91 C 349.18 606.16 349.60 604.66 349.81 603.91 C 351.71 603.36 352.86 601.74 354.00 600.25 C 356.22 600.98 358.27 600.12 359.67 598.32 C 361.67 598.27 363.63 598.72 365.35 599.78 C 365.41 604.90 365.18 610.02 364.66 615.11 C 364.60 616.39 363.73 617.42 363.23 618.56 C 360.46 618.72 357.61 616.45 355.07 618.22 C 353.55 617.78 352.03 617.41 350.51 617.01 C 350.47 613.23 345.94 614.78 343.54 614.11 C 343.21 622.55 341.43 630.84 341.30 639.29 C 338.10 640.94 334.43 640.62 330.95 640.68 C 311.00 641.89 290.96 641.43 270.99 642.08 C 263.48 641.83 255.85 642.85 248.42 641.57 C 247.76 639.46 247.68 637.24 247.68 635.05 C 246.52 613.40 245.68 591.68 246.80 570.01 C 247.87 545.17 246.74 520.28 247.66 495.43 C 248.68 494.77 249.52 493.51 250.91 493.71 Z" />
<path fill="#f5f4f0" d=" M 329.39 497.08 C 331.77 496.66 334.11 495.99 336.48 495.48 C 336.83 507.06 336.34 518.65 336.92 530.21 C 338.32 538.78 336.88 547.50 338.47 556.04 C 339.18 570.03 340.77 583.97 340.54 598.01 C 340.30 605.61 341.02 613.29 339.93 620.83 C 339.88 626.42 338.03 631.81 338.54 637.43 C 309.31 639.02 280.03 639.39 250.76 639.21 C 250.82 632.12 249.49 625.11 249.68 618.02 C 249.83 610.00 248.52 602.02 249.07 594.00 C 248.10 584.62 249.90 575.31 249.64 565.93 C 249.98 551.29 249.67 536.65 249.90 522.00 C 249.76 513.71 250.46 505.44 250.65 497.15 C 255.06 496.26 259.79 495.81 264.11 497.34 C 276.10 498.52 288.02 496.05 300.01 496.45 C 305.33 496.48 310.65 496.39 315.97 496.48 C 320.43 496.73 324.90 497.71 329.39 497.08 Z" />
<path fill="#495052" d=" M 178.28 502.42 L 178.76 502.43 C 179.35 502.71 180.53 503.28 181.12 503.56 C 186.19 503.75 191.26 503.50 196.33 503.71 C 197.66 508.81 195.80 513.96 195.35 519.06 C 194.02 524.68 195.16 530.67 193.09 536.13 C 191.52 536.95 189.66 536.68 187.96 536.81 C 177.96 536.78 167.96 536.75 157.96 537.09 C 156.49 537.16 155.10 536.58 153.70 536.24 C 152.69 526.09 154.14 515.99 154.31 505.87 C 155.27 504.86 156.18 503.82 157.03 502.74 C 160.22 503.26 163.45 503.39 166.68 503.36 C 167.46 503.36 169.01 503.36 169.79 503.36 C 172.58 503.06 175.83 504.11 178.28 502.42 Z" />
<path fill="#e8936b" d=" M 353.95 502.54 C 354.52 503.09 355.09 503.65 355.67 504.22 C 355.66 507.01 355.62 509.80 355.44 512.59 C 353.57 511.83 351.71 511.08 349.85 510.31 C 350.86 508.94 351.86 507.57 352.85 506.20 C 352.41 506.16 351.51 506.08 351.07 506.04 C 352.08 504.92 353.05 503.75 353.95 502.54 Z" />
<path fill="#f5f4f0" d=" M 157.18 506.16 C 160.54 506.23 163.91 506.20 167.26 506.40 C 167.59 511.34 168.49 516.22 169.26 521.10 C 169.72 521.96 169.42 524.20 170.96 523.82 C 172.77 524.14 173.15 521.87 173.79 520.69 C 175.43 515.81 177.28 511.00 179.64 506.41 C 184.40 506.57 189.16 506.52 193.92 506.55 C 193.70 512.09 192.47 517.52 191.76 523.01 C 191.49 526.60 191.60 530.24 190.69 533.75 C 179.30 533.54 167.94 534.36 156.55 534.27 C 155.91 524.89 156.67 515.52 157.18 506.16 Z" />
<path fill="#13b824" d=" M 167.26 506.40 L 168.90 504.97 L 169.82 506.34 C 170.48 510.35 170.87 514.41 171.72 518.40 C 172.99 514.24 174.38 510.10 176.43 506.26 C 177.61 505.20 178.68 505.25 179.64 506.41 C 177.28 511.00 175.43 515.81 173.79 520.69 C 173.15 521.87 172.77 524.14 170.96 523.82 C 169.42 524.20 169.72 521.96 169.26 521.10 C 168.49 516.22 167.59 511.34 167.26 506.40 Z" />
<path fill="#f4f4ef" d=" M 169.82 506.34 C 172.02 506.23 174.22 506.22 176.43 506.26 C 174.38 510.10 172.99 514.24 171.72 518.40 C 170.87 514.41 170.48 510.35 169.82 506.34 Z" />
<path fill="#e37e4d" d=" M 351.07 506.04 C 351.51 506.08 352.41 506.16 352.85 506.20 C 351.86 507.57 350.86 508.94 349.85 510.31 C 351.71 511.08 353.57 511.83 355.44 512.59 C 355.33 513.27 355.12 514.63 355.01 515.32 C 354.61 515.24 353.82 515.09 353.42 515.01 C 350.33 514.49 347.65 512.69 344.78 511.55 C 344.58 510.74 344.41 509.93 344.27 509.13 C 344.48 508.88 344.90 508.38 345.11 508.13 C 345.35 508.85 345.85 510.29 346.09 511.01 C 348.27 510.26 348.54 506.83 351.07 506.04 Z" />
<path fill="#000000" d=" M 311.96 510.12 C 317.51 510.41 322.92 508.98 328.36 508.20 C 328.41 508.75 328.51 509.84 328.56 510.39 C 323.71 512.73 318.23 512.62 312.97 512.65 C 306.29 512.58 299.61 512.25 292.95 511.89 C 281.17 512.57 269.37 512.21 257.58 512.37 C 257.50 511.39 257.43 510.41 257.37 509.44 C 275.56 509.56 293.79 508.93 311.96 510.12 Z" />
<path fill="#e8b098" d=" M 339.35 510.32 C 340.95 509.76 342.59 509.33 344.27 509.13 C 344.41 509.93 344.58 510.74 344.78 511.55 C 343.00 511.89 341.21 512.21 339.42 512.47 C 339.40 511.93 339.37 510.86 339.35 510.32 Z" />
<path fill="#80736b" d=" M 353.42 515.01 C 353.82 515.09 354.61 515.24 355.01 515.32 C 354.28 516.75 353.75 516.65 353.42 515.01 Z" />
<path fill="#090909" d=" M 271.13 522.16 C 288.47 520.01 305.91 521.96 323.29 521.81 C 323.50 522.50 323.92 523.88 324.13 524.57 C 313.04 525.05 302.03 522.98 290.94 523.41 C 283.15 523.68 275.34 524.02 267.65 525.36 C 264.54 525.63 261.42 525.44 258.31 525.35 C 258.27 524.34 258.24 523.35 258.21 522.35 C 262.52 522.34 266.85 522.72 271.13 522.16 Z" />
<path fill="#7d7d7b" d=" M 267.65 525.36 C 275.34 524.02 283.15 523.68 290.94 523.41 C 302.03 522.98 313.04 525.05 324.13 524.57 C 319.88 525.86 315.33 525.01 310.96 524.97 C 300.72 523.62 290.35 523.73 280.06 524.46 C 275.92 524.79 271.81 525.64 267.65 525.36 Z" />
<path fill="#f5cd7c" d=" M 438.97 531.05 C 450.65 530.41 462.31 529.54 474.01 529.33 C 481.67 529.34 489.33 529.32 496.98 528.86 C 512.64 528.70 528.32 528.75 543.99 528.74 C 554.97 528.75 566.01 528.44 576.92 529.97 C 587.92 531.49 599.01 532.29 609.98 533.99 C 621.06 535.43 631.94 538.23 643.11 538.95 C 644.89 539.09 646.76 539.23 648.30 540.27 C 646.70 540.41 645.14 540.62 643.56 540.74 C 632.92 540.01 622.56 537.19 611.99 535.88 C 600.37 534.01 588.64 532.97 576.96 531.59 C 566.71 530.13 556.32 530.24 545.99 530.24 C 513.64 530.22 481.27 530.30 448.97 532.04 C 444.09 532.00 439.22 533.04 434.36 532.77 C 433.87 532.66 432.90 532.45 432.41 532.35 C 434.38 531.15 436.75 531.24 438.97 531.05 Z" />
<path fill="#f6b42d" d=" M 419.88 533.30 C 424.05 533.06 428.21 531.84 432.41 532.35 C 432.90 532.45 433.87 532.66 434.36 532.77 C 422.96 535.09 411.24 535.56 400.05 538.96 C 394.40 540.99 388.32 540.88 382.52 542.25 C 376.20 542.75 369.76 543.81 363.48 542.44 C 363.35 541.89 363.08 540.80 362.95 540.25 C 382.31 544.25 400.89 535.38 419.88 533.30 Z" />
<path fill="#000000" d=" M 311.76 535.87 C 317.33 535.36 322.88 534.32 328.49 534.75 C 329.79 535.12 329.53 536.50 329.65 537.54 C 320.07 537.40 310.57 538.67 301.04 539.40 C 287.26 539.75 273.47 539.77 259.68 539.69 C 259.65 539.14 259.58 538.02 259.54 537.46 C 263.60 536.25 267.87 536.96 272.04 536.81 C 285.28 536.65 298.58 537.47 311.76 535.87 Z" />
<path fill="#f5cd7c" d=" M 355.25 535.11 C 356.40 535.13 357.55 535.15 358.71 535.18 C 358.57 539.57 359.25 544.06 358.37 548.38 C 357.70 548.45 356.35 548.59 355.68 548.66 C 355.31 544.15 355.66 539.61 355.25 535.11 Z" />
<path fill="#f5cd7c" d=" M 346.20 544.30 C 345.90 539.63 350.83 538.67 353.67 536.20 C 353.66 540.19 353.61 544.17 353.43 548.15 C 350.82 547.45 348.46 546.13 346.18 544.74 C 344.28 544.75 342.38 544.76 340.49 544.74 C 341.70 543.83 342.92 542.93 344.14 542.03 C 344.66 542.60 345.69 543.74 346.20 544.30 Z" />
<path fill="#f6b229" d=" M 643.56 540.74 C 645.14 540.62 646.70 540.41 648.30 540.27 C 660.26 541.58 672.38 542.08 684.16 544.86 C 688.23 545.99 692.54 545.60 696.64 546.61 C 699.01 547.61 701.31 548.91 703.99 548.85 C 704.84 552.51 700.24 551.87 698.31 550.55 C 695.52 548.84 692.27 548.56 689.10 548.37 C 674.08 545.04 658.90 542.11 643.56 540.74 Z" />
<path fill="#242423" d=" M 719.70 540.62 C 720.00 540.26 720.60 539.56 720.89 539.21 C 721.01 539.84 721.25 541.11 721.37 541.75 C 726.32 539.63 731.85 541.42 737.05 541.21 C 745.73 541.01 754.46 541.97 763.11 540.92 C 764.97 540.10 764.51 542.47 764.49 543.44 C 760.38 542.65 756.21 542.38 752.04 542.38 C 741.78 542.29 731.49 541.93 721.29 543.23 C 720.71 549.81 720.31 556.40 719.81 562.99 C 719.89 566.91 720.54 570.86 719.80 574.77 C 719.19 574.69 717.99 574.53 717.39 574.45 C 717.37 569.60 719.02 564.96 719.16 560.13 C 719.31 553.62 719.57 547.11 719.70 540.62 Z" />
<path fill="#131312" d=" M 764.19 545.10 C 764.76 545.16 765.90 545.27 766.46 545.32 C 765.74 550.19 765.09 555.07 765.42 560.01 C 765.31 564.48 766.31 569.00 765.41 573.43 C 761.90 573.66 758.38 573.94 754.93 574.65 C 747.09 576.52 738.95 575.07 731.03 576.17 C 728.15 576.54 725.25 576.74 722.36 576.62 C 722.42 576.11 722.54 575.10 722.60 574.60 C 736.26 574.41 750.37 576.10 763.57 571.69 C 764.22 569.85 764.23 567.88 764.28 565.96 C 764.34 559.00 764.52 552.05 764.19 545.10 Z" />
<path fill="#000000" d=" M 259.33 552.89 C 260.08 552.17 260.75 550.74 262.06 551.39 C 272.31 552.87 282.69 552.01 293.01 552.29 C 304.53 552.59 316.01 551.61 327.53 551.66 C 327.60 552.59 327.67 553.54 327.74 554.49 C 309.82 554.75 291.91 554.80 273.99 554.90 C 269.55 554.78 265.09 555.08 260.68 554.39 C 260.34 554.01 259.66 553.26 259.33 552.89 Z" />
<path fill="#f6b42d" d=" M 729.09 554.01 C 730.51 550.25 738.28 550.42 737.81 555.06 C 737.92 556.81 737.07 558.38 736.35 559.92 C 739.01 562.32 739.96 567.37 736.60 569.61 C 734.27 571.33 729.29 571.94 728.77 568.10 C 727.46 564.76 730.45 562.39 732.96 560.88 C 730.38 559.70 727.18 557.17 729.09 554.01 Z" />
<path fill="#f6b32a" d=" M 745.56 554.40 C 748.33 551.54 754.72 551.72 756.25 555.85 C 757.29 561.98 751.09 568.49 744.88 566.40 C 744.53 565.83 743.83 564.70 743.48 564.13 C 744.24 560.90 745.14 557.69 745.56 554.40 Z" />
<path fill="#f5f4f0" d=" M 731.21 555.15 C 731.76 553.17 734.13 553.85 735.61 554.25 C 735.43 555.86 735.26 557.49 735.09 559.11 C 733.49 558.18 730.37 557.67 731.21 555.15 Z" />
<path fill="#f5f4f0" d=" M 747.66 555.44 C 749.64 554.74 751.71 555.08 753.74 555.45 C 755.12 560.18 750.96 565.38 745.98 564.25 C 746.32 561.26 747.45 558.44 747.66 555.44 Z" />
<path fill="#f5f4f0" d=" M 730.65 567.04 C 731.01 564.61 733.55 563.53 735.18 562.03 C 736.38 563.48 736.38 565.36 736.57 567.15 C 734.69 567.96 731.39 570.31 730.65 567.04 Z" />
<path fill="#888885" d=" M 311.92 565.97 C 317.69 565.60 323.39 564.43 329.19 564.77 C 329.37 565.34 329.73 566.47 329.90 567.04 C 329.73 567.31 329.38 567.85 329.20 568.12 C 316.12 568.69 303.10 570.38 290.01 570.80 C 281.03 570.50 272.05 570.91 263.08 570.66 C 262.71 570.46 261.97 570.08 261.60 569.88 C 270.08 569.60 278.55 570.46 287.02 570.03 C 300.54 569.83 314.00 568.37 327.48 567.54 C 327.78 567.36 328.38 567.00 328.68 566.81 C 329.56 564.43 326.28 565.66 325.02 565.44 C 315.63 566.33 306.26 567.48 296.81 567.48 C 301.80 566.56 306.89 566.47 311.92 565.97 Z" />
<path fill="#000000" d=" M 296.81 567.48 C 306.26 567.48 315.63 566.33 325.02 565.44 C 326.28 565.66 329.56 564.43 328.68 566.81 C 328.38 567.00 327.78 567.36 327.48 567.54 C 314.00 568.37 300.54 569.83 287.02 570.03 C 278.55 570.46 270.08 569.60 261.60 569.88 C 261.30 568.26 262.17 566.95 263.92 567.23 C 274.88 567.36 285.85 567.76 296.81 567.48 Z" />
<path fill="#82cae7" d=" M 359.50 566.75 C 360.59 567.16 361.69 567.53 362.81 567.87 C 362.55 572.04 362.37 576.25 361.48 580.36 C 360.94 580.43 359.86 580.57 359.32 580.64 C 358.83 576.41 358.72 572.14 359.37 567.93 L 359.50 566.75 Z" />
<path fill="#78c7e6" d=" M 352.48 572.31 C 353.89 570.68 355.62 569.38 357.24 567.97 C 356.83 572.42 356.60 576.89 356.53 581.37 C 355.28 580.15 353.95 578.99 352.44 578.12 C 351.98 576.24 351.17 574.03 352.48 572.31 Z" />
<path fill="#82cae7" d=" M 344.94 576.63 C 346.41 575.25 347.94 573.94 349.55 572.73 C 349.60 574.10 349.65 575.46 349.69 576.84 C 348.10 576.77 346.52 576.71 344.94 576.63 Z" />
<path fill="#31ade1" d=" M 371.24 576.49 C 378.03 574.80 385.08 575.72 391.99 575.51 C 407.32 575.08 422.65 575.72 437.97 576.16 C 446.31 576.32 454.77 575.70 463.02 577.15 C 479.55 581.80 496.39 586.18 511.52 594.53 C 519.84 599.02 529.25 600.94 537.62 605.32 C 543.79 608.25 550.74 609.07 556.85 612.17 C 565.07 616.28 573.07 620.86 581.52 624.52 C 593.17 628.92 604.81 633.61 617.07 636.10 C 623.45 636.99 629.60 638.96 635.92 640.15 C 645.09 641.65 654.13 643.85 663.05 646.41 C 668.49 648.00 674.25 647.44 679.80 648.39 C 683.97 649.10 688.21 649.24 692.41 649.65 C 692.78 650.00 693.52 650.68 693.89 651.02 C 693.41 651.29 692.44 651.84 691.96 652.11 C 684.54 651.57 677.37 649.45 669.97 648.77 C 659.04 647.58 648.85 643.00 637.99 641.43 C 631.90 640.40 626.02 638.42 619.92 637.48 C 615.23 636.61 610.42 636.48 605.84 635.13 C 599.72 633.64 593.92 631.19 588.11 628.84 C 575.83 625.10 565.91 616.26 553.78 612.16 C 546.89 610.45 540.17 608.15 533.68 605.26 C 524.30 602.15 515.42 597.74 506.81 592.94 C 499.30 589.41 491.57 586.35 483.56 584.17 C 476.54 581.36 469.00 580.43 461.81 578.21 C 453.64 576.88 445.31 576.57 437.04 576.75 C 428.36 576.57 419.68 576.56 411.03 577.16 C 397.95 577.82 384.71 576.06 371.76 578.38 C 371.63 577.91 371.37 576.96 371.24 576.49 Z" />
<path fill="#7f7e7c" d=" M 292.92 583.30 C 299.27 582.82 305.63 582.46 312.01 582.49 C 317.81 582.57 323.61 581.77 329.41 582.39 C 321.99 583.26 314.53 583.18 307.08 583.20 C 291.61 584.03 276.09 584.21 260.61 583.60 C 271.37 582.96 282.16 583.63 292.92 583.30 Z" />
<path fill="#000000" d=" M 307.08 583.20 C 314.53 583.18 321.99 583.26 329.41 582.39 C 329.35 583.09 329.22 584.48 329.16 585.18 C 320.78 585.72 312.36 585.36 303.97 585.56 C 289.51 586.59 274.97 586.66 260.48 586.45 C 260.52 585.49 260.56 584.54 260.61 583.60 C 276.09 584.21 291.61 584.03 307.08 583.20 Z" />
<path fill="#030303" d=" M 718.33 583.53 C 733.56 583.48 748.89 584.36 764.06 582.55 C 765.61 582.77 766.55 584.38 767.27 585.65 C 768.51 589.10 769.78 592.55 770.96 596.04 C 770.49 595.94 769.54 595.75 769.07 595.65 C 767.81 592.09 767.08 587.63 763.95 585.26 C 749.42 585.16 734.86 583.85 720.34 585.18 C 720.59 585.87 721.08 587.25 721.33 587.95 C 719.03 590.24 716.05 592.12 714.83 595.26 C 716.52 595.48 718.22 595.73 719.91 596.10 C 722.31 596.37 724.72 596.57 727.13 596.84 C 731.35 597.84 735.77 597.21 740.07 597.55 C 748.94 597.64 758.02 598.66 766.67 596.16 C 766.73 596.72 766.84 597.86 766.90 598.42 C 763.04 599.96 758.99 598.97 755.04 598.65 C 747.03 598.58 739.02 598.56 731.02 598.26 C 724.87 597.50 718.67 597.33 712.48 597.22 C 712.33 596.12 711.62 594.80 712.75 593.98 C 714.98 591.66 717.05 589.20 719.39 587.00 C 718.49 586.05 718.28 584.79 718.33 583.53 Z" />
<path fill="#161616" d=" M 727.85 586.65 C 738.50 587.03 749.09 589.45 759.80 588.22 C 759.82 588.63 759.86 589.44 759.89 589.85 C 753.97 589.28 748.01 589.81 742.12 588.98 C 737.26 588.38 732.38 588.84 727.52 588.57 C 727.60 588.09 727.77 587.13 727.85 586.65 Z" />
<path fill="#0f0f0f" d=" M 727.11 594.86 C 727.31 593.61 727.45 592.15 729.11 592.49 C 737.63 592.17 746.23 593.30 754.71 592.03 C 754.71 592.47 754.71 593.36 754.71 593.80 C 745.50 593.48 736.22 593.29 727.11 594.86 Z" />
<path fill="#080807" d=" M 304.21 598.97 C 312.31 598.59 320.22 596.17 328.38 596.75 C 328.39 597.71 328.40 598.68 328.41 599.66 C 316.86 599.43 305.51 602.18 293.99 602.47 C 282.88 602.50 271.77 602.48 260.66 602.43 C 260.57 601.45 260.49 600.47 260.42 599.50 C 275.00 598.90 289.67 600.61 304.21 598.97 Z" />
<path fill="#5bc564" d=" M 357.99 600.28 C 359.71 600.46 361.43 600.66 363.15 600.86 C 363.30 605.11 363.43 609.36 363.34 613.62 L 362.60 613.87 C 361.44 614.23 360.32 614.76 359.37 615.52 L 358.67 616.01 C 358.66 615.40 358.65 614.17 358.64 613.56 C 360.48 611.80 362.66 609.80 362.28 606.97 C 362.47 604.71 360.06 603.80 358.80 602.40 C 358.60 601.87 358.20 600.81 357.99 600.28 Z" />
<path fill="#7ad481" d=" M 351.61 606.16 C 353.35 604.45 355.02 602.67 356.53 600.75 C 356.49 605.74 356.48 610.72 356.40 615.71 C 354.66 615.56 352.93 615.42 351.20 615.30 C 351.90 612.25 349.74 609.02 351.61 606.16 Z" />
<path fill="#76d27d" d=" M 358.80 602.40 C 360.06 603.80 362.47 604.71 362.28 606.97 C 362.66 609.80 360.48 611.80 358.64 613.56 C 358.52 609.84 358.36 606.10 358.80 602.40 Z" />
<path fill="#18b928" d=" M 372.04 606.19 C 381.35 607.63 390.67 608.98 399.94 610.68 C 410.44 611.96 421.14 613.28 431.00 617.35 C 438.47 619.82 445.40 623.64 452.81 626.28 C 466.79 631.27 481.13 636.03 493.42 644.57 C 496.25 646.80 498.98 649.21 502.17 650.95 C 516.91 658.68 530.46 668.43 544.05 677.99 C 548.03 681.42 552.09 684.83 556.82 687.22 C 567.49 692.36 575.98 700.83 585.86 707.22 C 596.91 713.70 608.52 719.18 619.76 725.31 C 629.75 729.62 639.27 735.22 649.86 738.01 C 660.31 739.64 670.46 742.72 680.90 744.48 C 686.29 745.88 691.88 746.01 697.42 745.73 C 697.55 746.71 697.69 747.70 697.82 748.69 C 691.16 749.08 684.57 747.75 678.21 745.92 C 668.40 744.39 658.95 741.15 649.10 739.86 C 641.60 738.82 635.67 733.93 628.88 731.07 C 622.00 727.50 615.09 723.97 607.91 721.05 C 600.09 717.51 593.34 712.12 585.70 708.27 C 579.04 704.83 573.61 699.57 567.41 695.45 C 563.76 693.15 560.15 690.78 556.44 688.59 C 549.00 684.66 543.14 678.48 536.28 673.69 C 528.38 668.17 520.07 663.26 512.11 657.83 C 509.29 655.84 506.32 654.07 503.23 652.56 C 497.76 649.90 493.75 645.05 488.26 642.44 C 476.92 634.99 463.65 631.49 451.14 626.55 C 439.04 621.65 426.85 616.65 413.97 614.16 C 409.05 613.20 403.95 613.68 399.07 612.46 C 391.53 610.74 383.85 609.62 376.12 609.30 C 374.18 609.25 372.07 608.40 372.04 606.19 Z" />
<path fill="#4fa456" d=" M 342.80 611.76 C 344.17 609.46 346.76 608.43 348.86 606.96 C 348.74 608.76 348.62 610.56 348.51 612.37 C 346.60 612.19 344.69 612.01 342.80 611.76 Z" />
<path fill="#f4f4ef" d=" M 359.37 615.52 C 360.32 614.76 361.44 614.23 362.60 613.87 C 362.53 614.45 362.40 615.60 362.33 616.18 C 361.04 616.88 360.06 616.66 359.37 615.52 Z" />
<path fill="#000000" d=" M 307.42 615.52 C 315.11 615.41 322.86 615.01 330.52 615.62 L 330.67 617.25 C 330.32 617.48 329.63 617.95 329.29 618.18 C 321.72 618.39 314.14 617.99 306.58 618.38 C 296.80 619.70 286.97 621.18 277.06 620.82 C 271.25 620.56 265.32 621.42 259.59 620.26 C 259.56 619.60 259.52 618.28 259.49 617.62 C 268.37 617.63 277.24 618.66 286.13 618.09 C 293.23 617.28 300.36 616.61 307.42 615.52 Z" />
<path fill="#0b0b0b" d=" M 713.23 638.71 C 717.86 635.34 723.77 637.04 729.05 636.79 C 740.13 637.16 751.29 636.00 762.32 637.62 C 764.07 642.27 762.27 647.21 762.03 651.99 C 760.61 658.37 764.06 665.12 761.25 671.26 C 759.16 671.60 757.08 672.10 754.97 671.97 C 746.01 671.43 737.03 671.51 728.08 671.75 C 724.37 672.27 720.55 672.33 716.98 671.09 C 715.74 670.59 715.06 669.40 714.75 668.19 C 713.94 659.07 714.87 649.90 714.29 640.78 C 714.03 640.26 713.50 639.22 713.23 638.71 Z" />
<path fill="#f5f4f0" d=" M 716.28 639.40 C 720.08 638.43 724.04 638.53 727.90 637.87 C 738.84 637.07 749.74 638.21 760.59 639.46 C 761.57 642.93 761.27 646.57 761.13 650.13 C 760.35 656.44 760.06 662.81 759.67 669.15 C 752.27 671.02 744.58 670.45 737.03 670.55 C 730.44 670.36 723.54 671.07 717.30 668.55 C 714.30 659.22 715.47 649.04 716.28 639.40 Z" />
<path fill="#31ace1" d=" M 723.70 649.86 C 724.68 647.06 729.08 645.44 731.22 647.86 C 732.19 650.16 732.66 652.99 731.19 655.21 C 729.98 656.94 728.71 658.64 727.85 660.58 C 728.89 661.22 729.93 661.87 730.98 662.53 C 731.86 662.26 733.63 661.71 734.51 661.44 C 734.67 663.17 734.05 664.85 732.08 664.80 C 729.29 664.80 726.91 663.02 724.37 662.12 C 725.60 657.55 730.89 654.51 729.55 649.35 C 728.51 649.37 727.47 649.40 726.44 649.43 C 726.37 651.25 726.29 653.05 726.20 654.88 C 724.52 653.82 723.26 651.90 723.70 649.86 Z" />
<path fill="#50b8e3" d=" M 740.69 647.49 C 743.79 646.71 746.99 646.57 750.16 646.98 C 749.61 650.74 745.13 648.70 742.56 649.16 C 742.45 651.06 742.34 652.96 742.24 654.87 C 744.76 654.15 748.17 652.25 750.09 655.08 C 751.42 657.72 751.89 661.44 749.86 663.85 C 747.70 665.61 744.69 665.98 742.00 666.03 C 740.15 665.70 739.36 664.16 739.43 662.40 C 740.77 662.48 741.97 662.95 743.04 663.80 C 745.05 663.69 747.57 663.82 748.69 661.75 C 749.20 659.78 748.52 657.82 748.02 655.95 C 745.43 656.41 742.86 656.95 740.31 657.54 C 740.40 654.18 740.64 650.84 740.69 647.49 Z" />
<path fill="#0b0b0a" d=" M 714.75 676.84 C 721.78 675.73 728.93 676.61 736.01 676.35 C 743.34 676.86 750.64 674.88 757.95 675.82 C 761.82 677.46 763.65 681.62 766.59 684.41 C 768.09 686.37 771.14 687.73 770.67 690.61 C 769.86 690.49 769.07 690.37 768.28 690.26 C 763.64 691.47 758.77 690.07 754.08 691.09 C 740.73 691.91 727.33 691.40 713.96 691.88 C 711.61 691.91 708.25 691.62 707.50 688.93 C 706.15 684.15 711.74 682.09 714.55 679.47 C 714.60 678.81 714.70 677.50 714.75 676.84 Z" />
<path fill="#f5f4f0" d=" M 716.63 678.47 C 722.07 677.98 727.53 677.62 733.00 677.82 C 741.50 678.06 750.14 676.80 758.53 678.59 C 762.13 681.49 764.86 685.30 768.16 688.53 C 765.42 688.48 762.68 688.50 760.00 689.02 C 745.43 691.09 730.66 690.96 716.00 690.32 C 713.74 689.83 709.55 690.01 709.52 686.87 C 711.14 684.18 713.87 682.48 716.47 680.86 C 716.51 680.26 716.59 679.07 716.63 678.47 Z" />
<path fill="#101010" d=" M 723.26 680.44 C 733.37 679.55 743.52 681.33 753.64 680.58 C 753.62 681.09 753.56 682.11 753.53 682.62 C 747.78 681.29 741.86 681.70 736.01 681.48 C 731.78 681.35 727.56 681.75 723.40 682.45 C 723.36 681.95 723.30 680.94 723.26 680.44 Z" />
<path fill="#323131" d=" M 725.69 686.13 C 723.90 686.08 724.01 683.96 725.72 683.87 C 734.00 684.29 742.31 684.52 750.59 683.78 C 750.32 684.24 749.79 685.17 749.52 685.63 C 741.58 685.34 733.61 685.41 725.69 686.13 Z" />
<path fill="#1e1e1d" d=" M 729.00 731.81 C 737.95 731.03 746.95 731.77 755.87 730.73 C 756.77 730.95 757.65 731.26 758.51 731.66 C 758.86 737.16 757.60 742.58 757.38 748.06 C 756.97 752.34 757.65 756.63 757.44 760.91 C 757.53 762.24 756.16 762.51 755.17 762.78 C 750.48 763.82 745.72 762.57 741.01 762.87 C 732.67 763.70 724.28 763.22 715.92 763.32 C 714.20 763.57 712.39 761.79 712.83 760.07 C 714.01 752.71 714.50 745.26 716.04 737.96 C 716.71 735.46 715.29 732.38 717.64 730.50 C 720.86 732.93 725.25 731.51 729.00 731.81 Z" />
<path fill="#f5f4f0" d=" M 718.68 734.23 C 731.15 732.90 743.76 731.37 756.30 732.75 C 757.46 742.07 755.56 751.30 755.02 760.56 C 748.76 761.53 742.41 761.31 736.12 761.84 C 729.21 762.50 722.23 762.19 715.37 761.19 C 715.18 752.12 715.22 742.77 718.68 734.23 Z" />
<path fill="#000000" d=" M 148.18 742.57 C 148.30 739.60 147.79 736.54 148.65 733.66 C 149.32 733.65 150.65 733.63 151.32 733.62 C 151.34 736.60 151.22 739.59 151.15 742.58 C 152.34 742.90 153.53 743.20 154.74 743.49 C 154.67 743.99 154.53 744.97 154.46 745.47 C 153.26 745.79 151.53 745.35 150.85 746.69 C 150.30 753.44 148.79 760.07 147.51 766.71 C 146.94 766.67 145.82 766.58 145.26 766.54 C 145.58 759.53 148.02 752.78 147.86 745.71 C 146.99 745.60 145.24 745.40 144.37 745.29 C 144.36 744.30 144.35 743.33 144.36 742.36 C 145.63 742.41 146.91 742.48 148.18 742.57 Z" />
<path fill="#19ba2a" d=" M 724.54 739.55 C 726.88 739.07 729.29 739.26 731.66 739.38 C 731.57 739.90 731.40 740.93 731.31 741.45 C 729.63 741.42 727.98 741.40 726.32 741.37 C 726.10 742.76 725.88 744.15 725.66 745.56 C 727.48 745.38 729.34 745.33 731.18 745.60 C 732.11 748.05 732.86 750.56 733.37 753.14 C 733.04 753.65 732.38 754.68 732.05 755.19 C 729.37 755.67 726.15 757.43 723.99 754.85 C 726.16 753.79 728.60 753.71 730.94 753.35 C 730.67 751.31 730.19 749.32 729.33 747.47 C 727.39 747.97 725.44 748.43 723.45 748.54 C 723.60 745.51 724.23 742.55 724.54 739.55 Z" />
<path fill="#000000" d=" M 95.22 741.32 C 99.38 741.87 104.04 740.67 107.73 743.18 C 111.18 745.36 111.88 750.98 108.64 753.66 C 106.16 756.50 102.32 757.26 98.75 757.70 C 98.72 761.96 98.80 766.22 98.64 770.49 C 98.06 770.49 96.91 770.49 96.33 770.50 C 95.83 760.76 95.83 751.04 95.22 741.32 Z" />
<path fill="#15b926" d=" M 738.62 740.57 C 741.41 740.35 744.19 740.74 746.93 741.30 C 746.96 743.53 745.36 745.02 743.92 746.48 C 744.99 746.94 746.08 747.41 747.18 747.88 C 747.62 749.26 748.49 750.59 748.31 752.12 C 746.89 755.60 742.63 755.93 739.51 756.85 C 739.39 756.27 739.15 755.12 739.04 754.55 C 741.81 754.00 746.99 753.72 745.67 749.53 C 743.67 748.68 739.65 749.62 739.41 746.85 C 740.95 745.56 742.59 744.39 744.12 743.09 C 742.14 742.56 739.34 743.07 738.62 740.57 Z" />
<path fill="#f5f4f0" d=" M 98.66 744.67 C 101.61 744.62 105.88 743.92 107.49 747.09 C 109.35 752.22 102.78 754.74 98.79 754.77 C 98.75 751.40 98.73 748.03 98.66 744.67 Z" />
<path fill="#000000" d=" M 131.68 749.78 C 132.44 748.39 133.41 747.18 135.20 747.71 C 135.80 750.38 133.74 752.81 133.34 755.42 C 135.79 755.19 138.21 754.77 140.62 754.33 C 140.68 755.31 140.73 756.30 140.78 757.30 C 138.16 757.78 135.53 758.19 132.89 758.55 C 132.61 761.61 131.91 764.61 131.15 767.59 C 130.19 767.53 129.24 767.47 128.30 767.42 C 129.20 763.79 130.70 759.88 128.09 756.65 C 128.66 756.33 129.79 755.68 130.36 755.36 C 130.73 753.48 131.22 751.63 131.68 749.78 Z" />
<path fill="#010100" d=" M 114.18 756.19 C 115.45 754.42 116.75 752.45 118.95 751.78 C 120.85 751.24 122.60 752.22 124.35 752.82 C 125.75 758.22 124.48 765.33 118.93 767.88 C 115.46 769.78 109.46 767.68 110.14 763.09 C 110.10 760.42 110.53 755.93 114.18 756.19 Z" />
<path fill="#000000" d=" M 157.78 753.87 C 160.02 752.38 162.83 751.65 165.41 752.74 C 165.41 753.38 165.43 754.67 165.44 755.32 C 163.85 755.34 162.27 755.38 160.69 755.43 C 160.34 756.15 159.65 757.59 159.31 758.30 C 161.13 761.15 167.17 761.65 165.20 766.04 C 162.11 770.30 155.87 771.28 151.15 769.55 C 151.19 768.96 151.27 767.78 151.32 767.19 C 155.16 767.46 160.47 768.14 162.68 764.16 C 160.35 763.00 157.50 761.81 156.69 759.08 C 156.35 757.24 157.23 755.55 157.78 753.87 Z" />
<path fill="#f5f4f0" d=" M 116.17 758.49 C 117.32 756.27 118.94 754.04 121.74 754.30 C 123.45 759.33 120.03 767.09 113.74 765.48 C 113.49 764.87 113.00 763.66 112.75 763.05 C 113.14 761.59 113.52 760.15 113.92 758.71 C 114.48 758.65 115.60 758.54 116.17 758.49 Z" />
<path fill="#232322" d=" M 713.81 768.54 C 722.45 767.50 731.20 768.04 739.83 766.87 C 744.24 766.96 748.69 765.67 753.07 766.49 C 756.65 770.99 759.79 775.96 762.49 781.08 C 760.04 784.28 755.57 783.83 751.99 784.19 C 739.37 783.72 726.67 783.01 714.10 784.69 C 712.30 785.18 708.86 784.67 709.60 782.05 C 711.22 777.58 714.94 774.24 717.62 770.39 C 716.17 770.37 714.74 770.35 713.31 770.32 L 713.81 768.54 Z" />
<path fill="#f5f4f0" d=" M 739.06 769.47 C 742.70 769.18 746.36 769.09 750.01 768.76 C 752.08 768.13 753.21 770.20 754.21 771.60 C 756.04 774.60 757.79 777.66 759.48 780.75 C 753.65 783.31 747.20 782.69 741.01 782.80 C 731.33 782.91 721.67 781.74 711.99 782.38 C 713.38 777.61 717.52 774.50 719.74 770.25 C 726.14 769.05 732.64 770.21 739.06 769.47 Z" />
<path fill="#232322" d=" M 726.44 773.28 C 733.97 772.86 741.56 773.81 749.07 772.83 L 749.57 774.52 C 741.63 774.27 733.66 774.27 725.76 775.22 C 725.93 774.73 726.27 773.76 726.44 773.28 Z" />
<path fill="#242423" d=" M 732.97 777.25 C 737.81 777.69 742.55 776.55 747.29 775.76 C 747.66 776.10 748.40 776.79 748.77 777.14 C 742.20 777.94 735.58 778.74 728.94 778.86 C 727.83 778.72 725.59 779.28 726.23 777.44 C 728.35 776.38 730.72 777.29 732.97 777.25 Z" />
</svg>
