<?xml version="1.0" encoding="UTF-8" ?>
<!DOCTYPE svg PUBLIC "-//W3C//DTD SVG 1.1//EN" "http://www.w3.org/Graphics/SVG/1.1/DTD/svg11.dtd">
<svg width="1192pt" height="839pt" viewBox="0 0 1192 839" version="1.1" xmlns="http://www.w3.org/2000/svg">
<path fill="#f5f4f0" d=" M 0.00 0.00 L 1192.00 0.00 L 1192.00 839.00 L 0.00 839.00 L 0.00 0.00 Z" />
<path fill="#dd4e0c" d=" M 360.39 25.39 C 364.42 24.02 368.77 23.90 372.99 23.78 C 378.41 23.62 383.83 26.94 386.13 31.85 C 387.55 35.73 386.20 39.94 384.33 43.42 C 382.10 47.95 377.80 50.82 374.16 54.13 C 369.47 58.22 365.52 63.29 363.31 69.16 C 361.83 72.96 362.51 77.12 362.11 81.09 C 361.51 81.61 360.31 82.64 359.72 83.16 C 357.53 76.43 359.32 68.81 362.76 62.79 C 366.41 56.00 372.74 51.38 378.20 46.17 C 381.06 43.49 382.92 39.78 383.47 35.92 C 383.93 31.65 379.96 28.32 376.17 27.41 C 371.48 27.06 366.63 26.97 362.06 28.25 C 358.28 29.26 354.98 33.50 356.65 37.46 C 358.74 41.03 363.11 41.49 366.65 42.72 C 367.31 46.42 363.23 45.43 361.03 44.76 C 357.09 43.48 353.38 40.34 352.82 36.03 C 352.61 31.31 355.96 26.87 360.39 25.39 Z" />
<path fill="#dd4e0c" d=" M 312.15 29.05 C 312.02 27.14 316.25 26.86 315.44 29.06 C 314.64 34.93 312.96 40.67 311.55 46.43 C 315.46 46.48 319.36 46.50 323.27 46.49 C 324.16 40.87 324.57 35.20 324.73 29.51 C 325.97 29.49 327.20 29.48 328.44 29.48 C 327.86 35.17 327.58 40.91 326.50 46.55 C 330.44 46.71 334.41 46.23 338.34 46.46 C 338.77 46.88 339.64 47.71 340.08 48.12 C 335.60 50.12 330.64 49.39 325.91 49.59 C 325.07 53.52 324.11 57.42 323.31 61.35 C 327.58 60.87 331.91 60.34 336.22 60.76 C 336.30 61.40 336.47 62.68 336.55 63.32 C 331.92 63.96 327.19 63.62 322.57 64.46 C 320.89 70.73 320.24 77.26 318.16 83.42 C 317.50 83.38 316.20 83.31 315.54 83.28 C 316.55 77.03 318.24 70.89 319.52 64.68 C 314.95 64.71 310.39 64.66 305.82 64.59 C 303.97 70.74 303.34 77.24 301.01 83.23 C 300.41 83.32 299.19 83.50 298.59 83.58 C 298.34 82.36 298.55 81.13 298.94 79.96 C 300.47 74.88 301.52 69.67 302.78 64.52 C 298.69 63.79 294.12 64.18 290.47 61.93 C 290.37 61.21 290.16 59.77 290.05 59.04 C 294.64 59.79 299.17 60.94 303.85 60.91 C 304.98 57.16 306.20 53.44 307.12 49.64 C 302.68 49.12 297.47 50.92 293.57 48.22 C 293.77 47.54 294.17 46.18 294.36 45.49 C 298.90 46.51 303.56 46.43 308.19 46.42 C 309.95 40.73 310.49 34.74 312.15 29.05 Z" />
<path fill="#0c0c0c" d=" M 780.93 49.37 C 793.97 50.04 807.08 48.87 820.06 50.47 C 821.99 50.67 824.08 51.22 825.31 52.85 C 826.08 56.51 825.62 60.29 825.48 63.99 C 825.22 69.47 826.19 74.96 825.42 80.43 C 823.97 80.82 822.53 81.39 821.02 81.34 C 811.71 81.18 802.39 81.38 793.08 81.39 C 788.20 81.24 783.46 83.48 778.59 82.38 C 778.38 80.10 778.50 77.82 778.79 75.56 C 779.84 68.03 779.22 60.40 778.68 52.85 C 779.43 51.70 780.19 50.54 780.93 49.37 Z" />
<path fill="#f5f4f0" d=" M 307.00 61.36 C 307.99 57.37 309.36 53.49 310.73 49.61 C 314.70 49.59 318.68 49.56 322.66 49.56 C 321.86 53.56 320.96 57.55 320.14 61.55 C 315.76 61.71 311.37 61.56 307.00 61.36 Z" />
<path fill="#f5f4f0" d=" M 781.32 51.87 C 787.74 50.10 794.43 50.76 801.01 50.69 C 808.32 50.59 815.69 51.48 822.70 53.63 C 824.39 61.82 823.96 70.29 823.16 78.57 C 816.40 78.62 809.72 79.69 802.98 79.99 C 795.59 80.49 788.17 80.06 780.78 80.43 C 780.59 70.92 779.85 61.32 781.32 51.87 Z" />
<path fill="#030303" d=" M 737.89 74.58 C 743.80 74.17 749.66 73.28 755.52 72.39 C 755.56 72.96 755.64 74.11 755.68 74.69 C 749.30 76.72 742.48 74.74 735.94 75.77 C 730.60 77.21 725.11 77.99 719.88 79.84 C 718.89 80.18 717.90 80.51 716.92 80.83 C 714.66 81.66 712.39 82.45 710.13 83.25 C 707.70 84.08 705.28 84.96 702.85 85.76 C 701.59 86.25 700.31 86.71 699.06 87.19 C 696.62 88.00 694.23 88.92 691.82 89.79 C 687.95 91.38 683.97 92.68 680.09 94.21 C 676.27 95.63 672.54 97.24 668.78 98.77 C 663.31 101.19 657.95 103.83 652.72 106.72 C 648.80 109.12 644.88 111.53 640.87 113.77 C 638.20 115.44 635.53 117.12 632.87 118.79 C 627.29 122.01 621.37 124.57 615.75 127.69 C 612.32 129.59 608.95 131.60 605.69 133.76 C 604.72 134.44 603.75 135.11 602.77 135.77 C 601.10 137.09 599.47 138.45 597.84 139.80 C 597.49 140.03 596.79 140.48 596.45 140.70 L 596.34 141.08 C 595.43 141.94 594.54 142.81 593.67 143.69 C 592.40 145.42 591.06 147.10 589.78 148.82 C 586.09 153.18 581.96 157.17 577.62 160.88 L 577.40 161.12 C 575.51 162.61 573.71 164.21 571.93 165.81 C 571.55 166.05 570.78 166.54 570.40 166.78 L 570.57 167.21 C 570.22 167.47 569.53 167.98 569.18 168.23 C 566.34 170.79 563.65 173.54 560.63 175.90 L 560.45 176.17 C 557.50 178.39 554.59 180.66 551.62 182.85 L 551.40 183.21 C 550.20 184.05 549.02 184.92 547.84 185.78 C 542.74 189.46 537.21 192.48 531.87 195.78 C 530.85 196.46 529.85 197.14 528.84 197.82 C 526.76 199.17 524.69 200.52 522.59 201.83 L 522.55 202.30 C 519.63 204.44 516.68 206.55 513.83 208.80 C 506.82 213.29 500.58 219.19 492.64 222.02 C 493.61 226.55 492.70 231.14 492.52 235.70 C 498.26 235.60 504.03 235.16 509.60 233.63 C 509.94 234.00 510.62 234.73 510.95 235.10 C 505.10 236.40 499.30 238.08 493.24 237.98 C 492.78 239.55 492.56 241.18 492.32 242.80 C 492.02 243.27 491.42 244.20 491.12 244.67 C 488.06 244.07 485.00 243.53 481.88 243.55 C 478.63 242.85 475.45 241.80 472.12 241.55 C 469.28 241.13 466.01 241.49 463.85 239.22 C 462.75 237.75 461.77 236.20 460.94 234.58 C 459.38 234.46 457.83 234.37 456.29 234.22 C 453.39 233.92 450.49 233.60 447.59 233.31 C 447.10 231.52 446.60 229.72 446.11 227.93 C 447.96 226.91 449.80 225.89 451.66 224.88 C 458.52 221.33 465.73 218.45 472.24 214.25 C 473.38 213.33 474.87 213.34 476.25 213.14 C 476.38 213.90 476.65 215.41 476.78 216.17 C 477.20 216.54 478.03 217.28 478.45 217.65 C 478.57 219.59 478.94 221.64 477.80 223.38 C 478.11 223.68 478.44 223.99 478.77 224.31 C 487.59 221.98 496.43 219.23 504.16 214.25 C 506.15 212.90 508.15 211.57 510.16 210.24 C 511.56 209.21 512.96 208.17 514.39 207.18 L 514.54 206.80 C 520.84 201.91 527.01 196.87 534.15 193.23 C 537.47 191.18 540.84 189.23 544.19 187.23 C 546.89 185.29 549.56 183.31 552.19 181.28 C 553.51 180.25 554.83 179.21 556.18 178.22 C 557.87 176.92 559.52 175.56 561.20 174.24 C 565.12 171.08 568.44 167.27 572.38 164.14 L 572.51 163.83 C 574.51 162.29 576.42 160.63 578.43 159.08 L 578.35 158.82 C 578.73 158.47 579.49 157.75 579.86 157.40 L 580.63 157.66 L 580.41 156.42 L 581.58 156.62 L 581.57 155.90 C 583.58 154.12 585.50 152.26 587.37 150.34 C 587.58 150.05 588.00 149.46 588.21 149.17 C 589.38 147.68 590.56 146.21 591.69 144.69 C 593.57 142.28 595.77 140.14 598.14 138.21 C 599.87 136.88 601.57 135.51 603.34 134.21 C 605.30 132.89 607.26 131.57 609.26 130.30 C 609.72 130.03 610.65 129.48 611.11 129.21 C 613.73 127.72 616.38 126.30 618.99 124.79 C 620.13 124.28 621.28 123.77 622.45 123.29 L 622.73 122.79 C 623.89 122.31 625.05 121.80 626.22 121.32 C 629.24 119.69 632.25 118.05 635.19 116.26 C 638.10 114.30 641.15 112.56 644.09 110.64 C 644.34 110.58 644.83 110.46 645.07 110.40 C 648.30 108.13 651.75 106.19 655.20 104.26 C 655.69 104.01 656.67 103.50 657.16 103.25 C 658.48 102.55 659.81 101.87 661.16 101.20 C 661.66 100.97 662.66 100.51 663.16 100.28 C 665.47 99.21 667.79 98.17 670.16 97.21 C 673.69 95.65 677.30 94.25 680.90 92.82 C 681.89 92.47 682.89 92.11 683.90 91.75 C 686.57 90.83 689.22 89.86 691.83 88.77 C 693.27 88.25 694.71 87.71 696.17 87.21 C 698.38 86.34 700.62 85.54 702.86 84.74 C 705.29 83.92 707.70 83.05 710.13 82.21 C 711.13 81.85 712.15 81.50 713.17 81.18 C 714.12 80.82 715.09 80.48 716.06 80.14 C 723.14 77.59 730.49 75.88 737.89 74.58 Z" />
<path fill="#171717" d=" M 801.04 87.82 C 808.54 88.00 815.97 86.31 823.48 86.83 C 826.33 87.49 828.04 90.16 829.59 92.42 C 831.40 95.53 833.40 98.68 833.89 102.32 C 828.45 104.75 822.67 102.22 817.04 102.40 C 806.61 101.94 796.21 102.68 785.86 103.79 C 780.66 104.78 775.21 104.39 770.26 106.52 C 769.82 105.71 768.74 104.68 769.68 103.79 C 772.69 99.81 776.70 96.67 779.38 92.41 C 780.01 91.05 782.21 89.64 782.78 92.04 C 779.37 96.12 775.01 99.33 772.01 103.77 C 775.74 103.72 779.45 103.48 783.17 103.19 C 792.08 101.85 801.06 101.14 810.07 101.17 C 816.97 100.01 823.96 102.30 830.80 100.55 C 828.89 96.76 826.93 92.96 824.08 89.77 C 809.32 89.53 794.50 89.04 779.78 90.38 C 779.44 89.52 779.14 88.65 778.88 87.77 C 786.26 87.79 793.65 87.76 801.04 87.82 Z" />
<path fill="#292928" d=" M 790.98 93.74 C 800.68 93.64 810.31 92.24 820.00 91.71 C 819.83 92.31 819.49 93.50 819.32 94.09 C 809.87 93.10 800.48 94.87 791.10 95.73 C 789.55 96.02 788.07 95.80 786.68 95.08 C 788.04 94.53 789.44 93.73 790.98 93.74 Z" />
<path fill="#de5312" d=" M 358.32 93.33 C 359.36 93.39 360.40 93.45 361.45 93.52 C 361.43 94.48 361.42 95.44 361.40 96.40 C 360.40 96.47 359.40 96.55 358.40 96.62 C 358.36 95.52 358.34 94.42 358.32 93.33 Z" />
<path fill="#171616" d=" M 783.77 98.57 C 794.49 97.88 805.39 98.04 815.87 95.31 C 815.37 96.14 815.75 97.97 814.46 98.13 C 810.33 98.88 806.11 98.46 801.95 98.71 C 795.82 99.25 789.75 100.33 783.61 100.77 C 783.65 100.22 783.73 99.12 783.77 98.57 Z" />
<path fill="#4b6b6f" d=" M 425.67 99.75 C 431.67 98.37 437.86 98.31 443.98 97.82 C 447.97 97.60 451.31 100.02 453.89 102.80 C 455.49 102.44 457.08 102.02 458.71 101.75 C 463.45 101.83 468.94 100.70 472.92 103.97 C 468.88 103.93 464.68 104.05 461.01 105.93 C 464.95 107.67 469.55 107.37 473.26 109.66 C 469.02 109.54 464.69 110.06 460.51 109.22 C 459.05 108.04 457.90 106.55 456.51 105.31 C 454.28 106.11 452.26 107.37 450.20 108.50 C 444.84 107.04 439.28 107.28 433.79 107.28 C 438.98 104.35 445.17 106.55 450.81 105.78 C 451.11 102.33 448.00 100.82 445.37 99.57 C 445.46 100.10 445.64 101.17 445.73 101.71 C 439.42 100.80 433.11 101.92 426.93 103.20 C 427.42 102.82 428.40 102.06 428.89 101.68 C 427.82 101.03 426.73 100.39 425.67 99.75 Z" />
<path fill="#7e9ea0" d=" M 413.81 104.90 C 417.23 102.42 421.20 100.89 425.14 99.44 L 425.67 99.75 C 426.73 100.39 427.82 101.03 428.89 101.68 C 428.40 102.06 427.42 102.82 426.93 103.20 C 423.26 104.79 419.14 104.92 415.45 106.49 C 415.55 105.93 415.76 104.79 415.86 104.22 C 415.35 104.39 414.32 104.73 413.81 104.90 Z" />
<path fill="#71848b" d=" M 445.37 99.57 C 448.00 100.82 451.11 102.33 450.81 105.78 C 449.08 104.46 447.39 103.10 445.73 101.71 C 445.64 101.17 445.46 100.10 445.37 99.57 Z" />
<path fill="#3d585f" d=" M 426.93 103.20 C 433.11 101.92 439.42 100.80 445.73 101.71 C 447.39 103.10 449.08 104.46 450.81 105.78 C 445.17 106.55 438.98 104.35 433.79 107.28 C 431.68 108.99 429.87 111.09 427.51 112.46 C 424.19 112.64 420.82 111.60 417.54 112.52 C 413.98 113.49 410.49 114.80 407.25 116.59 C 405.82 117.90 404.80 119.84 402.92 120.55 C 399.48 120.76 395.98 117.31 392.76 119.81 C 388.72 121.94 387.40 126.56 386.80 130.75 C 388.07 131.40 389.33 132.07 390.62 132.69 C 394.44 134.61 398.40 136.26 402.26 138.11 C 400.30 140.74 397.17 141.53 394.04 141.38 C 392.92 140.97 391.83 140.50 390.76 139.97 C 387.30 138.05 382.95 136.56 381.27 132.65 C 378.62 126.73 382.38 119.66 387.78 116.78 C 392.19 114.50 397.06 113.24 401.36 110.73 C 402.38 111.98 403.40 113.24 404.41 114.51 C 407.20 113.20 410.19 111.87 411.84 109.11 C 411.36 108.77 410.41 108.10 409.93 107.76 C 410.54 106.11 412.29 105.44 413.81 104.90 C 414.32 104.73 415.35 104.39 415.86 104.22 C 415.76 104.79 415.55 105.93 415.45 106.49 C 419.14 104.92 423.26 104.79 426.93 103.20 Z" />
<path fill="#588388" d=" M 458.71 101.75 C 466.52 99.97 475.39 100.08 482.26 104.68 C 484.82 106.19 486.93 108.83 486.76 111.94 C 487.09 114.90 484.67 116.97 482.64 118.67 C 482.67 116.73 482.61 114.79 482.54 112.85 C 482.82 112.97 483.38 113.21 483.66 113.33 C 484.66 112.47 484.10 110.99 483.86 109.91 C 483.64 109.84 483.20 109.71 482.99 109.64 C 480.35 106.64 476.85 104.68 472.92 103.97 C 468.94 100.70 463.45 101.83 458.71 101.75 Z" />
<path fill="#3f5a61" d=" M 461.01 105.93 C 464.68 104.05 468.88 103.93 472.92 103.97 C 476.85 104.68 480.35 106.64 482.99 109.64 C 482.87 110.44 482.65 112.05 482.54 112.85 C 482.61 114.79 482.67 116.73 482.64 118.67 C 482.00 119.24 481.34 119.78 480.66 120.29 C 480.80 119.72 481.07 118.58 481.20 118.00 C 478.37 119.11 475.69 120.67 473.92 123.22 C 476.34 124.14 478.75 123.97 480.23 121.67 C 481.49 121.59 482.74 121.51 484.02 121.41 C 483.34 122.42 482.67 123.44 482.00 124.45 C 482.34 124.46 483.02 124.47 483.37 124.47 C 490.01 127.39 490.37 137.06 485.01 141.37 C 476.88 143.82 467.98 147.49 459.62 143.83 C 460.25 142.71 460.85 141.56 461.62 140.53 C 463.64 139.43 466.05 139.51 468.29 139.24 C 470.27 139.14 472.27 138.90 474.14 138.21 C 474.98 137.90 475.81 137.58 476.64 137.26 C 479.04 135.85 480.81 133.65 481.90 131.11 C 481.47 130.93 480.62 130.55 480.20 130.37 C 477.12 128.83 473.20 127.51 472.09 123.86 C 471.04 121.73 472.57 119.65 473.36 117.72 C 474.35 115.78 475.26 113.79 476.09 111.77 C 475.15 111.06 474.21 110.35 473.26 109.66 C 469.55 107.37 464.95 107.67 461.01 105.93 Z" />
<path fill="#92afaf" d=" M 450.20 108.50 C 452.26 107.37 454.28 106.11 456.51 105.31 C 457.90 106.55 459.05 108.04 460.51 109.22 C 464.69 110.06 469.02 109.54 473.26 109.66 C 474.21 110.35 475.15 111.06 476.09 111.77 C 475.26 113.79 474.35 115.78 473.36 117.72 C 471.52 118.75 468.03 119.08 468.36 121.93 C 468.66 124.61 470.93 126.51 472.73 128.30 C 474.65 130.37 477.66 129.96 480.20 130.37 C 480.62 130.55 481.47 130.93 481.90 131.11 C 480.81 133.65 479.04 135.85 476.64 137.26 C 476.94 135.85 477.25 134.44 477.57 133.04 C 476.60 132.60 475.65 132.16 474.70 131.73 C 474.06 133.99 473.12 136.15 472.55 138.42 C 472.95 138.37 473.75 138.26 474.14 138.21 C 472.27 138.90 470.27 139.14 468.29 139.24 C 465.00 138.86 461.72 138.43 458.42 138.20 C 457.66 139.19 456.92 140.19 456.18 141.18 C 451.07 141.29 445.98 140.46 441.26 138.45 C 441.10 139.06 440.77 140.27 440.61 140.87 C 440.25 140.11 439.89 139.34 439.55 138.58 C 437.69 138.51 435.83 138.45 434.00 138.15 C 426.87 136.69 419.05 137.07 412.52 140.50 C 410.32 141.73 407.76 141.62 405.34 141.72 C 405.72 140.47 406.11 139.23 406.51 137.99 C 406.19 137.32 405.56 135.97 405.24 135.30 C 407.07 133.57 409.45 132.64 411.62 131.42 C 413.63 130.52 413.63 127.93 414.49 126.18 C 412.02 124.75 409.39 123.50 407.28 121.55 C 407.06 119.90 407.20 118.24 407.25 116.59 C 410.49 114.80 413.98 113.49 417.54 112.52 C 420.82 111.60 424.19 112.64 427.51 112.46 C 429.87 111.09 431.68 108.99 433.79 107.28 C 439.28 107.28 444.84 107.04 450.20 108.50 Z" />
<path fill="#213b42" d=" M 408.71 106.92 L 409.93 107.76 C 410.41 108.10 411.36 108.77 411.84 109.11 C 410.19 111.87 407.20 113.20 404.41 114.51 C 403.40 113.24 402.38 111.98 401.36 110.73 C 401.98 110.41 403.23 109.77 403.86 109.45 C 405.40 109.19 406.97 109.27 408.54 109.24 C 408.58 108.66 408.67 107.50 408.71 106.92 Z" />
<path fill="#829ea0" d=" M 482.99 109.64 C 483.20 109.71 483.64 109.84 483.86 109.91 C 484.10 110.99 484.66 112.47 483.66 113.33 C 483.38 113.21 482.82 112.97 482.54 112.85 C 482.65 112.05 482.87 110.44 482.99 109.64 Z" />
<path fill="#637d83" d=" M 381.48 115.62 C 387.34 109.93 396.09 109.02 403.86 109.45 C 403.23 109.77 401.98 110.41 401.36 110.73 C 397.06 113.24 392.19 114.50 387.78 116.78 C 382.38 119.66 378.62 126.73 381.27 132.65 C 382.95 136.56 387.30 138.05 390.76 139.97 C 389.06 140.42 387.36 140.88 385.68 141.36 C 380.98 137.78 376.00 133.40 375.45 127.10 C 374.41 122.31 378.18 118.48 381.48 115.62 Z" />
<path fill="#3a3a39" d=" M 879.99 117.05 C 894.12 115.62 908.42 116.01 922.39 118.68 C 924.79 129.99 923.00 141.79 923.95 153.28 C 923.59 153.50 922.88 153.94 922.52 154.16 C 922.49 154.94 922.42 156.52 922.39 157.30 C 902.72 155.53 882.98 158.29 863.50 160.84 C 863.61 160.00 863.73 159.15 863.87 158.31 C 863.72 157.82 863.43 156.85 863.28 156.36 C 865.61 151.38 866.53 145.82 866.70 140.36 C 867.21 140.10 868.23 139.59 868.74 139.34 C 867.64 145.49 866.60 151.66 866.10 157.90 C 877.45 157.92 888.66 155.79 900.01 155.66 C 907.21 155.27 914.45 155.57 921.62 154.64 C 921.18 150.09 922.17 145.58 922.27 141.04 C 922.45 134.43 921.89 127.79 920.36 121.35 C 920.15 119.99 918.58 119.92 917.56 119.58 C 907.86 117.33 897.84 117.28 887.97 117.96 C 882.02 118.46 876.13 119.62 870.15 119.62 C 869.42 126.29 869.73 133.01 869.09 139.69 C 868.55 139.04 868.04 138.39 867.54 137.73 C 868.17 130.88 867.56 124.00 867.74 117.13 C 871.81 117.64 875.92 117.52 879.99 117.05 Z" />
<path fill="#7ea0a2" d=" M 402.92 120.55 C 404.80 119.84 405.82 117.90 407.25 116.59 C 407.20 118.24 407.06 119.90 407.28 121.55 C 409.39 123.50 412.02 124.75 414.49 126.18 C 413.63 127.93 413.63 130.52 411.62 131.42 C 409.45 132.64 407.07 133.57 405.24 135.30 C 400.55 133.59 395.52 133.39 390.62 132.69 C 389.33 132.07 388.07 131.40 386.80 130.75 C 387.40 126.56 388.72 121.94 392.76 119.81 C 395.98 117.31 399.48 120.76 402.92 120.55 Z" />
<path fill="#9ab2b3" d=" M 378.24 121.30 C 379.32 119.27 381.18 117.89 383.28 117.04 C 382.18 119.57 380.72 121.93 379.68 124.48 C 378.96 127.01 379.24 129.70 379.00 132.29 C 377.06 129.07 375.79 124.60 378.24 121.30 Z" />
<path fill="#668086" d=" M 468.36 121.93 C 468.03 119.08 471.52 118.75 473.36 117.72 C 472.57 119.65 471.04 121.73 472.09 123.86 C 473.20 127.51 477.12 128.83 480.20 130.37 C 477.66 129.96 474.65 130.37 472.73 128.30 C 470.93 126.51 468.66 124.61 468.36 121.93 Z" />
<path fill="#1f383f" d=" M 473.92 123.22 C 475.69 120.67 478.37 119.11 481.20 118.00 C 481.07 118.58 480.80 119.72 480.66 120.29 C 480.55 120.64 480.33 121.33 480.23 121.67 C 478.75 123.97 476.34 124.14 473.92 123.22 Z" />
<path fill="#5a8084" d=" M 484.02 121.41 C 486.18 121.61 488.71 121.92 489.85 124.06 C 492.66 128.34 494.06 133.86 493.01 138.89 C 490.12 144.00 484.07 145.90 478.98 148.08 C 473.83 150.36 468.08 149.87 462.63 149.30 C 462.59 148.62 462.50 147.25 462.46 146.57 C 459.26 146.49 456.04 146.49 452.92 145.70 C 454.63 145.89 456.34 146.01 458.07 146.16 C 457.43 144.49 456.82 142.84 456.18 141.18 C 456.92 140.19 457.66 139.19 458.42 138.20 C 461.72 138.43 465.00 138.86 468.29 139.24 C 466.05 139.51 463.64 139.43 461.62 140.53 C 460.85 141.56 460.25 142.71 459.62 143.83 C 467.98 147.49 476.88 143.82 485.01 141.37 C 484.77 141.76 484.28 142.52 484.04 142.91 C 486.88 141.33 491.12 139.96 491.24 136.09 C 491.44 132.06 490.67 127.41 487.46 124.63 C 486.10 124.45 484.72 124.49 483.37 124.47 C 483.02 124.47 482.34 124.46 482.00 124.45 C 482.67 123.44 483.34 122.42 484.02 121.41 Z" />
<path fill="#c1cfcd" d=" M 483.37 124.47 C 484.72 124.49 486.10 124.45 487.46 124.63 C 490.67 127.41 491.44 132.06 491.24 136.09 C 491.12 139.96 486.88 141.33 484.04 142.91 C 484.28 142.52 484.77 141.76 485.01 141.37 C 490.37 137.06 490.01 127.39 483.37 124.47 Z" />
<path fill="#e9ece8" d=" M 392.42 128.17 C 393.82 127.43 395.23 126.70 396.64 125.99 C 396.30 127.92 396.63 130.18 395.19 131.74 C 394.19 130.61 393.29 129.40 392.42 128.17 Z" />
<path fill="#bececc" d=" M 406.32 128.18 C 407.23 126.71 409.97 128.10 408.76 129.64 C 407.84 131.10 405.11 129.72 406.32 128.18 Z" />
<path fill="#f5f4f0" d=" M 474.70 131.73 C 475.65 132.16 476.60 132.60 477.57 133.04 C 477.25 134.44 476.94 135.85 476.64 137.26 C 475.81 137.58 474.98 137.90 474.14 138.21 C 473.75 138.26 472.95 138.37 472.55 138.42 C 473.12 136.15 474.06 133.99 474.70 131.73 Z" />
<path fill="#5f797f" d=" M 390.62 132.69 C 395.52 133.39 400.55 133.59 405.24 135.30 C 405.56 135.97 406.19 137.32 406.51 137.99 C 406.11 139.23 405.72 140.47 405.34 141.72 C 401.57 141.89 397.74 142.37 394.04 141.38 C 397.17 141.53 400.30 140.74 402.26 138.11 C 398.40 136.26 394.44 134.61 390.62 132.69 Z" />
<path fill="#82a3a5" d=" M 412.52 140.50 C 419.05 137.07 426.87 136.69 434.00 138.15 C 431.76 139.00 429.45 139.60 427.10 140.02 C 425.94 141.13 424.80 142.25 423.66 143.37 C 418.92 144.22 414.12 144.80 409.30 144.46 C 409.21 144.87 409.02 145.68 408.93 146.09 C 408.51 145.63 407.69 144.71 407.28 144.25 C 403.38 143.48 399.35 143.82 395.40 143.48 C 395.47 143.92 395.63 144.81 395.71 145.25 C 392.30 144.13 388.91 142.91 385.68 141.36 C 387.36 140.88 389.06 140.42 390.76 139.97 C 391.83 140.50 392.92 140.97 394.04 141.38 C 397.74 142.37 401.57 141.89 405.34 141.72 C 407.76 141.62 410.32 141.73 412.52 140.50 Z" />
<path fill="#82a3a4" d=" M 441.26 138.45 C 445.98 140.46 451.07 141.29 456.18 141.18 C 456.82 142.84 457.43 144.49 458.07 146.16 C 456.34 146.01 454.63 145.89 452.92 145.70 C 451.98 145.58 450.11 145.34 449.17 145.22 C 449.33 145.93 449.64 147.36 449.80 148.07 C 449.60 147.95 449.20 147.71 449.00 147.59 L 447.74 145.56 C 446.50 145.59 445.26 145.67 444.04 145.77 C 443.59 143.70 442.18 142.18 440.61 140.87 C 440.77 140.27 441.10 139.06 441.26 138.45 Z" />
<path fill="#474746" d=" M 774.95 140.14 C 785.24 138.71 795.65 139.55 806.00 139.35 C 815.16 139.54 824.38 139.19 833.49 140.33 C 833.16 140.73 832.51 141.54 832.18 141.94 C 816.19 140.13 800.06 140.93 784.01 140.77 C 760.60 142.58 737.68 148.08 714.98 153.86 C 700.73 158.58 685.99 161.68 671.87 166.81 C 652.33 174.79 634.69 186.94 614.59 193.60 C 603.74 197.66 593.06 202.12 582.89 207.70 C 576.32 211.66 569.02 214.12 562.00 217.13 C 549.58 221.36 537.30 226.04 524.68 229.68 C 519.93 231.02 515.56 233.37 510.95 235.10 C 510.62 234.73 509.94 234.00 509.60 233.63 C 519.69 229.80 529.74 225.78 540.08 222.62 C 551.40 218.94 562.48 214.58 573.73 210.70 C 580.51 207.59 586.92 203.72 593.71 200.64 C 607.36 193.87 622.42 190.32 635.76 182.88 C 647.14 177.29 658.20 171.03 669.85 166.00 C 684.20 160.59 699.26 157.49 713.81 152.70 C 733.92 147.37 754.27 142.64 774.95 140.14 Z" />
<path fill="#050505" d=" M 833.49 140.33 C 837.98 141.30 842.50 142.15 846.91 143.44 C 848.53 143.68 849.20 145.26 849.76 146.62 C 843.63 146.27 838.10 143.27 832.18 141.94 C 832.51 141.54 833.16 140.73 833.49 140.33 Z" />
<path fill="#688e91" d=" M 395.40 143.48 C 399.35 143.82 403.38 143.48 407.28 144.25 C 407.69 144.71 408.51 145.63 408.93 146.09 C 404.50 146.62 400.04 146.19 395.71 145.25 C 395.63 144.81 395.47 143.92 395.40 143.48 Z" />
<path fill="#4b6b6f" d=" M 437.99 147.07 C 437.92 145.52 438.54 144.14 440.25 144.16 C 440.22 146.66 440.13 149.16 440.04 151.66 C 439.99 163.14 440.25 174.62 440.18 186.09 C 440.13 190.53 439.75 194.95 439.51 199.38 C 439.29 204.77 439.30 210.18 439.72 215.56 C 439.13 215.53 437.95 215.47 437.36 215.44 C 438.43 208.93 438.57 202.28 438.08 195.70 L 437.99 194.82 C 438.22 179.72 437.86 164.63 437.88 149.54 C 437.91 148.92 437.97 147.69 437.99 147.07 Z" />
<path fill="#5a7178" d=" M 429.41 146.33 C 429.84 146.24 430.71 146.06 431.15 145.97 C 431.19 150.68 430.41 155.35 430.55 160.06 C 430.62 174.24 430.22 188.42 430.68 202.60 C 430.12 202.56 428.99 202.47 428.42 202.43 C 430.66 183.80 427.50 164.95 429.41 146.33 Z" />
<path fill="#94afb0" d=" M 444.04 145.77 C 445.26 145.67 446.50 145.59 447.74 145.56 L 449.00 147.59 C 447.46 147.78 445.94 148.04 444.42 148.29 C 444.37 155.98 445.05 163.78 443.34 171.35 C 442.30 175.80 442.73 180.41 442.05 184.91 C 441.58 185.20 440.65 185.80 440.18 186.09 C 440.25 174.62 439.99 163.14 440.04 151.66 C 440.60 151.29 441.74 150.56 442.30 150.20 C 442.31 148.77 442.32 147.35 442.33 145.93 L 444.04 145.77 Z" />
<path fill="#a0b8b8" d=" M 432.55 150.21 C 432.76 147.58 436.08 147.72 437.99 147.07 C 437.97 147.69 437.91 148.92 437.88 149.54 C 436.54 151.21 434.48 152.68 434.33 155.00 C 433.72 161.25 434.16 167.59 435.39 173.75 C 436.33 178.49 435.17 183.25 434.98 188.00 C 434.73 190.65 436.82 192.65 437.99 194.82 L 438.08 195.70 C 435.47 196.17 432.90 194.92 432.42 192.17 C 431.62 185.82 432.80 179.38 431.91 173.02 C 430.93 165.44 431.47 157.74 432.55 150.21 Z" />
<path fill="#5a7178" d=" M 444.42 148.29 C 445.94 148.04 447.46 147.78 449.00 147.59 C 449.20 147.71 449.60 147.95 449.80 148.07 L 451.15 148.86 C 449.89 156.21 449.98 163.70 449.15 171.10 C 448.75 176.14 447.70 181.50 449.96 186.28 L 450.26 187.07 C 449.81 190.67 449.29 194.26 448.80 197.85 C 448.38 195.96 447.90 194.09 447.45 192.21 C 446.24 194.91 444.26 197.03 441.14 197.22 C 440.89 193.09 441.21 188.95 442.05 184.91 C 442.73 180.41 442.30 175.80 443.34 171.35 C 445.05 163.78 444.37 155.98 444.42 148.29 Z" />
<path fill="#5a6a72" d=" M 451.15 148.86 L 452.06 146.14 C 453.17 154.33 452.23 162.67 452.28 170.92 C 451.06 175.34 451.53 179.97 451.42 184.50 C 451.05 184.94 450.32 185.84 449.96 186.28 C 447.70 181.50 448.75 176.14 449.15 171.10 C 449.98 163.70 449.89 156.21 451.15 148.86 Z" />
<path fill="#8aa8aa" d=" M 434.33 155.00 C 434.48 152.68 436.54 151.21 437.88 149.54 C 437.86 164.63 438.22 179.72 437.99 194.82 C 436.82 192.65 434.73 190.65 434.98 188.00 C 435.17 183.25 436.33 178.49 435.39 173.75 C 434.16 167.59 433.72 161.25 434.33 155.00 Z" />
<path fill="#030303" d=" M 325.96 165.66 C 335.78 166.50 345.83 167.22 355.55 165.16 C 355.78 176.44 355.40 187.73 355.53 199.02 C 355.70 212.79 355.00 226.61 356.56 240.33 C 362.59 237.31 369.34 236.28 375.41 233.37 C 381.21 230.45 388.54 231.31 393.56 226.67 C 399.37 221.43 406.09 217.35 412.01 212.25 C 416.42 213.11 420.91 212.74 425.37 212.59 C 427.09 215.24 426.43 218.42 426.24 221.38 C 424.51 232.91 427.43 244.30 428.16 255.76 C 428.28 259.09 428.41 262.46 427.71 265.75 C 427.15 265.67 426.02 265.51 425.46 265.44 C 425.50 261.71 425.55 257.99 425.46 254.27 C 425.46 249.50 424.85 244.76 424.58 240.01 C 424.45 234.21 424.73 228.41 424.47 222.62 C 424.42 220.16 424.11 217.73 423.68 215.32 C 420.40 215.40 417.12 215.41 413.84 215.42 C 414.35 215.49 415.36 215.62 415.87 215.69 C 414.90 224.66 414.20 233.70 415.56 242.66 C 415.04 243.34 414.51 244.02 414.00 244.70 C 415.16 240.13 413.54 235.58 413.60 231.00 C 413.58 225.58 413.31 220.16 413.55 214.74 C 409.28 218.25 403.72 219.82 399.87 223.86 C 396.76 227.08 393.35 229.99 389.71 232.59 C 389.10 232.45 387.88 232.16 387.27 232.02 L 387.81 232.98 C 379.41 233.74 372.05 238.05 363.94 239.91 C 361.41 240.68 359.07 241.95 356.62 242.94 C 356.67 244.87 356.72 246.80 356.77 248.73 C 363.53 248.57 370.22 249.92 376.99 249.69 C 380.55 249.54 384.14 249.72 387.64 250.48 C 387.58 245.63 387.61 240.78 387.85 235.95 C 387.74 234.30 389.28 233.30 390.25 232.22 C 390.26 237.48 390.14 242.75 390.26 248.01 C 390.26 249.64 390.57 251.31 391.50 252.69 C 400.33 255.79 408.32 260.85 415.41 266.90 C 415.22 265.59 415.04 264.30 414.80 263.01 C 414.51 256.87 414.74 250.72 414.37 244.58 C 414.97 244.70 416.18 244.92 416.79 245.04 L 415.47 245.24 C 415.39 252.56 416.81 259.81 418.21 266.93 C 419.97 268.50 423.28 267.46 425.60 267.79 C 425.58 268.71 425.57 269.64 425.55 270.57 C 421.65 270.72 417.90 269.62 414.06 269.23 C 408.38 264.22 402.09 259.86 395.20 256.67 C 393.07 255.51 389.92 255.91 388.75 253.41 C 382.28 251.73 375.55 252.87 368.98 252.12 C 364.95 251.61 360.89 251.43 356.84 251.42 C 356.77 260.95 356.85 270.51 356.04 280.01 C 354.31 298.48 360.07 316.75 358.28 335.21 C 357.81 336.16 357.49 337.91 356.02 337.60 C 344.65 337.52 333.18 338.25 321.90 336.43 C 300.41 335.52 278.82 337.47 257.39 335.21 C 257.40 334.29 257.43 332.46 257.44 331.54 C 265.86 333.13 274.47 332.75 283.00 332.81 C 293.33 332.88 303.67 332.63 314.00 333.18 C 319.36 333.02 324.71 333.53 330.01 334.30 C 338.27 334.63 346.54 334.29 354.80 334.44 C 355.87 328.36 355.44 322.12 354.75 316.03 C 354.20 305.35 352.26 294.75 352.75 284.04 C 354.34 265.42 354.31 246.63 352.65 228.01 C 352.43 208.49 352.74 188.97 352.39 169.45 C 338.26 170.20 324.12 168.35 310.01 169.57 C 292.65 172.41 275.14 168.89 257.70 169.60 C 257.05 189.76 257.61 209.94 257.08 230.09 C 256.24 241.45 256.46 252.85 256.38 264.23 C 254.93 278.46 255.54 292.76 255.42 307.04 C 255.38 315.86 256.80 324.63 256.42 333.45 C 255.73 333.33 254.34 333.09 253.64 332.97 C 251.76 315.42 252.36 297.69 252.32 280.05 C 252.22 272.67 253.68 265.37 253.39 257.99 C 253.20 245.34 254.06 232.70 253.82 220.05 C 254.65 203.38 253.96 186.67 254.19 169.98 C 252.66 169.41 251.18 168.67 251.62 166.68 C 253.34 166.02 255.20 166.23 257.01 166.26 C 265.00 166.53 273.02 166.05 280.98 167.02 C 287.98 167.47 295.02 167.57 302.04 167.31 C 309.99 166.46 317.94 165.32 325.96 165.66 Z" />
<path fill="#090909" d=" M 904.03 167.19 C 909.18 166.65 914.39 166.45 919.57 166.58 C 923.58 168.81 924.79 173.84 928.10 176.90 C 929.47 178.65 933.16 181.08 930.43 183.29 C 926.55 185.25 922.02 184.32 917.84 184.79 C 909.58 185.65 901.27 185.57 892.98 185.70 C 882.64 186.97 872.18 186.56 861.87 188.09 C 860.06 188.10 857.66 189.21 856.56 187.19 C 856.79 184.52 858.90 182.59 860.68 180.80 C 864.49 177.35 867.93 173.50 871.01 169.38 C 869.08 169.50 867.18 169.65 865.27 169.77 C 865.32 169.17 865.42 167.97 865.47 167.37 C 878.32 167.32 891.19 167.98 904.03 167.19 Z" />
<path fill="#f5f4f0" d=" M 872.67 169.13 C 887.78 167.67 902.90 169.76 918.02 169.23 C 920.25 169.02 921.27 171.49 922.42 172.97 C 924.12 176.08 926.16 178.99 928.72 181.47 C 926.53 182.18 924.32 182.73 922.10 183.25 C 918.75 183.42 915.36 183.44 912.08 184.17 C 903.78 184.68 895.44 184.38 887.18 185.35 C 882.48 185.79 877.70 185.20 873.07 186.18 C 868.37 186.47 863.65 186.50 858.96 186.15 C 862.42 180.44 867.09 175.39 872.43 171.39 C 872.49 170.83 872.61 169.70 872.67 169.13 Z" />
<path fill="#1f1f1e" d=" M 890.99 175.25 C 897.41 175.45 903.81 175.26 910.19 174.53 C 910.27 175.08 910.43 176.20 910.51 176.75 C 899.26 176.47 887.93 175.96 876.73 177.36 C 876.59 176.87 876.31 175.89 876.17 175.40 C 881.05 174.22 886.04 175.46 890.99 175.25 Z" />
<path fill="#232322" d=" M 888.94 180.29 C 893.51 180.58 898.03 179.90 902.51 179.06 C 902.47 179.62 902.38 180.74 902.34 181.30 C 894.21 181.49 886.08 181.48 877.97 181.99 C 877.35 181.70 876.11 181.12 875.48 180.83 C 879.78 178.95 884.45 180.54 888.94 180.29 Z" />
<path fill="#030303" d=" M 304.04 181.36 C 313.66 180.14 323.39 180.34 333.07 180.61 C 335.43 180.73 339.07 181.12 337.41 184.46 C 326.14 182.92 314.65 183.18 303.37 184.53 C 297.55 184.78 291.72 185.24 285.97 186.21 C 279.82 186.95 273.61 186.76 267.43 186.65 C 267.43 185.58 267.45 184.50 267.47 183.43 C 273.63 183.14 279.84 183.83 285.97 182.90 C 291.97 182.06 297.99 181.59 304.04 181.36 Z" />
<path fill="#899a9f" d=" M 440.18 186.09 C 440.65 185.80 441.58 185.20 442.05 184.91 C 441.21 188.95 440.89 193.09 441.14 197.22 C 444.26 197.03 446.24 194.91 447.45 192.21 C 447.90 194.09 448.38 195.96 448.80 197.85 C 448.95 202.54 448.29 207.22 448.53 211.92 C 449.35 214.00 445.24 213.92 446.15 212.04 C 446.66 207.39 446.99 202.72 446.68 198.04 C 446.35 198.47 445.68 199.33 445.34 199.76 C 443.39 199.65 441.45 199.53 439.51 199.38 C 439.75 194.95 440.13 190.53 440.18 186.09 Z" />
<path fill="#121212" d=" M 706.56 188.31 C 707.09 188.29 708.15 188.23 708.68 188.21 C 708.67 188.98 708.66 190.52 708.65 191.30 C 719.38 191.81 730.19 193.11 740.92 191.87 C 747.74 191.77 754.48 190.77 761.28 190.39 C 763.00 195.07 762.20 200.11 762.33 204.98 C 762.25 214.75 763.29 224.56 762.52 234.31 C 749.61 234.96 736.64 233.92 723.72 234.59 C 719.06 235.09 714.60 236.81 709.89 236.86 C 710.39 235.82 709.96 233.36 711.91 233.85 C 727.98 232.33 744.21 234.45 760.26 232.32 C 760.10 219.37 761.84 206.32 759.96 193.44 C 752.34 192.56 744.64 192.22 737.03 193.32 C 727.51 193.17 717.95 194.14 708.46 193.34 C 708.67 204.88 708.79 216.43 708.74 227.97 C 708.75 230.55 709.25 233.09 709.51 235.66 C 708.50 235.64 707.50 235.63 706.50 235.61 C 707.19 233.81 707.80 231.94 707.70 229.99 C 707.60 219.29 707.95 208.57 706.98 197.90 C 706.64 194.71 706.54 191.51 706.56 188.31 Z" />
<path fill="#030303" d=" M 304.95 195.80 C 315.98 195.86 327.05 196.08 337.99 194.55 C 339.76 194.73 343.59 193.13 343.46 196.17 C 341.80 198.55 338.45 197.31 336.00 197.89 C 322.06 199.86 307.96 198.71 293.96 199.57 C 285.78 200.92 277.47 199.95 269.25 200.81 C 269.26 199.73 269.28 198.66 269.31 197.59 C 276.30 196.18 283.44 197.18 290.50 196.70 C 295.31 196.31 300.14 196.17 304.95 195.80 Z" />
<path fill="#030303" d=" M 270.34 213.70 C 288.19 213.33 306.06 213.93 323.92 213.53 C 331.50 213.29 339.10 213.20 346.69 213.34 C 346.68 214.37 346.67 215.40 346.66 216.44 C 327.43 216.41 308.20 216.93 288.96 216.80 C 282.75 216.59 276.57 217.30 270.37 217.26 C 270.34 216.07 270.33 214.88 270.34 213.70 Z" />
<path fill="#dd4e0c" d=" M 426.24 221.38 C 431.02 218.73 436.74 217.58 442.06 219.17 C 445.77 220.05 448.79 222.50 451.66 224.88 C 449.80 225.89 447.96 226.91 446.11 227.93 C 446.60 229.72 447.10 231.52 447.59 233.31 C 450.49 233.60 453.39 233.92 456.29 234.22 C 457.00 240.51 455.46 247.23 450.80 251.73 C 445.10 257.80 435.64 259.21 428.16 255.76 C 427.43 244.30 424.51 232.91 426.24 221.38 Z" />
<path fill="#030303" d=" M 689.67 219.84 C 690.93 219.03 691.94 220.29 692.93 220.92 C 689.12 223.05 684.85 224.08 680.86 225.80 C 678.15 227.39 675.45 229.01 672.81 230.72 C 668.92 233.43 665.25 236.49 662.20 240.14 C 661.97 240.50 661.53 241.22 661.31 241.58 L 660.93 241.66 C 659.06 243.96 656.96 246.06 654.68 247.95 L 654.57 248.23 C 654.21 248.57 653.50 249.24 653.14 249.58 L 652.42 249.34 L 652.37 250.09 C 650.13 252.03 648.00 254.11 645.69 255.96 L 645.44 256.20 C 644.23 257.04 643.04 257.90 641.85 258.75 C 640.77 259.46 639.69 260.17 638.60 260.86 L 638.40 261.21 C 637.17 262.01 635.96 262.84 634.76 263.66 C 633.68 264.53 632.62 265.39 631.56 266.26 C 628.63 268.04 625.77 269.94 622.89 271.82 C 619.42 273.91 615.71 275.55 612.06 277.26 C 608.35 278.87 604.55 280.22 600.81 281.73 C 595.09 284.08 589.21 286.13 583.10 287.13 C 575.79 288.20 568.36 287.10 561.05 288.11 C 556.71 288.39 552.37 288.20 548.03 288.32 C 543.02 288.40 538.72 285.49 534.09 284.05 C 526.32 281.54 519.42 277.10 511.89 274.03 C 506.42 271.24 500.00 270.66 494.94 267.03 C 493.10 265.80 491.20 264.67 489.32 263.52 C 488.26 264.71 487.17 265.85 486.05 266.97 C 484.47 265.56 482.98 264.05 481.89 262.24 C 478.32 256.46 474.07 251.09 471.27 244.87 C 473.79 240.63 478.89 243.12 482.36 244.68 C 487.06 247.85 491.01 252.15 496.43 254.22 C 496.43 254.96 496.43 256.45 496.43 257.19 C 495.85 257.34 494.69 257.64 494.11 257.79 C 494.31 259.50 495.15 261.46 493.50 262.76 C 499.37 267.88 507.09 269.65 513.85 273.20 C 521.17 275.88 527.69 280.31 535.09 282.81 C 539.30 284.57 543.45 286.65 548.09 287.05 C 554.33 287.56 560.63 287.47 566.86 286.83 C 572.31 286.69 577.75 286.64 583.20 286.30 C 585.84 285.59 588.53 285.02 591.17 284.28 C 593.15 283.54 595.16 282.86 597.19 282.25 C 599.08 281.44 600.97 280.64 602.85 279.80 C 606.98 278.39 611.02 276.72 614.97 274.83 C 616.05 274.34 617.13 273.83 618.24 273.35 C 620.81 271.90 623.35 270.39 625.83 268.77 C 629.04 266.74 632.21 264.62 635.17 262.23 C 639.62 258.99 644.34 256.10 648.44 252.41 C 650.74 250.25 652.98 248.02 655.48 246.09 L 655.36 245.37 L 656.16 245.58 C 656.51 245.22 657.20 244.52 657.55 244.16 L 657.40 243.40 L 658.23 243.61 C 658.47 243.24 658.95 242.48 659.18 242.11 C 662.37 238.67 665.43 235.07 669.14 232.16 C 672.07 230.09 675.02 228.03 678.09 226.14 C 681.88 223.93 685.67 221.68 689.67 219.84 Z" />
<path fill="#dd4e0c" d=" M 424.47 222.62 C 424.73 228.41 424.45 234.21 424.58 240.01 C 424.85 244.76 425.46 249.50 425.46 254.27 C 420.58 250.34 417.01 244.42 417.24 238.01 C 417.03 232.05 420.17 226.54 424.47 222.62 Z" />
<path fill="#050505" d=" M 273.31 225.60 C 287.41 227.51 301.69 226.34 315.88 226.43 C 323.48 226.44 331.09 226.34 338.70 226.41 C 338.69 227.45 338.69 228.49 338.68 229.54 C 325.79 229.51 312.89 229.33 300.00 229.78 C 291.07 229.77 282.11 230.12 273.21 229.23 C 273.22 228.01 273.25 226.81 273.31 225.60 Z" />
<path fill="#050505" d=" M 734.02 240.75 C 742.43 239.88 750.69 237.41 759.16 237.39 C 761.88 243.10 765.18 248.49 768.72 253.73 C 768.28 255.08 767.86 256.43 767.39 257.76 C 766.09 257.85 764.77 257.86 763.51 257.64 C 761.59 257.11 759.72 256.49 757.80 256.02 C 760.73 255.79 763.68 255.74 766.63 255.51 C 764.24 250.09 760.91 245.20 757.83 240.18 C 749.79 240.24 741.92 242.04 733.93 242.69 L 733.70 242.02 C 733.78 241.70 733.94 241.07 734.02 240.75 Z" />
<path fill="#030303" d=" M 274.61 240.70 C 278.34 239.58 282.19 241.59 286.01 241.37 C 301.66 241.57 317.35 241.82 332.96 240.59 C 336.81 240.49 340.65 240.26 344.51 240.35 C 344.49 241.37 344.47 242.39 344.45 243.42 C 326.65 244.17 308.84 244.79 291.02 244.68 C 285.59 244.43 279.93 245.08 274.74 243.13 C 274.71 242.52 274.64 241.31 274.61 240.70 Z" />
<path fill="#070707" d=" M 707.83 241.71 C 715.32 241.14 722.90 242.38 730.42 241.55 C 730.84 241.66 731.68 241.90 732.09 242.02 C 732.05 242.31 731.98 242.88 731.94 243.16 C 725.65 243.96 719.29 243.68 712.97 243.75 C 711.01 243.89 709.18 243.13 707.83 241.71 Z" />
<path fill="#0a0a0a" d=" M 706.81 244.15 C 707.34 244.25 708.42 244.44 708.96 244.54 C 707.19 248.83 705.55 254.13 701.02 256.21 C 702.15 251.84 705.68 248.57 706.81 244.15 Z" />
<path fill="#242423" d=" M 748.09 246.30 C 751.14 246.18 754.24 244.64 757.25 245.90 C 755.95 246.71 754.55 247.36 752.99 247.28 C 740.40 248.11 727.75 247.06 715.19 248.50 C 715.22 247.97 715.26 246.91 715.28 246.37 C 726.21 246.15 737.15 246.71 748.09 246.30 Z" />
<path fill="#030303" d=" M 457.84 253.93 C 459.04 251.59 459.07 248.91 459.74 246.41 C 463.25 246.36 464.57 250.19 466.43 252.53 C 469.57 257.91 472.80 263.23 476.78 268.05 C 474.57 270.81 471.57 272.71 468.47 274.32 C 470.14 286.51 476.34 297.32 481.71 308.18 C 484.05 311.96 486.67 315.57 488.84 319.46 L 489.18 319.59 C 491.15 322.59 493.21 325.65 496.21 327.73 C 500.72 330.96 505.04 334.46 509.87 337.22 C 510.35 337.48 511.32 338.01 511.80 338.27 C 516.52 340.80 521.22 343.39 526.00 345.83 C 531.50 348.64 537.38 350.57 543.20 352.60 C 542.86 352.61 542.18 352.63 541.84 352.64 C 537.69 352.49 534.04 350.11 530.17 348.83 C 526.05 347.04 522.07 344.97 518.16 342.78 C 514.50 340.81 510.82 338.87 507.24 336.76 C 506.21 336.10 505.19 335.43 504.18 334.76 C 502.96 333.92 501.75 333.06 500.52 332.24 L 500.44 331.80 C 499.50 331.31 498.57 330.82 497.65 330.34 C 494.76 328.17 492.16 325.61 490.05 322.68 L 489.77 322.45 C 488.51 320.52 487.26 318.60 486.11 316.61 L 485.78 316.50 C 485.27 315.60 484.75 314.69 484.23 313.80 C 481.87 310.35 479.55 306.86 477.63 303.14 C 472.77 294.38 468.76 285.15 466.53 275.35 C 463.14 276.77 459.56 277.57 456.03 278.56 C 454.98 279.54 453.59 279.74 452.25 279.95 C 452.09 276.56 452.80 273.24 453.69 270.00 C 455.07 264.65 455.48 258.99 457.84 253.93 Z" />
<path fill="#464545" d=" M 715.41 252.54 C 728.18 253.38 741.25 252.45 753.50 248.60 C 753.60 249.77 753.68 250.94 753.73 252.11 C 740.48 251.77 727.36 256.33 714.11 254.21 C 714.43 253.80 715.08 252.96 715.41 252.54 Z" />
<path fill="#030303" d=" M 271.50 252.66 C 273.96 251.87 276.49 252.92 278.97 253.11 C 288.30 253.97 297.69 253.44 306.99 252.62 C 316.64 251.74 326.35 254.83 335.91 252.52 C 337.68 252.24 339.57 252.03 341.27 252.76 C 341.15 253.65 340.95 254.52 340.76 255.40 C 334.18 256.26 327.57 257.11 320.93 256.32 C 314.02 255.27 307.00 255.60 300.09 256.41 C 292.36 256.82 284.60 256.85 276.87 256.39 C 274.57 256.05 270.49 256.11 271.50 252.66 Z" />
<path fill="#1d1d1d" d=" M 461.26 256.26 C 462.93 256.91 462.03 259.87 460.66 260.48 C 459.11 259.81 459.78 256.76 461.26 256.26 Z" />
<path fill="#575755" d=" M 740.91 257.60 C 746.54 257.13 752.15 256.32 757.80 256.02 C 759.72 256.49 761.59 257.11 763.51 257.64 C 757.70 257.99 751.87 257.93 746.09 258.69 C 730.94 260.58 715.58 258.35 700.47 260.55 C 698.66 258.29 702.50 257.91 704.03 257.76 C 716.32 257.55 728.62 258.08 740.91 257.60 Z" />
<path fill="#191919" d=" M 779.22 263.18 C 780.66 261.94 781.75 259.95 783.91 259.98 C 797.48 259.05 811.04 260.48 824.60 260.92 L 824.53 261.29 C 824.44 261.75 824.26 262.67 824.17 263.13 C 814.58 260.73 804.68 262.03 794.93 261.73 C 790.38 261.53 785.87 262.08 781.41 262.89 C 781.69 276.20 780.92 289.55 782.44 302.81 C 785.56 303.52 788.76 303.77 791.96 303.70 L 790.42 304.71 C 787.64 305.97 784.19 305.52 781.34 304.66 C 778.93 303.85 779.77 300.96 779.74 299.05 C 780.91 287.11 780.23 275.10 779.22 263.18 Z" />
<path fill="#252424" d=" M 468.10 261.54 C 469.30 260.82 470.55 262.87 469.55 263.74 C 468.33 264.45 467.08 262.40 468.10 261.54 Z" />
<path fill="#040404" d=" M 824.53 261.29 C 827.21 261.65 831.75 260.64 832.71 264.11 C 833.13 274.39 831.86 284.66 832.41 294.94 C 832.41 297.43 832.90 300.91 830.09 302.13 C 822.13 303.32 814.06 303.93 806.01 303.60 C 800.76 303.33 795.66 304.91 790.42 304.71 L 791.96 303.70 C 796.64 303.36 801.31 302.85 806.01 302.61 C 813.96 302.51 821.74 300.72 829.56 299.42 C 831.25 291.38 830.36 283.14 830.48 275.00 C 830.53 271.54 830.43 268.07 830.30 264.61 C 828.27 264.05 826.22 263.54 824.17 263.13 C 824.26 262.67 824.44 261.75 824.53 261.29 Z" />
<path fill="#f5f4f0" d=" M 781.41 262.89 C 785.87 262.08 790.38 261.53 794.93 261.73 C 804.68 262.03 814.58 260.73 824.17 263.13 C 826.22 263.54 828.27 264.05 830.30 264.61 C 830.43 268.07 830.53 271.54 830.48 275.00 C 830.36 283.14 831.25 291.38 829.56 299.42 C 821.74 300.72 813.96 302.51 806.01 302.61 C 801.31 302.85 796.64 303.36 791.96 303.70 C 788.76 303.77 785.56 303.52 782.44 302.81 C 780.92 289.55 781.69 276.20 781.41 262.89 Z" />
<path fill="#030303" d=" M 270.59 266.63 C 272.03 266.22 273.53 266.33 275.01 266.38 C 293.65 267.21 312.33 266.40 330.97 267.18 C 334.59 267.74 339.42 265.58 341.99 269.04 C 340.81 269.87 339.57 270.68 338.06 270.39 C 326.04 270.31 314.02 270.11 302.00 270.16 C 295.35 270.10 288.68 270.44 282.04 269.91 C 278.28 269.64 274.43 270.24 270.76 269.22 C 270.72 268.57 270.63 267.28 270.59 266.63 Z" />
<path fill="#f5f4f0" d=" M 470.52 267.11 C 471.38 264.69 474.17 268.40 471.72 268.70 C 471.42 268.30 470.82 267.51 470.52 267.11 Z" />
<path fill="#030303" d=" M 271.64 279.58 C 277.28 280.72 282.97 281.65 288.69 282.35 C 295.10 282.93 301.56 282.59 307.97 283.18 C 317.65 283.47 327.29 284.90 336.98 284.17 C 338.80 283.94 340.63 283.41 342.49 283.62 C 343.35 285.74 342.29 287.04 340.18 287.24 C 327.44 288.08 314.74 286.10 302.00 286.20 C 291.77 285.89 281.53 285.23 271.49 283.13 C 271.52 281.94 271.57 280.76 271.64 279.58 Z" />
<path fill="#0d0d0d" d=" M 758.61 292.81 C 760.00 292.15 761.08 293.66 762.27 294.07 C 757.83 295.78 753.06 296.55 748.79 298.76 C 747.87 299.34 746.95 299.93 746.05 300.52 C 745.91 300.51 745.63 300.50 745.50 300.49 C 745.02 300.47 744.07 300.44 743.60 300.42 C 748.49 297.69 753.42 294.95 758.61 292.81 Z" />
<path fill="#030303" d=" M 270.41 302.21 C 270.37 300.99 270.35 299.78 270.35 298.57 C 275.23 298.88 280.10 299.40 284.99 299.20 C 295.63 298.49 306.31 298.48 316.97 298.82 C 325.18 299.69 333.46 298.94 341.70 299.36 C 341.64 300.37 341.57 301.38 341.51 302.39 C 334.33 302.33 327.14 302.53 319.97 302.09 C 303.46 300.37 286.93 303.38 270.41 302.21 Z" />
<path fill="#525150" d=" M 684.73 327.67 C 705.16 320.42 723.84 309.14 743.60 300.42 C 744.07 300.44 745.02 300.47 745.50 300.49 C 740.30 304.35 733.96 306.13 728.41 309.36 C 714.16 316.35 700.11 323.90 685.11 329.19 C 674.64 333.04 665.49 339.58 655.53 344.48 C 645.78 348.97 636.04 353.68 625.59 356.34 C 618.55 358.16 611.26 358.54 604.02 358.83 C 592.70 359.47 581.35 359.33 570.01 359.36 C 559.92 358.81 550.02 356.22 540.53 352.84 L 541.84 352.64 C 542.18 352.63 542.86 352.61 543.20 352.60 C 553.06 354.61 562.80 358.31 573.06 357.75 C 594.16 357.21 616.25 359.47 636.25 351.26 C 642.84 348.66 649.27 345.69 655.68 342.69 C 665.40 337.75 674.43 331.43 684.73 327.67 Z" />
<path fill="#080808" d=" M 801.00 312.77 C 809.95 313.31 818.36 308.59 827.32 310.03 C 829.07 310.15 830.27 311.50 830.99 313.00 C 833.77 318.51 836.50 324.08 840.07 329.14 C 841.56 330.89 838.82 332.92 837.10 332.57 C 817.38 332.16 797.62 331.95 777.91 332.76 C 775.17 332.51 771.22 335.12 769.47 332.17 C 772.12 325.64 778.18 321.40 782.44 315.97 C 780.83 315.73 779.59 315.02 778.91 313.59 C 786.26 313.11 793.64 313.55 801.00 312.77 Z" />
<path fill="#f5f4f0" d=" M 810.05 314.10 C 815.96 312.70 822.03 312.30 828.09 312.68 C 831.63 318.21 833.79 324.45 837.11 330.10 C 821.46 331.80 805.71 331.19 790.00 331.35 C 784.10 331.46 778.25 330.41 772.35 330.62 C 776.09 325.20 779.70 319.10 785.46 315.64 C 793.62 314.87 801.96 315.88 810.05 314.10 Z" />
<path fill="#030303" d=" M 328.01 316.80 C 332.40 316.72 336.90 317.17 341.17 315.85 C 341.66 316.21 342.15 316.58 342.66 316.95 C 342.55 317.50 342.33 318.60 342.22 319.14 C 334.27 320.97 326.09 320.01 318.01 320.18 C 306.99 320.31 296.00 319.28 285.00 318.80 C 280.26 318.65 275.54 319.50 270.80 319.15 C 270.72 318.30 270.56 316.60 270.48 315.75 C 277.33 315.36 284.21 315.51 291.07 315.75 C 303.33 317.28 315.70 316.74 328.01 316.80 Z" />
<path fill="#0f0f0f" d=" M 782.55 320.36 C 795.22 320.12 807.92 321.10 820.60 320.18 C 820.55 320.75 820.45 321.88 820.40 322.45 C 807.82 320.81 795.14 321.91 782.55 322.59 C 782.55 322.03 782.55 320.92 782.55 320.36 Z" />
<path fill="#1f1f1e" d=" M 787.96 325.74 C 798.92 325.59 810.01 326.58 820.86 324.55 C 823.05 324.20 825.28 324.16 827.50 324.18 C 827.50 324.79 827.50 326.01 827.50 326.62 C 822.33 326.80 817.16 326.30 812.00 326.71 C 803.02 327.96 793.92 326.87 784.95 328.22 C 784.81 327.77 784.51 326.87 784.36 326.41 C 785.54 326.14 786.72 325.79 787.96 325.74 Z" />
<path fill="#141413" d=" M 796.11 437.32 C 803.74 436.85 811.36 437.77 819.00 437.57 C 825.69 437.82 832.32 436.66 839.01 436.71 C 840.60 436.64 842.79 436.95 843.20 438.83 C 843.71 443.89 843.10 448.98 843.43 454.05 C 843.85 461.60 842.61 469.10 842.29 476.63 C 842.25 478.07 840.84 479.05 839.53 479.26 C 829.64 480.01 819.76 478.05 809.88 478.93 C 804.67 479.65 799.41 479.05 794.22 478.63 C 792.30 478.52 792.35 476.35 792.21 474.95 C 792.00 470.75 792.78 466.59 792.72 462.40 C 793.19 462.10 794.12 461.50 794.59 461.20 C 794.22 466.16 793.88 471.17 794.79 476.10 C 800.17 476.99 805.56 478.01 811.06 477.75 C 820.53 477.48 830.14 478.41 839.51 476.60 C 839.37 464.22 843.78 451.90 840.73 439.60 C 826.28 439.14 811.82 439.26 797.37 439.60 C 797.74 443.86 796.01 447.86 795.57 452.04 C 795.21 454.96 795.16 457.91 795.03 460.85 C 794.47 460.09 793.93 459.33 793.40 458.58 C 793.96 452.77 794.71 446.96 795.58 441.20 C 795.85 440.87 796.40 440.22 796.67 439.89 C 796.53 439.25 796.25 437.96 796.11 437.32 Z" />
<path fill="#dd500e" d=" M 802.65 453.89 C 803.22 450.74 806.77 450.33 809.25 449.46 C 811.60 450.41 813.59 452.24 812.71 455.05 C 811.22 459.00 808.44 462.33 806.32 465.96 C 806.96 466.38 808.23 467.21 808.87 467.63 C 810.10 467.43 811.34 467.24 812.60 467.06 C 812.60 467.67 812.61 468.88 812.61 469.49 C 808.84 471.65 805.42 468.70 802.21 466.96 C 805.15 462.35 810.20 458.13 809.89 452.23 C 808.32 452.66 806.77 453.12 805.24 453.61 C 805.78 455.47 806.36 457.31 806.84 459.20 C 804.63 458.33 802.26 456.59 802.65 453.89 Z" />
<path fill="#dd4f0d" d=" M 820.68 451.43 C 823.37 451.68 826.06 452.12 828.70 452.75 C 828.22 454.48 827.69 456.21 827.09 457.92 C 829.78 459.42 831.53 462.86 829.77 465.73 C 828.15 469.78 823.34 470.66 819.47 470.25 C 820.45 466.73 824.95 468.24 826.84 465.72 C 827.88 464.53 827.69 462.85 827.51 461.40 C 825.66 460.87 823.76 460.69 821.89 460.40 C 822.90 458.34 824.17 456.42 825.42 454.50 C 824.52 454.43 822.71 454.29 821.81 454.22 C 821.53 453.52 820.96 452.13 820.68 451.43 Z" />
<path fill="#de5312" d=" M 753.99 462.40 C 759.03 462.26 764.05 460.89 769.11 461.66 C 770.49 462.41 770.69 463.40 769.70 464.61 C 762.13 464.87 754.58 465.48 747.00 465.10 C 738.27 464.67 729.73 467.17 721.01 466.63 C 703.33 465.91 685.64 466.62 667.96 466.72 C 661.94 467.28 655.90 467.84 649.96 469.00 C 634.66 470.61 619.30 471.75 604.00 473.44 C 597.21 473.26 590.66 475.31 583.92 475.67 C 570.13 477.25 556.38 479.20 542.82 482.20 C 534.40 483.40 525.92 484.14 517.48 485.22 C 506.30 486.18 495.34 488.79 484.19 489.97 C 475.20 492.11 465.89 492.04 456.86 493.89 C 453.63 494.38 450.48 495.55 447.19 495.43 C 446.86 495.40 446.19 495.34 445.86 495.31 L 444.61 495.09 C 458.24 491.96 472.27 491.40 485.96 488.71 C 492.00 488.19 497.93 486.91 503.90 485.95 C 513.27 484.64 522.68 483.59 532.09 482.54 C 541.22 481.99 550.03 479.35 559.08 478.16 C 566.66 476.43 574.45 476.12 582.12 474.88 C 589.47 474.42 596.64 472.46 604.03 472.44 C 613.27 471.43 622.55 470.84 631.78 469.60 C 640.54 469.11 649.26 468.18 657.92 466.75 C 677.89 464.47 698.07 466.26 718.08 464.64 C 723.33 464.46 728.63 464.92 733.82 463.87 C 740.47 462.61 747.25 462.64 753.99 462.40 Z" />
<path fill="#13b824" d=" M 206.56 467.50 C 207.51 466.20 209.21 466.50 210.61 466.29 C 210.44 467.51 210.92 469.01 210.01 470.05 C 206.23 474.93 201.15 478.57 196.56 482.63 C 188.97 489.68 183.64 498.67 177.71 507.06 C 177.24 507.81 176.80 508.59 176.38 509.38 C 175.49 509.20 173.72 508.85 172.83 508.67 C 175.17 503.91 178.21 499.56 181.16 495.18 C 185.80 488.01 191.07 481.06 197.88 475.81 C 201.02 473.30 203.71 470.31 206.56 467.50 Z" />
<path fill="#030303" d=" M 792.84 483.72 C 797.01 481.82 801.56 483.36 805.90 483.50 C 816.28 484.51 826.68 483.09 837.07 483.34 C 839.12 483.16 840.24 485.20 841.21 486.67 C 843.29 490.43 845.23 494.27 847.34 498.02 C 847.11 498.66 846.65 499.95 846.42 500.60 C 845.01 501.04 843.60 501.58 842.12 501.61 C 824.73 501.31 807.32 501.31 789.93 501.84 C 788.34 502.02 785.03 501.48 786.95 499.23 C 800.89 500.89 814.97 500.34 828.98 500.30 C 834.10 499.75 839.30 499.77 844.33 498.56 C 842.36 494.89 840.91 490.91 838.60 487.43 C 837.67 485.71 835.67 485.67 833.98 485.79 C 825.32 486.33 816.61 486.54 807.95 485.80 C 803.57 485.59 799.16 485.27 794.81 485.84 C 793.08 486.82 792.57 488.96 791.46 490.49 C 789.32 493.73 787.36 497.09 785.48 500.48 C 784.88 500.62 783.69 500.91 783.10 501.05 C 783.85 496.22 787.83 492.95 789.71 488.62 C 790.62 486.92 791.18 484.88 792.84 483.72 Z" />
<path fill="#050505" d=" M 829.89 490.76 C 832.00 490.11 834.15 489.61 836.31 489.17 C 836.41 489.78 836.59 491.02 836.68 491.63 C 825.74 493.47 814.64 492.17 803.63 492.40 C 803.97 492.16 804.66 491.68 805.01 491.44 C 813.27 491.48 821.88 493.61 829.89 490.76 Z" />
<path fill="#464545" d=" M 798.98 492.09 C 801.02 489.65 804.29 490.36 807.07 490.41 C 814.66 490.98 822.28 490.94 829.89 490.76 C 821.88 493.61 813.27 491.48 805.01 491.44 C 804.66 491.68 803.97 492.16 803.63 492.40 L 802.86 492.95 C 801.55 492.69 800.26 492.40 798.98 492.09 Z" />
<path fill="#13b824" d=" M 160.52 492.33 C 161.30 492.25 162.88 492.11 163.66 492.04 C 163.38 497.41 163.16 502.79 163.30 508.18 L 163.13 508.83 C 162.52 508.80 161.31 508.74 160.70 508.71 C 160.49 508.70 160.07 508.68 159.85 508.67 C 159.88 503.22 159.37 497.70 160.52 492.33 Z" />
<path fill="#100f0f" d=" M 800.94 495.77 C 810.01 494.90 819.29 496.85 828.22 494.44 C 828.27 494.98 828.36 496.04 828.41 496.57 C 823.30 496.90 818.16 496.36 813.09 497.15 C 809.37 497.17 805.65 497.67 801.95 497.39 L 800.94 495.77 Z" />
<path fill="#dd4e0c" d=" M 433.79 497.93 C 437.76 496.88 441.63 494.92 445.86 495.31 C 446.19 495.34 446.86 495.40 447.19 495.43 C 439.48 497.74 431.75 500.05 423.99 502.22 C 414.71 503.83 405.20 505.43 396.78 509.89 C 393.33 511.80 389.75 513.50 385.87 514.35 C 385.16 514.01 383.72 513.33 383.00 512.99 C 383.76 511.33 385.41 510.95 387.05 510.84 C 392.87 510.32 397.53 506.24 403.24 505.24 C 413.46 502.98 423.66 500.59 433.79 497.93 Z" />
<path fill="#030303" d=" M 347.47 497.67 C 350.07 496.83 352.77 496.37 355.50 496.49 C 356.96 502.20 356.18 508.14 356.33 513.96 C 359.23 513.11 362.14 512.09 365.21 512.19 C 367.65 510.29 369.86 508.10 372.42 506.37 C 373.10 506.48 374.46 506.68 375.14 506.79 C 373.21 508.61 371.06 510.15 369.11 511.95 C 367.91 513.00 366.75 514.11 365.59 515.22 C 365.22 516.52 364.85 517.83 364.47 519.15 C 367.02 520.24 369.57 521.33 372.13 522.40 C 373.01 523.75 373.64 523.71 374.04 522.28 C 374.12 521.56 374.27 520.13 374.34 519.42 C 374.61 516.65 374.59 513.87 374.56 511.10 C 374.59 510.55 374.67 509.44 374.70 508.89 C 374.98 507.70 375.49 506.58 375.89 505.44 C 377.70 505.71 379.49 506.11 381.26 506.61 C 381.31 510.85 381.11 515.11 381.48 519.35 C 381.49 521.08 381.95 523.17 380.48 524.47 C 378.89 526.50 376.19 526.36 373.88 526.54 C 370.64 524.14 367.01 522.31 363.25 520.88 C 360.91 520.78 358.60 521.24 356.29 521.45 C 356.40 528.94 355.86 536.50 357.05 543.94 C 357.46 546.91 357.43 549.93 357.56 552.93 C 358.85 551.84 360.14 550.75 361.42 549.65 C 365.77 548.37 369.05 545.12 373.04 543.15 C 375.17 541.04 377.91 542.05 380.40 542.81 C 380.85 548.50 380.95 554.26 380.63 559.96 C 380.24 563.23 376.34 562.92 373.94 562.61 C 369.96 562.65 366.86 559.76 363.13 558.84 C 361.25 558.56 359.34 558.61 357.45 558.57 C 357.24 563.09 358.47 567.50 358.61 572.01 C 358.68 578.16 359.39 584.27 359.85 590.40 C 362.84 588.87 364.62 584.96 368.36 585.26 C 371.38 584.42 373.42 581.94 375.19 579.52 C 376.58 579.50 377.98 579.48 379.39 579.46 L 379.17 580.77 C 378.13 586.22 378.34 591.79 378.83 597.29 C 379.94 596.24 381.80 595.60 381.81 593.81 C 382.49 589.87 382.45 585.84 382.83 581.87 C 382.86 581.57 382.90 580.97 382.92 580.66 C 380.80 580.50 378.83 580.04 378.92 577.45 C 381.19 577.37 383.38 577.97 385.50 578.73 C 385.62 580.84 385.69 583.00 385.07 585.06 C 383.68 589.40 385.30 594.15 383.26 598.36 C 381.03 599.06 378.67 599.63 376.46 598.55 C 376.08 598.88 375.33 599.53 374.95 599.86 C 373.34 598.47 371.77 597.05 370.24 595.58 C 367.39 595.16 364.55 594.61 361.68 594.33 C 361.31 594.03 360.58 593.45 360.21 593.15 C 360.51 604.50 360.79 615.86 360.73 627.22 C 362.29 626.53 366.16 623.56 366.50 626.74 C 364.30 628.47 362.02 630.10 359.95 631.99 C 362.09 632.21 364.23 632.40 366.38 632.60 C 366.58 630.49 366.75 628.38 367.06 626.29 C 367.02 624.25 368.37 622.92 370.01 621.98 C 371.42 620.51 372.82 618.96 374.77 618.17 C 374.58 619.16 374.21 621.15 374.02 622.15 C 372.50 623.38 371.01 624.65 369.50 625.90 C 369.36 629.27 369.49 632.65 369.58 636.03 C 371.56 636.20 373.54 636.38 375.52 636.57 C 375.62 631.55 375.67 626.53 375.55 621.52 C 375.54 620.60 375.53 619.69 375.54 618.80 C 376.08 618.73 377.16 618.60 377.71 618.53 C 378.93 615.09 382.89 617.38 385.38 617.83 C 385.99 622.87 385.25 627.94 385.31 633.00 C 385.42 635.41 384.54 637.69 383.32 639.73 C 379.90 639.52 376.59 638.03 373.17 639.01 C 371.05 638.48 367.52 638.66 368.18 635.43 C 365.73 635.18 363.29 634.80 360.85 634.49 C 360.38 640.68 360.45 647.00 358.79 653.03 C 358.62 656.46 358.71 659.90 358.34 663.32 C 357.20 663.73 356.09 664.25 354.91 664.51 C 338.96 665.66 322.95 665.61 306.96 665.82 C 289.64 666.84 272.28 666.33 254.95 666.44 C 251.42 666.49 252.45 662.25 252.15 660.00 C 251.22 651.38 251.22 642.71 251.18 634.05 C 249.96 621.74 250.48 609.36 250.41 597.01 C 251.80 579.73 251.30 562.37 251.42 545.04 C 251.54 530.35 250.87 515.60 252.20 500.95 C 251.94 499.27 253.45 498.56 254.57 497.73 C 260.01 497.59 265.45 497.51 270.90 497.29 C 272.09 499.07 274.25 498.67 276.05 498.79 C 283.35 498.76 290.72 499.09 297.94 497.84 C 307.27 497.40 316.61 497.79 325.95 497.64 C 333.12 497.20 340.41 499.91 347.47 497.67 Z" />
<path fill="#f5f4f0" d=" M 255.54 501.47 C 259.64 501.14 263.85 500.08 267.91 501.20 C 274.06 503.15 280.61 502.08 286.94 502.21 C 301.24 500.47 315.66 500.62 330.04 500.92 C 337.59 502.09 345.32 502.11 352.71 499.99 C 352.71 507.00 353.29 513.99 353.19 521.00 C 353.26 529.01 352.92 537.06 353.94 545.03 C 354.86 552.32 353.62 559.72 354.90 566.99 C 356.00 572.58 355.35 578.33 356.04 583.98 C 357.81 600.91 357.50 617.95 357.42 634.95 C 357.46 643.77 354.96 652.36 355.33 661.18 C 344.23 661.65 333.16 662.60 322.03 662.54 C 313.69 662.93 305.32 662.53 296.99 663.20 C 283.20 663.39 269.39 663.23 255.60 663.25 C 255.55 659.33 255.35 655.42 254.75 651.56 C 254.01 642.37 254.69 633.13 253.57 623.98 C 253.67 612.70 252.84 601.35 254.06 590.12 C 255.23 560.59 253.45 530.97 255.54 501.47 Z" />
<path fill="#495052" d=" M 176.38 509.38 C 176.80 508.59 177.24 507.81 177.71 507.06 C 177.55 507.60 177.24 508.70 177.08 509.24 C 182.62 509.28 188.17 509.15 193.71 509.37 C 194.10 511.23 194.63 513.13 194.29 515.06 C 193.24 522.36 191.56 529.62 191.50 537.03 C 191.46 540.29 190.84 543.53 189.69 546.59 C 179.45 547.08 169.20 546.51 158.96 546.93 C 154.46 547.26 149.89 547.48 145.46 546.42 C 143.48 534.83 146.04 523.20 145.61 511.57 C 146.10 511.31 147.07 510.79 147.55 510.52 C 147.79 509.95 148.27 508.82 148.50 508.25 C 152.28 508.52 156.07 508.59 159.85 508.67 C 160.07 508.68 160.49 508.70 160.70 508.71 C 160.53 509.56 160.20 511.26 160.03 512.11 C 156.41 512.28 152.78 512.03 149.18 511.70 C 148.41 522.35 147.99 533.03 148.36 543.71 C 161.36 543.73 174.36 543.54 187.37 543.44 C 187.94 539.33 188.24 535.19 188.49 531.06 C 189.25 524.86 190.52 518.73 191.01 512.49 C 185.63 512.43 180.26 512.51 174.88 512.31 C 175.37 511.32 175.87 510.34 176.38 509.38 Z" />
<path fill="#ae9d94" d=" M 376.86 508.80 C 376.82 506.95 380.08 508.09 379.08 509.55 C 378.52 509.36 377.41 508.98 376.86 508.80 Z" />
<path fill="#0b4e1c" d=" M 160.70 508.71 C 161.31 508.74 162.52 508.80 163.13 508.83 L 163.82 509.15 C 164.55 512.30 168.45 511.83 170.88 511.23 C 171.31 510.57 172.16 509.27 172.59 508.62 L 172.83 508.67 C 173.72 508.85 175.49 509.20 176.38 509.38 C 175.87 510.34 175.37 511.32 174.88 512.31 L 174.58 512.30 C 173.66 512.25 171.84 512.16 170.92 512.12 C 170.77 512.47 170.48 513.17 170.33 513.52 C 170.21 513.20 169.97 512.55 169.84 512.23 C 167.86 511.28 165.59 511.88 163.49 511.86 C 162.70 511.92 161.13 512.03 160.34 512.09 L 160.03 512.11 C 160.20 511.26 160.53 509.56 160.70 508.71 Z" />
<path fill="#4b5354" d=" M 163.82 509.15 C 166.62 508.15 169.68 508.75 172.59 508.62 C 172.16 509.27 171.31 510.57 170.88 511.23 C 168.45 511.83 164.55 512.30 163.82 509.15 Z" />
<path fill="#e18458" d=" M 376.86 508.80 C 377.41 508.98 378.52 509.36 379.08 509.55 C 379.49 513.05 379.69 516.61 379.20 520.12 C 378.56 520.59 377.28 521.53 376.65 522.00 C 376.64 517.59 376.60 513.19 376.86 508.80 Z" />
<path fill="#e37f50" d=" M 369.11 511.95 C 370.83 510.69 372.79 509.81 374.70 508.89 C 374.67 509.44 374.59 510.55 374.56 511.10 C 371.87 512.58 369.37 514.40 367.51 516.86 C 369.77 517.74 372.05 518.58 374.34 519.42 C 374.27 520.13 374.12 521.56 374.04 522.28 C 373.57 522.31 372.61 522.37 372.13 522.40 C 369.57 521.33 367.02 520.24 364.47 519.15 C 364.85 517.83 365.22 516.52 365.59 515.22 C 366.75 514.11 367.91 513.00 369.11 511.95 Z" />
<path fill="#f5f4f0" d=" M 149.18 511.70 C 152.78 512.03 156.41 512.28 160.03 512.11 L 160.34 512.09 C 161.82 519.16 161.16 526.93 164.90 533.34 C 169.79 527.18 170.59 518.99 174.58 512.30 L 174.88 512.31 C 180.26 512.51 185.63 512.43 191.01 512.49 C 190.52 518.73 189.25 524.86 188.49 531.06 C 188.24 535.19 187.94 539.33 187.37 543.44 C 174.36 543.54 161.36 543.73 148.36 543.71 C 147.99 533.03 148.41 522.35 149.18 511.70 Z" />
<path fill="#13b824" d=" M 160.34 512.09 C 161.13 512.03 162.70 511.92 163.49 511.86 C 164.11 516.61 164.87 521.34 165.66 526.06 C 166.79 521.73 168.43 517.56 170.33 513.52 C 170.48 513.17 170.77 512.47 170.92 512.12 C 171.84 512.16 173.66 512.25 174.58 512.30 C 170.59 518.99 169.79 527.18 164.90 533.34 C 161.16 526.93 161.82 519.16 160.34 512.09 Z" />
<path fill="#f5f4f0" d=" M 163.49 511.86 C 165.59 511.88 167.86 511.28 169.84 512.23 C 169.97 512.55 170.21 513.20 170.33 513.52 C 168.43 517.56 166.79 521.73 165.66 526.06 C 164.87 521.34 164.11 516.61 163.49 511.86 Z" />
<path fill="#e79269" d=" M 367.51 516.86 C 369.37 514.40 371.87 512.58 374.56 511.10 C 374.59 513.87 374.61 516.65 374.34 519.42 C 372.05 518.58 369.77 517.74 367.51 516.86 Z" />
<path fill="#030303" d=" M 335.07 515.72 C 337.90 515.35 340.63 514.51 343.44 514.01 C 343.51 515.05 343.58 516.09 343.64 517.14 C 333.13 520.68 321.84 519.30 311.00 518.71 C 299.01 518.40 287.01 518.92 275.01 518.80 C 270.78 518.63 266.47 519.52 262.33 518.35 C 262.68 517.65 263.38 516.25 263.72 515.55 C 276.47 515.47 289.22 515.70 301.97 515.53 C 313.01 515.21 324.08 517.66 335.07 515.72 Z" />
<path fill="#ab6f52" d=" M 359.24 515.09 C 360.54 514.95 361.83 514.81 363.14 514.69 C 363.19 515.62 363.29 517.50 363.34 518.44 C 362.11 518.48 360.89 518.53 359.67 518.57 C 359.56 517.71 359.46 516.85 359.36 516.00 L 359.24 515.09 Z" />
<path fill="#f5f4f0" d=" M 356.46 516.71 C 357.18 516.53 358.63 516.18 359.36 516.00 C 359.46 516.85 359.56 517.71 359.67 518.57 C 358.50 518.61 357.35 518.67 356.20 518.74 C 356.26 518.23 356.39 517.22 356.46 516.71 Z" />
<path fill="#f5f4f0" d=" M 376.65 522.00 C 377.28 521.53 378.56 520.59 379.20 520.12 C 378.89 521.15 378.59 522.19 378.30 523.24 C 377.84 523.37 376.94 523.62 376.48 523.75 C 376.53 523.16 376.59 522.57 376.65 522.00 Z" />
<path fill="#99897f" d=" M 372.13 522.40 C 372.61 522.37 373.57 522.31 374.04 522.28 C 373.64 523.71 373.01 523.75 372.13 522.40 Z" />
<path fill="#030303" d=" M 276.97 530.35 C 291.58 528.67 306.35 528.35 321.02 529.54 C 326.97 530.23 333.08 529.03 338.92 530.58 C 338.66 531.43 338.37 532.27 338.06 533.11 C 324.02 534.22 310.05 530.42 296.01 532.13 C 285.13 532.25 274.32 534.79 263.43 533.43 C 263.55 532.74 263.78 531.34 263.89 530.65 C 268.22 530.02 272.62 530.82 276.97 530.35 Z" />
<path fill="#f5cd7a" d=" M 465.03 540.59 C 483.97 539.39 502.93 538.07 521.92 538.29 C 544.24 537.35 566.60 537.80 588.94 537.68 C 600.04 537.75 611.19 537.34 622.25 538.62 C 640.27 540.89 658.39 542.43 676.28 545.62 C 681.47 546.67 686.70 547.49 691.94 548.31 C 695.84 548.94 699.93 548.67 703.64 550.22 C 701.96 550.39 700.31 550.64 698.64 550.79 C 687.21 549.99 676.05 546.89 664.68 545.49 C 651.29 543.42 637.77 542.37 624.34 540.57 C 609.64 538.87 594.82 539.38 580.06 539.31 C 560.37 539.29 540.68 539.23 521.01 540.08 C 500.87 539.84 480.75 541.28 460.69 542.73 C 459.08 542.47 457.49 542.15 455.90 541.90 C 458.88 541.09 461.95 540.75 465.03 540.59 Z" />
<path fill="#f6b633" d=" M 421.18 548.14 C 432.57 545.19 444.15 542.81 455.90 541.90 C 457.49 542.15 459.08 542.47 460.69 542.73 C 452.73 544.84 444.38 544.63 436.41 546.63 C 428.20 548.12 420.35 551.22 411.98 551.81 C 403.43 553.67 394.64 554.20 385.91 553.68 C 384.33 553.66 383.08 552.53 381.76 551.87 C 384.66 550.20 387.95 551.55 391.04 551.66 C 401.25 552.62 411.25 550.08 421.18 548.14 Z" />
<path fill="#030303" d=" M 312.03 546.74 C 323.01 546.47 333.85 543.85 344.86 544.61 C 344.85 545.38 344.81 546.93 344.79 547.70 C 336.50 547.32 328.30 548.58 320.05 549.12 C 301.99 550.56 283.87 550.15 265.77 550.40 C 265.67 549.41 265.57 548.42 265.47 547.44 C 270.23 546.30 275.14 546.90 279.98 546.80 C 290.66 546.72 301.35 547.05 312.03 546.74 Z" />
<path fill="#f5cf7e" d=" M 374.26 544.68 C 375.57 544.68 376.89 544.70 378.22 544.72 C 378.32 549.64 378.28 554.56 378.32 559.48 C 377.12 559.78 375.92 560.09 374.72 560.40 C 374.27 555.17 374.69 549.91 374.26 544.68 Z" />
<path fill="#f5cd7a" d=" M 364.73 551.12 C 367.37 549.56 369.98 547.93 372.47 546.13 C 372.34 550.73 372.34 555.34 372.16 559.95 C 370.00 559.09 367.90 558.09 365.92 556.89 C 365.52 554.96 365.12 553.03 364.73 551.12 Z" />
<path fill="#f6b228" d=" M 698.64 550.79 C 700.31 550.64 701.96 550.39 703.64 550.22 C 713.05 551.28 722.51 552.16 731.94 553.22 C 740.86 554.06 749.48 556.84 758.44 557.38 C 762.74 557.63 766.38 560.32 770.67 560.70 C 770.55 561.68 770.43 562.67 770.32 563.66 C 766.30 564.05 763.02 561.56 759.32 560.61 C 749.07 559.50 739.16 556.51 728.97 554.98 C 718.90 553.29 708.81 551.73 698.64 550.79 Z" />
<path fill="#070707" d=" M 788.11 563.15 C 788.70 558.72 787.88 554.21 788.74 549.82 L 790.30 551.50 C 800.83 551.64 811.50 551.47 822.07 551.92 C 827.79 552.83 833.57 552.12 839.28 551.43 C 839.33 552.03 839.45 553.23 839.50 553.83 C 834.00 553.44 828.48 553.44 823.00 552.92 C 816.37 552.62 809.69 552.51 803.08 553.11 C 798.69 553.15 794.30 553.94 789.92 553.50 C 789.80 557.50 789.43 561.48 789.31 565.48 L 788.70 565.53 C 788.57 573.62 788.61 581.71 788.55 589.79 C 787.57 589.68 786.59 589.57 785.63 589.46 C 785.83 584.57 787.65 579.90 787.60 575.01 C 787.66 571.05 787.54 567.08 788.11 563.15 Z" />
<path fill="#d0aa5b" d=" M 364.64 550.69 L 364.73 551.12 C 365.12 553.03 365.52 554.96 365.92 556.89 C 363.11 555.92 360.13 556.18 357.22 556.17 C 358.74 554.93 360.25 553.68 361.80 552.48 C 362.45 553.16 363.76 554.51 364.42 555.19 C 364.47 554.07 364.58 551.82 364.64 550.69 Z" />
<path fill="#161616" d=" M 838.65 556.39 C 839.56 556.34 840.49 556.29 841.44 556.25 C 840.85 561.47 840.03 566.69 840.34 571.97 C 840.21 577.44 841.26 582.94 840.44 588.39 C 836.24 588.80 832.03 589.19 827.87 589.90 C 815.87 591.87 803.63 590.99 791.56 592.30 C 791.55 591.45 791.54 590.60 791.55 589.75 C 798.72 589.64 805.88 590.05 813.05 590.20 C 821.62 589.70 830.25 589.06 838.50 586.43 C 838.71 576.42 839.86 566.38 838.65 556.39 Z" />
<path fill="#030303" d=" M 265.40 565.01 C 265.82 563.61 266.70 563.06 268.03 563.39 C 277.61 564.85 287.33 564.09 296.98 564.35 C 312.08 564.59 327.17 564.11 342.25 563.67 C 342.69 564.52 343.14 565.39 343.59 566.26 C 342.09 566.63 340.59 567.08 339.04 567.13 C 316.68 567.28 294.32 567.51 271.96 567.44 C 269.69 567.22 266.47 567.52 265.40 565.01 Z" />
<path fill="#f6b229" d=" M 798.49 568.40 C 798.46 563.43 805.86 561.66 808.61 565.36 C 809.35 567.99 808.43 570.67 807.35 573.06 C 809.63 575.49 810.63 579.13 809.30 582.29 C 807.49 585.06 803.61 586.30 800.49 585.34 C 798.61 583.85 798.19 581.13 798.51 578.88 C 799.54 577.02 801.63 575.88 802.60 574.05 C 801.23 572.30 797.98 571.20 798.49 568.40 Z" />
<path fill="#f6b229" d=" M 817.79 566.75 C 820.77 563.78 826.92 563.79 829.40 567.42 C 831.76 574.09 825.09 582.43 818.01 580.57 C 816.95 580.04 816.15 579.12 815.28 578.38 C 816.28 574.54 817.01 570.64 817.79 566.75 Z" />
<path fill="#f5f4f0" d=" M 801.33 566.45 C 803.05 566.39 804.78 566.37 806.52 566.39 C 806.24 568.36 805.96 570.34 805.66 572.33 C 803.18 571.14 800.49 569.66 801.33 566.45 Z" />
<path fill="#f5f4f0" d=" M 820.51 567.56 C 822.95 567.38 825.38 567.70 827.68 568.58 C 827.19 571.12 827.28 574.24 824.97 575.95 C 823.22 577.80 820.62 578.14 818.25 578.51 C 818.53 574.77 819.67 571.19 820.51 567.56 Z" />
<path fill="#f5f4f0" d=" M 805.31 576.26 C 807.63 575.40 807.22 578.59 807.39 580.02 C 807.29 582.86 800.77 584.99 801.17 580.95 C 800.96 578.57 803.52 577.23 805.31 576.26 Z" />
<path fill="#030303" d=" M 305.03 581.65 C 316.39 581.30 327.71 580.21 339.01 579.05 C 340.89 578.94 342.95 578.40 344.67 579.46 C 344.68 580.40 344.66 581.34 344.60 582.30 C 336.02 582.08 327.52 583.43 318.96 583.80 C 302.29 585.56 285.50 584.45 268.78 584.84 C 268.30 584.15 267.82 583.47 267.35 582.79 C 268.59 581.60 270.21 581.05 271.93 581.27 C 282.96 581.61 294.00 581.77 305.03 581.65 Z" />
<path fill="#82cae7" d=" M 379.17 580.77 C 380.39 581.14 381.61 581.49 382.83 581.87 C 382.45 585.84 382.49 589.87 381.81 593.81 C 381.80 595.60 379.94 596.24 378.83 597.29 C 378.34 591.79 378.13 586.22 379.17 580.77 Z" />
<path fill="#7ac7e6" d=" M 370.45 587.57 C 372.45 585.70 374.49 583.88 376.46 581.97 C 376.29 587.11 375.77 592.24 375.62 597.39 C 374.00 595.89 372.30 594.47 370.51 593.19 C 370.47 591.31 370.46 589.43 370.45 587.57 Z" />
<path fill="#80cae7" d=" M 362.75 592.14 C 364.26 590.50 365.90 588.99 367.65 587.61 C 367.71 589.21 367.76 590.83 367.80 592.44 C 366.11 592.34 364.43 592.24 362.75 592.14 Z" />
<path fill="#33ade1" d=" M 394.54 591.45 C 402.93 589.93 411.51 591.02 419.98 590.60 C 436.01 589.93 452.00 591.72 468.03 591.32 C 478.36 591.50 488.90 590.64 499.02 593.25 C 516.54 598.26 534.33 603.01 550.48 611.70 C 560.25 617.26 571.42 619.51 581.37 624.64 C 588.26 627.94 596.01 628.90 602.87 632.26 C 612.47 636.98 621.75 642.36 631.58 646.60 C 640.87 650.09 650.06 653.85 659.63 656.55 C 667.87 659.55 676.70 660.14 685.11 662.49 C 693.64 664.76 702.48 665.56 710.99 667.96 C 718.32 669.47 725.38 672.42 732.93 672.73 C 740.64 673.27 748.29 674.51 756.03 674.84 C 758.06 674.34 759.70 677.78 756.93 677.74 C 748.80 677.52 740.98 674.90 732.89 674.28 C 720.48 672.99 708.87 667.97 696.60 665.97 C 687.25 664.33 678.19 661.22 668.70 660.40 C 655.28 659.05 643.13 652.85 630.62 648.35 C 621.62 643.70 613.06 638.19 603.83 633.98 C 597.70 631.43 591.06 630.45 584.92 627.92 C 575.60 623.87 565.80 620.98 556.82 616.14 C 547.88 611.33 538.78 606.73 529.13 603.50 C 520.41 600.94 511.94 597.54 502.96 595.94 C 493.60 592.95 483.72 592.19 473.94 592.21 C 459.62 592.24 445.30 592.39 430.99 592.74 C 419.98 592.86 408.93 592.01 397.97 593.35 C 395.91 593.56 393.84 593.65 391.77 593.64 C 392.52 592.71 393.20 591.52 394.54 591.45 Z" />
<path fill="#030303" d=" M 317.22 599.29 C 326.33 599.44 335.41 598.85 344.51 598.56 C 344.61 599.56 344.71 600.56 344.81 601.58 C 333.90 602.91 322.88 601.80 311.94 602.48 C 296.81 603.43 281.64 603.57 266.48 603.38 C 266.13 601.62 266.74 599.51 268.93 599.81 C 285.02 600.73 301.14 600.10 317.22 599.29 Z" />
<path fill="#100f0f" d=" M 785.74 601.03 C 787.60 599.81 789.79 599.51 791.97 599.72 C 807.68 600.95 823.46 600.06 839.13 598.79 C 841.57 599.67 842.47 602.32 843.24 604.56 C 844.34 607.99 845.92 611.28 846.68 614.84 L 844.78 614.12 C 842.99 609.98 842.14 605.21 838.93 601.85 C 821.99 601.80 805.00 600.59 788.08 602.03 C 787.50 601.78 786.33 601.28 785.74 601.03 Z" />
<path fill="#050505" d=" M 788.09 603.53 C 788.78 603.52 790.14 603.52 790.83 603.51 C 788.59 607.22 784.64 609.46 782.45 613.20 C 786.90 613.82 791.36 614.48 795.82 615.10 C 802.54 615.89 809.35 615.17 816.06 616.13 C 823.92 616.66 831.89 616.61 839.59 614.74 C 841.01 614.07 842.04 615.02 843.00 616.03 C 840.55 617.42 837.74 618.09 834.94 617.74 C 827.98 617.02 820.95 617.74 814.01 616.76 C 807.31 616.50 800.58 616.85 793.90 616.11 C 789.11 615.33 784.24 615.63 779.43 615.17 C 779.29 613.55 779.77 612.10 781.05 611.07 C 783.47 608.63 785.75 606.04 788.09 603.53 Z" />
<path fill="#0a0a0a" d=" M 797.63 603.62 C 803.42 603.54 809.21 604.38 814.95 605.16 C 821.27 605.55 827.62 605.76 833.95 605.30 C 833.87 605.81 833.72 606.83 833.65 607.33 C 826.54 605.82 819.18 607.23 812.05 605.86 C 807.33 605.49 802.60 605.79 797.88 605.70 C 797.82 605.18 797.69 604.14 797.63 603.62 Z" />
<path fill="#090909" d=" M 824.07 610.27 C 825.29 609.90 826.52 609.57 827.77 609.27 C 827.81 609.84 827.89 610.99 827.92 611.56 C 820.63 611.34 813.32 611.36 806.03 611.63 C 802.65 611.65 799.32 613.02 795.95 612.28 C 797.00 611.03 798.25 609.86 800.01 609.94 C 808.02 610.32 816.05 610.52 824.07 610.27 Z" />
<path fill="#050505" d=" M 329.06 615.94 C 333.92 614.99 338.90 615.05 343.82 615.30 C 343.72 616.31 343.62 617.33 343.51 618.36 C 338.72 618.37 333.90 618.30 329.15 619.08 C 318.08 619.59 307.11 621.68 296.00 621.27 C 286.68 621.09 277.30 621.62 268.01 620.94 C 265.09 621.32 267.75 618.72 268.59 618.19 C 282.48 618.09 296.41 619.44 310.29 618.24 C 316.51 617.24 322.85 617.14 329.06 615.94 Z" />
<path fill="#7b7a78" d=" M 266.24 617.57 C 280.92 617.82 295.61 617.76 310.29 618.24 C 296.41 619.44 282.48 618.09 268.59 618.19 C 267.75 618.72 265.09 621.32 268.01 620.94 C 277.30 621.62 286.68 621.09 296.00 621.27 C 307.11 621.68 318.08 619.59 329.15 619.08 C 322.18 620.42 315.09 620.96 308.03 621.61 C 294.63 621.67 281.22 621.59 267.81 621.65 C 265.74 621.76 266.37 618.89 266.24 617.57 Z" />
<path fill="#57c160" d=" M 377.71 619.22 C 379.54 619.36 381.36 619.50 383.19 619.66 C 383.23 621.38 383.27 623.10 383.34 624.83 C 381.71 623.44 379.88 622.16 377.72 623.32 C 377.72 621.94 377.72 620.57 377.71 619.22 Z" />
<path fill="#79d380" d=" M 369.50 625.90 C 371.01 624.65 372.50 623.38 374.02 622.15 L 375.55 621.52 C 375.67 626.53 375.62 631.55 375.52 636.57 C 373.54 636.38 371.56 636.20 369.58 636.03 C 369.49 632.65 369.36 629.27 369.50 625.90 Z" />
<path fill="#76d27d" d=" M 377.72 623.32 C 379.88 622.16 381.71 623.44 383.34 624.83 C 383.37 625.57 383.42 627.05 383.45 627.79 C 382.08 629.58 380.71 631.38 379.32 633.17 C 378.84 631.99 378.38 630.81 377.94 629.63 C 377.66 627.53 377.77 625.41 377.72 623.32 Z" />
<path fill="#50c75b" d=" M 366.50 626.74 L 367.06 626.29 C 366.75 628.38 366.58 630.49 366.38 632.60 C 364.23 632.40 362.09 632.21 359.95 631.99 C 362.02 630.10 364.30 628.47 366.50 626.74 Z" />
<path fill="#17b927" d=" M 393.16 625.55 C 407.10 627.77 421.00 630.33 435.01 632.01 C 443.10 633.59 451.41 634.61 459.04 637.93 C 468.13 640.84 476.54 645.43 485.49 648.71 C 501.15 654.23 517.17 659.58 530.95 669.11 C 533.78 671.23 536.42 673.64 539.45 675.51 C 550.95 681.79 562.15 688.65 572.90 696.15 C 579.43 701.35 586.99 705.16 593.07 710.95 C 598.64 716.04 605.86 718.60 611.99 722.87 C 621.29 728.81 629.30 736.57 638.89 742.09 C 651.18 748.91 663.72 755.28 676.22 761.71 C 689.32 767.50 702.00 775.33 716.53 776.82 C 727.60 779.60 738.79 781.84 749.99 784.04 C 754.40 784.87 758.90 784.44 763.37 784.57 C 763.42 785.57 763.49 786.59 763.55 787.61 C 756.09 788.23 748.73 786.54 741.57 784.66 C 732.80 783.13 724.20 780.79 715.52 778.84 C 707.52 777.80 699.37 776.02 692.63 771.34 C 682.76 766.53 673.10 761.21 662.96 756.98 C 653.45 752.93 645.27 746.50 636.15 741.76 C 630.82 739.05 626.18 735.24 621.46 731.64 C 613.64 725.47 604.80 720.81 596.45 715.43 C 588.01 708.82 579.87 701.76 570.65 696.22 C 560.68 690.26 551.52 683.00 541.16 677.72 C 535.49 674.59 531.03 669.68 525.22 666.78 C 512.33 658.38 497.29 654.45 483.12 648.83 C 469.71 643.38 456.20 637.86 441.97 634.92 C 435.16 633.79 428.17 633.98 421.45 632.31 C 413.46 630.34 405.23 629.66 397.06 629.07 C 394.97 628.95 393.26 627.77 393.16 625.55 Z" />
<path fill="#5bbd63" d=" M 379.32 633.17 C 380.71 631.38 382.08 629.58 383.45 627.79 C 383.40 630.15 383.34 632.50 383.28 634.88 L 382.66 634.84 C 381.33 634.51 380.31 635.65 379.81 636.72 L 379.08 637.90 C 377.74 635.34 377.65 632.44 377.94 629.63 C 378.38 630.81 378.84 631.99 379.32 633.17 Z" />
<path fill="#f5f4f0" d=" M 379.81 636.72 C 380.31 635.65 381.33 634.51 382.66 634.84 C 382.98 636.52 382.24 637.31 380.46 637.21 L 379.81 636.72 Z" />
<path fill="#030303" d=" M 313.83 637.16 C 319.78 635.72 325.93 636.43 331.97 635.91 C 336.87 635.98 341.88 635.29 346.67 636.62 C 346.33 637.31 345.65 638.68 345.30 639.37 C 336.87 639.34 328.44 639.17 320.01 639.46 C 309.38 640.55 298.79 642.68 288.06 642.40 C 281.35 642.33 274.62 642.64 267.92 642.26 C 265.68 642.28 264.57 640.73 265.71 638.72 C 272.15 638.45 278.57 639.60 285.03 639.27 C 294.69 639.78 304.26 638.27 313.83 637.16 Z" />
<path fill="#0a0a0a" d=" M 781.26 661.92 C 784.38 660.82 787.64 660.02 790.98 660.36 C 805.35 661.09 819.73 660.14 834.09 660.83 C 835.91 660.67 837.54 662.27 837.57 664.07 C 838.04 669.42 836.43 674.65 836.34 679.99 C 835.90 686.08 837.34 692.21 836.32 698.28 C 834.81 700.64 831.51 700.43 829.05 700.52 C 819.05 700.21 809.03 700.21 799.03 700.36 C 794.22 700.47 789.18 701.18 784.63 699.19 C 783.19 698.39 782.75 696.55 782.60 695.06 C 781.94 684.95 782.76 674.81 782.22 664.70 C 781.87 663.77 781.56 662.85 781.26 661.92 Z" />
<path fill="#f5f4f0" d=" M 784.43 663.41 C 801.10 660.62 818.19 661.40 834.89 663.56 C 836.58 670.64 834.74 677.88 834.55 685.02 C 834.41 689.12 833.88 693.19 833.66 697.30 C 828.56 698.80 823.23 698.45 818.03 699.15 C 812.88 699.35 807.68 699.55 802.58 698.66 L 802.41 699.42 C 797.28 698.07 791.76 699.12 786.78 697.05 C 784.86 696.71 784.91 694.37 784.48 692.91 C 782.79 683.17 783.44 673.19 784.43 663.41 Z" />
<path fill="#30ace1" d=" M 792.28 675.86 C 793.75 674.00 795.37 671.91 797.97 671.75 C 800.96 670.97 802.59 674.53 802.41 677.01 C 802.83 681.19 799.27 684.09 797.17 687.27 C 798.41 688.00 799.65 688.74 800.91 689.48 C 802.47 689.66 804.60 688.54 805.76 690.05 C 802.98 694.58 797.75 691.00 794.23 689.49 C 794.24 685.29 798.07 682.59 799.59 678.96 C 799.67 677.37 799.50 675.80 799.40 674.23 C 798.15 674.66 796.92 675.10 795.69 675.56 C 795.67 677.48 795.60 679.42 795.21 681.32 C 794.12 679.55 793.17 677.72 792.28 675.86 Z" />
<path fill="#35aee1" d=" M 812.51 672.49 C 815.89 672.00 819.32 671.69 822.74 672.09 C 822.63 672.67 822.41 673.82 822.30 674.40 C 819.66 674.36 817.02 674.33 814.39 674.32 C 814.21 676.54 814.00 678.75 813.79 680.98 C 816.55 680.56 819.93 678.32 822.30 680.80 C 824.32 683.16 824.00 686.74 823.48 689.61 C 821.66 693.40 816.61 693.69 812.93 693.48 C 810.88 692.80 811.26 690.67 811.57 689.05 C 812.70 689.88 813.83 690.72 814.96 691.59 C 817.12 691.06 819.74 691.11 821.30 689.25 C 822.30 686.84 821.27 684.29 820.42 682.02 C 817.48 682.75 814.55 683.59 811.52 683.69 C 812.01 679.97 812.49 676.24 812.51 672.49 Z" />
<path fill="#1a1a19" d=" M 783.89 705.78 C 795.56 704.54 807.42 706.17 819.13 704.93 C 823.23 704.66 827.38 704.21 831.48 704.77 C 835.70 706.05 837.67 710.48 840.62 713.42 C 842.66 716.11 846.19 717.90 846.77 721.49 C 845.89 721.42 844.13 721.27 843.25 721.19 C 842.75 721.44 841.74 721.92 841.24 722.17 C 836.51 721.51 831.74 721.66 827.03 722.30 C 816.72 722.74 806.38 722.71 796.06 722.76 C 790.73 723.03 785.39 723.56 780.05 723.21 C 777.63 722.90 774.50 721.83 774.29 718.98 C 773.45 713.98 779.25 712.21 781.95 709.12 C 782.80 708.95 784.50 708.61 785.35 708.44 C 783.82 713.03 776.63 713.85 776.91 719.41 C 782.31 721.73 788.26 721.51 794.01 721.62 C 804.33 721.66 814.70 722.05 824.97 720.71 C 831.10 720.53 837.13 718.90 843.30 719.42 C 839.44 715.70 836.62 710.85 832.08 707.89 C 826.14 706.97 820.02 706.49 814.01 707.17 C 803.28 707.64 792.48 706.63 781.84 708.36 C 782.35 707.71 783.38 706.42 783.89 705.78 Z" />
<path fill="#292928" d=" M 793.45 709.80 C 803.97 708.76 814.48 711.14 825.01 710.35 C 826.35 710.18 827.28 710.83 827.81 712.30 C 815.89 711.79 803.85 710.35 791.98 712.37 C 792.49 711.58 792.31 709.92 793.45 709.80 Z" />
<path fill="#141413" d=" M 793.62 714.45 C 796.23 714.28 798.88 714.17 801.50 714.47 C 803.35 714.77 805.20 715.16 807.07 715.50 C 804.14 715.47 801.21 715.64 798.33 716.10 C 796.82 716.29 795.32 716.37 793.83 716.46 C 793.78 715.96 793.67 714.96 793.62 714.45 Z" />
<path fill="#5f5f5d" d=" M 801.50 714.47 C 808.79 714.10 816.10 714.17 823.39 713.78 C 823.17 714.34 822.72 715.46 822.49 716.02 C 814.44 715.79 806.38 716.30 798.33 716.10 C 801.21 715.64 804.14 715.47 807.07 715.50 C 805.20 715.16 803.35 714.77 801.50 714.47 Z" />
<path fill="#151515" d=" M 785.63 767.04 C 786.41 767.52 787.19 768.01 787.98 768.51 C 792.46 768.74 796.94 768.66 801.42 768.59 C 801.13 768.91 800.53 769.53 800.23 769.84 L 799.98 770.11 C 795.67 770.34 791.35 770.44 787.11 771.24 C 783.30 780.91 783.31 791.34 783.19 801.56 C 786.98 802.79 791.00 802.66 794.95 802.75 C 806.18 802.82 817.44 802.35 828.61 801.19 C 828.64 798.72 828.68 796.25 828.78 793.80 C 829.30 793.63 830.33 793.30 830.84 793.13 C 831.00 796.13 831.21 799.14 831.27 802.16 C 830.34 803.59 828.56 803.70 827.05 803.92 C 822.02 804.64 816.99 803.33 811.96 803.80 C 802.99 804.76 793.96 804.15 784.96 804.34 C 782.91 804.68 780.33 803.38 780.61 801.02 C 781.82 792.70 782.30 784.26 784.14 776.03 C 784.64 774.06 784.64 772.05 784.14 770.10 C 784.62 769.07 785.11 768.05 785.63 767.04 Z" />
<path fill="#4b4a49" d=" M 801.42 768.59 C 810.14 766.87 819.14 768.18 827.95 767.19 C 829.67 766.89 832.32 767.20 832.52 769.41 C 832.93 773.22 832.06 777.05 831.96 780.87 L 830.15 781.05 C 830.16 777.75 830.41 774.44 829.98 771.17 C 830.09 769.53 828.08 769.51 826.96 769.37 C 818.05 768.73 809.13 769.47 800.23 769.84 C 800.53 769.53 801.13 768.91 801.42 768.59 Z" />
<path fill="#030303" d=" M 139.49 770.40 C 140.47 770.49 141.45 770.60 142.43 770.72 C 142.43 774.15 142.25 777.58 142.27 781.01 C 143.88 781.33 146.27 780.79 146.59 783.06 C 145.59 784.71 143.66 784.44 142.01 784.66 C 141.49 792.16 139.78 799.50 138.45 806.88 C 138.35 808.48 135.43 809.13 135.48 807.02 C 136.37 799.55 138.43 792.22 138.68 784.66 C 137.20 784.25 135.73 783.83 134.27 783.38 C 134.40 782.38 134.53 781.40 134.67 780.42 C 136.02 780.51 137.37 780.62 138.71 780.75 C 138.69 777.28 138.45 773.75 139.49 770.40 Z" />
<path fill="#24bd33" d=" M 794.65 777.09 C 796.95 776.60 799.34 776.81 801.69 776.73 C 801.64 777.64 801.59 778.57 801.55 779.51 C 798.86 779.42 796.17 779.23 793.48 779.35 C 793.35 778.31 793.35 777.23 794.65 777.09 Z" />
<path fill="#15b825" d=" M 810.34 778.24 C 812.95 778.46 815.57 778.69 818.20 778.83 C 818.55 779.37 819.25 780.43 819.59 780.96 C 818.41 782.36 817.20 783.73 815.96 785.07 C 818.86 786.03 821.67 788.57 820.59 791.96 C 818.85 795.66 814.08 796.12 810.51 796.77 C 810.43 796.21 810.27 795.08 810.20 794.51 C 812.73 793.81 815.59 793.63 817.69 791.88 C 817.77 790.78 817.81 789.68 817.83 788.60 C 815.44 788.14 813.04 787.69 810.67 787.20 C 811.19 784.27 814.11 783.19 816.24 781.62 C 814.34 781.15 812.46 780.70 810.57 780.26 C 810.51 779.75 810.40 778.74 810.34 778.24 Z" />
<path fill="#030303" d=" M 78.48 779.38 C 84.12 779.86 91.66 778.15 95.22 783.80 C 98.18 788.06 95.32 793.46 91.17 795.59 C 88.64 797.13 85.62 797.45 82.75 797.83 C 82.58 802.66 83.01 807.53 82.48 812.36 C 81.80 812.40 80.43 812.48 79.75 812.52 C 79.16 801.47 80.04 790.35 78.48 779.38 Z" />
<path fill="#1cba2c" d=" M 793.71 780.12 C 793.99 780.15 794.56 780.21 794.84 780.24 C 795.62 781.48 795.35 782.96 795.42 784.37 C 797.36 784.06 799.66 783.01 801.30 784.68 C 803.19 787.51 803.58 790.99 803.62 794.32 C 800.78 795.55 797.75 796.19 794.69 796.53 C 794.48 795.59 794.29 794.66 794.11 793.75 C 796.42 793.65 798.73 793.47 801.03 793.16 C 800.75 790.80 800.30 788.48 799.40 786.28 C 797.13 786.78 794.86 787.31 792.57 787.63 C 792.63 785.08 792.88 782.53 793.71 780.12 Z" />
<path fill="#494948" d=" M 829.95 781.20 L 831.93 780.97 C 830.82 787.99 831.36 795.08 831.27 802.16 C 831.21 799.14 831.00 796.13 830.84 793.13 C 830.33 793.30 829.30 793.63 828.78 793.80 C 829.47 789.63 829.90 785.42 829.95 781.20 Z" />
<path fill="#f5f4f0" d=" M 82.60 783.50 C 83.75 783.23 84.89 782.97 86.03 782.72 C 88.19 783.15 90.31 783.73 92.29 784.70 C 92.61 786.40 93.78 788.24 92.60 789.88 C 90.72 793.38 86.35 794.17 82.78 794.75 C 82.72 790.99 82.74 787.24 82.60 783.50 Z" />
<path fill="#030303" d=" M 121.87 786.49 C 122.49 786.54 123.74 786.65 124.36 786.70 C 124.58 789.74 122.59 792.37 122.07 795.31 C 124.91 794.95 127.75 794.54 130.60 794.31 C 130.63 795.29 130.66 796.29 130.67 797.30 C 127.76 798.12 124.75 798.50 121.73 798.74 C 121.04 802.32 120.71 806.07 119.13 809.41 C 118.49 809.39 117.22 809.34 116.58 809.31 C 116.20 805.60 119.61 801.24 116.47 798.15 C 116.43 797.76 116.34 796.97 116.30 796.58 C 116.87 796.29 118.02 795.71 118.59 795.42 C 119.28 792.32 119.81 789.02 121.87 786.49 Z" />
<path fill="#030303" d=" M 104.63 791.63 C 107.28 790.83 111.05 790.85 112.33 793.83 C 113.16 799.61 111.49 806.89 105.67 809.50 C 102.17 811.33 97.17 809.99 95.65 806.19 C 94.95 802.74 96.07 799.35 97.71 796.35 C 98.32 796.37 99.55 796.41 100.16 796.42 C 101.42 794.64 102.62 792.63 104.63 791.63 Z" />
<path fill="#030303" d=" M 152.16 792.27 C 154.20 791.05 156.59 791.70 158.69 792.36 C 158.56 793.29 158.44 794.24 158.31 795.19 C 156.34 795.25 154.37 795.35 152.42 795.56 C 152.33 797.01 152.28 798.48 152.29 799.95 C 155.05 801.54 160.17 803.14 158.29 807.32 C 154.89 812.32 147.52 813.30 142.16 811.35 C 142.28 810.40 142.41 809.46 142.54 808.54 C 147.11 809.17 152.16 809.18 155.76 805.85 C 153.31 804.16 150.20 802.99 148.78 800.20 C 147.93 797.20 149.18 793.51 152.16 792.27 Z" />
<path fill="#f5f4f0" d=" M 99.77 799.73 C 102.75 799.17 103.88 796.40 105.83 794.50 C 106.75 794.49 108.57 794.45 109.48 794.44 C 109.40 798.40 109.04 803.10 105.62 805.72 C 104.01 807.16 101.69 806.57 99.73 806.61 C 99.46 805.99 98.93 804.75 98.67 804.13 C 99.04 802.65 99.40 801.19 99.77 799.73 Z" />
<path fill="#050505" d=" M 809.05 808.65 C 814.73 808.39 820.38 807.56 826.08 807.66 C 828.97 811.26 831.26 815.29 833.88 819.10 C 835.00 820.95 836.49 822.79 836.46 825.09 C 834.05 827.66 830.17 827.46 826.93 827.68 C 818.74 827.65 810.52 827.95 802.35 827.30 C 805.39 825.96 808.78 826.75 811.99 826.62 C 819.26 826.47 826.89 827.25 833.70 824.15 C 830.96 819.54 828.76 814.48 825.08 810.53 C 816.70 810.12 808.39 811.95 800.01 811.43 C 796.24 811.25 792.48 811.54 788.74 811.82 C 785.76 816.61 781.46 820.52 779.30 825.85 C 787.71 825.83 796.18 825.30 804.53 826.54 C 802.44 826.75 800.34 826.65 798.26 826.59 L 798.73 827.40 C 791.59 826.84 784.60 828.94 777.48 828.52 C 777.29 826.69 776.75 824.63 778.01 823.07 C 780.56 819.43 783.25 815.88 786.11 812.48 C 784.24 812.16 781.74 812.93 780.71 810.73 C 790.00 808.65 799.68 810.30 809.05 808.65 Z" />
<path fill="#0c0c0c" d=" M 795.52 815.60 C 804.26 815.20 813.03 815.86 821.77 815.23 C 821.79 815.64 821.84 816.47 821.87 816.88 C 813.02 816.28 804.17 816.77 795.37 817.69 C 795.41 817.16 795.48 816.12 795.52 815.60 Z" />
<path fill="#313130" d=" M 796.65 819.77 C 804.62 819.98 812.67 820.18 820.48 818.31 C 820.50 818.89 820.52 820.04 820.54 820.61 C 815.37 820.39 810.31 821.56 805.17 821.74 C 801.78 821.83 798.26 822.71 795.04 821.31 C 795.44 820.92 796.25 820.15 796.65 819.77 Z" />
</svg>
