<?xml version="1.0" encoding="UTF-8" ?>
<!DOCTYPE svg PUBLIC "-//W3C//DTD SVG 1.1//EN" "http://www.w3.org/Graphics/SVG/1.1/DTD/svg11.dtd">
<svg width="1155pt" height="866pt" viewBox="0 0 1155 866" version="1.1" xmlns="http://www.w3.org/2000/svg">
<path fill="#f5f4f0" d=" M 0.00 0.00 L 1155.00 0.00 L 1155.00 866.00 L 0.00 866.00 L 0.00 0.00 Z" />
<path fill="#588689" d=" M 538.40 98.62 C 546.91 97.51 556.04 97.35 563.97 101.11 C 566.33 102.14 568.14 104.02 569.79 105.94 C 584.64 104.26 601.43 104.62 613.54 114.58 C 617.80 117.73 615.95 123.54 616.16 128.03 C 625.98 128.00 633.85 135.30 638.76 143.15 C 643.79 150.74 643.47 160.60 641.02 169.03 C 637.63 177.40 631.66 186.88 621.72 187.63 C 620.48 192.83 617.90 197.59 614.95 201.99 C 611.49 206.57 606.52 209.66 601.69 212.59 C 594.57 216.92 585.80 215.91 577.97 214.64 C 574.22 214.22 571.63 211.35 568.69 209.34 C 567.51 208.80 566.50 209.87 565.57 210.40 C 561.29 213.48 556.33 215.85 551.01 216.25 C 547.04 216.48 543.07 215.93 539.16 215.31 C 532.19 214.25 526.43 209.91 520.37 206.67 C 513.13 202.96 507.19 197.10 502.39 190.62 C 499.27 186.44 498.32 181.06 499.17 175.98 C 499.26 171.92 501.31 168.30 501.94 164.34 C 497.68 161.20 493.44 156.70 493.73 151.03 C 494.50 139.44 497.61 126.66 507.42 119.36 C 509.75 116.99 513.15 116.75 516.28 116.54 C 517.75 112.63 519.47 108.58 522.93 106.01 C 527.52 102.59 532.57 99.27 538.40 98.62 Z" />
<path fill="#f5f4f0" d=" M 524.40 108.37 C 529.14 104.57 534.71 101.36 540.93 101.07 C 550.66 100.05 562.61 100.65 568.91 109.31 C 581.18 106.66 594.66 107.30 606.01 112.95 C 608.92 115.01 613.79 116.71 613.48 121.00 C 613.66 124.19 612.18 127.38 613.26 130.52 C 617.68 130.90 622.44 131.03 626.20 133.71 C 632.41 138.13 637.67 144.41 639.58 151.91 C 640.00 157.84 640.35 164.20 637.74 169.73 C 635.60 174.53 632.52 179.07 628.34 182.32 C 625.94 184.26 622.72 184.11 619.87 184.79 C 618.43 186.76 618.67 189.44 617.59 191.60 C 615.25 196.58 612.66 201.75 608.07 205.04 C 602.80 208.91 596.97 213.27 590.06 212.81 C 584.08 212.62 577.10 213.02 572.49 208.48 C 570.84 206.69 568.03 204.99 565.80 206.89 C 560.46 211.05 553.94 214.31 546.97 213.53 C 538.62 213.91 531.02 210.11 524.16 205.79 C 516.03 201.78 508.99 195.62 504.04 188.03 C 500.93 183.50 501.42 177.72 502.61 172.64 C 503.43 169.39 505.80 166.09 504.43 162.65 C 500.73 159.76 496.09 156.29 496.53 151.00 C 497.08 140.37 500.06 128.58 508.95 121.83 C 511.41 119.41 515.04 119.70 518.20 119.32 C 519.95 115.53 520.97 111.08 524.40 108.37 Z" />
<path fill="#f6b228" d=" M 532.10 117.13 C 536.58 115.11 542.31 114.58 546.54 117.47 C 549.71 119.69 549.18 124.54 547.24 127.41 C 547.04 127.52 546.65 127.74 546.46 127.85 C 546.02 127.40 545.14 126.51 544.71 126.06 C 545.20 124.07 546.77 121.01 544.40 119.63 C 539.90 116.96 534.42 118.88 530.24 121.26 C 524.08 124.06 522.16 133.34 526.61 138.37 C 530.17 141.15 534.98 140.39 539.19 140.60 C 539.42 141.26 539.88 142.58 540.11 143.23 C 534.87 143.95 528.81 144.02 524.53 140.45 C 520.79 136.67 520.73 130.77 522.43 126.03 C 523.66 121.50 528.07 118.90 532.10 117.13 Z" />
<path fill="#dd4e0c" d=" M 547.24 127.41 C 550.96 125.41 554.80 123.34 559.02 122.65 C 560.79 122.17 562.48 123.34 562.98 125.04 C 564.38 128.65 567.12 131.52 568.60 135.07 C 569.78 138.95 566.01 141.58 563.44 143.70 C 563.09 143.74 562.38 143.84 562.03 143.89 C 560.15 143.65 558.85 145.20 559.06 147.00 L 558.72 147.46 C 556.69 150.43 554.15 153.05 550.96 154.76 C 548.64 152.92 546.96 150.45 545.79 147.75 C 547.10 145.84 545.20 144.35 543.49 143.87 C 541.30 142.30 540.28 139.56 538.51 137.55 C 537.23 135.64 534.02 133.22 537.00 131.20 C 542.95 136.87 546.35 144.61 551.22 151.15 C 553.05 149.67 554.61 147.93 556.15 146.16 C 558.95 142.95 562.89 140.94 565.56 137.60 C 566.32 136.19 565.22 134.76 564.52 133.60 C 562.79 131.07 561.21 128.44 560.02 125.62 C 552.99 126.52 547.29 131.13 540.93 133.84 L 539.78 133.44 L 539.30 132.00 C 541.30 130.06 544.09 129.27 546.46 127.85 C 546.65 127.74 547.04 127.52 547.24 127.41 Z" />
<path fill="#dd4e0c" d=" M 745.00 135.44 C 753.70 135.34 762.35 134.16 771.06 134.41 C 785.42 134.59 799.88 133.76 814.14 135.89 C 827.13 138.56 839.10 144.75 850.26 151.74 C 856.54 154.79 862.02 159.18 867.37 163.62 C 873.52 169.42 878.58 176.32 883.07 183.46 C 885.93 183.39 888.80 183.25 891.68 183.31 C 892.31 189.15 891.00 195.29 887.00 199.69 C 885.43 199.74 883.55 199.90 882.40 198.63 C 879.95 196.07 878.18 192.94 875.72 190.39 C 874.33 188.63 871.85 187.24 872.38 184.65 C 874.89 184.44 877.39 184.06 879.87 183.55 C 874.25 175.56 868.55 167.32 860.42 161.66 C 854.88 156.85 848.06 154.01 842.03 149.93 C 830.31 143.46 817.64 137.84 804.03 137.54 C 784.70 137.02 765.31 136.68 746.02 138.33 C 737.85 138.35 729.90 140.43 721.98 142.19 C 711.96 143.75 702.18 146.55 692.52 149.53 C 685.30 153.33 677.38 155.53 670.09 159.18 C 667.90 160.21 665.79 161.59 663.30 161.71 C 663.46 160.58 663.05 158.96 664.52 158.54 C 671.05 155.14 677.97 152.61 684.81 149.91 C 694.86 144.77 706.04 142.59 716.95 140.04 C 726.34 138.73 735.46 135.58 745.00 135.44 Z" />
<path fill="#14b825" d=" M 563.44 143.70 C 567.61 143.24 571.74 142.19 575.96 142.25 C 576.42 142.64 577.35 143.41 577.81 143.80 C 576.52 146.11 574.92 148.22 573.06 150.10 C 572.07 149.91 571.10 149.70 570.14 149.49 C 571.04 148.07 572.04 146.70 573.04 145.35 C 568.16 145.39 563.58 147.75 558.72 147.46 L 559.06 147.00 C 560.42 146.43 561.99 145.58 562.03 143.89 C 562.38 143.84 563.09 143.74 563.44 143.70 Z" />
<path fill="#596315" d=" M 543.49 143.87 C 545.20 144.35 547.10 145.84 545.79 147.75 L 545.31 147.82 C 544.46 146.74 543.78 145.54 543.28 144.28 L 543.49 143.87 Z" />
<path fill="#4d5b0b" d=" M 559.06 147.00 C 558.85 145.20 560.15 143.65 562.03 143.89 C 561.99 145.58 560.42 146.43 559.06 147.00 Z" />
<path fill="#13b824" d=" M 535.68 144.72 C 538.20 144.50 540.74 144.37 543.28 144.28 C 543.78 145.54 544.46 146.74 545.31 147.82 C 543.25 147.57 541.19 147.44 539.14 147.40 C 539.85 149.65 540.93 151.75 542.25 153.70 C 543.88 156.17 544.60 159.15 546.49 161.45 C 550.21 165.97 553.70 170.66 557.48 175.13 C 558.80 172.23 558.05 166.37 562.71 167.19 C 562.07 170.49 561.01 173.68 560.41 176.99 C 560.37 178.66 559.07 179.78 558.03 180.89 C 555.56 178.00 553.64 174.70 551.05 171.91 C 549.90 170.45 548.38 169.05 548.08 167.14 C 548.30 165.47 547.17 163.74 545.33 164.30 L 544.83 164.33 C 542.51 161.12 541.21 157.34 539.07 154.04 C 537.28 151.23 535.74 148.11 535.68 144.72 Z" />
<path fill="#dd4e0c" d=" M 585.57 151.88 C 588.01 149.93 590.61 147.51 593.89 147.35 C 595.27 147.09 595.73 148.75 596.46 149.58 C 598.05 152.00 599.40 154.57 600.89 157.06 C 602.47 159.73 605.17 161.41 607.44 163.43 C 607.50 164.06 607.63 165.32 607.69 165.95 C 605.22 170.86 600.50 174.01 597.73 178.70 C 596.71 180.78 594.31 182.99 592.03 181.12 C 589.30 178.94 585.22 176.92 584.96 173.04 C 589.01 172.80 590.78 177.18 593.98 178.90 C 596.78 173.66 601.78 170.17 604.81 165.11 C 599.18 161.63 596.91 155.36 593.18 150.26 C 591.39 151.34 589.61 152.41 587.83 153.49 C 587.26 153.09 586.13 152.28 585.57 151.88 Z" />
<path fill="#f6b228" d=" M 561.86 163.02 C 561.41 157.65 564.28 150.35 570.14 149.49 C 571.10 149.70 572.07 149.91 573.06 150.10 C 577.22 150.60 581.78 149.60 585.57 151.88 C 586.13 152.28 587.26 153.09 587.83 153.49 C 593.44 160.64 589.10 172.67 580.63 175.34 C 572.61 176.76 562.72 171.80 561.86 163.02 Z" />
<path fill="#f5f4f0" d=" M 565.29 164.90 C 563.50 160.34 565.80 154.92 569.81 152.33 C 575.03 154.28 581.92 151.31 585.97 156.06 C 589.80 161.77 585.96 170.47 579.66 172.57 C 574.07 173.21 567.16 170.68 565.29 164.90 Z" />
<path fill="#dd500e" d=" M 529.03 165.33 C 534.18 163.88 539.57 164.76 544.83 164.33 L 545.33 164.30 C 545.73 165.49 546.35 166.68 547.47 167.36 C 542.73 167.38 538.00 167.36 533.27 167.52 C 533.68 174.13 532.91 180.85 534.45 187.35 C 543.96 189.30 553.67 190.19 563.36 189.11 C 563.73 183.62 563.38 178.11 563.47 172.62 C 563.88 172.26 564.69 171.53 565.10 171.17 C 567.13 173.65 566.34 177.01 566.50 179.96 C 566.29 183.83 567.15 187.93 565.44 191.58 C 554.63 193.35 543.57 192.36 532.95 189.98 C 531.24 189.43 531.29 187.53 531.12 186.08 C 529.99 179.18 531.32 172.04 529.03 165.33 Z" />
<path fill="#356c11" d=" M 545.33 164.30 C 547.17 163.74 548.30 165.47 548.08 167.14 L 547.47 167.36 C 546.35 166.68 545.73 165.49 545.33 164.30 Z" />
<path fill="#dd4e0c" d=" M 466.52 173.39 C 466.64 171.59 466.35 169.45 468.03 168.26 C 473.34 167.67 477.04 172.50 482.17 172.70 C 482.57 173.28 483.36 174.44 483.75 175.02 C 479.51 179.58 474.84 184.32 468.85 186.47 C 468.05 183.56 467.46 180.60 467.17 177.60 C 450.18 178.80 433.73 183.75 417.88 189.76 C 399.54 197.99 381.85 208.19 367.06 221.95 C 361.05 228.05 354.73 234.02 350.28 241.40 C 349.14 243.23 348.60 245.33 348.21 247.43 C 347.54 247.59 346.21 247.92 345.54 248.08 C 345.15 245.62 345.75 243.14 347.02 241.02 C 351.99 232.60 359.25 225.93 366.15 219.14 C 378.94 208.14 393.13 198.83 407.99 190.87 C 415.14 186.56 423.08 183.84 430.94 181.13 C 442.45 177.17 454.37 174.40 466.52 173.39 Z" />
<path fill="#4a5153" d=" M 852.57 202.92 C 854.57 201.15 857.55 201.98 860.00 201.79 C 877.44 201.71 894.87 202.42 912.28 201.52 C 914.47 212.23 912.82 223.24 914.34 234.02 C 914.79 236.86 913.96 239.64 913.13 242.33 C 904.09 243.26 895.03 243.86 885.94 243.69 C 876.31 244.81 866.60 244.27 856.97 245.17 C 855.60 245.19 853.33 244.77 853.57 242.96 C 853.18 229.62 854.16 216.19 852.57 202.92 Z" />
<path fill="#f5f4f0" d=" M 856.28 204.91 C 874.06 204.53 891.86 205.10 909.65 204.58 C 911.32 213.24 910.18 222.14 911.09 230.88 C 911.33 233.78 911.40 236.69 911.48 239.59 C 902.71 240.83 893.86 240.75 885.03 240.93 C 875.55 242.05 865.96 241.04 856.50 242.35 C 856.28 229.87 856.54 217.38 856.28 204.91 Z" />
<path fill="#dd4e0c" d=" M 860.50 212.13 C 859.60 208.57 863.32 209.71 865.19 210.72 C 871.78 213.88 877.68 218.28 884.23 221.52 C 890.16 218.92 894.63 213.98 900.52 211.26 C 901.81 210.25 905.33 209.25 904.66 212.25 C 902.66 213.88 900.22 214.81 898.02 216.12 C 894.36 218.14 891.44 221.23 887.74 223.17 C 892.51 228.13 899.66 229.31 905.54 232.49 C 907.09 232.97 906.64 234.83 906.96 236.04 C 902.47 234.89 898.47 232.38 894.12 230.81 C 890.50 229.55 887.74 226.49 884.19 225.31 C 879.97 227.16 876.93 230.89 872.70 232.76 C 868.79 234.44 865.84 237.65 862.03 239.48 L 860.85 239.11 C 860.78 238.59 860.63 237.54 860.55 237.01 C 867.02 232.01 874.69 228.89 880.91 223.55 C 879.16 221.45 876.17 220.78 874.00 219.14 C 869.77 216.29 865.24 213.98 860.50 212.13 Z" />
<path fill="#575755" d=" M 176.62 253.59 C 177.35 252.88 178.09 252.17 178.84 251.47 C 179.11 252.12 179.67 253.42 179.95 254.07 C 183.92 254.79 188.25 253.51 191.82 255.92 C 187.65 256.15 183.49 256.12 179.31 256.17 C 178.36 267.77 178.90 279.42 178.67 291.04 C 178.45 298.06 177.29 305.01 176.78 312.01 C 176.30 322.68 176.67 333.35 176.31 344.02 C 175.77 359.92 175.92 375.84 176.01 391.72 C 174.96 395.08 174.74 398.61 175.02 402.11 C 176.92 401.91 178.82 401.74 180.72 401.51 C 180.04 401.96 179.35 402.41 178.66 402.86 C 177.43 402.77 176.21 402.70 174.99 402.66 C 172.87 400.65 174.01 397.63 173.91 395.08 C 175.17 375.73 173.67 356.32 174.88 336.99 C 175.43 325.30 174.65 313.54 176.33 301.93 C 176.85 296.97 177.45 292.01 177.29 287.02 C 177.13 276.84 177.68 266.64 176.92 256.48 C 175.67 255.98 174.32 255.55 173.73 254.23 C 174.45 254.07 175.90 253.75 176.62 253.59 Z" />
<path fill="#161616" d=" M 337.01 255.00 C 343.11 253.40 349.64 253.59 355.94 253.85 C 364.62 255.24 373.32 256.63 382.14 256.74 C 385.39 256.94 385.94 260.35 385.69 262.95 C 385.39 281.60 387.13 300.50 383.78 318.93 C 383.37 323.24 383.84 327.65 382.85 331.89 C 382.18 338.97 380.87 345.98 380.50 353.08 C 379.54 364.41 377.49 375.67 377.56 387.07 C 377.22 392.05 376.79 397.03 376.32 402.00 C 376.04 404.75 376.45 407.69 375.13 410.24 C 372.49 411.18 372.55 409.08 372.66 407.13 C 355.35 407.44 338.04 407.63 320.74 407.25 C 321.09 406.78 321.79 405.85 322.14 405.38 C 337.10 405.01 352.12 405.95 367.04 404.51 C 369.16 404.50 371.24 404.04 373.19 403.18 C 376.45 387.99 375.53 372.23 379.21 357.13 C 379.75 345.35 382.43 333.77 382.67 321.98 C 384.46 308.08 385.84 294.03 384.88 280.00 C 384.48 273.27 385.68 265.89 382.10 259.80 C 377.47 259.27 372.77 259.43 368.17 258.61 C 363.15 257.59 358.13 256.56 353.04 255.96 C 347.70 255.58 342.32 255.75 337.01 255.00 Z" />
<path fill="#111111" d=" M 957.01 260.49 C 970.89 261.01 984.34 256.58 998.20 256.64 C 999.47 257.30 999.85 258.71 1000.06 260.03 C 999.30 275.66 1000.02 291.33 999.24 306.97 C 998.65 315.64 998.62 324.33 998.70 333.01 C 998.62 337.63 999.63 342.22 999.08 346.83 C 997.91 355.42 998.58 364.12 998.02 372.75 C 997.04 383.31 996.32 393.87 995.20 404.41 C 993.52 413.82 994.00 423.44 993.40 432.94 C 993.28 435.71 990.33 436.66 988.08 437.18 C 985.35 437.68 982.60 438.06 979.84 438.24 C 964.25 438.29 948.65 438.76 933.06 438.47 C 929.61 438.05 926.14 438.07 922.68 438.21 C 939.74 436.76 956.93 438.59 973.94 436.58 C 979.47 436.17 985.25 435.67 990.34 433.27 C 990.89 412.40 995.60 391.91 996.42 371.06 C 996.41 367.34 997.44 363.72 997.39 360.01 C 997.38 340.68 997.98 321.37 998.47 302.05 C 998.27 293.07 999.49 284.10 998.82 275.13 C 998.69 269.92 998.87 264.63 997.49 259.55 C 980.95 259.12 964.61 264.21 948.05 262.01 C 937.17 261.13 926.24 262.19 915.35 262.26 C 914.66 262.04 913.27 261.61 912.58 261.39 C 927.40 261.32 942.20 260.72 957.01 260.49 Z" />
<path fill="#5e5e5c" d=" M 884.02 262.15 C 893.50 261.19 903.08 261.02 912.58 261.39 C 913.27 261.61 914.66 262.04 915.35 262.26 C 906.64 263.45 897.77 262.64 889.01 263.26 C 877.00 264.44 864.85 263.38 852.90 265.23 C 834.86 266.79 816.72 266.92 798.63 266.56 C 799.06 266.28 799.93 265.71 800.37 265.42 C 810.12 264.71 820.09 265.69 829.91 264.90 C 839.64 264.86 849.33 264.14 858.99 263.02 C 867.31 262.33 875.69 262.77 884.02 262.15 Z" />
<path fill="#161616" d=" M 786.63 264.80 C 791.22 264.37 795.77 265.46 800.37 265.42 C 799.93 265.71 799.06 266.28 798.63 266.56 C 794.64 266.55 790.68 267.37 786.70 267.11 C 786.68 266.54 786.65 265.38 786.63 264.80 Z" />
<path fill="#0f0f0f" d=" M 783.68 277.90 C 784.05 274.39 783.54 270.36 785.90 267.44 C 789.09 266.78 787.20 270.42 787.30 271.94 C 786.12 278.25 786.80 284.72 785.61 291.03 C 783.23 305.01 782.21 319.16 781.60 333.32 C 781.41 330.12 781.73 326.92 781.55 323.73 C 781.01 317.74 782.26 311.83 782.64 305.89 C 784.03 296.64 783.56 287.23 783.68 277.90 Z" />
<path fill="#222221" d=" M 188.72 273.52 C 198.71 271.56 208.91 273.60 218.97 272.89 C 224.70 272.89 230.52 272.23 236.15 273.64 C 245.93 275.76 256.00 274.16 265.87 275.36 C 273.24 276.05 280.71 274.98 288.03 276.31 C 299.30 278.06 310.67 276.35 322.00 276.84 C 330.21 277.27 338.42 277.33 346.63 277.29 L 347.15 279.20 C 326.12 278.79 304.95 280.79 284.05 277.68 C 276.39 276.93 268.66 277.68 260.99 277.09 C 254.66 276.52 248.28 277.03 241.98 276.15 C 236.97 275.59 232.00 274.56 226.95 274.60 C 214.87 274.46 202.73 274.07 190.74 275.79 C 190.19 287.32 190.49 298.87 190.29 310.40 L 189.56 311.68 C 188.89 302.16 189.74 292.59 189.04 283.08 C 188.78 279.89 188.70 276.70 188.72 273.52 Z" />
<path fill="#000000" d=" M 371.70 273.16 C 372.29 273.25 373.47 273.43 374.06 273.52 C 374.26 275.59 376.19 276.15 377.76 276.92 C 377.21 278.33 375.81 278.92 374.63 279.67 C 374.09 295.11 375.33 310.68 372.64 325.96 C 371.66 334.40 372.74 342.95 371.60 351.38 C 371.24 350.14 370.87 348.91 370.51 347.68 C 370.75 340.44 371.42 333.23 371.34 325.98 C 373.31 310.50 371.78 294.87 371.79 279.33 C 363.58 279.83 355.36 279.09 347.15 279.20 L 346.63 277.29 C 355.00 277.29 363.36 276.94 371.72 276.51 C 371.71 275.67 371.71 274.00 371.70 273.16 Z" />
<path fill="#f5f4f0" d=" M 190.74 275.79 C 202.73 274.07 214.87 274.46 226.95 274.60 C 232.00 274.56 236.97 275.59 241.98 276.15 C 248.28 277.03 254.66 276.52 260.99 277.09 C 268.66 277.68 276.39 276.93 284.05 277.68 C 304.95 280.79 326.12 278.79 347.15 279.20 C 355.36 279.09 363.58 279.83 371.79 279.33 C 371.78 294.87 373.31 310.50 371.34 325.98 C 371.42 333.23 370.75 340.44 370.51 347.68 C 370.37 361.44 369.23 375.17 367.08 388.77 C 366.52 390.61 365.83 392.41 365.14 394.21 C 354.09 394.33 342.98 395.04 331.99 393.58 C 319.35 392.74 306.67 393.42 294.01 393.23 C 283.01 392.96 271.99 393.77 261.00 392.97 C 245.75 390.96 230.32 391.99 214.99 392.15 C 208.25 391.51 201.22 392.44 194.74 390.07 C 193.45 389.72 192.62 388.47 192.80 387.14 C 192.49 373.68 192.96 360.15 191.25 346.77 C 190.79 334.65 190.57 322.53 190.29 310.40 C 190.49 298.87 190.19 287.32 190.74 275.79 Z" />
<path fill="#141414" d=" M 946.91 282.35 C 954.86 280.82 962.97 280.42 971.05 280.66 C 972.94 280.40 973.94 282.31 974.09 283.90 C 974.27 286.83 973.76 289.75 973.56 292.67 C 972.73 299.08 973.16 305.55 973.14 311.99 C 973.21 325.34 972.98 338.68 973.15 352.03 C 973.17 354.81 972.87 357.58 972.52 360.33 C 972.25 339.90 972.69 319.46 972.52 299.03 C 972.55 293.96 972.34 288.87 971.29 283.91 C 966.94 283.18 962.45 283.77 958.06 283.43 C 951.16 282.89 944.44 285.10 937.55 284.81 C 934.19 284.63 930.86 284.22 927.54 283.88 C 934.00 283.40 940.45 282.77 946.91 282.35 Z" />
<path fill="#252525" d=" M 880.96 285.24 C 896.50 285.37 912.00 283.39 927.54 283.88 C 930.86 284.22 934.19 284.63 937.55 284.81 C 921.80 286.97 905.88 284.80 890.08 286.08 C 885.69 286.34 881.29 286.14 876.92 286.51 C 862.94 287.84 848.88 287.22 834.86 287.84 C 823.30 289.33 811.63 291.02 799.95 290.17 C 799.68 289.58 799.14 288.40 798.87 287.81 C 803.61 287.43 808.31 288.53 813.06 288.37 C 821.44 288.60 829.72 287.13 838.06 286.62 C 852.38 286.69 866.65 285.56 880.96 285.24 Z" />
<path fill="#dd4e0c" d=" M 213.64 292.48 C 221.38 293.86 229.25 292.96 237.07 293.31 C 238.29 293.32 239.41 293.86 240.55 294.25 C 240.77 301.18 240.51 308.10 240.33 315.02 C 240.30 316.24 239.85 317.38 239.54 318.54 C 235.77 319.53 231.88 319.75 228.00 319.70 C 223.26 319.60 218.73 321.38 214.00 321.37 C 213.67 320.82 213.01 319.72 212.68 319.17 C 214.65 310.42 213.62 301.36 213.64 292.48 Z" />
<path fill="#000000" d=" M 973.14 311.99 C 973.16 305.55 972.73 299.08 973.56 292.67 C 973.35 314.45 973.78 336.23 973.60 358.00 C 974.12 365.32 974.70 372.64 974.38 379.99 C 974.01 386.97 974.95 393.98 974.09 400.94 C 973.46 406.13 974.19 411.37 973.64 416.56 C 972.93 418.83 970.44 420.08 968.21 420.37 C 957.19 421.47 946.20 422.89 935.24 424.30 L 934.98 423.89 L 935.08 423.47 C 936.10 423.38 937.14 423.31 938.21 423.25 C 943.14 422.22 948.21 421.82 953.22 421.22 C 958.77 419.13 965.18 419.48 970.37 416.59 C 972.29 412.10 970.69 406.84 971.25 402.04 C 972.59 388.17 970.99 374.19 972.52 360.33 C 972.87 357.58 973.17 354.81 973.15 352.03 C 972.98 338.68 973.21 325.34 973.14 311.99 Z" />
<path fill="#dd4e0c" d=" M 270.37 294.54 C 278.13 294.38 285.90 294.06 293.66 294.49 C 295.32 294.71 297.64 295.00 298.08 296.97 C 298.56 303.66 297.92 310.36 297.48 317.05 C 297.49 318.24 297.02 319.36 296.24 320.26 C 288.52 321.29 280.70 321.17 272.93 321.62 C 271.42 321.55 269.44 321.91 268.66 320.24 C 269.78 312.85 269.01 305.37 269.19 297.93 C 269.09 296.67 269.84 295.61 270.37 294.54 Z" />
<path fill="#080807" d=" M 805.51 295.74 C 805.99 295.69 806.95 295.60 807.43 295.55 C 808.01 296.95 808.66 298.43 808.21 299.99 C 807.12 305.28 806.34 310.63 805.77 316.00 C 805.38 320.76 805.83 325.62 804.67 330.30 C 803.31 332.13 803.28 334.64 804.03 336.74 C 805.10 339.69 804.42 342.89 804.41 345.95 C 802.67 349.16 803.48 352.88 803.49 356.36 C 802.93 361.34 802.34 366.34 801.60 371.31 C 801.56 370.46 801.51 369.61 801.46 368.77 C 801.29 366.47 801.50 364.18 801.80 361.90 C 802.55 360.00 802.50 357.95 802.64 355.95 C 802.86 348.63 804.32 341.35 803.51 334.02 C 804.28 327.36 803.44 320.67 803.73 314.00 C 804.55 307.94 805.45 301.87 805.51 295.74 Z" />
<path fill="#f5f4f0" d=" M 216.73 296.29 C 223.70 296.11 230.68 296.24 237.67 296.28 C 237.84 302.76 237.46 309.24 237.36 315.72 C 234.05 317.03 230.47 316.55 227.01 316.74 C 223.38 316.91 219.82 317.68 216.31 318.56 C 216.68 311.14 216.89 303.72 216.73 296.29 Z" />
<path fill="#dd4e0c" d=" M 326.88 296.64 C 332.55 295.99 338.28 296.38 343.98 296.24 C 346.36 296.30 348.86 295.99 351.15 296.85 C 353.50 302.55 352.45 308.95 352.70 314.97 C 352.38 316.68 353.31 319.27 351.41 320.27 C 345.03 322.02 338.33 320.96 331.90 322.34 C 329.20 322.90 326.44 322.90 323.71 322.65 C 321.80 315.12 323.03 307.28 322.47 299.62 C 323.85 298.54 324.98 296.76 326.88 296.64 Z" />
<path fill="#f5f4f0" d=" M 272.21 297.43 C 279.90 297.26 287.61 297.02 295.27 297.70 C 295.58 304.32 295.00 310.90 294.45 317.48 C 287.04 318.34 279.58 318.31 272.14 318.76 C 272.16 311.65 272.15 304.54 272.21 297.43 Z" />
<path fill="#f5f4f0" d=" M 325.65 299.74 C 333.45 298.75 341.34 299.18 349.17 299.33 C 350.16 305.36 349.75 311.49 349.76 317.58 C 346.21 318.35 342.60 318.70 338.97 318.66 C 334.86 318.61 330.87 319.72 326.80 320.14 C 326.56 319.92 326.06 319.46 325.81 319.23 C 325.25 312.75 325.64 306.23 325.65 299.74 Z" />
<path fill="#dd4e0c" d=" M 933.00 308.21 C 939.46 307.89 945.90 306.30 952.39 306.95 C 955.90 307.33 955.22 311.51 955.29 314.04 C 954.97 320.23 955.98 326.54 954.58 332.64 C 947.46 334.03 940.18 333.22 932.99 333.43 C 931.13 333.41 928.07 333.53 927.96 331.00 C 927.81 324.99 927.49 318.98 927.56 312.97 C 927.19 310.06 930.36 308.03 933.00 308.21 Z" />
<path fill="#dd4e0c" d=" M 878.60 309.74 C 887.49 308.73 896.34 307.44 905.22 306.34 C 906.26 308.02 907.46 309.75 907.47 311.83 C 908.00 318.75 907.80 325.70 907.63 332.63 C 897.86 334.74 887.65 335.32 877.71 334.30 C 878.14 326.12 876.74 317.77 878.60 309.74 Z" />
<path fill="#dd4e0c" d=" M 828.30 309.37 C 832.72 307.87 837.45 308.42 842.02 307.85 C 846.88 307.79 851.86 307.22 856.63 308.50 C 856.94 316.17 856.80 323.86 856.36 331.52 C 856.34 332.88 855.33 333.94 853.98 334.02 C 844.76 335.20 835.35 336.02 826.12 334.74 C 826.36 329.49 827.62 324.32 827.54 319.04 C 827.51 315.80 827.47 312.53 828.30 309.37 Z" />
<path fill="#f5f4f0" d=" M 880.99 312.41 C 888.68 311.08 896.49 310.66 904.21 309.46 C 905.66 316.32 904.84 323.29 904.83 330.23 C 896.84 331.87 888.68 331.97 880.56 331.74 C 880.76 325.30 880.31 318.83 880.99 312.41 Z" />
<path fill="#f5f4f0" d=" M 930.69 311.36 C 937.89 310.78 945.07 309.50 952.31 309.81 C 952.52 316.61 952.40 323.42 952.32 330.23 C 945.15 330.66 937.96 330.52 930.78 330.33 C 930.80 324.00 930.35 317.68 930.69 311.36 Z" />
<path fill="#000000" d=" M 189.56 311.68 L 190.29 310.40 C 190.57 322.53 190.79 334.65 191.25 346.77 C 192.96 360.15 192.49 373.68 192.80 387.14 C 192.62 388.47 193.45 389.72 194.74 390.07 C 201.22 392.44 208.25 391.51 214.99 392.15 C 230.32 391.99 245.75 390.96 261.00 392.97 C 271.99 393.77 283.01 392.96 294.01 393.23 C 306.67 393.42 319.35 392.74 331.99 393.58 C 342.98 395.04 354.09 394.33 365.14 394.21 C 365.83 392.41 366.52 390.61 367.08 388.77 C 367.44 389.21 368.17 390.10 368.53 390.55 C 368.37 392.44 367.69 394.24 367.15 396.05 C 366.60 396.35 365.50 396.95 364.95 397.24 C 355.99 397.34 347.02 397.25 338.08 396.49 C 333.43 395.81 328.76 395.11 324.05 395.17 C 311.04 395.21 298.03 395.05 285.02 395.19 C 273.73 394.25 262.35 395.53 251.10 393.92 C 237.42 394.23 223.72 393.57 210.03 393.78 C 203.53 393.71 196.63 394.22 190.66 391.13 C 189.37 387.84 190.30 384.34 190.19 380.93 C 190.06 371.63 190.74 362.31 190.17 353.02 C 189.00 345.05 189.77 336.98 189.53 328.96 C 189.62 323.21 188.83 317.37 189.56 311.68 Z" />
<path fill="#f5f4f0" d=" M 830.65 313.99 C 830.83 313.08 830.38 311.01 832.03 311.36 C 839.25 310.61 846.52 310.65 853.78 310.82 C 853.95 317.63 853.75 324.43 853.36 331.23 C 845.39 332.39 837.35 332.59 829.31 332.36 C 829.97 326.25 830.74 320.15 830.65 313.99 Z" />
<path fill="#575655" d=" M 780.86 322.95 L 781.55 323.73 C 781.73 326.92 781.41 330.12 781.60 333.32 C 781.22 359.87 781.25 386.45 781.65 413.01 C 781.54 417.13 782.62 421.25 782.21 425.34 C 782.08 425.70 781.81 426.41 781.67 426.77 C 779.87 420.32 780.58 413.53 779.97 406.93 C 779.79 386.30 779.86 365.66 779.86 345.02 C 780.40 337.67 780.24 330.29 780.86 322.95 Z" />
<path fill="#f6b228" d=" M 247.23 330.34 C 252.62 329.70 258.45 330.59 262.52 334.47 C 266.03 337.17 265.80 342.05 265.24 345.99 C 262.94 353.29 254.23 358.91 246.79 355.38 C 242.45 352.56 239.37 347.30 240.12 342.00 C 239.68 337.02 243.14 332.71 247.23 330.34 Z" />
<path fill="#f6b228" d=" M 307.42 330.54 C 312.13 329.62 317.22 330.92 320.60 334.41 C 323.84 336.96 322.66 341.51 322.76 345.07 C 323.07 348.76 320.24 351.51 317.58 353.58 C 314.18 356.33 309.26 355.86 305.45 354.33 C 299.55 351.19 298.57 343.33 300.28 337.49 C 301.90 334.58 304.64 332.26 307.42 330.54 Z" />
<path fill="#f5f4f0" d=" M 249.46 333.65 C 254.04 332.33 259.10 334.45 261.91 338.16 C 265.30 345.56 257.99 354.91 249.99 353.34 C 241.22 351.18 239.81 335.63 249.46 333.65 Z" />
<path fill="#f5f4f0" d=" M 309.61 333.29 C 313.36 332.94 317.19 334.41 319.43 337.50 C 320.59 340.63 320.32 344.19 319.40 347.35 C 317.38 351.01 313.24 353.62 308.98 352.34 C 303.26 351.60 301.76 344.83 302.70 340.03 C 302.86 336.11 307.67 335.98 309.61 333.29 Z" />
<path fill="#8f8f8c" d=" M 803.49 356.36 C 803.48 352.88 802.67 349.16 804.41 345.95 C 804.99 349.43 804.56 353.02 803.49 356.36 Z" />
<path fill="#292928" d=" M 367.08 388.77 C 369.23 375.17 370.37 361.44 370.51 347.68 C 370.87 348.91 371.24 350.14 371.60 351.38 C 371.77 361.29 371.52 371.31 369.60 381.07 C 369.16 384.22 369.36 387.45 368.53 390.55 C 368.17 390.10 367.44 389.21 367.08 388.77 Z" />
<path fill="#13b824" d=" M 279.88 349.49 C 280.69 349.50 281.51 349.51 282.33 349.53 C 284.39 359.40 283.93 369.94 288.58 379.16 C 287.16 379.90 285.71 380.70 284.05 380.50 C 278.23 380.37 272.42 380.19 266.60 380.37 C 265.88 379.26 265.15 378.15 264.44 377.04 C 267.87 372.69 270.13 367.58 272.94 362.82 C 275.19 358.34 278.53 354.40 279.88 349.49 Z" />
<path fill="#f6b228" d=" M 854.44 356.22 C 861.96 350.42 875.06 352.61 878.54 362.04 C 879.10 366.13 878.79 370.70 876.10 374.05 C 873.99 377.11 871.05 380.41 867.03 380.41 C 861.80 380.50 856.39 377.92 853.25 373.75 C 851.21 368.07 853.24 361.90 854.44 356.22 Z" />
<path fill="#f6b228" d=" M 915.21 353.21 C 921.05 351.19 929.43 353.00 932.20 359.07 C 933.31 363.10 932.93 367.46 932.35 371.56 C 931.01 375.25 927.66 378.19 923.92 379.32 C 917.53 380.29 910.16 378.04 906.64 372.33 C 905.20 368.77 905.90 364.70 906.94 361.13 C 909.44 358.27 911.89 355.16 915.21 353.21 Z" />
<path fill="#f5f4f0" d=" M 917.33 355.52 C 920.80 355.08 924.61 355.52 927.54 357.59 C 930.76 360.07 929.72 364.57 929.80 368.08 C 930.17 372.00 926.94 375.07 923.62 376.46 C 918.40 377.26 912.04 375.62 909.24 370.80 C 906.92 364.45 912.08 358.28 917.33 355.52 Z" />
<path fill="#f5f4f0" d=" M 268.21 377.36 C 272.35 370.31 275.75 362.82 280.36 356.04 C 281.43 363.28 282.02 370.65 284.59 377.57 C 279.13 377.38 273.67 377.33 268.21 377.36 Z" />
<path fill="#f5f4f0" d=" M 857.73 357.31 C 861.78 355.41 866.66 355.31 870.71 357.27 C 873.30 358.94 876.10 361.54 875.81 364.93 C 876.19 369.92 873.05 374.61 868.90 377.10 C 864.04 378.50 858.88 375.79 855.65 372.24 C 854.60 367.16 856.17 362.10 857.73 357.31 Z" />
<path fill="#0f37fe" d=" M 159.49 367.60 C 161.20 366.20 163.29 365.49 165.44 365.18 C 165.54 366.19 165.62 367.20 165.71 368.21 C 163.63 368.70 161.65 369.57 159.99 370.94 C 145.03 382.04 132.71 396.71 124.15 413.23 C 121.23 421.03 117.17 428.55 116.19 436.94 C 114.33 444.83 114.25 452.94 113.54 460.98 C 113.32 470.94 112.50 481.03 114.29 490.91 C 115.75 500.64 115.94 510.73 119.87 519.90 C 123.26 527.55 126.31 535.73 132.42 541.68 C 134.90 544.20 136.29 547.69 139.28 549.72 C 145.44 553.84 150.53 559.34 156.64 563.50 C 160.49 565.27 163.78 568.14 165.99 571.77 C 171.34 577.47 178.41 580.90 184.63 585.48 C 186.40 586.97 187.55 584.38 187.92 583.00 C 189.76 581.67 192.60 578.86 194.67 581.36 C 197.66 585.63 198.57 590.99 199.75 595.98 C 200.51 598.00 197.64 598.98 196.13 598.58 C 192.49 597.52 188.76 596.72 184.95 596.69 C 183.06 596.82 180.95 595.09 181.41 593.09 C 181.53 591.32 183.75 590.20 183.57 588.48 C 178.55 584.00 172.06 581.50 167.17 576.84 C 162.99 572.93 158.29 569.64 153.58 566.42 C 147.93 562.11 143.10 556.82 137.37 552.61 C 133.83 550.05 132.20 545.83 129.28 542.69 C 124.65 537.62 121.69 531.34 119.00 525.10 C 112.55 512.71 112.81 498.45 110.65 484.98 C 110.02 474.65 110.53 464.25 111.41 453.95 C 111.63 445.24 113.08 436.58 115.23 428.15 C 117.55 422.19 119.71 416.14 122.36 410.32 C 131.51 393.67 144.16 378.86 159.49 367.60 Z" />
<path fill="#5e5e5c" d=" M 800.84 367.90 L 801.46 368.77 C 801.51 369.61 801.56 370.46 801.60 371.31 C 797.83 385.81 798.92 400.90 798.69 415.72 C 798.31 417.57 797.81 419.40 797.41 421.25 C 797.17 410.16 797.18 399.06 797.50 387.97 C 797.58 381.14 799.71 374.59 800.84 367.90 Z" />
<path fill="#14b825" d=" M 889.95 376.77 C 890.18 375.41 891.67 375.45 892.70 375.13 C 897.28 386.31 898.49 398.53 900.59 410.33 C 899.76 411.09 899.26 412.53 897.93 412.43 C 891.33 412.61 884.72 412.87 878.12 412.74 C 878.69 407.66 881.59 403.29 883.27 398.55 C 885.81 391.39 887.91 384.08 889.95 376.77 Z" />
<path fill="#f5f4f0" d=" M 891.67 381.78 C 894.55 390.71 896.72 400.07 896.87 409.51 C 891.95 409.58 887.03 409.74 882.11 409.61 C 883.54 405.28 885.52 401.16 886.98 396.84 C 888.68 391.86 889.78 386.69 891.67 381.78 Z" />
<path fill="#3f3f3e" d=" M 176.01 391.72 C 176.46 394.47 176.44 397.26 176.39 400.04 C 191.43 402.77 206.78 402.80 222.02 402.80 C 231.99 403.53 242.01 403.44 252.01 403.43 C 262.04 403.51 271.94 405.64 281.99 405.43 C 295.37 405.32 308.75 405.57 322.14 405.38 C 321.79 405.85 321.09 406.78 320.74 407.25 C 302.44 406.81 284.08 408.06 265.84 406.20 C 254.26 403.89 242.42 405.06 230.71 404.44 C 221.15 403.85 211.56 404.58 202.02 403.80 C 194.24 403.28 186.42 403.44 178.66 402.86 C 179.35 402.41 180.04 401.96 180.72 401.51 C 178.82 401.74 176.92 401.91 175.02 402.11 C 174.74 398.61 174.96 395.08 176.01 391.72 Z" />
<path fill="#282827" d=" M 797.41 421.25 C 797.81 419.40 798.31 417.57 798.69 415.72 C 798.68 419.34 799.18 422.94 800.19 426.42 C 813.14 427.09 826.11 426.53 839.07 426.93 C 844.69 427.32 850.33 427.25 855.96 427.26 C 863.35 427.62 870.64 426.06 877.99 425.53 C 892.27 423.99 906.66 424.96 920.99 424.18 C 925.25 424.69 929.71 423.12 933.81 424.18 C 933.71 424.37 933.52 424.77 933.42 424.97 C 915.41 428.24 897.06 424.11 878.99 426.52 C 870.32 427.09 861.73 428.73 853.02 428.69 C 846.34 428.71 839.67 429.26 832.99 429.24 C 823.31 429.70 813.62 429.03 803.95 429.65 C 801.91 429.52 799.06 430.27 797.93 428.03 C 796.87 425.97 797.16 423.47 797.41 421.25 Z" />
<path fill="#070707" d=" M 781.67 426.77 C 781.81 426.41 782.08 425.70 782.21 425.34 C 782.60 428.24 782.66 431.18 782.83 434.11 C 783.53 437.70 784.28 441.30 785.54 444.75 C 789.31 445.48 793.16 445.42 796.99 445.51 C 807.53 445.47 818.07 445.63 828.61 445.64 C 830.37 445.80 832.12 446.03 833.90 446.18 C 832.04 446.31 830.17 446.50 828.33 446.35 C 821.90 444.79 815.48 447.00 809.02 446.89 C 800.59 446.99 792.16 447.36 783.73 447.45 C 782.71 444.72 782.16 441.85 782.27 438.93 C 782.37 434.86 781.36 430.81 781.67 426.77 Z" />
<path fill="#292929" d=" M 179.65 428.37 C 193.70 429.96 207.83 430.61 221.97 430.34 C 230.65 430.21 239.31 430.84 247.98 430.74 C 267.19 432.02 286.47 431.06 305.70 431.53 C 306.92 431.80 308.14 432.12 309.38 432.40 C 292.60 432.59 275.81 432.50 259.03 432.36 C 239.71 431.18 220.33 431.56 200.97 431.21 C 194.27 430.91 187.18 429.50 180.70 431.54 C 176.79 437.89 175.12 445.27 172.15 452.06 C 167.23 462.99 162.74 474.11 158.34 485.27 C 156.31 489.85 153.72 494.19 152.09 498.96 C 158.98 500.91 166.17 500.82 173.26 501.22 C 170.12 501.27 166.99 501.46 163.86 501.72 C 158.92 501.63 153.90 501.76 149.01 501.02 C 147.05 498.30 150.81 496.05 151.56 493.59 C 154.58 486.13 159.63 479.69 162.47 472.14 C 165.80 463.64 169.65 455.36 173.08 446.89 C 174.99 440.62 177.85 434.68 179.65 428.37 Z" />
<path fill="#010101" d=" M 350.99 430.70 C 355.66 430.12 360.28 429.05 365.03 429.44 C 366.50 429.37 368.11 429.58 369.09 430.85 C 371.77 434.02 372.87 438.14 373.88 442.09 C 374.53 443.76 375.20 445.43 375.89 447.10 C 381.38 460.48 388.00 473.37 393.25 486.86 C 393.95 488.08 393.71 489.45 393.40 490.76 C 392.90 490.47 391.89 489.90 391.39 489.62 C 388.90 485.63 388.57 480.75 386.55 476.54 C 382.16 466.42 377.92 456.24 374.21 445.85 C 372.36 441.13 370.69 436.20 367.19 432.39 C 363.10 432.33 358.98 432.13 354.95 432.87 C 350.33 433.67 345.64 433.12 340.99 433.15 C 330.47 432.36 319.89 433.14 309.38 432.40 C 308.14 432.12 306.92 431.80 305.70 431.53 C 320.80 431.10 335.89 430.75 350.99 430.70 Z" />
<path fill="#0f37fe" d=" M 887.14 433.96 C 890.79 433.71 891.19 437.68 892.64 440.09 C 889.81 440.13 886.99 440.30 884.18 440.54 C 884.92 438.24 885.97 436.07 887.14 433.96 Z" />
<path fill="#5a5958" d=" M 892.64 440.09 C 902.60 438.93 912.64 438.29 922.68 438.21 C 926.14 438.07 929.61 438.05 933.06 438.47 C 931.85 439.21 930.41 439.19 929.07 439.26 C 916.88 439.80 904.65 439.93 892.55 441.62 L 891.52 441.75 C 891.80 441.34 892.36 440.50 892.64 440.09 Z" />
<path fill="#0d2394" d=" M 883.34 440.61 L 884.18 440.54 C 886.99 440.30 889.81 440.13 892.64 440.09 C 892.36 440.50 891.80 441.34 891.52 441.75 C 889.22 442.11 886.89 442.31 884.58 442.37 L 883.66 441.08 L 883.34 440.61 Z" />
<path fill="#61605f" d=" M 843.17 443.85 C 856.63 442.60 870.19 441.32 883.66 441.08 L 884.58 442.37 C 884.25 442.39 883.61 442.42 883.28 442.43 C 866.80 443.36 850.33 444.51 833.90 446.18 C 832.12 446.03 830.37 445.80 828.61 445.64 C 833.36 444.37 838.30 444.31 843.17 443.85 Z" />
<path fill="#0f37fe" d=" M 883.28 442.43 C 883.61 442.42 884.25 442.39 884.58 442.37 C 886.89 442.31 889.22 442.11 891.52 441.75 L 892.55 441.62 C 893.13 445.82 895.49 449.97 894.37 454.26 C 893.14 455.67 891.16 455.36 889.51 455.65 C 889.09 459.05 888.69 462.46 888.66 465.90 C 887.83 465.99 887.00 466.08 886.19 466.18 C 886.23 462.61 886.36 459.04 886.62 455.48 C 884.36 455.35 881.37 457.44 879.68 455.25 C 878.38 450.60 882.61 446.86 883.28 442.43 Z" />
<path fill="#585856" d=" M 194.49 443.39 C 202.72 444.58 210.95 445.91 219.12 447.51 C 228.29 449.28 237.65 449.82 246.98 449.86 C 274.29 450.90 301.68 449.23 328.96 451.20 C 338.33 451.64 347.68 450.07 357.03 450.56 C 357.31 451.19 357.87 452.46 358.15 453.09 C 348.12 454.10 338.07 452.45 328.02 452.55 C 297.39 450.54 266.66 452.53 236.01 450.99 C 225.18 450.61 214.67 447.77 203.95 446.48 C 200.69 445.96 196.96 446.86 194.15 444.75 C 194.23 444.41 194.40 443.73 194.49 443.39 Z" />
<path fill="#5e5e5c" d=" M 809.02 446.89 C 815.48 447.00 821.90 444.79 828.33 446.35 C 823.67 447.64 818.80 446.99 814.06 447.42 C 806.06 447.98 798.04 447.23 790.05 447.86 C 787.93 448.03 785.77 448.13 783.73 447.45 C 792.16 447.36 800.59 446.99 809.02 446.89 Z" />
<path fill="#070707" d=" M 969.00 459.42 C 975.12 459.59 981.05 457.77 986.99 456.57 C 990.03 457.07 990.36 460.83 991.60 463.11 C 995.66 475.69 1000.96 487.82 1005.76 500.12 C 1007.04 503.16 1008.49 506.12 1009.81 509.14 C 1012.19 514.37 1014.55 519.61 1017.27 524.68 C 1018.57 527.05 1019.25 529.69 1019.69 532.36 C 1018.53 532.60 1017.37 532.84 1016.23 533.08 C 1016.77 527.67 1013.56 523.04 1011.75 518.20 C 1010.24 514.87 1009.26 511.34 1008.22 507.86 C 1007.03 505.31 1005.94 502.71 1004.85 500.14 C 1004.32 498.68 1003.77 497.23 1003.25 495.79 C 1002.12 493.52 1001.10 491.19 1000.20 488.83 C 998.71 485.58 997.46 482.23 996.21 478.89 C 993.71 472.24 991.43 465.32 987.04 459.62 C 981.51 461.17 975.70 461.73 969.97 461.55 C 962.95 461.51 955.97 462.35 949.02 463.23 C 940.65 463.57 932.43 465.58 924.02 465.41 C 918.33 465.23 912.72 466.44 907.04 466.29 C 900.93 466.68 894.81 466.34 888.71 466.72 C 887.86 466.80 887.02 466.90 886.20 467.01 C 875.55 468.68 864.77 469.02 854.00 468.84 C 833.03 470.01 811.99 468.82 791.01 469.82 C 788.43 470.02 785.82 470.33 783.31 469.54 C 783.40 469.05 783.58 468.06 783.67 467.57 C 793.15 467.12 802.58 468.66 812.06 468.30 C 836.78 468.08 861.64 469.56 886.19 466.18 C 887.00 466.08 887.83 465.99 888.66 465.90 C 899.12 465.44 909.60 465.11 919.98 463.59 C 929.72 463.49 939.37 462.00 949.09 461.38 C 955.69 460.48 962.31 459.41 969.00 459.42 Z" />
<path fill="#242323" d=" M 357.36 465.39 C 359.10 464.15 360.25 465.73 360.93 467.26 C 358.76 468.34 356.31 468.43 353.95 468.10 C 349.64 467.50 345.27 467.53 340.93 467.76 C 330.35 469.05 319.63 468.09 309.05 469.33 C 292.04 469.40 275.03 469.35 258.02 469.29 C 252.32 469.48 246.68 468.33 240.97 468.71 C 227.96 469.16 215.04 466.42 202.04 467.62 C 198.96 467.98 195.92 468.86 192.79 468.63 C 194.66 466.08 198.23 466.73 200.98 466.42 C 214.36 465.60 227.62 467.92 240.99 467.72 C 263.63 468.83 286.32 468.11 308.99 468.33 C 318.32 467.48 327.70 467.54 337.05 467.21 C 343.78 466.10 350.74 467.23 357.36 465.39 Z" />
<path fill="#0f37fe" d=" M 886.20 467.01 C 887.02 466.90 887.86 466.80 888.71 466.72 C 888.57 474.54 888.77 482.38 888.49 490.20 C 888.49 490.62 888.47 491.46 888.46 491.87 C 888.48 497.87 888.25 503.86 888.45 509.86 C 887.50 510.00 886.54 510.06 885.62 510.21 C 886.01 504.04 885.15 497.76 886.30 491.67 L 886.41 491.17 C 886.41 490.96 886.41 490.55 886.41 490.35 C 886.02 482.57 886.44 474.79 886.20 467.01 Z" />
<path fill="#070707" d=" M 775.87 491.81 C 778.42 484.94 777.58 476.90 781.76 470.70 C 781.92 472.53 781.69 474.38 780.86 476.05 C 777.17 487.98 775.45 500.46 771.24 512.24 C 767.98 523.34 764.65 534.46 759.92 545.04 C 765.87 546.37 771.94 547.51 778.07 547.41 C 797.07 547.48 816.07 547.28 835.07 547.33 C 842.75 546.66 850.47 546.30 858.18 546.41 C 858.68 546.42 859.68 546.44 860.18 546.45 C 851.90 548.07 843.40 547.23 835.03 547.91 C 825.01 547.85 814.99 547.94 804.97 547.85 C 789.30 548.89 773.55 548.41 757.92 547.28 C 757.56 546.71 756.85 545.55 756.50 544.98 C 760.44 538.73 763.65 532.10 766.18 525.16 C 770.06 514.25 773.49 503.15 775.87 491.81 Z" />
<path fill="#242323" d=" M 333.05 479.16 C 336.59 478.72 339.55 476.51 342.97 475.68 C 344.45 476.48 344.64 477.49 343.54 478.71 C 335.57 481.36 327.06 480.52 318.92 482.23 C 307.26 482.92 295.75 485.60 284.04 485.40 C 261.34 485.46 238.65 485.33 215.96 485.52 C 211.70 485.46 207.49 486.12 203.26 486.36 C 203.25 485.91 203.24 485.00 203.23 484.55 C 231.14 484.22 259.07 484.49 286.99 484.37 C 297.41 484.21 307.63 481.90 318.02 481.32 C 323.02 480.53 328.03 479.83 333.05 479.16 Z" />
<path fill="#080808" d=" M 968.12 486.21 C 973.15 485.24 978.26 484.40 983.00 482.33 C 985.46 481.80 984.93 486.02 982.80 485.60 C 977.69 485.86 972.59 486.36 967.52 487.05 C 966.54 486.87 965.58 486.68 964.62 486.50 C 965.50 486.43 967.25 486.28 968.12 486.21 Z" />
<path fill="#5c5c5a" d=" M 958.02 487.00 C 960.21 486.77 962.41 486.26 964.62 486.50 C 965.58 486.68 966.54 486.87 967.52 487.05 C 954.02 489.59 940.21 489.90 926.56 491.28 C 913.88 492.23 901.16 491.42 888.46 491.87 C 888.47 491.46 888.49 490.62 888.49 490.20 C 902.98 490.32 917.53 490.81 931.97 489.27 C 940.65 488.52 949.38 488.21 958.02 487.00 Z" />
<path fill="#242423" d=" M 800.26 490.70 C 808.48 489.93 816.74 490.39 824.98 490.28 C 845.45 489.99 865.94 490.84 886.41 490.35 C 886.41 490.55 886.41 490.96 886.41 491.17 L 886.30 491.67 C 873.01 491.33 859.72 491.69 846.44 491.31 C 840.96 491.32 835.50 490.46 830.03 491.15 C 820.07 491.18 810.13 491.46 800.21 492.33 C 800.22 491.92 800.25 491.11 800.26 490.70 Z" />
<path fill="#000000" d=" M 346.54 492.15 C 360.27 491.59 374.00 490.81 387.75 490.47 C 387.99 492.54 387.21 493.86 385.06 493.54 C 377.40 493.51 369.73 492.96 362.07 493.51 C 356.86 493.56 351.73 492.49 346.54 492.15 Z" />
<path fill="#5e5e5c" d=" M 316.98 492.79 C 326.84 492.48 336.71 492.86 346.54 492.15 C 351.73 492.49 356.86 493.56 362.07 493.51 C 348.41 494.40 334.70 493.77 321.01 494.21 C 296.37 494.47 272.50 501.63 248.00 503.34 C 226.68 503.51 205.34 503.59 184.01 503.12 C 177.31 502.49 170.48 502.94 163.86 501.72 C 166.99 501.46 170.12 501.27 173.26 501.22 C 198.49 502.25 223.77 501.83 249.01 501.79 C 271.82 500.05 294.08 493.72 316.98 492.79 Z" />
<path fill="#0c0c0c" d=" M 967.69 499.82 C 969.50 499.48 971.31 499.06 973.11 498.57 C 973.52 498.98 974.34 499.78 974.75 500.19 C 972.48 502.53 968.88 500.77 966.03 501.45 C 950.71 503.43 935.23 504.09 920.07 507.22 C 909.44 507.71 899.07 510.51 888.41 510.70 C 887.72 510.79 886.33 510.95 885.64 511.04 C 878.17 512.39 870.59 512.37 863.09 513.40 C 853.66 513.58 844.40 515.97 834.93 515.62 C 827.24 516.29 819.52 516.44 811.81 516.72 C 811.96 516.39 812.28 515.72 812.43 515.39 C 818.25 514.78 824.12 515.70 829.95 515.16 C 833.27 514.77 836.63 514.67 839.98 514.59 C 848.04 514.47 855.95 512.49 864.02 512.39 C 871.21 511.56 878.44 511.23 885.62 510.21 C 886.54 510.06 887.50 510.00 888.45 509.86 C 897.72 509.58 906.78 507.52 915.98 506.61 C 924.08 506.32 931.87 503.52 940.00 503.44 C 949.00 502.19 958.13 501.86 967.09 500.21 L 967.69 499.82 Z" />
<path fill="#020202" d=" M 993.93 510.70 C 994.31 510.69 995.05 510.67 995.43 510.65 C 995.57 511.92 995.71 513.19 995.86 514.48 C 991.36 516.10 986.50 515.15 981.90 516.17 C 975.61 517.29 969.24 517.72 962.90 518.39 C 952.50 518.60 942.01 517.82 931.69 519.42 C 927.49 519.54 923.39 521.12 919.17 520.60 C 928.92 518.44 938.99 517.51 948.99 517.47 C 963.09 517.60 977.12 515.99 990.96 513.38 C 992.53 513.30 993.13 511.77 993.93 510.70 Z" />
<path fill="#183efb" d=" M 885.64 511.04 C 886.33 510.95 887.72 510.79 888.41 510.70 C 888.37 515.54 888.36 520.37 888.44 525.21 C 887.75 525.36 886.38 525.66 885.69 525.81 C 885.65 520.88 885.73 515.96 885.64 511.04 Z" />
<path fill="#1b1b1b" d=" M 888.44 525.21 C 898.18 523.08 908.10 521.90 917.98 520.57 C 917.95 521.72 917.25 522.16 915.89 521.88 C 907.24 522.97 898.55 524.02 890.02 525.87 C 889.61 525.97 888.79 526.18 888.39 526.29 C 887.70 526.44 886.33 526.74 885.65 526.89 C 884.08 527.24 882.50 527.54 880.95 527.87 C 875.69 529.02 870.37 529.92 865.14 531.18 C 859.74 532.40 854.29 533.31 848.83 534.18 C 838.93 535.24 828.93 534.09 819.05 535.27 C 816.98 535.33 813.37 536.08 813.93 532.76 C 822.48 534.00 831.13 533.88 839.75 533.64 C 853.43 533.72 866.60 529.46 879.98 527.11 C 881.87 526.63 883.78 526.25 885.69 525.81 C 886.38 525.66 887.75 525.36 888.44 525.21 Z" />
<path fill="#163dfd" d=" M 885.65 526.89 C 886.33 526.74 887.70 526.44 888.39 526.29 C 888.44 531.76 888.41 537.24 888.38 542.72 C 887.70 542.80 886.35 542.97 885.67 543.05 C 885.56 537.66 885.71 532.28 885.65 526.89 Z" />
<path fill="#191818" d=" M 991.77 528.84 C 997.96 527.91 1004.24 527.57 1010.41 526.39 C 1010.44 527.37 1010.48 528.36 1010.52 529.36 C 1005.07 530.31 999.54 530.08 994.06 530.42 C 981.90 533.17 969.30 531.69 957.04 533.71 C 951.73 534.73 946.30 534.95 940.99 535.92 C 925.79 538.76 910.45 540.64 895.21 543.16 C 892.95 543.36 890.69 543.51 888.44 543.64 C 887.41 543.71 886.42 543.83 885.43 543.98 C 877.06 545.29 868.59 545.59 860.18 546.45 C 859.68 546.44 858.68 546.42 858.18 546.41 L 858.25 545.60 C 867.40 544.88 876.55 544.25 885.67 543.05 C 886.35 542.97 887.70 542.80 888.38 542.72 C 897.37 542.26 906.16 540.07 915.13 539.27 C 923.43 537.93 931.71 536.44 940.04 535.22 C 949.55 533.00 959.17 530.59 969.00 530.54 C 976.59 530.05 984.27 530.43 991.77 528.84 Z" />
<path fill="#0f37fe" d=" M 398.02 539.76 C 408.22 537.23 418.45 534.08 429.07 534.27 C 436.06 534.32 443.19 533.57 450.05 535.33 C 455.75 536.59 461.47 537.92 466.88 540.17 C 471.14 541.97 474.72 544.97 478.34 547.78 C 479.30 545.89 480.16 543.96 481.07 542.05 C 481.35 540.82 483.43 540.90 483.81 542.10 C 485.19 544.25 485.81 546.77 486.88 549.08 C 488.35 552.40 490.81 555.33 491.39 559.00 C 491.48 560.34 490.86 562.18 489.38 562.47 C 483.04 564.01 476.85 561.11 470.49 561.30 C 470.38 557.35 473.49 554.55 475.76 551.71 C 467.39 542.99 455.10 540.46 443.70 538.38 C 435.84 538.07 427.93 538.02 420.08 538.53 C 412.63 539.55 405.32 541.43 397.97 542.97 C 388.02 545.14 379.34 550.68 370.53 555.52 C 361.59 560.98 354.50 569.08 348.99 577.91 C 347.95 577.62 346.92 577.33 345.89 577.05 C 352.49 566.58 361.31 557.17 372.43 551.48 C 380.72 547.10 388.77 541.90 398.02 539.76 Z" />
<path fill="#3a5160" d=" M 539.00 538.15 C 547.52 536.19 556.52 535.70 565.09 537.63 C 569.17 538.68 572.66 541.15 576.13 543.45 C 580.53 541.07 585.06 538.80 589.99 537.77 C 600.72 536.11 611.60 539.73 620.58 545.48 C 628.25 550.94 636.12 557.10 639.92 566.01 C 641.35 569.50 643.53 572.65 644.77 576.22 C 645.97 582.18 644.67 588.27 644.67 594.28 C 649.09 597.69 655.01 598.92 658.58 603.46 C 666.80 612.04 670.20 624.35 669.67 636.03 C 669.84 647.83 665.09 659.50 657.18 668.19 C 654.07 671.09 650.06 672.71 646.19 674.29 C 646.98 681.47 646.74 688.83 644.82 695.83 C 644.19 698.22 642.19 699.85 640.57 701.58 C 637.15 705.09 633.06 708.01 628.44 709.69 C 623.47 711.46 618.46 713.67 613.08 713.60 C 606.99 713.69 600.81 712.99 595.10 710.82 C 590.83 709.14 586.25 708.11 582.43 705.48 C 579.90 703.81 578.13 701.32 576.14 699.10 C 569.31 703.95 562.36 709.18 553.97 710.90 C 547.88 713.05 541.38 712.48 535.05 712.51 C 527.40 712.65 520.01 710.29 512.75 708.18 C 502.23 704.16 492.02 697.27 487.33 686.65 C 485.04 682.66 485.22 678.01 485.34 673.58 C 480.25 671.85 475.09 669.70 471.42 665.62 C 466.52 660.31 461.96 653.61 462.57 646.04 C 463.17 633.79 469.29 622.39 477.23 613.28 C 483.57 605.86 489.76 597.92 498.57 593.28 C 497.63 591.26 496.49 589.20 496.63 586.91 C 496.60 578.00 497.75 568.54 503.23 561.19 C 508.20 554.93 513.55 548.80 520.18 544.24 C 525.77 540.49 532.59 539.65 539.00 538.15 Z" />
<path fill="#f5f4f0" d=" M 538.18 541.06 C 546.56 539.08 555.45 538.48 563.91 540.33 C 568.50 541.16 571.74 544.85 576.00 546.39 C 580.31 545.30 583.76 542.03 588.18 541.11 C 599.11 538.43 610.65 542.05 619.75 548.23 C 626.61 553.27 633.80 558.77 637.19 566.87 C 638.62 570.52 641.00 573.78 642.13 577.55 C 642.54 582.03 642.17 586.53 641.82 591.00 C 641.73 592.98 641.63 595.25 642.94 596.91 C 646.45 599.18 650.52 600.49 653.92 602.96 C 663.34 610.99 667.44 623.85 666.79 635.96 C 666.95 647.00 662.52 658.01 655.06 666.10 C 651.60 669.81 646.13 670.32 642.22 673.30 C 644.73 679.90 643.60 687.17 642.27 693.91 C 641.74 696.98 639.08 698.94 637.05 701.04 C 632.04 706.07 625.06 708.17 618.44 710.13 C 608.46 712.08 598.31 709.45 589.13 705.56 C 584.69 704.25 581.17 701.07 578.73 697.23 C 578.04 695.64 575.82 695.84 574.63 696.68 C 568.11 701.40 561.49 706.49 553.45 708.23 C 547.49 710.24 541.15 709.62 534.98 709.65 C 527.04 709.78 519.35 707.40 511.92 704.88 C 502.97 700.98 494.25 694.97 490.17 685.76 C 487.89 682.12 488.16 677.73 488.38 673.63 C 489.82 673.05 491.27 672.46 492.71 671.87 C 491.11 669.79 488.45 669.53 486.10 668.93 C 476.63 666.89 469.31 658.54 466.98 649.38 C 466.15 638.25 471.20 627.50 477.83 618.82 C 485.14 609.96 492.31 600.43 502.75 595.05 C 502.38 592.52 500.77 590.47 500.02 588.09 C 498.94 579.28 500.14 569.72 505.55 562.41 C 509.71 557.02 514.45 552.04 519.73 547.73 C 524.97 543.53 531.75 542.28 538.18 541.06 Z" />
<path fill="#1239fe" d=" M 885.43 543.98 C 886.42 543.83 887.41 543.71 888.44 543.64 C 888.28 551.80 887.18 559.89 886.54 568.01 C 886.16 569.85 887.27 572.51 885.15 573.55 C 882.94 573.82 883.39 571.33 883.37 570.03 C 883.71 561.32 885.76 552.72 885.43 543.98 Z" />
<path fill="#13b824" d=" M 920.96 553.06 C 922.01 552.46 922.86 551.16 924.21 551.30 C 925.98 550.95 926.00 553.16 926.78 554.19 C 922.31 557.74 917.24 560.42 912.44 563.49 C 905.58 567.76 900.21 574.02 895.61 580.59 L 895.00 580.60 C 893.66 580.61 892.33 580.63 891.02 580.66 C 894.52 574.82 899.00 569.61 903.92 564.91 C 908.96 560.09 915.49 557.31 920.96 553.06 Z" />
<path fill="#dd4e0c" d=" M 546.09 556.03 C 546.90 554.54 548.39 554.10 549.98 554.29 C 555.06 554.43 560.18 554.24 565.25 554.71 C 565.57 555.01 566.23 555.60 566.55 555.90 C 564.02 561.30 558.32 564.29 555.12 569.30 C 557.53 569.36 559.95 569.45 562.36 569.51 C 566.37 572.65 566.40 579.35 562.76 582.78 C 559.58 586.00 554.92 586.88 550.63 587.57 C 550.57 586.63 550.51 585.69 550.47 584.75 C 554.37 584.23 558.50 583.22 561.30 580.26 C 563.06 577.95 562.42 574.88 561.55 572.37 C 558.02 572.37 554.45 572.50 551.00 571.70 C 551.22 570.48 551.27 569.15 552.24 568.25 C 555.25 564.45 558.49 560.83 562.04 557.53 C 557.35 557.14 552.63 557.64 547.94 557.24 C 547.48 556.94 546.55 556.33 546.09 556.03 Z" />
<path fill="#dd4e0c" d=" M 588.27 585.40 C 591.59 576.04 589.72 566.04 590.53 556.37 C 593.90 557.67 597.43 556.65 600.92 556.68 C 607.08 556.61 613.26 556.92 619.41 556.48 C 620.30 557.48 620.76 558.65 620.80 559.99 C 621.23 566.33 620.21 572.65 620.15 579.00 C 620.29 580.93 618.93 583.20 616.82 583.23 C 610.54 583.78 604.17 583.64 597.98 584.98 C 594.77 585.48 591.37 587.19 588.27 585.40 Z" />
<path fill="#f5f4f0" d=" M 593.40 560.51 C 601.39 558.92 609.58 559.92 617.67 559.50 C 619.07 566.37 616.94 573.30 617.22 580.22 C 608.87 580.97 600.47 581.21 592.25 582.99 C 593.23 575.53 593.26 568.01 593.40 560.51 Z" />
<path fill="#13b824" d=" M 862.26 568.59 C 863.28 568.47 864.31 568.36 865.36 568.26 C 866.46 573.12 867.90 577.90 869.58 582.60 C 868.48 582.50 867.42 582.29 866.40 581.98 C 864.70 577.62 863.31 573.15 862.26 568.59 Z" />
<path fill="#dd4e0c" d=" M 517.66 574.21 C 516.23 571.81 518.81 570.49 520.84 570.33 C 523.23 570.16 526.36 569.76 527.79 572.22 C 529.92 575.72 530.92 579.84 531.73 583.83 C 529.41 586.85 526.60 589.74 523.08 591.30 C 520.49 591.76 517.21 591.54 515.74 589.03 C 515.31 585.76 516.16 581.95 518.85 579.82 C 521.43 578.17 524.61 578.76 527.50 578.72 C 526.80 576.90 526.07 575.10 525.32 573.32 C 522.69 572.90 520.21 573.88 517.66 574.21 Z" />
<path fill="#dc4804" d=" M 572.10 570.26 C 572.75 570.28 574.05 570.31 574.70 570.33 C 575.18 571.98 575.78 573.62 576.62 575.15 C 577.67 574.17 578.23 571.62 580.18 572.49 C 581.57 574.23 579.41 575.99 578.74 577.56 C 577.26 579.79 580.66 582.04 579.35 584.29 C 577.71 584.90 577.06 583.03 575.94 582.32 C 574.41 584.26 572.86 586.20 570.98 587.83 C 570.57 587.35 569.76 586.40 569.36 585.92 C 570.87 583.43 572.90 581.32 574.74 579.07 C 573.59 576.22 572.09 573.41 572.10 570.26 Z" />
<path fill="#495052" d=" M 895.61 580.59 C 899.76 580.67 903.90 580.29 908.02 579.76 C 909.08 580.49 909.57 581.71 909.50 582.99 C 909.70 595.98 909.27 608.98 909.74 621.97 C 909.81 624.06 909.67 626.17 909.46 628.26 C 901.55 630.69 893.12 629.28 884.99 629.76 C 874.24 630.49 863.46 629.96 852.70 630.29 C 852.35 629.39 852.05 628.48 851.81 627.57 C 850.78 618.76 852.05 609.83 850.74 601.04 C 850.23 595.58 850.26 590.08 849.47 584.65 C 854.87 582.51 861.48 585.06 866.40 581.98 C 867.42 582.29 868.48 582.50 869.58 582.60 C 876.43 581.59 883.32 580.58 890.28 580.68 C 889.93 581.39 889.23 582.81 888.88 583.52 C 882.63 583.45 876.45 584.42 870.30 585.45 L 870.71 586.76 C 869.98 585.51 868.85 585.11 867.31 585.56 C 862.59 586.16 857.85 586.63 853.11 587.12 C 853.01 593.41 853.42 599.69 854.06 605.94 C 854.42 613.07 854.01 620.23 854.69 627.36 C 871.79 624.59 889.16 626.56 906.38 625.58 C 906.74 611.44 906.59 597.30 906.54 583.17 C 902.41 583.34 898.28 583.43 894.16 583.62 C 894.37 582.86 894.79 581.35 895.00 580.60 L 895.61 580.59 Z" />
<path fill="#145c24" d=" M 890.28 580.68 L 891.02 580.66 C 892.33 580.63 893.66 580.61 895.00 580.60 C 894.79 581.35 894.37 582.86 894.16 583.62 C 893.92 583.63 893.44 583.65 893.19 583.66 C 891.69 583.72 890.20 583.78 888.72 583.86 L 888.88 583.52 C 889.23 582.81 889.93 581.39 890.28 580.68 Z" />
<path fill="#f5f4f0" d=" M 519.61 582.62 C 522.61 580.94 526.07 581.62 529.21 582.46 C 526.49 585.66 523.16 589.62 518.43 588.45 C 518.59 586.46 519.05 584.52 519.61 582.62 Z" />
<path fill="#dd500e" d=" M 538.47 583.53 C 538.97 583.58 539.95 583.68 540.44 583.73 C 540.50 584.65 540.56 585.57 540.62 586.50 C 540.02 586.51 538.83 586.54 538.23 586.56 C 538.30 585.54 538.38 584.53 538.47 583.53 Z" />
<path fill="#f5f4f0" d=" M 870.30 585.45 C 876.45 584.42 882.63 583.45 888.88 583.52 L 888.72 583.86 C 884.17 592.03 880.14 600.49 877.05 609.32 C 874.68 601.87 872.91 594.25 870.71 586.76 L 870.30 585.45 Z" />
<path fill="#f5f4f0" d=" M 893.19 583.66 C 893.44 583.65 893.92 583.63 894.16 583.62 C 898.28 583.43 902.41 583.34 906.54 583.17 C 906.59 597.30 906.74 611.44 906.38 625.58 C 889.16 626.56 871.79 624.59 854.69 627.36 C 854.01 620.23 854.42 613.07 854.06 605.94 C 853.42 599.69 853.01 593.41 853.11 587.12 C 857.85 586.63 862.59 586.16 867.31 585.56 C 870.62 595.67 873.26 605.99 875.96 616.27 C 876.50 616.33 877.56 616.45 878.09 616.51 C 881.66 604.95 886.98 594.02 893.19 583.66 Z" />
<path fill="#13b824" d=" M 888.72 583.86 C 890.20 583.78 891.69 583.72 893.19 583.66 C 886.98 594.02 881.66 604.95 878.09 616.51 C 877.56 616.45 876.50 616.33 875.96 616.27 C 873.26 605.99 870.62 595.67 867.31 585.56 C 868.85 585.11 869.98 585.51 870.71 586.76 C 872.91 594.25 874.68 601.87 877.05 609.32 C 880.14 600.49 884.17 592.03 888.72 583.86 Z" />
<path fill="#2f2f2f" d=" M 339.05 589.76 C 349.13 589.80 359.13 588.31 369.21 587.99 C 371.84 591.85 370.38 596.63 370.59 600.98 C 370.71 616.86 370.49 632.75 370.48 648.64 C 370.65 654.80 369.48 660.89 369.64 667.06 C 369.59 674.75 367.50 682.28 367.57 689.99 C 367.66 696.17 367.49 702.36 367.87 708.53 C 366.66 714.75 366.58 721.09 365.56 727.32 C 365.17 725.35 364.60 723.44 364.01 721.54 C 366.19 712.15 365.16 702.48 366.22 692.98 C 366.52 682.96 368.31 673.06 368.47 663.03 C 370.36 644.11 368.95 625.06 369.37 606.08 C 369.48 600.86 369.12 595.66 368.68 590.47 C 362.45 590.83 356.20 590.80 349.97 591.31 C 328.96 591.20 307.94 592.20 286.93 591.46 C 282.62 591.28 278.31 591.37 274.00 591.26 C 261.38 590.18 248.69 590.81 236.04 590.60 C 229.06 590.93 222.04 591.28 215.16 592.54 C 215.17 612.69 214.62 632.84 214.19 652.98 C 214.00 662.36 212.41 671.65 212.36 681.04 C 211.97 688.45 210.90 695.83 211.26 703.27 L 209.54 703.18 C 209.73 685.73 212.95 668.46 212.79 651.00 C 214.17 631.94 213.15 612.82 212.64 593.75 C 212.02 593.25 210.78 592.25 210.17 591.75 C 213.88 590.15 218.03 591.08 221.93 590.49 C 229.28 589.73 236.65 589.31 244.04 589.51 C 253.03 589.61 262.06 589.18 271.02 590.17 C 293.69 590.31 316.40 591.31 339.05 589.76 Z" />
<path fill="#f5f4f0" d=" M 215.16 592.54 C 222.04 591.28 229.06 590.93 236.04 590.60 C 248.69 590.81 261.38 590.18 274.00 591.26 C 278.31 591.37 282.62 591.28 286.93 591.46 C 307.94 592.20 328.96 591.20 349.97 591.31 C 356.20 590.80 362.45 590.83 368.68 590.47 C 369.12 595.66 369.48 600.86 369.37 606.08 C 368.95 625.06 370.36 644.11 368.47 663.03 C 368.31 673.06 366.52 682.96 366.22 692.98 C 365.16 702.48 366.19 712.15 364.01 721.54 C 363.56 726.19 361.94 730.91 363.30 735.56 C 364.78 742.07 362.19 748.48 362.31 754.98 C 362.40 763.50 360.41 771.84 359.42 780.26 C 337.65 781.88 315.81 781.25 293.99 781.38 C 271.19 781.89 248.39 781.52 225.60 781.41 C 219.87 781.36 214.37 779.53 208.67 779.35 C 210.15 772.02 208.91 764.44 209.58 757.02 C 211.59 739.18 211.77 721.19 211.26 703.27 C 210.90 695.83 211.97 688.45 212.36 681.04 C 212.41 671.65 214.00 662.36 214.19 652.98 C 214.62 632.84 215.17 612.69 215.16 592.54 Z" />
<path fill="#f6b228" d=" M 549.52 608.93 C 548.60 603.26 552.85 597.93 558.07 596.21 C 560.66 595.38 564.00 594.71 566.23 596.75 C 569.59 599.87 569.01 604.99 568.46 609.10 C 566.38 614.12 562.97 618.46 560.05 623.01 C 561.06 624.89 561.99 626.82 562.85 628.79 C 565.94 628.82 567.61 625.92 569.94 624.38 C 572.31 624.96 571.35 627.06 570.01 628.11 C 568.16 629.94 565.85 632.08 563.02 631.51 C 560.17 631.32 559.35 628.12 558.19 626.05 C 555.31 627.19 553.57 631.53 550.09 630.40 C 552.00 625.25 557.49 622.73 560.11 618.00 C 562.36 613.80 566.24 610.03 566.19 604.99 C 566.04 602.74 565.94 600.12 564.03 598.59 C 560.40 597.81 556.53 599.44 554.25 602.30 C 551.64 605.21 552.03 609.86 554.11 612.95 C 554.67 613.71 554.78 614.55 554.45 615.47 C 550.91 616.48 549.57 611.58 549.52 608.93 Z" />
<path fill="#dbdfdd" d=" M 373.15 603.28 C 374.67 603.25 376.20 603.22 377.74 603.20 C 378.13 608.45 378.32 613.72 378.94 618.96 C 379.53 627.80 380.29 636.86 384.08 645.00 C 387.23 651.53 385.92 659.00 386.06 665.99 C 386.44 676.69 385.29 687.36 384.31 698.00 C 384.13 702.66 383.64 707.31 382.69 711.89 C 381.25 718.57 383.75 725.27 382.95 732.00 C 382.09 743.00 383.66 754.05 382.16 765.01 C 381.66 768.96 381.58 772.97 380.81 776.90 C 380.10 780.41 378.02 783.66 378.41 787.36 C 378.47 791.13 377.83 796.18 373.96 797.89 C 368.00 798.83 361.90 797.85 355.94 798.98 C 346.63 799.42 337.28 799.25 327.96 799.21 C 318.36 797.81 308.64 798.35 298.97 798.23 C 291.64 798.43 284.24 797.79 276.98 799.07 C 271.62 799.90 266.34 798.12 260.98 798.26 C 254.95 798.39 248.81 797.85 243.04 795.99 C 241.54 795.73 241.19 794.18 240.54 793.07 C 247.98 794.75 255.52 792.90 263.03 793.23 C 290.68 792.92 318.34 793.53 345.99 793.11 C 353.68 792.99 361.24 794.57 368.85 795.48 C 370.80 795.66 373.65 795.69 374.30 793.35 C 377.28 783.11 381.25 772.89 381.14 762.05 C 380.92 755.49 381.08 748.90 380.46 742.36 C 379.15 734.30 378.02 726.20 377.71 718.04 C 377.28 711.48 380.96 705.55 380.78 699.02 C 380.79 693.06 381.15 687.07 380.60 681.13 C 379.78 675.40 378.59 669.72 378.10 663.95 C 377.75 659.66 379.21 655.43 378.60 651.14 C 375.96 636.28 376.30 621.12 375.76 606.09 C 375.17 606.14 373.98 606.24 373.38 606.29 C 372.95 607.64 372.52 609.00 372.14 610.39 C 371.49 607.92 372.13 605.52 373.15 603.28 Z" />
<path fill="#f6b228" d=" M 604.35 603.50 C 607.76 601.78 612.07 602.80 614.93 605.16 C 617.63 607.28 616.59 611.07 616.82 614.04 C 616.53 617.92 617.55 622.51 614.74 625.71 C 612.64 628.10 610.09 630.27 607.07 631.36 C 602.00 631.98 597.99 626.72 598.16 622.01 C 597.93 615.51 598.69 607.62 604.35 603.50 Z" />
<path fill="#010101" d=" M 248.10 605.31 C 252.58 605.41 257.61 603.46 261.52 606.58 C 264.37 608.41 264.69 612.00 264.46 615.09 C 263.37 616.39 262.22 617.66 261.23 619.05 C 262.36 620.95 264.30 622.59 264.43 624.95 C 264.73 627.94 264.34 631.15 266.26 633.72 C 267.59 635.31 265.19 635.68 264.23 636.44 C 262.54 635.39 260.28 634.67 259.63 632.57 C 259.15 628.87 259.77 625.02 258.34 621.47 C 256.27 621.84 254.20 622.28 252.08 622.26 C 252.18 626.89 252.44 631.58 251.51 636.16 C 249.54 636.86 247.44 636.66 245.39 636.56 C 245.45 636.15 245.57 635.34 245.63 634.93 C 246.55 634.47 247.47 634.01 248.39 633.56 C 248.50 630.38 248.20 627.23 247.80 624.10 C 247.54 619.03 247.84 613.95 247.60 608.89 C 246.94 608.75 245.63 608.47 244.98 608.33 C 244.87 606.36 247.38 606.78 248.10 605.31 Z" />
<path fill="#c8d1d0" d=" M 373.38 606.29 C 373.98 606.24 375.17 606.14 375.76 606.09 C 376.30 621.12 375.96 636.28 378.60 651.14 C 379.21 655.43 377.75 659.66 378.10 663.95 C 378.59 669.72 379.78 675.40 380.60 681.13 C 381.15 687.07 380.79 693.06 380.78 699.02 C 380.96 705.55 377.28 711.48 377.71 718.04 C 378.02 726.20 379.15 734.30 380.46 742.36 C 381.08 748.90 380.92 755.49 381.14 762.05 C 381.25 772.89 377.28 783.11 374.30 793.35 C 373.65 795.69 370.80 795.66 368.85 795.48 C 361.24 794.57 353.68 792.99 345.99 793.11 C 318.34 793.53 290.68 792.92 263.03 793.23 C 255.52 792.90 247.98 794.75 240.54 793.07 C 238.35 792.60 235.93 792.36 234.14 790.90 C 232.33 789.38 233.10 785.43 235.88 785.82 C 247.20 786.30 258.46 784.83 269.52 782.63 C 295.01 782.22 320.52 782.04 346.02 782.49 C 351.16 782.80 356.42 782.94 361.33 781.12 C 361.71 779.68 362.07 778.24 362.39 776.79 C 362.59 777.72 363.01 779.58 363.22 780.51 C 365.70 778.56 365.40 775.21 365.82 772.40 C 365.95 769.53 367.26 765.81 364.00 764.20 C 364.52 758.81 364.10 753.34 365.25 748.02 C 366.57 741.16 365.13 734.20 365.56 727.32 C 366.58 721.09 366.66 714.75 367.87 708.53 C 370.74 703.44 370.07 697.47 370.81 691.89 C 372.19 683.32 371.72 674.62 372.09 665.99 C 371.01 653.96 374.68 642.02 372.94 630.01 C 371.74 623.55 371.29 616.90 372.14 610.39 C 372.52 609.00 372.95 607.64 373.38 606.29 Z" />
<path fill="#f6b228" d=" M 519.68 607.96 C 519.38 606.30 521.30 604.44 522.61 606.24 C 523.06 611.06 522.57 615.91 522.69 620.75 C 525.32 620.95 528.64 620.07 530.56 622.45 C 532.93 625.53 533.27 629.90 532.36 633.55 C 529.10 637.05 522.64 638.24 518.75 635.17 C 520.01 632.26 519.22 629.06 519.54 626.00 C 519.94 619.99 519.61 613.97 519.68 607.96 Z" />
<path fill="#f5f4f0" d=" M 601.42 614.89 C 601.86 611.13 603.75 607.62 606.80 605.35 C 609.23 605.51 611.50 606.38 613.61 607.57 C 614.61 612.02 614.06 616.61 613.64 621.11 C 613.36 624.05 610.46 625.72 608.43 627.48 C 606.92 629.03 604.32 628.73 603.05 627.05 C 599.92 623.79 600.84 618.92 601.42 614.89 Z" />
<path fill="#f5f4f0" d=" M 252.31 607.37 C 255.84 607.88 260.07 610.02 260.32 614.00 C 261.04 618.25 255.42 619.27 252.36 619.73 C 251.59 615.65 251.63 611.45 252.31 607.37 Z" />
<path fill="#000000" d=" M 273.81 606.82 C 280.33 606.38 286.94 606.22 293.39 607.46 C 294.54 610.00 294.45 612.81 294.32 615.54 C 290.99 616.00 290.38 611.42 288.56 609.41 C 286.30 609.04 284.02 608.75 281.73 608.66 C 281.50 617.62 282.44 626.68 280.57 635.53 C 279.00 635.92 277.42 636.31 275.86 636.70 C 274.88 635.79 273.97 634.83 273.12 633.82 C 273.79 633.63 275.12 633.27 275.79 633.08 C 275.39 625.23 277.21 617.52 277.24 609.69 C 275.88 608.97 273.97 608.69 273.81 606.82 Z" />
<path fill="#000000" d=" M 305.70 610.52 C 310.05 606.36 318.39 606.54 321.67 611.94 C 320.39 613.33 320.23 616.80 317.80 616.28 C 316.59 614.70 317.41 612.41 317.25 610.58 C 315.29 610.37 313.34 610.22 311.39 610.10 C 311.98 614.87 309.69 619.27 309.20 623.93 C 308.70 627.10 308.87 630.31 308.73 633.51 C 310.71 634.16 312.80 635.17 314.94 634.66 C 316.47 633.96 317.77 632.87 319.15 631.94 C 316.74 631.68 316.86 629.23 317.63 627.51 C 319.25 627.72 320.45 628.92 321.81 629.71 C 321.68 633.81 317.76 636.65 314.04 637.36 C 312.27 637.17 310.56 636.66 308.83 636.29 C 306.99 635.19 304.85 634.29 303.70 632.38 C 303.17 630.64 303.13 628.80 302.89 627.02 C 303.84 621.52 302.14 615.33 305.70 610.52 Z" />
<path fill="#333232" d=" M 279.25 609.23 C 279.79 609.70 279.79 609.70 279.25 609.23 Z" />
<path fill="#f6b124" d=" M 577.28 616.69 C 580.74 614.55 581.82 618.97 583.22 621.23 C 584.58 619.55 585.57 614.91 588.42 616.83 C 588.38 619.57 585.94 621.59 585.23 624.19 C 585.43 626.49 589.41 629.06 586.04 630.51 C 584.82 629.89 584.05 627.61 582.47 628.37 C 581.17 630.01 581.00 632.71 578.94 633.60 C 578.55 633.23 577.76 632.49 577.37 632.12 C 578.35 629.28 579.97 626.74 581.46 624.16 C 579.97 621.72 578.57 619.23 577.28 616.69 Z" />
<path fill="#000000" d=" M 286.92 619.27 C 287.76 618.91 288.60 618.55 289.45 618.18 C 290.76 620.34 289.78 622.64 288.72 624.67 C 287.21 625.13 286.80 623.65 286.20 622.64 C 284.89 622.54 283.58 622.45 282.27 622.37 C 282.25 621.46 282.23 620.55 282.22 619.66 C 283.78 619.52 285.35 619.39 286.92 619.27 Z" />
<path fill="#f5f4f0" d=" M 522.57 624.43 C 524.66 624.00 527.45 622.86 528.89 625.16 C 530.00 627.31 530.18 630.15 529.49 632.45 C 526.97 633.81 523.67 634.93 521.02 633.29 C 522.43 630.54 522.54 627.45 522.57 624.43 Z" />
<path fill="#f6c460" d=" M 537.25 631.19 C 537.95 631.18 539.33 631.14 540.02 631.12 C 540.07 631.88 540.17 633.41 540.21 634.18 C 539.43 634.14 537.85 634.07 537.06 634.04 C 537.11 633.33 537.21 631.91 537.25 631.19 Z" />
<path fill="#0f37fe" d=" M 872.72 646.71 C 875.92 643.48 877.85 639.29 879.90 635.30 C 881.46 635.99 883.00 636.77 884.46 637.70 C 885.30 644.42 883.82 651.06 882.37 657.57 C 880.31 657.80 878.17 657.22 876.19 657.72 C 873.48 663.24 870.07 668.40 866.16 673.14 C 858.93 680.94 849.46 686.03 840.39 691.34 C 833.90 694.83 826.67 696.55 819.66 698.66 C 811.44 700.67 803.30 703.27 794.81 703.80 C 786.59 704.86 778.30 704.40 770.05 704.50 C 761.64 704.60 753.00 704.55 744.96 701.86 C 736.14 698.28 726.69 696.24 718.34 691.58 C 715.99 690.31 713.92 688.60 711.53 687.42 C 704.94 684.64 698.92 680.74 692.62 677.41 C 686.07 674.46 681.01 669.13 674.32 666.43 C 674.32 665.85 674.31 664.68 674.31 664.10 C 680.87 664.64 685.28 670.23 690.78 673.17 C 697.29 676.36 703.38 680.34 709.94 683.43 C 714.71 685.26 718.55 688.79 723.23 690.83 C 729.38 693.51 735.82 695.43 742.14 697.65 C 749.86 701.31 758.59 701.71 767.00 701.65 C 780.08 701.50 793.37 702.32 806.22 699.25 C 816.84 696.50 827.66 694.13 837.71 689.64 C 846.83 684.37 856.33 679.31 863.69 671.63 C 867.65 667.05 870.74 661.82 873.73 656.59 C 872.36 656.19 871.02 655.85 869.68 655.48 C 868.90 654.59 868.12 653.71 867.36 652.84 C 869.02 650.69 870.81 648.65 872.72 646.71 Z" />
<path fill="#13b824" d=" M 557.83 640.61 C 558.75 640.59 559.68 640.58 560.62 640.58 C 560.42 645.79 559.21 650.88 558.27 655.99 C 556.75 664.67 553.12 673.01 553.26 681.95 C 553.17 683.39 552.89 686.77 550.51 685.28 C 549.76 674.92 553.99 665.12 555.70 655.05 C 553.38 657.77 550.92 660.42 547.98 662.48 C 546.33 662.39 545.52 660.17 547.05 659.35 C 553.12 655.01 557.11 648.04 557.83 640.61 Z" />
<path fill="#13b824" d=" M 606.25 643.17 C 606.75 641.60 608.39 642.54 609.48 642.63 C 610.52 654.14 610.17 665.77 612.43 677.17 C 605.21 679.51 597.45 677.77 589.99 678.36 C 588.98 677.57 587.92 676.86 587.03 675.96 C 587.58 671.95 590.79 669.05 592.74 665.68 C 597.78 658.49 601.34 650.43 606.25 643.17 Z" />
<path fill="#f5f4f0" d=" M 601.90 655.96 C 603.42 653.17 604.63 650.06 607.14 647.97 C 607.09 657.13 608.41 666.19 608.81 675.32 C 602.58 675.36 596.35 675.53 590.13 675.40 C 593.89 668.82 598.45 662.72 601.90 655.96 Z" />
<path fill="#3a3a39" d=" M 249.38 654.37 C 249.84 654.44 250.74 654.58 251.20 654.65 C 251.12 657.34 251.13 660.03 251.29 662.73 C 250.77 662.74 249.75 662.77 249.23 662.78 C 249.16 659.97 249.20 657.17 249.38 654.37 Z" />
<path fill="#070707" d=" M 298.82 654.78 C 299.28 654.73 300.20 654.64 300.66 654.60 C 300.44 656.65 300.85 659.16 299.12 660.68 C 296.18 660.19 298.78 656.65 298.82 654.78 Z" />
<path fill="#363535" d=" M 254.57 655.62 C 255.05 655.60 256.02 655.57 256.50 655.56 C 256.22 658.37 256.29 661.21 255.97 664.03 C 255.73 665.25 254.12 665.88 253.28 664.89 C 253.77 661.80 254.26 658.72 254.57 655.62 Z" />
<path fill="#1b1b1b" d=" M 291.87 655.85 C 292.31 655.70 293.18 655.39 293.62 655.24 C 294.01 656.97 294.25 658.73 294.39 660.51 C 294.05 660.78 293.37 661.32 293.03 661.59 C 292.69 661.34 291.99 660.84 291.65 660.59 C 291.72 659.00 291.80 657.43 291.87 655.85 Z" />
<path fill="#0d0d0d" d=" M 319.29 661.50 C 319.52 659.24 319.12 656.38 321.43 655.07 C 321.52 657.13 321.41 659.20 321.31 661.26 C 320.80 661.32 319.80 661.44 319.29 661.50 Z" />
<path fill="#0c0c0c" d=" M 243.32 656.42 C 243.78 656.50 244.71 656.68 245.17 656.77 C 245.25 659.05 245.40 661.34 245.59 663.64 C 245.07 663.59 244.03 663.51 243.52 663.46 C 243.30 661.12 243.24 658.76 243.32 656.42 Z" />
<path fill="#252524" d=" M 267.47 655.18 C 270.38 656.37 269.12 659.82 269.67 662.19 C 270.73 661.05 271.79 659.93 272.85 658.80 C 273.18 658.76 273.85 658.68 274.18 658.64 C 274.99 660.47 278.35 663.22 275.15 664.60 C 274.37 663.53 273.60 662.46 272.85 661.39 C 271.72 662.61 270.52 663.77 269.09 664.64 C 268.20 663.35 267.00 662.45 265.44 662.20 C 264.46 660.44 265.52 658.79 267.32 658.36 C 267.36 657.56 267.43 655.98 267.47 655.18 Z" />
<path fill="#0d0d0d" d=" M 327.38 656.64 C 330.84 656.28 333.59 658.59 336.59 659.87 C 337.40 661.99 334.90 661.63 333.84 661.30 C 332.28 660.92 331.28 659.58 330.15 658.58 C 329.42 658.53 327.96 658.43 327.23 658.37 C 327.27 657.94 327.35 657.07 327.38 656.64 Z" />
<path fill="#323231" d=" M 231.33 657.42 C 232.78 657.29 234.25 657.27 235.71 657.35 C 235.56 658.67 235.41 659.99 235.27 661.32 C 234.05 661.18 232.56 661.61 231.67 660.51 C 231.46 659.48 231.34 658.45 231.33 657.42 Z" />
<path fill="#222221" d=" M 261.87 658.96 C 260.78 657.72 263.76 656.35 263.66 658.00 C 264.90 660.27 264.02 662.78 263.41 665.10 C 261.57 663.65 262.27 660.97 261.87 658.96 Z" />
<path fill="#040404" d=" M 285.78 657.75 C 286.22 657.67 287.10 657.51 287.53 657.43 C 287.58 659.10 287.62 660.78 287.65 662.47 C 287.06 662.48 285.89 662.50 285.31 662.51 C 285.43 660.91 285.60 659.33 285.78 657.75 Z" />
<path fill="#111010" d=" M 301.74 656.36 C 302.83 656.78 303.62 657.53 304.12 658.63 C 305.90 658.46 307.48 657.01 309.41 657.63 C 309.49 658.22 309.67 659.38 309.76 659.96 C 307.33 659.82 305.37 661.57 303.05 661.67 C 300.65 661.11 301.96 658.00 301.74 656.36 Z" />
<path fill="#090909" d=" M 322.87 657.04 C 324.37 655.89 325.63 658.62 324.50 659.63 C 322.97 660.82 321.59 658.05 322.87 657.04 Z" />
<path fill="#2f2f2f" d=" M 279.39 658.34 C 280.39 658.39 281.40 658.45 282.41 658.53 C 282.44 659.12 282.50 660.29 282.53 660.88 C 281.55 661.12 280.56 661.34 279.59 661.59 C 279.51 660.50 279.45 659.42 279.39 658.34 Z" />
<path fill="#070707" d=" M 314.55 658.41 C 315.05 658.40 316.05 658.37 316.55 658.35 C 316.67 660.06 317.28 662.38 314.78 661.42 C 314.70 660.41 314.62 659.41 314.55 658.41 Z" />
<path fill="#0db71e" d=" M 568.28 660.23 C 568.91 660.26 570.18 660.33 570.81 660.37 C 571.71 662.94 572.32 665.65 573.83 667.98 C 575.57 665.79 577.15 663.48 578.87 661.28 L 580.24 661.34 C 582.18 665.08 576.15 667.51 575.59 670.91 C 576.48 672.72 577.57 674.49 577.83 676.54 C 577.21 676.59 575.96 676.70 575.34 676.76 C 574.75 675.49 574.17 674.23 573.58 672.98 C 570.59 674.18 569.85 679.70 566.12 678.25 C 566.00 674.68 569.84 672.87 571.57 670.12 C 569.84 667.06 568.09 663.86 568.28 660.23 Z" />
<path fill="#13b824" d=" M 512.51 674.98 C 512.17 666.86 521.03 661.61 528.37 662.65 C 528.55 663.66 528.73 664.68 528.91 665.70 C 524.76 665.36 520.23 666.11 517.38 669.44 C 515.45 671.19 515.50 673.91 515.30 676.31 C 518.02 677.73 521.15 677.90 524.01 676.74 C 526.08 675.30 526.63 679.43 524.64 679.52 C 520.56 681.51 512.62 680.77 512.51 674.98 Z" />
<path fill="#080808" d=" M 277.56 678.26 C 278.76 675.05 277.29 670.42 280.49 668.39 C 281.22 671.75 279.90 675.18 279.44 678.52 C 278.97 678.46 278.03 678.32 277.56 678.26 Z" />
<path fill="#070707" d=" M 295.67 668.61 C 296.14 668.55 297.07 668.43 297.54 668.37 C 297.47 670.72 297.33 673.07 297.22 675.43 C 296.73 675.51 295.75 675.67 295.26 675.75 C 295.41 673.36 295.56 670.99 295.67 668.61 Z" />
<path fill="#1e1e1e" d=" M 299.57 668.24 C 300.02 668.25 300.91 668.29 301.35 668.31 C 301.30 671.00 301.26 673.70 301.35 676.41 C 300.84 676.47 299.82 676.58 299.32 676.64 C 299.44 673.84 299.54 671.04 299.57 668.24 Z" />
<path fill="#070707" d=" M 282.36 675.65 C 282.99 673.14 282.49 669.66 285.30 668.39 C 285.36 670.52 285.06 672.67 285.21 674.81 C 286.65 673.42 286.12 670.89 286.82 669.09 L 288.10 669.95 C 287.80 673.38 286.56 676.71 286.25 680.18 L 284.35 680.72 C 284.90 678.97 285.09 677.38 284.90 675.96 C 284.26 675.88 283.00 675.73 282.36 675.65 Z" />
<path fill="#070707" d=" M 319.91 668.92 C 320.71 669.88 322.83 670.34 322.45 671.92 C 321.90 674.04 321.40 676.27 320.02 678.05 C 319.83 675.01 319.09 671.93 319.91 668.92 Z" />
<path fill="#090909" d=" M 325.69 669.66 C 326.20 669.55 327.24 669.32 327.76 669.20 C 327.68 671.88 327.57 674.56 327.41 677.24 C 326.95 677.25 326.03 677.26 325.57 677.27 C 325.35 674.73 325.45 672.19 325.69 669.66 Z" />
<path fill="#4f4f4e" d=" M 329.35 674.52 C 329.24 672.57 329.49 670.42 331.06 669.08 C 331.41 670.85 332.35 672.03 334.26 671.91 C 334.35 673.30 334.31 674.70 334.14 676.11 C 332.39 676.41 330.86 675.18 329.35 674.52 Z" />
<path fill="#141414" d=" M 311.57 677.50 C 311.97 674.92 311.44 670.75 314.56 669.90 C 314.35 672.40 314.18 674.92 314.12 677.44 C 313.27 677.45 312.42 677.47 311.57 677.50 Z" />
<path fill="#090909" d=" M 251.33 676.82 C 251.74 674.75 250.80 671.45 253.62 670.94 C 253.61 671.76 253.61 673.39 253.60 674.21 C 254.38 673.99 255.16 673.78 255.94 673.57 C 256.42 673.84 257.36 674.37 257.84 674.63 C 258.36 677.25 254.31 677.30 255.01 674.37 C 254.08 675.60 252.95 676.67 251.33 676.82 Z" />
<path fill="#090909" d=" M 289.69 671.57 C 290.19 671.50 291.18 671.35 291.68 671.27 C 291.68 674.01 291.58 676.76 291.46 679.51 C 290.91 679.52 289.82 679.55 289.28 679.56 C 289.65 676.91 289.78 674.24 289.69 671.57 Z" />
<path fill="#070707" d=" M 316.46 671.42 C 316.92 671.40 317.84 671.38 318.30 671.37 C 318.55 673.26 318.99 675.11 319.53 676.95 C 315.14 678.29 316.82 673.62 316.46 671.42 Z" />
<path fill="#020202" d=" M 243.67 673.14 C 245.39 674.14 245.68 676.00 245.75 677.85 C 242.75 678.19 243.56 675.08 243.67 673.14 Z" />
<path fill="#313130" d=" M 232.14 675.11 C 233.15 674.15 234.54 675.39 235.64 675.52 C 235.41 676.79 235.99 678.65 234.45 679.27 C 233.52 679.35 232.59 679.41 231.65 679.43 C 231.56 678.00 230.41 675.95 232.14 675.11 Z" />
<path fill="#313130" d=" M 262.68 676.58 C 263.84 675.54 265.02 674.51 266.41 673.81 L 266.34 675.58 C 267.73 675.46 269.12 675.46 270.52 675.57 C 270.52 677.31 269.76 679.14 267.66 678.57 C 267.32 677.94 266.64 676.67 266.30 676.04 C 265.17 677.20 264.06 678.39 262.95 679.58 C 262.34 679.52 261.12 679.39 260.52 679.32 C 260.10 677.56 260.64 675.93 262.29 675.06 L 262.68 676.58 Z" />
<path fill="#2f2f2f" d=" M 272.55 676.07 C 271.50 673.77 274.64 674.49 275.79 674.01 C 275.76 675.24 275.71 676.48 275.66 677.73 C 274.63 677.21 272.07 678.01 272.55 676.07 Z" />
<path fill="#14b825" d=" M 529.50 675.63 C 529.98 675.64 530.94 675.67 531.43 675.69 C 531.53 676.63 531.65 677.59 531.76 678.56 C 531.11 678.57 529.82 678.59 529.17 678.59 C 529.27 677.60 529.38 676.61 529.50 675.63 Z" />
<path fill="#191818" d=" M 303.61 683.32 C 305.85 684.63 302.81 689.69 305.62 690.79 L 306.04 690.21 C 306.55 688.28 307.00 686.15 308.71 684.90 C 308.80 687.41 308.23 689.87 307.64 692.30 C 305.78 691.81 303.86 691.68 301.95 691.73 C 302.54 688.93 302.13 685.84 303.61 683.32 Z" />
<path fill="#020202" d=" M 299.97 684.16 C 301.38 686.38 301.25 689.12 301.48 691.66 C 299.79 691.55 298.09 691.69 296.60 692.58 C 295.93 689.36 299.08 687.03 299.97 684.16 Z" />
<path fill="#191818" d=" M 331.23 690.10 C 331.60 687.89 332.07 685.55 333.73 683.93 C 333.77 686.45 333.35 688.95 333.10 691.46 C 332.00 691.62 330.56 691.72 331.23 690.10 Z" />
<path fill="#2b2a2a" d=" M 245.36 686.39 C 245.85 686.40 246.83 686.41 247.32 686.42 C 246.85 689.58 246.82 692.82 246.00 695.93 L 245.84 695.05 C 244.20 694.91 242.55 694.86 240.91 694.83 C 241.00 692.99 240.29 690.90 241.25 689.24 C 243.50 688.58 243.64 692.05 242.75 693.30 C 243.55 693.14 244.35 692.98 245.16 692.83 C 244.54 690.68 245.01 688.51 245.36 686.39 Z" />
<path fill="#090909" d=" M 319.50 686.37 C 319.99 686.39 320.98 686.41 321.48 686.42 C 320.63 688.16 321.43 691.86 318.66 691.55 C 318.91 689.80 319.20 688.09 319.50 686.37 Z" />
<path fill="#070707" d=" M 324.73 686.49 C 325.15 686.47 325.99 686.44 326.41 686.42 C 325.95 688.19 325.55 689.98 325.22 691.80 C 324.66 691.80 323.53 691.79 322.97 691.79 C 323.53 690.01 324.13 688.25 324.73 686.49 Z" />
<path fill="#141414" d=" M 337.57 686.50 C 338.03 686.53 338.94 686.60 339.39 686.63 C 339.34 687.79 339.29 688.95 339.25 690.12 C 340.98 690.67 340.70 692.44 340.88 693.87 C 339.29 693.68 337.16 694.12 336.63 692.10 C 336.78 690.20 337.21 688.35 337.57 686.50 Z" />
<path fill="#0d0d0d" d=" M 249.88 687.87 C 250.24 687.53 250.97 686.87 251.34 686.54 C 251.75 689.69 251.15 692.85 250.23 695.87 C 247.34 694.16 249.76 690.44 249.88 687.87 Z" />
<path fill="#070707" d=" M 264.53 687.25 C 265.03 687.36 266.01 687.57 266.50 687.68 C 266.43 689.12 266.36 690.57 266.30 692.02 C 266.87 690.51 267.40 688.98 268.03 687.51 C 269.62 689.76 268.28 692.45 267.31 694.63 C 266.39 694.06 265.42 693.54 264.46 693.08 C 264.51 691.29 264.54 689.52 264.54 687.75 L 264.53 687.25 Z" />
<path fill="#0d0c0c" d=" M 276.69 687.16 C 277.93 687.32 279.17 687.52 280.42 687.71 C 280.47 688.51 280.51 689.32 280.56 690.15 C 278.68 690.68 278.07 692.63 276.74 693.85 C 275.21 691.85 276.60 689.38 276.69 687.16 Z" />
<path fill="#0b0b0b" d=" M 292.42 687.25 C 292.89 687.35 293.83 687.56 294.30 687.66 C 294.29 689.09 294.27 690.54 294.23 691.99 C 292.11 693.08 290.30 695.31 287.66 694.49 C 287.61 693.56 287.56 692.64 287.51 691.72 C 288.86 690.81 290.41 690.34 292.04 690.30 C 292.14 689.54 292.32 688.02 292.42 687.25 Z" />
<path fill="#292828" d=" M 318.29 691.56 C 314.15 693.32 316.06 687.74 316.80 685.80 C 318.75 687.04 318.51 689.59 318.29 691.56 Z" />
<path fill="#4a5153" d=" M 264.46 693.08 C 263.16 691.52 263.94 689.43 264.54 687.75 C 264.54 689.52 264.51 691.29 264.46 693.08 Z" />
<path fill="#040404" d=" M 271.57 689.21 C 272.04 689.21 273.00 689.22 273.47 689.22 C 273.57 691.04 273.65 692.87 273.70 694.71 C 273.11 694.70 271.93 694.66 271.34 694.64 C 271.39 692.82 271.48 691.01 271.57 689.21 Z" />
<path fill="#111110" d=" M 254.36 690.24 C 256.22 690.63 255.05 694.25 253.86 695.07 C 252.55 694.03 253.26 691.29 254.36 690.24 Z" />
<path fill="#232222" d=" M 230.60 693.62 C 231.95 693.53 233.87 692.68 234.82 694.10 C 236.26 695.41 234.95 697.25 234.32 698.59 C 233.24 698.31 231.81 698.79 231.02 697.87 C 229.74 696.79 230.66 695.01 230.60 693.62 Z" />
<path fill="#090909" d=" M 209.54 703.18 L 211.26 703.27 C 211.77 721.19 211.59 739.18 209.58 757.02 C 208.91 764.44 210.15 772.02 208.67 779.35 C 214.37 779.53 219.87 781.36 225.60 781.41 C 225.79 781.66 226.19 782.16 226.38 782.41 C 219.80 783.59 213.34 781.62 206.78 781.71 C 207.61 778.83 206.85 775.90 206.92 773.00 C 207.84 762.63 208.11 752.23 209.36 741.90 C 209.13 728.99 209.11 716.08 209.54 703.18 Z" />
<path fill="#0a0a0a" d=" M 246.84 705.26 C 248.26 705.20 248.01 706.43 248.83 707.12 C 251.78 708.21 250.77 713.26 248.47 714.78 C 248.25 712.85 248.62 710.81 247.86 709.00 C 245.21 709.71 247.24 714.45 244.18 715.29 C 243.70 711.68 245.89 708.59 246.84 705.26 Z" />
<path fill="#1b1b1a" d=" M 328.95 705.22 C 329.32 705.50 330.05 706.08 330.41 706.36 C 330.20 707.99 329.97 709.61 329.76 711.25 C 331.94 711.14 333.71 712.28 335.20 713.76 C 336.35 710.97 336.75 707.94 338.00 705.20 C 338.32 705.81 338.96 707.02 339.28 707.63 C 339.87 707.51 341.05 707.28 341.64 707.16 C 341.30 709.48 341.69 713.80 338.79 714.32 C 338.18 712.47 338.84 710.53 338.79 708.66 C 337.73 710.93 337.04 713.34 336.22 715.70 C 335.03 714.96 333.87 714.17 332.75 713.34 L 332.37 715.12 C 330.99 714.56 329.64 713.96 328.30 713.34 C 328.15 710.61 328.06 707.83 328.95 705.22 Z" />
<path fill="#313130" d=" M 281.28 708.68 C 283.55 708.40 286.67 705.83 288.27 708.62 C 289.46 707.82 290.77 707.41 292.21 707.61 C 292.23 708.52 292.25 709.43 292.28 710.36 C 290.82 710.64 289.48 710.31 288.31 709.41 C 286.13 710.47 283.93 711.65 281.45 711.77 C 281.38 710.73 281.33 709.70 281.28 708.68 Z" />
<path fill="#191818" d=" M 311.54 707.38 C 311.99 707.44 312.87 707.56 313.31 707.61 C 313.29 708.96 313.27 710.31 313.25 711.68 C 312.71 711.72 311.63 711.81 311.08 711.86 C 311.22 710.35 311.37 708.86 311.54 707.38 Z" />
<path fill="#353534" d=" M 316.88 707.72 C 317.31 707.66 318.18 707.55 318.61 707.49 C 318.53 708.74 318.44 710.00 318.35 711.26 C 320.92 711.15 321.07 713.73 320.42 715.57 C 316.98 716.24 316.63 712.53 315.77 710.11 C 316.05 709.51 316.60 708.32 316.88 707.72 Z" />
<path fill="#070707" d=" M 324.86 706.13 C 326.51 707.23 326.79 709.19 327.35 710.94 C 327.43 712.53 327.59 714.12 327.75 715.72 C 326.57 715.70 325.41 715.70 324.24 715.69 C 325.05 712.54 324.27 709.29 324.86 706.13 Z" />
<path fill="#020202" d=" M 240.42 714.49 C 240.56 711.76 240.67 708.96 241.92 706.47 C 243.60 708.87 242.41 711.99 242.56 714.72 C 242.03 714.66 240.96 714.55 240.42 714.49 Z" />
<path fill="#161615" d=" M 255.61 708.68 C 256.02 708.68 256.84 708.68 257.25 708.69 C 257.53 709.16 258.10 710.10 258.38 710.58 C 258.32 711.00 258.20 711.83 258.14 712.25 C 257.59 712.27 256.47 712.31 255.92 712.32 C 255.35 713.56 254.44 714.56 253.15 715.05 C 253.46 712.75 254.51 710.67 255.61 708.68 Z" />
<path fill="#181817" d=" M 303.03 709.27 C 304.51 709.22 306.00 709.27 307.49 709.39 C 307.50 710.69 307.41 711.99 307.35 713.30 C 305.43 712.94 303.78 713.74 302.84 715.48 C 301.31 715.49 299.80 715.22 298.27 715.28 C 297.92 713.64 297.75 711.96 297.69 710.30 C 298.08 710.27 298.85 710.20 299.23 710.17 C 299.65 711.58 300.09 712.98 300.55 714.40 C 302.22 713.10 302.53 711.14 303.03 709.27 Z" />
<path fill="#272726" d=" M 260.64 710.79 C 262.62 710.75 265.69 708.95 266.05 712.07 C 266.53 711.57 267.47 710.58 267.94 710.08 C 269.44 710.65 269.48 712.16 269.56 713.53 C 268.22 713.62 267.03 713.17 266.07 712.25 C 264.39 712.86 262.80 715.01 260.89 714.14 C 259.97 713.24 260.66 711.86 260.64 710.79 Z" />
<path fill="#313130" d=" M 231.64 711.65 C 232.82 711.59 234.01 711.53 235.20 711.49 C 235.54 712.10 236.24 713.31 236.58 713.91 C 236.28 714.59 235.68 715.96 235.37 716.64 C 234.09 716.59 232.82 716.53 231.55 716.47 C 231.24 714.86 231.26 713.24 231.64 711.65 Z" />
<path fill="#424141" d=" M 276.80 710.65 C 279.40 708.96 281.80 712.86 279.10 714.35 C 276.69 715.07 275.45 712.50 276.80 710.65 Z" />
<path fill="#2f2f2f" d=" M 272.57 713.38 C 273.43 712.26 274.59 712.10 276.04 712.89 C 276.97 714.38 275.99 717.17 273.94 716.41 C 272.30 716.75 272.10 714.39 272.57 713.38 Z" />
<path fill="#0d0d0d" d=" M 364.01 721.54 C 364.60 723.44 365.17 725.35 365.56 727.32 C 365.13 734.20 366.57 741.16 365.25 748.02 C 364.10 753.34 364.52 758.81 364.00 764.20 C 363.45 768.39 362.80 772.57 362.39 776.79 C 362.07 778.24 361.71 779.68 361.33 781.12 C 356.42 782.94 351.16 782.80 346.02 782.49 C 320.52 782.04 295.01 782.22 269.52 782.63 C 255.14 782.69 240.76 782.27 226.38 782.41 C 226.19 782.16 225.79 781.66 225.60 781.41 C 248.39 781.52 271.19 781.89 293.99 781.38 C 315.81 781.25 337.65 781.88 359.42 780.26 C 360.41 771.84 362.40 763.50 362.31 754.98 C 362.19 748.48 364.78 742.07 363.30 735.56 C 361.94 730.91 363.56 726.19 364.01 721.54 Z" />
<path fill="#323231" d=" M 271.97 731.94 C 272.25 729.38 270.17 724.00 274.23 724.10 C 274.19 726.50 274.14 728.91 274.15 731.32 C 273.60 731.48 272.51 731.78 271.97 731.94 Z" />
<path fill="#010101" d=" M 328.65 724.64 C 329.13 724.60 330.07 724.53 330.55 724.49 C 330.55 726.17 330.54 727.86 330.51 729.56 C 329.96 729.55 328.88 729.54 328.34 729.53 C 328.40 727.89 328.51 726.26 328.65 724.64 Z" />
<path fill="#0d0d0d" d=" M 253.18 725.44 C 253.49 725.90 254.10 726.83 254.41 727.30 C 255.37 727.25 256.33 727.22 257.29 727.20 C 257.26 729.10 257.24 731.01 257.23 732.92 C 253.51 733.23 256.38 728.83 254.07 727.12 C 253.22 728.53 254.72 734.56 251.47 732.47 C 251.87 730.10 252.00 727.57 253.18 725.44 Z" />
<path fill="#151514" d=" M 261.61 725.46 C 262.05 725.56 262.93 725.77 263.36 725.87 C 263.04 728.48 262.68 731.10 262.03 733.66 C 261.64 733.40 260.86 732.88 260.47 732.62 C 260.67 730.20 261.03 727.81 261.61 725.46 Z" />
<path fill="#191818" d=" M 268.40 724.99 C 271.73 724.96 269.57 729.28 269.24 731.22 L 267.55 731.46 C 267.77 729.29 268.07 727.14 268.40 724.99 Z" />
<path fill="#0d0d0d" d=" M 277.63 725.58 C 278.12 725.56 279.10 725.50 279.59 725.48 C 279.65 727.53 279.65 729.60 279.61 731.67 C 279.10 731.66 278.07 731.62 277.56 731.60 C 277.57 729.59 277.58 727.58 277.63 725.58 Z" />
<path fill="#272727" d=" M 342.35 729.72 C 342.61 727.99 341.86 725.63 343.82 724.72 C 344.37 726.37 345.97 726.93 347.44 727.55 C 347.41 728.06 347.36 729.08 347.33 729.59 C 345.67 729.64 344.01 729.69 342.35 729.72 Z" />
<path fill="#191918" d=" M 241.49 726.47 C 242.11 726.71 242.71 726.98 243.32 727.27 C 243.28 730.01 243.35 732.75 243.51 735.49 C 243.02 735.49 242.05 735.47 241.56 735.47 C 241.65 732.47 240.88 729.42 241.49 726.47 Z" />
<path fill="#222221" d=" M 246.61 733.19 C 246.95 730.75 246.09 727.12 248.80 725.84 C 248.81 728.38 248.65 730.93 248.43 733.47 C 247.97 733.40 247.06 733.26 246.61 733.19 Z" />
<path fill="#070707" d=" M 282.37 732.35 C 282.14 730.01 282.51 727.56 284.49 726.06 C 284.65 728.08 284.48 730.12 284.21 732.14 C 283.75 732.19 282.83 732.30 282.37 732.35 Z" />
<path fill="#090909" d=" M 293.47 726.32 C 293.95 726.39 294.93 726.53 295.42 726.60 C 295.39 727.48 295.34 729.24 295.31 730.12 C 295.94 729.06 296.57 728.01 297.22 726.97 C 298.03 728.52 297.88 730.23 297.28 731.82 C 295.72 731.57 294.15 731.41 292.58 731.24 C 292.73 729.57 293.04 727.93 293.47 726.32 Z" />
<path fill="#0d0d0d" d=" M 299.25 731.38 C 300.21 729.46 300.06 726.01 302.93 725.96 C 302.49 727.95 301.97 729.94 301.41 731.91 C 300.87 731.78 299.79 731.51 299.25 731.38 Z" />
<path fill="#111111" d=" M 317.76 731.20 C 314.13 732.27 314.04 727.33 315.79 725.55 C 316.54 726.37 317.38 727.09 318.32 727.72 L 318.88 725.56 C 320.35 727.43 319.77 729.94 319.77 732.14 C 319.28 732.11 318.31 732.06 317.82 732.03 C 318.55 730.59 317.73 729.24 316.96 728.12 L 317.76 731.20 Z" />
<path fill="#0d0d0d" d=" M 322.68 726.55 C 323.15 726.46 324.07 726.28 324.54 726.19 C 324.78 727.97 325.06 729.77 325.34 731.56 C 324.45 731.61 323.57 731.67 322.70 731.74 C 322.67 730.00 322.68 728.28 322.68 726.55 Z" />
<path fill="#0e0e0e" d=" M 337.44 733.53 C 337.41 731.06 336.43 727.41 339.29 726.23 C 339.42 728.63 339.46 731.04 339.57 733.46 C 339.04 733.48 337.98 733.52 337.44 733.53 Z" />
<path fill="#020202" d=" M 287.44 727.10 C 289.75 726.78 289.43 729.31 289.81 730.81 C 289.26 730.80 288.15 730.77 287.60 730.76 C 287.54 729.53 287.48 728.31 287.44 727.10 Z" />
<path fill="#313130" d=" M 231.42 729.43 C 232.81 729.39 234.20 729.37 235.59 729.39 C 235.62 730.79 235.62 732.19 235.61 733.60 C 234.21 733.61 232.82 733.61 231.44 733.60 C 231.40 732.20 231.40 730.81 231.42 729.43 Z" />
<path fill="#0e0e0e" d=" M 312.65 739.73 C 313.06 739.69 313.87 739.60 314.27 739.56 C 314.29 742.13 314.32 744.70 314.38 747.28 C 313.88 747.36 312.89 747.52 312.39 747.59 C 311.90 744.99 311.95 742.28 312.65 739.73 Z" />
<path fill="#070707" d=" M 322.69 743.98 C 323.10 742.84 322.70 740.11 324.48 740.32 C 326.00 742.80 324.25 745.84 324.42 748.58 C 321.55 748.90 322.85 745.54 322.69 743.98 Z" />
<path fill="#111111" d=" M 249.42 741.41 C 249.91 741.50 250.89 741.68 251.38 741.77 C 250.95 743.86 252.47 748.19 249.12 748.03 C 249.10 745.81 249.20 743.60 249.42 741.41 Z" />
<path fill="#1a1a19" d=" M 289.24 747.55 C 288.90 745.28 287.61 740.60 291.29 741.13 C 291.26 743.14 291.23 745.15 291.19 747.17 C 290.70 747.27 289.73 747.46 289.24 747.55 Z" />
<path fill="#121212" d=" M 293.69 741.37 C 294.21 741.35 295.26 741.31 295.78 741.29 C 296.32 743.10 297.04 744.84 297.74 746.59 C 296.65 746.62 295.57 746.65 294.48 746.68 C 294.11 744.92 293.85 743.14 293.69 741.37 Z" />
<path fill="#090909" d=" M 262.44 742.45 C 262.92 742.52 263.87 742.65 264.35 742.72 C 264.38 744.28 264.41 745.86 264.44 747.44 C 263.88 747.53 262.75 747.70 262.18 747.79 C 262.18 746.00 262.27 744.22 262.44 742.45 Z" />
<path fill="#020202" d=" M 282.55 743.46 C 282.90 743.18 283.60 742.63 283.95 742.35 C 284.57 744.47 284.65 746.69 284.68 748.90 C 284.13 748.87 283.05 748.79 282.50 748.76 C 282.50 746.98 282.51 745.22 282.55 743.46 Z" />
<path fill="#070707" d=" M 299.50 742.53 C 299.96 742.52 300.89 742.51 301.35 742.50 C 301.45 743.32 301.64 744.95 301.74 745.76 C 303.10 745.16 304.51 744.96 304.81 746.76 C 304.14 746.71 302.80 746.60 302.12 746.55 C 301.43 747.26 300.58 747.61 299.57 747.60 C 299.52 745.90 299.50 744.21 299.50 742.53 Z" />
<path fill="#090909" d=" M 306.39 742.53 C 306.84 742.61 307.74 742.76 308.19 742.84 C 308.32 744.14 308.45 745.43 308.58 746.75 C 307.99 746.77 306.79 746.81 306.20 746.82 C 306.24 745.38 306.30 743.95 306.39 742.53 Z" />
<path fill="#171616" d=" M 316.66 748.57 C 316.76 746.37 316.77 744.10 317.81 742.10 C 318.16 742.47 318.87 743.21 319.22 743.57 C 319.27 745.22 319.38 746.87 319.30 748.54 C 318.42 748.58 317.54 748.59 316.66 748.57 Z" />
<path fill="#111111" d=" M 338.47 742.27 C 338.93 742.40 339.85 742.65 340.32 742.78 C 340.25 744.96 340.01 747.15 339.39 749.27 C 336.28 748.18 338.31 744.55 338.47 742.27 Z" />
<path fill="#070707" d=" M 272.56 743.58 C 273.09 743.52 274.14 743.39 274.67 743.33 C 274.58 744.95 274.47 746.58 274.33 748.21 C 273.82 748.28 272.81 748.40 272.30 748.46 C 272.31 746.82 272.41 745.20 272.56 743.58 Z" />
<path fill="#020202" d=" M 278.50 743.37 C 278.99 743.41 279.97 743.47 280.46 743.50 C 280.51 744.54 280.57 745.59 280.63 746.65 C 280.09 746.66 279.00 746.69 278.46 746.70 C 278.47 745.58 278.48 744.47 278.50 743.37 Z" />
<path fill="#111111" d=" M 333.52 744.28 C 335.79 741.99 336.94 746.06 335.47 747.64 C 335.09 747.50 334.31 747.20 333.93 747.06 C 333.79 746.12 333.65 745.20 333.52 744.28 Z" />
<path fill="#313130" d=" M 231.48 744.51 C 232.82 744.49 234.17 744.48 235.51 744.50 C 235.85 746.12 235.83 747.77 235.39 749.38 C 234.12 749.36 232.85 749.35 231.59 749.35 C 231.17 747.75 231.17 746.12 231.48 744.51 Z" />
<path fill="#040404" d=" M 243.72 744.65 C 246.23 744.54 245.07 748.00 245.41 749.57 C 244.88 749.58 243.84 749.60 243.32 749.61 C 243.35 747.94 243.28 746.26 243.72 744.65 Z" />
<path fill="#070707" d=" M 266.56 744.51 C 268.17 743.70 267.88 746.23 267.69 747.12 C 268.09 749.93 264.14 747.29 265.66 745.72 C 265.89 745.42 266.33 744.81 266.56 744.51 Z" />
<path fill="#020202" d=" M 326.65 747.44 C 326.37 745.96 326.29 744.46 326.84 743.05 C 327.88 744.32 329.69 745.42 329.49 747.33 C 328.54 747.37 327.59 747.40 326.65 747.44 Z" />
<path fill="#313130" d=" M 252.54 750.67 C 251.92 748.84 250.61 745.03 253.78 745.16 C 253.91 745.83 254.18 747.15 254.32 747.82 C 255.27 747.29 256.22 746.78 257.18 746.27 C 257.78 746.35 258.99 746.50 259.60 746.58 C 260.13 748.51 258.98 751.21 256.61 750.11 L 256.15 748.47 C 255.09 749.42 253.86 750.14 252.54 750.67 Z" />
<path fill="#2f2f2f" d=" M 341.38 747.43 C 342.44 747.40 343.51 747.39 344.59 747.40 C 344.58 748.45 344.58 749.51 344.57 750.58 C 343.51 750.57 342.46 750.57 341.42 750.58 C 341.39 749.52 341.38 748.47 341.38 747.43 Z" />
<path fill="#020202" d=" M 946.44 753.36 C 947.17 753.19 948.63 752.84 949.36 752.67 C 950.58 766.35 944.89 779.46 945.20 793.10 C 945.75 795.01 943.36 794.73 942.28 795.01 C 942.25 780.99 947.10 767.42 946.44 753.36 Z" />
<path fill="#010101" d=" M 887.16 764.90 C 889.00 761.51 888.14 756.80 890.94 753.71 C 891.56 753.67 892.81 753.58 893.43 753.53 C 892.86 757.30 891.14 760.81 890.51 764.59 C 893.45 764.58 896.62 764.97 899.29 763.40 C 900.74 764.36 900.83 766.45 898.89 766.83 C 896.19 767.84 893.22 767.44 890.41 767.58 C 888.66 775.71 887.89 784.05 887.23 792.34 C 886.61 792.35 885.38 792.37 884.77 792.38 C 884.53 784.57 886.65 776.87 886.75 769.09 C 885.26 767.74 884.66 765.56 887.16 764.90 Z" />
<path fill="#090909" d=" M 245.55 759.58 C 246.08 759.50 247.15 759.35 247.68 759.27 C 247.62 761.98 247.65 764.71 247.29 767.42 L 245.48 767.66 C 245.54 764.96 245.55 762.27 245.55 759.58 Z" />
<path fill="#0c0c0b" d=" M 283.82 761.04 C 285.03 760.55 286.22 760.00 287.46 759.55 C 288.00 761.87 287.59 764.26 287.51 766.61 C 286.30 767.63 285.03 768.59 283.59 769.29 C 283.37 766.54 283.57 763.78 283.82 761.04 Z" />
<path fill="#090909" d=" M 240.69 768.51 C 241.05 765.95 239.29 761.00 242.63 760.27 C 242.78 763.08 242.53 765.89 242.69 768.71 C 242.19 768.66 241.19 768.56 240.69 768.51 Z" />
<path fill="#313130" d=" M 273.73 760.10 L 275.11 760.25 C 275.26 762.96 275.42 765.84 274.44 768.42 C 272.48 769.25 270.69 770.63 268.49 770.67 C 268.38 769.28 267.87 767.79 268.66 766.52 C 269.99 766.41 271.30 766.62 272.62 766.79 C 272.88 764.54 273.12 762.28 273.73 760.10 Z" />
<path fill="#181818" d=" M 290.48 760.48 C 290.97 760.51 291.96 760.58 292.46 760.61 C 292.13 762.69 293.22 767.33 289.68 766.37 C 289.74 764.38 289.96 762.40 290.48 760.48 Z" />
<path fill="#161515" d=" M 307.55 765.81 C 307.96 763.81 306.86 759.58 310.16 760.22 C 310.15 761.15 310.15 763.02 310.14 763.95 C 311.33 763.34 312.53 762.78 313.73 762.21 C 314.51 763.69 315.85 765.03 315.76 766.82 C 314.01 767.39 312.31 766.09 312.00 764.32 C 310.94 765.79 309.18 765.80 307.55 765.81 Z" />
<path fill="#313130" d=" M 229.39 761.49 C 230.82 761.38 232.25 761.30 233.68 761.28 C 233.62 762.68 233.55 764.08 233.47 765.50 C 232.45 765.51 231.44 765.47 230.43 765.37 C 228.97 764.64 229.64 762.76 229.39 761.49 Z" />
<path fill="#050505" d=" M 263.13 766.64 C 263.38 764.66 263.14 762.15 265.37 761.31 C 265.88 763.02 265.57 764.80 265.50 766.57 C 264.90 766.58 263.72 766.62 263.13 766.64 Z" />
<path fill="#060606" d=" M 303.44 761.58 C 303.89 761.65 304.79 761.78 305.23 761.85 C 305.42 763.72 305.59 765.60 305.71 767.50 C 305.11 767.51 303.90 767.53 303.30 767.54 C 303.28 765.54 303.32 763.56 303.44 761.58 Z" />
<path fill="#222222" d=" M 277.69 761.77 C 279.21 761.62 280.74 761.48 282.27 761.35 C 282.26 762.97 282.24 764.60 282.21 766.24 C 280.52 766.39 278.84 766.52 277.15 766.63 C 277.21 764.98 277.38 763.36 277.69 761.77 Z" />
<path fill="#222222" d=" M 248.62 768.55 C 248.77 766.06 248.42 763.35 249.97 761.21 C 251.76 763.04 252.00 768.46 248.62 768.55 Z" />
<path fill="#090909" d=" M 255.45 763.27 C 258.57 762.65 257.27 769.61 254.29 767.47 C 254.50 766.01 254.89 764.61 255.45 763.27 Z" />
<path fill="#313130" d=" M 323.78 763.00 C 326.17 762.80 325.67 765.22 325.60 766.84 C 325.02 766.75 323.86 766.56 323.28 766.46 C 323.67 769.03 321.66 769.86 319.58 769.58 C 318.85 767.62 319.38 765.76 321.40 764.94 L 321.86 766.67 C 322.81 765.65 323.64 764.43 323.78 763.00 Z" />
<path fill="#333332" d=" M 330.63 766.83 C 330.13 765.30 332.22 764.83 333.26 764.40 C 333.58 764.81 334.24 765.62 334.56 766.03 C 334.47 766.61 334.28 767.78 334.19 768.36 C 332.88 768.33 330.41 768.89 330.63 766.83 Z" />
<path fill="#000000" d=" M 833.11 765.61 C 837.06 764.30 842.41 762.95 845.65 766.40 C 848.02 768.48 848.14 772.00 847.64 774.90 C 846.04 779.65 841.17 782.06 836.76 783.64 C 836.61 787.45 836.45 791.27 836.41 795.09 C 836.84 796.68 835.09 797.92 833.59 797.36 C 833.56 792.06 834.08 786.74 833.48 781.47 C 833.67 781.10 834.04 780.38 834.23 780.01 C 834.49 775.18 834.54 770.28 833.11 765.61 Z" />
<path fill="#2f2f2f" d=" M 293.42 769.49 C 293.18 767.96 292.98 765.95 294.95 765.61 C 297.15 765.73 296.83 767.98 296.62 769.59 C 295.55 769.55 294.48 769.52 293.42 769.49 Z" />
<path fill="#eaebe7" d=" M 364.00 764.20 C 367.26 765.81 365.95 769.53 365.82 772.40 C 365.40 775.21 365.70 778.56 363.22 780.51 C 363.01 779.58 362.59 777.72 362.39 776.79 C 362.80 772.57 363.45 768.39 364.00 764.20 Z" />
<path fill="#3f3f3e" d=" M 258.82 765.89 C 261.11 764.58 263.45 766.88 262.07 769.18 C 259.67 770.56 257.27 768.29 258.82 765.89 Z" />
<path fill="#f5f4f0" d=" M 837.30 767.41 C 839.63 767.38 842.89 766.52 844.20 769.13 C 845.22 771.43 845.40 774.59 843.50 776.51 C 841.90 778.45 839.56 779.52 837.38 780.65 C 837.17 776.23 837.30 771.82 837.30 767.41 Z" />
<path fill="#000000" d=" M 956.72 777.92 C 958.73 775.06 962.49 774.69 965.69 774.35 C 965.67 775.31 965.66 776.29 965.65 777.28 C 963.59 777.68 961.56 778.20 959.53 778.72 C 959.43 779.27 959.24 780.37 959.14 780.92 C 962.26 783.31 967.40 783.82 968.72 788.12 C 969.65 790.69 967.17 792.61 964.97 793.17 C 959.11 794.92 952.85 794.42 946.83 794.17 C 946.56 793.49 946.01 792.13 945.73 791.46 C 952.46 791.47 959.45 792.30 965.89 789.85 C 965.52 785.95 960.73 785.63 958.05 783.87 C 955.75 782.88 955.79 779.84 956.72 777.92 Z" />
<path fill="#000000" d=" M 894.18 779.11 C 895.87 777.00 897.87 774.14 901.05 775.28 C 909.45 776.63 909.91 790.51 902.06 793.02 C 899.01 793.88 894.92 793.70 892.75 791.11 C 891.19 787.28 893.07 782.90 895.78 780.08 L 894.18 779.11 Z" />
<path fill="#000000" d=" M 909.94 785.01 C 911.74 779.89 916.68 774.51 922.67 776.50 C 922.58 777.47 922.50 778.45 922.42 779.44 C 916.20 777.74 911.43 784.86 912.38 790.44 C 914.86 790.90 917.86 789.94 919.80 791.99 C 918.01 794.49 914.51 793.82 912.01 793.05 C 908.68 791.85 909.09 787.73 909.94 785.01 Z" />
<path fill="#000000" d=" M 929.02 776.83 C 931.44 774.83 934.75 775.49 937.31 776.84 C 937.93 782.33 936.76 788.54 932.52 792.41 C 930.58 794.30 927.34 794.14 925.12 792.90 C 922.62 791.30 923.22 787.88 923.60 785.40 C 924.57 782.13 926.44 779.07 929.02 776.83 Z" />
<path fill="#000000" d=" M 852.46 782.52 C 853.17 780.28 852.54 775.51 856.20 776.77 C 856.55 778.43 856.34 780.07 855.57 781.69 C 857.77 781.67 863.39 778.67 862.16 783.11 C 859.72 784.11 857.10 784.55 854.63 785.46 C 854.49 788.59 854.11 791.73 853.36 794.79 C 852.22 794.72 851.20 794.34 850.54 793.40 C 851.46 790.39 852.27 786.93 850.78 783.97 C 851.20 783.60 852.04 782.88 852.46 782.52 Z" />
<path fill="#f5f4f0" d=" M 896.22 780.67 C 897.59 779.64 898.79 776.81 900.86 777.93 C 906.26 779.50 906.24 788.42 901.17 790.40 C 899.31 790.62 897.44 790.39 895.60 790.31 C 894.51 787.31 896.43 784.65 897.45 781.98 L 896.22 780.67 Z" />
<path fill="#f5f4f0" d=" M 930.86 778.68 C 932.14 778.56 933.43 778.46 934.74 778.39 C 934.63 780.31 934.47 782.25 934.29 784.18 C 933.25 786.38 932.44 788.87 930.46 790.44 C 929.16 791.07 927.69 790.59 926.35 790.58 C 925.44 785.96 928.40 782.21 930.86 778.68 Z" />
<path fill="#000000" d=" M 867.54 780.40 C 871.03 778.41 876.26 779.10 878.31 782.82 C 880.21 787.51 877.41 793.05 872.61 794.46 C 869.42 795.04 865.65 795.11 863.43 792.35 C 863.23 787.85 866.27 784.45 867.54 780.40 Z" />
<path fill="#f5f4f0" d=" M 868.98 782.90 C 871.02 781.69 874.43 781.72 875.72 784.01 C 876.03 786.12 876.18 788.83 874.21 790.23 C 872.18 792.41 869.02 791.74 866.39 791.59 C 866.86 788.56 868.73 785.98 868.98 782.90 Z" />
<path fill="#b4c0c0" d=" M 243.05 788.06 C 250.60 786.54 258.26 785.22 266.00 785.79 C 271.72 786.25 277.89 784.50 283.21 787.32 C 278.02 789.51 272.29 788.93 266.85 789.77 C 261.23 790.65 255.55 789.72 249.91 790.26 C 247.24 790.48 244.63 791.20 241.96 791.33 C 239.56 790.52 241.41 788.23 243.05 788.06 Z" />
</svg>
