<?xml version="1.0" encoding="UTF-8" ?>
<!DOCTYPE svg PUBLIC "-//W3C//DTD SVG 1.1//EN" "http://www.w3.org/Graphics/SVG/1.1/DTD/svg11.dtd">
<svg width="1155pt" height="866pt" viewBox="0 0 1155 866" version="1.1" xmlns="http://www.w3.org/2000/svg">
<path fill="#f5f4f0" d=" M 0.00 0.00 L 1155.00 0.00 L 1155.00 866.00 L 0.00 866.00 L 0.00 0.00 Z" />
<path fill="#000000" d=" M 427.17 102.93 C 429.83 91.69 441.64 83.67 453.09 85.51 C 467.33 86.90 477.30 103.10 472.20 116.49 C 469.57 123.64 463.63 129.62 456.09 131.39 C 455.41 134.96 455.92 138.61 455.41 142.20 C 455.09 138.44 455.18 134.66 455.33 130.89 L 454.39 131.58 C 450.49 133.22 445.98 132.11 442.07 130.91 C 430.89 127.26 423.91 114.26 427.17 102.93 Z" />
<path fill="#fcfcfc" d=" M 456.38 99.45 C 457.02 99.35 458.31 99.13 458.96 99.03 C 458.26 103.45 454.07 106.10 452.27 110.01 C 453.92 112.57 456.28 114.60 457.77 117.29 C 454.23 119.17 452.71 114.84 450.81 112.74 C 450.38 112.98 449.52 113.45 449.09 113.69 C 447.33 116.56 445.16 120.42 441.37 120.48 C 441.27 115.83 447.99 114.07 447.73 109.33 C 446.12 107.09 444.04 105.23 442.47 102.97 C 442.71 101.46 443.99 100.86 445.27 101.66 C 447.04 103.55 448.50 105.70 450.09 107.75 C 452.31 105.07 454.21 102.16 456.38 99.45 Z" />
<path fill="#1038fe" d=" M 417.86 107.23 C 418.45 105.23 420.03 105.00 421.84 105.52 C 420.97 107.06 420.08 108.59 419.16 110.10 C 412.35 112.06 405.81 114.83 399.02 116.81 C 390.84 119.42 382.36 121.46 374.93 125.90 C 367.03 129.46 359.31 133.57 351.00 136.15 C 344.44 137.34 338.07 139.31 331.83 141.64 C 318.22 145.06 305.10 150.13 291.86 154.71 C 282.17 158.93 272.93 165.36 262.04 165.80 C 252.76 166.59 243.55 168.15 234.48 170.24 C 229.32 171.50 224.39 173.54 219.20 174.71 C 217.83 174.42 216.58 173.73 215.38 173.03 C 216.16 172.89 217.73 172.60 218.51 172.45 C 221.69 172.03 224.88 171.67 228.05 171.16 C 234.55 169.00 241.34 167.97 248.02 166.58 C 257.14 164.64 266.94 164.92 275.40 160.55 C 284.70 155.84 294.12 151.32 303.99 147.95 C 317.24 144.23 330.28 139.84 343.40 135.69 C 359.89 132.77 374.07 123.20 389.66 117.65 C 399.24 114.66 408.51 110.83 417.86 107.23 Z" />
<path fill="#1138fe" d=" M 473.12 115.54 C 481.90 115.14 490.74 116.02 499.11 118.83 C 507.84 120.88 516.18 124.19 524.36 127.83 C 536.38 133.25 549.33 136.05 562.01 139.45 C 574.53 141.97 586.64 146.14 599.11 148.86 C 606.31 150.20 613.30 152.39 620.44 154.00 C 622.19 154.84 623.82 155.89 625.44 156.97 C 623.87 157.87 622.32 158.76 620.73 159.63 C 620.44 157.97 619.91 156.31 618.09 155.90 C 604.63 150.13 590.03 148.06 576.14 143.66 C 565.04 140.85 553.81 138.55 542.86 135.18 C 527.99 131.71 514.88 123.16 499.92 119.94 C 491.22 117.06 481.75 115.29 472.84 118.43 C 472.92 117.47 473.02 116.50 473.12 115.54 Z" />
<path fill="#000000" d=" M 633.39 128.35 C 641.96 121.05 654.13 118.64 664.95 121.45 C 677.77 124.73 688.22 135.85 690.53 148.90 C 693.61 162.90 686.66 178.10 674.55 185.56 C 662.68 193.13 646.28 192.55 635.02 184.08 C 627.08 178.42 621.92 169.28 620.73 159.63 C 622.32 158.76 623.87 157.87 625.44 156.97 C 623.82 155.89 622.19 154.84 620.44 154.00 C 621.14 144.18 625.65 134.57 633.39 128.35 Z" />
<path fill="#2549fd" d=" M 455.33 130.89 C 455.18 134.66 455.09 138.44 455.41 142.20 C 455.60 152.79 455.81 163.44 454.62 173.98 C 454.54 182.97 453.93 191.93 453.20 200.89 C 450.95 222.86 445.17 244.58 446.67 266.83 C 446.33 267.19 445.65 267.90 445.31 268.26 C 445.74 261.81 445.48 255.34 445.80 248.88 C 446.84 237.86 448.44 226.89 450.32 215.98 C 451.91 206.38 452.57 196.67 453.33 186.98 C 453.07 177.29 454.67 167.69 454.49 158.00 C 454.52 149.19 454.60 140.38 454.39 131.58 L 455.33 130.89 Z" />
<path fill="#f2f2f2" d=" M 642.22 144.45 C 643.08 140.74 647.26 141.60 650.05 141.91 C 655.84 142.97 661.76 142.68 667.58 143.64 C 667.46 145.02 668.36 146.84 667.02 147.83 C 664.12 150.35 660.74 152.26 657.99 154.96 C 660.14 155.22 661.04 156.41 660.68 158.53 C 658.73 158.20 656.80 157.79 654.87 157.41 C 651.06 160.22 647.58 163.49 644.83 167.37 C 650.94 167.75 657.00 168.63 663.12 168.80 C 665.12 168.72 665.98 170.55 665.26 172.29 C 662.21 173.08 659.05 172.42 655.99 172.11 C 650.69 171.10 644.93 171.95 640.07 169.19 C 642.07 164.23 646.71 161.10 650.27 157.31 C 648.69 157.29 647.11 157.26 645.55 157.23 C 645.60 156.61 645.71 155.37 645.76 154.75 C 648.45 153.73 651.44 154.37 654.26 154.29 C 657.44 151.37 661.10 148.99 664.13 145.91 C 656.80 145.79 649.53 144.81 642.22 144.45 Z" />
<path fill="#000000" d=" M 180.97 151.33 C 196.51 147.68 213.27 157.55 218.51 172.45 C 217.73 172.60 216.16 172.89 215.38 173.03 C 216.58 173.73 217.83 174.42 219.20 174.71 C 221.01 181.88 220.85 189.82 217.39 196.47 C 217.24 196.76 216.92 197.33 216.77 197.61 C 216.58 198.02 216.21 198.85 216.03 199.26 C 209.59 212.19 193.34 219.13 179.48 215.25 C 167.12 212.33 157.09 201.49 155.14 188.94 C 151.76 172.14 164.13 154.27 180.97 151.33 Z" />
<path fill="#f2f2f2" d=" M 177.72 177.90 C 178.30 172.08 182.67 166.04 189.07 166.49 C 190.83 167.79 192.41 169.40 193.29 171.44 C 197.07 179.29 196.54 188.26 196.50 196.74 C 195.54 196.68 194.58 196.62 193.62 196.55 C 193.64 192.57 193.67 188.58 193.55 184.60 C 189.15 184.39 184.75 184.21 180.34 184.17 C 180.39 188.25 180.47 192.33 180.43 196.41 C 179.46 196.45 178.48 196.50 177.51 196.54 C 177.44 190.33 177.27 184.09 177.72 177.90 Z" />
<path fill="#000000" d=" M 180.35 181.14 C 180.30 176.15 182.48 169.75 188.31 169.34 C 191.49 172.64 192.55 177.23 193.12 181.62 C 188.86 181.49 184.61 181.27 180.35 181.14 Z" />
<path fill="#1e43fd" d=" M 679.24 187.10 C 683.65 186.86 688.10 187.84 691.87 190.20 C 697.16 193.49 703.11 195.53 708.44 198.77 C 715.09 202.78 721.78 206.72 728.40 210.79 C 731.08 212.45 734.02 213.76 736.31 216.00 C 731.17 214.03 726.78 210.63 722.03 207.95 C 715.48 204.17 709.19 199.93 702.41 196.56 C 694.93 193.44 687.78 187.84 679.17 189.48 C 679.19 188.89 679.22 187.70 679.24 187.10 Z" />
<path fill="#2549fd" d=" M 216.77 197.61 C 216.92 197.33 217.24 196.76 217.39 196.47 C 226.72 199.00 235.97 202.00 244.48 206.67 C 263.03 216.99 283.46 223.87 300.81 236.31 C 310.47 243.79 320.62 251.06 332.40 254.83 C 345.28 259.08 357.57 264.96 369.13 272.04 C 379.84 277.82 391.34 282.00 403.00 285.40 C 405.60 286.44 407.93 288.07 410.56 289.08 C 410.65 290.13 410.73 291.18 410.83 292.24 L 410.53 292.09 C 397.63 285.37 383.95 280.36 370.84 274.06 C 363.16 269.52 355.35 265.17 347.21 261.49 C 338.62 257.53 329.26 255.46 320.92 250.94 C 314.03 247.47 307.84 242.83 301.74 238.15 C 285.46 225.93 266.01 219.24 248.22 209.67 C 238.21 204.48 227.67 198.72 216.03 199.26 C 216.21 198.85 216.58 198.02 216.77 197.61 Z" />
<path fill="#153bfe" d=" M 659.62 197.80 C 660.13 197.67 661.16 197.40 661.67 197.27 C 662.38 204.21 660.76 211.13 660.47 218.06 C 660.29 223.77 658.64 229.31 658.43 235.03 C 657.25 244.32 657.21 253.70 656.71 263.05 C 656.93 265.90 655.57 268.68 652.48 268.92 C 653.04 266.59 653.64 264.26 653.90 261.88 C 654.52 252.17 657.38 242.74 657.63 233.00 C 658.53 225.36 659.82 217.77 660.30 210.09 C 660.45 205.97 659.60 201.91 659.62 197.80 Z" />
<path fill="#eb0c3c" d=" M 737.61 224.06 C 737.86 216.89 743.81 210.82 750.80 209.78 C 750.62 219.86 750.69 229.94 750.22 240.01 C 742.68 239.03 736.92 231.58 737.61 224.06 Z" />
<path fill="#eb0c3c" d=" M 755.64 209.81 C 763.98 211.47 770.22 220.43 767.77 228.79 C 766.33 235.01 760.75 239.33 754.66 240.48 C 755.28 230.27 754.93 220.02 755.64 209.81 Z" />
<path fill="#000000" d=" M 837.65 234.69 C 849.81 228.96 864.99 230.20 875.98 237.97 C 889.87 247.25 896.23 266.13 890.74 281.93 C 886.52 295.16 874.66 305.55 860.96 307.92 C 844.34 311.26 826.04 302.11 819.13 286.56 C 818.68 285.44 818.22 284.33 817.76 283.23 C 814.72 275.73 814.32 266.96 816.89 259.28 C 819.10 259.72 820.98 259.08 821.15 256.56 C 820.09 256.07 819.05 255.58 818.01 255.10 C 821.86 246.25 828.79 238.68 837.65 234.69 Z" />
<path fill="#032bf2" d=" M 774.31 235.11 C 777.96 236.90 781.51 238.90 784.84 241.26 C 789.91 244.78 796.07 245.93 801.59 248.52 C 807.10 250.62 812.63 252.67 818.01 255.10 C 819.05 255.58 820.09 256.07 821.15 256.56 C 820.98 259.08 819.10 259.72 816.89 259.28 C 815.81 256.24 812.59 255.35 810.00 254.02 C 803.29 251.03 796.70 247.79 789.90 245.00 C 784.40 242.55 779.97 238.19 774.21 236.24 C 774.23 235.96 774.28 235.39 774.31 235.11 Z" />
<path fill="#f2f2f2" d=" M 843.49 250.63 C 848.64 250.16 855.70 247.74 859.33 252.80 C 861.29 255.07 862.04 258.18 861.42 261.11 C 860.27 263.24 858.24 264.65 856.32 266.00 C 860.76 267.73 863.51 272.33 863.33 277.03 C 863.45 279.50 861.60 281.49 859.52 282.53 C 853.96 285.52 847.60 287.22 841.26 286.64 C 840.19 281.78 841.53 276.85 841.72 271.97 C 842.92 264.91 842.93 257.74 843.49 250.63 Z" />
<path fill="#000000" d=" M 846.33 253.36 C 849.17 252.85 852.14 252.37 855.01 252.93 C 857.61 254.19 859.03 257.26 858.60 260.09 C 856.26 263.42 852.21 265.32 848.22 265.69 C 848.29 266.54 848.37 267.40 848.47 268.26 C 851.57 268.52 855.42 267.62 857.70 270.36 C 860.06 272.27 860.43 275.44 860.57 278.28 C 855.72 281.79 849.76 284.01 843.72 283.84 C 843.72 275.16 845.54 266.62 846.14 257.97 C 846.20 256.43 846.26 254.89 846.33 253.36 Z" />
<path fill="#000000" d=" M 626.28 265.27 C 634.43 260.12 644.73 259.16 653.90 261.88 C 653.64 264.26 653.04 266.59 652.48 268.92 C 655.57 268.68 656.93 265.90 656.71 263.05 C 667.44 267.74 675.21 278.36 676.30 290.04 C 677.66 302.66 670.88 315.63 659.79 321.77 C 649.91 327.52 637.05 327.50 627.20 321.70 C 617.57 316.36 611.39 305.90 610.56 295.01 C 611.78 295.11 612.99 295.24 614.22 295.36 C 614.23 294.44 614.24 293.53 614.26 292.62 C 613.03 292.64 611.80 292.67 610.59 292.72 C 610.84 281.72 616.80 270.96 626.28 265.27 Z" />
<path fill="#032bf2" d=" M 445.31 268.26 C 445.65 267.90 446.33 267.19 446.67 266.83 C 446.87 268.13 447.05 269.43 447.20 270.74 C 447.14 273.25 448.29 277.13 444.45 277.02 C 444.61 274.77 444.81 272.53 445.08 270.30 C 445.14 269.79 445.26 268.77 445.31 268.26 Z" />
<path fill="#000000" d=" M 411.30 289.39 C 416.01 275.98 431.09 267.09 445.08 270.30 C 444.81 272.53 444.61 274.77 444.45 277.02 C 448.29 277.13 447.14 273.25 447.20 270.74 C 461.03 274.33 470.78 288.83 468.71 303.01 C 467.37 315.74 456.72 326.73 444.08 328.61 C 437.79 329.39 431.18 328.76 425.58 325.60 C 413.63 319.68 407.01 304.96 410.53 292.09 L 410.83 292.24 C 411.70 292.70 412.58 293.17 413.45 293.66 C 413.53 294.46 413.68 296.08 413.75 296.89 C 415.05 296.36 416.96 295.88 416.67 294.03 C 416.83 291.07 413.34 290.47 411.30 289.39 Z" />
<path fill="#f2f2f2" d=" M 630.25 280.35 C 633.69 279.81 634.11 284.06 636.63 285.47 C 640.02 287.98 642.35 291.56 645.58 294.24 C 648.55 290.31 651.65 286.48 654.02 282.14 C 658.22 281.10 655.77 285.77 654.45 287.45 C 648.71 294.75 643.14 302.20 638.34 310.17 C 637.83 311.56 636.61 312.29 635.17 311.80 C 634.71 309.40 636.53 307.55 637.73 305.71 C 639.87 302.87 641.66 299.80 643.65 296.85 C 640.98 293.98 638.55 290.86 635.48 288.41 C 633.03 286.31 629.92 283.99 630.25 280.35 Z" />
<path fill="#eb0c3c" d=" M 719.38 285.37 C 721.34 283.34 724.03 282.34 726.58 281.27 C 726.90 290.39 726.95 299.55 726.64 308.67 C 723.88 307.53 720.91 306.47 718.91 304.14 C 713.98 299.15 714.14 290.08 719.38 285.37 Z" />
<path fill="#eb0c3c" d=" M 731.44 281.79 C 736.92 282.82 741.38 287.40 742.17 292.93 C 743.35 299.72 738.45 307.03 731.54 308.04 C 731.32 299.29 731.43 290.54 731.44 281.79 Z" />
<path fill="#153bfe" d=" M 815.74 285.74 C 816.40 284.89 817.07 284.06 817.76 283.23 C 818.22 284.33 818.68 285.44 819.13 286.56 C 818.87 286.99 818.34 287.84 818.08 288.26 C 812.06 288.72 805.99 287.98 800.00 288.88 C 797.76 289.05 795.35 289.77 793.21 288.83 C 793.22 288.65 793.25 288.29 793.26 288.11 C 800.73 287.12 808.16 285.60 815.74 285.74 Z" />
<path fill="#f1f1f1" d=" M 431.74 285.30 C 432.40 285.79 433.91 285.67 433.75 286.82 C 432.80 291.37 432.00 296.21 433.50 300.74 C 434.82 300.67 436.21 300.88 437.51 300.46 C 440.44 296.84 442.19 292.41 444.87 288.60 C 445.55 288.06 447.90 288.48 447.52 289.91 C 447.06 295.02 445.38 299.95 444.02 304.89 C 442.58 309.35 441.90 314.02 440.48 318.49 C 439.90 318.47 438.74 318.43 438.16 318.41 C 438.56 312.45 440.54 306.74 442.26 301.06 C 442.40 299.98 442.55 298.90 442.70 297.83 C 441.49 299.96 440.38 302.49 437.96 303.48 C 435.44 304.13 432.17 303.85 430.66 301.44 C 429.33 298.12 429.86 294.46 429.81 290.98 C 429.65 288.88 430.69 287.02 431.74 285.30 Z" />
<path fill="#032bf2" d=" M 410.56 289.08 L 411.30 289.39 C 413.34 290.47 416.83 291.07 416.67 294.03 C 416.96 295.88 415.05 296.36 413.75 296.89 C 413.68 296.08 413.53 294.46 413.45 293.66 C 412.58 293.17 411.70 292.70 410.83 292.24 C 410.73 291.18 410.65 290.13 410.56 289.08 Z" />
<path fill="#2549fd" d=" M 768.04 292.08 C 774.31 291.00 780.63 290.19 786.90 289.15 C 788.51 288.93 790.27 288.45 791.84 289.19 C 791.80 289.33 791.71 289.61 791.67 289.76 C 781.50 291.19 771.38 293.25 761.08 293.38 C 755.56 293.42 750.05 293.87 744.55 293.56 C 752.19 291.43 760.25 292.86 768.04 292.08 Z" />
<path fill="#032aef" d=" M 600.56 294.54 C 603.79 293.47 607.20 293.01 610.59 292.72 C 611.80 292.67 613.03 292.64 614.26 292.62 C 614.24 293.53 614.23 294.44 614.22 295.36 C 612.99 295.24 611.78 295.11 610.56 295.01 C 607.74 294.72 604.91 294.83 602.09 294.66 L 600.56 294.54 Z" />
<path fill="#2549fd" d=" M 587.04 295.43 C 591.57 295.55 596.02 294.27 600.56 294.54 L 602.09 294.66 C 597.55 296.13 592.66 295.82 587.96 296.36 C 581.21 296.15 574.75 298.51 568.03 298.59 C 552.68 298.76 537.32 298.47 521.98 297.86 C 512.99 298.37 503.98 298.27 495.00 298.72 C 490.14 299.33 485.25 299.47 480.38 299.76 C 479.47 299.26 478.56 298.78 477.65 298.31 C 488.14 299.09 498.53 296.98 509.02 297.39 C 528.69 296.89 548.35 297.92 568.02 297.63 C 574.45 297.66 580.60 295.24 587.04 295.43 Z" />
<path fill="#3e5efb" d=" M 472.51 297.84 C 474.20 297.94 476.07 297.49 477.65 298.31 C 478.56 298.78 479.47 299.26 480.38 299.76 C 477.65 299.98 473.47 301.58 472.51 297.84 Z" />
<path fill="#1e43fd" d=" M 676.14 298.79 C 682.96 296.83 690.10 297.94 697.08 297.74 C 702.18 297.91 707.43 297.06 712.40 298.59 C 701.95 298.80 691.40 298.05 681.06 299.97 C 679.39 300.03 676.31 301.84 676.14 298.79 Z" />
<path fill="#153bfe" d=" M 810.88 311.86 C 814.84 308.89 818.57 303.62 824.09 304.45 C 823.40 305.88 822.53 307.26 821.03 307.91 C 814.32 311.37 808.63 316.43 801.93 319.90 C 787.63 327.66 776.84 340.16 763.35 349.06 C 752.23 356.87 743.32 367.42 731.84 374.76 C 721.75 381.48 713.09 389.99 703.87 397.79 C 695.71 403.61 687.22 408.99 679.25 415.08 C 674.15 419.36 669.29 423.91 664.35 428.37 C 659.15 433.04 652.65 435.81 646.95 439.78 C 646.85 439.52 646.64 439.01 646.54 438.75 C 646.43 438.06 646.34 437.38 646.27 436.69 C 651.89 435.03 657.52 432.90 662.08 429.11 C 669.59 423.00 676.15 415.73 684.27 410.36 C 690.65 405.72 697.32 401.51 703.71 396.88 C 709.08 392.24 714.41 387.53 719.74 382.83 C 727.50 376.12 736.72 371.29 744.11 364.14 C 751.08 358.04 757.85 351.66 765.57 346.48 C 774.22 340.71 781.35 333.02 789.82 327.01 C 796.43 321.41 803.86 316.91 810.88 311.86 Z" />
<path fill="#0f37fe" d=" M 463.69 320.88 C 467.16 321.25 468.96 324.50 471.48 326.49 C 477.45 331.28 483.07 336.53 489.47 340.77 C 496.03 345.11 502.63 349.40 509.04 353.98 C 517.74 360.29 525.30 368.04 534.20 374.10 C 544.25 381.13 553.70 388.97 562.57 397.43 C 572.07 404.17 581.87 410.61 592.43 415.60 C 596.21 417.63 600.84 419.01 602.88 423.16 C 600.43 425.89 598.22 423.13 596.96 420.96 C 591.82 417.22 585.96 414.59 580.39 411.59 C 574.07 407.37 568.09 402.67 562.08 398.03 C 555.63 392.06 549.14 386.12 542.07 380.90 C 536.27 376.31 529.94 372.43 524.38 367.55 C 517.80 362.03 511.37 356.28 504.18 351.56 C 495.45 345.41 486.07 340.13 478.05 333.01 C 474.34 329.62 470.09 326.94 466.01 324.05 C 464.77 323.38 464.23 322.08 463.69 320.88 Z" />
<path fill="#1138fe" d=" M 644.68 333.03 C 648.10 332.93 647.24 336.67 647.20 338.96 C 646.68 343.65 646.55 348.37 646.29 353.08 C 645.46 362.45 643.54 371.68 641.85 380.93 C 640.73 389.30 639.26 397.61 637.43 405.85 C 637.42 411.63 635.17 417.29 635.93 423.06 C 634.93 423.68 633.95 425.39 632.75 424.12 C 632.70 423.38 632.61 421.89 632.56 421.15 C 633.36 415.78 634.40 410.44 634.99 405.05 C 638.64 393.62 640.61 381.76 643.03 370.03 C 645.45 357.86 646.57 345.36 644.68 333.03 Z" />
<path fill="#000000" d=" M 605.02 429.19 C 611.07 420.72 622.90 417.33 632.56 421.15 C 632.61 421.89 632.70 423.38 632.75 424.12 C 633.95 425.39 634.93 423.68 635.93 423.06 C 641.00 425.86 645.28 430.89 646.27 436.69 C 646.34 437.38 646.43 438.06 646.54 438.75 C 646.64 439.01 646.85 439.52 646.95 439.78 L 647.38 440.77 C 648.96 453.35 638.62 465.81 625.96 466.52 C 615.92 467.61 605.86 461.24 602.15 451.94 C 599.15 444.53 600.18 435.59 605.02 429.19 Z" />
<path fill="#fcfcfc" d=" M 626.11 442.57 C 627.94 439.35 629.86 436.18 632.03 433.18 C 633.54 434.22 633.81 435.46 632.85 436.89 C 630.83 440.30 628.53 443.54 626.62 447.03 C 627.40 448.98 628.14 450.94 628.89 452.91 C 631.67 449.45 633.54 445.42 635.51 441.47 C 635.85 439.91 637.65 440.66 638.71 440.45 C 637.18 445.52 634.43 450.14 631.38 454.43 C 630.59 455.68 629.44 456.62 627.91 456.72 C 626.15 454.94 625.71 452.38 624.91 450.11 C 623.15 452.10 622.28 456.90 618.84 455.38 C 615.64 449.65 613.82 442.79 614.48 436.21 C 616.30 436.62 617.43 438.14 617.33 439.97 C 617.53 443.99 618.76 447.83 619.89 451.67 C 620.14 451.55 620.64 451.32 620.89 451.20 C 621.67 449.76 622.50 448.35 623.36 446.95 C 622.31 443.89 621.17 440.85 620.56 437.68 C 621.48 437.40 622.43 437.15 623.39 436.93 C 623.90 438.84 624.41 440.77 624.85 442.71 C 625.17 442.68 625.80 442.60 626.11 442.57 Z" />
<path fill="#000000" d=" M 146.84 492.83 C 149.43 487.51 153.33 480.96 160.20 481.49 C 168.19 486.17 172.02 495.46 172.73 504.36 C 173.10 504.75 173.86 505.52 174.23 505.91 C 173.63 507.20 173.36 508.56 173.41 509.97 C 173.57 515.80 173.85 521.62 173.84 527.46 C 173.20 527.44 171.92 527.40 171.28 527.38 C 170.66 520.83 170.85 514.25 170.34 507.71 C 162.59 507.34 154.90 508.31 147.17 508.45 C 146.94 514.84 147.84 521.20 147.77 527.59 C 144.24 528.18 144.58 524.18 144.53 521.99 C 144.65 512.28 142.42 501.94 146.84 492.83 Z" />
<path fill="#f5f4f0" d=" M 155.46 485.52 C 156.68 484.39 158.48 484.30 160.01 484.72 C 166.44 489.28 169.42 497.17 169.95 504.80 C 162.16 504.54 154.40 505.44 146.62 505.41 C 147.18 498.05 149.71 490.45 155.46 485.52 Z" />
<path fill="#000000" d=" M 257.11 505.25 C 273.18 501.62 289.73 502.30 306.08 502.52 C 312.99 503.07 319.82 504.80 325.93 508.13 C 332.49 511.17 340.04 512.41 345.55 517.41 C 348.96 520.54 353.29 522.30 357.02 524.95 C 361.53 529.33 366.23 533.58 369.89 538.73 C 371.13 537.72 369.97 536.58 369.21 535.76 C 370.04 534.44 371.06 533.28 372.12 532.16 C 375.95 536.04 374.64 541.74 374.77 546.64 C 371.16 547.39 367.44 547.19 363.78 547.09 C 361.78 544.17 365.66 541.49 366.74 538.93 C 363.19 533.72 359.19 528.56 354.12 524.77 C 348.90 521.79 344.53 517.42 338.99 515.02 C 331.42 512.59 324.63 508.17 316.89 506.22 C 310.61 504.76 304.33 502.70 297.80 503.35 C 292.93 502.57 288.03 502.74 283.17 503.38 C 278.53 503.59 273.76 503.02 269.23 504.25 C 264.06 504.51 259.03 505.73 253.97 506.72 C 248.53 508.10 243.17 509.80 237.89 511.71 C 232.78 514.05 227.29 515.51 222.35 518.24 C 218.95 520.07 216.20 522.83 213.26 525.28 C 213.01 525.58 212.52 526.18 212.27 526.49 L 211.73 526.53 C 209.09 529.72 206.72 533.12 204.96 536.88 C 204.31 536.32 203.29 535.66 203.81 534.67 C 205.89 530.96 209.00 527.94 212.08 525.05 C 215.96 521.85 219.68 518.29 224.36 516.29 C 235.03 511.94 245.74 507.45 257.11 505.25 Z" />
<path fill="#dd4e0c" d=" M 108.40 548.45 C 110.19 546.69 112.22 544.85 114.90 544.89 C 143.96 546.12 173.21 543.82 202.15 547.53 C 205.38 547.93 208.77 548.64 211.43 550.64 C 213.44 552.34 213.73 555.14 214.07 557.58 C 214.66 566.55 215.04 575.55 214.77 584.55 C 210.72 583.13 206.39 583.02 202.17 583.49 C 202.44 589.60 206.06 594.75 208.19 600.31 C 211.27 599.66 213.55 597.63 215.32 595.13 C 214.13 599.63 214.88 604.34 214.64 608.94 C 214.39 617.94 214.93 626.98 214.04 635.95 C 213.89 640.01 210.68 643.19 206.93 644.24 C 201.25 644.68 195.58 643.99 189.93 643.49 C 162.95 642.79 135.94 641.92 108.94 642.83 C 104.99 642.60 99.82 643.49 97.34 639.58 C 95.29 637.51 95.63 634.50 95.80 631.86 C 96.91 620.22 96.52 608.44 98.69 596.91 C 101.51 582.09 99.76 566.97 100.23 552.01 C 100.40 548.13 105.34 546.48 108.40 548.45 Z" />
<path fill="#fef6f3" d=" M 160.60 558.85 C 161.82 557.89 163.46 558.84 164.84 558.86 C 169.72 559.81 174.70 559.40 179.62 559.96 C 185.29 560.75 191.05 558.53 196.61 560.54 C 196.80 567.82 193.84 574.73 193.39 581.98 C 192.97 584.31 193.46 588.53 190.01 588.46 C 180.47 588.66 170.92 588.11 161.38 588.50 C 160.71 587.07 160.04 585.58 160.22 583.97 C 160.44 575.60 162.52 567.17 160.60 558.85 Z" />
<path fill="#000000" d=" M 387.87 560.74 C 388.46 559.73 389.62 559.57 390.65 559.31 C 390.64 559.96 390.61 561.28 390.59 561.93 C 388.21 565.11 385.39 567.98 383.40 571.44 C 382.65 572.54 383.21 573.87 383.85 574.87 C 386.19 578.89 389.20 582.61 390.65 587.10 C 391.58 588.44 388.88 590.79 388.35 588.64 C 386.23 583.87 383.59 579.38 380.64 575.08 C 376.58 579.32 373.92 584.75 369.75 588.85 C 368.54 590.57 366.19 587.81 367.66 586.61 C 371.69 582.30 374.81 577.24 378.72 572.82 C 376.36 568.63 372.71 565.45 369.46 562.00 C 370.28 560.36 371.40 560.07 372.82 561.14 C 376.10 563.49 377.94 567.27 380.82 570.05 C 383.12 566.91 385.37 563.73 387.87 560.74 Z" />
<path fill="#000000" d=" M 577.26 559.30 C 585.68 559.28 594.15 559.17 602.45 560.78 C 602.62 562.39 602.70 564.13 601.09 565.06 C 596.67 568.42 592.43 571.99 588.14 575.50 C 592.25 575.89 596.85 574.77 600.60 576.82 C 600.36 577.25 599.89 578.10 599.65 578.52 C 594.33 578.86 588.94 577.91 583.64 578.67 C 579.52 581.93 575.47 585.35 571.85 589.17 C 581.37 590.73 590.97 591.64 600.55 592.74 C 600.51 593.68 600.48 594.63 600.44 595.58 C 589.51 594.00 578.31 593.84 567.58 591.06 C 567.54 590.53 567.46 589.48 567.43 588.95 C 570.51 584.68 575.46 582.29 578.91 578.41 C 578.44 578.09 577.50 577.47 577.03 577.15 C 577.23 576.35 577.47 575.56 577.74 574.80 C 579.55 575.00 581.36 575.31 583.19 575.54 C 588.63 571.84 593.49 567.37 598.39 563.01 C 591.50 562.00 584.54 562.57 577.62 562.29 C 577.49 561.28 577.37 560.29 577.26 559.30 Z" />
<path fill="#dd4e0c" d=" M 655.48 561.26 L 655.84 560.52 C 659.59 559.91 657.19 564.78 656.46 566.55 C 651.53 575.76 648.77 585.83 645.73 595.77 C 644.89 597.93 644.38 601.70 641.17 600.85 C 641.57 595.99 644.36 591.70 645.44 586.98 C 647.67 577.99 652.06 569.80 655.48 561.26 Z" />
<path fill="#dd4e0c" d=" M 651.19 562.93 C 653.44 561.12 654.38 564.41 652.80 565.77 C 647.62 572.52 645.90 580.98 642.28 588.53 C 640.94 591.46 639.85 594.53 638.29 597.37 C 637.81 598.93 634.76 599.07 635.31 596.90 C 637.86 590.56 641.26 584.55 643.50 578.06 C 645.31 572.66 648.01 567.64 651.19 562.93 Z" />
<path fill="#080707" d=" M 166.40 564.29 C 166.94 564.29 168.01 564.30 168.55 564.30 C 168.55 565.95 168.53 567.60 168.49 569.27 C 167.97 569.27 166.94 569.28 166.43 569.28 C 166.39 567.61 166.39 565.94 166.40 564.29 Z" />
<path fill="#141413" d=" M 170.26 565.62 C 172.17 564.70 174.37 564.44 176.20 565.75 C 176.91 567.02 177.60 568.32 178.26 569.64 C 175.74 569.31 173.23 568.93 170.71 568.62 L 170.37 568.58 C 170.34 567.84 170.29 566.36 170.26 565.62 Z" />
<path fill="#333130" d=" M 185.35 566.54 C 185.40 563.19 189.39 565.06 191.50 564.70 C 191.60 565.85 191.69 567.00 191.78 568.16 C 189.73 568.01 187.69 567.67 185.66 567.38 C 185.33 569.52 183.67 570.71 181.56 570.55 C 181.37 569.16 181.06 567.74 181.43 566.36 C 182.74 566.19 184.04 566.24 185.35 566.54 Z" />
<path fill="#000000" d=" M 695.91 569.20 C 697.66 563.78 704.66 564.64 709.18 564.53 C 713.58 566.41 715.49 571.47 715.13 575.97 C 714.50 578.59 712.47 580.51 710.38 582.06 C 717.06 583.12 718.56 593.74 712.44 596.52 C 708.06 598.82 702.86 598.22 698.09 598.35 C 696.61 598.62 695.77 597.23 695.08 596.21 C 696.16 595.07 697.23 593.75 697.19 592.08 C 697.65 584.87 698.56 577.68 698.67 570.45 C 697.98 570.14 696.60 569.51 695.91 569.20 Z" />
<path fill="#9f9a98" d=" M 176.20 565.75 C 177.98 566.41 179.80 568.29 178.02 570.05 C 175.67 571.32 172.96 569.44 170.71 568.62 C 173.23 568.93 175.74 569.31 178.26 569.64 C 177.60 568.32 176.91 567.02 176.20 565.75 Z" />
<path fill="#f5f4f0" d=" M 701.65 568.04 C 704.07 567.58 706.58 567.26 709.03 567.73 C 711.67 569.39 712.43 573.05 712.13 575.95 C 709.95 580.18 705.15 582.11 700.69 582.80 C 701.48 577.92 701.71 572.97 701.65 568.04 Z" />
<path fill="#050505" d=" M 170.46 574.30 C 171.12 574.73 171.77 575.18 172.42 575.63 C 172.57 577.60 172.73 579.58 172.83 581.56 C 172.28 581.49 171.20 581.35 170.65 581.28 C 170.38 578.96 170.22 576.62 170.46 574.30 Z" />
<path fill="#000000" d=" M 667.88 574.66 C 673.43 572.97 675.75 579.86 678.69 583.18 C 679.70 584.04 681.08 584.62 681.66 585.91 C 681.60 587.93 679.53 588.44 678.08 589.22 C 675.96 590.94 673.20 591.56 671.08 593.29 C 669.24 593.13 666.80 594.40 665.65 592.39 C 666.11 589.86 666.66 587.36 666.89 584.81 C 661.98 584.66 657.09 584.10 652.21 583.58 C 652.27 582.97 652.37 581.75 652.42 581.14 C 657.67 581.14 662.90 581.99 668.16 581.74 C 668.52 579.37 668.38 576.99 667.88 574.66 Z" />
<path fill="#212020" d=" M 174.63 584.00 C 172.81 581.24 175.33 577.92 175.88 575.06 C 176.99 576.05 178.11 577.06 179.24 578.04 C 179.01 579.40 178.77 580.78 178.52 582.16 C 176.95 582.18 175.65 582.79 174.63 584.00 Z" />
<path fill="#363433" d=" M 183.76 576.75 C 184.28 576.70 185.31 576.60 185.83 576.55 C 185.67 578.29 185.14 579.95 184.19 581.44 C 186.08 581.58 186.73 583.00 186.81 584.65 C 185.71 584.69 184.62 584.73 183.53 584.77 C 183.47 583.16 183.69 581.46 182.58 580.15 C 182.96 579.01 183.36 577.87 183.76 576.75 Z" />
<path fill="#070707" d=" M 165.82 577.68 C 166.31 577.54 167.29 577.27 167.79 577.14 C 167.70 579.23 167.61 581.32 167.52 583.43 C 167.05 583.39 166.10 583.31 165.63 583.27 C 165.68 581.40 165.75 579.54 165.82 577.68 Z" />
<path fill="#000000" d=" M 623.93 578.52 C 629.86 576.82 635.82 579.45 641.78 579.78 C 641.70 580.49 641.55 581.92 641.47 582.63 C 635.94 581.84 630.41 580.94 624.79 581.09 C 624.46 580.24 624.18 579.38 623.93 578.52 Z" />
<path fill="#000000" d=" M 202.17 583.49 C 206.39 583.02 210.72 583.13 214.77 584.55 C 215.83 584.85 216.82 585.30 217.75 585.91 C 218.11 588.37 217.08 590.68 216.25 592.93 C 220.18 595.52 223.64 598.75 227.72 601.14 C 233.84 604.58 239.61 608.60 245.63 612.22 C 253.01 617.60 258.06 625.41 262.79 633.06 C 267.69 639.03 272.45 645.13 275.75 652.16 C 276.25 653.07 276.75 653.99 277.25 654.92 C 281.30 663.57 285.98 671.96 288.88 681.12 C 291.34 686.66 290.48 692.86 290.27 698.73 C 289.84 698.73 288.98 698.73 288.55 698.73 C 288.74 692.77 289.46 686.65 287.68 680.85 C 285.90 674.68 282.36 669.28 279.47 663.62 C 277.33 658.23 275.24 652.81 272.27 647.81 C 268.29 641.93 263.05 637.00 259.29 630.96 C 254.72 623.72 249.44 616.41 241.72 612.27 C 236.82 609.06 231.99 605.71 226.69 603.17 C 222.44 601.15 219.02 597.94 215.32 595.13 C 213.55 597.63 211.27 599.66 208.19 600.31 C 206.06 594.75 202.44 589.60 202.17 583.49 Z" />
<path fill="#f5f4f0" d=" M 700.53 585.63 C 704.43 585.32 708.41 584.74 712.29 585.68 C 712.83 588.05 714.35 591.22 712.19 593.22 C 708.63 596.03 703.77 595.24 699.56 595.46 C 699.85 592.17 700.31 588.91 700.53 585.63 Z" />
<path fill="#000000" d=" M 381.20 604.18 C 381.76 604.16 382.89 604.11 383.45 604.09 C 384.60 609.08 385.10 614.43 388.06 618.78 C 391.91 625.70 396.97 632.01 403.32 636.80 C 406.93 639.46 410.49 642.21 413.75 645.31 C 418.51 648.76 423.64 651.63 429.14 653.73 C 431.93 655.12 434.91 656.10 437.89 657.05 C 438.92 657.41 439.95 657.79 440.98 658.19 C 448.50 660.27 456.31 660.83 463.93 662.43 C 476.95 663.09 490.10 664.17 503.07 662.30 C 508.17 660.46 513.56 659.17 518.09 656.07 C 526.80 649.86 537.01 646.13 545.57 639.68 C 553.08 635.33 559.94 629.87 565.08 622.82 C 563.47 622.49 561.63 622.58 560.48 621.22 C 560.66 619.43 561.22 617.73 561.84 616.06 C 564.58 614.67 567.62 613.93 570.18 612.19 C 572.11 611.07 573.78 609.23 576.17 609.23 C 576.46 609.89 577.03 611.21 577.32 611.87 C 576.46 616.27 575.06 620.56 573.31 624.69 C 571.29 624.85 569.29 624.59 567.62 623.38 C 562.37 628.91 557.69 635.26 550.56 638.55 C 540.00 645.60 528.28 650.68 517.69 657.68 C 512.72 660.50 507.13 662.06 501.62 663.42 C 489.42 664.23 477.18 663.80 464.98 663.42 C 452.10 661.15 438.86 659.80 426.81 654.33 C 425.89 653.83 424.99 653.33 424.08 652.84 C 423.57 652.60 422.53 652.10 422.02 651.86 C 421.57 651.60 420.67 651.07 420.22 650.81 C 415.98 648.13 412.04 645.03 408.25 641.76 C 403.72 639.48 400.19 635.84 396.83 632.14 C 389.16 624.60 382.18 615.25 381.20 604.18 Z" />
<path fill="#000000" d=" M 600.17 609.09 C 603.62 609.50 604.21 613.70 605.61 616.26 C 607.69 623.64 612.19 630.31 612.56 638.13 C 613.81 646.72 612.90 655.45 613.76 664.07 C 614.72 665.69 616.79 666.89 616.46 669.04 C 612.95 671.91 608.29 673.27 605.32 676.83 C 603.87 676.65 601.82 677.07 601.64 675.05 C 602.47 670.85 603.28 666.64 603.69 662.37 C 603.71 661.03 605.19 660.62 606.07 659.95 C 606.81 662.02 608.94 661.80 610.72 662.05 C 611.75 650.73 611.43 638.99 607.87 628.14 C 606.63 624.53 605.20 620.98 603.70 617.48 C 602.52 614.68 600.65 612.14 600.17 609.09 Z" />
<path fill="#e2703b" d=" M 105.17 631.24 C 106.80 630.77 107.34 631.34 106.78 632.97 C 105.15 633.43 104.61 632.86 105.17 631.24 Z" />
<path fill="#585856" d=" M 613.08 667.22 C 616.42 667.42 611.49 670.17 613.08 667.22 Z" />
<path fill="#dd4e0c" d=" M 651.18 675.54 C 651.84 675.46 653.17 675.30 653.83 675.22 C 652.91 683.79 648.85 691.59 646.65 699.85 C 644.58 706.18 643.79 712.81 642.09 719.23 C 639.87 719.92 639.09 719.20 639.74 717.08 C 641.89 706.85 644.39 696.68 647.91 686.83 C 649.30 683.15 649.75 679.20 651.18 675.54 Z" />
<path fill="#000000" d=" M 591.72 680.28 C 592.26 680.32 593.33 680.41 593.87 680.45 C 593.72 681.97 593.78 683.59 593.10 685.01 C 589.32 692.19 587.08 700.07 582.98 707.09 C 579.13 713.59 577.64 721.09 574.46 727.89 C 573.43 727.34 570.95 727.94 571.55 725.99 C 575.52 716.22 579.80 706.59 584.83 697.31 C 581.82 701.19 576.15 701.17 572.52 698.22 C 572.21 693.22 571.28 686.87 575.03 682.98 C 576.56 680.85 577.31 684.50 576.59 685.45 C 575.29 688.96 574.77 692.77 575.33 696.49 C 577.98 698.43 581.65 697.03 583.24 694.39 C 586.02 689.66 589.79 685.49 591.72 680.28 Z" />
<path fill="#dd4e0c" d=" M 630.46 720.57 C 632.23 706.80 638.92 694.39 642.00 680.97 C 644.27 679.10 645.25 682.49 644.37 684.14 C 641.22 696.12 634.93 707.20 633.39 719.63 C 633.53 721.47 631.52 720.43 630.46 720.57 Z" />
<path fill="#000000" d=" M 695.22 681.94 C 695.92 681.65 697.31 681.08 698.00 680.79 C 703.18 681.01 709.41 679.40 713.58 683.39 C 716.79 685.92 717.01 690.37 716.77 694.12 C 716.68 697.20 713.99 699.14 711.99 701.11 C 716.86 700.83 720.10 705.51 720.57 709.91 C 720.83 713.17 721.49 717.27 718.60 719.64 C 712.37 725.84 702.68 723.12 695.28 726.81 C 695.08 723.79 696.62 720.99 696.51 717.97 C 696.69 708.32 696.46 698.68 696.47 689.03 C 696.62 686.57 695.81 684.27 695.22 681.94 Z" />
<path fill="#f5f4f0" d=" M 699.17 722.44 C 699.49 709.55 699.26 696.65 699.53 683.76 C 704.23 683.80 710.69 682.35 713.26 687.57 C 713.98 690.86 714.78 695.31 711.55 697.58 C 708.52 700.63 703.80 699.74 700.30 701.70 C 700.32 702.31 700.36 703.54 700.38 704.16 C 705.06 704.46 709.79 703.89 714.45 704.51 C 717.83 706.75 717.93 711.40 717.72 715.05 C 717.64 717.64 714.89 718.95 712.90 720.00 C 708.49 721.57 703.73 721.60 699.17 722.44 Z" />
<path fill="#000000" d=" M 670.08 698.78 C 670.28 696.95 671.68 693.59 674.04 694.78 C 677.36 696.83 681.03 699.08 682.40 702.97 C 682.13 703.58 681.59 704.81 681.32 705.43 C 677.87 706.25 674.34 706.98 670.78 706.68 C 670.34 705.33 669.88 704.00 669.46 702.68 C 663.13 701.87 656.79 701.31 650.47 700.52 C 650.57 699.48 650.68 698.46 650.79 697.44 C 657.22 697.82 663.63 698.53 670.08 698.78 Z" />
<path fill="#000000" d=" M 603.49 700.29 C 612.85 700.18 622.04 697.81 631.45 698.20 C 631.39 698.81 631.29 700.03 631.24 700.64 C 625.89 701.52 620.41 701.19 615.10 702.28 C 611.20 702.73 607.18 704.06 603.33 702.68 C 603.37 702.08 603.45 700.89 603.49 700.29 Z" />
<path fill="#5c5c5a" d=" M 263.24 707.94 C 269.27 707.36 275.39 707.46 281.39 708.39 C 290.18 709.72 299.12 708.99 307.94 710.11 C 315.32 711.08 322.77 711.48 330.21 711.41 C 330.45 711.85 330.94 712.74 331.18 713.18 C 323.10 712.96 315.01 712.53 306.99 711.54 C 298.00 710.49 288.90 711.10 279.94 709.72 C 274.01 708.76 267.96 709.38 262.16 710.82 C 261.44 731.22 262.37 751.65 261.16 772.03 C 261.12 774.86 261.23 777.69 261.32 780.53 C 260.32 776.05 259.78 771.48 259.80 766.89 C 260.77 756.61 260.27 746.27 260.33 735.96 C 260.40 727.61 260.08 719.28 259.78 710.94 C 260.96 709.96 262.11 708.96 263.24 707.94 Z" />
<path fill="#f5f4f0" d=" M 262.16 710.82 C 267.96 709.38 274.01 708.76 279.94 709.72 C 288.90 711.10 298.00 710.49 306.99 711.54 C 315.01 712.53 323.10 712.96 331.18 713.18 C 336.93 713.19 342.76 712.94 348.34 714.56 C 351.05 722.75 350.73 731.49 350.85 740.00 C 350.67 753.10 351.53 766.29 349.36 779.28 C 325.34 780.04 301.29 780.58 277.26 780.65 C 273.42 781.18 269.55 781.45 265.67 781.32 C 264.22 781.06 262.76 780.77 261.32 780.53 C 261.23 777.69 261.12 774.86 261.16 772.03 C 262.37 751.65 261.44 731.22 262.16 710.82 Z" />
<path fill="#1e1e1d" d=" M 330.21 711.41 C 336.88 711.33 343.83 710.37 350.28 712.60 C 350.77 714.67 351.27 716.76 351.34 718.91 C 352.11 731.62 351.52 744.35 351.79 757.07 C 352.46 760.36 352.32 763.72 352.36 767.05 C 352.31 772.00 352.75 777.12 350.84 781.83 C 333.25 781.38 315.64 780.92 298.04 781.50 C 294.80 781.54 291.56 781.72 288.33 781.51 C 284.65 781.10 280.95 780.89 277.26 780.65 C 301.29 780.58 325.34 780.04 349.36 779.28 C 351.53 766.29 350.67 753.10 350.85 740.00 C 350.73 731.49 351.05 722.75 348.34 714.56 C 342.76 712.94 336.93 713.19 331.18 713.18 C 330.94 712.74 330.45 711.85 330.21 711.41 Z" />
<path fill="#1e1e1e" d=" M 269.55 717.38 C 272.80 717.93 277.38 716.63 279.50 719.86 C 278.41 723.03 274.78 719.38 272.48 719.91 C 272.24 722.01 271.98 724.11 271.71 726.22 C 273.65 726.61 277.59 725.35 276.72 728.66 C 274.92 728.98 273.11 728.51 271.32 728.37 C 271.22 730.43 271.11 732.52 270.89 734.59 C 270.32 734.54 269.18 734.46 268.61 734.41 C 269.93 728.90 271.40 722.94 269.55 717.38 Z" />
<path fill="#141414" d=" M 327.37 720.38 C 328.49 717.91 332.04 716.82 334.01 718.97 C 337.10 721.46 335.55 725.82 337.42 728.92 C 335.75 730.80 336.59 733.39 336.44 735.65 C 335.88 735.67 334.76 735.71 334.21 735.73 C 334.22 733.68 334.27 731.64 334.32 729.60 C 331.32 729.51 328.33 729.47 325.34 729.44 C 324.85 731.82 326.43 735.62 323.48 736.82 C 322.32 731.08 324.87 725.41 327.37 720.38 Z" />
<path fill="#000000" d=" M 538.14 722.16 C 540.83 721.00 543.38 719.40 546.34 719.03 C 544.08 722.02 540.17 722.57 536.86 723.78 C 530.22 727.34 524.91 733.57 522.73 740.81 C 519.61 751.24 518.78 762.27 519.76 773.09 C 520.87 779.15 526.64 782.41 531.64 785.04 C 533.24 782.64 534.52 780.06 535.73 777.45 C 536.29 777.73 537.43 778.28 538.00 778.56 C 538.82 783.55 542.45 787.43 544.43 791.99 C 544.15 792.70 543.61 794.13 543.34 794.85 C 538.73 793.79 534.00 794.25 529.35 794.57 C 529.31 792.26 530.33 790.18 530.92 788.01 C 528.15 784.66 523.11 784.10 520.65 780.39 C 518.40 777.48 517.34 773.68 517.96 770.04 C 519.03 762.41 517.24 754.41 520.13 747.07 C 520.34 745.95 520.56 744.84 520.78 743.75 C 521.60 741.54 522.36 739.31 523.08 737.08 C 523.92 735.51 524.84 733.99 525.76 732.47 C 528.32 729.49 530.99 726.59 534.01 724.06 C 535.38 723.41 536.75 722.76 538.14 722.16 Z" />
<path fill="#f5f4f0" d=" M 326.04 727.41 C 327.36 724.71 328.33 720.07 332.11 720.31 C 333.91 722.35 333.96 725.19 334.44 727.74 C 331.63 727.86 328.82 727.74 326.04 727.41 Z" />
<path fill="#050505" d=" M 279.70 733.84 C 280.19 730.79 278.35 726.35 281.55 724.46 C 281.60 725.17 281.69 726.58 281.73 727.29 C 283.06 727.24 284.38 727.21 285.71 727.21 C 285.61 727.73 285.39 728.77 285.28 729.29 C 284.12 729.41 282.96 729.54 281.81 729.69 C 281.30 731.14 282.02 733.63 279.70 733.84 Z" />
<path fill="#161616" d=" M 289.57 725.41 C 291.34 725.46 293.67 725.11 294.65 727.01 C 295.18 729.48 295.07 732.90 292.47 734.21 C 290.63 734.60 288.33 733.66 287.78 731.78 C 288.01 729.57 288.92 727.50 289.57 725.41 Z" />
<path fill="#010101" d=" M 297.86 728.00 C 299.57 727.07 301.34 725.84 303.41 726.12 C 303.29 726.86 303.07 728.32 302.96 729.05 C 302.63 728.93 301.95 728.69 301.62 728.57 L 301.31 729.12 C 300.48 730.55 299.81 732.07 299.14 733.59 C 298.66 733.59 297.70 733.59 297.22 733.59 C 297.34 731.72 297.22 729.78 297.86 728.00 Z" />
<path fill="#898886" d=" M 303.41 726.12 C 303.71 726.96 304.01 727.80 304.32 728.65 C 305.78 728.04 307.27 727.94 308.78 728.35 C 309.31 729.87 310.59 731.86 309.16 733.26 C 308.32 733.97 307.47 733.26 306.90 732.65 C 307.46 732.59 308.56 732.46 309.11 732.40 C 309.11 731.01 308.66 729.10 307.04 728.89 C 306.42 729.08 305.16 729.45 304.53 729.64 C 304.14 729.49 303.35 729.20 302.96 729.05 C 303.07 728.32 303.29 726.86 303.41 726.12 Z" />
<path fill="#313130" d=" M 311.64 726.48 C 314.00 725.89 315.84 727.03 315.65 729.56 C 314.27 729.63 312.90 729.67 311.53 729.70 C 311.56 728.62 311.60 727.55 311.64 726.48 Z" />
<path fill="#f5f4f0" d=" M 290.11 732.21 C 290.41 730.47 289.53 727.67 292.11 727.50 C 293.56 729.35 292.49 732.01 290.11 732.21 Z" />
<path fill="#61605f" d=" M 301.62 728.57 C 301.95 728.69 302.63 728.93 302.96 729.05 C 302.97 729.66 302.97 730.88 302.97 731.49 L 302.41 731.59 C 302.13 730.97 301.58 729.74 301.31 729.12 L 301.62 728.57 Z" />
<path fill="#010101" d=" M 302.96 729.05 C 303.35 729.20 304.14 729.49 304.53 729.64 C 305.16 729.45 306.42 729.08 307.04 728.89 C 308.66 729.10 309.11 731.01 309.11 732.40 C 308.56 732.46 307.46 732.59 306.90 732.65 L 306.40 731.21 C 305.74 731.57 304.41 732.31 303.75 732.68 L 302.97 731.49 C 302.97 730.88 302.97 729.66 302.96 729.05 Z" />
<path fill="#363433" d=" M 310.71 734.73 C 311.62 734.66 312.54 734.59 313.45 734.53 C 313.54 735.55 313.62 736.57 313.70 737.61 C 312.63 737.56 311.57 737.52 310.51 737.47 C 310.58 736.55 310.64 735.64 310.71 734.73 Z" />
<path fill="#010101" d=" M 956.31 743.01 C 956.88 742.53 957.46 742.07 958.06 741.62 C 962.66 745.73 958.93 752.21 959.12 757.35 C 961.18 756.77 963.28 756.38 965.43 756.21 C 965.48 756.77 965.57 757.88 965.62 758.44 C 963.30 759.37 960.87 759.97 958.45 760.53 C 956.63 769.09 956.30 777.85 955.38 786.53 C 954.99 786.90 954.20 787.64 953.80 788.01 C 953.61 787.30 953.22 785.88 953.03 785.17 C 953.56 776.92 954.16 768.67 955.52 760.51 C 953.31 761.32 950.12 761.89 950.15 758.60 C 952.11 758.04 954.12 757.59 956.16 757.24 C 956.40 752.49 958.32 747.61 956.31 743.01 Z" />
<path fill="#000000" d=" M 745.92 746.69 C 752.80 745.11 760.27 743.93 767.21 745.73 C 772.63 748.99 777.62 754.38 778.22 760.95 C 778.95 766.50 775.35 772.11 770.32 774.33 C 776.78 774.61 781.86 779.45 785.28 784.51 C 787.31 789.15 788.22 794.93 785.49 799.51 C 781.54 806.32 773.83 810.49 766.01 810.60 C 760.56 810.67 754.63 811.72 749.52 809.34 C 749.50 808.74 749.44 807.55 749.42 806.96 C 757.35 808.66 765.67 808.63 773.47 806.29 C 779.48 803.72 785.64 797.77 784.13 790.64 C 783.58 784.63 778.68 780.03 773.43 777.71 C 769.02 776.89 764.29 776.99 760.08 778.65 C 757.48 779.53 754.64 780.54 752.00 779.19 C 754.92 775.28 760.25 775.56 764.51 774.31 C 769.33 772.62 774.33 769.28 775.39 763.95 C 776.26 757.52 771.67 751.79 766.51 748.60 C 761.89 746.90 756.77 747.94 752.01 748.49 C 749.43 748.26 749.64 751.28 749.51 752.97 C 749.15 770.78 749.33 788.61 749.27 806.42 C 747.38 806.61 745.98 806.13 746.47 804.02 C 746.78 786.03 746.25 768.02 746.59 750.03 C 744.58 750.03 743.53 747.00 745.92 746.69 Z" />
<path fill="#040404" d=" M 317.49 747.47 C 320.37 747.34 323.39 746.76 326.18 747.71 C 327.65 748.67 327.82 750.49 328.39 752.01 C 327.94 753.11 327.50 754.25 327.06 755.37 C 329.23 755.42 331.98 755.48 332.54 758.09 C 333.79 762.08 329.62 764.71 326.24 765.24 C 322.88 765.61 319.53 766.08 316.27 766.99 C 318.43 760.68 316.84 753.97 317.49 747.47 Z" />
<path fill="#f5f4f0" d=" M 319.56 749.15 C 321.54 749.19 323.53 749.27 325.51 749.45 C 325.52 750.97 326.35 752.75 325.29 754.10 C 324.30 754.75 323.29 755.36 322.25 755.93 C 322.27 756.36 322.30 757.21 322.32 757.64 C 325.04 757.49 327.78 757.37 330.51 757.61 C 331.47 764.05 323.13 764.98 318.49 764.52 C 318.45 759.37 318.52 754.21 319.56 749.15 Z" />
<path fill="#0b0b0a" d=" M 269.91 750.35 C 274.21 750.48 278.51 750.41 282.81 750.58 L 281.88 752.30 C 278.19 752.45 274.49 752.38 270.80 752.27 C 270.58 751.79 270.13 750.83 269.91 750.35 Z" />
<path fill="#000000" d=" M 903.84 750.72 C 907.13 750.13 911.33 749.30 913.70 752.39 C 917.78 756.93 916.31 764.07 912.13 768.04 C 917.10 771.76 916.47 778.59 916.61 784.09 C 916.32 785.39 917.22 788.16 914.72 787.65 C 913.26 786.11 913.90 783.91 913.74 782.02 C 913.79 778.54 913.45 775.03 912.18 771.77 C 910.52 770.98 908.31 770.90 907.40 769.10 C 909.07 766.64 911.76 764.85 912.76 761.96 C 913.98 759.11 913.12 755.38 910.58 753.56 C 907.92 752.37 905.03 754.49 902.34 753.37 C 902.71 752.71 903.46 751.38 903.84 750.72 Z" />
<path fill="#0b0b0a" d=" M 275.76 754.57 C 276.09 754.14 276.76 753.28 277.09 752.85 C 277.66 756.69 277.38 760.58 277.33 764.45 C 276.76 764.52 275.62 764.66 275.05 764.73 C 275.56 761.36 275.53 757.95 275.76 754.57 Z" />
<path fill="#050404" d=" M 285.23 759.41 C 284.30 755.23 291.05 753.72 292.72 757.14 C 292.91 759.89 293.47 763.75 290.62 765.36 C 288.65 766.03 286.21 765.71 284.69 764.20 C 283.58 762.68 284.25 760.77 285.23 759.41 Z" />
<path fill="#000000" d=" M 901.79 789.26 C 902.47 777.56 902.51 765.83 903.67 754.16 C 904.33 754.31 905.64 754.60 906.30 754.75 C 906.17 766.12 904.73 777.49 904.59 788.89 C 905.29 790.93 901.63 791.02 901.79 789.26 Z" />
<path fill="#313130" d=" M 297.39 756.32 C 298.51 756.28 299.62 756.25 300.75 756.24 C 300.73 757.36 300.71 758.49 300.68 759.63 C 299.58 759.59 298.47 759.56 297.38 759.53 C 297.37 758.45 297.38 757.38 297.39 756.32 Z" />
<path fill="#f5f4f0" d=" M 288.67 757.59 C 289.16 757.59 290.15 757.60 290.64 757.61 C 290.40 759.44 291.52 762.36 289.24 763.17 C 288.55 763.20 287.18 763.27 286.49 763.30 C 286.39 761.92 286.31 760.55 286.25 759.18 C 286.85 758.78 288.06 757.99 288.67 757.59 Z" />
<path fill="#070707" d=" M 972.38 758.03 C 973.95 757.73 973.80 759.81 973.75 760.82 C 973.13 760.82 971.90 760.80 971.28 760.79 C 970.97 759.58 970.98 758.40 972.38 758.03 Z" />
<path fill="#313130" d=" M 295.49 766.02 C 295.96 765.39 296.43 764.77 296.90 764.16 C 297.55 764.26 298.85 764.47 299.50 764.57 C 299.54 765.51 299.58 766.46 299.63 767.41 C 298.95 767.55 297.59 767.83 296.92 767.97 C 296.44 767.31 295.96 766.66 295.49 766.02 Z" />
<path fill="#161615" d=" M 259.44 770.81 C 259.29 769.48 259.35 768.14 259.80 766.89 C 259.78 771.48 260.32 776.05 261.32 780.53 C 262.76 780.77 264.22 781.06 265.67 781.32 C 266.83 781.71 267.98 782.16 269.13 782.62 C 266.39 782.73 263.65 782.81 260.91 782.72 C 260.54 782.70 259.82 782.66 259.46 782.64 C 258.77 778.71 259.80 774.75 259.44 770.81 Z" />
<path fill="#010101" d=" M 999.55 767.19 C 1000.45 767.24 1001.37 767.31 1002.30 767.39 C 1003.20 777.46 1007.01 787.24 1005.62 797.49 C 1001.02 801.78 994.25 800.36 988.54 800.47 C 988.44 799.44 988.39 798.42 988.38 797.41 C 992.83 797.59 997.51 798.24 1001.82 796.79 C 1003.36 796.30 1003.16 794.25 1003.23 792.98 C 1003.17 788.22 1002.47 783.47 1001.23 778.88 C 999.97 781.87 998.98 785.37 996.04 787.18 C 993.74 788.57 990.32 786.77 990.54 784.00 C 990.35 778.55 991.64 772.70 995.30 768.52 C 995.95 768.42 997.25 768.22 997.90 768.11 C 997.92 769.92 997.01 771.46 996.02 772.90 C 993.69 776.46 993.35 780.86 993.53 785.01 C 995.51 784.21 996.91 782.49 997.56 780.50 C 999.00 776.22 999.32 771.67 999.55 767.19 Z" />
<path fill="#010101" d=" M 920.10 775.92 C 921.83 772.74 922.66 768.13 926.94 767.60 C 929.19 768.28 932.47 769.04 932.43 772.04 C 932.37 777.06 931.88 783.15 927.64 786.51 C 924.92 787.11 921.44 786.89 919.58 784.54 C 917.91 781.89 919.15 778.60 920.10 775.92 Z" />
<path fill="#000000" d=" M 934.68 774.37 C 935.52 771.66 936.12 767.82 939.55 767.31 C 940.18 770.13 938.21 772.46 937.59 775.08 C 936.80 778.31 936.07 781.88 937.70 784.99 C 942.54 782.67 943.63 776.90 944.38 772.14 C 944.98 772.21 946.16 772.35 946.75 772.42 C 946.72 777.64 944.99 783.12 940.88 786.57 C 939.05 788.32 935.96 787.34 934.69 785.41 C 932.64 782.05 934.29 777.96 934.68 774.37 Z" />
<path fill="#000000" d=" M 981.42 769.54 C 982.58 768.68 983.80 767.90 985.06 767.18 C 989.04 772.87 987.17 780.16 987.69 786.64 C 987.09 786.70 985.90 786.82 985.30 786.88 C 984.36 781.55 985.16 776.08 984.02 770.77 C 980.69 775.64 980.82 781.66 980.44 787.28 C 980.07 787.67 979.33 788.44 978.96 788.83 C 977.11 786.60 977.76 783.64 977.66 781.00 C 977.74 777.03 977.26 772.98 978.42 769.12 C 979.41 769.25 980.41 769.39 981.42 769.54 Z" />
<path fill="#010101" d=" M 969.67 769.16 C 970.53 769.51 971.98 769.46 972.07 770.74 C 971.20 774.85 970.70 779.01 970.15 783.16 C 970.01 784.84 968.46 784.79 967.17 784.92 C 967.76 779.65 967.54 774.10 969.67 769.16 Z" />
<path fill="#f5f4f0" d=" M 926.79 770.58 C 927.53 770.83 929.01 771.34 929.75 771.60 C 929.54 775.72 929.13 780.09 926.84 783.65 C 924.96 784.26 923.12 783.49 921.43 782.77 C 921.71 778.10 924.51 774.42 926.79 770.58 Z" />
<path fill="#000000" d=" M 586.09 775.47 C 586.71 775.28 587.94 774.89 588.56 774.70 C 588.24 780.33 582.87 783.97 580.49 788.83 C 582.01 793.49 583.26 798.28 585.47 802.68 C 585.76 802.68 586.33 802.66 586.62 802.66 C 591.09 793.84 594.44 784.49 598.75 775.60 C 599.37 775.59 600.60 775.58 601.22 775.57 C 600.45 779.33 598.45 782.66 597.03 786.19 C 593.91 793.30 591.34 800.78 587.13 807.33 C 586.56 807.36 585.42 807.43 584.86 807.47 C 582.05 802.66 580.24 797.37 578.31 792.18 C 576.18 796.02 574.05 799.87 571.71 803.59 C 570.95 805.18 569.19 805.47 567.64 805.76 C 566.13 801.28 565.62 796.56 564.41 792.01 C 563.42 787.24 561.38 782.79 560.13 778.11 C 559.95 775.79 562.64 776.16 563.11 777.95 C 566.35 785.58 567.50 793.85 569.68 801.80 C 571.75 796.96 575.05 792.80 577.51 788.17 C 576.69 784.82 574.65 781.82 574.23 778.40 C 578.20 776.98 578.48 782.45 579.71 784.91 C 581.99 781.87 583.92 778.58 586.09 775.47 Z" />
<path fill="#5c5c5a" d=" M 265.67 781.32 C 269.55 781.45 273.42 781.18 277.26 780.65 C 280.95 780.89 284.65 781.10 288.33 781.51 C 282.95 782.48 277.46 782.46 272.04 783.03 C 268.33 783.20 264.54 783.63 260.91 782.72 C 263.65 782.81 266.39 782.73 269.13 782.62 C 267.98 782.16 266.83 781.71 265.67 781.32 Z" />
<path fill="#000000" d=" M 715.07 793.15 C 719.60 792.36 724.02 791.07 728.58 790.43 C 728.55 791.93 728.78 793.57 727.96 794.93 C 725.62 799.21 722.25 802.79 719.12 806.48 C 717.46 805.48 715.83 804.43 714.14 803.51 C 707.19 807.10 699.75 809.91 692.01 811.21 C 684.31 812.18 676.49 811.73 668.81 810.84 C 662.85 810.63 656.76 811.02 651.07 808.87 C 642.86 807.31 634.65 805.50 626.89 802.32 C 622.36 800.14 618.37 797.02 613.75 795.03 C 613.69 794.59 613.57 793.70 613.51 793.26 C 619.11 794.80 623.31 799.12 628.62 801.33 C 636.17 804.36 644.07 806.39 652.00 808.18 C 654.31 808.44 656.65 808.66 658.93 809.18 C 669.25 809.73 679.60 809.95 689.93 809.64 C 698.25 808.20 706.38 805.35 713.68 801.07 C 712.67 799.05 711.07 797.23 710.74 794.96 C 711.74 793.54 713.52 793.47 715.07 793.15 Z" />
<path fill="#30302f" d=" M 722.29 793.13 C 725.26 791.56 722.44 796.46 722.29 793.13 Z" />
</svg>
