<?xml version="1.0" encoding="UTF-8" ?>
<!DOCTYPE svg PUBLIC "-//W3C//DTD SVG 1.1//EN" "http://www.w3.org/Graphics/SVG/1.1/DTD/svg11.dtd">
<svg width="1261pt" height="793pt" viewBox="0 0 1261 793" version="1.1" xmlns="http://www.w3.org/2000/svg">
<path fill="#f5f4f0" d=" M 0.00 0.00 L 1261.00 0.00 L 1261.00 793.00 L 0.00 793.00 L 0.00 0.00 Z" />
<path fill="#030303" d=" M 670.32 34.59 C 672.37 32.95 674.23 34.27 674.47 36.58 C 675.19 44.36 674.23 52.22 674.93 59.99 C 675.79 63.81 674.80 67.65 674.08 71.40 C 672.85 71.54 671.64 71.66 670.42 71.76 C 670.30 68.00 670.72 64.26 670.74 60.50 C 668.73 60.56 666.41 60.19 664.92 61.87 C 661.91 64.80 662.50 69.40 662.47 73.22 C 665.42 75.47 669.19 74.74 672.62 74.50 C 672.62 75.79 672.62 77.09 672.60 78.39 C 669.01 78.80 664.98 79.36 661.79 77.28 C 660.29 76.32 659.53 74.65 658.59 73.22 C 658.60 68.56 658.55 63.33 661.70 59.56 C 664.04 57.05 667.58 56.29 670.89 56.63 C 670.83 49.28 670.92 41.92 670.32 34.59 Z" />
<path fill="#030303" d=" M 537.36 41.23 C 538.77 41.38 540.77 40.79 541.19 42.69 C 541.35 48.01 541.19 53.34 541.14 58.67 C 543.35 56.57 546.55 55.70 549.49 56.64 C 551.27 57.94 552.66 59.85 553.27 61.98 C 554.64 68.93 554.17 76.03 554.27 83.06 C 554.57 85.21 552.46 86.13 550.71 85.32 C 549.63 76.98 551.96 68.04 548.26 60.15 C 546.71 60.46 544.59 59.87 543.74 61.58 C 539.79 67.11 540.56 74.17 539.49 80.52 C 538.87 80.78 537.61 81.31 536.98 81.58 C 536.65 80.96 536.01 79.72 535.68 79.10 C 536.12 74.07 536.75 69.06 537.18 64.02 C 537.53 56.43 536.92 48.82 537.36 41.23 Z" />
<path fill="#030303" d=" M 505.19 43.11 C 508.19 41.14 511.85 41.60 515.24 41.64 C 518.06 42.57 520.14 44.70 521.79 47.08 C 520.74 48.12 519.53 48.85 518.03 48.85 C 516.09 45.19 511.46 44.82 507.94 45.98 C 502.82 48.64 497.52 53.84 499.49 60.19 C 505.23 61.83 511.22 61.12 517.10 61.33 C 521.39 61.35 525.99 64.35 526.45 68.88 C 526.74 73.33 527.89 78.74 524.24 82.19 C 519.31 87.98 511.22 89.37 504.00 88.80 C 500.96 88.79 496.35 87.41 497.31 83.50 C 497.96 83.45 499.26 83.36 499.92 83.32 C 503.95 86.74 509.46 85.13 514.17 84.39 C 518.17 82.70 523.17 80.03 523.26 75.07 C 522.93 71.73 523.29 67.11 519.50 65.62 C 513.72 64.56 507.75 65.11 501.91 64.63 C 498.47 64.49 494.77 61.75 495.27 57.97 C 494.81 51.43 499.95 46.18 505.19 43.11 Z" />
<path fill="#030303" d=" M 220.82 48.82 C 226.16 47.78 231.48 46.22 236.97 46.21 C 246.98 46.15 256.98 46.22 266.99 46.19 C 273.80 45.89 280.52 49.06 285.42 53.65 C 288.76 58.23 291.25 63.48 293.05 68.85 C 294.85 76.03 296.24 83.34 298.85 90.30 C 301.30 97.26 300.06 104.76 300.32 111.98 C 300.26 116.45 300.88 121.08 299.18 125.34 C 292.69 125.75 286.15 125.40 279.73 124.43 C 278.43 120.89 278.97 116.86 280.82 113.62 C 281.46 113.58 282.76 113.49 283.40 113.45 C 283.37 112.44 283.34 111.43 283.32 110.42 C 282.72 110.38 281.53 110.30 280.94 110.26 C 280.39 109.94 279.30 109.29 278.75 108.97 C 277.75 106.07 277.29 103.04 277.53 99.98 C 277.89 91.93 275.16 84.20 274.33 76.27 L 273.36 76.56 C 273.47 76.06 273.68 75.04 273.79 74.53 L 272.48 74.46 C 272.53 73.97 272.64 72.98 272.69 72.48 L 271.86 72.42 C 270.98 69.85 270.08 66.81 267.31 65.69 C 258.72 61.71 248.89 63.45 239.85 64.48 C 233.15 65.04 226.59 67.61 221.85 72.47 C 217.63 76.02 213.28 79.86 211.39 85.21 C 208.22 94.89 206.63 105.13 207.21 115.32 C 207.43 125.17 207.09 135.09 209.52 144.72 C 225.21 144.04 240.92 144.32 256.62 144.61 C 271.51 145.41 286.47 143.08 301.32 144.78 C 303.95 151.51 302.34 158.94 301.37 165.86 C 300.36 176.20 301.23 186.65 299.74 196.96 C 300.13 203.11 298.26 209.03 298.12 215.15 C 296.46 221.51 299.14 228.49 296.38 234.56 C 287.86 234.84 279.45 236.54 270.92 236.54 C 262.61 236.65 254.33 237.59 246.01 237.32 C 234.96 237.85 224.04 235.40 212.98 235.72 C 203.92 235.57 194.84 236.09 185.79 235.45 C 183.47 226.82 185.71 217.81 183.93 209.11 C 183.29 201.70 182.27 194.25 182.92 186.81 C 184.04 177.92 183.42 168.94 183.37 160.01 C 183.39 155.87 181.56 152.02 181.43 147.91 C 184.42 147.06 187.44 146.32 190.53 145.99 C 189.94 132.70 190.48 119.38 190.31 106.08 C 190.04 99.98 191.28 94.00 191.88 87.96 C 193.47 82.86 193.57 77.39 195.61 72.41 C 197.50 67.70 199.62 62.90 203.15 59.17 C 208.18 54.51 213.98 50.28 220.82 48.82 Z" />
<path fill="#8dabac" d=" M 219.60 52.88 C 227.29 51.17 235.10 49.68 243.01 49.76 C 251.70 49.86 260.40 49.64 269.09 49.80 C 274.20 50.89 279.53 53.02 283.00 57.07 C 286.35 62.30 289.26 67.98 290.46 74.12 C 291.92 80.72 293.77 87.22 295.76 93.67 C 294.55 97.93 293.87 102.58 291.18 106.21 C 290.10 107.85 288.01 107.00 286.44 106.97 C 285.02 106.77 283.60 106.53 282.19 106.34 C 280.67 101.04 282.18 95.42 280.85 90.07 C 279.20 83.67 279.69 76.62 276.12 70.82 C 274.43 67.91 273.48 64.07 270.11 62.62 C 266.31 60.95 262.26 59.49 258.06 59.46 C 249.33 59.19 240.55 60.04 232.05 62.03 C 224.78 63.73 219.45 69.22 214.14 74.07 C 208.92 79.02 206.53 86.02 205.32 92.94 C 202.64 103.31 203.29 114.10 203.41 124.71 C 203.50 131.48 203.73 138.35 205.70 144.89 C 201.60 144.73 197.50 144.93 193.45 145.56 C 193.93 143.05 194.33 140.52 194.29 137.96 C 194.17 127.31 194.28 116.66 194.18 106.01 C 194.06 97.83 195.74 89.78 196.95 81.73 C 197.95 74.77 201.08 68.31 204.91 62.49 L 205.20 62.48 C 205.77 62.46 206.91 62.42 207.48 62.40 C 210.22 57.92 215.62 56.78 219.19 53.26 L 219.60 52.88 Z" />
<path fill="#030303" d=" M 596.53 51.54 C 597.80 51.51 599.09 51.51 600.38 51.52 C 600.71 54.23 600.80 56.97 600.84 59.70 C 606.40 60.33 611.00 56.18 616.44 56.33 C 616.50 57.32 616.57 58.32 616.64 59.31 C 611.70 61.27 606.78 63.78 601.34 63.79 C 600.17 69.33 601.15 75.02 600.57 80.61 C 599.50 80.59 598.43 80.56 597.38 80.52 C 597.12 70.86 597.36 61.18 596.53 51.54 Z" />
<path fill="#e1e4e2" d=" M 205.20 62.48 C 209.26 58.63 213.75 54.93 219.19 53.26 C 215.62 56.78 210.22 57.92 207.48 62.40 C 206.91 62.42 205.77 62.46 205.20 62.48 Z" />
<path fill="#030303" d=" M 563.63 59.84 C 566.88 55.20 573.02 53.45 578.44 54.53 C 582.39 59.26 584.75 65.49 584.65 71.65 C 583.80 71.60 582.95 71.56 582.12 71.50 C 580.12 68.94 576.49 68.85 573.61 69.58 C 571.29 71.33 571.45 74.54 570.69 77.09 C 571.14 79.02 571.81 81.40 574.12 81.74 C 578.61 83.84 582.52 79.85 584.84 76.47 C 585.61 76.78 587.13 77.40 587.89 77.72 C 586.29 82.42 581.72 85.35 577.03 86.31 C 573.40 85.60 568.91 84.62 567.62 80.60 C 566.85 75.94 567.08 70.21 570.92 66.88 C 573.32 64.52 576.96 65.63 579.97 65.52 C 579.10 63.09 578.44 60.43 576.62 58.51 C 572.89 57.16 569.40 59.75 566.75 62.10 C 565.34 63.68 562.89 61.56 563.63 59.84 Z" />
<path fill="#030303" d=" M 625.70 65.81 C 627.83 61.83 631.51 58.57 635.88 57.34 C 637.94 56.93 641.94 56.94 641.69 59.97 C 642.13 64.84 638.17 68.80 633.92 70.41 C 632.17 70.79 629.70 72.46 628.54 70.04 C 628.29 71.73 628.03 73.41 627.74 75.09 C 627.96 75.69 628.40 76.87 628.63 77.46 C 631.11 78.24 633.78 79.04 636.39 78.37 C 638.67 77.71 640.76 76.39 643.21 76.35 C 643.35 77.33 643.50 78.30 643.65 79.28 C 638.60 82.50 631.67 83.80 626.44 80.26 C 623.95 78.69 624.28 75.47 624.35 72.93 C 624.37 70.49 625.01 68.13 625.70 65.81 Z" />
<path fill="#f5f4f0" d=" M 629.08 67.69 C 630.87 64.22 634.15 61.30 638.19 61.04 C 636.88 64.15 634.20 66.43 630.86 67.04 C 630.42 67.20 629.52 67.52 629.08 67.69 Z" />
<path fill="#030303" d=" M 1056.95 65.43 C 1063.57 65.23 1070.20 63.76 1076.83 64.75 C 1082.12 66.19 1086.88 69.01 1091.84 71.27 C 1098.83 74.53 1102.34 81.79 1105.75 88.26 C 1108.39 97.21 1108.65 106.69 1108.53 115.97 C 1108.57 123.91 1108.65 131.86 1108.60 139.80 C 1109.31 139.74 1110.74 139.63 1111.45 139.57 C 1112.96 140.65 1114.80 141.81 1114.46 143.97 C 1114.82 161.68 1118.11 179.21 1117.77 196.96 C 1118.78 206.30 1117.84 215.64 1117.31 224.96 C 1117.00 225.56 1116.39 226.75 1116.08 227.34 C 1103.10 228.14 1090.06 227.98 1077.09 229.03 C 1057.52 231.69 1037.74 232.30 1018.01 232.77 C 1013.90 232.78 1009.79 232.89 1005.71 232.44 C 1005.09 231.25 1004.48 230.06 1003.89 228.88 C 1003.34 219.22 1002.14 209.57 999.90 200.16 C 996.42 184.74 995.83 168.72 997.72 153.05 C 997.99 148.99 996.55 143.09 1001.75 141.65 C 1003.38 141.48 1004.99 141.25 1006.65 141.06 C 1008.68 140.80 1010.72 140.83 1012.80 140.92 C 1011.78 140.26 1010.75 139.59 1009.76 138.94 C 1007.90 127.26 1008.31 115.45 1008.43 103.67 C 1008.53 97.54 1009.09 91.00 1012.79 85.86 C 1017.03 80.47 1021.64 74.93 1028.14 72.21 C 1037.30 68.50 1047.03 65.88 1056.95 65.43 Z" />
<path fill="#829090" d=" M 293.05 68.85 C 297.05 75.33 297.78 82.94 298.85 90.30 C 296.24 83.34 294.85 76.03 293.05 68.85 Z" />
<path fill="#8caaab" d=" M 1051.82 70.52 C 1058.49 69.56 1065.26 69.63 1071.98 69.49 C 1076.16 69.27 1079.82 71.55 1083.46 73.25 C 1087.15 75.20 1091.29 76.68 1094.08 79.93 C 1096.10 82.33 1097.40 85.24 1099.02 87.91 C 1101.82 92.54 1101.55 98.13 1102.38 103.30 C 1102.89 115.66 1102.33 128.05 1102.58 140.43 C 1099.26 140.54 1095.94 140.57 1092.64 140.52 C 1092.73 132.01 1092.46 123.50 1092.36 115.00 C 1091.45 107.53 1089.52 100.17 1086.59 93.24 C 1083.80 86.49 1076.85 82.36 1069.93 81.00 C 1063.33 79.91 1056.60 80.66 1050.09 81.90 C 1051.43 81.33 1052.73 80.67 1054.07 80.03 C 1044.04 80.13 1033.75 82.67 1025.78 88.99 C 1025.06 88.32 1024.35 87.65 1023.65 86.99 C 1031.56 77.92 1043.03 72.06 1055.11 71.55 C 1054.00 71.19 1052.91 70.85 1051.82 70.52 Z" />
<path fill="#89a8a9" d=" M 1031.17 75.04 C 1037.85 72.85 1044.70 70.35 1051.82 70.52 C 1052.91 70.85 1054.00 71.19 1055.11 71.55 C 1043.03 72.06 1031.56 77.92 1023.65 86.99 C 1024.35 87.65 1025.06 88.32 1025.78 88.99 C 1033.75 82.67 1044.04 80.13 1054.07 80.03 C 1052.73 80.67 1051.43 81.33 1050.09 81.90 C 1046.17 83.09 1042.09 83.77 1038.41 85.60 C 1033.84 87.54 1030.43 91.29 1027.45 95.13 C 1025.63 97.47 1023.96 100.08 1023.49 103.05 C 1022.57 115.90 1024.14 128.78 1023.58 141.64 C 1020.42 141.64 1017.44 140.37 1014.28 140.54 C 1013.59 139.95 1012.93 139.35 1012.30 138.74 L 1013.73 139.17 C 1013.81 134.05 1012.16 129.10 1012.29 123.98 C 1012.39 115.36 1012.02 106.72 1012.64 98.12 C 1012.83 94.51 1013.76 90.82 1015.94 87.89 C 1020.08 82.66 1024.66 77.30 1031.17 75.04 Z" />
<path fill="#96b1b2" d=" M 211.39 85.21 C 213.28 79.86 217.63 76.02 221.85 72.47 C 220.95 78.59 216.56 83.43 214.44 89.14 C 211.32 97.91 208.88 107.01 208.33 116.34 L 207.21 115.32 C 206.63 105.13 208.22 94.89 211.39 85.21 Z" />
<path fill="#f5f4f0" d=" M 1055.06 85.16 C 1061.45 84.17 1068.53 83.61 1074.49 86.70 C 1077.86 88.30 1081.21 90.59 1082.66 94.19 C 1085.67 101.11 1087.78 108.51 1088.42 116.03 C 1088.41 124.20 1088.81 132.36 1088.60 140.53 C 1072.74 140.66 1056.87 140.55 1041.01 140.62 C 1036.51 140.57 1032.09 141.49 1027.61 141.62 C 1028.01 129.03 1026.84 116.44 1027.40 103.84 C 1027.40 110.07 1027.48 116.32 1028.35 122.49 C 1028.17 115.82 1029.97 109.11 1033.56 103.50 C 1038.39 98.67 1041.36 92.16 1047.05 88.18 C 1049.51 86.71 1052.34 86.00 1055.06 85.16 Z" />
<path fill="#99b3b3" d=" M 1032.86 94.95 C 1038.15 88.30 1047.00 86.08 1055.06 85.16 C 1052.34 86.00 1049.51 86.71 1047.05 88.18 C 1041.36 92.16 1038.39 98.67 1033.56 103.50 C 1029.97 109.11 1028.17 115.82 1028.35 122.49 C 1027.48 116.32 1027.40 110.07 1027.40 103.84 C 1027.98 100.30 1030.63 97.59 1032.86 94.95 Z" />
<path fill="#82a4a4" d=" M 295.76 93.67 C 297.14 101.98 295.97 110.48 296.39 118.86 C 293.41 119.45 290.34 119.50 287.41 118.63 C 287.41 118.04 287.40 116.88 287.40 116.29 C 287.46 113.15 287.27 110.01 286.44 106.97 C 288.01 107.00 290.10 107.85 291.18 106.21 C 293.87 102.58 294.55 97.93 295.76 93.67 Z" />
<path fill="#050505" d=" M 646.43 106.72 C 652.70 104.78 659.34 103.88 665.90 104.39 C 669.80 104.99 672.36 108.38 674.91 111.08 C 678.60 115.05 681.01 119.94 683.25 124.82 C 683.83 126.91 684.48 128.97 685.17 131.03 C 685.48 132.66 685.80 134.29 686.22 135.90 C 686.39 138.97 686.55 142.05 686.86 145.12 C 687.89 152.01 687.31 159.02 687.56 165.96 C 687.77 170.06 686.72 174.05 686.10 178.07 C 684.34 183.15 683.09 188.51 680.20 193.11 C 675.66 199.50 667.93 202.42 660.48 203.75 C 655.36 204.86 648.59 207.22 644.72 202.28 C 639.10 197.09 637.36 189.45 635.75 182.29 C 634.75 176.53 635.01 170.60 633.58 164.91 C 634.05 164.71 634.99 164.32 635.47 164.12 C 636.72 165.81 637.66 167.77 637.51 169.94 C 637.42 175.00 637.86 180.07 639.17 184.98 C 639.57 186.66 640.01 188.34 640.52 190.00 C 641.45 192.82 642.87 195.46 644.62 197.86 C 645.04 198.40 645.49 198.92 645.95 199.44 C 647.65 201.60 650.17 203.06 652.99 202.55 C 661.44 201.68 669.70 198.53 676.55 193.52 C 678.85 191.93 680.15 189.38 680.99 186.79 C 682.83 180.96 685.59 175.23 685.38 168.97 C 685.25 159.91 684.84 150.83 684.11 141.80 C 684.05 141.27 683.92 140.22 683.86 139.69 C 682.67 129.80 678.84 120.18 672.51 112.46 C 670.27 110.00 667.63 107.19 664.04 107.25 C 657.38 107.03 650.14 107.42 644.45 111.28 C 637.05 117.22 635.21 127.23 635.61 136.24 C 635.32 136.39 634.74 136.71 634.45 136.87 L 633.62 137.30 C 631.60 131.56 633.75 125.63 634.74 119.93 C 637.31 114.60 640.81 109.18 646.43 106.72 Z" />
<path fill="#a6bab9" d=" M 1006.50 110.21 C 1007.15 108.03 1007.82 105.86 1008.43 103.67 C 1008.31 115.45 1007.90 127.26 1009.76 138.94 C 1010.75 139.59 1011.78 140.26 1012.80 140.92 C 1010.72 140.83 1008.68 140.80 1006.65 141.06 C 1006.33 137.00 1005.16 133.03 1005.54 128.94 C 1005.88 122.70 1004.57 116.27 1006.50 110.21 Z" />
<path fill="#bcc7c7" d=" M 644.45 111.28 C 650.14 107.42 657.38 107.03 664.04 107.25 C 667.63 107.19 670.27 110.00 672.51 112.46 C 678.84 120.18 682.67 129.80 683.86 139.69 C 682.15 141.16 680.46 142.64 678.77 144.13 C 677.57 137.04 675.94 130.04 674.58 122.98 C 673.72 118.20 671.06 113.64 667.03 110.87 C 663.71 108.68 659.56 109.96 656.18 111.26 C 651.56 113.18 646.95 115.97 644.41 120.42 C 642.37 123.94 641.87 128.06 641.55 132.05 C 641.24 132.41 640.60 133.13 640.28 133.49 C 640.71 143.31 639.55 153.27 641.49 162.99 C 642.84 170.49 643.91 178.14 646.82 185.24 C 644.27 185.05 641.72 184.96 639.17 184.98 C 637.86 180.07 637.42 175.00 637.51 169.94 C 637.66 167.77 636.72 165.81 635.47 164.12 C 634.66 162.99 633.96 161.74 633.89 160.32 C 633.78 159.26 633.71 158.18 633.65 157.12 C 632.54 157.25 631.44 157.38 630.35 157.52 L 630.84 157.32 C 632.19 156.70 633.50 155.98 634.83 155.30 C 634.49 151.33 633.51 147.46 631.83 143.85 C 629.22 144.24 626.62 144.66 624.03 145.09 C 624.79 149.17 625.69 153.22 626.59 157.27 C 624.85 157.18 623.13 157.07 621.41 156.97 C 622.13 155.04 622.84 153.12 623.48 151.16 C 623.05 151.07 622.19 150.90 621.76 150.82 C 614.84 149.54 607.85 150.57 600.96 151.36 C 593.29 151.64 585.62 151.20 577.95 151.41 C 569.22 151.57 560.40 150.61 551.74 152.12 C 544.80 153.15 537.77 152.60 530.87 151.65 C 524.40 151.45 517.34 151.04 511.63 154.61 C 519.66 156.07 527.89 155.72 536.00 155.10 C 540.90 154.65 545.72 155.89 550.56 156.41 C 553.93 157.26 557.19 158.46 560.53 159.42 C 552.35 159.54 544.17 159.39 536.00 159.30 C 529.02 159.17 521.84 157.08 515.04 159.54 C 515.69 161.07 516.38 162.59 517.03 164.13 C 516.00 168.23 515.13 172.37 514.28 176.51 C 512.38 177.18 510.74 178.34 509.12 179.51 C 508.88 178.79 508.40 177.37 508.16 176.66 C 507.36 176.44 506.56 176.23 505.77 176.03 C 504.15 174.13 502.30 172.45 500.42 170.82 C 500.68 166.29 500.89 161.62 499.35 157.28 C 499.47 156.63 499.69 155.32 499.81 154.66 C 496.96 154.47 494.07 154.49 491.29 153.79 C 490.20 152.53 489.42 151.04 488.57 149.62 C 492.81 145.87 498.56 145.14 504.00 145.73 C 504.36 145.41 505.07 144.77 505.42 144.45 C 514.26 143.11 523.12 144.36 531.99 144.23 C 551.61 142.77 571.31 144.17 590.96 143.76 C 600.30 144.28 609.65 144.18 619.00 144.38 C 623.86 144.36 628.75 143.69 633.34 142.05 C 630.91 139.34 627.31 141.00 624.28 141.16 C 627.19 138.94 631.09 139.50 634.33 140.60 C 634.36 139.35 634.40 138.11 634.45 136.87 C 634.74 136.71 635.32 136.39 635.61 136.24 C 635.21 127.23 637.05 117.22 644.45 111.28 Z" />
<path fill="#030303" d=" M 656.18 111.26 C 659.56 109.96 663.71 108.68 667.03 110.87 C 671.06 113.64 673.72 118.20 674.58 122.98 C 675.94 130.04 677.57 137.04 678.77 144.13 C 679.02 146.30 679.17 148.47 679.30 150.66 C 679.59 157.68 679.63 164.82 677.76 171.65 C 676.03 178.04 674.45 184.83 669.98 189.95 C 667.41 192.96 663.50 194.41 659.64 194.70 C 657.58 194.66 655.54 194.60 653.51 194.37 C 651.62 192.91 649.91 191.19 648.71 189.11 C 648.03 187.83 647.39 186.55 646.82 185.24 C 643.91 178.14 642.84 170.49 641.49 162.99 C 639.55 153.27 640.71 143.31 640.28 133.49 C 640.60 133.13 641.24 132.41 641.55 132.05 C 641.87 128.06 642.37 123.94 644.41 120.42 C 646.95 115.97 651.56 113.18 656.18 111.26 Z" />
<path fill="#f5f4f0" d=" M 648.77 119.83 C 652.93 115.53 659.18 112.22 665.28 113.60 C 669.60 116.59 671.42 121.80 672.14 126.79 C 675.70 141.97 678.55 158.05 674.20 173.37 C 672.75 179.82 670.31 186.93 664.14 190.28 C 660.80 191.40 656.58 192.55 653.47 190.32 C 648.44 184.58 647.53 176.69 645.76 169.56 C 644.96 163.03 643.09 156.60 643.42 149.96 C 643.52 145.28 643.24 140.60 643.50 135.93 C 645.18 130.55 644.59 124.17 648.77 119.83 Z" />
<path fill="#030303" d=" M 86.86 114.86 C 92.54 113.37 98.47 113.64 104.19 114.75 C 112.23 116.99 119.78 121.54 124.76 128.33 C 131.17 136.81 133.95 148.19 131.38 158.58 C 128.91 170.39 120.11 180.59 108.86 184.89 C 101.57 187.84 93.42 188.05 85.82 186.23 C 76.72 183.51 68.54 177.56 63.77 169.27 C 58.26 159.91 57.04 148.09 60.98 137.91 C 65.03 126.53 75.10 117.59 86.86 114.86 Z" />
<path fill="#b9cac9" d=" M 283.34 117.54 C 284.69 117.13 286.04 116.71 287.40 116.29 C 287.40 116.88 287.41 118.04 287.41 118.63 C 290.34 119.50 293.41 119.45 296.39 118.86 C 296.39 119.55 296.41 120.93 296.41 121.62 C 291.79 121.57 287.18 121.28 282.57 121.20 C 282.82 119.98 283.08 118.76 283.34 117.54 Z" />
<path fill="#f2f2f2" d=" M 84.13 121.29 C 94.83 117.30 107.65 120.21 115.56 128.45 C 120.55 133.34 123.31 140.05 124.20 146.90 C 124.21 148.62 124.21 150.35 124.19 152.07 C 123.06 161.86 117.31 171.11 108.48 175.72 C 97.48 181.88 82.77 179.92 73.74 171.14 C 67.44 165.28 63.89 156.58 64.40 147.98 C 64.77 136.17 72.97 125.14 84.13 121.29 Z" />
<path fill="#030303" d=" M 1184.26 121.27 C 1196.98 116.65 1212.23 120.68 1220.97 131.03 C 1224.45 134.99 1226.70 139.82 1228.26 144.82 C 1232.02 159.54 1224.70 176.19 1211.06 183.02 C 1201.04 188.32 1188.31 188.07 1178.54 182.32 C 1166.78 175.62 1159.78 161.40 1162.11 148.01 C 1163.82 135.91 1172.71 125.23 1184.26 121.27 Z" />
<path fill="#13b824" d=" M 351.87 136.88 C 353.62 136.04 355.49 135.49 357.41 135.16 C 358.68 139.61 357.37 144.18 357.23 148.70 C 377.78 150.46 398.40 152.80 419.04 151.77 C 432.57 152.12 446.10 150.99 459.63 151.46 C 459.45 152.81 460.09 154.74 458.35 155.27 C 438.57 155.44 418.79 155.75 399.01 155.47 C 394.34 155.24 389.70 154.59 385.03 154.51 C 375.52 154.34 366.12 152.42 356.60 152.45 C 356.29 156.18 355.38 159.83 354.17 163.36 C 353.63 163.44 352.57 163.60 352.04 163.68 C 343.99 157.88 333.39 157.65 325.09 152.31 C 325.28 149.93 326.95 148.10 329.04 147.11 C 336.50 143.38 344.32 140.44 351.87 136.88 Z" />
<path fill="#37c245" d=" M 351.61 140.15 C 352.77 139.20 353.42 139.43 353.56 140.85 C 352.39 141.80 351.74 141.56 351.61 140.15 Z" />
<path fill="#8ea1a1" d=" M 678.77 144.13 C 680.46 142.64 682.15 141.16 683.86 139.69 C 683.92 140.22 684.05 141.27 684.11 141.80 C 684.10 144.14 683.98 146.47 683.88 148.81 C 682.34 149.42 680.82 150.04 679.30 150.66 C 679.17 148.47 679.02 146.30 678.77 144.13 Z" />
<path fill="#030303" d=" M 593.94 141.96 C 604.04 141.32 614.19 141.98 624.28 141.16 C 627.31 141.00 630.91 139.34 633.34 142.05 C 628.75 143.69 623.86 144.36 619.00 144.38 C 609.65 144.18 600.30 144.28 590.96 143.76 C 571.31 144.17 551.61 142.77 531.99 144.23 C 523.12 144.36 514.26 143.11 505.42 144.45 C 505.07 144.77 504.36 145.41 504.00 145.73 C 498.56 145.14 492.81 145.87 488.57 149.62 C 487.76 150.34 486.97 151.07 486.18 151.81 C 486.56 153.25 486.38 155.19 488.02 155.89 C 491.48 157.74 495.57 157.15 499.35 157.28 C 500.89 161.62 500.68 166.29 500.42 170.82 C 500.19 173.92 499.90 177.02 499.77 180.13 C 501.55 178.48 503.32 176.65 505.77 176.03 C 506.56 176.23 507.36 176.44 508.16 176.66 C 508.40 177.37 508.88 178.79 509.12 179.51 C 510.74 178.34 512.38 177.18 514.28 176.51 C 515.30 176.96 516.32 177.43 517.35 177.90 C 517.48 173.32 517.86 168.67 517.03 164.13 C 516.38 162.59 515.69 161.07 515.04 159.54 C 521.84 157.08 529.02 159.17 536.00 159.30 C 544.17 159.39 552.35 159.54 560.53 159.42 C 566.36 159.71 572.22 159.88 578.03 159.22 C 595.40 157.07 612.96 159.42 630.35 157.52 C 631.44 157.38 632.54 157.25 633.65 157.12 C 633.71 158.18 633.78 159.26 633.89 160.32 C 624.27 161.65 614.62 160.51 604.97 160.94 C 598.14 161.57 591.27 161.23 584.42 161.34 C 573.26 161.06 562.13 162.69 550.98 161.91 C 540.69 162.70 530.40 161.87 520.13 161.30 C 520.23 162.71 520.34 164.12 520.44 165.54 C 520.68 171.19 521.03 177.02 519.12 182.45 C 517.98 182.59 516.84 182.73 515.72 182.85 C 515.31 182.10 514.51 180.61 514.11 179.86 C 512.62 181.17 511.29 183.45 508.97 182.78 C 507.02 182.62 506.38 180.40 505.19 179.18 C 504.03 180.72 503.06 182.61 501.21 183.43 C 498.75 183.89 496.36 181.52 496.75 179.07 C 497.31 172.89 497.73 166.68 497.59 160.48 C 493.24 160.16 488.06 160.60 484.78 157.17 C 482.41 155.07 482.80 151.07 484.96 148.97 C 487.88 145.85 492.09 144.49 495.88 142.75 C 500.25 142.93 504.59 142.08 508.97 142.45 C 516.63 142.91 524.30 142.39 531.97 142.62 C 538.33 142.76 544.69 142.42 551.01 141.74 C 560.67 141.38 570.35 141.85 580.02 141.77 C 584.66 141.69 589.30 142.58 593.94 141.96 Z" />
<path fill="#6e8384" d=" M 684.11 141.80 C 684.84 150.83 685.25 159.91 685.38 168.97 C 685.59 175.23 682.83 180.96 680.99 186.79 C 680.15 189.38 678.85 191.93 676.55 193.52 C 669.70 198.53 661.44 201.68 652.99 202.55 C 650.17 203.06 647.65 201.60 645.95 199.44 C 649.20 199.31 652.44 199.77 655.69 199.63 C 657.91 199.04 658.42 196.35 659.64 194.70 C 663.50 194.41 667.41 192.96 669.98 189.95 C 674.45 184.83 676.03 178.04 677.76 171.65 C 679.63 164.82 679.59 157.68 679.30 150.66 C 680.82 150.04 682.34 149.42 683.88 148.81 C 683.98 146.47 684.10 144.14 684.11 141.80 Z" />
<path fill="#98a0a2" d=" M 1104.66 143.82 C 1106.66 143.70 1108.67 143.59 1110.70 143.49 C 1110.67 145.29 1110.65 147.10 1110.70 148.91 L 1110.59 148.56 C 1108.85 146.70 1106.75 145.24 1104.66 143.82 Z" />
<path fill="#f5f4f0" d=" M 624.03 145.09 C 626.62 144.66 629.22 144.24 631.83 143.85 C 633.51 147.46 634.49 151.33 634.83 155.30 C 633.50 155.98 632.19 156.70 630.84 157.32 C 629.41 157.35 628.00 157.33 626.59 157.27 C 625.69 153.22 624.79 149.17 624.03 145.09 Z" />
<path fill="#e1e4e2" d=" M 1032.26 145.19 C 1041.28 143.91 1050.47 144.37 1059.55 144.57 C 1056.77 145.45 1053.92 146.31 1050.98 146.08 C 1044.74 145.79 1038.49 145.65 1032.26 145.19 Z" />
<path fill="#8d999d" d=" M 1059.55 144.57 C 1069.60 144.00 1079.74 144.60 1089.83 144.48 C 1081.88 146.43 1073.62 145.24 1065.59 146.56 C 1056.79 148.10 1047.83 147.60 1038.97 147.10 C 1035.40 146.89 1032.04 148.29 1028.78 149.53 C 1031.11 150.55 1033.45 151.73 1036.03 151.92 C 1040.06 152.32 1044.43 151.14 1048.08 153.43 C 1043.13 156.69 1036.76 158.90 1030.95 156.77 C 1031.71 156.94 1033.24 157.29 1034.01 157.47 C 1035.34 156.55 1036.70 155.63 1038.06 154.72 C 1035.21 154.61 1032.37 154.54 1029.53 154.46 C 1029.57 154.97 1029.65 155.97 1029.69 156.48 C 1028.46 156.35 1027.25 156.27 1026.04 156.24 C 1026.83 155.37 1027.62 154.51 1028.43 153.65 C 1025.74 153.71 1023.05 153.78 1020.37 153.85 C 1020.42 154.48 1020.51 155.74 1020.55 156.38 C 1019.22 156.43 1017.90 156.48 1016.59 156.53 C 1017.02 155.03 1016.45 154.27 1014.89 154.25 C 1015.11 153.87 1015.53 153.09 1015.75 152.71 C 1018.88 151.87 1022.07 151.21 1025.20 150.32 C 1023.48 148.71 1021.75 147.10 1020.03 145.51 C 1024.10 145.40 1028.18 145.18 1032.26 145.19 C 1038.49 145.65 1044.74 145.79 1050.98 146.08 C 1053.92 146.31 1056.77 145.45 1059.55 144.57 Z" />
<path fill="#5e7178" d=" M 1089.83 144.48 C 1094.77 144.30 1099.78 144.93 1104.66 143.82 C 1106.75 145.24 1108.85 146.70 1110.59 148.56 C 1106.94 148.95 1103.35 148.27 1099.91 147.09 C 1096.69 145.91 1093.62 147.87 1091.40 150.03 C 1091.61 153.66 1091.19 157.29 1090.63 160.87 L 1090.06 159.20 C 1089.95 157.90 1089.87 156.61 1089.81 155.31 C 1089.59 151.70 1089.65 148.09 1089.83 144.48 Z" />
<path fill="#eaeae8" d=" M 1001.98 145.70 C 1005.51 145.18 1009.14 143.96 1012.71 145.00 C 1010.86 145.66 1009.02 146.30 1007.18 146.94 C 1005.65 148.10 1004.10 149.22 1002.52 150.28 C 1002.33 148.80 1002.16 147.32 1001.99 145.84 L 1001.98 145.70 Z" />
<path fill="#707f86" d=" M 1012.71 145.00 C 1014.95 146.30 1017.59 145.55 1020.03 145.51 C 1021.75 147.10 1023.48 148.71 1025.20 150.32 C 1022.07 151.21 1018.88 151.87 1015.75 152.71 C 1015.53 153.09 1015.11 153.87 1014.89 154.25 C 1014.26 155.80 1014.83 156.56 1016.59 156.53 C 1017.90 156.48 1019.22 156.43 1020.55 156.38 C 1022.36 156.31 1024.20 156.24 1026.04 156.24 C 1027.25 156.27 1028.46 156.35 1029.69 156.48 C 1030.01 156.55 1030.63 156.69 1030.95 156.77 C 1036.76 158.90 1043.13 156.69 1048.08 153.43 C 1050.63 154.84 1053.61 154.77 1056.45 154.68 C 1051.06 157.34 1045.24 158.81 1039.63 160.86 C 1037.84 161.35 1037.33 163.24 1036.56 164.68 C 1039.70 164.87 1042.87 165.18 1046.03 164.83 C 1048.85 164.46 1051.31 162.89 1054.07 162.23 C 1057.41 162.37 1060.59 163.58 1063.87 164.18 C 1066.40 164.82 1069.14 165.08 1071.40 166.51 C 1075.41 173.61 1074.66 182.08 1075.91 189.88 C 1071.73 191.79 1068.29 194.95 1064.33 197.14 C 1056.98 198.05 1050.43 201.71 1043.24 203.26 C 1043.97 202.22 1044.73 201.19 1045.49 200.15 C 1042.75 193.45 1038.25 187.50 1031.95 183.78 C 1030.53 185.15 1028.95 186.41 1027.92 188.12 C 1027.98 192.01 1029.16 195.81 1030.62 199.40 C 1031.70 202.05 1034.56 203.15 1036.69 204.82 C 1034.66 204.64 1032.63 204.40 1030.62 204.65 C 1029.16 207.05 1028.63 209.88 1028.07 212.59 C 1027.99 211.86 1027.82 210.39 1027.74 209.66 C 1027.59 208.56 1027.45 207.47 1027.31 206.37 C 1023.77 206.33 1020.35 207.20 1017.21 208.81 C 1015.40 204.89 1015.46 200.54 1014.43 196.43 C 1012.16 190.71 1011.92 184.53 1010.95 178.53 C 1009.82 171.94 1010.72 165.15 1009.13 158.62 C 1008.83 157.24 1008.53 155.87 1008.24 154.50 C 1010.31 154.22 1012.39 153.94 1014.49 153.67 C 1014.20 151.90 1014.24 149.97 1013.04 148.51 C 1010.74 148.99 1008.28 149.82 1006.82 151.77 C 1004.93 156.03 1005.11 160.85 1005.87 165.35 C 1006.60 170.87 1006.24 176.47 1006.96 182.00 C 1007.45 185.81 1007.32 189.66 1007.19 193.49 L 1005.52 192.54 C 1005.49 187.27 1004.26 182.14 1003.19 177.02 C 1001.67 170.74 1003.69 164.31 1002.44 158.00 C 1001.71 155.42 1003.18 153.24 1004.61 151.25 C 1004.02 151.30 1003.45 151.36 1002.90 151.42 C 1002.46 152.79 1002.01 154.15 1001.61 155.53 C 1001.57 152.30 1001.41 149.04 1001.99 145.84 C 1002.16 147.32 1002.33 148.80 1002.52 150.28 C 1004.10 149.22 1005.65 148.10 1007.18 146.94 C 1009.02 146.30 1010.86 145.66 1012.71 145.00 Z" />
<path fill="#78868d" d=" M 1065.59 146.56 C 1073.62 145.24 1081.88 146.43 1089.83 144.48 C 1089.65 148.09 1089.59 151.70 1089.81 155.31 C 1086.62 155.29 1081.98 155.24 1081.08 159.14 C 1080.06 163.86 1078.66 169.28 1081.57 173.62 C 1080.41 177.41 1079.80 181.35 1079.62 185.31 C 1078.98 186.67 1078.11 187.89 1077.22 189.08 L 1075.91 189.88 C 1074.66 182.08 1075.41 173.61 1071.40 166.51 C 1069.14 165.08 1066.40 164.82 1063.87 164.18 C 1060.59 163.58 1057.41 162.37 1054.07 162.23 C 1051.31 162.89 1048.85 164.46 1046.03 164.83 C 1042.87 165.18 1039.70 164.87 1036.56 164.68 C 1037.33 163.24 1037.84 161.35 1039.63 160.86 C 1045.24 158.81 1051.06 157.34 1056.45 154.68 C 1066.10 151.89 1076.35 155.02 1086.00 152.12 C 1085.81 151.40 1085.42 149.94 1085.23 149.21 C 1079.58 149.17 1074.72 153.18 1069.00 152.41 C 1065.15 152.55 1061.95 149.74 1058.28 149.52 C 1055.05 151.28 1052.02 153.87 1048.08 153.43 C 1044.43 151.14 1040.06 152.32 1036.03 151.92 C 1033.45 151.73 1031.11 150.55 1028.78 149.53 C 1032.04 148.29 1035.40 146.89 1038.97 147.10 C 1047.83 147.60 1056.79 148.10 1065.59 146.56 Z" />
<path fill="#dd4e0c" d=" M 955.62 147.66 C 958.18 146.58 961.03 146.18 963.70 147.20 C 970.17 149.50 977.94 150.23 982.53 155.93 C 982.44 156.42 982.24 157.41 982.14 157.90 C 977.58 160.92 972.01 161.68 967.23 164.25 C 963.21 165.85 959.35 168.43 954.91 168.47 C 954.67 168.09 954.19 167.31 953.95 166.93 C 954.47 163.79 954.86 160.63 954.90 157.45 C 933.21 157.97 911.50 157.62 889.87 156.32 C 879.94 155.31 869.94 156.01 860.00 155.24 C 847.37 153.97 834.66 154.23 821.99 154.25 C 794.66 154.28 767.32 154.24 739.99 154.29 C 727.78 154.06 715.59 155.30 703.37 154.63 C 703.34 153.54 703.32 152.45 703.31 151.36 C 709.18 150.37 715.11 151.68 721.00 150.92 C 725.30 150.42 729.63 150.29 733.96 150.33 C 766.28 150.43 798.61 150.32 830.93 150.42 C 838.62 150.45 846.32 150.40 853.99 151.15 C 870.65 152.30 887.39 151.95 904.02 153.55 C 921.05 153.68 938.09 154.90 955.12 153.57 C 955.26 151.60 955.42 149.63 955.62 147.66 Z" />
<path fill="#36464d" d=" M 1091.40 150.03 C 1093.62 147.87 1096.69 145.91 1099.91 147.09 C 1103.35 148.27 1106.94 148.95 1110.59 148.56 L 1110.70 148.91 C 1111.60 153.30 1111.20 157.84 1111.71 162.29 C 1112.14 169.76 1113.52 177.14 1113.71 184.63 C 1113.97 194.69 1114.85 204.74 1114.40 214.81 L 1114.00 215.61 C 1112.84 218.11 1111.36 220.45 1109.61 222.57 C 1104.98 222.60 1100.35 222.69 1095.73 222.75 C 1095.10 223.13 1093.83 223.90 1093.20 224.28 C 1091.02 225.53 1088.35 224.89 1085.97 225.09 C 1081.97 224.88 1078.02 225.90 1074.05 225.77 C 1070.78 224.73 1067.36 224.55 1064.00 225.08 C 1060.12 225.63 1055.99 224.67 1052.33 226.33 C 1050.78 226.95 1049.27 227.63 1047.73 228.20 L 1047.19 228.16 C 1046.31 227.66 1045.44 227.15 1044.60 226.63 C 1038.31 226.78 1031.60 225.46 1025.84 228.72 C 1024.87 228.40 1023.92 228.09 1022.98 227.78 C 1022.20 228.26 1021.43 228.74 1020.67 229.22 L 1020.30 229.46 L 1019.44 229.30 C 1016.03 228.94 1012.92 227.50 1010.34 225.28 C 1010.39 223.22 1010.44 221.17 1010.50 219.11 C 1011.19 218.72 1012.55 217.93 1013.24 217.54 C 1013.77 217.22 1014.31 216.91 1014.87 216.59 C 1015.77 218.98 1016.07 222.30 1018.96 223.15 C 1024.76 225.20 1030.57 222.01 1036.22 220.90 C 1036.41 221.83 1036.62 222.77 1036.83 223.71 C 1044.63 224.13 1052.38 223.13 1060.14 222.55 C 1060.21 221.73 1060.29 220.91 1060.38 220.09 C 1062.12 219.66 1063.87 219.24 1065.63 218.81 C 1062.33 215.59 1059.11 211.02 1053.96 211.26 C 1049.73 211.02 1047.21 214.98 1044.03 217.06 C 1039.37 220.75 1032.17 219.03 1028.58 214.65 C 1029.67 212.01 1030.38 209.24 1031.07 206.47 C 1034.67 206.12 1037.62 208.06 1040.08 210.46 C 1042.80 205.27 1048.79 204.00 1053.60 201.52 C 1057.95 199.26 1063.14 199.72 1067.52 197.53 C 1071.37 195.57 1075.96 193.66 1077.22 189.08 C 1078.11 187.89 1078.98 186.67 1079.62 185.31 C 1081.03 182.26 1082.52 179.24 1084.38 176.43 C 1083.52 181.63 1081.63 186.68 1081.43 191.98 C 1081.25 194.51 1083.79 197.15 1086.40 196.36 C 1089.94 195.54 1093.51 193.83 1095.67 190.80 C 1098.57 186.74 1101.15 182.11 1101.23 176.98 C 1101.56 170.45 1102.26 162.56 1096.92 157.69 C 1094.38 158.02 1092.70 160.12 1090.86 161.65 C 1090.80 161.45 1090.69 161.07 1090.63 160.87 C 1091.19 157.29 1091.61 153.66 1091.40 150.03 Z" />
<path fill="#6a7a82" d=" M 207.96 148.53 C 228.99 147.61 250.03 148.91 271.06 148.42 C 270.33 150.34 269.59 152.27 268.85 154.19 C 262.87 154.89 256.13 153.58 251.33 158.17 C 261.22 160.06 271.41 158.68 281.33 157.64 C 281.44 158.56 281.55 159.49 281.67 160.42 C 279.39 160.43 277.11 160.44 274.84 160.46 C 274.07 161.27 273.31 162.08 272.55 162.89 C 272.53 164.74 272.52 166.58 272.52 168.43 C 270.31 168.83 268.11 169.23 265.91 169.64 C 263.86 172.12 261.22 174.23 259.76 177.13 C 258.12 184.44 259.53 192.32 256.04 199.22 C 251.80 201.51 247.10 203.66 244.78 208.16 C 242.71 208.35 240.64 208.53 238.58 208.70 C 236.48 211.73 235.20 215.21 234.55 218.82 C 232.56 217.73 230.60 216.00 228.17 216.30 C 225.83 216.27 224.90 218.80 223.79 220.43 C 223.33 221.97 222.93 223.53 222.53 225.09 C 222.54 223.62 222.55 222.15 222.57 220.68 C 221.59 219.64 220.62 218.61 219.64 217.58 C 214.34 218.76 209.43 216.36 204.46 214.98 C 201.86 214.08 199.40 215.56 197.03 216.45 C 196.40 211.76 197.28 207.09 197.46 202.41 C 197.60 200.20 197.77 197.98 198.05 195.78 C 199.45 197.93 200.34 201.77 203.54 201.60 C 206.61 201.24 208.25 197.83 208.37 195.04 C 209.08 189.10 206.05 182.08 200.25 179.84 C 200.12 183.65 199.97 187.49 199.06 191.20 C 198.51 180.48 200.12 169.65 197.73 159.05 C 208.47 159.53 219.24 159.70 229.99 159.44 C 236.05 159.26 242.10 159.89 248.06 160.94 C 248.12 157.02 245.29 154.10 241.89 152.62 C 239.69 152.57 237.64 153.56 235.52 154.01 C 231.72 155.10 227.81 153.83 223.96 153.95 C 220.33 154.53 216.80 156.41 213.06 155.36 C 207.00 154.03 200.29 153.55 194.76 156.89 C 192.99 157.56 189.99 157.45 189.84 159.97 C 188.48 170.85 189.05 181.97 186.65 192.74 C 186.07 186.79 187.39 180.90 187.39 174.96 C 187.37 166.88 188.02 158.63 185.65 150.78 C 192.90 148.66 200.45 148.26 207.96 148.53 Z" />
<path fill="#57656d" d=" M 271.06 148.42 C 275.56 148.19 280.05 147.77 284.55 147.75 L 285.00 148.48 C 285.22 148.88 285.68 149.69 285.91 150.10 C 286.14 149.77 286.61 149.11 286.85 148.79 C 288.10 149.43 289.37 150.06 290.61 150.75 C 292.25 151.76 293.86 152.85 295.47 153.92 C 296.37 159.06 296.04 164.34 297.11 169.46 L 297.27 170.30 L 297.14 170.49 C 296.44 171.44 295.76 172.40 295.10 173.37 C 293.64 166.76 294.03 159.89 292.28 153.34 C 290.97 152.62 289.62 151.63 288.03 151.90 C 281.63 152.64 275.03 152.06 268.85 154.19 C 269.59 152.27 270.33 150.34 271.06 148.42 Z" />
<path fill="#acb3b5" d=" M 285.00 148.48 C 288.86 147.84 292.81 147.33 296.71 147.99 C 297.17 148.97 297.62 149.97 298.07 150.96 C 295.58 150.82 293.09 150.74 290.61 150.75 C 289.37 150.06 288.10 149.43 286.85 148.79 C 286.61 149.11 286.14 149.77 285.91 150.10 C 285.68 149.69 285.22 148.88 285.00 148.48 Z" />
<path fill="#859196" d=" M 296.71 147.99 C 297.17 148.10 298.09 148.32 298.56 148.43 C 299.60 155.50 297.80 162.46 297.11 169.46 C 296.04 164.34 296.37 159.06 295.47 153.92 C 293.86 152.85 292.25 151.76 290.61 150.75 C 293.09 150.74 295.58 150.82 298.07 150.96 C 297.62 149.97 297.17 148.97 296.71 147.99 Z" />
<path fill="#6a7a82" d=" M 1100.51 147.86 C 1101.51 149.08 1102.56 150.26 1103.64 151.44 C 1103.11 154.81 1102.96 158.21 1102.83 161.61 C 1100.55 157.26 1102.83 152.09 1100.51 147.86 Z" />
<path fill="#4f5d65" d=" M 1006.82 151.77 C 1008.28 149.82 1010.74 148.99 1013.04 148.51 C 1014.24 149.97 1014.20 151.90 1014.49 153.67 C 1012.39 153.94 1010.31 154.22 1008.24 154.50 C 1008.53 155.87 1008.83 157.24 1009.13 158.62 C 1008.69 158.63 1007.80 158.65 1007.36 158.67 C 1006.83 160.89 1006.29 163.11 1005.87 165.35 C 1005.11 160.85 1004.93 156.03 1006.82 151.77 Z" />
<path fill="#44535b" d=" M 1048.08 153.43 C 1052.02 153.87 1055.05 151.28 1058.28 149.52 C 1061.95 149.74 1065.15 152.55 1069.00 152.41 C 1074.72 153.18 1079.58 149.17 1085.23 149.21 C 1085.42 149.94 1085.81 151.40 1086.00 152.12 C 1076.35 155.02 1066.10 151.89 1056.45 154.68 C 1053.61 154.77 1050.63 154.84 1048.08 153.43 Z" />
<path fill="#e1e4e2" d=" M 486.18 151.81 C 486.97 151.07 487.76 150.34 488.57 149.62 C 489.42 151.04 490.20 152.53 491.29 153.79 C 494.07 154.49 496.96 154.47 499.81 154.66 C 499.69 155.32 499.47 156.63 499.35 157.28 C 495.57 157.15 491.48 157.74 488.02 155.89 C 486.38 155.19 486.56 153.25 486.18 151.81 Z" />
<path fill="#8b9e9f" d=" M 600.96 151.36 C 607.85 150.57 614.84 149.54 621.76 150.82 C 620.77 152.39 621.02 155.55 618.62 155.62 C 613.61 155.92 608.60 154.87 603.59 155.52 C 591.30 156.80 578.93 155.58 566.63 156.56 C 561.27 156.87 555.92 156.22 550.56 156.41 C 545.72 155.89 540.90 154.65 536.00 155.10 C 527.89 155.72 519.66 156.07 511.63 154.61 C 517.34 151.04 524.40 151.45 530.87 151.65 C 537.77 152.60 544.80 153.15 551.74 152.12 C 560.40 150.61 569.22 151.57 577.95 151.41 C 585.62 151.20 593.29 151.64 600.96 151.36 Z" />
<path fill="#99aaab" d=" M 621.76 150.82 C 622.19 150.90 623.05 151.07 623.48 151.16 C 622.84 153.12 622.13 155.04 621.41 156.97 C 623.13 157.07 624.85 157.18 626.59 157.27 C 628.00 157.33 629.41 157.35 630.84 157.32 L 630.35 157.52 C 612.96 159.42 595.40 157.07 578.03 159.22 C 572.22 159.88 566.36 159.71 560.53 159.42 C 557.19 158.46 553.93 157.26 550.56 156.41 C 555.92 156.22 561.27 156.87 566.63 156.56 C 578.93 155.58 591.30 156.80 603.59 155.52 C 608.60 154.87 613.61 155.92 618.62 155.62 C 621.02 155.55 620.77 152.39 621.76 150.82 Z" />
<path fill="#b3b9ba" d=" M 1001.61 155.53 C 1002.01 154.15 1002.46 152.79 1002.90 151.42 C 1003.45 151.36 1004.02 151.30 1004.61 151.25 C 1003.18 153.24 1001.71 155.42 1002.44 158.00 C 1003.69 164.31 1001.67 170.74 1003.19 177.02 C 1004.26 182.14 1005.49 187.27 1005.52 192.54 C 1005.45 197.89 1006.80 203.09 1008.40 208.15 C 1010.40 213.71 1007.25 219.49 1008.45 225.13 C 1009.43 226.55 1010.73 227.71 1011.99 228.89 C 1010.66 228.84 1009.35 228.76 1008.06 228.64 C 1007.53 222.58 1006.50 216.59 1005.65 210.57 C 1004.78 204.57 1002.74 198.80 1002.19 192.75 C 1002.75 194.12 1003.38 195.45 1004.04 196.78 C 1004.46 189.06 1001.99 181.62 1001.26 174.01 C 1001.02 169.53 1001.19 165.04 1000.76 160.56 C 1000.73 158.85 1001.19 157.18 1001.61 155.53 Z" />
<path fill="#303f48" d=" M 268.85 154.19 C 275.03 152.06 281.63 152.64 288.03 151.90 C 289.62 151.63 290.97 152.62 292.28 153.34 C 289.05 153.95 285.84 154.63 282.68 155.53 C 284.72 162.41 284.44 169.72 284.73 176.82 C 284.01 185.62 286.75 194.20 286.37 202.98 C 286.21 207.94 286.93 212.89 286.80 217.85 C 286.98 220.73 283.79 221.86 282.13 223.63 C 284.85 224.42 287.67 224.30 290.41 223.66 C 291.86 218.20 290.28 211.90 293.83 207.13 L 294.55 205.99 C 295.06 211.68 294.00 217.35 294.07 223.05 L 293.55 223.19 C 293.18 223.30 292.44 223.50 292.08 223.60 C 291.15 226.78 289.29 230.06 285.47 229.64 C 280.04 228.44 273.50 229.20 269.58 224.48 C 270.85 224.17 272.12 223.82 273.37 223.43 C 273.64 223.04 274.17 222.28 274.43 221.90 C 275.00 220.31 275.87 218.62 275.33 216.89 C 273.62 215.74 271.58 216.59 269.72 216.77 C 266.32 217.47 262.85 216.87 259.41 217.04 C 258.84 217.07 257.71 217.12 257.15 217.14 C 257.00 218.74 256.85 220.34 256.75 221.94 L 256.73 222.66 C 253.89 222.23 251.00 222.34 248.15 222.51 C 243.68 223.06 239.34 221.41 234.87 221.51 C 236.93 216.18 241.46 212.61 244.78 208.16 C 247.10 203.66 251.80 201.51 256.04 199.22 C 259.53 192.32 258.12 184.44 259.76 177.13 C 261.22 174.23 263.86 172.12 265.91 169.64 C 268.11 169.23 270.31 168.83 272.52 168.43 C 272.52 166.58 272.53 164.74 272.55 162.89 C 273.31 162.08 274.07 161.27 274.84 160.46 C 277.11 160.44 279.39 160.43 281.67 160.42 C 281.55 159.49 281.44 158.56 281.33 157.64 C 271.41 158.68 261.22 160.06 251.33 158.17 C 256.13 153.58 262.87 154.89 268.85 154.19 Z" />
<path fill="#a2b2b2" d=" M 500.81 155.95 C 502.86 154.19 505.02 151.92 507.99 152.20 C 509.57 151.81 512.24 153.84 510.42 155.25 C 507.24 155.72 504.00 155.68 500.81 155.95 Z" />
<path fill="#3e4d55" d=" M 235.52 154.01 C 237.64 153.56 239.69 152.57 241.89 152.62 C 245.29 154.10 248.12 157.02 248.06 160.94 C 242.10 159.89 236.05 159.26 229.99 159.44 C 219.24 159.70 208.47 159.53 197.73 159.05 L 196.67 159.05 C 194.21 162.68 195.01 167.04 195.53 171.09 C 195.08 169.97 194.57 168.88 194.07 167.80 C 190.59 177.82 194.88 188.38 192.33 198.53 C 191.48 192.05 191.18 185.50 190.87 178.97 C 191.42 171.53 190.62 163.52 194.76 156.89 C 200.29 153.55 207.00 154.03 213.06 155.36 C 216.80 156.41 220.33 154.53 223.96 153.95 C 227.81 153.83 231.72 155.10 235.52 154.01 Z" />
<path fill="#1b262d" d=" M 282.68 155.53 C 285.84 154.63 289.05 153.95 292.28 153.34 C 294.03 159.89 293.64 166.76 295.10 173.37 C 294.60 182.90 294.50 192.45 294.50 202.00 C 294.46 203.72 294.20 205.44 293.83 207.13 C 290.28 211.90 291.86 218.20 290.41 223.66 C 287.67 224.30 284.85 224.42 282.13 223.63 C 283.79 221.86 286.98 220.73 286.80 217.85 C 286.93 212.89 286.21 207.94 286.37 202.98 C 286.75 194.20 284.01 185.62 284.73 176.82 C 284.44 169.72 284.72 162.41 282.68 155.53 Z" />
<path fill="#c2c7c7" d=" M 1014.89 154.25 C 1016.45 154.27 1017.02 155.03 1016.59 156.53 C 1014.83 156.56 1014.26 155.80 1014.89 154.25 Z" />
<path fill="#bec3c4" d=" M 1020.37 153.85 C 1023.05 153.78 1025.74 153.71 1028.43 153.65 C 1027.62 154.51 1026.83 155.37 1026.04 156.24 C 1024.20 156.24 1022.36 156.31 1020.55 156.38 C 1020.51 155.74 1020.42 154.48 1020.37 153.85 Z" />
<path fill="#dddfdd" d=" M 1029.53 154.46 C 1032.37 154.54 1035.21 154.61 1038.06 154.72 C 1036.70 155.63 1035.34 156.55 1034.01 157.47 C 1033.24 157.29 1031.71 156.94 1030.95 156.77 C 1030.63 156.69 1030.01 156.55 1029.69 156.48 C 1029.65 155.97 1029.57 154.97 1029.53 154.46 Z" />
<path fill="#8e9b9f" d=" M 1081.08 159.14 C 1081.98 155.24 1086.62 155.29 1089.81 155.31 C 1089.87 156.61 1089.95 157.90 1090.06 159.20 C 1088.90 163.43 1088.34 167.78 1088.31 172.15 C 1086.04 172.61 1083.80 173.10 1081.57 173.62 C 1078.66 169.28 1080.06 163.86 1081.08 159.14 Z" />
<path fill="#47565e" d=" M 189.84 159.97 C 189.99 157.45 192.99 157.56 194.76 156.89 C 190.62 163.52 191.42 171.53 190.87 178.97 C 191.18 185.50 191.48 192.05 192.33 198.53 C 192.99 206.37 195.09 214.01 195.62 221.87 C 195.26 221.34 194.54 220.28 194.18 219.75 C 192.34 219.55 190.51 219.36 188.68 219.16 C 188.38 210.33 185.88 201.60 186.65 192.74 C 189.05 181.97 188.48 170.85 189.84 159.97 Z" />
<path fill="#394950" d=" M 1007.36 158.67 C 1007.80 158.65 1008.69 158.63 1009.13 158.62 C 1010.72 165.15 1009.82 171.94 1010.95 178.53 C 1011.92 184.53 1012.16 190.71 1014.43 196.43 C 1013.03 196.95 1011.64 197.48 1010.27 197.99 C 1009.15 196.55 1008.17 195.02 1007.19 193.49 C 1007.32 189.66 1007.45 185.81 1006.96 182.00 C 1006.24 176.47 1006.60 170.87 1005.87 165.35 C 1006.29 163.11 1006.83 160.89 1007.36 158.67 Z" />
<path fill="#47565e" d=" M 1090.86 161.65 C 1092.70 160.12 1094.38 158.02 1096.92 157.69 C 1102.26 162.56 1101.56 170.45 1101.23 176.98 C 1101.15 182.11 1098.57 186.74 1095.67 190.80 C 1093.51 193.83 1089.94 195.54 1086.40 196.36 C 1083.79 197.15 1081.25 194.51 1081.43 191.98 C 1081.63 186.68 1083.52 181.63 1084.38 176.43 C 1082.52 179.24 1081.03 182.26 1079.62 185.31 C 1079.80 181.35 1080.41 177.41 1081.57 173.62 C 1083.80 173.10 1086.04 172.61 1088.31 172.15 C 1088.34 167.78 1088.90 163.43 1090.06 159.20 L 1090.63 160.87 C 1090.69 161.07 1090.80 161.45 1090.86 161.65 Z" />
<path fill="#56646b" d=" M 195.53 171.09 C 195.01 167.04 194.21 162.68 196.67 159.05 L 197.73 159.05 C 200.12 169.65 198.51 180.48 199.06 191.20 C 198.74 192.73 198.35 194.25 198.05 195.78 C 197.77 197.98 197.60 200.20 197.46 202.41 C 195.31 195.94 197.02 189.11 196.35 182.46 C 195.98 178.68 195.85 174.88 195.53 171.09 Z" />
<path fill="#bcc8c7" d=" M 520.13 161.30 C 530.40 161.87 540.69 162.70 550.98 161.91 C 562.13 162.69 573.26 161.06 584.42 161.34 C 583.31 162.05 582.38 163.19 581.03 163.37 C 574.57 164.04 568.04 162.88 561.61 163.94 C 554.51 165.50 547.21 164.14 540.03 165.01 C 533.51 165.77 526.94 164.81 520.44 165.54 C 520.34 164.12 520.23 162.71 520.13 161.30 Z" />
<path fill="#f5f4f0" d=" M 1000.76 160.56 C 1001.19 165.04 1001.02 169.53 1001.26 174.01 C 1001.99 181.62 1004.46 189.06 1004.04 196.78 C 1003.38 195.45 1002.75 194.12 1002.19 192.75 C 1000.20 182.15 1000.36 171.30 1000.76 160.56 Z" />
<path fill="#e3e4e0" d=" M 517.03 164.13 C 517.86 168.67 517.48 173.32 517.35 177.90 C 516.32 177.43 515.30 176.96 514.28 176.51 C 515.13 172.37 516.00 168.23 517.03 164.13 Z" />
<path fill="#202c34" d=" M 1105.25 163.78 C 1109.43 168.17 1106.46 174.65 1107.91 179.97 C 1109.07 184.20 1108.90 188.55 1109.03 192.87 C 1111.15 199.64 1109.49 206.67 1109.39 213.58 C 1107.65 216.58 1103.77 219.91 1100.19 217.56 C 1100.26 215.90 1101.88 215.06 1103.11 214.24 L 1103.58 213.99 C 1104.55 213.47 1105.52 212.94 1106.51 212.42 C 1106.99 202.36 1105.39 192.30 1106.53 182.29 C 1105.98 176.13 1104.03 170.01 1105.25 163.78 Z" />
<path fill="#dadddb" d=" M 1031.70 167.14 C 1032.15 167.10 1033.04 167.03 1033.48 166.99 C 1033.36 169.28 1033.29 171.56 1033.26 173.85 C 1032.83 173.89 1031.95 173.96 1031.52 174.00 C 1031.60 171.71 1031.67 169.43 1031.70 167.14 Z" />
<path fill="#243139" d=" M 194.07 167.80 C 194.57 168.88 195.08 169.97 195.53 171.09 C 195.85 174.88 195.98 178.68 196.35 182.46 C 197.02 189.11 195.31 195.94 197.46 202.41 C 197.28 207.09 196.40 211.76 197.03 216.45 C 197.27 217.81 197.58 219.17 197.88 220.53 C 202.27 219.22 206.80 220.22 211.25 220.59 L 211.38 221.66 C 211.13 223.63 211.01 225.67 210.27 227.53 C 208.95 228.83 207.28 229.69 205.75 230.71 C 203.43 230.61 201.11 230.55 198.80 230.53 C 196.20 229.24 193.55 228.09 190.87 226.99 C 192.16 225.03 193.82 223.37 195.62 221.87 C 195.09 214.01 192.99 206.37 192.33 198.53 C 194.88 188.38 190.59 177.82 194.07 167.80 Z" />
<path fill="#707f86" d=" M 295.10 173.37 C 295.76 172.40 296.44 171.44 297.14 170.49 C 297.65 178.66 297.24 186.86 295.85 194.92 C 295.16 198.56 296.52 202.67 294.55 205.99 L 293.83 207.13 C 294.20 205.44 294.46 203.72 294.50 202.00 C 294.50 192.45 294.60 182.90 295.10 173.37 Z" />
<path fill="#e1e4e2" d=" M 500.42 170.82 C 502.30 172.45 504.15 174.13 505.77 176.03 C 503.32 176.65 501.55 178.48 499.77 180.13 C 499.90 177.02 500.19 173.92 500.42 170.82 Z" />
<path fill="#7e8c91" d=" M 200.25 179.84 C 206.05 182.08 209.08 189.10 208.37 195.04 C 208.25 197.83 206.61 201.24 203.54 201.60 C 200.34 201.77 199.45 197.93 198.05 195.78 C 198.35 194.25 198.74 192.73 199.06 191.20 C 199.97 187.49 200.12 183.65 200.25 179.84 Z" />
<path fill="#79878e" d=" M 224.90 183.80 C 225.71 183.13 226.60 182.58 227.47 182.00 C 227.57 182.74 227.67 183.49 227.78 184.24 C 232.36 185.79 231.63 191.15 230.89 194.94 C 230.58 196.32 229.26 197.12 228.40 198.14 C 226.85 196.49 224.97 195.03 223.99 192.95 C 224.05 189.89 224.23 186.79 224.90 183.80 Z" />
<path fill="#94a5a6" d=" M 639.17 184.98 C 641.72 184.96 644.27 185.05 646.82 185.24 C 647.39 186.55 648.03 187.83 648.71 189.11 C 645.93 188.52 643.03 188.48 640.52 190.00 C 640.01 188.34 639.57 186.66 639.17 184.98 Z" />
<path fill="#889499" d=" M 1027.92 188.12 C 1028.95 186.41 1030.53 185.15 1031.95 183.78 C 1038.25 187.50 1042.75 193.45 1045.49 200.15 C 1044.73 201.19 1043.97 202.22 1043.24 203.26 C 1042.10 204.85 1041.01 206.47 1039.93 208.09 C 1038.86 206.98 1037.79 205.87 1036.69 204.82 C 1034.56 203.15 1031.70 202.05 1030.62 199.40 C 1029.16 195.81 1027.98 192.01 1027.92 188.12 Z" />
<path fill="#6a8081" d=" M 640.52 190.00 C 643.03 188.48 645.93 188.52 648.71 189.11 C 649.91 191.19 651.62 192.91 653.51 194.37 C 650.55 195.54 647.58 196.68 644.62 197.86 C 642.87 195.46 641.45 192.82 640.52 190.00 Z" />
<path fill="#55646c" d=" M 1075.91 189.88 L 1077.22 189.08 C 1075.96 193.66 1071.37 195.57 1067.52 197.53 C 1063.14 199.72 1057.95 199.26 1053.60 201.52 C 1048.79 204.00 1042.80 205.27 1040.08 210.46 C 1037.62 208.06 1034.67 206.12 1031.07 206.47 C 1030.38 209.24 1029.67 212.01 1028.58 214.65 L 1028.18 214.65 C 1028.15 214.14 1028.09 213.11 1028.07 212.59 C 1028.63 209.88 1029.16 207.05 1030.62 204.65 C 1032.63 204.40 1034.66 204.64 1036.69 204.82 C 1037.79 205.87 1038.86 206.98 1039.93 208.09 C 1041.01 206.47 1042.10 204.85 1043.24 203.26 C 1050.43 201.71 1056.98 198.05 1064.33 197.14 C 1068.29 194.95 1071.73 191.79 1075.91 189.88 Z" />
<path fill="#7d8b90" d=" M 1005.52 192.54 L 1007.19 193.49 C 1008.17 195.02 1009.15 196.55 1010.27 197.99 C 1011.31 198.64 1012.38 199.23 1013.48 199.84 C 1013.39 205.74 1013.51 211.64 1013.24 217.54 C 1012.55 217.93 1011.19 218.72 1010.50 219.11 C 1010.44 221.17 1010.39 223.22 1010.34 225.28 C 1012.92 227.50 1016.03 228.94 1019.44 229.30 C 1017.10 229.21 1014.77 229.21 1012.46 229.32 L 1011.99 228.89 C 1010.73 227.71 1009.43 226.55 1008.45 225.13 C 1007.25 219.49 1010.40 213.71 1008.40 208.15 C 1006.80 203.09 1005.45 197.89 1005.52 192.54 Z" />
<path fill="#53696b" d=" M 653.51 194.37 C 655.54 194.60 657.58 194.66 659.64 194.70 C 658.42 196.35 657.91 199.04 655.69 199.63 C 652.44 199.77 649.20 199.31 645.95 199.44 C 645.49 198.92 645.04 198.40 644.62 197.86 C 647.58 196.68 650.55 195.54 653.51 194.37 Z" />
<path fill="#4c5b62" d=" M 1014.43 196.43 C 1015.46 200.54 1015.40 204.89 1017.21 208.81 C 1020.35 207.20 1023.77 206.33 1027.31 206.37 C 1027.45 207.47 1027.59 208.56 1027.74 209.66 C 1023.37 209.90 1019.00 210.26 1014.63 210.02 C 1014.83 211.52 1015.04 213.01 1015.27 214.51 C 1019.57 214.48 1023.87 214.57 1028.18 214.65 L 1028.58 214.65 C 1032.17 219.03 1039.37 220.75 1044.03 217.06 C 1047.21 214.98 1049.73 211.02 1053.96 211.26 C 1059.11 211.02 1062.33 215.59 1065.63 218.81 C 1063.87 219.24 1062.12 219.66 1060.38 220.09 C 1060.29 220.91 1060.21 221.73 1060.14 222.55 C 1052.38 223.13 1044.63 224.13 1036.83 223.71 C 1036.62 222.77 1036.41 221.83 1036.22 220.90 C 1030.57 222.01 1024.76 225.20 1018.96 223.15 C 1016.07 222.30 1015.77 218.98 1014.87 216.59 C 1014.31 216.91 1013.77 217.22 1013.24 217.54 C 1013.51 211.64 1013.39 205.74 1013.48 199.84 C 1012.38 199.23 1011.31 198.64 1010.27 197.99 C 1011.64 197.48 1013.03 196.95 1014.43 196.43 Z" />
<path fill="#4a5a61" d=" M 238.58 208.70 C 240.64 208.53 242.71 208.35 244.78 208.16 C 241.46 212.61 236.93 216.18 234.87 221.51 C 233.69 221.46 232.50 221.42 231.32 221.38 C 228.80 221.17 226.29 220.78 223.79 220.43 C 224.90 218.80 225.83 216.27 228.17 216.30 C 230.60 216.00 232.56 217.73 234.55 218.82 C 235.20 215.21 236.48 211.73 238.58 208.70 Z" />
<path fill="#314049" d=" M 1014.63 210.02 C 1019.00 210.26 1023.37 209.90 1027.74 209.66 C 1027.82 210.39 1027.99 211.86 1028.07 212.59 C 1028.09 213.11 1028.15 214.14 1028.18 214.65 C 1023.87 214.57 1019.57 214.48 1015.27 214.51 C 1015.04 213.01 1014.83 211.52 1014.63 210.02 Z" />
<path fill="#6f7f85" d=" M 1095.27 212.15 C 1098.12 211.45 1101.01 210.84 1103.91 210.33 C 1103.79 211.55 1103.68 212.77 1103.58 213.99 L 1103.11 214.24 C 1100.59 214.48 1098.06 214.44 1095.56 214.51 C 1095.49 213.92 1095.34 212.74 1095.27 212.15 Z" />
<path fill="#57666e" d=" M 1076.72 218.40 C 1077.82 216.51 1078.22 213.46 1080.76 212.98 C 1081.16 214.16 1082.18 215.41 1081.72 216.72 C 1080.51 218.27 1078.45 218.20 1076.72 218.40 Z" />
<path fill="#8a969b" d=" M 1055.23 213.84 C 1057.61 214.32 1059.24 215.94 1059.90 218.29 C 1055.89 220.55 1051.21 220.50 1046.77 220.26 C 1047.58 217.43 1049.92 216.21 1052.77 216.39 C 1053.58 215.54 1054.40 214.69 1055.23 213.84 Z" />
<path fill="#1e2a32" d=" M 1082.03 216.80 C 1085.62 215.18 1090.31 213.03 1093.91 215.74 C 1092.27 217.81 1090.87 220.71 1087.93 221.05 C 1085.05 221.68 1083.04 219.13 1082.03 216.80 Z" />
<path fill="#46565e" d=" M 197.03 216.45 C 199.40 215.56 201.86 214.08 204.46 214.98 C 209.43 216.36 214.34 218.76 219.64 217.58 C 220.62 218.61 221.59 219.64 222.57 220.68 C 220.50 220.91 218.44 221.14 216.39 221.37 C 215.74 223.48 215.10 225.60 214.46 227.71 C 221.46 227.91 228.06 230.57 235.03 230.81 C 235.26 231.18 235.71 231.93 235.94 232.30 L 236.74 233.54 C 232.37 233.40 227.95 233.36 223.66 232.40 C 224.59 232.24 226.45 231.92 227.38 231.76 C 220.26 230.13 212.96 230.93 205.75 230.71 C 207.28 229.69 208.95 228.83 210.27 227.53 C 211.01 225.67 211.13 223.63 211.38 221.66 C 211.63 223.22 211.95 224.76 212.26 226.31 C 213.41 224.82 214.55 223.31 215.67 221.79 C 214.21 221.34 212.75 220.88 211.25 220.59 C 206.80 220.22 202.27 219.22 197.88 220.53 C 197.58 219.17 197.27 217.81 197.03 216.45 Z" />
<path fill="#415059" d=" M 259.41 217.04 C 262.85 216.87 266.32 217.47 269.72 216.77 C 271.58 216.59 273.62 215.74 275.33 216.89 C 275.87 218.62 275.00 220.31 274.43 221.90 C 272.98 221.00 271.56 220.02 269.98 219.34 C 268.64 219.90 267.41 220.69 266.16 221.42 C 264.89 221.27 263.63 221.11 262.36 221.02 C 261.37 219.69 260.39 218.36 259.41 217.04 Z" />
<path fill="#889499" d=" M 1016.46 216.12 C 1020.13 216.41 1023.82 216.64 1027.52 216.55 C 1028.32 218.13 1029.11 219.71 1029.91 221.31 C 1025.57 221.31 1021.16 221.71 1016.91 220.75 C 1016.23 219.31 1016.59 217.65 1016.46 216.12 Z" />
<path fill="#dee0de" d=" M 1109.61 222.57 C 1111.36 220.45 1112.84 218.11 1114.00 215.61 C 1113.55 218.32 1113.54 221.07 1113.49 223.81 C 1107.46 223.55 1101.42 223.76 1095.40 223.58 L 1095.59 224.39 L 1093.20 224.28 C 1093.83 223.90 1095.10 223.13 1095.73 222.75 C 1100.35 222.69 1104.98 222.60 1109.61 222.57 Z" />
<path fill="#505f66" d=" M 245.29 216.69 C 247.07 218.04 248.60 221.76 245.16 221.81 C 244.46 220.14 245.11 218.38 245.29 216.69 Z" />
<path fill="#677880" d=" M 257.15 217.14 C 257.71 217.12 258.84 217.07 259.41 217.04 C 260.39 218.36 261.37 219.69 262.36 221.02 C 260.47 221.22 258.61 221.60 256.75 221.94 C 256.85 220.34 257.00 218.74 257.15 217.14 Z" />
<path fill="#6c7c83" d=" M 188.68 219.16 C 190.51 219.36 192.34 219.55 194.18 219.75 C 194.54 220.28 195.26 221.34 195.62 221.87 C 193.82 223.37 192.16 225.03 190.87 226.99 C 193.55 228.09 196.20 229.24 198.80 230.53 C 195.39 230.60 192.00 230.21 188.66 229.52 C 188.70 226.06 188.69 222.61 188.68 219.16 Z" />
<path fill="#55636a" d=" M 266.16 221.42 C 267.41 220.69 268.64 219.90 269.98 219.34 C 271.56 220.02 272.98 221.00 274.43 221.90 C 274.17 222.28 273.64 223.04 273.37 223.43 C 272.12 223.82 270.85 224.17 269.58 224.48 L 269.09 224.42 C 266.35 224.06 263.59 223.88 260.85 223.56 C 259.47 223.28 258.09 222.98 256.73 222.66 L 256.75 221.94 C 258.61 221.60 260.47 221.22 262.36 221.02 C 263.63 221.11 264.89 221.27 266.16 221.42 Z" />
<path fill="#d0d4d3" d=" M 181.41 221.56 C 182.31 221.01 183.21 220.46 184.11 219.91 C 184.42 223.03 184.40 226.18 183.95 229.29 C 181.04 227.69 181.19 224.43 181.41 221.56 Z" />
<path fill="#606e74" d=" M 211.25 220.59 C 212.75 220.88 214.21 221.34 215.67 221.79 C 214.55 223.31 213.41 224.82 212.26 226.31 C 211.95 224.76 211.63 223.22 211.38 221.66 L 211.25 220.59 Z" />
<path fill="#2f3d44" d=" M 216.39 221.37 C 218.44 221.14 220.50 220.91 222.57 220.68 C 222.55 222.15 222.54 223.62 222.53 225.09 C 222.93 223.53 223.33 221.97 223.79 220.43 C 226.29 220.78 228.80 221.17 231.32 221.38 C 228.12 221.96 225.60 223.98 223.47 226.31 C 226.49 228.62 230.32 228.84 233.98 228.99 C 234.24 229.44 234.77 230.35 235.03 230.81 C 228.06 230.57 221.46 227.91 214.46 227.71 C 215.10 225.60 215.74 223.48 216.39 221.37 Z" />
<path fill="#1e2a31" d=" M 234.87 221.51 C 239.34 221.41 243.68 223.06 248.15 222.51 C 251.00 222.34 253.89 222.23 256.73 222.66 C 258.09 222.98 259.47 223.28 260.85 223.56 C 260.05 225.83 259.64 229.10 256.79 229.66 C 252.36 230.29 248.55 227.41 244.91 225.34 C 244.67 227.09 244.44 228.85 244.20 230.61 C 241.46 231.24 238.70 231.79 235.94 232.30 C 235.71 231.93 235.26 231.18 235.03 230.81 C 234.77 230.35 234.24 229.44 233.98 228.99 C 230.32 228.84 226.49 228.62 223.47 226.31 C 225.60 223.98 228.12 221.96 231.32 221.38 C 232.50 221.42 233.69 221.46 234.87 221.51 Z" />
<path fill="#909a9e" d=" M 292.08 223.60 C 292.44 223.50 293.18 223.30 293.55 223.19 C 293.19 225.70 295.06 229.06 293.25 231.09 C 276.98 232.74 260.60 233.74 244.23 233.37 C 249.37 230.70 255.22 233.63 260.41 231.16 C 268.71 230.12 277.17 231.15 285.47 229.64 C 289.29 230.06 291.15 226.78 292.08 223.60 Z" />
<path fill="#324047" d=" M 260.85 223.56 C 263.59 223.88 266.35 224.06 269.09 224.42 C 268.88 225.59 268.68 226.76 268.48 227.94 C 266.01 228.24 263.54 228.49 261.07 228.69 C 260.91 229.30 260.57 230.54 260.41 231.16 C 255.22 233.63 249.37 230.70 244.23 233.37 C 241.81 234.10 239.20 233.99 236.74 233.54 L 235.94 232.30 C 238.70 231.79 241.46 231.24 244.20 230.61 C 244.44 228.85 244.67 227.09 244.91 225.34 C 248.55 227.41 252.36 230.29 256.79 229.66 C 259.64 229.10 260.05 225.83 260.85 223.56 Z" />
<path fill="#43525a" d=" M 269.09 224.42 L 269.58 224.48 C 273.50 229.20 280.04 228.44 285.47 229.64 C 277.17 231.15 268.71 230.12 260.41 231.16 C 260.57 230.54 260.91 229.30 261.07 228.69 C 263.54 228.49 266.01 228.24 268.48 227.94 C 268.68 226.76 268.88 225.59 269.09 224.42 Z" />
<path fill="#79878e" d=" M 1052.33 226.33 C 1055.99 224.67 1060.12 225.63 1064.00 225.08 C 1067.36 224.55 1070.78 224.73 1074.05 225.77 C 1065.36 227.42 1056.48 227.23 1047.73 228.20 C 1049.27 227.63 1050.78 226.95 1052.33 226.33 Z" />
<path fill="#7a888d" d=" M 1025.84 228.72 C 1031.60 225.46 1038.31 226.78 1044.60 226.63 C 1045.44 227.15 1046.31 227.66 1047.19 228.16 C 1038.36 228.75 1029.50 228.71 1020.67 229.22 C 1021.43 228.74 1022.20 228.26 1022.98 227.78 C 1023.92 228.09 1024.87 228.40 1025.84 228.72 Z" />
<path fill="#acb3b5" d=" M 188.66 229.52 C 192.00 230.21 195.39 230.60 198.80 230.53 C 201.11 230.55 203.43 230.61 205.75 230.71 C 212.96 230.93 220.26 230.13 227.38 231.76 C 226.45 231.92 224.59 232.24 223.66 232.40 C 222.99 232.26 221.66 231.99 221.00 231.86 C 212.34 231.64 203.60 231.27 194.97 232.14 C 192.89 232.22 190.80 232.25 188.72 232.27 C 188.71 231.58 188.68 230.21 188.66 229.52 Z" />
<path fill="#13b824" d=" M 279.34 255.92 C 278.97 253.34 282.87 251.20 284.45 253.69 C 287.55 257.19 290.49 260.83 293.88 264.07 C 296.38 264.40 298.04 266.24 297.77 268.81 C 302.39 274.89 308.84 279.29 313.35 285.47 C 313.76 286.72 313.60 288.07 313.69 289.37 C 309.69 290.86 305.43 291.36 301.33 292.43 C 305.80 301.97 311.97 310.54 317.69 319.34 C 322.26 325.66 326.98 331.93 332.51 337.45 C 336.62 341.42 339.51 346.45 343.70 350.35 C 347.86 354.19 351.43 358.60 355.55 362.48 C 361.88 368.18 366.36 375.55 372.65 381.30 C 377.39 387.68 384.85 390.96 390.36 396.53 C 394.32 400.74 400.13 402.62 403.80 407.16 C 407.72 412.00 413.48 414.79 417.60 419.41 C 419.84 421.86 422.27 424.15 425.00 426.06 C 429.92 429.40 433.42 434.41 438.41 437.67 C 441.70 440.04 445.74 441.31 448.61 444.28 C 451.48 447.14 454.00 450.38 457.34 452.73 C 460.99 455.32 464.01 458.64 466.90 462.02 C 470.15 465.90 475.00 467.84 478.48 471.47 C 482.36 475.60 487.83 477.49 492.41 480.65 C 496.88 483.49 500.71 487.35 505.64 489.42 C 510.11 491.34 514.79 493.20 518.17 496.86 C 522.43 501.49 528.38 503.92 533.00 508.12 C 536.45 511.11 540.86 512.68 544.36 515.61 C 546.43 517.29 545.62 520.28 545.76 522.61 C 544.69 522.63 543.62 522.65 542.57 522.67 C 542.22 521.17 541.89 519.68 541.56 518.19 C 537.52 515.64 533.25 513.42 529.62 510.28 C 525.53 506.63 520.27 504.55 516.54 500.46 C 513.69 497.33 509.95 495.21 506.02 493.73 C 498.00 490.76 492.21 484.03 484.54 480.38 C 478.77 477.81 474.90 472.60 469.58 469.35 C 464.24 466.13 461.42 460.23 456.32 456.73 C 450.15 452.65 446.51 445.54 439.46 442.67 C 435.09 440.19 431.26 436.87 427.73 433.33 C 424.28 429.74 419.80 427.33 416.50 423.58 C 413.67 420.34 410.34 417.63 406.83 415.17 C 402.54 412.15 399.71 407.44 395.09 404.84 C 391.36 402.73 388.17 399.86 385.06 396.96 C 381.44 393.52 376.77 391.35 373.47 387.56 C 368.93 382.40 363.79 377.77 359.82 372.13 C 354.98 366.37 349.16 361.51 344.34 355.72 C 338.10 350.21 333.55 343.17 327.61 337.38 C 321.19 330.33 315.51 322.62 310.38 314.58 C 305.88 307.68 300.95 300.91 298.02 293.15 C 294.04 293.40 290.31 294.91 286.91 296.93 C 285.72 297.78 284.22 297.43 282.87 297.49 C 281.82 294.86 280.33 292.30 280.35 289.39 C 280.19 282.92 280.28 276.45 280.28 269.99 C 280.31 265.28 279.23 260.64 279.34 255.92 Z" />
<path fill="#dd4e0c" d=" M 1043.64 253.49 C 1045.44 253.52 1047.25 253.59 1049.07 253.68 C 1057.10 265.10 1062.58 279.10 1061.59 293.24 C 1060.41 293.64 1059.25 294.05 1058.11 294.46 C 1057.83 295.41 1057.56 296.37 1057.32 297.33 C 1054.81 298.11 1052.28 298.79 1049.75 299.46 C 1049.11 311.10 1045.86 322.38 1044.55 333.93 C 1043.17 345.60 1041.47 357.25 1038.21 368.56 C 1036.19 374.87 1036.68 381.53 1036.15 388.04 C 1035.90 392.35 1033.44 396.00 1032.23 400.04 C 1029.11 412.37 1025.40 424.60 1020.66 436.41 C 1018.89 441.46 1015.27 445.56 1013.41 450.58 C 1011.18 456.50 1006.47 460.92 1003.20 466.24 C 1000.85 470.15 997.23 473.12 995.16 477.20 C 993.01 481.26 989.35 484.24 987.25 488.33 C 984.86 492.74 980.89 495.97 978.26 500.21 C 976.31 503.23 974.43 506.34 971.89 508.91 C 968.18 512.60 965.97 517.51 962.08 521.05 C 956.43 526.17 952.78 533.28 946.12 537.29 C 940.27 541.02 936.98 548.75 929.60 549.83 C 925.08 553.57 921.48 558.27 916.96 562.01 C 911.44 566.48 907.08 572.28 901.05 576.14 C 896.06 579.39 892.58 584.41 887.58 587.64 C 881.90 591.14 878.24 597.05 872.45 600.41 C 865.67 605.52 858.79 610.60 851.15 614.38 C 843.77 618.06 837.70 623.95 829.99 627.01 C 824.05 629.44 819.03 633.58 813.21 636.22 C 805.37 639.10 797.03 640.15 789.09 642.69 C 780.88 645.23 772.32 646.19 763.94 648.01 C 757.93 648.74 752.09 650.41 746.07 651.01 C 742.02 651.50 737.94 651.48 733.90 651.92 C 721.01 653.57 707.95 652.83 695.03 654.11 C 685.14 654.42 675.17 653.52 665.55 651.17 C 665.60 650.30 665.70 648.57 665.74 647.71 C 670.23 647.35 674.54 649.42 679.04 649.60 C 691.69 651.46 704.39 649.07 717.08 649.36 C 725.43 649.65 733.65 647.89 741.96 647.53 C 749.40 647.35 756.53 645.01 763.88 644.17 C 771.43 642.38 779.20 641.64 786.65 639.39 C 794.48 636.92 802.61 635.54 810.47 633.13 C 814.78 631.59 818.44 628.75 822.41 626.53 C 826.92 623.78 832.13 622.36 836.41 619.21 C 841.27 615.70 846.34 612.46 851.67 609.72 C 859.58 605.58 866.52 599.94 873.74 594.77 C 877.51 591.87 880.35 587.92 884.31 585.24 C 887.41 583.12 890.38 580.77 892.95 578.01 C 896.80 573.72 902.27 571.38 906.09 567.05 C 910.98 561.62 917.13 557.51 921.92 551.98 C 924.38 548.90 928.23 547.62 931.27 545.25 C 936.65 541.34 941.07 536.29 946.40 532.32 C 950.93 528.89 953.65 523.71 957.89 519.97 C 962.58 515.83 965.26 510.04 969.63 505.63 C 973.34 501.86 975.25 496.71 979.02 492.99 C 983.36 488.89 986.19 483.55 989.80 478.85 C 992.65 475.27 994.03 470.60 997.64 467.63 C 1001.05 464.60 1003.91 460.89 1005.63 456.65 C 1007.29 452.31 1010.71 448.94 1012.27 444.56 C 1013.75 440.15 1016.28 436.20 1017.75 431.79 C 1019.48 426.44 1022.45 421.53 1023.52 415.96 C 1026.51 401.30 1031.28 387.01 1033.13 372.12 C 1034.67 365.17 1034.02 357.39 1038.35 351.33 C 1040.27 340.61 1041.01 329.71 1043.20 319.04 C 1044.27 312.60 1045.63 306.18 1045.87 299.63 C 1041.39 299.57 1036.65 300.36 1032.45 298.40 C 1032.42 296.51 1032.08 294.54 1032.75 292.72 C 1034.76 287.14 1036.13 281.33 1038.51 275.88 C 1041.49 268.81 1044.46 261.32 1043.64 253.49 Z" />
<path fill="#4fc85a" d=" M 284.10 265.26 C 287.44 265.42 282.54 268.22 284.10 265.26 Z" />
<path fill="#030303" d=" M 623.93 530.98 C 629.12 527.93 635.39 528.75 641.07 529.50 C 647.09 530.48 653.12 531.73 658.84 533.89 C 662.97 535.44 666.23 538.50 669.15 541.72 C 673.67 545.88 678.54 550.19 680.70 556.13 C 682.38 560.20 681.68 564.71 681.78 569.01 C 681.38 574.61 681.69 580.64 678.73 585.66 C 675.83 590.82 672.27 596.10 666.76 598.73 C 661.60 601.34 655.84 603.03 650.02 602.82 C 644.91 602.93 639.72 602.90 634.84 601.18 C 625.99 599.61 617.46 595.34 611.59 588.43 C 609.98 586.71 608.75 584.64 606.93 583.15 C 604.94 584.16 602.84 584.92 600.58 584.52 C 600.14 581.49 600.30 578.43 600.49 575.40 C 596.66 575.30 592.83 575.20 589.01 575.44 C 584.32 575.45 580.52 578.82 575.98 579.46 C 574.31 579.56 573.32 577.98 572.07 577.20 C 568.10 578.90 564.44 582.57 559.84 580.54 C 558.38 581.62 556.95 582.85 555.19 583.41 C 551.93 583.57 549.83 580.74 548.04 578.47 C 544.82 579.05 541.33 579.07 538.87 576.58 C 535.60 577.93 532.04 579.48 528.45 578.39 C 526.25 577.72 525.73 575.23 524.82 573.42 C 522.49 575.90 519.20 576.05 516.07 575.32 C 514.02 576.65 511.59 578.45 509.06 577.24 C 502.26 573.73 497.03 567.91 492.38 561.98 C 495.53 558.20 499.94 555.48 501.76 550.67 C 508.03 549.11 514.55 549.97 520.95 549.77 C 531.39 549.21 541.54 552.49 551.96 552.60 C 567.52 552.81 583.10 552.37 598.67 552.68 C 598.44 550.33 598.39 547.96 598.62 545.62 C 602.55 544.33 605.47 547.52 608.11 549.90 C 611.33 542.23 616.24 534.75 623.93 530.98 Z" />
<path fill="#f5f4f0" d=" M 624.42 533.62 C 629.82 530.68 636.17 531.63 641.95 532.69 C 644.38 534.76 647.67 534.17 650.60 534.70 C 655.95 535.73 661.48 537.68 665.10 541.98 C 669.83 547.31 676.58 551.49 678.31 558.87 C 679.23 564.20 678.65 569.67 678.40 575.04 C 678.25 581.65 674.67 587.65 670.33 592.41 C 661.36 600.47 648.40 600.96 637.12 598.82 C 628.24 597.39 618.99 594.01 613.43 586.56 C 605.11 577.04 604.27 562.29 610.57 551.50 C 614.11 544.90 617.01 536.80 624.42 533.62 Z" />
<path fill="#040404" d=" M 617.52 546.56 C 621.97 542.02 627.27 537.34 633.92 536.85 C 641.02 536.19 648.20 537.12 655.13 538.72 C 659.69 540.50 662.43 544.75 664.43 548.99 C 665.29 550.62 664.76 552.40 664.13 554.00 C 660.54 550.44 659.84 544.32 654.87 542.14 C 648.31 539.68 641.12 539.69 634.21 539.84 C 629.16 540.02 625.35 543.65 621.74 546.74 C 620.07 548.16 618.82 549.97 617.66 551.82 C 616.18 557.08 615.31 562.50 615.52 567.98 C 615.03 573.16 617.04 578.46 620.53 582.25 C 628.78 587.53 637.95 592.21 647.97 592.49 C 652.83 592.76 659.20 592.92 662.08 588.18 C 663.48 586.11 664.71 581.68 667.67 584.76 C 665.98 587.88 664.50 591.46 661.29 593.34 C 656.07 596.54 649.68 595.44 643.89 595.25 C 635.71 594.64 628.57 590.40 621.48 586.68 C 616.63 584.28 614.24 579.02 612.70 574.13 C 612.13 564.84 611.71 554.44 617.52 546.56 Z" />
<path fill="#f5f4f0" d=" M 503.60 553.29 C 513.43 553.47 523.32 551.82 533.09 553.63 C 544.93 555.79 557.01 556.08 569.01 555.57 C 579.24 555.78 589.48 555.38 599.72 555.78 C 599.83 558.85 599.83 561.92 599.90 565.00 C 599.85 567.38 599.81 569.78 599.69 572.17 C 593.78 572.44 587.51 571.39 581.95 573.93 C 579.98 574.74 578.00 575.51 576.05 576.36 C 574.99 575.60 574.03 574.71 572.85 574.17 C 570.19 573.64 568.14 575.85 565.96 576.97 C 563.89 578.43 561.26 577.23 558.95 577.55 C 557.64 578.29 556.49 579.29 555.11 579.89 C 552.87 580.26 551.92 577.68 550.46 576.50 C 549.22 574.60 546.79 575.63 544.98 575.58 C 542.21 576.51 540.84 572.33 538.13 573.54 C 535.27 574.81 532.33 576.27 529.12 575.38 C 528.35 573.04 527.14 570.86 525.10 569.41 C 523.58 570.44 522.10 571.55 520.50 572.45 C 518.96 572.66 517.44 572.04 515.92 571.96 C 514.16 572.64 512.59 573.70 510.96 574.61 C 505.04 571.69 500.64 566.80 496.14 562.13 C 499.24 559.75 501.81 556.76 503.60 553.29 Z" />
<path fill="#282727" d=" M 605.23 555.25 C 606.50 555.93 606.48 556.62 605.18 557.31 C 603.90 556.62 603.91 555.93 605.23 555.25 Z" />
<path fill="#030303" d=" M 507.24 558.47 C 511.43 557.52 515.75 557.74 520.02 557.90 C 521.66 558.22 523.34 558.45 525.03 558.48 C 537.69 558.49 550.35 558.73 563.01 558.62 C 564.98 558.59 566.96 558.72 568.91 559.10 C 578.11 559.72 587.35 559.11 596.56 559.54 C 598.74 560.68 596.84 562.95 595.00 562.55 C 585.83 562.41 576.64 562.77 567.48 562.06 C 560.33 561.26 553.13 561.82 545.96 561.74 C 534.63 561.61 523.31 561.38 511.98 561.19 C 510.43 561.12 508.91 560.82 507.39 560.58 C 507.35 560.06 507.28 559.00 507.24 558.47 Z" />
<path fill="#030303" d=" M 660.14 561.11 C 664.33 559.27 669.71 560.72 672.41 564.43 C 673.68 567.32 672.29 570.45 671.13 573.14 C 668.35 574.29 665.40 575.92 662.30 575.11 C 660.15 574.66 658.36 573.35 656.63 572.09 C 656.40 571.31 655.95 569.76 655.72 568.98 C 656.32 566.00 657.14 562.56 660.14 561.11 Z" />
<path fill="#383838" d=" M 605.28 578.16 C 607.00 578.19 606.31 580.92 604.95 581.05 C 603.21 581.00 603.91 578.28 605.28 578.16 Z" />
<path fill="#030303" d=" M 468.15 622.15 C 476.29 613.53 488.06 608.40 499.94 608.57 C 514.32 608.56 528.41 616.38 536.02 628.59 C 537.39 627.91 538.77 627.25 540.15 626.57 C 540.67 626.84 541.70 627.38 542.21 627.65 C 542.92 628.94 543.64 630.24 544.39 631.52 C 544.14 634.11 543.75 636.70 543.64 639.31 C 557.41 638.93 571.18 639.51 584.95 639.86 C 597.96 639.85 610.98 639.88 623.99 639.83 C 625.64 639.87 627.56 639.63 628.89 640.88 C 634.03 645.20 638.97 649.74 644.13 654.03 C 643.91 654.52 643.47 655.49 643.24 655.98 C 641.14 657.98 638.94 659.87 636.84 661.87 C 634.29 664.54 632.40 668.09 628.89 669.64 C 627.38 669.78 625.98 669.25 624.88 668.25 C 623.61 669.97 621.84 669.69 620.23 668.67 C 619.33 670.56 617.51 670.68 615.67 670.55 C 614.23 669.48 613.05 667.13 610.95 667.77 C 609.61 668.56 608.39 669.52 607.16 670.45 C 605.24 669.96 603.07 668.48 601.36 670.19 C 600.18 671.24 598.60 670.70 597.20 670.69 C 596.26 669.48 595.27 668.30 594.28 667.16 C 593.20 668.95 592.10 670.73 590.99 672.51 C 589.65 672.47 588.31 672.43 586.98 672.38 C 586.27 670.95 585.56 669.53 584.88 668.11 C 583.62 669.40 582.52 670.92 580.95 671.87 C 579.20 671.83 577.93 670.59 576.79 669.45 C 574.92 670.33 572.00 671.79 571.00 669.03 C 569.32 670.78 567.39 672.27 565.28 673.47 C 564.68 673.19 563.47 672.63 562.86 672.35 C 561.37 670.52 559.98 668.61 558.82 666.56 C 553.87 665.88 548.86 666.30 543.89 666.42 C 543.40 669.44 542.69 672.42 542.11 675.42 C 540.00 676.10 537.79 676.49 535.67 675.67 C 527.73 686.74 514.87 694.64 501.03 694.67 C 491.56 695.17 482.04 692.17 474.39 686.62 C 463.35 678.84 456.55 665.52 456.50 652.04 C 456.32 641.06 460.73 630.19 468.15 622.15 Z" />
<path fill="#f5f4f0" d=" M 489.52 618.79 C 495.01 618.29 500.59 618.42 506.08 618.87 C 513.25 619.58 518.97 624.33 524.55 628.43 C 529.20 632.72 533.13 639.02 532.49 645.55 C 530.93 645.66 529.37 645.72 527.81 645.72 C 525.89 640.86 524.39 635.27 519.80 632.19 C 515.51 629.36 511.44 625.66 506.16 624.91 C 502.46 624.30 498.70 624.50 494.97 624.41 C 489.36 624.08 484.28 626.94 479.39 629.29 C 476.39 631.21 472.46 632.31 470.78 635.72 C 468.70 639.50 466.42 643.51 466.62 647.97 C 466.72 653.58 465.62 659.75 468.90 664.73 C 471.61 668.64 474.11 673.13 478.55 675.32 C 486.91 679.78 496.54 681.45 505.95 681.40 C 511.32 681.62 516.77 679.37 520.49 675.50 C 523.24 671.95 524.93 667.73 526.71 663.64 C 527.45 663.35 528.21 663.07 528.97 662.80 C 529.78 663.16 530.60 663.52 531.43 663.89 C 531.49 665.30 531.83 666.80 531.22 668.16 C 528.59 674.56 525.06 681.28 518.46 684.31 C 510.32 688.91 500.66 687.22 491.84 686.21 C 484.29 684.26 476.11 682.26 470.41 676.58 C 465.67 671.04 460.64 664.69 460.68 657.01 C 460.84 650.71 459.83 643.97 462.90 638.16 C 464.92 634.37 466.44 629.79 470.41 627.56 C 476.40 623.90 482.75 620.71 489.52 618.79 Z" />
<path fill="#f5f4f0" d=" M 473.92 640.85 C 477.96 637.85 483.43 636.17 488.13 638.78 C 488.89 640.85 489.58 642.95 490.36 645.02 C 490.13 649.86 488.22 655.53 483.19 657.24 C 479.58 658.27 474.57 657.71 472.89 653.83 C 470.58 649.90 470.04 643.99 473.92 640.85 Z" />
<path fill="#f5f4f0" d=" M 540.64 648.63 C 553.38 648.10 566.17 648.78 578.93 648.30 C 589.63 647.96 600.35 648.22 611.06 648.07 C 615.57 647.80 620.12 647.73 624.58 648.55 C 624.66 650.18 624.65 651.81 624.54 653.44 C 610.04 654.50 595.45 653.16 580.95 654.20 C 571.64 654.57 562.32 654.38 553.02 654.42 C 548.79 654.36 544.44 654.82 540.40 653.31 C 540.42 651.74 540.50 650.18 540.64 648.63 Z" />
<path fill="#290f04" d=" M 609.03 664.19 C 610.53 662.81 612.51 662.85 614.41 662.90 C 613.94 665.88 610.96 664.33 609.03 664.19 Z" />
<path fill="#471a05" d=" M 538.03 671.13 C 541.36 671.38 536.37 674.03 538.03 671.13 Z" />
<path fill="#030303" d=" M 659.75 704.62 C 661.00 704.39 662.26 704.20 663.53 704.02 C 664.59 708.19 664.23 712.51 664.14 716.76 C 666.73 716.74 669.32 716.93 671.87 717.44 C 671.77 718.51 671.66 719.58 671.56 720.67 C 669.10 720.74 666.64 720.72 664.19 720.66 C 661.90 733.38 662.72 746.54 660.18 759.24 C 658.36 759.89 657.27 758.93 656.65 757.32 C 658.19 751.01 658.43 744.49 658.72 738.03 C 659.37 732.27 659.60 726.48 659.79 720.69 C 658.31 720.57 656.83 720.45 655.37 720.32 C 655.34 719.04 655.34 717.77 655.37 716.50 C 657.01 716.48 658.66 716.48 660.32 716.51 C 660.30 712.54 660.35 708.55 659.75 704.62 Z" />
<path fill="#030303" d=" M 454.09 716.05 C 456.83 713.19 461.41 711.72 465.02 713.87 C 469.73 720.58 469.22 729.19 469.45 737.00 C 469.24 743.94 470.44 750.80 470.40 757.73 C 470.04 758.16 469.34 759.01 468.98 759.43 C 468.14 759.06 467.28 758.67 466.45 758.32 C 466.54 752.01 466.30 745.70 465.62 739.43 C 462.44 739.51 459.25 739.53 456.12 740.15 C 454.18 740.27 452.24 740.35 450.31 740.43 C 450.26 746.13 450.33 751.83 450.77 757.52 C 449.44 757.63 448.10 757.58 446.78 757.47 C 446.11 752.04 446.52 746.57 446.37 741.13 C 443.40 740.72 443.66 736.76 446.35 736.14 C 446.50 734.40 446.64 732.67 446.80 730.95 C 448.43 725.68 450.07 720.04 454.09 716.05 Z" />
<path fill="#f5f4f0" d=" M 457.83 717.54 C 459.29 717.16 460.73 716.76 462.21 716.41 C 465.66 722.15 465.48 729.10 465.68 735.57 C 460.50 735.47 455.40 736.51 450.22 736.42 C 450.34 729.51 452.89 722.47 457.83 717.54 Z" />
<path fill="#050505" d=" M 695.71 724.44 C 696.95 724.37 698.20 724.33 699.46 724.33 C 699.46 725.42 699.47 726.52 699.47 727.63 C 698.21 727.64 696.96 727.60 695.71 727.52 C 695.70 726.49 695.70 725.46 695.71 724.44 Z" />
<path fill="#030303" d=" M 490.10 735.17 C 493.51 732.48 497.98 732.43 502.10 732.70 C 502.51 733.32 503.34 734.56 503.75 735.18 C 502.44 737.32 499.94 736.63 497.88 736.72 C 493.31 736.47 489.66 739.99 487.11 743.38 C 491.71 743.67 496.35 742.88 500.93 743.53 C 505.86 745.02 508.36 751.49 506.03 755.95 C 501.38 761.12 493.25 762.09 486.82 760.38 C 486.35 759.21 485.89 758.04 485.44 756.89 C 486.09 756.53 487.39 755.81 488.04 755.45 C 488.51 755.95 489.44 756.94 489.91 757.44 C 493.06 757.54 496.18 757.06 499.25 756.35 C 500.69 755.38 502.33 754.58 503.33 753.11 C 503.28 750.87 502.31 748.01 499.96 747.30 C 494.54 746.53 488.86 748.45 483.65 746.22 C 482.24 741.39 486.73 737.79 490.10 735.17 Z" />
<path fill="#030303" d=" M 523.96 744.80 C 528.07 742.39 529.40 737.48 531.91 733.77 C 533.95 733.20 535.21 735.42 534.45 737.18 C 530.18 745.86 524.21 753.68 521.07 762.92 C 518.97 769.12 516.38 775.12 514.02 781.22 C 513.48 781.59 512.40 782.32 511.87 782.69 C 510.26 781.58 509.93 779.69 511.01 778.13 C 516.22 768.77 517.76 757.66 523.89 748.80 C 521.03 748.99 517.85 748.34 516.23 745.74 C 513.75 742.71 514.04 738.42 515.74 735.10 C 517.09 735.24 518.42 735.57 519.40 736.61 C 518.07 739.19 518.42 741.96 519.75 744.45 C 521.14 744.61 522.54 744.97 523.96 744.80 Z" />
<path fill="#030303" d=" M 586.61 736.64 C 587.62 734.67 589.39 733.77 591.59 734.28 C 591.58 735.15 591.57 736.02 591.56 736.91 C 589.82 738.98 590.59 741.78 590.46 744.25 C 591.96 739.74 595.43 733.60 601.15 735.38 C 603.11 737.46 603.14 740.48 603.79 743.12 C 604.72 739.55 606.26 735.57 609.67 733.71 C 613.49 732.56 616.25 736.68 617.18 739.86 C 618.90 747.16 618.05 754.71 618.32 762.14 C 617.69 762.52 616.44 763.29 615.81 763.67 C 613.38 761.01 614.78 757.22 614.44 754.01 C 614.16 748.27 615.34 741.53 611.02 736.96 C 606.06 743.49 604.47 751.79 602.46 759.56 C 601.43 759.50 600.40 759.45 599.39 759.41 C 599.60 752.61 599.91 745.79 599.25 739.00 C 598.68 739.16 597.55 739.48 596.98 739.64 C 592.25 746.37 590.16 754.46 589.32 762.54 C 587.70 762.78 585.05 762.51 585.61 760.16 C 586.98 752.38 585.94 744.47 586.61 736.64 Z" />
<path fill="#030303" d=" M 673.94 734.91 C 675.19 734.48 676.34 735.20 677.50 735.60 C 677.47 737.94 677.44 740.29 677.45 742.65 C 680.72 742.47 684.18 740.29 687.36 741.74 C 687.31 742.33 687.23 743.50 687.19 744.08 C 684.21 745.74 680.78 746.19 677.48 746.76 C 677.36 748.85 677.27 750.94 677.17 753.04 C 676.77 754.88 676.46 756.75 676.17 758.62 C 674.92 758.59 673.68 758.56 672.46 758.51 C 673.04 754.02 673.75 749.53 673.48 744.99 C 673.61 741.64 672.88 738.14 673.94 734.91 Z" />
<path fill="#030303" d=" M 711.40 737.33 C 714.79 733.64 720.08 733.82 724.59 734.74 C 724.62 736.06 724.61 737.38 724.59 738.72 C 721.24 738.54 717.38 737.27 714.51 739.70 C 709.93 742.95 709.05 749.02 709.60 754.24 C 714.23 756.00 719.22 755.27 724.04 755.58 C 724.47 755.88 725.32 756.49 725.75 756.79 C 725.35 757.42 724.56 758.67 724.16 759.29 C 719.29 759.32 714.31 759.64 709.58 758.27 C 707.66 757.61 706.73 755.70 705.60 754.20 C 705.35 748.13 706.41 741.37 711.40 737.33 Z" />
<path fill="#030303" d=" M 542.38 736.09 C 542.70 735.62 543.35 734.68 543.67 734.21 C 544.34 734.61 545.67 735.42 546.33 735.82 C 546.12 739.32 546.16 742.83 546.43 746.35 C 547.75 741.42 551.16 736.78 555.92 734.74 C 561.29 733.09 561.91 740.41 561.70 744.09 C 562.19 741.23 563.58 738.53 565.89 736.73 C 567.74 736.02 569.76 736.40 571.69 736.43 C 572.64 737.71 573.74 738.95 574.21 740.51 C 575.45 746.96 575.45 753.57 575.20 760.12 C 575.59 761.91 571.44 762.08 571.60 760.53 C 571.10 753.78 571.91 746.91 570.23 740.26 C 569.15 740.31 568.08 740.38 567.01 740.47 C 564.05 746.42 561.85 752.75 561.45 759.43 C 560.47 759.49 559.50 759.56 558.54 759.64 C 558.01 758.13 557.76 756.56 558.08 754.99 C 558.65 749.34 558.10 743.67 557.22 738.09 C 553.13 740.47 550.62 744.62 548.81 748.86 C 547.35 753.02 545.85 757.19 545.19 761.57 C 543.70 761.62 541.23 761.22 541.72 759.14 C 542.67 751.48 541.68 743.74 542.38 736.09 Z" />
<path fill="#030303" d=" M 694.65 735.80 C 695.29 735.44 696.57 734.70 697.22 734.33 C 697.55 734.78 698.22 735.67 698.55 736.12 C 698.20 742.97 698.34 749.84 698.08 756.69 C 698.08 758.91 694.14 759.17 694.47 756.83 C 694.27 749.83 694.11 742.79 694.65 735.80 Z" />
<path fill="#030303" d=" M 637.51 737.49 C 640.68 734.76 645.50 734.90 648.53 737.78 C 648.56 739.95 648.51 742.13 648.43 744.31 C 645.45 749.60 638.81 749.03 633.65 748.46 C 633.20 748.08 632.30 747.34 631.85 746.97 C 630.95 749.66 630.39 752.51 631.53 755.24 C 632.94 756.30 634.37 757.35 635.84 758.37 C 638.92 758.46 642.42 759.52 645.11 757.46 C 645.93 757.47 646.75 757.49 647.59 757.53 C 647.54 758.70 647.48 759.89 647.41 761.08 C 642.86 762.95 637.56 763.08 633.07 760.97 C 629.34 759.20 626.55 755.19 627.21 750.95 C 627.15 744.67 633.17 740.98 637.51 737.49 Z" />
<path fill="#f5f4f0" d=" M 634.87 744.51 C 637.77 742.21 640.57 738.86 644.68 739.35 C 644.64 740.73 644.59 742.12 644.56 743.51 C 641.61 745.25 638.11 744.79 634.87 744.51 Z" />
</svg>
