<?xml version="1.0" encoding="UTF-8" ?>
<!DOCTYPE svg PUBLIC "-//W3C//DTD SVG 1.1//EN" "http://www.w3.org/Graphics/SVG/1.1/DTD/svg11.dtd">
<svg width="1155pt" height="866pt" viewBox="0 0 1155 866" version="1.1" xmlns="http://www.w3.org/2000/svg">
<path fill="#f5f4f0" d=" M 0.00 0.00 L 1155.00 0.00 L 1155.00 866.00 L 0.00 866.00 L 0.00 0.00 Z" />
<path fill="#de5211" d=" M 649.94 122.46 C 657.50 120.31 665.39 119.82 673.00 117.86 C 675.10 116.66 674.78 119.45 674.87 120.62 C 669.24 120.65 663.54 120.06 658.03 121.51 C 646.58 124.20 634.96 126.41 623.89 130.47 C 616.17 133.31 608.15 135.22 600.51 138.27 C 589.40 142.44 578.67 147.53 568.10 152.90 C 564.96 154.56 561.63 155.91 558.77 158.05 C 558.43 157.87 557.75 157.52 557.41 157.35 C 576.38 147.70 595.50 137.99 616.07 132.20 C 627.16 128.27 638.40 124.80 649.94 122.46 Z" />
<path fill="#010101" d=" M 891.78 140.71 C 893.75 136.38 901.05 134.99 903.12 140.00 C 904.27 143.86 903.65 148.02 903.64 152.00 C 903.28 154.96 904.00 157.99 903.20 160.90 C 901.91 159.99 901.04 158.69 901.30 157.07 C 901.20 151.73 902.40 146.22 900.94 140.99 C 900.22 138.48 896.84 138.90 894.96 139.71 C 890.80 142.50 890.66 148.32 892.63 152.48 C 893.57 154.20 895.39 155.48 895.59 157.55 C 888.68 155.67 888.39 145.87 891.78 140.71 Z" />
<path fill="#060606" d=" M 918.96 143.94 C 922.48 139.93 927.17 135.74 932.91 136.28 C 936.52 136.90 937.18 141.57 936.38 144.55 C 934.76 150.67 927.61 152.54 925.15 158.14 C 923.93 159.96 924.13 163.93 920.96 162.83 C 921.76 158.97 923.92 155.49 926.86 152.88 C 929.40 150.32 932.95 148.56 934.33 145.04 C 934.69 142.83 935.07 139.83 932.91 138.41 C 931.11 136.93 928.78 138.42 926.81 138.67 C 922.70 141.12 918.75 145.13 919.11 150.28 C 918.70 150.36 917.88 150.54 917.48 150.62 C 917.18 148.31 917.16 145.70 918.96 143.94 Z" />
<path fill="#0f0f0f" d=" M 947.91 144.84 C 950.55 143.21 954.70 141.29 957.38 143.57 C 959.12 146.70 959.18 150.96 956.79 153.79 C 953.00 158.60 946.70 160.18 942.00 163.83 C 940.43 165.03 939.40 167.43 937.05 166.86 C 937.34 163.82 940.15 161.91 942.75 160.82 C 947.33 158.75 952.51 156.90 955.44 152.53 C 957.28 150.24 956.43 147.16 956.19 144.52 C 949.66 142.43 943.34 149.22 944.25 155.56 C 943.76 155.61 942.78 155.71 942.29 155.76 C 940.51 151.22 944.82 147.51 947.91 144.84 Z" />
<path fill="#030303" d=" M 863.11 150.99 C 866.72 145.92 873.34 144.47 879.21 145.41 C 884.14 151.11 879.39 158.94 881.57 165.46 C 882.62 165.85 883.69 166.24 884.76 166.63 C 884.72 167.17 884.63 168.24 884.58 168.78 C 880.22 169.57 878.15 164.67 878.73 161.07 C 879.28 156.57 879.77 151.95 878.49 147.52 C 872.60 145.31 866.15 148.47 863.36 153.88 C 863.32 155.86 863.58 157.83 864.51 159.61 C 867.63 159.62 870.75 159.59 873.89 159.68 L 873.28 161.20 C 869.82 161.66 866.30 161.68 862.85 161.23 C 861.54 158.03 860.28 153.77 863.11 150.99 Z" />
<path fill="#3e5dfc" d=" M 470.56 147.48 C 471.52 146.03 473.46 146.29 474.97 146.18 C 488.64 146.36 502.31 146.21 515.98 146.30 C 525.20 146.32 534.50 147.62 543.13 150.93 C 548.04 152.72 552.68 155.15 557.41 157.35 C 557.75 157.52 558.43 157.87 558.77 158.05 C 571.91 165.44 584.96 173.12 596.91 182.34 C 597.18 182.53 597.71 182.92 597.97 183.11 C 607.22 190.35 616.74 197.25 625.59 204.99 L 625.92 205.44 C 625.66 205.66 625.16 206.11 624.91 206.34 C 616.20 197.77 606.07 190.85 596.36 183.49 C 596.18 183.36 595.84 183.11 595.66 182.98 C 586.41 175.39 575.96 169.45 565.75 163.27 C 554.39 157.13 542.86 150.52 529.90 148.55 C 523.68 147.37 517.32 147.44 511.01 147.35 C 501.03 147.37 491.04 147.31 481.07 147.60 C 478.34 147.65 475.65 148.06 473.06 148.88 C 472.09 149.60 469.43 149.00 470.56 147.48 Z" />
<path fill="#de5211" d=" M 684.62 161.58 C 699.70 160.79 714.83 161.24 729.91 161.32 L 730.68 162.04 C 730.43 162.42 729.94 163.17 729.69 163.55 C 718.28 161.06 706.56 161.73 694.97 161.85 C 676.82 162.95 658.62 165.07 641.04 169.87 C 626.50 173.62 611.93 177.52 597.97 183.11 C 597.71 182.92 597.18 182.53 596.91 182.34 C 612.01 176.98 627.33 172.28 642.92 168.53 C 656.53 164.73 670.62 163.17 684.62 161.58 Z" />
<path fill="#313130" d=" M 902.73 165.70 C 904.22 165.45 905.97 164.94 906.42 166.98 C 906.10 169.18 904.24 168.68 902.66 168.42 C 902.68 167.52 902.70 166.61 902.73 165.70 Z" />
<path fill="#313130" d=" M 917.51 166.50 C 918.61 166.38 919.73 166.26 920.85 166.16 C 920.78 167.34 920.71 168.51 920.64 169.69 C 919.64 169.57 918.65 169.44 917.67 169.31 C 917.61 168.37 917.55 167.44 917.51 166.50 Z" />
<path fill="#121212" d=" M 165.45 167.53 C 174.28 166.58 183.21 167.98 192.04 166.88 C 209.00 168.25 226.02 168.91 243.03 169.72 C 249.50 169.47 255.94 170.03 262.36 170.56 C 263.11 172.80 263.42 175.14 263.42 177.50 C 262.55 177.46 261.69 177.42 260.83 177.38 C 260.73 175.76 260.64 174.15 260.53 172.54 C 249.65 172.88 238.85 171.28 227.97 171.26 C 222.59 171.05 217.32 169.69 211.93 169.55 C 196.45 169.02 180.82 167.05 165.42 169.70 C 165.43 169.15 165.45 168.07 165.45 167.53 Z" />
<path fill="#020202" d=" M 287.30 180.78 C 284.69 175.38 290.15 166.17 296.59 169.51 C 301.43 172.37 300.14 180.15 295.93 183.09 C 296.26 184.33 296.61 185.58 296.95 186.83 C 298.44 185.72 299.91 184.59 301.36 183.44 C 301.79 183.88 302.65 184.77 303.09 185.21 C 309.45 185.61 315.09 189.46 320.31 192.81 C 322.32 199.10 321.07 205.92 321.44 212.43 L 319.64 212.32 C 318.27 206.30 320.45 199.87 318.39 193.93 C 313.91 191.76 309.93 188.62 305.11 187.17 C 306.18 191.10 307.09 195.09 307.90 199.09 C 309.67 207.83 310.96 216.80 310.46 225.73 C 310.02 226.01 309.13 226.56 308.69 226.84 C 307.56 219.31 309.27 211.61 307.72 204.10 C 307.32 197.55 303.69 191.78 303.18 185.28 C 298.97 186.96 295.04 190.74 290.28 190.28 C 290.65 188.04 293.37 188.42 294.94 187.64 C 294.35 186.40 293.74 185.16 293.13 183.94 C 290.93 183.64 288.22 183.10 287.30 180.78 Z" />
<path fill="#313130" d=" M 887.23 170.36 C 888.36 170.33 889.50 170.31 890.65 170.31 C 890.69 171.95 891.27 174.08 888.98 174.38 C 886.73 174.11 887.23 171.97 887.23 170.36 Z" />
<path fill="#0e0e0e" d=" M 164.78 177.06 C 164.83 174.98 163.92 171.71 166.70 171.08 C 166.74 178.05 165.80 185.03 166.48 191.99 C 168.03 200.51 169.32 209.13 169.34 217.80 C 171.71 220.12 175.76 220.03 178.94 220.38 C 193.65 220.48 208.38 221.01 223.09 220.32 L 223.81 219.75 C 228.53 219.29 233.23 218.53 237.99 218.37 C 239.33 218.43 242.38 217.82 241.43 220.44 C 238.89 220.39 236.36 220.29 233.83 220.23 L 233.10 219.64 C 227.66 219.70 222.45 221.70 217.00 221.57 C 203.35 221.66 189.69 221.44 176.04 221.46 C 172.73 221.31 168.44 221.54 166.57 218.17 C 166.70 213.79 166.73 209.39 166.10 205.04 C 164.71 195.77 165.87 186.35 164.78 177.06 Z" />
<path fill="#f5f4f0" d=" M 292.35 171.39 C 293.63 170.98 294.97 171.46 296.27 171.54 C 298.25 174.99 297.28 179.30 294.30 181.83 C 292.70 181.44 290.81 181.51 289.59 180.21 C 288.40 177.12 289.38 173.13 292.35 171.39 Z" />
<path fill="#313130" d=" M 932.76 173.07 C 933.01 172.37 933.51 170.97 933.76 170.27 C 935.70 170.36 936.77 171.80 936.68 173.63 C 935.28 174.21 933.48 174.92 932.76 173.07 Z" />
<path fill="#313130" d=" M 174.37 176.37 C 174.86 176.46 175.83 176.63 176.32 176.71 C 176.48 179.95 176.43 183.18 176.27 186.42 C 178.54 185.78 180.90 185.84 183.24 185.89 C 183.25 183.41 183.14 180.92 183.49 178.46 C 183.96 178.47 184.88 178.50 185.35 178.52 C 185.12 180.79 184.86 183.06 184.61 185.34 C 185.70 186.13 188.66 186.69 186.74 188.39 C 186.21 188.48 185.14 188.66 184.61 188.74 C 183.84 192.61 185.87 197.05 184.03 200.53 C 183.62 200.27 182.80 199.77 182.39 199.52 C 183.56 195.85 183.47 192.00 183.29 188.19 C 180.95 188.17 178.61 188.14 176.28 188.07 C 176.19 191.70 176.58 195.32 176.70 198.94 C 176.96 200.32 173.92 200.15 174.38 198.92 C 175.20 191.42 174.71 183.88 174.37 176.37 Z" />
<path fill="#0f0f0f" d=" M 192.80 179.23 C 196.58 179.32 200.35 179.09 204.12 178.83 C 204.30 179.27 204.66 180.15 204.83 180.59 C 201.39 180.58 197.92 180.69 194.55 181.47 C 194.97 185.02 193.27 188.66 194.42 192.05 C 193.90 192.16 192.86 192.38 192.34 192.49 C 193.86 188.16 192.67 183.66 192.80 179.23 Z" />
<path fill="#030303" d=" M 912.31 178.71 C 917.51 177.65 922.57 180.29 926.33 183.67 C 929.31 187.08 928.56 192.33 926.61 196.08 C 927.56 197.80 928.60 199.49 929.75 201.10 C 933.02 200.81 935.90 202.41 938.94 203.15 C 944.86 201.79 951.00 200.96 957.07 201.69 C 960.24 202.40 962.01 205.87 961.60 208.94 C 961.70 215.02 954.84 217.00 950.69 219.85 C 950.49 223.30 950.82 226.99 949.21 230.17 C 946.87 233.93 943.14 236.49 939.44 238.76 C 936.58 240.96 936.42 244.72 936.66 248.02 C 937.04 251.94 932.65 253.76 930.54 256.43 C 929.89 256.46 928.57 256.51 927.91 256.53 C 928.82 255.11 930.04 253.93 931.35 252.86 C 931.42 252.35 931.55 251.34 931.62 250.83 C 932.55 250.33 933.49 249.83 934.44 249.33 C 934.46 246.85 934.55 244.37 934.72 241.90 C 934.97 241.53 935.47 240.78 935.72 240.41 C 930.69 240.44 925.66 240.37 920.68 239.56 C 920.29 242.10 919.72 244.80 920.61 247.29 C 921.57 248.45 922.89 249.25 924.11 250.14 C 923.97 250.58 923.69 251.48 923.55 251.92 C 920.11 252.92 916.99 254.82 913.52 255.61 C 913.46 252.29 917.65 251.99 919.93 250.77 C 919.09 248.90 917.75 247.11 917.73 244.99 C 917.93 242.75 918.43 240.56 918.78 238.34 C 915.94 236.59 913.14 234.61 911.12 231.92 C 909.25 229.12 909.14 225.67 908.69 222.45 C 903.94 221.04 900.57 217.20 897.62 213.45 C 895.55 210.02 896.29 204.20 900.34 202.54 C 905.19 201.64 910.24 202.25 915.03 203.36 C 919.08 204.71 921.91 200.19 925.91 200.04 C 925.73 199.58 925.36 198.66 925.18 198.20 C 919.90 198.80 914.82 196.48 910.70 193.35 C 906.23 190.43 906.67 183.15 909.86 179.51 L 911.71 179.35 C 910.09 182.74 909.59 186.75 910.58 190.37 C 914.19 193.40 918.89 196.75 923.85 195.55 C 926.10 193.13 926.07 189.46 925.39 186.44 C 922.52 182.38 917.16 180.28 912.27 181.34 C 912.28 180.68 912.30 179.36 912.31 178.71 Z" />
<path fill="#1b1b1a" d=" M 210.82 180.67 C 211.67 180.60 212.53 180.53 213.38 180.47 C 212.73 186.41 211.24 192.34 211.75 198.35 C 214.28 198.98 216.76 198.32 219.23 197.76 C 220.37 199.84 217.80 200.97 216.07 200.80 C 214.11 200.69 211.17 201.14 210.16 199.00 C 210.48 192.90 210.91 186.79 210.82 180.67 Z" />
<path fill="#040404" d=" M 224.30 180.08 C 224.65 180.20 225.35 180.43 225.70 180.55 C 226.48 186.54 224.67 192.40 224.66 198.34 C 226.80 199.26 229.16 199.24 231.41 199.73 C 231.24 200.33 231.07 200.93 230.87 201.53 C 228.38 201.41 225.90 201.14 223.54 200.31 C 223.25 198.08 223.41 195.82 223.91 193.64 C 224.96 189.18 224.23 184.59 224.30 180.08 Z" />
<path fill="#0a0a0a" d=" M 244.32 181.30 C 247.99 181.53 252.63 180.41 255.27 183.72 C 259.53 189.81 256.55 198.69 250.69 202.61 C 248.23 204.51 244.98 202.69 242.67 201.35 C 239.48 199.44 239.58 195.19 239.87 191.95 C 240.41 188.18 241.23 183.83 244.32 181.30 Z" />
<path fill="#f5f4f0" d=" M 241.94 195.95 C 241.23 190.92 242.77 185.65 246.09 181.79 C 246.72 185.22 251.04 183.00 253.31 184.61 C 255.64 189.61 255.51 196.94 250.56 200.34 C 247.16 202.01 242.66 199.64 241.94 195.95 Z" />
<path fill="#0c0c0c" d=" M 269.43 183.46 C 269.99 183.51 271.11 183.60 271.67 183.65 C 270.93 186.34 268.04 187.06 265.91 188.30 C 269.21 191.78 274.07 193.27 277.09 197.03 C 278.42 198.33 279.86 200.42 282.02 199.50 C 284.74 197.77 286.71 195.16 288.81 192.76 C 289.91 192.53 291.02 192.30 292.13 192.05 C 294.61 195.59 296.07 199.77 296.31 204.09 C 296.61 210.81 296.63 217.54 296.26 224.26 C 297.84 224.16 300.50 224.51 299.53 226.72 C 297.91 226.52 296.28 226.35 294.66 226.21 C 291.36 231.47 287.38 236.28 284.61 241.88 C 284.87 247.73 289.49 252.21 290.59 257.84 C 290.97 260.34 287.80 260.82 286.00 261.09 C 283.72 261.43 278.91 260.66 280.52 257.31 C 282.78 258.28 285.71 259.48 288.01 258.02 C 287.56 251.97 281.99 247.28 282.34 241.10 C 285.79 234.15 291.33 228.56 294.80 221.62 C 292.89 212.51 297.21 201.96 291.00 193.92 C 287.53 196.53 285.41 200.94 281.10 202.32 C 276.75 201.98 275.02 197.39 272.05 194.90 C 269.71 192.63 266.29 191.88 264.10 189.43 C 262.16 191.03 259.83 191.95 257.42 192.51 C 256.82 190.49 258.92 189.99 260.14 189.24 C 263.40 187.57 266.19 185.15 269.43 183.46 Z" />
<path fill="#de5211" d=" M 556.30 200.15 C 569.41 194.40 582.16 187.78 595.66 182.98 C 595.84 183.11 596.18 183.36 596.36 183.49 C 588.88 186.46 581.31 189.25 574.13 192.89 C 568.78 195.58 563.03 197.45 557.97 200.70 C 557.41 200.51 556.85 200.32 556.30 200.15 Z" />
<path fill="#052fff" d=" M 458.96 185.99 C 472.93 183.98 487.13 183.79 501.21 184.71 L 502.01 185.30 C 505.61 185.55 509.04 186.87 512.68 186.87 C 512.44 186.26 511.96 185.03 511.72 184.41 L 513.99 185.75 C 513.41 186.24 512.84 186.74 512.28 187.26 C 527.09 191.09 541.66 195.75 556.30 200.15 C 556.85 200.32 557.41 200.51 557.97 200.70 C 563.65 203.02 569.40 205.24 574.76 208.27 C 579.05 211.11 584.33 209.22 589.08 209.18 C 594.70 209.14 600.14 207.52 605.74 207.39 C 613.07 207.76 620.40 207.44 627.70 206.82 C 645.73 208.86 663.93 208.17 682.04 208.74 C 686.98 209.60 692.01 209.28 696.97 209.89 C 708.08 211.27 719.22 212.57 730.19 214.82 C 735.55 215.82 740.82 217.24 746.24 217.91 C 747.14 214.69 748.15 211.49 749.47 208.41 C 749.98 208.41 751.02 208.40 751.54 208.40 C 755.73 213.23 760.59 217.42 765.55 221.43 C 766.24 221.48 767.61 221.57 768.29 221.62 C 768.54 222.62 768.80 223.62 769.06 224.63 C 761.57 225.27 754.37 227.56 747.13 229.47 C 745.56 229.86 743.96 229.46 742.40 229.32 C 742.81 226.65 743.87 224.16 744.84 221.67 C 734.16 218.37 723.11 216.28 711.97 215.42 C 707.63 215.16 703.29 214.72 699.00 213.98 C 693.05 212.71 686.90 213.72 680.92 212.70 C 674.68 211.60 668.33 211.65 662.02 211.74 C 652.36 212.99 642.59 212.26 632.88 212.50 C 633.84 215.19 636.13 217.07 637.53 219.52 C 640.39 224.37 642.61 229.56 645.24 234.53 C 647.55 238.45 650.85 241.65 653.45 245.38 L 653.99 246.13 C 654.78 247.47 654.80 249.03 654.63 250.54 C 654.14 250.52 653.18 250.47 652.70 250.45 C 651.92 248.81 651.19 247.15 650.31 245.58 C 650.20 245.42 650.00 245.10 649.89 244.94 C 645.25 238.85 643.22 231.37 639.53 224.74 C 637.51 220.17 634.44 216.22 631.21 212.45 C 615.78 212.43 600.25 211.73 584.97 214.44 C 598.02 223.66 609.68 234.79 620.18 246.82 C 620.40 247.07 620.86 247.59 621.08 247.85 C 624.30 252.02 629.00 254.76 631.96 259.14 C 631.17 259.51 629.58 260.23 628.79 260.60 C 627.35 255.70 623.83 251.84 620.33 248.28 C 619.96 247.89 619.61 247.50 619.28 247.10 C 608.96 234.78 596.91 223.88 583.89 214.49 C 582.48 214.33 581.06 214.25 579.66 214.34 C 569.47 215.67 559.20 216.01 548.99 217.10 C 542.27 217.65 535.68 219.21 528.93 219.37 C 524.63 219.39 520.43 220.42 516.37 221.74 C 512.30 223.01 508.04 223.47 503.79 223.41 C 499.39 223.47 495.00 224.03 490.71 224.96 C 484.41 226.38 478.04 227.43 471.75 228.89 C 471.00 229.02 470.27 229.15 469.53 229.30 C 465.46 229.88 461.86 232.04 457.83 232.80 C 453.71 235.36 448.59 235.78 444.67 238.77 C 444.57 238.24 444.37 237.20 444.27 236.67 C 448.79 236.12 453.03 234.14 457.16 232.33 C 450.53 232.32 443.96 233.51 437.60 235.33 C 429.27 236.21 420.99 237.97 413.11 240.85 C 408.82 242.46 404.23 243.00 399.93 244.57 C 394.97 246.12 389.68 246.70 385.13 249.39 C 376.45 252.61 366.97 253.96 359.00 258.93 C 355.86 260.92 352.43 262.38 348.88 263.48 C 341.59 265.78 335.34 270.35 328.35 273.33 C 322.19 275.90 317.00 280.28 310.80 282.78 C 308.07 283.90 305.46 285.29 303.09 287.06 C 298.16 290.72 291.91 292.21 287.30 296.35 C 285.37 297.98 283.14 299.30 280.62 299.69 C 279.71 296.62 283.20 294.83 285.11 293.04 C 294.63 288.45 303.38 282.45 312.91 277.91 C 315.70 276.40 318.19 274.41 320.99 272.92 C 326.35 270.18 332.03 268.11 337.31 265.21 C 344.65 260.90 352.79 258.23 360.37 254.41 C 373.15 249.15 386.20 244.53 399.49 240.76 C 408.72 238.53 417.75 235.53 426.96 233.26 C 439.34 231.21 451.72 229.11 463.93 226.18 C 467.32 225.11 470.77 224.25 474.29 223.71 L 474.83 223.68 L 475.39 223.68 C 478.42 223.99 481.31 222.97 484.17 222.13 C 497.04 218.38 510.59 218.36 523.72 215.95 C 525.08 215.80 526.45 215.63 527.82 215.46 C 539.73 212.76 552.11 214.12 564.06 211.63 C 567.74 210.81 571.51 210.62 575.28 210.49 C 574.44 208.32 572.13 207.62 570.23 206.69 C 565.80 204.77 561.41 202.74 556.83 201.22 C 555.92 200.91 555.02 200.61 554.12 200.31 C 540.07 195.95 526.03 191.54 511.76 187.94 C 511.25 187.82 510.22 187.59 509.71 187.47 C 498.72 184.84 487.30 184.17 476.06 185.24 C 463.57 185.81 450.65 187.22 439.52 193.36 C 437.73 194.45 438.46 191.80 438.45 190.83 C 445.39 189.73 452.03 187.21 458.96 185.99 Z" />
<path fill="#f5f4f0" d=" M 574.13 192.89 C 581.31 189.25 588.88 186.46 596.36 183.49 C 606.07 190.85 616.20 197.77 624.91 206.34 C 618.50 206.36 612.13 207.06 605.74 207.39 C 600.14 207.52 594.70 209.14 589.08 209.18 C 584.33 209.22 579.05 211.11 574.76 208.27 C 569.40 205.24 563.65 203.02 557.97 200.70 C 563.03 197.45 568.78 195.58 574.13 192.89 Z" />
<path fill="#e79b77" d=" M 509.71 187.47 C 510.22 187.59 511.25 187.82 511.76 187.94 C 504.21 195.35 496.84 202.95 489.20 210.26 C 485.46 213.94 481.57 217.52 478.46 221.76 C 477.69 221.73 476.92 221.70 476.16 221.69 C 479.95 216.68 484.67 212.51 489.08 208.07 C 496.01 201.26 502.90 194.41 509.71 187.47 Z" />
<path fill="#181817" d=" M 194.32 188.81 C 197.04 188.82 199.76 188.81 202.48 188.76 C 202.47 189.58 202.46 190.40 202.45 191.23 C 199.91 191.19 197.36 191.28 194.82 191.03 C 194.70 190.47 194.45 189.36 194.32 188.81 Z" />
<path fill="#f5f4f0" d=" M 489.20 210.26 C 496.84 202.95 504.21 195.35 511.76 187.94 C 526.03 191.54 540.07 195.95 554.12 200.31 C 544.10 205.73 533.48 210.02 523.72 215.95 C 510.59 218.36 497.04 218.38 484.17 222.13 C 482.26 222.04 480.36 221.87 478.46 221.76 C 481.57 217.52 485.46 213.94 489.20 210.26 Z" />
<path fill="#0b0b0b" d=" M 192.09 193.07 C 192.98 194.48 193.45 196.07 193.25 197.76 C 197.39 198.67 201.66 198.66 205.88 198.58 C 205.75 199.06 205.49 200.03 205.36 200.51 C 200.74 198.97 195.87 201.13 191.28 199.45 C 191.26 197.30 191.66 195.17 192.09 193.07 Z" />
<path fill="#0f0f0e" d=" M 813.20 194.53 C 836.77 196.12 860.44 196.55 884.05 195.26 C 885.45 195.27 886.95 195.06 888.33 195.55 C 889.93 196.89 889.52 199.15 889.70 200.99 C 890.05 209.67 888.04 218.25 888.73 226.93 C 888.70 235.01 890.03 243.00 890.75 251.02 C 891.26 253.23 888.68 253.81 887.06 253.70 C 871.37 253.47 855.67 253.39 839.98 253.60 L 840.52 252.60 C 853.68 252.42 866.85 252.64 880.01 252.42 C 882.85 252.39 885.67 251.96 888.46 251.41 C 887.47 240.98 886.90 230.47 887.68 220.01 C 888.47 212.60 889.00 205.02 887.53 197.66 C 878.03 197.23 868.53 196.28 859.01 196.80 C 848.23 196.67 837.44 196.72 826.66 196.47 C 825.53 200.20 821.17 199.98 818.03 200.15 C 808.61 199.56 799.12 199.25 789.74 200.51 C 789.68 209.64 788.91 218.83 790.24 227.91 C 790.93 235.85 792.10 243.76 793.77 251.56 C 795.73 251.68 797.71 251.76 799.69 251.83 C 802.04 252.19 804.35 252.85 806.58 253.68 C 801.99 253.96 797.40 254.39 792.79 254.21 C 792.16 252.91 791.54 251.57 791.54 250.10 C 790.77 238.04 788.51 226.10 788.48 214.00 C 787.90 208.91 787.02 203.79 787.49 198.65 C 789.29 198.16 791.11 197.62 793.02 197.81 C 802.05 198.59 811.16 198.44 820.17 197.40 C 817.91 196.88 815.60 196.77 813.36 196.25 L 813.20 194.53 Z" />
<path fill="#f5f4f0" d=" M 818.03 200.15 C 821.17 199.98 825.53 200.20 826.66 196.47 C 837.44 196.72 848.23 196.67 859.01 196.80 C 868.53 196.28 878.03 197.23 887.53 197.66 C 889.00 205.02 888.47 212.60 887.68 220.01 C 886.90 230.47 887.47 240.98 888.46 251.41 C 885.67 251.96 882.85 252.39 880.01 252.42 C 866.85 252.64 853.68 252.42 840.52 252.60 C 831.02 252.33 821.49 253.02 812.02 252.14 C 807.91 251.78 803.79 251.90 799.69 251.83 C 797.71 251.76 795.73 251.68 793.77 251.56 C 792.10 243.76 790.93 235.85 790.24 227.91 C 788.91 218.83 789.68 209.64 789.74 200.51 C 799.12 199.25 808.61 199.56 818.03 200.15 Z" />
<path fill="#060606" d=" M 260.48 199.45 C 261.05 199.43 262.18 199.40 262.75 199.38 C 261.54 205.63 261.44 212.00 260.33 218.25 C 254.57 220.17 248.11 219.96 242.13 219.17 C 242.78 216.77 245.26 217.76 247.01 217.61 C 250.85 217.94 254.65 217.31 258.39 216.48 C 259.77 210.89 260.36 205.19 260.48 199.45 Z" />
<path fill="#de5211" d=" M 651.03 203.27 C 660.89 201.14 670.96 200.27 681.01 199.70 C 687.07 199.64 693.62 198.77 699.05 202.11 C 700.62 202.70 699.60 204.68 699.24 205.74 C 691.30 199.57 680.64 200.25 671.21 201.27 C 661.03 201.69 651.20 204.66 641.07 205.52 C 636.62 206.02 632.19 206.69 627.70 206.82 C 620.40 207.44 613.07 207.76 605.74 207.39 C 612.13 207.06 618.50 206.36 624.91 206.34 C 625.16 206.11 625.66 205.66 625.92 205.44 L 626.78 205.25 C 634.89 206.29 642.99 204.23 651.03 203.27 Z" />
<path fill="#e29d81" d=" M 523.72 215.95 C 533.48 210.02 544.10 205.73 554.12 200.31 C 555.02 200.61 555.92 200.91 556.83 201.22 C 547.06 205.76 537.33 210.39 527.82 215.46 C 526.45 215.63 525.08 215.80 523.72 215.95 Z" />
<path fill="#f5f4f0" d=" M 527.82 215.46 C 537.33 210.39 547.06 205.76 556.83 201.22 C 561.41 202.74 565.80 204.77 570.23 206.69 C 572.13 207.62 574.44 208.32 575.28 210.49 C 571.51 210.62 567.74 210.81 564.06 211.63 C 552.11 214.12 539.73 212.76 527.82 215.46 Z" />
<path fill="#f5f4f0" d=" M 911.32 220.10 C 912.77 212.21 917.82 203.82 926.25 202.17 C 926.44 202.55 926.82 203.31 927.00 203.70 C 938.24 201.86 949.82 212.60 948.31 224.01 C 948.36 230.93 941.74 235.33 935.96 237.50 C 930.63 238.18 924.93 238.22 919.82 236.35 C 915.25 234.06 910.88 229.52 911.28 224.05 C 912.17 222.82 913.94 220.66 911.32 220.10 Z" />
<path fill="#f5f4f0" d=" M 941.88 204.71 C 947.21 203.49 953.07 202.80 958.31 204.74 C 958.81 206.53 959.20 208.35 959.50 210.20 C 957.43 213.53 953.87 215.44 950.42 217.03 C 948.76 212.20 945.11 208.51 941.88 204.71 Z" />
<path fill="#f5f4f0" d=" M 899.77 204.94 C 904.79 202.17 910.58 204.48 915.74 205.66 C 912.46 209.82 909.67 214.52 909.14 219.90 C 904.51 219.28 901.30 215.41 899.22 211.55 C 898.06 209.43 899.12 207.03 899.77 204.94 Z" />
<path fill="#0a30b5" d=" M 598.40 209.26 C 599.44 208.43 600.50 208.38 601.59 209.11 C 601.74 210.56 598.21 210.76 598.40 209.26 Z" />
<path fill="#f5f4f0" d=" M 584.97 214.44 C 600.25 211.73 615.78 212.43 631.21 212.45 C 634.44 216.22 637.51 220.17 639.53 224.74 C 643.22 231.37 645.25 238.85 649.89 244.94 C 639.98 245.47 630.10 246.42 620.18 246.82 C 609.68 234.79 598.02 223.66 584.97 214.44 Z" />
<path fill="#2e2e2d" d=" M 839.38 217.92 C 839.75 215.84 838.71 211.04 842.40 212.52 C 842.04 213.84 841.72 215.18 841.39 216.51 C 842.39 216.20 843.41 215.90 844.44 215.60 C 845.84 218.07 842.20 218.24 841.17 219.74 C 840.18 221.04 839.27 222.39 838.38 223.75 C 840.39 226.21 840.51 229.43 840.37 232.46 C 840.28 234.05 840.19 235.63 840.14 237.22 C 839.70 237.29 838.83 237.44 838.40 237.51 C 838.48 236.76 838.64 235.26 838.72 234.51 C 837.84 234.60 836.07 234.79 835.19 234.89 C 834.57 232.59 837.06 232.16 838.42 231.05 C 838.48 228.55 836.42 226.54 836.38 224.06 C 836.55 221.69 838.07 219.79 839.38 217.92 Z" />
<path fill="#202020" d=" M 849.40 213.24 C 849.87 213.25 850.79 213.26 851.25 213.27 C 851.19 214.11 851.06 215.78 850.99 216.62 C 851.84 216.56 853.54 216.43 854.39 216.37 C 854.36 216.80 854.29 217.65 854.25 218.07 C 852.96 218.63 851.67 219.19 850.40 219.76 C 850.37 222.19 849.78 224.83 851.26 227.00 C 852.90 230.07 850.22 233.07 849.11 235.82 C 847.44 235.71 846.13 235.04 845.19 233.81 C 846.25 233.34 847.33 232.88 848.42 232.44 C 848.51 230.77 848.61 229.10 848.72 227.43 C 847.58 226.65 846.45 225.86 845.33 225.08 C 845.29 222.53 847.22 220.76 848.72 218.96 C 848.94 217.05 849.17 215.14 849.40 213.24 Z" />
<path fill="#f5f4f0" d=" M 548.99 217.10 C 559.20 216.01 569.47 215.67 579.66 214.34 C 564.57 219.92 550.12 227.08 536.01 234.77 C 528.07 231.52 519.93 228.77 511.62 226.61 C 513.29 225.07 514.89 223.46 516.37 221.74 C 520.43 220.42 524.63 219.39 528.93 219.37 C 535.68 219.21 542.27 217.65 548.99 217.10 Z" />
<path fill="#de5211" d=" M 579.66 214.34 C 581.06 214.25 582.48 214.33 583.89 214.49 C 576.85 215.72 570.36 218.93 563.83 221.69 C 554.84 226.01 545.74 230.17 537.13 235.22 C 536.85 235.10 536.29 234.88 536.01 234.77 C 550.12 227.08 564.57 219.92 579.66 214.34 Z" />
<path fill="#0a0a0a" d=" M 807.79 214.08 C 811.18 214.11 808.46 218.34 808.69 220.31 C 809.30 220.42 810.51 220.64 811.11 220.75 C 811.18 221.15 811.33 221.97 811.40 222.38 C 810.70 222.49 809.30 222.71 808.60 222.82 C 808.55 224.36 808.52 225.89 808.50 227.43 C 809.48 227.12 810.47 226.81 811.48 226.51 C 811.52 227.00 811.61 227.99 811.66 228.48 C 810.88 228.60 809.33 228.86 808.56 228.98 C 808.39 230.99 808.44 233.03 808.09 235.03 C 807.18 235.53 806.21 235.83 805.17 235.92 C 805.24 233.42 807.92 232.07 807.55 229.41 C 805.83 229.42 804.12 229.43 802.42 229.46 C 802.45 231.60 802.51 233.73 802.57 235.87 C 801.98 235.82 800.79 235.72 800.20 235.67 C 801.14 233.75 801.55 231.66 801.56 229.52 C 800.82 229.46 799.32 229.34 798.58 229.28 C 798.50 228.81 798.33 227.86 798.25 227.38 C 799.04 227.39 800.62 227.39 801.41 227.39 C 801.39 225.86 801.37 224.34 801.37 222.82 C 800.65 222.75 799.22 222.60 798.51 222.52 C 798.58 222.09 798.73 221.22 798.80 220.78 C 799.44 220.70 800.71 220.54 801.34 220.46 C 801.73 218.57 799.90 213.64 803.44 214.47 C 803.32 216.55 803.18 218.63 803.09 220.71 C 804.52 220.69 805.97 220.66 807.42 220.64 C 807.41 218.45 807.19 216.21 807.79 214.08 Z" />
<path fill="#f5f4f0" d=" M 563.83 221.69 C 570.36 218.93 576.85 215.72 583.89 214.49 C 596.91 223.88 608.96 234.78 619.28 247.10 C 609.14 248.51 598.97 249.81 589.01 252.17 C 584.97 253.03 581.02 254.36 576.90 254.73 C 564.17 247.21 550.74 240.95 537.13 235.22 C 545.74 230.17 554.84 226.01 563.83 221.69 Z" />
<path fill="#030303" d=" M 816.16 221.01 C 814.76 219.54 815.70 215.51 818.22 216.37 C 818.27 217.44 818.36 219.57 818.40 220.64 C 819.14 219.90 819.65 219.02 819.94 217.99 C 822.70 217.60 821.96 220.60 821.09 222.12 C 819.47 223.14 817.07 222.81 816.16 221.01 Z" />
<path fill="#121212" d=" M 862.79 219.62 C 865.69 216.41 870.90 216.62 874.38 218.74 C 875.36 221.42 875.24 224.43 874.05 227.02 C 872.25 229.88 868.44 228.52 865.94 230.16 C 864.26 231.18 861.68 229.93 861.50 227.98 C 861.40 226.09 862.38 224.39 862.90 222.63 C 865.68 222.11 868.07 224.28 868.79 226.84 C 872.30 227.67 873.94 223.84 873.29 220.95 C 871.81 218.48 868.45 218.41 865.92 218.74 C 862.58 220.22 861.08 223.79 859.65 226.90 C 859.41 229.72 859.49 232.60 860.84 235.16 C 862.80 236.01 864.88 237.00 867.10 236.59 C 868.78 236.31 869.51 233.48 871.42 234.63 C 871.34 236.87 869.27 238.76 867.02 238.54 C 864.03 238.47 860.02 237.38 859.26 234.06 C 857.34 229.07 859.40 223.45 862.79 219.62 Z" />
<path fill="#0c0c0c" d=" M 824.75 219.37 C 824.67 217.84 826.51 218.07 827.40 218.65 C 826.71 221.25 825.07 223.43 823.79 225.76 C 821.93 228.88 820.41 232.31 817.64 234.75 C 817.26 233.51 816.98 232.04 818.11 231.10 C 821.05 227.68 824.27 224.07 824.75 219.37 Z" />
<path fill="#626260" d=" M 838.38 223.75 C 839.27 222.39 840.18 221.04 841.17 219.74 C 840.60 223.97 840.98 228.25 840.37 232.46 C 840.51 229.43 840.39 226.21 838.38 223.75 Z" />
<path fill="#3e5dfc" d=" M 423.95 222.60 C 441.34 221.74 458.75 221.13 476.16 221.69 C 476.92 221.70 477.69 221.73 478.46 221.76 C 480.36 221.87 482.26 222.04 484.17 222.13 C 481.31 222.97 478.42 223.99 475.39 223.68 C 475.25 223.68 474.97 223.68 474.83 223.68 L 474.29 223.71 C 473.30 223.01 472.20 222.67 471.02 222.66 C 455.99 222.44 440.95 222.67 425.97 223.79 C 422.82 223.70 420.01 226.59 416.90 225.26 C 418.70 223.24 421.40 222.81 423.95 222.60 Z" />
<path fill="#f5f2ed" d=" M 503.79 223.41 C 508.04 223.47 512.30 223.01 516.37 221.74 C 514.89 223.46 513.29 225.07 511.62 226.61 C 508.81 225.83 505.93 225.36 503.03 225.07 C 503.22 224.66 503.60 223.83 503.79 223.41 Z" />
<path fill="#f5f4f0" d=" M 849.07 224.55 C 846.95 225.80 847.03 221.28 849.09 222.39 C 849.09 222.93 849.08 224.01 849.07 224.55 Z" />
<path fill="#b06f79" d=" M 474.83 223.68 C 474.97 223.68 475.25 223.68 475.39 223.68 L 474.83 223.68 Z" />
<path fill="#3e5dfc" d=" M 490.71 224.96 C 495.00 224.03 499.39 223.47 503.79 223.41 C 503.60 223.83 503.22 224.66 503.03 225.07 C 505.93 225.36 508.81 225.83 511.62 226.61 C 519.93 228.77 528.07 231.52 536.01 234.77 C 536.29 234.88 536.85 235.10 537.13 235.22 C 550.74 240.95 564.17 247.21 576.90 254.73 L 576.99 254.78 C 576.56 254.90 575.71 255.13 575.29 255.25 L 575.02 255.37 C 568.34 250.43 560.60 247.29 553.19 243.64 C 547.51 240.80 541.70 238.25 535.80 235.93 C 535.53 235.83 535.01 235.63 534.75 235.54 C 526.44 232.17 517.95 229.12 509.16 227.32 C 508.82 227.25 508.15 227.10 507.81 227.03 C 502.24 225.38 496.48 224.97 490.71 224.96 Z" />
<path fill="#f5f4f0" d=" M 802.62 222.60 C 804.21 222.56 805.82 222.52 807.44 222.50 C 807.43 224.21 807.42 225.93 807.42 227.65 C 805.76 227.70 804.11 227.73 802.46 227.75 C 802.50 226.03 802.55 224.31 802.62 222.60 Z" />
<path fill="#f5f4f0" d=" M 863.61 225.45 C 864.12 225.43 865.13 225.39 865.63 225.37 C 865.67 225.98 865.75 227.20 865.80 227.82 C 865.21 227.79 864.05 227.74 863.47 227.71 C 863.50 227.14 863.58 226.01 863.61 225.45 Z" />
<path fill="#0a0a0a" d=" M 299.83 226.89 C 302.49 225.20 305.90 225.33 308.58 226.91 C 308.12 232.01 305.18 236.39 301.92 240.16 C 299.70 246.41 304.10 253.26 302.20 259.54 C 298.10 260.16 296.61 255.61 294.50 253.03 L 294.82 251.81 C 297.72 250.52 297.94 255.37 300.30 256.12 C 300.76 250.36 298.07 244.53 299.75 238.87 C 302.34 235.53 305.65 232.46 306.11 227.98 C 304.03 227.59 301.91 227.21 299.83 226.89 Z" />
<path fill="#de5211" d=" M 507.81 227.03 C 508.15 227.10 508.82 227.25 509.16 227.32 C 498.38 235.11 486.90 242.14 477.32 251.42 C 476.79 251.51 475.72 251.67 475.19 251.75 C 474.80 248.07 479.35 247.65 481.57 245.79 C 490.39 239.64 499.14 233.38 507.81 227.03 Z" />
<path fill="#020202" d=" M 825.36 228.49 C 824.93 225.01 828.89 227.07 830.49 227.73 C 830.42 229.13 831.03 230.92 829.69 231.94 C 828.44 233.29 826.40 232.41 824.85 232.27 C 824.42 231.60 823.56 230.26 823.13 229.59 C 824.87 228.61 826.31 229.99 827.76 230.81 C 828.17 229.01 827.09 228.37 825.36 228.49 Z" />
<path fill="#de5211" d=" M 469.53 229.30 C 470.27 229.15 471.00 229.02 471.75 228.89 C 469.29 230.93 469.51 235.65 465.91 236.10 C 466.51 233.54 468.22 231.50 469.53 229.30 Z" />
<path fill="#0d0c0c" d=" M 960.48 230.33 C 964.23 229.96 968.59 229.61 971.63 232.31 C 974.91 235.40 978.69 238.14 981.11 242.02 C 985.76 250.43 986.81 260.56 985.82 269.99 C 985.55 269.61 985.03 268.84 984.76 268.45 C 983.52 269.84 982.00 270.80 980.07 270.33 L 979.35 269.30 C 980.90 269.41 982.49 268.92 983.89 268.24 C 983.97 259.54 983.36 250.54 979.27 242.69 C 976.91 239.43 973.86 236.73 970.90 234.05 C 967.82 231.45 963.58 232.44 959.91 232.17 C 960.05 231.71 960.33 230.79 960.48 230.33 Z" />
<path fill="#000000" d=" M 216.56 233.52 C 217.09 233.48 218.15 233.40 218.67 233.37 C 216.64 244.81 218.33 256.43 217.69 267.96 C 217.38 272.45 218.24 276.89 218.54 281.36 C 219.03 281.74 220.01 282.51 220.50 282.90 C 220.05 285.42 219.58 287.94 219.24 290.49 C 215.25 292.11 215.15 286.47 214.23 283.98 C 213.34 282.37 215.43 281.87 216.36 281.22 C 216.75 277.12 216.69 272.99 216.92 268.88 C 218.03 257.10 215.70 245.31 216.56 233.52 Z" />
<path fill="#de5211" d=" M 494.44 264.78 C 507.46 254.49 520.13 243.59 534.75 235.54 C 535.01 235.63 535.53 235.83 535.80 235.93 C 521.17 243.67 508.60 254.49 495.93 264.97 C 495.55 264.92 494.81 264.82 494.44 264.78 Z" />
<path fill="#f5f4f0" d=" M 495.93 264.97 C 508.60 254.49 521.17 243.67 535.80 235.93 C 541.70 238.25 547.51 240.80 553.19 243.64 C 560.60 247.29 568.34 250.43 575.02 255.37 C 560.98 260.80 546.70 265.68 533.03 272.06 C 524.59 270.03 516.25 267.34 507.57 266.51 C 503.60 266.18 499.64 265.73 495.68 265.35 L 495.93 264.97 Z" />
<path fill="#de5211" d=" M 620.18 246.82 C 630.10 246.42 639.98 245.47 649.89 244.94 C 650.00 245.10 650.20 245.42 650.31 245.58 C 640.58 246.61 630.82 246.89 621.08 247.85 C 620.86 247.59 620.40 247.07 620.18 246.82 Z" />
<path fill="#de5211" d=" M 653.45 245.38 C 662.66 245.05 671.90 244.90 681.10 245.59 C 690.04 246.91 697.21 252.97 705.66 255.76 C 705.62 256.86 705.70 258.62 704.00 258.38 C 697.87 253.21 690.91 248.77 683.05 246.79 C 673.43 245.39 663.66 245.62 653.99 246.13 L 653.45 245.38 Z" />
<path fill="#de5211" d=" M 589.01 252.17 C 598.97 249.81 609.14 248.51 619.28 247.10 C 619.61 247.50 619.96 247.89 620.33 248.28 C 606.09 249.11 591.96 251.94 578.24 255.80 L 577.98 255.88 C 577.73 255.60 577.23 255.06 576.99 254.78 L 576.90 254.73 C 581.02 254.36 584.97 253.03 589.01 252.17 Z" />
<path fill="#787775" d=" M 799.69 251.83 C 803.79 251.90 807.91 251.78 812.02 252.14 C 821.49 253.02 831.02 252.33 840.52 252.60 L 839.98 253.60 L 839.26 254.06 C 828.38 254.19 817.40 254.51 806.58 253.68 C 804.35 252.85 802.04 252.19 799.69 251.83 Z" />
<path fill="#de5211" d=" M 575.02 255.37 L 575.29 255.25 C 575.54 255.52 576.03 256.07 576.28 256.34 L 576.34 256.35 C 569.50 258.01 563.03 260.83 556.46 263.27 C 549.14 266.14 541.65 268.68 534.76 272.52 C 534.33 272.40 533.46 272.17 533.03 272.06 C 546.70 265.68 560.98 260.80 575.02 255.37 Z" />
<path fill="#7e63ad" d=" M 575.29 255.25 C 575.71 255.13 576.56 254.90 576.99 254.78 C 577.23 255.06 577.73 255.60 577.98 255.88 C 577.55 255.99 576.71 256.22 576.28 256.34 C 576.03 256.07 575.54 255.52 575.29 255.25 Z" />
<path fill="#0f37fe" d=" M 576.28 256.34 C 576.71 256.22 577.55 255.99 577.98 255.88 L 578.24 255.80 C 582.21 259.17 586.63 262.00 590.48 265.53 C 595.42 270.40 600.46 275.19 604.81 280.60 C 604.99 280.79 605.36 281.15 605.54 281.33 C 607.70 283.98 611.99 285.75 611.75 289.67 C 611.25 289.60 610.27 289.48 609.78 289.41 C 608.31 286.54 606.50 283.87 604.38 281.45 C 604.25 281.29 603.98 280.98 603.85 280.82 C 600.27 275.90 595.69 271.88 591.48 267.54 C 587.48 263.35 582.40 260.45 578.15 256.56 C 577.70 256.51 576.79 256.41 576.34 256.35 L 576.28 256.34 Z" />
<path fill="#f5f4f0" d=" M 556.46 263.27 C 563.03 260.83 569.50 258.01 576.34 256.35 C 576.79 256.41 577.70 256.51 578.15 256.56 C 582.40 260.45 587.48 263.35 591.48 267.54 C 595.69 271.88 600.27 275.90 603.85 280.82 C 595.61 283.08 587.36 285.26 579.14 287.56 C 575.71 286.67 572.48 285.20 569.22 283.87 C 558.03 279.24 546.30 276.13 534.76 272.52 C 541.65 268.68 549.14 266.14 556.46 263.27 Z" />
<path fill="#3e5dfc" d=" M 419.04 267.73 C 419.40 266.29 420.75 265.60 422.17 265.68 C 445.99 265.09 469.84 265.70 493.66 265.20 C 493.26 265.64 492.48 266.52 492.08 266.96 L 491.42 266.86 C 488.32 266.32 485.17 266.54 482.04 266.54 C 465.35 266.57 448.66 266.47 431.97 266.67 C 427.62 266.64 423.37 267.66 419.04 267.73 Z" />
<path fill="#dd4a05" d=" M 493.66 265.20 L 494.44 264.78 C 494.81 264.82 495.55 264.92 495.93 264.97 L 495.68 265.35 C 495.47 265.77 495.03 266.59 494.82 267.00 C 494.59 267.33 494.14 267.98 493.91 268.31 C 493.46 267.97 492.54 267.30 492.08 266.96 C 492.48 266.52 493.26 265.64 493.66 265.20 Z" />
<path fill="#3e5dfc" d=" M 494.82 267.00 C 495.03 266.59 495.47 265.77 495.68 265.35 C 499.64 265.73 503.60 266.18 507.57 266.51 C 516.25 267.34 524.59 270.03 533.03 272.06 C 533.46 272.17 534.33 272.40 534.76 272.52 C 546.30 276.13 558.03 279.24 569.22 283.87 C 572.48 285.20 575.71 286.67 579.14 287.56 L 578.77 287.68 C 578.37 287.87 577.55 288.24 577.14 288.43 C 576.98 288.38 576.66 288.29 576.50 288.24 C 562.42 281.74 547.48 277.25 532.51 273.27 C 532.13 273.17 531.37 272.96 530.99 272.86 C 519.29 269.35 507.08 266.42 494.82 267.00 Z" />
<path fill="#de5211" d=" M 491.42 266.86 L 492.08 266.96 C 492.54 267.30 493.46 267.97 493.91 268.31 C 493.79 269.85 492.43 269.86 491.20 269.93 C 491.26 269.17 491.37 267.63 491.42 266.86 Z" />
<path fill="#000000" d=" M 980.07 270.33 C 982.00 270.80 983.52 269.84 984.76 268.45 C 985.03 268.84 985.55 269.61 985.82 269.99 C 987.64 271.06 991.71 270.87 990.80 273.95 C 989.47 274.93 988.04 275.74 986.65 276.62 C 985.50 278.44 984.56 280.52 982.80 281.84 C 981.49 282.91 979.34 282.77 978.54 281.16 C 978.56 277.71 978.74 274.27 978.77 270.82 C 979.10 270.70 979.75 270.45 980.07 270.33 Z" />
<path fill="#de5211" d=" M 641.99 273.46 C 654.93 271.93 668.01 272.34 681.03 272.32 C 689.79 272.08 698.55 274.51 706.12 278.89 C 712.16 282.26 720.04 283.59 723.70 290.10 C 723.06 290.32 721.80 290.76 721.17 290.98 C 717.27 283.68 708.83 281.53 702.14 277.72 C 690.95 272.14 678.14 273.00 666.02 272.87 C 651.59 273.67 637.01 273.76 622.90 277.25 C 617.14 278.73 611.31 279.89 605.54 281.33 C 605.36 281.15 604.99 280.79 604.81 280.60 C 617.13 277.90 629.33 274.13 641.99 273.46 Z" />
<path fill="#de5211" d=" M 514.49 283.58 C 519.40 279.15 525.26 276.05 530.99 272.86 C 531.37 272.96 532.13 273.17 532.51 273.27 C 528.37 275.41 524.03 277.39 520.53 280.54 C 518.10 282.68 516.56 285.98 513.28 287.00 C 513.06 285.68 513.23 284.30 514.49 283.58 Z" />
<path fill="#de5211" d=" M 579.14 287.56 C 587.36 285.26 595.61 283.08 603.85 280.82 C 603.98 280.98 604.25 281.29 604.38 281.45 C 596.47 283.72 588.54 285.94 580.55 287.85 C 580.10 287.81 579.22 287.73 578.77 287.68 L 579.14 287.56 Z" />
<path fill="#de5211" d=" M 576.50 288.24 C 576.66 288.29 576.98 288.38 577.14 288.43 L 577.49 288.96 C 568.53 291.56 559.88 295.18 551.70 299.64 C 548.74 301.37 545.75 303.25 543.71 306.08 C 543.16 305.94 542.62 305.81 542.08 305.69 C 551.85 297.00 564.37 292.53 576.50 288.24 Z" />
<path fill="#7b6abb" d=" M 577.14 288.43 C 577.55 288.24 578.37 287.87 578.77 287.68 C 579.22 287.73 580.10 287.81 580.55 287.85 L 580.64 288.52 C 580.26 288.72 579.50 289.13 579.12 289.33 C 578.71 289.24 577.89 289.05 577.49 288.96 L 577.14 288.43 Z" />
<path fill="#040404" d=" M 358.66 291.01 C 363.69 285.59 374.35 290.62 372.86 298.05 C 373.13 300.94 370.89 302.90 369.29 304.98 C 370.40 306.93 373.19 304.33 374.17 306.53 C 374.80 306.48 376.04 306.37 376.66 306.32 C 380.85 312.15 383.95 318.87 384.45 326.11 C 384.46 331.41 385.09 336.81 383.56 341.97 L 384.50 343.04 C 384.02 344.03 383.55 345.02 383.09 346.03 C 380.27 347.68 377.37 349.32 375.19 351.82 C 377.85 356.95 381.72 361.60 383.42 367.14 C 382.17 370.15 379.06 371.68 376.64 373.61 C 376.36 373.23 375.80 372.46 375.51 372.07 C 377.07 370.05 381.39 369.39 380.70 366.11 C 378.58 362.04 376.10 358.15 373.75 354.21 C 372.91 352.95 373.28 351.38 373.22 349.98 C 376.00 347.78 378.94 345.79 382.06 344.10 C 378.60 343.02 375.38 341.37 372.14 339.80 C 367.66 344.12 364.36 349.38 360.39 354.12 C 361.13 358.68 364.31 362.21 366.53 366.10 C 367.33 370.99 360.78 372.18 357.18 372.93 C 357.18 372.38 357.19 371.29 357.19 370.74 C 359.91 370.31 362.75 369.58 364.53 367.30 C 362.26 363.66 359.98 359.96 358.47 355.93 C 357.25 352.64 360.82 350.81 362.29 348.42 C 364.42 344.94 367.53 342.24 369.79 338.86 C 370.39 337.72 371.37 336.91 372.44 336.23 C 372.79 332.67 372.97 329.04 372.22 325.52 C 371.86 324.07 371.52 322.41 369.97 321.78 C 367.81 326.56 366.80 331.80 364.35 336.45 C 362.24 336.16 360.13 335.90 358.03 335.68 C 359.67 335.25 361.31 334.81 362.96 334.37 C 364.14 329.53 367.41 325.65 369.38 321.17 C 370.68 318.62 368.38 316.30 367.11 314.31 C 367.13 316.80 367.61 319.26 368.42 321.63 C 365.84 322.21 364.19 320.03 362.41 318.61 C 359.43 316.03 355.64 314.76 352.14 313.10 C 352.65 315.60 353.36 318.08 353.52 320.64 C 353.13 321.84 352.70 323.04 352.32 324.26 C 351.98 318.27 349.91 311.78 344.82 308.22 C 339.31 306.48 332.78 308.81 329.33 313.43 C 326.57 316.77 326.27 321.26 325.27 325.30 C 319.66 325.74 314.09 326.59 308.53 327.42 C 308.49 328.92 308.43 330.42 308.36 331.93 C 308.10 331.95 307.58 331.99 307.32 332.01 C 307.45 330.52 307.56 329.03 307.68 327.54 C 298.92 327.11 290.20 329.25 281.47 328.14 L 280.99 326.79 C 283.67 325.49 287.02 326.58 289.97 326.01 C 296.04 325.17 302.15 325.47 308.26 325.27 C 308.42 323.42 308.60 321.58 308.83 319.75 C 310.57 313.46 312.66 307.02 317.18 302.13 C 318.97 300.47 321.61 301.41 323.24 302.83 C 323.25 304.41 323.27 305.99 323.30 307.58 C 322.83 307.68 321.91 307.87 321.44 307.96 C 321.03 306.18 321.09 301.70 318.17 303.97 C 312.27 309.19 309.83 317.31 309.21 324.93 C 313.99 324.52 318.68 323.34 323.49 323.25 C 324.15 320.55 324.44 317.76 325.40 315.15 C 329.21 308.37 337.35 304.35 345.07 305.69 C 347.80 306.95 349.11 310.24 352.18 310.90 C 356.97 312.15 360.95 315.19 364.94 317.98 C 364.72 315.86 364.49 313.74 364.43 311.61 C 365.69 311.86 366.94 312.17 368.18 312.56 C 369.62 313.81 370.24 315.85 371.97 316.81 C 372.45 314.87 373.00 312.95 373.56 311.04 C 374.11 311.14 375.20 311.35 375.74 311.45 C 374.61 314.03 372.98 316.38 372.13 319.06 C 372.61 321.86 374.43 324.25 374.76 327.10 C 375.58 330.75 375.06 334.50 374.48 338.15 C 376.51 339.43 378.53 340.95 381.04 341.01 C 382.58 338.27 382.35 335.03 382.42 332.00 C 382.56 326.86 382.19 321.60 380.38 316.75 C 378.65 313.31 376.56 310.06 374.44 306.85 C 371.50 308.10 369.48 311.06 366.34 311.75 C 367.50 309.53 368.34 307.17 367.27 304.74 C 364.24 304.43 361.12 302.98 359.85 300.05 C 358.13 297.33 358.66 294.05 358.66 291.01 Z" />
<path fill="#f5f4f0" d=" M 577.49 288.96 C 577.89 289.05 578.71 289.24 579.12 289.33 C 582.88 290.36 586.13 292.62 589.47 294.56 C 593.03 296.73 596.87 298.69 599.42 302.11 L 599.64 302.37 C 594.93 304.10 589.81 302.97 584.96 304.03 C 576.68 304.84 568.93 307.94 561.07 310.41 C 560.70 310.48 559.95 310.62 559.58 310.70 C 554.40 308.80 548.99 307.65 543.71 306.08 C 545.75 303.25 548.74 301.37 551.70 299.64 C 559.88 295.18 568.53 291.56 577.49 288.96 Z" />
<path fill="#3e5dfc" d=" M 579.12 289.33 C 579.50 289.13 580.26 288.72 580.64 288.52 C 588.01 292.27 595.70 296.12 601.43 302.23 L 600.65 302.18 C 600.34 302.17 599.73 302.13 599.42 302.11 C 596.87 298.69 593.03 296.73 589.47 294.56 C 586.13 292.62 582.88 290.36 579.12 289.33 Z" />
<path fill="#f5f4f0" d=" M 360.39 292.53 C 363.76 289.78 368.49 291.46 370.63 294.88 C 370.60 297.46 370.86 300.89 368.19 302.32 C 362.76 302.97 360.44 296.96 360.39 292.53 Z" />
<path fill="#202020" d=" M 968.80 293.83 C 974.71 293.42 981.08 293.38 986.26 296.72 C 991.22 299.67 993.90 305.38 994.75 310.90 C 993.09 310.24 993.14 308.26 992.57 306.85 C 991.36 302.48 988.29 298.58 984.01 296.89 C 979.16 294.33 973.60 295.58 968.40 295.74 C 968.50 295.27 968.70 294.31 968.80 293.83 Z" />
<path fill="#dd4e0b" d=" M 656.06 295.75 C 668.31 294.21 680.68 295.32 692.97 294.45 C 705.31 293.86 717.62 295.63 729.94 294.91 C 746.04 295.14 762.16 296.13 778.08 298.59 C 785.92 300.24 793.99 300.09 801.88 301.46 C 811.73 302.32 821.21 305.33 830.97 306.79 C 838.96 308.66 846.82 311.10 854.89 312.65 C 860.83 314.69 866.92 316.26 872.99 317.85 C 874.90 316.82 875.50 314.24 876.77 312.52 C 880.34 311.06 881.65 315.11 883.99 316.91 C 886.57 319.41 890.06 320.81 892.35 323.63 C 894.00 325.55 895.95 327.17 897.79 328.91 C 896.70 329.82 896.01 332.26 894.17 331.52 C 891.47 330.84 888.79 330.07 886.01 329.86 C 880.91 329.53 875.92 327.99 870.78 328.41 C 870.18 328.07 868.98 327.38 868.38 327.04 C 869.48 324.96 870.62 322.91 871.74 320.85 C 866.78 318.82 861.30 318.60 856.41 316.40 C 853.10 314.98 849.41 315.02 846.03 313.88 C 842.72 312.80 839.33 312.06 835.98 311.17 C 828.90 308.77 821.23 309.21 814.17 306.76 C 800.78 302.70 786.53 304.54 773.05 301.04 C 757.81 298.85 742.39 297.58 726.98 297.85 C 712.99 298.13 698.98 297.09 685.02 298.19 C 675.41 298.72 665.74 298.18 656.17 299.22 C 638.78 299.64 621.76 303.62 604.43 304.78 C 603.76 303.95 603.08 303.12 602.41 302.30 C 608.20 301.00 614.24 301.36 620.01 299.88 C 624.42 298.76 628.99 298.48 633.44 297.54 C 640.87 295.81 648.58 296.97 656.06 295.75 Z" />
<path fill="#3e5dfc" d=" M 431.40 301.58 C 447.64 297.81 464.42 298.40 480.96 297.90 C 501.64 296.60 522.10 300.84 542.08 305.69 C 542.62 305.81 543.16 305.94 543.71 306.08 C 548.99 307.65 554.40 308.80 559.58 310.70 L 558.06 310.98 C 552.68 309.89 547.45 308.17 542.09 306.98 C 541.83 306.92 541.29 306.79 541.03 306.73 C 520.16 301.42 498.63 297.29 477.01 299.10 C 461.64 299.36 446.06 299.23 431.05 302.94 C 426.64 303.91 422.98 306.62 418.92 308.41 C 417.33 308.26 417.23 307.21 417.67 305.97 C 422.35 304.85 426.67 302.58 431.40 301.58 Z" />
<path fill="#1f1f1e" d=" M 599.42 302.11 C 599.73 302.13 600.34 302.17 600.65 302.18 C 601.09 302.21 601.97 302.27 602.41 302.30 C 603.08 303.12 603.76 303.95 604.43 304.78 L 604.92 305.38 L 603.95 305.21 C 603.77 305.18 603.41 305.12 603.23 305.09 C 602.04 304.15 600.85 303.25 599.64 302.37 L 599.42 302.11 Z" />
<path fill="#1c1c1b" d=" M 964.84 304.08 C 968.23 301.77 972.58 302.84 976.42 302.89 C 985.11 303.56 992.22 311.16 992.73 319.80 C 992.42 319.82 991.79 319.84 991.48 319.86 C 991.60 312.90 986.49 306.95 980.14 304.67 C 976.79 304.21 973.38 304.01 970.03 304.41 C 968.29 304.52 966.42 305.09 964.84 304.08 Z" />
<path fill="#0b0b0b" d=" M 168.70 304.93 C 168.76 303.66 169.50 302.98 170.91 302.87 C 170.03 312.22 170.78 321.61 170.55 330.98 C 170.34 338.33 170.91 345.65 171.49 352.96 C 171.83 354.35 173.12 355.36 173.16 356.87 C 173.89 362.22 175.00 367.52 176.87 372.60 C 182.54 372.96 188.21 372.22 193.75 371.01 C 202.07 369.47 210.51 368.73 218.90 367.66 C 233.87 366.78 249.03 368.52 263.84 365.62 C 266.33 365.00 269.47 365.41 271.52 363.79 C 271.32 345.86 273.31 327.90 271.64 309.98 C 271.34 307.86 270.89 304.51 267.99 304.81 C 255.98 304.72 243.95 304.82 231.94 304.66 C 213.33 305.75 194.67 305.16 176.04 305.51 C 174.29 306.35 170.30 302.96 173.86 303.17 C 180.87 303.88 187.91 303.61 194.93 303.89 C 198.94 304.50 203.01 304.13 207.05 304.24 C 215.33 304.25 223.64 304.67 231.91 303.87 C 240.29 303.32 248.70 303.46 257.10 303.07 C 261.47 302.66 265.86 302.44 270.25 302.39 C 273.14 304.20 273.61 307.82 273.55 310.94 C 273.73 327.97 272.94 345.03 274.14 362.04 C 274.44 363.85 273.64 366.17 271.63 366.52 C 266.14 367.67 260.46 367.31 254.89 367.90 C 243.32 369.03 231.62 367.80 220.00 368.51 C 209.07 369.60 198.11 370.89 187.35 373.21 C 184.28 374.16 181.14 374.98 177.94 375.38 C 176.48 375.72 175.50 374.27 175.00 373.11 C 173.59 369.11 173.82 364.75 172.55 360.72 C 172.08 360.66 171.14 360.55 170.66 360.50 C 168.60 355.93 169.52 350.84 168.77 346.03 C 168.43 332.34 168.39 318.62 168.70 304.93 Z" />
<path fill="#dd4a05" d=" M 584.96 304.03 C 589.81 302.97 594.93 304.10 599.64 302.37 C 600.85 303.25 602.04 304.15 603.23 305.09 C 590.95 307.00 578.66 308.98 566.69 312.41 C 565.72 312.43 564.76 312.44 563.82 312.42 C 562.88 311.76 561.96 311.09 561.07 310.41 C 568.93 307.94 576.68 304.84 584.96 304.03 Z" />
<path fill="#0f37fe" d=" M 603.95 305.21 L 604.92 305.38 C 607.23 306.74 609.21 308.82 611.33 310.54 C 611.42 311.08 611.61 312.17 611.70 312.72 C 607.53 312.96 606.42 307.74 603.95 305.21 Z" />
<path fill="#dd4d0a" d=" M 541.03 306.73 C 541.29 306.79 541.83 306.92 542.09 306.98 C 539.09 310.02 536.07 313.03 533.10 316.10 C 541.61 314.28 550.11 312.44 558.73 311.16 C 560.23 311.60 561.72 312.06 563.22 312.55 C 555.77 315.60 547.59 315.90 539.90 318.13 C 535.83 319.39 531.58 320.09 527.63 321.69 C 525.33 323.56 523.99 326.73 520.79 327.25 C 521.41 325.75 522.14 324.31 522.91 322.89 C 512.35 326.45 501.27 328.62 491.07 333.21 C 490.58 333.35 489.61 333.63 489.13 333.76 C 488.78 333.16 488.07 331.96 487.72 331.36 C 496.92 326.91 506.88 324.28 516.77 321.82 C 521.27 320.35 525.68 318.65 530.23 317.33 C 534.30 314.36 537.56 310.37 541.03 306.73 Z" />
<path fill="#f5f4f0" d=" M 329.33 313.43 C 332.78 308.81 339.31 306.48 344.82 308.22 C 349.91 311.78 351.98 318.27 352.32 324.26 C 352.37 327.63 352.31 331.07 351.10 334.26 C 349.37 334.89 348.97 336.38 349.20 338.06 C 346.89 342.10 342.99 346.02 337.97 345.76 C 334.13 346.20 329.88 344.97 327.74 341.55 C 325.91 338.05 325.97 333.97 325.41 330.16 C 319.92 332.08 314.06 331.48 308.36 331.93 C 308.43 330.42 308.49 328.92 308.53 327.42 C 314.09 326.59 319.66 325.74 325.27 325.30 C 326.27 321.26 326.57 316.77 329.33 313.43 Z" />
<path fill="#f5f4f0" d=" M 533.10 316.10 C 536.07 313.03 539.09 310.02 542.09 306.98 C 547.45 308.17 552.68 309.89 558.06 310.98 L 558.73 311.16 C 550.11 312.44 541.61 314.28 533.10 316.10 Z" />
<path fill="#1c1c1b" d=" M 559.58 310.70 C 559.95 310.62 560.70 310.48 561.07 310.41 C 561.96 311.09 562.88 311.76 563.82 312.42 L 564.63 312.97 C 564.28 312.86 563.57 312.66 563.22 312.55 C 561.72 312.06 560.23 311.60 558.73 311.16 L 558.06 310.98 L 559.58 310.70 Z" />
<path fill="#1f1f1e" d=" M 966.59 313.42 C 966.29 312.47 967.14 311.45 968.14 311.61 C 971.49 311.57 975.02 311.38 978.16 312.79 C 981.21 314.55 983.71 317.43 984.78 320.82 C 981.97 320.16 982.15 316.44 979.64 315.24 C 976.07 311.82 970.91 314.01 966.59 313.42 Z" />
<path fill="#0f37fe" d=" M 563.82 312.42 C 564.76 312.44 565.72 312.43 566.69 312.41 C 573.96 315.62 581.69 317.75 588.87 321.22 L 589.20 321.29 C 589.96 321.46 590.72 321.64 591.49 321.82 C 600.80 326.96 609.95 332.41 618.96 338.09 L 619.80 338.52 C 619.70 339.26 619.49 340.73 619.39 341.47 C 618.57 341.41 617.76 341.35 616.96 341.29 C 616.81 340.82 616.52 339.87 616.38 339.40 C 616.26 339.26 616.01 338.97 615.89 338.83 C 612.25 334.34 607.05 331.69 602.23 328.71 C 597.94 326.17 593.52 323.79 588.82 322.11 C 587.95 321.77 587.11 321.46 586.27 321.10 C 579.35 317.68 571.95 315.36 564.63 312.97 L 563.82 312.42 Z" />
<path fill="#050505" d=" M 336.21 313.30 C 340.18 311.92 345.33 312.33 348.34 315.58 C 350.51 317.80 349.68 321.17 349.84 323.97 C 350.12 330.01 346.81 335.52 342.75 339.73 C 340.38 342.34 336.41 341.46 333.44 340.62 C 329.48 338.34 327.03 333.55 327.78 328.98 C 328.44 323.09 330.19 315.89 336.21 313.30 Z" />
<path fill="#f5f4f0" d=" M 539.90 318.13 C 547.59 315.90 555.77 315.60 563.22 312.55 C 563.57 312.66 564.28 312.86 564.63 312.97 C 571.95 315.36 579.35 317.68 586.27 321.10 C 582.81 323.28 578.59 323.47 574.77 324.71 C 560.64 328.25 547.25 334.46 535.32 342.81 C 531.62 342.65 528.09 341.46 524.55 340.48 C 513.55 337.37 502.22 335.67 491.07 333.21 C 501.27 328.62 512.35 326.45 522.91 322.89 C 522.14 324.31 521.41 325.75 520.79 327.25 C 523.99 326.73 525.33 323.56 527.63 321.69 C 531.58 320.09 535.83 319.39 539.90 318.13 Z" />
<path fill="#f5f4f0" d=" M 352.14 313.10 C 355.64 314.76 359.43 316.03 362.41 318.61 C 364.19 320.03 365.84 322.21 368.42 321.63 C 367.61 319.26 367.13 316.80 367.11 314.31 C 368.38 316.30 370.68 318.62 369.38 321.17 C 367.41 325.65 364.14 329.53 362.96 334.37 C 359.71 334.70 356.45 334.84 353.20 334.92 C 353.88 330.19 353.96 325.39 353.52 320.64 C 353.36 318.08 352.65 315.60 352.14 313.10 Z" />
<path fill="#f5f4f0" d=" M 336.54 315.71 C 340.06 314.67 345.06 314.41 347.28 318.01 C 348.30 324.68 347.13 332.21 342.03 337.03 C 340.35 339.52 336.95 339.05 334.43 338.41 C 331.97 336.81 329.88 334.05 330.25 330.96 C 330.02 325.45 331.77 318.92 336.54 315.71 Z" />
<path fill="#de5211" d=" M 613.99 317.34 C 627.91 315.34 642.01 315.51 656.04 315.20 C 664.70 315.53 673.41 315.21 682.04 316.27 C 688.35 316.75 694.74 316.08 701.00 317.29 C 707.49 317.68 714.85 318.32 719.62 323.30 C 719.66 323.95 719.73 325.24 719.77 325.88 C 716.91 325.17 715.66 322.04 712.92 321.07 C 708.08 318.23 702.39 318.40 697.02 317.62 C 682.35 317.27 667.71 315.99 653.03 315.83 C 640.08 316.76 627.04 316.10 614.19 318.20 C 606.55 318.77 598.87 319.65 591.49 321.82 C 590.72 321.64 589.96 321.46 589.20 321.29 C 597.31 319.24 605.63 317.88 613.99 317.34 Z" />
<path fill="#060606" d=" M 911.39 320.94 C 913.08 318.70 914.76 315.33 918.09 315.68 C 921.25 316.79 923.98 318.85 927.04 320.21 C 928.62 319.26 931.93 318.28 932.41 320.89 C 932.19 324.39 930.24 327.53 928.30 330.36 C 924.65 334.83 920.66 339.04 916.26 342.77 C 917.80 348.19 922.50 352.01 928.04 352.77 C 931.81 347.18 936.38 340.36 943.93 340.32 C 943.52 338.42 943.34 336.49 943.44 334.56 C 940.68 334.24 937.34 333.65 936.06 330.82 C 934.54 327.00 935.46 322.05 938.85 319.49 C 940.66 321.34 942.84 318.74 944.92 318.79 C 947.22 318.96 950.13 319.15 951.44 321.38 C 952.99 326.48 950.20 332.63 945.21 334.65 C 945.50 335.53 946.06 337.31 946.34 338.19 C 945.99 339.00 945.28 340.61 944.92 341.42 C 950.20 342.34 955.73 342.66 960.40 345.59 C 965.96 345.11 969.00 339.51 971.04 334.91 C 972.61 329.88 973.75 324.62 973.57 319.32 C 974.14 319.28 975.28 319.19 975.85 319.15 C 976.06 328.18 972.76 337.21 967.31 344.37 C 966.20 346.01 964.12 346.41 962.39 347.01 C 963.82 349.22 965.45 351.39 966.25 353.95 C 966.76 360.27 966.80 366.95 963.95 372.78 C 962.50 374.90 960.39 376.48 958.99 378.64 C 962.12 380.89 963.69 384.52 964.19 388.26 C 967.11 386.95 969.48 383.20 972.90 383.95 L 973.89 385.21 C 969.41 386.18 966.73 390.25 962.55 391.62 C 961.64 387.56 961.45 382.48 957.21 380.32 C 953.45 384.11 947.87 383.40 943.03 383.18 C 939.47 383.00 936.28 381.42 933.08 380.06 C 929.94 381.65 927.11 384.21 925.70 387.49 C 924.89 390.22 924.84 393.10 924.62 395.92 C 921.34 396.07 919.34 392.96 916.32 392.19 C 916.31 391.66 916.28 390.58 916.27 390.05 C 918.63 390.22 920.60 391.55 922.45 392.91 C 922.70 387.34 925.68 382.41 930.08 379.10 C 932.06 377.57 929.31 375.82 928.46 374.53 C 923.76 369.26 925.82 361.63 927.40 355.53 C 922.37 353.73 917.33 350.96 914.92 345.94 C 913.26 348.19 910.41 349.82 909.99 352.77 C 913.73 354.53 917.80 357.44 918.20 361.92 C 918.48 366.80 915.42 370.90 912.49 374.46 C 909.21 378.33 903.43 378.41 898.94 377.07 C 894.16 374.92 889.33 371.69 887.26 366.67 C 888.33 366.02 889.19 366.14 889.85 367.03 C 893.45 371.70 898.77 375.87 904.98 375.54 C 907.44 375.64 909.54 374.17 911.14 372.44 C 905.62 375.25 899.75 371.94 894.97 369.14 C 892.92 368.16 892.17 365.95 891.84 363.87 C 894.73 364.37 895.62 367.81 898.45 368.55 C 901.82 369.80 905.70 372.47 909.26 370.32 C 913.00 368.32 913.10 362.61 910.23 359.78 C 907.01 355.36 901.39 354.36 896.74 352.14 C 893.42 351.25 889.45 350.94 886.88 353.63 C 886.23 353.52 884.94 353.31 884.29 353.20 C 884.49 354.85 884.69 356.50 884.90 358.16 C 885.57 364.83 886.33 371.49 887.44 378.11 C 887.49 384.16 887.88 390.24 887.26 396.26 C 883.65 397.64 879.76 397.21 876.00 397.35 C 868.97 397.54 861.92 396.92 854.93 397.85 C 846.38 398.97 837.82 400.01 829.18 399.62 C 828.57 399.58 827.34 399.50 826.73 399.46 C 833.39 398.07 840.29 399.32 846.95 397.82 C 859.62 395.70 872.51 394.96 885.34 394.56 C 887.40 385.23 886.54 375.58 884.69 366.30 C 884.24 359.07 883.11 351.91 881.34 344.89 C 875.89 344.09 870.45 345.74 865.06 344.71 C 859.53 344.46 853.98 344.79 848.45 344.47 L 848.58 345.46 C 839.59 344.70 830.90 347.78 821.96 347.63 C 815.15 347.82 808.46 350.40 801.62 349.51 C 801.46 349.19 801.13 348.54 800.96 348.22 C 808.67 348.83 816.23 346.96 823.93 346.69 C 831.43 346.56 838.73 344.39 846.24 344.40 C 855.10 343.10 864.15 344.84 872.96 343.08 C 875.71 342.62 878.50 342.67 881.29 342.57 C 882.35 341.30 883.47 340.91 884.37 342.57 C 883.21 345.56 883.89 348.79 883.81 351.90 C 885.75 351.51 887.29 350.21 889.06 349.41 C 895.59 348.58 902.24 350.96 907.60 354.56 C 905.47 349.66 912.67 347.94 912.64 343.47 C 919.04 337.05 926.50 331.06 929.89 322.37 C 924.99 323.85 921.55 318.74 917.04 318.22 C 915.64 318.74 913.40 320.69 914.74 322.17 C 916.67 322.58 918.73 322.46 920.56 323.33 C 921.52 322.61 922.44 321.88 923.45 321.18 C 923.51 321.85 923.63 323.19 923.69 323.86 C 920.06 328.45 915.23 332.03 912.28 337.16 C 909.01 341.17 905.87 345.27 903.12 349.67 C 898.93 348.81 895.30 346.20 890.99 345.82 C 888.98 346.21 887.19 347.31 885.20 347.69 C 884.53 345.23 887.33 344.47 888.91 343.54 C 893.57 342.82 897.82 345.42 902.05 346.98 C 904.70 342.14 908.72 338.29 911.70 333.67 C 913.78 330.64 916.44 328.07 919.09 325.53 C 916.07 324.77 912.08 324.78 911.39 320.94 Z" />
<path fill="#242424" d=" M 352.32 324.26 C 352.70 323.04 353.13 321.84 353.52 320.64 C 353.96 325.39 353.88 330.19 353.20 334.92 C 356.45 334.84 359.71 334.70 362.96 334.37 C 361.31 334.81 359.67 335.25 358.03 335.68 C 360.13 335.90 362.24 336.16 364.35 336.45 C 360.19 337.98 355.68 336.59 351.41 337.47 C 351.77 336.73 352.15 335.99 352.52 335.26 C 352.17 335.01 351.45 334.51 351.10 334.26 C 352.31 331.07 352.37 327.63 352.32 324.26 Z" />
<path fill="#de5211" d=" M 586.27 321.10 C 587.11 321.46 587.95 321.77 588.82 322.11 C 574.09 325.38 559.24 329.33 546.14 337.06 C 543.08 338.94 539.79 340.74 537.74 343.80 L 537.21 343.73 C 536.74 343.50 535.79 343.04 535.32 342.81 C 547.25 334.46 560.64 328.25 574.77 324.71 C 578.59 323.47 582.81 323.28 586.27 321.10 Z" />
<path fill="#f5f4f0" d=" M 941.84 322.73 C 943.81 320.82 947.79 320.43 949.52 322.82 C 950.12 326.20 948.37 329.61 945.69 331.59 C 943.86 332.82 941.63 331.87 939.76 331.30 C 936.40 329.36 937.97 325.06 938.95 322.17 C 939.67 322.31 941.12 322.59 941.84 322.73 Z" />
<path fill="#f5f4f0" d=" M 546.14 337.06 C 559.24 329.33 574.09 325.38 588.82 322.11 C 593.52 323.79 597.94 326.17 602.23 328.71 C 607.05 331.69 612.25 334.34 615.89 338.83 C 604.61 341.72 594.44 347.44 583.78 351.92 C 579.21 353.80 575.21 356.75 570.79 358.89 C 565.11 356.06 559.71 352.64 553.76 350.37 C 548.48 348.02 542.83 346.57 537.74 343.80 C 539.79 340.74 543.08 338.94 546.14 337.06 Z" />
<path fill="#030303" d=" M 180.64 324.39 C 181.15 324.38 182.17 324.36 182.68 324.36 C 182.43 327.13 182.00 329.87 181.54 332.62 C 183.22 332.74 184.91 332.82 186.60 332.88 C 186.85 331.19 186.87 329.16 188.50 328.16 C 188.50 329.64 188.47 331.12 188.39 332.61 C 189.74 332.53 191.11 332.60 191.09 334.25 C 189.67 335.14 186.58 334.92 187.50 337.64 C 188.09 337.69 189.27 337.81 189.87 337.87 C 189.83 338.45 189.75 339.61 189.71 340.19 C 188.97 340.30 187.48 340.52 186.74 340.64 C 186.73 342.59 186.69 344.54 186.57 346.50 C 186.03 346.47 184.95 346.41 184.41 346.38 C 185.31 344.54 185.82 342.57 185.98 340.54 C 184.85 340.51 182.59 340.45 181.46 340.43 C 181.47 342.80 181.53 345.18 181.49 347.56 C 181.09 347.41 180.29 347.10 179.89 346.94 C 180.22 344.55 180.57 342.15 180.56 339.74 C 179.74 339.65 178.11 339.47 177.29 339.38 C 177.23 338.85 177.11 337.80 177.05 337.27 C 177.94 337.32 179.72 337.42 180.61 337.47 C 180.59 336.80 180.56 335.47 180.54 334.81 C 178.98 334.80 177.43 334.77 175.87 334.74 C 176.02 332.39 178.92 332.99 180.52 332.74 C 180.60 329.95 180.59 327.17 180.64 324.39 Z" />
<path fill="#090909" d=" M 216.52 324.35 C 216.95 324.36 217.80 324.38 218.23 324.40 C 218.24 325.66 218.26 326.92 218.27 328.20 C 219.98 328.35 222.00 328.18 222.72 330.16 C 221.23 330.38 219.73 330.57 218.23 330.71 C 218.24 331.16 218.25 332.04 218.25 332.49 C 219.50 333.34 221.81 334.05 221.39 336.03 C 221.51 338.12 218.95 338.85 217.67 340.06 C 217.53 341.14 217.39 342.23 217.27 343.32 C 216.77 343.38 215.78 343.50 215.28 343.56 C 215.32 342.88 215.38 341.52 215.42 340.83 C 214.63 340.00 214.14 339.02 213.94 337.88 C 214.56 337.85 215.78 337.77 216.39 337.74 C 216.41 337.32 216.44 336.50 216.46 336.09 C 217.06 336.25 218.25 336.56 218.84 336.72 C 218.87 336.39 218.92 335.73 218.95 335.40 C 218.41 335.51 217.34 335.73 216.81 335.84 C 216.14 334.69 215.08 333.90 214.19 332.95 C 213.67 330.94 215.13 329.50 216.52 328.34 C 216.51 327.01 216.51 325.68 216.52 324.35 Z" />
<path fill="#040404" d=" M 230.66 328.47 C 230.60 326.82 230.72 324.92 232.85 324.92 C 232.81 325.79 232.71 327.55 232.66 328.42 C 233.79 328.90 234.92 329.41 236.04 329.93 C 234.81 330.65 233.52 331.22 232.16 331.64 C 232.20 332.14 232.29 333.13 232.33 333.62 C 233.34 334.87 234.79 336.33 234.24 338.10 C 233.27 339.94 231.58 341.24 230.38 342.91 C 228.96 342.08 225.79 342.12 226.57 339.68 C 228.37 339.90 229.88 339.78 230.17 337.72 C 230.62 338.00 231.52 338.57 231.98 338.85 C 231.82 338.28 231.50 337.15 231.34 336.58 L 230.88 336.14 L 230.45 335.72 C 229.02 335.21 226.71 334.98 226.49 333.13 C 226.23 330.64 228.74 329.31 230.66 328.47 Z" />
<path fill="#050505" d=" M 196.24 326.67 C 197.66 326.20 199.22 324.98 200.51 326.42 C 201.03 329.32 200.14 333.20 197.04 334.28 C 195.13 334.85 194.16 333.01 193.15 331.83 C 194.42 331.40 195.73 331.32 197.08 331.58 C 197.39 330.91 198.01 329.57 198.33 328.90 C 196.88 328.82 196.25 327.98 196.24 326.67 Z" />
<path fill="#010101" d=" M 240.68 341.27 C 237.13 335.51 242.19 326.55 249.13 327.31 C 251.17 327.25 251.98 329.31 251.57 331.05 C 251.47 334.83 247.42 337.38 243.90 336.47 C 243.46 335.81 242.59 334.48 242.16 333.81 C 242.89 332.51 243.94 331.73 245.30 331.47 C 245.37 332.10 245.51 333.35 245.58 333.97 L 245.78 332.03 C 246.60 332.25 248.25 332.67 249.07 332.89 C 249.21 331.69 249.34 330.50 249.47 329.31 C 246.13 328.65 243.44 331.03 241.76 333.64 C 241.34 335.72 240.34 339.23 243.05 340.10 C 245.78 341.57 247.56 338.08 250.04 337.58 C 250.18 342.06 243.64 344.40 240.68 341.27 Z" />
<path fill="#060606" d=" M 202.61 329.08 C 203.16 329.13 204.27 329.24 204.82 329.30 C 204.23 331.54 203.19 333.61 201.97 335.57 C 203.88 335.99 206.03 336.11 207.53 337.53 C 207.94 339.47 207.94 342.14 205.88 343.16 C 204.37 344.10 202.87 342.83 201.55 342.21 C 201.59 340.31 201.65 338.40 201.63 336.50 C 200.19 339.59 199.21 342.87 197.86 346.00 C 197.42 346.29 196.55 346.87 196.11 347.16 C 196.11 345.71 196.17 344.20 197.01 342.97 C 198.96 339.79 200.39 336.34 202.30 333.14 C 202.41 331.78 202.52 330.43 202.61 329.08 Z" />
<path fill="#010101" d=" M 283.24 334.93 C 280.24 334.33 278.51 328.55 282.31 328.36 C 282.37 329.12 282.49 330.64 282.55 331.40 C 287.49 333.78 285.01 339.84 286.16 344.09 C 287.04 343.57 287.92 343.05 288.80 342.52 C 290.71 342.28 292.59 341.90 294.49 341.60 C 294.88 339.00 294.97 336.34 295.66 333.80 C 298.95 331.14 303.48 332.68 307.32 332.01 C 307.58 331.99 308.10 331.95 308.36 331.93 C 314.06 331.48 319.92 332.08 325.41 330.16 C 325.97 333.97 325.91 338.05 327.74 341.55 C 329.88 344.97 334.13 346.20 337.97 345.76 C 342.99 346.02 346.89 342.10 349.20 338.06 C 348.97 336.38 349.37 334.89 351.10 334.26 C 351.45 334.51 352.17 335.01 352.52 335.26 C 352.15 335.99 351.77 336.73 351.41 337.47 C 349.57 342.09 346.06 346.62 340.93 347.63 C 335.41 349.38 328.63 347.49 325.53 342.43 C 324.07 339.66 323.64 336.49 323.49 333.40 C 318.42 333.71 313.36 334.12 308.29 334.31 C 308.65 338.33 306.96 343.44 310.36 346.51 C 313.89 348.48 315.61 343.57 314.59 340.89 C 315.37 339.74 316.10 337.56 317.93 338.13 C 320.02 338.05 319.10 340.77 319.42 342.02 C 318.98 342.38 318.08 343.11 317.64 343.47 C 316.69 345.53 315.81 347.75 313.98 349.20 C 311.21 350.06 307.58 347.95 307.37 344.95 C 307.13 341.42 307.43 337.88 307.40 334.35 C 304.17 334.32 300.95 334.38 297.75 334.75 C 297.36 337.52 297.48 340.46 296.30 343.06 C 295.51 344.71 293.59 344.45 292.10 344.66 C 289.71 345.45 287.37 346.51 284.81 346.57 C 282.76 343.04 283.91 338.78 283.24 334.93 Z" />
<path fill="#f5f4f0" d=" M 229.04 331.50 C 230.62 330.81 231.18 331.31 230.71 332.98 C 229.12 333.66 228.56 333.17 229.04 331.50 Z" />
<path fill="#0f37fe" d=" M 431.92 332.61 C 442.22 331.18 452.63 331.03 463.01 331.12 C 469.91 331.49 476.89 331.13 483.68 332.67 L 482.70 333.00 C 482.43 333.03 481.88 333.09 481.61 333.12 C 468.67 331.64 455.56 331.15 442.57 332.45 C 437.15 332.31 432.29 334.92 427.11 336.02 C 426.43 332.98 429.85 332.89 431.92 332.61 Z" />
<path fill="#1f1f1e" d=" M 483.68 332.67 C 485.01 332.25 486.22 331.07 487.72 331.36 C 488.07 331.96 488.78 333.16 489.13 333.76 C 488.82 333.85 488.20 334.03 487.89 334.12 C 487.75 334.17 487.47 334.25 487.32 334.29 C 485.79 333.80 484.27 333.33 482.70 333.00 L 483.68 332.67 Z" />
<path fill="#dd4d0b" d=" M 481.61 333.12 C 481.88 333.09 482.43 333.03 482.70 333.00 C 484.27 333.33 485.79 333.80 487.32 334.29 C 481.88 336.57 476.23 338.36 470.91 340.93 C 463.05 344.89 454.36 346.73 446.40 350.46 C 439.63 353.68 432.43 356.08 426.08 360.12 C 422.87 362.00 419.41 363.41 416.26 365.38 C 414.54 366.09 412.83 366.82 411.13 367.56 C 409.12 366.99 406.50 367.43 406.17 369.91 L 406.40 370.15 C 406.05 370.41 405.36 370.92 405.02 371.18 C 393.32 377.96 381.62 384.83 370.55 392.62 C 366.22 395.81 361.58 398.69 357.95 402.72 C 356.84 401.36 354.84 400.22 355.17 398.20 C 359.04 395.34 363.02 392.67 367.05 390.06 C 373.60 383.63 382.92 381.53 390.03 375.90 C 395.73 372.08 402.36 369.91 407.93 365.87 C 413.49 362.02 420.33 360.67 425.91 356.85 C 431.49 353.04 438.23 351.50 443.99 347.99 C 448.33 345.30 453.22 343.71 458.18 342.63 C 466.58 341.04 473.39 335.28 481.61 333.12 Z" />
<path fill="#3e5dfc" d=" M 489.13 333.76 C 489.61 333.63 490.58 333.35 491.07 333.21 C 502.22 335.67 513.55 337.37 524.55 340.48 C 528.09 341.46 531.62 342.65 535.32 342.81 C 534.95 343.05 534.20 343.52 533.83 343.76 L 533.23 344.06 C 518.37 339.72 503.20 336.41 487.89 334.12 C 488.20 334.03 488.82 333.85 489.13 333.76 Z" />
<path fill="#de5211" d=" M 618.96 338.09 C 636.50 333.14 654.88 333.15 672.97 333.13 C 680.66 333.04 688.43 332.95 696.01 334.42 C 703.76 335.39 711.56 336.92 718.59 340.44 C 720.05 340.88 719.55 342.59 719.75 343.72 C 717.07 343.39 715.21 341.24 712.90 340.10 C 706.18 336.24 698.33 335.75 690.86 334.50 C 680.95 333.14 670.94 334.02 660.98 333.81 C 649.66 334.49 638.25 334.64 627.12 337.06 C 624.67 337.51 622.27 338.27 619.80 338.52 L 618.96 338.09 Z" />
<path fill="#d8d7d4" d=" M 181.47 337.67 C 180.49 333.95 184.52 335.08 186.66 334.77 C 186.61 335.47 186.51 336.86 186.46 337.56 C 184.80 337.65 183.14 337.69 181.47 337.67 Z" />
<path fill="#f5f4f0" d=" M 470.91 340.93 C 476.23 338.36 481.88 336.57 487.32 334.29 C 487.47 334.25 487.75 334.17 487.89 334.12 C 503.20 336.41 518.37 339.72 533.23 344.06 C 532.45 346.21 535.51 346.52 536.07 344.70 C 547.83 348.43 559.28 353.17 569.95 359.40 C 564.06 363.60 558.17 367.79 552.38 372.11 C 544.34 369.20 536.40 365.95 528.01 364.16 C 514.89 360.92 501.60 357.87 488.04 357.54 C 472.85 357.68 457.52 356.91 442.52 359.79 C 433.76 361.60 425.07 363.81 416.26 365.38 C 419.41 363.41 422.87 362.00 426.08 360.12 C 432.43 356.08 439.63 353.68 446.40 350.46 C 454.36 346.73 463.05 344.89 470.91 340.93 Z" />
<path fill="#f5f4f0" d=" M 204.82 341.39 C 203.04 341.34 203.05 338.13 204.81 338.04 C 206.33 338.32 206.15 340.94 204.82 341.39 Z" />
<path fill="#de5211" d=" M 583.78 351.92 C 594.44 347.44 604.61 341.72 615.89 338.83 C 616.01 338.97 616.26 339.26 616.38 339.40 C 609.83 341.54 603.23 343.59 597.10 346.80 C 588.64 350.84 579.60 353.88 571.99 359.51 C 571.69 359.36 571.09 359.05 570.79 358.89 C 575.21 356.75 579.21 353.80 583.78 351.92 Z" />
<path fill="#000000" d=" M 535.32 342.81 C 535.79 343.04 536.74 343.50 537.21 343.73 C 536.92 343.97 536.35 344.46 536.07 344.70 C 535.51 344.46 534.39 343.99 533.83 343.76 C 534.20 343.52 534.95 343.05 535.32 342.81 Z" />
<path fill="#f5f4f0" d=" M 932.19 349.34 C 934.85 345.37 939.31 342.43 944.21 342.47 C 944.34 342.98 944.61 344.01 944.74 344.52 C 950.86 343.58 958.06 344.81 961.87 350.16 C 965.20 354.86 963.89 360.82 963.65 366.15 C 963.11 371.09 959.55 374.86 956.31 378.32 C 952.27 382.32 946.01 381.40 940.92 380.60 C 935.15 379.74 930.83 375.07 928.51 370.00 C 927.52 363.04 928.04 355.29 932.19 349.34 Z" />
<path fill="#de5211" d=" M 533.23 344.06 L 533.83 343.76 C 534.39 343.99 535.51 344.46 536.07 344.70 C 535.51 346.52 532.45 346.21 533.23 344.06 Z" />
<path fill="#0f37fe" d=" M 536.07 344.70 C 536.35 344.46 536.92 343.97 537.21 343.73 L 537.74 343.80 C 542.83 346.57 548.48 348.02 553.76 350.37 C 559.71 352.64 565.11 356.06 570.79 358.89 C 571.09 359.05 571.69 359.36 571.99 359.51 C 581.54 365.09 591.07 370.82 601.40 374.88 L 601.58 375.90 C 601.62 376.13 601.69 376.61 601.72 376.84 C 601.64 377.37 601.46 378.43 601.38 378.95 C 600.96 378.64 600.14 378.01 599.72 377.69 C 599.53 377.54 599.13 377.25 598.93 377.10 C 590.32 370.39 580.58 365.39 571.13 360.00 C 570.84 359.85 570.24 359.55 569.95 359.40 C 559.28 353.17 547.83 348.43 536.07 344.70 Z" />
<path fill="#141414" d=" M 797.54 349.50 C 798.05 349.48 799.05 349.45 799.55 349.43 C 799.28 356.61 799.28 363.82 800.13 370.97 C 800.37 378.32 800.12 385.69 800.73 393.04 C 800.59 394.40 801.41 398.11 798.87 397.24 C 798.70 396.91 798.37 396.25 798.20 395.92 C 798.81 386.92 798.74 377.90 798.70 368.90 C 798.86 362.39 796.78 356.02 797.54 349.50 Z" />
<path fill="#f5f4f0" d=" M 909.04 354.86 C 911.42 356.36 914.35 357.66 915.34 360.53 C 916.03 362.78 915.39 365.15 914.76 367.33 C 915.38 362.28 912.40 358.22 909.04 354.86 Z" />
<path fill="#0f37fe" d=" M 442.52 359.79 C 457.52 356.91 472.85 357.68 488.04 357.54 C 501.60 357.87 514.89 360.92 528.01 364.16 C 536.40 365.95 544.34 369.20 552.38 372.11 C 553.20 372.40 554.04 372.70 554.86 373.04 C 561.32 375.90 567.69 379.24 573.04 383.90 C 575.08 386.07 578.27 388.02 577.55 391.50 C 577.51 391.30 577.43 390.91 577.39 390.71 C 574.85 391.29 574.19 388.64 572.99 387.07 C 568.21 380.16 560.61 375.80 552.77 373.25 C 552.66 373.20 552.44 373.12 552.33 373.07 C 537.54 366.66 521.72 363.13 505.94 360.16 C 492.43 357.66 478.66 358.49 465.00 358.55 C 453.62 358.39 442.35 360.36 431.34 363.09 C 424.08 364.45 416.84 366.09 410.04 369.06 C 408.97 370.86 406.92 371.11 405.02 371.18 C 405.36 370.92 406.05 370.41 406.40 370.15 C 408.13 369.63 409.88 368.93 411.13 367.56 C 412.83 366.82 414.54 366.09 416.26 365.38 C 425.07 363.81 433.76 361.60 442.52 359.79 Z" />
<path fill="#de5211" d=" M 667.91 357.89 C 685.34 356.86 702.94 357.57 720.05 361.21 C 723.85 361.99 727.19 364.07 730.79 365.43 C 730.77 366.04 730.73 367.25 730.71 367.86 C 727.54 368.02 725.57 365.22 722.80 364.27 C 716.02 362.13 709.24 359.42 702.01 359.42 C 693.43 358.08 684.73 358.40 676.08 358.50 C 667.71 358.43 659.34 359.36 651.18 361.17 C 645.34 362.32 639.46 363.36 633.85 365.39 C 623.13 369.18 612.30 372.66 601.72 376.84 C 601.69 376.61 601.62 376.13 601.58 375.90 C 613.93 371.37 626.32 366.93 638.86 362.96 C 648.43 360.69 658.08 358.58 667.91 357.89 Z" />
<path fill="#de5211" d=" M 552.38 372.11 C 558.17 367.79 564.06 363.60 569.95 359.40 C 570.24 359.55 570.84 359.85 571.13 360.00 C 565.09 363.48 559.42 367.73 554.86 373.04 C 554.04 372.70 553.20 372.40 552.38 372.11 Z" />
<path fill="#f5f4f0" d=" M 554.86 373.04 C 559.42 367.73 565.09 363.48 571.13 360.00 C 580.58 365.39 590.32 370.39 598.93 377.10 C 591.10 380.68 583.54 385.23 577.55 391.50 C 578.27 388.02 575.08 386.07 573.04 383.90 C 567.69 379.24 561.32 375.90 554.86 373.04 Z" />
<path fill="#161615" d=" M 865.17 361.34 C 868.20 361.26 871.76 360.78 874.30 362.81 C 876.04 367.73 873.84 373.84 869.18 376.34 C 867.91 376.24 866.70 375.94 865.54 375.46 C 863.75 370.89 866.53 366.00 865.17 361.34 Z" />
<path fill="#050505" d=" M 822.94 362.86 C 825.37 362.15 828.09 362.85 830.64 362.66 C 830.68 363.20 830.76 364.30 830.80 364.84 C 828.63 364.87 826.48 364.80 824.33 364.60 C 823.32 368.72 823.52 373.02 823.64 377.23 C 826.16 377.36 828.70 377.26 831.23 377.14 C 831.04 380.13 827.97 379.51 825.85 379.47 C 824.29 379.44 822.83 378.88 821.39 378.37 C 823.56 373.43 821.44 367.93 822.94 362.86 Z" />
<path fill="#040404" d=" M 850.56 362.33 C 851.03 362.35 851.98 362.38 852.45 362.40 C 852.11 365.26 851.76 368.15 850.81 370.88 C 850.59 372.78 850.45 374.68 850.40 376.60 C 852.99 376.53 855.32 375.37 857.60 374.25 C 857.63 374.90 857.69 376.20 857.71 376.85 C 854.79 377.84 851.21 379.54 848.43 377.31 C 849.51 372.37 850.33 367.38 850.56 362.33 Z" />
<path fill="#1d1d1c" d=" M 807.53 363.38 C 807.96 363.51 808.82 363.75 809.26 363.87 C 809.23 365.84 809.17 367.80 809.13 369.77 C 810.87 369.76 812.62 369.75 814.38 369.74 C 814.04 367.86 813.76 365.99 813.54 364.11 C 813.99 364.23 814.90 364.47 815.36 364.60 C 816.04 369.78 815.23 375.04 816.19 380.21 C 815.69 380.20 814.69 380.19 814.18 380.18 C 814.27 377.66 814.58 375.15 814.48 372.64 C 812.60 372.06 810.64 371.81 808.73 371.46 C 808.63 374.65 809.21 377.79 809.95 380.89 C 809.46 380.83 808.48 380.70 808.00 380.64 C 807.68 374.91 807.11 369.12 807.53 363.38 Z" />
<path fill="#181817" d=" M 837.96 368.99 C 838.01 366.72 836.26 363.49 839.01 362.22 C 840.30 366.93 839.11 371.80 839.27 376.59 C 841.39 376.73 843.53 376.81 845.67 376.84 C 845.73 377.35 845.85 378.37 845.91 378.88 C 843.13 378.63 839.86 379.46 837.50 377.62 C 836.58 374.76 838.73 371.90 837.96 368.99 Z" />
<path fill="#f5f4f0" d=" M 868.20 363.08 C 869.77 363.19 871.34 363.40 872.90 363.72 C 873.25 367.41 872.68 371.83 869.08 373.78 C 866.43 374.63 866.31 371.82 866.57 370.03 C 866.70 367.63 867.50 365.35 868.20 363.08 Z" />
<path fill="#272726" d=" M 406.17 369.91 C 406.50 367.43 409.12 366.99 411.13 367.56 C 409.88 368.93 408.13 369.63 406.40 370.15 L 406.17 369.91 Z" />
<path fill="#181818" d=" M 824.11 370.23 C 823.49 366.37 828.13 368.04 830.45 367.64 C 831.95 371.74 826.23 369.77 824.11 370.23 Z" />
<path fill="#dd4a05" d=" M 552.33 373.07 C 552.44 373.12 552.66 373.20 552.77 373.25 C 552.66 373.20 552.44 373.12 552.33 373.07 Z" />
<path fill="#de5211" d=" M 577.55 391.50 C 583.54 385.23 591.10 380.68 598.93 377.10 C 599.13 377.25 599.53 377.54 599.72 377.69 C 589.01 382.41 578.53 389.20 572.35 399.41 C 571.86 400.87 570.34 400.67 569.11 400.71 C 570.35 396.35 575.10 394.44 577.39 390.71 C 577.43 390.91 577.51 391.30 577.55 391.50 Z" />
<path fill="#000000" d=" M 220.60 378.61 C 220.95 378.22 221.64 377.44 221.99 377.05 C 223.58 382.67 225.92 388.09 228.79 393.18 C 231.00 397.74 234.22 401.62 237.89 405.09 C 243.59 412.40 250.62 418.63 258.34 423.76 C 261.94 426.16 264.92 429.52 268.97 431.24 C 270.29 429.69 271.26 426.73 273.81 427.34 C 275.28 430.24 277.21 433.31 276.59 436.71 C 273.94 436.13 271.25 435.65 268.53 435.70 C 268.18 434.66 267.84 433.62 267.50 432.59 C 263.79 430.36 261.24 426.71 257.50 424.52 C 247.64 418.35 239.76 409.64 232.18 400.96 C 229.71 397.00 227.38 392.96 225.21 388.83 C 223.41 385.59 220.98 382.38 220.60 378.61 Z" />
<path fill="#dd4e0c" d=" M 607.70 401.82 C 626.35 392.01 646.16 383.61 667.20 380.85 C 674.90 380.44 682.69 380.07 690.37 380.92 C 698.78 382.44 707.37 383.49 715.33 386.72 C 717.91 387.96 717.94 392.77 714.33 391.98 C 714.15 391.21 713.81 389.67 713.63 388.90 C 703.73 384.35 692.94 381.05 681.95 381.35 C 674.94 381.47 667.86 381.11 660.98 382.64 C 649.99 384.95 639.12 388.07 628.83 392.63 C 621.09 396.15 613.17 399.40 605.92 403.89 C 602.01 406.25 599.05 409.77 596.10 413.18 C 595.59 413.36 594.56 413.74 594.05 413.92 C 597.16 408.56 602.59 405.07 607.70 401.82 Z" />
<path fill="#1f1f1e" d=" M 975.14 393.01 C 978.08 388.95 979.02 383.86 979.77 379.00 L 980.84 380.12 C 979.56 386.86 977.94 396.66 969.80 398.05 C 970.40 395.34 973.78 395.19 975.14 393.01 Z" />
<path fill="#1d1d1c" d=" M 988.48 381.50 C 988.81 381.43 989.47 381.30 989.80 381.24 C 988.29 387.85 986.66 394.79 982.04 400.01 C 979.95 402.64 977.17 404.71 973.85 405.46 C 973.40 405.09 972.49 404.34 972.04 403.96 C 972.44 403.70 973.25 403.18 973.65 402.92 C 978.02 403.04 981.04 399.39 983.32 396.12 C 986.39 391.83 987.44 386.56 988.48 381.50 Z" />
<path fill="#0f37fe" d=" M 435.06 391.20 C 442.07 388.13 449.35 385.45 457.00 384.59 C 467.38 384.11 477.82 383.71 488.17 384.87 C 497.82 386.82 507.54 388.53 517.03 391.19 C 528.29 394.72 539.58 399.47 548.10 407.90 C 553.20 412.14 558.42 416.25 563.74 420.22 C 563.67 420.84 563.52 422.10 563.44 422.73 C 561.28 422.03 559.32 420.84 557.93 419.02 C 553.89 414.09 549.09 409.87 544.39 405.59 C 531.86 395.61 516.02 391.05 500.50 388.25 C 487.97 385.14 474.91 383.84 462.04 385.23 C 452.92 385.44 443.49 387.50 435.99 392.95 C 435.09 393.58 434.08 393.91 432.95 393.93 C 433.42 392.85 433.73 391.50 435.06 391.20 Z" />
<path fill="#1b1b1a" d=" M 903.23 393.07 C 903.39 390.67 902.62 387.48 905.25 386.14 C 906.02 389.10 904.30 391.99 904.64 394.99 C 905.08 401.50 906.94 408.37 911.79 413.01 C 911.63 413.44 911.31 414.29 911.15 414.72 C 906.24 408.62 903.17 400.95 903.23 393.07 Z" />
<path fill="#161615" d=" M 911.36 393.95 C 911.06 390.83 912.61 386.86 916.29 386.96 C 913.68 390.13 911.88 393.88 912.71 398.11 C 913.81 400.90 915.39 403.46 917.89 405.23 C 917.40 405.40 916.41 405.74 915.91 405.91 C 913.47 402.38 910.82 398.47 911.36 393.95 Z" />
<path fill="#1b1b1a" d=" M 996.50 390.28 C 996.80 390.30 997.39 390.35 997.69 390.38 C 996.30 395.66 995.51 401.47 991.78 405.73 C 989.47 408.55 986.08 410.71 982.33 410.47 C 982.36 410.03 982.44 409.15 982.48 408.72 C 986.52 408.89 990.11 406.53 992.26 403.23 C 994.78 399.35 995.49 394.70 996.50 390.28 Z" />
<path fill="#141414" d=" M 896.38 398.32 C 896.92 398.32 897.98 398.30 898.52 398.29 C 897.82 404.31 896.69 410.67 898.57 416.56 C 898.31 416.63 897.80 416.78 897.54 416.85 C 895.59 410.88 896.58 404.48 896.38 398.32 Z" />
<path fill="#3a3a39" d=" M 800.91 400.08 C 803.07 398.57 805.68 399.46 808.11 399.52 C 814.31 400.05 820.52 399.45 826.73 399.46 C 827.34 399.50 828.57 399.58 829.18 399.62 C 828.88 399.81 828.26 400.19 827.96 400.38 C 819.99 401.04 812.00 401.27 804.01 401.38 C 802.79 401.44 801.75 401.00 800.91 400.08 Z" />
<path fill="#030303" d=" M 316.71 404.83 C 324.78 402.34 333.58 403.94 341.70 401.40 C 341.69 401.65 341.66 402.14 341.65 402.38 C 334.03 404.24 326.01 404.00 318.53 406.53 C 315.43 415.47 313.34 424.78 309.13 433.30 L 310.55 433.53 C 310.54 434.10 310.51 435.24 310.50 435.81 C 311.16 436.74 311.85 437.65 312.58 438.55 C 314.22 438.41 315.84 438.01 317.44 437.60 C 315.86 432.68 319.32 428.58 322.67 425.50 C 325.87 422.75 330.64 421.28 334.45 423.72 C 334.74 427.91 334.32 432.95 330.62 435.63 C 327.33 438.17 323.34 441.64 319.00 439.25 C 317.57 439.76 316.16 440.29 314.74 440.82 C 316.57 441.83 318.37 442.91 320.14 444.03 C 321.54 448.24 324.57 451.64 326.02 455.83 C 326.97 458.31 328.23 460.66 329.51 462.99 C 327.72 467.72 323.12 470.28 319.69 473.68 C 318.26 474.99 317.15 476.96 314.99 477.06 C 314.91 474.18 318.01 473.33 319.81 471.78 C 322.68 469.57 325.91 466.82 326.67 463.15 C 324.38 457.73 322.31 452.23 319.04 447.29 C 314.69 448.23 311.06 450.88 307.22 452.95 C 300.28 456.94 295.46 463.67 288.56 467.71 C 288.56 467.18 288.57 466.12 288.57 465.58 C 291.27 462.56 294.64 460.23 297.98 457.97 C 304.27 453.52 310.58 449.07 317.15 445.04 C 313.29 443.02 310.16 439.88 308.15 436.03 C 302.65 439.54 296.81 442.55 291.73 446.70 C 288.03 450.32 283.35 453.11 280.82 457.77 C 278.91 461.45 275.80 464.24 273.33 467.52 C 276.77 469.73 280.40 471.62 283.93 473.68 C 286.47 471.56 288.70 469.06 291.48 467.22 C 291.30 470.68 287.85 472.33 286.08 474.93 C 288.16 478.92 293.55 479.67 296.47 482.94 C 297.41 485.44 295.17 487.16 293.55 488.63 C 287.87 493.31 282.07 497.84 276.17 502.24 C 276.21 502.67 276.28 503.51 276.32 503.93 C 279.80 506.05 283.85 506.93 287.84 507.55 C 287.84 508.13 287.85 509.30 287.85 509.88 C 282.86 509.08 277.42 507.96 273.60 504.45 C 272.07 501.59 275.42 499.79 277.41 498.49 C 282.81 495.82 287.34 491.81 291.86 487.90 C 293.13 486.90 293.71 485.37 294.30 483.94 C 286.74 478.74 279.59 472.70 271.03 469.16 C 267.93 470.92 266.82 474.97 264.85 477.84 C 262.74 481.16 261.24 484.83 258.99 488.06 C 258.47 488.15 257.43 488.34 256.91 488.43 C 249.47 482.87 244.57 474.71 239.85 466.87 C 238.50 467.12 237.67 468.15 236.97 469.25 C 236.52 469.35 235.62 469.53 235.17 469.63 C 235.07 467.45 236.36 465.37 238.24 464.34 C 240.77 463.35 242.00 466.21 243.03 467.93 C 246.70 474.71 251.20 481.11 257.30 485.93 C 259.94 482.87 262.35 479.59 264.45 476.14 C 266.06 473.46 266.88 470.30 268.94 467.91 C 274.90 463.25 278.56 456.31 284.53 451.62 L 285.33 451.47 C 290.15 446.54 295.68 442.38 301.52 438.74 C 306.38 436.06 308.59 430.73 311.19 426.13 C 312.92 420.84 315.21 415.61 315.69 410.00 C 315.84 408.24 316.25 406.53 316.71 404.83 Z" />
<path fill="#de5211" d=" M 672.05 405.59 C 682.58 405.90 693.04 402.68 703.56 404.44 C 703.58 404.99 703.63 406.11 703.65 406.66 C 701.09 407.30 698.51 406.64 695.95 406.50 C 681.60 406.06 667.22 406.36 652.97 408.02 C 645.87 409.04 638.68 410.57 632.48 414.36 C 625.72 418.78 618.37 423.07 614.18 430.26 C 613.28 431.79 610.68 435.48 609.60 432.08 C 613.55 426.31 619.24 422.00 624.80 417.87 C 629.22 414.95 633.41 411.48 638.41 409.59 C 649.43 406.91 660.79 406.46 672.05 405.59 Z" />
<path fill="#1038fe" d=" M 477.81 420.86 C 491.34 418.10 505.24 418.27 518.98 418.41 C 528.23 418.21 537.56 420.09 545.91 424.13 C 552.18 427.09 557.34 431.87 562.31 436.61 C 564.35 439.54 567.25 442.95 566.30 446.77 C 564.54 446.20 563.53 444.74 563.26 442.99 C 562.21 437.68 557.61 434.38 554.25 430.54 C 544.81 422.49 532.03 419.32 519.84 419.28 C 515.92 419.03 511.99 418.59 508.07 419.08 C 501.44 419.81 494.71 418.99 488.13 420.21 C 481.78 420.83 475.50 422.05 469.22 423.14 C 461.59 425.28 453.10 426.45 447.06 432.03 C 445.36 433.43 445.00 437.37 442.20 436.52 C 443.08 433.91 444.26 431.11 446.94 429.90 C 456.48 424.82 467.20 422.44 477.81 420.86 Z" />
<path fill="#f5f4f0" d=" M 324.83 426.58 C 327.20 425.50 329.93 423.95 332.48 425.46 C 332.20 428.78 331.45 432.37 328.56 434.44 C 326.20 436.54 321.94 439.54 319.43 436.09 C 318.77 432.09 321.88 428.77 324.83 426.58 Z" />
<path fill="#dd4e0c" d=" M 643.17 440.36 C 661.58 431.98 682.28 432.66 702.05 432.65 C 707.29 433.67 712.31 435.70 717.56 436.78 C 717.62 437.81 717.68 438.84 717.74 439.89 C 711.07 439.19 705.72 434.16 699.01 433.62 C 687.33 433.20 675.66 433.72 664.08 435.11 C 651.64 437.15 638.70 441.35 630.02 451.00 C 627.08 454.02 625.54 458.23 622.07 460.75 C 622.06 459.18 622.41 457.65 623.62 456.58 C 629.28 450.25 635.31 443.93 643.17 440.36 Z" />
<path fill="#0f37fe" d=" M 497.13 450.84 C 509.34 448.88 521.66 447.20 534.05 447.41 C 537.18 447.52 540.59 446.94 543.40 448.69 C 547.97 451.54 552.70 454.56 555.69 459.18 C 554.98 460.15 554.03 460.75 552.83 460.83 C 551.91 458.15 550.17 455.90 547.96 454.17 C 544.94 451.76 542.08 448.40 537.90 448.37 C 527.26 447.92 516.62 448.78 506.10 450.34 C 488.59 452.37 471.60 457.88 455.81 465.61 C 452.23 467.21 449.40 470.22 445.52 471.18 C 445.09 468.20 448.51 467.71 450.48 466.72 C 465.54 460.16 480.81 453.51 497.13 450.84 Z" />
<path fill="#dd4e0c" d=" M 685.37 465.54 C 688.49 465.44 691.62 464.95 694.74 465.32 C 696.80 465.84 694.45 468.41 693.15 467.77 C 683.73 467.67 674.06 466.43 664.89 469.25 C 656.57 471.67 647.62 475.17 642.73 482.78 C 642.01 484.23 639.84 483.97 640.60 481.95 C 643.03 477.54 647.89 475.47 652.18 473.30 C 662.40 468.03 673.93 465.76 685.37 465.54 Z" />
<path fill="#0f37fe" d=" M 511.71 473.71 C 519.07 472.49 526.60 473.39 534.03 473.34 C 539.14 473.60 544.91 473.31 549.03 476.90 C 550.74 478.48 555.24 480.34 552.11 482.83 C 548.77 480.56 546.07 477.13 542.04 476.05 C 532.17 473.23 521.84 473.85 511.71 473.71 Z" />
<path fill="#3e5dfc" d=" M 469.93 488.92 C 479.72 481.85 490.64 475.23 502.95 474.19 C 505.84 473.81 508.74 473.52 511.66 473.57 L 510.26 474.49 C 504.10 475.23 497.75 475.46 491.92 477.78 C 485.27 480.44 478.86 483.80 473.19 488.20 C 470.70 490.05 468.76 492.60 465.97 494.05 C 465.70 491.47 468.24 490.27 469.93 488.92 Z" />
<path fill="#dd4e0c" d=" M 671.90 490.95 C 678.01 488.13 684.83 487.84 691.44 487.60 C 691.41 488.53 691.90 490.35 690.35 490.34 C 685.68 491.23 680.86 490.17 676.20 491.23 C 667.97 492.79 659.74 495.97 653.52 501.73 C 652.80 502.22 652.03 502.58 651.19 502.81 C 651.92 499.10 655.74 497.42 658.64 495.62 C 662.71 493.16 667.64 492.98 671.90 490.95 Z" />
<path fill="#3e5dfc" d=" M 508.61 497.98 C 514.45 497.70 520.37 496.75 526.19 497.66 C 529.81 498.84 533.63 499.49 537.15 500.92 L 537.47 502.03 C 537.07 502.24 536.29 502.64 535.90 502.85 C 530.61 501.63 525.58 499.02 520.00 499.31 C 509.72 499.26 497.84 498.19 489.63 505.67 C 487.98 506.81 487.25 510.56 484.75 509.33 C 483.97 506.09 487.14 503.97 489.52 502.54 C 495.21 498.91 502.11 498.67 508.61 497.98 Z" />
<path fill="#de5211" d=" M 664.92 506.96 C 670.92 505.64 677.19 505.75 683.31 505.29 C 683.41 505.88 683.60 507.06 683.70 507.65 C 678.18 508.12 672.51 506.87 667.11 508.53 C 664.00 509.27 662.18 512.16 659.68 513.91 C 658.21 510.38 662.52 508.47 664.92 506.96 Z" />
<path fill="#0f37fe" d=" M 506.12 514.56 C 511.60 513.26 517.32 513.81 522.75 512.24 C 522.58 513.35 523.14 515.18 521.54 515.43 C 517.43 516.08 513.21 515.32 509.06 515.67 C 505.57 515.66 502.44 517.58 498.96 517.66 C 500.58 515.34 503.59 515.13 506.12 514.56 Z" />
<path fill="#000000" d=" M 661.97 530.06 C 664.87 527.18 669.18 527.48 672.94 527.40 C 675.76 527.48 678.95 526.86 681.42 528.65 C 684.54 530.75 687.54 533.13 690.03 535.97 C 694.14 541.41 695.69 548.26 696.09 554.95 C 697.15 561.37 695.56 567.91 692.30 573.46 C 688.39 578.31 684.57 583.71 683.81 590.07 C 683.36 596.79 676.69 602.38 669.95 601.31 C 663.48 599.28 658.70 593.32 657.65 586.69 C 660.09 585.18 660.39 588.56 661.04 589.96 C 662.07 593.76 665.36 596.28 668.51 598.33 C 672.25 599.70 676.87 598.58 679.16 595.17 C 682.01 592.56 681.21 588.42 682.49 585.11 C 684.25 580.93 686.32 576.81 689.37 573.40 C 694.79 566.52 694.28 557.28 693.26 549.08 C 692.25 545.05 690.68 541.07 688.42 537.59 C 685.30 534.67 682.26 531.18 678.16 529.72 C 673.17 529.68 667.32 528.58 663.22 532.19 C 661.04 534.09 658.67 536.13 657.64 538.92 C 657.22 542.91 657.70 546.95 657.32 550.95 L 655.80 550.16 C 654.97 546.26 655.11 542.08 655.42 538.10 C 656.53 534.74 659.53 532.47 661.97 530.06 Z" />
<path fill="#000000" d=" M 506.23 538.18 C 510.67 532.07 518.68 529.78 525.96 530.60 C 534.28 530.39 541.86 537.65 541.90 545.98 C 546.93 542.66 551.94 538.82 558.02 537.70 C 566.09 536.77 573.91 534.28 581.97 533.28 C 589.29 533.09 596.63 533.33 603.94 533.73 C 610.28 534.63 616.70 533.92 623.07 534.37 C 630.56 535.04 637.87 537.50 644.16 541.65 C 649.86 545.35 656.51 549.15 658.76 556.02 C 661.16 565.74 660.86 576.62 655.62 585.42 C 650.41 594.14 641.06 598.97 632.48 603.74 C 621.44 608.21 610.03 612.42 598.05 613.29 C 592.75 613.63 587.25 614.32 582.11 612.62 C 574.60 610.09 566.43 609.49 559.39 605.62 C 555.23 603.25 550.96 600.93 547.47 597.61 C 543.86 594.10 539.50 591.27 536.80 586.91 C 533.80 589.96 531.72 594.49 527.07 595.30 C 521.55 595.92 514.85 594.68 511.74 589.59 C 508.64 584.58 510.49 578.51 509.42 573.04 C 508.35 565.65 500.77 560.82 501.14 553.00 C 500.50 547.50 503.56 542.70 506.23 538.18 Z" />
<path fill="#f5f4f0" d=" M 513.23 535.21 C 518.58 531.82 525.20 532.76 531.09 533.81 C 535.42 535.88 539.16 540.10 539.51 545.05 C 539.05 544.08 538.60 543.11 538.18 542.14 C 532.36 537.18 524.37 536.57 517.09 537.43 C 511.95 539.14 509.01 544.21 507.33 549.05 C 505.13 556.52 508.51 564.08 512.75 570.13 C 515.30 572.64 513.17 576.95 516.11 579.07 C 518.83 574.18 515.02 569.19 512.52 565.11 C 509.54 560.50 508.27 554.82 509.68 549.46 C 511.31 545.47 513.50 540.98 517.94 539.60 C 523.75 539.06 530.11 539.37 535.06 542.82 C 537.59 544.69 537.92 548.01 538.79 550.81 C 532.96 558.13 532.29 568.11 532.77 577.10 C 532.97 580.09 535.53 583.00 534.08 585.98 C 532.32 589.11 529.87 592.40 526.14 593.20 C 522.23 593.45 518.06 592.53 515.00 589.99 C 512.92 587.93 512.36 584.85 512.41 582.05 C 512.36 575.38 511.73 568.13 507.28 562.79 C 503.47 558.15 502.16 551.38 504.76 545.84 C 506.65 541.70 508.84 537.18 513.23 535.21 Z" />
<path fill="#0c0c0c" d=" M 662.73 538.72 C 667.02 534.00 673.90 533.00 679.96 533.53 C 684.35 534.40 686.95 538.37 688.99 542.00 C 692.32 547.78 691.36 554.72 691.21 561.09 C 689.56 566.73 687.45 572.26 684.75 577.50 C 684.29 579.01 683.11 580.01 681.71 580.65 C 680.78 576.79 684.27 574.00 685.30 570.54 C 686.28 566.98 688.18 563.72 688.94 560.10 C 689.74 552.33 689.05 543.58 683.13 537.83 C 679.94 534.79 675.21 535.95 671.32 536.46 C 667.58 537.25 663.30 539.74 663.05 543.99 C 662.67 545.35 662.94 547.51 660.77 547.05 C 660.18 544.13 660.62 540.92 662.73 538.72 Z" />
<path fill="#f5f4f0" d=" M 624.13 551.19 C 624.97 549.66 626.68 549.09 628.12 548.28 C 629.54 549.35 630.97 550.59 631.43 552.41 C 633.74 559.41 635.62 566.88 634.42 574.28 C 631.32 570.88 626.72 568.67 622.07 569.50 C 616.61 570.26 612.59 574.76 611.13 579.89 C 607.84 577.63 604.44 575.16 602.55 571.56 C 602.17 569.83 601.90 567.21 604.08 566.62 C 608.64 565.20 612.09 561.81 615.78 558.95 C 618.73 556.55 622.04 554.45 624.13 551.19 Z" />
<path fill="#f5f4f0" d=" M 553.78 559.49 C 554.16 557.12 555.39 554.72 557.71 553.75 C 559.09 553.59 560.48 553.45 561.89 553.35 C 570.02 555.15 577.60 558.90 584.44 563.60 C 585.93 564.85 589.22 565.33 588.42 567.93 C 586.89 570.53 586.98 573.63 586.24 576.48 C 585.43 578.79 583.69 580.60 582.16 582.47 C 581.85 582.51 581.22 582.59 580.91 582.63 C 580.04 574.28 570.98 568.13 562.90 569.98 C 558.89 570.75 555.72 573.39 552.89 576.16 C 552.17 570.58 553.15 565.02 553.78 559.49 Z" />
<path fill="#3a3a39" d=" M 627.37 556.66 C 626.06 555.94 626.02 555.24 627.27 554.59 C 628.58 555.33 628.62 556.02 627.37 556.66 Z" />
<path fill="#000000" d=" M 523.47 562.86 C 525.74 561.48 527.95 558.69 530.86 559.49 C 530.77 564.53 530.96 569.70 529.28 574.54 C 523.71 574.20 522.43 567.26 523.47 562.86 Z" />
<path fill="#000000" d=" M 666.45 560.61 C 668.22 560.42 670.01 560.06 671.80 560.29 C 673.40 561.45 674.41 563.21 675.55 564.79 C 675.42 568.26 676.08 572.56 673.01 575.02 C 671.20 577.36 668.05 576.90 665.55 576.26 C 664.60 570.94 667.49 565.90 666.45 560.61 Z" />
<path fill="#2e2d2d" d=" M 526.23 564.08 C 527.57 564.26 527.44 566.69 526.14 566.85 C 524.82 566.58 524.94 564.28 526.23 564.08 Z" />
<path fill="#0f37fe" d=" M 521.35 606.59 C 522.38 606.43 523.41 606.29 524.45 606.16 C 526.12 612.35 524.65 618.71 524.61 624.99 C 524.40 634.39 524.12 643.78 524.33 653.19 C 526.68 653.28 527.76 655.95 526.86 657.94 C 525.67 661.36 526.11 665.85 522.92 668.22 C 521.56 669.25 520.12 667.48 519.76 666.31 C 518.81 662.49 517.53 658.77 516.63 654.95 C 517.34 653.19 519.10 653.52 520.63 653.55 C 521.78 643.07 521.37 632.50 521.93 621.99 C 522.28 616.86 522.55 611.64 521.35 606.59 Z" />
<path fill="#dd4e0c" d=" M 670.64 607.80 C 674.66 606.53 673.37 611.61 673.65 614.00 C 672.99 629.07 672.00 644.13 670.55 659.14 C 673.24 659.16 674.58 661.98 673.39 664.26 C 671.90 667.44 671.73 671.96 668.08 673.54 C 667.55 673.38 666.49 673.08 665.95 672.93 C 664.59 669.35 663.24 665.76 662.18 662.09 C 661.86 659.29 665.17 660.42 666.81 660.63 C 669.10 650.23 669.28 639.54 670.22 628.97 C 670.57 621.91 670.64 614.85 670.64 607.80 Z" />
<path fill="#090909" d=" M 530.94 691.11 C 537.95 690.71 545.00 690.89 551.98 690.00 C 554.03 689.57 556.97 690.56 556.61 693.12 C 556.54 707.73 556.43 722.36 557.17 736.96 C 556.75 740.42 556.92 744.13 555.42 747.36 C 553.64 748.87 551.19 748.58 549.04 748.62 C 543.87 748.29 538.82 749.68 533.67 749.78 C 530.82 750.55 527.85 750.23 524.95 750.27 C 508.51 750.25 492.02 752.51 475.65 750.36 C 472.85 748.30 473.11 744.03 472.11 740.93 C 470.73 734.32 468.34 727.86 468.41 721.02 C 467.13 712.38 466.19 703.57 466.63 694.86 C 469.04 692.27 473.02 692.91 476.18 693.25 C 478.62 691.01 482.01 691.62 485.03 691.65 C 500.34 691.94 515.64 690.93 530.94 691.11 Z" />
<path fill="#020202" d=" M 677.07 692.15 C 679.20 689.47 683.01 690.33 686.00 690.18 C 693.20 689.58 698.68 695.87 701.09 701.99 C 702.56 711.12 699.68 720.78 693.38 727.53 C 688.22 731.65 680.72 729.52 675.65 726.30 C 671.53 722.53 674.29 716.31 673.30 711.48 C 669.48 711.39 665.87 712.77 662.11 713.14 C 653.95 713.48 645.76 712.75 637.62 713.53 C 637.25 718.07 637.94 722.92 635.97 727.16 C 634.31 728.09 632.48 726.88 630.81 726.68 C 629.66 728.03 628.25 729.04 626.40 728.83 C 626.02 723.16 626.83 717.47 626.21 711.82 C 625.59 709.32 621.90 709.74 621.35 707.00 C 622.66 705.42 623.53 702.55 625.98 702.61 C 634.98 702.58 644.01 702.48 653.00 703.01 C 659.46 702.92 665.92 702.71 672.39 702.69 C 672.48 703.19 672.66 704.18 672.75 704.67 C 660.51 704.69 648.25 704.45 636.01 704.95 C 632.38 704.78 628.72 704.80 625.14 705.47 C 624.84 705.92 624.24 706.81 623.93 707.26 C 628.29 709.60 633.29 707.68 637.98 708.23 C 638.11 708.76 638.36 709.80 638.48 710.32 C 635.03 710.28 631.57 710.22 628.12 710.17 C 628.37 715.14 628.39 720.12 628.75 725.09 C 629.13 724.28 629.51 723.47 629.88 722.66 C 631.50 723.06 632.96 723.89 634.41 724.72 C 635.58 720.86 635.13 716.84 635.40 712.89 C 636.27 711.16 638.33 711.26 639.97 710.98 C 646.95 710.39 653.97 710.83 660.96 710.71 C 665.64 710.79 670.19 708.18 674.86 709.66 C 674.50 706.89 674.44 704.10 674.49 701.32 C 673.87 701.28 672.62 701.18 672.00 701.13 C 672.74 697.69 675.16 694.99 677.07 692.15 Z" />
<path fill="#f5f4f0" d=" M 489.00 692.76 C 510.78 692.54 532.58 690.77 554.34 692.42 C 556.07 699.82 555.33 707.48 555.44 715.02 C 555.14 725.42 555.78 735.99 553.33 746.20 C 543.30 747.73 533.23 749.75 523.03 749.40 C 507.58 749.48 492.11 749.52 476.70 748.28 C 474.86 745.46 474.00 742.20 472.89 739.07 C 469.98 727.30 469.07 715.10 469.21 703.00 C 469.22 700.59 468.89 698.21 468.66 695.83 C 473.02 694.70 477.52 694.44 482.02 694.54 C 484.56 694.85 486.42 692.47 489.00 692.76 Z" />
<path fill="#f5f4f0" d=" M 675.33 699.11 C 677.28 696.25 678.76 691.84 682.88 691.84 C 685.34 691.86 687.86 692.07 690.25 692.75 C 694.10 694.64 696.96 698.21 698.68 702.07 C 698.99 707.81 699.39 714.10 696.24 719.21 C 694.41 722.28 692.88 726.20 689.10 727.28 C 685.25 727.82 681.32 726.89 677.94 725.05 C 674.71 723.06 675.91 718.75 675.87 715.63 C 677.53 718.89 679.25 722.39 682.49 724.39 C 687.13 725.83 691.64 722.71 694.12 718.98 C 698.22 713.85 696.40 706.86 696.31 700.85 C 695.56 699.49 694.83 698.13 694.12 696.77 C 688.01 693.70 680.59 694.96 675.33 699.11 Z" />
<path fill="#f5f4f0" d=" M 676.54 702.62 C 679.70 697.24 686.93 696.12 692.32 698.58 C 694.68 701.95 694.37 706.13 694.33 710.04 C 694.75 715.26 691.13 720.73 686.13 722.31 C 682.56 723.26 680.62 719.50 679.33 716.86 C 677.90 712.25 676.76 707.47 676.54 702.62 Z" />
<path fill="#222222" d=" M 515.71 706.50 C 516.13 706.16 516.97 705.48 517.40 705.14 C 517.48 706.54 517.44 707.95 517.29 709.37 C 521.57 710.06 519.90 717.29 516.55 717.65 C 516.95 715.72 517.42 713.82 517.61 711.87 C 516.10 713.41 516.79 715.88 516.37 717.83 C 515.61 721.96 518.08 726.36 515.75 730.21 C 515.15 731.40 515.22 732.78 515.03 734.08 C 514.59 734.23 513.72 734.53 513.28 734.69 C 513.30 733.90 513.32 732.32 513.33 731.53 C 512.84 731.25 511.85 730.67 511.35 730.39 C 511.16 727.94 510.47 724.34 513.37 723.19 C 513.36 725.20 513.27 727.22 513.35 729.25 C 515.28 725.84 514.51 721.75 513.76 718.12 C 512.78 714.02 515.67 710.52 515.71 706.50 Z" />
<path fill="#272726" d=" M 488.61 708.30 C 489.11 708.31 490.11 708.33 490.61 708.34 C 490.25 710.97 489.66 713.56 489.13 716.17 C 490.71 716.37 492.92 715.73 493.85 717.47 C 492.08 717.61 490.31 717.55 488.55 717.50 C 487.97 719.47 487.31 721.41 486.53 723.31 C 487.95 724.19 490.96 723.90 490.66 726.34 C 488.50 726.12 486.35 725.99 484.19 725.93 C 484.89 724.65 485.65 723.39 486.08 721.99 C 486.43 720.46 486.74 718.93 487.01 717.40 C 484.66 717.42 482.32 717.47 479.98 717.52 L 479.70 718.52 C 479.12 720.31 478.59 722.12 478.12 723.96 C 477.91 723.94 477.48 723.89 477.26 723.87 C 477.71 721.82 478.11 719.76 478.50 717.71 C 476.93 717.43 475.38 716.99 474.16 715.93 C 475.58 715.12 477.09 714.95 478.70 715.42 C 478.65 713.43 479.04 711.49 480.05 709.76 C 481.10 711.63 480.73 713.72 480.47 715.75 C 482.82 715.81 485.17 715.85 487.53 715.84 C 487.98 713.34 488.32 710.82 488.61 708.30 Z" />
<path fill="#242424" d=" M 502.28 710.00 C 502.19 708.58 503.89 707.96 504.33 709.47 C 502.75 717.78 498.84 725.44 497.21 733.74 C 496.72 733.19 495.74 732.89 495.71 732.10 C 498.69 725.00 501.01 717.60 502.28 710.00 Z" />
<path fill="#1c1c1b" d=" M 522.74 721.95 C 520.73 717.22 522.47 712.38 524.91 708.22 C 526.80 710.97 529.86 713.22 528.86 717.06 C 526.42 717.04 527.03 714.10 525.58 712.83 C 524.80 716.86 524.22 721.05 525.48 725.05 C 526.50 728.03 525.17 730.94 523.94 733.62 C 522.78 732.81 521.65 732.01 520.51 731.20 C 520.00 727.90 521.47 724.89 522.74 721.95 Z" />
<path fill="#050505" d=" M 495.54 709.81 C 496.82 709.62 498.04 709.21 499.19 708.58 C 502.14 710.94 500.00 717.34 495.98 716.39 C 493.65 714.88 494.86 711.91 495.54 709.81 Z" />
<path fill="#f5f4f0" d=" M 496.94 713.66 C 496.05 712.78 496.79 709.74 498.27 710.86 C 499.07 711.76 498.45 714.45 496.94 713.66 Z" />
<path fill="#10100f" d=" M 535.17 720.14 C 536.95 715.65 542.27 712.04 547.10 713.93 C 549.93 714.86 548.75 718.82 547.77 720.85 C 545.99 724.70 541.23 724.72 537.61 724.38 C 537.36 722.48 537.40 720.56 537.55 718.67 C 539.09 718.21 540.62 718.20 542.17 718.65 C 542.62 719.81 543.10 720.99 543.59 722.16 C 545.90 720.77 547.31 718.25 546.63 715.52 C 538.74 713.07 533.36 722.16 534.40 728.99 C 535.93 731.46 540.13 731.01 541.67 728.68 C 542.42 727.51 543.45 726.85 544.87 727.34 C 543.89 732.34 535.52 734.67 532.70 730.01 C 532.26 726.55 533.87 723.25 535.17 720.14 Z" />
<path fill="#f5f4f0" d=" M 479.98 717.52 C 482.32 717.47 484.66 717.42 487.01 717.40 C 486.74 718.93 486.43 720.46 486.08 721.99 C 485.76 722.24 485.13 722.74 484.81 722.99 C 483.06 724.48 480.64 723.68 478.58 723.90 C 478.94 722.10 479.31 720.30 479.70 718.52 L 479.98 717.52 Z" />
<path fill="#383837" d=" M 478.12 723.96 C 478.59 722.12 479.12 720.31 479.70 718.52 C 479.31 720.30 478.94 722.10 478.58 723.90 C 480.64 723.68 483.06 724.48 484.81 722.99 C 485.13 722.74 485.76 722.24 486.08 721.99 C 485.65 723.39 484.89 724.65 484.19 725.93 C 486.35 725.99 488.50 726.12 490.66 726.34 C 488.90 726.67 487.11 726.79 485.34 726.89 C 484.80 729.56 484.58 732.42 483.07 734.78 C 482.72 734.36 482.00 733.54 481.65 733.12 C 482.89 730.93 483.91 728.62 484.25 726.10 C 482.12 726.10 480.01 726.16 477.90 726.26 C 477.31 728.16 477.88 732.68 474.55 731.43 C 475.25 729.86 475.97 728.32 476.68 726.77 C 475.95 725.79 475.28 724.78 474.66 723.75 C 475.31 723.78 476.61 723.84 477.26 723.87 C 477.48 723.89 477.91 723.94 478.12 723.96 Z" />
<path fill="#060606" d=" M 501.43 729.35 C 500.23 726.26 501.00 722.23 503.81 720.28 C 504.84 721.57 506.00 722.77 507.04 724.09 C 508.15 726.59 506.81 729.87 504.08 730.62 C 503.42 730.30 502.09 729.67 501.43 729.35 Z" />
<path fill="#686866" d=" M 539.43 720.96 C 542.48 719.51 539.47 724.26 539.43 720.96 Z" />
<path fill="#f5f4f0" d=" M 503.30 724.01 C 506.14 723.94 505.85 728.01 503.22 728.10 C 503.22 726.73 503.25 725.37 503.30 724.01 Z" />
<path fill="#f5f4f0" d=" M 522.34 730.21 C 522.66 728.64 522.04 726.21 523.71 725.30 C 523.53 726.97 523.07 728.67 522.34 730.21 Z" />
</svg>
