<?xml version="1.0" encoding="UTF-8" ?>
<!DOCTYPE svg PUBLIC "-//W3C//DTD SVG 1.1//EN" "http://www.w3.org/Graphics/SVG/1.1/DTD/svg11.dtd">
<svg width="1155pt" height="866pt" viewBox="0 0 1155 866" version="1.1" xmlns="http://www.w3.org/2000/svg">
<path fill="#f5f4f0" d=" M 0.00 0.00 L 1155.00 0.00 L 1155.00 866.00 L 0.00 866.00 L 0.00 0.00 Z" />
<path fill="#000000" d=" M 618.18 130.54 C 619.21 130.55 620.24 130.52 621.28 130.45 C 622.29 137.62 620.95 144.92 622.11 152.06 C 621.82 154.24 621.56 156.43 621.24 158.61 C 620.26 158.67 619.29 158.74 618.32 158.81 C 618.40 156.00 618.60 153.20 618.71 150.39 C 617.01 150.51 614.94 150.24 613.85 151.86 C 611.71 154.14 612.51 157.54 612.38 160.37 C 614.96 161.71 617.89 161.33 620.70 161.50 C 619.49 166.90 610.52 164.60 609.56 159.98 C 609.24 156.12 609.41 151.34 612.78 148.78 C 614.49 147.39 616.73 147.54 618.81 147.50 C 618.71 141.85 618.98 136.16 618.18 130.54 Z" />
<path fill="#000000" d=" M 485.80 152.14 C 482.30 145.67 488.18 138.75 494.05 136.42 C 497.70 135.72 503.09 135.71 504.50 139.92 C 505.15 142.88 501.56 141.13 500.81 140.02 C 497.79 138.06 493.23 139.03 490.96 141.85 C 488.69 143.74 485.96 147.93 488.74 150.37 C 494.26 151.69 500.44 149.43 505.60 152.34 C 509.63 154.63 508.92 160.01 508.67 163.92 C 507.50 167.67 503.76 170.07 500.16 171.18 C 495.92 172.24 490.96 173.19 487.09 170.53 C 485.70 170.12 486.67 168.65 486.71 167.70 C 488.36 167.34 489.55 168.78 490.95 169.36 C 494.07 169.56 497.16 169.06 500.20 168.36 C 502.73 166.91 505.68 165.27 506.20 162.11 C 506.14 158.84 505.81 154.81 502.12 153.70 C 496.69 153.45 490.84 154.70 485.80 152.14 Z" />
<path fill="#000000" d=" M 516.75 135.61 C 517.41 135.63 518.71 135.67 519.37 135.70 C 520.07 140.02 519.49 144.44 519.57 148.81 C 521.61 147.68 524.00 146.74 526.34 147.54 C 529.83 150.24 529.63 154.97 529.68 158.93 C 529.56 162.41 530.03 165.95 529.37 169.39 C 528.74 169.40 527.47 169.41 526.84 169.41 C 526.36 162.99 527.96 156.08 525.18 150.04 C 521.63 149.68 520.36 153.31 519.68 156.09 C 519.04 159.23 518.99 162.46 518.51 165.63 C 516.82 167.66 515.15 164.72 515.72 163.03 C 517.30 153.97 516.52 144.76 516.75 135.61 Z" />
<path fill="#000000" d=" M 277.21 141.14 C 287.58 138.32 298.39 139.81 308.98 139.43 C 314.76 138.92 320.65 141.22 324.78 145.24 C 329.89 152.19 332.17 160.74 333.88 169.08 C 337.14 177.00 336.08 185.64 336.25 193.98 C 336.29 195.90 335.88 197.78 335.45 199.64 C 333.97 199.76 332.49 199.85 331.02 199.94 C 327.63 199.73 324.25 199.58 320.86 199.38 C 320.56 198.82 319.97 197.68 319.67 197.12 C 320.07 194.38 320.05 191.02 323.35 190.22 C 323.32 189.84 323.25 189.07 323.21 188.69 C 321.99 188.22 320.76 187.76 319.54 187.32 C 318.15 180.90 319.26 174.16 317.14 167.84 C 316.69 166.06 316.48 164.24 316.33 162.43 L 315.37 162.44 C 315.47 161.99 315.68 161.08 315.79 160.63 L 314.86 160.44 C 314.05 158.10 313.30 155.18 310.70 154.25 C 304.22 151.30 296.87 152.68 290.06 153.41 C 284.66 153.83 279.48 156.12 275.76 160.08 C 272.16 162.90 268.90 166.47 267.76 171.02 C 265.12 180.49 264.22 190.50 265.32 200.28 C 265.23 205.11 266.01 209.86 266.82 214.60 C 278.89 214.12 290.96 214.24 303.03 214.55 C 313.33 215.03 323.62 213.75 333.93 214.27 C 335.10 214.45 336.59 214.28 337.34 215.44 C 339.10 222.95 336.18 230.44 336.63 237.99 C 336.80 245.49 335.79 252.93 335.45 260.40 C 333.34 267.87 335.33 275.83 333.22 283.23 C 318.18 284.35 303.10 285.43 288.00 285.13 C 278.04 283.93 268.01 284.12 258.00 284.11 C 254.89 284.21 251.76 284.30 248.72 283.58 C 248.38 279.76 247.02 275.82 248.22 272.03 C 247.52 262.33 245.67 252.64 246.91 242.90 C 247.53 239.26 247.22 235.59 246.86 231.95 C 247.29 227.09 246.75 222.13 245.22 217.50 C 247.50 216.36 250.01 215.79 252.51 215.36 C 252.00 206.91 252.46 198.44 252.31 189.98 C 251.99 179.73 253.31 169.38 256.30 159.58 C 259.17 150.17 267.55 142.87 277.21 141.14 Z" />
<path fill="#8dabac" d=" M 272.36 145.37 C 284.79 140.93 298.13 142.94 311.03 142.27 C 316.68 142.57 322.61 145.68 324.92 151.08 C 328.81 157.43 329.14 165.06 331.60 171.95 C 334.65 180.05 332.38 188.81 333.28 197.21 C 329.74 197.11 326.21 196.86 322.68 196.71 C 322.74 196.03 322.86 194.66 322.92 193.98 C 324.11 193.46 325.30 192.95 326.50 192.44 C 326.44 190.10 326.19 187.75 325.33 185.56 C 324.61 185.54 323.16 185.50 322.44 185.48 C 321.06 181.15 322.15 176.54 321.18 172.14 C 320.42 168.61 320.13 164.99 319.21 161.51 C 317.97 158.63 316.57 155.78 314.81 153.18 C 309.40 149.36 302.38 149.13 296.00 149.75 C 291.61 150.29 287.14 150.59 282.91 151.96 C 278.02 153.43 274.34 157.17 270.69 160.53 C 264.56 166.25 263.56 175.09 262.41 182.93 C 262.22 193.53 261.47 204.37 263.91 214.77 C 260.79 214.67 257.67 214.79 254.59 215.29 C 255.73 210.61 255.16 205.77 255.25 201.01 C 255.44 191.14 254.53 181.16 256.59 171.42 C 257.30 164.40 259.29 157.36 263.64 151.70 C 266.09 149.04 269.14 146.96 272.36 145.37 Z" />
<path fill="#020202" d=" M 562.24 143.53 C 562.84 143.50 564.06 143.42 564.66 143.38 C 565.38 145.47 565.52 147.67 565.56 149.87 C 569.68 149.94 573.19 147.24 577.28 147.31 C 577.33 147.82 577.43 148.83 577.48 149.34 C 573.68 151.25 569.63 152.63 565.42 153.23 C 565.44 157.32 565.41 161.41 565.44 165.50 C 564.46 165.54 563.50 165.61 562.55 165.71 C 562.45 158.32 562.47 150.92 562.24 143.53 Z" />
<path fill="#000000" d=" M 537.02 151.84 C 536.70 148.35 540.33 146.79 543.08 145.89 C 545.03 145.41 547.70 145.04 549.04 146.95 C 551.69 150.10 552.48 154.32 553.32 158.24 C 552.80 158.41 551.75 158.73 551.23 158.90 C 549.32 156.71 546.32 156.94 543.76 157.55 C 542.84 160.01 542.43 162.59 542.50 165.21 C 544.49 166.61 547.15 167.53 549.47 166.29 C 551.28 165.09 552.45 163.10 554.46 162.17 C 555.90 165.48 552.65 167.87 550.07 169.21 C 546.34 170.78 541.00 169.36 539.79 165.15 C 539.37 161.40 539.86 156.65 543.51 154.59 C 545.32 153.97 547.32 154.34 549.22 154.23 C 548.65 152.27 547.91 150.37 547.10 148.51 C 543.00 147.43 540.78 151.93 537.02 151.84 Z" />
<path fill="#000000" d=" M 587.48 150.50 C 589.95 148.24 593.55 146.87 596.65 148.76 C 597.34 154.55 591.64 159.22 586.13 158.44 C 586.18 160.08 586.23 161.72 586.33 163.36 C 587.88 163.71 589.42 164.25 591.03 164.32 C 593.34 163.97 595.39 162.70 597.72 162.34 C 597.49 163.41 598.13 165.21 596.61 165.53 C 592.60 167.56 586.87 167.95 583.70 164.32 C 582.62 159.57 583.32 153.63 587.48 150.50 Z" />
<path fill="#f5f4f0" d=" M 586.85 155.48 C 588.47 153.00 590.98 151.44 593.65 150.32 C 593.30 152.79 591.26 154.22 589.24 155.37 C 588.64 155.39 587.45 155.45 586.85 155.48 Z" />
<path fill="#000000" d=" M 893.04 158.55 C 899.48 156.29 906.15 154.45 913.00 154.23 C 919.30 153.91 926.10 152.02 932.03 155.01 C 936.98 157.38 942.71 159.16 945.91 163.97 C 947.85 167.16 950.21 170.25 951.03 173.98 C 953.38 186.03 952.21 198.36 952.54 210.56 C 953.87 210.92 955.21 211.28 956.57 211.63 C 956.84 213.73 957.20 215.83 957.27 217.97 C 957.53 230.00 959.74 241.91 959.55 253.97 C 959.40 261.81 960.43 269.90 958.40 277.56 C 950.62 277.92 942.85 278.31 935.06 278.45 C 928.33 278.43 921.75 280.12 915.04 280.30 C 901.36 281.07 887.61 282.27 873.92 281.35 C 873.63 280.81 873.05 279.73 872.75 279.19 C 872.21 270.74 870.99 262.32 869.04 254.08 C 867.06 245.18 867.14 236.02 867.35 226.96 C 867.43 224.98 867.62 223.00 868.13 221.08 C 868.34 218.69 867.97 216.22 868.57 213.88 C 870.36 212.11 873.07 211.97 875.44 211.63 C 879.51 211.21 883.64 211.48 887.62 212.47 C 888.32 202.31 886.55 192.08 887.83 181.96 C 889.54 176.93 893.51 172.72 898.02 170.01 C 904.83 166.85 912.48 165.41 919.98 165.70 C 927.04 165.91 934.39 170.09 936.47 177.16 C 941.06 188.04 940.32 199.95 940.46 211.48 C 942.88 211.45 945.31 211.41 947.75 211.37 C 947.59 200.87 948.19 190.34 947.42 179.86 C 947.13 174.30 944.62 169.09 941.07 164.89 C 938.11 161.97 934.07 160.58 930.43 158.72 C 926.27 156.52 921.46 157.47 916.98 157.48 C 907.77 157.55 898.27 158.80 890.05 163.18 C 886.03 166.05 882.33 169.80 880.22 174.31 C 878.68 179.71 879.34 185.45 879.17 191.00 C 878.98 197.58 879.27 204.16 880.39 210.65 C 879.70 210.62 878.32 210.57 877.64 210.54 C 875.27 202.68 876.71 194.37 875.86 186.32 C 875.98 182.92 876.32 179.52 876.72 176.14 C 877.55 171.36 880.92 167.72 884.09 164.29 C 886.48 161.60 889.76 159.90 893.04 158.55 Z" />
<path fill="#8ba9ab" d=" M 890.05 163.18 C 898.27 158.80 907.77 157.55 916.98 157.48 C 921.46 157.47 926.27 156.52 930.43 158.72 C 934.07 160.58 938.11 161.97 941.07 164.89 C 944.62 169.09 947.13 174.30 947.42 179.86 C 948.19 190.34 947.59 200.87 947.75 211.37 C 945.31 211.41 942.88 211.45 940.46 211.48 C 940.32 199.95 941.06 188.04 936.47 177.16 C 934.39 170.09 927.04 165.91 919.98 165.70 C 912.48 165.41 904.83 166.85 898.02 170.01 C 893.51 172.72 889.54 176.93 887.83 181.96 C 886.55 192.08 888.32 202.31 887.62 212.47 C 883.64 211.48 879.51 211.21 875.44 211.63 C 873.74 206.60 874.68 201.23 874.44 196.03 C 874.68 192.80 873.69 189.09 875.86 186.32 C 876.71 194.37 875.27 202.68 877.64 210.54 C 878.32 210.57 879.70 210.62 880.39 210.65 C 879.27 204.16 878.98 197.58 879.17 191.00 C 879.34 185.45 878.68 179.71 880.22 174.31 C 882.33 169.80 886.03 166.05 890.05 163.18 Z" />
<path fill="#98b2b3" d=" M 267.76 171.02 C 268.90 166.47 272.16 162.90 275.76 160.08 C 275.17 165.88 270.45 170.25 269.47 176.02 C 266.41 183.78 266.49 192.15 265.32 200.28 C 264.22 190.50 265.12 180.49 267.76 171.02 Z" />
<path fill="#f5f4f0" d=" M 906.43 170.34 C 914.66 167.95 925.35 167.01 931.57 174.14 C 938.29 185.35 937.31 198.86 937.32 211.42 C 924.12 211.74 910.90 211.04 897.73 211.83 L 897.68 211.70 C 897.58 211.43 897.36 210.90 897.25 210.63 C 895.29 211.07 893.35 211.50 891.42 211.94 C 891.54 203.80 890.19 195.30 893.05 187.47 C 894.20 183.86 896.99 181.20 899.25 178.28 C 901.44 175.46 903.80 172.77 906.43 170.34 Z" />
<path fill="#97b2b3" d=" M 890.62 183.01 C 893.27 176.52 899.26 171.10 906.43 170.34 C 903.80 172.77 901.44 175.46 899.25 178.28 C 896.99 181.20 894.20 183.86 893.05 187.47 C 890.19 195.30 891.54 203.80 891.42 211.94 C 893.35 211.50 895.29 211.07 897.25 210.63 C 897.36 210.90 897.58 211.43 897.68 211.70 C 895.36 212.21 892.99 212.36 890.63 212.44 C 890.91 202.63 889.67 192.80 890.62 183.01 Z" />
<path fill="#dd4e0c" d=" M 997.44 182.62 C 1011.51 178.94 1027.20 188.49 1030.67 202.56 C 1034.74 216.12 1026.62 231.67 1013.29 236.26 C 1004.99 239.16 995.22 238.24 987.94 233.17 C 979.73 227.78 974.87 217.76 975.66 207.97 C 976.29 195.95 985.65 185.05 997.44 182.62 Z" />
<path fill="#13b824" d=" M 191.44 184.69 C 203.77 181.91 217.06 191.28 218.48 203.83 C 220.05 213.49 214.54 223.66 205.65 227.68 C 201.41 229.78 196.53 230.14 191.89 229.49 C 181.33 227.80 172.81 217.74 173.21 206.99 C 172.89 196.42 181.17 186.70 191.44 184.69 Z" />
<path fill="#050505" d=" M 604.10 184.58 C 608.43 184.01 613.27 182.63 617.37 184.75 C 623.71 189.62 627.98 196.99 629.66 204.75 C 630.36 213.85 631.52 222.94 631.28 232.07 C 631.33 233.51 631.06 235.16 629.82 236.06 C 629.40 227.58 629.70 219.07 628.65 210.64 C 628.55 209.77 628.43 208.91 628.30 208.05 C 626.80 200.87 623.69 193.80 618.55 188.49 C 614.76 184.52 608.78 186.01 604.02 186.83 C 598.62 187.56 594.87 192.21 593.12 197.06 C 591.74 200.99 592.14 205.24 591.35 209.28 C 588.58 207.47 589.78 203.69 590.09 200.99 C 590.85 193.45 596.04 185.44 604.10 184.58 Z" />
<path fill="#bbc7c6" d=" M 604.02 186.83 C 608.78 186.01 614.76 184.52 618.55 188.49 C 623.69 193.80 626.80 200.87 628.30 208.05 C 628.03 210.34 626.22 211.71 624.52 212.99 C 623.51 207.68 622.49 202.37 621.32 197.09 C 620.36 193.52 618.20 189.85 614.72 188.31 C 609.68 187.29 604.78 189.93 601.01 193.03 C 597.62 195.90 596.68 200.47 596.41 204.69 C 596.15 205.04 595.63 205.73 595.37 206.07 C 595.59 212.32 595.15 218.60 595.77 224.84 C 596.58 230.55 597.62 236.24 599.02 241.83 C 599.06 242.80 599.14 244.73 599.18 245.70 C 597.20 245.33 595.10 244.89 593.95 243.07 C 592.67 238.63 594.54 233.49 591.73 229.55 C 591.02 228.63 590.65 227.60 590.61 226.46 C 590.59 225.68 590.60 224.90 590.64 224.13 C 591.03 220.58 590.49 217.05 589.01 213.81 C 587.05 214.20 585.10 214.61 583.15 215.02 C 583.65 217.81 584.17 220.60 584.70 223.39 C 583.92 223.56 582.36 223.90 581.58 224.07 C 581.48 222.44 581.58 220.80 581.62 219.18 C 576.72 218.38 571.77 218.83 566.89 219.46 C 555.61 220.03 544.29 219.14 533.02 219.67 C 526.45 220.53 519.78 221.16 513.21 219.91 C 508.00 219.80 502.06 219.21 497.57 222.31 C 503.69 223.16 509.87 222.84 516.01 222.53 C 521.40 222.23 526.67 223.62 531.99 224.27 C 538.13 225.14 544.40 223.97 550.50 225.33 C 540.34 226.05 530.15 225.63 519.97 225.68 C 513.32 225.88 506.66 224.54 500.04 225.59 C 501.94 230.01 502.03 234.83 501.78 239.56 C 499.55 239.14 497.27 239.19 495.61 240.94 C 495.04 240.04 494.48 239.15 493.93 238.25 C 491.72 238.88 489.87 240.21 488.22 241.76 C 488.44 235.97 489.05 230.18 488.38 224.40 C 488.47 224.10 488.65 223.49 488.74 223.19 C 491.44 223.09 494.15 222.99 496.85 222.87 C 496.77 222.20 496.60 220.88 496.51 220.22 C 493.88 220.21 491.23 220.64 489.11 222.30 C 485.69 221.91 482.43 220.61 480.86 217.36 C 483.88 215.39 487.49 215.17 490.99 215.18 C 496.42 212.96 502.37 213.65 508.08 213.82 C 529.72 213.40 551.36 214.00 573.00 214.22 C 578.24 214.43 583.53 214.37 588.68 213.25 C 589.00 212.85 589.63 212.05 589.95 211.65 C 590.51 210.92 590.98 210.13 591.35 209.28 C 592.14 205.24 591.74 200.99 593.12 197.06 C 594.87 192.21 598.62 187.56 604.02 186.83 Z" />
<path fill="#010101" d=" M 601.01 193.03 C 604.78 189.93 609.68 187.29 614.72 188.31 C 618.20 189.85 620.36 193.52 621.32 197.09 C 622.49 202.37 623.51 207.68 624.52 212.99 C 624.75 214.75 624.88 216.52 625.04 218.29 C 626.00 227.52 624.37 236.98 620.49 245.40 C 618.71 249.38 614.94 252.30 610.57 252.77 C 608.66 252.65 606.77 252.49 604.88 252.34 C 603.80 250.99 602.72 249.67 601.78 248.24 C 600.71 246.17 599.80 244.02 599.02 241.83 C 597.62 236.24 596.58 230.55 595.77 224.84 C 595.15 218.60 595.59 212.32 595.37 206.07 C 595.63 205.73 596.15 205.04 596.41 204.69 C 596.68 200.47 597.62 195.90 601.01 193.03 Z" />
<path fill="#f5f4f0" d=" M 610.59 190.73 C 615.07 189.29 618.24 194.22 619.04 197.99 C 620.63 206.26 623.27 214.45 622.75 222.98 C 623.25 229.69 621.60 236.29 619.37 242.56 C 617.67 246.81 613.81 250.47 608.96 250.31 C 604.79 250.80 603.16 246.20 601.97 243.07 C 597.97 228.96 595.73 213.72 599.68 199.36 C 601.28 194.66 605.97 191.82 610.59 190.73 Z" />
<path fill="#6e8384" d=" M 629.66 204.75 C 633.36 215.00 630.49 226.21 632.20 236.75 C 631.57 237.31 630.87 237.68 630.11 237.86 C 629.84 237.53 629.28 236.87 629.00 236.54 C 628.96 240.81 627.17 244.77 625.60 248.66 C 624.46 251.38 621.68 252.80 619.28 254.22 C 614.55 256.69 609.35 258.61 603.97 258.70 C 602.30 258.89 601.10 257.54 599.91 256.64 C 602.41 256.50 604.93 256.65 607.42 256.32 C 608.94 255.72 609.51 253.90 610.57 252.77 C 614.94 252.30 618.71 249.38 620.49 245.40 C 624.37 236.98 626.00 227.52 625.04 218.29 C 625.91 218.36 626.78 218.42 627.66 218.50 C 628.10 215.89 628.53 213.28 628.65 210.64 C 629.70 219.07 629.40 227.58 629.82 236.06 C 631.06 235.16 631.33 233.51 631.28 232.07 C 631.52 222.94 630.36 213.85 629.66 204.75 Z" />
<path fill="#13b824" d=" M 358.80 216.04 C 365.59 212.89 372.49 209.95 379.40 207.07 C 381.02 210.46 379.62 214.14 379.46 217.68 C 400.25 219.62 421.14 221.11 442.03 219.86 C 447.14 219.47 452.28 219.55 457.41 219.55 C 457.44 220.55 457.50 221.54 457.60 222.54 C 434.11 222.70 410.52 223.73 387.13 220.92 C 384.41 220.54 381.66 220.52 378.93 220.51 C 378.59 223.36 378.46 226.38 376.90 228.90 C 374.76 228.77 373.01 227.33 371.06 226.60 C 365.97 224.30 360.14 223.68 355.45 220.54 C 354.33 218.29 357.20 216.94 358.80 216.04 Z" />
<path fill="#90a2a3" d=" M 628.30 208.05 C 628.43 208.91 628.55 209.77 628.65 210.64 C 628.53 213.28 628.10 215.89 627.66 218.50 C 626.78 218.42 625.91 218.36 625.04 218.29 C 624.88 216.52 624.75 214.75 624.52 212.99 C 626.22 211.71 628.03 210.34 628.30 208.05 Z" />
<path fill="#020202" d=" M 559.96 212.52 C 568.97 212.15 578.04 212.84 586.97 211.35 C 587.71 211.42 589.20 211.57 589.95 211.65 C 589.63 212.05 589.00 212.85 588.68 213.25 C 583.53 214.37 578.24 214.43 573.00 214.22 C 551.36 214.00 529.72 213.40 508.08 213.82 C 502.37 213.65 496.42 212.96 490.99 215.18 C 487.49 215.17 483.88 215.39 480.86 217.36 C 479.30 218.51 477.10 220.46 478.52 222.56 C 481.24 224.73 485.12 223.98 488.38 224.40 C 489.05 230.18 488.44 235.97 488.22 241.76 C 489.87 240.21 491.72 238.88 493.93 238.25 C 494.48 239.15 495.04 240.04 495.61 240.94 C 497.27 239.19 499.55 239.14 501.78 239.56 C 502.03 234.83 501.94 230.01 500.04 225.59 C 506.66 224.54 513.32 225.88 519.97 225.68 C 530.15 225.63 540.34 226.05 550.50 225.33 C 560.91 224.46 571.36 225.27 581.77 224.63 C 584.73 224.49 587.69 224.36 590.64 224.13 C 590.60 224.90 590.59 225.68 590.61 226.46 C 585.42 227.14 580.18 227.33 574.96 226.88 C 561.96 227.47 548.93 227.11 535.93 227.90 C 533.00 228.54 530.04 228.07 527.10 227.88 C 522.12 228.24 517.05 228.65 512.09 227.85 C 509.47 227.65 506.85 227.53 504.24 227.34 C 503.88 232.54 505.09 238.17 502.89 243.04 C 501.43 244.99 499.50 242.70 498.97 241.16 C 498.31 242.03 497.65 242.90 497.01 243.78 C 496.00 243.61 494.99 243.46 493.98 243.32 C 493.71 242.79 493.17 241.73 492.90 241.21 C 491.50 241.45 491.09 243.11 489.92 243.74 C 488.77 243.80 487.62 243.76 486.48 243.63 C 485.73 237.98 486.85 232.30 486.62 226.63 C 482.64 226.56 477.43 226.50 475.52 222.21 C 474.95 218.43 478.70 216.05 481.66 214.65 C 484.21 213.10 487.23 213.17 490.11 213.07 C 500.19 212.38 510.38 213.19 520.50 212.75 C 533.64 211.92 546.81 212.68 559.96 212.52 Z" />
<path fill="#5b6c72" d=" M 938.24 214.33 C 943.60 214.73 948.92 213.98 954.25 213.52 C 954.25 215.19 954.27 216.86 954.30 218.54 C 952.58 218.30 950.87 218.05 949.17 217.80 C 948.88 221.10 948.75 224.49 947.50 227.61 C 946.96 224.12 947.14 220.58 947.56 217.10 C 945.26 216.89 942.44 215.63 940.57 217.56 C 939.48 218.94 939.38 220.81 938.96 222.46 C 938.35 219.79 938.14 217.06 938.24 214.33 Z" />
<path fill="#f5f4f0" d=" M 583.15 215.02 C 585.10 214.61 587.05 214.20 589.01 213.81 C 590.49 217.05 591.03 220.58 590.64 224.13 C 587.69 224.36 584.73 224.49 581.77 224.63 L 581.58 224.07 C 582.36 223.90 583.92 223.56 584.70 223.39 C 584.17 220.60 583.65 217.81 583.15 215.02 Z" />
<path fill="#e0e2e0" d=" M 871.10 215.38 C 873.96 214.68 876.91 214.32 879.87 214.60 L 878.90 215.34 C 876.09 215.87 873.66 217.39 871.28 218.88 C 871.23 218.01 871.14 216.26 871.10 215.38 Z" />
<path fill="#79888e" d=" M 914.56 214.13 C 922.45 214.29 930.34 214.30 938.24 214.33 C 938.14 217.06 938.35 219.79 938.96 222.46 C 938.71 223.69 938.50 224.92 938.30 226.16 C 938.09 224.75 937.87 223.35 937.65 221.96 C 935.44 222.34 932.65 222.03 931.28 224.20 C 928.93 227.85 929.40 232.41 930.04 236.49 C 930.93 236.49 931.82 236.49 932.73 236.47 C 930.90 240.19 931.12 244.60 928.97 248.16 C 925.61 243.43 927.79 237.03 925.03 232.00 C 924.23 229.90 921.82 229.58 919.93 229.10 C 917.28 228.56 914.65 227.86 911.94 227.71 C 908.88 228.00 906.13 229.78 903.03 229.87 C 901.25 229.75 899.52 229.26 897.81 228.85 C 903.33 225.12 910.04 224.11 916.16 221.75 C 922.77 220.79 929.68 222.45 936.03 219.83 C 935.08 219.07 934.13 218.31 933.19 217.56 C 928.44 219.94 922.79 221.77 917.69 219.31 C 913.58 216.96 909.86 220.97 906.06 222.09 C 903.40 223.05 900.71 223.95 897.92 224.43 C 898.55 223.60 899.19 222.77 899.83 221.94 C 893.52 220.06 887.02 221.29 880.59 221.53 C 880.42 219.94 880.25 218.36 880.05 216.78 C 877.97 217.85 874.82 218.34 874.34 221.08 C 873.36 224.05 873.45 227.22 874.09 230.25 C 874.70 237.13 874.79 244.04 875.40 250.92 C 875.39 253.86 878.54 255.01 880.15 257.01 C 880.48 262.14 881.42 268.03 877.97 272.38 C 875.98 275.14 879.35 277.10 881.10 278.76 C 879.31 278.87 877.53 279.03 875.75 279.17 C 875.49 276.98 875.15 274.79 875.15 272.58 C 875.92 266.87 874.93 261.21 873.85 255.62 C 873.15 245.77 869.93 236.06 871.61 226.12 C 871.23 226.28 870.46 226.60 870.08 226.76 C 870.44 224.20 870.71 221.64 870.97 219.07 L 871.28 218.88 C 873.66 217.39 876.09 215.87 878.90 215.34 C 883.95 215.70 888.98 214.30 894.01 215.01 C 900.16 216.64 906.60 216.46 912.91 216.06 C 913.28 215.62 914.03 214.75 914.40 214.31 L 914.56 214.13 Z" />
<path fill="#b3babb" d=" M 894.01 215.01 C 900.73 213.80 907.61 214.17 914.40 214.31 C 914.03 214.75 913.28 215.62 912.91 216.06 C 906.60 216.46 900.16 216.64 894.01 215.01 Z" />
<path fill="#dd4e0c" d=" M 836.31 216.29 C 838.61 216.25 840.98 216.08 843.20 216.85 C 848.10 218.39 853.87 219.32 856.88 224.01 C 853.22 226.81 848.57 227.50 844.53 229.55 C 841.32 230.93 838.11 232.99 834.46 232.49 C 834.85 229.79 835.25 227.08 835.52 224.36 C 819.69 224.58 803.81 224.69 788.03 223.45 C 776.65 223.15 765.28 222.84 753.93 222.07 C 748.98 221.56 744.00 221.74 739.04 221.73 C 717.04 221.77 695.03 221.73 673.02 221.77 C 663.19 221.46 653.42 222.96 643.59 222.40 C 643.52 221.43 643.45 220.47 643.37 219.51 C 654.57 219.66 665.73 218.44 676.94 218.81 C 705.63 219.11 734.35 218.09 763.02 219.66 C 773.66 220.79 784.41 219.83 795.04 221.27 C 808.42 221.67 821.82 221.95 835.21 221.45 C 835.51 219.72 835.88 217.99 836.31 216.29 Z" />
<path fill="#6a7a82" d=" M 248.80 219.07 C 256.70 216.93 264.90 217.71 272.98 217.33 C 286.85 217.05 300.71 217.79 314.59 217.45 C 313.25 218.93 312.36 221.79 309.86 221.26 C 305.84 220.79 301.69 221.27 298.12 223.25 C 297.28 224.17 296.97 225.43 296.43 226.53 C 302.43 226.12 308.47 226.30 314.42 225.36 C 316.85 225.11 319.26 224.76 321.67 224.40 C 321.66 224.81 321.63 225.62 321.61 226.03 C 319.51 226.64 317.42 227.29 315.34 227.96 C 315.27 229.49 315.21 231.02 315.14 232.56 C 313.17 232.61 311.19 232.66 309.22 232.73 C 307.87 235.31 306.29 237.79 305.22 240.51 C 303.68 245.28 305.70 251.06 302.22 255.20 C 298.88 257.63 294.72 259.26 293.04 263.39 C 291.69 263.55 290.34 263.72 288.99 263.88 C 288.01 266.42 287.06 268.96 286.13 271.51 C 284.52 270.85 283.02 269.62 281.22 269.60 C 279.89 270.27 278.91 271.45 277.80 272.42 C 275.38 272.07 272.96 271.70 270.55 271.33 C 270.47 273.82 270.37 276.32 270.27 278.82 C 275.56 279.40 280.80 280.33 286.11 280.73 C 286.86 281.23 287.60 281.75 288.36 282.26 C 279.26 281.47 270.13 281.03 261.00 281.31 C 259.26 281.18 257.37 281.65 255.76 280.82 C 254.29 280.01 252.54 279.08 250.91 280.08 C 251.34 277.24 251.34 274.36 251.07 271.51 C 252.75 271.56 254.44 271.62 256.13 271.69 C 256.15 272.20 256.20 273.23 256.23 273.74 C 254.75 274.55 253.24 275.30 251.75 276.07 C 252.72 277.13 253.50 278.59 255.06 278.86 C 259.52 280.32 264.31 280.32 268.89 279.42 C 268.83 278.79 268.71 277.53 268.65 276.90 C 268.61 276.40 268.53 275.40 268.49 274.90 C 268.47 273.46 268.47 272.03 268.50 270.59 C 265.90 269.85 263.31 269.11 260.72 268.36 C 259.73 269.21 258.75 270.07 257.80 270.98 C 257.32 266.76 257.48 262.51 257.57 258.28 C 257.74 256.75 257.95 255.23 258.20 253.72 C 258.75 255.22 259.30 256.72 259.84 258.23 C 262.23 258.02 265.14 257.46 265.77 254.71 C 267.87 249.52 264.35 244.51 260.86 240.98 C 260.12 244.07 259.42 247.17 258.79 250.28 C 258.52 242.02 259.97 233.58 257.63 225.49 C 270.49 226.74 283.45 224.71 296.24 226.94 C 296.23 223.32 292.86 219.68 289.09 220.89 C 284.26 221.95 279.23 221.02 274.46 222.41 C 270.30 223.82 266.23 220.90 262.04 221.71 C 258.80 222.24 255.64 223.13 252.44 223.81 C 251.33 232.51 250.32 241.26 250.46 250.04 C 250.12 248.64 249.80 247.25 249.51 245.85 C 250.01 236.93 250.94 227.87 248.80 219.07 Z" />
<path fill="#58666e" d=" M 314.59 217.45 C 317.92 217.26 321.26 217.09 324.57 216.62 L 324.57 217.14 C 324.58 217.45 324.59 218.07 324.60 218.38 C 326.10 218.72 327.64 219.04 329.00 219.80 C 323.91 220.52 318.64 220.09 313.72 221.80 C 309.46 223.28 304.90 223.26 300.53 224.22 C 305.15 224.70 309.81 224.71 314.42 225.36 C 308.47 226.30 302.43 226.12 296.43 226.53 C 296.97 225.43 297.28 224.17 298.12 223.25 C 301.69 221.27 305.84 220.79 309.86 221.26 C 312.36 221.79 313.25 218.93 314.59 217.45 Z" />
<path fill="#89959a" d=" M 324.57 217.14 C 327.99 216.70 331.46 216.61 334.87 217.23 C 335.83 222.56 334.15 227.79 333.66 233.06 C 333.55 238.81 333.93 244.58 333.07 250.29 C 332.80 248.37 332.47 246.46 332.22 244.53 C 332.39 238.68 332.60 232.82 332.46 226.96 C 332.46 224.91 331.64 223.01 330.79 221.20 C 330.34 220.85 329.45 220.15 329.00 219.80 C 327.64 219.04 326.10 218.72 324.60 218.38 C 324.59 218.07 324.58 217.45 324.57 217.14 Z" />
<path fill="#4f5e66" d=" M 874.34 221.08 C 874.82 218.34 877.97 217.85 880.05 216.78 C 880.25 218.36 880.42 219.94 880.59 221.53 C 879.10 221.72 877.61 221.92 876.13 222.13 C 876.08 222.47 875.98 223.16 875.92 223.50 C 875.33 225.75 874.63 227.98 874.09 230.25 C 873.45 227.22 873.36 224.05 874.34 221.08 Z" />
<path fill="#37474e" d=" M 940.57 217.56 C 942.44 215.63 945.26 216.89 947.56 217.10 C 947.14 220.58 946.96 224.12 947.50 227.61 C 948.75 224.49 948.88 221.10 949.17 217.80 C 950.87 218.05 952.58 218.30 954.30 218.54 C 954.70 225.37 955.07 232.21 955.97 239.00 C 956.83 245.63 956.49 252.33 956.79 258.99 C 956.93 264.27 957.69 269.63 956.45 274.85 C 956.05 273.09 955.68 271.33 955.33 269.58 C 954.97 270.87 954.61 272.17 954.26 273.48 C 948.50 273.85 942.72 273.70 936.99 274.41 C 938.96 274.40 940.93 274.39 942.92 274.52 L 943.83 275.72 C 938.72 275.83 933.60 276.39 928.51 275.91 C 923.01 275.21 917.46 275.70 911.96 275.97 C 910.53 275.94 909.63 277.24 908.57 277.96 L 907.88 278.54 C 907.32 278.40 906.20 278.12 905.64 277.98 C 900.78 276.73 894.73 275.40 890.42 278.68 L 889.85 279.07 C 887.14 279.22 884.43 279.23 881.73 279.30 L 881.10 278.76 C 879.35 277.10 875.98 275.14 877.97 272.38 C 881.42 268.03 880.48 262.14 880.15 257.01 C 878.54 255.01 875.39 253.86 875.40 250.92 C 874.79 244.04 874.70 237.13 874.09 230.25 C 874.63 227.98 875.33 225.75 875.92 223.50 C 878.16 229.79 876.95 236.54 878.27 243.00 C 879.54 249.87 880.34 256.88 882.52 263.55 C 885.09 263.02 887.70 262.61 890.32 262.27 C 890.69 263.92 891.07 265.58 891.48 267.24 C 892.23 265.13 892.98 263.03 893.75 260.93 C 896.12 261.63 898.35 262.78 900.27 264.38 C 901.42 262.84 902.36 260.93 904.25 260.17 C 908.06 258.42 911.79 256.25 915.98 255.55 C 921.10 254.85 924.93 251.04 928.97 248.16 C 931.12 244.60 930.90 240.19 932.73 236.47 C 934.12 236.36 935.49 236.14 936.86 235.80 C 937.43 232.60 937.72 229.36 938.30 226.16 C 938.50 224.92 938.71 223.69 938.96 222.46 C 939.38 220.81 939.48 218.94 940.57 217.56 Z" />
<path fill="#d8dedb" d=" M 478.52 222.56 C 477.10 220.46 479.30 218.51 480.86 217.36 C 482.43 220.61 485.69 221.91 489.11 222.30 L 488.74 223.19 C 488.65 223.49 488.47 224.10 488.38 224.40 C 485.12 223.98 481.24 224.73 478.52 222.56 Z" />
<path fill="#45545c" d=" M 906.06 222.09 C 909.86 220.97 913.58 216.96 917.69 219.31 C 922.79 221.77 928.44 219.94 933.19 217.56 C 934.13 218.31 935.08 219.07 936.03 219.83 C 929.68 222.45 922.77 220.79 916.16 221.75 C 912.80 222.12 909.42 222.03 906.06 222.09 Z" />
<path fill="#8c9fa0" d=" M 497.57 222.31 C 502.06 219.21 508.00 219.80 513.21 219.91 C 519.78 221.16 526.45 220.53 533.02 219.67 C 544.29 219.14 555.61 220.03 566.89 219.46 C 571.77 218.83 576.72 218.38 581.62 219.18 C 581.58 220.80 581.48 222.44 581.58 224.07 L 581.77 224.63 C 571.36 225.27 560.91 224.46 550.50 225.33 C 544.40 223.97 538.13 225.14 531.99 224.27 C 526.67 223.62 521.40 222.23 516.01 222.53 C 509.87 222.84 503.69 223.16 497.57 222.31 Z" />
<path fill="#314048" d=" M 313.72 221.80 C 318.64 220.09 323.91 220.52 329.00 219.80 C 329.45 220.15 330.34 220.85 330.79 221.20 C 328.36 221.61 325.91 221.98 323.47 222.35 C 323.51 230.25 324.47 238.12 324.41 246.03 C 325.27 254.01 325.58 262.03 325.72 270.05 C 326.00 272.24 323.69 273.27 322.50 274.70 C 324.48 275.00 326.44 275.32 328.41 275.68 C 324.68 279.54 317.62 279.11 313.76 275.58 C 316.95 274.79 315.35 271.99 313.47 270.84 C 312.04 271.43 310.72 272.57 309.14 272.61 C 307.15 271.73 305.47 270.32 303.70 269.09 C 303.31 270.64 302.92 272.19 302.53 273.74 C 298.56 273.54 294.59 274.10 290.63 273.68 C 286.20 273.36 280.99 273.21 277.82 276.87 C 280.68 277.92 283.61 278.92 286.11 280.73 C 280.80 280.33 275.56 279.40 270.27 278.82 C 270.37 276.32 270.47 273.82 270.55 271.33 C 272.96 271.70 275.38 272.07 277.80 272.42 C 278.91 271.45 279.89 270.27 281.22 269.60 C 283.02 269.62 284.52 270.85 286.13 271.51 C 287.06 268.96 288.01 266.42 288.99 263.88 C 290.34 263.72 291.69 263.55 293.04 263.39 C 294.72 259.26 298.88 257.63 302.22 255.20 C 305.70 251.06 303.68 245.28 305.22 240.51 C 306.29 237.79 307.87 235.31 309.22 232.73 C 311.19 232.66 313.17 232.61 315.14 232.56 C 315.21 231.02 315.27 229.49 315.34 227.96 C 317.42 227.29 319.51 226.64 321.61 226.03 C 321.63 225.62 321.66 224.81 321.67 224.40 C 319.26 224.76 316.85 225.11 314.42 225.36 C 309.81 224.71 305.15 224.70 300.53 224.22 C 304.90 223.26 309.46 223.28 313.72 221.80 Z" />
<path fill="#a6b5b5" d=" M 489.11 222.30 C 491.23 220.64 493.88 220.21 496.51 220.22 C 496.60 220.88 496.77 222.20 496.85 222.87 C 494.15 222.99 491.44 223.09 488.74 223.19 L 489.11 222.30 Z" />
<path fill="#425159" d=" M 274.46 222.41 C 279.23 221.02 284.26 221.95 289.09 220.89 C 292.86 219.68 296.23 223.32 296.24 226.94 C 283.45 224.71 270.49 226.74 257.63 225.49 C 256.75 227.21 255.29 229.02 256.05 231.06 C 257.06 234.40 257.17 237.87 256.79 241.32 C 256.48 238.38 256.00 235.45 255.46 232.54 C 253.54 236.05 254.23 240.16 254.18 243.99 C 254.35 250.17 253.74 256.41 254.76 262.54 C 255.26 265.58 255.85 268.62 256.13 271.69 C 254.44 271.62 252.75 271.56 251.07 271.51 C 250.33 262.99 248.39 254.41 249.51 245.85 C 249.80 247.25 250.12 248.64 250.46 250.04 C 250.32 241.26 251.33 232.51 252.44 223.81 C 255.64 223.13 258.80 222.24 262.04 221.71 C 266.23 220.90 270.30 223.82 274.46 222.41 Z" />
<path fill="#1b262d" d=" M 323.47 222.35 C 325.91 221.98 328.36 221.61 330.79 221.20 C 331.64 223.01 332.46 224.91 332.46 226.96 C 332.60 232.82 332.39 238.68 332.22 244.53 C 331.39 247.28 330.48 250.05 330.61 252.96 C 330.82 260.59 330.03 268.23 328.41 275.68 C 326.44 275.32 324.48 275.00 322.50 274.70 C 323.69 273.27 326.00 272.24 325.72 270.05 C 325.58 262.03 325.27 254.01 324.41 246.03 C 324.47 238.12 323.51 230.25 323.47 222.35 Z" />
<path fill="#6f7f86" d=" M 876.13 222.13 C 877.61 221.92 879.10 221.72 880.59 221.53 C 880.49 224.16 883.25 223.28 884.94 223.43 C 889.30 223.16 893.61 223.90 897.92 224.43 C 900.71 223.95 903.40 223.05 906.06 222.09 C 909.42 222.03 912.80 222.12 916.16 221.75 C 910.04 224.11 903.33 225.12 897.81 228.85 C 899.52 229.26 901.25 229.75 903.03 229.87 C 906.13 229.78 908.88 228.00 911.94 227.71 C 914.65 227.86 917.28 228.56 919.93 229.10 C 921.82 229.58 924.23 229.90 925.03 232.00 C 927.79 237.03 925.61 243.43 928.97 248.16 C 924.93 251.04 921.10 254.85 915.98 255.55 C 911.79 256.25 908.06 258.42 904.25 260.17 C 902.36 260.93 901.42 262.84 900.27 264.38 C 898.35 262.78 896.12 261.63 893.75 260.93 C 892.98 263.03 892.23 265.13 891.48 267.24 C 891.07 265.58 890.69 263.92 890.32 262.27 C 887.70 262.61 885.09 263.02 882.52 263.55 C 880.34 256.88 879.54 249.87 878.27 243.00 C 876.95 236.54 878.16 229.79 875.92 223.50 C 875.98 223.16 876.08 222.47 876.13 222.13 Z" />
<path fill="#b6bdbe" d=" M 880.59 221.53 C 887.02 221.29 893.52 220.06 899.83 221.94 C 899.19 222.77 898.55 223.60 897.92 224.43 C 893.61 223.90 889.30 223.16 884.94 223.43 C 883.25 223.28 880.49 224.16 880.59 221.53 Z" />
<path fill="#8d9a9e" d=" M 931.28 224.20 C 932.65 222.03 935.44 222.34 937.65 221.96 C 937.87 223.35 938.09 224.75 938.30 226.16 C 937.72 229.36 937.43 232.60 936.86 235.80 C 935.49 236.14 934.12 236.36 932.73 236.47 C 931.82 236.49 930.93 236.49 930.04 236.49 C 929.40 232.41 928.93 227.85 931.28 224.20 Z" />
<path fill="#56646b" d=" M 256.05 231.06 C 255.29 229.02 256.75 227.21 257.63 225.49 C 259.97 233.58 258.52 242.02 258.79 250.28 C 258.59 251.43 258.38 252.57 258.20 253.72 C 257.95 255.23 257.74 256.75 257.57 258.28 C 256.74 252.66 256.71 246.98 256.79 241.32 C 257.17 237.87 257.06 234.40 256.05 231.06 Z" />
<path fill="#e0e2e0" d=" M 870.08 226.76 C 870.46 226.60 871.23 226.28 871.61 226.12 C 869.93 236.06 873.15 245.77 873.85 255.62 C 874.93 261.21 875.92 266.87 875.15 272.58 C 874.51 265.95 873.15 259.43 871.57 252.96 C 869.58 244.35 870.55 235.49 870.08 226.76 Z" />
<path fill="#4b5a61" d=" M 938.64 233.03 C 938.45 230.52 940.33 228.85 942.00 227.30 C 943.65 228.77 945.19 230.68 944.59 233.05 C 943.47 238.48 944.26 244.88 940.17 249.22 C 938.95 250.91 937.03 251.93 934.93 251.53 C 932.70 250.07 933.14 247.15 933.46 244.92 C 933.79 240.34 938.95 237.80 938.64 233.03 Z" />
<path fill="#050505" d=" M 590.24 229.57 L 591.73 229.55 C 594.54 233.49 592.67 238.63 593.95 243.07 C 594.43 245.20 595.00 247.33 595.69 249.42 C 596.49 251.47 597.51 253.44 598.73 255.28 C 599.10 255.74 599.50 256.20 599.91 256.64 C 601.10 257.54 602.30 258.89 603.97 258.70 C 609.35 258.61 614.55 256.69 619.28 254.22 C 621.68 252.80 624.46 251.38 625.60 248.66 C 627.17 244.77 628.96 240.81 629.00 236.54 C 629.28 236.87 629.84 237.53 630.11 237.86 C 630.19 238.33 630.35 239.25 630.42 239.71 C 628.59 245.00 627.47 251.18 622.69 254.72 C 618.61 258.39 612.99 258.97 607.89 260.28 C 605.15 260.60 601.78 261.44 599.55 259.29 C 594.50 254.93 592.85 248.18 591.71 241.89 C 591.41 237.76 591.17 233.62 590.24 229.57 Z" />
<path fill="#202d34" d=" M 949.93 229.75 C 951.12 230.42 951.79 231.58 951.63 232.97 C 951.56 244.39 954.85 255.70 953.22 267.12 C 951.83 269.76 949.02 271.07 946.11 270.81 C 946.35 269.76 946.61 268.71 946.89 267.67 C 947.41 267.50 948.45 267.16 948.97 266.99 C 950.09 266.76 950.67 266.09 950.73 264.98 C 951.26 258.48 950.19 251.98 950.60 245.48 C 951.02 240.20 949.10 235.03 949.93 229.75 Z" />
<path fill="#c7cccc" d=" M 894.36 232.21 C 895.68 232.59 895.52 236.28 894.18 236.70 C 893.42 235.36 893.61 233.51 894.36 232.21 Z" />
<path fill="#26333b" d=" M 254.18 243.99 C 254.23 240.16 253.54 236.05 255.46 232.54 C 256.00 235.45 256.48 238.38 256.79 241.32 C 256.71 246.98 256.74 252.66 257.57 258.28 C 257.48 262.51 257.32 266.76 257.80 270.98 C 257.84 271.46 257.91 272.43 257.95 272.91 C 257.40 273.68 256.84 274.45 256.28 275.22 L 256.23 273.74 C 256.20 273.23 256.15 272.20 256.13 271.69 C 255.85 268.62 255.26 265.58 254.76 262.54 C 253.74 256.41 254.35 250.17 254.18 243.99 Z" />
<path fill="#7e8c91" d=" M 258.79 250.28 C 259.42 247.17 260.12 244.07 260.86 240.98 C 264.35 244.51 267.87 249.52 265.77 254.71 C 265.14 257.46 262.23 258.02 259.84 258.23 C 259.30 256.72 258.75 255.22 258.20 253.72 C 258.38 252.57 258.59 251.43 258.79 250.28 Z" />
<path fill="#98a9a9" d=" M 599.02 241.83 C 599.80 244.02 600.71 246.17 601.78 248.24 C 599.70 248.33 597.64 248.69 595.69 249.42 C 595.00 247.33 594.43 245.20 593.95 243.07 C 595.10 244.89 597.20 245.33 599.18 245.70 C 599.14 244.73 599.06 242.80 599.02 241.83 Z" />
<path fill="#404f57" d=" M 330.61 252.96 C 330.48 250.05 331.39 247.28 332.22 244.53 C 332.47 246.46 332.80 248.37 333.07 250.29 C 333.50 254.20 332.97 258.12 332.20 261.96 C 331.00 268.22 331.49 274.61 331.45 280.94 L 331.33 280.37 C 330.96 278.51 330.59 276.65 330.24 274.79 C 329.61 276.33 328.99 277.86 328.36 279.40 C 324.91 279.76 321.47 280.26 318.00 280.40 C 313.10 280.70 307.96 279.83 303.36 282.03 C 299.42 283.17 295.22 282.37 291.19 282.28 C 292.76 281.02 293.92 278.97 295.94 278.43 C 297.81 278.94 299.59 279.81 301.52 280.17 C 304.56 278.86 307.46 277.11 310.82 276.68 C 309.11 276.07 307.42 275.43 305.72 274.79 C 308.41 274.94 311.12 274.99 313.76 275.58 C 317.62 279.11 324.68 279.54 328.41 275.68 C 330.03 268.23 330.82 260.59 330.61 252.96 Z" />
<path fill="#8a969a" d=" M 893.32 245.19 C 899.10 246.13 901.68 252.12 903.88 256.86 C 902.24 258.54 900.93 260.48 899.89 262.56 C 898.53 260.27 896.14 259.17 893.94 257.89 C 892.13 254.91 891.73 251.33 890.92 248.00 C 891.71 247.06 892.51 246.13 893.32 245.19 Z" />
<path fill="#6a8080" d=" M 595.69 249.42 C 597.64 248.69 599.70 248.33 601.78 248.24 C 602.72 249.67 603.80 250.99 604.88 252.34 C 602.83 253.34 600.78 254.31 598.73 255.28 C 597.51 253.44 596.49 251.47 595.69 249.42 Z" />
<path fill="#546a6b" d=" M 604.88 252.34 C 606.77 252.49 608.66 252.65 610.57 252.77 C 609.51 253.90 608.94 255.72 607.42 256.32 C 604.93 256.65 602.41 256.50 599.91 256.64 C 599.50 256.20 599.10 255.74 598.73 255.28 C 600.78 254.31 602.83 253.34 604.88 252.34 Z" />
<path fill="#6a7a82" d=" M 942.29 266.09 C 944.56 265.39 946.89 264.92 949.25 264.59 C 949.18 265.19 949.04 266.39 948.97 266.99 C 948.45 267.16 947.41 267.50 946.89 267.67 C 945.34 268.03 943.95 268.79 942.71 269.74 C 942.56 268.52 942.42 267.30 942.29 266.09 Z" />
<path fill="#526067" d=" M 902.74 270.78 C 905.46 269.09 907.38 265.53 911.08 266.16 C 914.26 265.65 916.25 268.29 917.97 270.49 C 916.09 271.78 914.23 273.24 911.98 273.77 C 908.38 274.88 904.65 273.71 900.99 273.99 C 899.18 274.14 897.55 273.25 895.92 272.67 C 891.75 273.74 886.31 276.65 882.74 272.79 C 885.80 272.74 888.87 272.75 891.94 272.77 C 891.65 271.66 891.38 270.55 891.11 269.45 C 894.76 270.84 898.90 272.55 902.74 270.78 Z" />
<path fill="#8a969b" d=" M 909.70 269.45 C 910.43 268.73 911.17 268.01 911.93 267.29 C 912.82 267.65 913.73 268.01 914.65 268.37 C 914.55 269.43 914.50 270.49 914.50 271.56 C 911.61 271.69 908.72 271.75 905.84 271.74 C 906.10 271.22 906.62 270.19 906.88 269.67 C 907.58 269.61 909.00 269.50 909.70 269.45 Z" />
<path fill="#53626a" d=" M 927.89 270.91 C 928.84 269.55 929.57 265.54 931.83 267.31 C 933.23 270.16 930.04 270.99 927.89 270.91 Z" />
<path fill="#1f2b32" d=" M 932.70 269.95 C 933.37 268.22 935.34 268.04 936.93 267.76 C 938.40 267.64 940.65 266.89 941.04 269.01 C 940.23 270.87 938.41 271.97 936.99 273.32 C 935.24 272.75 932.78 272.26 932.70 269.95 Z" />
<path fill="#3b4951" d=" M 257.80 270.98 C 258.75 270.07 259.73 269.21 260.72 268.36 C 263.31 269.11 265.90 269.85 268.50 270.59 C 268.47 272.03 268.47 273.46 268.49 274.90 C 265.39 272.74 261.62 272.04 257.95 272.91 C 257.91 272.43 257.84 271.46 257.80 270.98 Z" />
<path fill="#889499" d=" M 882.16 272.79 C 882.41 271.40 881.95 269.72 882.88 268.54 C 885.62 268.81 888.34 269.42 891.11 269.45 C 891.38 270.55 891.65 271.66 891.94 272.77 C 888.87 272.75 885.80 272.74 882.74 272.79 L 882.16 272.79 Z" />
<path fill="#56656c" d=" M 302.53 273.74 C 302.92 272.19 303.31 270.64 303.70 269.09 C 305.47 270.32 307.15 271.73 309.14 272.61 C 310.72 272.57 312.04 271.43 313.47 270.84 C 315.35 271.99 316.95 274.79 313.76 275.58 C 311.12 274.99 308.41 274.94 305.72 274.79 C 304.66 274.43 303.60 274.08 302.53 273.74 Z" />
<path fill="#d8dedb" d=" M 954.26 273.48 C 954.61 272.17 954.97 270.87 955.33 269.58 C 955.68 271.33 956.05 273.09 956.45 274.85 C 951.94 274.58 947.42 274.68 942.92 274.52 C 940.93 274.39 938.96 274.40 936.99 274.41 C 942.72 273.70 948.50 273.85 954.26 273.48 Z" />
<path fill="#1c272d" d=" M 257.95 272.91 C 261.62 272.04 265.39 272.74 268.49 274.90 C 268.53 275.40 268.61 276.40 268.65 276.90 C 264.69 278.12 260.46 279.55 256.38 277.96 C 256.35 277.28 256.31 275.91 256.28 275.22 C 256.84 274.45 257.40 273.68 257.95 272.91 Z" />
<path fill="#1f2b32" d=" M 277.82 276.87 C 280.99 273.21 286.20 273.36 290.63 273.68 C 294.59 274.10 298.56 273.54 302.53 273.74 C 303.60 274.08 304.66 274.43 305.72 274.79 C 307.42 275.43 309.11 276.07 310.82 276.68 C 307.46 277.11 304.56 278.86 301.52 280.17 C 299.59 279.81 297.81 278.94 295.94 278.43 C 293.92 278.97 292.76 281.02 291.19 282.28 C 290.29 282.94 289.34 282.93 288.36 282.26 C 287.60 281.75 286.86 281.23 286.11 280.73 C 283.61 278.92 280.68 277.92 277.82 276.87 Z" />
<path fill="#3e4c54" d=" M 251.75 276.07 C 253.24 275.30 254.75 274.55 256.23 273.74 L 256.28 275.22 C 256.31 275.91 256.35 277.28 256.38 277.96 C 260.46 279.55 264.69 278.12 268.65 276.90 C 268.71 277.53 268.83 278.79 268.89 279.42 C 264.31 280.32 259.52 280.32 255.06 278.86 C 253.50 278.59 252.72 277.13 251.75 276.07 Z" />
<path fill="#bbc7c6" d=" M 328.36 279.40 C 328.99 277.86 329.61 276.33 330.24 274.79 C 330.59 276.65 330.96 278.51 331.33 280.37 C 328.87 280.47 326.40 280.47 323.97 280.83 C 317.16 282.01 310.21 281.20 303.36 282.03 C 307.96 279.83 313.10 280.70 318.00 280.40 C 321.47 280.26 324.91 279.76 328.36 279.40 Z" />
<path fill="#6f7f86" d=" M 911.96 275.97 C 917.46 275.70 923.01 275.21 928.51 275.91 C 921.97 277.42 915.24 277.50 908.57 277.96 C 909.63 277.24 910.53 275.94 911.96 275.97 Z" />
<path fill="#6f7f86" d=" M 890.42 278.68 C 894.73 275.40 900.78 276.73 905.64 277.98 C 900.61 278.79 895.49 278.81 890.42 278.68 Z" />
<path fill="#a4aaaa" d=" M 250.91 280.08 C 252.54 279.08 254.29 280.01 255.76 280.82 C 254.49 281.85 251.44 281.92 250.91 280.08 Z" />
<path fill="#13b824" d=" M 320.16 297.68 C 321.43 297.55 323.06 296.45 324.07 297.78 C 327.18 300.72 329.33 304.87 333.46 306.56 C 335.41 313.61 343.68 316.45 346.42 322.96 C 347.27 324.60 345.06 325.35 343.91 325.65 C 341.66 326.21 339.37 326.53 337.09 326.88 C 339.26 332.90 343.17 338.06 346.59 343.41 C 351.17 350.68 356.59 357.39 362.58 363.55 C 368.19 370.83 375.05 376.99 381.38 383.62 C 387.16 390.44 392.70 397.78 400.29 402.69 C 403.50 405.12 406.16 408.24 409.70 410.25 C 413.86 412.65 416.49 416.87 420.47 419.53 C 424.63 422.29 427.56 426.44 431.61 429.33 C 434.50 431.40 436.79 434.15 439.51 436.43 C 442.98 439.42 447.72 440.67 450.63 444.37 C 453.60 448.09 457.89 450.40 461.01 453.97 C 465.09 458.98 470.72 462.34 475.59 466.48 C 482.87 469.96 488.54 476.07 496.17 478.86 C 500.31 480.34 502.90 484.08 506.43 486.49 C 511.39 489.52 515.66 493.52 520.84 496.22 C 523.27 497.31 523.56 500.07 523.65 502.43 C 522.62 502.44 521.60 502.49 520.58 502.58 C 520.55 501.84 520.50 500.35 520.48 499.61 C 513.97 495.52 507.74 491.00 501.66 486.34 C 497.46 481.29 490.51 480.48 485.63 476.36 C 481.23 472.53 475.66 470.46 471.17 466.79 C 467.65 463.28 462.98 461.09 459.94 457.08 C 456.88 453.12 452.25 450.84 449.12 446.96 C 446.85 444.04 443.50 442.42 440.42 440.54 C 436.32 438.07 433.47 434.10 429.59 431.35 C 425.50 428.51 422.65 424.27 418.47 421.54 C 414.67 419.04 412.15 415.05 408.23 412.74 C 403.47 409.98 400.02 405.55 395.33 402.70 C 387.47 396.23 381.96 387.44 374.50 380.55 C 371.33 377.06 367.87 373.84 364.71 370.34 C 359.48 363.57 353.10 357.77 348.28 350.67 C 343.25 343.15 337.84 335.80 334.14 327.50 C 330.49 328.31 327.05 329.79 323.81 331.64 C 319.74 327.44 320.86 321.27 320.71 315.98 C 320.89 309.87 320.37 303.78 320.16 297.68 Z" />
<path fill="#dd4e0c" d=" M 903.34 297.37 C 904.59 297.49 905.87 297.61 907.14 297.74 C 913.03 305.90 916.79 315.89 916.79 326.03 C 917.07 327.66 915.53 328.40 914.25 328.73 C 913.87 329.52 913.50 330.31 913.16 331.10 C 911.32 331.57 909.49 332.06 907.67 332.55 C 907.01 341.15 904.88 349.55 903.73 358.09 C 902.65 367.31 901.40 376.56 898.74 385.48 C 896.50 392.52 898.79 400.40 895.06 407.05 C 891.02 419.90 888.30 433.50 881.12 445.12 C 877.77 453.44 871.43 460.01 866.42 467.32 C 864.23 471.07 861.13 474.18 859.00 477.98 C 851.66 487.30 845.07 497.25 836.75 505.77 C 832.90 511.59 826.40 514.68 822.02 520.00 C 819.63 522.93 815.33 523.00 813.06 526.04 C 809.15 530.47 804.45 534.08 800.38 538.34 C 797.11 541.83 792.73 543.99 789.48 547.50 C 787.03 550.14 783.98 552.07 781.19 554.32 C 773.21 562.17 763.87 568.60 753.96 573.80 C 749.28 576.49 745.18 580.15 740.11 582.15 C 734.55 584.35 730.08 588.80 724.20 590.21 C 711.51 593.42 698.89 596.98 685.90 598.78 C 677.75 600.70 669.36 600.95 661.05 601.70 C 648.53 601.88 635.98 603.61 623.47 602.27 C 620.55 601.65 617.30 601.79 614.72 600.15 L 614.46 598.85 C 614.79 598.57 615.46 598.02 615.79 597.75 C 629.62 601.42 643.97 598.95 658.05 599.18 C 664.98 598.52 671.93 598.00 678.85 597.24 C 689.34 594.94 700.11 593.89 710.37 590.64 C 717.02 588.68 724.27 588.16 730.21 584.30 C 736.33 580.19 743.51 577.96 749.27 573.27 C 759.87 567.20 770.61 560.98 779.20 552.16 C 785.11 548.14 789.79 542.67 795.73 538.68 C 800.17 534.45 804.75 530.37 809.09 526.05 C 811.66 522.80 815.62 521.31 818.75 518.75 C 822.11 516.11 824.94 512.86 828.40 510.34 C 832.24 507.50 834.58 503.20 838.08 500.02 C 841.40 496.93 843.48 492.82 846.61 489.57 C 849.07 486.97 850.55 483.64 852.91 480.97 C 858.23 475.43 862.11 468.73 866.36 462.39 C 869.92 459.12 872.96 455.30 874.75 450.76 C 879.73 443.17 882.58 434.49 886.12 426.19 C 887.98 421.64 888.40 416.70 889.73 412.00 C 892.62 401.83 894.70 391.43 895.97 380.93 C 896.25 377.47 897.72 374.33 899.05 371.19 C 900.45 364.20 900.83 357.04 902.15 350.03 C 903.16 344.28 904.37 338.55 904.77 332.72 C 902.17 332.74 899.56 332.87 896.99 332.60 C 895.54 332.74 894.09 331.55 894.31 330.07 C 895.84 318.81 903.38 308.99 903.34 297.37 Z" />
<path fill="#bab6ab" d=" M 584.06 495.20 C 590.38 493.38 596.90 495.42 602.99 497.16 C 610.18 499.44 614.36 506.41 617.04 513.01 C 619.93 519.60 619.50 527.05 618.11 533.95 C 617.26 538.93 614.03 543.11 610.66 546.69 C 606.70 549.53 601.92 551.61 596.97 551.56 C 589.23 551.69 581.16 551.39 574.03 548.06 C 571.83 546.69 568.47 544.33 570.27 541.37 C 576.09 548.23 585.56 549.13 593.97 549.30 C 597.60 549.46 601.06 548.20 604.31 546.73 C 609.12 546.36 611.83 542.04 614.01 538.26 C 617.08 532.61 616.48 525.94 615.95 519.77 C 615.76 514.08 612.90 508.89 609.45 504.52 C 604.84 498.65 596.83 497.58 589.92 496.84 C 578.63 496.49 569.56 505.49 565.16 515.15 C 564.50 514.70 563.85 514.26 563.21 513.83 C 567.39 505.31 574.52 497.45 584.06 495.20 Z" />
<path fill="#13b824" d=" M 565.16 515.15 C 569.56 505.49 578.63 496.49 589.92 496.84 C 596.83 497.58 604.84 498.65 609.45 504.52 C 612.90 508.89 615.76 514.08 615.95 519.77 C 615.82 524.92 616.26 530.31 614.11 535.14 C 612.33 540.06 607.89 543.19 604.31 546.73 C 601.06 548.20 597.60 549.46 593.97 549.30 C 585.56 549.13 576.09 548.23 570.27 541.37 C 570.00 541.11 569.46 540.60 569.19 540.34 C 567.31 541.80 565.47 544.43 562.76 543.28 C 562.91 538.49 562.67 533.71 562.17 528.95 C 562.65 528.58 563.62 527.85 564.10 527.48 C 563.52 527.82 562.38 528.50 561.80 528.84 C 561.09 525.28 562.89 520.52 559.80 517.85 C 559.63 519.52 559.49 521.19 559.36 522.87 C 552.22 523.07 545.13 522.33 538.02 522.13 C 527.74 522.33 517.46 521.69 507.19 522.21 C 506.06 521.38 504.94 520.56 503.83 519.75 C 516.51 520.76 529.25 520.49 541.96 520.40 C 547.07 520.10 552.22 520.73 557.31 520.12 C 557.55 519.67 558.01 518.76 558.25 518.31 C 546.28 517.78 534.21 519.18 522.31 517.70 C 534.40 517.67 546.48 517.57 558.56 517.62 C 559.35 515.97 558.68 512.74 561.02 512.49 C 561.57 512.83 562.67 513.50 563.21 513.83 C 563.85 514.26 564.50 514.70 565.16 515.15 Z" />
<path fill="#aeb2a0" d=" M 584.38 501.36 C 591.78 499.52 601.21 498.98 606.63 505.41 C 613.35 511.62 614.76 521.36 614.09 530.06 C 613.38 535.85 608.62 540.09 603.79 542.78 C 598.54 546.19 592.04 546.17 586.02 546.59 C 580.77 547.06 576.19 543.83 572.66 540.32 C 571.40 539.44 571.10 538.30 571.74 536.91 C 575.83 538.70 578.24 543.34 582.91 544.16 C 592.32 544.73 602.97 543.13 609.30 535.41 C 612.71 531.35 611.83 525.76 611.48 520.90 C 610.72 513.16 605.83 505.12 598.04 502.90 C 592.88 502.04 587.45 502.50 582.55 504.39 C 575.88 506.59 571.73 513.47 571.03 520.21 C 568.37 520.02 569.32 517.14 569.59 515.39 C 571.67 508.65 577.23 502.62 584.38 501.36 Z" />
<path fill="#f5f4f0" d=" M 594.30 524.33 C 593.27 520.55 594.01 516.09 598.03 514.47 C 601.67 512.99 608.72 512.89 609.36 517.97 C 609.08 520.88 607.74 523.75 605.75 525.89 C 602.21 528.06 597.01 527.70 594.30 524.33 Z" />
<path fill="#83c383" d=" M 495.82 517.16 C 495.81 514.83 500.43 515.67 499.11 517.81 C 497.85 518.23 496.75 518.01 495.82 517.16 Z" />
<path fill="#bfbbb1" d=" M 486.59 526.49 C 489.21 523.00 492.10 519.72 494.84 516.31 L 495.82 517.16 C 496.75 518.01 497.85 518.23 499.11 517.81 C 502.71 517.12 506.40 517.40 510.04 517.32 C 514.13 517.30 518.27 516.84 522.31 517.70 C 534.21 519.18 546.28 517.78 558.25 518.31 C 558.01 518.76 557.55 519.67 557.31 520.12 C 552.22 520.73 547.07 520.10 541.96 520.40 C 529.25 520.49 516.51 520.76 503.83 519.75 C 500.90 519.57 497.98 519.54 495.06 519.50 C 491.98 522.73 489.40 526.38 487.07 530.17 C 490.49 532.78 493.50 535.91 497.00 538.41 C 497.46 538.39 498.38 538.37 498.84 538.36 C 497.11 538.96 495.41 539.63 493.74 540.38 C 490.75 537.62 488.00 534.60 485.10 531.74 C 485.28 529.92 485.30 527.95 486.59 526.49 Z" />
<path fill="#acb39f" d=" M 566.13 518.44 C 566.54 518.34 567.37 518.13 567.78 518.02 C 567.87 523.87 567.02 529.91 569.28 535.49 C 570.28 536.97 568.45 537.70 567.63 538.64 C 565.38 532.15 564.79 525.18 566.13 518.44 Z" />
<path fill="#acb39f" d=" M 559.80 517.85 C 562.89 520.52 561.09 525.28 561.80 528.84 C 562.38 528.50 563.52 527.82 564.10 527.48 C 563.62 527.85 562.65 528.58 562.17 528.95 C 562.67 533.71 562.91 538.49 562.76 543.28 C 562.20 542.10 561.65 540.91 560.95 539.82 C 557.07 539.23 553.15 539.77 549.26 539.61 C 553.01 538.78 556.89 538.88 560.72 538.74 C 560.28 534.27 559.68 529.82 559.23 525.35 C 554.78 525.50 550.30 525.71 545.89 525.00 C 542.96 524.44 539.96 524.33 536.98 524.34 C 526.29 524.35 515.59 524.08 504.91 524.50 C 502.90 524.56 500.90 524.41 498.94 524.08 C 498.17 523.58 497.41 523.09 496.66 522.59 C 500.16 522.27 503.68 522.27 507.19 522.21 C 517.46 521.69 527.74 522.33 538.02 522.13 C 545.13 522.33 552.22 523.07 559.36 522.87 C 559.49 521.19 559.63 519.52 559.80 517.85 Z" />
<path fill="#08b51a" d=" M 487.07 530.17 C 489.40 526.38 491.98 522.73 495.06 519.50 C 497.98 519.54 500.90 519.57 503.83 519.75 C 504.94 520.56 506.06 521.38 507.19 522.21 C 503.68 522.27 500.16 522.27 496.66 522.59 C 497.41 523.09 498.17 523.58 498.94 524.08 C 500.83 525.29 502.65 526.63 504.39 528.08 C 519.73 529.27 535.06 527.47 550.39 526.98 C 548.89 526.29 547.41 525.60 545.89 525.00 C 550.30 525.71 554.78 525.50 559.23 525.35 C 559.68 529.82 560.28 534.27 560.72 538.74 C 556.89 538.88 553.01 538.78 549.26 539.61 C 548.09 541.30 546.55 542.68 544.97 543.96 C 544.30 542.90 543.61 541.86 542.89 540.84 C 541.16 541.36 539.45 541.90 537.75 542.48 C 536.53 541.47 535.40 540.37 534.13 539.45 C 533.29 539.68 531.60 540.15 530.76 540.38 C 529.52 539.70 528.35 538.92 527.09 538.34 C 525.35 538.91 523.81 540.18 521.94 540.24 C 520.36 539.80 519.04 538.83 517.72 537.94 C 516.12 538.70 514.61 539.60 513.03 540.37 C 510.88 541.04 509.86 538.87 508.64 537.62 C 507.20 538.42 505.90 539.91 504.12 539.74 C 502.52 539.84 501.85 538.21 500.88 537.28 C 500.37 537.55 499.35 538.09 498.84 538.36 C 498.38 538.37 497.46 538.39 497.00 538.41 C 493.50 535.91 490.49 532.78 487.07 530.17 Z" />
<path fill="#f5f4f0" d=" M 615.95 519.77 C 616.48 525.94 617.08 532.61 614.01 538.26 C 611.83 542.04 609.12 546.36 604.31 546.73 C 607.89 543.19 612.33 540.06 614.11 535.14 C 616.26 530.31 615.82 524.92 615.95 519.77 Z" />
<path fill="#24b631" d=" M 498.94 524.08 C 500.90 524.41 502.90 524.56 504.91 524.50 C 515.59 524.08 526.29 524.35 536.98 524.34 C 539.96 524.33 542.96 524.44 545.89 525.00 C 547.41 525.60 548.89 526.29 550.39 526.98 C 535.06 527.47 519.73 529.27 504.39 528.08 C 502.65 526.63 500.83 525.29 498.94 524.08 Z" />
<path fill="#dd4e0c" d=" M 482.46 574.27 C 487.66 572.82 493.24 573.39 498.49 574.34 C 493.15 574.14 487.80 574.17 482.46 574.27 Z" />
<path fill="#a6b7b8" d=" M 463.32 589.34 C 467.40 582.01 474.55 576.82 482.46 574.27 C 487.80 574.17 493.15 574.14 498.49 574.34 C 503.39 575.79 508.90 576.67 512.74 580.32 C 514.78 582.04 514.67 584.89 515.02 587.30 L 513.76 587.88 C 512.42 585.15 511.86 581.54 508.75 580.22 C 501.11 576.43 492.31 575.92 483.96 576.65 C 476.04 578.29 468.71 583.60 465.49 591.14 C 463.90 596.27 464.14 601.74 464.25 607.05 C 464.34 612.16 467.11 616.80 471.02 619.96 C 475.27 625.37 482.57 626.26 488.98 626.48 C 492.82 626.72 496.72 626.10 500.17 624.37 C 502.50 623.24 504.59 621.68 506.71 620.20 C 508.86 618.86 511.00 617.48 513.10 616.04 C 513.44 616.45 514.13 617.27 514.47 617.68 C 509.13 622.10 503.40 626.58 496.62 628.45 C 489.86 629.18 482.73 629.17 476.31 626.67 C 472.43 625.21 469.29 622.40 466.15 619.79 C 463.16 617.38 462.15 613.51 461.20 609.98 C 459.71 603.11 460.67 595.81 463.32 589.34 Z" />
<path fill="#dc4601" d=" M 465.49 591.14 C 468.71 583.60 476.04 578.29 483.96 576.65 C 492.31 575.92 501.11 576.43 508.75 580.22 C 511.86 581.54 512.42 585.15 513.76 587.88 L 515.02 587.30 C 516.58 586.49 517.94 585.37 519.33 584.32 C 519.86 584.34 520.94 584.40 521.47 584.42 C 521.68 585.05 522.08 586.29 522.29 586.92 C 521.93 588.41 521.59 589.92 521.25 591.42 C 529.16 592.28 537.13 591.25 545.06 591.21 C 558.81 590.35 572.59 590.47 586.35 590.19 C 589.18 593.68 592.46 596.75 595.96 599.55 C 594.52 601.98 592.91 604.34 590.80 606.25 C 589.33 606.95 587.84 607.62 586.32 608.19 C 585.63 608.33 584.26 608.61 583.58 608.75 C 583.14 609.61 582.71 610.48 582.29 611.37 C 581.72 611.69 580.56 612.33 579.98 612.65 C 579.02 611.68 578.08 610.73 577.14 609.77 C 576.46 610.78 575.80 611.79 575.15 612.82 C 574.42 612.30 573.71 611.80 573.00 611.31 C 572.45 613.35 570.96 614.20 569.00 613.41 C 568.44 612.25 567.82 611.15 567.18 610.05 C 566.15 611.47 565.07 613.99 562.84 613.26 C 562.10 612.28 561.52 611.22 561.08 610.09 C 558.76 610.86 556.42 611.75 553.93 611.54 C 553.14 612.75 552.18 613.84 551.09 614.79 C 550.31 613.50 549.56 612.21 548.83 610.91 C 546.95 611.91 545.02 613.07 542.80 612.67 C 542.36 613.23 541.47 614.36 541.03 614.92 C 538.98 614.00 537.92 612.13 537.21 610.11 C 536.19 610.92 535.63 613.12 533.98 612.34 C 532.41 612.32 531.87 610.57 530.90 609.67 C 527.75 609.54 524.61 609.55 521.47 609.56 C 521.82 604.18 522.27 598.70 521.30 593.37 L 519.75 593.39 C 519.30 599.39 519.22 605.45 519.49 611.46 C 519.78 613.91 519.60 616.40 518.84 618.76 C 517.57 618.64 516.32 618.54 515.06 618.43 L 514.47 617.68 C 514.13 617.27 513.44 616.45 513.10 616.04 C 512.72 615.79 511.98 615.29 511.61 615.04 C 509.99 616.76 508.37 618.51 506.71 620.20 C 504.59 621.68 502.50 623.24 500.17 624.37 C 490.40 626.48 479.86 624.47 471.02 619.96 C 467.11 616.80 464.34 612.16 464.25 607.05 C 464.14 601.74 463.90 596.27 465.49 591.14 Z" />
<path fill="#a3aca9" d=" M 481.27 580.39 C 489.07 578.62 497.46 579.27 504.96 582.09 C 508.27 583.57 511.14 586.38 512.08 589.97 C 509.76 590.17 508.81 587.92 507.37 586.61 C 505.47 584.68 502.85 583.78 500.32 583.06 C 498.36 582.52 496.37 582.11 494.38 581.82 C 489.27 581.68 483.50 580.96 479.10 584.16 C 471.50 589.78 467.99 599.78 469.33 609.01 C 469.23 612.19 472.12 614.16 474.59 615.53 C 478.34 617.34 482.50 618.12 486.59 618.80 C 491.68 619.83 497.09 619.42 501.67 616.83 C 504.82 615.44 506.82 612.45 509.88 610.94 C 510.13 614.53 506.59 616.34 504.14 618.22 C 496.97 622.93 487.90 621.71 479.99 619.91 C 475.09 618.79 469.68 616.51 467.41 611.70 C 466.31 607.33 466.68 602.67 467.30 598.25 C 469.57 590.96 473.90 583.41 481.27 580.39 Z" />
<path fill="#dc4601" d=" M 479.10 584.16 C 483.50 580.96 489.27 581.68 494.38 581.82 C 491.92 583.14 489.46 584.45 487.00 585.77 C 488.62 589.39 490.53 593.04 490.80 597.08 C 491.07 600.94 489.46 604.56 488.24 608.13 C 489.70 609.16 491.24 610.11 492.51 611.39 C 493.03 613.44 492.83 615.59 492.89 617.69 C 490.79 618.08 488.69 618.47 486.59 618.80 C 482.50 618.12 478.34 617.34 474.59 615.53 C 472.12 614.16 469.23 612.19 469.33 609.01 C 467.99 599.78 471.50 589.78 479.10 584.16 Z" />
<path fill="#dd4e0c" d=" M 494.38 581.82 C 496.37 582.11 498.36 582.52 500.32 583.06 C 499.81 583.39 498.80 584.04 498.29 584.37 C 499.29 584.89 500.29 585.41 501.30 585.95 C 498.96 587.59 495.57 588.84 495.24 592.11 C 494.56 596.42 494.50 601.20 496.97 605.00 C 498.41 607.65 501.48 608.55 503.99 609.86 C 502.86 612.04 501.75 614.31 501.67 616.83 C 497.09 619.42 491.68 619.83 486.59 618.80 C 488.69 618.47 490.79 618.08 492.89 617.69 C 492.83 615.59 493.03 613.44 492.51 611.39 C 491.24 610.11 489.70 609.16 488.24 608.13 C 489.46 604.56 491.07 600.94 490.80 597.08 C 490.53 593.04 488.62 589.39 487.00 585.77 C 489.46 584.45 491.92 583.14 494.38 581.82 Z" />
<path fill="#a7b7b7" d=" M 546.92 588.35 C 560.29 588.36 573.64 587.07 587.01 587.34 C 590.93 586.99 592.15 591.37 594.28 593.76 C 596.23 596.62 600.13 599.48 598.44 603.39 C 596.35 607.31 591.77 608.83 588.19 611.07 C 587.55 610.11 586.93 609.15 586.32 608.19 C 587.84 607.62 589.33 606.95 590.80 606.25 C 593.46 605.15 597.93 603.15 595.96 599.55 C 592.46 596.75 589.18 593.68 586.35 590.19 C 572.59 590.47 558.81 590.35 545.06 591.21 C 537.13 591.25 529.16 592.28 521.25 591.42 C 524.31 588.97 528.33 589.62 531.96 589.45 C 536.97 589.40 541.91 588.39 546.92 588.35 Z" />
<path fill="#f5f4f0" d=" M 473.26 594.37 C 474.50 592.95 476.28 592.26 477.97 591.56 C 480.44 592.27 483.53 593.01 484.36 595.84 C 485.23 600.83 480.09 606.26 475.06 605.22 C 470.40 603.96 469.97 597.24 473.26 594.37 Z" />
<path fill="#a4aba7" d=" M 513.74 599.03 C 513.62 596.91 514.02 594.83 514.83 592.88 L 516.00 594.21 C 516.67 598.79 515.87 603.45 515.74 608.06 C 515.38 609.98 516.27 612.86 513.64 613.44 C 513.01 608.64 513.94 603.84 513.74 599.03 Z" />
<path fill="#a4aba7" d=" M 519.49 611.46 C 519.22 605.45 519.30 599.39 519.75 593.39 L 521.30 593.37 C 522.27 598.70 521.82 604.18 521.47 609.56 C 520.98 610.04 519.99 610.99 519.49 611.46 Z" />
<path fill="#a3aca9" d=" M 526.45 596.75 C 538.63 595.98 550.83 596.30 563.02 596.47 C 571.63 596.80 580.15 595.14 588.77 595.54 C 588.66 596.11 588.44 597.25 588.33 597.82 C 584.87 597.98 581.40 597.70 577.96 598.08 C 567.67 599.26 557.30 598.36 546.98 598.58 C 539.63 598.47 532.28 598.84 524.94 599.06 C 523.10 598.33 525.23 596.56 526.45 596.75 Z" />
<path fill="#f5f4f0" d=" M 595.96 599.55 C 597.93 603.15 593.46 605.15 590.80 606.25 C 592.91 604.34 594.52 601.98 595.96 599.55 Z" />
<path fill="#f5f4f0" d=" M 511.61 615.04 C 511.98 615.29 512.72 615.79 513.10 616.04 C 511.00 617.48 508.86 618.86 506.71 620.20 C 508.37 618.51 509.99 616.76 511.61 615.04 Z" />
<path fill="#f5f4f0" d=" M 471.02 619.96 C 479.86 624.47 490.40 626.48 500.17 624.37 C 496.72 626.10 492.82 626.72 488.98 626.48 C 482.57 626.26 475.27 625.37 471.02 619.96 Z" />
<path fill="#000000" d=" M 610.46 642.12 C 610.34 640.45 613.79 639.76 613.40 642.03 C 613.78 644.90 613.56 647.80 613.50 650.69 C 615.48 650.72 617.45 650.74 619.44 650.80 C 619.44 651.43 619.43 652.71 619.43 653.35 C 617.47 653.77 615.46 653.61 613.49 653.66 C 612.28 662.89 612.02 672.21 611.08 681.47 C 611.15 683.03 609.15 682.66 608.18 682.94 C 609.18 673.23 609.75 663.48 610.42 653.73 C 608.43 653.73 606.05 653.27 606.41 650.62 C 607.80 650.52 609.20 650.45 610.61 650.39 C 610.57 647.63 610.41 644.87 610.46 642.12 Z" />
<path fill="#010101" d=" M 453.23 650.29 C 454.95 648.20 457.65 647.58 460.22 647.35 C 464.59 650.44 464.64 656.18 465.03 660.98 C 465.13 668.25 465.67 675.51 465.65 682.79 C 464.67 682.66 463.70 682.55 462.74 682.46 C 462.76 677.52 462.61 672.60 462.29 667.68 C 458.36 668.10 454.43 668.50 450.48 668.63 C 450.44 673.02 450.60 677.42 450.78 681.81 C 449.76 681.69 448.75 681.58 447.74 681.49 C 447.40 677.49 447.56 673.49 447.49 669.49 C 446.75 668.65 446.01 667.81 445.27 666.98 C 445.82 666.60 446.92 665.84 447.47 665.46 C 447.83 660.03 449.53 654.40 453.23 650.29 Z" />
<path fill="#f5f4f0" d=" M 450.34 665.51 C 450.90 660.20 452.32 653.99 457.11 650.89 C 457.85 650.79 459.32 650.59 460.05 650.49 C 461.74 655.02 462.21 659.87 462.44 664.66 C 458.44 665.29 454.38 665.46 450.34 665.51 Z" />
<path fill="#050505" d=" M 637.63 656.46 C 638.58 656.44 639.54 656.37 640.50 656.24 C 640.51 656.89 640.55 658.18 640.57 658.83 C 639.58 658.70 638.60 658.65 637.63 658.68 C 637.63 658.12 637.63 657.01 637.63 656.46 Z" />
<path fill="#000000" d=" M 475.92 670.13 C 478.47 664.74 484.58 661.70 490.44 662.69 C 490.55 663.67 490.67 664.67 490.82 665.67 C 486.12 665.09 481.29 666.59 478.68 670.74 C 481.85 670.84 485.03 670.52 488.20 670.72 C 492.29 671.42 494.81 676.26 493.32 680.07 C 490.18 684.29 484.35 684.49 479.55 684.48 C 478.38 683.51 477.12 682.33 477.60 680.62 C 479.54 680.04 481.13 681.85 483.05 681.59 C 485.83 681.65 488.35 680.37 490.78 679.15 C 490.65 677.75 490.50 676.36 490.34 674.97 C 489.79 674.63 488.70 673.95 488.15 673.60 C 484.78 673.56 481.41 673.98 478.05 673.67 C 476.37 673.71 474.75 671.61 475.92 670.13 Z" />
<path fill="#000000" d=" M 500.58 664.53 C 501.09 664.57 502.11 664.66 502.62 664.70 C 502.32 667.90 502.21 671.73 506.08 672.70 C 509.29 670.52 510.65 666.81 512.82 663.81 L 514.53 663.43 C 514.51 664.65 514.83 666.02 514.17 667.16 C 511.18 673.13 507.08 678.53 504.82 684.87 C 502.98 690.02 501.02 695.12 498.89 700.15 C 498.35 700.25 497.26 700.43 496.72 700.53 C 495.52 697.79 498.16 695.47 498.92 692.99 C 501.06 687.03 503.29 681.10 505.94 675.34 C 500.61 675.17 497.62 668.85 500.58 664.53 Z" />
<path fill="#000000" d=" M 520.63 664.50 C 521.61 664.52 522.60 664.54 523.59 664.54 C 523.52 667.40 523.51 670.28 523.53 673.15 C 525.35 668.87 528.76 663.08 534.29 664.50 C 534.88 666.57 535.45 668.66 535.76 670.80 C 536.33 668.26 537.87 664.96 541.04 665.39 C 543.89 665.02 545.06 668.19 545.34 670.48 C 545.82 675.11 545.67 679.78 545.60 684.43 C 545.06 684.52 543.96 684.69 543.42 684.77 C 542.06 679.52 543.21 673.99 542.21 668.67 C 541.41 668.55 540.62 668.45 539.83 668.37 C 537.38 672.80 535.48 677.66 535.47 682.80 C 534.76 682.92 533.34 683.16 532.63 683.27 C 532.63 677.95 532.85 672.61 532.28 667.31 C 531.88 667.36 531.07 667.46 530.67 667.51 C 525.89 672.01 524.36 678.64 522.64 684.72 C 522.08 684.65 520.97 684.50 520.41 684.43 C 520.58 677.78 520.30 671.13 520.63 664.50 Z" />
<path fill="#010101" d=" M 554.68 665.04 C 555.30 664.60 556.56 663.72 557.19 663.28 C 559.38 665.54 556.65 668.55 557.27 671.31 C 558.63 668.76 559.91 665.77 562.75 664.58 C 566.61 663.22 567.03 668.13 567.78 670.65 C 568.43 667.45 570.11 662.78 574.18 663.45 C 577.18 665.10 578.28 668.68 578.44 671.90 C 578.62 676.51 578.58 681.13 578.55 685.76 C 577.57 685.65 576.60 685.59 575.64 685.57 C 575.63 680.66 575.78 675.74 575.37 670.85 C 575.32 668.92 574.01 667.38 573.03 665.86 C 569.78 670.83 567.70 676.65 567.04 682.55 C 566.09 682.70 565.14 682.85 564.20 683.00 C 564.53 677.74 564.60 672.46 564.12 667.22 C 559.02 670.61 557.78 677.45 556.95 683.12 C 557.03 685.26 555.62 685.95 553.66 685.47 C 554.60 678.68 553.86 671.82 554.68 665.04 Z" />
<path fill="#000000" d=" M 645.52 673.91 C 646.07 667.29 653.56 661.19 660.00 664.79 C 659.85 665.48 659.55 666.85 659.40 667.54 C 657.21 667.13 654.78 666.07 652.79 667.60 C 648.55 669.82 647.82 675.04 648.42 679.34 C 652.17 680.16 656.01 680.38 659.84 680.22 C 659.84 680.86 659.83 682.13 659.83 682.77 C 655.85 682.74 651.67 683.34 647.84 682.07 C 644.71 680.63 645.23 676.70 645.52 673.91 Z" />
<path fill="#000000" d=" M 587.38 671.60 C 589.61 669.21 592.06 666.89 595.01 665.41 C 597.03 664.15 599.27 665.35 601.35 665.83 C 601.70 668.43 602.41 671.96 599.77 673.62 C 596.39 675.93 592.19 675.17 588.52 674.13 C 588.48 676.25 587.60 678.90 589.45 680.54 C 592.42 683.48 597.08 682.81 600.61 681.35 C 600.69 682.06 600.84 683.48 600.92 684.18 C 596.66 686.33 590.88 685.94 587.44 682.46 C 584.46 679.68 584.69 674.49 587.38 671.60 Z" />
<path fill="#010101" d=" M 620.72 664.70 C 624.73 662.86 623.55 668.06 623.74 670.34 C 626.38 669.83 629.08 668.82 631.77 669.62 C 630.69 673.18 626.53 672.67 623.67 673.56 C 623.44 676.59 623.82 679.84 622.34 682.63 C 621.77 682.60 620.64 682.54 620.07 682.51 C 620.89 676.60 620.42 670.63 620.72 664.70 Z" />
<path fill="#050505" d=" M 636.92 664.80 C 637.63 664.69 639.05 664.49 639.77 664.38 C 639.64 670.16 639.42 675.94 639.51 681.72 C 638.80 681.87 637.40 682.18 636.69 682.33 C 636.60 676.49 636.21 670.61 636.92 664.80 Z" />
<path fill="#f5f4f0" d=" M 591.87 672.23 C 592.85 669.35 595.87 668.09 598.62 667.48 C 598.57 668.76 598.53 670.05 598.50 671.34 C 596.31 671.80 594.10 672.16 591.87 672.23 Z" />
</svg>
