<?xml version="1.0" encoding="UTF-8" ?>
<!DOCTYPE svg PUBLIC "-//W3C//DTD SVG 1.1//EN" "http://www.w3.org/Graphics/SVG/1.1/DTD/svg11.dtd">
<svg width="1155pt" height="866pt" viewBox="0 0 1155 866" version="1.1" xmlns="http://www.w3.org/2000/svg">
<path fill="#f5f3ef" d=" M 0.00 0.00 L 1155.00 0.00 L 1155.00 866.00 L 0.00 866.00 L 0.00 0.00 Z" />
<path fill="#070707" d=" M 218.41 39.99 C 217.95 37.16 219.96 34.12 222.85 33.71 C 225.54 33.41 228.26 33.55 230.96 33.58 C 230.94 34.14 230.89 35.27 230.87 35.83 C 228.00 35.85 224.96 35.30 222.26 36.54 C 219.70 38.38 220.45 41.99 219.54 44.65 C 221.23 46.65 223.83 44.60 225.88 44.62 C 225.29 47.44 222.58 47.73 220.22 47.76 C 220.08 51.36 220.93 55.24 218.95 58.51 C 218.05 52.37 218.90 46.15 218.41 39.99 Z" />
<path fill="#070707" d=" M 316.34 34.89 C 316.84 35.07 317.85 35.42 318.35 35.59 C 318.49 40.08 318.22 44.58 318.15 49.07 C 317.41 51.62 314.70 49.61 312.93 49.67 C 309.97 48.75 306.75 50.85 307.17 54.09 C 309.10 54.29 311.04 54.47 312.99 54.59 C 314.16 53.94 315.35 53.30 316.55 52.69 C 316.54 53.37 316.52 54.73 316.51 55.40 C 312.51 56.70 306.54 57.76 304.32 53.14 C 305.57 51.21 306.84 49.04 309.11 48.18 C 311.46 46.98 314.17 47.76 316.66 47.83 C 316.81 43.51 316.41 39.20 316.34 34.89 Z" />
<path fill="#070707" d=" M 85.09 44.29 C 85.55 39.70 90.23 37.07 94.32 36.17 C 94.41 36.64 94.57 37.59 94.65 38.07 C 91.40 38.65 88.54 40.35 86.64 43.08 C 89.41 44.22 92.36 44.86 95.14 45.97 C 96.86 46.58 97.77 48.40 97.46 50.18 C 96.24 52.40 94.05 53.79 91.94 55.05 C 90.24 55.60 88.57 56.21 86.90 56.80 C 86.08 57.19 85.27 57.56 84.45 57.93 C 84.44 57.47 84.43 56.56 84.42 56.10 C 88.17 55.49 92.13 54.28 94.70 51.32 C 96.05 50.11 95.72 47.62 93.94 46.98 C 91.03 45.94 87.88 45.69 85.09 44.29 Z" />
<path fill="#070707" d=" M 102.58 45.12 C 102.12 42.18 102.35 38.31 104.52 36.04 C 104.92 37.96 104.66 39.92 104.55 41.85 C 105.14 41.84 106.31 41.82 106.89 41.81 C 106.86 42.39 106.78 43.53 106.75 44.10 C 106.02 44.18 104.55 44.35 103.82 44.44 C 103.05 48.75 104.32 53.55 102.38 57.56 C 102.04 53.42 102.60 49.27 102.58 45.12 Z" />
<path fill="#070707" d=" M 196.60 48.83 C 196.62 44.87 195.70 40.99 195.66 37.03 C 196.14 37.54 197.09 38.54 197.57 39.04 C 198.24 44.78 196.89 50.69 198.15 56.34 C 194.56 59.66 189.30 56.24 186.34 53.55 C 186.83 51.92 186.94 49.72 188.82 49.04 C 191.24 47.94 194.04 48.75 196.60 48.83 Z" />
<path fill="#070707" d=" M 294.74 49.11 C 295.44 46.48 295.83 43.65 297.69 41.53 C 297.69 43.75 297.24 45.92 296.64 48.05 C 297.98 47.82 299.33 47.59 300.68 47.37 C 300.73 47.92 300.84 49.04 300.89 49.60 C 299.19 50.01 297.49 50.40 295.79 50.77 C 295.78 53.01 296.00 55.33 295.01 57.42 C 293.59 54.80 294.74 51.89 294.74 49.11 Z" />
<path fill="#070707" d=" M 269.84 43.29 C 270.40 43.31 271.53 43.35 272.10 43.37 C 270.85 45.64 269.61 47.91 268.29 50.14 C 268.32 52.39 269.55 54.22 271.00 55.84 C 273.69 53.17 275.15 49.62 275.74 45.92 C 276.19 46.05 277.10 46.31 277.55 46.45 C 275.86 50.13 274.95 54.24 272.30 57.41 C 271.42 57.41 270.55 57.41 269.68 57.40 C 268.79 55.90 267.95 54.36 267.17 52.80 C 265.86 55.34 263.54 57.07 260.61 56.88 C 259.51 53.22 257.46 49.33 258.80 45.48 C 260.75 48.38 261.05 51.93 261.92 55.22 C 263.73 54.22 265.32 52.90 266.70 51.35 C 265.88 49.58 265.12 47.79 264.43 45.97 C 266.34 46.07 266.96 47.93 267.91 49.26 C 268.26 48.48 268.97 46.91 269.32 46.12 C 269.45 45.42 269.71 44.00 269.84 43.29 Z" />
<path fill="#070707" d=" M 284.61 42.62 C 288.54 42.61 289.54 46.31 289.81 49.54 C 286.49 51.01 281.80 49.28 279.89 53.21 C 281.41 53.43 282.94 53.63 284.48 53.79 C 284.50 54.32 284.54 55.36 284.56 55.89 C 282.02 55.95 277.39 55.93 278.28 52.11 C 279.76 48.44 284.52 48.79 287.79 48.20 C 286.72 46.34 285.53 44.55 284.61 42.62 Z" />
<path fill="#070707" d=" M 245.85 44.21 C 246.43 44.71 247.01 45.21 247.60 45.71 C 247.15 46.45 246.26 47.94 245.81 48.69 C 247.95 48.50 250.10 48.28 252.26 48.20 C 251.59 51.42 247.81 50.35 245.45 50.95 C 245.15 53.00 244.86 55.05 244.60 57.10 C 244.09 56.95 243.07 56.64 242.56 56.49 C 243.10 54.95 243.62 53.41 244.11 51.86 C 243.44 51.41 242.10 50.51 241.43 50.06 C 242.08 49.83 243.37 49.37 244.01 49.14 C 244.58 47.48 245.19 45.84 245.85 44.21 Z" />
<path fill="#070707" d=" M 113.50 46.57 C 114.88 45.78 116.54 46.37 118.04 46.38 C 118.41 46.99 119.16 48.21 119.54 48.82 C 119.56 51.31 119.39 53.82 118.53 56.18 C 117.87 56.51 116.56 57.18 115.91 57.52 C 113.88 56.73 111.97 55.67 110.24 54.34 C 110.34 51.45 111.88 48.88 113.50 46.57 Z" />
<path fill="#070707" d=" M 124.86 46.61 C 125.34 46.52 126.28 46.33 126.76 46.24 C 126.74 47.16 126.70 49.01 126.68 49.93 C 127.30 49.55 128.54 48.80 129.15 48.42 C 129.59 48.48 130.45 48.59 130.88 48.65 C 130.77 49.19 130.67 49.74 130.56 50.28 C 129.13 50.91 127.64 51.44 126.30 52.26 C 125.47 54.26 125.86 56.68 124.40 58.42 C 124.02 54.48 124.43 50.53 124.86 46.61 Z" />
<path fill="#070707" d=" M 158.76 46.63 C 161.46 46.26 165.23 45.28 166.72 48.39 C 168.06 49.85 167.58 51.82 166.73 53.38 C 164.25 53.41 161.77 53.45 159.29 53.56 C 159.29 54.63 159.30 56.77 159.30 57.84 C 160.89 57.79 162.47 57.69 164.06 57.55 C 164.72 56.32 165.39 55.10 166.05 53.87 C 166.53 54.09 167.50 54.53 167.98 54.75 C 165.88 57.43 163.15 60.77 159.27 59.54 C 155.84 58.60 157.46 54.24 157.72 51.71 C 160.40 51.42 163.09 51.34 165.78 51.14 C 165.36 50.45 164.51 49.06 164.09 48.36 C 161.76 48.03 159.62 49.15 157.42 49.68 C 157.76 48.92 158.43 47.39 158.76 46.63 Z" />
<path fill="#070707" d=" M 174.31 49.02 C 174.31 47.54 175.43 46.52 176.24 45.44 C 176.24 46.62 176.24 48.98 176.24 50.16 C 176.64 47.30 179.18 46.97 181.27 47.47 C 181.73 51.49 180.93 55.46 180.15 59.38 C 179.55 59.46 178.35 59.61 177.75 59.69 C 179.25 56.18 180.19 52.44 179.22 48.63 C 175.34 50.93 174.62 55.58 174.27 59.66 C 173.81 59.62 172.91 59.53 172.46 59.48 C 173.23 56.02 173.80 52.52 174.31 49.02 Z" />
<path fill="#070707" d=" M 232.39 46.49 C 234.19 44.77 236.67 46.27 238.68 46.72 C 238.51 50.08 237.94 54.03 234.90 56.05 C 233.23 57.31 230.89 55.72 230.44 53.96 C 229.65 51.30 230.89 48.63 232.39 46.49 Z" />
<path fill="#070707" d=" M 136.45 57.41 C 135.58 52.86 137.44 45.31 143.47 46.49 C 144.79 50.80 140.73 53.46 137.54 55.29 C 138.09 55.69 139.17 56.48 139.71 56.88 C 139.61 57.43 139.40 58.52 139.30 59.07 C 138.34 58.52 137.40 57.97 136.45 57.41 Z" />
<path fill="#f5f3ef" d=" M 115.00 47.97 C 118.98 47.90 117.77 52.38 116.63 54.76 C 114.59 55.19 113.08 54.09 112.42 52.23 C 113.31 50.83 114.16 49.40 115.00 47.97 Z" />
<path fill="#f5f3ef" d=" M 232.33 50.97 C 233.54 49.60 234.66 45.93 236.59 48.63 C 236.53 51.06 235.52 53.92 232.72 54.12 C 232.62 53.34 232.42 51.76 232.33 50.97 Z" />
<path fill="#f5f3ef" d=" M 139.61 49.19 C 142.35 46.91 141.90 51.65 139.54 51.79 C 137.43 52.54 138.51 49.63 139.61 49.19 Z" />
<path fill="#f5f3ef" d=" M 188.78 50.87 C 190.73 49.90 192.87 50.42 194.90 50.73 C 195.69 51.88 196.50 53.03 197.33 54.16 C 195.00 57.52 186.73 55.15 188.78 50.87 Z" />
<path fill="#070707" d=" M 475.59 216.41 C 474.83 213.15 476.31 209.43 479.87 208.80 C 482.23 209.07 484.56 209.63 486.94 209.74 C 505.04 210.49 522.75 215.32 540.93 214.78 C 563.29 215.71 585.69 215.56 608.07 215.53 C 619.03 215.40 630.00 215.83 640.95 215.09 C 647.94 214.51 654.97 215.05 661.95 214.30 C 664.47 214.18 667.39 213.63 669.47 215.48 C 673.18 217.58 672.70 222.31 673.20 225.95 C 673.90 246.43 674.84 266.94 673.75 287.42 C 673.62 290.90 673.51 294.37 673.32 297.84 C 671.89 312.43 669.98 326.98 668.35 341.55 C 667.83 350.41 668.40 359.29 668.12 368.15 C 667.53 371.61 663.64 373.07 660.62 371.77 C 655.11 377.30 646.85 374.58 639.95 375.15 C 621.96 374.81 603.96 374.56 585.97 374.92 C 567.68 376.51 549.32 375.36 531.01 376.14 C 517.99 376.15 504.96 376.21 491.94 376.25 C 486.12 376.22 480.23 376.52 474.50 375.35 C 472.28 374.79 469.65 373.59 469.44 371.00 C 468.62 364.37 469.65 357.68 469.69 351.03 C 469.83 333.44 469.76 315.84 469.79 298.25 C 469.78 294.87 469.79 291.50 469.78 288.13 C 469.76 266.06 469.52 243.99 469.37 221.92 C 468.99 218.38 472.58 216.60 475.59 216.41 Z" />
<path fill="#070707" d=" M 848.14 218.02 C 847.89 214.85 851.12 212.36 854.11 212.69 C 856.85 213.49 858.63 216.35 861.62 216.54 C 869.16 217.73 876.84 217.12 884.38 218.38 C 894.17 219.92 904.09 219.38 913.93 220.27 C 934.96 220.67 956.00 220.34 977.04 220.41 C 986.04 220.34 995.07 220.72 1004.04 219.77 C 1010.68 219.34 1017.33 217.79 1024.00 218.79 C 1027.36 220.55 1029.06 224.30 1029.26 227.97 C 1030.06 246.29 1030.08 264.63 1029.71 282.97 C 1029.63 289.51 1029.00 296.03 1027.74 302.45 C 1026.32 310.25 1026.78 318.18 1026.30 326.05 C 1026.09 339.05 1026.37 352.05 1026.29 365.05 C 1026.41 367.31 1024.30 368.66 1022.88 370.05 C 1022.77 370.68 1022.55 371.93 1022.44 372.56 C 1019.05 375.59 1014.20 375.13 1010.01 375.79 C 1003.70 376.75 997.30 376.52 990.97 377.24 C 982.30 377.82 973.75 379.67 965.03 379.64 C 944.38 379.97 923.73 379.67 903.07 379.84 C 893.69 379.64 884.31 380.58 874.94 379.82 C 868.24 379.36 860.57 380.42 854.98 375.92 C 851.90 373.59 852.95 369.28 852.79 365.96 C 853.28 358.94 851.21 352.09 851.41 345.08 C 851.62 329.12 851.51 313.15 851.54 297.19 C 851.52 293.76 851.50 290.34 851.50 286.91 C 851.31 266.27 851.56 245.62 850.81 224.99 C 851.31 222.19 847.88 220.78 848.14 218.02 Z" />
<path fill="#070707" d=" M 132.07 222.16 C 138.79 217.19 147.67 221.35 155.10 218.64 C 158.26 217.71 160.38 220.78 161.18 223.40 C 203.13 223.89 245.08 223.66 287.03 223.51 C 291.98 223.65 297.63 221.74 301.98 224.92 C 303.84 227.11 304.42 230.09 304.57 232.89 C 305.47 245.27 302.82 257.49 301.76 269.77 C 301.41 276.54 300.78 283.31 300.85 290.10 C 300.85 293.60 300.89 297.12 300.81 300.63 C 299.79 323.45 301.28 346.32 299.95 369.13 C 299.91 373.46 296.48 377.35 292.18 377.88 C 286.19 378.83 280.09 378.85 274.03 378.86 C 246.42 380.40 218.72 378.46 191.11 379.99 C 184.80 380.74 178.40 380.07 172.12 381.08 C 165.40 381.67 158.67 382.24 151.93 382.29 C 147.28 382.43 142.73 384.03 138.08 383.67 C 136.04 382.72 133.99 381.08 133.43 378.81 C 131.32 370.40 131.78 361.66 131.08 353.09 C 129.47 339.10 130.54 325.00 129.85 310.97 C 130.65 283.29 129.62 255.60 129.81 227.92 C 129.94 225.86 130.06 223.33 132.07 222.16 Z" />
<path fill="#f5f3ef" d=" M 479.48 219.18 C 483.91 220.12 488.43 220.32 492.95 220.35 C 508.65 221.46 524.20 224.82 540.02 224.32 C 570.67 224.99 601.34 224.70 632.00 224.78 C 642.80 224.26 653.62 224.70 664.42 224.53 L 663.03 224.86 C 664.49 245.86 664.66 266.92 664.38 287.96 C 663.91 312.82 657.61 337.23 658.21 362.15 C 654.60 361.73 652.48 365.58 648.97 365.19 C 626.00 365.34 603.02 365.14 580.05 365.70 C 566.76 367.20 553.37 366.23 540.03 366.46 C 524.68 366.41 509.33 366.40 493.98 366.31 C 488.91 366.25 483.82 366.47 478.79 365.69 C 479.80 348.50 479.10 331.26 479.29 314.04 C 479.23 284.68 479.38 255.33 479.68 225.97 C 479.71 223.70 479.65 221.44 479.48 219.18 Z" />
<path fill="#f5f3ef" d=" M 861.38 227.09 C 872.03 227.14 882.65 227.90 893.22 229.18 C 925.80 230.08 958.39 230.28 990.98 230.17 C 1000.41 229.71 1009.84 229.13 1019.27 228.54 C 1020.15 247.69 1020.79 266.88 1020.12 286.05 C 1019.94 295.79 1017.01 305.24 1017.24 315.01 C 1015.93 331.55 1016.39 348.15 1016.22 364.72 C 1009.27 366.48 1002.07 366.83 994.95 367.35 C 986.89 367.54 978.98 369.24 970.97 369.81 C 964.68 370.48 958.35 370.39 952.04 370.36 C 927.69 370.32 903.34 370.41 878.99 370.16 C 873.59 369.82 868.16 369.71 862.82 368.81 C 862.65 364.41 862.60 360.00 862.03 355.63 C 860.10 343.51 860.99 331.21 860.77 318.99 C 860.57 288.35 861.20 257.73 861.38 227.09 Z" />
<path fill="#f5f3ef" d=" M 139.80 249.05 C 139.90 242.60 139.48 236.12 140.22 229.70 C 142.07 229.71 143.92 229.71 145.78 229.74 C 148.23 234.22 153.67 233.53 157.99 233.61 C 199.31 233.38 240.63 233.40 281.95 233.57 C 286.13 233.65 290.32 233.55 294.49 233.20 C 295.44 245.23 293.05 257.15 292.09 269.10 C 291.07 279.06 291.27 289.08 291.26 299.07 C 289.40 322.06 291.71 345.20 289.68 368.17 C 266.81 369.86 243.87 369.62 220.95 369.69 C 206.65 369.47 192.39 370.58 178.10 370.76 C 173.75 371.21 169.40 371.68 165.03 371.85 C 157.60 372.80 150.05 372.01 142.66 373.50 C 141.78 368.38 141.62 363.19 141.35 358.02 C 140.60 349.02 139.62 340.02 139.72 330.98 C 139.77 303.67 139.59 276.36 139.80 249.05 Z" />
<path fill="#070707" d=" M 942.86 238.76 C 943.50 238.68 944.79 238.51 945.43 238.43 C 945.31 247.38 945.04 256.38 945.20 265.35 C 946.47 265.41 947.75 265.48 949.04 265.56 C 950.88 269.09 948.19 272.57 946.92 275.79 C 945.26 275.82 943.60 275.79 941.96 275.75 C 940.80 272.75 939.49 269.75 939.18 266.52 C 939.95 266.47 941.49 266.37 942.26 266.33 C 942.57 257.15 941.45 247.84 942.86 238.76 Z" />
<path fill="#070707" d=" M 570.35 260.57 C 576.25 258.30 583.08 263.79 581.74 270.06 C 581.13 277.49 570.09 280.03 566.25 273.66 C 562.80 269.26 565.20 262.35 570.35 260.57 Z" />
<path fill="#070707" d=" M 553.94 268.34 C 556.36 267.87 558.87 268.16 561.21 268.94 C 562.21 272.39 557.53 273.67 555.74 275.99 C 554.78 275.44 553.84 274.89 552.92 274.34 C 547.63 279.38 547.42 287.93 550.81 294.08 C 552.45 297.00 553.85 300.57 557.27 301.83 C 564.90 305.88 574.01 304.95 582.09 302.91 C 589.03 301.08 593.85 294.84 595.51 288.11 C 595.55 283.28 596.73 277.58 593.30 273.58 C 591.05 272.82 588.68 272.52 586.41 271.86 C 586.47 271.21 586.60 269.89 586.66 269.23 C 589.99 269.74 594.33 269.35 596.44 272.56 C 599.56 277.45 598.59 283.63 598.33 289.12 C 596.62 295.19 592.88 301.24 586.98 303.99 C 580.27 307.51 572.40 307.66 565.00 307.36 C 560.61 306.56 556.14 305.04 552.58 302.29 C 547.88 296.67 544.67 289.27 545.75 281.81 C 546.81 277.38 548.85 272.55 553.59 271.07 C 553.67 270.39 553.85 269.03 553.94 268.34 Z" />
<path fill="#070707" d=" M 943.69 282.97 C 949.20 281.26 955.08 287.53 952.81 292.92 C 951.42 297.65 945.09 299.77 941.15 296.78 C 935.95 293.41 937.46 284.20 943.69 282.97 Z" />
<path fill="#070707" d=" M 231.88 283.74 C 238.05 282.44 243.72 289.10 241.50 295.02 C 239.83 301.50 230.13 302.89 226.43 297.45 C 222.36 292.64 225.78 284.62 231.88 283.74 Z" />
<path fill="#070707" d=" M 647.92 285.18 C 652.66 283.69 657.87 288.18 657.46 293.05 C 657.27 298.19 651.03 302.20 646.42 299.51 C 643.83 298.52 642.74 295.88 641.86 293.48 C 638.64 294.54 634.34 297.81 631.69 294.16 C 623.09 294.06 614.47 294.44 605.89 294.06 C 603.71 294.13 603.14 292.60 603.49 290.64 C 607.61 291.18 611.77 291.35 615.94 291.28 C 621.60 291.15 627.33 291.69 632.94 290.59 C 633.45 289.51 634.04 288.47 634.61 287.43 C 637.12 288.46 639.61 289.56 642.02 290.81 C 643.28 288.37 644.99 285.71 647.92 285.18 Z" />
<path fill="#070707" d=" M 485.61 285.71 C 490.26 283.48 496.45 286.75 496.59 292.06 C 497.43 297.79 490.25 302.57 485.35 299.38 C 479.87 296.84 480.19 288.15 485.61 285.71 Z" />
<path fill="#070707" d=" M 867.38 285.43 C 871.04 283.06 876.60 284.83 877.98 289.05 C 880.17 293.97 875.19 299.98 869.92 298.68 C 863.63 297.97 861.96 288.51 867.38 285.43 Z" />
<path fill="#1b41fd" d=" M 815.02 288.08 C 827.15 286.98 839.34 287.36 851.50 286.91 C 851.50 290.34 851.52 293.76 851.54 297.19 C 835.35 296.94 819.20 297.91 803.04 298.65 C 786.37 298.76 769.70 298.63 753.04 298.72 C 743.00 298.62 732.92 299.12 722.94 297.83 C 706.41 297.41 689.86 297.85 673.32 297.84 C 673.51 294.37 673.62 290.90 673.75 287.42 C 689.17 287.63 704.60 287.70 720.02 287.60 C 725.05 287.49 729.97 288.83 735.00 288.73 C 750.02 288.81 765.04 288.77 780.06 288.79 C 791.72 288.72 803.39 289.12 815.02 288.08 Z" />
<path fill="#070707" d=" M 907.84 286.67 C 910.61 287.79 915.68 288.33 915.58 292.12 C 912.73 294.01 909.24 293.69 906.10 292.89 C 898.37 292.54 890.63 293.39 882.89 293.40 C 880.07 292.99 882.07 289.77 884.04 290.25 C 891.76 290.22 899.48 289.87 907.21 289.74 C 907.37 288.97 907.68 287.44 907.84 286.67 Z" />
<path fill="#1b41fd" d=" M 409.11 289.71 C 429.26 287.53 449.59 289.76 469.78 288.13 C 469.79 291.50 469.78 294.87 469.79 298.25 C 452.25 299.63 434.63 298.12 417.08 298.99 C 408.76 300.01 400.37 299.70 392.01 299.80 C 368.72 301.51 345.34 301.05 322.01 301.16 C 314.93 301.42 307.88 300.87 300.81 300.63 C 300.89 297.12 300.85 293.60 300.85 290.10 C 317.54 291.48 334.31 290.51 351.03 290.96 C 356.34 291.30 361.66 290.77 366.97 291.14 C 376.31 291.16 385.62 289.99 394.97 289.84 C 399.68 289.79 404.40 289.98 409.11 289.71 Z" />
<path fill="#070707" d=" M 209.63 292.39 C 210.35 290.79 211.47 289.44 212.75 288.26 C 216.01 289.29 219.15 290.68 222.41 291.72 C 222.68 292.36 223.24 293.64 223.52 294.29 C 220.35 298.10 215.03 298.27 210.68 299.93 C 210.22 298.42 209.80 296.92 209.42 295.40 C 198.62 296.26 187.75 295.56 176.95 296.55 C 172.48 297.00 167.98 296.89 163.51 296.54 C 163.49 295.54 163.48 294.54 163.48 293.54 C 173.01 294.68 182.48 292.33 192.00 293.12 C 197.89 293.30 203.78 293.09 209.63 292.39 Z" />
<path fill="#070707" d=" M 528.43 288.84 C 532.59 289.80 536.49 291.60 540.52 292.98 C 540.17 294.09 539.81 295.19 539.46 296.30 C 536.39 297.33 533.29 298.35 530.08 298.85 C 528.17 298.82 528.39 296.56 527.78 295.33 C 519.51 295.14 511.22 295.43 502.95 295.24 C 500.80 295.30 499.18 293.84 499.56 291.60 C 509.09 293.01 518.76 292.11 528.36 292.36 C 528.38 291.48 528.41 289.72 528.43 288.84 Z" />
<path fill="#070707" d=" M 986.48 428.28 C 987.00 428.27 988.04 428.25 988.56 428.23 C 988.12 439.82 988.47 451.40 988.48 462.99 C 989.85 463.53 991.21 464.11 992.57 464.73 C 990.92 467.84 989.90 471.25 988.07 474.26 C 987.60 474.24 986.66 474.20 986.19 474.18 C 984.32 470.70 982.38 467.14 981.78 463.19 C 983.26 463.37 984.75 463.56 986.25 463.78 C 986.70 451.95 986.93 440.11 986.48 428.28 Z" />
<path fill="#070707" d=" M 590.33 457.48 C 592.38 456.82 595.10 456.89 596.38 458.92 C 597.23 462.06 594.89 467.29 591.10 465.93 C 587.46 465.04 586.87 458.85 590.33 457.48 Z" />
<path fill="#070707" d=" M 575.34 463.42 C 578.05 461.42 580.84 458.32 584.52 459.69 C 584.62 460.81 584.73 461.95 584.82 463.09 C 584.15 463.41 582.80 464.03 582.12 464.35 C 580.50 463.86 578.63 462.78 577.44 464.59 C 574.04 468.48 574.12 474.13 574.86 478.96 C 576.21 483.04 580.93 485.15 585.01 484.86 C 590.61 485.15 595.47 481.83 599.59 478.44 C 602.04 475.94 601.16 472.09 601.27 468.94 C 601.45 465.91 599.27 463.59 598.02 461.07 C 604.00 461.56 603.64 468.64 603.55 473.03 C 604.02 476.41 602.24 479.55 599.54 481.48 C 594.74 484.93 588.94 487.64 582.90 487.09 C 578.67 486.28 573.86 484.07 572.60 479.59 C 571.96 474.16 571.55 467.87 575.34 463.42 Z" />
<path fill="#070707" d=" M 1055.37 460.62 C 1061.80 458.58 1069.27 460.27 1074.54 464.41 C 1078.96 467.86 1078.58 474.14 1077.89 479.12 C 1077.59 481.61 1075.81 483.55 1075.16 485.91 C 1077.35 492.23 1077.04 499.66 1073.44 505.42 C 1070.50 508.86 1066.83 511.76 1062.64 513.51 C 1058.76 515.08 1054.51 514.19 1050.48 514.71 C 1047.46 515.64 1045.38 518.77 1042.07 518.83 C 1035.65 518.94 1028.58 519.08 1023.30 514.83 C 1018.48 512.05 1017.73 506.04 1018.28 501.02 C 1016.08 499.09 1013.80 497.06 1012.71 494.29 C 1010.96 490.06 1011.85 485.37 1012.86 481.09 C 1014.42 478.31 1015.58 475.20 1017.94 472.97 C 1020.95 470.13 1024.48 467.94 1028.03 465.84 C 1033.54 464.23 1039.33 464.62 1045.00 464.79 C 1049.06 465.48 1051.73 461.66 1055.37 460.62 Z" />
<path fill="#f5f3ef" d=" M 1048.24 467.26 C 1051.35 465.94 1053.77 463.28 1057.05 462.34 C 1061.89 461.86 1067.19 461.75 1071.33 464.74 C 1078.19 468.53 1076.97 478.48 1073.03 484.00 C 1071.36 486.22 1073.89 488.51 1074.07 490.81 C 1074.25 496.07 1073.89 502.03 1070.07 506.07 C 1066.41 510.38 1060.63 512.86 1054.98 512.19 C 1051.61 511.86 1048.11 512.25 1045.62 514.75 C 1042.50 517.81 1037.85 516.80 1033.93 516.71 C 1029.10 516.53 1024.71 513.71 1021.81 509.97 C 1020.04 507.20 1020.55 503.76 1020.44 500.65 C 1018.36 498.05 1015.78 495.75 1014.56 492.59 C 1013.23 489.52 1013.78 486.11 1013.75 482.88 C 1014.40 481.15 1015.06 479.42 1015.70 477.69 C 1016.92 475.92 1018.24 474.22 1019.63 472.59 C 1022.82 470.29 1026.05 467.90 1029.84 466.69 C 1035.96 465.75 1042.12 467.08 1048.24 467.26 Z" />
<path fill="#070707" d=" M 190.79 477.05 C 195.73 477.66 200.12 480.59 204.41 482.96 C 204.38 483.48 204.32 484.52 204.29 485.04 C 199.99 486.81 195.46 488.41 190.82 488.89 C 190.76 487.39 190.71 485.89 190.67 484.40 C 183.46 483.98 176.23 484.57 169.04 483.83 C 164.99 483.52 160.98 484.40 156.93 484.18 C 149.86 483.33 142.73 484.09 135.65 483.55 C 135.66 483.07 135.70 482.09 135.71 481.60 C 144.49 482.04 153.27 482.57 162.06 482.80 C 171.84 482.72 181.63 482.86 191.41 482.55 C 191.24 480.71 190.94 478.88 190.79 477.05 Z" />
<path fill="#070707" d=" M 216.34 477.53 C 218.89 477.34 222.02 476.74 224.03 478.78 C 228.46 481.82 227.39 489.40 222.60 491.53 C 218.93 492.40 213.82 491.84 212.30 487.78 C 211.65 484.10 212.37 478.99 216.34 477.53 Z" />
<path fill="#070707" d=" M 1045.04 479.46 C 1048.15 478.94 1051.26 478.35 1054.35 477.63 C 1055.90 479.07 1056.81 481.02 1056.15 483.17 C 1054.98 489.19 1054.67 495.30 1054.57 501.42 C 1048.63 504.09 1041.96 503.23 1035.65 503.37 C 1033.36 497.44 1034.66 490.90 1034.15 484.71 C 1034.65 484.34 1035.65 483.62 1036.15 483.25 C 1036.79 487.94 1036.31 492.67 1036.59 497.38 C 1036.62 498.47 1036.67 499.56 1036.74 500.66 C 1041.76 500.76 1046.79 500.76 1051.81 500.51 C 1052.34 493.75 1052.46 486.95 1053.90 480.30 C 1048.77 481.45 1043.55 482.28 1038.30 482.54 C 1036.68 482.11 1035.10 481.58 1033.57 480.94 C 1037.19 479.24 1041.22 480.16 1045.04 479.46 Z" />
<path fill="#070707" d=" M 983.52 484.11 C 984.85 479.88 990.08 480.31 993.45 481.55 C 994.68 484.23 995.60 487.81 993.08 490.10 C 989.19 493.81 981.72 489.37 983.52 484.11 Z" />
<path fill="#eba01d" d=" M 1038.30 482.54 C 1043.55 482.28 1048.77 481.45 1053.90 480.30 C 1052.46 486.95 1052.34 493.75 1051.81 500.51 C 1046.79 500.76 1041.76 500.76 1036.74 500.66 C 1036.67 499.56 1036.62 498.47 1036.59 497.38 C 1036.66 492.47 1036.71 487.56 1036.91 482.65 C 1037.25 482.62 1037.95 482.57 1038.30 482.54 Z" />
<path fill="#514c45" d=" M 223.21 487.35 C 223.77 487.78 223.77 487.78 223.21 487.35 Z" />
<path fill="#070707" d=" M 1082.40 497.13 C 1083.61 493.86 1087.22 492.96 1090.01 491.50 C 1091.52 492.12 1093.14 492.61 1094.48 493.62 C 1095.11 496.52 1095.25 500.03 1093.50 502.59 C 1090.79 505.20 1086.56 506.32 1082.93 505.32 C 1079.90 503.76 1081.30 499.56 1082.40 497.13 Z" />
<path fill="#f5f3ef" d=" M 1088.49 494.59 C 1089.73 494.02 1091.17 494.54 1092.51 494.50 C 1092.28 496.75 1093.23 499.59 1091.42 501.36 C 1089.15 503.14 1086.18 503.51 1083.40 503.31 C 1083.49 501.93 1083.61 500.57 1083.78 499.21 C 1085.50 497.83 1086.86 496.07 1088.49 494.59 Z" />
<path fill="#070707" d=" M 631.10 499.88 C 632.37 496.22 637.11 497.12 640.10 497.55 C 640.51 498.72 640.94 499.88 641.37 501.05 C 640.65 502.96 639.96 505.22 637.88 506.07 C 634.20 508.32 628.98 503.76 631.10 499.88 Z" />
<path fill="#070707" d=" M 598.57 504.01 C 599.75 500.71 603.13 496.69 607.00 498.80 C 608.26 499.71 609.50 500.63 610.70 501.63 C 610.38 503.96 610.03 506.50 608.21 508.19 C 606.38 510.55 603.22 510.75 600.73 512.03 C 603.19 512.36 605.70 512.40 608.19 512.39 C 609.71 518.82 613.04 524.57 615.12 530.80 C 618.30 529.09 620.86 526.53 623.56 524.17 C 623.48 521.35 623.15 518.49 623.64 515.70 C 626.09 514.00 629.28 515.05 632.06 514.77 C 637.80 514.35 643.26 516.74 648.99 516.54 C 655.67 516.34 662.36 517.11 669.03 516.51 C 676.01 515.42 683.12 515.16 690.17 515.60 C 692.07 520.15 691.49 525.16 691.68 529.96 C 691.63 533.07 691.92 536.21 691.38 539.29 C 690.87 539.42 689.84 539.67 689.32 539.80 C 689.30 532.45 689.97 525.02 688.60 517.74 C 676.70 517.33 664.90 519.45 653.01 518.79 C 643.83 519.38 634.90 515.18 625.74 517.18 C 625.52 519.10 625.52 521.04 625.48 522.98 C 627.60 520.96 629.69 518.92 631.91 517.01 C 632.88 521.32 628.21 523.12 625.51 525.32 C 625.46 531.24 625.40 537.19 626.20 543.08 C 632.70 541.74 639.24 540.30 645.92 540.37 C 660.39 540.41 674.85 540.13 689.31 540.24 L 690.21 540.29 C 690.39 540.80 690.77 541.81 690.96 542.32 C 689.20 542.38 687.49 542.43 685.75 542.44 C 685.56 542.91 685.17 543.87 684.98 544.34 C 677.66 544.40 670.34 544.73 663.03 544.96 C 654.05 545.74 644.92 544.17 636.06 546.19 C 633.63 546.56 631.23 547.10 628.85 547.66 C 626.40 548.28 623.63 547.11 621.44 548.67 C 624.56 548.78 628.15 547.08 630.86 549.37 C 642.91 549.59 654.97 549.82 667.00 548.79 C 673.86 548.69 680.73 548.73 687.60 548.75 C 687.59 549.57 687.59 550.40 687.59 551.24 C 668.40 551.20 649.21 551.59 630.03 551.73 C 626.57 551.83 623.09 551.52 619.85 550.25 C 619.49 549.60 618.76 548.30 618.40 547.65 C 620.03 545.82 622.38 545.38 624.71 545.17 C 622.37 539.45 623.73 533.17 623.45 527.19 C 620.61 529.45 617.80 534.07 613.57 532.43 C 610.91 527.84 609.64 522.47 607.48 517.59 C 607.03 525.62 607.15 533.69 606.23 541.69 C 605.40 541.63 604.58 541.58 603.77 541.54 C 604.85 536.09 604.29 530.51 605.16 525.04 C 605.64 521.61 605.62 518.14 605.22 514.71 C 602.54 514.64 599.86 514.63 597.18 514.63 C 597.43 518.75 597.52 522.88 597.53 527.02 C 596.53 527.12 595.53 527.24 594.55 527.38 C 595.57 523.44 595.18 519.37 595.35 515.36 C 590.27 515.00 585.22 514.23 580.13 514.10 C 581.10 518.84 583.51 523.07 585.64 527.37 C 588.41 527.65 591.20 527.94 593.98 528.25 C 594.73 528.00 596.24 527.52 596.99 527.28 C 599.06 532.49 598.29 538.19 597.70 543.62 C 601.88 543.31 606.05 542.79 610.25 542.65 C 610.78 542.96 611.84 543.59 612.37 543.91 C 612.48 545.06 612.58 546.22 612.68 547.39 C 610.06 548.77 607.07 548.73 604.20 548.80 C 604.39 550.54 604.58 552.27 605.01 554.00 C 605.69 552.78 606.29 551.51 606.85 550.23 C 607.20 550.26 607.91 550.30 608.27 550.32 C 609.36 559.71 610.42 569.10 611.36 578.51 C 612.76 578.62 614.18 578.74 615.60 578.87 C 615.65 579.71 615.71 580.56 615.77 581.42 C 613.67 581.21 611.59 580.85 609.53 580.42 C 608.12 575.63 608.41 570.56 607.80 565.64 C 607.68 562.01 606.52 558.41 606.96 554.79 C 606.63 554.79 605.97 554.78 605.64 554.78 C 607.34 562.42 606.04 570.27 606.58 578.00 C 606.82 580.32 606.39 582.62 605.40 584.72 C 603.66 584.50 601.09 584.75 600.54 582.59 C 599.96 578.85 600.02 575.01 600.29 571.24 C 602.13 565.67 604.52 559.05 600.61 553.77 C 600.49 552.23 600.39 550.70 600.30 549.17 C 599.30 549.30 597.31 549.57 596.31 549.70 C 598.09 553.50 597.27 557.81 597.10 561.85 C 596.71 567.50 595.32 572.99 594.40 578.56 C 595.45 579.60 596.50 580.69 597.45 581.85 C 595.08 582.20 593.05 581.26 591.59 579.45 C 593.81 569.74 596.38 559.94 595.51 549.90 C 590.20 550.48 584.85 550.14 579.52 550.39 C 579.47 560.96 579.86 571.53 580.52 582.09 C 580.66 583.38 580.60 584.83 579.25 585.48 C 577.30 585.82 575.51 585.01 573.76 584.35 C 573.46 578.90 572.41 573.51 572.63 568.05 C 572.70 562.54 572.75 557.02 572.28 551.54 C 573.47 551.39 574.72 551.55 575.86 551.06 C 572.76 549.32 569.19 551.40 565.90 550.50 C 564.28 548.86 564.06 546.47 563.38 544.39 C 567.29 544.35 571.22 544.50 575.14 544.40 C 575.55 538.84 574.06 533.21 575.60 527.75 C 577.96 527.27 580.35 526.91 582.76 526.63 C 580.19 522.03 577.29 516.89 578.66 511.44 C 585.46 511.94 592.23 513.38 599.07 512.33 C 599.92 509.51 597.34 506.85 598.57 504.01 Z" />
<path fill="#070707" d=" M 675.51 498.12 C 678.26 498.16 680.62 499.67 682.99 500.88 C 682.88 501.48 682.65 502.69 682.54 503.30 C 680.39 504.23 677.70 506.14 676.09 503.38 C 668.01 503.31 659.92 503.42 651.85 503.10 C 648.65 502.69 645.19 502.82 642.42 500.91 C 647.21 499.43 652.13 501.51 657.01 501.16 C 663.16 500.77 669.32 500.74 675.49 500.87 C 675.49 500.18 675.50 498.81 675.51 498.12 Z" />
<path fill="#f5f3ef" d=" M 600.56 507.16 C 600.38 505.03 601.59 503.24 602.55 501.47 C 604.37 501.66 606.19 501.82 608.03 501.94 C 608.50 505.69 603.88 510.84 600.56 507.16 Z" />
<path fill="#070707" d=" M 974.04 521.84 C 972.50 515.80 972.84 509.13 975.79 503.57 C 976.31 503.45 977.34 503.20 977.86 503.07 C 976.99 506.04 975.51 508.82 975.06 511.90 C 974.14 519.63 976.47 527.64 981.50 533.60 C 983.31 535.50 985.95 536.20 988.39 536.98 C 989.03 535.97 989.69 534.97 990.36 533.98 C 985.11 530.21 989.01 520.91 994.84 520.50 C 993.12 524.02 989.14 526.76 990.40 531.24 C 992.32 531.79 994.26 532.27 996.25 532.65 C 997.63 529.91 998.55 526.94 998.49 523.85 C 997.29 523.27 996.04 522.77 995.11 521.82 C 994.83 518.52 999.57 521.04 1000.41 522.74 C 1001.50 526.76 1000.15 531.34 997.44 534.45 C 995.73 534.96 993.90 534.57 992.18 534.62 C 991.64 535.76 991.09 536.88 990.58 538.03 C 992.97 538.40 995.54 538.41 997.65 539.83 C 1003.57 538.16 1007.39 532.91 1009.52 527.42 C 1011.80 522.93 1012.73 517.95 1013.63 513.05 C 1014.21 513.17 1015.38 513.40 1015.97 513.52 C 1014.11 519.84 1012.00 526.15 1009.27 532.16 C 1006.95 537.48 1002.08 541.58 996.32 542.55 C 988.28 550.08 985.43 561.91 986.33 572.60 C 984.74 573.95 983.39 576.08 981.01 575.60 C 978.07 575.48 974.83 576.37 972.16 574.84 C 970.91 573.53 971.40 571.72 971.59 570.14 C 972.18 565.26 973.56 560.53 974.82 555.79 C 976.05 552.95 977.12 550.05 978.14 547.13 C 979.35 543.76 980.59 540.41 981.88 537.08 C 978.43 533.46 976.73 528.67 974.73 524.19 C 974.56 523.60 974.21 522.43 974.04 521.84 Z" />
<path fill="#070707" d=" M 858.97 512.91 C 857.08 509.96 858.69 505.38 862.13 504.42 C 864.79 504.00 867.14 505.72 869.49 506.70 C 869.42 507.87 869.35 509.05 869.29 510.23 C 877.09 510.38 884.87 509.96 892.65 509.40 C 892.72 508.66 892.85 507.18 892.92 506.44 C 895.66 507.19 900.46 508.06 899.61 511.94 C 897.63 512.46 895.69 513.04 893.74 513.63 C 893.37 513.12 892.62 512.12 892.24 511.61 C 884.17 512.62 876.05 512.53 867.94 512.49 C 865.64 515.00 861.44 515.34 858.97 512.91 Z" />
<path fill="#070707" d=" M 502.67 508.54 C 505.02 508.30 508.19 507.59 509.57 510.14 C 510.25 512.49 509.54 514.96 509.27 517.33 C 507.40 518.04 505.18 519.07 503.49 517.41 C 500.52 515.31 501.66 511.38 502.67 508.54 Z" />
<path fill="#070707" d=" M 1089.76 509.85 C 1092.23 507.62 1095.62 508.93 1098.40 509.75 C 1100.24 513.26 1099.35 517.74 1096.41 520.35 C 1094.11 522.75 1090.53 521.64 1087.66 521.35 C 1085.78 517.74 1085.58 511.91 1089.76 509.85 Z" />
<path fill="#f5f3ef" d=" M 1088.81 513.92 C 1089.91 512.99 1091.00 512.05 1092.08 511.09 C 1093.64 511.17 1095.23 511.30 1096.82 511.47 C 1096.82 513.81 1097.19 516.55 1095.29 518.33 C 1093.57 520.36 1090.69 519.35 1088.58 518.66 C 1088.63 517.07 1088.71 515.49 1088.81 513.92 Z" />
<path fill="#070707" d=" M 512.63 512.29 C 522.50 511.87 532.26 514.05 542.14 513.69 C 542.21 509.84 545.96 512.00 547.78 513.26 C 549.05 513.70 548.89 515.24 548.61 516.28 C 547.49 516.91 546.31 517.40 545.12 517.87 C 543.61 516.67 541.95 515.48 539.91 515.85 C 530.78 516.07 521.73 514.47 512.61 514.36 C 512.62 513.84 512.63 512.81 512.63 512.29 Z" />
<path fill="#070707" d=" M 187.76 516.86 C 192.40 515.11 197.25 517.48 201.96 517.67 C 209.98 518.06 218.04 517.40 226.06 518.06 C 238.72 517.67 251.40 518.24 264.06 518.75 C 265.99 518.70 268.72 519.46 268.47 521.92 C 268.81 529.33 266.38 536.58 266.82 544.03 C 266.44 546.42 267.89 550.21 264.51 550.95 C 263.93 541.04 265.85 531.29 266.50 521.45 C 258.06 520.26 249.51 520.56 241.03 519.94 C 223.99 518.96 206.81 521.10 189.87 518.44 C 189.95 528.86 189.91 539.30 188.51 549.65 C 205.63 549.87 222.84 548.83 239.86 551.19 C 248.71 552.16 257.65 551.43 266.54 551.57 C 266.60 552.22 266.73 553.50 266.79 554.15 C 255.66 554.15 244.48 554.70 233.46 552.81 C 222.64 552.11 211.81 551.56 200.96 551.78 C 197.34 556.62 193.94 562.34 188.01 564.60 C 182.99 561.45 178.65 557.38 174.71 552.98 C 174.14 558.45 175.18 564.09 178.40 568.63 C 181.31 572.43 183.36 576.80 186.30 580.58 C 187.64 582.36 189.15 584.73 187.74 586.95 C 185.70 590.57 183.12 593.87 181.06 597.49 C 183.04 598.75 186.42 598.78 186.73 601.74 C 183.81 601.40 180.47 600.73 178.64 598.19 C 179.67 593.20 184.32 589.77 185.78 584.97 C 184.08 580.70 180.49 577.35 178.62 573.09 C 175.63 574.64 172.50 576.02 169.05 575.88 C 171.74 579.72 176.60 583.07 176.37 588.18 C 173.34 593.18 169.30 597.57 167.15 603.10 C 169.00 603.69 170.85 604.30 172.72 604.86 C 172.73 605.47 172.76 606.69 172.78 607.30 C 170.43 606.68 168.13 605.93 165.83 605.17 C 165.52 604.63 164.88 603.56 164.57 603.03 C 166.53 597.87 169.76 593.37 173.01 588.97 C 173.89 587.99 174.08 586.53 173.41 585.40 C 171.70 582.00 168.25 579.74 166.96 576.10 C 165.65 571.67 163.09 567.68 162.39 563.08 C 161.06 556.68 162.07 550.13 162.56 543.70 C 163.21 543.00 163.86 542.31 164.51 541.62 C 166.42 542.55 169.04 543.80 170.01 540.93 C 169.31 540.50 167.91 539.62 167.21 539.19 C 166.80 535.25 168.14 531.52 170.02 528.14 C 170.40 528.51 171.15 529.24 171.53 529.61 C 173.68 527.14 178.26 528.99 178.65 532.06 C 178.98 534.49 178.92 537.27 177.31 539.29 C 175.80 540.73 173.62 540.90 171.72 541.54 C 171.59 542.03 171.34 543.01 171.21 543.49 C 171.96 543.71 173.46 544.13 174.21 544.34 C 174.97 544.44 176.49 544.62 177.25 544.71 C 180.81 542.06 184.36 539.40 187.63 536.40 C 187.72 529.89 187.21 523.34 187.76 516.86 Z" />
<path fill="#eba01d" d=" M 625.74 517.18 C 634.90 515.18 643.83 519.38 653.01 518.79 C 664.90 519.45 676.70 517.33 688.60 517.74 C 689.97 525.02 689.30 532.45 689.32 539.80 L 689.31 540.24 C 674.85 540.13 660.39 540.41 645.92 540.37 C 639.24 540.30 632.70 541.74 626.20 543.08 C 625.40 537.19 625.46 531.24 625.51 525.32 C 628.21 523.12 632.88 521.32 631.91 517.01 C 629.69 518.92 627.60 520.96 625.48 522.98 C 625.52 521.04 625.52 519.10 625.74 517.18 Z" />
<path fill="#eba01d" d=" M 189.87 518.44 C 206.81 521.10 223.99 518.96 241.03 519.94 C 249.51 520.56 258.06 520.26 266.50 521.45 C 265.85 531.29 263.93 541.04 264.51 550.95 L 264.52 551.34 C 256.30 551.73 248.08 551.08 239.86 551.19 C 222.84 548.83 205.63 549.87 188.51 549.65 C 189.91 539.30 189.95 528.86 189.87 518.44 Z" />
<path fill="#070707" d=" M 1069.40 525.76 C 1070.70 525.08 1071.99 524.36 1073.27 523.60 C 1076.05 523.46 1078.80 523.97 1081.47 524.78 C 1081.70 527.00 1082.18 529.65 1080.27 531.33 C 1077.77 534.24 1073.29 533.48 1070.51 531.43 C 1068.93 529.96 1069.57 527.65 1069.40 525.76 Z" />
<path fill="#f5f3ef" d=" M 1071.30 525.53 C 1074.20 525.69 1077.14 525.81 1079.94 526.70 C 1079.17 527.97 1078.75 529.51 1077.64 530.54 C 1076.06 530.98 1074.37 530.83 1072.82 530.40 C 1071.28 529.23 1071.62 527.19 1071.30 525.53 Z" />
<path fill="#070707" d=" M 876.63 527.62 C 879.45 526.01 882.87 526.47 886.00 526.42 C 895.66 527.01 905.36 527.89 915.04 527.19 C 921.42 526.15 927.75 528.28 934.17 527.77 C 936.56 527.36 937.77 529.87 937.72 531.88 C 937.99 539.68 937.82 547.53 937.38 555.32 C 935.38 558.12 931.41 557.94 928.38 558.63 C 923.37 556.16 917.40 558.07 912.01 557.52 C 912.52 558.82 913.00 560.10 913.54 561.42 C 908.30 565.45 901.16 562.89 895.10 563.67 C 887.08 564.92 878.94 564.18 870.89 564.99 C 866.80 565.39 862.69 565.37 858.59 565.41 C 858.57 564.85 858.51 563.73 858.49 563.17 C 873.28 563.57 888.01 561.95 902.78 561.40 C 902.97 556.81 898.00 557.72 894.98 557.59 C 883.46 557.35 871.95 557.84 860.45 557.61 C 860.49 557.10 860.58 556.08 860.62 555.57 C 865.46 555.70 870.30 555.79 875.14 555.38 C 876.39 548.32 875.58 541.12 875.76 534.00 C 875.93 531.87 875.22 529.44 876.63 527.62 Z" />
<path fill="#070707" d=" M 119.70 531.67 C 122.39 528.71 126.66 528.52 130.34 527.95 C 130.33 528.45 130.30 529.46 130.29 529.96 C 131.39 530.26 132.49 530.56 133.60 530.87 C 133.64 534.72 130.78 537.70 128.14 540.14 C 125.31 542.63 121.31 541.80 117.91 541.40 C 116.97 542.81 116.05 544.25 115.12 545.69 C 113.36 544.54 111.58 543.46 109.80 542.37 C 106.36 546.49 105.64 552.04 105.06 557.19 C 103.47 566.51 104.40 576.00 105.53 585.31 C 106.10 585.59 107.22 586.13 107.79 586.41 C 110.19 585.69 112.58 584.95 114.97 584.21 C 113.80 577.17 113.66 570.02 113.92 562.90 C 114.16 557.39 115.64 552.05 116.30 546.59 C 117.07 546.30 118.80 545.41 118.90 546.88 C 116.32 558.38 115.58 570.36 116.96 582.07 C 115.38 595.01 116.74 608.05 116.68 621.04 C 118.60 622.27 121.89 622.43 122.18 625.21 C 119.19 625.96 116.70 623.63 114.35 622.18 C 113.85 610.45 114.91 598.73 114.44 586.99 C 111.91 587.64 109.38 588.32 106.82 588.83 C 106.73 593.90 105.48 598.87 105.68 603.95 C 105.89 610.88 105.39 617.80 105.45 624.73 C 106.87 625.61 108.31 626.47 109.76 627.30 C 109.71 627.96 109.61 629.28 109.55 629.93 C 107.34 628.88 105.10 627.70 103.44 625.86 C 102.47 613.63 104.72 601.34 104.68 589.13 C 101.42 582.10 102.64 574.13 102.58 566.63 C 101.15 568.91 99.93 571.39 97.91 573.22 C 96.15 573.88 94.77 572.41 93.38 571.61 C 90.51 569.54 87.04 568.59 83.60 567.96 C 84.37 571.50 84.71 575.12 84.99 578.74 C 84.41 578.72 83.25 578.68 82.67 578.66 C 82.36 569.82 78.06 560.68 81.79 552.05 C 86.21 549.68 90.42 546.69 95.39 545.57 C 99.30 544.66 103.14 543.50 106.90 542.08 C 107.55 541.13 108.21 540.19 108.87 539.25 C 110.64 540.26 112.41 541.28 114.07 542.49 C 114.34 542.39 114.87 542.19 115.14 542.09 C 116.79 538.68 117.09 534.55 119.70 531.67 Z" />
<path fill="#eba01d" d=" M 878.32 529.17 C 885.78 527.61 893.48 529.25 901.04 528.67 C 912.52 527.91 923.91 529.79 935.35 530.38 C 936.16 538.45 935.40 546.55 935.26 554.63 C 933.51 555.08 931.73 555.47 929.98 555.84 C 924.10 554.40 917.98 555.43 912.00 555.13 C 900.50 554.64 888.97 554.66 877.46 554.85 C 878.22 546.31 877.66 537.70 878.32 529.17 Z" />
<path fill="#f5f3ef" d=" M 119.17 539.30 C 119.09 534.73 122.63 531.25 126.84 530.12 C 127.66 531.87 129.49 532.26 131.19 532.73 C 129.49 535.35 127.67 538.28 124.59 539.43 C 122.79 539.73 120.97 539.40 119.17 539.30 Z" />
<path fill="#eba01d" d=" M 577.41 544.50 C 577.51 539.48 577.54 534.46 577.63 529.45 C 583.67 529.33 589.60 530.90 595.67 530.60 C 596.97 534.86 595.87 539.19 595.09 543.43 C 590.73 543.62 586.38 543.73 582.03 543.79 C 580.48 544.04 578.94 544.27 577.41 544.50 Z" />
<path fill="#070707" d=" M 1051.06 529.81 C 1055.84 528.45 1060.95 530.06 1064.12 533.86 C 1066.03 536.20 1065.06 539.35 1065.21 542.10 C 1066.69 543.68 1068.48 544.94 1069.96 546.56 C 1066.58 547.37 1064.33 544.15 1061.13 543.81 C 1054.62 542.58 1051.60 535.77 1051.06 529.81 Z" />
<path fill="#f5f3ef" d=" M 169.43 538.46 C 169.30 535.52 170.16 532.71 171.30 530.05 C 173.04 530.61 174.79 531.21 176.52 531.83 C 176.31 533.95 177.07 536.69 175.01 538.11 C 174.12 539.27 172.54 537.88 171.55 537.81 C 171.02 537.97 169.96 538.30 169.43 538.46 Z" />
<path fill="#f5f3ef" d=" M 1054.06 531.90 C 1057.25 531.17 1060.33 533.27 1062.36 535.56 C 1063.28 537.44 1062.60 539.61 1062.54 541.61 C 1057.65 541.17 1054.25 536.58 1054.06 531.90 Z" />
<path fill="#f5f3ef" d=" M 983.99 538.03 C 987.32 539.31 990.65 540.74 994.27 541.02 C 991.78 543.84 989.54 546.90 988.43 550.53 C 985.37 557.21 983.81 564.46 983.57 571.79 C 981.09 574.61 976.75 573.11 973.45 573.31 C 973.98 565.44 975.41 557.57 978.09 550.14 C 979.73 545.95 981.61 541.85 983.99 538.03 Z" />
<path fill="#f5f3ef" d=" M 176.42 547.47 C 180.41 545.19 184.24 542.60 187.68 539.54 C 187.39 543.60 186.78 547.64 186.08 551.66 C 190.00 551.81 193.93 551.86 197.86 551.90 C 195.47 555.88 192.25 559.38 188.39 561.96 C 183.35 558.56 179.01 554.35 174.95 549.86 C 175.31 549.27 176.05 548.07 176.42 547.47 Z" />
<path fill="#514c45" d=" M 631.48 544.72 C 634.12 543.12 637.19 543.08 640.17 543.38 C 637.30 544.02 634.41 544.52 631.48 544.72 Z" />
<path fill="#f5f3ef" d=" M 164.60 544.08 C 167.63 545.69 171.04 546.17 174.41 546.62 C 173.51 547.40 172.61 548.17 171.71 548.95 C 173.11 552.95 171.80 557.23 172.62 561.32 C 173.44 564.82 175.07 568.07 176.84 571.18 C 174.43 572.57 171.89 573.84 169.02 573.76 C 165.95 568.31 164.09 562.26 163.50 556.05 C 163.25 552.01 164.30 548.07 164.60 544.08 Z" />
<path fill="#070707" d=" M 1066.13 548.23 C 1068.80 547.46 1071.19 545.91 1073.90 545.27 C 1076.61 546.17 1079.03 547.90 1081.88 548.46 C 1087.31 549.58 1093.03 550.04 1097.99 552.76 C 1096.80 559.78 1088.46 562.02 1085.78 568.34 C 1085.37 568.38 1084.55 568.47 1084.14 568.51 C 1083.81 574.99 1084.91 581.58 1083.55 587.98 C 1082.63 587.82 1081.72 587.67 1080.83 587.52 C 1082.32 583.52 1081.57 579.20 1081.77 575.04 C 1081.99 568.00 1080.53 561.03 1078.40 554.37 C 1077.48 551.94 1076.30 549.31 1073.92 548.02 C 1069.59 549.22 1065.54 551.58 1060.95 551.67 C 1061.61 549.27 1064.25 549.09 1066.13 548.23 Z" />
<path fill="#f5f3ef" d=" M 95.13 548.01 C 98.66 547.19 102.15 546.23 105.62 545.18 C 104.85 548.52 104.33 551.92 103.80 555.31 C 100.18 553.86 97.71 550.77 95.13 548.01 Z" />
<path fill="#070707" d=" M 121.13 548.73 C 120.16 548.10 120.25 547.00 120.48 546.03 C 126.09 548.30 129.71 553.41 134.51 556.88 C 134.78 561.78 128.90 563.10 125.78 565.67 C 125.28 566.62 124.78 567.59 124.28 568.56 C 122.23 568.93 120.18 569.29 118.12 569.55 C 118.91 567.00 119.79 564.49 120.71 561.99 C 124.85 564.27 128.91 561.63 131.78 558.64 C 131.93 557.38 130.65 556.82 129.89 556.10 C 126.84 553.79 124.22 550.99 121.13 548.73 Z" />
<path fill="#070707" d=" M 502.14 547.59 C 510.76 547.70 519.50 546.73 528.01 548.51 C 535.32 549.55 542.72 549.14 550.08 549.28 C 552.03 549.17 553.81 550.04 555.56 550.82 C 555.72 553.15 554.65 555.31 552.42 556.20 C 545.56 558.60 538.14 558.47 530.97 558.26 C 521.96 557.96 512.93 558.67 503.94 558.31 L 503.60 556.85 C 503.92 556.61 504.57 556.12 504.89 555.87 C 511.58 556.54 518.31 556.38 525.02 556.47 C 532.07 556.36 539.18 556.68 546.14 555.31 C 545.70 554.98 544.83 554.33 544.39 554.00 C 544.92 553.20 545.45 552.40 545.99 551.61 C 541.98 551.40 537.97 551.31 533.95 551.36 C 528.57 551.44 523.38 549.67 518.01 549.67 C 512.73 549.55 507.45 549.68 502.18 549.75 C 502.17 549.21 502.15 548.13 502.14 547.59 Z" />
<path fill="#f5f3ef" d=" M 83.56 554.32 C 85.63 552.39 88.29 551.28 90.70 549.86 C 87.79 553.92 85.54 558.40 82.61 562.45 C 82.69 559.73 82.31 556.84 83.56 554.32 Z" />
<path fill="#514c45" d=" M 600.30 549.17 C 600.39 550.70 600.49 552.23 600.61 553.77 C 604.52 559.05 602.13 565.67 600.29 571.24 C 599.96 563.91 599.34 556.46 600.30 549.17 Z" />
<path fill="#eba01d" d=" M 91.61 552.46 C 92.11 551.54 92.89 551.12 93.95 551.18 C 96.86 553.52 99.63 556.08 102.97 557.82 C 102.94 562.80 99.45 566.63 97.03 570.67 C 93.14 567.73 88.47 566.26 83.81 565.06 C 84.42 564.55 85.03 564.05 85.65 563.56 C 86.71 562.88 87.27 561.71 87.51 560.52 C 88.40 557.62 89.87 554.92 91.61 552.46 Z" />
<path fill="#f5f3ef" d=" M 549.93 551.33 C 551.12 551.81 552.30 552.31 553.48 552.83 C 551.83 553.62 550.16 554.36 548.50 555.13 C 549.01 553.87 549.48 552.60 549.93 551.33 Z" />
<path fill="#f5f3ef" d=" M 1079.14 549.79 C 1084.70 551.16 1090.35 552.21 1095.80 554.03 C 1092.82 559.28 1086.65 561.54 1083.67 566.83 C 1082.90 560.99 1081.62 555.16 1079.14 549.79 Z" />
<path fill="#070707" d=" M 1047.51 567.52 C 1052.53 562.67 1057.19 557.43 1061.41 551.87 C 1064.87 553.26 1066.36 556.96 1068.36 559.84 C 1073.95 568.84 1073.60 579.78 1073.75 589.98 C 1075.90 589.60 1078.01 589.08 1080.17 588.62 C 1079.61 592.65 1074.48 592.89 1071.55 591.30 C 1071.17 582.20 1071.65 572.77 1068.06 564.19 C 1066.38 561.07 1064.52 558.04 1062.50 555.14 C 1061.39 555.32 1060.85 556.38 1060.18 557.14 C 1056.90 561.18 1053.30 564.93 1049.93 568.89 C 1051.97 569.36 1054.00 569.87 1056.08 570.27 C 1058.02 570.45 1059.84 569.35 1061.79 569.44 C 1063.76 570.63 1065.42 572.30 1066.96 574.02 C 1063.95 574.00 1060.93 575.62 1057.99 574.60 C 1055.38 571.42 1050.75 571.94 1047.32 570.15 C 1047.32 569.26 1047.39 568.38 1047.51 567.52 Z" />
<path fill="#070707" d=" M 155.30 554.42 C 160.91 557.79 162.98 565.93 161.04 572.00 C 158.16 570.37 160.88 567.35 160.07 565.00 C 159.29 561.12 156.37 558.19 155.30 554.42 Z" />
<path fill="#514c45" d=" M 575.61 577.26 C 574.27 569.86 573.39 562.25 574.09 554.75 C 575.18 557.01 576.67 559.33 576.33 561.97 C 575.82 567.05 575.66 572.15 575.61 577.26 Z" />
<path fill="#070707" d=" M 224.70 557.81 C 231.62 554.49 239.59 555.60 246.95 556.44 C 258.60 556.87 270.26 556.90 281.91 557.31 C 282.53 557.45 283.77 557.75 284.39 557.89 C 280.99 560.16 276.86 559.27 273.05 559.30 C 265.64 559.25 258.22 559.40 250.82 559.09 C 245.05 558.50 239.26 558.02 233.45 558.10 C 233.52 559.45 233.58 560.81 233.61 562.18 C 232.31 562.60 231.01 563.04 229.70 563.46 C 246.41 565.25 263.25 563.78 280.01 564.68 C 283.76 565.09 288.12 563.50 291.30 566.17 C 287.05 567.85 282.39 567.09 277.94 567.12 C 265.32 565.86 252.62 567.23 239.98 566.43 C 234.84 566.33 229.03 566.79 224.90 563.10 C 223.17 561.95 222.36 558.73 224.70 557.81 Z" />
<path fill="#f5f3ef" d=" M 226.05 559.91 C 226.69 559.56 227.98 558.85 228.63 558.50 C 228.64 560.06 228.63 561.64 228.61 563.22 C 227.68 562.18 226.22 561.41 226.05 559.91 Z" />
<path fill="#f5f3ef" d=" M 907.20 561.54 C 907.73 560.74 907.87 559.57 908.81 559.10 C 909.62 559.40 910.43 559.72 911.24 560.07 C 909.89 560.59 908.56 561.09 907.20 561.54 Z" />
<path fill="#f5f3ef" d=" M 85.65 563.56 C 84.61 562.43 85.95 559.81 87.51 560.52 C 87.27 561.71 86.71 562.88 85.65 563.56 Z" />
<path fill="#070707" d=" M 152.14 559.68 C 155.94 560.37 155.89 564.79 156.56 567.77 C 156.07 567.84 155.11 567.97 154.62 568.04 C 154.21 565.13 153.22 562.38 152.14 559.68 Z" />
<path fill="#070707" d=" M 148.71 561.54 C 152.09 562.79 153.93 567.94 151.45 570.73 C 150.63 567.64 149.62 564.60 148.71 561.54 Z" />
<path fill="#070707" d=" M 984.34 575.27 C 987.50 574.84 988.12 578.69 988.93 580.93 C 990.74 588.86 991.35 597.04 991.36 605.17 C 993.23 603.82 995.18 600.03 997.76 602.28 C 995.13 604.48 992.77 606.97 990.71 609.71 C 990.32 609.73 989.53 609.77 989.13 609.79 C 988.20 602.25 989.49 594.53 987.89 587.04 C 987.10 583.01 986.08 579.00 984.34 575.27 Z" />
<path fill="#f5f3ef" d=" M 604.56 575.79 C 604.54 577.87 604.48 579.96 604.40 582.06 C 603.58 581.73 602.78 581.42 601.98 581.10 C 602.52 580.62 603.60 579.67 604.15 579.20 C 604.25 578.35 604.45 576.64 604.56 575.79 Z" />
<path fill="#070707" d=" M 965.22 579.24 C 966.63 577.70 968.53 574.39 970.92 576.01 C 971.04 576.24 971.27 576.72 971.38 576.95 C 961.23 583.00 960.08 595.95 959.19 606.55 C 958.64 606.61 957.53 606.73 956.98 606.79 C 954.59 604.48 952.03 602.31 950.13 599.56 C 953.24 598.58 954.88 601.81 957.09 603.27 C 957.89 594.80 959.42 585.85 965.22 579.24 Z" />
<path fill="#f5f3ef" d=" M 575.70 580.28 C 576.80 580.96 577.90 581.59 579.03 582.29 C 577.99 582.50 576.95 582.69 575.93 582.89 C 575.87 582.24 575.76 580.93 575.70 580.28 Z" />
<path fill="#070707" d=" M 1082.96 596.92 C 1082.02 594.13 1080.50 591.09 1081.86 588.16 C 1084.62 596.47 1089.14 603.98 1092.46 612.07 C 1091.58 614.45 1090.28 616.65 1088.48 618.44 C 1085.47 621.34 1084.18 625.42 1082.27 629.03 C 1085.07 630.36 1090.08 629.62 1090.64 633.61 C 1086.63 633.01 1082.45 632.12 1079.34 629.34 C 1081.82 625.13 1083.15 620.16 1086.80 616.74 C 1088.00 615.19 1090.35 613.63 1089.48 611.39 C 1087.62 606.43 1085.12 601.75 1082.96 596.92 Z" />
<path fill="#070707" d=" M 1059.36 609.98 C 1060.92 602.76 1067.33 598.10 1071.88 592.68 L 1073.80 592.11 C 1072.87 594.81 1071.18 597.14 1069.04 599.01 C 1065.68 601.95 1063.49 605.93 1061.59 609.91 C 1063.28 615.89 1066.92 621.11 1068.84 626.98 C 1068.99 631.08 1063.73 631.90 1060.71 632.94 C 1060.63 632.40 1060.49 631.34 1060.41 630.81 C 1062.53 629.97 1064.65 629.10 1066.70 628.07 C 1064.60 621.90 1060.81 616.37 1059.36 609.98 Z" />
</svg>
