<?xml version="1.0" encoding="UTF-8" ?>
<!DOCTYPE svg PUBLIC "-//W3C//DTD SVG 1.1//EN" "http://www.w3.org/Graphics/SVG/1.1/DTD/svg11.dtd">
<svg width="1476pt" height="678pt" viewBox="0 0 1476 678" version="1.1" xmlns="http://www.w3.org/2000/svg">
<path fill="#f5f3ef" d=" M 0.00 0.00 L 1476.00 0.00 L 1476.00 678.00 L 0.00 678.00 L 0.00 0.00 Z" />
<path fill="#090808" d=" M 581.46 69.17 C 580.34 64.17 584.49 58.40 589.92 59.66 C 598.48 61.79 607.40 60.78 616.04 62.46 C 629.06 63.77 641.93 66.30 654.98 67.35 C 676.31 67.90 697.64 68.88 718.98 68.76 C 739.64 68.81 760.29 68.78 780.94 68.77 C 794.63 68.90 808.32 68.69 821.98 67.91 C 829.66 67.70 837.37 67.97 844.99 66.89 C 850.51 65.92 856.77 70.12 857.25 75.87 C 858.07 83.23 858.64 90.62 858.56 98.03 C 859.66 121.83 859.45 145.69 859.01 169.52 C 858.66 174.42 858.54 179.33 858.25 184.24 C 856.47 201.83 854.18 219.36 852.28 236.93 C 850.32 249.52 850.62 262.28 850.87 274.97 C 851.14 278.85 852.05 283.77 848.58 286.57 C 846.29 288.82 842.90 288.40 840.11 287.56 C 837.59 290.43 833.92 292.44 830.05 292.36 C 814.38 292.19 798.70 292.17 783.03 292.12 C 760.34 291.77 737.56 291.30 714.94 293.39 C 674.94 293.51 634.94 293.61 594.95 293.68 C 588.59 293.49 581.78 294.17 576.00 291.00 C 571.89 288.10 572.38 282.42 572.55 277.99 C 572.46 270.95 573.63 263.98 573.45 256.94 C 573.59 232.84 573.54 208.74 573.56 184.64 C 573.52 180.09 573.65 175.55 573.63 171.01 C 573.36 145.31 573.45 119.61 573.18 93.91 C 572.76 88.23 572.61 82.53 572.85 76.85 C 573.52 72.14 578.33 69.77 582.73 70.36 C 582.41 70.06 581.78 69.47 581.46 69.17 Z" />
<path fill="#090808" d=" M 1102.88 74.04 C 1101.66 69.72 1105.40 64.73 1109.99 65.16 C 1114.39 64.53 1116.39 69.62 1120.48 70.17 C 1127.77 71.38 1135.19 71.30 1142.56 71.69 C 1155.03 72.90 1167.44 74.97 1180.01 74.73 C 1206.32 76.36 1232.70 75.58 1259.04 75.70 C 1284.03 75.28 1309.19 77.04 1334.02 73.43 C 1339.00 73.27 1344.08 72.85 1349.04 73.59 C 1355.19 77.01 1356.46 84.59 1356.40 91.02 C 1356.30 102.01 1357.39 112.97 1357.20 123.97 C 1357.16 138.32 1357.47 152.68 1356.61 167.01 C 1356.77 180.39 1352.42 193.34 1352.56 206.72 C 1352.72 216.16 1351.41 225.54 1351.71 234.98 C 1351.82 249.35 1351.61 263.73 1352.07 278.09 C 1352.04 281.02 1349.87 283.10 1347.69 284.72 C 1346.99 286.56 1346.51 288.64 1344.99 290.00 C 1342.86 292.07 1339.65 291.73 1336.97 292.32 C 1322.38 294.64 1307.57 294.27 1292.95 296.19 C 1281.07 298.06 1269.07 298.81 1257.05 298.90 C 1232.35 298.92 1207.67 299.22 1182.96 299.15 C 1165.31 298.97 1147.64 299.75 1130.02 298.53 C 1123.50 298.30 1116.23 297.45 1111.45 292.54 C 1108.57 289.85 1109.53 285.53 1109.34 282.03 C 1109.70 274.65 1109.00 267.30 1107.80 260.03 C 1106.88 251.38 1107.59 242.68 1107.47 234.01 C 1107.54 217.06 1107.48 200.10 1107.50 183.15 C 1107.48 178.39 1107.45 173.63 1107.46 168.88 C 1107.51 138.95 1106.97 109.04 1106.63 79.12 C 1105.05 77.71 1103.34 76.22 1102.88 74.04 Z" />
<path fill="#090808" d=" M 128.95 74.49 C 131.27 73.85 133.59 72.71 136.07 73.30 C 139.23 73.73 140.86 76.97 141.66 79.73 C 145.12 79.85 148.56 80.30 152.04 80.24 C 206.35 80.52 260.66 80.36 314.97 80.27 C 320.96 80.37 326.91 78.91 332.91 79.49 C 336.01 80.27 339.69 81.67 340.70 85.05 C 343.42 92.35 342.58 100.32 342.54 107.95 C 340.57 129.71 336.73 151.35 337.40 173.28 C 337.35 178.24 337.43 183.20 337.35 188.16 C 337.22 192.12 336.58 196.05 336.64 200.02 C 336.62 218.00 336.57 235.99 336.67 253.97 C 336.58 260.64 336.95 267.33 336.29 273.98 C 335.77 279.37 337.05 285.22 334.20 290.16 C 331.74 294.37 326.74 296.45 322.00 296.62 C 311.32 298.07 300.53 297.44 289.79 297.72 L 289.20 298.22 C 255.12 298.95 221.02 297.56 186.96 298.95 C 179.29 299.61 171.59 299.55 163.92 299.89 C 154.34 301.08 144.71 301.64 135.09 302.26 C 127.69 301.90 120.41 303.44 113.12 304.46 C 108.70 305.44 104.73 301.68 103.05 297.97 C 101.36 290.44 100.66 282.70 100.53 274.99 C 100.12 262.23 98.19 249.56 98.38 236.78 C 98.23 191.86 98.41 146.94 98.23 102.02 C 98.57 95.63 97.21 89.23 98.36 82.88 C 98.55 79.09 102.35 77.17 105.34 75.70 C 113.06 73.76 121.09 75.09 128.95 74.49 Z" />
<path fill="#f5f3ef" d=" M 587.18 74.03 C 593.84 75.70 600.74 75.25 607.53 75.67 C 620.07 77.16 632.66 78.10 645.13 80.13 C 656.08 80.92 667.05 81.47 678.03 81.28 C 717.34 82.35 756.70 81.50 796.00 82.13 C 805.31 81.75 814.63 81.33 823.96 81.51 C 830.50 81.39 837.06 82.03 843.58 81.32 C 844.82 89.84 844.40 98.48 845.22 107.03 C 845.90 122.00 845.67 136.99 845.75 151.98 C 845.85 167.68 845.77 183.46 843.62 199.04 C 841.97 211.72 840.91 224.47 839.14 237.13 C 837.04 249.43 837.27 261.94 837.10 274.36 C 833.51 273.85 830.30 275.53 828.15 278.33 C 800.11 278.55 772.07 278.53 744.03 278.71 C 730.31 278.56 716.67 280.66 702.95 280.30 C 675.64 280.23 648.33 280.21 621.02 280.15 C 609.48 279.47 597.91 280.01 586.36 279.45 C 586.07 270.97 587.09 262.52 586.85 254.04 C 586.61 201.68 586.69 149.32 587.34 96.96 C 587.23 89.32 587.83 81.65 587.18 74.03 Z" />
<path fill="#f5f3ef" d=" M 1121.29 85.10 C 1129.18 85.46 1137.10 85.19 1144.98 85.86 C 1157.95 87.36 1170.95 88.66 1184.02 88.39 C 1209.68 89.63 1235.38 89.09 1261.06 89.27 C 1276.73 89.20 1292.42 89.39 1308.09 89.17 C 1315.05 88.37 1322.08 88.80 1329.04 87.92 C 1333.38 87.40 1337.75 87.28 1342.13 87.33 C 1342.40 100.59 1343.68 113.78 1343.53 127.04 C 1343.44 142.94 1344.16 158.89 1342.85 174.75 C 1342.44 180.84 1341.10 186.80 1340.39 192.86 C 1338.99 201.17 1339.71 209.65 1338.71 218.01 C 1337.70 237.94 1338.09 257.91 1337.65 277.84 C 1324.36 281.22 1310.52 280.74 1296.98 282.32 C 1290.28 282.73 1283.71 284.30 1277.01 284.71 C 1263.38 286.12 1249.65 285.50 1235.97 285.61 C 1207.66 285.60 1179.35 285.63 1151.04 285.36 C 1141.81 285.36 1132.56 284.88 1123.42 283.57 C 1123.72 270.27 1120.16 257.26 1120.61 243.97 C 1120.30 191.02 1120.54 138.05 1121.29 85.10 Z" />
<path fill="#f5f3ef" d=" M 112.28 88.78 C 114.94 88.77 117.59 88.73 120.24 88.71 C 121.87 90.61 123.33 93.24 126.09 93.52 C 133.32 94.74 140.68 94.19 147.98 94.28 C 171.33 94.30 194.66 93.76 218.01 93.87 C 236.03 94.43 254.04 93.53 272.06 94.11 C 287.39 94.16 302.71 94.21 318.04 94.28 C 321.49 94.31 324.90 93.72 328.33 93.42 C 329.46 103.97 327.97 114.48 327.03 124.96 C 324.90 141.90 323.34 158.94 323.61 176.02 C 323.75 185.37 323.49 194.72 322.75 204.03 C 322.66 225.01 322.72 245.99 322.68 266.97 C 322.51 272.14 321.65 277.28 321.75 282.47 C 309.53 284.19 297.17 283.21 284.92 284.40 C 253.60 285.15 222.24 283.98 190.95 285.46 C 181.95 285.31 173.02 286.58 164.02 286.41 C 152.72 287.34 141.41 288.61 130.05 288.53 C 125.26 288.48 120.60 289.72 115.82 289.82 C 114.20 277.98 114.15 265.99 112.91 254.11 C 112.14 247.76 112.19 241.36 111.87 234.99 C 111.79 186.25 111.64 137.51 112.28 88.78 Z" />
<path fill="#090808" d=" M 1235.57 101.14 C 1236.88 101.27 1238.20 101.43 1239.53 101.62 C 1237.51 113.81 1238.83 126.26 1238.41 138.56 C 1239.98 138.62 1241.56 138.68 1243.18 138.74 C 1243.88 139.80 1244.61 140.87 1245.35 141.94 C 1244.35 146.04 1242.53 149.84 1240.65 153.58 C 1238.19 153.20 1234.36 154.51 1233.37 151.42 C 1232.05 147.96 1230.14 144.50 1230.32 140.70 C 1231.59 140.03 1232.96 139.62 1234.43 139.47 C 1234.30 130.66 1234.41 121.85 1234.35 113.04 C 1234.38 109.05 1233.98 104.91 1235.57 101.14 Z" />
<path fill="#090808" d=" M 714.58 131.81 C 721.95 129.22 730.36 135.24 730.44 142.98 C 730.88 150.83 722.47 157.46 714.96 154.97 C 709.06 153.32 705.09 146.91 706.50 140.88 C 707.27 136.70 710.64 133.23 714.58 131.81 Z" />
<path fill="#090808" d=" M 691.31 142.43 C 694.82 142.14 698.32 142.66 701.65 143.85 C 702.30 148.32 697.19 150.08 694.53 152.68 C 693.10 154.23 691.48 152.60 690.86 151.22 C 686.77 152.93 685.36 157.41 684.16 161.30 C 682.17 170.61 686.37 179.86 691.92 187.11 C 695.87 190.48 701.13 191.81 706.00 193.32 C 716.76 193.97 728.40 193.63 737.89 187.85 C 742.99 184.91 745.76 179.44 748.24 174.33 C 750.13 170.50 749.51 166.12 749.61 162.00 C 749.79 157.73 749.18 152.98 745.99 149.83 C 742.92 148.82 739.09 149.56 736.65 147.09 C 735.73 142.53 741.57 144.76 744.05 144.96 C 750.48 145.27 753.40 152.44 753.63 157.99 C 753.50 164.29 754.72 171.08 751.61 176.88 C 749.28 181.53 746.70 186.28 742.54 189.55 C 734.47 195.83 723.95 197.46 714.00 197.60 C 710.15 197.55 706.18 197.93 702.51 196.55 C 696.04 194.39 688.51 192.09 685.65 185.19 C 679.42 175.94 677.13 163.24 682.93 153.22 C 684.31 149.61 688.01 147.99 691.26 146.42 C 691.24 145.09 691.26 143.76 691.31 142.43 Z" />
<path fill="#090808" d=" M 1235.44 163.63 C 1239.55 162.50 1244.43 163.30 1247.17 166.82 C 1251.56 171.63 1250.08 180.28 1244.19 183.19 C 1238.89 186.27 1231.23 183.73 1229.12 177.91 C 1226.66 172.43 1229.83 165.56 1235.44 163.63 Z" />
<path fill="#090808" d=" M 238.20 165.17 C 245.58 161.76 255.03 167.90 254.82 176.04 C 255.42 183.68 247.23 190.19 239.91 188.08 C 233.82 186.68 229.44 180.03 230.92 173.89 C 231.73 170.01 234.50 166.62 238.20 165.17 Z" />
<path fill="#090808" d=" M 1131.65 165.79 C 1136.57 164.05 1142.69 166.59 1144.37 171.66 C 1146.66 176.49 1143.84 182.88 1138.88 184.72 C 1134.50 186.80 1128.91 184.77 1126.47 180.70 C 1123.16 175.53 1125.67 167.70 1131.65 165.79 Z" />
<path fill="#090808" d=" M 596.60 166.78 C 602.66 164.55 609.98 168.50 610.96 175.00 C 612.95 183.50 602.17 191.14 594.84 186.07 C 587.23 181.97 588.36 169.44 596.60 166.78 Z" />
<path fill="#090808" d=" M 821.11 166.91 C 825.02 165.47 829.87 166.10 832.81 169.25 C 837.42 173.56 836.76 181.96 831.53 185.51 C 826.03 189.95 816.79 186.83 815.01 180.02 C 812.85 174.89 816.26 168.98 821.11 166.91 Z" />
<path fill="#1e43fc" d=" M 1038.97 171.50 C 1061.77 170.03 1084.58 168.38 1107.46 168.88 C 1107.45 173.63 1107.48 178.39 1107.50 183.15 C 1084.63 182.86 1061.81 184.06 1038.99 185.39 C 1005.66 185.27 972.32 185.63 938.99 185.26 C 925.43 183.17 911.69 183.95 898.03 183.82 C 884.77 183.76 871.51 184.25 858.25 184.24 C 858.54 179.33 858.66 174.42 859.01 169.52 C 877.34 169.75 895.67 169.75 914.00 169.75 C 920.46 169.81 926.96 169.35 933.37 170.45 C 940.85 171.65 948.44 171.39 955.99 171.47 C 983.65 171.48 1011.31 171.56 1038.97 171.50 Z" />
<path fill="#090808" d=" M 1186.31 172.66 C 1184.90 170.88 1185.72 169.22 1187.67 168.42 C 1191.22 170.37 1195.57 171.41 1197.85 175.07 C 1195.27 177.62 1191.61 178.11 1188.17 178.44 C 1185.62 175.95 1182.10 177.30 1179.00 177.24 C 1169.67 177.33 1160.34 177.50 1151.03 177.68 C 1148.41 177.78 1150.34 174.90 1150.51 173.63 C 1162.42 172.93 1174.40 173.66 1186.31 172.66 Z" />
<path fill="#1e43fc" d=" M 561.02 171.33 C 565.15 171.22 569.29 170.09 573.43 170.54 L 573.63 171.01 C 573.65 175.55 573.52 180.09 573.56 184.64 C 570.01 184.85 566.50 185.38 562.96 185.50 C 541.63 185.76 520.29 185.04 498.98 185.72 C 486.04 187.62 472.94 186.39 459.93 187.15 C 452.60 187.47 445.30 188.24 437.97 188.44 C 410.30 188.60 382.62 188.47 354.95 188.63 C 349.08 188.72 343.22 188.16 337.35 188.16 C 337.43 183.20 337.35 178.24 337.40 173.28 C 343.28 173.40 349.09 174.48 354.98 174.40 C 381.66 174.62 408.34 174.47 435.02 174.60 C 446.03 174.68 456.96 172.95 467.98 173.18 C 478.70 173.39 489.43 173.02 500.08 171.67 C 520.38 171.20 540.71 171.51 561.02 171.33 Z" />
<path fill="#090808" d=" M 802.66 170.33 C 806.74 169.83 810.21 172.20 813.75 173.80 C 813.97 175.19 814.19 176.58 814.42 177.98 C 810.66 179.34 807.07 181.40 803.03 181.79 C 801.75 181.04 800.94 179.73 799.98 178.66 C 789.30 178.88 778.62 178.78 767.94 178.87 C 765.48 178.48 762.05 179.67 760.46 177.20 C 759.49 173.45 763.59 174.47 765.85 174.56 C 776.58 174.83 787.32 174.80 798.06 174.60 C 799.60 174.67 801.08 174.20 802.49 173.62 C 802.54 172.80 802.62 171.15 802.66 170.33 Z" />
<path fill="#090808" d=" M 210.52 173.72 C 212.34 172.22 214.37 170.35 216.92 171.54 C 220.59 173.06 224.23 174.67 228.05 175.79 C 228.22 176.67 228.54 178.45 228.71 179.34 C 225.55 183.89 219.72 183.95 215.04 185.91 C 213.76 186.45 212.39 186.64 211.02 186.76 C 210.70 186.07 210.07 184.68 209.75 183.98 C 209.73 182.85 209.71 181.71 209.69 180.58 C 195.57 182.68 181.18 180.62 166.99 181.89 C 159.91 183.19 152.67 182.86 145.52 182.44 C 145.03 181.03 144.24 179.52 145.63 178.33 C 150.73 178.14 155.85 179.02 160.96 178.50 C 177.35 175.88 194.06 178.86 210.47 176.40 C 210.48 175.73 210.50 174.39 210.52 173.72 Z" />
<path fill="#090808" d=" M 655.43 176.39 C 655.20 174.62 654.99 170.52 657.95 171.82 C 662.58 174.23 667.98 174.94 672.36 177.78 C 672.06 179.02 671.74 180.26 671.42 181.49 C 667.16 183.58 662.47 184.51 657.92 185.66 C 655.41 185.67 655.26 182.38 655.01 180.51 C 643.67 180.36 632.32 180.55 620.97 180.49 C 619.01 180.53 617.17 179.80 615.33 179.25 C 615.52 177.88 615.20 176.14 616.73 175.42 C 622.73 176.74 628.89 176.29 634.99 176.40 C 641.80 176.38 648.61 176.40 655.43 176.39 Z" />
<path fill="#4e4b47" d=" M 659.45 180.32 C 660.43 179.58 661.40 179.52 662.38 180.16 C 662.94 182.09 657.78 182.35 659.45 180.32 Z" />
<path fill="#090808" d=" M 1296.48 366.39 C 1297.38 366.46 1298.30 366.53 1299.23 366.61 C 1299.62 374.46 1298.15 382.24 1298.59 390.09 C 1298.39 396.43 1299.47 402.73 1299.20 409.07 C 1299.17 410.38 1299.16 411.69 1299.15 413.01 C 1299.17 413.68 1299.22 415.00 1299.24 415.66 C 1300.60 415.96 1302.00 416.28 1303.41 416.60 C 1303.67 417.18 1304.20 418.35 1304.47 418.94 C 1302.33 422.52 1300.86 426.42 1299.28 430.26 C 1298.59 430.58 1297.20 431.21 1296.50 431.53 C 1293.49 426.89 1291.17 421.80 1289.48 416.55 C 1291.19 414.56 1293.38 416.25 1295.36 416.75 C 1296.95 412.71 1295.83 408.20 1296.36 403.97 C 1297.26 391.45 1296.31 378.91 1296.48 366.39 Z" />
<path fill="#090808" d=" M 742.40 407.55 C 745.04 406.87 748.63 406.73 750.29 409.36 C 751.49 412.85 750.08 417.07 747.08 419.22 C 744.27 420.68 740.62 418.73 739.40 416.04 C 738.81 412.99 738.62 408.53 742.40 407.55 Z" />
<path fill="#090808" d=" M 728.07 410.96 C 729.90 409.07 732.57 410.98 734.57 411.65 C 734.56 412.84 734.56 414.04 734.55 415.25 C 733.13 415.98 731.70 416.69 730.26 417.36 C 728.57 416.60 726.61 415.35 724.97 416.91 C 719.48 421.54 719.94 429.42 720.26 435.93 C 720.32 441.07 725.29 444.11 729.63 445.53 C 735.63 446.57 742.21 445.89 747.35 442.39 C 751.10 439.90 755.90 437.81 757.28 433.13 C 757.55 429.05 757.56 424.94 757.24 420.87 C 756.74 417.83 754.11 415.90 752.89 413.20 C 757.45 412.29 760.03 417.12 760.42 420.94 C 760.50 425.43 760.93 429.98 760.28 434.45 C 758.00 440.49 751.79 443.48 746.43 446.28 C 740.23 449.06 732.71 450.44 726.34 447.44 C 722.50 445.85 718.60 443.11 717.48 438.90 C 716.09 431.40 716.09 423.06 720.52 416.52 C 722.55 414.07 725.79 413.14 728.07 410.96 Z" />
<path fill="#090808" d=" M 1382.01 417.74 C 1387.21 415.32 1391.84 410.61 1398.04 411.15 C 1406.11 410.41 1414.66 412.67 1420.58 418.36 C 1425.37 422.87 1424.71 429.97 1424.44 435.95 C 1424.35 440.11 1421.95 443.58 1420.04 447.09 C 1422.48 452.37 1421.94 458.25 1421.71 463.90 C 1421.17 469.14 1419.10 474.52 1414.93 477.92 C 1409.49 482.98 1402.71 487.60 1394.97 487.42 C 1391.01 487.87 1386.48 486.40 1383.06 489.03 C 1379.90 490.90 1377.01 493.99 1373.04 493.64 C 1365.77 493.54 1358.11 493.72 1351.49 490.28 C 1347.74 487.99 1343.73 485.41 1342.02 481.16 C 1340.04 477.12 1340.56 472.55 1340.72 468.22 C 1335.94 465.01 1332.25 459.89 1331.67 454.07 C 1330.84 443.77 1335.09 432.80 1343.48 426.54 C 1348.49 422.54 1354.05 418.66 1360.60 417.90 C 1367.72 417.20 1374.88 417.93 1382.01 417.74 Z" />
<path fill="#f5f3ef" d=" M 1392.42 415.43 C 1395.63 413.56 1399.50 414.34 1403.05 414.22 C 1408.78 413.92 1414.30 416.69 1418.46 420.47 C 1422.81 424.77 1421.52 431.35 1421.17 436.82 C 1420.87 441.04 1416.53 443.70 1416.35 447.82 C 1419.69 452.63 1418.68 458.59 1418.43 464.10 C 1417.26 474.16 1408.65 482.04 1399.01 484.05 C 1394.43 484.83 1389.78 483.10 1385.25 484.31 C 1380.20 485.17 1377.44 491.10 1372.06 490.83 C 1365.44 490.94 1358.23 491.13 1352.50 487.27 C 1349.66 485.25 1346.49 483.24 1345.06 479.92 C 1343.35 476.15 1343.73 471.90 1343.66 467.88 C 1339.60 462.94 1334.12 458.06 1334.46 451.06 C 1333.78 444.26 1335.63 437.32 1339.97 432.01 C 1343.77 427.54 1348.71 424.24 1353.91 421.61 C 1358.35 419.63 1363.30 420.18 1368.03 420.30 C 1371.37 420.44 1374.76 420.36 1378.03 421.22 C 1383.85 422.83 1387.66 417.62 1392.42 415.43 Z" />
<path fill="#090808" d=" M 183.41 434.68 C 186.55 434.70 189.17 436.72 192.03 437.76 C 194.80 439.57 197.98 440.56 200.86 442.16 C 202.45 442.91 203.17 445.38 201.46 446.46 C 199.04 448.14 195.93 448.29 193.18 449.20 C 189.94 449.93 187.04 452.08 183.60 451.78 C 183.34 449.66 183.21 447.52 183.16 445.39 C 157.63 444.39 132.07 444.94 106.53 444.28 C 106.46 443.34 106.39 442.40 106.33 441.47 C 117.22 442.09 128.13 442.06 138.99 443.14 C 153.95 443.53 168.91 443.09 183.86 442.68 C 183.90 440.00 183.24 437.35 183.41 434.68 Z" />
<path fill="#090808" d=" M 218.56 435.71 C 221.43 435.09 224.39 435.53 227.30 435.52 C 229.32 437.18 231.72 438.65 232.79 441.15 C 234.10 443.61 233.41 446.50 233.40 449.16 C 231.69 451.93 229.65 455.26 226.09 455.65 C 221.57 456.05 215.66 455.29 213.56 450.64 C 211.80 445.39 213.51 438.54 218.56 435.71 Z" />
<path fill="#090808" d=" M 1374.01 438.83 C 1379.79 438.71 1385.31 436.28 1391.11 436.36 C 1392.65 436.35 1393.44 438.06 1393.75 439.37 C 1394.31 443.97 1392.56 448.44 1392.35 453.02 C 1391.52 458.19 1391.80 463.44 1391.54 468.65 C 1388.05 471.64 1383.22 471.33 1378.94 471.62 C 1374.19 471.65 1369.41 472.17 1364.70 471.43 C 1362.84 466.45 1363.42 461.06 1363.22 455.86 C 1363.22 451.87 1362.72 447.81 1363.76 443.90 C 1364.73 445.00 1365.76 446.13 1366.71 447.28 C 1366.63 449.62 1366.14 451.89 1365.43 454.10 C 1365.44 457.11 1366.08 460.10 1366.33 463.10 C 1366.46 464.86 1366.64 466.63 1366.83 468.40 C 1374.02 468.59 1381.27 468.89 1388.35 467.31 C 1387.83 457.94 1389.01 448.66 1390.74 439.47 C 1383.71 441.34 1376.43 442.12 1369.19 442.39 C 1367.30 442.13 1365.37 442.01 1363.63 441.25 C 1362.27 438.72 1365.78 439.46 1367.02 438.98 C 1369.33 438.76 1371.67 438.90 1374.01 438.83 Z" />
<path fill="#4e4b47" d=" M 187.16 439.37 C 190.49 439.74 185.41 442.22 187.16 439.37 Z" />
<path fill="#090808" d=" M 1296.40 440.56 C 1299.69 439.94 1303.26 440.11 1306.27 441.76 C 1308.31 445.81 1308.72 451.75 1304.19 454.28 C 1300.12 455.64 1294.57 454.82 1292.66 450.49 C 1290.48 447.00 1292.37 441.67 1296.40 440.56 Z" />
<path fill="#eea11e" d=" M 1369.19 442.39 C 1376.43 442.12 1383.71 441.34 1390.74 439.47 C 1389.01 448.66 1387.83 457.94 1388.35 467.31 C 1381.27 468.89 1374.02 468.59 1366.83 468.40 C 1366.64 466.63 1366.46 464.86 1366.33 463.10 C 1366.45 456.26 1367.10 449.41 1366.65 442.56 C 1367.28 442.51 1368.55 442.43 1369.19 442.39 Z" />
<path fill="#4e4b47" d=" M 216.14 447.37 C 219.48 447.48 214.62 450.34 216.14 447.37 Z" />
<path fill="#4e4b47" d=" M 229.29 448.38 C 231.06 449.05 228.76 452.32 227.27 451.60 C 226.68 450.28 228.04 448.70 229.29 448.38 Z" />
<path fill="#090808" d=" M 1435.49 458.06 C 1437.78 456.77 1440.29 454.81 1443.08 455.94 C 1446.05 456.40 1448.36 458.98 1448.27 462.03 C 1447.99 465.11 1447.25 468.14 1446.21 471.05 C 1441.76 473.86 1436.01 476.62 1430.79 474.26 C 1427.45 472.53 1428.44 468.24 1429.51 465.40 C 1430.78 462.52 1432.01 458.81 1435.49 458.06 Z" />
<path fill="#f5f3ef" d=" M 1435.10 464.09 C 1436.72 462.22 1437.95 458.71 1441.01 459.25 C 1442.15 459.32 1443.31 459.42 1444.47 459.57 C 1444.65 462.16 1444.87 464.81 1444.31 467.37 C 1441.97 471.16 1436.69 472.43 1432.57 471.38 C 1430.77 469.18 1432.34 465.02 1435.10 464.09 Z" />
<path fill="#090808" d=" M 799.10 467.08 C 799.86 463.48 804.07 463.52 806.93 462.80 C 810.15 462.19 812.44 464.98 813.49 467.67 C 812.73 470.77 811.94 474.47 808.54 475.69 C 803.44 478.65 796.39 472.54 799.10 467.08 Z" />
<path fill="#090808" d=" M 760.77 464.72 C 763.24 463.50 765.32 466.08 767.51 466.85 C 769.54 467.64 770.75 469.80 770.32 471.97 C 769.95 476.73 766.15 480.12 762.26 482.34 C 760.91 482.30 759.57 482.27 758.24 482.25 C 758.00 482.95 757.77 483.65 757.56 484.37 C 760.73 484.40 763.90 484.42 767.09 484.39 C 768.49 488.51 769.26 492.88 771.33 496.76 C 773.66 501.02 774.91 505.75 776.88 510.18 C 781.55 508.18 784.64 504.02 788.61 501.03 C 788.44 496.88 788.15 492.70 788.73 488.57 C 793.10 487.42 797.62 487.84 802.09 487.79 C 809.52 487.53 816.60 490.60 824.04 490.36 C 835.00 489.91 846.08 491.79 856.93 489.57 C 864.76 488.99 872.60 488.48 880.46 488.58 C 884.20 491.61 883.59 496.78 883.72 501.06 C 883.48 508.28 885.24 515.58 883.35 522.70 C 882.63 522.59 881.19 522.36 880.46 522.25 C 880.49 512.26 881.47 502.15 879.65 492.26 C 870.46 492.22 861.21 491.93 852.07 493.13 C 842.39 494.02 832.66 493.41 822.96 493.31 C 816.19 493.31 809.77 490.56 803.00 490.62 C 799.17 490.56 795.36 490.75 791.54 490.84 C 791.50 493.58 791.45 496.32 791.44 499.07 C 794.63 496.56 796.96 492.65 801.16 491.73 C 800.64 497.31 795.07 499.64 791.26 502.76 C 791.62 511.03 791.00 519.39 792.48 527.58 C 797.05 526.71 801.54 525.45 806.12 524.64 C 817.35 522.95 828.74 523.71 840.05 523.56 C 853.50 523.37 866.96 523.34 880.41 523.41 C 880.99 523.43 882.16 523.48 882.74 523.50 C 882.60 524.22 882.31 525.65 882.17 526.36 C 879.95 526.73 877.69 526.54 875.48 526.49 C 875.14 527.47 874.82 528.45 874.50 529.43 C 865.65 528.87 856.83 529.86 847.99 529.80 C 838.34 530.79 828.63 530.10 818.96 530.29 C 811.60 529.93 804.63 532.91 797.29 532.88 C 797.32 534.03 797.35 535.19 797.40 536.36 C 807.60 536.15 817.80 536.66 828.01 536.51 C 838.68 536.12 849.34 535.20 860.02 535.47 C 866.14 535.64 872.29 535.02 878.39 535.71 C 878.43 536.37 878.52 537.69 878.56 538.35 C 873.77 539.32 868.83 538.64 863.98 538.80 C 840.34 538.89 816.71 539.78 793.07 539.57 C 789.20 539.56 785.37 538.53 782.20 536.28 C 782.25 535.06 782.24 533.84 782.49 532.66 C 784.75 530.68 787.94 530.67 790.78 530.38 C 789.69 528.73 788.72 526.95 788.62 524.94 C 787.85 518.34 788.74 511.69 788.39 505.07 C 785.09 508.37 781.82 512.20 777.11 513.44 C 776.05 513.00 774.98 512.56 773.93 512.13 C 771.55 505.27 768.77 498.57 765.95 491.89 C 764.94 503.06 766.41 514.45 764.13 525.48 C 763.44 525.50 762.05 525.54 761.36 525.56 C 761.27 520.35 762.10 515.16 762.23 509.96 C 762.35 502.53 764.58 495.02 762.63 487.65 C 758.96 487.60 755.29 487.62 751.62 487.60 C 751.92 493.96 753.13 500.47 751.39 506.74 C 755.36 513.21 752.52 521.22 752.52 528.33 C 759.04 527.34 765.69 526.88 772.27 527.53 C 773.33 529.73 773.83 532.13 772.42 534.32 C 768.88 535.21 765.25 535.49 761.62 535.45 C 761.63 536.87 761.65 538.30 761.68 539.73 C 763.20 541.48 763.68 543.74 764.26 545.92 C 764.54 552.30 764.99 558.69 764.67 565.08 C 764.34 571.33 765.21 577.59 764.52 583.82 C 762.36 586.17 759.21 585.67 756.70 584.21 C 754.93 577.21 755.91 569.95 755.79 562.82 L 756.33 562.16 C 755.57 553.46 755.60 544.68 755.73 535.96 C 746.38 538.10 736.77 537.25 727.27 537.62 C 727.00 549.40 727.57 561.19 727.76 572.97 C 727.65 577.51 729.74 582.40 727.44 586.67 C 725.28 586.71 723.12 586.63 720.99 586.44 C 720.24 585.61 719.49 584.79 718.75 583.99 C 718.59 579.02 717.71 574.11 717.62 569.14 C 718.03 558.81 717.14 548.45 718.08 538.16 C 720.43 542.80 719.01 548.05 719.34 553.01 C 719.82 560.46 719.67 568.01 721.57 575.29 C 721.19 565.65 722.93 556.12 722.60 546.49 C 722.05 546.85 720.96 547.57 720.42 547.93 C 720.22 544.46 720.33 540.99 720.90 537.57 C 717.02 537.55 713.14 537.61 709.27 537.84 L 707.65 537.89 C 705.94 535.31 705.34 532.27 704.51 529.35 C 709.88 529.10 715.25 529.47 720.63 529.32 C 720.86 523.89 720.71 518.46 720.57 513.04 C 720.63 510.90 720.21 508.48 721.69 506.70 C 724.38 504.33 728.29 504.80 731.61 504.81 C 728.72 498.87 724.76 492.77 725.29 485.90 C 725.24 483.39 728.05 482.79 730.02 483.35 C 735.85 484.39 741.76 484.74 747.65 485.41 C 749.54 483.72 752.13 484.59 754.40 484.43 C 754.54 482.96 755.18 481.37 754.32 480.00 C 751.30 474.27 755.32 467.23 760.77 464.72 Z" />
<path fill="#090808" d=" M 861.08 467.47 C 861.21 466.36 861.37 465.26 861.56 464.17 C 865.11 464.96 868.37 466.60 871.67 468.10 C 872.54 472.63 866.97 473.41 863.86 474.68 C 863.64 473.94 863.19 472.48 862.96 471.75 C 847.52 471.44 831.96 472.39 816.63 470.17 C 816.59 469.25 816.57 468.35 816.55 467.44 C 821.74 467.05 826.77 468.77 831.95 468.60 C 842.63 468.52 853.31 468.27 863.99 468.44 C 863.01 468.11 862.04 467.79 861.08 467.47 Z" />
<path fill="#f5f3ef" d=" M 759.42 469.40 C 761.86 469.59 764.29 469.97 766.77 469.61 C 767.32 473.33 765.18 476.85 761.98 478.59 C 760.19 478.87 757.93 479.04 756.63 477.55 C 755.86 474.48 757.49 471.62 759.42 469.40 Z" />
<path fill="#090808" d=" M 1281.44 471.46 C 1282.08 471.53 1283.37 471.69 1284.01 471.77 C 1283.31 475.65 1280.91 479.01 1280.42 482.93 C 1279.99 490.44 1279.99 498.34 1283.68 505.13 C 1285.42 508.37 1287.01 511.79 1289.57 514.51 C 1292.24 516.72 1295.55 518.17 1298.97 518.75 C 1299.96 517.43 1300.92 516.06 1301.66 514.58 C 1300.34 512.88 1298.07 511.52 1298.30 509.07 C 1297.74 503.60 1301.37 498.88 1305.45 495.68 C 1309.41 495.29 1314.71 495.53 1316.20 500.06 C 1317.04 504.80 1315.43 509.79 1312.92 513.79 C 1311.22 516.92 1307.27 515.54 1304.49 515.43 C 1303.59 517.01 1302.74 518.62 1301.95 520.26 C 1304.58 520.76 1307.34 520.86 1309.87 521.84 C 1311.03 522.24 1312.28 523.07 1313.55 522.44 C 1318.52 520.18 1323.04 516.52 1325.54 511.58 C 1330.03 503.46 1332.98 494.58 1334.30 485.40 C 1334.91 485.39 1336.14 485.37 1336.75 485.36 C 1336.91 486.84 1337.30 488.38 1336.63 489.82 C 1332.86 499.20 1330.69 509.39 1324.83 517.80 C 1321.25 522.44 1315.95 525.64 1310.17 526.62 C 1307.34 529.69 1304.04 532.47 1302.38 536.41 C 1298.54 544.72 1295.50 553.72 1295.74 563.00 C 1295.79 565.90 1295.72 568.80 1295.48 571.70 C 1300.69 578.69 1301.10 587.63 1302.25 595.94 C 1302.97 602.03 1302.41 608.19 1303.29 614.27 C 1305.70 612.03 1308.07 608.23 1311.89 609.57 C 1310.78 612.12 1308.29 613.48 1306.44 615.40 C 1304.38 617.42 1303.27 620.26 1300.87 621.95 C 1298.98 618.58 1299.78 614.64 1299.56 610.96 C 1299.95 597.88 1298.70 584.44 1293.31 572.37 C 1287.61 572.71 1281.56 574.23 1276.07 572.05 C 1275.49 571.14 1275.06 570.17 1274.78 569.13 C 1276.55 558.25 1278.59 547.27 1283.20 537.17 C 1285.07 530.99 1287.66 525.06 1289.85 519.00 C 1284.47 513.14 1281.45 505.44 1279.01 497.98 C 1276.13 489.18 1277.66 479.72 1281.44 471.46 Z" />
<path fill="#090808" d=" M 1118.95 486.09 C 1114.76 482.56 1117.10 474.94 1122.05 473.39 C 1125.25 472.71 1128.32 474.45 1131.17 475.71 C 1133.38 476.81 1132.17 479.54 1132.33 481.46 C 1138.21 481.37 1144.10 481.40 1149.99 481.36 C 1155.00 480.72 1160.04 480.54 1165.09 480.25 C 1165.23 478.92 1165.40 477.61 1165.60 476.29 C 1169.59 476.84 1173.51 478.64 1175.82 482.06 C 1173.69 484.12 1170.88 485.28 1167.98 485.71 C 1166.35 486.37 1165.38 484.69 1164.64 483.66 C 1159.75 483.43 1154.94 484.43 1150.08 484.53 C 1143.49 484.75 1136.91 484.42 1130.34 484.60 C 1127.55 487.98 1122.55 488.34 1118.95 486.09 Z" />
<path fill="#090808" d=" M 619.75 479.78 C 622.62 477.27 628.16 478.40 629.48 482.06 C 629.74 485.54 630.13 489.92 626.94 492.28 C 623.25 493.89 618.21 491.27 618.25 487.05 C 618.34 484.64 617.74 481.56 619.75 479.78 Z" />
<path fill="#090808" d=" M 1442.56 479.77 C 1446.52 478.54 1452.90 479.15 1454.06 484.03 C 1455.00 489.31 1452.13 495.51 1446.98 497.49 C 1443.40 498.20 1438.62 498.23 1436.57 494.62 C 1435.92 491.38 1436.23 487.96 1436.79 484.72 C 1438.02 482.44 1440.44 481.14 1442.56 479.77 Z" />
<path fill="#090808" d=" M 675.44 483.10 C 678.28 483.13 680.73 484.60 683.18 485.86 C 683.54 486.47 684.25 487.69 684.61 488.30 C 682.98 491.66 677.79 493.37 675.67 489.54 C 661.55 489.96 647.60 487.55 633.52 487.18 C 632.09 483.70 636.77 483.68 639.04 483.95 C 645.36 484.86 651.70 485.38 658.08 485.52 C 663.76 486.43 669.52 486.35 675.26 486.29 C 675.30 485.50 675.40 483.90 675.44 483.10 Z" />
<path fill="#f5f3ef" d=" M 1439.63 486.05 C 1442.43 484.10 1445.39 481.06 1449.09 483.04 C 1451.32 483.12 1450.72 485.55 1450.83 487.07 C 1450.98 490.15 1448.90 493.10 1446.15 494.35 C 1443.84 494.82 1441.54 494.19 1439.36 493.55 C 1439.28 491.04 1439.38 488.54 1439.63 486.05 Z" />
<path fill="#f5f3ef" d=" M 728.06 486.48 C 734.99 487.14 741.90 488.40 748.87 488.41 C 748.65 494.45 748.86 500.50 748.51 506.54 C 744.14 506.55 739.82 505.96 735.51 505.34 C 732.66 499.21 728.77 493.37 728.06 486.48 Z" />
<path fill="#090808" d=" M 178.74 491.89 C 181.13 487.96 186.40 490.26 190.03 490.50 C 198.56 492.47 207.31 492.51 216.01 492.20 C 240.17 492.76 264.40 491.60 288.49 493.64 C 292.07 494.08 292.16 498.24 292.17 501.03 C 291.72 507.36 290.42 513.60 289.82 519.93 C 289.51 525.75 289.79 531.59 289.31 537.41 C 288.59 537.50 287.14 537.69 286.42 537.78 C 286.27 527.53 286.52 517.22 288.34 507.11 C 288.94 503.77 288.92 500.37 288.78 497.00 C 274.90 495.66 260.94 495.56 247.03 494.84 C 230.00 494.47 212.96 495.20 195.93 494.65 C 191.33 494.28 186.81 493.33 182.21 492.98 C 181.96 504.66 182.54 516.42 180.83 528.02 C 180.48 530.86 180.41 533.73 180.32 536.60 C 193.31 537.00 206.31 536.04 219.30 536.65 C 225.58 537.02 231.90 536.45 238.17 537.24 C 243.19 537.86 248.22 538.39 253.25 538.91 C 265.27 540.24 277.41 538.98 289.47 539.54 C 289.53 540.57 289.59 541.61 289.65 542.65 C 278.82 543.03 267.96 542.75 257.12 542.70 C 246.77 541.52 236.41 539.98 225.96 540.22 C 216.56 539.46 207.11 539.58 197.69 539.79 C 193.97 543.70 191.44 548.67 187.37 552.31 C 184.83 554.60 181.85 558.00 178.01 556.59 C 171.45 552.62 166.15 547.02 160.78 541.64 C 159.81 549.89 161.93 558.39 167.11 564.94 C 170.58 568.99 172.35 574.16 175.75 578.27 C 178.08 581.25 181.16 585.05 179.01 589.00 C 176.02 594.04 172.10 598.56 169.87 604.03 C 172.11 604.87 174.35 605.71 176.58 606.57 C 176.80 606.92 177.24 607.61 177.46 607.95 C 176.98 608.47 176.49 609.00 176.02 609.53 C 175.47 609.46 174.38 609.31 173.84 609.23 C 171.32 608.06 168.37 607.36 166.60 605.05 C 165.77 602.39 167.98 600.33 169.17 598.20 C 171.27 594.71 173.63 591.38 175.79 587.94 C 177.43 585.55 174.98 583.24 173.75 581.31 C 170.68 577.63 168.51 573.35 166.10 569.24 C 162.15 571.88 157.59 573.42 152.81 573.43 C 156.84 578.65 162.59 583.24 163.49 590.18 C 158.96 597.15 153.40 603.53 150.23 611.32 C 152.96 612.41 155.76 613.29 158.49 614.40 C 158.44 615.03 158.34 616.27 158.30 616.89 C 154.91 616.84 151.68 615.69 148.68 614.21 C 146.54 613.50 147.05 610.73 147.57 609.07 C 150.37 602.01 155.40 596.18 159.51 589.90 C 159.41 582.84 151.15 579.55 149.63 572.95 C 148.61 567.84 145.19 563.61 144.23 558.48 C 141.79 549.51 142.73 540.12 143.52 530.99 C 143.44 528.74 145.04 527.05 146.04 525.20 C 148.17 526.05 150.24 527.06 152.35 527.98 C 152.76 526.77 153.14 525.55 153.48 524.33 C 152.33 522.97 150.11 522.13 150.13 520.07 C 149.88 515.44 151.86 511.10 153.94 507.09 C 154.82 507.30 155.69 507.53 156.56 507.80 C 155.09 511.97 152.89 516.08 153.39 520.67 C 154.62 520.49 155.84 520.29 157.05 520.09 C 157.52 520.45 158.46 521.17 158.93 521.52 C 159.99 521.03 161.05 520.54 162.11 520.05 C 162.48 519.05 162.86 518.05 163.25 517.07 C 163.31 515.57 163.38 514.09 163.46 512.61 C 162.03 510.52 159.56 510.24 157.25 509.95 C 157.19 508.62 157.49 507.36 158.49 506.42 C 161.47 507.29 165.31 508.05 166.24 511.54 C 166.86 515.13 166.80 519.35 164.21 522.21 C 162.44 524.22 159.62 524.43 157.14 524.67 C 156.62 525.85 156.08 527.03 155.53 528.21 C 159.07 528.25 163.31 531.10 166.34 528.24 C 170.56 524.93 175.10 521.90 178.70 517.90 C 178.94 509.24 178.49 500.55 178.74 491.89 Z" />
<path fill="#eea11e" d=" M 791.54 490.84 C 795.36 490.75 799.17 490.56 803.00 490.62 C 809.77 490.56 816.19 493.31 822.96 493.31 C 832.66 493.41 842.39 494.02 852.07 493.13 C 861.21 491.93 870.46 492.22 879.65 492.26 C 881.47 502.15 880.49 512.26 880.46 522.25 L 880.41 523.41 C 866.96 523.34 853.50 523.37 840.05 523.56 C 828.74 523.71 817.35 522.95 806.12 524.64 C 801.54 525.45 797.05 526.71 792.48 527.58 C 791.00 519.39 791.62 511.03 791.26 502.76 C 795.07 499.64 800.64 497.31 801.16 491.73 C 796.96 492.65 794.63 496.56 791.44 499.07 C 791.45 496.32 791.50 493.58 791.54 490.84 Z" />
<path fill="#eea11e" d=" M 182.21 492.98 C 186.81 493.33 191.33 494.28 195.93 494.65 C 212.96 495.20 230.00 494.47 247.03 494.84 C 260.94 495.56 274.90 495.66 288.78 497.00 C 288.92 500.37 288.94 503.77 288.34 507.11 C 286.52 517.22 286.27 527.53 286.42 537.78 L 286.44 538.73 C 275.42 540.35 264.32 537.67 253.25 538.91 C 248.22 538.39 243.19 537.86 238.17 537.24 C 231.90 536.45 225.58 537.02 219.30 536.65 C 206.31 536.04 193.31 537.00 180.32 536.60 C 180.41 533.73 180.48 530.86 180.83 528.02 C 182.54 516.42 181.96 504.66 182.21 492.98 Z" />
<path fill="#f5f3ef" d=" M 1307.06 498.05 C 1308.88 498.65 1310.69 499.26 1312.53 499.87 C 1313.43 504.27 1312.07 508.57 1310.17 512.50 C 1306.95 512.81 1303.90 511.87 1301.45 509.80 C 1301.05 505.14 1303.72 501.03 1307.06 498.05 Z" />
<path fill="#090808" d=" M 1416.67 500.50 C 1420.81 500.24 1426.08 499.44 1429.15 502.96 C 1429.91 504.64 1429.36 506.62 1429.46 508.43 C 1427.53 510.74 1425.43 513.76 1422.04 513.63 C 1418.62 513.63 1414.46 512.74 1412.74 509.45 C 1411.93 507.15 1412.22 504.60 1412.78 502.29 C 1417.75 500.99 1413.24 508.45 1417.08 509.55 C 1419.33 510.48 1422.33 511.13 1424.36 509.32 C 1425.78 508.15 1426.13 506.22 1426.78 504.59 C 1423.20 502.67 1419.08 503.56 1415.23 503.39 C 1415.59 502.67 1416.31 501.22 1416.67 500.50 Z" />
<path fill="#090808" d=" M 1146.04 504.51 C 1156.67 503.41 1167.30 505.35 1177.94 505.32 C 1185.00 505.42 1192.10 505.81 1199.12 504.88 C 1205.13 504.12 1211.03 506.03 1217.04 505.88 C 1219.90 506.01 1222.91 505.48 1225.68 506.48 C 1227.06 507.44 1227.49 509.28 1228.32 510.70 C 1228.55 522.01 1228.39 533.35 1227.52 544.61 C 1226.29 546.89 1223.38 547.50 1221.07 548.16 C 1218.27 548.45 1214.92 550.39 1212.79 547.63 C 1205.88 547.45 1198.96 547.59 1192.05 547.58 C 1192.79 549.48 1194.07 551.44 1193.46 553.58 C 1191.46 556.07 1187.89 555.90 1185.01 556.28 C 1176.31 556.52 1167.56 555.80 1158.93 557.33 C 1145.07 557.16 1131.26 558.72 1117.41 558.62 C 1117.39 557.54 1117.39 556.48 1117.41 555.42 C 1127.61 555.77 1137.83 555.64 1148.00 554.59 C 1158.28 554.87 1168.44 553.03 1178.73 553.24 C 1178.60 551.73 1178.56 550.21 1178.25 548.74 C 1174.25 547.74 1170.11 547.61 1166.03 547.71 C 1157.99 547.70 1149.95 547.67 1141.92 547.59 C 1134.66 547.37 1127.37 549.19 1120.18 547.60 C 1120.19 547.01 1120.23 545.82 1120.24 545.23 C 1125.19 545.16 1130.13 545.44 1135.08 545.23 C 1136.82 544.92 1138.57 544.70 1140.35 544.53 C 1142.00 538.83 1141.53 532.88 1141.56 527.03 C 1141.44 521.01 1141.52 514.99 1141.51 508.97 C 1141.20 506.43 1143.70 504.57 1146.04 504.51 Z" />
<path fill="#4e4b47" d=" M 1145.44 507.78 C 1150.76 505.67 1156.60 506.86 1162.16 506.81 C 1173.44 507.63 1184.76 505.58 1196.01 507.04 C 1201.01 507.53 1206.07 507.56 1210.99 508.77 C 1200.38 507.83 1189.74 507.00 1179.09 507.55 C 1167.87 508.16 1156.64 506.82 1145.44 507.78 Z" />
<path fill="#090808" d=" M 85.83 509.67 C 89.89 507.38 94.68 506.50 99.30 506.32 C 98.86 506.85 98.00 507.91 97.57 508.44 C 99.49 509.06 101.37 509.82 103.15 510.79 C 103.21 511.61 103.27 512.43 103.33 513.25 C 100.70 518.04 97.49 523.18 92.17 525.25 C 88.77 526.35 85.15 525.40 81.69 525.21 C 80.39 526.47 79.24 527.87 78.02 529.21 C 82.58 532.37 88.89 531.83 92.64 536.34 C 96.08 540.45 100.88 543.06 104.53 546.89 C 105.18 552.18 99.38 554.28 95.85 556.76 C 93.36 557.96 91.73 560.14 90.32 562.44 C 89.45 564.13 87.23 563.40 85.72 563.79 C 84.57 564.14 83.39 564.44 82.22 564.71 C 82.15 560.74 84.02 557.04 85.63 553.50 C 87.53 554.68 89.72 555.17 91.88 555.69 C 95.17 553.38 98.91 551.54 101.44 548.31 C 94.83 543.78 89.65 537.54 82.96 533.10 C 80.12 542.76 79.23 552.85 79.23 562.89 C 78.49 569.29 79.04 575.76 80.18 582.08 C 78.56 591.28 78.72 600.66 78.80 609.96 C 79.68 618.74 79.32 627.56 79.50 636.37 C 81.80 637.79 84.26 638.90 86.76 639.93 C 86.71 640.92 86.67 641.93 86.61 642.95 C 82.87 642.41 79.47 640.57 76.54 638.26 C 75.72 634.17 75.73 630.01 75.80 625.87 L 76.26 625.21 C 76.31 613.08 76.83 600.97 76.47 588.84 C 72.92 589.85 69.34 590.82 65.69 591.45 C 65.68 595.15 65.37 598.84 64.72 602.48 C 63.82 611.29 64.88 620.17 64.10 628.99 C 63.74 633.13 63.92 637.30 63.79 641.46 C 65.91 643.19 68.26 644.59 70.66 645.91 C 70.27 646.67 69.49 648.19 69.10 648.95 C 65.95 647.47 63.21 645.31 60.58 643.07 C 60.37 625.75 62.41 608.51 63.15 591.25 C 59.77 588.05 60.56 583.21 59.90 579.06 C 58.89 572.96 60.05 566.79 59.71 560.66 C 57.76 563.60 56.35 567.06 53.58 569.35 C 51.00 570.87 48.68 568.55 46.76 567.12 C 42.80 564.32 37.94 563.33 33.33 562.12 C 34.29 567.23 34.84 572.40 35.55 577.56 C 33.91 577.67 31.97 577.63 31.80 575.55 C 31.30 569.31 30.45 563.11 28.81 557.07 C 28.56 551.58 27.90 545.56 30.70 540.58 C 33.80 537.89 37.59 536.18 41.18 534.26 C 48.65 530.03 57.65 529.93 65.29 526.10 C 66.55 524.95 67.55 523.55 68.80 522.40 C 70.56 523.16 72.27 524.03 74.03 524.80 C 74.72 525.63 75.40 526.46 76.09 527.31 C 80.53 522.04 79.71 513.68 85.83 509.67 Z" />
<path fill="#090808" d=" M 1389.13 509.16 C 1390.39 508.68 1391.66 508.24 1392.96 507.81 C 1398.16 509.14 1403.83 511.67 1406.18 516.85 C 1407.09 519.92 1406.42 523.19 1406.06 526.31 C 1408.39 528.24 1412.43 529.27 1411.86 533.06 C 1408.94 532.93 1407.00 530.68 1404.53 529.52 C 1400.92 528.30 1396.70 528.11 1393.96 525.14 C 1388.98 521.16 1387.46 514.64 1386.63 508.64 C 1387.26 508.77 1388.51 509.03 1389.13 509.16 Z" />
<path fill="#eea11e" d=" M 724.48 508.51 C 728.40 508.31 732.35 508.43 736.23 509.13 C 740.71 509.87 745.32 509.27 749.76 510.29 C 751.56 516.04 749.99 522.02 748.53 527.66 C 740.52 529.19 732.34 528.39 724.24 528.77 C 724.44 522.02 724.28 515.26 724.48 508.51 Z" />
<path fill="#eea11e" d=" M 1144.57 507.85 C 1144.79 507.83 1145.22 507.80 1145.44 507.78 C 1156.64 506.82 1167.87 508.16 1179.09 507.55 C 1189.74 507.00 1200.38 507.83 1210.99 508.77 C 1215.47 509.31 1219.99 509.20 1224.50 509.46 C 1226.25 520.81 1224.56 532.26 1224.52 543.65 C 1221.86 544.46 1219.13 545.07 1216.41 545.54 C 1214.00 543.53 1210.82 544.35 1207.98 544.25 C 1186.53 544.46 1165.10 543.17 1143.65 543.90 C 1145.24 531.97 1144.23 519.86 1144.57 507.85 Z" />
<path fill="#f5f3ef" d=" M 83.34 521.65 C 82.65 515.27 88.54 510.64 94.15 509.16 C 94.55 512.19 97.47 512.37 99.91 512.67 C 97.58 516.68 94.82 521.09 90.09 522.45 C 87.86 522.53 85.33 522.84 83.34 521.65 Z" />
<path fill="#f5f3ef" d=" M 1390.18 512.21 C 1394.49 510.22 1398.79 513.36 1401.78 516.26 C 1404.32 518.58 1403.27 522.21 1402.47 525.07 C 1395.43 525.15 1391.95 517.97 1390.18 512.21 Z" />
<path fill="#f5f3ef" d=" M 1292.93 520.32 C 1297.64 522.12 1302.27 524.37 1307.42 524.57 C 1305.33 527.00 1302.94 529.25 1301.45 532.13 C 1296.42 543.35 1291.86 555.27 1292.54 567.79 C 1288.58 571.11 1282.90 570.04 1278.19 569.51 C 1278.71 559.45 1280.47 549.37 1283.74 539.83 C 1284.83 537.19 1285.76 534.49 1286.74 531.82 C 1288.61 527.88 1290.52 523.96 1292.93 520.32 Z" />
<path fill="#f5f3ef" d=" M 162.68 533.33 C 168.83 531.06 174.00 526.72 178.77 522.33 C 178.71 528.11 177.59 533.79 176.58 539.46 C 182.06 539.89 187.57 539.77 193.07 539.88 C 189.85 545.41 185.38 550.29 180.04 553.83 C 177.34 551.88 174.66 549.92 172.00 547.92 C 168.08 544.74 164.92 540.76 161.41 537.15 C 161.76 535.84 162.23 534.59 162.68 533.33 Z" />
<path fill="#f5f3ef" d=" M 64.93 537.20 C 66.13 533.68 66.59 529.20 70.07 527.10 C 73.44 528.16 76.34 530.30 79.50 531.83 C 77.70 540.77 75.46 549.78 75.70 558.97 C 75.89 567.64 75.02 576.47 77.65 584.89 C 73.33 586.00 69.14 588.33 64.55 587.60 C 61.24 571.03 61.57 553.74 64.93 537.20 Z" />
<path fill="#f5f3ef" d=" M 799.86 529.69 C 803.78 528.32 807.90 527.71 812.03 527.34 C 807.96 528.06 803.94 529.02 799.86 529.69 Z" />
<path fill="#f5f3ef" d=" M 146.53 528.32 C 150.34 531.39 155.29 531.87 160.00 531.87 C 159.27 533.48 158.27 534.88 156.41 535.26 C 158.22 539.28 157.21 543.69 157.36 547.94 C 157.13 554.71 160.58 560.80 163.65 566.59 C 160.55 568.95 156.83 570.57 152.88 570.50 C 148.50 562.66 145.63 553.96 145.15 544.97 C 144.84 539.36 146.38 533.89 146.53 528.32 Z" />
<path fill="#f5f3ef" d=" M 49.41 534.49 C 54.28 533.15 59.21 532.01 63.97 530.33 C 63.23 535.19 62.32 540.02 61.27 544.82 C 56.58 542.28 53.13 538.19 49.41 534.49 Z" />
<path fill="#4e4b47" d=" M 709.41 531.66 C 714.94 532.48 720.53 532.08 726.09 532.47 C 720.11 533.15 714.10 532.61 708.11 532.59 C 708.44 532.36 709.09 531.89 709.41 531.66 Z" />
<path fill="#090808" d=" M 1410.02 533.94 C 1412.71 532.87 1415.22 531.34 1417.99 530.44 C 1421.56 531.11 1424.47 533.79 1428.08 534.56 C 1436.02 536.38 1444.37 536.98 1451.79 540.63 C 1451.66 542.12 1452.01 543.79 1451.16 545.13 C 1448.06 550.30 1442.37 553.05 1438.67 557.69 C 1436.83 559.91 1435.65 562.93 1432.59 563.69 C 1432.57 571.78 1432.84 579.87 1432.65 587.96 C 1432.99 590.32 1429.73 591.36 1428.41 589.52 C 1428.08 588.28 1428.90 587.23 1429.43 586.19 C 1429.40 577.83 1430.07 569.40 1428.99 561.09 C 1427.60 553.16 1426.39 544.86 1422.23 537.83 C 1421.11 536.24 1419.52 533.54 1417.23 534.47 C 1412.09 536.78 1406.79 538.88 1401.20 539.69 C 1401.30 539.00 1401.52 537.62 1401.63 536.93 C 1404.33 535.71 1407.21 534.93 1410.02 533.94 Z" />
<path fill="#090808" d=" M 637.02 533.61 C 641.65 533.59 646.34 533.26 650.88 534.38 C 664.18 537.12 677.87 534.91 691.24 536.71 C 692.24 538.28 694.09 539.82 693.24 541.91 C 691.77 545.41 687.80 546.48 684.45 547.19 C 669.82 550.14 654.82 547.82 640.02 548.61 C 633.71 548.17 627.36 549.67 621.13 548.58 C 621.25 547.50 621.38 546.43 621.52 545.37 C 639.69 546.34 657.94 546.84 676.09 545.32 C 680.07 544.48 684.25 544.24 687.98 542.46 C 688.99 542.12 689.66 541.27 689.85 540.22 C 688.25 539.68 686.56 539.55 684.91 539.34 C 684.69 540.78 685.15 542.76 683.60 543.61 C 682.03 544.74 680.05 543.92 678.36 543.65 C 678.43 542.72 678.51 541.80 678.60 540.89 C 679.47 540.44 680.34 539.99 681.22 539.55 C 669.48 538.81 657.56 539.76 646.05 536.79 C 636.72 536.26 627.37 536.95 618.05 536.47 C 618.43 535.47 618.45 534.10 619.69 533.73 C 625.46 533.37 631.24 533.76 637.02 533.61 Z" />
<path fill="#f5f3ef" d=" M 785.39 534.58 C 786.86 534.38 788.34 534.21 789.83 534.06 C 789.78 534.56 789.69 535.55 789.65 536.04 C 788.21 535.57 786.79 535.12 785.39 534.58 Z" />
<path fill="#f5f3ef" d=" M 1425.41 536.51 C 1433.18 539.06 1441.43 539.83 1449.07 542.82 C 1446.98 547.05 1443.08 549.81 1439.45 552.60 C 1436.62 554.72 1434.63 557.66 1432.26 560.22 C 1430.82 552.14 1429.57 543.72 1425.41 536.51 Z" />
<path fill="#f5f3ef" d=" M 35.45 541.36 C 37.85 539.80 40.43 538.53 42.98 537.22 C 39.19 542.86 35.78 548.76 32.33 554.62 C 32.11 554.66 31.66 554.75 31.43 554.79 C 32.79 550.44 30.64 543.95 35.45 541.36 Z" />
<path fill="#4e4b47" d=" M 709.27 537.84 C 713.14 537.61 717.02 537.55 720.90 537.57 C 720.33 540.99 720.22 544.46 720.42 547.93 C 720.96 547.57 722.05 546.85 722.60 546.49 C 722.93 556.12 721.19 565.65 721.57 575.29 C 719.67 568.01 719.82 560.46 719.34 553.01 C 719.01 548.05 720.43 542.80 718.08 538.16 C 717.14 548.45 718.03 558.81 717.62 569.14 C 717.06 558.87 717.95 548.54 716.72 538.30 C 713.82 538.40 710.89 538.43 708.02 537.99 L 709.27 537.84 Z" />
<path fill="#090808" d=" M 764.51 537.51 C 765.41 537.49 766.31 537.48 767.22 537.48 C 767.45 539.99 767.60 542.52 768.14 544.99 C 769.19 555.70 770.57 566.38 771.55 577.10 C 773.57 577.32 775.61 577.53 777.66 577.73 C 777.71 578.73 777.76 579.74 777.82 580.76 C 774.70 581.00 771.57 580.59 768.73 579.23 C 767.15 574.29 767.70 569.02 766.86 563.95 C 766.98 555.06 764.42 546.39 764.51 537.51 Z" />
<path fill="#eea11e" d=" M 43.68 541.75 C 44.79 540.33 45.77 538.05 47.90 538.24 C 51.78 541.96 55.63 545.86 60.67 548.01 C 60.55 549.58 60.43 551.17 60.30 552.76 C 57.63 557.00 55.52 561.63 52.33 565.53 C 51.00 565.99 49.99 564.73 48.91 564.20 C 44.36 561.01 38.87 559.73 33.61 558.26 C 34.09 557.90 35.04 557.19 35.51 556.83 C 37.05 555.85 37.89 554.16 38.26 552.43 C 39.41 548.59 41.64 545.17 43.68 541.75 Z" />
<path fill="#090808" d=" M 748.91 538.46 C 749.18 538.33 749.74 538.06 750.02 537.93 C 750.40 537.99 751.15 538.10 751.53 538.16 C 752.22 545.45 751.82 552.82 750.84 560.07 C 750.42 565.76 748.25 571.18 748.12 576.91 C 748.64 578.52 750.50 579.34 751.57 580.64 C 751.15 581.13 750.31 582.10 749.89 582.59 C 747.97 581.57 746.13 580.42 744.34 579.22 C 744.79 570.64 748.13 562.51 748.87 553.95 C 750.04 548.87 749.55 543.58 748.91 538.46 Z" />
<path fill="#f5f3ef" d=" M 758.52 541.04 C 758.91 549.01 758.71 556.99 758.52 564.96 C 758.18 556.99 758.08 549.00 758.52 541.04 Z" />
<path fill="#090808" d=" M 1382.03 561.11 C 1389.06 554.81 1394.98 547.37 1400.96 540.09 C 1403.53 539.66 1404.88 542.22 1406.26 543.93 C 1408.48 547.27 1410.74 550.60 1412.67 554.12 C 1418.42 566.22 1418.21 579.86 1418.45 592.95 C 1421.33 592.79 1424.04 591.74 1426.85 591.10 C 1427.97 594.96 1423.71 595.56 1421.02 596.31 C 1419.17 596.65 1417.46 595.65 1415.74 595.24 C 1413.45 586.31 1415.89 576.84 1413.54 567.90 C 1412.39 563.46 1411.73 558.75 1409.25 554.80 C 1406.99 551.07 1404.68 547.36 1402.23 543.76 C 1396.69 550.43 1391.07 557.05 1384.96 563.20 C 1388.97 564.64 1393.26 566.06 1397.57 565.27 C 1400.26 563.25 1403.72 564.50 1404.85 567.57 C 1405.57 567.63 1407.00 567.76 1407.71 567.83 C 1407.70 569.04 1407.71 570.26 1407.58 571.48 C 1406.31 571.29 1405.06 571.07 1403.84 570.82 C 1401.93 571.60 1400.03 572.98 1397.87 572.42 C 1396.39 571.52 1395.31 570.15 1393.94 569.15 C 1390.00 567.58 1385.35 567.69 1381.90 565.02 C 1381.20 563.88 1380.74 561.99 1382.03 561.11 Z" />
<path fill="#090808" d=" M 133.76 543.83 C 135.00 544.23 136.58 544.31 137.16 545.72 C 141.10 551.64 143.99 558.97 142.37 566.14 C 141.32 566.44 140.24 566.68 139.16 566.86 C 139.47 565.48 139.85 564.13 140.37 562.83 C 140.43 561.20 140.43 559.58 140.41 557.96 C 139.21 552.75 135.14 548.92 133.76 543.83 Z" />
<path fill="#090808" d=" M 229.79 548.79 C 232.91 546.27 237.15 545.63 241.04 545.37 C 248.04 545.07 255.10 545.08 262.03 546.21 C 278.87 546.93 295.73 546.88 312.59 547.19 C 312.57 547.80 312.54 549.02 312.52 549.63 C 307.09 550.90 301.50 550.12 296.00 550.17 C 283.98 550.27 271.95 550.32 259.98 549.26 C 254.16 548.21 248.23 548.42 242.35 548.46 C 243.77 550.76 244.06 554.27 240.68 555.01 C 240.79 555.63 240.89 556.26 241.01 556.89 C 250.70 556.10 260.37 557.61 270.07 557.40 C 280.38 557.54 290.69 556.85 301.00 557.53 C 307.97 558.02 314.99 557.39 321.95 557.93 C 322.32 558.75 322.66 559.59 322.97 560.46 C 317.40 561.76 311.63 561.06 305.97 561.14 C 293.35 559.85 280.64 560.49 267.97 560.47 C 259.28 560.94 250.64 559.70 241.96 559.65 C 237.60 559.73 233.31 557.77 230.25 554.73 C 228.69 553.21 227.77 550.32 229.79 548.79 Z" />
<path fill="#f5f3ef" d=" M 231.89 550.99 C 233.42 550.42 234.96 549.88 236.50 549.33 C 236.43 550.97 236.40 552.61 236.39 554.27 C 236.94 554.64 238.03 555.37 238.58 555.74 C 238.82 556.09 239.31 556.79 239.55 557.14 C 237.24 554.73 233.36 554.21 231.89 550.99 Z" />
<path fill="#f5f3ef" d=" M 1186.94 549.39 C 1187.87 549.79 1188.77 550.18 1189.74 550.60 C 1189.73 551.05 1189.73 551.95 1189.72 552.40 C 1188.34 552.49 1186.98 552.58 1185.65 552.69 C 1186.09 551.59 1186.50 550.48 1186.94 549.39 Z" />
<path fill="#090808" d=" M 129.13 551.06 C 132.95 550.66 134.11 554.95 134.64 557.91 C 134.73 559.86 136.03 563.59 132.65 562.55 C 132.03 558.56 131.18 554.60 129.13 551.06 Z" />
<path fill="#f5f3ef" d=" M 35.51 556.83 C 34.65 555.22 36.28 551.76 38.26 552.43 C 37.89 554.16 37.05 555.85 35.51 556.83 Z" />
<path fill="#090808" d=" M 124.42 554.84 C 124.93 554.31 125.45 553.79 125.97 553.28 C 128.66 556.41 130.14 560.41 129.92 564.56 C 129.31 564.61 128.09 564.71 127.48 564.75 C 127.10 561.27 126.15 557.89 124.42 554.84 Z" />
<path fill="#f5f3ef" d=" M 762.51 572.29 C 762.58 575.74 761.87 579.19 761.34 582.60 C 760.67 582.22 760.01 581.85 759.36 581.48 C 759.39 580.74 759.44 580.01 759.50 579.29 C 762.55 578.44 761.74 574.70 762.51 572.29 Z" />
<path fill="#090808" d=" M 1269.13 575.05 C 1270.74 573.26 1273.44 571.72 1275.86 572.80 C 1275.77 573.32 1275.59 574.37 1275.51 574.90 C 1269.93 577.27 1266.53 582.70 1263.69 587.79 C 1259.85 596.72 1259.10 606.56 1258.08 616.12 C 1257.13 616.37 1256.20 616.58 1255.27 616.76 C 1252.29 614.04 1249.37 611.26 1246.50 608.44 C 1246.53 607.86 1246.60 606.69 1246.63 606.11 C 1250.46 605.96 1252.28 609.94 1255.05 611.93 C 1256.05 603.36 1257.30 594.67 1260.82 586.71 C 1263.11 582.51 1265.94 578.60 1269.13 575.05 Z" />
<path fill="#f5f3ef" d=" M 721.60 579.40 C 722.53 580.06 723.45 580.71 724.42 581.35 C 724.74 581.09 725.39 580.56 725.72 580.29 C 725.51 581.32 725.30 582.36 725.12 583.40 C 724.23 583.39 723.36 583.39 722.49 583.39 C 722.19 582.06 721.88 580.72 721.60 579.40 Z" />
<path fill="#090808" d=" M 1428.34 592.08 C 1428.97 592.18 1430.24 592.39 1430.88 592.49 C 1432.32 595.76 1432.52 599.49 1434.29 602.65 C 1437.77 608.67 1440.51 615.08 1443.42 621.39 C 1445.16 625.87 1441.94 629.96 1438.97 632.96 C 1434.56 636.76 1433.27 642.68 1430.25 647.46 C 1433.80 649.01 1437.59 649.88 1441.32 650.92 C 1441.37 651.87 1441.44 652.83 1441.53 653.80 C 1436.68 653.73 1432.15 651.84 1427.73 650.07 C 1427.51 648.76 1426.22 647.36 1427.17 646.10 C 1429.12 642.66 1430.86 639.11 1432.57 635.54 C 1434.42 631.61 1438.71 629.54 1440.51 625.59 C 1441.00 623.29 1439.58 621.23 1438.80 619.19 C 1435.11 610.23 1429.60 601.87 1428.34 592.08 Z" />
<path fill="#090808" d=" M 1411.15 602.13 C 1413.46 600.19 1414.25 596.44 1417.64 596.02 C 1417.51 602.86 1410.19 605.84 1406.95 611.08 C 1405.07 614.34 1402.63 617.40 1401.48 621.02 C 1403.60 629.11 1408.29 636.31 1411.37 644.08 C 1412.02 645.81 1411.53 647.90 1409.92 648.93 C 1407.03 651.21 1403.19 653.28 1399.43 652.40 C 1400.24 648.28 1405.77 648.72 1408.49 646.18 C 1405.58 638.32 1401.18 631.09 1398.62 623.09 C 1396.95 618.91 1400.67 615.55 1402.41 612.14 C 1404.49 608.13 1407.88 605.15 1411.15 602.13 Z" />
</svg>
