<?xml version="1.0" encoding="UTF-8" ?>
<!DOCTYPE svg PUBLIC "-//W3C//DTD SVG 1.1//EN" "http://www.w3.org/Graphics/SVG/1.1/DTD/svg11.dtd">
<svg width="1155pt" height="866pt" viewBox="0 0 1155 866" version="1.1" xmlns="http://www.w3.org/2000/svg">
<path fill="#f5f4f0" d=" M 0.00 0.00 L 1155.00 0.00 L 1155.00 866.00 L 0.00 866.00 L 0.00 0.00 Z" />
<path fill="#020202" d=" M 366.47 111.76 C 368.52 111.15 370.71 110.51 372.83 111.24 C 380.85 112.66 389.52 115.71 394.18 122.85 C 397.25 127.35 401.03 132.17 400.27 137.99 C 399.42 144.45 399.07 152.11 393.39 156.40 C 387.48 162.85 378.74 166.62 369.97 166.13 C 365.20 165.40 360.31 164.48 356.11 161.96 C 352.28 159.84 349.77 156.10 347.15 152.72 C 343.80 148.19 344.27 142.23 345.19 137.00 C 346.48 131.93 347.88 126.53 351.67 122.70 C 356.20 118.57 360.51 113.81 366.47 111.76 Z" />
<path fill="#f5f4f0" d=" M 365.39 114.48 C 370.88 112.09 377.20 114.38 382.55 116.31 C 390.01 118.99 394.35 126.15 397.48 133.01 C 398.35 139.46 397.57 146.38 394.44 152.16 C 389.63 157.57 383.53 162.73 376.10 163.73 C 371.01 164.78 365.90 163.14 361.06 161.67 C 355.96 160.07 352.35 155.82 349.19 151.74 C 345.62 146.86 346.47 140.35 347.88 134.85 C 349.36 130.33 350.74 125.43 354.29 122.04 C 357.45 118.81 361.36 116.46 365.39 114.48 Z" />
<path fill="#000000" d=" M 422.02 129.98 C 428.34 128.77 434.23 125.68 440.68 125.22 C 440.39 127.23 439.94 129.21 439.46 131.18 C 448.00 131.42 456.47 132.68 465.03 132.28 C 481.47 131.92 497.74 134.18 514.06 135.67 C 524.76 137.31 534.81 141.49 544.90 145.22 C 549.83 147.03 554.83 148.62 559.83 150.22 C 564.22 151.45 568.58 152.77 572.91 154.21 C 580.29 157.09 587.73 159.87 594.89 163.28 C 606.22 166.77 617.14 171.32 627.90 176.25 C 630.59 177.49 633.22 178.84 635.83 180.25 C 640.35 182.57 644.14 186.01 648.42 188.73 C 649.93 189.58 651.00 190.96 651.70 192.53 C 648.46 192.33 646.43 189.49 644.01 187.71 C 639.80 183.86 635.14 180.49 629.93 178.14 C 626.70 176.59 623.45 175.11 620.14 173.78 C 611.79 169.58 602.82 166.96 594.07 163.79 C 587.15 160.56 580.04 157.79 572.90 155.10 C 564.02 152.10 554.90 149.84 546.14 146.49 C 534.07 142.18 522.08 136.89 509.13 135.98 C 496.76 135.02 484.43 133.09 471.99 133.42 C 460.90 133.58 449.81 133.33 438.72 133.46 C 437.90 137.43 440.57 142.60 437.22 145.68 C 434.32 143.93 431.61 141.90 428.63 140.30 C 425.50 138.56 422.05 137.22 419.54 134.57 C 418.90 134.30 417.62 133.77 416.98 133.50 C 416.70 130.73 420.16 130.74 422.02 129.98 Z" />
<path fill="#3f3f3e" d=" M 437.13 127.15 C 440.07 125.54 437.34 130.48 437.13 127.15 Z" />
<path fill="#000000" d=" M 287.87 146.02 C 301.18 141.58 314.73 135.16 329.09 136.77 C 328.69 137.17 327.88 137.97 327.48 138.37 C 322.37 139.31 317.07 137.77 311.97 138.99 C 302.77 141.14 294.08 144.93 285.12 147.85 C 276.49 150.59 268.10 154.02 259.84 157.71 C 258.91 158.18 257.98 158.64 257.05 159.11 C 248.11 163.33 239.33 167.87 230.48 172.26 C 221.87 176.79 213.36 181.58 205.75 187.69 C 193.80 196.70 180.87 204.41 169.49 214.18 C 165.44 217.19 161.69 220.57 157.74 223.69 C 146.96 232.96 137.99 244.03 128.00 254.09 C 122.51 260.32 117.17 266.70 112.72 273.74 C 109.24 279.47 105.34 284.92 101.47 290.40 C 97.60 295.78 95.46 302.15 91.80 307.66 C 87.73 314.08 83.65 320.58 81.04 327.76 C 83.26 329.02 85.30 330.61 86.68 332.80 C 85.99 334.59 85.14 336.37 83.63 337.62 C 79.75 341.15 76.32 345.11 72.69 348.87 C 71.16 348.55 69.74 347.86 68.29 347.30 C 68.92 340.14 70.40 332.92 68.83 325.74 C 69.04 325.30 69.46 324.41 69.67 323.96 C 71.02 323.74 72.17 323.14 73.10 322.16 C 74.41 324.37 76.68 325.48 79.03 326.27 C 83.02 317.80 88.65 310.26 93.15 302.07 C 96.96 295.12 101.64 288.70 106.26 282.28 C 108.78 278.35 111.42 274.51 113.79 270.49 C 117.24 266.04 120.32 261.32 124.28 257.30 C 127.09 253.45 130.77 250.37 133.94 246.83 C 143.36 236.32 153.08 225.96 164.29 217.32 C 165.93 215.95 167.57 214.58 169.29 213.32 C 180.92 203.36 194.14 195.52 206.32 186.30 C 212.21 181.68 218.52 177.58 225.24 174.26 C 233.35 169.62 241.89 165.77 250.20 161.50 C 262.32 155.33 274.94 150.20 287.87 146.02 Z" />
<path fill="#000000" d=" M 329.69 179.40 C 336.70 180.92 343.92 180.19 351.03 180.74 C 359.32 181.39 367.63 181.19 375.93 181.21 C 388.71 181.07 401.64 181.81 414.24 179.17 C 414.51 179.84 415.06 181.19 415.33 181.86 C 411.32 202.02 413.05 222.64 412.24 243.04 C 411.73 243.37 410.72 244.05 410.22 244.39 C 391.83 244.63 373.43 243.98 355.04 244.79 C 345.58 244.28 335.99 246.62 326.64 244.43 C 326.16 237.27 326.24 230.07 326.71 222.92 C 327.74 214.98 328.67 207.02 328.67 199.01 C 329.35 192.49 329.64 185.95 329.69 179.40 Z" />
<path fill="#f5f4f0" d=" M 332.53 183.29 C 355.02 183.78 377.52 183.73 400.01 183.72 C 404.01 183.68 407.98 183.18 411.93 182.60 C 409.21 202.08 410.04 221.76 409.27 241.36 C 395.17 241.65 381.07 241.46 366.98 241.61 C 354.48 242.38 341.94 242.59 329.42 242.26 C 329.13 233.53 328.89 224.72 330.27 216.06 C 331.35 205.15 331.65 194.21 332.53 183.29 Z" />
<path fill="#000000" d=" M 340.45 185.50 C 355.12 183.94 369.35 189.76 384.01 188.99 C 391.39 189.42 398.82 188.13 406.18 189.37 C 406.56 190.14 406.94 190.91 407.34 191.68 C 407.06 204.79 407.38 217.91 407.17 231.01 C 406.80 233.16 407.10 235.86 405.63 237.56 C 393.74 238.18 381.87 236.52 369.97 236.85 C 358.23 237.50 346.45 237.52 334.75 238.84 C 332.97 235.84 333.66 232.28 333.57 228.97 C 333.16 215.58 336.28 202.34 335.46 188.94 C 335.00 187.16 335.79 185.97 337.64 185.57 L 337.73 187.57 C 338.62 186.87 339.49 186.13 340.45 185.50 Z" />
<path fill="#f5f4f0" d=" M 338.62 190.71 C 338.78 189.61 338.77 188.21 339.90 187.62 C 344.51 188.67 349.27 188.06 353.94 188.60 C 359.61 189.28 365.26 190.19 370.89 191.20 C 381.98 192.67 393.25 190.90 404.32 192.33 C 404.23 201.89 404.34 211.45 404.29 221.02 C 404.21 225.59 404.56 230.20 403.71 234.73 C 381.33 234.43 358.87 233.52 336.57 235.83 C 335.59 220.72 338.45 205.79 338.62 190.71 Z" />
<path fill="#13b824" d=" M 693.46 192.74 C 700.26 191.67 707.39 192.50 713.63 195.46 C 725.08 200.58 733.15 212.43 733.66 224.97 C 734.19 233.52 731.23 242.17 725.79 248.75 C 718.76 257.46 707.21 262.17 696.11 261.18 C 682.63 259.99 670.36 250.33 666.38 237.35 C 661.32 222.91 667.69 205.70 680.65 197.70 C 684.56 195.28 688.92 193.52 693.46 192.74 Z" />
<path fill="#000000" d=" M 464.27 219.33 C 466.17 219.40 468.93 217.68 470.10 219.88 C 471.97 228.24 471.32 236.86 471.90 245.35 C 472.04 245.70 472.33 246.39 472.48 246.74 C 472.40 246.99 472.26 247.49 472.19 247.74 C 470.35 252.92 473.97 257.51 476.52 261.66 C 481.97 269.63 486.46 278.20 491.26 286.57 C 492.18 287.91 491.78 289.52 491.20 290.91 C 488.22 288.83 486.59 285.50 484.75 282.50 C 481.11 275.97 477.67 269.29 473.15 263.31 C 471.44 260.80 469.28 258.35 468.85 255.24 C 468.42 252.26 468.36 249.24 468.03 246.25 C 467.36 238.64 468.32 230.88 466.45 223.39 C 458.32 223.14 450.19 223.47 442.09 224.19 C 433.73 224.36 425.36 224.47 417.00 224.39 C 415.55 224.25 413.58 224.61 413.10 222.82 C 413.12 222.23 413.17 221.04 413.19 220.45 C 430.21 220.89 447.34 221.36 464.27 219.33 Z" />
<path fill="#dd4e0c" d=" M 462.33 257.93 C 460.13 253.16 463.66 248.13 468.03 246.25 C 468.36 249.24 468.42 252.26 468.85 255.24 C 469.28 258.35 471.44 260.80 473.15 263.31 C 468.82 264.11 463.84 262.38 462.33 257.93 Z" />
<path fill="#dd4e0c" d=" M 472.19 247.74 C 472.26 247.49 472.40 246.99 472.48 246.74 L 472.64 246.21 C 475.17 247.78 478.25 249.66 478.68 252.92 C 479.48 256.06 477.96 258.99 476.52 261.66 C 473.97 257.51 470.35 252.92 472.19 247.74 Z" />
<path fill="#000000" d=" M 743.53 250.57 C 750.90 250.25 755.37 257.24 761.67 259.90 C 761.11 260.64 760.50 261.37 760.35 262.30 C 761.38 261.66 762.41 261.00 763.47 260.36 C 764.28 261.41 765.36 262.91 764.39 264.24 C 762.86 265.66 761.02 266.66 759.30 267.79 C 764.07 273.71 767.89 280.35 772.80 286.17 C 776.81 290.85 778.74 296.78 781.91 301.99 C 788.48 312.42 792.07 324.66 792.46 336.96 C 792.61 346.35 792.58 355.75 792.20 365.14 C 790.95 371.40 792.35 377.89 790.87 384.13 C 789.87 388.33 789.43 392.61 788.81 396.87 C 788.64 399.56 788.53 402.29 787.95 404.94 C 786.96 410.11 786.06 415.30 785.26 420.50 C 784.48 425.96 781.59 430.74 779.76 435.87 C 775.80 445.29 769.75 453.64 763.59 461.72 L 763.31 462.41 C 757.54 469.09 753.15 476.83 747.68 483.74 C 745.46 486.80 743.27 489.91 740.48 492.49 C 730.70 502.02 721.71 512.40 711.00 520.92 C 717.00 525.30 723.02 529.64 729.01 534.04 C 736.77 538.23 744.56 542.45 751.96 547.28 C 759.97 552.67 768.09 557.92 776.56 562.56 C 784.56 567.03 791.69 572.86 799.81 577.13 C 803.95 579.19 807.09 582.75 811.28 584.76 C 816.02 587.13 819.82 590.93 824.41 593.55 C 828.76 596.22 833.95 597.48 837.61 601.23 C 844.72 605.63 852.28 609.29 859.59 613.35 C 859.67 602.05 859.55 590.75 859.27 579.46 C 864.08 578.18 869.11 578.95 874.02 578.77 C 890.34 578.98 906.66 578.51 922.98 578.57 C 929.02 578.59 934.98 577.38 941.03 577.66 C 945.12 577.87 949.42 576.96 953.32 578.63 C 953.66 587.08 953.34 595.56 952.79 604.01 C 953.03 616.39 952.45 628.76 952.62 641.14 C 952.92 642.83 950.94 643.40 949.82 644.09 C 933.32 646.30 916.62 645.19 900.02 645.47 C 892.68 645.46 885.35 645.48 878.01 645.51 C 872.13 645.56 866.48 643.51 860.60 643.49 C 858.59 635.63 860.22 627.37 859.69 619.34 C 855.08 618.97 851.52 615.69 847.50 613.78 C 843.09 610.97 838.21 608.93 833.99 605.85 C 828.47 600.50 821.17 597.63 815.31 592.73 C 811.68 589.53 807.00 587.91 803.33 584.78 C 799.43 581.47 794.80 579.22 790.55 576.41 C 786.88 574.17 783.70 571.20 779.89 569.21 C 773.06 565.77 767.13 560.79 760.16 557.62 C 754.63 555.16 749.70 551.62 744.42 548.71 C 736.82 544.47 728.89 540.65 722.19 535.02 C 717.66 531.24 712.55 528.25 708.01 524.50 C 707.09 523.99 706.16 523.54 705.23 523.11 C 698.34 519.93 691.57 516.30 685.94 511.15 C 675.50 503.19 663.01 498.36 652.74 490.14 C 643.99 485.15 636.33 478.54 628.23 472.62 C 620.93 466.38 611.65 463.01 604.47 456.61 C 596.89 450.23 587.48 446.63 579.70 440.54 C 573.42 436.53 568.56 430.72 562.15 426.89 C 556.82 422.43 550.78 418.96 545.32 414.67 C 537.05 408.79 528.25 403.74 519.60 398.45 C 515.54 395.91 512.33 392.12 507.97 390.05 C 505.51 390.75 503.21 391.93 500.76 392.69 C 499.68 393.04 498.61 393.39 497.55 393.76 C 475.51 401.65 452.13 404.43 429.03 407.30 C 414.29 407.81 399.48 407.99 384.80 406.57 C 380.11 422.36 377.10 438.57 372.74 454.45 C 371.51 457.98 369.18 460.94 366.93 463.86 C 365.58 463.42 364.23 462.96 362.89 462.52 C 364.25 458.84 366.01 455.32 367.37 451.64 C 370.81 443.01 371.12 433.54 374.47 424.88 C 376.76 418.81 377.07 412.17 379.84 406.27 C 371.98 404.35 363.58 404.33 356.18 400.76 C 351.96 398.94 349.19 395.10 345.90 392.06 C 343.59 390.06 342.84 386.98 340.88 384.72 C 340.87 388.20 337.37 387.33 335.02 387.44 C 322.87 387.42 310.72 387.35 298.57 387.47 C 295.15 387.50 291.24 387.99 288.83 385.00 C 291.57 383.26 294.79 382.74 297.98 382.53 L 297.28 381.19 C 297.92 383.30 300.32 382.36 301.95 382.48 C 315.14 382.12 328.34 382.49 341.53 382.16 C 342.03 379.14 342.21 375.79 344.33 373.37 C 349.09 367.62 356.33 364.90 362.90 361.80 C 373.09 358.16 383.30 354.36 394.04 352.64 C 414.50 349.15 435.30 349.71 455.97 349.82 C 459.57 350.07 463.16 350.53 466.76 350.84 C 465.68 334.02 466.48 317.15 466.17 300.31 C 466.08 297.47 465.71 294.64 465.84 291.80 C 466.50 290.21 468.60 290.41 469.94 289.78 C 471.43 292.87 472.02 296.26 472.11 299.67 C 472.04 310.12 472.30 320.57 472.12 331.02 C 472.28 337.87 471.81 344.71 472.18 351.55 C 475.22 352.23 478.32 352.57 481.41 352.96 C 488.59 354.87 495.41 357.89 502.35 360.50 C 503.28 360.85 504.23 361.23 505.18 361.55 C 511.51 362.82 517.31 359.15 522.95 356.86 C 529.66 353.79 536.87 352.13 543.96 350.20 C 552.10 348.22 559.65 344.41 567.75 342.30 C 568.94 341.94 570.16 341.60 571.36 341.25 C 577.05 339.90 582.29 337.31 587.72 335.23 C 588.56 334.98 590.22 334.49 591.06 334.24 C 595.86 332.93 600.65 331.57 605.37 329.98 C 606.35 329.62 607.34 329.26 608.33 328.89 C 613.72 326.86 619.08 324.65 624.69 323.23 C 625.62 323.00 626.57 322.78 627.53 322.57 C 633.82 321.13 640.14 319.70 646.16 317.29 C 652.44 314.75 658.74 312.22 665.25 310.33 C 665.59 304.64 664.43 298.70 665.74 293.18 C 666.33 293.33 667.50 293.63 668.09 293.79 C 668.47 305.49 667.55 317.26 668.77 328.94 C 669.65 333.83 669.55 338.81 669.51 343.76 C 675.98 343.93 682.46 344.01 688.93 343.76 C 702.94 342.82 716.99 343.29 731.02 343.13 C 736.22 343.07 741.39 342.26 746.60 342.33 C 747.08 345.52 743.37 345.19 741.39 345.54 C 727.92 346.11 714.43 345.48 700.96 345.86 C 691.99 346.68 682.98 346.78 673.99 347.19 C 671.39 346.71 666.85 347.68 666.64 343.89 C 667.02 334.34 664.95 324.94 665.21 315.38 C 655.54 317.81 646.60 322.46 636.90 324.78 C 633.42 325.60 629.92 326.35 626.54 327.48 C 625.89 327.69 624.60 328.12 623.95 328.34 C 620.01 329.52 616.18 331.03 612.28 332.31 C 610.89 332.74 609.49 333.13 608.11 333.54 C 602.37 335.13 596.76 337.20 591.01 338.78 C 589.27 339.31 587.54 339.89 585.83 340.48 C 581.66 341.96 577.37 343.08 573.23 344.62 C 572.43 344.85 570.83 345.29 570.03 345.52 C 564.19 347.11 558.70 349.73 552.94 351.56 C 544.00 354.87 534.80 357.48 526.04 361.26 C 521.49 363.26 516.79 364.90 512.03 366.31 C 514.01 369.23 516.43 372.27 516.28 376.01 C 516.43 379.94 514.83 383.72 512.03 386.46 C 512.37 387.51 512.77 388.59 513.71 389.27 C 524.85 398.88 538.00 405.70 550.05 414.04 C 559.22 420.12 568.70 425.88 576.90 433.28 C 583.07 437.88 589.50 442.14 596.33 445.72 C 604.24 449.86 610.51 456.43 618.44 460.54 C 630.51 467.09 640.35 476.87 651.93 484.17 C 655.56 486.02 658.51 488.87 661.93 491.04 C 668.72 494.96 675.44 499.00 682.31 502.78 C 688.12 506.14 692.62 511.34 698.61 514.41 C 702.43 516.48 706.25 518.56 710.11 520.55 C 722.23 510.95 732.45 499.25 743.35 488.33 C 749.92 479.82 755.64 470.70 762.29 462.25 C 765.88 457.77 768.89 452.87 772.28 448.24 C 774.53 444.70 776.59 441.03 778.29 437.19 C 782.37 428.94 783.33 419.78 785.53 410.97 C 787.85 402.79 787.57 394.17 789.69 385.96 C 791.10 380.40 790.69 374.63 790.99 368.97 C 791.88 361.67 790.94 354.32 791.19 347.00 C 791.45 336.55 791.10 325.81 786.90 316.07 C 784.80 309.15 780.35 303.38 777.30 296.90 C 773.41 288.81 767.33 282.11 761.98 274.98 C 760.31 273.04 759.03 270.72 757.04 269.10 C 754.80 270.49 752.87 272.30 750.84 273.95 C 747.36 266.52 744.75 258.70 743.53 250.57 Z" />
<path fill="#000000" d=" M 322.37 255.82 C 325.03 251.99 330.13 253.77 334.01 253.70 C 345.94 255.18 357.98 255.68 369.98 254.92 C 377.27 254.52 384.58 254.87 391.87 254.40 C 398.62 253.44 405.47 253.55 412.21 252.46 C 413.15 253.63 414.14 254.79 414.82 256.16 C 419.14 265.21 424.03 274.19 425.61 284.24 C 423.87 285.10 422.01 285.88 420.03 285.59 C 402.71 284.33 385.38 286.07 368.07 286.15 C 350.44 284.51 332.72 285.91 315.05 285.50 C 314.15 285.18 313.28 284.79 312.44 284.34 C 312.45 282.52 312.49 280.70 312.64 278.89 C 316.13 271.77 320.45 265.10 324.32 258.19 C 323.83 257.60 322.86 256.41 322.37 255.82 Z" />
<path fill="#343433" d=" M 747.33 253.27 C 747.84 253.76 747.84 253.76 747.33 253.27 Z" />
<path fill="#f5f4f0" d=" M 328.07 256.44 C 331.52 256.47 334.98 256.56 338.40 257.04 C 348.53 258.49 358.80 257.33 368.97 258.12 C 378.30 258.14 387.67 258.92 396.96 257.75 C 401.48 257.66 406.04 257.06 410.54 257.38 C 414.14 265.21 418.83 272.82 420.03 281.50 C 411.71 282.68 403.31 282.01 394.96 282.57 C 382.64 282.99 370.26 284.28 357.97 282.79 C 343.67 282.35 329.35 283.03 315.06 282.57 C 317.30 272.95 324.51 265.50 328.07 256.44 Z" />
<path fill="#000000" d=" M 331.45 263.32 C 332.13 260.83 334.94 260.90 337.01 260.74 C 348.01 260.69 359.00 260.82 370.00 260.79 C 382.71 261.49 395.46 261.80 408.19 261.63 C 409.89 262.31 409.96 264.45 408.50 265.45 C 406.86 265.70 405.19 265.55 403.57 265.34 C 395.15 263.75 386.53 264.05 378.02 263.32 C 362.50 262.97 346.97 263.30 331.45 263.32 Z" />
<path fill="#81817e" d=" M 331.45 263.32 C 346.97 263.30 362.50 262.97 378.02 263.32 C 386.53 264.05 395.15 263.75 403.57 265.34 C 396.33 266.02 389.12 264.67 381.91 264.36 C 367.95 263.20 353.90 263.52 339.93 264.40 C 337.09 264.35 333.94 265.07 331.45 263.32 Z" />
<path fill="#000000" d=" M 332.60 271.52 C 333.15 271.36 334.26 271.03 334.81 270.86 C 348.12 271.91 361.53 270.70 374.86 271.65 C 385.35 272.73 395.92 272.57 406.45 272.26 C 406.51 272.85 406.61 274.03 406.67 274.62 C 394.55 276.77 382.21 274.62 370.02 274.33 C 359.01 274.16 348.00 274.27 336.99 274.29 C 335.44 274.35 333.95 273.95 332.48 273.52 C 332.51 273.02 332.57 272.02 332.60 271.52 Z" />
<path fill="#dd4e0c" d=" M 459.75 293.05 C 458.98 288.22 463.00 283.24 467.95 283.33 C 472.69 282.87 477.21 287.30 476.78 292.05 C 477.07 295.37 474.58 297.89 472.11 299.67 C 472.02 296.26 471.43 292.87 469.94 289.78 C 468.60 290.41 466.50 290.21 465.84 291.80 C 465.71 294.64 466.08 297.47 466.17 300.31 C 462.96 299.10 460.18 296.62 459.75 293.05 Z" />
<path fill="#000000" d=" M 663.46 288.21 C 662.96 286.53 664.23 285.09 665.87 285.78 C 672.19 286.95 678.64 286.54 685.04 286.65 C 698.02 286.63 711.01 286.79 723.99 286.60 C 731.08 286.58 738.22 286.23 745.25 287.42 C 745.69 288.58 746.30 289.70 746.49 290.94 C 747.69 301.25 747.35 311.65 747.44 322.01 C 747.55 328.34 746.75 334.65 745.61 340.87 C 745.00 340.82 743.79 340.71 743.18 340.65 C 743.20 339.35 743.24 338.06 743.31 336.78 C 741.38 337.77 739.25 338.47 737.07 338.19 C 727.74 337.27 718.32 336.98 709.00 338.12 C 697.37 339.41 685.56 337.45 674.02 339.45 C 672.91 338.56 672.42 337.43 672.55 336.05 C 672.80 323.32 672.95 310.58 672.19 297.87 C 671.53 296.78 670.90 295.69 670.30 294.59 C 674.81 293.76 679.42 294.31 683.99 294.19 C 700.02 294.43 716.03 293.89 732.04 293.24 C 735.08 292.95 738.15 292.52 741.21 292.93 C 744.17 294.54 743.68 298.11 743.77 300.97 C 743.62 312.53 742.64 324.12 743.53 335.68 C 744.74 330.91 744.52 325.93 744.60 321.04 C 744.54 310.77 744.77 300.45 743.42 290.25 C 738.01 289.19 732.48 289.42 727.00 289.36 C 709.34 289.56 691.68 289.58 674.02 289.54 C 670.49 289.35 666.76 289.71 663.46 288.21 Z" />
<path fill="#f5f4f0" d=" M 675.21 297.19 C 686.81 297.14 698.42 297.28 710.02 296.81 C 719.80 297.24 729.57 296.70 739.36 296.74 C 740.17 309.01 738.10 321.25 738.55 333.53 C 732.71 333.80 726.90 334.63 721.04 334.42 C 714.99 334.20 709.05 335.63 703.02 335.65 C 695.34 335.71 687.66 335.73 679.99 335.65 C 678.45 335.57 676.98 336.06 675.53 336.47 C 675.79 323.38 675.59 310.28 675.21 297.19 Z" />
<path fill="#13b824" d=" M 636.09 311.06 C 643.18 308.14 650.33 304.80 658.05 304.06 C 657.95 304.72 657.74 306.04 657.63 306.71 C 650.87 308.77 643.82 310.29 637.57 313.74 C 636.90 314.90 636.63 316.23 636.20 317.49 C 633.58 317.81 630.94 317.75 628.33 317.56 C 627.91 316.38 627.59 315.18 627.37 313.96 C 629.13 311.23 631.67 309.13 634.12 307.05 C 635.18 308.16 635.65 309.61 636.09 311.06 Z" />
<path fill="#13b824" d=" M 611.90 314.80 C 617.97 312.64 626.67 315.35 627.53 322.57 C 626.57 322.78 625.62 323.00 624.69 323.23 C 624.03 319.26 620.45 317.01 616.63 317.00 C 614.39 319.01 611.80 320.62 609.77 322.86 C 608.34 324.52 608.66 326.86 608.33 328.89 C 607.34 329.26 606.35 329.62 605.37 329.98 C 604.85 324.26 607.04 318.09 611.90 314.80 Z" />
<path fill="#f5f4f0" d=" M 616.63 317.00 C 620.45 317.01 624.03 319.26 624.69 323.23 C 619.08 324.65 613.72 326.86 608.33 328.89 C 608.66 326.86 608.34 324.52 609.77 322.86 C 611.80 320.62 614.39 319.01 616.63 317.00 Z" />
<path fill="#13b824" d=" M 567.43 333.43 C 570.52 330.63 573.38 326.67 577.91 326.38 C 583.33 325.53 589.96 328.39 591.06 334.24 C 590.22 334.49 588.56 334.98 587.72 335.23 C 586.87 333.80 586.23 332.21 585.01 331.07 C 583.03 329.44 580.32 329.56 577.93 329.27 C 576.10 330.97 573.92 332.32 572.43 334.34 C 571.45 336.50 571.58 338.94 571.36 341.25 C 570.16 341.60 568.94 341.94 567.75 342.30 C 567.06 339.39 567.12 336.39 567.43 333.43 Z" />
<path fill="#f2f2ed" d=" M 612.28 332.31 C 616.18 331.03 620.01 329.52 623.95 328.34 C 622.73 329.62 621.70 331.11 620.27 332.18 C 617.77 333.43 614.89 332.66 612.28 332.31 Z" />
<path fill="#13b824" d=" M 623.95 328.34 C 624.60 328.12 625.89 327.69 626.54 327.48 C 626.13 330.65 625.05 334.43 621.49 335.28 C 617.05 336.13 611.93 336.42 608.11 333.54 C 609.49 333.13 610.89 332.74 612.28 332.31 C 614.89 332.66 617.77 333.43 620.27 332.18 C 621.70 331.11 622.73 329.62 623.95 328.34 Z" />
<path fill="#f5f4f0" d=" M 572.43 334.34 C 573.92 332.32 576.10 330.97 577.93 329.27 C 580.32 329.56 583.03 329.44 585.01 331.07 C 586.23 332.21 586.87 333.80 587.72 335.23 C 582.29 337.31 577.05 339.90 571.36 341.25 C 571.58 338.94 571.45 336.50 572.43 334.34 Z" />
<path fill="#13b824" d=" M 521.69 346.72 C 533.17 341.32 545.61 338.46 557.53 334.19 C 557.60 334.92 557.75 336.39 557.83 337.13 C 546.21 341.58 533.75 343.91 522.59 349.57 C 516.66 353.37 510.18 356.49 505.18 361.55 C 504.23 361.23 503.28 360.85 502.35 360.50 C 507.60 354.42 515.02 350.96 521.69 346.72 Z" />
<path fill="#13b824" d=" M 585.83 340.48 C 587.54 339.89 589.27 339.31 591.01 338.78 C 590.78 349.01 576.24 353.38 570.03 345.52 C 570.83 345.29 572.43 344.85 573.23 344.62 C 573.60 344.54 574.34 344.37 574.71 344.28 C 577.00 344.99 579.66 346.29 582.06 345.22 C 583.56 343.84 584.64 342.11 585.83 340.48 Z" />
<path fill="#f1f3ed" d=" M 573.23 344.62 C 577.37 343.08 581.66 341.96 585.83 340.48 C 584.64 342.11 583.56 343.84 582.06 345.22 C 579.66 346.29 577.00 344.99 574.71 344.28 C 574.34 344.37 573.60 344.54 573.23 344.62 Z" />
<path fill="#000000" d=" M 118.18 359.06 C 118.29 354.17 117.81 349.24 118.49 344.37 C 120.23 345.12 122.05 345.71 123.97 345.66 C 132.69 345.95 141.29 347.53 149.97 348.22 C 158.63 348.30 167.29 348.33 175.95 348.22 C 188.90 347.07 201.97 347.34 214.85 345.42 C 217.46 345.74 216.55 349.20 216.66 351.05 C 215.61 362.28 215.09 373.54 215.12 384.83 C 224.91 384.77 234.71 384.52 244.50 384.70 C 247.22 384.62 250.14 384.91 252.62 383.56 C 255.19 382.19 257.09 379.90 259.16 377.91 C 265.86 372.58 271.39 366.01 277.79 360.37 C 279.75 359.52 280.18 362.52 279.55 363.63 C 276.29 367.37 273.06 371.20 269.20 374.34 C 266.72 376.38 264.37 378.59 262.38 381.11 C 260.03 383.88 257.89 386.91 254.96 389.09 C 251.84 389.70 248.64 389.55 245.48 389.65 C 235.20 389.68 224.92 389.55 214.64 389.80 C 214.55 396.21 214.56 402.67 213.66 409.04 C 213.28 412.13 213.68 415.35 212.38 418.28 C 207.22 418.56 202.09 419.09 197.00 419.95 C 183.13 422.09 169.05 421.43 155.06 421.54 C 149.39 421.45 143.71 421.58 138.07 420.93 C 131.94 420.38 125.76 421.13 119.65 420.32 C 119.07 418.26 118.63 416.16 118.74 414.01 C 117.96 395.71 118.36 377.38 118.18 359.06 Z" />
<path fill="#f5f4f0" d=" M 120.79 348.59 C 134.25 348.56 147.50 351.85 161.00 351.13 C 170.01 351.47 179.00 350.41 188.01 350.57 C 196.20 350.31 204.44 350.82 212.58 349.65 C 212.08 353.80 212.38 357.94 212.67 362.08 C 212.38 360.67 212.13 359.27 211.92 357.87 C 211.41 363.57 211.28 369.29 211.09 375.01 C 210.08 386.31 210.89 397.74 209.07 408.98 C 208.77 410.73 208.67 412.51 208.57 414.29 C 193.83 418.86 178.31 418.85 163.03 418.74 C 149.27 419.09 135.54 417.98 121.81 417.55 C 120.73 394.59 120.66 371.59 120.79 348.59 Z" />
<path fill="#000000" d=" M 738.44 351.62 C 740.92 351.82 744.51 350.23 746.22 352.56 C 748.17 363.06 758.37 369.77 760.55 380.12 C 758.98 380.44 757.55 380.94 756.62 382.29 C 751.73 382.63 746.91 383.75 742.00 383.64 C 726.33 383.41 710.65 383.44 694.98 383.45 C 688.69 383.56 682.36 383.24 676.13 384.25 C 669.12 384.96 662.06 384.80 655.03 384.68 C 652.85 384.99 651.92 381.76 653.71 380.58 C 659.07 374.43 662.37 366.89 665.01 359.25 C 665.86 357.63 666.61 354.69 669.01 355.50 C 675.39 356.39 681.58 354.33 687.87 353.67 C 695.94 353.44 703.96 352.48 712.03 352.17 C 720.82 351.44 729.65 352.21 738.44 351.62 Z" />
<path fill="#000000" d=" M 124.52 352.77 C 136.33 352.91 148.17 353.78 159.96 352.69 C 165.34 352.69 170.76 352.38 176.13 352.82 C 181.33 353.82 186.67 353.27 191.88 354.25 C 197.06 355.00 202.28 353.94 207.47 354.47 C 206.59 373.40 207.71 392.51 204.48 411.26 C 186.73 413.37 168.78 414.00 150.94 412.81 C 142.81 413.10 134.71 412.02 126.57 412.30 C 125.15 409.03 125.56 405.41 125.46 401.94 C 125.55 385.55 125.35 369.15 124.52 352.77 Z" />
<path fill="#f5f4f0" d=" M 374.07 360.56 C 398.27 351.61 424.50 352.33 449.91 352.53 C 458.73 352.30 467.48 353.85 476.14 355.35 C 478.31 355.30 478.92 358.09 480.96 358.21 C 487.28 358.97 492.94 362.05 498.84 364.20 L 498.45 364.81 C 493.18 371.99 491.84 381.60 494.76 389.99 L 494.80 390.16 C 482.70 393.93 470.43 397.30 457.83 398.94 C 444.28 401.03 430.71 403.45 416.96 403.51 C 401.41 403.58 385.74 403.80 370.40 400.89 C 363.89 400.10 356.65 399.18 351.95 394.09 C 348.96 390.91 344.48 387.89 344.72 383.00 C 344.21 378.91 345.75 374.56 349.21 372.18 C 356.60 366.67 365.37 363.39 374.07 360.56 Z" />
<path fill="#f5f4f0" d=" M 711.99 354.81 C 722.47 354.43 732.98 355.24 743.44 354.25 C 744.24 356.95 745.32 359.56 746.66 362.05 C 728.12 363.26 709.51 362.24 690.94 362.71 C 684.23 362.95 677.51 362.78 670.80 362.78 C 670.47 363.05 669.80 363.58 669.47 363.84 C 669.29 366.65 673.16 365.55 674.94 366.08 C 695.94 365.08 716.98 365.20 738.01 365.30 C 741.58 365.38 745.13 364.96 748.66 364.44 C 751.76 369.45 755.28 374.20 757.86 379.53 C 752.85 379.21 748.03 380.99 743.03 380.80 C 723.36 380.73 703.68 380.68 684.01 380.84 C 674.89 381.85 665.72 382.05 656.56 381.77 C 662.12 374.99 665.58 366.82 668.54 358.64 C 674.78 359.33 680.81 357.50 686.92 356.63 C 695.27 355.98 703.65 355.66 711.99 354.81 Z" />
<path fill="#f5f4f0" d=" M 128.55 356.22 C 139.97 355.30 151.46 356.25 162.90 355.51 C 176.82 354.76 190.57 358.03 204.48 357.20 C 203.79 369.11 204.97 381.07 203.62 392.96 C 203.47 398.14 202.52 403.25 202.13 408.42 C 185.53 410.74 168.71 410.94 151.98 410.23 C 144.19 410.57 136.48 409.05 128.69 409.26 C 128.04 391.59 128.23 373.89 128.55 356.22 Z" />
<path fill="#050505" d=" M 48.56 364.53 C 51.59 362.07 55.61 364.13 59.00 362.79 C 63.85 363.13 68.70 363.94 73.51 364.72 C 79.84 366.69 87.07 367.96 91.48 373.41 C 96.91 378.75 97.04 386.95 96.48 394.04 C 95.90 398.61 97.39 403.68 94.76 407.82 C 92.06 411.96 88.28 415.24 84.49 418.35 C 80.91 421.20 76.72 423.82 71.98 423.73 C 64.92 423.70 57.79 423.41 50.90 421.77 C 44.67 420.46 39.90 415.41 37.14 409.90 C 33.44 400.11 33.04 389.32 34.94 379.09 C 37.95 373.01 43.17 368.46 48.56 364.53 Z" />
<path fill="#f5f4f0" d=" M 55.07 364.73 C 65.16 365.51 75.57 366.95 85.03 370.97 C 89.17 373.81 93.58 377.63 94.03 382.98 C 94.99 389.28 94.33 395.66 94.22 402.00 C 94.01 409.14 87.19 413.09 82.51 417.43 C 76.33 422.94 67.57 422.03 59.95 421.43 C 53.06 420.76 45.32 418.89 41.29 412.71 C 37.29 407.66 37.03 400.99 35.81 394.93 C 35.82 387.97 34.43 380.08 39.10 374.19 C 43.31 369.55 48.75 365.68 55.07 364.73 Z" />
<path fill="#13b824" d=" M 498.45 364.81 L 499.08 364.20 C 499.78 364.42 501.17 364.84 501.86 365.06 C 496.72 371.49 494.63 380.20 497.19 388.15 L 497.20 388.83 C 496.59 389.12 495.37 389.70 494.76 389.99 C 491.84 381.60 493.18 371.99 498.45 364.81 Z" />
<path fill="#f5f4f0" d=" M 501.86 365.06 C 505.52 367.45 509.44 369.80 511.51 373.83 C 511.35 376.39 511.94 379.27 510.29 381.49 C 507.46 385.45 502.66 388.02 497.87 388.41 L 497.19 388.15 C 494.63 380.20 496.72 371.49 501.86 365.06 Z" />
<path fill="#010101" d=" M 719.08 369.58 C 725.28 368.64 731.56 368.57 737.81 368.09 C 737.84 368.71 737.91 369.94 737.94 370.55 C 732.73 371.95 727.27 371.03 721.99 371.97 C 715.38 373.03 708.73 373.76 702.04 373.76 C 692.29 374.71 682.48 376.57 672.67 375.20 C 672.62 374.51 672.51 373.13 672.46 372.44 C 678.96 372.45 685.51 373.08 691.98 372.08 C 700.96 370.66 710.12 371.14 719.08 369.58 Z" />
<path fill="#dd4e0c" d=" M 250.19 377.28 C 253.07 375.81 256.37 376.68 259.16 377.91 C 257.09 379.90 255.19 382.19 252.62 383.56 C 250.14 384.91 247.22 384.62 244.50 384.70 C 245.42 381.65 247.06 378.51 250.19 377.28 Z" />
<path fill="#dd4e0c" d=" M 282.77 380.80 C 285.71 375.45 294.85 375.41 297.28 381.19 L 297.98 382.53 C 294.79 382.74 291.57 383.26 288.83 385.00 C 291.24 387.99 295.15 387.50 298.57 387.47 C 297.26 391.00 294.07 394.22 290.04 393.85 C 283.55 394.44 278.91 386.02 282.77 380.80 Z" />
<path fill="#dd4e0c" d=" M 254.96 389.09 C 257.89 386.91 260.03 383.88 262.38 381.11 C 263.06 385.08 263.36 390.00 259.60 392.60 C 255.24 396.62 248.24 394.51 245.48 389.65 C 248.64 389.55 251.84 389.70 254.96 389.09 Z" />
<path fill="#13b824" d=" M 497.55 393.76 C 498.61 393.39 499.68 393.04 500.76 392.69 C 504.14 396.89 506.99 402.24 512.44 404.01 C 513.89 401.89 516.40 398.63 519.22 400.70 C 522.44 404.48 528.27 407.75 527.45 413.44 C 521.72 413.35 515.44 414.36 510.28 411.27 C 510.43 409.72 510.61 408.18 510.79 406.64 C 504.76 404.20 501.81 398.21 497.55 393.76 Z" />
<path fill="#13b824" d=" M 538.34 418.66 C 538.75 418.38 539.58 417.81 540.00 417.53 C 542.24 419.78 544.27 422.31 547.09 423.89 C 560.05 431.83 572.98 439.84 585.23 448.86 C 595.12 455.89 605.12 462.87 614.14 471.02 C 614.61 470.56 615.57 469.63 616.05 469.16 C 621.12 470.89 624.33 475.43 628.00 479.05 C 629.19 480.24 630.84 482.70 629.01 484.05 C 622.84 485.30 616.56 484.19 610.43 483.30 C 609.99 479.91 612.33 477.25 613.91 474.53 C 600.61 462.40 585.55 452.47 570.89 442.10 C 562.03 436.19 552.82 430.83 543.76 425.24 C 541.57 423.52 538.48 421.73 538.34 418.66 Z" />
<path fill="#010101" d=" M 142.96 425.53 C 153.55 423.87 164.30 424.91 174.96 424.45 C 184.95 424.04 194.91 425.04 204.87 425.62 C 206.38 425.90 208.88 426.48 207.71 428.84 C 196.49 427.81 185.23 426.91 173.94 427.28 C 163.64 427.56 153.25 426.62 143.03 428.32 C 135.51 429.24 127.98 428.47 120.46 428.17 C 120.28 426.95 119.66 424.44 121.79 424.83 C 128.79 425.94 135.90 426.16 142.96 425.53 Z" />
<path fill="#000000" d=" M 115.37 428.44 C 116.00 428.32 117.26 428.07 117.89 427.95 C 117.71 429.26 117.77 430.72 116.83 431.79 C 113.98 435.93 110.68 439.75 107.80 443.88 C 105.48 447.15 102.34 449.77 100.15 453.14 C 101.67 455.11 104.66 454.86 106.93 455.32 C 124.26 456.25 141.61 455.07 158.95 455.27 C 179.45 455.86 199.70 452.01 220.16 451.61 C 217.08 444.23 214.71 436.33 209.53 430.08 C 208.70 428.04 211.04 428.73 212.03 428.32 C 217.39 435.17 219.28 443.95 224.78 450.70 C 226.09 451.96 225.68 453.82 225.61 455.45 C 221.25 456.92 216.59 456.10 212.09 456.61 C 199.03 456.74 186.08 458.87 173.04 459.30 C 165.69 459.23 158.34 459.26 150.99 459.17 C 136.69 458.31 122.35 458.84 108.05 458.28 C 103.97 457.79 99.03 457.81 96.34 454.16 C 97.50 452.15 98.55 450.04 100.14 448.33 C 105.95 442.30 110.50 435.22 115.37 428.44 Z" />
<path fill="#000000" d=" M 143.01 434.18 C 151.66 435.04 160.28 433.74 168.86 432.82 C 179.03 432.26 189.23 432.51 199.34 433.59 C 199.72 433.96 200.48 434.70 200.85 435.07 C 199.17 436.50 196.94 436.42 194.89 436.08 C 187.64 434.97 180.29 435.34 172.98 435.36 C 163.28 435.33 153.69 438.01 143.96 437.01 C 137.45 436.34 130.90 435.99 124.38 436.66 C 124.16 436.25 123.71 435.42 123.49 435.01 C 123.81 434.67 124.46 433.98 124.79 433.63 C 130.86 433.00 136.97 433.44 143.01 434.18 Z" />
<path fill="#1b1b1a" d=" M 373.02 440.48 C 373.01 437.77 373.64 435.13 374.82 432.70 C 375.55 435.49 375.01 438.34 373.02 440.48 Z" />
<path fill="#141414" d=" M 57.31 439.45 C 57.85 439.47 58.93 439.51 59.47 439.53 C 61.21 446.94 59.08 454.50 59.90 462.00 C 60.41 466.01 60.14 470.04 59.92 474.06 C 61.29 481.56 63.71 488.83 65.86 496.14 C 67.99 500.82 69.00 505.96 71.54 510.45 C 75.53 516.66 80.63 522.17 86.81 526.25 C 93.82 530.82 99.88 536.61 106.44 541.76 C 115.41 548.00 123.56 555.35 132.75 561.29 C 138.01 564.20 143.05 567.47 148.02 570.86 C 154.39 575.37 161.91 577.74 168.83 581.24 C 173.16 582.86 177.51 584.46 181.82 586.17 C 185.80 587.94 189.86 589.52 193.90 591.17 C 205.97 596.55 218.77 600.04 231.80 602.17 C 238.70 603.09 245.28 605.49 251.97 607.33 C 263.18 610.45 274.46 613.51 286.02 615.03 C 298.10 616.35 310.44 615.90 322.28 618.99 C 331.79 620.18 341.44 619.89 350.94 621.25 C 354.58 621.52 358.25 621.43 361.89 621.03 C 360.68 621.68 359.57 622.90 358.03 622.44 C 346.97 622.12 335.99 620.62 324.93 620.35 C 316.61 619.01 308.06 619.30 299.88 617.13 C 296.43 616.34 292.87 616.69 289.38 616.39 C 271.67 614.43 254.64 608.94 237.55 604.17 C 225.93 602.08 214.17 600.03 203.10 595.81 C 193.05 591.97 183.21 587.57 173.13 583.83 C 161.66 579.23 150.09 574.42 140.28 566.74 C 132.51 562.38 125.06 557.42 118.20 551.75 C 111.24 546.04 103.51 541.30 96.95 535.11 C 90.29 529.02 81.81 525.07 76.07 517.97 C 71.89 513.45 68.70 508.15 66.60 502.38 C 62.39 493.52 60.05 483.89 58.77 474.20 C 58.41 462.61 59.41 450.93 57.31 439.45 Z" />
<path fill="#020202" d=" M 145.60 443.92 C 155.72 443.15 165.90 443.71 176.05 443.54 C 181.81 443.65 187.58 443.20 193.33 443.63 C 193.32 444.28 193.30 445.58 193.29 446.23 C 183.52 446.55 173.73 446.14 163.95 446.31 C 156.94 446.48 149.84 445.91 142.91 447.28 C 138.46 448.04 133.94 448.96 129.39 448.54 C 128.19 447.47 128.24 446.49 129.55 445.63 C 134.96 445.69 140.27 444.70 145.60 443.92 Z" />
<path fill="#dd4e0c" d=" M 355.13 463.01 C 354.26 456.30 360.92 450.75 367.37 451.64 C 366.01 455.32 364.25 458.84 362.89 462.52 C 364.23 462.96 365.58 463.42 366.93 463.86 C 369.18 460.94 371.51 457.98 372.74 454.45 C 378.05 458.80 377.25 467.93 371.31 471.32 C 365.00 475.59 354.99 470.85 355.13 463.01 Z" />
<path fill="#000000" d=" M 447.01 458.07 C 465.60 455.92 484.33 457.22 502.99 456.46 C 505.81 456.50 508.95 455.77 511.35 457.69 C 511.53 462.29 513.45 466.56 513.88 471.12 C 515.16 488.52 518.57 505.68 520.82 522.97 C 520.73 524.97 521.60 528.44 518.63 528.54 C 508.44 529.14 498.20 528.43 487.99 528.77 C 473.99 530.15 459.91 529.28 445.87 529.75 L 445.32 530.21 C 435.17 530.26 425.02 530.59 414.88 530.54 C 414.59 530.01 414.02 528.96 413.74 528.44 C 413.60 525.12 413.30 521.81 413.05 518.50 C 403.01 518.64 392.95 519.22 382.91 518.56 C 373.33 517.27 363.68 516.56 354.02 516.29 C 351.84 516.08 349.23 516.89 347.60 515.01 C 346.77 512.08 348.29 509.26 349.46 506.67 C 350.83 503.51 352.50 500.43 353.27 497.06 C 352.73 492.94 351.38 488.98 350.70 484.89 C 349.23 478.68 346.96 472.66 343.87 467.09 C 342.81 465.33 343.03 463.00 345.06 462.07 C 348.82 469.17 351.85 476.74 353.80 484.53 C 354.22 488.24 355.74 491.65 357.16 495.05 C 356.82 499.22 355.23 503.15 354.04 507.13 C 353.55 508.55 353.03 509.97 352.49 511.39 C 359.63 511.78 366.83 511.05 373.93 512.16 C 386.75 512.40 399.57 512.58 412.40 512.37 C 411.93 496.88 413.35 481.43 412.72 465.95 C 412.23 463.20 413.99 459.58 417.11 459.57 C 427.05 458.70 437.04 458.48 447.01 458.07 Z" />
<path fill="#f5f4f0" d=" M 421.00 462.01 C 433.30 461.25 445.64 461.04 457.90 459.73 C 474.77 459.06 491.66 459.83 508.53 459.34 C 509.44 465.58 511.83 471.58 511.70 477.98 C 513.42 492.43 515.64 506.82 517.68 521.23 C 517.82 522.73 517.86 524.25 517.93 525.78 C 501.61 525.53 485.32 526.34 469.03 527.09 C 451.59 527.24 434.15 527.49 416.71 527.75 C 415.77 519.52 414.85 511.28 415.13 502.97 C 415.23 490.29 416.16 477.64 415.80 464.95 C 415.10 461.67 419.07 462.48 421.00 462.01 Z" />
<path fill="#000000" d=" M 448.05 466.11 C 455.65 465.15 463.33 465.65 470.96 465.49 C 481.34 465.40 491.71 465.02 502.07 464.61 C 504.13 464.09 505.31 466.15 505.37 467.91 C 506.03 474.00 507.59 479.95 508.34 486.03 C 508.93 493.39 509.35 500.78 510.49 508.09 C 510.38 511.85 511.44 516.49 508.76 519.55 C 500.21 520.18 491.52 519.23 483.08 521.10 C 465.15 524.38 446.95 519.48 428.96 522.03 C 426.59 522.37 424.19 522.29 421.81 522.30 C 421.22 522.00 420.05 521.40 419.46 521.11 C 418.94 502.89 420.01 484.68 419.60 466.48 C 429.07 465.97 438.59 466.90 448.05 466.11 Z" />
<path fill="#8a8987" d=" M 441.01 468.85 C 445.76 468.84 450.48 468.00 455.24 468.35 C 444.63 469.93 433.89 469.60 423.20 469.75 C 423.25 476.50 423.11 483.24 422.63 489.97 C 422.52 499.63 422.44 509.30 422.77 518.95 C 429.17 518.88 435.54 518.04 441.95 518.19 C 455.87 518.18 469.99 520.79 483.75 517.73 C 490.15 516.37 496.73 516.70 503.23 516.76 C 497.05 517.99 490.63 516.86 484.45 518.30 C 478.39 519.74 472.15 519.62 465.97 519.54 C 454.64 519.90 443.33 517.58 432.01 519.00 C 428.66 519.49 425.27 519.53 421.91 519.25 C 421.85 508.84 421.76 498.43 421.92 488.03 C 422.45 481.74 422.55 475.43 422.49 469.13 C 428.65 468.66 434.83 469.00 441.01 468.85 Z" />
<path fill="#f5f4f0" d=" M 455.24 468.35 C 465.16 468.08 475.10 468.64 485.00 467.82 C 490.78 467.69 496.56 467.87 502.33 467.53 C 502.90 472.08 503.84 476.57 504.71 481.07 C 506.08 488.32 506.11 495.72 506.86 503.03 C 507.94 507.49 507.77 512.11 507.37 516.65 C 505.98 516.69 504.60 516.74 503.23 516.76 C 496.73 516.70 490.15 516.37 483.75 517.73 C 469.99 520.79 455.87 518.18 441.95 518.19 C 435.54 518.04 429.17 518.88 422.77 518.95 C 422.44 509.30 422.52 499.63 422.63 489.97 C 423.11 483.24 423.25 476.50 423.20 469.75 C 433.89 469.60 444.63 469.93 455.24 468.35 Z" />
<path fill="#dd4e0c" d=" M 342.33 496.00 C 342.06 490.85 346.10 486.58 350.70 484.89 C 351.38 488.98 352.73 492.94 353.27 497.06 C 352.50 500.43 350.83 503.51 349.46 506.67 C 345.57 504.54 342.11 500.69 342.33 496.00 Z" />
<path fill="#dd4e0c" d=" M 353.80 484.53 C 359.58 484.99 364.97 489.93 364.68 495.95 C 364.97 501.82 359.78 506.88 354.04 507.13 C 355.23 503.15 356.82 499.22 357.16 495.05 C 355.74 491.65 354.22 488.24 353.80 484.53 Z" />
<path fill="#13b824" d=" M 643.98 496.87 C 647.66 497.21 650.41 499.89 653.57 501.53 C 668.64 510.96 685.05 518.02 699.95 527.72 C 699.19 528.24 698.44 528.77 697.70 529.31 C 689.65 524.18 681.15 519.85 672.74 515.37 C 663.47 510.78 654.59 505.46 645.58 500.38 C 643.99 499.90 644.24 498.15 643.98 496.87 Z" />
<path fill="#141414" d=" M 705.23 523.11 C 706.16 523.54 707.09 523.99 708.01 524.50 C 705.07 524.01 703.19 526.78 700.98 528.21 C 700.22 528.80 699.45 529.38 698.68 529.97 C 683.42 539.46 668.14 549.04 651.93 556.83 C 637.84 563.43 625.37 573.01 610.84 578.74 C 606.94 580.62 602.82 581.98 598.89 583.80 C 593.91 586.53 588.83 589.06 583.83 591.76 C 576.63 596.14 568.73 599.12 560.90 602.13 C 551.47 604.88 541.97 608.24 532.04 608.26 C 530.25 608.47 528.55 607.90 527.03 607.04 C 529.48 604.70 533.00 605.86 536.01 605.75 C 544.72 606.23 553.00 603.15 561.24 600.80 C 566.81 598.53 572.58 596.72 577.93 593.96 C 585.54 589.83 593.14 585.64 600.94 581.88 C 611.84 577.58 622.59 572.72 632.55 566.50 C 638.68 562.40 645.36 559.23 651.87 555.78 C 660.06 552.38 667.42 547.36 675.26 543.26 C 682.73 538.59 690.48 534.38 697.70 529.31 C 698.44 528.77 699.19 528.24 699.95 527.72 C 701.87 526.38 703.90 525.09 705.23 523.11 Z" />
<path fill="#13b824" d=" M 698.68 529.97 C 699.45 529.38 700.22 528.80 700.98 528.21 C 708.29 533.02 716.30 536.67 723.55 541.58 C 731.90 546.64 739.84 552.31 748.11 557.47 C 750.15 557.59 752.71 555.86 754.33 557.68 C 757.15 560.60 759.63 564.03 760.39 568.10 C 760.07 568.69 759.42 569.86 759.09 570.45 C 754.40 569.93 749.71 568.65 745.64 566.20 C 744.46 564.21 746.24 562.03 746.24 559.94 C 738.44 554.61 730.55 549.37 722.53 544.35 C 714.87 539.09 706.53 534.93 698.68 529.97 Z" />
<path fill="#000000" d=" M 476.02 538.03 C 490.55 537.51 504.69 532.88 519.27 533.66 C 522.90 535.50 522.89 540.31 524.61 543.58 C 526.92 548.24 528.35 553.22 529.84 558.18 C 530.46 560.58 533.46 562.59 532.36 565.21 C 531.80 565.28 530.70 565.43 530.14 565.51 C 529.97 566.05 529.61 567.14 529.44 567.68 C 517.00 568.84 504.47 568.02 491.99 568.19 C 474.67 566.84 457.31 568.02 440.03 569.25 C 426.00 568.43 412.06 573.42 398.09 570.44 C 398.31 567.10 400.19 564.22 401.13 561.07 C 404.16 555.33 408.93 550.46 410.71 544.07 C 411.38 542.12 411.53 539.57 413.80 538.75 C 434.53 538.17 455.29 538.66 476.02 538.03 Z" />
<path fill="#f5f4f0" d=" M 474.95 541.61 C 489.40 541.95 503.50 537.15 517.97 538.38 C 519.18 542.39 520.74 546.28 522.54 550.06 C 524.73 554.49 526.26 559.26 529.06 563.38 C 508.75 564.30 488.42 563.35 468.10 563.77 C 454.65 564.49 441.25 565.87 427.81 566.68 C 419.31 568.40 410.65 568.55 402.01 568.19 C 403.05 560.09 409.80 554.73 412.70 547.42 C 413.47 545.55 414.10 543.64 414.74 541.73 C 434.80 541.07 454.88 541.28 474.95 541.61 Z" />
<path fill="#030303" d=" M 489.04 546.69 C 497.03 546.64 505.03 546.45 513.03 546.71 C 513.34 546.97 513.95 547.48 514.26 547.74 C 514.26 548.20 514.27 549.14 514.27 549.60 C 498.50 549.25 482.73 549.56 466.95 549.55 C 459.91 549.38 452.92 550.21 445.91 550.71 C 439.13 551.35 432.44 553.39 425.57 552.61 C 425.62 551.94 425.72 550.59 425.77 549.92 C 435.26 549.83 444.54 547.45 454.04 547.35 C 465.68 546.34 477.37 547.03 489.04 546.69 Z" />
<path fill="#000000" d=" M 425.77 555.86 C 449.18 557.55 472.58 554.31 496.01 554.60 C 500.14 554.61 504.28 554.15 508.40 554.54 C 508.37 555.21 508.29 556.55 508.25 557.22 C 496.18 557.74 484.08 556.97 472.02 557.80 C 462.41 558.84 452.71 558.56 443.06 558.93 C 437.70 559.32 432.33 559.19 426.97 559.19 C 425.32 559.35 423.42 558.71 423.30 556.75 C 423.92 556.53 425.16 556.08 425.77 555.86 Z" />
<path fill="#13b824" d=" M 768.28 575.69 C 766.14 574.86 768.29 572.06 769.95 573.28 C 773.96 574.84 777.11 577.88 780.64 580.25 C 786.72 584.30 792.90 588.20 799.29 591.73 C 805.21 594.97 810.27 599.56 816.27 602.66 C 822.60 605.87 828.16 610.60 834.99 612.80 C 836.35 612.37 837.61 611.58 839.07 611.42 C 842.76 613.77 846.25 616.60 849.02 620.02 C 850.20 621.36 849.89 624.23 847.99 624.74 C 845.62 624.64 843.30 624.09 840.94 624.13 C 839.19 624.44 837.64 625.70 835.82 625.47 C 834.49 622.76 835.42 619.61 835.38 616.73 C 831.31 614.34 826.91 612.57 823.02 609.89 C 817.86 606.40 812.08 603.92 807.13 600.13 C 800.13 594.79 792.05 591.18 784.74 586.33 C 779.04 583.09 774.12 578.67 768.28 575.69 Z" />
<path fill="#f5f4f0" d=" M 897.77 581.62 C 907.68 581.26 917.61 581.58 927.52 581.24 C 935.14 580.33 942.82 580.81 950.47 580.69 C 950.64 589.12 950.19 597.55 949.63 605.96 C 949.71 617.39 948.23 628.72 948.38 640.15 C 931.27 641.58 914.10 641.28 896.95 641.27 C 887.80 640.97 878.47 642.19 869.51 639.85 C 867.25 639.31 864.94 639.19 862.65 639.09 C 862.56 633.08 862.57 627.07 862.45 621.06 C 862.24 619.28 862.66 617.56 863.43 615.98 C 861.86 612.85 862.48 609.32 862.41 605.97 C 862.35 598.00 862.68 590.03 862.28 582.08 C 874.09 581.32 885.94 581.90 897.77 581.62 Z" />
<path fill="#000000" d=" M 913.98 586.56 C 922.35 586.38 930.72 585.30 939.11 585.94 C 941.04 586.09 942.77 587.96 942.57 589.94 C 942.70 595.31 942.26 600.69 942.79 606.05 C 944.20 613.93 943.47 621.97 943.59 629.92 C 943.54 631.69 943.50 634.63 941.09 634.57 C 935.38 634.79 929.66 635.33 923.95 635.06 C 916.96 634.35 909.97 635.75 902.99 634.99 C 894.30 634.18 885.65 635.82 876.97 635.54 C 874.07 635.46 870.98 635.84 868.42 634.18 C 870.01 624.51 868.14 614.76 868.36 605.02 C 868.68 599.56 867.16 594.26 866.58 588.88 C 867.96 588.05 869.42 587.35 870.82 586.53 C 885.20 586.65 899.59 586.62 913.98 586.56 Z" />
<path fill="#f5f4f0" d=" M 915.00 591.16 C 922.57 590.39 930.19 590.40 937.79 590.51 C 937.47 603.86 940.42 617.08 938.92 630.42 C 922.63 630.70 906.37 631.25 890.09 631.55 C 883.98 632.43 877.82 632.68 871.65 632.48 C 872.26 623.01 871.27 613.53 871.24 604.05 C 871.34 599.77 870.51 595.56 870.15 591.32 C 885.10 591.09 900.05 591.36 915.00 591.16 Z" />
<path fill="#070707" d=" M 459.56 591.85 C 462.84 591.57 466.24 591.00 469.50 591.68 C 474.68 593.95 479.46 597.05 484.57 599.47 C 488.62 603.06 491.84 608.41 491.24 614.01 C 491.25 618.76 489.85 623.35 488.71 627.92 C 487.72 632.48 483.62 635.30 480.39 638.28 C 474.87 642.72 467.46 642.24 460.88 641.19 C 450.84 639.21 442.26 630.46 441.65 620.05 C 441.33 613.25 441.68 605.67 446.16 600.15 C 450.05 596.64 454.35 593.10 459.56 591.85 Z" />
<path fill="#f5f4f0" d=" M 457.13 594.06 C 460.69 593.11 464.45 593.92 468.09 593.87 C 472.60 594.77 476.12 598.04 480.29 599.80 C 484.25 601.47 487.23 604.99 488.54 609.03 C 489.75 615.95 487.92 622.93 485.76 629.45 C 482.51 634.14 477.97 638.86 471.94 639.37 C 465.38 639.71 458.13 639.44 452.70 635.26 C 448.14 632.20 445.13 627.24 443.70 622.01 C 443.01 614.77 443.38 606.77 447.70 600.62 C 450.35 597.84 453.44 595.29 457.13 594.06 Z" />
<path fill="#000000" d=" M 395.11 614.77 C 395.16 613.15 395.91 611.71 396.57 610.29 C 403.07 610.61 407.57 615.38 412.02 619.49 C 414.38 620.10 417.77 622.60 416.54 625.31 C 412.15 627.21 407.39 628.00 402.96 629.77 C 399.03 630.92 395.68 633.91 391.42 633.82 C 391.29 633.07 391.02 631.56 390.89 630.80 C 392.21 630.14 393.53 629.48 394.86 628.83 C 391.93 624.44 395.63 619.53 395.11 614.77 Z" />
<path fill="#141414" d=" M 393.40 622.27 C 393.98 619.77 394.43 617.24 395.11 614.77 C 395.63 619.53 391.93 624.44 394.86 628.83 C 393.53 629.48 392.21 630.14 390.89 630.80 C 391.60 628.49 392.25 626.16 392.81 623.81 C 385.21 623.73 377.60 623.64 370.01 623.45 C 367.05 623.41 364.14 622.23 361.18 623.02 C 361.89 622.49 362.60 621.97 363.33 621.47 C 373.25 623.16 383.38 622.14 393.40 622.27 Z" />
<path fill="#373736" d=" M 407.31 620.39 C 407.83 620.88 407.83 620.88 407.31 620.39 Z" />
<path fill="#000000" d=" M 855.72 652.72 C 868.12 651.85 880.64 650.66 893.05 652.25 C 909.32 653.05 925.62 652.11 941.89 652.81 C 947.02 653.54 952.21 653.16 957.38 653.40 C 957.41 653.93 957.49 655.01 957.53 655.54 C 956.41 655.82 955.30 656.11 954.20 656.41 C 956.09 662.39 959.09 667.94 960.85 673.98 C 962.05 679.28 967.55 682.08 968.71 687.36 C 965.82 689.29 962.23 688.40 958.99 688.57 C 955.98 688.44 953.02 688.98 950.04 689.31 C 937.02 690.30 923.97 689.40 910.94 689.29 C 901.25 689.59 891.65 687.94 881.96 688.24 C 871.65 687.34 861.31 687.91 850.98 687.58 C 848.35 687.57 845.75 687.14 843.26 686.32 C 843.41 682.87 846.56 680.88 848.24 678.17 C 850.71 674.77 851.56 670.56 853.56 666.91 C 855.44 663.34 857.22 659.72 858.51 655.89 C 856.42 655.75 854.70 655.13 855.72 652.72 Z" />
<path fill="#f5f4f0" d=" M 861.72 655.46 C 878.75 652.78 895.89 655.70 912.98 655.29 C 925.38 655.28 937.79 655.19 950.17 655.95 C 951.19 656.56 951.45 657.83 951.97 658.83 C 954.12 664.35 956.67 669.72 958.35 675.43 C 959.47 679.42 962.43 682.42 964.94 685.58 C 954.59 685.36 944.37 687.46 934.01 687.18 C 927.97 687.36 921.97 686.64 915.94 686.60 C 908.32 686.45 900.66 686.82 893.08 685.84 C 877.75 685.28 862.40 685.20 847.08 684.35 C 849.52 681.34 852.02 678.25 853.36 674.57 C 855.62 667.96 860.05 662.29 861.72 655.46 Z" />
<path fill="#141414" d=" M 675.50 657.08 C 675.42 655.29 678.42 655.22 678.42 657.04 C 678.49 658.86 675.48 658.85 675.50 657.08 Z" />
<path fill="#000000" d=" M 868.42 661.68 C 880.88 659.46 893.55 661.54 905.98 662.95 C 918.93 664.62 932.10 662.67 945.01 664.59 C 944.73 665.69 944.47 666.85 943.38 667.44 C 935.11 665.34 926.42 666.69 917.97 666.24 C 901.48 665.74 885.03 661.98 868.53 664.54 C 868.50 663.82 868.45 662.40 868.42 661.68 Z" />
<path fill="#070706" d=" M 912.02 674.43 C 922.52 673.31 933.20 673.98 943.56 671.67 C 943.37 672.62 944.53 674.62 942.95 674.72 C 931.74 676.54 920.27 675.96 908.99 677.26 C 895.12 677.53 881.23 677.36 867.37 677.74 C 865.80 676.24 867.40 674.59 869.12 674.65 C 883.41 674.22 897.73 674.97 912.02 674.43 Z" />
</svg>
