<?xml version="1.0" encoding="UTF-8" ?>
<!DOCTYPE svg PUBLIC "-//W3C//DTD SVG 1.1//EN" "http://www.w3.org/Graphics/SVG/1.1/DTD/svg11.dtd">
<svg width="1121pt" height="892pt" viewBox="0 0 1121 892" version="1.1" xmlns="http://www.w3.org/2000/svg">
<path fill="#f5f4f0" d=" M 0.00 0.00 L 1121.00 0.00 L 1121.00 892.00 L 0.00 892.00 L 0.00 0.00 Z" />
<path fill="#dd4e0c" d=" M 544.32 34.55 C 551.28 33.20 558.35 32.46 565.34 31.26 C 565.50 32.33 565.65 33.40 565.81 34.47 C 562.71 35.18 559.57 35.71 556.44 36.25 C 556.88 46.17 555.72 56.17 557.27 66.03 C 557.36 68.34 557.92 70.77 557.14 73.00 C 554.43 75.64 550.15 75.37 546.67 75.09 C 543.05 74.48 542.15 70.38 541.18 67.47 C 542.28 67.30 543.39 67.27 544.50 67.39 C 545.35 68.70 546.04 70.12 546.78 71.51 C 549.07 71.37 551.55 71.88 553.71 71.00 C 553.97 65.31 552.67 59.70 552.78 54.03 C 552.81 48.37 552.74 42.72 552.68 37.07 C 549.88 37.35 547.08 37.64 544.27 37.80 C 544.28 36.72 544.29 35.63 544.32 34.55 Z" />
<path fill="#dd4e0c" d=" M 572.80 33.93 C 573.17 30.54 577.56 31.74 579.94 31.45 C 585.77 31.04 590.09 36.29 591.29 41.52 C 591.97 44.95 592.46 49.06 590.05 51.96 C 586.76 56.01 581.23 56.98 576.35 57.60 C 576.33 56.85 576.28 55.35 576.26 54.60 C 580.54 53.24 586.40 52.95 588.34 48.11 C 588.87 44.17 587.64 39.90 584.98 36.94 C 582.86 34.48 579.34 35.41 576.51 35.31 C 576.43 46.55 575.38 57.76 575.33 69.00 C 575.44 70.65 574.89 72.21 574.39 73.75 C 573.70 73.36 572.31 72.59 571.62 72.21 C 572.72 59.48 572.47 46.69 572.80 33.93 Z" />
<path fill="#dd4e0c" d=" M 629.65 35.49 C 632.31 31.06 638.41 30.58 642.90 31.96 C 647.65 33.78 648.42 39.62 648.04 44.03 C 647.05 48.99 642.24 51.59 639.00 54.98 C 634.33 59.38 633.17 65.94 631.33 71.78 C 630.57 71.45 629.06 70.77 628.30 70.43 C 629.50 65.35 630.86 60.18 633.77 55.77 C 636.71 51.28 641.70 48.71 644.69 44.25 C 644.33 41.54 645.01 38.26 642.91 36.11 C 640.45 33.96 636.60 34.43 633.94 35.94 C 630.85 38.47 632.85 42.83 633.09 46.15 C 632.85 48.00 631.05 47.50 629.74 47.56 C 628.82 43.67 627.61 39.24 629.65 35.49 Z" />
<path fill="#dd4e0c" d=" M 604.31 41.36 C 606.72 37.26 611.07 34.54 615.81 34.13 C 615.78 35.25 615.71 36.37 615.62 37.49 C 613.25 38.80 610.30 39.30 608.60 41.58 C 602.84 48.56 599.61 58.64 602.76 67.40 C 606.61 68.43 609.63 66.11 611.68 63.09 C 610.82 61.60 609.97 60.11 609.13 58.62 C 611.51 56.75 614.63 57.57 617.42 57.56 C 617.49 58.48 617.57 59.41 617.66 60.34 C 616.97 60.56 615.59 61.02 614.90 61.25 C 615.22 66.46 610.64 70.11 606.09 71.48 C 603.16 70.74 599.37 69.98 598.60 66.51 C 597.24 57.81 599.00 48.51 604.31 41.36 Z" />
<path fill="#0f37fe" d=" M 465.38 49.77 C 465.97 49.50 467.15 48.96 467.73 48.68 C 473.88 49.45 479.52 52.20 484.89 55.14 C 487.04 56.53 490.13 58.09 489.52 61.15 C 484.86 68.23 476.45 71.07 469.69 75.63 C 465.60 72.50 467.25 66.64 466.78 62.19 C 455.19 61.32 443.56 61.78 431.96 61.62 C 423.60 61.45 415.33 62.88 407.04 63.56 C 396.60 63.45 386.36 65.74 375.99 66.48 C 364.81 67.19 353.95 70.36 342.77 70.90 C 335.94 71.60 329.38 73.57 322.83 75.53 C 315.70 77.05 308.95 79.84 301.96 81.84 C 288.09 86.00 274.96 92.22 261.42 97.27 C 254.69 99.72 248.17 102.70 241.48 105.26 C 232.61 108.70 224.35 113.45 216.05 118.05 C 211.69 120.56 207.37 123.73 202.16 124.00 C 202.26 123.45 202.47 122.34 202.57 121.79 C 215.50 117.96 226.77 110.28 239.14 105.11 C 240.80 104.45 242.46 103.79 244.12 103.12 C 250.78 100.45 257.37 97.59 264.13 95.16 C 265.79 94.48 267.47 93.82 269.15 93.18 C 271.07 92.38 273.00 91.60 274.92 90.79 C 277.98 89.56 281.05 88.34 284.14 87.19 C 289.94 84.72 295.87 82.59 301.91 80.78 C 309.95 78.23 317.93 75.48 326.16 73.55 C 336.73 69.63 348.13 69.95 359.05 67.71 C 364.73 67.18 370.27 65.57 375.99 65.40 C 383.07 65.21 389.91 63.03 396.95 62.45 C 405.30 62.08 413.63 61.30 421.99 61.19 C 436.86 59.41 451.84 59.68 466.79 59.34 C 466.90 56.08 466.72 52.79 465.38 49.77 Z" />
<path fill="#0f37fe" d=" M 680.98 68.05 C 687.70 64.41 695.59 64.52 703.03 64.38 C 716.35 64.32 729.67 64.28 742.99 64.37 C 763.02 65.38 782.87 68.48 802.88 69.80 C 810.18 71.32 817.66 71.50 824.93 73.17 C 842.23 76.10 859.46 79.69 876.95 81.22 C 884.98 82.38 892.93 84.08 900.86 85.84 C 909.58 87.51 917.89 90.75 926.26 93.65 C 926.95 90.56 927.53 87.44 927.82 84.28 C 929.20 84.41 930.59 84.47 932.00 84.46 C 936.21 90.07 943.38 93.14 946.16 99.95 C 947.56 102.00 944.82 103.45 943.34 104.26 C 937.86 106.50 932.12 108.81 926.11 108.73 C 922.73 105.31 925.24 100.06 925.63 95.97 C 911.30 90.11 896.28 86.29 881.22 82.87 C 874.63 81.71 867.94 81.52 861.35 80.43 C 846.55 78.02 831.76 75.49 817.01 72.75 C 811.27 72.48 805.69 71.04 799.99 70.55 C 781.96 69.31 764.06 66.59 746.02 65.53 C 729.68 65.18 713.33 65.33 696.99 65.58 C 690.54 65.60 684.60 68.18 678.93 70.96 C 679.39 69.83 679.62 68.47 680.98 68.05 Z" />
<path fill="#030303" d=" M 982.85 81.97 C 982.90 79.36 983.71 75.04 987.29 76.65 C 987.27 77.43 987.22 78.99 987.20 79.78 C 987.91 79.54 989.32 79.08 990.02 78.85 L 988.62 78.08 C 1008.42 78.31 1028.25 78.31 1047.98 80.28 C 1058.65 80.59 1069.36 80.64 1080.00 79.74 C 1087.14 79.84 1094.30 78.47 1101.40 79.60 C 1101.92 85.06 1101.31 90.58 1102.42 95.99 C 1102.95 105.24 1102.88 114.60 1101.59 123.79 C 1099.97 133.11 1100.61 142.61 1099.82 152.01 C 1098.62 168.63 1100.24 185.33 1098.59 201.93 C 1097.73 221.01 1098.62 240.12 1098.38 259.21 L 1098.38 260.14 C 1098.02 260.68 1097.32 261.76 1096.96 262.30 C 1094.71 263.09 1092.41 263.72 1090.08 264.18 C 1081.39 264.18 1072.72 264.65 1064.04 264.52 C 1056.68 264.36 1049.37 265.33 1042.03 265.49 C 1033.37 266.00 1024.70 265.63 1016.03 265.81 C 1005.28 266.39 994.49 267.29 983.73 266.39 C 982.70 265.74 981.65 265.15 980.75 264.36 C 980.45 257.25 981.01 250.08 980.00 243.00 C 979.28 238.38 979.44 233.70 979.28 229.05 C 977.54 208.01 979.34 186.92 980.44 165.90 C 980.65 148.93 981.65 132.00 981.79 115.03 C 982.68 104.03 982.71 93.00 982.85 81.97 Z" />
<path fill="#dd4e0c" d=" M 626.30 79.33 C 627.41 79.35 628.52 79.37 629.63 79.41 C 629.58 80.43 629.53 81.45 629.49 82.48 C 628.47 82.52 627.45 82.55 626.44 82.58 C 626.39 81.50 626.34 80.41 626.30 79.33 Z" />
<path fill="#7a7a78" d=" M 985.75 80.61 C 986.07 80.55 986.69 80.42 987.01 80.36 C 986.78 90.61 986.31 100.85 985.62 111.07 C 984.61 138.73 984.12 166.42 982.25 194.03 C 982.01 205.69 981.82 217.37 982.63 229.02 C 983.06 240.18 984.72 251.27 984.57 262.45 C 997.02 263.72 1009.49 261.90 1021.97 262.37 C 1040.76 262.98 1059.50 260.13 1078.29 261.22 C 1071.26 262.41 1064.13 261.18 1057.07 261.92 C 1041.41 263.05 1025.71 262.62 1010.03 262.98 C 1001.29 263.43 992.36 264.85 983.74 262.66 C 983.99 254.44 983.44 246.23 982.33 238.08 C 981.00 217.73 980.99 197.29 982.52 176.95 C 983.84 162.33 983.38 147.64 984.25 133.00 C 984.54 116.99 985.72 101.02 986.32 85.03 C 986.18 83.93 985.90 81.72 985.75 80.61 Z" />
<path fill="#f5f4f0" d=" M 987.01 80.36 C 988.72 80.40 990.20 81.67 991.96 81.60 C 1007.19 81.42 1022.43 81.43 1037.62 82.61 C 1057.77 84.78 1078.08 83.28 1098.27 82.53 C 1098.26 86.38 1098.12 90.25 1098.68 94.07 C 1100.82 108.01 1098.32 122.05 1097.60 135.99 C 1097.72 145.02 1096.65 153.99 1096.52 163.01 C 1096.14 173.66 1096.56 184.33 1096.21 194.99 C 1094.23 216.33 1096.10 237.81 1094.62 259.17 C 1093.96 259.45 1092.63 260.02 1091.96 260.30 C 1087.39 260.50 1082.84 260.98 1078.29 261.22 C 1059.50 260.13 1040.76 262.98 1021.97 262.37 C 1009.49 261.90 997.02 263.72 984.57 262.45 C 984.72 251.27 983.06 240.18 982.63 229.02 C 981.82 217.37 982.01 205.69 982.25 194.03 C 984.12 166.42 984.61 138.73 985.62 111.07 C 986.31 100.85 986.78 90.61 987.01 80.36 Z" />
<path fill="#030303" d=" M 53.63 89.79 C 56.01 88.12 59.15 87.96 61.96 87.61 C 82.63 87.38 103.31 87.52 123.98 87.51 C 135.30 87.47 146.65 87.72 157.96 86.89 C 162.08 86.90 166.20 85.98 170.31 86.66 C 171.32 94.35 170.36 102.14 171.06 109.85 C 171.22 122.90 171.65 135.95 171.66 149.00 C 171.60 153.49 172.47 157.93 172.43 162.43 C 172.13 162.82 171.53 163.60 171.22 164.00 C 171.25 164.83 171.31 166.51 171.35 167.35 C 167.58 167.53 163.79 167.43 160.07 168.14 C 152.40 169.45 144.60 169.46 136.84 169.71 C 125.25 170.60 113.65 171.27 102.03 171.59 C 88.38 173.00 74.64 172.35 60.95 172.56 C 58.97 172.27 56.23 173.05 55.01 171.02 C 53.92 169.60 54.51 167.66 54.36 166.02 C 54.55 162.31 53.64 158.65 53.73 154.95 C 53.87 133.23 53.66 111.50 53.63 89.79 Z" />
<path fill="#f5f4f0" d=" M 154.97 90.42 C 159.08 90.44 163.25 90.64 167.29 89.72 C 167.49 100.09 167.56 110.47 167.78 120.84 C 168.78 135.25 168.01 149.70 168.75 164.12 C 165.84 164.19 162.92 164.22 160.04 164.70 C 151.11 166.49 141.97 166.39 132.91 166.77 C 117.97 168.26 102.92 168.15 87.94 169.22 C 77.90 169.00 67.81 169.66 57.81 168.60 C 58.03 164.04 57.35 159.52 57.23 154.98 C 57.16 133.92 57.17 112.86 57.43 91.80 C 64.58 90.90 71.80 91.61 78.96 90.82 C 104.29 90.41 129.64 90.97 154.97 90.42 Z" />
<path fill="#030303" d=" M 998.29 97.59 C 998.63 93.38 1002.95 94.35 1005.95 94.16 C 1021.07 93.70 1036.09 95.84 1051.08 97.58 C 1061.85 99.04 1072.76 98.06 1083.60 98.30 C 1083.57 99.34 1083.54 100.39 1083.52 101.44 C 1072.00 101.66 1060.41 101.94 1048.97 100.47 C 1033.67 98.80 1018.30 96.79 1002.89 97.77 C 1001.35 97.87 999.80 97.76 998.29 97.59 Z" />
<path fill="#dd4e0c" d=" M 67.39 105.67 C 72.80 105.34 78.23 105.39 83.66 105.35 C 83.68 106.37 83.70 107.39 83.72 108.41 C 82.06 108.73 80.38 109.02 78.70 109.27 C 77.82 121.90 81.49 134.32 80.52 146.94 C 80.05 151.30 74.50 151.83 71.10 151.06 C 67.37 150.17 67.78 145.62 67.43 142.66 C 68.51 142.50 69.61 142.36 70.70 142.22 C 71.04 144.01 71.36 145.80 71.68 147.60 C 73.32 147.60 74.96 147.60 76.60 147.60 C 78.23 141.15 76.83 134.48 76.08 128.01 C 75.11 121.78 75.22 115.46 75.22 109.17 C 72.60 109.24 69.98 109.37 67.37 109.51 C 67.46 108.23 67.47 106.95 67.39 105.67 Z" />
<path fill="#dd4e0c" d=" M 95.49 106.51 C 100.70 106.48 106.74 105.20 111.00 109.07 C 116.36 113.25 118.80 123.20 112.53 127.64 C 108.39 130.67 103.12 131.38 98.22 132.36 C 98.16 137.96 98.47 143.57 98.15 149.16 C 97.95 151.19 96.05 151.62 94.38 151.85 C 94.99 141.58 94.66 131.30 94.70 121.02 C 94.76 116.18 94.23 111.25 95.49 106.51 Z" />
<path fill="#dd4e0c" d=" M 121.95 119.89 C 123.34 115.26 124.57 109.58 129.05 106.97 C 134.52 104.26 139.59 113.65 133.70 116.03 C 132.52 114.43 132.34 112.47 132.14 110.56 C 131.34 110.50 130.53 110.44 129.72 110.39 C 125.94 116.21 124.38 123.13 123.61 129.95 C 123.29 135.42 122.15 140.96 123.57 146.38 C 125.37 147.08 127.31 148.29 129.29 147.45 C 131.06 145.66 131.25 143.03 131.78 140.70 C 131.15 140.26 129.89 139.38 129.26 138.94 C 130.17 136.60 132.43 136.31 134.64 136.46 C 134.86 140.79 135.49 145.85 132.29 149.31 C 128.57 153.74 120.39 150.55 119.77 145.05 C 119.13 136.63 120.09 128.11 121.95 119.89 Z" />
<path fill="#dd4e0c" d=" M 145.34 110.37 C 148.28 107.54 153.54 106.45 156.88 109.19 C 160.06 111.78 161.99 115.88 161.58 120.02 C 161.76 124.46 157.52 127.01 154.62 129.64 C 150.21 133.28 149.65 139.38 148.42 144.58 C 147.40 144.53 146.39 144.48 145.38 144.44 C 145.46 139.28 146.93 134.09 149.71 129.74 C 151.89 126.28 156.38 124.84 157.99 120.99 C 158.80 117.51 157.10 113.64 154.24 111.56 C 151.39 110.66 147.72 111.71 146.68 114.74 C 146.26 117.30 146.49 119.92 146.41 122.51 C 145.09 122.37 143.10 123.20 142.76 121.32 C 142.49 117.59 142.34 113.13 145.34 110.37 Z" />
<path fill="#f5f4f0" d=" M 98.57 110.40 C 100.99 109.90 103.58 109.19 105.96 110.29 C 111.09 111.93 113.90 118.05 112.21 123.06 C 108.94 127.33 103.11 127.70 98.28 128.92 C 98.35 122.75 98.19 116.57 98.57 110.40 Z" />
<path fill="#030303" d=" M 1004.35 115.73 C 1012.47 114.14 1020.76 114.91 1028.98 114.79 C 1037.00 114.63 1044.99 115.49 1053.02 115.64 C 1060.04 115.67 1066.98 116.87 1073.96 117.49 C 1078.25 117.90 1082.62 117.43 1086.87 118.41 C 1086.69 119.40 1086.53 120.40 1086.37 121.40 C 1079.28 121.59 1072.26 120.42 1065.25 119.62 C 1048.21 117.89 1031.05 118.25 1013.95 118.43 C 1010.85 118.39 1007.81 118.95 1004.77 119.39 C 1004.29 118.22 1004.34 116.96 1004.35 115.73 Z" />
<path fill="#7e7d7b" d=" M 1099.82 152.01 C 1100.61 142.61 1099.97 133.11 1101.59 123.79 C 1101.24 137.55 1100.50 151.29 1099.82 165.04 C 1099.43 177.69 1100.04 190.36 1099.26 203.00 C 1097.78 221.71 1099.38 240.50 1098.38 259.21 C 1098.62 240.12 1097.73 221.01 1098.59 201.93 C 1100.24 185.33 1098.62 168.63 1099.82 152.01 Z" />
<path fill="#030303" d=" M 1028.03 135.79 C 1039.66 135.00 1051.34 135.17 1062.99 135.27 C 1070.05 135.43 1077.06 136.46 1084.13 136.42 C 1086.33 136.19 1088.35 138.12 1087.31 140.38 C 1084.60 140.57 1082.03 139.37 1079.33 139.39 C 1059.65 136.77 1039.75 137.96 1020.05 139.57 C 1015.86 139.66 1011.57 140.36 1007.46 139.35 C 1007.21 138.69 1006.70 137.37 1006.44 136.71 C 1013.61 135.94 1020.87 136.95 1028.03 135.79 Z" />
<path fill="#858482" d=" M 1006.04 139.31 C 1006.14 138.66 1006.34 137.36 1006.44 136.71 C 1006.70 137.37 1007.21 138.69 1007.46 139.35 C 1011.57 140.36 1015.86 139.66 1020.05 139.57 C 1039.75 137.96 1059.65 136.77 1079.33 139.39 C 1072.52 139.93 1065.77 138.44 1058.97 138.69 C 1050.66 138.92 1042.33 138.29 1034.05 139.15 C 1026.05 139.87 1018.04 140.52 1010.01 140.53 C 1008.54 140.66 1007.26 139.99 1006.04 139.31 Z" />
<path fill="#dd4e0c" d=" M 144.59 152.30 C 145.54 151.90 146.52 151.59 147.49 151.23 C 147.45 152.61 147.51 154.00 147.68 155.39 C 146.63 155.33 145.58 155.27 144.53 155.21 C 144.51 154.24 144.53 153.27 144.59 152.30 Z" />
<path fill="#030303" d=" M 1000.38 158.39 C 1000.37 157.14 1000.40 155.89 1000.47 154.64 C 1017.65 155.58 1034.86 155.17 1052.05 155.32 C 1061.96 155.55 1071.91 154.84 1081.80 155.61 C 1081.72 156.82 1081.66 158.04 1081.45 159.24 C 1076.06 157.96 1070.49 158.58 1065.02 158.42 C 1043.47 158.21 1021.92 158.83 1000.38 158.39 Z" />
<path fill="#030303" d=" M 1034.97 173.59 C 1052.33 171.48 1069.88 172.34 1087.33 172.43 C 1087.65 173.21 1088.29 174.76 1088.61 175.53 C 1076.42 175.67 1064.19 174.84 1051.99 175.44 C 1042.25 175.46 1032.69 177.86 1022.95 177.66 C 1016.09 177.54 1009.09 178.10 1002.44 176.12 C 1002.52 174.94 1002.59 173.75 1002.76 172.58 C 1013.34 174.70 1024.26 174.88 1034.97 173.59 Z" />
<path fill="#030303" d=" M 143.07 179.32 C 150.95 178.45 158.74 175.79 166.71 176.33 C 172.38 183.81 174.35 193.15 178.52 201.41 C 179.87 204.63 182.25 207.61 181.87 211.31 C 168.78 214.68 155.36 216.81 141.81 216.81 L 141.14 217.20 C 130.45 217.43 119.75 217.64 109.06 217.77 C 88.63 219.42 68.13 217.80 47.67 218.36 C 46.79 217.93 45.90 217.51 45.01 217.09 C 45.23 215.16 45.39 213.16 46.37 211.43 C 50.59 202.79 54.39 193.95 58.93 185.47 C 59.90 185.42 60.86 185.39 61.82 185.36 C 61.98 188.46 59.78 190.81 58.59 193.49 C 55.32 200.51 52.06 207.55 48.90 214.63 C 56.61 214.85 64.33 214.63 72.04 214.88 C 90.98 216.36 109.95 214.15 128.91 214.34 C 137.95 213.47 147.06 213.81 156.07 212.59 C 163.50 212.51 170.47 209.52 177.84 208.97 C 175.78 203.41 172.67 198.30 170.97 192.60 C 169.54 187.93 167.03 183.71 164.65 179.49 C 155.78 180.63 146.99 182.36 138.08 183.18 C 119.04 183.76 99.99 183.14 80.95 183.32 C 73.12 183.33 65.29 184.34 57.47 183.50 C 57.40 182.41 57.33 181.32 57.28 180.23 C 61.18 180.21 65.07 180.52 68.97 180.36 C 80.95 179.38 93.03 179.57 105.02 180.24 C 117.71 180.35 130.42 180.38 143.07 179.32 Z" />
<path fill="#13b824" d=" M 916.20 181.30 C 925.48 181.22 934.77 181.52 944.01 180.43 C 946.54 179.78 948.58 181.20 950.26 182.92 C 950.61 191.29 950.31 199.67 950.10 208.03 C 949.54 212.16 950.06 216.91 947.25 220.34 C 938.74 222.71 929.88 224.51 921.00 224.30 C 918.96 224.28 915.91 223.68 915.82 221.13 C 915.47 213.76 915.74 206.38 915.61 199.01 C 915.73 193.11 915.16 187.15 916.20 181.30 Z" />
<path fill="#042dff" d=" M 975.08 184.07 C 976.13 182.85 977.72 183.49 979.09 183.52 C 976.26 188.31 970.38 189.61 966.57 193.40 C 967.13 195.97 967.82 198.64 967.42 201.28 C 964.01 205.05 958.66 201.93 954.39 202.34 C 954.37 200.63 954.72 198.94 955.61 197.45 C 957.80 193.49 959.44 189.07 962.89 185.97 C 963.48 186.14 964.65 186.48 965.24 186.65 C 965.69 188.07 966.15 189.49 966.63 190.91 C 969.35 188.52 972.15 186.21 975.08 184.07 Z" />
<path fill="#030303" d=" M 68.33 193.33 C 68.40 192.07 68.38 190.81 68.29 189.56 C 91.19 189.67 114.10 189.79 137.00 189.72 C 143.86 189.37 150.74 188.88 157.60 189.39 C 157.62 190.77 156.88 192.99 155.07 192.46 C 148.38 192.33 141.70 192.53 135.04 193.16 C 112.80 193.15 90.56 193.23 68.33 193.33 Z" />
<path fill="#040404" d=" M 1057.44 193.36 C 1066.47 192.32 1075.57 192.47 1084.65 192.31 C 1084.74 193.11 1084.91 194.72 1085.00 195.53 C 1077.00 195.15 1068.99 195.25 1061.01 195.73 C 1052.59 195.95 1044.13 197.02 1035.74 195.77 C 1035.61 195.99 1035.34 196.43 1035.21 196.66 L 1033.86 196.76 C 1023.87 195.87 1013.91 197.45 1003.95 197.89 C 1001.95 198.21 1002.56 195.76 1002.38 194.63 C 1018.57 193.60 1034.80 193.63 1051.02 193.80 C 1053.16 193.76 1055.30 193.57 1057.44 193.36 Z" />
<path fill="#5f5e5d" d=" M 1002.38 194.63 C 1006.46 193.36 1010.77 193.73 1014.97 193.29 C 1023.64 192.53 1032.34 192.91 1041.03 193.14 C 1046.50 193.37 1052.01 192.32 1057.44 193.36 C 1055.30 193.57 1053.16 193.76 1051.02 193.80 C 1034.80 193.63 1018.57 193.60 1002.38 194.63 Z" />
<path fill="#777775" d=" M 1035.74 195.77 C 1044.13 197.02 1052.59 195.95 1061.01 195.73 C 1068.99 195.25 1077.00 195.15 1085.00 195.53 C 1081.01 196.27 1076.95 195.60 1072.94 195.82 C 1064.31 196.29 1055.66 196.86 1047.02 196.59 C 1043.18 196.43 1039.34 196.73 1035.55 197.29 C 1035.47 197.13 1035.30 196.82 1035.21 196.66 C 1035.34 196.43 1035.61 195.99 1035.74 195.77 Z" />
<path fill="#030303" d=" M 81.94 202.32 C 108.65 201.93 135.64 203.76 162.05 198.90 C 162.76 199.09 164.17 199.47 164.88 199.66 C 164.62 200.24 164.10 201.41 163.84 202.00 C 153.49 204.70 142.65 204.35 132.04 205.33 C 116.34 205.79 100.63 205.41 84.93 205.74 C 82.06 205.85 79.25 206.55 76.40 206.87 C 76.32 205.78 76.24 204.70 76.18 203.62 C 78.05 203.00 79.94 202.31 81.94 202.32 Z" />
<path fill="#030303" d=" M 1057.30 214.19 C 1066.36 212.92 1075.52 212.41 1084.67 212.72 C 1084.59 213.94 1084.59 215.17 1084.67 216.40 C 1067.73 214.98 1050.97 218.56 1034.08 218.79 C 1022.52 219.34 1010.93 219.87 999.61 222.48 C 999.35 221.82 998.83 220.49 998.57 219.82 C 999.31 218.27 1001.05 218.35 1002.51 218.16 C 1009.04 217.78 1015.48 216.53 1022.02 216.32 C 1033.79 215.98 1045.62 215.88 1057.30 214.19 Z" />
<path fill="#787876" d=" M 1002.51 218.16 C 1015.75 214.78 1029.62 215.86 1043.15 214.90 C 1047.86 214.53 1052.57 214.04 1057.30 214.19 C 1045.62 215.88 1033.79 215.98 1022.02 216.32 C 1015.48 216.53 1009.04 217.78 1002.51 218.16 Z" />
<path fill="#13b824" d=" M 824.04 226.07 C 824.40 223.96 823.87 221.26 825.78 219.76 C 834.84 220.99 844.05 219.85 853.13 220.95 C 855.12 221.18 857.02 221.90 858.81 222.83 C 858.81 232.21 858.78 241.60 858.80 250.98 C 858.78 256.08 858.54 261.44 856.26 266.10 C 854.86 268.38 852.18 267.19 850.12 266.88 C 843.81 265.80 837.39 265.76 831.03 265.37 C 828.32 265.18 825.40 264.78 823.57 262.58 C 824.06 250.42 823.44 238.23 824.04 226.07 Z" />
<path fill="#34c142" d=" M 927.50 220.30 C 928.59 219.46 930.40 219.41 931.52 220.24 C 931.32 221.68 927.66 221.76 927.50 220.30 Z" />
<path fill="#052eff" d=" M 894.47 225.60 C 895.08 225.56 896.30 225.47 896.91 225.43 C 892.44 233.02 885.13 238.73 877.47 242.88 C 878.24 246.72 878.36 250.66 877.32 254.47 C 872.79 254.77 868.34 252.86 865.01 249.89 C 863.28 248.00 865.51 246.02 866.58 244.49 C 868.95 241.65 869.89 237.01 874.10 236.31 C 874.65 237.78 875.22 239.24 875.79 240.72 C 883.10 237.21 888.48 230.88 894.47 225.60 Z" />
<path fill="#50c85b" d=" M 832.16 227.26 C 835.49 227.34 830.65 230.25 832.16 227.26 Z" />
<path fill="#030303" d=" M 1066.20 234.20 C 1072.53 233.58 1078.29 230.68 1084.49 229.49 C 1084.57 230.69 1084.65 231.89 1084.71 233.09 C 1078.77 234.18 1073.19 236.77 1067.14 237.33 C 1051.38 238.67 1035.68 240.56 1019.94 242.12 C 1015.21 242.48 1010.38 242.10 1005.78 243.46 C 1005.42 242.76 1004.70 241.37 1004.34 240.67 C 1009.26 237.52 1015.38 239.13 1020.88 238.50 C 1036.00 237.28 1051.09 235.60 1066.20 234.20 Z" />
<path fill="#030303" d=" M 584.93 251.53 C 594.25 250.41 603.62 250.43 612.99 250.25 C 623.96 249.18 635.02 249.03 646.03 249.60 C 648.31 249.71 650.41 250.75 652.40 251.79 C 652.17 265.05 656.01 277.95 656.65 291.15 C 657.70 299.23 659.57 307.23 659.59 315.41 C 658.51 315.43 657.43 315.44 656.37 315.48 C 656.24 305.96 653.64 296.73 653.08 287.26 C 651.76 276.04 649.43 264.95 648.65 253.66 C 633.80 251.38 618.86 253.76 603.96 253.63 C 592.59 253.50 581.34 255.63 569.98 255.73 C 561.97 255.90 553.95 255.61 545.95 255.95 C 536.67 256.75 527.34 256.15 518.05 256.63 C 511.80 257.33 505.71 258.99 499.60 260.43 C 499.17 264.95 499.74 269.75 497.72 273.96 C 497.13 298.62 497.87 323.30 497.78 347.97 C 498.60 358.21 498.09 368.50 498.74 378.75 C 507.17 378.59 515.57 377.41 524.02 377.79 C 540.18 378.09 556.39 378.80 572.53 377.59 C 581.63 376.74 590.81 376.32 599.84 374.88 C 607.64 373.82 615.42 372.49 623.31 372.34 C 634.75 370.92 646.28 371.41 657.78 371.28 C 658.43 353.30 656.67 335.38 656.46 317.42 C 657.26 317.44 658.87 317.48 659.67 317.50 C 660.34 327.00 660.22 336.53 660.84 346.04 C 661.88 353.65 661.52 361.34 661.62 368.99 C 661.74 370.97 661.21 372.88 660.26 374.61 C 649.19 374.86 638.06 374.00 627.03 375.35 C 620.64 375.66 614.25 375.91 607.91 376.86 C 594.04 379.26 579.97 380.12 565.95 381.20 C 547.94 381.49 529.92 381.22 511.91 381.51 C 506.83 381.55 501.82 383.03 496.72 382.29 C 495.54 379.69 494.89 376.87 494.85 374.01 C 494.63 350.34 494.80 326.67 494.28 303.00 C 494.14 292.69 494.55 282.36 493.73 272.07 C 493.40 270.19 493.93 268.28 495.46 267.06 C 495.75 264.21 495.64 261.28 496.65 258.55 C 498.26 256.42 501.26 256.53 503.62 255.89 C 508.75 255.09 513.75 253.32 518.98 253.28 C 526.97 253.05 534.97 253.57 542.94 252.81 C 556.94 252.42 571.00 253.25 584.93 251.53 Z" />
<path fill="#f5f4f0" d=" M 603.96 253.63 C 618.86 253.76 633.80 251.38 648.65 253.66 C 649.43 264.95 651.76 276.04 653.08 287.26 C 653.64 296.73 656.24 305.96 656.37 315.48 C 649.71 315.42 643.42 317.79 636.93 318.87 C 636.80 317.36 636.68 315.85 636.56 314.34 C 635.74 313.63 634.94 312.92 634.13 312.22 C 630.07 315.07 625.44 316.86 621.06 319.10 C 620.71 320.42 620.46 321.77 620.31 323.14 C 625.03 324.76 629.79 326.28 634.58 327.69 C 635.50 325.68 636.38 323.65 637.23 321.60 C 643.51 319.71 649.76 317.07 656.46 317.42 C 656.67 335.38 658.43 353.30 657.78 371.28 C 646.28 371.41 634.75 370.92 623.31 372.34 C 615.42 372.49 607.64 373.82 599.84 374.88 C 601.60 374.37 603.35 373.77 605.14 373.31 C 608.33 373.28 611.51 373.02 614.69 372.63 C 614.53 360.47 614.76 348.30 614.34 336.15 C 613.79 335.71 612.70 334.83 612.15 334.39 C 604.31 335.37 596.36 335.07 588.57 336.45 C 588.51 337.16 588.39 338.59 588.34 339.31 C 588.20 338.51 587.92 336.92 587.78 336.12 C 587.03 336.10 585.54 336.07 584.80 336.05 C 585.29 335.89 586.27 335.58 586.76 335.42 C 586.69 330.37 586.75 325.32 586.60 320.27 C 585.92 319.65 585.25 319.03 584.58 318.42 C 578.70 318.27 572.83 318.72 566.97 319.17 C 559.16 319.22 551.32 319.45 543.53 318.81 C 542.80 317.28 541.95 315.81 541.14 314.34 C 541.74 306.50 541.85 298.63 542.58 290.80 C 531.66 290.95 520.72 290.41 509.82 291.15 C 508.31 291.26 506.81 291.36 505.31 291.46 C 504.99 300.21 504.24 308.93 503.55 317.65 C 505.08 317.48 506.62 317.29 508.16 317.09 C 506.20 317.63 504.23 318.13 502.27 318.64 C 502.58 319.52 502.88 320.41 503.18 321.31 C 503.86 328.78 502.70 336.21 501.57 343.57 C 502.07 343.37 503.06 342.98 503.56 342.78 C 503.23 343.56 502.93 344.36 502.66 345.18 C 501.41 348.63 501.74 352.35 501.73 355.96 C 501.87 362.22 501.32 368.54 502.45 374.75 C 503.11 375.31 503.78 375.88 504.45 376.46 C 513.52 376.50 522.60 376.62 531.68 376.53 C 545.27 377.73 558.99 375.56 572.53 377.59 C 556.39 378.80 540.18 378.09 524.02 377.79 C 515.57 377.41 507.17 378.59 498.74 378.75 C 498.09 368.50 498.60 358.21 497.78 347.97 C 497.87 323.30 497.13 298.62 497.72 273.96 C 499.74 269.75 499.17 264.95 499.60 260.43 C 505.71 258.99 511.80 257.33 518.05 256.63 C 527.34 256.15 536.67 256.75 545.95 255.95 C 553.95 255.61 561.97 255.90 569.98 255.73 C 581.34 255.63 592.59 253.50 603.96 253.63 Z" />
<path fill="#49c655" d=" M 827.07 257.54 C 828.49 257.36 828.49 259.84 827.61 260.51 C 826.16 260.67 826.15 258.19 827.07 257.54 Z" />
<path fill="#39c246" d=" M 842.59 259.15 C 843.73 258.19 844.39 258.42 844.56 259.84 C 843.39 260.79 842.74 260.56 842.59 259.15 Z" />
<path fill="#34c142" d=" M 848.56 263.16 C 849.72 262.31 852.97 262.37 852.96 264.19 C 851.68 264.78 849.05 264.52 848.56 263.16 Z" />
<path fill="#09b61b" d=" M 505.37 264.63 C 518.86 261.37 532.31 266.17 545.68 267.62 C 545.39 274.29 543.49 280.75 542.69 287.38 C 530.23 287.50 517.74 287.01 505.29 287.64 C 505.50 279.97 504.75 272.25 505.37 264.63 Z" />
<path fill="#0f37fe" d=" M 808.06 265.07 C 808.94 264.56 809.90 264.21 810.94 264.02 C 810.48 265.42 810.32 267.06 809.09 268.04 C 805.11 271.88 800.09 274.38 795.92 277.96 C 790.78 282.84 784.33 285.99 778.13 289.29 C 778.75 291.96 781.62 296.32 778.00 297.89 C 773.77 298.73 769.35 298.71 765.06 298.36 C 762.51 298.44 762.04 295.79 761.21 294.02 C 763.33 290.32 766.83 287.80 769.64 284.68 C 770.56 283.57 771.81 282.85 773.05 282.13 C 773.61 283.30 774.17 284.48 774.74 285.66 C 778.03 286.02 780.83 284.05 783.55 282.52 C 792.09 277.24 800.22 271.33 808.06 265.07 Z" />
<path fill="#040404" d=" M 737.42 271.56 C 743.14 270.08 750.90 271.83 752.95 278.04 C 753.55 282.25 753.20 286.97 750.59 290.51 C 750.66 291.95 750.62 293.38 750.76 294.81 C 754.91 299.12 760.81 301.52 764.21 306.59 C 766.74 310.43 771.04 312.39 774.70 314.95 C 774.58 315.90 774.46 316.85 774.35 317.81 C 771.40 316.40 768.89 314.28 766.05 312.71 C 768.42 317.49 771.02 322.29 774.84 326.09 C 777.28 328.75 780.29 331.24 781.34 334.83 C 781.81 336.40 780.36 337.44 779.57 338.55 C 776.54 341.88 773.54 345.24 770.37 348.44 C 766.07 352.81 762.50 357.81 758.21 362.19 C 755.07 365.35 752.46 369.23 748.31 371.19 C 747.40 377.59 747.82 384.06 747.63 390.51 L 748.32 390.58 C 748.56 395.76 748.66 400.95 748.81 406.14 C 749.61 414.08 749.62 422.08 749.84 430.06 C 750.43 435.89 751.19 441.82 750.60 447.67 C 750.19 448.02 749.36 448.72 748.95 449.07 C 752.99 452.31 753.99 457.84 757.21 461.79 C 761.09 468.88 764.78 476.08 768.85 483.08 C 770.83 486.00 771.43 490.10 769.14 493.03 C 762.91 502.27 759.26 513.02 757.52 523.97 C 762.22 522.28 766.25 519.19 769.57 515.50 C 771.26 513.82 772.49 511.46 774.98 510.85 C 774.77 512.13 774.45 513.43 773.25 514.13 C 768.35 518.24 764.28 523.48 758.44 526.34 C 756.79 527.16 754.51 526.05 754.71 524.08 C 755.74 511.71 762.55 501.06 767.46 489.97 C 768.42 487.89 766.87 485.93 766.07 484.11 C 762.80 477.88 759.61 471.61 757.14 465.02 C 754.89 459.43 749.47 455.35 748.51 449.27 C 741.02 449.62 733.53 449.76 726.10 450.96 C 728.47 457.47 733.10 462.84 735.34 469.40 C 737.56 474.07 739.05 479.02 740.38 484.00 C 740.93 485.81 739.77 487.43 739.00 488.96 C 737.28 491.95 735.57 494.95 733.96 498.01 C 733.62 498.49 732.94 499.47 732.60 499.96 C 732.62 500.31 732.65 501.01 732.67 501.36 L 731.46 501.59 C 731.52 502.03 731.63 502.92 731.69 503.36 L 730.87 503.60 C 727.80 510.66 723.78 517.38 722.01 524.95 C 725.44 524.09 728.87 522.87 731.80 520.84 C 733.67 519.53 735.01 517.34 737.43 516.99 C 737.44 517.52 737.45 518.58 737.46 519.12 C 731.66 522.13 726.43 527.45 719.60 527.50 C 718.43 523.50 720.97 520.02 722.70 516.67 C 727.75 506.17 734.61 496.35 737.54 484.96 C 735.60 477.24 733.73 469.33 729.59 462.43 C 727.33 458.67 725.09 454.90 722.75 451.18 C 724.87 447.92 722.43 444.14 722.75 440.60 C 723.09 438.31 723.54 436.02 723.72 433.71 C 724.30 438.43 724.70 443.22 726.32 447.73 C 733.62 447.54 741.03 447.72 748.24 446.35 C 748.19 443.95 748.17 441.55 747.90 439.17 C 746.18 423.41 748.48 407.53 747.13 391.77 C 745.64 384.66 747.68 376.88 745.00 370.13 C 738.11 369.94 730.96 370.51 723.99 370.02 C 723.80 369.72 723.42 369.12 723.23 368.83 C 723.24 368.50 723.26 367.84 723.27 367.52 C 726.11 367.41 728.96 367.49 731.82 367.58 C 731.72 364.88 731.62 362.19 731.51 359.50 C 726.51 357.14 722.80 351.63 723.71 345.98 C 724.61 339.27 725.83 331.58 731.81 327.39 C 737.69 326.37 745.09 328.31 747.38 334.40 C 748.38 342.45 745.75 351.10 739.95 356.89 C 738.45 358.50 736.26 359.06 734.26 359.77 C 734.40 362.36 734.63 364.95 735.06 367.52 C 738.47 367.44 741.94 367.56 745.29 366.76 C 746.23 367.39 747.17 368.04 748.11 368.70 C 756.50 360.60 765.14 352.65 772.27 343.36 C 774.29 340.48 776.53 337.76 778.78 335.05 C 776.47 329.98 771.29 327.26 768.44 322.59 C 765.93 318.71 763.89 314.55 761.22 310.77 C 759.96 309.65 760.78 308.05 760.98 306.70 C 757.26 302.88 752.93 299.73 748.84 296.35 C 747.12 296.52 745.68 297.62 744.14 298.29 C 738.69 298.83 733.01 296.86 729.56 292.51 C 727.44 290.17 728.28 286.76 728.29 283.90 C 728.37 278.40 732.35 273.44 737.42 271.56 Z" />
<path fill="#0f37fe" d=" M 1009.22 271.36 C 1010.30 271.40 1011.38 271.44 1012.48 271.49 C 1012.80 274.99 1012.89 278.51 1012.84 282.02 C 1012.69 289.33 1013.27 296.79 1011.30 303.92 C 1008.76 313.28 1004.78 322.17 1000.58 330.89 C 998.90 334.29 997.85 337.95 997.34 341.71 C 996.25 341.72 995.18 341.74 994.13 341.76 C 993.95 335.32 997.75 329.87 1000.18 324.17 C 1005.02 313.40 1009.86 302.05 1009.47 290.00 C 1009.49 283.79 1009.33 277.58 1009.22 271.36 Z" />
<path fill="#f5f4f0" d=" M 731.15 289.81 C 728.95 283.98 731.84 276.19 738.08 274.23 C 742.36 272.80 748.48 274.14 750.25 278.75 C 750.46 281.26 750.18 283.79 749.92 286.29 C 750.02 281.12 745.90 274.97 740.08 276.26 C 733.85 277.17 731.66 284.96 733.92 290.09 C 736.27 293.93 741.35 293.49 745.06 292.25 C 745.23 292.84 745.55 294.04 745.71 294.63 C 740.49 296.82 733.81 294.98 731.15 289.81 Z" />
<path fill="#13b824" d=" M 733.92 290.09 C 731.66 284.96 733.85 277.17 740.08 276.26 C 745.90 274.97 750.02 281.12 749.92 286.29 C 749.25 288.84 747.83 291.56 745.06 292.25 C 741.35 293.49 736.27 293.93 733.92 290.09 Z" />
<path fill="#13b824" d=" M 680.31 286.42 C 690.99 286.16 701.59 284.52 712.29 284.62 C 712.78 286.05 713.48 287.47 713.51 289.02 C 714.00 302.53 712.26 315.95 710.38 329.29 C 710.01 329.80 709.28 330.80 708.91 331.31 C 701.60 331.75 694.28 331.41 686.98 331.54 C 685.10 331.67 683.30 331.18 681.59 330.51 C 680.26 315.87 679.78 301.12 680.31 286.42 Z" />
<path fill="#44c550" d=" M 695.19 288.39 C 696.16 287.12 698.97 288.42 697.76 289.95 C 696.76 291.19 693.95 289.91 695.19 288.39 Z" />
<path fill="#08b61a" d=" M 509.82 291.15 C 520.72 290.41 531.66 290.95 542.58 290.80 C 541.85 298.63 541.74 306.50 541.14 314.34 C 540.93 314.87 540.50 315.94 540.29 316.47 C 537.38 313.40 533.50 309.84 534.34 305.16 C 534.86 300.76 535.21 296.34 534.95 291.92 C 531.62 291.85 528.29 291.90 524.98 292.05 C 527.79 299.53 526.49 307.46 525.62 315.16 C 521.21 315.38 517.22 313.49 513.43 311.48 C 512.36 313.16 511.30 314.84 510.26 316.53 C 509.73 316.67 508.68 316.95 508.16 317.09 C 509.31 311.72 508.49 306.18 509.60 300.82 C 510.20 297.63 510.07 294.37 509.82 291.15 Z" />
<path fill="#13b824" d=" M 505.31 291.46 C 506.81 291.36 508.31 291.26 509.82 291.15 C 510.07 294.37 510.20 297.63 509.60 300.82 C 508.49 306.18 509.31 311.72 508.16 317.09 C 506.62 317.29 505.08 317.48 503.55 317.65 C 504.24 308.93 504.99 300.21 505.31 291.46 Z" />
<path fill="#13b824" d=" M 524.98 292.05 C 528.29 291.90 531.62 291.85 534.95 291.92 C 535.21 296.34 534.86 300.76 534.34 305.16 C 533.50 309.84 537.38 313.40 540.29 316.47 C 530.28 316.37 520.26 316.36 510.26 316.53 C 511.30 314.84 512.36 313.16 513.43 311.48 C 517.22 313.49 521.21 315.38 525.62 315.16 C 526.49 307.46 527.79 299.53 524.98 292.05 Z" />
<path fill="#4361fb" d=" M 775.19 292.51 C 776.47 291.85 777.44 294.06 776.43 294.84 C 775.13 295.50 774.15 293.28 775.19 292.51 Z" />
<path fill="#42c44e" d=" M 687.22 296.17 C 688.63 296.20 688.62 298.63 687.23 298.70 C 685.81 298.66 685.82 296.24 687.22 296.17 Z" />
<path fill="#0f37fe" d=" M 621.06 319.10 C 625.44 316.86 630.07 315.07 634.13 312.22 C 634.94 312.92 635.74 313.63 636.56 314.34 C 636.68 315.85 636.80 317.36 636.93 318.87 C 643.42 317.79 649.71 315.42 656.37 315.48 C 657.43 315.44 658.51 315.43 659.59 315.41 C 664.34 315.34 669.10 315.04 673.85 315.39 C 673.74 316.51 673.62 317.63 673.51 318.75 C 668.91 318.16 664.31 317.55 659.67 317.50 C 658.87 317.48 657.26 317.44 656.46 317.42 C 649.76 317.07 643.51 319.71 637.23 321.60 C 636.38 323.65 635.50 325.68 634.58 327.69 C 629.79 326.28 625.03 324.76 620.31 323.14 C 620.46 321.77 620.71 320.42 621.06 319.10 Z" />
<path fill="#47c653" d=" M 690.34 314.39 C 691.81 314.56 691.83 318.24 690.42 318.47 C 689.61 317.34 689.52 315.54 690.34 314.39 Z" />
<path fill="#f2fbf3" d=" M 540.29 316.47 C 540.50 315.94 540.93 314.87 541.14 314.34 C 541.95 315.81 542.80 317.28 543.53 318.81 C 543.99 326.05 543.62 333.32 543.72 340.57 C 552.52 339.86 561.37 339.44 570.08 337.86 C 574.95 336.99 579.88 336.57 584.80 336.05 C 585.54 336.07 587.03 336.10 587.78 336.12 C 587.92 336.92 588.20 338.51 588.34 339.31 C 588.08 350.73 588.24 362.16 588.26 373.59 C 593.86 372.98 599.52 372.47 605.14 373.31 C 603.35 373.77 601.60 374.37 599.84 374.88 C 590.81 376.32 581.63 376.74 572.53 377.59 C 558.99 375.56 545.27 377.73 531.68 376.53 C 534.68 376.30 537.69 376.20 540.71 376.15 C 540.78 365.54 540.33 354.94 540.40 344.33 C 531.59 344.38 522.78 344.84 514.01 345.69 C 510.53 346.25 507.02 346.49 503.51 346.35 L 502.66 345.18 C 502.93 344.36 503.23 343.56 503.56 342.78 C 515.79 341.38 528.18 341.84 540.43 340.59 C 540.32 333.79 540.64 326.97 539.83 320.21 C 530.24 319.86 520.47 318.90 511.03 321.07 C 508.42 321.38 505.79 321.26 503.18 321.31 C 502.88 320.41 502.58 319.52 502.27 318.64 C 504.23 318.13 506.20 317.63 508.16 317.09 C 508.68 316.95 509.73 316.67 510.26 316.53 C 520.26 316.36 530.28 316.37 540.29 316.47 Z" />
<path fill="#4b68fb" d=" M 631.38 317.15 C 632.12 316.36 634.68 316.93 633.26 318.17 C 632.08 319.84 628.56 318.47 631.38 317.15 Z" />
<path fill="#10b822" d=" M 566.97 319.17 C 572.83 318.72 578.70 318.27 584.58 318.42 C 585.25 319.03 585.92 319.65 586.60 320.27 C 586.75 325.32 586.69 330.37 586.76 335.42 C 586.27 335.58 585.29 335.89 584.80 336.05 C 579.88 336.57 574.95 336.99 570.08 337.86 C 561.37 339.44 552.52 339.86 543.72 340.57 C 543.62 333.32 543.99 326.05 543.53 318.81 C 551.32 319.45 559.16 319.22 566.97 319.17 Z" />
<path fill="#0eb71f" d=" M 511.03 321.07 C 520.47 318.90 530.24 319.86 539.83 320.21 C 540.64 326.97 540.32 333.79 540.43 340.59 C 528.18 341.84 515.79 341.38 503.56 342.78 C 503.06 342.98 502.07 343.37 501.57 343.57 C 502.70 336.21 503.86 328.78 503.18 321.31 C 505.79 321.26 508.42 321.38 511.03 321.07 Z" />
<path fill="#32c040" d=" M 581.32 321.22 C 582.32 319.90 584.97 321.40 583.81 322.88 C 582.78 324.19 580.14 322.70 581.32 321.22 Z" />
<path fill="#55c960" d=" M 691.36 323.20 C 692.51 322.28 693.21 322.51 693.45 323.89 C 692.29 324.80 691.59 324.57 691.36 323.20 Z" />
<path fill="#f5f4f0" d=" M 731.68 330.29 C 736.24 329.77 741.88 330.23 744.44 334.67 C 745.75 341.49 743.22 348.54 738.96 353.87 C 737.69 355.30 736.01 356.79 733.97 356.67 C 730.60 356.77 728.24 353.68 727.04 350.88 C 725.42 343.73 727.53 336.23 731.68 330.29 Z" />
<path fill="#060606" d=" M 442.17 334.23 C 447.36 333.77 453.30 335.87 455.38 341.01 C 456.42 347.01 455.76 353.28 454.00 359.09 C 452.56 363.58 449.31 368.22 444.22 368.67 C 444.31 371.47 444.40 374.28 444.30 377.09 C 446.51 378.11 448.78 379.00 451.08 379.81 C 451.44 380.30 452.17 381.27 452.53 381.76 C 451.37 399.05 455.45 416.02 458.56 432.89 C 461.09 441.47 462.60 450.30 464.57 459.01 C 464.93 458.83 465.65 458.47 466.00 458.29 C 470.14 454.73 473.72 450.60 477.65 446.83 C 478.05 447.24 478.86 448.08 479.26 448.50 C 475.01 452.16 470.85 455.93 466.87 459.87 C 463.20 463.52 460.45 468.02 456.53 471.41 C 455.90 471.53 454.65 471.78 454.02 471.90 C 454.98 467.38 460.06 465.66 462.40 461.96 C 460.74 457.09 460.28 451.94 459.10 446.95 C 457.56 439.36 454.91 431.99 454.25 424.23 C 453.59 417.14 451.98 410.14 451.82 403.02 C 452.13 401.95 452.45 400.90 452.78 399.85 C 451.75 398.75 450.73 397.66 449.71 396.58 C 449.80 391.87 449.39 387.17 449.77 382.47 C 444.26 380.65 439.80 376.83 434.79 374.03 C 433.85 379.26 433.31 384.52 432.88 389.82 C 432.59 391.84 432.36 393.88 432.04 395.90 C 430.88 400.53 430.13 405.25 428.75 409.82 C 428.59 411.70 428.45 413.58 428.33 415.47 L 427.70 415.48 C 427.05 423.70 425.85 431.92 426.37 440.21 C 431.57 445.04 437.97 448.32 443.29 452.99 C 443.35 453.63 443.49 454.92 443.56 455.56 C 435.90 452.71 430.88 445.39 423.34 442.18 C 424.17 432.84 424.84 423.43 427.23 414.34 C 427.51 410.88 428.24 407.48 429.09 404.12 C 430.91 396.60 432.06 388.94 431.62 381.18 C 427.45 385.78 422.90 390.09 419.23 395.12 C 418.00 398.21 418.19 401.71 417.77 404.99 C 417.38 419.61 418.01 434.47 414.22 448.74 C 413.26 448.71 412.30 448.69 411.34 448.67 C 412.22 445.61 413.54 442.69 414.36 439.62 C 416.50 426.87 416.91 413.88 416.04 400.99 C 415.78 398.15 415.19 394.75 417.48 392.55 C 420.23 389.95 423.46 387.86 426.00 385.02 C 429.37 381.75 431.36 377.42 434.46 373.94 L 433.02 373.38 L 432.02 371.51 C 435.54 371.30 438.40 373.53 441.41 374.97 C 441.42 372.62 441.62 370.25 441.17 367.93 C 438.21 365.27 434.75 362.53 434.82 358.13 C 435.20 350.69 437.16 343.53 439.18 336.40 C 440.31 336.15 441.44 335.90 442.58 335.66 L 442.17 334.23 Z" />
<path fill="#09b61b" d=" M 588.57 336.45 C 596.36 335.07 604.31 335.37 612.15 334.39 C 612.70 334.83 613.79 335.71 614.34 336.15 C 614.76 348.30 614.53 360.47 614.69 372.63 C 611.51 373.02 608.33 373.28 605.14 373.31 C 599.52 372.47 593.86 372.98 588.26 373.59 C 588.24 362.16 588.08 350.73 588.34 339.31 C 588.39 338.59 588.51 337.16 588.57 336.45 Z" />
<path fill="#dd4e0c" d=" M 956.98 347.08 C 954.59 343.05 957.22 337.43 961.90 336.76 C 966.42 336.04 969.07 340.39 972.07 342.93 C 977.75 347.81 983.78 352.44 988.07 358.68 C 993.55 354.50 999.67 351.28 1005.36 347.39 C 1009.53 345.04 1013.86 341.55 1018.97 342.41 C 1023.58 343.54 1025.17 350.39 1021.12 353.15 C 1017.61 355.32 1013.68 356.79 1010.43 359.40 C 1006.14 362.81 1001.03 365.12 997.02 368.89 C 1000.86 372.76 1004.86 376.52 1008.34 380.73 C 1010.76 384.78 1006.48 390.18 1001.99 388.31 C 996.44 384.95 992.06 380.05 986.89 376.20 C 978.29 379.40 972.87 387.94 964.12 390.76 C 959.16 391.99 954.34 386.68 955.96 381.90 C 957.21 377.33 962.45 376.35 965.74 373.70 C 969.41 370.76 973.00 367.63 977.33 365.65 C 971.80 358.16 962.96 354.12 956.98 347.08 Z" />
<path fill="#f5f4f0" d=" M 441.40 337.70 C 444.53 337.19 448.13 336.92 450.59 339.34 C 454.19 342.02 453.33 347.03 452.91 350.91 C 452.42 356.28 451.04 362.41 446.17 365.51 C 442.63 366.03 439.29 363.25 438.04 360.10 C 436.30 352.44 439.65 345.02 441.40 337.70 Z" />
<path fill="#12b823" d=" M 559.11 342.80 C 567.62 342.37 575.91 339.69 584.48 340.23 C 584.61 351.53 584.65 362.84 584.41 374.14 C 571.01 374.53 557.67 376.24 544.24 375.86 C 544.84 365.32 543.69 354.81 543.64 344.28 C 548.73 343.21 553.98 343.59 559.11 342.80 Z" />
<path fill="#08b61a" d=" M 514.01 345.69 C 522.78 344.84 531.59 344.38 540.40 344.33 C 540.33 354.94 540.78 365.54 540.71 376.15 C 537.69 376.20 534.68 376.30 531.68 376.53 C 522.60 376.62 513.52 376.50 504.45 376.46 C 503.78 375.88 503.11 375.31 502.45 374.75 C 501.32 368.54 501.87 362.22 501.73 355.96 C 501.74 352.35 501.41 348.63 502.66 345.18 L 503.51 346.35 C 507.02 346.49 510.53 346.25 514.01 345.69 Z" />
<path fill="#1f1f1f" d=" M 677.04 352.85 C 676.13 351.83 675.95 348.85 678.18 349.55 C 679.34 350.88 680.18 352.44 681.08 353.95 C 684.69 360.39 689.63 365.99 695.02 370.98 C 698.49 374.15 701.52 377.88 705.67 380.23 C 710.50 376.25 715.40 372.08 721.20 369.59 L 722.07 369.67 C 723.29 370.02 724.34 370.82 724.98 371.95 C 723.90 376.68 722.17 381.26 721.58 386.11 C 720.97 401.99 721.00 418.00 723.72 433.71 C 723.54 436.02 723.09 438.31 722.75 440.60 C 722.23 432.04 720.08 423.63 720.22 415.02 C 719.27 405.72 719.06 396.37 719.15 387.03 C 719.23 381.97 720.59 377.08 721.81 372.21 C 717.33 374.33 712.79 376.66 709.47 380.44 C 708.13 381.63 706.99 383.70 704.88 383.27 C 701.37 381.19 699.11 377.63 696.10 374.96 C 688.82 368.45 682.66 360.80 677.04 352.85 Z" />
<path fill="#61cd6b" d=" M 610.18 360.24 C 610.72 360.73 610.72 360.73 610.18 360.24 Z" />
<path fill="#484746" d=" M 449.71 396.58 C 450.73 397.66 451.75 398.75 452.78 399.85 C 452.45 400.90 452.13 401.95 451.82 403.02 C 451.29 404.58 450.67 406.11 450.02 407.62 C 449.80 406.97 449.38 405.66 449.16 405.01 C 449.04 402.19 449.41 399.37 449.71 396.58 Z" />
<path fill="#080807" d=" M 449.16 405.01 C 449.38 405.66 449.80 406.97 450.02 407.62 C 450.73 412.38 450.27 417.27 449.79 422.04 C 449.06 432.66 450.48 443.48 448.31 453.95 C 448.33 462.93 446.22 471.70 445.35 480.60 C 444.29 485.62 444.71 490.79 443.81 495.84 C 443.33 505.16 441.50 514.35 440.27 523.59 C 444.69 525.04 449.42 525.47 454.04 525.01 C 455.77 524.65 457.44 525.20 459.05 525.83 C 457.65 528.57 454.44 527.54 452.01 527.55 C 448.02 527.15 443.95 527.35 440.04 526.33 C 438.55 525.93 437.09 524.71 437.54 522.99 C 438.51 512.24 442.94 501.96 442.62 491.06 C 442.45 485.35 443.14 479.69 443.51 474.01 C 443.85 468.97 445.49 464.08 445.36 459.01 C 445.40 456.60 445.06 454.04 446.42 451.91 C 446.14 441.90 447.43 431.96 447.89 421.98 C 448.78 416.36 448.25 410.62 449.16 405.01 Z" />
<path fill="#151515" d=" M 580.77 413.84 C 579.94 412.11 583.38 411.38 583.43 413.00 C 583.98 421.68 582.26 430.32 582.73 439.01 C 582.65 446.02 583.22 453.01 583.19 460.01 C 582.62 468.74 582.61 477.52 583.28 486.24 L 582.94 486.62 C 582.53 487.08 581.71 488.01 581.30 488.47 C 581.54 470.99 581.10 453.51 581.50 436.04 C 581.71 428.62 580.72 421.24 580.77 413.84 Z" />
<path fill="#030303" d=" M 480.22 432.20 C 482.56 429.93 486.04 430.41 489.02 430.55 C 491.40 430.71 494.00 431.59 495.40 433.65 C 496.26 438.27 496.06 443.96 492.13 447.20 C 490.69 448.54 488.69 448.27 486.90 448.26 C 484.38 447.58 481.45 446.42 479.26 448.50 C 478.86 448.08 478.05 447.24 477.65 446.83 C 477.91 446.50 478.43 445.85 478.69 445.52 C 476.31 441.37 476.56 435.55 480.22 432.20 Z" />
<path fill="#f5f4f0" d=" M 483.36 433.50 C 486.35 433.19 489.83 432.79 492.43 434.63 C 494.12 437.25 492.91 440.94 491.67 443.54 C 489.09 447.74 484.14 443.80 480.66 443.05 C 479.01 439.83 479.94 435.13 483.36 433.50 Z" />
<path fill="#0c0c0c" d=" M 423.30 445.23 C 423.90 445.23 425.12 445.24 425.73 445.24 C 425.50 454.40 426.08 463.64 424.77 472.73 C 423.80 483.48 422.49 494.20 422.36 505.01 C 422.37 509.29 420.72 513.49 421.31 517.76 C 423.08 518.55 424.94 519.09 426.77 519.72 C 426.75 520.31 426.71 521.48 426.69 522.07 C 423.32 521.71 419.98 520.62 417.39 518.36 C 419.53 509.06 421.33 499.69 422.20 490.19 C 422.48 483.44 423.27 476.71 424.12 470.02 C 424.69 461.74 424.12 453.46 423.30 445.23 Z" />
<path fill="#030303" d=" M 581.30 488.47 C 581.71 488.01 582.53 487.08 582.94 486.62 C 583.86 496.12 582.76 505.74 583.47 515.29 C 586.75 515.28 590.05 515.25 593.34 515.28 C 593.74 514.80 594.52 513.84 594.92 513.35 C 595.82 513.38 596.73 513.42 597.64 513.47 C 597.91 516.94 596.94 520.29 595.59 523.45 C 592.43 530.84 590.47 538.70 586.76 545.87 C 585.51 549.32 584.64 554.71 579.86 554.53 C 575.47 545.69 574.55 535.59 570.69 526.52 C 569.47 522.94 566.67 519.76 567.30 515.76 C 571.74 515.12 576.24 515.23 580.72 515.30 C 582.00 506.43 580.79 497.27 581.30 488.47 Z" />
<path fill="#030303" d=" M 64.11 546.88 C 64.29 546.34 64.65 545.26 64.83 544.72 C 71.00 544.41 77.15 544.89 83.28 545.54 C 95.22 545.90 107.12 547.21 119.06 547.68 C 133.66 549.12 148.35 548.61 162.99 548.64 C 168.39 548.82 173.64 547.40 179.01 547.25 C 183.19 547.08 187.51 545.61 191.59 547.14 C 193.12 554.97 192.23 563.03 192.32 570.96 C 191.28 582.02 191.29 593.14 190.98 604.24 C 190.03 602.44 188.99 600.71 187.83 599.06 C 187.32 592.36 188.28 585.69 188.40 579.00 C 189.05 569.38 188.90 559.73 188.63 550.10 C 181.37 550.16 174.20 551.18 166.99 551.78 C 152.31 551.81 137.61 552.09 122.94 551.32 C 113.92 550.41 104.86 550.34 95.84 549.52 C 85.85 549.69 75.96 547.85 65.97 548.51 C 65.40 553.31 64.64 558.09 64.40 562.93 C 62.49 578.61 63.27 594.44 63.29 610.19 C 63.84 619.85 63.44 629.55 64.33 639.19 C 70.93 638.98 77.49 639.66 84.03 640.43 C 98.37 640.56 112.73 640.64 127.08 640.19 C 139.35 639.14 151.68 639.70 163.98 639.55 C 171.49 639.34 178.92 640.77 186.44 640.55 C 185.94 630.68 187.80 620.91 187.64 611.05 C 188.83 611.20 190.03 611.34 191.24 611.46 C 190.61 622.10 189.83 632.72 189.59 643.37 C 186.47 644.24 183.19 644.60 180.01 643.89 C 175.28 643.47 170.54 643.18 165.79 643.19 L 165.14 642.80 C 154.40 643.00 143.63 642.34 132.91 643.22 C 116.25 643.74 99.58 643.79 82.92 643.61 C 76.10 642.97 69.29 642.33 62.43 642.49 C 61.82 641.76 61.21 641.04 60.60 640.33 C 60.10 630.24 60.73 620.12 59.84 610.05 C 59.84 594.70 59.37 579.32 61.07 564.04 C 61.59 558.83 61.35 553.51 62.62 548.39 C 62.99 548.01 63.74 547.26 64.11 546.88 Z" />
<path fill="#f5f4f0" d=" M 65.97 548.51 C 75.96 547.85 85.85 549.69 95.84 549.52 C 104.86 550.34 113.92 550.41 122.94 551.32 C 137.61 552.09 152.31 551.81 166.99 551.78 C 174.20 551.18 181.37 550.16 188.63 550.10 C 188.90 559.73 189.05 569.38 188.40 579.00 C 188.28 585.69 187.32 592.36 187.83 599.06 C 185.01 600.84 181.79 602.16 179.51 604.67 C 178.36 606.00 179.39 607.77 179.47 609.28 C 182.16 609.98 184.88 610.63 187.64 611.05 C 187.80 620.91 185.94 630.68 186.44 640.55 C 178.92 640.77 171.49 639.34 163.98 639.55 C 151.68 639.70 139.35 639.14 127.08 640.19 C 112.73 640.64 98.37 640.56 84.03 640.43 C 77.49 639.66 70.93 638.98 64.33 639.19 C 63.44 629.55 63.84 619.85 63.29 610.19 C 63.27 594.44 62.49 578.61 64.40 562.93 C 64.64 558.09 65.40 553.31 65.97 548.51 Z" />
<path fill="#13b824" d=" M 173.45 566.53 C 174.31 564.97 176.41 565.55 176.68 567.08 C 173.59 578.79 174.20 591.05 172.57 602.98 C 172.10 606.71 172.69 610.63 171.18 614.18 C 170.55 614.19 169.28 614.21 168.65 614.22 C 167.78 607.62 169.74 601.06 170.07 594.48 C 170.45 586.60 171.00 578.74 171.89 570.90 C 172.21 569.41 172.28 567.63 173.45 566.53 Z" />
<path fill="#13b824" d=" M 73.50 567.68 C 79.22 565.60 85.57 566.92 91.55 566.73 C 91.60 567.66 91.70 569.51 91.75 570.43 C 89.88 570.37 88.02 570.31 86.15 570.24 C 87.16 577.47 87.46 584.78 86.85 592.06 C 87.04 599.74 87.34 607.50 86.38 615.13 C 84.57 619.39 80.81 624.06 75.71 623.69 C 74.69 619.35 73.93 614.61 75.39 610.32 C 76.42 610.37 77.45 610.39 78.48 610.39 C 78.39 613.43 78.35 616.48 78.48 619.54 C 81.13 617.49 83.69 614.67 83.53 611.09 C 83.63 600.96 83.49 590.84 83.46 580.71 C 83.52 577.19 82.93 573.72 82.23 570.28 C 79.37 570.36 76.49 570.76 73.64 570.35 C 73.60 569.69 73.53 568.35 73.50 567.68 Z" />
<path fill="#13b824" d=" M 106.30 568.44 C 112.07 567.11 119.89 565.54 123.98 571.06 C 127.40 575.47 130.76 581.25 128.92 586.97 C 124.57 595.00 116.29 602.80 106.44 601.29 C 105.74 608.49 104.66 615.64 103.55 622.79 C 102.45 622.67 101.36 622.55 100.27 622.44 C 100.20 616.86 102.22 611.57 102.58 606.05 C 103.27 598.35 104.04 590.67 105.04 583.02 C 105.79 578.19 105.30 573.24 106.30 568.44 Z" />
<path fill="#f5f4f0" d=" M 109.58 571.46 C 113.15 571.01 117.63 569.60 120.54 572.50 C 123.67 576.15 126.83 580.86 125.54 585.92 C 123.48 589.82 120.25 593.08 116.69 595.65 C 113.74 597.84 109.94 597.80 106.49 598.49 C 107.67 589.50 109.17 580.53 109.58 571.46 Z" />
<path fill="#13b824" d=" M 141.37 579.36 C 143.16 576.26 145.28 572.91 148.84 571.70 C 151.15 571.06 153.17 572.30 154.84 573.75 C 154.59 576.34 153.59 578.74 152.20 580.91 C 151.38 580.74 149.76 580.38 148.95 580.21 C 149.61 578.45 150.24 576.71 150.79 574.93 C 148.47 575.67 146.54 577.21 145.43 579.40 C 139.23 589.83 135.13 601.86 135.20 614.08 C 134.92 616.26 136.54 618.74 138.91 618.60 C 143.53 619.57 148.95 615.64 148.60 610.79 C 147.24 610.58 145.89 610.37 144.54 610.17 C 144.45 609.04 144.39 607.92 144.33 606.81 C 147.82 606.08 151.31 605.28 154.89 605.22 C 155.08 607.48 153.93 608.97 151.62 609.05 C 154.33 616.70 145.11 623.80 137.96 622.10 C 133.64 621.69 131.07 617.04 131.58 613.02 C 132.31 601.27 135.67 589.66 141.37 579.36 Z" />
<path fill="#13b824" d=" M 324.98 588.64 C 325.64 584.64 324.89 580.54 325.72 576.59 C 327.66 575.95 328.70 577.25 329.46 578.81 C 338.18 579.72 346.97 578.91 355.71 579.44 C 357.33 579.57 359.02 579.73 360.47 580.57 C 362.06 582.30 361.51 584.87 361.74 587.02 C 362.20 596.88 359.94 606.61 360.55 616.48 C 359.90 617.10 359.25 617.74 358.61 618.38 C 347.98 619.73 337.30 620.71 326.63 621.60 C 325.51 619.72 324.44 617.82 323.27 615.98 C 323.05 606.82 323.76 597.70 324.98 588.64 Z" />
<path fill="#030303" d=" M 613.44 579.87 C 622.31 579.93 631.08 578.11 639.96 578.35 C 647.39 578.53 654.87 577.82 662.28 578.57 C 663.09 583.63 662.64 588.77 661.92 593.81 C 661.08 603.19 661.32 612.62 661.43 622.03 C 661.06 632.67 661.51 643.31 661.49 653.95 C 661.16 663.32 661.38 672.70 661.87 682.07 C 662.97 693.14 665.36 704.09 665.46 715.25 C 665.97 715.67 666.99 716.50 667.50 716.91 C 667.11 717.53 666.34 718.77 665.95 719.39 C 661.64 719.15 657.33 719.34 653.02 719.41 C 645.25 719.57 637.48 718.99 629.72 719.61 C 631.25 719.20 632.77 718.72 634.29 718.27 C 636.46 717.56 638.74 717.31 640.97 716.85 C 647.88 716.38 654.83 717.06 661.73 716.25 C 662.28 712.84 662.34 709.38 662.19 705.95 C 660.99 698.87 660.32 691.72 660.24 684.54 C 660.64 675.23 659.27 666.00 659.37 656.70 C 659.55 639.79 659.30 622.88 659.75 605.98 C 660.31 597.84 661.19 589.54 659.58 581.47 C 654.72 581.20 649.87 580.55 645.01 581.12 C 634.48 580.68 623.92 580.61 613.38 580.77 C 613.40 580.55 613.42 580.10 613.44 579.87 Z" />
<path fill="#40403f" d=" M 523.06 582.66 C 530.78 581.34 538.66 580.89 546.48 581.16 C 544.25 583.48 540.84 582.97 537.94 583.31 C 528.21 584.16 518.43 584.04 508.70 583.42 C 513.43 582.35 518.28 583.17 523.06 582.66 Z" />
<path fill="#040404" d=" M 546.48 581.16 L 547.13 580.66 C 550.35 581.34 553.65 581.43 556.94 581.33 C 568.69 581.10 580.45 581.66 592.18 580.99 L 591.21 581.12 L 590.26 581.23 L 590.74 582.38 C 577.10 582.31 563.46 582.33 549.83 582.38 C 549.01 583.42 548.20 584.46 547.39 585.51 C 537.23 585.15 527.06 585.55 516.90 585.82 C 513.28 586.72 509.52 586.47 505.85 586.83 C 499.15 587.50 492.39 586.82 485.69 587.73 C 484.90 590.41 484.44 593.17 484.36 595.97 C 483.59 604.96 482.01 613.91 482.18 622.96 C 481.17 635.94 481.59 648.97 481.68 661.97 C 481.93 667.61 481.24 673.30 482.14 678.90 C 482.02 687.64 483.89 696.27 483.44 704.99 L 482.81 705.20 L 482.24 705.07 C 481.08 697.80 481.92 690.32 480.57 683.06 C 480.05 660.38 481.17 637.67 479.78 615.02 C 481.44 606.77 481.44 598.31 481.62 589.94 C 481.51 587.62 482.64 584.73 485.25 584.45 C 491.84 583.97 498.46 584.65 505.06 584.33 C 506.16 583.70 507.40 583.25 508.70 583.42 C 518.43 584.04 528.21 584.16 537.94 583.31 C 540.84 582.97 544.25 583.48 546.48 581.16 Z" />
<path fill="#f3fcf4" d=" M 591.21 581.12 C 591.88 581.17 593.23 581.28 593.91 581.33 C 593.92 581.58 593.95 582.10 593.96 582.35 C 598.45 582.58 602.96 582.62 607.45 582.44 C 603.14 583.16 598.78 583.41 594.42 583.45 C 594.92 594.08 593.89 604.70 594.20 615.34 C 603.98 615.12 613.77 615.20 623.56 615.19 C 623.55 605.81 623.73 596.43 623.37 587.06 C 623.24 585.39 623.48 583.73 624.13 582.20 C 624.55 582.20 625.41 582.20 625.84 582.20 C 627.94 586.87 627.13 592.06 627.19 597.01 C 627.21 603.07 627.18 609.13 627.22 615.20 C 636.88 615.10 646.51 613.75 656.19 614.26 C 656.07 615.07 655.84 616.68 655.72 617.48 C 646.20 617.46 636.73 618.63 627.21 618.42 C 627.13 626.44 626.77 634.46 627.43 642.47 C 636.61 642.57 645.69 641.02 654.84 640.54 C 656.46 640.87 657.19 641.90 657.02 643.63 C 651.98 644.97 646.70 644.24 641.58 645.06 C 636.91 645.79 632.18 645.70 627.47 645.63 C 627.95 658.34 627.77 671.07 627.85 683.79 C 637.64 684.10 647.42 683.45 657.21 683.81 C 657.31 675.77 657.31 667.72 657.39 659.68 C 657.80 661.80 658.22 663.93 658.61 666.07 C 658.67 662.93 658.90 659.80 659.37 656.70 C 659.27 666.00 660.64 675.23 660.24 684.54 C 659.51 686.11 659.15 688.99 657.07 689.14 C 647.50 689.56 637.92 689.52 628.35 689.43 C 628.19 697.69 629.37 705.89 629.34 714.15 C 628.08 714.37 626.84 714.60 625.60 714.81 C 625.84 706.29 624.78 697.81 624.73 689.31 C 615.26 689.14 605.77 689.60 596.33 688.54 C 596.12 697.41 596.61 706.29 596.23 715.16 C 596.18 715.84 596.06 717.20 596.01 717.89 C 595.26 717.86 593.77 717.79 593.02 717.76 C 592.98 717.18 592.90 716.02 592.87 715.44 C 592.46 706.48 592.89 697.51 592.77 688.55 C 583.63 688.69 574.48 688.64 565.35 688.87 C 565.08 697.85 565.54 706.83 565.31 715.80 C 564.49 717.36 562.88 716.37 561.65 716.16 C 561.74 707.29 561.79 698.41 561.82 689.54 C 552.81 690.62 543.73 690.42 534.72 691.45 C 534.73 699.87 534.91 708.30 534.66 716.72 C 533.59 716.72 532.52 716.73 531.46 716.76 C 531.20 708.26 531.44 699.76 531.42 691.26 C 524.75 691.24 518.08 691.25 511.41 691.28 C 511.27 699.77 511.60 708.26 511.43 716.75 C 510.99 718.46 508.15 718.77 507.85 716.77 C 507.63 708.27 508.52 699.79 508.10 691.29 C 500.81 691.21 493.61 692.24 486.49 693.68 C 485.98 693.23 484.95 692.32 484.44 691.87 C 491.82 688.32 500.15 689.73 507.89 687.86 C 509.68 683.77 509.58 679.36 509.06 675.03 C 509.92 665.80 510.48 656.55 511.12 647.30 C 511.62 647.80 512.13 648.30 512.65 648.81 C 519.23 648.54 525.82 648.38 532.42 648.33 C 532.39 640.27 532.47 632.21 532.74 624.15 C 526.05 624.33 519.40 625.37 512.71 625.32 C 512.92 624.81 513.35 623.80 513.56 623.29 C 519.81 622.70 526.21 622.93 532.32 621.32 C 535.65 617.37 534.52 611.62 535.50 606.85 C 535.79 610.03 536.30 613.20 536.58 616.39 C 536.53 617.75 536.50 619.11 536.46 620.49 C 544.49 619.95 552.33 618.00 560.32 617.17 C 560.39 606.32 560.20 595.46 560.27 584.61 C 555.84 585.22 551.38 585.61 546.93 586.10 L 547.39 585.51 C 548.20 584.46 549.01 583.42 549.83 582.38 C 563.46 582.33 577.10 582.31 590.74 582.38 L 590.26 581.23 L 591.21 581.12 Z" />
<path fill="#464845" d=" M 593.91 581.33 C 594.16 581.20 594.68 580.93 594.94 580.80 C 600.79 581.06 606.62 580.35 612.47 580.56 C 612.05 580.88 611.23 581.51 610.81 581.83 C 609.69 582.06 608.57 582.27 607.45 582.44 C 602.96 582.62 598.45 582.58 593.96 582.35 C 593.95 582.10 593.92 581.58 593.91 581.33 Z" />
<path fill="#13b824" d=" M 607.45 582.44 C 608.57 582.27 609.69 582.06 610.81 581.83 C 615.19 581.09 619.84 580.83 624.13 582.20 C 623.48 583.73 623.24 585.39 623.37 587.06 C 623.73 596.43 623.55 605.81 623.56 615.19 C 613.77 615.20 603.98 615.12 594.20 615.34 C 593.89 604.70 594.92 594.08 594.42 583.45 C 598.78 583.41 603.14 583.16 607.45 582.44 Z" />
<path fill="#13b824" d=" M 625.84 582.20 C 633.15 580.77 640.79 582.10 648.13 583.03 C 647.02 583.98 645.94 584.96 644.85 585.93 C 645.79 586.89 646.75 587.86 647.70 588.83 C 641.03 588.97 634.49 590.34 628.08 592.11 C 628.09 595.07 628.11 598.03 628.14 601.00 C 635.64 599.19 643.32 598.47 651.01 598.00 C 650.61 602.83 650.32 607.66 650.08 612.51 C 652.18 612.66 654.28 612.82 656.39 612.99 C 656.46 613.31 656.59 613.96 656.66 614.28 L 656.19 614.26 C 646.51 613.75 636.88 615.10 627.22 615.20 C 627.18 609.13 627.21 603.07 627.19 597.01 C 627.13 592.06 627.94 586.87 625.84 582.20 Z" />
<path fill="#13b824" d=" M 563.62 584.49 C 572.62 584.74 581.54 583.33 590.54 583.47 C 591.25 594.14 590.37 604.83 590.60 615.51 C 581.65 616.91 572.59 616.45 563.58 616.75 C 563.54 606.00 563.84 595.24 563.62 584.49 Z" />
<path fill="#08b61a" d=" M 644.85 585.93 C 645.94 584.96 647.02 583.98 648.13 583.03 C 650.84 583.90 653.66 584.26 656.48 584.67 C 656.40 594.11 656.44 603.55 656.39 612.99 C 654.28 612.82 652.18 612.66 650.08 612.51 C 650.32 607.66 650.61 602.83 651.01 598.00 C 643.32 598.47 635.64 599.19 628.14 601.00 C 628.11 598.03 628.09 595.07 628.08 592.11 C 634.49 590.34 641.03 588.97 647.70 588.83 C 646.75 587.86 645.79 586.89 644.85 585.93 Z" />
<path fill="#13b824" d=" M 215.71 585.32 C 226.67 586.99 237.67 583.25 248.58 585.38 C 250.71 589.22 249.58 593.76 249.77 597.94 C 249.26 606.50 250.49 615.22 248.57 623.66 C 240.18 625.43 231.51 623.93 223.02 624.69 C 220.26 624.44 215.82 625.80 214.88 622.12 C 213.14 611.85 216.07 601.11 212.78 591.10 C 213.11 590.64 213.78 589.71 214.11 589.25 C 214.63 587.93 215.16 586.62 215.71 585.32 Z" />
<path fill="#13b824" d=" M 407.86 588.97 C 407.99 587.44 408.38 585.95 408.71 584.47 C 416.82 585.27 424.98 584.53 433.12 584.91 C 435.12 584.95 437.66 585.73 437.80 588.12 C 440.14 598.23 441.62 608.97 439.34 619.21 C 433.36 620.91 427.12 619.65 421.05 620.66 C 416.56 621.21 411.69 622.62 407.41 620.42 C 407.55 609.93 407.50 599.44 407.86 588.97 Z" />
<path fill="#13b824" d=" M 546.93 586.10 C 551.38 585.61 555.84 585.22 560.27 584.61 C 560.20 595.46 560.39 606.32 560.32 617.17 C 552.33 618.00 544.49 619.95 536.46 620.49 C 536.50 619.11 536.53 617.75 536.58 616.39 C 537.53 606.87 537.17 597.28 537.21 587.74 C 535.36 586.43 532.77 587.48 530.68 586.66 C 536.09 586.37 541.52 586.47 546.93 586.10 Z" />
<path fill="#34c142" d=" M 242.17 589.28 C 242.87 589.20 244.27 589.05 244.96 588.97 C 245.20 589.51 245.69 590.58 245.93 591.12 C 244.31 591.00 242.70 590.88 241.10 590.78 C 241.36 590.40 241.90 589.65 242.17 589.28 Z" />
<path fill="#3ac348" d=" M 226.53 591.17 C 227.18 590.22 229.62 590.31 229.46 591.74 C 228.80 592.66 226.36 592.58 226.53 591.17 Z" />
<path fill="#0b33ff" d=" M 370.95 600.98 C 373.34 598.26 376.32 596.16 379.01 593.76 C 380.45 593.65 381.90 593.54 383.35 593.45 C 383.73 596.04 384.05 598.65 384.33 601.27 C 389.80 601.38 395.27 601.19 400.74 601.22 C 400.67 601.80 400.54 602.94 400.47 603.52 C 395.19 603.75 389.91 603.58 384.63 603.55 C 384.01 605.27 383.32 606.98 382.35 608.55 C 379.04 607.05 375.48 606.23 372.11 604.89 C 370.48 604.49 369.61 602.15 370.95 600.98 Z" />
<path fill="#52c95d" d=" M 430.27 595.26 C 430.75 595.77 430.75 595.77 430.27 595.26 Z" />
<path fill="#062fff" d=" M 449.23 604.89 C 451.06 600.00 456.59 598.04 461.32 597.21 C 461.75 598.70 462.26 600.19 462.83 601.66 C 466.94 601.75 471.36 601.00 475.21 602.82 L 475.92 604.55 C 471.49 604.43 467.07 604.16 462.64 604.14 C 462.36 606.31 463.35 609.15 461.16 610.58 C 456.26 611.56 453.01 607.08 449.23 604.89 Z" />
<path fill="#08b61a" d=" M 538.17 598.01 C 545.10 597.83 552.04 597.82 558.97 598.06 C 559.00 600.95 558.98 603.85 558.92 606.76 C 551.95 606.69 545.10 608.41 538.14 607.98 C 538.02 604.65 538.02 601.33 538.17 598.01 Z" />
<path fill="#0932ff" d=" M 260.29 605.94 C 263.54 602.05 268.21 598.58 273.42 598.28 C 273.90 600.64 274.35 603.01 274.70 605.40 C 287.19 605.64 299.23 601.43 311.61 600.56 C 311.68 601.22 311.81 602.53 311.87 603.19 C 299.51 602.97 287.35 605.35 275.23 607.48 C 275.18 610.08 275.56 613.07 273.18 614.84 C 269.54 611.35 264.53 610.07 260.59 607.07 L 260.29 605.94 Z" />
<path fill="#0932fe" d=" M 179.51 604.67 C 181.79 602.16 185.01 600.84 187.83 599.06 C 188.99 600.71 190.03 602.44 190.98 604.24 C 197.21 604.57 203.67 603.22 209.71 605.24 C 209.62 605.80 209.44 606.92 209.36 607.48 C 203.54 606.37 197.61 606.40 191.72 606.66 C 191.56 608.26 191.39 609.85 191.24 611.46 C 190.03 611.34 188.83 611.20 187.64 611.05 C 184.88 610.63 182.16 609.98 179.47 609.28 C 179.39 607.77 178.36 606.00 179.51 604.67 Z" />
<path fill="#050505" d=" M 724.94 604.52 C 725.87 604.56 726.81 604.62 727.76 604.68 C 726.58 608.76 723.81 612.07 721.55 615.58 C 718.25 620.10 715.49 624.97 712.87 629.91 C 709.03 637.55 703.35 645.02 703.28 653.89 C 705.01 662.90 709.37 671.18 712.07 679.94 C 715.68 681.31 719.04 683.27 722.67 684.62 C 722.74 682.76 722.79 680.90 722.84 679.05 C 717.78 678.11 714.85 672.86 714.76 668.04 C 714.66 662.67 715.97 657.36 717.58 652.28 C 718.14 652.32 719.26 652.42 719.82 652.47 C 718.90 658.45 716.77 664.42 717.64 670.53 C 718.65 674.48 722.44 676.28 726.24 676.46 C 732.07 671.95 732.83 663.84 732.43 657.02 C 732.44 654.05 729.75 651.86 727.12 651.09 C 724.53 650.08 721.87 651.34 719.29 651.68 C 719.46 649.97 720.19 648.24 722.02 647.86 C 727.43 647.09 734.06 650.04 735.18 655.88 C 735.65 660.97 734.81 666.11 733.43 671.01 C 732.24 674.91 729.14 677.94 725.55 679.72 C 725.54 681.63 725.53 683.55 725.50 685.48 C 728.98 686.88 732.84 687.20 736.20 688.96 C 738.65 691.07 740.69 693.72 743.56 695.34 C 749.63 698.38 754.78 703.85 762.04 703.81 C 764.00 702.07 765.24 699.71 766.62 697.52 C 771.16 689.38 777.41 682.12 780.27 673.11 C 779.68 670.70 779.43 668.23 779.21 665.78 C 778.06 659.50 777.50 653.13 777.23 646.76 C 771.08 646.80 764.76 643.70 762.46 637.74 C 760.18 628.57 768.95 619.57 778.01 620.29 C 782.85 620.15 787.24 623.57 789.30 627.77 C 790.05 631.71 789.65 636.07 787.30 639.44 C 785.61 641.83 783.52 643.92 781.85 646.34 C 781.30 646.46 780.19 646.71 779.63 646.83 C 779.48 651.94 779.23 657.07 779.78 662.17 C 780.45 664.91 780.61 667.73 780.82 670.54 C 782.07 670.40 783.33 670.28 784.61 670.18 C 784.56 670.68 784.45 671.66 784.39 672.16 C 783.73 673.03 783.12 673.93 782.55 674.87 C 782.85 679.67 785.06 684.19 785.19 689.01 C 784.90 689.52 784.31 690.56 784.02 691.08 C 780.86 687.52 782.15 682.14 780.39 677.91 C 777.77 683.24 774.09 687.93 770.97 692.96 C 768.49 696.92 767.32 701.64 764.32 705.28 C 762.80 707.29 760.01 706.67 757.96 706.03 C 749.79 703.44 743.04 697.90 736.34 692.78 C 735.39 697.09 734.63 701.45 733.70 705.77 C 733.52 712.61 733.62 719.46 733.68 726.31 C 733.32 725.93 732.59 725.17 732.23 724.80 C 732.67 716.54 731.96 708.21 733.23 700.00 C 733.61 696.93 733.64 693.84 733.50 690.77 C 726.28 689.13 719.43 686.14 712.94 682.64 C 712.23 683.88 711.05 684.51 709.71 684.81 C 707.81 690.03 706.78 695.51 705.95 700.99 L 705.91 701.33 C 705.58 701.59 704.94 702.10 704.62 702.36 C 705.10 696.70 705.20 690.93 706.57 685.39 C 706.75 683.81 708.76 683.69 709.95 683.56 C 709.05 677.96 706.37 672.88 704.63 667.53 C 702.98 662.45 699.85 657.47 700.62 651.95 C 702.23 646.27 705.35 641.21 708.16 636.08 C 708.41 635.57 708.90 634.55 709.15 634.04 C 711.15 629.90 713.55 625.97 715.77 621.95 C 719.00 616.23 722.31 610.55 724.94 604.52 Z" />
<path fill="#60cc69" d=" M 352.31 606.16 C 352.76 606.71 352.76 606.71 352.31 606.16 Z" />
<path fill="#13b824" d=" M 627.21 618.42 C 636.73 618.63 646.20 617.46 655.72 617.48 L 656.53 617.44 C 657.57 625.04 657.52 632.71 657.50 640.37 C 656.84 640.41 655.51 640.50 654.84 640.54 C 645.69 641.02 636.61 642.57 627.43 642.47 C 626.77 634.46 627.13 626.44 627.21 618.42 Z" />
<path fill="#13b824" d=" M 594.20 618.57 C 604.00 618.31 613.81 618.36 623.62 618.42 C 623.59 626.44 623.63 634.47 623.78 642.50 C 614.10 642.54 604.54 644.05 594.90 644.60 C 594.52 635.93 594.00 627.25 594.20 618.57 Z" />
<path fill="#13b824" d=" M 563.55 620.22 C 572.54 619.37 581.60 620.14 590.59 619.05 C 590.21 627.77 591.64 636.41 591.66 645.12 C 582.30 645.66 572.93 645.81 563.55 645.86 C 563.54 637.31 563.64 628.77 563.55 620.22 Z" />
<path fill="#13b824" d=" M 536.32 623.64 C 544.45 623.55 552.27 621.09 560.33 620.40 C 560.37 629.03 560.38 637.66 560.36 646.30 C 552.11 646.97 543.86 647.55 535.61 648.25 C 535.68 640.04 535.22 631.79 536.32 623.64 Z" />
<path fill="#f4efe9" d=" M 764.91 636.07 C 764.25 628.97 771.04 622.37 778.09 623.22 C 781.53 623.23 785.00 625.30 786.45 628.45 C 787.20 631.54 786.64 634.87 785.21 637.70 C 785.47 634.42 785.84 631.09 785.34 627.82 C 782.74 623.00 775.99 623.71 771.80 625.81 C 766.74 629.20 766.72 636.25 768.72 641.42 C 772.95 643.92 777.88 643.18 782.29 641.59 C 779.83 644.54 775.94 643.62 772.62 643.16 C 768.95 642.49 766.03 639.54 764.91 636.07 Z" />
<path fill="#14b825" d=" M 167.78 624.73 C 168.62 624.63 169.46 624.54 170.31 624.45 C 170.59 625.10 171.16 626.41 171.44 627.07 C 170.63 627.55 169.83 628.04 169.02 628.53 C 168.47 628.01 167.92 627.49 167.37 626.98 C 167.48 626.42 167.68 625.30 167.78 624.73 Z" />
<path fill="#13b824" d=" M 512.71 625.32 C 519.40 625.37 526.05 624.33 532.74 624.15 C 532.47 632.21 532.39 640.27 532.42 648.33 C 525.82 648.38 519.23 648.54 512.65 648.81 C 512.64 640.97 513.41 633.16 512.71 625.32 Z" />
<path fill="#dd4e0c" d=" M 771.80 625.81 C 775.99 623.71 782.74 623.00 785.34 627.82 C 785.84 631.09 785.47 634.42 785.21 637.70 C 784.42 639.12 783.40 640.40 782.29 641.59 C 777.88 643.18 772.95 643.92 768.72 641.42 C 766.72 636.25 766.74 629.20 771.80 625.81 Z" />
<path fill="#050504" d=" M 349.51 643.51 C 353.30 639.54 359.12 640.20 364.10 639.87 C 374.48 639.78 380.89 651.58 379.51 660.92 C 378.87 664.50 375.48 667.04 372.03 667.67 C 366.24 669.33 360.09 668.25 354.26 668.88 C 351.18 672.33 349.03 676.49 346.00 679.99 C 343.77 682.54 341.64 685.17 339.54 687.84 C 343.02 693.31 343.81 699.85 345.30 706.03 C 346.57 711.77 349.34 717.02 351.94 722.24 C 356.60 722.52 361.31 722.60 365.84 723.89 C 370.12 725.07 374.60 724.57 378.94 725.26 C 381.32 726.86 383.37 729.04 386.18 729.99 C 387.76 727.46 389.22 724.86 390.57 722.20 C 388.09 720.41 385.32 718.36 384.76 715.14 C 384.33 710.33 384.96 705.34 386.85 700.88 C 388.98 696.30 393.20 691.98 398.55 691.87 C 403.29 691.56 408.83 692.13 412.20 695.88 C 414.16 698.06 413.62 701.29 413.42 703.97 C 411.77 710.23 409.11 716.70 403.48 720.41 C 400.86 723.08 397.03 723.06 393.57 722.81 C 391.79 725.62 390.02 728.47 388.97 731.65 C 393.45 733.57 398.32 734.19 403.15 733.47 C 403.56 734.10 404.39 735.34 404.81 735.97 C 411.95 735.67 418.97 734.03 426.15 734.25 C 431.82 732.49 437.67 731.26 443.61 731.07 C 442.95 726.59 439.48 723.36 437.63 719.39 C 434.28 714.11 432.39 708.10 429.23 702.72 C 429.93 702.48 431.33 702.00 432.04 701.77 C 434.85 706.90 436.57 712.55 439.67 717.54 C 441.62 721.85 444.91 725.43 446.48 729.92 C 446.02 731.10 445.57 732.29 445.13 733.49 C 439.35 733.61 433.60 734.12 427.87 734.89 C 419.20 736.12 410.21 736.41 401.98 739.72 C 398.63 745.28 395.61 751.03 393.33 757.11 C 389.11 765.87 387.86 775.58 386.08 785.02 C 385.38 790.69 384.11 796.31 384.29 802.05 C 384.41 804.09 383.61 805.99 383.21 807.96 C 387.65 816.10 394.69 822.51 398.95 830.79 C 400.78 834.33 403.59 837.89 403.28 842.07 C 401.54 846.72 396.78 849.21 394.25 853.36 C 388.62 861.88 383.57 870.83 379.50 880.21 C 386.71 878.04 392.36 872.70 398.13 868.12 C 398.81 868.30 400.17 868.64 400.84 868.81 C 399.51 871.25 396.87 872.31 394.65 873.73 C 390.14 876.37 386.20 879.88 381.57 882.31 C 379.96 883.23 378.09 882.70 376.38 882.54 C 376.58 875.23 382.38 869.80 385.52 863.60 C 389.08 856.21 395.10 850.44 399.59 843.65 C 401.75 840.64 399.07 837.21 397.75 834.45 C 393.17 824.96 386.79 816.51 380.15 808.38 C 374.12 807.21 367.96 807.63 361.87 807.80 C 360.67 807.72 359.60 808.03 358.64 808.73 C 354.77 811.43 351.40 814.75 347.86 817.85 C 344.43 821.40 341.58 825.47 337.90 828.78 C 335.24 831.45 332.45 834.07 330.25 837.14 C 327.85 843.70 331.41 850.35 332.14 856.90 C 332.58 864.80 334.08 872.66 333.39 880.61 C 329.82 881.05 328.62 877.24 327.13 874.81 C 324.61 869.58 321.61 864.60 317.98 860.06 C 316.73 859.00 317.46 857.35 317.61 856.02 C 323.41 861.73 325.80 869.83 330.73 876.18 C 330.71 870.06 329.70 864.01 329.47 857.91 C 329.19 851.51 326.88 845.37 326.77 838.97 C 326.60 835.64 329.40 833.54 331.51 831.46 C 335.13 827.71 339.69 825.06 343.30 821.31 C 343.51 821.01 343.92 820.40 344.13 820.10 C 348.33 815.23 353.40 811.20 357.72 806.44 C 357.75 802.98 356.90 799.41 358.20 796.07 C 361.41 785.50 364.20 774.82 367.07 764.16 C 367.40 763.10 367.75 762.05 368.11 761.01 C 369.05 757.35 370.03 753.70 371.06 750.07 C 373.06 742.67 374.31 735.12 375.97 727.66 C 371.91 727.62 367.93 726.82 363.97 726.00 C 359.30 724.94 354.36 726.05 349.79 724.42 C 346.81 717.39 344.17 710.19 342.20 702.82 C 341.02 698.75 339.94 694.62 338.05 690.82 C 333.50 694.07 331.74 699.98 327.17 703.19 C 326.66 696.04 336.05 693.40 336.46 686.53 C 337.07 686.46 338.29 686.32 338.90 686.25 C 343.46 679.49 348.45 673.00 352.73 666.07 C 351.35 662.27 347.92 659.32 347.41 655.15 C 346.86 651.25 346.09 646.38 349.51 643.51 Z" />
<path fill="#f5f4f0" d=" M 351.95 645.12 C 355.88 642.00 361.19 642.55 365.88 642.61 C 371.37 643.46 374.51 648.77 376.26 653.55 C 376.79 657.05 377.94 662.32 373.80 664.08 C 368.10 666.42 361.78 665.64 355.77 665.80 C 354.14 661.40 350.27 657.98 349.87 653.12 C 349.53 650.37 349.35 646.88 351.95 645.12 Z" />
<path fill="#0bb61d" d=" M 360.32 643.49 C 364.42 641.93 367.69 645.27 370.71 647.47 C 372.89 649.22 374.42 652.25 373.24 655.03 C 372.03 658.68 370.03 662.75 366.04 663.92 C 361.98 665.94 357.58 663.07 354.38 660.66 C 351.22 658.55 351.14 654.35 351.62 650.98 C 352.44 646.75 356.80 644.99 360.32 643.49 Z" />
<path fill="#13b824" d=" M 641.58 645.06 C 646.70 644.24 651.98 644.97 657.02 643.63 L 657.49 643.52 C 657.37 648.90 657.45 654.29 657.39 659.68 C 657.31 667.72 657.31 675.77 657.21 683.81 C 647.42 683.45 637.64 684.10 627.85 683.79 C 627.77 671.07 627.95 658.34 627.47 645.63 C 632.18 645.70 636.91 645.79 641.58 645.06 Z" />
<path fill="#13b824" d=" M 595.39 647.71 C 604.82 646.68 614.28 646.40 623.72 645.53 C 625.30 658.16 624.21 670.96 624.63 683.67 C 615.18 683.82 605.72 683.93 596.28 683.55 C 596.53 671.58 595.60 659.66 595.39 647.71 Z" />
<path fill="#13b824" d=" M 563.49 649.36 C 573.05 648.55 582.66 648.65 592.24 648.21 C 592.64 659.99 592.93 671.78 592.81 683.57 C 583.58 683.62 574.38 683.97 565.17 684.53 C 564.25 676.07 564.73 667.53 563.88 659.06 C 563.59 655.83 563.57 652.59 563.49 649.36 Z" />
<path fill="#13b824" d=" M 535.54 651.42 C 543.82 650.70 552.10 649.95 560.39 649.36 C 560.57 661.30 561.67 673.20 561.74 685.14 C 552.76 686.11 543.77 686.96 534.76 687.54 C 534.78 682.99 534.55 678.41 535.07 673.88 C 535.95 666.42 535.46 658.91 535.54 651.42 Z" />
<path fill="#13b824" d=" M 512.61 652.40 C 519.18 651.60 525.81 651.58 532.43 651.43 C 532.21 658.63 532.92 665.90 531.79 673.05 C 531.25 677.90 531.51 682.80 531.41 687.67 C 524.74 687.71 518.07 687.68 511.40 687.65 C 511.47 675.88 513.15 664.19 512.61 652.40 Z" />
<path fill="#030303" d=" M 174.84 655.83 C 178.09 655.43 181.40 655.01 184.67 655.44 C 186.54 657.51 187.32 660.27 188.36 662.81 C 191.92 672.08 195.73 681.25 199.36 690.50 C 200.58 693.72 203.25 696.07 204.72 699.17 C 204.17 699.43 203.08 699.96 202.54 700.22 C 193.74 701.27 184.88 702.24 175.99 702.20 C 169.33 702.35 162.71 701.50 156.05 701.49 C 141.00 701.31 125.99 700.29 111.02 698.76 C 99.01 698.49 87.00 698.48 74.99 698.72 C 63.68 699.70 52.33 700.48 40.96 700.33 C 40.62 699.75 39.93 698.57 39.58 697.99 C 44.18 690.57 48.35 682.87 51.75 674.82 C 53.98 669.77 56.33 664.65 59.84 660.35 C 60.53 660.40 61.90 660.50 62.59 660.55 C 61.91 664.87 58.28 667.84 56.70 671.82 C 53.04 680.31 49.27 688.78 44.54 696.74 C 53.34 696.81 62.17 696.76 70.93 695.82 C 82.26 695.22 93.61 695.54 104.95 695.51 C 116.69 695.44 128.28 697.74 140.02 697.75 C 159.60 698.29 179.32 699.86 198.80 697.13 C 192.52 684.66 188.61 671.08 182.49 658.51 C 171.93 659.43 161.64 662.78 150.96 662.58 C 137.30 662.47 123.56 663.17 110.02 660.93 C 102.31 660.22 94.55 660.47 86.82 660.22 L 86.17 659.82 C 77.53 659.22 68.88 659.62 60.24 659.33 C 60.31 658.06 60.34 656.79 60.35 655.53 C 72.92 655.51 85.42 656.49 97.95 657.23 C 107.03 656.95 115.97 658.61 124.99 659.31 C 141.66 659.45 158.61 660.40 174.84 655.83 Z" />
<path fill="#030303" d=" M 78.36 667.52 C 88.94 667.47 99.56 667.16 110.12 667.78 C 131.00 670.97 152.17 670.39 173.22 670.48 C 173.53 670.79 174.16 671.41 174.48 671.72 C 175.30 674.20 172.32 673.59 171.01 673.79 C 151.99 673.24 132.89 673.95 113.99 671.43 C 106.06 670.19 98.03 670.79 90.04 670.71 C 82.58 670.83 74.79 670.45 67.79 673.44 C 66.11 674.39 64.55 671.23 66.31 670.36 C 69.63 667.69 74.32 667.94 78.36 667.52 Z" />
<path fill="#858582" d=" M 69.94 686.34 C 66.92 687.05 66.86 681.71 69.87 682.00 C 77.11 681.47 84.46 681.48 91.68 682.28 L 90.75 682.30 C 83.48 682.85 76.03 681.38 68.88 683.06 L 68.00 683.89 C 68.24 684.33 68.72 685.22 68.95 685.67 C 81.98 684.90 95.03 685.30 108.06 686.00 C 123.80 686.52 139.57 685.82 155.31 686.40 C 140.21 686.82 125.10 686.47 110.00 686.61 C 96.65 686.12 83.29 685.76 69.94 686.34 Z" />
<path fill="#f5f4f0" d=" M 712.94 682.64 C 719.43 686.14 726.28 689.13 733.50 690.77 C 733.64 693.84 733.61 696.93 733.23 700.00 C 731.96 708.21 732.67 716.54 732.23 724.80 C 731.63 730.24 731.68 735.72 731.47 741.19 C 731.38 749.36 731.20 757.54 731.61 765.71 C 724.24 765.68 716.96 764.31 709.69 763.26 C 709.51 762.04 709.35 760.83 709.20 759.62 C 708.58 751.44 708.83 743.20 707.54 735.08 C 705.94 723.91 705.64 712.59 705.91 701.33 L 705.95 700.99 C 706.78 695.51 707.81 690.03 709.71 684.81 C 711.05 684.51 712.23 683.88 712.94 682.64 Z" />
<path fill="#030303" d=" M 68.88 683.06 C 76.03 681.38 83.48 682.85 90.75 682.30 C 103.85 682.53 116.92 683.54 130.03 683.23 C 148.48 682.98 166.91 683.79 185.35 683.66 C 185.75 684.33 186.56 685.66 186.96 686.33 C 185.36 686.85 183.74 687.44 182.02 687.26 C 173.11 687.14 164.22 686.51 155.31 686.40 C 139.57 685.82 123.80 686.52 108.06 686.00 C 95.03 685.30 81.98 684.90 68.95 685.67 C 68.72 685.22 68.24 684.33 68.00 683.89 L 68.88 683.06 Z" />
<path fill="#13b824" d=" M 565.35 688.87 C 574.48 688.64 583.63 688.69 592.77 688.55 C 592.89 697.51 592.46 706.48 592.87 715.44 C 583.69 716.04 574.49 715.65 565.31 715.80 C 565.54 706.83 565.08 697.85 565.35 688.87 Z" />
<path fill="#a8e0aa" d=" M 486.30 689.28 C 486.84 689.75 486.84 689.75 486.30 689.28 Z" />
<path fill="#13b823" d=" M 596.23 715.16 C 596.61 706.29 596.12 697.41 596.33 688.54 C 605.77 689.60 615.26 689.14 624.73 689.31 C 624.78 697.81 625.84 706.29 625.60 714.81 C 615.82 715.47 606.02 715.24 596.23 715.16 Z" />
<path fill="#0eb720" d=" M 628.35 689.43 C 637.92 689.52 647.50 689.56 657.07 689.14 C 657.77 696.49 658.95 703.93 657.27 711.24 C 648.27 714.29 638.61 713.02 629.35 714.49 L 629.34 714.15 C 629.37 705.89 628.19 697.69 628.35 689.43 Z" />
<path fill="#13b824" d=" M 534.72 691.45 C 543.73 690.42 552.81 690.62 561.82 689.54 C 561.79 698.41 561.74 707.29 561.65 716.16 L 561.65 716.26 C 552.65 716.04 543.66 716.94 534.66 716.72 C 534.91 708.30 534.73 699.87 534.72 691.45 Z" />
<path fill="#13b824" d=" M 486.49 693.68 C 493.61 692.24 500.81 691.21 508.10 691.29 C 508.52 699.79 507.63 708.27 507.85 716.77 C 501.52 716.47 495.11 717.34 488.85 716.34 C 485.74 709.32 486.00 701.23 486.49 693.68 Z" />
<path fill="#13b824" d=" M 511.41 691.28 C 518.08 691.25 524.75 691.24 531.42 691.26 C 531.44 699.76 531.20 708.26 531.46 716.76 C 524.78 716.76 518.11 716.81 511.43 716.75 C 511.60 708.26 511.27 699.77 511.41 691.28 Z" />
<path fill="#f5f4f0" d=" M 396.39 694.69 C 400.71 694.56 405.40 694.37 409.20 696.79 C 411.55 698.37 410.37 701.66 410.45 704.02 C 409.13 711.72 403.43 720.24 394.91 720.38 C 394.53 720.02 393.77 719.30 393.40 718.93 C 390.72 719.23 388.47 717.77 387.72 715.16 C 386.74 707.61 388.78 698.08 396.39 694.69 Z" />
<path fill="#484847" d=" M 704.62 702.36 C 704.94 702.10 705.58 701.59 705.91 701.33 C 705.64 712.59 705.94 723.91 707.54 735.08 C 708.83 743.20 708.58 751.44 709.20 759.62 C 708.43 757.60 707.58 755.63 706.90 753.58 C 706.51 747.72 707.07 741.80 706.07 735.99 C 704.40 724.87 703.89 713.56 704.62 702.36 Z" />
<path fill="#050505" d=" M 483.13 707.29 C 483.37 707.26 483.85 707.20 484.09 707.18 C 484.35 712.01 484.91 716.82 485.85 721.59 C 492.65 721.69 499.46 720.66 506.24 721.66 C 505.55 722.88 504.87 724.12 504.19 725.36 C 497.74 725.17 491.34 726.61 484.89 726.13 C 481.38 723.10 482.80 718.11 482.49 714.07 C 482.74 711.84 481.67 709.20 483.13 707.29 Z" />
<path fill="#4c4c4b" d=" M 603.59 719.85 C 613.75 718.32 624.04 717.93 634.29 718.27 C 632.77 718.72 631.25 719.20 629.72 719.61 C 621.19 719.94 612.60 720.05 604.13 721.40 C 594.82 723.05 585.35 722.13 575.96 722.68 C 574.62 722.64 573.43 723.30 572.27 723.84 C 570.85 723.77 569.45 723.74 568.05 723.68 C 566.64 722.80 565.28 721.94 563.85 721.15 C 577.06 719.98 590.43 721.90 603.59 719.85 Z" />
<path fill="#393938" d=" M 485.85 721.59 C 492.46 719.99 499.36 720.96 506.09 720.80 C 516.36 721.65 526.66 721.20 536.95 721.34 C 545.92 721.31 554.89 721.81 563.85 721.15 C 565.28 721.94 566.64 722.80 568.05 723.68 C 563.01 723.44 557.94 723.09 552.91 723.62 C 543.98 724.63 534.98 724.02 526.02 724.33 C 518.72 724.22 511.47 725.21 504.19 725.36 C 504.87 724.12 505.55 722.88 506.24 721.66 C 499.46 720.66 492.65 721.69 485.85 721.59 Z" />
<path fill="#232322" d=" M 732.23 724.80 C 732.59 725.17 733.32 725.93 733.68 726.31 L 734.13 726.77 C 734.28 738.37 734.45 749.98 734.19 761.58 C 732.24 752.45 734.06 743.04 732.57 733.84 C 732.15 736.27 731.72 738.72 731.47 741.19 C 731.68 735.72 731.63 730.24 732.23 724.80 Z" />
<path fill="#f5f4f0" d=" M 378.65 728.91 C 384.78 732.31 390.92 736.45 398.16 736.79 C 398.57 737.50 398.99 738.23 399.41 738.96 C 395.59 745.22 393.62 752.28 391.18 759.14 C 390.65 760.37 390.14 761.60 389.62 762.85 C 389.52 763.40 389.32 764.49 389.23 765.04 C 388.36 767.33 387.66 769.68 387.04 772.06 C 384.80 779.34 383.64 786.88 381.93 794.29 C 381.11 797.95 381.34 801.73 381.23 805.46 C 374.36 805.77 367.47 805.50 360.60 805.15 C 359.25 798.29 360.96 791.42 362.90 784.86 C 363.26 783.53 363.57 782.17 363.90 780.85 C 365.08 776.89 366.07 772.88 366.84 768.83 C 367.57 766.54 368.25 764.24 368.93 761.95 C 369.65 759.59 370.31 757.22 370.83 754.82 C 371.17 753.82 371.51 752.83 371.85 751.84 C 373.52 747.35 375.32 742.86 376.10 738.12 C 376.57 734.95 377.50 731.88 378.65 728.91 Z" />
<path fill="#050505" d=" M 732.57 733.84 C 734.06 743.04 732.24 752.45 734.19 761.58 C 735.57 770.82 734.25 780.20 734.68 789.51 L 735.46 789.57 C 735.33 791.28 735.08 794.70 734.96 796.41 C 733.01 787.22 733.56 777.83 733.12 768.52 C 725.72 768.91 718.54 766.68 711.17 766.42 C 711.16 767.93 711.13 769.46 711.10 770.99 C 710.12 778.59 710.99 786.29 710.36 793.91 C 709.86 796.97 709.81 800.09 710.08 803.19 C 709.01 793.15 709.75 783.03 709.13 772.97 C 708.73 770.63 708.50 768.27 708.25 765.92 C 705.66 762.30 706.93 757.70 706.90 753.58 C 707.58 755.63 708.43 757.60 709.20 759.62 C 709.35 760.83 709.51 762.04 709.69 763.26 C 716.96 764.31 724.24 765.68 731.61 765.71 C 731.20 757.54 731.38 749.36 731.47 741.19 C 731.72 738.72 732.15 736.27 732.57 733.84 Z" />
<path fill="#4c4c4b" d=" M 710.36 793.91 L 710.91 792.78 C 711.08 802.37 713.22 811.77 713.84 821.30 C 713.41 818.78 712.88 816.27 712.34 813.78 C 712.28 822.28 712.48 830.80 713.05 839.28 C 713.80 839.34 715.30 839.44 716.06 839.49 C 714.87 839.99 713.40 840.98 712.52 839.45 C 711.52 837.48 711.96 835.15 711.84 833.04 C 712.12 823.05 711.09 813.10 710.08 803.19 C 709.81 800.09 709.86 796.97 710.36 793.91 Z" />
<path fill="#060606" d=" M 735.69 793.66 C 736.88 801.05 736.14 808.62 737.33 816.03 C 738.64 824.07 738.45 832.22 738.69 840.34 C 745.39 835.02 747.17 826.32 751.77 819.52 C 752.33 819.54 753.43 819.59 753.99 819.62 C 753.00 823.86 750.37 827.54 748.28 831.31 C 745.08 835.23 743.40 840.54 739.04 843.40 C 736.33 844.25 735.36 841.15 735.71 839.06 C 736.19 823.93 734.43 808.77 735.69 793.66 Z" />
<path fill="#040404" d=" M 713.05 839.28 C 712.48 830.80 712.28 822.28 712.34 813.78 C 712.88 816.27 713.41 818.78 713.84 821.30 C 714.60 826.19 714.79 831.14 714.88 836.09 C 717.40 832.67 719.84 829.07 720.97 824.92 C 721.86 822.47 722.36 818.62 725.84 819.07 C 723.86 826.38 719.12 832.60 716.06 839.49 C 715.30 839.44 713.80 839.34 713.05 839.28 Z" />
</svg>
